<svg version="1.1" xmlns="http://www.w3.org/2000/svg" viewBox="0 0 200 200" enable-background="new 0 0 200 200"><linearGradient id="SVGID_1_" gradientUnits="userSpaceOnUse" x1="31.1326" y1="166.5063" x2="167.0317" y2="35.2666"><stop  offset="0" style="stop-color:#FED01C"/><stop  offset="0.2503" style="stop-color:#FE8B44"/><stop  offset="0.4144" style="stop-color:#FE5265"/><stop  offset="0.4889" style="stop-color:#FA3B75"/><stop  offset="0.577" style="stop-color:#F72783"/><stop  offset="0.6354" style="stop-color:#F61F88"/><stop  offset="0.9086" style="stop-color:#B20AC0"/><stop  offset="0.9422" style="stop-color:#AF09C3"/><stop  offset="0.9703" style="stop-color:#A406CB"/><stop  offset="0.9964" style="stop-color:#9301D9"/><stop  offset="1" style="stop-color:#9000DC"/></linearGradient><circle fill="url(#SVGID_1_)" cx="100" cy="100" r="94.9"/><g><path fill="#FFFFFF" d="M72.5,37.1c18.5,0,37.1,0,55.6,0c0.6,0.1,1.3,0.3,1.9,0.4c14.9,2.7,25.1,11.1,30.8,25 c1.3,3.1,1.8,6.4,2.4,9.7c0,18.5,0,37.1,0,55.6c-0.1,0.6-0.3,1.1-0.3,1.7c-0.8,5.6-2.7,10.8-5.8,15.5c-7.6,11.3-18.3,17.7-32,18 c-16.6,0.3-33.1,0.1-49.7,0.1c-6.4,0-12.5-1.7-18-5c-13.2-7.8-20-19.5-20.1-34.9c-0.1-15.4,0-30.9,0-46.4c0-2.2,0.1-4.3,0.5-6.5 c2.7-14.9,11.1-25.2,25.2-30.9C66,38.2,69.3,37.7,72.5,37.1z M151.4,98.4c-0.2-6.7,0.4-15.2-0.2-23.7 c-0.7-10.3-5.9-17.7-14.9-22.6c-4.2-2.3-8.7-3-13.4-3c-13.6,0-27.3,0-40.9,0c-2.3,0-4.7,0-7,0.2c-10.3,0.9-17.7,6-22.6,15 c-2.3,4.2-3,8.7-3,13.4c0,13.6,0,27.3,0,40.9c0,2.3,0,4.7,0.2,7c0.9,10.3,6,17.7,15,22.6c4.2,2.3,8.7,3,13.4,3 c13.6,0,27.3,0,40.9,0c2.3,0,4.7,0,7-0.2c10.3-0.9,17.7-6,22.6-15c2.2-4.1,3-8.7,3-13.3C151.4,115.2,151.4,107.6,151.4,98.4z"/><path fill="#FFFFFF" d="M100.3,131.7c-17.5,0-31.5-14.1-31.5-31.6c0-17.5,14.1-31.5,31.6-31.5c17.5,0,31.5,14.1,31.5,31.6 C131.9,117.6,117.8,131.7,100.3,131.7z M119.9,100c-0.3-11.2-8.9-19.5-19.7-19.5c-11.2,0.1-19.5,8.9-19.4,19.5 c0.1,11.2,8.9,19.6,19.6,19.5C111.6,119.5,119.7,110.7,119.9,100z"/><path fill="#FFFFFF" d="M138.5,66.3c0,2.3-2.1,4.3-4.4,4.3c-2.3,0-4.3-2.1-4.3-4.4c0-2.4,2.1-4.4,4.4-4.3 C136.6,62,138.5,64,138.5,66.3z"/></g></svg>