<svg id="Layer_1" data-name="Layer 1" xmlns="http://www.w3.org/2000/svg" xmlns:xlink="http://www.w3.org/1999/xlink" viewBox="0 0 400 763"><defs><style>.cls-1{fill:#fff;}.cls-2{fill:#777;}.cls-3{fill:#f4f4f4;}.cls-4{fill:#e2e2e2;}.cls-5{fill:url(#linear-gradient);}.cls-6{fill:url(#linear-gradient-2);}.cls-7{fill:url(#linear-gradient-3);}.cls-8{fill:url(#linear-gradient-4);}</style><linearGradient id="linear-gradient" x1="204.84" y1="1743.68" x2="234.32" y2="1717.23" gradientTransform="matrix(1, 0, 0, -1, 0, 2072)" gradientUnits="userSpaceOnUse"><stop offset="0" stop-color="#00ffaf"/><stop offset="0.06" stop-color="#00edad"/><stop offset="0.32" stop-color="#00a6a7"/><stop offset="0.55" stop-color="#006ea2"/><stop offset="0.75" stop-color="#00469f"/><stop offset="0.91" stop-color="#002d9d"/><stop offset="1" stop-color="#00249c"/></linearGradient><linearGradient id="linear-gradient-2" x1="199.33" y1="1759" x2="251.22" y2="1712.43" xlink:href="#linear-gradient"/><linearGradient id="linear-gradient-3" x1="229.55" y1="1690" x2="148.83" y2="1625.62" xlink:href="#linear-gradient"/><linearGradient id="linear-gradient-4" x1="178.33" y1="1781.58" x2="387.25" y2="1594.1" xlink:href="#linear-gradient"/></defs><rect class="cls-1" x="8.51" y="13.73" width="382.84" height="735.6" rx="55.43"/><g id="Group_1105" data-name="Group 1105"><path id="Path_2329" data-name="Path 2329" class="cls-2" d="M10.18,381.66q0,152.71,0,305.43c0,9.78.24,19.52,5,28.59,11,20.92,28,32,51.71,32,88.72.07,177.43-.07,266.15.08,26.32,0,46.88-17.76,54-40.57a65.26,65.26,0,0,0,2.83-19.63q-.06-65.88,0-131.77c0-1.44-.05-2.88,0-4.31.06-1.11-.31-2.72,1.62-2.55,1.37.12,1.22,1.41,1.28,2.38.06,1.23,0,2.47,0,3.7,0,44.75.08,89.49,0,134.24,0,15.09-4,28.77-14.3,40.56-12.13,13.89-27,20.78-45.34,20.77q-133.08-.11-266.14,0c-12.27,0-24.41-1.42-34.42-9.15-16.42-12.67-26.32-29-25.36-50.51.08-1.85,0-3.7,0-5.55q0-305.11,0-610.22c0-11.4.73-22.71,6.51-32.8C23.6,25.08,38.54,15.11,58.44,13a96.23,96.23,0,0,1,10.46-.48l262.45-.07c25.77,0,44.32,11.32,56,34.06,4.25,8.32,5.46,17.5,5.46,26.7q.11,227.22.05,454.44c0,.82.06,1.64,0,2.46-.12,1.31.43,3.42-1.65,3.25s-1.13-2.26-1.25-3.55,0-2.87,0-4.3q0-224.46,0-448.9c0-16.66-4.05-32-16.06-44.22-7.49-7.64-16.87-12-27.12-15-8.44-2.44-17-2.09-25.52-2.09q-126,0-252,0c-13.7,0-26.54,3.12-37.55,11.57C16.26,38.63,10,54.65,10.11,73.79c.22,35.09.06,70.19.06,105.29Q10.17,280.38,10.18,381.66Z"/><path id="Path_2330" data-name="Path 2330" class="cls-2" d="M26.89,159.34c2.53,2.12,1.3,5,1.3,7.48q.09,260.76,0,521.53c0,16.35,5.77,29.13,20.61,37,5.94,3.17,12.45,4.1,19.08,4.1q132.14,0,264.3,0c24,0,39-15.18,39.17-39.41.17-20.73,0-41.46,0-62.19q0-276.18.16-552.36c0-16.25-5.39-28.47-19.17-37.11a32.51,32.51,0,0,0-17.55-4.81c-15.2-.09-30.39-.15-45.59,0-8.31.07-11.77,3.26-13.34,11.51-2.59,13.65-10.4,20.34-24.21,20.36q-51.75.1-103.51,0c-14,0-21.4-6.45-24-20.36-1.52-7.93-5.34-11.48-13.45-11.57-15.2-.17-30.41-.43-45.59.08-22,.74-36.67,16.39-36.8,38.79-.14,25,0,50.08-.09,75.12,0,2.3,1.11,5-1.33,6.87a3.44,3.44,0,0,1-1.35-3.23c.11-28.52-.28-57.06.52-85.57A35.54,35.54,0,0,1,58.61,31.29a331.49,331.49,0,0,1,55.92.1,12.91,12.91,0,0,1,12,11.67c1.3,13.64,11.65,19.78,23.43,19.65,33.26-.38,66.53-.12,99.8-.14,14.19,0,19.59-4.59,22.57-19,1.59-7.73,6.69-12.73,15.12-12.83,17.64-.19,35.3-1.1,52.92.58,19.27,1.84,32.13,18.39,33.81,35.47.24,2.44.2,4.92.2,7.38q0,307.25.1,614.5c0,17.34-6.48,30.56-21.64,39-6,3.31-12.32,6.2-19.6,4.86a23.86,23.86,0,0,0-4.31-.06c-86.45,0-172.9-.17-259.35.2-11.15,0-20.92-2-29.55-8.87a36.38,36.38,0,0,1-13.84-24.41,99.23,99.23,0,0,1-.6-12.9q0-227.5,0-455c0-22,0-43.92,0-65.87C25.58,163.5,24.6,161,26.89,159.34Z"/><path id="Path_2331" data-name="Path 2331" class="cls-3" d="M201.33,702.52c14.95,0,29.91,0,44.86,0,2.12,0,5.36-.75,5.52,2.26.19,3.35-2.91,3.89-5.76,3.89H154.38c-2.26,0-5.08.19-5.17-2.89-.1-3.58,3-3.26,5.41-3.26Q178,702.49,201.33,702.52Z"/><g id="Group_1104" data-name="Group 1104"><path id="Path_2332" data-name="Path 2332" class="cls-3" d="M199.26,45.32H167c-2.1,0-4.59.34-4.42-4,.15-3.86,2.51-3.38,4.42-3.38q32.7,0,65.41,0c2.27,0,5.16-.11,5,4-.12,3.46-2.86,3.42-5,3.41C221.36,45.3,210.31,45.32,199.26,45.32Z"/><g id="Group_1103" data-name="Group 1103"><circle id="Ellipse_64" data-name="Ellipse 64" class="cls-3" cx="153.11" cy="41.63" r="4.42"/><circle id="Ellipse_65" data-name="Ellipse 65" class="cls-3" cx="140.39" cy="41.63" r="4.42"/><circle id="Ellipse_66" data-name="Ellipse 66" class="cls-3" cx="259.61" cy="41.63" r="4.42"/><circle id="Ellipse_67" data-name="Ellipse 67" class="cls-3" cx="246.89" cy="41.63" r="4.42"/></g></g></g><path id="Path_2333" data-name="Path 2333" class="cls-4" d="M358.17,376.31v2.06a8.55,8.55,0,0,1-.2,1.89A24.84,24.84,0,0,1,358.17,376.31Z"/><path class="cls-5" d="M215,328.27v.27A1.22,1.22,0,0,1,215,328.27Zm-.56-4.12v0ZM207,342c.34.54.72,1.08,1.08,1.6s.61.86.94,1.27c-.8-1.06-1.46-2.08-2-3Z"/><path class="cls-6" d="M271.3,320.89a34.45,34.45,0,0,0-6.21-17.14,33.63,33.63,0,0,0-5.68-6.41h0a34.9,34.9,0,0,0-11.53-6.64c-.85-.29-1.71-.54-2.54-.77a1.37,1.37,0,0,0-.4-.09c-.72-.18-1.44-.33-2.19-.45s-1.59-.27-2.34-.34a.79.79,0,0,0-.43,0c-.83,0-1.6-.13-2.43-.13a.55.55,0,0,0-.36,0,35.65,35.65,0,0,0-5.56.36c-.94.13-1.8.31-2.77.5a18.38,18.38,0,0,0-2.34.65,3,3,0,0,0-.61.16q-1.22.41-2.34.87a26,26,0,0,0-2.52,1.15c-.79.41-1.57.81-2.34,1.26a28.52,28.52,0,0,0-2.59,1.8c-.67.48-1.3,1-2,1.55s-1.09.95-1.61,1.47a7.86,7.86,0,0,0-1.05,1,20.23,20.23,0,0,0-1.46,1.6,40.62,40.62,0,0,0-2.55,3.43,16.49,16.49,0,0,0-1.08,1.8,32.35,32.35,0,0,0-1.67,3.33l-.18.4L181,366.16l11,6.72,13.77-32.79h0c.27.52.66,1.21,1.15,2s1.21,1.91,2,3l.55.7c.45.58,1,1.13,1.46,1.69s.94,1,1.42,1.48h.11l1.6,1.44a34.2,34.2,0,0,0,11.12,6.33,33.78,33.78,0,0,0,4.52,1.19c.75.16,1.5.29,2.27.38s1.54.18,2.3.23,1.51,0,2.28,0a35.17,35.17,0,0,0,4.92-.34,26.42,26.42,0,0,0,2.79-.54,25.24,25.24,0,0,0,2.68-.72,18.12,18.12,0,0,0,2-.72c.65-.24,1.26-.49,1.8-.74l1.8-.92c.61-.32,1.2-.64,1.8-1s1.15-.7,1.8-1.08l1.67-1.21,1.58-1.29c.52-.49,1.05-.92,1.51-1.41s1.32-1.35,1.95-2.05a38.26,38.26,0,0,0,4.59-6.8,35.09,35.09,0,0,0,3.59-12.38c.11-1.08.18-2.16.2-3.22A30.47,30.47,0,0,0,271.3,320.89ZM258.51,326a23.37,23.37,0,0,1-1.49,6l-.18.43c-.22.5-.45,1-.69,1.42a9.58,9.58,0,0,1-.95,1.64,5.09,5.09,0,0,1-.9,1.31,20.5,20.5,0,0,1-6.37,5.85,12.29,12.29,0,0,1-1.51.83,27.35,27.35,0,0,1-3,1.24,21.41,21.41,0,0,1-3.86.9,15.26,15.26,0,0,1-1.79.16,10.29,10.29,0,0,1-1.57,0,4.1,4.1,0,0,1-1,0,7.22,7.22,0,0,1-.93,0,11.78,11.78,0,0,1-2.29-.38h-.14a21,21,0,0,1-2.22-.81h0a21.8,21.8,0,0,1-3.15-1.35,17.88,17.88,0,0,1-1.8-1c-.36-.27-.75-.52-1.11-.77a14.38,14.38,0,0,1-2.09-1.8,11.33,11.33,0,0,1-1-1,16.75,16.75,0,0,1-1.8-2.32,20.18,20.18,0,0,1-2.64-5,5.64,5.64,0,0,1-.4-1.2,6.24,6.24,0,0,1-.41-1.4v-.51a16.17,16.17,0,0,1-.49-3.6h0v-.45h0a14.6,14.6,0,0,1,1.06-7.3l.7-1.68c.18-.41.38-.82.58-1.24a15.46,15.46,0,0,1,1.28-2.19v-.11c.29-.42.59-.83.91-1.24a16.33,16.33,0,0,1,1.17-1.44,19.56,19.56,0,0,1,2.52-2.38,22.58,22.58,0,0,1,4.3-2.75,22,22,0,0,1,6.68-2l1-.14h1.89a8.28,8.28,0,0,1,1.22,0,5,5,0,0,1,1.55.16l1.19.18a4.22,4.22,0,0,1,1.24.29,11.32,11.32,0,0,1,1.4.43,6.83,6.83,0,0,1,1.33.49,21.11,21.11,0,0,1,7.33,4.73,21.83,21.83,0,0,1,1.67,1.8,20.86,20.86,0,0,1,3.26,5.68,8,8,0,0,1,.57,1.64,21.45,21.45,0,0,1,.56,2.16,17.4,17.4,0,0,1,.29,1.8,2.09,2.09,0,0,1,0,.5A20.7,20.7,0,0,1,258.51,326Z"/><path class="cls-7" d="M265.6,436.7a21.78,21.78,0,0,0-.29-2.43,3.31,3.31,0,0,0,0-.63c-.16-.85-.34-1.64-.52-2.43a26.68,26.68,0,0,0-.77-2.66c-.31-.87-.56-1.68-.9-2.51a24,24,0,0,0-1.34-2.8c-.39-.74-.79-1.44-1.24-2.16s-.77-1.23-1.2-1.8a9.31,9.31,0,0,0-.87-1.19c-.43-.59-.91-1.13-1.36-1.65a33.55,33.55,0,0,0-3-3c-.51-.47-1.07-.94-1.61-1.35a30.66,30.66,0,0,0-3-2.13l-.36-.23L207.39,384.5l-16.07-9.74-11-6.63h0S167,360,166.64,359.7a37.51,37.51,0,0,0-7.72-3.76,30.39,30.39,0,0,0-4.52-1.2,21.75,21.75,0,0,0-2.26-.38,22.58,22.58,0,0,0-2.31-.23,11.58,11.58,0,0,0-2.28,0,34.91,34.91,0,0,0-4.91.32,26.23,26.23,0,0,0-2.78.54,20.92,20.92,0,0,0-2.69.72,18.71,18.71,0,0,0-2.06.74,14.66,14.66,0,0,0-1.79.74l-1.8.9c-.6.32-1.21.66-1.8,1s-1.15.72-1.8,1.1a18.85,18.85,0,0,0-1.64,1.2l-1.6,1.3c-.51.49-1,.92-1.51,1.4s-1.3,1.35-1.93,2.05a38.17,38.17,0,0,0-4.59,6.81,35.53,35.53,0,0,0-3.79,12.32c-.11,1.08-.18,2.16-.2,3.24a22.56,22.56,0,0,0,.13,3.18A34.49,34.49,0,0,0,119,408.84a33,33,0,0,0,5.69,6.41h0a34.56,34.56,0,0,0,11.57,6.69c.81.27,1.67.51,2.5.74a.59.59,0,0,0,.37,0c.74.2,1.46.32,2.22.47s1.58.27,2.39.34a1,1,0,0,0,.43,0,22,22,0,0,0,2.43.13.73.73,0,0,0,.36,0,38.29,38.29,0,0,0,5.56-.38,23,23,0,0,0,2.75-.52,17,17,0,0,0,2.36-.47,3,3,0,0,0,.61-.16c.81-.27,1.59-.58,2.34-.89a24.14,24.14,0,0,0,2.45-1.06c.79-.39,1.56-.81,2.34-1.26a23.73,23.73,0,0,0,2.57-1.8c.67-.48,1.31-1,2-1.53s1.1-1,1.62-1.47a11.33,11.33,0,0,0,1.05-1,21,21,0,0,0,1.43-1.6,35.73,35.73,0,0,0,2.58-3.43c.38-.58.75-1.19,1.08-1.8a32.35,32.35,0,0,0,1.67-3.33l.16-.4,5.89-14-10.8-6.55-.22-.13h0l-6.53,15.6a12.71,12.71,0,0,1-.57,1.24,13.61,13.61,0,0,1-1.28,2.22v.09c-.29.43-.58.84-.9,1.26a13.36,13.36,0,0,1-1.19,1.42,18.25,18.25,0,0,1-2.5,2.39,21.93,21.93,0,0,1-11,4.79l-1,.12h-2.19a8.15,8.15,0,0,1-1.21,0l-1.55-.14a5.47,5.47,0,0,1-1.2-.2,10.3,10.3,0,0,1-1.22-.29,8.81,8.81,0,0,1-1.41-.43,5.46,5.46,0,0,1-1.35-.49,21,21,0,0,1-7.3-4.71,20.2,20.2,0,0,1-5-7.5,7.3,7.3,0,0,1-.59-1.64c-.23-.72-.4-1.44-.56-2.16s-.21-1.26-.29-1.8a4.17,4.17,0,0,1,0-.5,21.18,21.18,0,0,1,0-4.36,23.9,23.9,0,0,1,1.44-6.13l.18-.42c.22-.5.45-1,.67-1.42a13.23,13.23,0,0,1,.95-1.58,5.65,5.65,0,0,1,.9-1.31,19.13,19.13,0,0,1,3.78-4.05,17.12,17.12,0,0,1,2.59-1.8,13.23,13.23,0,0,1,1.51-.85,9.46,9.46,0,0,1,1.6-.7,9.13,9.13,0,0,1,1.43-.54,20.27,20.27,0,0,1,3.85-.88,17.69,17.69,0,0,1,1.8-.18,7.92,7.92,0,0,1,1.54,0,3.29,3.29,0,0,1,1,0,7.69,7.69,0,0,1,1,0,11.6,11.6,0,0,1,2.26.38h.15c.77.16,1.56.43,2.3.65h.11a21.1,21.1,0,0,1,2.61,1.08l.52.26c.61.29,28.43,17.12,28.43,17.12L219,406.5l-2.07.9c-.31.15-.61.27-.92.44l-.85.41-.81.41c-.44.23-.89.48-1.34.76-.65.38-1.26.79-1.89,1.19s-1.1.81-1.68,1.2h-.11c-.55.45-1.11.9-1.65,1.39a34,34,0,0,0-3,3,36.38,36.38,0,0,0-4.86,7.09,33.54,33.54,0,0,0-1.8,4.29c-.25.7-.5,1.44-.7,2.19s-.4,1.49-.56,2.23a21.2,21.2,0,0,0-.41,2.25,40.45,40.45,0,0,0-.4,4.91,21.06,21.06,0,0,0,.13,2.83c.06.93.17,1.85.32,2.77.11.74.25,1.44.41,2.14s.31,1.3.47,1.91l.63,2c.24.64.47,1.29.76,1.92s.54,1.24.82,1.8l.94,1.8,1.06,1.8c.4.58.74,1.17,1.17,1.8a22.24,22.24,0,0,0,1.8,2.21,37.83,37.83,0,0,0,6.05,5.54,35.1,35.1,0,0,0,11.73,5.4c1,.25,2.1.49,3.16.67a26.06,26.06,0,0,0,3.15.32,34.51,34.51,0,0,0,17.89-3.6,34.13,34.13,0,0,0,7.2-4.69h0a34.86,34.86,0,0,0,8.25-10.44c.38-.77.76-1.58,1.1-2.37a.67.67,0,0,0,.15-.38,15.74,15.74,0,0,0,.68-2,18.26,18.26,0,0,0,.7-2.32.84.84,0,0,0,.14-.41c.18-.81.36-1.57.47-2.38a.55.55,0,0,0,0-.36,33.31,33.31,0,0,0,.49-5.56Zm-12.72,4a3.78,3.78,0,0,1-.11,1.09c-.11.38,0,.69-.16,1.07a8.17,8.17,0,0,1-.22,1.2c-.11.49-.23,1-.36,1.46s-.34,1.08-.48,1.47-.23.62-.36.92a9,9,0,0,1-.65,1.32,6.53,6.53,0,0,1-.67,1.25,21.38,21.38,0,0,1-5.86,6.55,24.47,24.47,0,0,1-2,1.39,20.74,20.74,0,0,1-6.1,2.37,7.75,7.75,0,0,1-1.71.35c-.74.12-1.48.18-2.22.23s-1.26,0-1.92,0h-.4a21.59,21.59,0,0,1-4.3-.65,22.55,22.55,0,0,1-5.7-2.35l-.4-.24c-.45-.29-.88-.59-1.29-.88a10.57,10.57,0,0,1-1.48-1.19,5.79,5.79,0,0,1-1.19-1.08,19.47,19.47,0,0,1-3.49-4.28,16.63,16.63,0,0,1-1.36-2.82,13.84,13.84,0,0,1-.62-1.62,9.09,9.09,0,0,1-.46-1.7,9.19,9.19,0,0,1-.33-1.47,22.6,22.6,0,0,1-.32-3.94,9.62,9.62,0,0,1,.11-1.8,13.39,13.39,0,0,1,.21-1.53,5.19,5.19,0,0,1,.18-1,7.42,7.42,0,0,1,.18-.94,15.09,15.09,0,0,1,.7-2.19.29.29,0,0,1,0-.13c.29-.75.65-1.49,1-2.19v-.09a23.6,23.6,0,0,1,1.8-2.92c.38-.54.83-1.06,1.28-1.58a11.35,11.35,0,0,1,.94-1,12.88,12.88,0,0,1,2-1.8,11.3,11.3,0,0,1,1.13-.83,15,15,0,0,1,2.58-1.49,21,21,0,0,1,5.39-1.8,4.87,4.87,0,0,1,1.25-.2,6.35,6.35,0,0,1,1.79-.2h.58a15.91,15.91,0,0,1,3.38.09h.31a15.57,15.57,0,0,1,7.2,2.25l1.29.79c.38.24.78.49,1.14.76a16.67,16.67,0,0,1,2,1.56h0a12.47,12.47,0,0,1,1.1,1.08,14.82,14.82,0,0,1,1.26,1.37,19.93,19.93,0,0,1,2,2.83,21.92,21.92,0,0,1,3.08,11.55,1.09,1.09,0,0,1,.25.9Z"/><path class="cls-8" d="M246.62,351.55l.14.42Z"/></svg>