<svg xmlns="http://www.w3.org/2000/svg" width="218.654" height="192.595" viewBox="0 0 218.654 192.595">
  <g id="Group_8331" data-name="Group 8331" transform="translate(-549.446 5880.317)">
    <g id="freepik--Graphics--inject-33" transform="translate(585.41 -5880.317)">
      <rect id="Rectangle_827" data-name="Rectangle 827" width="94.215" height="86.295" transform="translate(2.18 5.192)" fill="#fafafa"/>
      <path id="Path_4800" data-name="Path 4800" d="M834.272-5768.687H739.558v-86.784h94.714Zm-94.215-.5h93.716v-85.785H740.057Z" transform="translate(-737.628 5860.424)" fill="#263238"/>
      <rect id="Rectangle_828" data-name="Rectangle 828" width="98.1" height="5.501" transform="translate(0)" fill="#375a64"/>
      <path id="Path_4801" data-name="Path 4801" d="M741.885-5852.717l93.791,9.207-.05-9.207Z" transform="translate(-739.491 5858.219)" fill="#e0e0e0"/>
      <rect id="Rectangle_829" data-name="Rectangle 829" width="3.162" height="35.307" transform="translate(16.833 34.284)" fill="#a8bacc"/>
      <rect id="Rectangle_830" data-name="Rectangle 830" width="3.162" height="23.317" transform="translate(22.938 46.275)" fill="#a8bacc"/>
      <rect id="Rectangle_831" data-name="Rectangle 831" width="3.162" height="31.097" transform="translate(29.043 38.673)" fill="#a8bacc"/>
      <rect id="Rectangle_832" data-name="Rectangle 832" width="3.162" height="33.94" transform="translate(35.142 35.646)" fill="#a8bacc"/>
      <rect id="Rectangle_833" data-name="Rectangle 833" width="3.162" height="22.599" transform="translate(41.247 46.993)" fill="#a8bacc"/>
      <rect id="Rectangle_834" data-name="Rectangle 834" width="3.162" height="18.165" transform="translate(47.352 51.427)" fill="#a8bacc"/>
      <rect id="Rectangle_835" data-name="Rectangle 835" width="3.162" height="31.681" transform="translate(53.452 37.91)" fill="#a8bacc"/>
      <rect id="Rectangle_836" data-name="Rectangle 836" width="3.162" height="25.97" transform="translate(59.556 43.621)" fill="#a8bacc"/>
      <rect id="Rectangle_837" data-name="Rectangle 837" width="3.162" height="30.534" transform="translate(65.661 39.058)" fill="#a8bacc"/>
      <rect id="Rectangle_838" data-name="Rectangle 838" width="3.162" height="20.803" transform="translate(71.761 48.788)" fill="#ff725e"/>
      <rect id="Rectangle_839" data-name="Rectangle 839" width="3.162" height="24.763" transform="translate(77.866 44.828)" fill="#a8bacc"/>
      <path id="Path_4802" data-name="Path 4802" d="M883.655-5670.232a.854.854,0,0,1-.2-.034l-.594-.121a9.235,9.235,0,0,0-.968-.155,11.828,11.828,0,0,0-1.327-.109,15.356,15.356,0,0,0-3.636.313,16.07,16.07,0,0,0-4.489,1.707,18.464,18.464,0,0,0-4.564,3.636,34.348,34.348,0,0,0-3.85,5.505,33.159,33.159,0,0,1-4.324,6.11,11.286,11.286,0,0,1-3.187,2.384,6.8,6.8,0,0,1-1.965.6,6.343,6.343,0,0,1-2.08-.074,8.413,8.413,0,0,1-3.626-1.9,16.911,16.911,0,0,1-2.688-2.927,63.35,63.35,0,0,1-3.85-6.424,26.64,26.64,0,0,0-3.845-5.486,10.313,10.313,0,0,0-2.379-1.87,9.71,9.71,0,0,0-1.287-.624,10.054,10.054,0,0,0-1.312-.39,9.486,9.486,0,0,0-4.763.135,10.693,10.693,0,0,0-3.272,1.572,12.071,12.071,0,0,0-1.721,1.54l-.4.449c-.09.1-.14.155-.145.149a.982.982,0,0,1,.125-.164l.384-.469a10.913,10.913,0,0,1,1.7-1.585,10.644,10.644,0,0,1,3.292-1.632,9.6,9.6,0,0,1,4.848-.174,10,10,0,0,1,5.087,2.913,26.555,26.555,0,0,1,3.9,5.541,62.993,62.993,0,0,0,3.845,6.383,16.654,16.654,0,0,0,2.648,2.889,8.336,8.336,0,0,0,3.491,1.845,6.053,6.053,0,0,0,3.885-.5,11.116,11.116,0,0,0,3.112-2.324,33.156,33.156,0,0,0,4.3-6.06,34.6,34.6,0,0,1,3.9-5.542,18.494,18.494,0,0,1,4.638-3.651,16.034,16.034,0,0,1,4.564-1.691,15.1,15.1,0,0,1,3.671-.269,11.574,11.574,0,0,1,1.337.135,8.147,8.147,0,0,1,.962.179l.589.144A1.452,1.452,0,0,1,883.655-5670.232Z" transform="translate(-804.582 5712.521)" fill="#263238"/>
      <path id="Path_4803" data-name="Path 4803" d="M796.343-5699.5c-.075,0-.135-10.07-.135-22.483s.06-22.49.135-22.49.13,10.07.13,22.49S796.413-5699.5,796.343-5699.5Z" transform="translate(-782.986 5771.551)" fill="#263238"/>
      <path id="Path_4804" data-name="Path 4804" d="M873.8-5519.37c0,.07-15,.13-33.492.13s-33.491-.06-33.491-.13,14.993-.129,33.491-.129S873.8-5519.435,873.8-5519.37Z" transform="translate(-791.48 5591.42)" fill="#263238"/>
      <path id="Path_4805" data-name="Path 4805" d="M818.111-5505.494a10.827,10.827,0,0,1-2.344.129,10.829,10.829,0,0,1-2.344-.129,10.737,10.737,0,0,1,2.344-.129A10.736,10.736,0,0,1,818.111-5505.494Z" transform="translate(-796.77 5580.323)" fill="#263238"/>
      <path id="Path_4806" data-name="Path 4806" d="M853.525-5504.744a14.905,14.905,0,0,1-2.8.13,14.966,14.966,0,0,1-2.793-.13,15.515,15.515,0,0,1,2.808-.129A15.562,15.562,0,0,1,853.525-5504.744Z" transform="translate(-824.398 5579.721)" fill="#263238"/>
      <path id="Path_4807" data-name="Path 4807" d="M886.764-5504.744a14.908,14.908,0,0,1-2.8.13,14.906,14.906,0,0,1-2.8-.13,15.459,15.459,0,0,1,2.8-.129A15.462,15.462,0,0,1,886.764-5504.744Z" transform="translate(-851.003 5579.721)" fill="#263238"/>
      <path id="Path_4808" data-name="Path 4808" d="M920.068-5504.744a14.907,14.907,0,0,1-2.8.13,14.908,14.908,0,0,1-2.8-.13,15.461,15.461,0,0,1,2.8-.129A15.461,15.461,0,0,1,920.068-5504.744Z" transform="translate(-877.669 5579.721)" fill="#263238"/>
      <path id="Path_4809" data-name="Path 4809" d="M953.373-5504.744a14.9,14.9,0,0,1-2.8.13,14.906,14.906,0,0,1-2.8-.13,15.46,15.46,0,0,1,2.8-.129A15.459,15.459,0,0,1,953.373-5504.744Z" transform="translate(-904.335 5579.721)" fill="#263238"/>
      <path id="Path_4810" data-name="Path 4810" d="M986.677-5504.682a14.991,14.991,0,0,1-2.8.131,14.906,14.906,0,0,1-2.8-.131A30.539,30.539,0,0,1,986.677-5504.682Z" transform="translate(-931.001 5579.658)" fill="#263238"/>
      <path id="Path_4811" data-name="Path 4811" d="M1019.961-5504.682a30.251,30.251,0,0,1-5.611,0A30.593,30.593,0,0,1,1019.961-5504.682Z" transform="translate(-957.647 5579.658)" fill="#263238"/>
      <path id="Path_4812" data-name="Path 4812" d="M1053.266-5504.682a30.248,30.248,0,0,1-5.611,0A30.591,30.591,0,0,1,1053.266-5504.682Z" transform="translate(-984.313 5579.658)" fill="#263238"/>
      <path id="Path_4813" data-name="Path 4813" d="M1086.565-5504.682a30.2,30.2,0,0,1-5.606,0A30.542,30.542,0,0,1,1086.565-5504.682Z" transform="translate(-1010.979 5579.658)" fill="#263238"/>
      <path id="Path_4814" data-name="Path 4814" d="M1119.869-5504.682a30.2,30.2,0,0,1-5.606,0A30.539,30.539,0,0,1,1119.869-5504.682Z" transform="translate(-1037.644 5579.658)" fill="#263238"/>
      <path id="Path_4815" data-name="Path 4815" d="M919.067-5624.7c0-.035.284.061.374.449a.941.941,0,0,1-.07.674.592.592,0,0,1-.339.284.614.614,0,0,1-.469-.056.792.792,0,0,1-.4-.743.806.806,0,0,1,.324-.594.5.5,0,0,1,.444-.11c.1.03.145.084.135.095a.52.52,0,0,0-.464.155.674.674,0,0,0-.2.462.573.573,0,0,0,.284.5.35.35,0,0,0,.484-.1c0-.007.01-.016.014-.023a.9.9,0,0,0,.095-.5C919.231-5624.528,919.047-5624.652,919.067-5624.7Z" transform="translate(-880.628 5675.74)" fill="#263238"/>
      <path id="Path_4816" data-name="Path 4816" d="M1072.718-5667.142a.287.287,0,0,1,.2,0,.773.773,0,0,1,.414.36,1,1,0,0,1,.1.813.853.853,0,0,1-.793.633.682.682,0,0,1-.5-.264,1.1,1.1,0,0,1-.214-.449,1.053,1.053,0,0,1,.13-.808c.284-.4.638-.384.628-.354a1.1,1.1,0,0,0-.469.444.907.907,0,0,0-.075.623c.065.239.25.5.5.5a.644.644,0,0,0,.559-.448.9.9,0,0,0-.04-.654A.872.872,0,0,0,1072.718-5667.142Z" transform="translate(-1003.725 5709.701)" fill="#263238"/>
      <path id="Path_4817" data-name="Path 4817" d="M1077.986-5707.8c-.075,0-.13-.369-.13-.823s.055-.817.13-.817.13.364.13.817S1078.055-5707.8,1077.986-5707.8Z" transform="translate(-1008.494 5743.502)" fill="#263238"/>
      <path id="Path_4818" data-name="Path 4818" d="M1077.986-5691.336c-.075,0-.13-.369-.13-.818s.055-.823.13-.823.13.369.13.823S1078.055-5691.336,1077.986-5691.336Z" transform="translate(-1008.494 5730.318)" fill="#263238"/>
      <path id="Path_4819" data-name="Path 4819" d="M1077.986-5675.764c-.075,0-.13-.165-.13-.375s.055-.374.13-.374.13.169.13.374S1078.055-5675.764,1077.986-5675.764Z" transform="translate(-1008.494 5717.138)" fill="#263238"/>
      <g id="Group_8315" data-name="Group 8315" transform="translate(71.761 48.788)" opacity="0.3">
        <rect id="Rectangle_840" data-name="Rectangle 840" width="3.162" height="20.803" fill="#fff"/>
      </g>
    </g>
    <g id="freepik--character-3--inject-33" transform="translate(685.932 -5823.634)">
      <rect id="Rectangle_841" data-name="Rectangle 841" width="3.451" height="41.352" transform="translate(54.048 85.837)" fill="#455a64"/>
      <path id="Path_4820" data-name="Path 4820" d="M1391.487-5177.437h49.377a5.357,5.357,0,0,0-5.357-5.356h-38.663a5.357,5.357,0,0,0-5.357,5.356Z" transform="translate(-1360.132 5265.145)" fill="#455a64"/>
      <path id="Path_4821" data-name="Path 4821" d="M1497.18-5155.891a36.655,36.655,0,0,0,6.055,0A35.517,35.517,0,0,0,1497.18-5155.891Z" transform="translate(-1444.758 5243.708)" fill="#263238"/>
      <path id="Path_4822" data-name="Path 4822" d="M1438.253-4998.915h.5a14.69,14.69,0,0,1,14.957-14.416,14.689,14.689,0,0,1,14.415,14.416h.5a15.178,15.178,0,0,0-15.45-14.9,15.178,15.178,0,0,0-14.9,14.9Z" transform="translate(-1397.577 5129.849)" fill="#455a64"/>
      <path id="Path_4823" data-name="Path 4823" d="M1577.851-4944.412a2.274,2.274,0,0,0,2.274,2.274,2.274,2.274,0,0,0,2.274-2.274,2.274,2.274,0,0,0-2.274-2.274h0A2.279,2.279,0,0,0,1577.851-4944.412Z" transform="translate(-1509.349 5076.1)" fill="#263238"/>
      <path id="Path_4824" data-name="Path 4824" d="M1427.494-4945.985a2.274,2.274,0,0,0,2.279,2.27,2.274,2.274,0,0,0,2.269-2.279,2.274,2.274,0,0,0-2.274-2.27,2.274,2.274,0,0,0-2.274,2.274Z" transform="translate(-1388.962 5077.363)" fill="#455a64"/>
      <path id="Path_4825" data-name="Path 4825" d="M1438.979-4958.347c0,.07,6.6.13,14.748.13s14.748-.06,14.748-.13-6.6-.125-14.748-.125S1438.979-4958.417,1438.979-4958.347Z" transform="translate(-1398.158 5085.536)" fill="#455a64"/>
      <path id="Path_4826" data-name="Path 4826" d="M1523.2-5383.687v30.424a7.231,7.231,0,0,1-7.232,7.232h-23.442l3.187-37.671a3.222,3.222,0,0,1,3.222-3.222h21.058a3.222,3.222,0,0,1,3.207,3.237Z" transform="translate(-1441.031 5428.586)" fill="#455a64"/>
      <path id="Path_4827" data-name="Path 4827" d="M1604.8-5340.366a.383.383,0,0,1,.055-.09l.17-.249c.16-.214.379-.539.648-.968a15.949,15.949,0,0,0,1.736-3.885,15.61,15.61,0,0,0,.583-2.877,29.584,29.584,0,0,0,.09-3.382v-7.781c0-5.511.03-10.5.04-14.14,0-1.791.025-3.247.035-4.284,0-.5,0-.878.025-1.162a2.58,2.58,0,0,1,.025-.409,2.6,2.6,0,0,1,0,.409c0,.285,0,.674.025,1.162,0,1.038,0,2.494.035,4.284,0,3.64.025,8.628.04,14.14v7.781a29.872,29.872,0,0,1-.12,3.4,15.744,15.744,0,0,1-2.449,6.788,8.2,8.2,0,0,1-.688.942A1.91,1.91,0,0,1,1604.8-5340.366Z" transform="translate(-1530.926 5422.716)" fill="#263238"/>
      <path id="Path_4828" data-name="Path 4828" d="M1540.719-5182.979a4.674,4.674,0,0,1,.748-.04l2.03-.025h6.708c1.311,0,2.558,0,3.69.045a11.761,11.761,0,0,1,2.993.33,4.652,4.652,0,0,1,1.811.947,2.857,2.857,0,0,1,.394.4.615.615,0,0,1,.12.154,6.533,6.533,0,0,0-.574-.474,4.936,4.936,0,0,0-1.8-.858,12.781,12.781,0,0,0-2.993-.27l-3.691-.024c-2.618,0-4.988-.045-6.7-.08l-2.03-.054A4.243,4.243,0,0,1,1540.719-5182.979Z" transform="translate(-1479.618 5265.345)" fill="#263238"/>
      <path id="Path_4829" data-name="Path 4829" d="M1414.92-5532.353a19.983,19.983,0,0,0-1.342,6.544,6.088,6.088,0,0,1-.319,3.042,9.671,9.671,0,0,1-1.471,1.567,4.62,4.62,0,0,0-.818,4.988,3.1,3.1,0,0,0,1.182,1.406,4.487,4.487,0,0,0,2.065.5,34.757,34.757,0,0,0,7.122-.324,4.508,4.508,0,0,0,3.038-1.352,4.457,4.457,0,0,0,.633-2.922,27.885,27.885,0,0,0-2.8-11.157" transform="translate(-1375.415 5545.028)" fill="#263238"/>
      <path id="Path_4830" data-name="Path 4830" d="M1482.107-5547.563a1.76,1.76,0,0,1,2.209,1.148,1.759,1.759,0,0,1-1.148,2.208,1.76,1.76,0,0,1-1.291-.089,2.831,2.831,0,0,1,2.773,1.7,14.646,14.646,0,0,1,.928,3.346,4.5,4.5,0,0,0,1.756,2.9c.992.6,2.284.6,2.893,1.522s.08,2.264.344,3.381a5.142,5.142,0,0,0,2.19,2.554c.9.7,1.83,1.631,1.781,2.773a2.6,2.6,0,0,1-1.561,2.1,6.773,6.773,0,0,1-2.678.5,39.427,39.427,0,0,1-13.392-1.725,3.646,3.646,0,0,1-1.85-1.028c-.688-.848-.524-2.08-.329-3.152a71.312,71.312,0,0,1,2.379-10.11,23.948,23.948,0,0,1,5.137-8.937" transform="translate(-1426.647 5557.928)" fill="#263238"/>
      <path id="Path_4831" data-name="Path 4831" d="M1352.034-5451.417h5.326l-1.89-9.5c-1.4-7.771-12.294-8.3-12.294-8.3l-8.554-.114s-6.339-.854-10.25,3.556c-.8.908-1.646,1.846-2.494,2.769l-9.277,9.705-1-12.174-7.945,1.246,1.107,15.287a6.27,6.27,0,0,0,4.2,5.422,6.921,6.921,0,0,0,5.212-.8c4.629-2.3,13.3-9.646,13.965-10.209a11.126,11.126,0,0,0-1.2,4.444c0,2.533,2.6,4.429,2.6,4.429l.838,7.681-2.683,12.444,27.93-1.123a27.8,27.8,0,0,0-4.115-11.751ZM1328.2-5454.6a.76.76,0,0,1-.09-.185l.3-.215a3.454,3.454,0,0,0-.21.4Z" transform="translate(-1289.811 5494.625)" fill="#ff725e"/>
      <path id="Path_4832" data-name="Path 4832" d="M1444.338-5298.213a48.86,48.86,0,0,1-4.519,2.743c-1.995.942-2.075.769-2.15.5-.209-.663,3.417-1.79,2.494-2s-4.259,1.886-4.444,1.182c-.245-.918,3.571-2.025,3.89-2.145s.145-.573-.135-.449c-.4.175-4.658,1.9-4.908,1-.14-.5.788-.638.788-.638s4.115-1.321,3.99-1.745-2.573.269-3.377.563-1.267.03-1.112-.424c.1-.31,2.549-1.263,3.352-1.537s3.023-1,1.626-1.5a3.808,3.808,0,0,1-2.344-1.866c-.065-.409.5-.638.818-.309a5.626,5.626,0,0,0,1.287.788,3.555,3.555,0,0,0,1.157.344c.349.045.658.07.938.089l2.968.22,1.5,3.93Z" transform="translate(-1394.614 5362.982)" fill="#ffbe9d"/>
      <path id="Path_4833" data-name="Path 4833" d="M1487.075-5450.928a10.471,10.471,0,0,1,3.516,5.256c.658,2.161,2.549,9.477,3.94,14.893a6.983,6.983,0,0,1-4.563,8.345l-15.716,8.479-2.569-6.644,13.791-9.043-3.332-12.344a8.788,8.788,0,0,1-.1-5.621C1482.725-5449.437,1484.177-5451.277,1487.075-5450.928Z" transform="translate(-1424.343 5479.867)" fill="#ff725e"/>
      <path id="Path_4834" data-name="Path 4834" d="M1302.344-5486.868l-.953-3.053c-.444-2.185,1.282-2.539,1.571-2.862a4.547,4.547,0,0,1,1.541-1.242l-.14-.883a20.542,20.542,0,0,1-.5-2.862c0-.529.963-.564,1.1-.055.309,1.151.853,3.105,1.142,3.829.384.948,1.232,3.427,2.125,1.891a7.73,7.73,0,0,0,.953-2.923.577.577,0,1,1,1.062.449c-.09.438-.145,1.212-.419,2.265-.125.469-.384,1.042-.5,1.5-.155.545-.219,2.57-.3,2.994Z" transform="translate(-1287.937 5517.672)" fill="#ffbe9d"/>
      <path id="Path_4835" data-name="Path 4835" d="M1304.15-5468.121a7.534,7.534,0,0,1,.24.9,6.536,6.536,0,0,0,.349.933,1.818,1.818,0,0,1,.195.609.638.638,0,0,1-.359.658.766.766,0,0,1-.723-.145,1.68,1.68,0,0,1-.439-.469,2.712,2.712,0,0,1-.379-1,2.42,2.42,0,0,1-.06-.943,5.629,5.629,0,0,1,.24.9,2.811,2.811,0,0,0,.4.883,1.548,1.548,0,0,0,.384.4.559.559,0,0,0,.5.11.394.394,0,0,0,.2-.4,1.791,1.791,0,0,0-.16-.528,5.154,5.154,0,0,1-.309-1A2.2,2.2,0,0,1,1304.15-5468.121Z" transform="translate(-1289.244 5493.599)" fill="#eb996e"/>
      <path id="Path_4836" data-name="Path 4836" d="M1310.216-5473.2a6,6,0,0,1,.454,1.157c.129.394.269.824.424,1.282.07.244.165.5.23.773a.877.877,0,0,1,0,.5.733.733,0,0,1-.344.389.911.911,0,0,1-.937-.049,1.492,1.492,0,0,1-.554-.648,9.817,9.817,0,0,1-.4-1.3,5.8,5.8,0,0,1-.27-1.217,6,6,0,0,1,.444,1.162c.135.359.239.819.444,1.247a1.344,1.344,0,0,0,.474.544.661.661,0,0,0,.678.035.5.5,0,0,0,.24-.593c-.05-.245-.145-.5-.209-.748l-.374-1.3A5.932,5.932,0,0,1,1310.216-5473.2Z" transform="translate(-1293.938 5497.666)" fill="#eb996e"/>
      <path id="Path_4837" data-name="Path 4837" d="M1342.644-5386.179a4.955,4.955,0,0,1,.5-1.5,4.889,4.889,0,0,1,.733-1.4,4.967,4.967,0,0,1-.5,1.5A4.892,4.892,0,0,1,1342.644-5386.179Z" transform="translate(-1321.025 5430.311)" fill="#263238"/>
      <path id="Path_4838" data-name="Path 4838" d="M1378.573-5406.866a8.513,8.513,0,0,1-1.4-.33l-1.5-.423a8.451,8.451,0,0,1-1.79-.719,3.946,3.946,0,0,1-1.427-1.333,2.857,2.857,0,0,1-.424-1.53,9.571,9.571,0,0,0-.035-1.042,2.523,2.523,0,0,1-.055-.379,1.067,1.067,0,0,1,.155.359,5.564,5.564,0,0,1,.12,1.053,2.75,2.75,0,0,0,.439,1.417,3.946,3.946,0,0,0,1.357,1.232,9.687,9.687,0,0,0,1.731.717l1.5.475A7.919,7.919,0,0,1,1378.573-5406.866Z" transform="translate(-1344.485 5449.162)" fill="#e0e0e0"/>
      <path id="Path_4839" data-name="Path 4839" d="M1506.664-5311.908c-.045,0,0-.449-.125-1.143a6.98,6.98,0,0,0-1.1-2.494c-.3-.454-.609-.863-.9-1.242a7.363,7.363,0,0,0-.788-.947,1.192,1.192,0,0,0-.718-.319c-.19,0-.294.03-.3,0s.085-.1.3-.115a1.226,1.226,0,0,1,.833.279,6.257,6.257,0,0,1,.863.948c.3.369.619.783.928,1.242a6.315,6.315,0,0,1,1.062,2.614A2.376,2.376,0,0,1,1506.664-5311.908Z" transform="translate(-1449.205 5373.536)" fill="#e0e0e0"/>
      <path id="Path_4840" data-name="Path 4840" d="M1427-5435.556a2.058,2.058,0,0,1-.389-.108l-1.1-.35a13.365,13.365,0,0,0-4.13-.724,6.56,6.56,0,0,0-2.783.653,13.469,13.469,0,0,0-2.748,1.87,31.827,31.827,0,0,1-2.912,2.315,7.73,7.73,0,0,1-3.771,1.361,4.375,4.375,0,0,1-2.025-.4,5.248,5.248,0,0,1-1.6-1.2c-.893-.957-1.526-2.039-2.244-2.968a8.567,8.567,0,0,0-5.112-3.276,9.065,9.065,0,0,0-4.165.06c-.963.26-1.451.534-1.461.5a6.073,6.073,0,0,1,1.436-.595,8.8,8.8,0,0,1,4.23-.145,8.99,8.99,0,0,1,2.748,1.052,8.455,8.455,0,0,1,2.494,2.255c.733.942,1.372,2.02,2.24,2.943a4.392,4.392,0,0,0,3.431,1.5,7.486,7.486,0,0,0,3.641-1.317,32.337,32.337,0,0,0,2.9-2.285,13.5,13.5,0,0,1,2.8-1.879,6.734,6.734,0,0,1,2.873-.644,12.79,12.79,0,0,1,4.165.814c.474.158.838.3,1.088.393A2.217,2.217,0,0,1,1427-5435.556Z" transform="translate(-1360.994 5470.085)" fill="#e0e0e0"/>
      <path id="Path_4841" data-name="Path 4841" d="M1446.536-5367.335a5.428,5.428,0,0,0-.9-.205,4.991,4.991,0,0,0-2.424.559,28.652,28.652,0,0,1-3.466,1.5,14.317,14.317,0,0,1-4.6.674,13.83,13.83,0,0,1-4.569-.868,14.091,14.091,0,0,1-3.347-1.786,13.085,13.085,0,0,1-1.92-1.67,6.192,6.192,0,0,1-.454-.524,1.087,1.087,0,0,1-.145-.2s.24.238.673.652a15.928,15.928,0,0,0,1.95,1.611,14.559,14.559,0,0,0,3.327,1.711,13.755,13.755,0,0,0,4.489.827,14.306,14.306,0,0,0,4.518-.633,30.945,30.945,0,0,0,3.466-1.462,4.958,4.958,0,0,1,2.494-.5A2.074,2.074,0,0,1,1446.536-5367.335Z" transform="translate(-1386.738 5414.922)" fill="#e0e0e0"/>
      <path id="Path_4842" data-name="Path 4842" d="M1547.051-5367.759a.959.959,0,0,1-.125.378,4.5,4.5,0,0,1-.553.923,5.076,5.076,0,0,1-2.958,1.9,8.657,8.657,0,0,1-3.536-.089,6.391,6.391,0,0,1-1.411-.379,11.752,11.752,0,0,1,1.441.2,9.618,9.618,0,0,0,3.447,0,5.242,5.242,0,0,0,2.878-1.766A10.738,10.738,0,0,0,1547.051-5367.759Z" transform="translate(-1477.815 5413.242)" fill="#e0e0e0"/>
      <path id="Path_4843" data-name="Path 4843" d="M1481.211-5411.22a1.194,1.194,0,0,1,.07.239c.045.175.1.41.175.7l.653,2.684c.573,2.3,1.416,5.6,2.494,9.542v.074l-.065.045-11.621,8.015-1.84,1.267.045-.154c.918,2.3,1.8,4.488,2.614,6.563l-.165-.064c4.818-2.379,8.878-4.554,11.736-6.125l3.332-1.845.888-.5a1.662,1.662,0,0,1,.314-.155,2.507,2.507,0,0,1-.294.19l-.853.534c-.763.453-1.88,1.106-3.3,1.91-2.838,1.607-6.888,3.811-11.705,6.21l-.115.059-.05-.124-2.628-6.559-.04-.095.09-.06,1.836-1.261,11.646-7.981-.045.12c-1.037-3.95-1.85-7.252-2.384-9.566-.269-1.162-.469-2.075-.6-2.7-.06-.3-.1-.534-.14-.713A1.291,1.291,0,0,1,1481.211-5411.22Z" transform="translate(-1423.682 5448.04)" fill="#263238"/>
      <path id="Path_4844" data-name="Path 4844" d="M1543.061-5344.484a12.442,12.442,0,0,0-1.82-.849,5.652,5.652,0,0,0-1.377-.264c-.364,0-.589,0-.6-.04s.214-.12.594-.144a4.041,4.041,0,0,1,1.461.2A3.163,3.163,0,0,1,1543.061-5344.484Z" transform="translate(-1478.455 5395.647)" fill="#263238"/>
      <path id="Path_4845" data-name="Path 4845" d="M1240.781-5086.7l2.065-4.285,8.05,3.816-2.958,6.3-.5-.2c-2.279-.933-11.521-4.888-12.793-6.044C1233.21-5088.4,1240.781-5086.7,1240.781-5086.7Z" transform="translate(-1234.409 5191.638)" fill="#ff725e"/>
      <g id="Group_8316" data-name="Group 8316" transform="translate(10.647 108.011)" opacity="0.5">
        <path id="Path_4846" data-name="Path 4846" d="M1287.6-5052.753a3.116,3.116,0,0,1,1.84-1.227,2.991,2.991,0,0,1,2.16.3l-1.062,2.254Z" transform="translate(-1287.596 5054.061)" fill="#fff"/>
      </g>
      <g id="Group_8317" data-name="Group 8317" transform="translate(0 104.051)" opacity="0.4">
        <path id="Path_4847" data-name="Path 4847" d="M1236.8-5073.752s-2.723-.449-2.613.09,9.307,4.887,13.526,6.453l.075-.189-10.768-4.988S1237.258-5073.514,1236.8-5073.752Z" transform="translate(-1234.183 5073.927)" fill="#fff"/>
      </g>
      <path id="Path_4848" data-name="Path 4848" d="M1248.17-5066.819a.606.606,0,0,1-.145-.05l-.409-.165-1.5-.628c-1.257-.538-2.993-1.312-4.873-2.2s-3.576-1.736-4.793-2.363l-1.437-.753-.384-.21-.135-.08a.491.491,0,0,1,.145.06l.394.194,1.452.723c1.222.608,2.917,1.442,4.808,2.334s3.606,1.671,4.853,2.23l1.5.658.4.185Z" transform="translate(-1234.436 5177.455)" fill="#263238"/>
      <path id="Path_4849" data-name="Path 4849" d="M1247.435-5072.052a3.527,3.527,0,0,0,.055-.828,3.678,3.678,0,0,0-.229-.792A1.435,1.435,0,0,1,1247.435-5072.052Z" transform="translate(-1244.653 5177.773)" fill="#263238"/>
      <path id="Path_4850" data-name="Path 4850" d="M1262.377-5069.447a.951.951,0,0,1-.109-.429.944.944,0,0,1,0-.444.951.951,0,0,1,.109.429A.929.929,0,0,1,1262.377-5069.447Z" transform="translate(-1256.648 5175.089)" fill="#263238"/>
      <path id="Path_4851" data-name="Path 4851" d="M1265.811-5068.984a1.377,1.377,0,0,1-.195-.324c-.08-.189-.12-.353-.095-.364s.115.13.195.324S1265.841-5068.984,1265.811-5068.984Z" transform="translate(-1259.269 5174.572)" fill="#263238"/>
      <path id="Path_4852" data-name="Path 4852" d="M1267.475-5070.537a1.058,1.058,0,0,1-.444-.149,1.108,1.108,0,0,1-.4-.24c0-.03.214.036.449.146S1267.485-5070.566,1267.475-5070.537Z" transform="translate(-1260.16 5175.581)" fill="#263238"/>
      <path id="Path_4853" data-name="Path 4853" d="M1268.891-5072.763a.962.962,0,0,1-.534-.09.915.915,0,0,1-.454-.289,3.313,3.313,0,0,1,.5.189A2.4,2.4,0,0,1,1268.891-5072.763Z" transform="translate(-1261.182 5177.353)" fill="#263238"/>
      <path id="Path_4854" data-name="Path 4854" d="M1257.978-5075.331a1.459,1.459,0,0,1-.5-.244,3.616,3.616,0,0,1-.5-.384,1.727,1.727,0,0,1-.254-.279.3.3,0,0,1-.05-.22.226.226,0,0,1,.175-.17,1.044,1.044,0,0,1,1.043.833,1,1,0,0,1,0,.424c0,.1-.045.15-.05.145a1.748,1.748,0,0,0-.03-.554,1.063,1.063,0,0,0-.3-.5.891.891,0,0,0-.639-.25c-.11,0-.125.13-.06.229a1.935,1.935,0,0,0,.235.265,3.651,3.651,0,0,0,.469.389C1257.789-5075.439,1257.983-5075.346,1257.978-5075.331Z" transform="translate(-1252.19 5180.14)" fill="#263238"/>
      <path id="Path_4855" data-name="Path 4855" d="M1262.564-5073.531a.556.556,0,0,1,.11-.389.923.923,0,0,1,.324-.309.555.555,0,0,1,.554-.06.225.225,0,0,1,.045.314h0a.657.657,0,0,1-.195.189,1.791,1.791,0,0,1-.394.193.747.747,0,0,1-.394.071s.145-.045.364-.141a1.9,1.9,0,0,0,.364-.208c.125-.075.264-.25.145-.334a.528.528,0,0,0-.444.06.954.954,0,0,0-.3.269A2.154,2.154,0,0,0,1262.564-5073.531Z" transform="translate(-1256.905 5178.307)" fill="#263238"/>
      <path id="Path_4856" data-name="Path 4856" d="M1291.806-5054.4a3.52,3.52,0,0,0-.6-.26,2.909,2.909,0,0,0-1.551-.079,2.847,2.847,0,0,0-1.357.763c-.284.284-.4.5-.424.5a.573.573,0,0,1,.08-.159,2.173,2.173,0,0,1,.29-.4,2.713,2.713,0,0,1,1.386-.813,2.75,2.75,0,0,1,1.6.11,2.3,2.3,0,0,1,.439.224C1291.736-5054.446,1291.806-5054.4,1291.806-5054.4Z" transform="translate(-1277.169 5162.753)" fill="#263238"/>
      <path id="Path_4857" data-name="Path 4857" d="M1305.136-5071.222a16.684,16.684,0,0,1-.713,1.686,16.37,16.37,0,0,1-.813,1.641,16.891,16.891,0,0,1,.713-1.686A14.357,14.357,0,0,1,1305.136-5071.222Z" transform="translate(-1289.771 5175.812)" fill="#263238"/>
      <path id="Path_4858" data-name="Path 4858" d="M1274.871-5058.1a5.12,5.12,0,0,1-1.232-.439,4.979,4.979,0,0,1-1.132-.653c0-.025.5.254,1.177.553A7.552,7.552,0,0,1,1274.871-5058.1Z" transform="translate(-1264.868 5166.181)" fill="#263238"/>
      <path id="Path_4859" data-name="Path 4859" d="M1290.53-5050.141c0,.029-.095.09-.2.188s-.189.186-.219.171,0-.145.15-.255S1290.525-5050.165,1290.53-5050.141Z" transform="translate(-1278.951 5158.94)" fill="#263238"/>
      <path id="Path_4860" data-name="Path 4860" d="M1295.223-5052.458c0,.031-.085.089-.2.135s-.234.06-.244.03.085-.09.2-.134S1295.213-5052.483,1295.223-5052.458Z" transform="translate(-1282.696 5160.799)" fill="#263238"/>
      <path id="Path_4861" data-name="Path 4861" d="M1299.955-5052.61c0,.025-.125,0-.259-.039a.54.54,0,0,0-.269,0,.33.33,0,0,1,.279-.091C1299.875-5052.72,1299.975-5052.63,1299.955-5052.61Z" transform="translate(-1286.421 5161.017)" fill="#263238"/>
      <path id="Path_4862" data-name="Path 4862" d="M1304.368-5051.693c0,.03-.07.05-.145.041s-.145-.036-.14-.061.065-.05.145-.045S1304.368-5051.723,1304.368-5051.693Z" transform="translate(-1290.151 5160.228)" fill="#263238"/>
      <path id="Path_4863" data-name="Path 4863" d="M1362.4-4959.409l-.095-4.753,8.9-.241.214,6.954-.549.05c-2.454.2-12.469.858-14.145.4C1354.881-4957.5,1362.4-4959.409,1362.4-4959.409Z" transform="translate(-1332.07 5090.285)" fill="#ff725e"/>
      <g id="Group_8318" data-name="Group 8318" transform="translate(36.128 130.218)" opacity="0.5">
        <path id="Path_4864" data-name="Path 4864" d="M1415.433-4940.012a3.074,3.074,0,0,1,1.082-1.931,3,3,0,0,1,2.065-.7l.07,2.495Z" transform="translate(-1415.433 4942.648)" fill="#fff"/>
      </g>
      <g id="Group_8319" data-name="Group 8319" transform="translate(24.342 131.937)" opacity="0.4">
        <path id="Path_4865" data-name="Path 4865" d="M1358.624-4934.025s-2.628.837-2.289,1.267,10.509.149,14.962-.369v-.2l-11.855.429S1359.143-4934.015,1358.624-4934.025Z" transform="translate(-1356.305 4934.025)" fill="#fff"/>
      </g>
      <path id="Path_4866" data-name="Path 4866" d="M1371.539-4930.547h-.15l-.439.035-1.616.115c-1.367.089-3.257.184-5.342.244s-3.99.07-5.347.06l-1.621-.024h-.439a.632.632,0,0,1-.155,0h2.215c1.366,0,3.257-.036,5.342-.1s3.99-.139,5.342-.208l1.616-.08h.444A.621.621,0,0,1,1371.539-4930.547Z" transform="translate(-1332.064 5063.178)" fill="#263238"/>
      <path id="Path_4867" data-name="Path 4867" d="M1368.509-4933.179a3.723,3.723,0,0,0-.324-.763,4.015,4.015,0,0,0-.569-.609A1.451,1.451,0,0,1,1368.509-4933.179Z" transform="translate(-1341.019 5066.382)" fill="#263238"/>
      <path id="Path_4868" data-name="Path 4868" d="M1383.2-4937.655a1.912,1.912,0,0,1-.29-.334c-.135-.2-.224-.379-.2-.394s.155.135.289.334A1.515,1.515,0,0,1,1383.2-4937.655Z" transform="translate(-1353.104 5069.453)" fill="#263238"/>
      <path id="Path_4869" data-name="Path 4869" d="M1386.341-4938.682a1.469,1.469,0,0,1-.319-.2c-.16-.135-.269-.26-.249-.28s.165.065.319.2S1386.361-4938.707,1386.341-4938.682Z" transform="translate(-1355.555 5070.081)" fill="#263238"/>
      <path id="Path_4870" data-name="Path 4870" d="M1387.086-4941.271a1.074,1.074,0,0,1-.464.069,1.05,1.05,0,0,1-.464-.034A1.889,1.889,0,0,1,1387.086-4941.271Z" transform="translate(-1355.865 5071.798)" fill="#263238"/>
      <path id="Path_4871" data-name="Path 4871" d="M1387.345-4944.009a.9.9,0,0,1-.5.164.981.981,0,0,1-.538-.055,2.783,2.783,0,0,1,.529-.054A2.919,2.919,0,0,1,1387.345-4944.009Z" transform="translate(-1355.985 5073.956)" fill="#263238"/>
      <path id="Path_4872" data-name="Path 4872" d="M1376.661-4941.712a1.712,1.712,0,0,1-.573,0,3.184,3.184,0,0,1-.609-.115,1.518,1.518,0,0,1-.354-.135.3.3,0,0,1-.15-.174.225.225,0,0,1,.085-.229,1.048,1.048,0,0,1,1.3.269.944.944,0,0,1,.2.38.358.358,0,0,1,0,.154,1.606,1.606,0,0,0-.275-.5,1.076,1.076,0,0,0-.5-.3.891.891,0,0,0-.678.065c-.09.069-.055.174.05.234a1.8,1.8,0,0,0,.324.129,3.639,3.639,0,0,0,.594.134A2.689,2.689,0,0,0,1376.661-4941.712Z" transform="translate(-1346.908 5072.736)" fill="#263238"/>
      <path id="Path_4873" data-name="Path 4873" d="M1382.323-4942.932a.555.555,0,0,1-.08-.4.951.951,0,0,1,.145-.418.591.591,0,0,1,.469-.31.229.229,0,0,1,.184.259.628.628,0,0,1-.09.259,1.758,1.758,0,0,1-.259.354.818.818,0,0,1-.324.239s.109-.1.264-.289a1.975,1.975,0,0,0,.23-.349c.075-.125.124-.344,0-.364s-.284.134-.369.254a.91.91,0,0,0-.154.374A1.791,1.791,0,0,0,1382.323-4942.932Z" transform="translate(-1352.724 5073.997)" fill="#263238"/>
      <path id="Path_4874" data-name="Path 4874" d="M1418.55-4943.094s-.259,0-.658.041a2.865,2.865,0,0,0-1.421.633,2.913,2.913,0,0,0-.863,1.292c-.125.383-.13.643-.15.639a.658.658,0,0,1,0-.181,2.347,2.347,0,0,1,.085-.5,2.7,2.7,0,0,1,2.344-2,2.241,2.241,0,0,1,.5,0A.768.768,0,0,1,1418.55-4943.094Z" transform="translate(-1379.32 5073.29)" fill="#263238"/>
      <path id="Path_4875" data-name="Path 4875" d="M1425.736-4961.124a16.4,16.4,0,0,1,.13,1.826,15.811,15.811,0,0,1,0,1.835,15.2,15.2,0,0,1-.13-1.831A15.836,15.836,0,0,1,1425.736-4961.124Z" transform="translate(-1387.533 5087.66)" fill="#263238"/>
      <path id="Path_4876" data-name="Path 4876" d="M1399.24-4933.648a5.118,5.118,0,0,1-1.3.164,4.972,4.972,0,0,1-1.3-.069c0-.029.583,0,1.3-.04A10.732,10.732,0,0,1,1399.24-4933.648Z" transform="translate(-1364.259 5065.669)" fill="#263238"/>
      <path id="Path_4877" data-name="Path 4877" d="M1417.453-4933.891s-.045.124-.1.259-.085.254-.114.249-.05-.139,0-.293S1417.432-4933.917,1417.453-4933.891Z" transform="translate(-1380.726 5065.858)" fill="#263238"/>
      <path id="Path_4878" data-name="Path 4878" d="M1420.288-4938.095c.025,0-.03.115-.12.208s-.179.16-.2.14.035-.114.125-.214S1420.269-4938.114,1420.288-4938.095Z" transform="translate(-1382.929 5069.223)" fill="#263238"/>
      <path id="Path_4879" data-name="Path 4879" d="M1424.27-4940.274c0,.03-.125.03-.254.08s-.22.125-.244.1.045-.144.209-.2S1424.28-4940.3,1424.27-4940.274Z" transform="translate(-1385.977 5071.004)" fill="#263238"/>
      <path id="Path_4880" data-name="Path 4880" d="M1428.549-4941.159c0,.024-.035.074-.11.1s-.139.03-.154,0,.04-.075.115-.1A.224.224,0,0,1,1428.549-4941.159Z" transform="translate(-1389.594 5071.686)" fill="#263238"/>
      <path id="Path_4881" data-name="Path 4881" d="M1421.489-5412.8a7.342,7.342,0,0,1,.339-1.287c.115-.39.259-.858.439-1.371.09-.255.19-.524.3-.8.06-.15.14-.274.18-.4a1.21,1.21,0,0,0,.05-.409,6.726,6.726,0,0,0-.135-.878c-.055-.284-.105-.564-.155-.833-.089-.5-.17-1-.244-1.417a6.049,6.049,0,0,1-.16-1.317,6.8,6.8,0,0,1,.349,1.282c.094.429.194.9.3,1.4.055.27.11.548.17.833a5.464,5.464,0,0,1,.145.922,1.428,1.428,0,0,1-.065.5,4.149,4.149,0,0,1-.195.418c-.115.269-.214.529-.309.783-.18.5-.344.933-.5,1.347A6.048,6.048,0,0,1,1421.489-5412.8Z" transform="translate(-1384.154 5456.273)" fill="#263238"/>
      <g id="Group_8320" data-name="Group 8320" transform="translate(57.076 35.423)" opacity="0.3">
        <path id="Path_4882" data-name="Path 4882" d="M1520.526-5418.227c.349,5.3.883,11.247,1,16.554a10.946,10.946,0,0,0,2.753-1.965C1524.262-5403.638,1521.733-5412.517,1520.526-5418.227Z" transform="translate(-1520.526 5418.227)"/>
      </g>
      <path id="Path_4883" data-name="Path 4883" d="M1324.221-5286.233s-36.519-7.651-40.055-5.986-19.841,41.976-19.841,41.976l11,4.039,14.933-33.416s26.893,10.145,31.362,9.217S1324.221-5286.233,1324.221-5286.233Z" transform="translate(-1258.317 5352.95)" fill="#263238"/>
      <path id="Path_4884" data-name="Path 4884" d="M1388.441-5250.454c-.559.184-21.686,8.868-23.172,11.661s2.19,49.137,2.19,49.137h12.015l-.748-41.192,23.441-5.94Z" transform="translate(-1338.856 5319.318)" fill="#263238"/>
      <path id="Path_4885" data-name="Path 4885" d="M1421.027-5221.147a1.487,1.487,0,0,1-.344-.044l-1-.174c-.853-.155-2.085-.4-3.6-.719-3.032-.644-7.207-1.611-11.756-2.913-2.274-.658-4.419-1.347-6.359-1.994s-3.666-1.328-5.092-1.94c-.718-.29-1.357-.578-1.92-.833s-1.043-.475-1.427-.674l-.893-.449a1.451,1.451,0,0,1-.3-.175,1.978,1.978,0,0,1,.329.125l.913.4c.389.18.878.389,1.446.629s1.207.5,1.93.792c1.431.588,3.167,1.207,5.1,1.88s4.085,1.332,6.354,2c4.544,1.3,8.7,2.294,11.726,2.992l3.576.809.973.224A1.514,1.514,0,0,1,1421.027-5221.147Z" transform="translate(-1357.608 5303.792)" fill="#455a64"/>
      <path id="Path_4886" data-name="Path 4886" d="M1363.922-5196.295a3.069,3.069,0,0,1-.11-.693c-.055-.5-.125-1.137-.2-1.9s-.165-1.774-.259-2.822a12.555,12.555,0,0,1,0-3.491,5.428,5.428,0,0,1,1.75-3.022,9.278,9.278,0,0,1,2.4-1.546,19.081,19.081,0,0,1,1.786-.7,3.046,3.046,0,0,1,.673-.194c0,.05-.927.379-2.374,1.072a9.567,9.567,0,0,0-2.314,1.556,5.274,5.274,0,0,0-1.656,2.888,13.352,13.352,0,0,0,0,3.421c.08,1.052.145,1.994.2,2.827s.085,1.4.115,1.906A3.44,3.44,0,0,1,1363.922-5196.295Z" transform="translate(-1337.505 5287.464)" fill="#455a64"/>
      <path id="Path_4887" data-name="Path 4887" d="M1419.587-5158.523a8.79,8.79,0,0,1,2.843,1.251,4.471,4.471,0,0,1-1.5-.5A4.42,4.42,0,0,1,1419.587-5158.523Z" transform="translate(-1382.631 5245.712)" fill="#263238"/>
      <path id="Path_4888" data-name="Path 4888" d="M1424.892-5164.878a16.462,16.462,0,0,1,.958,1.357,15.638,15.638,0,0,1,1.042,1.291,4.36,4.36,0,0,1-1.995-2.648Z" transform="translate(-1386.879 5250.8)" fill="#263238"/>
      <path id="Path_4889" data-name="Path 4889" d="M1436.893-5155.346a.415.415,0,0,1-.184.19,1.392,1.392,0,0,1-.7.164,8.827,8.827,0,0,0-1,.025.7.7,0,0,0-.6.768,18.833,18.833,0,0,1-.15,3.208,18.712,18.712,0,0,1-.125-3.223,1.123,1.123,0,0,1,.229-.682.926.926,0,0,1,.6-.32,6.2,6.2,0,0,1,1.043.03A1.656,1.656,0,0,0,1436.893-5155.346Z" transform="translate(-1394.266 5243.168)" fill="#263238"/>
      <path id="Path_4890" data-name="Path 4890" d="M1424.056-5582.793c-1.826.594-3.945,1.806-2.893,7.517.459,2.493,1.048,5.078,2.733,6.982a.928.928,0,0,0,1.226.469.928.928,0,0,0,.425-.383,15.343,15.343,0,0,0,4.065-7.343,8.127,8.127,0,0,0-2.449-7.72" transform="translate(-1383.669 5585.797)" fill="#263238"/>
      <path id="Path_4891" data-name="Path 4891" d="M1436.056-5565.033c-.06-2.629-.175-5.446-.175-5.446a4.822,4.822,0,0,1-4.169-4.588c-.18-4.09-.215-11.232-.215-11.232l7.811-5.78,5.486,7.545.135,19.367a4.438,4.438,0,0,1-4.389,4.488h-.05A4.434,4.434,0,0,1,1436.056-5565.033Z" transform="translate(-1392.167 5592.849)" fill="#ffbe9d"/>
      <path id="Path_4892" data-name="Path 4892" d="M1453.492-5490.683a9.746,9.746,0,0,0,5.3-1.735,5.094,5.094,0,0,1-5.227,2.738Z" transform="translate(-1409.778 5513.053)" fill="#eb996e"/>
      <path id="Path_4893" data-name="Path 4893" d="M1455.056-5513.05a.5.5,0,0,1,.045-.5.5.5,0,0,1,.444-.2.749.749,0,0,1,.763-.664.849.849,0,0,1,.773.694,1,1,0,0,1-.434.967,1.175,1.175,0,0,1-1.077.08.837.837,0,0,1-.544-.644" transform="translate(-1410.993 5530.663)" fill="#eb996e"/>
      <path id="Path_4894" data-name="Path 4894" d="M1435.626-5540.242a.564.564,0,0,0,.544.564.538.538,0,0,0,.578-.5v0a.563.563,0,0,0-.543-.563.538.538,0,0,0-.578.5Z" transform="translate(-1395.473 5551.745)" fill="#263238"/>
      <path id="Path_4895" data-name="Path 4895" d="M1435.738-5542.919c.07.07.5-.244,1.1-.239s1.042.3,1.107.229-.04-.164-.229-.309a1.563,1.563,0,0,0-.888-.273,1.5,1.5,0,0,0-.873.284C1435.763-5543.084,1435.7-5542.954,1435.738-5542.919Z" transform="translate(-1395.555 5553.963)" fill="#263238"/>
      <path id="Path_4896" data-name="Path 4896" d="M1466-5539.948a.563.563,0,0,0,.539.569.539.539,0,0,0,.578-.5v0a.56.56,0,0,0-.539-.564A.54.54,0,0,0,1466-5539.948Z" transform="translate(-1419.795 5551.505)" fill="#263238"/>
      <path id="Path_4897" data-name="Path 4897" d="M1465.444-5542.349c.07.075.5-.239,1.1-.239s1.042.3,1.107.229-.035-.165-.229-.3a1.549,1.549,0,0,0-.888-.274,1.42,1.42,0,0,0-.873.284C1465.474-5542.513,1465.394-5542.378,1465.444-5542.349Z" transform="translate(-1419.336 5553.501)" fill="#263238"/>
      <path id="Path_4898" data-name="Path 4898" d="M1448.3-5537.739a4.491,4.491,0,0,0-1-.174c-.154,0-.3-.045-.329-.149a.8.8,0,0,1,.1-.459l.454-1.172a19.514,19.514,0,0,0,1.022-3.067,20.948,20.948,0,0,0-1.267,2.993c-.15.414-.294.8-.434,1.183a.87.87,0,0,0-.08.6.38.38,0,0,0,.254.225,1.057,1.057,0,0,0,.259.035A3.721,3.721,0,0,0,1448.3-5537.739Z" transform="translate(-1404.381 5553.361)" fill="#263238"/>
      <path id="Path_4899" data-name="Path 4899" d="M1455.712-5515.463c-.1,0-.1.648-.659,1.112s-1.257.394-1.262.5.154.129.449.135a1.619,1.619,0,0,0,1.052-.364,1.412,1.412,0,0,0,.5-.932C1455.826-5515.3,1455.757-5515.468,1455.712-5515.463Z" transform="translate(-1410.018 5531.503)" fill="#263238"/>
      <path id="Path_4900" data-name="Path 4900" d="M1464.114-5548.441c.06.166.663.09,1.372.174s1.276.274,1.371.13c.04-.07-.055-.225-.289-.384a2.412,2.412,0,0,0-2.09-.229C1464.219-5548.666,1464.089-5548.536,1464.114-5548.441Z" transform="translate(-1418.28 5558.268)" fill="#263238"/>
      <path id="Path_4901" data-name="Path 4901" d="M1436.815-5551.722c.1.135.5,0,1,0s.923.095,1-.051-.025-.2-.21-.333a1.5,1.5,0,0,0-1.641.05C1436.825-5551.931,1436.77-5551.791,1436.815-5551.722Z" transform="translate(-1396.413 5561.02)" fill="#263238"/>
      <path id="Path_4902" data-name="Path 4902" d="M1443.962-5586.462a3.115,3.115,0,0,0,2-.709c.359.963.354,2.03.683,2.993s.658,10.359,1.676,10.209c.932-.145,2.05-9.561,2.289-10.474a8.363,8.363,0,0,0-1.845-7.306c-1.995-2.369-5.317-4.395-8.4-4.175a6.957,6.957,0,0,0-3.83,1.347,3.924,3.924,0,0,0-1.531,2.928c.195,2.284,3.526,3.755,5.821,3.686l.324.319A3.994,3.994,0,0,0,1443.962-5586.462Z" transform="translate(-1394.961 5595.94)" fill="#263238"/>
      <path id="Path_4903" data-name="Path 4903" d="M1431.009-5570.4a3.413,3.413,0,0,0,1.137-1.832,9.879,9.879,0,0,0,.265-2.168c0-.215,0-.5-.225-.54s-.364.15-.459.331a7.034,7.034,0,0,0-.723,4.417l-.09.076" transform="translate(-1391.699 5579.127)" fill="#263238"/>
    </g>
    <g id="freepik--character-2--inject-33" transform="translate(626.882 -5851.321)">
      <path id="Path_4904" data-name="Path 4904" d="M1110.328-4955.826l.03-4.888-9.157-.11-.12,7.153.569.045c2.524.169,12.853.688,14.549.2C1118.084-4953.975,1110.328-4955.826,1110.328-4955.826Z" transform="translate(-1068.562 5115.108)" fill="#ff725e"/>
      <g id="Group_8321" data-name="Group 8321" transform="translate(32.524 158.737)" opacity="0.4">
        <path id="Path_4905" data-name="Path 4905" d="M1104.418-4935.809a3.193,3.193,0,0,0-1.142-1.971,3.118,3.118,0,0,0-2.135-.693l-.035,2.564Z" transform="translate(-1101.106 4938.478)"/>
      </g>
      <g id="Group_8322" data-name="Group 8322" transform="translate(32.514 160.318)" opacity="0.4">
        <path id="Path_4906" data-name="Path 4906" d="M1114.094-4930.547s2.718.823,2.374,1.267-10.8.313-15.412-.15v-.2l12.194.259S1113.56-4930.527,1114.094-4930.547Z" transform="translate(-1101.056 4930.547)"/>
      </g>
      <path id="Path_4907" data-name="Path 4907" d="M1100.431-4926.093a.745.745,0,0,0,.155,0l.454.035,1.666.09c1.4.07,3.347.14,5.486.17s4.095,0,5.486,0l1.666-.045h-7.157c-2.14,0-4.09-.09-5.486-.134l-1.666-.06h-.449Z" transform="translate(-1068.042 5087.298)" fill="#263238"/>
      <path id="Path_4908" data-name="Path 4908" d="M1162.288-4929.656a3.78,3.78,0,0,1,.325-.789,3.374,3.374,0,0,1,.573-.629,1.234,1.234,0,0,0-.668.569A1.255,1.255,0,0,0,1162.288-4929.656Z" transform="translate(-1117.564 5091.287)" fill="#263238"/>
      <path id="Path_4909" data-name="Path 4909" d="M1148.831-4934.147a1.268,1.268,0,0,0,.295-.349c.139-.209.224-.394.2-.409s-.16.14-.295.349A1.112,1.112,0,0,0,1148.831-4934.147Z" transform="translate(-1106.791 5094.354)" fill="#263238"/>
      <path id="Path_4910" data-name="Path 4910" d="M1145.122-4935.058a1.382,1.382,0,0,0,.324-.21c.16-.14.274-.274.254-.294s-.165.07-.324.21S1145.087-4935.083,1145.122-4935.058Z" transform="translate(-1103.82 5094.883)" fill="#263238"/>
      <path id="Path_4911" data-name="Path 4911" d="M1142.843-4937.655a2.128,2.128,0,0,0,.958,0,1.05,1.05,0,0,0-.474-.064C1143.063-4937.71,1142.843-4937.69,1142.843-4937.655Z" transform="translate(-1102 5096.612)" fill="#263238"/>
      <path id="Path_4912" data-name="Path 4912" d="M1142.093-4940.456a1.359,1.359,0,0,0,1.082.094,3.681,3.681,0,0,0-.544-.044A2.843,2.843,0,0,0,1142.093-4940.456Z" transform="translate(-1101.399 5098.799)" fill="#263238"/>
      <path id="Path_4913" data-name="Path 4913" d="M1150.45-4938.255a1.61,1.61,0,0,0,.588,0,3.369,3.369,0,0,0,.629-.13,1.761,1.761,0,0,0,.359-.144.316.316,0,0,0,.15-.18.239.239,0,0,0-.085-.239,1.081,1.081,0,0,0-1.454.477,1.054,1.054,0,0,0-.082.216.372.372,0,0,0,0,.155,1.938,1.938,0,0,1,.275-.5,1.106,1.106,0,0,1,.5-.319.922.922,0,0,1,.7.06c.09.071.055.18-.05.24a1.84,1.84,0,0,1-.334.134,3.614,3.614,0,0,1-.609.151C1150.674-4938.27,1150.45-4938.27,1150.45-4938.255Z" transform="translate(-1108.09 5097.686)" fill="#263238"/>
      <path id="Path_4914" data-name="Path 4914" d="M1148.124-4939.439a.584.584,0,0,0,.07-.4.914.914,0,0,0-.155-.435.584.584,0,0,0-.5-.3.23.23,0,0,0-.185.266v0a.715.715,0,0,0,.095.264,2.007,2.007,0,0,0,.274.36c.18.179.324.253.334.239s-.115-.1-.279-.294a2.445,2.445,0,0,1-.24-.354c-.08-.125-.13-.349,0-.374s.3.134.384.253a.947.947,0,0,1,.165.385A2.472,2.472,0,0,1,1148.124-4939.439Z" transform="translate(-1105.609 5098.899)" fill="#263238"/>
      <path id="Path_4915" data-name="Path 4915" d="M1101.532-4938.859c0,.025.259,0,.673.035a2.867,2.867,0,0,1,2.374,1.94c.135.395.145.658.17.658a.572.572,0,0,0,0-.184,2.171,2.171,0,0,0-.095-.5,2.852,2.852,0,0,0-.908-1.382,2.907,2.907,0,0,0-1.531-.619,2.431,2.431,0,0,0-.5,0A.706.706,0,0,0,1101.532-4938.859Z" transform="translate(-1068.923 5097.571)" fill="#263238"/>
      <path id="Path_4916" data-name="Path 4916" d="M1106-4957.621a15.469,15.469,0,0,0-.1,1.879,14.968,14.968,0,0,0,0,1.881,16.221,16.221,0,0,0,.1-1.881A15.571,15.571,0,0,0,1106-4957.621Z" transform="translate(-1072.391 5112.542)" fill="#263238"/>
      <path id="Path_4917" data-name="Path 4917" d="M1123.576-4929.545a5.057,5.057,0,0,0,1.332.149,4.987,4.987,0,0,0,1.341-.089c0-.03-.6,0-1.336,0S1123.576-4929.576,1123.576-4929.545Z" transform="translate(-1086.573 5090.068)" fill="#263238"/>
      <path id="Path_4918" data-name="Path 4918" d="M1114.568-4929.656a1.8,1.8,0,0,0,.1.269c.06.14.09.259.125.255s.05-.145,0-.3S1114.588-4929.677,1114.568-4929.656Z" transform="translate(-1079.361 5090.154)" fill="#263238"/>
      <path id="Path_4919" data-name="Path 4919" d="M1111.215-4933.917a.61.61,0,0,0,.13.215c.095.1.19.16.21.135s-.035-.115-.13-.214S1111.24-4933.937,1111.215-4933.917Z" transform="translate(-1076.676 5093.566)" fill="#263238"/>
      <path id="Path_4920" data-name="Path 4920" d="M1106.384-4936.118c0,.03.13.034.264.08s.23.125.254.1-.055-.15-.219-.209S1106.374-4936.159,1106.384-4936.118Z" transform="translate(-1072.808 5095.369)" fill="#263238"/>
      <path id="Path_4921" data-name="Path 4921" d="M1102.933-4936.942c0,.03.045.075.12.1s.145.035.154,0-.04-.075-.115-.1S1102.948-4936.972,1102.933-4936.942Z" transform="translate(-1070.045 5096.004)" fill="#263238"/>
      <path id="Path_4922" data-name="Path 4922" d="M944.243-4955.826l-.03-4.888,9.157-.11.12,7.153-.569.045c-2.524.169-12.853.688-14.549.2C936.482-4953.975,944.243-4955.826,944.243-4955.826Z" transform="translate(-938.048 5115.108)" fill="#ff725e"/>
      <g id="Group_8323" data-name="Group 8323" transform="translate(12.12 158.737)" opacity="0.4">
        <path id="Path_4923" data-name="Path 4923" d="M998.741-4935.809a3.194,3.194,0,0,1,1.142-1.971,3.119,3.119,0,0,1,2.135-.693l.035,2.564Z" transform="translate(-998.741 4938.478)"/>
      </g>
      <g id="Group_8324" data-name="Group 8324" transform="translate(0 160.318)" opacity="0.4">
        <path id="Path_4924" data-name="Path 4924" d="M940.341-4930.547s-2.718.823-2.374,1.267,10.8.313,15.412-.15v-.2l-12.195.259S940.875-4930.527,940.341-4930.547Z" transform="translate(-937.937 4930.547)"/>
      </g>
      <path id="Path_4925" data-name="Path 4925" d="M953.684-4926.093a.745.745,0,0,1-.155,0l-.454.035-1.666.09c-1.4.07-3.346.14-5.486.17s-4.095,0-5.486,0l-1.666-.045h7.157c2.14,0,4.09-.09,5.486-.134l1.666-.06h.449Z" transform="translate(-938.118 5087.298)" fill="#263238"/>
      <path id="Path_4926" data-name="Path 4926" d="M950.546-4929.656a3.9,3.9,0,0,0-.319-.789,3.534,3.534,0,0,0-.579-.629,1.235,1.235,0,0,1,.668.569A1.253,1.253,0,0,1,950.546-4929.656Z" transform="translate(-947.314 5091.287)" fill="#263238"/>
      <path id="Path_4927" data-name="Path 4927" d="M965.613-4934.147a1.264,1.264,0,0,1-.294-.349c-.14-.209-.224-.394-.2-.409s.159.14.294.349A1.109,1.109,0,0,1,965.613-4934.147Z" transform="translate(-959.698 5094.354)" fill="#263238"/>
      <path id="Path_4928" data-name="Path 4928" d="M968.984-4935.058a1.379,1.379,0,0,1-.324-.21c-.16-.14-.274-.274-.254-.294s.164.07.324.21S969-4935.083,968.984-4935.058Z" transform="translate(-962.331 5094.883)" fill="#263238"/>
      <path id="Path_4929" data-name="Path 4929" d="M969.773-4937.663a2.115,2.115,0,0,1-.958,0,1.085,1.085,0,0,1,.5-.065C969.553-4937.717,969.773-4937.7,969.773-4937.663Z" transform="translate(-962.66 5096.619)" fill="#263238"/>
      <path id="Path_4930" data-name="Path 4930" d="M970.022-4940.456a1.36,1.36,0,0,1-1.082.094,3.684,3.684,0,0,1,.544-.044A2.85,2.85,0,0,1,970.022-4940.456Z" transform="translate(-962.76 5098.799)" fill="#263238"/>
      <path id="Path_4931" data-name="Path 4931" d="M959.058-4938.255a1.61,1.61,0,0,1-.588,0,3.372,3.372,0,0,1-.629-.13,1.753,1.753,0,0,1-.359-.144.314.314,0,0,1-.15-.18.238.238,0,0,1,.085-.239,1.081,1.081,0,0,1,1.455.477,1.078,1.078,0,0,1,.082.216.372.372,0,0,1,0,.155,1.943,1.943,0,0,0-.274-.5,1.109,1.109,0,0,0-.5-.319.922.922,0,0,0-.7.06c-.09.071-.055.18.05.24a1.839,1.839,0,0,0,.334.134,3.62,3.62,0,0,0,.609.151C958.818-4938.27,959.058-4938.27,959.058-4938.255Z" transform="translate(-953.461 5097.686)" fill="#263238"/>
      <path id="Path_4932" data-name="Path 4932" d="M964.915-4939.439a.584.584,0,0,1-.07-.4.919.919,0,0,1,.155-.435.584.584,0,0,1,.5-.3.23.23,0,0,1,.185.266v0a.719.719,0,0,1-.095.264,2.023,2.023,0,0,1-.274.36c-.18.179-.324.253-.334.239s.12-.1.279-.294a2.083,2.083,0,0,0,.239-.354c.08-.125.13-.349,0-.374s-.3.134-.384.253a1,1,0,0,0-.165.385A2.43,2.43,0,0,0,964.915-4939.439Z" transform="translate(-959.473 5098.899)" fill="#263238"/>
      <path id="Path_4933" data-name="Path 4933" d="M1001.9-4938.859c0,.025-.259,0-.673.035a2.867,2.867,0,0,0-2.374,1.94c-.135.395-.145.658-.17.658a.572.572,0,0,1,0-.184,2.171,2.171,0,0,1,.095-.5,2.848,2.848,0,0,1,.908-1.382,2.907,2.907,0,0,1,1.531-.619,2.433,2.433,0,0,1,.5,0A.7.7,0,0,1,1001.9-4938.859Z" transform="translate(-986.572 5097.571)" fill="#263238"/>
      <path id="Path_4934" data-name="Path 4934" d="M1009.747-4957.621a15.543,15.543,0,0,1,.1,1.879,15.062,15.062,0,0,1,0,1.881,16.248,16.248,0,0,1-.1-1.881A15.571,15.571,0,0,1,1009.747-4957.621Z" transform="translate(-995.413 5112.542)" fill="#263238"/>
      <path id="Path_4935" data-name="Path 4935" d="M982.147-4929.545a5.056,5.056,0,0,1-1.332.149,4.99,4.99,0,0,1-1.342-.089c0-.03.6,0,1.337,0S982.147-4929.576,982.147-4929.545Z" transform="translate(-971.195 5090.068)" fill="#263238"/>
      <path id="Path_4936" data-name="Path 4936" d="M1000.844-4929.656c.025.024-.045.129-.1.269s-.09.259-.125.255-.05-.145,0-.3S1000.824-4929.677,1000.844-4929.656Z" transform="translate(-988.096 5090.154)" fill="#263238"/>
      <path id="Path_4937" data-name="Path 4937" d="M1003.868-4933.917a.6.6,0,0,1-.13.215c-.095.1-.189.16-.209.135s.035-.115.13-.214S1003.844-4933.937,1003.868-4933.917Z" transform="translate(-990.452 5093.566)" fill="#263238"/>
      <path id="Path_4938" data-name="Path 4938" d="M1007.975-4936.118c0,.03-.13.034-.264.08s-.229.125-.254.1.055-.15.219-.209S1007.985-4936.159,1007.975-4936.118Z" transform="translate(-993.595 5095.369)" fill="#263238"/>
      <path id="Path_4939" data-name="Path 4939" d="M1012.422-4936.942c0,.03-.045.075-.12.1s-.145.035-.155,0,.04-.075.115-.1S1012.407-4936.972,1012.422-4936.942Z" transform="translate(-997.355 5096.004)" fill="#263238"/>
      <path id="Path_4940" data-name="Path 4940" d="M997.658-5405.542l-3.511,91.792-14.265.3,2.369-79.537-16.04,80.145H952.651l17.466-92.513Z" transform="translate(-949.718 5471.181)" fill="#263238"/>
      <path id="Path_4941" data-name="Path 4941" d="M1103.5-5388.8a8.95,8.95,0,0,1-.165,1.5c-.13.927-.334,2.209-.569,3.621a15.958,15.958,0,0,1-.409,1.995,2.815,2.815,0,0,1-.933,1.4,2.165,2.165,0,0,1-1.033.463.9.9,0,0,1-.414,0,2.558,2.558,0,0,0,2.16-1.93,18.1,18.1,0,0,0,.379-1.96c.239-1.416.464-2.693.643-3.611A9.365,9.365,0,0,1,1103.5-5388.8Z" transform="translate(-1067.681 5457.777)" fill="#263238"/>
      <path id="Path_4942" data-name="Path 4942" d="M1102.027-5387.455c.03.025-.085.175,0,.414a.5.5,0,0,0,.239.31.405.405,0,0,0,.429-.085.393.393,0,0,0,.135-.414.5.5,0,0,0-.274-.274c-.229-.1-.389,0-.409-.035s.13-.209.464-.135a.64.64,0,0,1,.439.364.648.648,0,0,1-.426.812.65.65,0,0,1-.462-.029.638.638,0,0,1-.309-.5C1101.8-5387.37,1102.016-5387.5,1102.027-5387.455Z" transform="translate(-1069.173 5456.89)" fill="#263238"/>
      <path id="Path_4943" data-name="Path 4943" d="M1063.522-5390.256a2.7,2.7,0,0,1,.274-2.548c.065.029-.14.573-.209,1.267A11.8,11.8,0,0,1,1063.522-5390.256Z" transform="translate(-1038.329 5460.982)" fill="#263238"/>
      <path id="Path_4944" data-name="Path 4944" d="M1072.08-5391.247a3.132,3.132,0,0,1,.185-2.658,11,11,0,0,1-.14,1.327A10.28,10.28,0,0,1,1072.08-5391.247Z" transform="translate(-1045.172 5461.864)" fill="#263238"/>
      <path id="Path_4945" data-name="Path 4945" d="M1146.888-5389.771a8.558,8.558,0,0,1,.08-1.376,8.68,8.68,0,0,1,.06-1.382,2.572,2.572,0,0,1,.189,1.392A2.608,2.608,0,0,1,1146.888-5389.771Z" transform="translate(-1105.237 5460.762)" fill="#263238"/>
      <path id="Path_4946" data-name="Path 4946" d="M1156.176-5390.518c-.07-.024.155-.628.2-1.4s-.08-1.4,0-1.416a2.992,2.992,0,0,1-.2,2.813Z" transform="translate(-1112.665 5461.404)" fill="#263238"/>
      <path id="Path_4947" data-name="Path 4947" d="M1073.112-5689.645l8.808-.7c.055-1.027,0-4.987,0-4.987a4.392,4.392,0,0,0,3.705-4.23c.045-3.66-.588-12.074-.588-12.074h0a12.734,12.734,0,0,0-12.793,1.605l-.539.419Z" transform="translate(-1045.042 5717.094)" fill="#ffbe9d"/>
      <path id="Path_4948" data-name="Path 4948" d="M1103.7-5631.484a8.556,8.556,0,0,1-4.773-1.356s1.127,2.634,4.783,2.3Z" transform="translate(-1066.84 5653.173)" fill="#eb996e"/>
      <path id="Path_4949" data-name="Path 4949" d="M1064.053-5678.854c-.06-.029-2.519-.748-2.439,1.757a1.884,1.884,0,0,0,2.583,1.834C1064.2-5675.338,1064.053-5678.854,1064.053-5678.854Z" transform="translate(-1036.961 5690.11)" fill="#ffbe9d"/>
      <path id="Path_4950" data-name="Path 4950" d="M1066.006-5672.951a.541.541,0,0,1-.115.07.433.433,0,0,1-.324,0,1.084,1.084,0,0,1-.534-.954,1.5,1.5,0,0,1,.1-.628.5.5,0,0,1,.319-.345.221.221,0,0,1,.259.111c.035.07,0,.119.035.125s.05-.045.03-.145a.3.3,0,0,0-.1-.154.311.311,0,0,0-.244-.055.619.619,0,0,0-.444.4,1.5,1.5,0,0,0-.114.729,1.133,1.133,0,0,0,.668,1.063.467.467,0,0,0,.4-.08C1066.006-5672.892,1066.016-5672.947,1066.006-5672.951Z" transform="translate(-1039.567 5686.875)" fill="#eb996e"/>
      <path id="Path_4951" data-name="Path 4951" d="M1130.265-5680.691a.53.53,0,0,1-.5.529.5.5,0,0,1-.538-.457c0-.006,0-.012,0-.017a.5.5,0,0,1,.468-.528h.031a.5.5,0,0,1,.538.456C1130.264-5680.7,1130.265-5680.7,1130.265-5680.691Z" transform="translate(-1091.097 5691.866)" fill="#263238"/>
      <path id="Path_4952" data-name="Path 4952" d="M1126.745-5683.963c-.065.069-.459-.224-1-.224s-1,.284-1.038.214.035-.154.214-.284a1.429,1.429,0,0,1,.833-.254,1.372,1.372,0,0,1,.813.259C1126.745-5684.113,1126.79-5683.963,1126.745-5683.963Z" transform="translate(-1087.473 5694.544)" fill="#263238"/>
      <path id="Path_4953" data-name="Path 4953" d="M1102.616-5680.021a.5.5,0,0,1-.468.528h-.031a.5.5,0,0,1-.538-.457v-.012a.5.5,0,0,1,.468-.527h.031a.5.5,0,0,1,.538.456Z" transform="translate(-1068.96 5691.326)" fill="#263238"/>
      <path id="Path_4954" data-name="Path 4954" d="M1098.953-5683.414c-.065.069-.464-.225-1.028-.225s-1,.285-1.032.215.035-.155.214-.284a1.41,1.41,0,0,1,.828-.255,1.384,1.384,0,0,1,.818.26C1098.923-5683.568,1098.988-5683.444,1098.953-5683.414Z" transform="translate(-1065.202 5694.105)" fill="#263238"/>
      <path id="Path_4955" data-name="Path 4955" d="M1116.424-5679.1a3.555,3.555,0,0,1,.918-.165c.145,0,.279-.045.3-.144a.734.734,0,0,0-.1-.424c-.135-.349-.274-.713-.424-1.092a18.827,18.827,0,0,1-.953-2.863,18.758,18.758,0,0,1,1.182,2.779c.139.384.279.748.409,1.1a.847.847,0,0,1,.075.563.367.367,0,0,1-.239.209,1.089,1.089,0,0,1-.245.035A3.687,3.687,0,0,1,1116.424-5679.1Z" transform="translate(-1080.644 5693.963)" fill="#263238"/>
      <path id="Path_4956" data-name="Path 4956" d="M1108.708-5658.313c.095,0,.095.6.618,1.038s1.172.368,1.177.454-.144.12-.419.125a1.5,1.5,0,0,1-1-.34,1.335,1.335,0,0,1-.5-.873C1108.6-5658.165,1108.668-5658.319,1108.708-5658.313Z" transform="translate(-1074.573 5673.568)" fill="#263238"/>
      <path id="Path_4957" data-name="Path 4957" d="M1097.607-5693.966c-.055.15-.619.08-1.277.159s-1.2.26-1.282.12.05-.21.269-.359a2.266,2.266,0,0,1,1.95-.215C1097.5-5694.161,1097.632-5694.042,1097.607-5693.966Z" transform="translate(-1063.711 5702.454)" fill="#263238"/>
      <path id="Path_4958" data-name="Path 4958" d="M1126.192-5692.225c-.1.13-.5,0-.953,0s-.863.085-.953-.049,0-.19.194-.315a1.323,1.323,0,0,1,.773-.209,1.346,1.346,0,0,1,.763.259C1126.182-5692.419,1126.237-5692.285,1126.192-5692.225Z" transform="translate(-1087.115 5701.181)" fill="#263238"/>
      <path id="Path_4959" data-name="Path 4959" d="M1081.475-5731.747a1.345,1.345,0,0,0-.5-1.207.957.957,0,0,0-1.242.089,1.123,1.123,0,0,0-.853-1.338c-.036-.008-.073-.013-.109-.018-.6-.036-1.107.414-1.686.573a2.711,2.711,0,0,1-1.711-.2c-.538-.215-1.047-.5-1.6-.718a4.687,4.687,0,0,0-5.985,2.748,2.08,2.08,0,0,0-2.2.838,3.406,3.406,0,0,0-.5,2.4,7.459,7.459,0,0,0,.419,1.641v.14c.04,1.995.264,4.383,1.127,4.394,1.5.025,1.137-2.8,1.137-2.8,1.84-.708,1.157-3.465,1.616-3.88s1.421-1.392,5.267.58a7.491,7.491,0,0,0,4.569.5h.13a3.551,3.551,0,0,0,1-.419,1.956,1.956,0,0,0,.813-.9,1.084,1.084,0,0,0-.21-1.148A2.33,2.33,0,0,0,1081.475-5731.747Z" transform="translate(-1039.709 5734.848)" fill="#263238"/>
      <path id="Path_4960" data-name="Path 4960" d="M1005.168-5607.051a24.571,24.571,0,0,1,3.885-.743h0a15.6,15.6,0,0,0,9.392,0c.379.049.908.1,1.576.174,4.075.5,5.641,1.347,8.568,4.225l-.319,16.509s1,18.783.913,21.815h-27.87v-16.205l-9.177,3.331.838-4.812s4.1-15.959,4.748-18.109A9.672,9.672,0,0,1,1005.168-5607.051Z" transform="translate(-981.333 5633.119)" fill="#1d5291"/>
      <path id="Path_4961" data-name="Path 4961" d="M996.26-5488.634,1010-5490.59l2.609,4.679-12.768,5.756a5.507,5.507,0,0,1-2.264.5h0a5.511,5.511,0,0,1-5.1-3.422l-.414-1Z" transform="translate(-981.272 5539.277)" fill="#1d5291"/>
      <path id="Path_4962" data-name="Path 4962" d="M1094.859-5508.279l-.3-.219a6.846,6.846,0,0,0-5.406-1.252h0a9.425,9.425,0,0,0-4.21,2l-2.354,1.94,2.494,4.488,1.706-2.383s1.586,2.155,1.87,1.93a3.657,3.657,0,0,0,.624-.907l-1.132-1.591,2.733.544,3.99-1.816-1.721-2.174,1.706.568Z" transform="translate(-1053.757 5554.717)" fill="#ffbe9d"/>
      <path id="Path_4963" data-name="Path 4963" d="M1145.459-5601.688a10.131,10.131,0,0,1,5.511,5.056c1.062,2.435,2.629,14.161,2.629,14.161l1.97,3.8a6.407,6.407,0,0,1,.718,2.954v.578a6.384,6.384,0,0,1-1.437,4.045h0a6.412,6.412,0,0,1-4.4,2.343c-1.97.175-4.349.25-4.858-.329a24.7,24.7,0,0,1-2.245-3.781l5.741-3.047-2.494-4.579Z" transform="translate(-1102.401 5628.23)" fill="#1d5291"/>
      <path id="Path_4964" data-name="Path 4964" d="M1016.1-5481.066a1.839,1.839,0,0,1,.219-.125l.658-.319,2.464-1.152,8.424-3.845-.055.175-1.616-2.884-1-1.795.12.065-10.06,1-2.992.269-.808.06a1.2,1.2,0,0,1-.284,0,1.2,1.2,0,0,1,.279-.05l.8-.1,2.993-.344,10.055-1.073h.07l.04.07c.324.573.663,1.176,1,1.795l1.611,2.883.065.115-.125.055-8.449,3.765-2.494,1.083-.673.285A1.927,1.927,0,0,1,1016.1-5481.066Z" transform="translate(-996.578 5539.758)" fill="#263238"/>
      <path id="Path_4965" data-name="Path 4965" d="M1047.614-5531.689c-.07,0-.13-2.454-.13-5.486s.06-5.486.13-5.486.125,2.453.125,5.486S1047.684-5531.689,1047.614-5531.689Z" transform="translate(-1025.648 5580.968)" fill="#263238"/>
      <path id="Path_4966" data-name="Path 4966" d="M1153.276-5469.411a1.136,1.136,0,0,1,.419-.07,3.951,3.951,0,0,1,1.157.07,1.351,1.351,0,0,1,.728.413,1.924,1.924,0,0,1,.379.873,2.056,2.056,0,0,1-.095,1.047,1.947,1.947,0,0,1-.693.892,5.234,5.234,0,0,1-1.995.709,9.3,9.3,0,0,1-1.706.164,3.118,3.118,0,0,1-1.546-.269,7.733,7.733,0,0,0,1.546.094,10.873,10.873,0,0,0,1.661-.214,5.3,5.3,0,0,0,1.89-.719,1.723,1.723,0,0,0,.708-1.695,1.755,1.755,0,0,0-.309-.8,1.234,1.234,0,0,0-.614-.369,4.522,4.522,0,0,0-1.112-.144A1.939,1.939,0,0,1,1153.276-5469.411Z" transform="translate(-1107.669 5522.388)" fill="#263238"/>
      <path id="Path_4967" data-name="Path 4967" d="M1155.555-5446.591a3.008,3.008,0,0,1-1,.12,6.347,6.347,0,0,1-2.374-.394,5.556,5.556,0,0,1-1.182-.629,2.878,2.878,0,0,1-.728-.828,2.119,2.119,0,0,1-.349-.933c.04,0,.17.344.5.838a2.918,2.918,0,0,0,.718.733,5.533,5.533,0,0,0,1.137.583,7.485,7.485,0,0,0,2.284.448A5.578,5.578,0,0,1,1155.555-5446.591Z" transform="translate(-1107.669 5506.18)" fill="#263238"/>
      <path id="Path_4968" data-name="Path 4968" d="M1171.641-5495.6a4.739,4.739,0,0,1-.678.813c-.439.5-1.062,1.142-1.76,1.861s-1.337,1.351-1.81,1.805a4.5,4.5,0,0,1-.8.7,4.366,4.366,0,0,1,.673-.823c.444-.5,1.062-1.143,1.761-1.861A24.562,24.562,0,0,1,1171.641-5495.6Z" transform="translate(-1121.012 5543.285)" fill="#263238"/>
      <path id="Path_4969" data-name="Path 4969" d="M1160.022-5533.595a19.35,19.35,0,0,1-.115-3.127,19.323,19.323,0,0,1,.13-3.138,19.729,19.729,0,0,1,.125,3.138A19.712,19.712,0,0,1,1160.022-5533.595Z" transform="translate(-1115.648 5578.726)" fill="#263238"/>
      <path id="Path_4970" data-name="Path 4970" d="M1053.309-5576.461c0,.069-7.038.124-15.711.124s-15.711-.055-15.711-.124,7.032-.129,15.711-.129S1053.309-5576.532,1053.309-5576.461Z" transform="translate(-1005.154 5608.135)" fill="#e0e0e0"/>
      <path id="Path_4971" data-name="Path 4971" d="M1050.57-5563.9c0,.069-7.411.129-16.554.129s-16.559-.06-16.559-.129,7.411-.125,16.559-.125S1050.57-5563.976,1050.57-5563.9Z" transform="translate(-1001.607 5598.078)" fill="#e0e0e0"/>
      <path id="Path_4972" data-name="Path 4972" d="M1057.386-5587.9c0,.07-6.459.13-14.424.13s-14.419-.06-14.419-.13,6.454-.124,14.419-.124S1057.386-5587.971,1057.386-5587.9Z" transform="translate(-1010.483 5617.292)" fill="#e0e0e0"/>
      <path id="Path_4973" data-name="Path 4973" d="M1066.586-5398.429c0,.07-6.324.125-14.12.125s-14.115-.056-14.115-.125,6.319-.13,14.115-.13S1066.586-5398.5,1066.586-5398.429Z" transform="translate(-1018.336 5465.59)" fill="#e0e0e0"/>
      <path id="Path_4974" data-name="Path 4974" d="M1067.013-5406.467c0,.069-6.235.125-13.931.125s-13.93-.056-13.93-.125,6.239-.125,13.93-.125S1067.013-5406.537,1067.013-5406.467Z" transform="translate(-1018.977 5472.022)" fill="#e0e0e0"/>
      <path id="Path_4975" data-name="Path 4975" d="M1065.987-5416.9c0,.07-6.215.125-13.881.125s-13.88-.055-13.88-.125,6.215-.125,13.88-.125S1065.987-5416.971,1065.987-5416.9Z" transform="translate(-1018.236 5480.375)" fill="#e0e0e0"/>
      <path id="Path_4976" data-name="Path 4976" d="M1066.953-5483.335a2.618,2.618,0,0,1-.688-.657,6.761,6.761,0,0,1-1.147-2.026,6.6,6.6,0,0,1-.379-2.293,2.6,2.6,0,0,1,.135-.953,8.558,8.558,0,0,0,2.095,5.93Z" transform="translate(-1039.461 5538.216)" fill="#e0e0e0"/>
      <path id="Path_4977" data-name="Path 4977" d="M1059.711-5481.685a3,3,0,0,1-.758-.723,7.229,7.229,0,0,1-1.242-2.22,7.415,7.415,0,0,1-.4-2.494,2.839,2.839,0,0,1,.15-1.042,11.153,11.153,0,0,0,.5,3.491A11.3,11.3,0,0,0,1059.711-5481.685Z" transform="translate(-1033.511 5537.333)" fill="#e0e0e0"/>
      <path id="Path_4978" data-name="Path 4978" d="M1053.009-5480.014a3.064,3.064,0,0,1-.853-.728,6.509,6.509,0,0,1-1.352-2.344,6.58,6.58,0,0,1-.294-2.688,2.926,2.926,0,0,1,.264-1.087c.04,0-.055.424-.085,1.1a7.407,7.407,0,0,0,.354,2.6,7.519,7.519,0,0,0,1.247,2.3C1052.715-5480.323,1053.039-5480.049,1053.009-5480.014Z" transform="translate(-1028.046 5536.292)" fill="#e0e0e0"/>
      <path id="Path_4979" data-name="Path 4979" d="M1152-5469.735a3.081,3.081,0,0,0,.424.264,2.976,2.976,0,0,0,1.292.325,11,11,0,0,0,1.995-.129,3.129,3.129,0,0,0,2.1-1.027,2.992,2.992,0,0,0,.628-2.244,3.2,3.2,0,0,0-.873-1.731,4.7,4.7,0,0,0-1.536-1,1.258,1.258,0,0,1,.5.12,3.628,3.628,0,0,1,1.172.752,3.288,3.288,0,0,1,.973,1.827,3.16,3.16,0,0,1-.663,2.433,2.7,2.7,0,0,1-1.072.8,4.466,4.466,0,0,1-1.192.3,10.045,10.045,0,0,1-2.055.08,2.868,2.868,0,0,1-1.327-.419A1.082,1.082,0,0,1,1152-5469.735Z" transform="translate(-1109.332 5527.016)" fill="#e0e0e0"/>
      <path id="Path_4980" data-name="Path 4980" d="M1159.813-5479.255h.15a1.6,1.6,0,0,1,.439.074,2.777,2.777,0,0,1,1.287.973,6.494,6.494,0,0,1,1.072,2.141,3.931,3.931,0,0,1,.16,1.426,3.126,3.126,0,0,1-.5,1.461,4.457,4.457,0,0,1-2.369,1.721,7.108,7.108,0,0,1-2.379.275,13.673,13.673,0,0,1-1.6-.17,2.383,2.383,0,0,1-.574-.129c0-.045.833.089,2.175.119a7.221,7.221,0,0,0,2.3-.314,4.315,4.315,0,0,0,2.229-1.641,2.939,2.939,0,0,0,.5-1.342,3.857,3.857,0,0,0-.134-1.341,6.823,6.823,0,0,0-1-2.095,2.8,2.8,0,0,0-1.182-1C1160.023-5479.221,1159.808-5479.221,1159.813-5479.255Z" transform="translate(-1112.137 5530.202)" fill="#e0e0e0"/>
      <path id="Path_4981" data-name="Path 4981" d="M1087.98-5512.062l-8.743,10.589.668.724,14.19-2.16,7.032-10.589-.653-.588Z" transform="translate(-1051.072 5558.089)" fill="#263238"/>
      <path id="Path_4982" data-name="Path 4982" d="M1115.213-5489.916h0a1.352,1.352,0,0,0-1.262.863,2.9,2.9,0,0,1-.858,1.372,3.064,3.064,0,0,1-2.295.34c-.573-.28-2.862-2.345-3.267-2.115s-.743.748-.344,1.2,2.524,1.835,2.12,2.295-4.868-1.562-5.556-1.381-1.092.6-.688.877,3.436,1.421,3.611,1.821c0,0-4.589-1.2-4.758-.913s-.459.743,0,.913,4.414,1.207,4.758,1.376a8.243,8.243,0,0,0,1.766.5,18.888,18.888,0,0,1,1.845.584,4.047,4.047,0,0,0,2.853-.075l.464-.189a1.826,1.826,0,0,0,1.132-1.8l-.095-1.515.5-1.292Z" transform="translate(-1069.032 5538.737)" fill="#ffbe9d"/>
      <path id="Path_4983" data-name="Path 4983" d="M1104.032-5510.858a1.385,1.385,0,0,1-.259.06l-.758.135-2.8.449-4.155.638-2.449.37a4.673,4.673,0,0,0-2.374.963,16.172,16.172,0,0,0-1.731,1.994q-.8,1-1.551,1.936l-2.638,3.281-1.8,2.19-.5.588a1.106,1.106,0,0,1-.184.195.95.95,0,0,1,.145-.225l.464-.618,1.731-2.239,2.6-3.3,1.541-1.945a15.548,15.548,0,0,1,1.761-2.025,4.926,4.926,0,0,1,2.494-1l2.459-.354,4.16-.583,2.808-.37.763-.089A.99.99,0,0,1,1104.032-5510.858Z" transform="translate(-1053.957 5555.505)" fill="#455a64"/>
      <path id="Path_4984" data-name="Path 4984" d="M1153.989-5499.1a1.121,1.121,0,0,0-.394.319.4.4,0,0,0,0,.474.44.44,0,0,0,.589,0,.578.578,0,0,0,.224-.339.41.41,0,0,0-.12-.38.311.311,0,0,0-.384,0" transform="translate(-1110.546 5546.089)" fill="#fafafa"/>
    </g>
    <g id="freepik--character-1--inject-33" transform="translate(549.446 -5830.473)">
      <rect id="Rectangle_842" data-name="Rectangle 842" width="22.903" height="46.19" transform="translate(4.314 38.162)" fill="#455a64"/>
      <path id="Path_4985" data-name="Path 4985" d="M562.075-5392.711h0a3.576,3.576,0,0,1-3.571-3.576v-38.933a3.576,3.576,0,0,1,3.571-3.576h0a3.576,3.576,0,0,1,3.6,3.55v38.958a3.575,3.575,0,0,1-3.576,3.576Z" transform="translate(-556.698 5476.958)" fill="#455a64"/>
      <path id="Path_4986" data-name="Path 4986" d="M585.77-5429.463a.392.392,0,0,1,0,.115l.035.334c0,.325.06.758.1,1.306.085,1.152.2,2.784.344,4.788.269,4.07.633,9.651,1.037,15.816s.743,11.765.943,15.821a12.353,12.353,0,0,1-.594,4.763,6.535,6.535,0,0,1-.579,1.177l-.2.279a.478.478,0,0,1-.075.09,8.7,8.7,0,0,0,.758-1.582,12.639,12.639,0,0,0,.5-4.722c-.259-4.065-.618-9.646-1-15.811s-.708-11.751-.957-15.8c-.11-2-.195-3.637-.259-4.794,0-.548-.045-1-.06-1.307v-.339A.262.262,0,0,1,585.77-5429.463Z" transform="translate(-578.523 5469.485)" fill="#263238"/>
      <rect id="Rectangle_843" data-name="Rectangle 843" width="3.691" height="44.235" transform="translate(25.162 90.088)" fill="#455a64"/>
      <path id="Path_4987" data-name="Path 4987" d="M602.229-5201.311H549.446a5.736,5.736,0,0,1,5.736-5.73h41.337a5.73,5.73,0,0,1,5.731,5.73Z" transform="translate(-549.446 5291.398)" fill="#455a64"/>
      <path id="Path_4988" data-name="Path 4988" d="M675.18-5178.323a19.54,19.54,0,0,1-3.237.134,19.6,19.6,0,0,1-3.242-.134,19.493,19.493,0,0,1,3.242-.135A19.541,19.541,0,0,1,675.18-5178.323Z" transform="translate(-644.93 5268.526)" fill="#263238"/>
      <path id="Path_4989" data-name="Path 4989" d="M635.737-5001.459h-.5a15.711,15.711,0,0,0-15.711-15.71,15.711,15.711,0,0,0-15.711,15.71h-.5a16.229,16.229,0,0,1,16.232-16.227,16.229,16.229,0,0,1,16.227,16.227Z" transform="translate(-592.58 5139.786)" fill="#455a64"/>
      <circle id="Ellipse_150" data-name="Ellipse 150" cx="2.434" cy="2.434" r="2.434" transform="translate(8.524 135.599)" fill="#263238"/>
      <path id="Path_4990" data-name="Path 4990" d="M757.843-4946.956a2.435,2.435,0,0,1-2.434,2.435,2.435,2.435,0,0,1-2.434-2.435,2.434,2.434,0,0,1,2.434-2.434A2.439,2.439,0,0,1,757.843-4946.956Z" transform="translate(-712.406 5085.104)" fill="#455a64"/>
      <path id="Path_4991" data-name="Path 4991" d="M638.527-4956.912c0,.076-7.063.136-15.776.136s-15.756-.06-15.756-.136,7.063-.133,15.776-.133S638.527-4956.985,638.527-4956.912Z" transform="translate(-595.525 5091.232)" fill="#455a64"/>
      <path id="Path_4992" data-name="Path 4992" d="M576.811-5207.761a5.386,5.386,0,0,1-.8.056l-2.174.055c-1.835.04-4.369.07-7.167.089l-3.95.03a13.4,13.4,0,0,0-3.177.284,5.328,5.328,0,0,0-1.925.917c-.4.3-.589.529-.609.5s.035-.065.125-.169a3.559,3.559,0,0,1,.419-.418,5.061,5.061,0,0,1,1.94-1,12.918,12.918,0,0,1,3.222-.349c1.207-.03,2.549-.035,3.945-.045,2.8,0,5.342-.025,7.177,0l2.174.025A4.447,4.447,0,0,1,576.811-5207.761Z" transform="translate(-555.499 5292.022)" fill="#263238"/>
      <path id="Path_4993" data-name="Path 4993" d="M628.524-5577.1h0c2.748,0,5.027-1.8,5.067-10.145,0-1.681-.05-3.137-.05-3.137s3.99-.359,4.259-4.2.07-12.769.07-12.769h0a13.739,13.739,0,0,0-13.726.909l-.608.4.195,18.9C623.731-5584.5,625.815-5577.1,628.524-5577.1Z" transform="translate(-608.768 5613.058)" fill="#b78876"/>
      <path id="Path_4994" data-name="Path 4994" d="M653.586-5523.761a9.258,9.258,0,0,1-5.028-1.735s1.032,2.842,4.988,2.733Z" transform="translate(-628.802 5546.376)" fill="#aa6550"/>
      <path id="Path_4995" data-name="Path 4995" d="M686.312-5572.56a.544.544,0,0,1-.529.544.524.524,0,0,1-.567-.477c0-.007,0-.014,0-.022a.544.544,0,0,1,.529-.543.5.5,0,0,1,.564.424A.475.475,0,0,1,686.312-5572.56Z" transform="translate(-658.153 5584.461)" fill="#263238"/>
      <path id="Path_4996" data-name="Path 4996" d="M682.554-5575.872c-.065.069-.5-.235-1.077-.229s-1.028.289-1.087.22.035-.16.224-.295a1.552,1.552,0,0,1,.873-.265,1.494,1.494,0,0,1,.858.275C682.529-5576.032,682.589-5575.9,682.554-5575.872Z" transform="translate(-654.275 5587.167)" fill="#263238"/>
      <path id="Path_4997" data-name="Path 4997" d="M657.212-5571.872a.543.543,0,0,1-.529.543.5.5,0,0,1-.564-.424.5.5,0,0,1,0-.075.543.543,0,0,1,.529-.543.523.523,0,0,1,.567.476C657.211-5571.886,657.212-5571.879,657.212-5571.872Z" transform="translate(-634.853 5583.909)" fill="#263238"/>
      <path id="Path_4998" data-name="Path 4998" d="M653.253-5575.321c-.07.069-.5-.234-1.077-.234s-1.027.294-1.092.224.04-.16.229-.293a1.532,1.532,0,0,1,.873-.264,1.5,1.5,0,0,1,.858.269C653.253-5575.481,653.3-5575.356,653.253-5575.321Z" transform="translate(-630.809 5586.725)" fill="#263238"/>
      <path id="Path_4999" data-name="Path 4999" d="M671.842-5570.877a3.818,3.818,0,0,1,.963-.17c.149,0,.294-.045.319-.15a.78.78,0,0,0-.1-.439c-.145-.358-.294-.733-.449-1.126a18.8,18.8,0,0,1-1-2.953,19.338,19.338,0,0,1,1.242,2.868l.429,1.131a.85.85,0,0,1,.08.584.38.38,0,0,1-.249.214.848.848,0,0,1-.259.036A4.068,4.068,0,0,1,671.842-5570.877Z" transform="translate(-647.234 5586.585)" fill="#263238"/>
      <path id="Path_5000" data-name="Path 5000" d="M663.778-5549.442c.1,0,.1.624.648,1.073s1.237.378,1.242.464-.155.124-.444.134a1.639,1.639,0,0,1-1.033-.354,1.367,1.367,0,0,1-.5-.9C663.663-5549.289,663.738-5549.447,663.778-5549.442Z" transform="translate(-640.915 5565.55)" fill="#263238"/>
      <path id="Path_5001" data-name="Path 5001" d="M651.943-5586.2c-.06.154-.653.08-1.347.165s-1.257.265-1.352.125.06-.215.284-.369a2.386,2.386,0,0,1,2.055-.22C651.838-5586.4,651.968-5586.279,651.943-5586.2Z" transform="translate(-629.33 5595.334)" fill="#263238"/>
      <path id="Path_5002" data-name="Path 5002" d="M682.167-5584.378c-.1.135-.5,0-1,0s-.908.09-1-.05c-.045-.064,0-.2.2-.323a1.493,1.493,0,0,1,1.616.049C682.157-5584.578,682.212-5584.443,682.167-5584.378Z" transform="translate(-654.102 5593.992)" fill="#263238"/>
      <path id="Path_5003" data-name="Path 5003" d="M632.035-5625.3a3.894,3.894,0,0,0-.6-1.676,1.66,1.66,0,0,0-.2-1.726,1.7,1.7,0,0,0-2.324-.125h-.03a.907.907,0,0,0-.279-1.092,2.083,2.083,0,0,0-1.357-.319,19.366,19.366,0,0,0-4.574,1.311l-.3.055a8.408,8.408,0,0,0-3.656,1.576,7.844,7.844,0,0,0-2.284,4.046,14.6,14.6,0,0,0-.1,5.73c.5-.424,2.17-1.5,2.419-.9a3.5,3.5,0,0,1,.13,1.077.929.929,0,0,0,.549.869.729.729,0,0,0,.758-.335,1.676,1.676,0,0,0,.244-.838c.095-1.2-.2-2.409,0-3.6a4.414,4.414,0,0,1,5.056-3.662c.057.009.114.02.171.031a9.229,9.229,0,0,0,2.145.439c1.052-.041,2.13-.8,3.082-.344.184.091.374.18.553.284.359.21.539.42.624.231A3.449,3.449,0,0,0,632.035-5625.3Z" transform="translate(-602.813 5630.25)" fill="#263238"/>
      <path id="Path_5004" data-name="Path 5004" d="M619.475-5573.814c-.075,0-2.494-.333-2.259,2.459s3.032,1.642,3.028,1.562S619.475-5573.814,619.475-5573.814Z" transform="translate(-603.695 5585.074)" fill="#b78876"/>
      <path id="Path_5005" data-name="Path 5005" d="M622.242-5566.884a.746.746,0,0,1-.125.085.5.5,0,0,1-.374.035,1.207,1.207,0,0,1-.633-1.033,1.56,1.56,0,0,1,.08-.708.58.58,0,0,1,.344-.4.26.26,0,0,1,.3.11c.045.075.03.135.045.14s.06-.055.025-.17a.326.326,0,0,0-.125-.164.372.372,0,0,0-.279-.05.7.7,0,0,0-.5.473,1.649,1.649,0,0,0-.11.792,1.278,1.278,0,0,0,.823,1.148.539.539,0,0,0,.449-.11C622.242-5566.813,622.252-5566.878,622.242-5566.884Z" transform="translate(-606.646 5581.249)" fill="#aa6550"/>
      <path id="Path_5006" data-name="Path 5006" d="M722.9-5019.525l2.174-3.047-8.369-5.886-3.461,4.7.5.41c2.15,1.815,11.047,9.071,12.883,9.761C728.647-5012.822,722.9-5019.525,722.9-5019.525Z" transform="translate(-680.592 5148.411)" fill="#ff725e"/>
      <g id="Group_8325" data-name="Group 8325" transform="translate(32.768 122.292)" opacity="0.5">
        <path id="Path_5007" data-name="Path 5007" d="M716.708-5012.2a3.493,3.493,0,0,0,.339-2.495,3.028,3.028,0,0,0-1.561-2.03l-1.646,2.254Z" transform="translate(-713.84 5016.723)" fill="#fff"/>
      </g>
      <g id="Group_8326" data-name="Group 8326" transform="translate(32.648 124.487)" opacity="0.5">
        <path id="Path_5008" data-name="Path 5008" d="M725.619-4997.934s1.9,2.5,1.307,2.669-9.865-6.838-13.686-10.279l.145-.17,10.743,8.259S725.13-4998.272,725.619-4997.934Z" transform="translate(-713.24 5005.713)" fill="#fff"/>
      </g>
      <path id="Path_5009" data-name="Path 5009" d="M713.34-5006.164l.13.12.384.324,1.427,1.177c1.212,1,2.908,2.33,4.808,3.766s3.651,2.708,4.928,3.606l1.5,1.056.419.279a.633.633,0,0,0,.15.09s-.045-.04-.135-.109l-.4-.3-1.5-1.087c-1.262-.918-2.993-2.19-4.9-3.632s-3.561-2.8-4.808-3.746l-1.452-1.146-.4-.31A.676.676,0,0,0,713.34-5006.164Z" transform="translate(-680.672 5130.561)" fill="#263238"/>
      <path id="Path_5010" data-name="Path 5010" d="M767.388-4966.57a3.729,3.729,0,0,1,.793-.5,3.8,3.8,0,0,1,.923-.17,1.351,1.351,0,0,0-.968.055A1.288,1.288,0,0,0,767.388-4966.57Z" transform="translate(-723.946 5099.446)" fill="#263238"/>
      <path id="Path_5011" data-name="Path 5011" d="M759.878-4980.026c0,.035.229,0,.5-.11s.454-.194.444-.224a.913.913,0,0,0-.5.11C760.052-4980.141,759.863-4980.071,759.878-4980.026Z" transform="translate(-717.932 5109.909)" fill="#263238"/>
      <path id="Path_5012" data-name="Path 5012" d="M757.879-4983.315c0,.035.195.05.424.03a.836.836,0,0,0,.419-.09c0-.035-.194-.05-.429-.03S757.874-4983.345,757.879-4983.315Z" transform="translate(-716.332 5112.346)" fill="#263238"/>
      <path id="Path_5013" data-name="Path 5013" d="M758.63-4988.261a2.324,2.324,0,0,0,.384.374c.234.18.439.3.459.274s-.155-.191-.384-.37A1.259,1.259,0,0,0,758.63-4988.261Z" transform="translate(-716.934 5116.228)" fill="#263238"/>
      <path id="Path_5014" data-name="Path 5014" d="M759.915-4991.457a1.14,1.14,0,0,0,.369.5,1.027,1.027,0,0,0,.539.3,5.4,5.4,0,0,0-.459-.394C760.12-4991.263,759.94-4991.477,759.915-4991.457Z" transform="translate(-717.96 5118.787)" fill="#263238"/>
      <path id="Path_5015" data-name="Path 5015" d="M763.682-4981.889a1.9,1.9,0,0,0,.5.389,3.53,3.53,0,0,0,.648.3,1.819,1.819,0,0,0,.414.116.369.369,0,0,0,.249-.061.254.254,0,0,0,.075-.264,1.207,1.207,0,0,0-1.621-.536,1.2,1.2,0,0,0-.2.126c-.085.07-.12.12-.115.129a1.82,1.82,0,0,1,.569-.259,1.188,1.188,0,0,1,.658.055,1,1,0,0,1,.588.5c.04.125-.065.194-.2.18a1.764,1.764,0,0,1-.384-.1,4.386,4.386,0,0,1-.643-.27C763.891-4981.754,763.692-4981.889,763.682-4981.889Z" transform="translate(-720.939 5111.273)" fill="#263238"/>
      <path id="Path_5016" data-name="Path 5016" d="M763.636-4986.229a.7.7,0,0,0,.329-.31.948.948,0,0,0,.14-.5.653.653,0,0,0-.234-.588.253.253,0,0,0-.339.114.683.683,0,0,0-.085.294,1.975,1.975,0,0,0,0,.5.888.888,0,0,0,.145.435,3.809,3.809,0,0,1-.055-.439,2.538,2.538,0,0,1,0-.5c0-.16.11-.4.259-.315s.174.315.179.5a1.146,1.146,0,0,1-.1.444A2.148,2.148,0,0,1,763.636-4986.229Z" transform="translate(-720.778 5115.738)" fill="#263238"/>
      <path id="Path_5017" data-name="Path 5017" d="M722.423-5016.507a4.036,4.036,0,0,1,.584.474,3.367,3.367,0,0,1,.913,1.5,3.225,3.225,0,0,1-.04,1.75c-.135.434-.294.674-.274.683a.591.591,0,0,0,.12-.159,2.392,2.392,0,0,0,.234-.5,3,3,0,0,0,.075-1.806,3.165,3.165,0,0,0-.967-1.551,2.869,2.869,0,0,0-.454-.324C722.5-5016.487,722.428-5016.518,722.423-5016.507Z" transform="translate(-687.944 5138.844)" fill="#263238"/>
      <path id="Path_5018" data-name="Path 5018" d="M736.31-4994.057a5.547,5.547,0,0,0,1.1,1,5.8,5.8,0,0,0,1.257.8c0-.03-.534-.4-1.182-.9S736.335-4994.083,736.31-4994.057Z" transform="translate(-699.063 5120.868)" fill="#263238"/>
      <path id="Path_5019" data-name="Path 5019" d="M727.77-5000.083c-.035,0-.04.14-.075.3s-.085.289-.055.309.135-.1.174-.279S727.805-5000.089,727.77-5000.083Z" transform="translate(-692.115 5125.692)" fill="#263238"/>
      <path id="Path_5020" data-name="Path 5020" d="M727.962-5006.038c-.035,0-.045.129-.025.273s.065.264.1.26.045-.125,0-.275S727.992-5006.038,727.962-5006.038Z" transform="translate(-692.351 5130.46)" fill="#263238"/>
      <path id="Path_5021" data-name="Path 5021" d="M725.05-5011.017c0,.035.095.114.184.245s.125.259.16.259.05-.165-.06-.324S725.06-5011.056,725.05-5011.017Z" transform="translate(-690.047 5134.455)" fill="#263238"/>
      <path id="Path_5022" data-name="Path 5022" d="M722.549-5014.082c-.03,0,0,.095.035.17s.11.125.14.109,0-.095-.035-.169S722.579-5014.1,722.549-5014.082Z" transform="translate(-688.035 5136.902)" fill="#263238"/>
      <g id="Group_8327" data-name="Group 8327" transform="translate(34.718 121.16)" opacity="0.3">
        <path id="Path_5023" data-name="Path 5023" d="M723.624-5021.725l8.459,5.831.249-.324-8.224-6.185Z" transform="translate(-723.624 5022.404)"/>
      </g>
      <path id="Path_5024" data-name="Path 5024" d="M923.25-4949.7l-.783-3.57-9.726,2.225,1.137,5.585.613-.075c2.718-.369,13.806-2.064,15.5-2.942C931.888-4949.457,923.25-4949.7,923.25-4949.7Z" transform="translate(-840.327 5088.207)" fill="#ff725e"/>
      <g id="Group_8328" data-name="Group 8328" transform="translate(72.998 139.747)" opacity="0.5">
        <path id="Path_5025" data-name="Path 5025" d="M919.748-4926.9a3.447,3.447,0,0,0-1.586-1.871,2.923,2.923,0,0,0-2.494-.185l.554,2.669Z" transform="translate(-915.668 4929.152)" fill="#fff"/>
      </g>
      <g id="Group_8329" data-name="Group 8329" transform="translate(73.526 138.771)" opacity="0.5">
        <path id="Path_5026" data-name="Path 5026" d="M931.966-4934.05s3.062.264,2.788.8-11.411,2.664-16.409,3.177l-.025-.215,13.018-2.368S931.4-4933.92,931.966-4934.05Z" transform="translate(-918.32 4934.05)" fill="#fff"/>
      </g>
      <path id="Path_5027" data-name="Path 5027" d="M917.545-4927.56h.175l.5-.066,1.791-.264c1.5-.234,3.586-.583,5.875-1s4.349-.873,5.835-1.207l1.761-.41.5-.12.165-.049a.766.766,0,0,0-.169.024l-.5.1-1.766.374c-1.5.314-3.556.738-5.845,1.171s-4.359.8-5.865,1.052l-1.781.3-.5.085Z" transform="translate(-844.173 5070.116)" fill="#263238"/>
      <path id="Path_5028" data-name="Path 5028" d="M983.546-4933.025a3.7,3.7,0,0,1,.175-.893,4.44,4.44,0,0,1,.5-.784,1.377,1.377,0,0,0-.588.739A1.285,1.285,0,0,0,983.546-4933.025Z" transform="translate(-896.977 5073.343)" fill="#263238"/>
      <path id="Path_5029" data-name="Path 5029" d="M967.939-4934.309a1.141,1.141,0,0,0,.239-.429,1,1,0,0,0,.125-.463,1.1,1.1,0,0,0-.239.423A1,1,0,0,0,967.939-4934.309Z" transform="translate(-884.522 5073.743)" fill="#263238"/>
      <path id="Path_5030" data-name="Path 5030" d="M963.568-4934.656a1.024,1.024,0,0,0,.3-.289c.139-.18.234-.344.209-.365s-.165.11-.3.29S963.543-4934.676,963.568-4934.656Z" transform="translate(-881.02 5073.832)" fill="#263238"/>
      <path id="Path_5031" data-name="Path 5031" d="M960.207-4936.887a1.181,1.181,0,0,0,.524-.035,1.14,1.14,0,0,0,.5-.15,1.273,1.273,0,0,0-.5.035A1.239,1.239,0,0,0,960.207-4936.887Z" transform="translate(-878.332 5075.249)" fill="#263238"/>
      <path id="Path_5032" data-name="Path 5032" d="M958.756-4939.645a1,1,0,0,0,.6.054.989.989,0,0,0,.568-.189,3.551,3.551,0,0,0-.583.069A3.3,3.3,0,0,0,958.756-4939.645Z" transform="translate(-877.17 5077.409)" fill="#263238"/>
      <path id="Path_5033" data-name="Path 5033" d="M968.815-4939.7a1.989,1.989,0,0,0,.623-.125,4.082,4.082,0,0,0,.638-.269,2.011,2.011,0,0,0,.354-.23.318.318,0,0,0,.12-.219.249.249,0,0,0-.14-.229,1.187,1.187,0,0,0-1.362.6,1.062,1.062,0,0,0-.125.449v.17a1.6,1.6,0,0,1,.185-.579,1.134,1.134,0,0,1,.469-.445,1.033,1.033,0,0,1,.758-.1c.115.056.095.176,0,.265a2.369,2.369,0,0,1-.324.215,4.1,4.1,0,0,1-.618.284C969.049-4939.76,968.81-4939.716,968.815-4939.7Z" transform="translate(-885.223 5078.232)" fill="#263238"/>
      <path id="Path_5034" data-name="Path 5034" d="M965.654-4939.562a.589.589,0,0,0,0-.439,1.016,1.016,0,0,0-.254-.419.651.651,0,0,0-.584-.214.255.255,0,0,0-.14.319.662.662,0,0,0,.16.254,1.806,1.806,0,0,0,.369.319.947.947,0,0,0,.4.18,4.114,4.114,0,0,0-.354-.25,2.176,2.176,0,0,1-.334-.319c-.11-.115-.214-.334-.06-.394s.344.08.464.185a.989.989,0,0,1,.249.364A1.762,1.762,0,0,1,965.654-4939.562Z" transform="translate(-881.898 5078.099)" fill="#263238"/>
      <path id="Path_5035" data-name="Path 5035" d="M916.043-4929.261c0,.025.275-.081.728-.11a3.251,3.251,0,0,1,1.691.334,3.113,3.113,0,0,1,1.242,1.172c.229.384.294.653.319.649a.725.725,0,0,0-.04-.2,2.176,2.176,0,0,0-.2-.5,3.019,3.019,0,0,0-1.257-1.237,3.043,3.043,0,0,0-2.294-.2A.932.932,0,0,0,916.043-4929.261Z" transform="translate(-842.971 5069.165)" fill="#263238"/>
      <path id="Path_5036" data-name="Path 5036" d="M941.391-4925.614a8.374,8.374,0,0,0,2.858-.5c0-.035-.638.125-1.426.27S941.391-4925.669,941.391-4925.614Z" transform="translate(-863.266 5066.47)" fill="#263238"/>
      <path id="Path_5037" data-name="Path 5037" d="M931.807-4921.911a1.2,1.2,0,0,0,.17.254c.095.129.15.25.185.244s0-.164-.085-.313S931.822-4921.937,931.807-4921.911Z" transform="translate(-855.592 5063.106)" fill="#263238"/>
      <path id="Path_5038" data-name="Path 5038" d="M927.278-4925.63c0,.025.06.11.18.194s.234.125.254.095-.065-.115-.185-.194S927.308-4925.66,927.278-4925.63Z" transform="translate(-851.966 5066.087)" fill="#263238"/>
      <path id="Path_5039" data-name="Path 5039" d="M921.791-4927c0,.035.14,0,.294.029s.269.076.289.051-.085-.146-.274-.165S921.771-4927.022,921.791-4927Z" transform="translate(-847.571 5067.244)" fill="#263238"/>
      <path id="Path_5040" data-name="Path 5040" d="M917.92-4927.041c0,.029.06.069.145.084s.164,0,.169-.03-.06-.069-.145-.089S917.925-4927.076,917.92-4927.041Z" transform="translate(-844.474 5067.244)" fill="#263238"/>
      <g id="Group_8330" data-name="Group 8330" transform="translate(72.698 136.706)" opacity="0.3">
        <path id="Path_5041" data-name="Path 5041" d="M914.342-4941.711l9.761-2.3-.075-.394-9.86,1.906Z" transform="translate(-914.167 4944.409)"/>
      </g>
      <path id="Path_5042" data-name="Path 5042" d="M838.45-5384.964a9.482,9.482,0,0,1,1.945-1.855c.274-.09,5.157-2.125,5.247-1.9s.678,1.342-.319,1.87l-.768.254,2.8.229s3.122,2.3,3.078,2.8-.454.813-.723.583.723,1.585.723,1.585,0,.769-.409.634a3.8,3.8,0,0,1-1.042-.863s.588.952.409,1.133-1.082.224-1.177,0-.224-.634-.224-.634l-.544.045v.769l-8.274.254Z" transform="translate(-780.844 5436.877)" fill="#aa6550"/>
      <path id="Path_5043" data-name="Path 5043" d="M667.146-5484.359l2.529,2.986,10.1,17.686,19.706,1.951.429,5.7-22.7,2.144-12.668-22.933Z" transform="translate(-641.604 5513.439)" fill="#e0e0e0"/>
      <path id="Path_5044" data-name="Path 5044" d="M600.422-5500.419l-1.955-7.375-.04-2.405-10.973-4.987-2.1,2.629.254.134c-.868.907-7.237,7.8-6.873,12.913.344,4.588,10.005,33.486,10.005,33.486l22.01-6.434Z" transform="translate(-572.885 5538.122)" fill="#ebebeb"/>
      <path id="Path_5045" data-name="Path 5045" d="M674.1-5477.6l-.619,3.022,1.611,3.022v2.24l11.531,26.932,3.411,1.147.579-2.309s-9.6-16.394-11.262-21.007-4.115-11.263-4.115-11.263Z" transform="translate(-648.757 5508.03)" fill="#ff725e"/>
      <path id="Path_5046" data-name="Path 5046" d="M588.755-5448.233c0,.289,19.88,19.5,19.88,19.5l26.858-5.257-.863-5.73-18.334.5a5.39,5.39,0,0,1-4.823-2.175c-3.935-5.106-12.469-16.184-12.683-16.459C598.506-5458.27,588.755-5448.233,588.755-5448.233Z" transform="translate(-580.92 5492.232)" fill="#ebebeb"/>
      <path id="Path_5047" data-name="Path 5047" d="M635.784-5443.889s.025.115.065.359.1.614.18,1.087l.673,4.279v.05h-.05l-21.446,4.145-1.766.339a8.144,8.144,0,0,1-1.85.165,7.458,7.458,0,0,1-5.192-2.35c-.454-.5-.873-1-1.317-1.5q-1.327-1.5-2.683-3.083c-3.636-4.18-7.481-8.613-11.471-13.2h0l-.08-.21a8.7,8.7,0,0,1-.648-3.092,5.72,5.72,0,0,1,.768-3.027,6.384,6.384,0,0,1,2.21-2.139,6.845,6.845,0,0,1,2.863-.983,5.486,5.486,0,0,1,2.928.523,7.586,7.586,0,0,1,2.284,1.811,24.435,24.435,0,0,1,1.731,2.254l1.6,2.245c2.14,2.942,4.254,5.675,6.3,8.184l1.5,1.835a16.781,16.781,0,0,0,1.526,1.691,3.571,3.571,0,0,0,1.96.8,15.617,15.617,0,0,0,2.1.055l13.058-.2,3.536-.045h.9l-.933.03-3.551.09-13.008.294a15.132,15.132,0,0,1-2.12-.05,3.787,3.787,0,0,1-2.07-.837,16.4,16.4,0,0,1-1.556-1.711l-1.5-1.835c-2.055-2.494-4.18-5.236-6.324-8.18-.534-.737-1.067-1.5-1.611-2.244a24.4,24.4,0,0,0-1.716-2.225,7.34,7.34,0,0,0-2.224-1.716,5.207,5.207,0,0,0-2.793-.5,6.555,6.555,0,0,0-4.883,2.993,5.411,5.411,0,0,0-.733,2.888,8.478,8.478,0,0,0,.628,2.993c.03.07.055.14.08.2v-.035l11.471,13.207,2.678,3.092c.444.5.873,1,1.312,1.5a7.2,7.2,0,0,0,5.027,2.284,7.765,7.765,0,0,0,1.8-.154l1.766-.334,21.446-4.035-.045.06c-.264-1.855-.469-3.282-.608-4.254l-.15-1.106C635.8-5443.759,635.784-5443.889,635.784-5443.889Z" transform="translate(-582.073 5496.394)" fill="#455a64"/>
      <path id="Path_5048" data-name="Path 5048" d="M625.915-5498.839c.025,0-.075.5-.174,1.353a28.585,28.585,0,0,1-.5,3.554l-.03.151-.135-.081-3.9-2.269c-2.259-1.317-4.3-2.495-5.771-3.4l-1.736-1.052a4.214,4.214,0,0,1-.618-.418,4.247,4.247,0,0,1,.668.328l1.776,1c1.5.843,3.551,2,5.81,3.327l3.91,2.289-.169.069c.324-1.425.409-2.667.563-3.52.07-.43.135-.764.195-1A1.477,1.477,0,0,1,625.915-5498.839Z" transform="translate(-600.374 5526.762)" fill="#455a64"/>
      <path id="Path_5049" data-name="Path 5049" d="M830.91-5372.049l-4.793-1.312-3.99,1.995h-2.259l-.359.145.643,4.295.569.08a5.487,5.487,0,0,0,1.905.722,6.387,6.387,0,0,0,3.117-.543l2.534-1.4,1.81-.5,1.356.788a5.273,5.273,0,0,1,.135.722c0,.18.5.4.768.4s.359-.633.359-.633l-.314-1.352.634.584h1.581v-1Z" transform="translate(-765.678 5424.567)" fill="#b78876"/>
      <path id="Path_5050" data-name="Path 5050" d="M740.274-5208.867,719.621-5172.1l11.037,7.487,18.255-32.4-3.077-11.855Z" transform="translate(-685.7 5292.86)" fill="#263238"/>
      <path id="Path_5051" data-name="Path 5051" d="M627.279-5294.429s-2.369,9.975,4.065,12.02,39.9,3.087,39.9,3.087l12.439,51.372,10.648-1.5L685.15-5284.5a9.321,9.321,0,0,0-7.541-7.561c-9.925-1.776-27.905-5.033-28.15-5.4-.339-.5-1.7-3.387-1.7-3.387Z" transform="translate(-611.424 5366.506)" fill="#263238"/>
      <path id="Path_5052" data-name="Path 5052" d="M803.954-5180.74a1.313,1.313,0,0,1-.11-.264c-.065-.18-.15-.438-.244-.783-.2-.678-.444-1.681-.7-2.918s-.559-2.728-.893-4.358a23.73,23.73,0,0,0-1.551-5.178,3.516,3.516,0,0,0-1.83-1.92,13.791,13.791,0,0,0-2.534-.554c-1.656-.229-3.157-.34-4.419-.419s-2.289-.115-2.992-.145l-.813-.035a1.067,1.067,0,0,1-.284,0,1,1,0,0,1,.284-.025h.818c.708,0,1.736,0,2.993.061s2.773.145,4.439.364a13.76,13.76,0,0,1,2.593.553,3.244,3.244,0,0,1,.644.324,3.206,3.206,0,0,1,.539.5,5.553,5.553,0,0,1,.793,1.228,23.239,23.239,0,0,1,1.551,5.241c.334,1.646.594,3.127.838,4.369s.454,2.244.618,2.933S803.954-5180.75,803.954-5180.74Z" transform="translate(-740.114 5283.631)" fill="#455a64"/>
    </g>
    <g id="freepik--Desk--inject-33" transform="translate(601.89 -5793.063)">
      <path id="Path_5053" data-name="Path 5053" d="M945.486-5332l-132.918-.479-.015,3.949,7.89.026-.279,76.868,2.788.01.274-76.869,109.831.395-.274,76.873,2.788,0,.274-76.868,9.626.035Z" transform="translate(-812.552 5354.42)" fill="#455a64"/>
      <path id="Path_5054" data-name="Path 5054" d="M1250.413-5439.537l7.377,21.547h33.382l-.244-1.107-13.5-.419-6.219-20.03Z" transform="translate(-1163.136 5440.15)" fill="#e0e0e0"/>
      <path id="Path_5055" data-name="Path 5055" d="M1314.4-5393.93a1.538,1.538,0,0,1-.848,1.935,1.468,1.468,0,0,1-1.641-1.267,1.529,1.529,0,0,1,.843-1.931A1.477,1.477,0,0,1,1314.4-5393.93Z" transform="translate(-1212.329 5404.664)" fill="#fff"/>
      <path id="Path_5056" data-name="Path 5056" d="M921.9-5442.563l-7.377,21.545H881.138l.245-1.106,13.5-.419,6.219-20.03Z" transform="translate(-867.467 5442.573)" fill="#e0e0e0"/>
      <path id="Path_5057" data-name="Path 5057" d="M1011.127-5396.982a1.529,1.529,0,0,0,.848,1.93,1.468,1.468,0,0,0,1.641-1.262,1.539,1.539,0,0,0-.843-1.934A1.478,1.478,0,0,0,1011.127-5396.982Z" transform="translate(-971.496 5407.112)" fill="#fff"/>
      <circle id="Ellipse_151" data-name="Ellipse 151" cx="4.085" cy="4.085" r="4.085" transform="translate(63.885 9.928)" fill="#455a64"/>
      <rect id="Rectangle_844" data-name="Rectangle 844" width="26.693" height="9.756" transform="translate(54.629 12.404)" fill="#e0e0e0"/>
      <path id="Path_5058" data-name="Path 5058" d="M1103.109-5367.422a36.92,36.92,0,0,1-4.354.129,36.921,36.921,0,0,1-4.354-.129,35.7,35.7,0,0,1,4.354-.129A35.7,35.7,0,0,1,1103.109-5367.422Z" transform="translate(-1038.221 5382.519)" fill="#263238"/>
      <path id="Path_5059" data-name="Path 5059" d="M1103.109-5360.409a37.025,37.025,0,0,1-4.354.13,37.026,37.026,0,0,1-4.354-.13,35.314,35.314,0,0,1,4.354-.134A35.314,35.314,0,0,1,1103.109-5360.409Z" transform="translate(-1038.221 5376.908)" fill="#263238"/>
      <path id="Path_5060" data-name="Path 5060" d="M1103.109-5353.377a35.9,35.9,0,0,1-4.354.129,35.9,35.9,0,0,1-4.354-.129,37.238,37.238,0,0,1,4.354-.13A37.238,37.238,0,0,1,1103.109-5353.377Z" transform="translate(-1038.221 5371.272)" fill="#263238"/>
      <path id="Path_5061" data-name="Path 5061" d="M1103.109-5346.347a35.8,35.8,0,0,1-4.354.13,35.8,35.8,0,0,1-4.354-.13,37.132,37.132,0,0,1,4.354-.129A37.131,37.131,0,0,1,1103.109-5346.347Z" transform="translate(-1038.221 5365.643)" fill="#263238"/>
      <path id="Path_5062" data-name="Path 5062" d="M1161.9-5370.2a41.461,41.461,0,0,1-.13-4.684,41.561,41.561,0,0,1,.13-4.688,43.077,43.077,0,0,1,.13,4.688A42.973,42.973,0,0,1,1161.9-5370.2Z" transform="translate(-1092.144 5392.126)" fill="#263238"/>
    </g>
  </g>
</svg>
