<svg id="Group_3082" data-name="Group 3082" xmlns="http://www.w3.org/2000/svg" xmlns:xlink="http://www.w3.org/1999/xlink" width="751.79" height="546.141" viewBox="0 0 751.79 546.141">
  <defs>
    <radialGradient id="radial-gradient" cx="0.5" cy="0.5" r="0.69" gradientTransform="translate(0.202) scale(0.597 1)" gradientUnits="objectBoundingBox">
      <stop offset="0" stop-color="#3563ef"/>
      <stop offset="0.999" stop-color="#6a8de5"/>
    </radialGradient>
    <clipPath id="clip-path">
      <rect id="Rectangle_101" data-name="Rectangle 101" width="705.365" height="465.699" fill="none"/>
    </clipPath>
  </defs>
  <g id="Group_122" data-name="Group 122" transform="translate(0 0)">
    <g id="Group_85" data-name="Group 85" transform="translate(37.872 76.982)">
      <rect id="Rectangle_91" data-name="Rectangle 91" width="705.365" height="421.067" transform="translate(8.553 13.535)" opacity="0.5" fill="url(#radial-gradient)" style="mix-blend-mode: multiply;isolation: isolate"/>
      <g id="Group_84" data-name="Group 84">
        <g id="Group_81" data-name="Group 81">
          <g id="Group_79" data-name="Group 79">
            <rect id="Rectangle_92" data-name="Rectangle 92" width="705.365" height="421.067" fill="#e6e7e8"/>
            <g id="Group_78" data-name="Group 78" transform="translate(0 7.749)">
              <g id="Group_77" data-name="Group 77" transform="translate(8.552)">
                <path id="Path_195" data-name="Path 195" d="M-613.619,115.669a4.594,4.594,0,0,1-4.593,4.595,4.6,4.6,0,0,1-4.595-4.595,4.594,4.594,0,0,1,4.595-4.593A4.593,4.593,0,0,1-613.619,115.669Z" transform="translate(622.807 -111.076)" fill="#ff6e79"/>
                <path id="Path_196" data-name="Path 196" d="M-606.414,115.669a4.594,4.594,0,0,1-4.593,4.595,4.594,4.594,0,0,1-4.593-4.595,4.593,4.593,0,0,1,4.593-4.593A4.593,4.593,0,0,1-606.414,115.669Z" transform="translate(628.783 -111.076)" fill="#fbb040"/>
                <path id="Path_197" data-name="Path 197" d="M-599.208,115.669a4.594,4.594,0,0,1-4.593,4.595,4.594,4.594,0,0,1-4.593-4.595,4.593,4.593,0,0,1,4.593-4.593A4.593,4.593,0,0,1-599.208,115.669Z" transform="translate(634.758 -111.076)" fill="#8dc63f"/>
              </g>
              <line id="Line_9" data-name="Line 9" x2="705.365" transform="translate(0 19.38)" fill="none" stroke="#bcbec0" stroke-miterlimit="10" stroke-width="0.567"/>
            </g>
          </g>
          <g id="Group_80" data-name="Group 80" transform="translate(624.074 34.406)">
            <ellipse id="Ellipse_15" data-name="Ellipse 15" cx="9.88" cy="9.88" rx="9.88" ry="9.88" transform="translate(0 3.093)" fill="#ed1c24"/>
            <text id="LIVE" transform="translate(25.166 15)" fill="#212121" font-size="14" font-family="SegoeUI, Segoe UI"><tspan x="0" y="0">LIVE</tspan></text>
          </g>
        </g>
        <g id="Group_83" data-name="Group 83" transform="translate(36.935 37.922)">
          <rect id="Rectangle_93" data-name="Rectangle 93" width="256.639" height="256.639" rx="10.388" fill="#fbb040"/>
          <g id="Group_82" data-name="Group 82" transform="translate(136.609 155.451)">
            <rect id="Rectangle_94" data-name="Rectangle 94" width="482.432" height="187.931" rx="12.502" transform="translate(18.131 17.048)" fill="#8dc63f"/>
            <rect id="Rectangle_95" data-name="Rectangle 95" width="482.432" height="187.931" rx="12.502" fill="none" stroke="#383838" stroke-miterlimit="10" stroke-width="0.567" style="mix-blend-mode: multiply;isolation: isolate"/>
          </g>
          <path id="Rectangle_96" data-name="Rectangle 96" d="M10.387,0H246.252a10.387,10.387,0,0,1,10.387,10.387V246.252a10.387,10.387,0,0,1-10.387,10.387H10.388A10.388,10.388,0,0,1,0,246.251V10.387A10.387,10.387,0,0,1,10.387,0Z" transform="translate(8.289 9.457)" fill="none" stroke="#383838" stroke-miterlimit="10" stroke-width="0.567" style="mix-blend-mode: multiply;isolation: isolate"/>
        </g>
      </g>
    </g>
    <g id="Group_107" data-name="Group 107" transform="translate(37.872 32.351)">
      <g id="Group_106" data-name="Group 106" clip-path="url(#clip-path)">
        <g id="Group_105" data-name="Group 105" transform="translate(75.308 0)">
          <g id="Group_88" data-name="Group 88" transform="translate(0 13.016)">
            <g id="Group_87" data-name="Group 87">
              <path id="Path_198" data-name="Path 198" d="M-303.694,258.575a35.314,35.314,0,0,0-40.833-28.735c-5.319.924-130.579,21.228-162.015-101.782-27.747-8.851-68.413,17.483-68.413,17.483,24.806,97.07,90.367,133.926,141,147.751a236.227,236.227,0,0,0,27.741,5.784c40.352,5.965,72.171.611,73.79.331A35.308,35.308,0,0,0-303.694,258.575Z" transform="translate(595.73 -59.138)" fill="#384e84"/>
              <path id="Path_199" data-name="Path 199" d="M-467.805,255.053c40.352,5.965,72.171.611,73.79.331a35.308,35.308,0,0,0,28.733-40.833,35.314,35.314,0,0,0-40.833-28.735c-2.824.49-39.448,6.441-77.894-6.484.679,14.182-1.151,39.331-16.669,68.467q2.587.774,5.133,1.471A236.235,236.235,0,0,0-467.805,255.053Z" transform="translate(657.318 -15.114)" fill="#273d6b"/>
              <path id="Path_200" data-name="Path 200" d="M-506.543,128.058c-27.745-8.851-68.412,17.483-68.412,17.483,1.979,7.743,4.244,15.063,6.713,22.06,13.448-.885,41.875-4.624,67.9-20.072A173.952,173.952,0,0,1-506.543,128.058Z" transform="translate(595.73 -59.138)" fill="#eeb399"/>
              <g id="Group_86" data-name="Group 86">
                <path id="Path_201" data-name="Path 201" d="M-496.367,139.543c.009-3.635-.04-7.267-.1-10.9-.111-7.046,1.13-17.926-6.428-21.921a9.084,9.084,0,0,0-1.019-.461,8.59,8.59,0,0,0-4.484-.426,5.586,5.586,0,0,0-2.563,1.066,7.408,7.408,0,0,0-2,3.115,34.088,34.088,0,0,0-2.383,10.267c-.079,1.085-.241,2.387-1.227,2.844-2.019.935-4-1.725-4.729-3.163-5.261-10.434-11.273-20.933-20.6-27.97-2.2-1.659-5.061-3.157-7.593-2.072a5.9,5.9,0,0,0-3.176,4.986,17.333,17.333,0,0,0,.918,6.1c-3.922-1.282-7.265-5.314-11.281-4.366-2.9.684-4.611,3.92-4.564,6.9s1.419,5.764,2.762,8.427c-2.3-2.98-5.553-6.309-9.173-5.29-2.506.7-4.026,3.4-4.189,6s.742,5.131,1.632,7.577c-2.318-.56-3.77-3.432-6.153-3.393a3.637,3.637,0,0,0-3.064,2.3,8.677,8.677,0,0,0-.5,3.977c.329,6,2.431,11.753,4.639,17.344q6.706,16.981,14.979,33.288c2,3.942,4.2,8,7.829,10.531,5.433,3.781,12.7,3.24,19.214,2.049a130.874,130.874,0,0,0,26.834-7.951,32.416,32.416,0,0,0,7.855-4.282c4.993-3.977,7.269-10.106,7.829-16.294C-496.554,151.749-496.38,145.647-496.367,139.543Z" transform="translate(586.312 -89.556)" fill="#eeb399"/>
                <path id="Path_202" data-name="Path 202" d="M-579.33,132.96a.577.577,0,0,1-.22-.079.588.588,0,0,1-.2-.809c11.2-18.451,43.239-27.6,43.56-27.692a.6.6,0,0,1,.724.408.586.586,0,0,1-.408.724c-.317.088-31.909,9.12-42.873,27.171A.585.585,0,0,1-579.33,132.96Z" transform="translate(591.686 -77.278)" fill="#b7745a"/>
                <path id="Path_203" data-name="Path 203" d="M-556.99,116.744a.578.578,0,0,1-.382-.223c-5.045-6.594-10.117-19.669-10.329-20.222a.591.591,0,0,1,.337-.763.6.6,0,0,1,.763.338c.051.135,5.221,13.47,10.165,19.931a.588.588,0,0,1-.11.825A.578.578,0,0,1-556.99,116.744Z" transform="translate(601.711 -84.628)" fill="#b7745a"/>
                <path id="Path_204" data-name="Path 204" d="M-564.653,118.651a.577.577,0,0,1-.336-.174c-6.181-6.4-9.81-15.973-9.96-16.377a.585.585,0,0,1,.346-.757.583.583,0,0,1,.756.346c.036.1,3.7,9.751,9.705,15.971a.589.589,0,0,1-.014.832A.59.59,0,0,1-564.653,118.651Z" transform="translate(595.702 -79.815)" fill="#b7745a"/>
                <path id="Path_205" data-name="Path 205" d="M-571.333,123.441a.591.591,0,0,1-.34-.176c-5.559-5.846-9.433-16.015-9.6-16.446a.586.586,0,0,1,.344-.757.581.581,0,0,1,.757.344c.039.1,3.955,10.377,9.347,16.047a.589.589,0,0,1-.02.832A.589.589,0,0,1-571.333,123.441Z" transform="translate(590.463 -75.902)" fill="#b7745a"/>
                <path id="Path_206" data-name="Path 206" d="M-557.02,131.943a.592.592,0,0,1-.5-.518c-.525-4.674-.408-11.054,3.132-14.89,1.547-1.679,4.181-2.647,6.731-3.583,3.364-1.238,6.845-2.517,7.566-5.349a.6.6,0,0,1,.717-.424.589.589,0,0,1,.424.717c-.876,3.432-4.65,4.818-8.3,6.161-2.418.889-4.918,1.807-6.272,3.274-3.237,3.512-3.323,9.532-2.826,13.964a.59.59,0,0,1-.52.651A.7.7,0,0,1-557.02,131.943Z" transform="translate(609.996 -74.956)" fill="#b7745a"/>
              </g>
            </g>
            <path id="Path_207" data-name="Path 207" d="M-566.485,167.146a.759.759,0,0,1-.646-.777.757.757,0,0,1,.783-.728c.3.009,30.293.854,61.8-21.253a.757.757,0,0,1,1.054.185.758.758,0,0,1-.183,1.055c-31.948,22.415-62.425,21.537-62.728,21.524A.624.624,0,0,1-566.485,167.146Z" transform="translate(602.217 -44.204)" fill="#182a4c"/>
          </g>
          <g id="Group_99" data-name="Group 99" transform="translate(146.842 167.561)">
            <g id="Group_96" data-name="Group 96" transform="translate(13.482 4.217)">
              <g id="Group_89" data-name="Group 89" transform="translate(0 11.517)">
                <path id="Path_208" data-name="Path 208" d="M-458.379,230.388c-9.089,30.385-10.878,64.8-16.926,95.941-6.585,33.906-13.962,67.662-22.47,101.138-2.641,10.39.706,12.188,8.515,18.1a195.634,195.634,0,0,0,21.23,13.915,219.232,219.232,0,0,0,74.13,26c66.632,10.545,88.745-14.015,88.745-14.015s42.768-202.008,43.1-204.269c.4-2.8,9.3-69.9-87.8-82.689-19-2.5-38.817-2.994-57.537,1.685-21.871,5.469-43.271,19.53-50.3,41.969Q-458.046,229.276-458.379,230.388Z" transform="translate(498.665 -182.645)" fill="#fff"/>
              </g>
              <g id="Group_91" data-name="Group 91" transform="translate(78.201 70.084)">
                <g id="Group_90" data-name="Group 90" transform="translate(0 0)">
                  <path id="Path_209" data-name="Path 209" d="M-384.69,249.193l1.536-10.391-10.39-1.536,1.536-10.391L-402.4,225.34l-1.536,10.391-17.735-2.621,1.536-10.39-10.39-1.536-1.536,10.391-10.391-1.536-1.536,10.391-10.39-1.536-1.536,10.391,10.391,1.536-1.536,10.391,10.391,1.536,3.985.589-1.536,10.391,10.391,1.536,1.536-10.391,11.092,1.639-1.536,10.391,10.391,1.536,1.536-10.391,2.657.393,10.391,1.536,1.536-10.391,10.391,1.536,1.536-10.391Z" transform="translate(455.913 -209.257)" fill="#fc636f"/>
                  <rect id="Rectangle_97" data-name="Rectangle 97" width="10.503" height="10.503" transform="matrix(0.146, -0.989, 0.989, 0.146, 63.904, 17.619)" fill="#fc636f"/>
                  <rect id="Rectangle_98" data-name="Rectangle 98" width="10.503" height="10.504" transform="translate(14.998 10.39) rotate(-81.592)" fill="#fc636f"/>
                </g>
                <rect id="Rectangle_99" data-name="Rectangle 99" width="10.503" height="10.503" transform="translate(31.172 44.634) rotate(-171.592)" fill="#fff"/>
                <rect id="Rectangle_100" data-name="Rectangle 100" width="10.503" height="10.504" transform="translate(59.297 48.791) rotate(-171.591)" fill="#fff"/>
              </g>
              <g id="Group_95" data-name="Group 95" transform="translate(100.322)">
                <path id="Path_210" data-name="Path 210" d="M-372.141,176.349s23.827-.037,47.3,23.779l-18.707-1.249s17.491,3.391,19.653,37.464-19.177,276.526-19.177,276.526-73.715,40.385-94.584,39.1,17.846-68.436,19.6-92.467,11.443-126.06,13.163-143.8,13.736-92.958,22.528-109.839S-372.066,185.105-372.141,176.349Z" transform="translate(443.82 -176.349)" fill="#384e84"/>
                <g id="Group_94" data-name="Group 94" transform="translate(57.498 35.513)">
                  <path id="Path_211" data-name="Path 211" d="M-407.953,241.987s-6.384,165.992-3.83,178.364c1.906,9.228,21.906,19.455,43.816,24.572,2.04-23.637,6.393-74.882,10.328-126.231Z" transform="translate(412.387 -157.436)" fill="#23375e"/>
                  <g id="Group_92" data-name="Group 92" transform="translate(3.824)">
                    <path id="Path_212" data-name="Path 212" d="M-333.567,312.988l-1.048-79.881a37.8,37.8,0,0,0-38.336-37.339A37.839,37.839,0,0,0-410.293,234.1l2.453,187.168a37.835,37.835,0,0,0,25.72,35.353,37.962,37.962,0,0,0,6.594,1.59,37.85,37.85,0,0,0,35.3-14.088l87.364-111.412c-33.5-18.272-59.558-46.7-59.558-46.7Z" transform="translate(410.296 -195.764)" fill="#384e84"/>
                  </g>
                  <path id="Path_213" data-name="Path 213" d="M-352.522,245.1l-9.406,12c4.789,10.576,19.753,35.345,58.428,48.144l10.536-13.439C-326.467,273.53-352.522,245.1-352.522,245.1Z" transform="translate(454.226 -154.854)" fill="#eeb399"/>
                  <path id="Path_214" data-name="Path 214" d="M-392.351,325.525a.757.757,0,0,1-.644-.7,33.213,33.213,0,0,1,11.385-27l33.183-38.128a.754.754,0,0,1,1.066-.075.753.753,0,0,1,.073,1.066l-33.291,38.232a31.742,31.742,0,0,0-10.906,25.806.759.759,0,0,1-.706.8A.936.936,0,0,1-392.351,325.525Z" transform="translate(428.409 -142.968)" fill="#182a4c"/>
                  <path id="Path_215" data-name="Path 215" d="M-397.76,304.157a.88.88,0,0,1-.137-.033.756.756,0,0,1-.468-.962,52.012,52.012,0,0,1,17.136-23.849.76.76,0,0,1,1.063.135.758.758,0,0,1-.137,1.063,50.5,50.5,0,0,0-16.631,23.143A.755.755,0,0,1-397.76,304.157Z" transform="translate(423.979 -126.616)" fill="#182a4c"/>
                  <g id="Group_93" data-name="Group 93" transform="translate(101.723 19.591)">
                    <path id="Path_216" data-name="Path 216" d="M-320.927,213c1.688-2.795,3.819-5.767,7.024-6.4a12.361,12.361,0,0,1,4.778.32,6.237,6.237,0,0,1,1.626.479,4.781,4.781,0,0,1,1.853,1.893c2.3,3.865,1.82,9.735.642,13.891-1.633,5.762-3.655,11.365-4.8,17.262a45.924,45.924,0,0,0,4.595-3.788,89.95,89.95,0,0,1,7.745-6.684c3.636-2.526,8.173-4.493,12.638-3.155,5.231,1.566,8.111,7.275,5.378,12.106a29.429,29.429,0,0,1-5.1,6.1c-6.85,6.838-13.7,13.574-20.335,20.611a6.277,6.277,0,0,1-2.1,1.663,5.016,5.016,0,0,1-1.774.291,23.048,23.048,0,0,1-8.429-1.9q-4.593-1.726-9.045-3.807a19.906,19.906,0,0,1-5.349-3.293c-3.647-3.431-6.334-10.245-4.026-15.021,1.085-2.244,2.473-4.268,3.384-6.611,1.493-3.834,2.9-7.67,4.632-11.409A128.42,128.42,0,0,1-320.927,213Z" transform="translate(373.621 -206.474)" fill="#eeb399"/>
                    <path id="Path_217" data-name="Path 217" d="M-346.317,234.027c6.96-6.909,17.507-8.654,27.313-8.705,3.947-.02,8.555.541,10.6,3.922a7.8,7.8,0,0,0,1.7,2.533c1.094.794,2.59.52,3.933.379a14.847,14.847,0,0,1,12.779,5,12.866,12.866,0,0,1,1.893,13.393c7.7-.4,13.649,9.638,9.609,16.2,6.263,3.351,5.391,12.579,2.881,19.225-3.413,9.04-8.921,18.206-17.961,21.619-6.642,2.51-14.116,1.463-20.893-.657-15.973-4.99-31.985-16.748-39.79-31.85C-360.1,263.77-355.075,242.723-346.317,234.027Z" transform="translate(356.775 -190.846)" fill="#eeb399"/>
                    <path id="Path_218" data-name="Path 218" d="M-308.9,239.432a.682.682,0,0,1-.488.646c-.188.059-19.159,5.853-20.077,13.856-.413,3.135,2.237,6.351,7.721,9.5a.7.7,0,0,1,.254.935.686.686,0,0,1-.935.254c-6.007-3.453-8.861-7.019-8.405-10.853,1.024-8.894,20.231-14.765,21.047-15.008a.685.685,0,0,1,.854.457A.69.69,0,0,1-308.9,239.432Z" transform="translate(378.253 -179.724)" fill="#af7158"/>
                    <path id="Path_219" data-name="Path 219" d="M-319.851,235.106c-.084,5.332-6.263,11.513-18.394,18.409,2.177,2.524,9.243,11.9,3.889,21.877a.686.686,0,0,1-.929.278.685.685,0,0,1-.28-.929c5.758-10.7-4.15-20.814-4.247-20.92a.643.643,0,0,1-.194-.578.7.7,0,0,1,.342-.5c16.067-8.983,18.879-15,18.394-18.477-.757-5.575-10.07-7.92-10.165-7.941a.672.672,0,0,1-.5-.829.688.688,0,0,1,.825-.508c.424.106,10.315,2.592,11.2,9.091A6.959,6.959,0,0,1-319.851,235.106Z" transform="translate(370.672 -191.142)" fill="#af7158"/>
                    <path id="Path_220" data-name="Path 220" d="M-312.606,225.156a.661.661,0,0,1-.081.311c-.082.156-8.421,15.877-18.389,27.773a.683.683,0,0,1-.964.088.67.67,0,0,1-.09-.964c9.876-11.784,18.151-27.379,18.233-27.538a.684.684,0,0,1,.927-.284A.677.677,0,0,1-312.606,225.156Z" transform="translate(377.076 -191.56)" fill="#af7158"/>
                    <path id="Path_221" data-name="Path 221" d="M-322.344,267.841a39.688,39.688,0,0,0,11.12,4.247.7.7,0,0,0,.827-.545.694.694,0,0,0-.541-.83c-.121-.024-12.356-2.65-14.621-8.087a5.086,5.086,0,0,1,.768-4.946c6.113-9.338,21.676-8.69,21.831-8.683a.7.7,0,0,0,.737-.664.7.7,0,0,0-.666-.735c-.671-.033-16.53-.688-23.075,9.314a6.454,6.454,0,0,0-.891,6.252A10.831,10.831,0,0,0-322.344,267.841Z" transform="translate(381.208 -172.392)" fill="#af7158"/>
                  </g>
                  <path id="Path_222" data-name="Path 222" d="M-308.71,301.518a.148.148,0,0,1-.048-.011c-40.641-8.716-56-42.108-56.147-42.443a.764.764,0,0,1,.382-1,.766.766,0,0,1,1,.384c.145.327,15.212,33.03,55.079,41.583a.755.755,0,0,1,.582.9A.757.757,0,0,1-308.71,301.518Z" transform="translate(451.704 -144.16)" fill="#182a4c"/>
                  <path id="Path_223" data-name="Path 223" d="M-401.537,284.458a.757.757,0,0,1-.362-.159.755.755,0,0,1-.117-1.065c1.577-1.97,4.086-2.751,6.313-3.329a98.2,98.2,0,0,1,21.416-3.122.741.741,0,0,1,.781.732.754.754,0,0,1-.73.781,96.924,96.924,0,0,0-21.087,3.071c-1.992.518-4.224,1.207-5.511,2.815A.756.756,0,0,1-401.537,284.458Z" transform="translate(420.847 -128.587)" fill="#182a4c"/>
                </g>
                <path id="Path_224" data-name="Path 224" d="M-419.65,294.623l-.024,0a.761.761,0,0,1-.611-.882c7.286-39.878,41.919-70.63,46.383-74.452l-10.518-20.267a.748.748,0,0,1-.046-.591.773.773,0,0,1,.4-.443l20.692-9.664a.763.763,0,0,1,1.006.366.761.761,0,0,1-.366,1.008l-19.977,9.329,10.432,20.1a.753.753,0,0,1-.19.931c-.386.32-38.673,32.077-46.321,73.947A.76.76,0,0,1-419.65,294.623Z" transform="translate(463.325 -166.479)" fill="#182a4c"/>
              </g>
              <path id="Path_225" data-name="Path 225" d="M-395.84,191.625s-22.333,73.246-25.587,116.951S-429.662,430-450.87,468.3c0,0-23.232-6.841-25.4-17.75s33.966-178.622,37.632-195.747S-416.726,203.641-395.84,191.625Z" transform="translate(517.156 -163.682)" fill="#d1d3d4" style="mix-blend-mode: multiply;isolation: isolate"/>
            </g>
            <g id="Group_98" data-name="Group 98">
              <path id="Path_226" data-name="Path 226" d="M-332.311,175.535s-44.469-3.455-71.278.154l16.982,11.112s-64.369,2.369-72,65.814-40.319,194.443-46.754,210.86,34.672,57.674,46.652,67.016,32.049-69.189,38.609-98.5S-407.242,186.389-332.311,175.535Z" transform="translate(506.035 -174.044)" fill="#384e84"/>
              <g id="Group_97" data-name="Group 97" transform="translate(80.229 127.361)">
                <path id="Path_227" data-name="Path 227" d="M-449.988,247.086c-.256,1.734-1.27,3.022-2.261,2.874s-1.59-1.67-1.333-3.4,1.268-3.022,2.261-2.874S-449.732,245.352-449.988,247.086Z" transform="translate(469.251 -243.671)" fill="#d1d3d4"/>
                <path id="Path_228" data-name="Path 228" d="M-453.09,268.074c-.256,1.734-1.269,3.02-2.261,2.874s-1.59-1.67-1.333-3.4,1.268-3.022,2.261-2.875S-452.834,266.34-453.09,268.074Z" transform="translate(466.679 -226.269)" fill="#d1d3d4"/>
                <path id="Path_229" data-name="Path 229" d="M-455.173,288.8c-.086,1.751-.969,3.13-1.972,3.08s-1.743-1.509-1.657-3.26.969-3.13,1.972-3.08S-455.087,287.049-455.173,288.8Z" transform="translate(464.966 -208.954)" fill="#d1d3d4"/>
                <path id="Path_230" data-name="Path 230" d="M-458.541,311.576c-.086,1.75-.97,3.13-1.97,3.08s-1.745-1.509-1.657-3.261.968-3.13,1.97-3.079S-458.453,309.826-458.541,311.576Z" transform="translate(462.175 -190.068)" fill="#d1d3d4"/>
              </g>
              <path id="Path_231" data-name="Path 231" d="M-449.3,286.245a.761.761,0,0,1-.64-.862c4.253-28.764,2.969-75.22,2.958-75.685a.748.748,0,0,1,.267-.6l20.985-17.732-7.962-9.519a.757.757,0,0,1,.1-1.068.766.766,0,0,1,1.068.093l8.445,10.1a.76.76,0,0,1-.093,1.066l-21.284,17.985c.115,4.445,1.094,48.044-2.978,75.586A.76.76,0,0,1-449.3,286.245Z" transform="translate(552.541 -168.604)" fill="#182a4c"/>
            </g>
          </g>
          <g id="Group_104" data-name="Group 104" transform="translate(254.722)">
            <g id="Group_103" data-name="Group 103">
              <g id="Group_100" data-name="Group 100" transform="translate(27.601 153.566)">
                <path id="Path_232" data-name="Path 232" d="M-362.41,168.4l-13.346,38.535a7.441,7.441,0,0,1-2.365,3.362l-22.506,18.118c-14.185,11.421-34.828-1.43-30.838-19.2l2.18-9.715,11.612-33.1Z" transform="translate(431.969 -166.393)" fill="#eeb399"/>
              </g>
              <path id="Path_233" data-name="Path 233" d="M-375.522,173.807l-48.135-.843-6.181,17.619C-404.648,195.812-375.522,173.807-375.522,173.807Z" transform="translate(461.337 -7.379)" fill="#cc957f"/>
              <path id="Path_234" data-name="Path 234" d="M-395.36,247.774l-23.37-5.874a37.57,37.57,0,0,1-27.2-45.461l16.245-64.644a37.568,37.568,0,0,1,45.459-27.2l23.37,5.872a37.571,37.571,0,0,1,27.2,45.461L-349.9,220.573A37.573,37.573,0,0,1-395.36,247.774Z" transform="translate(447.058 -65.004)" fill="#eeb399"/>
              <g id="Group_101" data-name="Group 101" transform="translate(17.844 103.385)">
                <path id="Path_235" data-name="Path 235" d="M-416.4,146.779c-.294,1.994.569,3.772,1.93,3.973s2.7-1.251,3-3.243-.569-3.772-1.93-3.973S-416.1,144.787-416.4,146.779Z" transform="translate(454.589 -135.181)" fill="#15191c"/>
                <path id="Path_236" data-name="Path 236" d="M-437.245,142.223c-.295,1.992.569,3.772,1.932,3.973s2.7-1.251,3-3.245-.569-3.772-1.93-3.973S-436.95,140.23-437.245,142.223Z" transform="translate(437.303 -138.96)" fill="#15191c"/>
              </g>
              <path id="Path_237" data-name="Path 237" d="M-438.253,135.724a2.074,2.074,0,0,1-1.317-.755,2.077,2.077,0,0,1,.324-2.918c9.124-7.309,21.771-.19,22.3.113a2.077,2.077,0,0,1,.77,2.83,2.082,2.082,0,0,1-2.832.774c-.11-.062-10.747-6-17.65-.477A2.068,2.068,0,0,1-438.253,135.724Z" transform="translate(452.89 -44.029)" fill="#5b3222"/>
              <path id="Path_238" data-name="Path 238" d="M-415.034,132.188a2.069,2.069,0,0,1-1.1-1.046,2.079,2.079,0,0,1,1-2.758c10.6-4.941,21.2,4.972,21.645,5.392a2.078,2.078,0,0,1,.079,2.932,2.084,2.084,0,0,1-2.936.081c-.09-.088-9.018-8.378-17.033-4.643A2.077,2.077,0,0,1-415.034,132.188Z" transform="translate(472.538 -45.486)" fill="#5b3222"/>
              <path id="Path_239" data-name="Path 239" d="M-427.331,168.791a8.109,8.109,0,0,1-4.59-2.2,6.111,6.111,0,0,1-1.343-6.834,9.774,9.774,0,0,1,2.268-2.694c7.633-7.117,11.9-13.51,13.527-20.2a.575.575,0,0,1,.712-.432.591.591,0,0,1,.435.712c-1.683,6.918-6.06,13.494-13.785,20.7a9.353,9.353,0,0,0-2.1,2.44,4.915,4.915,0,0,0,1.118,5.477,7.49,7.49,0,0,0,5.713,1.95.588.588,0,0,1,.618.558.588.588,0,0,1-.554.618A10.058,10.058,0,0,1-427.331,168.791Z" transform="translate(458.056 -37.689)" fill="#b7745a"/>
              <path id="Path_240" data-name="Path 240" d="M-410.635,163.275c4.353-.946,8.727-2.142,12.469-4.547.792-.508,3.135-2.367,3.814-1.006.466.935.271,2.325.3,3.338.081,2.588-.437,5.33-2.409,7.165a11.317,11.317,0,0,1-3.83,2.179c-7.121,2.742-14.875,3.333-22.5,3.518a4.737,4.737,0,0,1-2.264-.318,4.378,4.378,0,0,1-1.663-1.824,22.335,22.335,0,0,1-2.791-6.94,7.7,7.7,0,0,1-.223-1.816c.051-.926,1.094-.2,1.507-.011a15.94,15.94,0,0,0,2.544.918,20.592,20.592,0,0,0,5.389.664,44.358,44.358,0,0,0,9.15-1.209Z" transform="translate(461.417 -20.423)" fill="#442218"/>
              <path id="Path_241" data-name="Path 241" d="M-422.794,173.918c7.63-.185,15.383-.777,22.5-3.518a11.32,11.32,0,0,0,3.83-2.179,7.23,7.23,0,0,0,1.994-3.4l-1.087-2.464.849-5.014c-.922-.512-2.777.94-3.463,1.381-3.742,2.405-8.116,3.6-12.47,4.547l-.51.11a44.354,44.354,0,0,1-9.15,1.209,20.6,20.6,0,0,1-5.389-.664,15.94,15.94,0,0,1-2.544-.918c-.413-.192-1.456-.915-1.507.011a4.346,4.346,0,0,0,.051.821l4.28,4.017s.124,3.388.231,5.647c.044.026.071.073.115.1A4.737,4.737,0,0,0-422.794,173.918Z" transform="translate(461.418 -20.42)" fill="#fff"/>
              <path id="Path_242" data-name="Path 242" d="M-417.825,165.919a.584.584,0,0,1-.494-.488.587.587,0,0,1,.485-.675c10.092-1.619,12.3-4.745,12.325-4.776a.591.591,0,0,1,.816-.166.584.584,0,0,1,.172.807c-.091.143-2.393,3.576-13.124,5.3A.588.588,0,0,1-417.825,165.919Z" transform="translate(470.881 -18.363)" fill="#442218"/>
              <path id="Path_243" data-name="Path 243" d="M-431.049,143.84c6.2.889,13.529-1.906,19.951-2.252a117.771,117.771,0,0,1,33.209,3.276c5.76,1.354,11.811,3.28,15.528,7.884,2.625,3.25,3.88,6.186,2.391,10.41-.957,2.711-2.618,5.113-3.825,7.721s-1.955,5.647-.96,8.345c1.085,2.943,3.637,3.6,5.544,5.687,1.729,1.891,1.54,5.184,1.2,7.523a74.27,74.27,0,0,1-3.514,14.13c-1.628,4.58-3.735,9.124-3.891,13.982-.049,1.533.315,3.379,1.743,3.931a2.755,2.755,0,0,0,2.788-.715,6.518,6.518,0,0,0,1.5-2.61,5.241,5.241,0,0,1,1.132-2.171c1.441-1.352,3.219.084,4.533-2.136a18.314,18.314,0,0,0,1.275-3.616c.223-.668.684-1.43,1.385-1.372a1.739,1.739,0,0,1,1.083.774c1.516,1.866,1.35,2.162.867,4.465-.4,1.9-.711,3.814-1.015,5.731-.589,3.706-1.469,7.4-2.016,11.1,2.656-10.7,15.506-15.255,20.774-24.348a65.709,65.709,0,0,0,8.656-37.676c-.229-2.978-.653-6.047.24-8.9.7-2.235,3.141-4.434,5.164-3.252,1.564.913,2.623,3.591,4.24,2.771A12.4,12.4,0,0,0-316.49,154a5.743,5.743,0,0,1-1.354-1.719c-1.013-2.554,2.579-4.458,3.578-7.015a3.273,3.273,0,0,0-1.1-3.911,2.356,2.356,0,0,0-3.466,1.385c-2.85-3.108-3.364-10.45-5.025-14.478a71.3,71.3,0,0,0-7.374-13.651,58.241,58.241,0,0,0-23.609-19.664,33.509,33.509,0,0,0-6.23-2.23c-4.659-1.087-9.521-.7-14.288-.3l-26.622,2.208,5.356-8.3a14.15,14.15,0,0,0-12.695,1.5q1.644-2.692,3.283-5.381A43.667,43.667,0,0,0-432.25,96.611a43.671,43.671,0,0,0-10.827,27.767c-.1,4.739.651,9.645,3.2,13.642A11.974,11.974,0,0,0-431.049,143.84Z" transform="translate(450.352 -82.44)" fill="#5b3222"/>
              <path id="Path_244" data-name="Path 244" d="M-348.369,194.864c3.369-1.791,6.3-5.628,4.99-9.212a10.472,10.472,0,0,0-1.763-2.791l-4.529-5.724a21.035,21.035,0,0,1-3.713-5.961,7.127,7.127,0,0,1,.777-6.715c1.478-1.838,3.953-2.453,6.124-3.373s4.421-2.7,4.291-5.052c-.112-2.06-2.052-3.768-1.866-5.822l7.033.6c-5.363-22.038-24.453-40.1-46.752-44.237-10.49-1.946-21.273-1.028-31.9-.1a40.958,40.958,0,0,1,3.922-10.854,25.889,25.889,0,0,0-17.8,8.444,56.7,56.7,0,0,1,6.94-16.007,32.647,32.647,0,0,0-11.209,5.861,43.7,43.7,0,0,0-9.25,25.812c-.1,4.739.651,9.645,3.2,13.642a11.974,11.974,0,0,0,8.833,5.82c6.2.889,13.531-1.906,19.951-2.252a117.753,117.753,0,0,1,33.207,3.276c5.762,1.352,11.813,3.28,15.53,7.884,2.625,3.25,3.88,6.186,2.391,10.41-.957,2.711-2.618,5.113-3.825,7.721s-1.955,5.647-.96,8.345c1.085,2.943,3.637,3.6,5.544,5.687,1.729,1.891,1.54,5.184,1.2,7.523a74.3,74.3,0,0,1-3.415,13.8,13.218,13.218,0,0,1,2.559-2.221C-355.666,197.293-351.737,196.656-348.369,194.864Z" transform="translate(450.352 -77.787)" fill="#562c1f"/>
              <g id="Group_102" data-name="Group 102" transform="translate(91.615 121.783)">
                <path id="Path_245" data-name="Path 245" d="M-373.062,164.113a12.138,12.138,0,0,1-14.729,8.813A12.135,12.135,0,0,1-396.6,158.2a12.137,12.137,0,0,1,14.729-8.813A12.139,12.139,0,0,1-373.062,164.113Z" transform="translate(396.973 -149.017)" fill="#eeb399"/>
                <path id="Path_246" data-name="Path 246" d="M-391.161,168.624a.584.584,0,0,1-.455-.355.584.584,0,0,1,.315-.77c3.752-1.564,5.983-3.717,6.629-6.395,1.127-4.677-2.907-9.506-2.947-9.556a.587.587,0,0,1,.069-.829.588.588,0,0,1,.829.068c.181.216,4.458,5.339,3.194,10.591-.741,3.066-3.2,5.489-7.32,7.209A.579.579,0,0,1-391.161,168.624Z" transform="translate(401.375 -147.722)" fill="#b7745a"/>
                <path id="Path_247" data-name="Path 247" d="M-392.7,160.148a.561.561,0,0,1-.176-.055.583.583,0,0,1-.265-.786c1.205-2.446,2.824-3.946,4.815-4.461a8.065,8.065,0,0,1,6.029,1.191.587.587,0,0,1,.15.818.582.582,0,0,1-.818.15,6.963,6.963,0,0,0-5.074-1.017c-1.637.428-3,1.721-4.048,3.839A.586.586,0,0,1-392.7,160.148Z" transform="translate(400.094 -144.347)" fill="#b7745a"/>
              </g>
            </g>
          </g>
        </g>
      </g>
    </g>
    <g id="Group_121" data-name="Group 121">
      <g id="Group_108" data-name="Group 108" transform="translate(72.611 165.176)">
        <path id="Path_248" data-name="Path 248" d="M-542.41,170.536a36.33,36.33,0,0,0-50.6-8.9,36.329,36.329,0,0,0-8.9,50.6,36.334,36.334,0,0,0,47.442,10.886l21.475,9.934-10.507-19.34A36.338,36.338,0,0,0-542.41,170.536Z" transform="translate(608.491 -155.054)" fill="#fff"/>
        <path id="Path_249" data-name="Path 249" d="M-567.757,170.032a8.656,8.656,0,0,0-7.745-1.86,10.015,10.015,0,0,0-6.192,4.8,10.012,10.012,0,0,0-6.137-4.873,8.654,8.654,0,0,0-7.765,1.772c-2.927,2.585-3.541,7.148-2.153,10.8s4.44,6.459,7.818,8.42a23.407,23.407,0,0,0,8.1,3.335v.011l.026-.005.028.005v-.011a23.378,23.378,0,0,0,8.14-3.243c3.4-1.923,6.483-4.7,7.911-8.33S-564.86,172.649-567.757,170.032Z" transform="translate(616.81 -144.459)" fill="#ff5c5c"/>
      </g>
      <g id="Group_110" data-name="Group 110" transform="translate(561.852 446.158)">
        <g id="Group_109" data-name="Group 109" transform="translate(0 0)">
          <ellipse id="Ellipse_16" data-name="Ellipse 16" cx="36.433" cy="36.433" rx="36.433" ry="36.433" transform="translate(0 37.515) rotate(-30.987)" fill="#e6e7e8"/>
          <path id="Path_250" data-name="Path 250" d="M-313.4,326.735s-22.585-11.174-22.287-10.35,9.153,31.122,9.153,31.122Z" transform="translate(345.456 -302.298)" fill="#e6e7e8"/>
        </g>
        <path id="Path_251" data-name="Path 251" d="M-292.15,331.467a8.661,8.661,0,0,0-7.745-1.858,10.016,10.016,0,0,0-6.192,4.8,10.013,10.013,0,0,0-6.137-4.873,8.654,8.654,0,0,0-7.765,1.772c-2.927,2.585-3.541,7.149-2.155,10.8s4.441,6.457,7.818,8.418a23.336,23.336,0,0,0,8.1,3.335v.011l.027-.005.027.005v-.011a23.316,23.316,0,0,0,8.138-3.243c3.4-1.922,6.484-4.694,7.913-8.33S-289.252,334.086-292.15,331.467Z" transform="translate(356.099 -291.58)" fill="#ff5c5c"/>
      </g>
      <g id="Group_113" data-name="Group 113" transform="translate(0 409.905)">
        <path id="Path_252" data-name="Path 252" d="M-588.7,289.137l-1.847,22.872s17.079,44.914-36.935,54.175V349.407Z" transform="translate(665.355 -288.603)" fill="#bcbec0" style="mix-blend-mode: multiply;isolation: isolate"/>
        <g id="Group_112" data-name="Group 112">
          <path id="Path_253" data-name="Path 253" d="M-578.055,311.507c2.638-9,6.333-21.6,6.523-22.128.2-.569-10.434,4.549-17.083,7.794a36.3,36.3,0,0,0-27.427-8.072,36.434,36.434,0,0,0-31.888,40.471,36.432,36.432,0,0,0,40.469,31.89,36.434,36.434,0,0,0,31.89-40.471A36.374,36.374,0,0,0-578.055,311.507Z" transform="translate(648.187 -288.845)" fill="#e6e7e8"/>
          <g id="Group_111" data-name="Group 111" transform="translate(15.1 12.313)">
            <path id="Path_254" data-name="Path 254" d="M-622.408,306.457c.089-.133.175-.269.26-.408a12.278,12.278,0,0,0,1.76-5.687c.084-1.538.02-3.792,1.663-4.582,1.291-.62,2.9.26,3.578,1.526a7.993,7.993,0,0,1,.569,4.2q-.2,3.748-.706,7.47,3.685.5,7.37,1a10.046,10.046,0,0,1,4.125,1.176,3.442,3.442,0,0,1,1.686,3.657c-.573,1.924-3.062,2.431-5.065,2.286a4.793,4.793,0,0,1,4.138,4.707,4.03,4.03,0,0,1-4.763,3.656,3.022,3.022,0,0,1,2.541,3.245,4.782,4.782,0,0,1-2.523,3.607,12.252,12.252,0,0,1-4.37,1.282,61.335,61.335,0,0,1-17.485.084,5.722,5.722,0,0,1-2.473-.761,4.447,4.447,0,0,1-1.566-2.265c-.929-2.638-.509-5.55.111-8.279a61.054,61.054,0,0,1,1.987-6.872,11.382,11.382,0,0,1,1.723-3.441c1.1-1.355,2.643-1.277,4-2.173A12.287,12.287,0,0,0-622.408,306.457Z" transform="translate(644.674 -295.577)" fill="#2551de"/>
            <path id="Path_255" data-name="Path 255" d="M-631.509,322.683c.3.97.54,2.01-.027,2.663a2.489,2.489,0,0,1-1.95.562l-3.532-.015a2.73,2.73,0,0,1-1.167-.176,2.635,2.635,0,0,1-1.163-1.935,24.141,24.141,0,0,1,2.758-17.507,3.789,3.789,0,0,1,1.445-1.571,4.1,4.1,0,0,1,1.639-.3c1.354-.062,2.733-.207,4.086-.187.891.015,1.753-.1,1.334,1.055-.448,1.227-1.244,2.387-1.734,3.622a33.227,33.227,0,0,0-2.109,7.1,16.423,16.423,0,0,0-.038,5.114A13.482,13.482,0,0,0-631.509,322.683Z" transform="translate(639.932 -288.415)" fill="#2551de"/>
          </g>
        </g>
      </g>
      <g id="Group_117" data-name="Group 117" transform="translate(258.601 5.963)">
        <path id="Path_256" data-name="Path 256" d="M-488.182,148.255l18.795-19.3s25.124-2.822,35.035-22.119h-35.035Z" transform="translate(522.26 -35.82)" fill="#bcbec0" style="mix-blend-mode: multiply;isolation: isolate"/>
        <g id="Group_116" data-name="Group 116">
          <g id="Group_114" data-name="Group 114">
            <path id="Path_257" data-name="Path 257" d="M-506.812,111.968a43.954,43.954,0,0,1,43.954-43.954A43.953,43.953,0,0,1-418.9,111.968a43.958,43.958,0,0,1-39.448,43.725l-14.381,24.756-3.018-26.459A43.967,43.967,0,0,1-506.812,111.968Z" transform="translate(506.812 -68.014)" fill="#fff"/>
          </g>
          <g id="Group_115" data-name="Group 115" transform="translate(22.618 17.533)">
            <path id="Path_258" data-name="Path 258" d="M-476.923,88.481c.09-.135.176-.271.26-.408a12.286,12.286,0,0,0,1.76-5.689c.084-1.537.02-3.792,1.663-4.58,1.291-.622,2.9.258,3.578,1.524a8,8,0,0,1,.569,4.2q-.2,3.748-.706,7.472l7.37.993a10.1,10.1,0,0,1,4.125,1.176,3.442,3.442,0,0,1,1.686,3.657c-.573,1.924-3.062,2.431-5.065,2.286a4.794,4.794,0,0,1,4.138,4.706,4.03,4.03,0,0,1-4.763,3.657,3.022,3.022,0,0,1,2.541,3.245,4.785,4.785,0,0,1-2.523,3.607,12.254,12.254,0,0,1-4.37,1.282,61.271,61.271,0,0,1-17.485.084,5.706,5.706,0,0,1-2.475-.761,4.461,4.461,0,0,1-1.564-2.263c-.929-2.639-.508-5.552.11-8.279a61.346,61.346,0,0,1,1.989-6.874,11.378,11.378,0,0,1,1.723-3.441c1.1-1.355,2.643-1.277,4-2.171A12.334,12.334,0,0,0-476.923,88.481Z" transform="translate(499.19 -77.599)" fill="#2551de"/>
            <path id="Path_259" data-name="Path 259" d="M-486.025,104.7c.3.971.54,2.01-.028,2.663a2.475,2.475,0,0,1-1.948.562q-1.767-.005-3.532-.015a2.742,2.742,0,0,1-1.169-.176,2.634,2.634,0,0,1-1.161-1.935A24.134,24.134,0,0,1-491.107,88.3a3.788,3.788,0,0,1,1.447-1.573,4.1,4.1,0,0,1,1.639-.3c1.354-.062,2.731-.207,4.085-.185.891.013,1.754-.1,1.333,1.054-.446,1.229-1.242,2.387-1.732,3.622a33.124,33.124,0,0,0-2.109,7.1,16.422,16.422,0,0,0-.038,5.114A13.7,13.7,0,0,0-486.025,104.7Z" transform="translate(494.447 -70.437)" fill="#2551de"/>
          </g>
        </g>
      </g>
      <g id="Group_120" data-name="Group 120" transform="translate(483.796)">
        <path id="Path_260" data-name="Path 260" d="M-370.981,115.15l19.561-8.249-12.684-.136Z" transform="translate(394.247 -29.919)" fill="#bcbec0" style="mix-blend-mode: multiply;isolation: isolate"/>
        <g id="Group_119" data-name="Group 119">
          <path id="Path_261" data-name="Path 261" d="M-263.42,64.754H-366.914A16.837,16.837,0,0,0-383.7,81.54v31.738a16.837,16.837,0,0,0,16.787,16.786h10.233l-3.754,19.92,24.251-19.92h72.763a16.835,16.835,0,0,0,16.786-16.786V81.54A16.835,16.835,0,0,0-263.42,64.754Z" transform="translate(383.7 -64.754)" fill="#fff"/>
          <g id="Group_118" data-name="Group 118" transform="translate(29.314 25.107)">
            <ellipse id="Ellipse_17" data-name="Ellipse 17" cx="5.773" cy="5.773" rx="5.773" ry="5.773" transform="translate(0 0.001)" fill="#31354f"/>
            <ellipse id="Ellipse_18" data-name="Ellipse 18" cx="5.773" cy="5.773" rx="5.773" ry="5.773" transform="translate(33.446 0.001)" fill="#31354f"/>
            <path id="Path_262" data-name="Path 262" d="M-319.559,84.255a5.773,5.773,0,0,1-5.773,5.773,5.773,5.773,0,0,1-5.773-5.773,5.775,5.775,0,0,1,5.773-5.775A5.774,5.774,0,0,1-319.559,84.255Z" transform="translate(397.997 -78.48)" fill="#31354f"/>
          </g>
        </g>
      </g>
    </g>
  </g>
</svg>
