<svg xmlns="http://www.w3.org/2000/svg" xmlns:xlink="http://www.w3.org/1999/xlink" viewBox="0 0 420 440.46"><defs><style>.cls-1{fill:#fff;opacity:0;}.cls-2{fill:url(#linear-gradient);}.cls-3{fill:url(#linear-gradient-2);}</style><linearGradient id="linear-gradient" x1="-50" y1="-293.86" x2="-50" y2="-293.25" gradientTransform="translate(10963.23 198931.97) rotate(1.68) scale(329.11 675.58)" gradientUnits="userSpaceOnUse"><stop offset="0" stop-color="#00ffaf"/><stop offset="0.06" stop-color="#00edad"/><stop offset="0.32" stop-color="#00a6a7"/><stop offset="0.55" stop-color="#006ea2"/><stop offset="0.75" stop-color="#00469f"/><stop offset="0.91" stop-color="#002d9d"/><stop offset="1" stop-color="#00249c"/></linearGradient><linearGradient id="linear-gradient-2" x1="-48.33" y1="-290.88" x2="-48.33" y2="-290.37" gradientTransform="translate(21607.31 -3043.46) rotate(-88.32) scale(84.47 73.31)" xlink:href="#linear-gradient"/></defs><g id="Layer_2" data-name="Layer 2"><g id="Layer_1-2" data-name="Layer 1"><rect class="cls-1" width="420" height="440.46"/><g id="Layer_2-2" data-name="Layer 2"><g id="Layer_1-2-2" data-name="Layer 1-2"><path class="cls-2" d="M209.6,417.38h0l.27-9.34A197.38,197.38,0,0,0,221.42,13.58l.27-9.35c5.42.29,10.81.78,16.1,1.48a205.1,205.1,0,0,1,93.21,37,206.52,206.52,0,0,1,82.94,132.24q1.77,10.24,2.52,20.61.75,10.56.45,21.16a206.62,206.62,0,0,1-1.68,21.1q-1.37,10.29-3.73,20.42a206.28,206.28,0,0,1-165.17,156.1q-10.22,1.77-20.57,2.53C220.44,417.23,215,417.41,209.6,417.38Z"/><path class="cls-3" d="M172.11,413.65l37.95-20.41-1.26,43Z"/></g></g></g></g></svg>