<svg xmlns="http://www.w3.org/2000/svg" xmlns:xlink="http://www.w3.org/1999/xlink" viewBox="0 0 395.25 713.11"><defs><style>.cls-1{fill:url(#linear-gradient);}.cls-2{fill:url(#linear-gradient-2);}</style><linearGradient id="linear-gradient" x1="-106.17" y1="753.94" x2="-106.17" y2="752.94" gradientTransform="translate(-34778.34 509351.59) rotate(180) scale(329.11 675.58)" gradientUnits="userSpaceOnUse"><stop offset="0" stop-color="#00ffaf"/><stop offset="0.06" stop-color="#00edad"/><stop offset="0.32" stop-color="#00a6a7"/><stop offset="0.55" stop-color="#006ea2"/><stop offset="0.75" stop-color="#00469f"/><stop offset="0.91" stop-color="#002d9d"/><stop offset="1" stop-color="#00249c"/></linearGradient><linearGradient id="linear-gradient-2" x1="-106.95" y1="752.54" x2="-106.95" y2="751.54" gradientTransform="translate(-54775 -8362.96) rotate(-90) scale(84.47 73.31)" xlink:href="#linear-gradient"/></defs><g id="Layer_2" data-name="Layer 2"><g id="Layer_1-2" data-name="Layer 1"><path class="cls-1" d="M329.11,675.58h0V660.31a322.62,322.62,0,0,1,0-645V0c-8.83.21-17.7.76-26.38,1.65a335,335,0,0,0-154.06,56A337.26,337.26,0,0,0,1.74,303.25a343.79,343.79,0,0,0,0,69.09A338.1,338.1,0,0,0,206,649.13a335.68,335.68,0,0,0,63.3,19.69q16.61,3.39,33.49,5.12C311.41,674.82,320.28,675.37,329.11,675.58Z"/><path class="cls-2" d="M395.25,670.88l-73.31-42.23v84.46Z"/></g></g></svg>