<svg xmlns="http://www.w3.org/2000/svg" xmlns:xlink="http://www.w3.org/1999/xlink" viewBox="0 0 311.38 342.04"><defs><style>.cls-1{fill:#92e3a9;}.cls-14,.cls-19,.cls-2,.cls-20{fill:#fff;}.cls-2{isolation:isolate;opacity:0.8;}.cls-3{fill:url(#linear-gradient);}.cls-4{fill:url(#linear-gradient-2);}.cls-5{fill:#d8d8d8;}.cls-6{fill:#9e9e9e;}.cls-7{fill:#eb996e;}.cls-16,.cls-8{fill:#263238;}.cls-11,.cls-14,.cls-19,.cls-20,.cls-8{stroke:#263238;}.cls-11,.cls-14,.cls-19,.cls-20,.cls-8,.cls-9{stroke-linecap:round;stroke-linejoin:round;}.cls-11,.cls-21,.cls-9{fill:none;}.cls-9{stroke:#000;}.cls-10{fill:url(#linear-gradient-3);}.cls-12{fill:url(#linear-gradient-4);}.cls-13{fill:url(#linear-gradient-5);}.cls-14{stroke-width:0.5px;}.cls-15{opacity:0.23;}.cls-17{opacity:0.33;}.cls-18{fill:#d87d55;}.cls-21{stroke:#d87d55;stroke-miterlimit:10;}.cls-22{fill:url(#linear-gradient-6);}</style><linearGradient id="linear-gradient" x1="87.14" y1="114.37" x2="92.13" y2="114.37" gradientUnits="userSpaceOnUse"><stop offset="0" stop-color="#00ffaf"/><stop offset="0.06" stop-color="#00edad"/><stop offset="0.32" stop-color="#00a6a7"/><stop offset="0.55" stop-color="#006ea2"/><stop offset="0.75" stop-color="#00469f"/><stop offset="0.91" stop-color="#002d9d"/><stop offset="1" stop-color="#00249c"/></linearGradient><linearGradient id="linear-gradient-2" x1="84.61" y1="138.72" x2="91.38" y2="138.72" xlink:href="#linear-gradient"/><linearGradient id="linear-gradient-3" x1="168.52" y1="59.69" x2="183.5" y2="141.4" xlink:href="#linear-gradient"/><linearGradient id="linear-gradient-4" x1="143.53" y1="64.27" x2="158.51" y2="145.97" xlink:href="#linear-gradient"/><linearGradient id="linear-gradient-5" x1="102.84" y1="71.73" x2="117.82" y2="153.44" xlink:href="#linear-gradient"/><linearGradient id="linear-gradient-6" x1="195.1" y1="48.82" x2="229.27" y2="48.82" xlink:href="#linear-gradient"/></defs><g id="Layer_2" data-name="Layer 2"><g id="Layer_1-2" data-name="Layer 1"><g id="freepik--background-simple--inject-2"><path class="cls-1" d="M311.19,156.43c3.5-58.25-41.18-109.2-91.67-134.25C161.73-6.49,93.44,1.42,44.46,37.18,27.68,49.44,13.31,65.69,6.13,85.73c-9.68,27.06-6.35,57.14-.57,85.33,4.5,22,14.11,46.11,11.69,68.07-2.62,23.8.92,48.15,17.45,67.74,41,48.58,133.76,38.05,182.47,20.34,22-8,44.8-21.12,57.36-41.88a65.7,65.7,0,0,0,9.44-36.5c-.35-10.06-2.8-21.92.47-31.51,6.39-18.75,21.76-29.87,25.55-50.54A85.64,85.64,0,0,0,311.19,156.43Z"/><path class="cls-2" d="M311.19,156.43c3.5-58.25-41.18-109.2-91.67-134.25C161.73-6.49,93.44,1.42,44.46,37.18,27.68,49.44,13.31,65.69,6.13,85.73c-9.68,27.06-6.35,57.14-.57,85.33,4.5,22,14.11,46.11,11.69,68.07-2.62,23.8.92,48.15,17.45,67.74,41,48.58,133.76,38.05,182.47,20.34,22-8,44.8-21.12,57.36-41.88a65.7,65.7,0,0,0,9.44-36.5c-.35-10.06-2.8-21.92.47-31.51,6.39-18.75,21.76-29.87,25.55-50.54A85.64,85.64,0,0,0,311.19,156.43Z"/></g><path class="cls-3" d="M92.13,103.86s-3.25-.75-3.75,2.5-1.75,13.75-1,16.5,4.5,2,4.5,2Z"/><path class="cls-4" d="M91.38,128.11s-3.5-.75-4,1.5-3,14.5-2.75,17.5,4.75,2.25,4.75,2.25Z"/><path class="cls-5" d="M118.38,87.11s-10.75,4.5-17.25,7.75-10.5,6.5-10.5,12.25,0,21.5-2.25,32.25.5,22.25,9.25,25.75,17.5,2.5,21.5-1.5,6.25-15,6.75-21.75,0-47.5,0-50.75S122.13,83.86,118.38,87.11Z"/><path class="cls-6" d="M124.47,151.11a11.62,11.62,0,0,0-3.09-2c-7-3-25.25,1.5-28.25,5.5a7.19,7.19,0,0,0-1,6.5,13.56,13.56,0,0,0,5.46,4c8.75,3.5,17.5,2.5,21.5-1.5C121.56,161.19,123.33,156.19,124.47,151.11Z"/><path class="cls-7" d="M121.88,144.11s-8.25,29.25-8,41,7.5,39.75,9.75,44.25,2.25,6-.5,10.25-12.25,16.75-12.75,29.5.25,42-.25,45-10.5,17.25-9,22.25,6.75,1.75,8-1,3.75-11,4.5-13.75,1.25-7,2.25-10.75,9.5-29.5,12.75-36.75,11-26,12.5-28.5,2.75-11,2.75-11,1,33.5,2.5,41.75,2,34.5,2,40.5-2.75,14.25-1.25,15.5,7.5,2,8.25,2.75,7,3.5,9.25,4.5,6.21,1.18,5.71-1.32-10.21-10.18-12.46-15.43-3-6.75-2.75-11.25,12-36.5,11.25-49.25-1.25-21.25-1.25-28.5,10-25.75,12.5-42-4.5-37.25-9-45.25Z"/><path class="cls-8" d="M141.13,245.61c1.5-2.5,2.75-11,2.75-11s1,33.5,2.5,41.75c1.42,7.78,1.94,31.57,2,39.28a10.41,10.41,0,0,0,6.83-.45,18.63,18.63,0,0,1-.08-3.58c.25-4.5,12-36.5,11.25-49.25s-1.25-21.25-1.25-28.5,10-25.75,12.5-42-4.5-37.25-9-45.25l-46.75-2.5s-8.25,29.25-8,41,7.5,39.75,9.75,44.25,2.25,6-.5,10.25-12.25,16.75-12.75,29.5c-.41,10.56,0,32.41-.09,41.32a10.24,10.24,0,0,0,5.59.43c1-3.75,9.5-29.5,12.75-36.75S139.63,248.11,141.13,245.61Z"/><path class="cls-9" d="M144.55,229.66c-.39,3.09-.67,5-.67,5"/><path class="cls-9" d="M141.13,179.86l5.5,4.75c1.12,12.66-.32,29.65-1.51,40.2"/><path class="cls-9" d="M146.63,184.61a52.34,52.34,0,0,0,10.25-9.75"/><polyline class="cls-9" points="145.13 156.86 146.13 172.61 148.38 171.11 148.13 162.36"/><path class="cls-10" d="M186.63,71.86s2.71,2.48.92,9.49-6.11,29.83-5.58,32.76,1.26,15.63,1.26,15.63a10.58,10.58,0,0,1-5.39,7.73C173,140,166,136.93,165.08,131.9s5-16.72,7-21.93,9.7-32.16,10.42-33.6S185.36,69.2,186.63,71.86Z"/><line class="cls-11" x1="175.86" y1="125.38" x2="168.86" y2="127.53"/><path class="cls-12" d="M146.63,65.11s-23.25,3-26.75,3.5-3.5,3-3.5,3,6.5,42,7,49.5-5.75,29.5-5.75,29.5,13.75,4.5,26,5,29.25-5.25,29.25-5.25-8-14.25-6.75-20.5,7.75-17,9.5-22.5,12.25-33,11-35.5-26.25-8.25-32-8.25S146.63,65.11,146.63,65.11Z"/><path class="cls-11" d="M160.88,121.86s2.25,7.25,4.75,11.25"/><path class="cls-13" d="M117.64,69.31a9.23,9.23,0,0,0-4.13,5c-1.44,3.78-6.29,27-9.71,33.25s-6.46,14.73-6.11,19,6.29,7.54,9.53,6.29,7.37-3.78,9-4.32,2.7-6.11,1.26-6.83a7.22,7.22,0,0,1-2.51-2.64s4.13-10.24,4.85-13.66a31.32,31.32,0,0,0,.72-6.83C120.52,97.52,117.64,69.31,117.64,69.31Z"/><path class="cls-11" d="M115,119.11a41,41,0,0,0-5.93-4.67c-2.52-1.44-7.37,2.15-7.55,3.59"/><path class="cls-6" d="M118.88,68.36s1.75,44,.5,53-5.5,24.75-5.5,24.75h3s6.25-31.25,8.5-40.75,6.25-35,6.25-37.5S122.13,65.11,118.88,68.36Z"/><path class="cls-8" d="M113.88,146.11h3s5.83-29.14,8.26-39.69l-5.31.14a140.54,140.54,0,0,1-.45,14.8C118.13,130.36,113.88,146.11,113.88,146.11Z"/><path class="cls-14" d="M149.76,49.93s-8.57-.2-12.25,5.11-4.9,19.39-.81,26.53,14.08,9.19,22.45,7.14S170,76.47,170.37,72.18s-1.22-15.1-3.67-18.78S152.82,49.11,149.76,49.93Z"/><g class="cls-15"><path class="cls-16" d="M148.1,70.56c3.54,9,11.28,11,18.42,4.33a11.87,11.87,0,0,0,3.85-6.79,11.94,11.94,0,0,1-3.68,7c-7.28,7.26-15.59,5.05-19.53-4.17a.5.5,0,1,1,.94-.34Z"/></g><g class="cls-17"><path class="cls-16" d="M135.76,60.81c-1.13,10.88,5,22.46,16.54,24.13,6.76.73,12.47-4.67,15-10.51-3.7,8.84-12.36,14-21.35,8.89-8.16-4.18-11.88-13.79-11.19-22.63a.5.5,0,1,1,1,.12Z"/></g><g class="cls-15"><path class="cls-16" d="M150.09,73.73c6.54,1.59,14.23-.47,18-6.35.57-.79,1-1.7,1.47-2.55-.46.87-.83,1.79-1.37,2.62-3.63,6.24-11.44,8.61-18.3,7.25a.5.5,0,1,1,.24-1Z"/></g><path class="cls-8" d="M151,11.56s3.88-9.79,13.06-11,15.11,15.72,12.46,19.19-3.68,4.69-3.68,4.69-14.49-6.94-16.94-4.08S151.38,32.2,148.73,34s-4.7,5.72-2.25,8.17,4.49,6.53,1.84,10-9,2-12.66-2a18.26,18.26,0,0,1-2.24-22C138.93,18.45,141.59,11.56,151,11.56Z"/><path class="cls-8" d="M174.19,18.18a17.42,17.42,0,0,1,.36,2.26"/><path class="cls-8" d="M151.59,15.24s5.62-6.8,14-6.13c4.31.35,6.57,3.37,7.75,6.21"/><path class="cls-8" d="M153.88,13.11s4.67-9,12.33-9"/><path class="cls-8" d="M150.21,17.11s-3.66,1.33-7.33,6.67-10,13.66-9.33,19a12.17,12.17,0,0,0,2.53,6.66"/><path class="cls-18" d="M146.7,47.69s.2,8.57.4,12.86-.4,10.2,1,10.61,8-3.47,9.19-6.53,1.22-9,1.22-9l-.2-4.08S150.57,45.65,146.7,47.69Z"/><path class="cls-7" d="M142,35.44s-2.65-3.06-4.08-.81,0,9.18,1.84,10.2a5.65,5.65,0,0,0,3.26.82s6.33,6.94,10,9.39,8.78,3.88,10.82,2.24a32.93,32.93,0,0,0,8-11.84c1.47-4.49.2-10.4.41-13.67s1.63-7.35.2-10.61-6.12-3.88-11-4.9a54.65,54.65,0,0,0-9.8-1s-1,6.53-3.06,9.79-4.49,7.35-4.49,7.35a2.3,2.3,0,0,1-1.41,2.92A2.38,2.38,0,0,1,142,35.44Z"/><path class="cls-11" d="M161.8,32.38s-4.69-3.88-13.27-.2c0,0-1.22.41-.61.81a2.35,2.35,0,0,1,.82,1c.44,1.34-.14,3.12.35,4.59,1.11,3.35,6.36,3.73,9.25,2.67a4.88,4.88,0,0,0,2.84-2.65C161.64,37.64,162.72,33.11,161.8,32.38Z"/><path class="cls-11" d="M164.18,32.38s4.7-3.88,13.27-.2c0,0,1.22.41.61.81a2.28,2.28,0,0,0-.82,1c-.6,1.81.33,3.82-.81,5.69-1.69,2.76-6.54,2.44-9.14,1.37a4.64,4.64,0,0,1-2.66-2.87C164.28,37.27,163.35,33.11,164.18,32.38Z"/><path class="cls-11" d="M161.8,32.38a2.15,2.15,0,0,1,2.38,0"/><line class="cls-11" x1="147.92" y1="32.99" x2="141.39" y2="34.63"/><path class="cls-16" d="M156.08,33.71c0,.84-.45,1.53-1,1.53s-1-.69-1-1.53.46-1.53,1-1.53S156.08,32.86,156.08,33.71Z"/><path class="cls-16" d="M167.72,33.71c0,.84-.46,1.53-1,1.53s-1-.69-1-1.53.45-1.53,1-1.53S167.72,32.86,167.72,33.71Z"/><path class="cls-16" d="M159.15,28.3a8.21,8.21,0,0,0-9,.82S156.9,27.89,159.15,28.3Z"/><path class="cls-16" d="M172,29.11s-2.82-2.66-5.91.81C166.09,29.93,170.53,28.71,172,29.11Z"/><path class="cls-18" d="M163,37.48s3.68,1.43,3.68,2.45S162.82,43,162.82,43"/><path class="cls-11" d="M161.8,48.71s-5.72,1-6.94-3.06"/><path class="cls-8" d="M174.38,85.41l-4.49,19.87a1.18,1.18,0,0,0,.9,1.42.85.85,0,0,0,.23,0l9.27.29a1.19,1.19,0,0,0,1.19-.92L186.27,86a1.28,1.28,0,0,0-1-1.54,1,1,0,0,0-.3,0h-9.39A1.27,1.27,0,0,0,174.38,85.41Z"/><path class="cls-7" d="M186.47,114.42s-2.34-13.66-3.78-17.43-4.13-5.93-5.57-5.58-.18,1.8.9,2.88,2.7,6.65,2.7,6.65-5.21-1.08-8.45-1.62-5.57-2-5.93-.54.9,2.34,1.8,2.7,9.52,2.69,9.52,2.69L167.24,102s-.72,1.61.54,2.33,9.34,3.24,9.34,3.24-4.67.54-7.55.54-3.59.9-2.33,1.61,9.7.18,9.7.18,1.44,5.93,2.7,6.65l1.26.72a65.63,65.63,0,0,1-4.5,7c-1.43,1.62-.72,4.85,2,5.93s5-.72,5.21-1.8,2.7-9.16,3.06-11A5.57,5.57,0,0,0,186.47,114.42Z"/><path class="cls-19" d="M121.29,111l-.17,16.93c-.12,1.27,2.45,2.56,5.75,2.88s6.07-.45,6.19-1.72l3.08-16.66Z"/><path class="cls-19" d="M136.11,112.44,121.32,111v3.1c.74,1.3,3.53,2.47,7,2.8s6.39-.28,7.36-1.42l.52-2.81Z"/><ellipse class="cls-20" cx="128.7" cy="111.73" rx="2.88" ry="7.46" transform="translate(5.11 229.09) rotate(-84.48)"/><path class="cls-19" d="M134.66,111.29c-.12,1.25-2.84,2-6.07,1.69s-5.75-1.57-5.63-2.82,2.84-2,6.07-1.69S134.78,110.05,134.66,111.29Z"/><path class="cls-7" d="M117.46,121.78s4.49-3,6.11-4.13,12.76,2.7,13.3,2.7.72.72.18,1.43a4.22,4.22,0,0,1-2,1.08,5.29,5.29,0,0,1-.9,2.52,8.5,8.5,0,0,0-1.07,1.26s.71,1.07,0,1.79-4.32,1.44-4.32,1.44,4.85.9,3.78,1.8-6.47.72-8.45,0-6.83-2.52-9-4.14S111.89,119.81,117.46,121.78Z"/><path class="cls-21" d="M135.07,122.86s-9-1.44-11-1.62"/><path class="cls-21" d="M133.1,126.64a74.06,74.06,0,0,1-9.17-.72"/><path class="cls-21" d="M128.78,129.87a37.26,37.26,0,0,1-5.39-.36"/><path class="cls-22" d="M224.15,36.7A16.94,16.94,0,0,0,197.5,57.13l-2.4,8.78,9-2.36a16.86,16.86,0,0,0,8.09,2.06h0a16.83,16.83,0,0,0,12-28.91Zm-12,26.06a14,14,0,0,1-7.17-2l-.51-.31-5.33,1.4,1.42-5.2-.33-.53a14.08,14.08,0,0,1,21.87-17.44,14,14,0,0,1-9.95,24Zm7.72-10.55c-.42-.21-2.51-1.23-2.9-1.37s-.67-.21-.95.22-1.09,1.37-1.34,1.66-.5.32-.92.1c-2.48-1.24-4.12-2.21-5.75-5-.44-.75.43-.69,1.24-2.31a.77.77,0,0,0,0-.74c-.11-.21-1-2.3-1.3-3.14s-.7-.71-1-.73h-.81a1.53,1.53,0,0,0-1.12.52,4.76,4.76,0,0,0-1.48,3.54,8.22,8.22,0,0,0,1.72,4.37c.21.29,3,4.56,7.23,6.39,2.68,1.16,3.74,1.26,5.08,1.07a4.36,4.36,0,0,0,2.85-2,3.63,3.63,0,0,0,.25-2C220.6,52.53,220.31,52.42,219.9,52.21Z"/></g></g></svg>