<svg xmlns="http://www.w3.org/2000/svg" xmlns:xlink="http://www.w3.org/1999/xlink" viewBox="0 0 86.51 87.97"><defs><style>.cls-1{fill:#ededed;}.cls-2{fill:#edf5f9;}.cls-3{fill:url(#linear-gradient);}.cls-4{fill:url(#linear-gradient-2);}.cls-5{fill:url(#linear-gradient-3);}.cls-6{fill:url(#linear-gradient-4);}.cls-7{fill:url(#linear-gradient-5);}.cls-8{fill:url(#linear-gradient-6);}.cls-9{fill:url(#linear-gradient-7);}.cls-10{fill:url(#linear-gradient-8);}</style><linearGradient id="linear-gradient" x1="11.23" y1="48.21" x2="48.79" y2="48.21" gradientUnits="userSpaceOnUse"><stop offset="0" stop-color="#00ffaf"/><stop offset="0.06" stop-color="#00edad"/><stop offset="0.32" stop-color="#00a6a7"/><stop offset="0.55" stop-color="#006ea2"/><stop offset="0.75" stop-color="#00469f"/><stop offset="0.91" stop-color="#002d9d"/><stop offset="1" stop-color="#00249c"/></linearGradient><linearGradient id="linear-gradient-2" x1="1" y1="69.66" x2="14.51" y2="69.66" xlink:href="#linear-gradient"/><linearGradient id="linear-gradient-3" x1="43.98" y1="36.64" x2="77.66" y2="36.64" xlink:href="#linear-gradient"/><linearGradient id="linear-gradient-4" x1="26.86" y1="25.64" x2="35.2" y2="25.64" xlink:href="#linear-gradient"/><linearGradient id="linear-gradient-5" x1="41.08" y1="51.24" x2="73.32" y2="51.24" xlink:href="#linear-gradient"/><linearGradient id="linear-gradient-6" x1="33.75" y1="35.91" x2="51.3" y2="35.91" xlink:href="#linear-gradient"/><linearGradient id="linear-gradient-7" x1="12.81" y1="92.04" x2="-1.07" y2="64.47" xlink:href="#linear-gradient"/><linearGradient id="linear-gradient-8" x1="47.53" y1="74.57" x2="33.65" y2="47" xlink:href="#linear-gradient"/></defs><g id="Layer_2" data-name="Layer 2"><g id="Layer_1-2" data-name="Layer 1"><path class="cls-1" d="M31.57,0a3.5,3.5,0,0,1,2.07,2.23A3,3,0,0,1,31.8,5.68a2.91,2.91,0,0,1-3.67-1.54A3,3,0,0,1,29.36.36C29.58.23,29.8.12,30,0Z"/><path class="cls-1" d="M72.46,0c1.07.86.92,2,.8,3.18A1.43,1.43,0,0,1,71.74,4.4,1.45,1.45,0,0,1,70.39,3c0-1.08-.26-2.24.87-3Z"/><path class="cls-2" d="M55.45,51.28a30.09,30.09,0,0,1,2.83,7.5c.32,1.89.5,3.81-.92,5.42a4.23,4.23,0,0,1-3,1.44l-2-.08-.18,0-2.88-.65v0a.62.62,0,0,0-.51-.2h0a43.4,43.4,0,0,1-5-2.39A73.28,73.28,0,0,1,19.07,38.23C16.84,34.72,15,31,14.75,26.73c0-.09-.11-.18-.18-.26.18-.63.32-1.27.55-1.88.88-2.29,3-2.7,5.21-2.57a19.63,19.63,0,0,1,7.16,2.19c1.42.67,2.76,1.48,4.11,2.26a30.69,30.69,0,0,1-2,7.44c-.81,2.14-1.71,4.24-2.59,6.36a1.47,1.47,0,0,0,.39,1.92c.84.67,1.87.26,2.37-.92a71.53,71.53,0,0,0,4.54-12.92,71.29,71.29,0,0,1,6.82,5.56c.2.19.37.42.56.64a7.23,7.23,0,0,1-1.22,1.19c-2,1.84-4.08,3.66-6.11,5.51a1.55,1.55,0,0,0-.27,2.26c.61.65,1.44.61,2.27-.13,1.17-1.05,2.33-2.11,3.5-3.15l4.18-3.67,4,4.47c-1,.51-2,1-3,1.53a1.7,1.7,0,0,0-.88.77A1.38,1.38,0,0,0,44.42,45a1.49,1.49,0,0,0,1.82.24l3.87-1.77c1.2,1.58,2.38,3.16,3.45,4.83a6.71,6.71,0,0,1-.76.13,77.16,77.16,0,0,0-10.26,1.41c-1,.16-1.58.84-1.44,1.67A1.53,1.53,0,0,0,43,52.71c1.89-.32,3.77-.67,5.66-1A41.19,41.19,0,0,1,55.45,51.28Z"/><path class="cls-3" d="M14.57,26.47c.07.08.18.17.18.26.24,4.28,2.09,8,4.32,11.5A73.28,73.28,0,0,0,43.78,62.29a43.4,43.4,0,0,0,5,2.39c-.34.22-.68-.08-1.07.07-4.54,1.76-9.09,3.47-13.63,5.2a24.8,24.8,0,0,1-5.34-3.06A42.64,42.64,0,0,1,11.27,41a2.41,2.41,0,0,1,.09-1.17q1.58-6.45,3.16-12.91A1.93,1.93,0,0,0,14.57,26.47Z"/><path class="cls-1" d="M82.28,78.45a12.09,12.09,0,0,1-.63,2.64,5.63,5.63,0,0,1-5.15,3.78,5.5,5.5,0,0,1-5.57-3.25,5.6,5.6,0,0,1,.87-6.47,8.53,8.53,0,0,1,4.4-2.82.77.77,0,0,0,.56-.3,18.05,18.05,0,0,0-5.28-4.14A19.53,19.53,0,0,0,65.92,66a1.47,1.47,0,0,1-1-2.44,1.61,1.61,0,0,1,1.65-.43,22,22,0,0,1,13.77,8.63,14.25,14.25,0,0,0,2.46,2.69,10.15,10.15,0,0,1,2.45,12.53c-.49.92-1.24,1.25-2,.88a1.47,1.47,0,0,1-.6-2.19,7.14,7.14,0,0,0,0-6.9C82.53,78.61,82.47,78.47,82.28,78.45Zm-3-.6a3.66,3.66,0,0,0-.13-1.19c-.35-1.45-1.09-1.87-2.53-1.41a5.37,5.37,0,0,0-2.9,2.16,2.92,2.92,0,1,0,5,2.93A5.78,5.78,0,0,0,79.32,77.85Z"/><path class="cls-4" d="M1,82.46c1-4.33,2.07-8.66,3.12-13q1.44-6,2.9-11.9c.06-.22.13-.43.22-.72a2.86,2.86,0,0,1,.33,1.79,33.9,33.9,0,0,0,6.94,18.68Z"/><path class="cls-5" d="M50.11,43.45l-3.87,1.77A1.49,1.49,0,0,1,44.42,45a1.38,1.38,0,0,1-.28-1.65,1.7,1.7,0,0,1,.88-.77c1-.5,2-1,3-1.53,1.58-.58,3.06-1.4,4.58-2.12Q64,33.54,75.33,28.12a1.57,1.57,0,0,1,1.77,0,1.44,1.44,0,0,1,.52,1.53c-.11.61-.58.88-1.08,1.12L62.15,37.65,50.54,43.17A2.87,2.87,0,0,0,50.11,43.45Z"/><path class="cls-6" d="M34.35,28.35a71.53,71.53,0,0,1-4.54,12.92c-.5,1.18-1.53,1.59-2.37.92a1.47,1.47,0,0,1-.39-1.92c.88-2.12,1.78-4.22,2.59-6.36a30.69,30.69,0,0,0,2-7.44,33.72,33.72,0,0,0,.64-8.33,39.82,39.82,0,0,0-.91-7.29c-.22-1.08.22-1.88,1.12-2.06s1.51.38,1.74,1.45a43.3,43.3,0,0,1,.21,17.6C34.37,28,34.37,28.18,34.35,28.35Z"/><path class="cls-7" d="M55.45,51.28a41.19,41.19,0,0,0-6.75.48c-1.89.28-3.77.63-5.66,1a1.53,1.53,0,0,1-1.94-1.22c-.14-.83.42-1.51,1.44-1.67A77.16,77.16,0,0,1,52.8,48.41a6.71,6.71,0,0,0,.76-.13,71.74,71.74,0,0,1,7.18.33,47.86,47.86,0,0,1,11.39,2.7,1.48,1.48,0,1,1-1,2.76,45.59,45.59,0,0,0-10-2.44A40.58,40.58,0,0,0,55.45,51.28Z"/><path class="cls-1" d="M11.77,15.34C10.45,14.65,9.2,14,8,13.35a1.12,1.12,0,0,0-1.25,0c-1.22.68-2.47,1.31-3.83,2a9.19,9.19,0,0,1,.41-2.76A3,3,0,0,0,2.15,8.82,19.48,19.48,0,0,1,0,6.8c1.5-.22,2.82-.45,4.16-.6a1.41,1.41,0,0,0,1.3-.9C6,4.06,6.66,2.85,7.35,1.47,8,2.85,8.67,4.08,9.24,5.34a1.32,1.32,0,0,0,1.24.85c1.33.15,2.65.37,4.21.6a14.46,14.46,0,0,1-1.86,1.78,3.32,3.32,0,0,0-1.42,4.25A6.93,6.93,0,0,1,11.77,15.34Z"/><path class="cls-8" d="M44.08,36.56,39.9,40.23c-1.17,1-2.33,2.1-3.5,3.15-.83.74-1.66.78-2.27.13a1.55,1.55,0,0,1,.27-2.26c2-1.85,4.07-3.67,6.11-5.51a7.23,7.23,0,0,0,1.22-1.19c1.64-1.24,3.07-2.73,4.63-4.07.78-.67,1.51-1.39,2.29-2.07a1.47,1.47,0,0,1,2.27,0c.6.68.48,1.5-.33,2.24Z"/><path class="cls-9" d="M1,82.46l13.51-5.14c.62.71,1.2,1.46,1.87,2.13.49.49.44.69-.22.94C11.41,82.16,6.66,84,1.92,85.75L0,86.48A36.9,36.9,0,0,1,1,82.46Z"/><path class="cls-1" d="M57.86,24.91c-1,0-2,0-3,0-.49,0-.64-.15-.64-.64,0-2,0-4.06,0-6.09,0-.55.2-.67.7-.66q3,0,6,0c.53,0,.69.16.68.68,0,2,0,4,0,6,0,.6-.22.72-.76.7C59.86,24.89,58.86,24.91,57.86,24.91Z"/><path class="cls-10" d="M34.09,70c4.54-1.73,9.09-3.44,13.63-5.2.39-.15.73.15,1.07-.07h0c.07.33.3.24.51.2v0a3.83,3.83,0,0,0,2.88.65l.19,0c.56.51,1.25.12,1.87.25-.32.42-.84.46-1.28.63-4.56,1.74-9.13,3.45-13.69,5.2a1.89,1.89,0,0,1-1.56,0A27.05,27.05,0,0,1,34.09,70Z"/><path class="cls-1" d="M79.19,54.25a2.87,2.87,0,0,1,2.89,3,2.92,2.92,0,0,1-5.84-.06A2.86,2.86,0,0,1,79.19,54.25Z"/><path class="cls-1" d="M44,13.22a2.78,2.78,0,0,1,2.88,2.94A2.83,2.83,0,0,1,44,19.06a3,3,0,0,1-3-2.93A2.93,2.93,0,0,1,44,13.22Z"/><path class="cls-1" d="M68.14,4.39h.6c1,.05,1.65.64,1.63,1.49a1.52,1.52,0,0,1-1.58,1.46,9.11,9.11,0,0,1-1.28,0A1.52,1.52,0,0,1,66,5.85,1.5,1.5,0,0,1,67.54,4.4C67.74,4.38,67.94,4.39,68.14,4.39Z"/><path class="cls-1" d="M75.49,4.39c1.48,0,2.18.47,2.19,1.45S77,7.35,75.45,7.35H75c-1.08,0-1.72-.61-1.71-1.51S73.93,4.43,75,4.39Z"/><path class="cls-1" d="M81.8,32a3.45,3.45,0,0,1,2.52,2.44,1.44,1.44,0,0,1-2.22,1.28,5.63,5.63,0,0,1-1.5-1.5,1.3,1.3,0,0,1,0-1.46A1.51,1.51,0,0,1,81.8,32Z"/><path class="cls-1" d="M72.34,22.69A3.33,3.33,0,0,1,75,25.16a1.43,1.43,0,0,1-.83,1.3,1.26,1.26,0,0,1-1.46-.09A10.74,10.74,0,0,1,71.34,25a1.34,1.34,0,0,1-.09-1.53A1.36,1.36,0,0,1,72.34,22.69Z"/><path class="cls-1" d="M84.32,24.13a3.36,3.36,0,0,1-2.48,2.5,1.44,1.44,0,0,1-1.27-2.13,4.42,4.42,0,0,1,1.61-1.63A1.44,1.44,0,0,1,84.32,24.13Z"/><path class="cls-1" d="M70.39,9.54c0-.28,0-.57,0-.85a1.45,1.45,0,0,1,2.87-.16,8.56,8.56,0,0,1,0,2,1.45,1.45,0,0,1-2.88-.18c0-.25,0-.51,0-.77Z"/><path class="cls-1" d="M84.33,30.76c-.28,0-.57,0-.85,0a1.42,1.42,0,0,1-1.39-1.36,1.49,1.49,0,0,1,1.31-1.54,9.76,9.76,0,0,1,1.53,0,1.54,1.54,0,0,1,1.58,1.47,1.52,1.52,0,0,1-1.58,1.45Z"/><path class="cls-1" d="M79.18,22.77a5.77,5.77,0,0,1-.08,1,1.45,1.45,0,0,1-2.86-.31c0-.48,0-1,0-1.46a1.46,1.46,0,1,1,2.92,0c0,.26,0,.52,0,.77Z"/><path class="cls-1" d="M76.24,35.86c0-1.42.51-2.18,1.48-2.16s1.44.76,1.44,2.21c0,.26,0,.51,0,.77a1.54,1.54,0,0,1-1.45,1.44,1.52,1.52,0,0,1-1.47-1.49C76.23,36.38,76.24,36.12,76.24,35.86Z"/></g></g></svg>