<svg xmlns="http://www.w3.org/2000/svg" xmlns:xlink="http://www.w3.org/1999/xlink" viewBox="0 0 467.91 427.4"><defs><style>.cls-1{fill:#fff;}.cls-2{fill:#263238;}.cls-3{fill:#cc8f7f;}.cls-4{fill:url(#linear-gradient);}.cls-5{opacity:0.3;}.cls-6{fill:#6f4439;}.cls-7{fill:#af3a23;}.cls-8{fill:url(#linear-gradient-2);}.cls-9{fill:url(#linear-gradient-3);}.cls-10{fill:url(#linear-gradient-4);}</style><linearGradient id="linear-gradient" x1="60.74" y1="369.25" x2="467.91" y2="369.25" gradientUnits="userSpaceOnUse"><stop offset="0" stop-color="#00ffaf"/><stop offset="0.06" stop-color="#00edad"/><stop offset="0.32" stop-color="#00a6a7"/><stop offset="0.55" stop-color="#006ea2"/><stop offset="0.75" stop-color="#00469f"/><stop offset="0.91" stop-color="#002d9d"/><stop offset="1" stop-color="#00249c"/></linearGradient><linearGradient id="linear-gradient-2" x1="297.63" y1="194.26" x2="353.67" y2="279.63" xlink:href="#linear-gradient"/><linearGradient id="linear-gradient-3" x1="225.93" y1="32.94" x2="389.76" y2="209.71" xlink:href="#linear-gradient"/><linearGradient id="linear-gradient-4" x1="25.84" y1="52.45" x2="88.86" y2="52.45" xlink:href="#linear-gradient"/></defs><g id="Layer_2" data-name="Layer 2"><g id="Layer_1-2" data-name="Layer 1"><circle class="cls-1" cx="57.61" cy="57.47" r="57.07"/><path class="cls-2" d="M114.68,57.48a5.9,5.9,0,0,1-.11-.93c0-.66-.1-1.56-.19-2.71,0-.6-.08-1.26-.13-2s-.24-1.52-.37-2.38a41.84,41.84,0,0,0-1.2-5.87,54.58,54.58,0,0,0-6.34-15.11,56.64,56.64,0,0,0-68-24.1A58.27,58.27,0,0,0,31,7.64,56.39,56.39,0,0,0,24,12.14a62.65,62.65,0,0,0-6.4,5.45,65.24,65.24,0,0,0-5.54,6.55A54.82,54.82,0,0,0,4,39.71,56,56,0,0,0,4,75.38,55,55,0,0,0,12.08,91a65.24,65.24,0,0,0,5.54,6.55A66.7,66.7,0,0,0,24,103a59.65,59.65,0,0,0,6.94,4.5,58.21,58.21,0,0,0,7.37,3.24,56.58,56.58,0,0,0,68-24.13,54.62,54.62,0,0,0,6.33-15.1,42.14,42.14,0,0,0,1.21-5.89c.13-.85.29-1.64.37-2.37s.09-1.4.12-2c.09-1.12.15-2,.2-2.7a4.72,4.72,0,0,1,.11-.92,7.06,7.06,0,0,1,0,.92c0,.67,0,1.57-.09,2.72,0,.6,0,1.27-.07,2s-.2,1.54-.32,2.41a41.31,41.31,0,0,1-1.12,5.93,54.09,54.09,0,0,1-6.23,15.32A57.35,57.35,0,0,1,38,111.57a59.05,59.05,0,0,1-7.52-3.29,63,63,0,0,1-7.07-4.5,66.57,66.57,0,0,1-6.54-5.55,66.52,66.52,0,0,1-5.63-6.68A55.93,55.93,0,0,1,3,75.68,57.16,57.16,0,0,1,3,39.31a55.63,55.63,0,0,1,8.26-15.88,64,64,0,0,1,5.63-6.67,63.2,63.2,0,0,1,6.56-5.56,59.07,59.07,0,0,1,7.06-4.51,57.45,57.45,0,0,1,76.4,21.53,54.36,54.36,0,0,1,6.22,15.32,41.47,41.47,0,0,1,1.13,5.94c.11.87.25,1.66.31,2.4s0,1.4.07,2c0,1.13.07,2,.09,2.72A8.68,8.68,0,0,1,114.68,57.48Z"/><path class="cls-1" d="M124.56,104.21a8,8,0,1,1-8-8h0a8,8,0,0,1,8,8Z"/><path class="cls-2" d="M124.56,104.21c-.1,0-.1-.71-.46-1.9a8,8,0,0,0-2.93-4.13,7.64,7.64,0,0,0-7.12-1,7.48,7.48,0,0,0,0,14,7.62,7.62,0,0,0,7.12-1,8,8,0,0,0,2.93-4.13c.36-1.13.36-1.89.46-1.89a3.77,3.77,0,0,1,0,2,7.89,7.89,0,0,1-2.87,4.65,8.36,8.36,0,0,1-8,1.33,8.47,8.47,0,0,1,0-16,8.33,8.33,0,0,1,8,1.33,7.89,7.89,0,0,1,2.87,4.65A3.81,3.81,0,0,1,124.56,104.21Z"/><path class="cls-3" d="M336,317.17c-2.52-1.63-36.14-8.62-36.14-8.62l-81.06,2.12-29,5.34s-5.38,90.06-4.58,91.72,60.56.64,62.15,2.25,56.77,7.55,56.77,7.55l51.08-91.64Z"/><path class="cls-4" d="M412.54,340.09c-18.41-15.62-91.19-28.84-95.26-28.84,0,0-5.63,45.35-56.29,45.35-43.08,0-53.37-43.91-53.37-43.91l-31.45,4.94c-4.84.93-47.86,11-54.92,13-14.69,4.16-44.79,14.82-53.51,46.64-3.22,11.77-3.13,33-7,49.88h76.62s247.36.21,247.38,0l83.17.06S432.06,356.65,412.54,340.09Z"/><path class="cls-2" d="M128.3,427.36c-.16,0-3.38-8.39-7.27-18.84s-6.88-19-6.76-19,3.38,8.37,7.28,18.84S128.45,427.3,128.3,427.36Z"/><g class="cls-5"><path d="M228.85,427.4c3.47-14.87,7.34-29.61,8.35-45.89a27.92,27.92,0,0,1,1.27-8.21c2-5.33,7.68-9.29,7.88-15,.13-6-6.76-10.44-12.59-9.31s-10.27,6.35-12.26,12-2,11.74-2.25,17.72c-.63,15.17-11.62,33.91-15.07,48.69"/></g><path class="cls-2" d="M207.81,51.85c-26,6.28-50.39,31.42-61.3,55.39S135,153.91,138.34,180c2,15.76,6.44,31.82,9.31,46.85,3,15.65-4.5,37.55-13,51.09-3.24,5.11-7.57,10.63-6,16.45,1.43,5.4,7.36,8.31,12.84,9.74a60.29,60.29,0,0,0,34.31-1.2q-.72,5.78-1.46,11.57c29.6-.6,58.1-10.37,86-20,9.35-3.23,19.14-6.75,25.7-14,3.61-4,6-8.93,8.3-13.79a608.83,608.83,0,0,0,24.37-60.13"/><path class="cls-2" d="M340.87,87.51c-22.51-27.46-52.64-43.26-88.11-43.85-20-.33-28.29,3.83-42.71,7.71S182.64,63,174,75.21c-10.21,14.48-18.79,30.72-20.73,48.4-2,18.1-4,36.33-2.6,54.5s6.31,36.45,17,51.19l46.16,8c25.52.86,51.39,1.7,76.25-4.13s49-19.2,62.35-41C371,161.9,363.31,115,340.87,87.51Z"/><path class="cls-3" d="M299.72,87.21l-61.6-24.49L222,64.59c-36.22.14-61.2,40.07-61.43,69.4-.26,32.58.71,72.38,5.87,96.4,10.42,48.29,51.64,52.31,51.64,52.31s-.84,25.74-1.13,42l94.33-6.81L316,103.75A17.16,17.16,0,0,0,299.72,87.21Z"/><path class="cls-2" d="M184.91,173.56a6.25,6.25,0,0,0,6.38,6,6,6,0,0,0,6.12-5.83v-.16a6.25,6.25,0,0,0-6.36-6,6,6,0,0,0-6.13,5.84A.76.76,0,0,0,184.91,173.56Z"/><path class="cls-2" d="M170.89,157.88c.82.74,5.5-2.81,12.38-3.08s12.08,2.73,12.79,1.91c.35-.36-.53-1.73-2.79-3.14a18.45,18.45,0,0,0-10.29-2.5,17.49,17.49,0,0,0-9.82,3.38C171.07,156.1,170.41,157.54,170.89,157.88Z"/><path class="cls-2" d="M214.79,203c0-.38-4.21-.88-11-1.37-1.73-.08-3.38-.33-3.73-1.49s.15-3.11.87-5.15l4.36-13.36c6-19,10.29-34.58,9.52-34.81s-6.27,15-12.3,34q-2.16,7-4.15,13.42c-.54,2-1.54,4.25-.51,6.75a4.31,4.31,0,0,0,3,2.36,11.53,11.53,0,0,0,2.93.24C210.6,203.64,214.79,203.39,214.79,203Z"/><path class="cls-6" d="M218,282.65s32.9.31,64.29-21c0,0-15.52,34.73-64.54,32.85Z"/><path class="cls-2" d="M172.55,139.77c1.22,1.57,6.31.2,12.39.37,6,0,11.11,1.47,12.38-.08.55-.75-.19-2.32-2.36-3.85A19.15,19.15,0,0,0,175,136C172.78,137.45,172,139,172.55,139.77Z"/><path class="cls-2" d="M262.78,172.12a6.26,6.26,0,0,1-5.92,6.42,6,6,0,0,1-6.54-5.38s0-.1,0-.15a6.26,6.26,0,0,1,5.92-6.42,6,6,0,0,1,6.54,5.36C262.77,172,262.78,172.07,262.78,172.12Z"/><path class="cls-2" d="M266.37,154.85c-.8,1-6.19-2.62-13.56-2.25s-12.58,4.41-13.43,3.55c-.42-.39.37-2.05,2.62-3.9a18.83,18.83,0,0,1,10.69-3.95,18.07,18.07,0,0,1,10.87,2.88C265.92,152.85,266.78,154.42,266.37,154.85Z"/><path class="cls-2" d="M256.36,131.25c-1.29,1.55-6.51.05-12.76.09-6.25-.16-11.52,1.22-12.77-.35-.55-.77.26-2.32,2.55-3.81a19.3,19.3,0,0,1,10.33-2.68,18.87,18.87,0,0,1,10.23,2.9C256.18,128.93,256.94,130.47,256.36,131.25Z"/><path class="cls-2" d="M362.09,119.64c-21.78-44.33-54.46-73.88-112.86-76l46.34,112.92c21.8,31.65,21.79,70,10.28,106.69-3.22,10.27-7.56,22.14-1.53,31.05s20,9.14,29.09,3.31c8.23-5.28,13.44-13.95,18.09-22.64a7.43,7.43,0,0,0,4.27,7.88c4,1.62,8.81-.34,11.69-3.6s4.23-7.58,5.32-11.79c3.82-14.79,5.42-30.07,6.16-45.33C380.6,187.16,377.51,151.06,362.09,119.64Z"/><path class="cls-3" d="M307.64,185.63c-.19-3.64,3.54-12.38,7.08-13.17,9.49-2,26.78-2.25,28.27,22.1C345,227.76,311.28,223,311.15,222,311.06,221.27,308.29,198.16,307.64,185.63Z"/><path class="cls-6" d="M319.57,209.27c.14-.11.61.37,1.61.75a5.82,5.82,0,0,0,4.34-.16c3.38-1.51,6-7.27,5.83-13.25a19.16,19.16,0,0,0-2.13-8.19c-1.12-2.36-2.85-4-4.62-4.17a3,3,0,0,0-3.38,1.8c-.38.95-.14,1.6-.31,1.66s-.75-.5-.56-1.89a3.59,3.59,0,0,1,1.13-2.17,4.47,4.47,0,0,1,3.15-1c2.57,0,5,2.25,6.36,4.78a20,20,0,0,1,2.58,9.14c.19,6.7-2.85,13.17-7.57,14.86a6.21,6.21,0,0,1-5.34-.57C319.69,210.11,319.48,209.38,319.57,209.27Z"/><path class="cls-2" d="M316.11,172.55l-8.46,10.13C228.07,134.67,200,59.14,204,64.35c0,0,25-10.26,52-5.62s78.47,18.16,77.68,50.11S316.11,172.55,316.11,172.55Z"/><path class="cls-7" d="M209.85,218.65c-1.13.5-1.66,4.16-1.31,5.63a4.18,4.18,0,0,0,2.47,2.89,6.26,6.26,0,0,0,3.38.13,37.47,37.47,0,0,0,8.06-2.51c2.74-1.12,6.63-3.7,9.31-5.1-4.32-2.18-9.87-3.08-14.45-3.61a6.89,6.89,0,0,0-4.74.82"/><path class="cls-7" d="M210.94,218.38a3.2,3.2,0,0,1-1.23-3.76,5,5,0,0,1,3-2.86,12.34,12.34,0,0,1,4.22-.62c3.38,0,5.86,1,9,2.25a20.23,20.23,0,0,1,8.17,5.92c-7.88-.66-15.08-2.37-23.15-.91"/><path class="cls-2" d="M209.22,226.16c-.07.06-.6-.23-1.13-1.13a5.72,5.72,0,0,1-.05-4.5,7.22,7.22,0,0,1,5-4.09,20.52,20.52,0,0,1,7.69-.3A69.8,69.8,0,0,1,234.1,219c3.37,1.05,5.3,1.89,5.23,2.12s-2.17-.18-5.55-.91a120.15,120.15,0,0,0-13.18-2.26,21.69,21.69,0,0,0-7.1.12,6.23,6.23,0,0,0-4.32,3,5.63,5.63,0,0,0-.4,3.66C209,225.57,209.32,226,209.22,226.16Z"/><path class="cls-6" d="M237.23,242.7c-.15.14-1.28-1.22-3.57-2.75a18.39,18.39,0,0,0-20.2-.46c-2.36,1.44-3.54,2.74-3.69,2.6s.88-1.6,3.23-3.29a17.66,17.66,0,0,1,21.14.47C236.43,241.06,237.31,242.64,237.23,242.7Z"/><circle class="cls-8" cx="319.33" cy="227.32" r="11.7"/><path class="cls-9" d="M207,51.85c-.63,1.79,30.21-4.64,43.28,3.28s23.2,19.85,32,32.32c17.78,25.19,32.18,54.31,33.77,85.1,3.47-1.42,13-.81,17.64,2.15,0,0,16.35-99.51-81-131C252.73,43.66,212.71,35.6,207,51.85Z"/><path class="cls-2" d="M215.4,45.58a9.74,9.74,0,0,1,1.81-.64,36.88,36.88,0,0,1,5.38-1.27c1.2-.12,2.51-.4,4-.42l2.25-.13h2.46a59.46,59.46,0,0,1,11.49,1.62A83.36,83.36,0,0,1,270,57.42a121.9,121.9,0,0,1,27,25.17,127.1,127.1,0,0,1,18.51,31.84c1,2.66,2,5.23,2.85,7.79s1.51,5.06,2.25,7.48l1.62,7.13c.5,2.25.75,4.5,1.12,6.63.15,1.13.36,2.09.45,3.11s.18,2,.27,3c.15,1.92.36,3.74.43,5.44,0,3.37.17,6.33.06,8.72s-.27,4.22-.36,5.51a11.15,11.15,0,0,1-.2,1.91,12.44,12.44,0,0,1,0-1.93c0-1.29.07-3.14.13-5.5s-.17-5.3-.26-8.68c-.1-1.69-.34-3.49-.52-5.4-.1-1-.2-1.94-.3-2.94s-.33-2-.5-3.09c-.38-2.09-.66-4.31-1.18-6.57s-1.12-4.62-1.68-7-1.49-4.87-2.25-7.43-1.89-5.06-2.87-7.7a128.53,128.53,0,0,0-18.41-31.52,123.5,123.5,0,0,0-26.57-25,83.93,83.93,0,0,0-26.83-12.76,59.6,59.6,0,0,0-11.26-1.77l-2.61,0-2.25.06c-1.45,0-2.76.24-3.94.33a44.8,44.8,0,0,0-5.38,1A15,15,0,0,1,215.4,45.58Z"/><path class="cls-3" d="M215.77,427s8.66-33.66,12.11-47.5a25.84,25.84,0,0,0,.48-10.06l-.92-6.05c3.54-.62,5-1.3,8.27-4.06h0a5.55,5.55,0,0,0,5.73-3.15c1.39-2.73,3.14-7.34,4.83-11.64,3.08-7.88,4.16-18.83,4.16-18.83s5.3-9.89,5-14.09-3.29-11.08-3.29-11.08.76-6.75-.5-9.51c-1.93-4.27-6.86-6.51-12-5.08-4.37,1.22-25.79,5.54-25.79,5.54l-4-4.16-1-14.93,12.11-4.19s7.88,3.47,13.63,1.29a10.89,10.89,0,0,0,5.1-3.72,2.77,2.77,0,0,0-.68-3.86l-.37-.22c-5-2.49-16.61-8.09-20.35-8.45-4.82-.47-23.44,8.49-24.94,11.26-.31.56-2.6,33.44-2.6,33.44a20.2,20.2,0,0,0-5,12.6c0,7.32-1.86,61.92-1.86,61.92L156.48,427"/><path class="cls-6" d="M156.48,427s.13-.32.45-.95l1.37-2.81c1.24-2.47,3-6.11,5.37-10.8l20-40.06v.08c.3-10.49.64-22.17,1-34.9q.27-9.51.58-19.76c0-1.7.1-3.38.15-5.16a34.5,34.5,0,0,1,.37-5.27,21,21,0,0,1,4.73-9.66l-.07.17q.79-11,1.65-22.76c.14-1.95.3-3.91.46-5.88.09-1,.17-2,.26-3,.06-.51.09-1,.17-1.52a2.33,2.33,0,0,1,.1-.44l.26-.32a2.8,2.8,0,0,1,.56-.58,33.59,33.59,0,0,1,5.12-3.3c1.78-1,3.62-1.88,5.47-2.75a58.78,58.78,0,0,1,11.7-4.14,7,7,0,0,1,3.22,0,26.81,26.81,0,0,1,3,1c2,.73,4,1.55,5.9,2.41s3.88,1.77,5.82,2.69l2.9,1.41,1.44.71a3.14,3.14,0,0,1,1.35,1.12,3,3,0,0,1,.08,3.38,9.84,9.84,0,0,1-2.35,2.38,13,13,0,0,1-3,1.56,12.64,12.64,0,0,1-3.27.7,19.81,19.81,0,0,1-5.43-.42,29.06,29.06,0,0,1-5.17-1.56H221l-12.09,4.18.23-.38q.53,7.54,1,14.93l-.08-.18,4,4.16-.25-.07c8.57-1.77,17-3.38,25.13-5.37a12.36,12.36,0,0,1,6.3-.32,10,10,0,0,1,5.3,3.25,8.73,8.73,0,0,1,1.56,2.73,13.58,13.58,0,0,1,.49,3,40.34,40.34,0,0,1-.18,6v-.13a64.07,64.07,0,0,1,2.33,6.48,29.16,29.16,0,0,1,.8,3.32,8.74,8.74,0,0,1,0,3.38,34.77,34.77,0,0,1-2.07,6.31c-.86,2-1.79,3.95-2.79,5.86v-.09a94.52,94.52,0,0,1-2.31,12.92,92,92,0,0,1-4.16,11.74c-.75,1.87-1.51,3.72-2.37,5.48a7.13,7.13,0,0,1-1.78,2.39,5.44,5.44,0,0,1-2.67,1.24,6.1,6.1,0,0,1-1.48.06h0l-.06.05-.27.23-.56.45a20.06,20.06,0,0,1-2.25,1.62,14.12,14.12,0,0,1-5.16,1.72l.15-.22c.36,2.51.78,4.93,1.13,7.35a25.94,25.94,0,0,1-.27,7c-.44,2.26-1.13,4.37-1.59,6.47l-1.54,6c-2,7.77-3.72,14.44-5.12,19.89l-3.25,12.51c-.38,1.42-.66,2.5-.85,3.24S216,427,216,427s.08-.38.26-1.12l.8-3.25L220.18,410c1.38-5.46,3.07-12.13,5-19.9l1.54-6c.49-2.08,1.12-4.22,1.55-6.44a25.77,25.77,0,0,0,.25-7c-.3-2.37-.72-4.82-1.13-7.33v-.19h.19a13.81,13.81,0,0,0,5-1.69,19.65,19.65,0,0,0,2.26-1.6l.52-.43.27-.23h.07l.18-.06h.2a4.76,4.76,0,0,0,1.36-.05,5.56,5.56,0,0,0,4.13-3.38c.85-1.74,1.6-3.58,2.34-5.45a89.43,89.43,0,0,0,4.12-11.68,97.07,97.07,0,0,0,2.25-12.87h0c1-1.88,1.91-3.83,2.76-5.82a32.86,32.86,0,0,0,2-6.2,8.88,8.88,0,0,0,0-3.25,33.43,33.43,0,0,0-.79-3.25,61.63,61.63,0,0,0-2.32-6.43v-.33a38,38,0,0,0,.17-5.94,12.52,12.52,0,0,0-.46-2.91,8.57,8.57,0,0,0-1.46-2.54,9.46,9.46,0,0,0-5-3.06,11.61,11.61,0,0,0-6,.33c-8.16,2-16.57,3.61-25.16,5.38h-.16l-.11-.11-4-4.18-.06-.07v-.11q-.51-7.38-1-14.92v-.22l.22-.07,12.09-4.2h.21a24,24,0,0,0,10.31,1.94,11.84,11.84,0,0,0,3.11-.67,12.37,12.37,0,0,0,2.81-1.48,9.08,9.08,0,0,0,2.25-2.25,2.44,2.44,0,0,0-.05-2.74,2.57,2.57,0,0,0-1.13-.9l-1.44-.72-3.16-1.28c-1.93-.93-3.86-1.83-5.8-2.68s-3.88-1.69-5.85-2.41-4-1.48-6-1a58.16,58.16,0,0,0-11.57,4.18c-1.85.88-3.68,1.75-5.45,2.73a32.17,32.17,0,0,0-5,3.23,2.32,2.32,0,0,0-.5.49l-.21.26a1.4,1.4,0,0,0,0,.29c-.06.44-.11,1-.16,1.45-.09,1-.18,2-.26,3-.15,2-.31,3.93-.47,5.88-.57,7.79-1.12,15.39-1.66,22.75V298l-.07.08a20.27,20.27,0,0,0-4.62,9.38,34.39,34.39,0,0,0-.37,5.17c0,1.74-.1,3.46-.16,5.16q-.3,10.26-.6,19.78c-.4,12.69-.77,24.37-1.13,34.9h0c-8.57,17-15.43,30.58-20.18,40-2.37,4.69-4.22,8.3-5.46,10.76-.62,1.22-1.13,2.15-1.43,2.79S156.48,427,156.48,427Z"/><path class="cls-6" d="M227.25,363.38a17.29,17.29,0,0,0,3.84-1.2,13.52,13.52,0,0,0,3.78-2.76,36,36,0,0,0,3.92-4.88c2.71-3.79,4.81-9,6.87-14.77a30.16,30.16,0,0,0,2.25-9.29,10.61,10.61,0,0,0-1-4.84,10.28,10.28,0,0,0-3.38-3.82,20.42,20.42,0,0,0-9.63-3.17c-3.31-.36-6.58-.43-9.65-1a37.58,37.58,0,0,1-8.3-2.93,24.22,24.22,0,0,0-7.21-2.16,11.51,11.51,0,0,0-3.26.16,16.17,16.17,0,0,0-2.78.92,19.71,19.71,0,0,0-4.07,2.36,7.24,7.24,0,0,0-2,2.17,3,3,0,0,0-.3.71.41.41,0,0,1-.08.26,1.22,1.22,0,0,1,0-.27,2.5,2.5,0,0,1,.24-.76,6.94,6.94,0,0,1,2-2.25,18.68,18.68,0,0,1,4.09-2.46,15.9,15.9,0,0,1,2.83-1,11.62,11.62,0,0,1,3.38-.19,23.9,23.9,0,0,1,7.37,2.12,37.33,37.33,0,0,0,8.21,2.85c3,.57,6.26.63,9.61,1a20.82,20.82,0,0,1,9.91,3.26,10.51,10.51,0,0,1,3.52,4.05,11.05,11.05,0,0,1,1,5.09,30.55,30.55,0,0,1-2.25,9.47c-2.08,5.8-4.25,11-7,14.83a35.38,35.38,0,0,1-4,4.87,13.56,13.56,0,0,1-3.93,2.74,13.14,13.14,0,0,1-2.88.88l-.79.1A.9.9,0,0,1,227.25,363.38Z"/><path class="cls-6" d="M227.85,366.18a33.33,33.33,0,0,1-1.07-3.79c-.62-2.34-1.55-5.56-2.76-9s-2.41-6.62-3.29-8.9a25.52,25.52,0,0,1-1.31-3.71,27,27,0,0,1,1.7,3.56c1,2.25,2.25,5.33,3.46,8.86a90.11,90.11,0,0,1,2.61,9.15c.25,1.19.45,2.16.55,2.82A3.82,3.82,0,0,1,227.85,366.18Z"/><path class="cls-6" d="M218.45,340.91a1.19,1.19,0,0,0,.53,0,1.9,1.9,0,0,0,1-1.12,10.68,10.68,0,0,0,.9-2.25,5.42,5.42,0,0,0,0-3l-.16-.5.49.19a85.9,85.9,0,0,0,8.9,2.81l1,.27.46.12-.32.36a5.7,5.7,0,0,0-1.25,5.4l.06.23-.21.1a10.59,10.59,0,0,0-5,4.89,25.29,25.29,0,0,0-1,2.6,2.73,2.73,0,0,1,.07-.75,8.83,8.83,0,0,1,.62-2,10.51,10.51,0,0,1,5-5.23l-.13.31a6.18,6.18,0,0,1,1.33-6l.13.48-1-.27a69.9,69.9,0,0,1-8.92-2.92l.32-.29a5.71,5.71,0,0,1-.07,3.3,9.35,9.35,0,0,1-1,2.25,2,2,0,0,1-1.18,1.13C218.62,341.08,218.44,341,218.45,340.91Z"/><path class="cls-6" d="M192.63,307.82a3.59,3.59,0,0,1,.52-.58,9.41,9.41,0,0,1,1.82-1.3,18.74,18.74,0,0,1,7.88-2c6.91-.35,16.42-.55,27-.86,2.63,0,5.19-.17,7.7-.15a15.27,15.27,0,0,1,7.06,1.53,11.44,11.44,0,0,1,4.5,4.72,16.2,16.2,0,0,1,1.72,5.42,31.27,31.27,0,0,1-.18,8.2c-.12,1-.25,1.69-.32,2.19a6.57,6.57,0,0,1-.16.77,3.39,3.39,0,0,1,0-.78c.07-.57.13-1.3.22-2.25a33.26,33.26,0,0,0,0-8.1,15.81,15.81,0,0,0-1.73-5.26,11,11,0,0,0-4.36-4.5,14.73,14.73,0,0,0-6.75-1.43c-2.47,0-5,.11-7.68.16-10.51.31-20.07.46-27,.69a19.19,19.19,0,0,0-7.88,1.8A14.09,14.09,0,0,0,192.63,307.82Z"/><path class="cls-6" d="M233.71,287.26a4.34,4.34,0,0,1,1-.16,12.64,12.64,0,0,1,2.75,0,15.91,15.91,0,0,1,8.23,3.75,22.59,22.59,0,0,1,5.55,7.18c.25.47.46.94.66,1.42a11.83,11.83,0,0,1,.42,1.13,3.3,3.3,0,0,1,.26,1c-.1,0-.58-1.32-1.7-3.32a25,25,0,0,0-5.56-6.93,16.67,16.67,0,0,0-7.88-3.79C235.17,287.19,233.73,287.4,233.71,287.26Z"/><path class="cls-6" d="M190.72,297.83a6.62,6.62,0,0,1,.76-.73,15.16,15.16,0,0,1,2.35-1.63,20.56,20.56,0,0,1,3.91-1.7,36.55,36.55,0,0,1,5.08-1.13c3.65-.53,7-.77,9.31-1.12A38.5,38.5,0,0,1,216,291a3.4,3.4,0,0,1-1,.33c-.65.19-1.59.4-2.79.63-2.36.45-5.63.78-9.3,1.31a39.15,39.15,0,0,0-5,1.06,22.51,22.51,0,0,0-3.86,1.54C191.93,296.94,190.79,297.92,190.72,297.83Z"/><path class="cls-10" d="M79.42,30.1A31.22,31.22,0,0,0,26.11,52.17a31.31,31.31,0,0,0,4.17,15.62L25.84,84,42.4,79.61a31.13,31.13,0,0,0,14.92,3.8h0c17.2,0,31.52-14,31.52-31.22A31.33,31.33,0,0,0,79.42,30.1ZM57.34,78.15a25.92,25.92,0,0,1-13.22-3.61L43.17,74l-9.81,2.58L36,67l-.62-1A26,26,0,1,1,83.59,52.19,26.24,26.24,0,0,1,57.34,78.15ZM71.57,58.71c-.77-.39-4.61-2.28-5.33-2.53s-1.23-.39-1.76.39-2,2.54-2.47,3.07-.92.59-1.69.2c-4.58-2.3-7.59-4.1-10.62-9.29-.8-1.37.8-1.28,2.29-4.26a1.41,1.41,0,0,0-.07-1.36c-.19-.4-1.76-4.24-2.4-5.8s-1.28-1.31-1.76-1.33-1,0-1.49,0a2.85,2.85,0,0,0-2.08,1,8.75,8.75,0,0,0-2.73,6.51c0,3.84,2.8,7.55,3.18,8.07s5.5,8.4,13.33,11.79c5,2.14,6.89,2.32,9.37,2,1.51-.23,4.61-1.89,5.26-3.72a6.46,6.46,0,0,0,.45-3.71C72.87,59.29,72.35,59.09,71.57,58.71Z"/></g></g></svg>