<svg xmlns="http://www.w3.org/2000/svg" xmlns:xlink="http://www.w3.org/1999/xlink" viewBox="0 0 49.41 49.4"><defs><style>.cls-1{fill:url(#linear-gradient);}.cls-2{fill:url(#linear-gradient-2);}.cls-3{fill:url(#linear-gradient-3);}.cls-4{fill:url(#linear-gradient-4);}.cls-5{fill:#edf5f9;}.cls-6{fill:#fff;}.cls-7{fill:#ededed;}.cls-8{fill:#fdd744;}</style><linearGradient id="linear-gradient" x1="42.46" y1="35.91" x2="24.97" y2="36.8" gradientUnits="userSpaceOnUse"><stop offset="0" stop-color="#00ffaf"/><stop offset="0.06" stop-color="#00edad"/><stop offset="0.32" stop-color="#00a6a7"/><stop offset="0.55" stop-color="#006ea2"/><stop offset="0.75" stop-color="#00469f"/><stop offset="0.91" stop-color="#002d9d"/><stop offset="1" stop-color="#00249c"/></linearGradient><linearGradient id="linear-gradient-2" x1="8.76" y1="36.31" x2="24.71" y2="36.31" xlink:href="#linear-gradient"/><linearGradient id="linear-gradient-3" x1="0" y1="18.91" x2="24.71" y2="18.91" xlink:href="#linear-gradient"/><linearGradient id="linear-gradient-4" x1="35.76" y1="5.93" x2="25.09" y2="14.72" xlink:href="#linear-gradient"/></defs><g id="Layer_2" data-name="Layer 2"><g id="Layer_1-2" data-name="Layer 1"><path class="cls-1" d="M29.05,23.25l8.73,0c.43,0,.87,0,1.3,0a1.44,1.44,0,0,1,1.55,1.57v1.49c0,7.09,0,14.18,0,21.27a1.75,1.75,0,0,1-1.07,1.84H24.71q0-5.44,0-10.89a18.11,18.11,0,0,1,1.73,1.66,1.48,1.48,0,0,0,2.62-1.1Z"/><path class="cls-2" d="M24.7,38.51V49.4h-15a1.82,1.82,0,0,1-1-1.62c0-6.09,0-12.18,0-18.27a.62.62,0,0,1,.3-.23l6.78-3.92c1.25-.71,2.47-1.49,3.76-2.13l.74,0q0,7.95,0,15.91a1.4,1.4,0,0,0,.93,1.43,1.35,1.35,0,0,0,1.57-.39c.61-.59,1.23-1.17,1.85-1.75A.11.11,0,0,1,24.7,38.51Z"/><path class="cls-3" d="M19.61,23.23c-1.29.64-2.51,1.42-3.76,2.13L9.07,29.28a.62.62,0,0,0-.3.23,12.82,12.82,0,0,0-1.85,1c-1.16.65-1.82.48-2.5-.67Q2.22,26.12,0,22.38V21.7a2.22,2.22,0,0,1,1.15-1.22c1.23-.68,2.44-1.4,3.66-2.11.14-.08.33-.13.4-.31.3,0,.5-.21.73-.34C7,17.1,8,16.6,9,15.9c1.58-.78,3.07-1.73,4.6-2.6a.65.65,0,0,0,.16-.17.92.92,0,0,0,.48-.19L18,10.77C19.54,9.86,21.16,9,22.67,8a.09.09,0,0,0,.11-.08h0c.21,0,.35-.1.52-.2l1.39-.79c0,.23,0,.45,0,.68q0,6.32,0,12.64-2.3,1.32-4.58,2.65C20,23,19.78,23.12,19.61,23.23Z"/><path class="cls-4" d="M24.71,20.24q0-6.33,0-12.64c0-.23,0-.45,0-.68a.19.19,0,0,0,0-.07l1.82-1L30.7,3.4A1.49,1.49,0,0,1,33,4q2.06,3.54,4.09,7.08a1.51,1.51,0,0,1-.64,2.38L25.05,20.07Z"/><path class="cls-5" d="M24.71,6.85a.19.19,0,0,1,0,.07l-1.39.79c-.17.1-.31.23-.52.2.07-.11.13-.22.2-.32a3,3,0,0,0,0-3.51A2.91,2.91,0,0,0,17.76,6c.06,1.6.14,3.2.21,4.8l-3.74,2.17a.92.92,0,0,1-.48.19l-.55-.29c-1.33-.78-2.58-1.69-4-2.37a2.73,2.73,0,0,0-3.59,1.15,2.86,2.86,0,0,0,.59,3.66A3.07,3.07,0,0,0,9,15.9c-1,.7-2,1.2-3,1.82-.23.13-.43.34-.73.34a5.3,5.3,0,0,1-2.77-3.91A5.8,5.8,0,0,1,7.17,7.37a5.5,5.5,0,0,1,3.93.79l3.49,2.14a.77.77,0,0,0,.43.18,5.23,5.23,0,0,0,0-1.12c-.05-1.16-.11-2.31-.12-3.47a5.79,5.79,0,0,1,6-5.89,5.26,5.26,0,0,1,3.8,1.71Z"/><path class="cls-5" d="M29.05,23.25V39.07a1.48,1.48,0,0,1-2.62,1.1,18.11,18.11,0,0,0-1.73-1.66.11.11,0,0,0,0,0V23.25Z"/><path class="cls-6" d="M24.71,23.25V38.46c-.62.58-1.24,1.16-1.85,1.75a1.35,1.35,0,0,1-1.57.39,1.4,1.4,0,0,1-.93-1.43q0-8,0-15.91Z"/><path class="cls-7" d="M49.41,18.89A1.48,1.48,0,0,1,48,20.34a10.27,10.27,0,0,1-1.11,0c-.28,0-.36.09-.35.36s0,.71,0,1.06A1.48,1.48,0,0,1,45,23.24a1.46,1.46,0,0,1-1.42-1.52c0-.33,0-.67,0-1s-.1-.39-.38-.37-.71,0-1.06,0a1.47,1.47,0,0,1-1.46-1.48,1.43,1.43,0,0,1,1.47-1.41h.15c.41,0,.95.18,1.2-.09s.07-.8.07-1.21a1.45,1.45,0,0,1,2-1.5A1.39,1.39,0,0,1,46.51,16a6.81,6.81,0,0,1,0,1c0,.4.12.49.49.47a7.5,7.5,0,0,1,1.06,0A1.43,1.43,0,0,1,49.41,18.89Z"/><path class="cls-7" d="M42.1,8.76a1.45,1.45,0,0,1,1.42,1.46,1.49,1.49,0,0,1-1.45,1.44,1.47,1.47,0,0,1-1.44-1.49A1.43,1.43,0,0,1,42.1,8.76Z"/><path class="cls-7" d="M36.24,20.34a1.45,1.45,0,1,1,1.49-1.45A1.48,1.48,0,0,1,36.24,20.34Z"/><path class="cls-5" d="M24.71,6.85V1.71A5.13,5.13,0,0,1,26.44,5.2c0,.2,0,.42.1.61Z"/><path class="cls-8" d="M22.67,8l.11-.08A.09.09,0,0,1,22.67,8Z"/></g></g></svg>