<svg xmlns="http://www.w3.org/2000/svg" xmlns:xlink="http://www.w3.org/1999/xlink" viewBox="0 0 494 445.02">
	<defs>
		<style>
			.announcment{
				animation: announce 4s infinite;
                -webkit-animation: announce 4s infinite;
			}
			@keyframes announce {
              0% {transform: translateX(0px);}
              50% {transform: translateX(20px);}
              100% {transform: translateX(0px);}
            }
            @-webkit-keyframes announce {
              0% {transform: translateX(0px);}
              50% {transform: translateX(20px);}
              100% {transform: translateX(0px);}
            }
            .opacityAnimationIcon{
            	animation: heartB 2s infinite;
                -webkit-animation: heartB 2s infinite;
            }
            @keyframes heartB {
              from {opacity: 0;}
      			to {opacity: 1;}
            }
            @-webkit-keyframes heartB {
              from {opacity: 0;}
      			to {opacity: 1;}
            }
			.cls-1,.cls-4{fill:#fafafa;}
			.cls-1{stroke:#212121;stroke-miterlimit:10;stroke-width:0.5px;}
			.cls-2{fill:#e0e0e0;}.cls-3{fill:#ebebeb;}.cls-5{fill:#ff725e;}.cls-6{fill:#f5f5f5;}.cls-7{fill:#ffad9d;}.cls-8{fill:#263238;}.cls-9{fill:url(#linear-gradient);}.cls-10{fill:url(#linear-gradient-2);}.cls-11{fill:url(#linear-gradient-3);}.cls-12{fill:#011da2;}.cls-13{fill:#455a64;}.cls-14{fill:#fff;}.cls-15{fill:url(#linear-gradient-4);}.cls-16{fill:url(#linear-gradient-5);}
			.cls-17{fill:url(#linear-gradient-6);}.cls-18{fill:#e88b79;}.cls-19{opacity:0.2;}.cls-20{fill:url(#linear-gradient-7);}.cls-21{fill:url(#linear-gradient-8);}.cls-22{fill:url(#linear-gradient-9);}.cls-23{fill:url(#linear-gradient-10);}.cls-24{fill:#212121;}
		</style>
		><linearGradient id="linear-gradient" x1="103.32" y1="98.44" x2="200.88" y2="98.44" gradientUnits="userSpaceOnUse"><stop offset="0" stop-color="#00ffaf"/><stop offset="0.06" stop-color="#00edad"/><stop offset="0.32" stop-color="#00a6a7"/><stop offset="0.55" stop-color="#006ea2"/><stop offset="0.75" stop-color="#00469f"/><stop offset="0.91" stop-color="#002d9d"/><stop offset="1" stop-color="#00249c"/></linearGradient><linearGradient id="linear-gradient-2" x1="181.73" y1="127.96" x2="228.74" y2="127.96" xlink:href="#linear-gradient"/><linearGradient id="linear-gradient-3" x1="165.58" y1="162.82" x2="212.81" y2="162.82" xlink:href="#linear-gradient"/><linearGradient id="linear-gradient-4" x1="236.16" y1="242.69" x2="18.63" y2="174.52" gradientUnits="userSpaceOnUse"><stop offset="0.02" stop-color="#00ffaf"/><stop offset="0.15" stop-color="#00edad"/><stop offset="0.55" stop-color="#006ea2"/><stop offset="0.69" stop-color="#00a6a7"/><stop offset="0.75" stop-color="#00469f"/><stop offset="0.91" stop-color="#002d9d"/><stop offset="1" stop-color="#00249c"/></linearGradient><linearGradient id="linear-gradient-5" x1="208.79" y1="252.84" x2="358.75" y2="252.84" xlink:href="#linear-gradient"/><linearGradient id="linear-gradient-6" x1="264.3" y1="118.18" x2="403.71" y2="230.01" xlink:href="#linear-gradient"/><linearGradient id="linear-gradient-7" x1="198" y1="11.09" x2="218.17" y2="11.09" xlink:href="#linear-gradient"/><linearGradient id="linear-gradient-8" x1="69.31" y1="254.79" x2="85.48" y2="254.79" xlink:href="#linear-gradient"/><linearGradient id="linear-gradient-9" x1="86.47" y1="258.46" x2="90.93" y2="258.46" xlink:href="#linear-gradient"/><linearGradient id="linear-gradient-10" x1="439.67" y1="33.17" x2="466.07" y2="33.17" xlink:href="#linear-gradient"/>
</defs>
<g id="Layer_2" data-name="Layer 2">
<g id="Layer_1-2" data-name="Layer 1"><rect class="cls-1" x="0.25" y="354.03" width="181.18" height="90.73" rx="8.69"/>
<g id="inject-326">
	<path class="cls-2" d="M127.68,302.4a18.54,18.54,0,0,1-11.2-17.09c-.14-10.25,7.55-18.67,17.17-18.79s17.52,8.09,17.64,18.34a18.54,18.54,0,0,1-11,17.44c26.79,3.8,25.86,33,25.86,33l-63.35.84S101.18,306.63,127.68,302.4Z"/>
	<path class="cls-2" d="M482.78,245.51l-3.77-.79-5.79-13.21L474.8,224s-5.75-1.59-7.15,8.41-1.6,7.32-1.6,7.32-12.37-2.56-13.64-1.71c-.91.62-3.85,12.83-5.39,19.47a7.37,7.37,0,0,0,3.57,8.35,5.36,5.36,0,0,0,1.29.46c3.09.65,19.38,1.49,19.38,1.49l6.51,1.38Z"/>
	<polygon class="cls-2" points="494 245.74 486.22 271.02 479.77 269.65 485.12 244.4 494 245.74"/>
	<path class="cls-3" d="M342.21,103.46h44.7a3.52,3.52,0,0,1,3.52,3.52V136.6a3.53,3.53,0,0,1-3.52,3.53H363.38L352.19,151.3V140.17h-10a2.62,2.62,0,0,1-2.6-2.62V106.12a2.61,2.61,0,0,1,2.57-2.66Z"/>
	<circle class="cls-4" cx="354.41" cy="122.46" r="2.63"/>
	<path class="cls-4" d="M367.45,122.46a2.64,2.64,0,1,1-2.65-2.63h0a2.63,2.63,0,0,1,2.63,2.63Z"/>
	<circle class="cls-4" cx="375.21" cy="122.46" r="2.63"/>
	<path class="cls-5" d="M76.45,40.5a4.58,4.58,0,0,1,9,.26,4.57,4.57,0,0,1,9-.18A6.15,6.15,0,0,1,93.37,45a18.19,18.19,0,0,1-3.22,3.4l-4.8,4.3c-1.62-1.48-3-2.87-4.63-4.34A18.59,18.59,0,0,1,77.52,45,6.21,6.21,0,0,1,76.45,40.5Z"/>
</g>
	<circle class="cls-4" cx="298.98" cy="359.54" r="2.09"/>
	<polygon class="cls-6" points="157.38 271.67 176.12 283.88 176.12 95.72 157.38 95.72 157.38 271.67"/>
	<path class="cls-2" d="M176.23,260.67c-8.6-26.37-4.75-55.82-14.26-82-.91-2.52-2-5.09-1.69-7.72a11.73,11.73,0,0,1,2.88-6.11c1.69-2.06,4.21-3.89,7.1-3.7a6.87,6.87,0,0,1,5.49,3.93,15.13,15.13,0,0,1,1,6.35c.16,8,.11,16,.06,24q-.15,30.22-.32,60.41"/>
	<polygon class="cls-2" points="176.3 143.76 176.3 136.8 157.56 131.43 157.56 139.47 176.3 143.76"/>
	<path class="cls-7" d="M403.46,172.68s1.34-10.47.74-14.16c-.65-3.94-7.22-12.27-7.22-12.27.1-.37,1.18-1.27,4.54,0s4.53,3.62,7.72,5.89L425.53,142l5.34,17.06L417,180.89Z"/>
	<path class="cls-8" d="M331.45,132.66c8.42,8.24.33,21.07,5.73,29.35,3.26,5,10.3,7.45,11.77,13.24.74,2.87-.09,5.88-.53,8.81s-.34,6.3,1.79,8.36a31.24,31.24,0,0,0,3.39,2.32c3.3,2.42,4.41,6.93,4,11s-2,7.91-3.09,11.84a52.19,52.19,0,0,0,2,33.84,12.74,12.74,0,0,1-10.06-4.83c.09,2.73.2,5.45.3,8.18-3.63.22-7.13-1.73-9.55-4.43a29.26,29.26,0,0,1-5.15-9.52,101,101,0,0,1-5.48-48.2"/>
	<path class="cls-8" d="M262,109.1a35.06,35.06,0,0,0-5.66,24.32c.67,4.79,2.33,9.77.68,14.32-1.41,3.91-5.15,7.11-5,11.27.24,4.74,5.59,7.94,6.06,12.66.67,6.55-8.11,10.94-8,17.52,0,3.39,2.48,6.18,4.12,9.13s2.43,7.21-.21,9.32l30.58-2.18-5.44-95.6Z"/>
	<path class="cls-7" d="M172.53,190.55h.34l-1.35-4.5-4.32-17.21a3.16,3.16,0,0,1,2.06-3.75l3.09-.1L183,160a3.32,3.32,0,0,1,4.3,1.89,3.2,3.2,0,0,1,.19.69c.39,3.16,2.54,11.65,4.83,8.67,0-.06.11-.12.16-.2,3.22-4.42,7.21-6.81,8.87-6.74a1.85,1.85,0,0,1,1.13,3.18,2.38,2.38,0,0,1-.61.53,3.26,3.26,0,0,0-.34.22,27.28,27.28,0,0,0-3.83,4.21,14.27,14.27,0,0,0-2.34,4.47c-.57,1.79-1,3.35-1.31,4.67l.82,8.79"/>
	<path class="cls-6" d="M157.56,77.21v-36h268V357h-268v-108L176.3,260.7v57.14H405.81v-241H176.3V95.5C170.73,92.06,162.58,83.74,157.56,77.21Z"/>
	<g class="announcment">
	 <path class="cls-9" d="M200.88,112.61s-12.36-2.38-30.26-18.55-26.62-38.12-28.74-38-11.53-3.87-28.1,35-9.36,47.62-5.84,47.45,27.17-7.49,42.12-6.18,34.31,8.5,34.31,8.5Z"/><path class="cls-10" d="M227.7,132.8l-4,8.12-1.78,3.64a10.44,10.44,0,0,1-13.49,5l-26.71-8.47,14.42-35.6,26.79,13.39A10.46,10.46,0,0,1,227.7,132.8Z"/>
	<path class="cls-11" d="M212.81,146.05l-8,16.75-4.26-1L173.7,185l-8.12-14.84s16.07-7.47,18.92-13.4-.67-7.11-.67-7.11l7.41-8.91Z"/>
	<path class="cls-12" d="M115.22,91.72c-8.8,21.07-12.19,39.72-7.55,41.65S123.19,119.8,132,98.73,144.18,59,139.55,57.09,124,70.65,115.22,91.72Z"/>
	<polygon class="cls-8" points="230.29 144.3 223.06 142.25 227.25 133.69 232.73 136.88 230.29 144.3"/>
	<polygon class="cls-12" points="188.69 143.76 208.31 155.51 210.59 150.73 188.69 143.76"/>
	<polygon class="cls-13" points="227.25 133.69 223.06 142.25 224.55 142.67 227.91 134.07 227.25 133.69"/>
	<path class="cls-14" d="M222.37,135.78c-.1.23-3.72-1-8.08-2.89s-7.83-3.49-7.72-3.73,3.71,1,8.07,2.89S222.46,135.54,222.37,135.78Z"/>
	<path class="cls-14" d="M224.43,130.69c-.1.23-3.38-1-7.31-2.85s-7.05-3.45-6.94-3.67,3.38,1,7.32,2.84S224.54,130.46,224.43,130.69Z"/>
	<path class="cls-14" d="M219.74,141.12c0,.13-.89-.05-2.26-.43-.68-.18-1.5-.43-2.4-.71s-1.83-.73-2.82-1.15c-4-1.71-7-3.41-6.93-3.62s3.36,1,7.3,2.77c1,.41,1.9.88,2.76,1.21s1.64.62,2.29.88C219,140.61,219.78,141,219.74,141.12Z"/>
	<path class="cls-14" d="M134.25,86.55s-10.92-6.35-16.37,8.31,5.89,16.73,5.89,16.73A96.45,96.45,0,0,0,134.25,86.55Z"/>
	<path class="cls-8" d="M145.17,69a15.21,15.21,0,0,1-.35,2.78c-.29,1.79-.69,4.37-1.29,7.55-.41,1.56-.85,3.27-1.34,5.15-.24.93-.49,1.87-.75,2.85-.13.49-.27,1-.4,1.49s-.34,1-.5,1.5c-.73,2.06-1.48,4.12-2.25,6.32-.2.54-.39,1.1-.6,1.65s-.47,1.1-.71,1.64c-.48,1.1-1,2.22-1.49,3.34s-1,2.24-1.51,3.33c-.25.54-.47,1.1-.76,1.62s-.58,1-.85,1.54l-3.26,5.86c-.27.48-.5.94-.78,1.38l-.86,1.29-1.64,2.45-3,4.39c-2,2.55-3.64,4.56-4.78,6a15.88,15.88,0,0,1-1.87,2.06,16.64,16.64,0,0,1,1.58-2.32c1.1-1.48,2.66-3.56,4.55-6.13.88-1.35,1.83-2.83,2.85-4.42.5-.79,1-1.61,1.58-2.45l.83-1.29c.26-.43.5-.91.76-1.37,1-1.86,2.06-3.83,3.18-5.86l.85-1.53c.29-.51.49-1,.75-1.61l1.48-3.31c.51-1.11,1-2.22,1.5-3.31.23-.55.51-1,.71-1.63s.4-1.1.6-1.64c.79-2.17,1.55-4.25,2.27-6.26.18-.5.38-1,.54-1.48s.27-1,.41-1.48c.27-1,.54-1.9.79-2.81l1.44-5.06,1.55-7.46A16.28,16.28,0,0,1,145.17,69Z"/> 
	</g>
	
	<path class="cls-15" d="M198.56,186.85l5.38,47.74,26.84-26.79s14.36,29.88,14.56,31.09c.13.81-15.07,15.83-26.36,24.5-6.11,4.7-14.36,12-22,10.73-12.7-2.06-20.24-10.41-21.34-23.23l-4.86-63.34Z"/>
	<path class="cls-16" d="M339.06,231.21l19.69-13.08c-5.39-30.26-49.09-33.29-49.09-33.29l-33.28-.59s-24.67-3.36-39.91,13.79c-15.78,17.72-27.68,31.71-27.68,31.71l21.64,23.63,21.17-16.61a29,29,0,0,0-5.15,16c0,9.85,7.35,19.26,7.35,19.26l1.83,16.83-8.15,32.61,94.26.25c-6.42-10.19-11-19-16.74-34.07l8.81-31.69Z"/>
	<path class="cls-17" d="M337.63,193.85l47.74,25.27,17.28-47.2,21.08,10L408.82,242c-3,11.94-15.61,19.12-27.16,14.87-.39-.15-.77-.3-1.15-.47L328.77,234Z"/>
	<path class="cls-4" d="M305.85,231a11.38,11.38,0,0,1,3,.9,6.91,6.91,0,0,1,2.95,9.32,6.78,6.78,0,0,1-2.95,2.95,11.4,11.4,0,0,1-3,.91,2.12,2.12,0,0,0,.87,0,6.7,6.7,0,0,0,2.33-.61,7,7,0,0,0,2.76-2.3,7.21,7.21,0,0,0,0-8.36,7,7,0,0,0-2.76-2.29,6.48,6.48,0,0,0-2.33-.61A2.14,2.14,0,0,0,305.85,231Z"/>
	<path class="cls-7" d="M277,190.5c-.22-9.28-.61-19.2-.61-19.2s-14.1-1.78-14.7-16.15c-.47-11-.65-28.16-.72-35.75a5.14,5.14,0,0,1,3.62-5L288,107.24l19.73,14.57.47,68.19c.06,8.68-5.61,14-14.27,14h0C285.45,204,277.15,199,277,190.5Z"/>
	<path class="cls-18" d="M276.33,171.3A34.32,34.32,0,0,0,295,165.19s-4.38,10.48-18.42,9.64Z"/>
	<path class="cls-18" d="M277.63,154.55a1.67,1.67,0,0,1,.82-2.24,1.64,1.64,0,0,1,.9-.15,2.65,2.65,0,0,1,2.69-2.35,3,3,0,0,1,2.73,2.44,3.5,3.5,0,0,1-1.55,3.41,4.11,4.11,0,0,1-3.79.28,3,3,0,0,1-1.91-2.26"/>
	<path class="cls-8" d="M266.3,133.05a2,2,0,0,0,1.9,2,1.89,1.89,0,0,0,2.05-1.7.22.22,0,0,0,0-.08,2,2,0,0,0-1.91-2,1.89,1.89,0,0,0-2,1.72S266.3,133,266.3,133.05Z"/>
	<path class="cls-8" d="M263.9,131.4c.25.26,1.74-.86,3.87-.85s3.67,1,3.9.81-.13-.58-.81-1a5.44,5.44,0,0,0-3.09-1,5.13,5.13,0,0,0-3.09,1C264,130.81,263.78,131.28,263.9,131.4Z"/>
	<path class="cls-8" d="M285.46,134a1.94,1.94,0,0,0,1.89,2,1.89,1.89,0,0,0,2.06-1.69v-.08a2,2,0,0,0-1.9-2,1.89,1.89,0,0,0-2.05,1.71Z"/>
	<path class="cls-8" d="M283.06,132.35c.24.26,1.74-.86,3.86-.85s3.68,1,3.9.81-.13-.58-.81-1a5.44,5.44,0,0,0-3.09-1,5.13,5.13,0,0,0-3.09,1C283.12,131.76,282.93,132.22,283.06,132.35Z"/>
	<path class="cls-8" d="M277.07,147.54a14.47,14.47,0,0,0-3.45-.63c-.55,0-1-.16-1.15-.53a2.69,2.69,0,0,1,.37-1.61l1.59-4.12c2.24-5.88,3.85-10.71,3.61-10.81s-2.24,4.61-4.46,10.49L272,144.45a3.17,3.17,0,0,0-.28,2.14,1.37,1.37,0,0,0,.89.79,3.57,3.57,0,0,0,.92.12A14.13,14.13,0,0,0,277.07,147.54Z"/>
	<path class="cls-8" d="M283.31,149c-.34,0-.35,2.28-2.31,3.92s-4.44,1.38-4.45,1.7c0,.15.55.46,1.58.48a5.74,5.74,0,0,0,3.71-1.29,4.93,4.93,0,0,0,1.8-3.29C283.74,149.56,283.48,149,283.31,149Z"/>
	<path class="cls-8" d="M283.68,127.08c.23.56,2,.15,4.12.28s3.92.68,4.12.14c.12-.25-.22-.77-1-1.27a6.24,6.24,0,0,0-3.15-1,5.87,5.87,0,0,0-3.18.7C283.94,126.33,283.59,126.81,283.68,127.08Z"/>
	<path class="cls-8" d="M263.43,126.2c.45.48,2.23,0,4.37,0s3.93.32,4.34-.19c.19-.25-.09-.72-.88-1.18a7.06,7.06,0,0,0-3.55-.79,6.92,6.92,0,0,0-3.48,1C263.48,125.46,263.23,126,263.43,126.2Z"/>
	<path class="cls-18" d="M291.57,139.33c.07.13.38.07.68-.11s.48-.43.4-.56-.38-.08-.68.11S291.48,139.21,291.57,139.33Z"/>
	<path class="cls-18" d="M287.89,139.59c.15,0,.22-.3.18-.62s-.2-.58-.35-.55-.22.29-.18.62S287.74,139.61,287.89,139.59Z"/>
	<path class="cls-18" d="M289.9,145.7c.13-.06.14-.32,0-.57s-.32-.41-.46-.35-.14.31,0,.57S289.72,145.76,289.9,145.7Z"/><path class="cls-18" d="M266.3,139c.09.13.32.12.53,0s.31-.35.23-.47-.32-.11-.53,0S266.22,138.88,266.3,139Z"/>
	<path class="cls-18" d="M264,138.66c.13-.07.11-.36-.06-.64s-.39-.44-.52-.37-.11.36.06.64S263.84,138.73,264,138.66Z"/>
	<path class="cls-18" d="M265.54,144.78c.15,0,.21-.38.13-.8s-.23-.73-.39-.7-.2.38-.13.79S265.4,144.8,265.54,144.78Z"/>
	<path class="cls-5" d="M266.3,167.34s-.44.17-1.24.4a9.29,9.29,0,0,1-3.48.3,9.64,9.64,0,0,1-4.73-1.93A9.23,9.23,0,0,1,253.5,161a10.77,10.77,0,0,1,.41-6.18,8.22,8.22,0,0,1,3.15-4,8,8,0,0,1,3.26-1.21c.82-.1,1.29,0,1.3-.1a1,1,0,0,0-.34-.07,5.35,5.35,0,0,0-1,0,7.49,7.49,0,0,0-3.44,1.09,8.33,8.33,0,0,0-3.4,4.12,10.82,10.82,0,0,0-.48,6.53,9.5,9.5,0,0,0,3.57,5.47,9.66,9.66,0,0,0,5,1.92,8.71,8.71,0,0,0,3.58-.48A3.57,3.57,0,0,0,266.3,167.34Z"/>
	<g class="cls-19">
		<path d="M286,263c-.29.13.39,2.43,2.88,5.31a21.31,21.31,0,0,0,5.15,4.26,21.82,21.82,0,0,0,15.88,2.67,21.47,21.47,0,0,0,6.18-2.36c3.28-1.91,4.67-3.85,4.45-4.12s-2.06,1-5.3,2.38a23.28,23.28,0,0,1-25-4.21C287.66,264.68,286.37,262.79,286,263Z"/>
	</g>
	<g class="cls-19"><path d="M337.64,237.86s-18,42-17,47.45,13.55,23.37,13.55,23.37L325,287.63A507.17,507.17,0,0,0,337.64,237.86Z"/>
	</g>
	<path class="cls-8" d="M200.21,246.47a33.82,33.82,0,0,0,4-11.68c-.16,0-.86,2.64-2,5.85S200.09,246.4,200.21,246.47Z"/>
	<path class="cls-8" d="M198,243.58a21.82,21.82,0,0,0,3.53-4.53,20.72,20.72,0,0,0,2.67-5.08,55.3,55.3,0,0,0-3.09,4.8C199.45,241.4,197.87,243.47,198,243.58Z"/>
	<path class="cls-8" d="M263.66,281.31a10.89,10.89,0,0,0,1.3,1l3.66,2.45L280.71,293l12.05,8.37,3.66,2.52a8.92,8.92,0,0,0,1.38.87,8.85,8.85,0,0,0-1.26-1c-.83-.65-2.06-1.56-3.56-2.67-3-2.23-7.21-5.24-12-8.5s-9-6.18-12.19-8.17c-1.58-1-2.86-1.84-3.75-2.39A10,10,0,0,0,263.66,281.31Z"/>
	<path class="cls-8" d="M390.31,230A35.55,35.55,0,0,0,385.63,219c-.13.08,1,2.5,2.32,5.54A58.31,58.31,0,0,0,390.31,230Z"/>
	<path class="cls-8" d="M386.91,234.61a9.16,9.16,0,0,0,0-2.34,52.09,52.09,0,0,0-.44-5.62c-.27-2.19-.6-4.12-.9-5.57a9.89,9.89,0,0,0-.61-2.27,11.45,11.45,0,0,0,.24,2.33c.19,1.42.47,3.39.74,5.57s.45,4.12.6,5.58A10.6,10.6,0,0,0,386.91,234.61Z"/>
	<path class="cls-8" d="M288.14,98.79a19.68,19.68,0,0,0,3.36,23.47c3.09,3,7.34,5,9.28,8.83,2.06,4,1,8.92-.52,13.2s-3.34,8.68-2.71,13.16c.77,5.58,5.24,10.07,6.18,15.61,1.82,10.61-9.59,20-8.24,30.63.58,4.68,3.54,8.66,6.1,12.61s4.89,8.57,4,13.2c-.42,2.2-2.29,4.12-2.06,6.38.83,9,13.6,10.23,15.45,8.65-2.33-4.44.42-11.33.7-11.68a9.6,9.6,0,0,0,8.25,7.57,23.33,23.33,0,0,1,.81-10.3,10.21,10.21,0,0,0,7.12,4.81,62.08,62.08,0,0,1,4.34-37.2c1.84-4.06,4.19-8.24,3.59-12.69-.78-5.73-6.18-9.63-8.69-14.82-2.86-5.84-1.9-12.72-1.12-19.18s1.18-13.55-2.53-18.89c-2.27-3.25-5.85-5.51-7.68-9-1.7-3.27-1.62-7.15-2.66-10.69-1.87-6.41-6.57-13.64-12.87-15.82s-16.12-4.3-20.08,2.18"/>
	<path class="cls-8" d="M333.23,221.48c1.55,4.45,3.09,9.06,2.78,13.76s-3.09,9.57-7.63,10.88c-1.72.5-3.74.53-5,1.85a4.31,4.31,0,0,0-.67,4.19,12.44,12.44,0,0,0,2.31,3.78,16.51,16.51,0,0,1-6.9-6.11A11.31,11.31,0,0,0,321,260.06c-3.47.14-6.5-2.26-9-4.72-5.61-5.62-10.3-13.05-9.61-21s6.62-14.73,6.6-22.67c0-3.09-.92-6-1-9.05s.67-6.4,3.2-8.08"/>
	<path class="cls-8" d="M289.57,99.34a14.14,14.14,0,0,0-12.48-4.84,19.18,19.18,0,0,0-12,6.58,30.15,30.15,0,0,0-6.26,12.36,10.85,10.85,0,0,0-.48,4.12,4.45,4.45,0,0,0,2.06,3.42,4.57,4.57,0,0,0,4.12-.1,13.33,13.33,0,0,0,3.37-2.6,6.4,6.4,0,0,0,12.36.47A9.27,9.27,0,0,0,298,117c.71-3.59-.76-7.28-2.82-10.31s-4.73-5.58-6.85-8.56"/>
	<path class="cls-13" d="M342.61,194.85a9.94,9.94,0,0,1-.78-1,7.81,7.81,0,0,1-1.09-3.45,26,26,0,0,1,.35-5.78,18.73,18.73,0,0,0,.13-3.67A9.8,9.8,0,0,0,340,177c-1.41-2.57-3.89-4.67-6.59-6.66-1.35-1-2.75-2.06-4.13-3.22a14.9,14.9,0,0,1-3.4-4.21,12.19,12.19,0,0,1-1.22-5.51,31.46,31.46,0,0,1,.68-6,56.09,56.09,0,0,0,1-6.18,17.07,17.07,0,0,0-.42-6.52,9.92,9.92,0,0,0-1.47-3,11.54,11.54,0,0,0-2.31-2.32,39.68,39.68,0,0,0-5.48-3.15,16.51,16.51,0,0,1-4.83-3.46,9.06,9.06,0,0,1-2.15-5.15,53.83,53.83,0,0,1-.23-5.5,18,18,0,0,0-.76-5.15,17.2,17.2,0,0,0-5.1-7.84,15.44,15.44,0,0,0-6.88-3.52,12.11,12.11,0,0,0-5.83.17,8.35,8.35,0,0,0-3.24,1.77,6.22,6.22,0,0,0-.66.7,1.25,1.25,0,0,0-.19.27,9.73,9.73,0,0,1,.92-.89A8.73,8.73,0,0,1,291,100a12,12,0,0,1,5.72-.08,15.09,15.09,0,0,1,6.68,3.52,16.67,16.67,0,0,1,4.94,7.68,18.18,18.18,0,0,1,.72,5.08,54.27,54.27,0,0,0,.19,5.56,9.64,9.64,0,0,0,2.27,5.4,16.9,16.9,0,0,0,5,3.58,40.69,40.69,0,0,1,5.4,3.09,11,11,0,0,1,2.2,2.21,9.3,9.3,0,0,1,1.38,2.83,16.32,16.32,0,0,1,.4,6.3c-.19,2.06-.67,4.13-1,6.19a32.41,32.41,0,0,0-.68,6,12.8,12.8,0,0,0,1.3,5.74,15.37,15.37,0,0,0,3.52,4.33,50.59,50.59,0,0,0,4.13,3.23c2.71,2,5.15,4,6.53,6.49a9.21,9.21,0,0,1,1.2,3.79,17.32,17.32,0,0,1-.08,3.6,25.37,25.37,0,0,0-.26,5.84,7.76,7.76,0,0,0,1.21,3.49A3.74,3.74,0,0,0,342.61,194.85Z"/>
	<path class="cls-13" d="M318,218.5a6.45,6.45,0,0,0,.4-1.22,8.53,8.53,0,0,0-.13-3.66,36.27,36.27,0,0,0-2-5.46c-.81-2.07-1.83-4.56-1.43-7.35a10.85,10.85,0,0,1,1.6-4.05,45.06,45.06,0,0,1,2.82-3.91,23.93,23.93,0,0,0,2.79-4.41,18,18,0,0,0-1-16.84c-2.19-3.57-5.69-6.18-8.74-9.2a22.13,22.13,0,0,1-3.89-5,12.73,12.73,0,0,1-1.13-2.85,12.12,12.12,0,0,1-.34-3c.1-4.05,1.72-7.77,2.25-11.53a12.24,12.24,0,0,0-2.71-10.18,34.5,34.5,0,0,0-7-6.18,46.49,46.49,0,0,1-6-4.73,17.59,17.59,0,0,1-3.52-4.52,11.36,11.36,0,0,1-1.27-4.7,6.84,6.84,0,0,0,0,1.28,10.29,10.29,0,0,0,1,3.51,17.33,17.33,0,0,0,3.5,4.65,46.39,46.39,0,0,0,6,4.82,34.86,34.86,0,0,1,6.9,6.1,11.79,11.79,0,0,1,2.58,9.83c-.54,3.68-2.18,7.39-2.3,11.59a12.85,12.85,0,0,0,.35,3.09,13.71,13.71,0,0,0,1.18,3,22.93,22.93,0,0,0,4,5.15c3.09,3.09,6.55,5.64,8.68,9.1a17.63,17.63,0,0,1,1,16.36,24.12,24.12,0,0,1-2.72,4.34,43.15,43.15,0,0,0-2.82,4,11.39,11.39,0,0,0-1.62,4.21c-.39,2.93.7,5.46,1.53,7.52a37.07,37.07,0,0,1,2.06,5.4,8.54,8.54,0,0,1,.22,3.59C318.08,218.08,317.92,218.49,318,218.5Z"/>
	<path class="cls-13" d="M264,116.61c.1,0,.3-1.7.81-4.41a24,24,0,0,1,1.36-4.6,12.87,12.87,0,0,1,3.31-4.74,9.75,9.75,0,0,1,5.22-2.3,18.29,18.29,0,0,1,4.79,0c2.73.35,4.4.75,4.42.66a5.9,5.9,0,0,0-1.15-.36,29.69,29.69,0,0,0-3.22-.67,17.89,17.89,0,0,0-4.9-.16,10,10,0,0,0-5.48,2.4,13.08,13.08,0,0,0-3.42,4.95,22.19,22.19,0,0,0-1.27,4.73c-.23,1.37-.33,2.5-.39,3.27A5.66,5.66,0,0,0,264,116.61Z"/>
	<path class="cls-13" d="M277.52,119.63a29.58,29.58,0,0,0-.22-3.26,20.76,20.76,0,0,1,.62-7.73,10.8,10.8,0,0,1,2-3.72,8.87,8.87,0,0,1,2.69-2.14,11.08,11.08,0,0,1,3.09-.9,2,2,0,0,0-.88,0,6.64,6.64,0,0,0-2.36.61,8.58,8.58,0,0,0-2.9,2.16,10.73,10.73,0,0,0-2.13,3.87,19,19,0,0,0-.49,7.93c.12,1,.26,1.82.38,2.38A2.53,2.53,0,0,0,277.52,119.63Z"/>
	<path class="cls-13" d="M181.31,59.08a2.83,2.83,0,0,1-1.7-2.64A2.69,2.69,0,1,1,185,56.1a1.93,1.93,0,0,1,0,.34,2.84,2.84,0,0,1-1.71,2.66,4.32,4.32,0,0,1,3.63,3.1,6.16,6.16,0,0,1-3.73,2H181.5a6,6,0,0,1-3.77-2.06A4.24,4.24,0,0,1,181.31,59.08Z"/>
	<path class="cls-13" d="M182.3,65.11a5.59,5.59,0,0,1-1.46-.28,6.08,6.08,0,0,1-3.24-2.25,5.91,5.91,0,1,1,9.43,0,6,6,0,0,1-3.25,2.23c-.93.25-1.48.22-1.48.28s.14,0,.4,0a4.3,4.3,0,0,0,1.12-.14,6,6,0,0,0,3.47-2.19,6.21,6.21,0,0,0,1.22-2.61,6.46,6.46,0,0,0-.25-3.32,6.29,6.29,0,0,0-9.67-2.95,6.12,6.12,0,0,0-2.19,2.95,6.36,6.36,0,0,0-.26,3.32,6.05,6.05,0,0,0,1.2,2.64A6.18,6.18,0,0,0,180.8,65a5.36,5.36,0,0,0,1.12.14C182.17,65.13,182.3,65.13,182.3,65.11Z"/>
	<path class="cls-13" d="M408.26,54.07a1.34,1.34,0,1,0,1.35-1.33,1.35,1.35,0,0,0-1.35,1.33Z"/>
	<path class="cls-13" d="M408.26,58.87a1.34,1.34,0,1,0,1.36-1.32h0A1.34,1.34,0,0,0,408.26,58.87Z"/>
	<path class="cls-13" d="M408.17,63.68a1.34,1.34,0,1,0,1.36-1.32h0A1.33,1.33,0,0,0,408.17,63.68Z"/><path class="cls-8" d="M192.58,58.89c0,.15,26.41.27,59,.27s59-.12,59-.27-26.4-.27-59-.27S192.58,58.74,192.58,58.89Z"/>
	<path class="cls-8" d="M199,339.78l2-.89a5.45,5.45,0,1,0-2.27-7.37,5.57,5.57,0,0,0,.74,6.26ZM203.69,329a5.15,5.15,0,1,1-2.58,9.48l-.09,0-1.46.65.33-1.44-.07-.07a5.15,5.15,0,0,1,3.85-8.61Z"/>
	<path class="cls-8" d="M221.48,339l-2.27-5.56-4.3-3.92,10.38-.09Zm-5.61-9.06,3.65,3.35,1.95,4.75,3.25-8.16Z"/>
	<rect class="cls-8" x="218.8" y="331.28" width="6.75" height="0.38" transform="translate(-144.96 175.12) rotate(-33.1)"/>
	<path class="cls-8" d="M397,340.2l4.34-4.26,4,4.12.12-12.31-8.37-.07Zm4.34-4.79-.14.13-3.77,3.78.1-11.23,7.6.07-.1,11Z"/>
	<path class="cls-5" d="M178.83,331.17a3.21,3.21,0,0,1,6.33.21,3.21,3.21,0,0,1,6.33-.1,4.28,4.28,0,0,1-.76,3.12,12.44,12.44,0,0,1-2.26,2.38l-3.38,3c-1.14-1-2.11-2-3.25-3.06a13,13,0,0,1-2.26-2.42A4.3,4.3,0,0,1,178.83,331.17Z"/>
	<path class="cls-2" d="M425.52,167.89c-1.14.82-1.62,1.31-2.75,2.15a3.81,3.81,0,0,1-3.9.72c-1.32-.68-1.75-2.4-1.56-3.89s.87-2.84,1.17-4.29a2.21,2.21,0,0,1-2.54-.75,3.53,3.53,0,0,1-.52-2.74,10.31,10.31,0,0,1,.92-2.67c-.34.54-1.26.34-1.57-.21a2.54,2.54,0,0,1,0-1.88,7.78,7.78,0,0,1,2.2-4.12,3.71,3.71,0,0,1,4.39-.5c1,.72,2.93,1.78,3.24,3,1.08,4.34.71,10.75,1,15.22"/><path class="cls-7" d="M179.48,156.8a2.4,2.4,0,0,0-1.33,3c.86,2.32,2.24,5.95,3.27,8.15a5.91,5.91,0,0,0,1.27,2,2,2,0,0,0,3.45-1.39,6.1,6.1,0,0,0-.47-2.42c-.73-2.16-2-5.4-3.09-8a2.39,2.39,0,0,0-3.09-1.3Z"/>
	<path class="cls-7" d="M176.08,161.06a2.39,2.39,0,0,0-1.34,3.09c.86,2.32,2.24,5.95,3.27,8.15a6.21,6.21,0,0,0,1.28,2,2,2,0,0,0,2.76.21,2,2,0,0,0,.68-1.6,6.47,6.47,0,0,0-.46-2.42c-.73-2.16-2-5.4-3.09-8a2.41,2.41,0,0,0-3.09-1.31Z"/>
	<path class="cls-7" d="M172.9,163.77a2.06,2.06,0,0,0-1.16,2.63c.75,2,1.94,5.15,2.84,7.06a5.48,5.48,0,0,0,1.09,1.7,1.7,1.7,0,0,0,3-1.21,5.55,5.55,0,0,0-.39-2.06c-.64-1.88-1.73-4.68-2.66-7a2.07,2.07,0,0,0-2.68-1.14h0Z"/>
	<path class="cls-7" d="M168.8,164.68a2.05,2.05,0,0,0-1.16,2.64c.74,2,1.94,5.16,2.85,7.09a5.18,5.18,0,0,0,1.1,1.7,1.89,1.89,0,0,0,1.87.5,1.91,1.91,0,0,0,1.13-1.7,5.55,5.55,0,0,0-.4-2.06c-.63-1.89-1.73-4.7-2.66-7a2.07,2.07,0,0,0-2.67-1.17l-.06,0Z"/>
	<path class="cls-18" d="M182.43,170a20.21,20.21,0,0,0-1.6-4.32,20.34,20.34,0,0,0-2.06-4.12,19.47,19.47,0,0,0,1.59,4.32A19.87,19.87,0,0,0,182.43,170Z"/>
	<path class="cls-18" d="M178.75,173.58a26.27,26.27,0,0,0-1.76-5,25.94,25.94,0,0,0-2.25-4.73,26.14,26.14,0,0,0,1.75,4.94A25.43,25.43,0,0,0,178.75,173.58Z"/>
	<path class="cls-18" d="M174.89,174a29.74,29.74,0,0,0-1.69-4.28,29.5,29.5,0,0,0-1.86-4.23,23.81,23.81,0,0,0,3.55,8.51Z"/>
	<path class="cls-8" d="M157.56,77.22V68.13c0-6.06,0-15.08.05-26.93l-.09.09,268,.13-.23-.22V357.27l.26-.24h-268l.21.2c0-69.51-.07-126.82-.09-166.77,0-20,0-35.57-.06-46.21v46.21c0,39.95-.06,97.26-.11,166.77v.21H426V40.93h-.24l-268,.14h-.1v33.8C157.54,76.46,157.56,77.22,157.56,77.22Z"/>
	<path class="cls-7" d="M431,158a2.12,2.12,0,0,0-2.88-.82l-.09.06c-1.74,1.1-3.63,2.26-5.27,3.33a5.37,5.37,0,0,0-1.88,1.63,1.7,1.7,0,0,0,.31,2.24,2.76,2.76,0,0,0,2.5-.06c.26-.11,4.36-2.58,6.63-4A1.79,1.79,0,0,0,431,158Z"/>
	<path class="cls-7" d="M431.49,152.29a2.35,2.35,0,0,0-3.15-1l-.27.17-6,4.22a6.72,6.72,0,0,0-2.15,2.06,2.16,2.16,0,0,0,.38,2.72,2.94,2.94,0,0,0,2.87-.14c.29-.13,5-3.28,7.57-5a2.32,2.32,0,0,0,.77-3Z"/>
	<path class="cls-7" d="M430.62,147.49a2.32,2.32,0,0,0-3.14-1,2.09,2.09,0,0,0-.28.17c-2,1.42-4.12,2.94-6,4.3a6.76,6.76,0,0,0-2.12,2.07,2.17,2.17,0,0,0,.42,2.73,3,3,0,0,0,2.86-.19c.29-.13,4.93-3.35,7.5-5.15a2.31,2.31,0,0,0,.72-3Z"/>
	<path class="cls-7" d="M430.16,142a2.58,2.58,0,0,0-3.45-1.2,1.9,1.9,0,0,0-.39.23c-2.24,1.62-4.67,3.34-6.78,4.89a7.78,7.78,0,0,0-2.43,2.38,2.55,2.55,0,0,0,.42,3.16c.91.67,2.19.3,3.22-.18.33-.15,5.61-3.8,8.53-5.83a2.72,2.72,0,0,0,.88-3.45Z"/>
	<path class="cls-18" d="M420,151.88a22.36,22.36,0,0,0,4.19-2.6,23.61,23.61,0,0,0,3.87-3,44.83,44.83,0,0,0-8.06,5.63Z"/>
	<path class="cls-18" d="M421.35,156.18a19.83,19.83,0,0,0,4-2.31,20.76,20.76,0,0,0,3.7-2.77,19.48,19.48,0,0,0-4,2.32A19.84,19.84,0,0,0,421.35,156.18Z"/>
	<path class="cls-18" d="M421.26,161.6a20.66,20.66,0,0,0,4-2.32,19.88,19.88,0,0,0,3.68-2.76,39.06,39.06,0,0,0-7.67,5.08Z"/>
	<path class="cls-8" d="M176.3,98.87V79.05l-.09.08,229.52.17-.25-.25V317.84l.26-.26-229.51.12.14.14c0-20-.05-35.82-.07-46.58v0c0,10.76,0,26.53-.06,46.58V318h.14l229.52.12h.25V78.79h-.24L176.39,79h-.08V97.6C176.31,98.45,176.3,98.87,176.3,98.87Z"/>
	<path class="cls-8" d="M176.3,161.06c.14,0,.27-5.15.27-11.5s-.13-11.5-.27-11.5-.27,5.16-.27,11.5S176.14,161.06,176.3,161.06Z"/>
	<g id="inject-326" class="opacityAnimationIcon">
		<path class="cls-20" d="M205.9,11.47A5.89,5.89,0,0,1,202.33,6a5.56,5.56,0,0,1,11.07-1,7.48,7.48,0,0,1,0,.82,5.91,5.91,0,0,1-3.48,5.55c8.54,1.21,8.24,10.48,8.24,10.48L198,22.19S197.46,12.79,205.9,11.47Z"/>
		<path class="cls-21" d="M85.45,253H83.53l-4.18-5.82v-3.82s-3-.19-2.61,4.82,0,3.73,0,3.73-6.28,0-6.81.57-.55,6.64-.62,10a3.67,3.67,0,0,0,2.6,3.69,2.59,2.59,0,0,0,.68.09c1.56,0,9.58-1.27,9.58-1.27h3.31Z"/>
		<polygon class="cls-22" points="90.93 251.91 89.74 265.02 86.47 265.02 86.47 252.18 90.93 251.91"/>
			<path class="cls-23" d="M439.76,27a6.65,6.65,0,0,1,13.11.39A6.64,6.64,0,0,1,466,27.09a9,9,0,0,1-1.6,6.47,26.9,26.9,0,0,1-4.66,5c-2.42,2.06-4.63,4.12-7,6.18-2.36-2.14-4.38-4.12-6.75-6.3a26.41,26.41,0,0,1-4.63-5A9,9,0,0,1,439.76,27Z"/>
	</g>
		<line class="cls-4" x1="14.22" y1="380.52" x2="81.17" y2="380.52"/>
		<path class="cls-24" d="M14.22,380.52c21.6-.33,45.35-.33,67,0-21.6.33-45.35.33-66.95,0Z"/>
		<line class="cls-4" x1="100.51" y1="380.52" x2="167.46" y2="380.52"/>
		<path class="cls-24" d="M100.51,380.52c21.6-.33,45.35-.33,67,0-21.6.33-45.35.33-66.95,0Z"/>
		<line class="cls-4" x1="14.22" y1="399.4" x2="81.17" y2="399.4"/>
		<path class="cls-24" d="M14.22,399.4c21.6-.33,45.35-.33,67,0-21.6.33-45.35.33-66.95,0Z"/>
		<line class="cls-4" x1="100.51" y1="399.4" x2="167.46" y2="399.4"/>
		<path class="cls-24" d="M100.51,399.4c21.6-.33,45.35-.33,67,0-21.6.33-45.35.33-66.95,0Z"/>
		<line class="cls-4" x1="14.22" y1="418.28" x2="81.17" y2="418.28"/>
		<path class="cls-24" d="M14.22,418.28c21.6-.33,45.35-.33,67,0-21.6.33-45.35.33-66.95,0Z"/>
		<line class="cls-4" x1="100.51" y1="418.28" x2="167.46" y2="418.28"/>
		<path class="cls-24" d="M100.51,418.28c21.6-.33,45.35-.33,67,0-21.6.33-45.35.33-66.95,0Z"/>
		<circle class="cls-1" cx="156.27" cy="366.86" r="32.54"/>
		<path class="cls-12" d="M148.51,350.29a1.77,1.77,0,0,1,2.07,1.13c.18.36.34.85.64,1s.72-.16,1.1-.26a11,11,0,0,1,11.79,4.12c.56.76,1,1.61,1.48,2.42.7,1.17,1.32,2.4,2.11,3.5a10,10,0,0,0,6.13,4,3.27,3.27,0,0,1,2,1,2.74,2.74,0,0,1-.52,4l-.43.28-22.13,12.61a2.8,2.8,0,0,1-3.27-.11,2.73,2.73,0,0,1-.88-3.12,10.84,10.84,0,0,0,.56-4.86,10.25,10.25,0,0,0-1.21-3.8c-.71-1.27-1.44-2.54-2.16-3.81a11,11,0,0,1,2.57-14.21l.11-.13c-.21-.36-.4-.75-.64-1.12a1.73,1.73,0,0,1,.12-2.32Z"/>
		<path class="cls-12" d="M159.57,382l10-5.68c1.06,1.68,0,5-2.16,6.62A5.93,5.93,0,0,1,159.57,382Z"/>
		<path class="cls-8" d="M98.54,85.26l-19-18.88"/>
		<path class="cls-8" d="M95.46,90.66,70.93,79.86"/>
		<path class="cls-8" d="M93.67,96l-26.8-.76"/>
		<line class="cls-8" x1="93.55" y1="103.13" x2="70.06" y2="110.72"/>
	</g>
</g>
</svg>