<svg xmlns="http://www.w3.org/2000/svg" xmlns:xlink="http://www.w3.org/1999/xlink" viewBox="0 0 466.02 327.9">
	<defs>
		<style>
			.graph{
				animation: graphHieght 4s infinite;
                -webkit-animation: graphHieght 4s infinite;
			}
			@keyframes graphHieght {
              0% {transform: translatey(0px);}
              50% {transform: translatey(100px);}
              100% {transform: translatey(0px);}
            }
            @-webkit-keyframes graphHieght {
              0% {transform: translatey(0px);}
              50% {transform: translatey(100px);}
              100% {transform: translatey(0px);}
            }
			.cls-1{fill:none;stroke:#263238;stroke-linecap:round;stroke-linejoin:round;stroke-width:1.07px;}.cls-1,.cls-10,.cls-2,.cls-5,.cls-6,.cls-7,.cls-8,.cls-9{opacity:0.32;}.cls-3,.cls-5{fill:#263238;}.cls-10,.cls-4{fill:#fff;}.cls-6{fill:url(#linear-gradient);}.cls-7{fill:url(#linear-gradient-2);}.cls-8{fill:url(#linear-gradient-3);}.cls-9{fill:url(#linear-gradient-4);}
		</style>
		<linearGradient id="linear-gradient" x1="71.69" y1="86.14" x2="74.34" y2="325.95" gradientTransform="matrix(1, 0, 0, -1, 310.55, 418.64)" gradientUnits="userSpaceOnUse"><stop offset="0" stop-color="#00ffaf"/><stop offset="0.06" stop-color="#00edad"/><stop offset="0.32" stop-color="#00a6a7"/><stop offset="0.55" stop-color="#006ea2"/><stop offset="0.75" stop-color="#00469f"/><stop offset="0.91" stop-color="#002d9d"/><stop offset="1" stop-color="#00249c"/></linearGradient><linearGradient id="linear-gradient-2" x1="159.94" y1="85.17" x2="162.59" y2="324.97" gradientTransform="matrix(1, 0, 0, -1, 133.31, 484)" xlink:href="#linear-gradient"/><linearGradient id="linear-gradient-3" x1="247.58" y1="84.2" x2="250.23" y2="324" gradientTransform="matrix(1, 0, 0, -1, -41.86, 471.18)" xlink:href="#linear-gradient"/><linearGradient id="linear-gradient-4" x1="348.44" y1="83.08" x2="351.09" y2="322.89" gradientTransform="matrix(1, 0, 0, -1, -243.13, 428.48)" xlink:href="#linear-gradient"/>
	</defs>
	<g id="Layer_2" data-name="Layer 2">
	<g id="Layer_1-2" data-name="Layer 1">
		<polyline class="cls-1" points="0.53 327.37 465.48 327.37 465.48 0.53"/>
		<g class="cls-2">
			<rect class="cls-3" x="360.47" y="37.17" width="43.97" height="43.97" rx="4.79"/>
			<path class="cls-4" d="M379,72.9h5.53V59.05h3.86l.41-4.64H384.5V51.75c0-1.09.22-1.52,1.28-1.52h3V45.41H385c-4.11,0-6,1.82-6,5.28v3.69h-2.85v4.68H379Z"/>
		</g>
		<g>
			<rect class="cls-5" x="84.78" y="43.3" width="43.97" height="43.97" rx="4.79"/>
			<rect class="cls-5" x="185.41" y="88.62" width="43.97" height="43.97" rx="4.79"/>
		</g>
		
		<g class="cls-2">
		<rect class="cls-3" x="273" y="101.14" width="43.97" height="43.97" rx="4.79"/>
		<path class="cls-4" d="M282.17,131.4a14.55,14.55,0,0,0,8.05,2.4,15.05,15.05,0,0,0,15-15.1c0-.33,0-.67,0-1a11.51,11.51,0,0,0,2.6-2.79,10.33,10.33,0,0,1-3,.86,5.38,5.38,0,0,0,2.29-3,10.68,10.68,0,0,1-3.35,1.33,5.18,5.18,0,0,0-7.44-.2,5.45,5.45,0,0,0-1.52,5.1,14.83,14.83,0,0,1-10.83-5.62,5.45,5.45,0,0,0,1.68,7.18,5.23,5.23,0,0,1-2.38-.67,5.35,5.35,0,0,0,4.21,5.31,5,5,0,0,1-2.37,0A5.27,5.27,0,0,0,290,129,10.54,10.54,0,0,1,282.17,131.4Z"/>
		</g>
<g class="cls-2">
	<rect class="cls-4" x="195.69" y="106.53" width="5.05" height="16.32"/><path class="cls-4" d="M198.19,104.4a3.05,3.05,0,1,0-3.05-3.05h0A3.06,3.06,0,0,0,198.19,104.4Z"/><path class="cls-4" d="M208.82,114.3c0-2.31,1.05-3.66,3.05-3.66s2.75,1.31,2.75,3.66v8.55h5V112.56c0-4.36-2.49-6.5-6-6.5a5.68,5.68,0,0,0-4.91,2.72V106.6h-4.87v16.31h4.87Z"/>
</g>
<g class="graph">
	<rect class="cls-6" x="366.57" y="92.3" width="34.06" height="234.05" transform="translate(767.2 418.64) rotate(180)"/>
	<rect class="cls-7" x="277.95" y="157.65" width="34.06" height="168.7" transform="translate(589.97 484) rotate(180)"/>
	<rect class="cls-8" x="190.37" y="144.84" width="34.06" height="181.51" transform="translate(414.79 471.18) rotate(180)"/>
	<rect class="cls-9" x="89.73" y="102.13" width="34.06" height="224.22" transform="translate(213.52 428.48) rotate(180)"/>
</g>	

	<path class="cls-10" d="M115.27,56.66A12,12,0,0,0,94.7,65.17a12.1,12.1,0,0,0,1.61,6L94.6,77.44,101,75.76a12,12,0,0,0,5.76,1.47h0a12,12,0,0,0,8.52-20.57ZM106.75,75.2a9.93,9.93,0,0,1-5.1-1.4l-.36-.21-3.79,1,1-3.7-.24-.38a10,10,0,1,1,18.61-5.32A10.13,10.13,0,0,1,106.75,75.2Zm5.5-7.5c-.3-.15-1.78-.88-2.06-1s-.48-.15-.68.15-.78,1-1,1.19-.36.22-.66.07a8.14,8.14,0,0,1-4.09-3.58c-.31-.53.31-.49.88-1.64a.55.55,0,0,0,0-.53c-.07-.15-.67-1.63-.92-2.24s-.5-.5-.68-.51h-.58a1.1,1.1,0,0,0-.8.37,3.38,3.38,0,0,0-1.05,2.51,6,6,0,0,0,1.22,3.12A13.43,13.43,0,0,0,107,70.17c1.91.82,2.66.89,3.61.75a3,3,0,0,0,2-1.43,2.6,2.6,0,0,0,.18-1.43C112.75,67.92,112.54,67.85,112.25,67.7Z"/>


</g>
</g>
</svg>