<svg xmlns="http://www.w3.org/2000/svg" xmlns:xlink="http://www.w3.org/1999/xlink" viewBox="0 0 391.69 438.79">
	<defs>
		<style>
			.questionThink{
			animation: ques 4s infinite;
                -webkit-animation: ques 4s infinite;
			}
			@keyframes ques {
              0% {transform: translateX(0px); opacity:1;}
              50% {transform: translateX(20px); opacity:0;}
              100% {transform: translateX(-10px); opacity:1;}
            }
            @-webkit-keyframes ques {
              0% {transform: translateX(0px); opacity:1;}
              50% {transform: translateX(20px); opacity:0;}
              100% {transform: translateX(-10px); opacity:1;}
            }
           .light{
				animation: lightD 4s;
	            -webkit-animation: lightD 4s;
			}
			@keyframes lightD {
              0% {transform: translatey(50px);}
              100% {transform: translatey(0px);}
            }
            @-webkit-keyframes lightD {
              0% {transform: translatey(50px);}
              100% {transform: translatey(0px);}
            }
			 #Layer_2{
				animation: lightD 2s;
	            -webkit-animation: lightD 2s;
			}
			@keyframes lightD {
              0% {transform: translatey(100px);}
              100% {transform: translatey(0px);}
            }
            @-webkit-keyframes lightD {
              0% {transform: translatey(100px);}
              100% {transform: translatey(0px);}
            }
            
			.cls-1{fill:#e0e0e0;}.cls-2{fill:#ebebeb;}.cls-3{fill:#f5f5f5;}.cls-4{fill:url(#linear-gradient);}.cls-5{fill:#407bff;}.cls-6{fill:url(#linear-gradient-2);}.cls-7{fill:#dc897c;}.cls-8{fill:#e4897b;}.cls-9{fill:url(#linear-gradient-3);}.cls-10,.cls-12{isolation:isolate;}.cls-10{opacity:0.2;}.cls-11{fill:#263238;}.cls-12,.cls-14{fill:#fafafa;}.cls-12,.cls-13{opacity:0.6;}.cls-15{fill:url(#linear-gradient-4);}.cls-16{fill:url(#linear-gradient-5);}.cls-17{fill:#de5753;}
		</style>
		<linearGradient id="linear-gradient" x1="29.8" y1="97.33" x2="82.33" y2="97.33" gradientUnits="userSpaceOnUse"><stop offset="0" stop-color="#00ffaf"/><stop offset="0.06" stop-color="#00edad"/><stop offset="0.32" stop-color="#00a6a7"/><stop offset="0.55" stop-color="#006ea2"/><stop offset="0.75" stop-color="#00469f"/><stop offset="0.91" stop-color="#002d9d"/><stop offset="1" stop-color="#00249c"/></linearGradient><linearGradient id="linear-gradient-2" x1="324.26" y1="-14.23" x2="321.2" y2="111.39" xlink:href="#linear-gradient"/><linearGradient id="linear-gradient-3" x1="245.85" y1="306.41" x2="325.52" y2="306.41" xlink:href="#linear-gradient"/><linearGradient id="linear-gradient-4" x1="141.75" y1="250.85" x2="249.06" y2="250.85" xlink:href="#linear-gradient"/><linearGradient id="linear-gradient-5" x1="86.75" y1="312.8" x2="193.27" y2="312.8" xlink:href="#linear-gradient"/>
	</defs>
	<g id="Layer_2" data-name="Layer 2">
		<g id="Layer_1-2" data-name="Layer 1">
			<g class="light">
				<path class="cls-1" d="M87,139.15c1.26,6.23-6.29,13-16.85,15.16s-20.14-1.2-21.4-7.43,6.28-13,16.84-15.23S85.74,132.91,87,139.15Z"/>
				<path class="cls-2" d="M91.08,116.77a5.56,5.56,0,0,0,1-4.09c-1.24-6.13-15.23-8.45-31.35-5.22s-28.1,10.86-26.87,17a5.68,5.68,0,0,0,2.48,3.39,4.58,4.58,0,0,0-.1,2,5.44,5.44,0,0,0,2.5,3.32,4.36,4.36,0,0,0-.13,2.12,5.32,5.32,0,0,0,2.55,3.28,4.22,4.22,0,0,0-.17,2.14A5.23,5.23,0,0,0,43.54,144a4.08,4.08,0,0,0-.21,2.19c1,5.09,12.7,7,26.06,4.33s23.37-9,22.34-14.11a4.15,4.15,0,0,0-1-1.94,5.08,5.08,0,0,0,1.12-4,4.18,4.18,0,0,0-1-1.93,5.35,5.35,0,0,0,1.06-4,4.49,4.49,0,0,0-.92-1.9,5.47,5.47,0,0,0,1-4A4.74,4.74,0,0,0,91.08,116.77Z"/>
				<path class="cls-3" d="M104.22,57.49a52.61,52.61,0,1,0-76.14,56.76,8.6,8.6,0,0,1,4.61,6.68v.42c1.26,6.23,15.52,8.6,31.84,5.3s28.53-11.07,27.27-17.23a.59.59,0,0,0-.1-.4,8.72,8.72,0,0,1,1.71-8A52.53,52.53,0,0,0,104.22,57.49Z"/>
				<path class="cls-4" d="M71.88,116.48h-.13a.64.64,0,0,1-.66-.6c0-1-1.29-24.17,8.68-35.26l-7.64,1.54a.59.59,0,0,1-.64-.26L67.7,76.36,64.35,89.72a.68.68,0,0,1-.49.47.62.62,0,0,1-.63-.24L54.92,78.88,51.27,90.77a.58.58,0,0,1-.49.43.68.68,0,0,1-.61-.21l-8-9.58-1.39,6.65a.56.56,0,0,1-.48.48L32,90.2c4.16,3,17.46,13.51,20.67,29.43a.63.63,0,1,1-1.23.25h0C47.75,101.55,30.28,90.52,30.1,90.42a.62.62,0,0,1-.2-.87.64.64,0,0,1,.41-.29l9.29-1.87,1.55-7.5a.61.61,0,0,1,.45-.49h0a.62.62,0,0,1,.64.21l8,9.59L54,77.26a.62.62,0,0,1,.77-.43.58.58,0,0,1,.34.23l8.31,11.08,3.38-13.39a.61.61,0,0,1,.49-.45.6.6,0,0,1,.63.26l4.34,6.31L81.57,79a.61.61,0,0,1,.69.33.62.62,0,0,1-.14.75C71,90,72.34,115.58,72.35,115.84A.63.63,0,0,1,71.88,116.48Z"/>
			</g>	
			<g class="questionThink">
				<path class="cls-5" d="M276.44,113.82c0,2.26-2.62,4.09-5.85,4.09s-5.84-1.83-5.84-4.09,2.62-4.09,5.84-4.09S276.44,111.56,276.44,113.82Z"/>
				<path class="cls-3" d="M391.69,61.76c0-8.1-4.24-15.43-11.08-20.69a16.17,16.17,0,0,0,.35-3.25C381,27,370,18.25,356.32,18,352.16,7.54,339.81,0,325.17,0c-11.66,0-21.89,4.82-27.69,12.06a34.31,34.31,0,0,0-4.42-.31c-13.92,0-25.22,8.89-25.22,19.85a15.85,15.85,0,0,0,1,5.45c-8.87,4.66-14.73,12.61-14.73,21.63,0,8.7,5.43,16.38,13.76,21.1v.28c0,10.64,10.63,19.38,24,19.82,7.36,7.2,18.66,11.81,31.32,11.81a47.63,47.63,0,0,0,23.76-6.12,32.87,32.87,0,0,0,3.43.2c13.93,0,25.23-8.89,25.23-19.86v-.19C385.33,80.46,391.69,71.7,391.69,61.76Z"/>
				<path class="cls-3" d="M276.44,113.82c0,2.26-2.62,4.09-5.85,4.09s-5.84-1.83-5.84-4.09,2.62-4.09,5.84-4.09S276.44,111.56,276.44,113.82Z"/>
				<path class="cls-3" d="M281.58,117.4c0,5.25-6.1,9.5-13.63,9.5s-13.6-4.22-13.6-9.5,6.11-9.49,13.64-9.49S281.58,112.2,281.58,117.4Z"/>
				<path class="cls-6" d="M323.58,20.05c13.47,0,21.8,6.32,21.8,17.58,0,15.22-15.48,17.18-15.48,28.93H316.54c0-15.46,12.36-16.38,12.36-26,0-4.16-2.61-6.13-7-6.13-4.93,0-7.54,2.9-7.64,8.94H300.47C300.57,28.59,309.21,20.05,323.58,20.05Zm8.05,62.8A8.6,8.6,0,1,1,323,74.26,8.6,8.6,0,0,1,331.63,82.85Z"/>	
			</g>
			<path class="cls-7" d="M272.1,252c15.28,19.85,31.57,40.7,51.3,55.79a39.37,39.37,0,0,0,11.67,6.29c.3.09,0,.24-.34.48s-.21.21-.21.35-.53.48-.67.6a10,10,0,0,0-3.09,6.35c0,.48.11.45.11.14-1.05-7.94-5.87-15.75-9.94-23.15-16.46-27.81-37.17-53.8-57.06-79.67L279.39,204a522,522,0,0,1,49.32,47.87c11.87,13.27,23.45,27.21,32.46,43.23,8.95,15.33,14.29,37.07-1.64,50.58a39.3,39.3,0,0,1-25.16,9.15c-30.18-.41-57.77-28.87-76.27-49.32A310.21,310.21,0,0,1,236,277.26l36-25.23Z"/>
			<path class="cls-8" d="M228.23,185.78l18.19-.88a9.76,9.76,0,0,1,5.73,1.55l28.17,18.26-4.67,19.64c-17.55,11.07-32.54.9-37.13-2.88a9.41,9.41,0,0,0-3.64-1.86l-10-2.67a9.69,9.69,0,0,1-7.14-10.35L219,194.52A9.69,9.69,0,0,1,228.23,185.78Z"/>
			<path class="cls-9" d="M325.52,307.78l-18.24,58.13s-2.06-1.08-5.4-3c-8.81-4.95-26.64-15.33-39.82-25.63-7.65-6-13.79-11.9-15.52-16.73-6.12-16.21,30.32-73.68,30.32-73.68,11.45,2.86,25.35,23.62,25.35,23.62S321.12,297.21,325.52,307.78Z"/><path class="cls-10" d="M301.88,363c-8.81-4.95-26.64-15.33-39.82-25.63a104.48,104.48,0,0,1,1.88-24.45S293.22,329.46,301.88,363Z"/>
			<path class="cls-11" d="M276.84,246.93s25.37,23.6,11.92,191.86H118.61c-1-24.71,8.53-72.48-15-189,0,0,6.6-8.07,58.54-11.5,20.56-1.37,50.37-1.52,68.44.17C246.19,240.07,264.43,242.9,276.84,246.93Z"/>
			<path class="cls-12" d="M118.61,438.79c0-4.77.11-20.13.11-25.22,0-5.88-.09-11.95-.23-18.18,0-4.62-.2-9.31-.36-14.09-.57-17-1.58-35-3.27-53.58a736.73,736.73,0,0,0-11.3-78.94s6.62-8.07,58.63-11.5c20.56-1.37,50.36-1.54,68.46.17a302.73,302.73,0,0,1,46.27,8.47s18.83,48.64,15.62,141q-.33,9.22-1,19c-.36,5.3-2.35,27.37-2.83,32.92"/>
			<path class="cls-10" d="M136.59,321.35s-1.43,38.42-16.78,61c-.57-17-1.58-35-3.27-53.58C122.83,324,129.68,321.11,136.59,321.35Z"/>
			<g class="cls-13">
				<path class="cls-14" d="M292.53,385.93q-.33,6.81-.95,14l-16.9,14.68L250.4,393.54l-24.24,21.11L201.9,393.58l-24.27,21.07-24.26-21.07-24.3,21.07-10.34-9c0-4.34-.09-8.82-.23-13.41l10.64,9.24,24.25-21.08,24.26,21.08,24.26-21.08,24.27,21.08,24.24-21.08,24.28,21.08Z"/>
			</g>
			<g class="cls-13">
				<path class="cls-14" d="M290.34,412c-.6,4.89-1.29,9.91-2.15,15.07l-13.51,11.75L250.4,417.71l-24.24,21.08L201.9,417.71l-24.27,21.08-24.26-21.08-24.3,21.08-10.67-9.27c.1-4.12.21-8.46.24-13l10.43,9,24.25-21.07,24.26,21.07,24.26-21.07,24.27,21.07,24.24-21.07,24.28,21.07Z"/>
			</g>
				<path class="cls-8" d="M160.11,167.26c6.35,21.54,14.4,61.3.43,77.37,21.85,6.9,37.58,11.56,56.91,25.87,5.07-14.05,11.26-32.28,11.26-32.28-25-3.55-26.07-21.75-23.4-39.18Z"/>
				<path class="cls-10" d="M178.46,180.24l26.75,18.82a67.26,67.26,0,0,0-1,12.27c-9.47-.46-23.26-9.51-25.18-19.21A33,33,0,0,1,178.46,180.24Z"/>
				<polygon class="cls-15" points="141.75 239.93 157.18 225.42 198.53 239.62 216.61 267.4 223.35 239.24 232.69 230.8 249.06 240.82 246.53 258.67 234.69 252.88 220.4 276.28 188.45 257.51 179.53 266.07 141.75 239.93"/>
				<polygon class="cls-10" points="220.4 276.28 228.75 247.03 246.53 258.67 234.69 252.88 220.4 276.28"/>
				<polygon class="cls-10" points="220.4 276.28 192.24 248.69 179.53 266.07 188.45 257.51 220.4 276.28"/>
				<path class="cls-7" d="M152.28,296.35c10.35,12.47,24.49,29.78,35,41.68,12.5,13.9,24.93,28.66,40.05,39.32.59.36-.08,0-.37,0a1.8,1.8,0,0,0-.5-.11c-.14,0,0,0,0,.09,6.79,1.5,14.43-.09,21.69-1.07,22.12-3.73,43.89-10,66-15.69l8.71,19.95a285.69,285.69,0,0,1-25.45,13.79C275.65,404.52,236,423,212,413.92a108.08,108.08,0,0,1-24.61-15.79,349.59,349.59,0,0,1-32.42-30.7c-9.95-10.57-19.36-21.38-28.43-32.66-3.06-3.76-5.92-7.45-8.95-11.49l34.74-26.93Z"/>
				<path class="cls-16" d="M89.31,269.72c-17.64,55.91,61.61,110.64,61.61,110.64l42.35-48.14s-18.65-34.49-39.8-65.15C131.35,235,98.6,240.3,89.31,269.72Z"/>
				<path class="cls-8" d="M310.71,363.15l29.8-30.93,22.52,30s-17.78,24.62-42,18.21Z"/>
				<polygon class="cls-8" points="369.56 322.73 381 349.15 363.03 362.26 340.51 332.22 369.56 322.73"/>
				<path class="cls-11" d="M217.62,87.26c15.33,6,25.87,47.82,7.23,57.89S188.57,75.88,217.62,87.26Z"/><path class="cls-8" d="M151.49,136.46c7.93,29.31,11.11,46.71,29.32,59.32,27.31,19,61.21-.86,62.2-31.57.89-27.6-12.25-70.86-43.8-77.6C168.13,79.93,143.59,107.21,151.49,136.46Z"/>
				<path class="cls-11" d="M177.67,98.76,174.43,73a34.29,34.29,0,0,1-20.78,3.9c-31-5.33-53.2,15.69-37.94,32-14,7.12-4.86,26.4,5.55,38.41,14.47,16.71,29.32,24.14,38.63,15.52,8.62-4.85,8.14-35.48,4.53-46.56C159,99.47,177.67,98.76,177.67,98.76Z"/>
				<path class="cls-8" d="M146.32,167.67a32.48,32.48,0,0,0,19.35,10.21c9.39,1.12,11.05-7.64,5.89-15.74-4.65-7.3-15.15-16.66-23.36-14S139.89,160.72,146.32,167.67Z"/>
				<path class="cls-11" d="M196.41,137c.5,2.4,2.19,4.14,3.78,3.86s2.47-2.45,2-4.84-2.19-4.14-3.77-3.88S195.93,134.6,196.41,137Z"/>
				<path class="cls-11" d="M223.8,132.32c.5,2.41,2.17,4.14,3.76,3.86s2.46-2.43,2-4.84-2.19-4.14-3.76-3.87S223.3,129.94,223.8,132.32Z"/>
				<path class="cls-17" d="M217.28,135s8.38,12.93,15.83,18.61c-3.45,4.7-11.12,4.14-11.12,4.14Z"/><path class="cls-11" d="M205.19,124.39a1.48,1.48,0,0,1,.59.43,1.45,1.45,0,0,1-.26,2h0a13.78,13.78,0,0,1-12.78,2.5,1.41,1.41,0,0,1-.88-1.79l0,0a1.43,1.43,0,0,1,1.84-.86,11,11,0,0,0,10-2.07A1.39,1.39,0,0,1,205.19,124.39Z"/><path class="cls-11" d="M231.69,119.2a1.42,1.42,0,0,1-1.31-.31,12.14,12.14,0,0,0-10.19-3.12,1.46,1.46,0,0,1-1.86-.87,1.45,1.45,0,0,1,.87-1.85,1.38,1.38,0,0,1,.29-.08h0a14.85,14.85,0,0,1,12.77,3.76,1.45,1.45,0,0,1,.14,2A1.57,1.57,0,0,1,231.69,119.2Z"/>
				<path class="cls-11" d="M152,80.29s21.42-41.38,61.28-32.92c0,0-7.62,1.73-10.86,4.61,0,0,34.8-3,45.65,21.42l-6.66-3.92s8.86,20.26-1.52,33.61l-2-6.71s-14.24,17.68-35.5,12.66l7.34-3.72s-36.62-1.13-45.69-10.47S152,80.29,152,80.29Z"/>
				<path class="cls-11" d="M225.64,170.4a1.19,1.19,0,0,1-.86-.37c-5.4-5.84-14.87-3.6-14.95-3.58a1.19,1.19,0,0,1-1.32-1,1.17,1.17,0,0,1,.75-1.25c.45-.11,10.88-2.59,17.24,4.26a1.16,1.16,0,0,1,0,1.64A1.22,1.22,0,0,1,225.64,170.4Z"/>
			</g>
		</g>
	</svg>