<svg xmlns="http://www.w3.org/2000/svg" xmlns:xlink="http://www.w3.org/1999/xlink" viewBox="0 0 393.44 71.19"><defs><style>.cls-1{fill:#e9e9e9;}.cls-2{fill:#545454;}.cls-3{fill:none;}.cls-4{fill:url(#linear-gradient);}.cls-5{fill:url(#linear-gradient-2);}.cls-6{fill:url(#linear-gradient-3);}</style><linearGradient id="linear-gradient" x1="183.07" y1="49.18" x2="202.09" y2="49.18" gradientUnits="userSpaceOnUse"><stop offset="0" stop-color="#00ffaf"/><stop offset="0.06" stop-color="#00edad"/><stop offset="0.32" stop-color="#00a6a7"/><stop offset="0.55" stop-color="#006ea2"/><stop offset="0.75" stop-color="#00469f"/><stop offset="0.91" stop-color="#002d9d"/><stop offset="1" stop-color="#00249c"/></linearGradient><linearGradient id="linear-gradient-2" x1="52.44" y1="7" x2="66.44" y2="7" xlink:href="#linear-gradient"/><linearGradient id="linear-gradient-3" x1="36.21" y1="42.13" x2="50.21" y2="42.13" xlink:href="#linear-gradient"/></defs><g id="Layer_2" data-name="Layer 2"><g id="Layer_1-2" data-name="Layer 1"><path class="cls-1" d="M319.13,17.36l3.75,12.15H335L325.2,37,329,49.18l-9.83-7.51-9.83,7.51L313.05,37l-9.83-7.51h12.15Z"/><path class="cls-1" d="M370.59,17.36l3.75,12.15H386.5L376.66,37l3.76,12.16-9.83-7.51-9.83,7.51L364.51,37l-9.83-7.51h12.15Z"/><path class="cls-2" d="M101.71,8.39H.94a.94.94,0,0,1,0-1.88H101.71a.94.94,0,0,1,0,1.88"/><path class="cls-2" d="M101.71,43.08H.94a.95.95,0,0,1,0-1.89H101.71a.95.95,0,0,1,0,1.89"/><path class="cls-2" d="M101.71,8.39H.94a.94.94,0,0,1,0-1.88H101.71a.94.94,0,0,1,0,1.88"/><path class="cls-2" d="M101.71,43.08H.94a.95.95,0,0,1,0-1.89H101.71a.95.95,0,0,1,0,1.89"/><rect class="cls-3" y="0.7" width="393.44" height="70.49"/><rect class="cls-3" y="0.7" width="393.44" height="70.49"/><circle class="cls-4" cx="192.58" cy="49.18" r="9.51"/><circle class="cls-5" cx="59.44" cy="7" r="7"/><circle class="cls-6" cx="43.21" cy="42.13" r="7"/></g></g></svg>