<svg xmlns="http://www.w3.org/2000/svg" xmlns:xlink="http://www.w3.org/1999/xlink" viewBox="0 0 251.94 190.11"><defs><style>.cls-1{fill:none;}.cls-2{fill:url(#linear-gradient);}.cls-3{opacity:0.37;}.cls-4{clip-path:url(#clip-path);}.cls-5{clip-path:url(#clip-path-2);}.cls-6{fill:url(#linear-gradient-2);}.cls-7{fill:#fff;}.cls-8{clip-path:url(#clip-path-3);}.cls-9{clip-path:url(#clip-path-4);}.cls-10{fill:url(#linear-gradient-3);}.cls-11{opacity:0.13;}.cls-12{clip-path:url(#clip-path-5);}.cls-13{fill:#545454;}</style><linearGradient id="linear-gradient" x1="0.8" y1="61.92" x2="127.57" y2="61.92" gradientUnits="userSpaceOnUse"><stop offset="0" stop-color="#00ffaf"/><stop offset="0.06" stop-color="#00edad"/><stop offset="0.32" stop-color="#00a6a7"/><stop offset="0.55" stop-color="#006ea2"/><stop offset="0.75" stop-color="#00469f"/><stop offset="0.91" stop-color="#002d9d"/><stop offset="1" stop-color="#00249c"/></linearGradient><clipPath id="clip-path"><rect class="cls-1" x="58.06" y="93.45" width="28.81" height="29.62"/></clipPath><clipPath id="clip-path-2"><rect class="cls-1" x="61.14" y="98.62" width="22.64" height="19.27" transform="matrix(0.58, -0.82, 0.82, 0.58, -57.76, 104.79)"/></clipPath><linearGradient id="linear-gradient-2" x1="-174.8" y1="481.37" x2="-174.72" y2="481.37" gradientTransform="matrix(28.81, 0, 0, -29.62, 5036.61, 14364.52)" gradientUnits="userSpaceOnUse"><stop offset="0" stop-color="#00ffa7"/><stop offset="0.06" stop-color="#00f1a7"/><stop offset="0.32" stop-color="#00a8a8"/><stop offset="0.55" stop-color="#006fa6"/><stop offset="0.75" stop-color="#0044a4"/><stop offset="0.91" stop-color="#0028a2"/><stop offset="1" stop-color="#011da2"/></linearGradient><clipPath id="clip-path-3"><rect class="cls-1" x="98.76" y="36" width="28.81" height="29.62"/></clipPath><clipPath id="clip-path-4"><rect class="cls-1" x="101.85" y="41.18" width="22.64" height="19.27" transform="matrix(0.58, -0.82, 0.82, 0.58, 6.28, 113.77)"/></clipPath><linearGradient id="linear-gradient-3" x1="-176.22" y1="481.37" x2="-176.14" y2="481.37" gradientTransform="matrix(28.81, 0, 0, -29.62, 5077.32, 14307.08)" xlink:href="#linear-gradient-2"/><clipPath id="clip-path-5"><rect class="cls-1" x="32.28" y="0.41" width="95.13" height="49.94"/></clipPath></defs><g id="Layer_2" data-name="Layer 2"><g id="Layer_1-2" data-name="Layer 1"><path class="cls-2" d="M29.37,34.58h0a23.89,23.89,0,0,0,5.68,33.29h0l51.82,36.72L73.78,123.06,20.42,85.26A46.53,46.53,0,0,1,74.23,9.33l53.34,37.81L114.48,65.62,62.67,28.9a23.89,23.89,0,0,0-33.3,5.68"/><g class="cls-3"><g class="cls-4"><g class="cls-5"><rect class="cls-6" x="58.06" y="93.45" width="28.81" height="29.62"/></g></g></g><path class="cls-7" d="M71.15,92.66a.8.8,0,0,1,.45.14l15.72,11.14a.78.78,0,0,1,.19,1.1h0L74.42,123.52a.79.79,0,0,1-.51.32.77.77,0,0,1-.59-.13L57.6,112.57a.8.8,0,0,1-.32-.51.77.77,0,0,1,.13-.59L70.5,93a.78.78,0,0,1,.51-.32h.14m14.62,12.12L71.33,94.55,59.15,111.74,73.59,122Z"/><g class="cls-3"><g class="cls-8"><g class="cls-9"><rect class="cls-10" x="98.76" y="36" width="28.81" height="29.62"/></g></g></g><path class="cls-7" d="M111.85,35.21a.81.81,0,0,1,.46.15L128,46.5a.79.79,0,0,1,.19,1.1h0L115.13,66.07a.79.79,0,0,1-1.1.19h0L98.31,55.12a.76.76,0,0,1-.32-.51.77.77,0,0,1,.13-.59l13.09-18.47a.77.77,0,0,1,.51-.33h.13m14.62,12.12L112,37.1,99.86,54.29,114.3,64.51Z"/><path class="cls-7" d="M10.06,18.65a.81.81,0,0,1,.46.14L30.49,33a.79.79,0,0,1-.91,1.29l-20-14.23A.79.79,0,0,1,9.42,19a.77.77,0,0,1,.64-.33"/><path class="cls-7" d="M4.77,38.65a.27.27,0,0,1,.25.17L21.36,81.64a.26.26,0,1,1-.49.19L4.53,39a.25.25,0,0,1,.15-.34h0l.09,0"/><path class="cls-7" d="M6.74,31.69a.26.26,0,0,1,.24.17l20.7,54.22a.27.27,0,0,1-.15.35.27.27,0,0,1-.34-.15h0L6.49,32.05a.27.27,0,0,1,.15-.34h0l.1,0"/><path class="cls-7" d="M9.7,26.29a.27.27,0,0,1,.25.17L34.47,90.7a.25.25,0,0,1-.14.34.26.26,0,0,1-.34-.13v0L9.46,26.65a.26.26,0,0,1,.15-.34h0l.09,0"/><path class="cls-7" d="M14.68,26.29a.27.27,0,0,1,.25.17l7.28,18.72a.26.26,0,0,1-.15.34.25.25,0,0,1-.34-.14h0L14.44,26.65a.26.26,0,0,1,.15-.34l.1,0"/><path class="cls-7" d="M21.1,30.88a.27.27,0,0,1,.25.17l2.45,6.3a.26.26,0,0,1-.49.19l-2.45-6.3A.26.26,0,0,1,21,30.9h0a.15.15,0,0,1,.09,0"/><path class="cls-7" d="M4.61,50.73a.27.27,0,0,1,.24.17l8.34,21.85a.27.27,0,0,1-.15.34.27.27,0,0,1-.34-.15L4.36,51.09a.25.25,0,0,1,.15-.34h0l.09,0"/><path class="cls-7" d="M31.6,69.12a.28.28,0,0,1,.26.19c2.92,9,6.12,18,9.52,26.9a.26.26,0,0,1-.13.34.27.27,0,0,1-.35-.13v0c-3.4-8.85-6.61-17.91-9.54-26.92a.27.27,0,0,1,.17-.33l.09,0"/><path class="cls-7" d="M38.32,73.76a.26.26,0,0,1,.25.18l8.74,26.25a.26.26,0,0,1-.16.33.26.26,0,0,1-.33-.16h0L38.07,74.11a.27.27,0,0,1,.17-.33h.09"/><path class="cls-7" d="M44.68,78.29a.27.27,0,0,1,.25.18l9,26.56a.26.26,0,1,1-.5.17h0l-9-26.56a.25.25,0,0,1,.16-.33h0l.09,0"/><path class="cls-7" d="M51.43,83.05a.25.25,0,0,1,.25.18c2.22,7.19,4.7,14.39,7.38,21.42a.26.26,0,0,1-.13.34.27.27,0,0,1-.35-.13v0c-2.68-7-5.17-14.25-7.39-21.44a.27.27,0,0,1,.17-.33h.08"/><path class="cls-7" d="M58.28,87.47a.26.26,0,0,1,.25.19c1.2,4,2.52,8,3.92,11.88a.26.26,0,0,1-.17.33.26.26,0,0,1-.32-.16c-1.4-3.92-2.73-7.92-3.93-11.9a.27.27,0,0,1,.17-.33h.08"/><path class="cls-7" d="M63.87,91.54a.27.27,0,0,1,.25.17l1.25,3.34a.27.27,0,0,1-.16.34.27.27,0,0,1-.34-.16l-1.24-3.34a.26.26,0,0,1,.15-.33.15.15,0,0,1,.09,0"/><g class="cls-11"><g class="cls-12"><path class="cls-13" d="M125.52,45.07a2.72,2.72,0,0,1,1.1,4.51,2.79,2.79,0,0,1-4-.13,2.84,2.84,0,0,1-.45-.64c-1-.77-1.15-1.09-1.61-1.4-2.73-2-5.6-3.69-8.39-5.56-7.56-5-15.1-10.39-19.66-13.89-6.81-5.12-13.13-10.16-21.67-15-5.81-3.39-15-6.63-20.18-7.2a15.35,15.35,0,0,0-2.44-.2,67.93,67.93,0,0,0-6.84.19c-1.94.1-3.87.27-5.82.27a4.27,4.27,0,0,1-1.91-.2,2.34,2.34,0,0,1,.9-4.48C40,1.36,45.34.46,50.72.41a40,40,0,0,1,12,2.79c11.16,3.86,20.67,11,29.87,18.25,4.78,3.77,16.95,12.17,21.82,15.93a120.18,120.18,0,0,0,10,7.11l.63.34c.12,0,.12.05.07,0h0l-.05,0,.56.23"/></g></g><path class="cls-13" d="M246.59,190.11H43.52a.79.79,0,1,1,0-1.58H245.8V34.34a.79.79,0,1,1,1.58,0v155a.8.8,0,0,1-.79.79"/><path class="cls-7" d="M251.15,36.65a4.87,4.87,0,1,0-4.87,4.86h0a4.87,4.87,0,0,0,4.87-4.86h0"/><path class="cls-13" d="M246.28,42.3a5.66,5.66,0,1,1,5.66-5.66h0a5.66,5.66,0,0,1-5.66,5.65m0-9.73a4.08,4.08,0,1,0,4.08,4.08h0a4.08,4.08,0,0,0-4.08-4.08"/><path class="cls-13" d="M178.39,122.77h0a.83.83,0,0,1-.68-.41L169.94,108a.79.79,0,1,1,1.39-.75l7.1,13.19,8-13.23a.79.79,0,0,1,1.35.82l-8.73,14.41a.79.79,0,0,1-.68.38"/><path class="cls-13" d="M158.51,116.17H111.07a.79.79,0,0,1,0-1.58h47.44a.79.79,0,0,1,0,1.58"/><path class="cls-13" d="M178.39,151.82h0a.79.79,0,0,1-.68-.41L169.94,137a.79.79,0,0,1,1.39-.75h0l7.1,13.19,8-13.23a.79.79,0,0,1,1.35.82l-8.73,14.41a.82.82,0,0,1-.68.38"/><path class="cls-13" d="M158.51,145.23H111.07a.79.79,0,0,1,0-1.58h47.44a.79.79,0,0,1,0,1.58"/><rect class="cls-1" width="251.93" height="190.11"/><rect class="cls-1" width="251.93" height="190.11"/></g></g></svg>