<svg xmlns="http://www.w3.org/2000/svg" viewBox="0 0 90.35 56.61"><defs><style>.cls-1{fill:#ebebeb;}.cls-2{fill:#f5f5f5;}</style></defs><g id="Layer_2" data-name="Layer 2"><g id="Layer_1-2" data-name="Layer 1"><path class="cls-1" d="M90.35,31.19s-8.06,4-18.61,10.23C58.88,49.05,32.41,64.07,15.49,52.21L0,21.8s9.94,4.56,25.07,2.59c13.49-1.75,24.3-8.86,29.16-12.14,2-1.32,4.55-3.12,6.59-4.33,3.4-2,7.47-5,13.42-7.92Z"/><path class="cls-2" d="M34.88,38.63c-1.12-6.41,3.44-12.57,10.19-13.75s13.13,3.05,14.26,9.46S55.88,46.91,49.15,48.09,36,45,34.88,38.63Z"/><path class="cls-2" d="M17.16,52.37l.21.12c.5.3,12.57,7.17,34.09-2.62A163.13,163.13,0,0,0,74.57,37c4.66-3,8-5.21,11.72-6.19l1-.26-14-28.63-.79.56c-.23.16-22.94,15.94-33.06,20.09-8,3.29-23.23,8-34.69,2.75l-2.2-1Zm23-28.27c7.31-3,20.6-11.63,28-16.62A5.2,5.2,0,0,0,75,9.21l7.62,15.67a4.31,4.31,0,0,0-2.52,2.87,6.18,6.18,0,0,0,.2,3.73c-2,1.1-4.17,2.48-6.68,4.11A159.15,159.15,0,0,1,50.75,48.36c-10.81,4.92-19.09,5.39-24.14,4.92a28.54,28.54,0,0,1-3.9-.63,7.51,7.51,0,0,0-6.44-5.57L8.14,31.42c.83-.06,1.91-.56,2.13-2.67,10.82,2,22.91-1.82,29.84-4.65Z"/><path class="cls-1" d="M50.8,42.3a1,1,0,0,1-.24-.07c-1.94-.9-3.88-1.8-5.86-2.6a.49.49,0,0,1-.25-.24c-.13-.29-.26-.58-.4-.86a.31.31,0,0,1,.18-.47c.44-.21.88-.41,1.3-.64a2.86,2.86,0,0,0,1.19-1.12,1.64,1.64,0,0,0,.19-1,.15.15,0,0,1,0-.08l-.14.07-3.12,1.44c-.26.13-.37.09-.49-.18l-.3-.65c-.11-.23-.07-.35.16-.45L46,34l.14-.07a1.45,1.45,0,0,0-.8-.31,3,3,0,0,0-1.4.27c-.46.19-.9.41-1.35.61-.27.12-.39.08-.51-.18l-.42-.9a.28.28,0,0,1,.16-.44l6.43-3a.29.29,0,0,1,.44.16l.33.71a.28.28,0,0,1-.16.43l-1.64.76-.13.06c.15.11.3.2.43.31s.34.33.51.51.1.08.18,0l1.18-.55c.22-.1.34-.06.45.17l.33.71a.27.27,0,0,1-.16.41l-1.17.55c-.08,0-.11.07-.08.16a3.22,3.22,0,0,1-.18,2.18,4.12,4.12,0,0,1-1.29,1.55l-.47.34.13.06c1.82.75,3.6,1.6,5.38,2.45.21.1.24.25.11.48Z"/></g></g></svg>