<svg xmlns="http://www.w3.org/2000/svg" viewBox="0 0 77.73 63.2"><defs><style>.cls-1{fill:#ebebeb;}.cls-2{fill:#f5f5f5;}</style></defs><g id="Layer_2" data-name="Layer 2"><g id="Layer_1-2" data-name="Layer 1"><path class="cls-1" d="M0,63.2s-.25-23.81,30.31-35a18,18,0,0,0,3.35-1.58A19.51,19.51,0,0,0,41,19.31c2.9-5.68,7-13.82,7-13.82L77.73,0s-3,13.17-10.52,20.61S44.58,29.72,37.4,39.91a30.45,30.45,0,0,0-6,17.45Z"/><path class="cls-2" d="M49.92,25c-.19,1.56-6.14,5.46-13.28,8.72S23.88,38.36,24.07,36.8s6.14-5.47,13.28-8.72S50.11,23.44,49.92,25Z"/><path class="cls-2" d="M48.93,7.09l-.12.29a91.59,91.59,0,0,1-7.65,14.37,16.37,16.37,0,0,1-6.3,5.61l-1.71,1a40.14,40.14,0,0,1-5,2.38c-3.8,1.63-8.51,3.66-12.3,6.76l-.09.07c-.11.08-11,8.07-13.48,21.87l-.15.83L29,55.63l.05-.44c0-.17,2-16.95,17.61-24.87,1.85-.94,3.58-1.79,5.2-2.59C64.64,21.44,71,18.31,76,3L76.31,2Zm2.45,19.59c-1.62.8-3.36,1.66-5.2,2.6C35.58,34.67,31,44,29.18,49.84a6.29,6.29,0,0,0-5.24,5.49L8.19,58.07c.48-3.46-2-4-3.2-4A37.19,37.19,0,0,1,16.47,38.53c3.71-3.05,8.38-5.07,12.14-6.68a40.84,40.84,0,0,0,5.17-2.47c.62-.39,1.18-.73,1.7-1,2.73-1.66,4.38-2.66,6.65-5.94a81.66,81.66,0,0,0,6-10.63c1.29,0,4.29-.49,5.91-4.45l16-3c-.46,1-.8,3,2.92,3.54C68.3,18.31,62.17,21.36,51.38,26.68Z"/><path class="cls-1" d="M39.15,31.59l-.09,0c-.77.13-1.53.27-2.29.45a.15.15,0,0,1-.13,0l-.3-.17c-.07,0-.09-.09,0-.18s.17-.3.25-.46a1,1,0,0,0,.12-.58.63.63,0,0,0-.16-.34l0,0,0,.05-.63,1.09c-.05.09-.09.1-.19,0l-.22-.13c-.08-.05-.09-.09,0-.17.2-.36.41-.71.61-1.06l0-.05a.55.55,0,0,0-.31.07,1.31,1.31,0,0,0-.36.38l-.27.47c0,.09-.1.1-.19.05l-.31-.18c-.08-.05-.09-.09,0-.17l1.29-2.24c0-.07.09-.09.16-.05l.25.15a.1.1,0,0,1,0,.16l-.33.57,0,.05a1.2,1.2,0,0,1,.19,0l.26,0s.05,0,.06,0l.24-.42a.1.1,0,0,1,.17,0l.24.14a.11.11,0,0,1,.05.16l-.24.41s0,0,0,.06a1.23,1.23,0,0,1,.41.69,1.51,1.51,0,0,1-.06.73c0,.07,0,.13-.07.2h0c.7-.16,1.41-.28,2.12-.4.08,0,.13,0,.13.12Z"/></g></g></svg>