<svg xmlns="http://www.w3.org/2000/svg" viewBox="0 0 90.36 56.62"><defs><style>.cls-1{fill:#ebebeb;}.cls-2{fill:#f5f5f5;}</style></defs><g id="Layer_2" data-name="Layer 2"><g id="Layer_1-2" data-name="Layer 1"><path class="cls-1" d="M90.36,31.19s-8.07,4-18.62,10.23C58.88,49.06,32.41,64.07,15.49,52.21L0,21.8s9.94,4.56,25.07,2.59c13.5-1.75,24.3-8.86,29.16-12.13,2-1.33,4.56-3.12,6.59-4.34,3.4-2,7.48-5,13.42-7.92Z"/><ellipse class="cls-2" cx="47.12" cy="36.5" rx="12.41" ry="11.78" transform="matrix(0.98, -0.17, 0.17, 0.98, -5.59, 8.68)"/><path class="cls-2" d="M17.22,52.37l.2.12c.5.3,12.57,7.17,34.09-2.62A162.2,162.2,0,0,0,74.62,37c4.66-3,8-5.21,11.72-6.19l1-.26L73.41,1.91l-.79.56c-.23.16-22.94,16-33.06,20.09-8,3.29-23.23,8-34.69,2.75l-2.2-1ZM40.16,24.1c7.31-3,20.6-11.63,28-16.62A5.26,5.26,0,0,0,71.1,9.67a5.36,5.36,0,0,0,4-.46l7.63,15.67a4.32,4.32,0,0,0-2.53,2.87,6.33,6.33,0,0,0,.2,3.73c-2,1.1-4.17,2.48-6.68,4.11A159.15,159.15,0,0,1,50.83,48.36C40,53.28,31.74,53.75,26.7,53.28a28.69,28.69,0,0,1-3.91-.63,7.48,7.48,0,0,0-6.44-5.56L8.22,31.43c.83-.07,1.92-.57,2.13-2.67,10.74,2,22.87-1.83,29.76-4.66Z"/><path class="cls-1" d="M50.81,41.65a2,2,0,0,1-.23-.06c-1.94-.91-3.88-1.81-5.86-2.61a.42.42,0,0,1-.25-.24c-.13-.29-.26-.57-.4-.86a.31.31,0,0,1,.18-.47c.43-.21.88-.41,1.3-.64a2.83,2.83,0,0,0,1.19-1.11,1.59,1.59,0,0,0,.18-1,.24.24,0,0,0,0-.08l-.13.06-3.12,1.45c-.26.12-.37.08-.5-.19l-.3-.64c-.1-.23-.06-.35.17-.46l3-1.41.15-.06a1.46,1.46,0,0,0-.8-.32,3,3,0,0,0-1.4.27c-.46.19-.9.41-1.36.62-.26.12-.38.07-.5-.19l-.42-.9a.28.28,0,0,1,.16-.44l6.43-3a.29.29,0,0,1,.44.16l.33.71a.29.29,0,0,1-.17.44l-1.64.76-.12.06a3.47,3.47,0,0,1,.42.3c.18.16.35.34.51.51s.1.09.19,0l1.18-.54c.22-.11.34-.06.45.16l.33.71a.29.29,0,0,1-.16.42l-1.18.54c-.07,0-.1.07-.08.16A3.15,3.15,0,0,1,48.64,36a4,4,0,0,1-1.29,1.55l-.47.34.13.06c1.82.75,3.6,1.6,5.38,2.46.21.1.24.25.11.47Z"/></g></g></svg>