<svg xmlns="http://www.w3.org/2000/svg" xmlns:xlink="http://www.w3.org/1999/xlink" viewBox="0 0 339.62 339.56">
	<defs>
		<style>
			.rupees{
			  animation: rupee 3s infinite;
		       -webkit-animation: rupee 3s infinite;
		    }
		    @keyframes rupee {
		      0% {transform: translateX(0px);}
		      50% {transform: translateX(5px);}
		      100% {transform: translateX(0px);}
		    }
		    @-webkit-keyframes rupee {
		        0% {transform: translateX(0px);}
		        50% {transform: translateX(5px);}
		      	100% {transform: translateX(0px);} 
			}

			.cls-1{fill:url(#linear-gradient);}.cls-2{fill:url(#linear-gradient-2);}
		</style>
		<linearGradient id="linear-gradient" x1="40.65" y1="175.14" x2="48.52" y2="302.46" gradientUnits="userSpaceOnUse"><stop offset="0" stop-color="#00ffaf"/><stop offset="0.06" stop-color="#00edad"/><stop offset="0.32" stop-color="#00a6a7"/><stop offset="0.55" stop-color="#006ea2"/><stop offset="0.75" stop-color="#00469f"/><stop offset="0.91" stop-color="#002d9d"/><stop offset="1" stop-color="#00249c"/></linearGradient><linearGradient id="linear-gradient-2" x1="128.12" y1="5.44" x2="291.03" y2="353.86" xlink:href="#linear-gradient"/>
	</defs>
	<g id="Layer_2" data-name="Layer 2">
		<g id="Layer_1-2" data-name="Layer 1">
			<path class="cls-1 rupees" d="M52.21,339.56a16.53,16.53,0,0,1-2.14-1.85C34.22,318.84,18.28,300.05,1.45,282A5,5,0,0,1,0,278.34c.06-3.66,0-7.32,0-11,0-2.88,1.19-4,4.12-4,5.58-.08,11.16,0,16.72-.34,6.41-.42,12.54-2,17.83-5.94a18.49,18.49,0,0,0,6.81-9.54,7.91,7.91,0,0,0,.16-.93H4.33c-3.37,0-4.3-.94-4.31-4.32,0-2.74,0-5.49,0-8.23,0-2.93,1-4,4-4H44.35a16.37,16.37,0,0,0-6.84-7.12c-4.94-2.8-10.36-3.81-15.92-4-5.71-.21-11.43-.11-17.15-.14-3.37,0-4.42-1.06-4.42-4.43,0-3.79,0-7.59,0-11.38,0-2.74,1.11-3.86,3.81-3.86H85.61c2.62,0,3.75,1.11,3.79,3.76q.06,4.53,0,9c0,2.64-1.14,3.72-3.8,3.72-7,0-13.91,0-20.86,0H63.12a54.65,54.65,0,0,1,3,5.24c1.1,2.55,2,5.19,2.84,7.83.31.95.64,1.38,1.74,1.36,5-.07,10,0,15,0,2.85,0,3.9,1,3.91,3.87,0,3,0,6,0,9.05,0,2.46-1.18,3.59-3.65,3.6-5,0-10,0-15,0-1,0-1.41.2-1.61,1.28a36.65,36.65,0,0,1-12.45,21.95,46.68,46.68,0,0,1-20.94,10c-2.13.46-4.29.8-6.62,1.23.4.47.74.88,1.09,1.27,15.43,16.7,29.88,34.24,44.31,51.8,1.73,2.1,1.35,3.82-1.14,5.52Z"/>
			<path class="cls-2" d="M130.17,339.56V279.88h69.65V108.94a136.22,136.22,0,0,1-33.33,15,129.7,129.7,0,0,1-36.14,5.16V69.55c18.94-.46,35.58-7,49.08-20.52S199.57,19.16,200,0h79.73V279.76h59.87v59.8Z"/>
		</g>
	</g>
</svg>