<?xml version="1.0" encoding="utf-8"?>
<!-- Generator: Adobe Illustrator 26.0.3, SVG Export Plug-In . SVG Version: 6.00 Build 0)  -->
<svg version="1.1" id="Layer_1" xmlns="http://www.w3.org/2000/svg" xmlns:xlink="http://www.w3.org/1999/xlink" x="0px" y="0px"
	 viewBox="0 0 352.4 408.1" style="enable-background:new 0 0 352.4 408.1;" xml:space="preserve">
<style type="text/css">
	.mob_phone{
		animation: 1s 1 forwards cubic-bezier(.36,-0.01,.5,1.38) slide_right, 3s Infinite linear up_down;
        animation-delay: 0.6s, 1.6s;
        opacity:0;
        transform-origin: right;
    }
    @keyframes slide_right {
      0% {opacity: 0.5;transform: translateX(100px);}
      100% {opacity: 1;transform: translateX(0px);}
    }
    @-webkit-keyframes slide_right {
      0% {opacity: 0.5;transform: translateX(100px);}
      100% {opacity: 1;transform: translateX(0px);}
    }
    @keyframes up_down {
      0% {transform: translateY(0px);}
      50% {transform: translateY(8px);}
      100% {transform: translateY(0px);}
    }
    @-webkit-keyframes up_down {
      0% {transform: translateY(0px);}
      50% {transform: translateY(8px);}
      100% {transform: translateY(0px);}
    }
	.wish_msg1{
		animation: 1s 1 forwards opacity_msg;
        animation-delay:1.5s;
        opacity: 0;
        transform: translateX(10px);
    }
    @keyframes opacity_msg {
      0% {opacity: 0;}
      100% {opacity: 1;}
    }
    @-webkit-keyframes opacity_msg {
      0% {opacity: 0;}
      100% {opacity: 1;}
    }
    .opacity_line{
	    	animation: 1s 1 forwards Line_op;
	        animation-delay:0.8s;
	        opacity:0;
	    }
	    @keyframes Line_op {
	      0% {opacity:0;}
	      50% {opacity:0.5;}
	      100% {opacity:1;}
	    }
	    @-webkit-keyframes Line_op {
	      0% {opacity:0;}
	      50% {opacity:0.5;}
	      100% {opacity:1;}
	    }
    }


	.st0{fill:#263238;stroke:#263238;stroke-miterlimit:10;}
	.st1{opacity:0.36;fill:url(#SVGID_1_);enable-background:new    ;}
	.st2{opacity:0.2;fill:#FFFFFF;enable-background:new    ;}
	.st3{fill:none;stroke:#263238;stroke-width:0.5;stroke-linecap:round;stroke-linejoin:round;}
	.st4{fill:none;stroke:#263238;stroke-width:0.25;stroke-linecap:round;stroke-linejoin:round;stroke-dasharray:1.98,1.98;}
	.st5{fill:#263238;}
	.st6{fill:#FFFFFF;}
	.st7{fill:#868889;}
	.st8{fill:none;stroke:#FFFFFF;stroke-width:0.5;stroke-linecap:round;stroke-linejoin:round;}
	.st9{fill:url(#SVGID_00000016049177213822800700000006252141592353062324_);}
	.st10{fill:#FFBE9D;}
	.st11{fill:#263238;stroke:#263238;stroke-width:0.75;stroke-linecap:round;stroke-linejoin:round;}
	.st12{fill:#FFFFFF;stroke:#263238;stroke-width:0.75;stroke-linecap:round;stroke-linejoin:round;}
	.st13{fill:none;stroke:#263238;stroke-width:0.25;stroke-linecap:round;stroke-linejoin:round;}
	.st14{fill:url(#SVGID_00000170262221804052257320000016124868850384789180_);}
	.st15{fill:url(#SVGID_00000107573270046552998160000014035681264167343749_);}
	.st16{fill:#FFFFFF;stroke:#263238;stroke-linecap:round;stroke-linejoin:round;}
	.st17{fill:url(#SVGID_00000148626650463270700740000016038102563152725427_);}
	.st18{clip-path:url(#SVGID_00000012443342748309844570000012192886375729620657_);}
	.st19{fill:none;}
	.st20{fill:url(#SVGID_00000003094799361919155690000009886586218240233125_);}
	.st21{fill:none;stroke:url(#SVGID_00000029038980095140395620000011040194581710632323_);stroke-miterlimit:10;}
	.st22{fill:none;stroke:url(#SVGID_00000165914423024356553500000016056714702146989952_);stroke-miterlimit:10;}
	.st23{fill:none;stroke:url(#SVGID_00000078756128920431013520000002686453895508395959_);stroke-miterlimit:10;}
	.st24{fill:none;stroke:url(#SVGID_00000042711052924946048810000012870180076309254792_);stroke-miterlimit:10;}
	.st25{fill:url(#SVGID_00000160909653594542704710000017674720973307421083_);}
	.st26{fill:url(#SVGID_00000003084072427775806740000006587671445012768130_);}
	.st27{fill:url(#SVGID_00000118362052143317670960000004622646973973581752_);}
	.st28{fill:url(#SVGID_00000011015422355600532620000016909905801891182260_);}
	.st29{fill:url(#SVGID_00000056391168789101318430000012848495675670985356_);}
	.st30{fill:url(#SVGID_00000048500859814922246030000009271776392259060110_);}
	.st31{fill:none;stroke:#FFFFFF;stroke-width:2;stroke-linecap:round;stroke-linejoin:round;}
	.st32{fill:url(#SVGID_00000175292803343359458390000015488230916982274480_);}
	.st33{fill:#FFFFFF;stroke:#263238;stroke-width:0.25;stroke-linecap:round;stroke-linejoin:round;}
	.st34{fill:url(#SVGID_00000036945584430130709950000007904707207008452241_);}
	.st35{clip-path:url(#SVGID_00000040541098605069411830000013955666439083640764_);}
	.st36{fill:none;stroke:#263238;stroke-width:0.75;stroke-linecap:round;stroke-linejoin:round;}
</style>
<g>
	<g class="mob_phone">
		<path class="st0" d="M305.4,340.6h-52c-5.9-0.7-11.1-4-14.2-9l-35.3-61.3l-18.6-32.2l-14.2-25.1c-2.8-5-5.9-11.5,2.5-11.1H229
		c0.6,0,1.2,0.3,2.2,0.3c3.8,0,7.4,1.9,9.6,5c1.8,2.2,3.4,4.6,4.6,7.1L311,328.8C313.8,333.5,310.7,340.6,305.4,340.6z"/>
	
		<linearGradient id="SVGID_1_" gradientUnits="userSpaceOnUse" x1="177.6026" y1="432.4568" x2="308.3253" y2="432.4568" gradientTransform="matrix(1 0 0 1 0 -164.47)">
		<stop  offset="0" style="stop-color:#00FFAF"/>
		<stop  offset="6.000000e-02" style="stop-color:#00EDAD"/>
		<stop  offset="0.32" style="stop-color:#00A6A7"/>
		<stop  offset="0.55" style="stop-color:#006EA2"/>
		<stop  offset="0.75" style="stop-color:#00469F"/>
		<stop  offset="0.91" style="stop-color:#002D9D"/>
		<stop  offset="1" style="stop-color:#00249C"/>
	</linearGradient>
		<path class="st1" d="M303.3,332.2h-45.2c-5.8-0.5-11-3.9-13.9-9l-63.7-110.5c-5.6-8.3-1.2-9,3.7-9h45.2c7.7,0,10.2,2.8,13.9,9
		L307,323.2C309.8,328.2,308.2,332.2,303.3,332.2z"/>
		<polygon class="st2" points="234.1,203.3 230.1,221.6 230,221.8 225,213.3 225.1,213 227.6,203.3 	"/>
		<path class="st6" d="M229.5,203.3c0.2,0.2,0,0.5-0.2,0.5c-0.3,0-0.6-0.2-0.7-0.5c-0.2-0.2,0-0.5,0.2-0.5
		C229,202.9,229.3,203,229.5,203.3z"/>
		<path class="st6" d="M233.7,203.9h-2.6c-0.2,0-0.5-0.2-0.6-0.4v-0.1c0-0.2,0-0.4,0.2-0.4h2.6c0.3,0,0.5,0.2,0.7,0.4v0.1
		C234,203.7,233.9,203.9,233.7,203.9z"/>
		<path class="st5" d="M235.7,204.5h-5.8c-1.2-0.1-2.2-0.7-2.8-1.7l-0.2-0.2h9.4l0.2,0.2C237,203.6,236.7,204.5,235.7,204.5z"/>
		<polygon class="st2" points="283.2,279.3 291.2,293.2 284.1,322.9 283.2,326.6 271.1,326.6 272,322.9 	"/>
	</g>
	
	
	<line class="st3 opacity_line" x1="226.7" y1="194.7" x2="220.1" y2="177.5"/>
	<line class="st3 opacity_line" x1="266.4" y1="198.1" x2="251.1" y2="203.9"/>
	<line class="st3 opacity_line" x1="255.6" y1="183.1" x2="244.6" y2="196.6"/>
	<line class="st3 opacity_line" x1="238.6" y1="175.5" x2="235.7" y2="193.4"/>
	<line class="st4 opacity_line" x1="166.4" y1="193.7" x2="170" y2="199.5"/>
	<line class="st4 opacity_line" x1="189.2" y1="154.5" x2="189.2" y2="194.5"/>
	<line class="st4 opacity_line" x1="159.9" y1="239.1" x2="179.6" y2="238.6"/>

	<g class="wish_msg1">
		<path class="st7" d="M145.8,202.7h-105c-4.8,0-8.7,3.9-8.7,8.7c0,0,0,0.1,0,0.1l0,0v27.2c0,4.8,3.9,8.7,8.7,8.7h93.2
		c5.8,0,11.5-1.8,16.3-5.2c1.7-1.2,3.4-2.4,5.2-3.5l8.2-5l-9-4.9v-17.3C154.6,206.6,150.7,202.6,145.8,202.7z"/>
		<line class="st8" x1="68.7" y1="217.5" x2="89" y2="217.5"/>
		<line class="st8" x1="68.7" y1="226.4" x2="111.5" y2="226.4"/>
		<line class="st8" x1="68.7" y1="232.5" x2="111.5" y2="232.5"/>
	
		<linearGradient id="SVGID_00000014592016489222419190000016128602591584764049_" gradientUnits="userSpaceOnUse" x1="17.0721" y1="389.6523" x2="63.8247" y2="389.6523" gradientTransform="matrix(1 0 0 1 0 -164.47)">
		<stop  offset="0" style="stop-color:#00FFAF"/>
		<stop  offset="6.000000e-02" style="stop-color:#00EDAD"/>
		<stop  offset="0.32" style="stop-color:#00A6A7"/>
		<stop  offset="0.55" style="stop-color:#006EA2"/>
		<stop  offset="0.75" style="stop-color:#00469F"/>
		<stop  offset="0.91" style="stop-color:#002D9D"/>
		<stop  offset="1" style="stop-color:#00249C"/>
		</linearGradient>
		<path style="fill:url(#SVGID_00000014592016489222419190000016128602591584764049_);" d="M63.8,225.2c0,10.4-6.9,19.5-16.8,22.4
			c-0.6,0.2-1.1,0.3-1.7,0.4c-1.6,0.3-3.2,0.5-4.9,0.5c-3,0-5.9-0.6-8.7-1.7c-0.3,0-0.6-0.2-0.9-0.3c-11.8-5.3-16.9-19.2-11.6-31
			s19.2-16.9,31-11.6C58.4,207.7,63.8,216,63.8,225.2L63.8,225.2z"/>
		<path class="st10" d="M47,247.7c-0.6,0.2-1.1,0.3-1.7,0.4c-1.6,0.3-3.2,0.5-4.9,0.5c-3,0-5.9-0.6-8.7-1.7l-0.2-0.5
			c1-1.5,1.6-3.2,1.9-5c0.5-3,0.6-6.2,0.3-9.2l11.2,1.9C45.3,238.7,46,243.2,47,247.7z"/>
		<path class="st11" d="M46,241.5L46,241.5c-0.2,1.2-1.4,2-2.6,1.7c0,0,0,0,0,0c0,0-0.2,0-0.2,0c-1.7-0.6-3.3-1.4-4.7-2.5
			c-4.4-3.5-4.4-10.1-4.4-10.1S43.3,238,46,241.5z"/>
		<path class="st11" d="M36.7,237l-9.6-15.6c0,0-5-2.1-2.3-4.8c0,0-4.3-7.5,1.3-7.5c0,0,0.7-6.1,6.2-3.6c0,0,4.7-5.6,7.8-1.6
			c0,0,6.5-3.1,8.2,0.8c0,0,4.7,0,4.5,3.6c0,0,3,4-0.9,4.5c0,0,1.1,3.1-3.6,3.1S38,221.7,38,221.7l-1.2,5.8L36.7,237z"/>
		<path class="st12" d="M50.9,214.3l1.8,5.6c0.2,0.6,0.3,1.3,0.2,1.9l-0.2,1.7l0.9,3.7c0.1,0.2,0.1,0.4,0.1,0.6
			c0.2,1.9,1,12.4-4.5,13.7c-4.9,1.2-10.8-4.1-13-6.3c-0.5-0.5-0.9-1.1-1.2-1.8l-1.2-2.8c-1.5,0.2-2.9-0.6-3.6-1.9
			c-1.2-2.2-2.6-3.5-0.4-5.1c2.2-1.6,3.6,1.7,3.6,1.7c-0.1-1.7,0.1-3.5,0.4-5.2c0.5-1.1,2.3-2.6,2.8-3.6c0.2-0.8,0.4-1.6,0.5-2.5
			c4.3,0.1,8.7-0.6,12.8-1.8L50.9,214.3z"/>
		<path class="st10" d="M50.9,214.3l1.8,5.6c0.2,0.6,0.3,1.3,0.2,1.9l-0.2,1.7l0.9,3.7c0.1,0.2,0.1,0.4,0.1,0.6
			c0.2,1.9,1,12.4-4.5,13.7c-4.9,1.2-10.8-4.1-13-6.3c-0.5-0.5-0.9-1.1-1.2-1.8l-1.2-2.8c-1.5,0.2-2.9-0.6-3.6-1.9
			c-1.2-2.2-2.6-3.5-0.4-5.1c2.2-1.6,3.6,1.7,3.6,1.7c-0.1-1.7,0.1-3.5,0.4-5.2c0.5-1.1,2.3-2.6,2.8-3.6c0.2-0.8,0.4-1.6,0.5-2.5
			c4.3,0.1,8.7-0.6,12.8-1.8L50.9,214.3z"/>
		<path class="st13" d="M47.4,224.6l2.7,4.5c0.3,0.5,0.2,1.2-0.3,1.5c-0.1,0.1-0.2,0.1-0.3,0.2l-2.5,0.6"/>
		<path class="st13" d="M48.1,236.4c-2.2,3-4.3-3.5-4.3-3.5c1.3,1.3,3.3,1.6,4.9,0.6C48.8,234.5,48.6,235.5,48.1,236.4z"/>
		<path class="st5" d="M43.7,226.1c0.1,0.7,0.4,1.2,0.7,1.1c0.3-0.1,0.5-0.7,0.4-1.3c-0.1-0.7-0.4-1.2-0.7-1.1
			C43.8,224.9,43.6,225.5,43.7,226.1z"/>
		<path class="st5" d="M49.8,225.1c0,0.7,0.4,1.2,0.7,1.1c0.3-0.1,0.5-0.7,0.4-1.3s-0.4-1.2-0.7-1.1
			C49.9,223.9,49.7,224.6,49.8,225.1z"/>
		<path class="st13" d="M52.4,221.1c-0.3-1-1.4-1.6-2.4-1.3c-0.2,0-0.2,0-0.4,0.2"/>
		<path class="st13" d="M45,220.4c-1.4,0-2.7,0.9-3.2,2.2"/>
		<path class="st11" d="M34.8,213.8c0,0,6.2,4.5,6.9,1.2c0,0,5.1,1.2,5.4-0.5c0,0,5.1,2.1,5.8,0.5c0.6-1.6-4.1-5.8-4.1-5.8L38,210.7
			L34.8,213.8z"/>
		
			<linearGradient id="SVGID_00000026160310411151832820000018011697010798554805_" gradientUnits="userSpaceOnUse" x1="122.5655" y1="394.71" x2="145.632" y2="394.71" gradientTransform="matrix(1 0 0 1 0 -164.47)">
				<stop  offset="0" style="stop-color:#00FFAF"/>
				<stop  offset="6.000000e-02" style="stop-color:#00EDAD"/>
				<stop  offset="0.32" style="stop-color:#00A6A7"/>
				<stop  offset="0.55" style="stop-color:#006EA2"/>
				<stop  offset="0.75" style="stop-color:#00469F"/>
				<stop  offset="0.91" style="stop-color:#002D9D"/>
				<stop  offset="1" style="stop-color:#00249C"/>
			</linearGradient>
		
			<rect x="122.6" y="221.1" style="fill:url(#SVGID_00000026160310411151832820000018011697010798554805_);" width="23.1" height="18.3"/>
		<polygon class="st6" points="135.3,221.1 124.7,239.3 122.6,239.3 122.6,239 132.9,221.1 	"/>
		<polygon class="st6" points="144.4,221.1 133.7,239.3 131.4,239.3 142,221.1 	"/>
		<polygon class="st6" points="145.6,230.5 145.6,234.5 142.8,239.3 140.4,239.3 	"/>
		<polygon class="st6" points="122.6,229.5 122.6,225.4 125.4,220.6 127.8,220.6 	"/>
		
			<linearGradient id="SVGID_00000181775629703359819590000012190190085455990178_" gradientUnits="userSpaceOnUse" x1="122.9301" y1="380.7582" x2="145.5744" y2="380.7582" gradientTransform="matrix(1 0 0 1 0 -164.47)">
			<stop  offset="0" style="stop-color:#00FFAF"/>
			<stop  offset="6.000000e-02" style="stop-color:#00EDAD"/>
			<stop  offset="0.32" style="stop-color:#00A6A7"/>
			<stop  offset="0.55" style="stop-color:#006EA2"/>
			<stop  offset="0.75" style="stop-color:#00469F"/>
			<stop  offset="0.91" style="stop-color:#002D9D"/>
			<stop  offset="1" style="stop-color:#00249C"/>
		</linearGradient>
		<path style="fill:url(#SVGID_00000181775629703359819590000012190190085455990178_);" d="M144.4,216.6c-2,2.1-4.7,3.2-7.6,3.1
			c4.5-1,9.3-6.3,4.5-8.3c-4.8-2.1-7.2,8.3-7.2,8.3s-3.6-11.3-7.4-7.4c-3.9,3.9,4.7,7.7,4.7,7.7c-2.7,0.2-7.3-2.9-7.3-2.9L123,219
			c4.2,3.2,11.1,2.1,11.1,2.1c5.8,1.5,11.5-2.6,11.5-2.6L144.4,216.6z M128,213.7c1.5-1,3.8,4.5,3.8,4.5S126.5,214.7,128,213.7z
			 M136.1,218.2c0,0,1.9-5.9,4.3-4.9C142.7,214.4,136.1,218.2,136.1,218.2z"/>
		<ellipse class="st16" cx="134" cy="219.6" rx="1.6" ry="1.3"/>

	</g>
	<g class="wish_msg1" style="animation-delay:1.8s;">
		<path class="st7" d="M158.2,135.9H44c-4.8,0-8.7,3.9-8.7,8.7l0,0v27.1c0,4.8,3.8,8.7,8.7,8.8h112.6l10.3,10.9v-46.8
		C166.8,139.7,162.9,135.9,158.2,135.9z"/>
		<line class="st8" x1="78.2" y1="149.3" x2="103.5" y2="149.3"/>
		<line class="st8" x1="78.2" y1="158.2" x2="119.4" y2="158.2"/>
		<line class="st8" x1="78.2" y1="165.5" x2="118.7" y2="165.5"/>
	
		<linearGradient id="SVGID_00000126286341775787076050000006965410915860314545_" gradientUnits="userSpaceOnUse" x1="25.08" y1="322.6032" x2="71.8271" y2="322.6032" gradientTransform="matrix(1 0 0 1 0 -164.47)">
			<stop  offset="0" style="stop-color:#00FFAF"/>
			<stop  offset="6.000000e-02" style="stop-color:#00EDAD"/>
			<stop  offset="0.32" style="stop-color:#00A6A7"/>
			<stop  offset="0.55" style="stop-color:#006EA2"/>
			<stop  offset="0.75" style="stop-color:#00469F"/>
			<stop  offset="0.91" style="stop-color:#002D9D"/>
			<stop  offset="1" style="stop-color:#00249C"/>
		</linearGradient>
		<path style="fill:url(#SVGID_00000126286341775787076050000006965410915860314545_);" d="M71.8,158.2c0,12.9-10.5,23.4-23.4,23.4
		S25.1,171,25.1,158.1c0-12.9,10.4-23.3,23.3-23.4c12.9-0.1,23.4,10.3,23.4,23.2C71.8,158,71.8,158.1,71.8,158.2z"/>
		<path class="st11" d="M61,159.3c-0.3,9-6.8,19-10.7,20.1c-3.9,1.1-12.1-5.2-13.1-5.9l0,0l0,0H37c-2.6,0.1-5.2-0.5-7.6-1.7
		c-3.7-5.2-5.1-11.7-4-18c2.1-4.8,5.5-8.9,9.8-11.9c9.2-6.1,18.6,1,18.6,1C64.2,143.6,61.3,150.2,61,159.3z"/>
		<path class="st10" d="M44.4,174.6c-1.4,1.8-2.2,3.9-2.3,6.1l0,0c-1-0.3-2.1-0.7-3.1-1.1c-2.9-1.2-5.6-3.1-7.7-5.4l0,0
		c2.4-3.6,4-7.7,4.6-12C37.3,154.9,44.4,174.6,44.4,174.6z"/>
		<g>
			<defs>
				<path id="SVGID_00000041254596265913424610000008629831646891963027_" d="M44.4,174.6c-1.4,1.8-2.2,3.9-2.3,6.1l0,0
				c-1-0.3-2.1-0.7-3.1-1.1c-2.9-1.2-5.6-3.1-7.7-5.4l0,0c2.4-3.6,4-7.7,4.6-12C37.3,154.9,44.4,174.6,44.4,174.6z"/>
			</defs>
			<clipPath id="SVGID_00000044158814252015012140000015045793350496749459_">
				<use xlink:href="#SVGID_00000041254596265913424610000008629831646891963027_"  style="overflow:visible;"/>
			</clipPath>
			<g style="clip-path:url(#SVGID_00000044158814252015012140000015045793350496749459_);">
				<path class="st11" d="M35.8,165.5c0.2,3.7,1.2,5.3,4.3,8.4c3.6,3.6,5.9,6.5,11.1,0c2.2-2.4,3.8-5.3,4.9-8.4H35.8z"/>
			</g>
		</g>
		<path class="st19" d="M44.4,174.6c-1.4,1.8-2.2,3.9-2.3,6.1l0,0c-1-0.3-2.1-0.7-3.1-1.1c-2.9-1.2-5.6-3.1-7.7-5.4l0,0
			c2.4-3.6,4-7.7,4.6-12C37.3,154.9,44.4,174.6,44.4,174.6z"/>
		<path class="st10" d="M57.9,155.6l-1.3,7.6c0,0,0.2,3-5,9.5s-7.6,3.6-11.1,0s-4.4-5.2-4.3-10.3c0,0-1.8-0.2-3-3.6s3-4.6,4-2.5
			l6.2-3.1l3.8-4.6l2.2-3l4.5,1.7l4.8,2.9L57.9,155.6z"/>
		<path class="st13" d="M52.3,163.3c-1,1-1.2,2.7-0.3,3.8c2.1,2.6-2.4,1.9-2.4,2.6"/>
		<path class="st13" d="M44.3,168.3c1.3,0.8,2.5,1.7,3.7,2.7l0,0c-0.5,0.9-1.6,1.2-2.4,0.7c0,0,0,0,0,0c-0.3-0.2-0.5-0.4-0.7-0.7
			C44.4,170.2,44.2,169.2,44.3,168.3z"/>
		<path class="st5" d="M49.2,162.4c-0.2,0.7-0.7,1.1-1,1c-0.2-0.1-0.2-0.7,0-1.3c0.2-0.6,0.7-1.1,1-1
			C49.6,161.1,49.5,161.7,49.2,162.4z"/>
		<path class="st5" d="M54.9,164.6c-0.2,0.6-0.7,1-0.8,0.8c-0.2-0.4-0.2-0.8,0-1.2c0.2-0.6,0.7-1,0.8-0.8
			C55.1,163.7,55.1,164.2,54.9,164.6z"/>
		<path class="st13" d="M51.1,158.1c-1.2-0.9-2.9-0.9-4.1,0"/>
		<path class="st13" d="M54.9,159.5c0.6,0.2,1.1,0.7,1.2,1.3"/>
		<path class="st11" d="M37.5,153c0,0-2.7,6.8,1.1,9.8c0,0,3.1-8.8,9.5-9.8c3.2-0.3,6.3-1.3,9.1-3c0,0-0.7,8.7,1,10.9
			s1.6-10.1,1.6-10.1l-1.7-4.2l-9.2-3.7l-7.9,3.7L37.5,153z"/>
		<path class="st11" d="M35.8,163.4c0,0-2.2,9.1,0.7,9.9c2.9,0.8-3.2-0.6-6.9-2.2c-3.7-1.7,4.9-8.6,4.9-8.6L35.8,163.4z"/>
		
		<linearGradient id="SVGID_00000095334467409837773930000011039184247672502405_" gradientUnits="userSpaceOnUse" x1="125.9046" y1="330.1642" x2="143.2524" y2="330.1642" gradientTransform="matrix(1 0 0 1 0 -164.47)">
			<stop  offset="0" style="stop-color:#00FFAF"/>
			<stop  offset="6.000000e-02" style="stop-color:#00EDAD"/>
			<stop  offset="0.32" style="stop-color:#00A6A7"/>
			<stop  offset="0.55" style="stop-color:#006EA2"/>
			<stop  offset="0.75" style="stop-color:#00469F"/>
			<stop  offset="0.91" style="stop-color:#002D9D"/>
			<stop  offset="1" style="stop-color:#00249C"/>
		</linearGradient>
		<polygon style="fill:url(#SVGID_00000095334467409837773930000011039184247672502405_);" points="128.4,174.4 125.9,171.8 
			133.4,157 143.3,166.8 	"/>
		<path class="st11" d="M143.2,166.7c-0.7,0.7-3.3-1-5.9-3.7c-2.6-2.7-4.3-5.4-3.7-5.9c0.6-0.6,3.3,1,5.9,3.7
			C142.1,163.5,143.8,166.1,143.2,166.7z"/>
	
		<linearGradient id="SVGID_00000106853592162041732930000006308710688977943975_" gradientUnits="userSpaceOnUse" x1="138.4506" y1="316.8017" x2="142.5809" y2="316.8017" gradientTransform="matrix(1 0 0 1 0 -164.47)">
			<stop  offset="0" style="stop-color:#00FFAF"/>
			<stop  offset="6.000000e-02" style="stop-color:#00EDAD"/>
			<stop  offset="0.32" style="stop-color:#00A6A7"/>
			<stop  offset="0.55" style="stop-color:#006EA2"/>
			<stop  offset="0.75" style="stop-color:#00469F"/>
			<stop  offset="0.91" style="stop-color:#002D9D"/>
			<stop  offset="1" style="stop-color:#00249C"/>
		</linearGradient>
		<path style="fill:none;stroke:url(#SVGID_00000106853592162041732930000006308710688977943975_);stroke-miterlimit:10;" d="
			M141.7,147.3c0.6,1.7,0.5,3.6-0.2,5.3c-0.7,1.7-1.6,3.2-2.6,4.7"/>
	
		<linearGradient id="SVGID_00000059286612188507548180000010756673790246312636_" gradientUnits="userSpaceOnUse" x1="142.9578" y1="325.4831" x2="153.87" y2="325.4831" gradientTransform="matrix(1 0 0 1 0 -164.47)">
			<stop  offset="0" style="stop-color:#00FFAF"/>
			<stop  offset="6.000000e-02" style="stop-color:#00EDAD"/>
			<stop  offset="0.32" style="stop-color:#00A6A7"/>
			<stop  offset="0.55" style="stop-color:#006EA2"/>
			<stop  offset="0.75" style="stop-color:#00469F"/>
			<stop  offset="0.91" style="stop-color:#002D9D"/>
			<stop  offset="1" style="stop-color:#00249C"/>
		</linearGradient>
		<path style="fill:none;stroke:url(#SVGID_00000059286612188507548180000010756673790246312636_);stroke-miterlimit:10;" d="
		M143.3,162.3c2.9-2.5,6.9-3.1,10.4-1.6"/>
	
		<linearGradient id="SVGID_00000083056414724832051780000006192663696088171680_" gradientUnits="userSpaceOnUse" x1="144.4369" y1="317.5802" x2="153.5521" y2="317.5802" gradientTransform="matrix(1 0 0 1 0 -164.47)">
			<stop  offset="0" style="stop-color:#00FFAF"/>
			<stop  offset="6.000000e-02" style="stop-color:#00EDAD"/>
			<stop  offset="0.32" style="stop-color:#00A6A7"/>
			<stop  offset="0.55" style="stop-color:#006EA2"/>
			<stop  offset="0.75" style="stop-color:#00469F"/>
			<stop  offset="0.91" style="stop-color:#002D9D"/>
			<stop  offset="1" style="stop-color:#00249C"/>
		</linearGradient>
		<path style="fill:none;stroke:url(#SVGID_00000083056414724832051780000006192663696088171680_);stroke-miterlimit:10;" d="
			M145.6,157.8c-0.3-0.9-0.6-1.9-0.7-2.9c-0.1-0.8,0.3-1.5,1-1.9c1.2-0.6,2.4,0.5,3.3,1.3c0.9,0.8,2.4,1.6,3.3,0.8
			c0.9-0.8,0.4-2.2,0-3.3c-0.4-1.1-0.7-2.6,0.2-3.2"/>
	
		<linearGradient id="SVGID_00000173863788620523850990000003427014241161550737_" gradientUnits="userSpaceOnUse" x1="132.8488" y1="312.6783" x2="136.6887" y2="312.6783" gradientTransform="matrix(1 0 0 1 0 -164.47)">
			<stop  offset="0" style="stop-color:#00FFAF"/>
			<stop  offset="6.000000e-02" style="stop-color:#00EDAD"/>
			<stop  offset="0.32" style="stop-color:#00A6A7"/>
			<stop  offset="0.55" style="stop-color:#006EA2"/>
			<stop  offset="0.75" style="stop-color:#00469F"/>
			<stop  offset="0.91" style="stop-color:#002D9D"/>
			<stop  offset="1" style="stop-color:#00249C"/>
		</linearGradient>
		<path style="fill:none;stroke:url(#SVGID_00000173863788620523850990000003427014241161550737_);stroke-miterlimit:10;" d="
		M136.4,142.2l-0.3,0.2c-1.6,1-2.1,3-1.1,4.6c0,0,0,0,0,0c0.1,0.3,0.3,0.5,0.6,0.7l0,0c0.2,0.2,0.3,0.5,0.4,0.7
		c0.3,1.2-0.5,1.9-1.2,2.6c-0.6,0.4-1.1,1-1.3,1.7c-0.2,0.7,0.6,1.7,1.3,1.3"/>
	
		<linearGradient id="SVGID_00000068642134474099586070000010706623363382390928_" gradientUnits="userSpaceOnUse" x1="147.6277" y1="309.5157" x2="150.4487" y2="309.5157" gradientTransform="matrix(1 0 0 1 0 -164.47)">
			<stop  offset="0" style="stop-color:#00FFAF"/>
			<stop  offset="6.000000e-02" style="stop-color:#00EDAD"/>
			<stop  offset="0.32" style="stop-color:#00A6A7"/>
			<stop  offset="0.55" style="stop-color:#006EA2"/>
			<stop  offset="0.75" style="stop-color:#00469F"/>
			<stop  offset="0.91" style="stop-color:#002D9D"/>
			<stop  offset="1" style="stop-color:#00249C"/>
		</linearGradient>
	
		<rect x="147.6" y="143.6" style="fill:url(#SVGID_00000068642134474099586070000010706623363382390928_);" width="2.8" height="2.8"/>
	
		<linearGradient id="SVGID_00000164494732449849354320000001426219133835241344_" gradientUnits="userSpaceOnUse" x1="149.9113" y1="331.8529" x2="152.7323" y2="331.8529" gradientTransform="matrix(1 0 0 1 0 -164.47)">
			<stop  offset="0" style="stop-color:#00FFAF"/>
			<stop  offset="6.000000e-02" style="stop-color:#00EDAD"/>
			<stop  offset="0.32" style="stop-color:#00A6A7"/>
			<stop  offset="0.55" style="stop-color:#006EA2"/>
			<stop  offset="0.75" style="stop-color:#00469F"/>
			<stop  offset="0.91" style="stop-color:#002D9D"/>
			<stop  offset="1" style="stop-color:#00249C"/>
		</linearGradient>
	
		<rect x="149.9" y="166" style="fill:url(#SVGID_00000164494732449849354320000001426219133835241344_);" width="2.8" height="2.8"/>
	
		<linearGradient id="SVGID_00000135668573688367200880000013006176048195698833_" gradientUnits="userSpaceOnUse" x1="156.7238" y1="319.4945" x2="159.5447" y2="319.4945" gradientTransform="matrix(1 0 0 1 0 -164.47)">
			<stop  offset="0" style="stop-color:#00FFAF"/>
			<stop  offset="6.000000e-02" style="stop-color:#00EDAD"/>
			<stop  offset="0.32" style="stop-color:#00A6A7"/>
			<stop  offset="0.55" style="stop-color:#006EA2"/>
			<stop  offset="0.75" style="stop-color:#00469F"/>
			<stop  offset="0.91" style="stop-color:#002D9D"/>
			<stop  offset="1" style="stop-color:#00249C"/>
		</linearGradient>
	
		<rect x="156.7" y="153.6" style="fill:url(#SVGID_00000135668573688367200880000013006176048195698833_);" width="2.8" height="2.8"/>
	
		<linearGradient id="SVGID_00000162321137521124534820000009012741565389447552_" gradientUnits="userSpaceOnUse" x1="129.9153" y1="312.5669" x2="132.717" y2="312.5669" gradientTransform="matrix(1 0 0 1 0 -164.47)">
			<stop  offset="0" style="stop-color:#00FFAF"/>
			<stop  offset="6.000000e-02" style="stop-color:#00EDAD"/>
			<stop  offset="0.32" style="stop-color:#00A6A7"/>
			<stop  offset="0.55" style="stop-color:#006EA2"/>
			<stop  offset="0.75" style="stop-color:#00469F"/>
			<stop  offset="0.91" style="stop-color:#002D9D"/>
			<stop  offset="1" style="stop-color:#00249C"/>
		</linearGradient>
	
		<rect x="129.9" y="146.7" style="fill:url(#SVGID_00000162321137521124534820000009012741565389447552_);" width="2.8" height="2.8"/>
		<path class="st6" d="M138.5,169.2c-2.6-3.4-4.5-7.3-5.4-11.5v-0.1"/>
		<path class="st6" d="M130.1,163.6c1,2.8,2.4,5.3,4.2,7.7"/>
		<path class="st6" d="M130.2,173.5c-1.1-1.4-2-2.9-2.8-4.6"/>

	</g>
	<g class="wish_msg1" style="animation-delay:2s;">
		<path class="st7" d="M189.2,104v46.8l10.3-10.9h112.5c4.8,0,8.7-3.9,8.7-8.7c0,0,0,0,0-0.1V104l0,0c0-4.8-3.9-8.7-8.7-8.7H197.9
		C193.1,95.3,189.3,99.2,189.2,104z"/>
	
		<linearGradient id="SVGID_00000018952730263149122980000014936187577027489710_" gradientUnits="userSpaceOnUse" x1="208.441" y1="282.0835" x2="210.7822" y2="282.0835" gradientTransform="matrix(1 0 0 1 0 -164.47)">
			<stop  offset="0" style="stop-color:#00FFAF"/>
			<stop  offset="6.000000e-02" style="stop-color:#00EDAD"/>
			<stop  offset="0.32" style="stop-color:#00A6A7"/>
			<stop  offset="0.55" style="stop-color:#006EA2"/>
			<stop  offset="0.75" style="stop-color:#00469F"/>
			<stop  offset="0.91" style="stop-color:#002D9D"/>
			<stop  offset="1" style="stop-color:#00249C"/>
		</linearGradient>
		<polygon style="fill:url(#SVGID_00000018952730263149122980000014936187577027489710_);" points="208.5,112.2 210.8,112.2 
		210.7,123.1 208.4,123 	"/>
	
		<linearGradient id="SVGID_00000010295702495364616690000017346417611097428902_" gradientUnits="userSpaceOnUse" x1="208.3472" y1="273.8414" x2="211.2641" y2="273.8414" gradientTransform="matrix(1 0 0 1 0 -164.47)">
			<stop  offset="0" style="stop-color:#00FFAF"/>
			<stop  offset="6.000000e-02" style="stop-color:#00EDAD"/>
			<stop  offset="0.32" style="stop-color:#00A6A7"/>
			<stop  offset="0.55" style="stop-color:#006EA2"/>
			<stop  offset="0.75" style="stop-color:#00469F"/>
			<stop  offset="0.91" style="stop-color:#002D9D"/>
			<stop  offset="1" style="stop-color:#00249C"/>
		</linearGradient>
		<path style="fill:url(#SVGID_00000010295702495364616690000017346417611097428902_);" d="M209.7,106.5c0,0,3.5,4,0,5.8
			C209.7,112.2,206.7,110.9,209.7,106.5z"/>
		<path class="st31" d="M209.8,109.1c0,0,1.4,1.8-0.2,3.1C208.9,111.3,208.9,110,209.8,109.1C209.8,109.1,209.8,109.1,209.8,109.1z"
			/>
	
		<linearGradient id="SVGID_00000175323437926239324720000007541177718410966420_" gradientUnits="userSpaceOnUse" x1="198.8268" y1="290.0858" x2="220.6267" y2="290.0858" gradientTransform="matrix(1 0 0 1 0 -164.47)">
			<stop  offset="0" style="stop-color:#00FFAF"/>
			<stop  offset="6.000000e-02" style="stop-color:#00EDAD"/>
			<stop  offset="0.32" style="stop-color:#00A6A7"/>
			<stop  offset="0.55" style="stop-color:#006EA2"/>
			<stop  offset="0.75" style="stop-color:#00469F"/>
			<stop  offset="0.91" style="stop-color:#002D9D"/>
			<stop  offset="1" style="stop-color:#00249C"/>
		</linearGradient>
		<polygon style="fill:url(#SVGID_00000175323437926239324720000007541177718410966420_);" points="198.9,117.6 220.6,117.8 
		220.5,133.6 198.8,133.5 	"/>
		<path class="st12" d="M198.1,117.6v6.8c0.1,0.4,0.4,0.7,0.9,0.7c0,0,0,0,0,0h0.3l2.6-1.4c0.2-0.2,0.6-0.2,0.8,0l1.3,0.7
		c1.3,0.7,2.9,0.7,4.2,0l1.6-0.8c0.2-0.2,0.6-0.2,0.8,0l0.9,0.6c1.4,0.9,3.1,0.9,4.5,0l0.6-0.4c0.3-0.2,0.6-0.2,0.9,0l2.6,1.4
		c0.4,0.2,0.9,0.1,1.1-0.3c0,0,0,0,0,0c0-0.1,0-0.1,0-0.2v-6.9c0-0.4-0.4-0.7-0.7-0.7h-21.7C198.5,117,198.2,117.2,198.1,117.6z"/>
		<path class="st33" d="M198.1,117.6v6.8c0.1,0.4,0.4,0.7,0.9,0.7c0,0,0,0,0,0h0.3l2.6-1.4c0.2-0.2,0.6-0.2,0.8,0l1.3,0.7
		c1.3,0.7,2.9,0.7,4.2,0l1.6-0.8c0.2-0.2,0.6-0.2,0.8,0l0.9,0.6c1.4,0.9,3.1,0.9,4.5,0l0.6-0.4c0.3-0.2,0.6-0.2,0.9,0l2.6,1.4
		c0.4,0.2,0.9,0.1,1.1-0.3c0,0,0,0,0,0c0-0.1,0-0.1,0-0.2v-6.9c0-0.4-0.4-0.7-0.7-0.7h-21.7C198.5,117,198.2,117.2,198.1,117.6z"/>
		<line class="st8" x1="256.1" y1="109.8" x2="278.6" y2="109.8"/>
		<line class="st8" x1="235.7" y1="117.7" x2="278.6" y2="117.7"/>
		<line class="st8" x1="235.7" y1="124.1" x2="278.6" y2="124.1"/>
	
		<linearGradient id="SVGID_00000167387638119917231550000015528884554319350965_" gradientUnits="userSpaceOnUse" x1="288.8665" y1="282.4961" x2="334.2894" y2="282.4961" gradientTransform="matrix(1 0 0 1 0 -164.47)">
			<stop  offset="0" style="stop-color:#00FFAF"/>
			<stop  offset="6.000000e-02" style="stop-color:#00EDAD"/>
			<stop  offset="0.32" style="stop-color:#00A6A7"/>
			<stop  offset="0.55" style="stop-color:#006EA2"/>
			<stop  offset="0.75" style="stop-color:#00469F"/>
			<stop  offset="0.91" style="stop-color:#002D9D"/>
			<stop  offset="1" style="stop-color:#00249C"/>
		</linearGradient>
		<circle style="fill:url(#SVGID_00000167387638119917231550000015528884554319350965_);" cx="311.6" cy="118" r="22.7"/>
		<path class="st10" d="M312.6,140.4c2,0,3.9-0.4,5.8-1.1l-1.2-6.3l-9.8,0.6l-0.4,6.2C308.8,140.4,310.7,140.6,312.6,140.4z"/>
		<g>
			<defs>
				<path id="SVGID_00000031189504948619879170000004196713958786720392_" d="M312.6,140.8c2.2,0,4.3-0.4,6.3-1.2l-1.4-6.9l-10.7,0.6
					l-0.4,6.8C308.5,140.7,310.6,141,312.6,140.8z"/>
			</defs>
			<clipPath id="SVGID_00000071541377102491407490000001795600438833635250_">
				<use xlink:href="#SVGID_00000031189504948619879170000004196713958786720392_"  style="overflow:visible;"/>
			</clipPath>
			<g style="clip-path:url(#SVGID_00000071541377102491407490000001795600438833635250_);">
				<path class="st11" d="M304.8,132.8c1.9,4.4,7,6.5,11.4,4.6c2.1-0.9,3.7-2.5,4.6-4.6H304.8z"/>
			</g>
			</g>
		<path class="st13" d="M312.6,140.8c2,0,3.9-0.3,5.8-1.1l-1.2-6.3l-9.8,0.6l-0.3,6.2C308.8,140.7,310.7,140.9,312.6,140.8z"/>
		<path class="st10" d="M324.3,120.8c-0.5-0.2-1-0.3-1.4-0.2c-0.3-8.2-5.4-14.7-11.6-14.7s-11.3,6.6-11.6,14.7
			c-0.5-0.2,0.2-0.5-0.2-0.2c-1.2,0.8-1.7,2.3-1.2,3.6c0.3,1.4,1.4,2.9,2.5,2.8c1.7,5.8,5.5,9.9,10.5,9.9s9.2-4.2,10.8-10
			c1.2-0.1,2.4-0.8,2.9-1.9c0.9-1.2,0.7-3-0.5-3.9C324.4,120.8,324.4,120.8,324.3,120.8z"/>
		<path class="st13" d="M309.4,122.4v0.5c-0.3,1.4-0.9,2.7-1.6,3.8l0,0l2.3,1.3"/>
		<path class="st5" d="M305.4,122.1c0,0.6-0.2,1.1-0.6,1.1s-0.6-0.5-0.6-1.1c0-0.6,0.2-1.1,0.6-1.1S305.4,121.5,305.4,122.1z"/>
		<path class="st5" d="M314.2,122.1c0,0.6-0.2,1.1-0.6,1.1s-0.6-0.5-0.6-1.1c0-0.6,0.2-1.1,0.6-1.1S314.2,121.5,314.2,122.1z"/>
		<path class="st13" d="M303.2,119.2c0.8-1.6,2.6-2.4,4.3-1.9"/>
		<path class="st13" d="M317.5,119c-0.8-1.6-2.6-2.4-4.3-1.9"/>
		<line class="st36" x1="302.1" y1="119.3" x2="299.8" y2="119.3"/>
		<rect x="302.6" y="119.3" class="st13" width="6.6" height="4.2"/>
		<rect x="312.1" y="119.3" class="st13" width="6.6" height="4.2"/>
		<line class="st13" x1="309.2" y1="120.6" x2="312.1" y2="120.6"/>
		<line class="st36" x1="322.5" y1="119.3" x2="318.6" y2="119.3"/>
		<path class="st11" d="M300.6,120.6c0.8,0-0.5-3.3,1.9-8.5c1.6-3.4,6.3-2.6,11.9-2.4c5.6,0.2,6.8,9.3,7.3,13.1
			c0,0.2,0.6-2.6,0.8-2.6c2.6,0,1.8-12.8-1.1-13.2c0,0-2.3-4.3-11.1-4c-8.8,0.3-10,5.9-10,5.9S295.8,120.1,300.6,120.6z"/>
		<path class="st13" d="M313.7,128.4c0.1,1,0,2-0.2,3c-0.3,1.1-1.3,2-2.5,1.9c-1.6,0-3-2.5-2.5-4
			C310.3,129.5,312.1,129.2,313.7,128.4z"/>
		<path class="st12" d="M300.9,120.3c0.6,0.9,0,2.6-0.2,3.6c0.1,2.1,0.6,4.1,1.4,6"/>


	</g>
	
		<g id="Clock">
			<g id="Clock_inject-2">
				<circle class="st3" cx="160.1" cy="105.7" r="20.6"/>
				<circle class="st3" cx="160.1" cy="105.7" r="17.1"/>
				<polyline class="st3 clock_line" points="165.3,92.3 160.1,105.7 160.1,96.3 			"/>
			</g>
		</g>
	</g>
</svg>
