<svg xmlns="http://www.w3.org/2000/svg" width="519.701" height="825.809" viewBox="0 0 519.701 825.809">
	<style>
		
	</style>
	<path class="que" d="M592.6,20.05c155.771,0,252.1,73.087,252.1,203.3,0,176.009-178.9,198.675-178.9,334.556H511.3c0-178.785,142.935-189.424,142.935-300.673,0-48.108-30.3-70.889-80.95-70.889-57.012,0-87.31,33.537-88.352,103.385H325C326.5,118.809,426.419,20.05,592.6,20.05Zm93.208,726.24a99.453,99.453,0,1,1-99.453-99.338,99.453,99.453,0,0,1,99.453,99.338Z" transform="translate(-325 -20.05)" fill="#8290d1" opacity="0.09"/>
</svg>