<svg xmlns="http://www.w3.org/2000/svg" xmlns:xlink="http://www.w3.org/1999/xlink" viewBox="0 0 127.77 104.37"><defs><style>.cls-1{fill:#fff;}.cls-2{fill:url(#linear-gradient);}.cls-3{fill:url(#linear-gradient-2);}.cls-4{fill:url(#linear-gradient-3);}.cls-5{fill:url(#linear-gradient-4);}.cls-6{fill:none;}</style><linearGradient id="linear-gradient" y1="52.19" x2="127.77" y2="52.19" gradientUnits="userSpaceOnUse"><stop offset="0" stop-color="#00ffaf"/><stop offset="0.06" stop-color="#00edad"/><stop offset="0.32" stop-color="#00a6a7"/><stop offset="0.55" stop-color="#006ea2"/><stop offset="0.75" stop-color="#00469f"/><stop offset="0.91" stop-color="#002d9d"/><stop offset="1" stop-color="#00249c"/></linearGradient><linearGradient id="linear-gradient-2" x1="19.77" y1="41.33" x2="40.97" y2="41.33" xlink:href="#linear-gradient"/><linearGradient id="linear-gradient-3" x1="54.06" y1="49.47" x2="75.27" y2="49.47" xlink:href="#linear-gradient"/><linearGradient id="linear-gradient-4" x1="88.35" y1="57.61" x2="109.56" y2="57.61" xlink:href="#linear-gradient"/></defs><g id="Layer_2" data-name="Layer 2"><g id="Layer_1-2" data-name="Layer 1"><path class="cls-1" d="M108.37,17.94,38.32,1.31A24.39,24.39,0,0,0,9,19.4L1.3,51.68A24.38,24.38,0,0,0,13.18,78.62L2.1,103.72,30,83.55,89.44,97.67A24.39,24.39,0,0,0,118.8,79.58l7.66-32.28a24.38,24.38,0,0,0-18.09-29.36"/><path class="cls-2" d="M1.94,104.35a.58.58,0,0,1-.25-.12.67.67,0,0,1-.19-.77L12.35,78.89A25.11,25.11,0,0,1,.67,51.53L8.33,19.25A25.06,25.06,0,0,1,38.47.68l70.05,16.63a25.05,25.05,0,0,1,18.57,30.13l-7.67,32.29A25,25,0,0,1,89.29,98.3l-59.17-14-27.65,20a.66.66,0,0,1-.53.11M38.17,1.93A23.77,23.77,0,0,0,9.59,19.55L1.92,51.83A23.84,23.84,0,0,0,13.48,78.06a.63.63,0,0,1,.28.82L3.64,101.81,29.6,83a.66.66,0,0,1,.53-.11L89.59,97a23.76,23.76,0,0,0,28.58-17.61l7.66-32.28a23.75,23.75,0,0,0-17.61-28.58Z"/><path class="cls-3" d="M32.3,30l.57,8.69L41,40.56,33.23,44l.58,8.7-5.36-6.57L20.71,49.6l4.42-7.51-5.36-6.56,8.1,1.93Z"/><path class="cls-4" d="M66.59,38.09l.58,8.69,8.1,1.93-7.74,3.44.57,8.7-5.36-6.56L55,57.74l4.43-7.5-5.37-6.56,8.1,1.92Z"/><path class="cls-5" d="M100.88,46.23l.58,8.7,8.1,1.92-7.74,3.45.57,8.69L97,62.43l-7.74,3.45,4.43-7.5-5.37-6.57,8.1,1.93Z"/><rect class="cls-6" width="127.77" height="104.37"/><rect class="cls-6" width="127.77" height="104.37"/></g></g></svg>