<svg xmlns="http://www.w3.org/2000/svg" xmlns:xlink="http://www.w3.org/1999/xlink" viewBox="0 0 362.62 382.56"><defs><style>.cls-1{fill:none;}.cls-2{fill:#263238;}.cls-3{fill:#455a64;}.cls-10,.cls-4,.cls-8,.cls-9{fill:#fff;}.cls-5{clip-path:url(#clip-path);}.cls-6{fill:#dfd8cc;}.cls-7{fill:#388176;}.cls-15,.cls-17,.cls-8,.cls-9{isolation:isolate;}.cls-8{opacity:0.92;}.cls-9{opacity:0.81;}.cls-10{fill-opacity:0.7;}.cls-11{fill:#bcf7bf;}.cls-12{fill:#f8f8f8;}.cls-13{fill:#e8eaea;}.cls-14{fill:#ccc;}.cls-15,.cls-17{font-size:7.96px;fill:#3a3a3a;font-family:ArialMT, Arial;}.cls-16,.cls-17{letter-spacing:-0.07em;}.cls-18{letter-spacing:0em;}</style><clipPath id="clip-path"><rect class="cls-1" x="80.55" y="3.39" width="194.12" height="380.66"/></clipPath></defs><g id="Layer_2" data-name="Layer 2"><g id="Layer_1-2" data-name="Layer 1"><g id="freepik--Floor--inject-3"><path class="cls-2" d="M362.62,382.32c0,.13-81.19.24-181.3.24S0,382.45,0,382.32s81.16-.24,181.32-.24S362.62,382.18,362.62,382.32Z"/></g><path class="cls-3" d="M244,380.6l-129.31-.09a28.14,28.14,0,0,1-28.15-28.17h0l.06-324.18A28.16,28.16,0,0,1,114.78,0h0L244.11.08a28.17,28.17,0,0,1,28.15,28.17l-.06,324.18A28.17,28.17,0,0,1,244,380.6Z"/><path class="cls-4" d="M244,11.66H218.94A6.25,6.25,0,0,0,212.85,18v4.6a6.25,6.25,0,0,1-6.06,6.41H157.9a6.23,6.23,0,0,1-6.09-6.38v-4.6a6.23,6.23,0,0,0-6.05-6.41H115a19.72,19.72,0,0,0-19.74,19.7v0L95.16,347.8a19.74,19.74,0,0,0,19.71,19.74l129.06.07a19.71,19.71,0,0,0,19.73-19.7v0l.07-316.43a19.73,19.73,0,0,0-19.66-19.8Z"/><g class="cls-5"><path class="cls-6" d="M244.32,11.53H219.2a6.23,6.23,0,0,0-6.1,6.37v4.61a6.25,6.25,0,0,1-6.07,6.4H158a6.23,6.23,0,0,1-6.1-6.37V17.93a6.23,6.23,0,0,0-6.06-6.4H115A19.74,19.74,0,0,0,95.22,31.22v0l-.06,316.42a19.75,19.75,0,0,0,19.76,19.74l129.32.07A19.74,19.74,0,0,0,264,347.77h0l.06-316.43a19.74,19.74,0,0,0-19.69-19.8Z"/></g><path class="cls-7" d="M95.16,70.91H264.08V30.57a19.76,19.76,0,0,0-19.73-19.63H219.11c-3.46.08-7.11,2.93-7,6.37v4.61c.1,3.44-1.71,6.31-5.16,6.4H157.8c-3.46-.08-5.28-2.94-5.2-6.38v-4.6c.1-3.44-3.54-6.31-7-6.41H114.67A19.77,19.77,0,0,0,95.16,27.32Z"/><circle class="cls-8" cx="120.36" cy="52.36" r="12.35"/><path class="cls-9" d="M145.07,42.76h62.21a4.11,4.11,0,0,1,4.12,4.11h0A4.11,4.11,0,0,1,207.28,51H145.07A4.11,4.11,0,0,1,141,46.87h0A4.11,4.11,0,0,1,145.07,42.76Z"/><path class="cls-9" d="M143.24,58.31h37.51A2.29,2.29,0,0,1,183,60.6h0a2.29,2.29,0,0,1-2.29,2.28H143.24A2.28,2.28,0,0,1,141,60.6h0A2.28,2.28,0,0,1,143.24,58.31Z"/><rect class="cls-10" x="101.61" y="332.79" width="128.09" height="23.79" rx="11.89"/><circle class="cls-7" cx="246.17" cy="344.68" r="12.81"/><polygon class="cls-4" points="240.68 337.37 252.4 345.18 240.68 351.3 246.53 344.33 240.68 337.37"/><path class="cls-11" d="M141.84,88.89H252.09A7.09,7.09,0,0,1,259.18,96V236.2H141.84a7.09,7.09,0,0,1-7.09-7.09h0V96A7.09,7.09,0,0,1,141.84,88.89Z"/><path class="cls-11" d="M151.7,296.19H251.88a7.1,7.1,0,0,1,7.1,7.09h0v19.45H151.7a7.09,7.09,0,0,1-7.09-7.1h0V303.28a7.09,7.09,0,0,1,7.09-7.09Z"/><path class="cls-12" d="M149.17,96.21h95.26a8.35,8.35,0,0,1,8.35,8.34V217.9H149.17a8.35,8.35,0,0,1-8.35-8.35v-105A8.35,8.35,0,0,1,149.17,96.21Z"/><path class="cls-13" d="M151.22,113.59H241.8a3.66,3.66,0,0,1,3.66,3.66h0a3.66,3.66,0,0,1-3.66,3.66H151.22a3.66,3.66,0,0,1-3.66-3.66h0A3.66,3.66,0,0,1,151.22,113.59Z"/><path class="cls-13" d="M152.13,188.62h90.58a3.66,3.66,0,0,1,3.66,3.66h0a3.66,3.66,0,0,1-3.66,3.66H152.13a3.66,3.66,0,0,1-3.66-3.66h0A3.66,3.66,0,0,1,152.13,188.62Z"/><path class="cls-14" d="M153,134.64h37.61a2.68,2.68,0,0,1,2.68,2.68h0a2.68,2.68,0,0,1-2.68,2.68H153a2.68,2.68,0,0,1-2.68-2.68h0A2.68,2.68,0,0,1,153,134.64Z"/><path class="cls-14" d="M203.34,134.64H241a2.68,2.68,0,0,1,2.68,2.68h0A2.68,2.68,0,0,1,241,140H203.34a2.68,2.68,0,0,1-2.68-2.68h0A2.68,2.68,0,0,1,203.34,134.64Z"/><path class="cls-14" d="M153,152h37.61a2.68,2.68,0,0,1,2.68,2.68h0a2.68,2.68,0,0,1-2.68,2.68H153a2.68,2.68,0,0,1-2.68-2.68h0A2.68,2.68,0,0,1,153,152Z"/><path class="cls-14" d="M203.34,152H241a2.68,2.68,0,0,1,2.68,2.68h0a2.68,2.68,0,0,1-2.68,2.68H203.34a2.68,2.68,0,0,1-2.68-2.68h0A2.68,2.68,0,0,1,203.34,152Z"/><path class="cls-14" d="M153,167.58h37.61a2.68,2.68,0,0,1,2.68,2.68h0a2.68,2.68,0,0,1-2.68,2.68H153a2.68,2.68,0,0,1-2.68-2.68h0A2.68,2.68,0,0,1,153,167.58Z"/><path class="cls-14" d="M203.34,167.58H241a2.68,2.68,0,0,1,2.68,2.68h0a2.68,2.68,0,0,1-2.68,2.68H203.34a2.68,2.68,0,0,1-2.68-2.68h0A2.68,2.68,0,0,1,203.34,167.58Z"/><path class="cls-12" d="M108,251.05h49.41a6.86,6.86,0,0,1,6.89,6.83h0v24.71a6.86,6.86,0,0,1-6.86,6.86H101.15V257.88A6.85,6.85,0,0,1,108,251.05Z"/><rect class="cls-14" x="154.67" y="304.3" width="73.19" height="4.7" rx="2.35"/><path class="cls-14" d="M110.73,265.69h44.83a2.29,2.29,0,0,1,2.29,2.28h0a2.29,2.29,0,0,1-2.29,2.29H110.73a2.28,2.28,0,0,1-2.29-2.29h0A2.28,2.28,0,0,1,110.73,265.69Z"/><text class="cls-15" transform="translate(224.01 230.6)"><tspan class="cls-16">1</tspan><tspan x="3.84" y="0">1.17am</tspan></text><text class="cls-17" transform="translate(130.21 282.97)">1<tspan class="cls-18" x="3.84" y="0">1.18am</tspan></text><text class="cls-15" transform="translate(224.02 318.05)"><tspan class="cls-16">1</tspan><tspan x="3.84" y="0">1.20am</tspan></text></g></g></svg>