<svg xmlns="http://www.w3.org/2000/svg" xmlns:xlink="http://www.w3.org/1999/xlink" viewBox="0 0 24.07 24.07"><defs><style>.cls-1{fill:url(#linear-gradient);}</style><linearGradient id="linear-gradient" y1="12.03" x2="24.07" y2="12.03" gradientUnits="userSpaceOnUse"><stop offset="0" stop-color="#00ffaf"/><stop offset="0.06" stop-color="#00edad"/><stop offset="0.32" stop-color="#00a6a7"/><stop offset="0.55" stop-color="#006ea2"/><stop offset="0.75" stop-color="#00469f"/><stop offset="0.91" stop-color="#002d9d"/><stop offset="1" stop-color="#00249c"/></linearGradient></defs><g id="Layer_2" data-name="Layer 2"><g id="Layer_1-2" data-name="Layer 1"><path class="cls-1" d="M20.46,3.5A11.82,11.82,0,0,0,12,0,11.94,11.94,0,0,0,1.69,17.89L0,24.07l6.32-1.66A11.89,11.89,0,0,0,12,23.86h0a12,12,0,0,0,12-11.93A12,12,0,0,0,20.46,3.5ZM12,21.85a9.9,9.9,0,0,1-5-1.38l-.36-.22-3.75,1,1-3.65-.24-.38a9.93,9.93,0,1,1,18.42-5.27A10,10,0,0,1,12,21.85Zm5.43-7.43c-.29-.15-1.76-.87-2-1s-.47-.15-.67.15-.77,1-.95,1.17-.35.22-.64.07a8.12,8.12,0,0,1-4.06-3.54c-.31-.53.31-.49.88-1.63a.58.58,0,0,0,0-.52C9.88,9,9.29,7.54,9,7s-.49-.5-.67-.51a5.15,5.15,0,0,0-.57,0A1.12,1.12,0,0,0,7,6.8,3.36,3.36,0,0,0,6,9.28a5.81,5.81,0,0,0,1.22,3.09,13.44,13.44,0,0,0,5.09,4.5c1.89.81,2.63.88,3.58.74a3.07,3.07,0,0,0,2-1.41A2.61,2.61,0,0,0,18,14.78C18,14.64,17.76,14.57,17.46,14.42Z"/></g></g></svg>