<svg xmlns="http://www.w3.org/2000/svg" viewBox="0 0 303 303" xmlns:v="https://vecta.io/nano"><circle cx="151.5" cy="151.5" r="151.5" fill="#1e6ac6"/><path d="M238 105.36c-.23 11.27-3.84 20.84-11.52 28.63l-37.28 37.35a37.29 37.29 0 0 1-17.65 10.06c-14.64 3.52-27.78.64-38.91-9.82-5.21-4.89-5.53-12.45-.92-17.34s12.37-4.92 17.64 0a16.48 16.48 0 0 0 20.85 1.5 18.45 18.45 0 0 0 2.38-2q18-18 36-36c4.94-5 6.41-11 4-17.57s-7.34-10.18-14.28-10.8a15.62 15.62 0 0 0-12.83 4.75q-10.45 10.38-20.82 20.84a4.48 4.48 0 0 1-5.51 1.17 45.94 45.94 0 0 0-17.78-3.22c-2.56 0-4.2-1.55-3.92-3.8a4.3 4.3 0 0 1 1.09-2.29c10.28-10.33 20.34-20.91 31-30.85 11.79-11 25.9-13.89 41.09-8.63 15 5.2 23.78 16.21 26.79 31.8a22.51 22.51 0 0 1 .3 2.47c.18 1.39.28 2.73.28 3.75zm-96 14.76c11.22.24 20.84 4.06 28.76 11.87a11.49 11.49 0 0 1 3.24 11.65c-2.31 8.91-13.33 11.82-20.22 5.38-5.35-5-12.73-6.19-19-2.93a17.41 17.41 0 0 0-4.22 3q-18.34 18.28-36.56 36.6a16.53 16.53 0 1 0 23.37 23.37q10.59-10.51 21.08-21.13a4.09 4.09 0 0 1 5-1.08 48.27 48.27 0 0 0 18 3.35 5.3 5.3 0 0 1 3.08 1.06c1.58 1.29 1.37 3.54-.27 5.17q-8.55 8.58-17.11 17.14c-4.39 4.39-8.62 8.93-13.18 13.12-11.93 11-25.88 14.39-41.22 9.17s-24.61-16.38-27.18-32.45c-2.15-13.5 2-25.3 11.57-35q18-18.21 36.17-36.23A40.58 40.58 0 0 1 142 120.12z" fill="#fff"/></svg>