<svg xmlns="http://www.w3.org/2000/svg" xmlns:xlink="http://www.w3.org/1999/xlink" viewBox="0 0 243.67 222.67"><defs><style>.cls-1{fill:#ebebeb;}.cls-2{fill:#e6e6e6;}.cls-3{fill:#f0f0f0;}.cls-4{fill:#f5f5f5;}.cls-5{fill:#fafafa;}.cls-6{fill:#e0e0e0;}.cls-7{fill:#fff;}.cls-8{fill:#263238;}.cls-9{fill:url(#linear-gradient);}.cls-10{fill:url(#linear-gradient-2);}.cls-11{fill:url(#linear-gradient-3);}.cls-12{fill:url(#linear-gradient-4);}.cls-13{fill:#bfbfbf;opacity:0.4;}.cls-13,.cls-17,.cls-21,.cls-23{isolation:isolate;}.cls-14{fill:url(#linear-gradient-5);}.cls-15{fill:url(#linear-gradient-6);}.cls-16{fill:url(#linear-gradient-7);}.cls-17{opacity:0.1;}.cls-18{fill:url(#linear-gradient-8);}.cls-19{fill:#a55e5e;}.cls-20{fill:url(#linear-gradient-9);}.cls-21{opacity:0.3;}.cls-22{fill:#7f3e3b;}.cls-23{opacity:0.2;}</style><linearGradient id="linear-gradient" x1="28.33" y1="125.58" x2="186.9" y2="125.58" gradientUnits="userSpaceOnUse"><stop offset="0" stop-color="#00ffaf"/><stop offset="0.06" stop-color="#00edad"/><stop offset="0.32" stop-color="#00a6a7"/><stop offset="0.55" stop-color="#006ea2"/><stop offset="0.75" stop-color="#00469f"/><stop offset="0.91" stop-color="#002d9d"/><stop offset="1" stop-color="#00249c"/></linearGradient><linearGradient id="linear-gradient-2" x1="36.96" y1="59.28" x2="100.76" y2="59.28" xlink:href="#linear-gradient"/><linearGradient id="linear-gradient-3" x1="114.46" y1="59.28" x2="178.26" y2="59.28" xlink:href="#linear-gradient"/><linearGradient id="linear-gradient-4" x1="36.96" y1="80.8" x2="58.17" y2="80.8" xlink:href="#linear-gradient"/><linearGradient id="linear-gradient-5" x1="36.96" y1="109.72" x2="58.17" y2="109.72" xlink:href="#linear-gradient"/><linearGradient id="linear-gradient-6" x1="36.96" y1="139.07" x2="58.17" y2="139.07" xlink:href="#linear-gradient"/><linearGradient id="linear-gradient-7" x1="37.12" y1="167.66" x2="58.33" y2="167.66" xlink:href="#linear-gradient"/><linearGradient id="linear-gradient-8" x1="142.35" y1="166.58" x2="232.46" y2="166.58" xlink:href="#linear-gradient"/><linearGradient id="linear-gradient-9" x1="167.02" y1="176.13" x2="214.96" y2="176.13" xlink:href="#linear-gradient"/></defs><g id="Layer_2" data-name="Layer 2"><g id="Layer_1-2" data-name="Layer 1"><g id="freepik--background-complete--inject-91"><rect class="cls-1" y="159.55" width="243.67" height="0.12"/><rect class="cls-1" x="203.11" y="167.39" width="16.14" height="0.12"/><rect class="cls-1" x="157.18" y="168.72" width="4.23" height="0.12"/><rect class="cls-1" x="193.27" y="162.87" width="9.35" height="0.12"/><rect class="cls-1" x="25.57" y="163.69" width="21.05" height="0.12"/><rect class="cls-1" x="50.96" y="163.69" width="3.08" height="0.12"/><rect class="cls-1" x="64.07" y="165.75" width="45.65" height="0.12"/><path class="cls-1" d="M115.5,137.82H21.4A2.78,2.78,0,0,1,18.62,135V2.76A2.78,2.78,0,0,1,21.4,0h94.1a2.78,2.78,0,0,1,2.78,2.78h0V135A2.78,2.78,0,0,1,115.5,137.82ZM21.4.1a2.66,2.66,0,0,0-2.66,2.66V135a2.67,2.67,0,0,0,2.66,2.66h94.1a2.67,2.67,0,0,0,2.66-2.66V2.76A2.66,2.66,0,0,0,115.5.1Z"/><path class="cls-1" d="M220.91,137.82h-94.1A2.78,2.78,0,0,1,124,135V2.76A2.78,2.78,0,0,1,126.81,0h94.1a2.79,2.79,0,0,1,2.78,2.76V135A2.79,2.79,0,0,1,220.91,137.82ZM126.81.1a2.66,2.66,0,0,0-2.66,2.66V135a2.67,2.67,0,0,0,2.66,2.66h94.1a2.67,2.67,0,0,0,2.66-2.66V2.76A2.66,2.66,0,0,0,220.91.1Z"/><rect class="cls-2" x="106.77" y="97.24" width="9.07" height="62.32"/><polygon class="cls-3" points="109.97 159.55 106.78 159.55 106.78 147.71 113.32 147.71 109.97 159.55"/><polygon class="cls-3" points="202.34 159.55 205.53 159.55 205.53 147.71 198.99 147.71 202.34 159.55"/><rect class="cls-2" x="141.52" y="102.13" width="29.27" height="48.87"/><path class="cls-3" d="M153,103.85h5.79a9.88,9.88,0,0,0,6.66-2.48h-19.1A9.86,9.86,0,0,0,153,103.85Z"/><rect class="cls-2" x="110.06" y="102.13" width="29.27" height="48.87"/><path class="cls-3" d="M121.51,103.85h5.79a9.86,9.86,0,0,0,6.65-2.48h-19.1A9.9,9.9,0,0,0,121.51,103.85Z"/><rect class="cls-3" x="36.36" y="20.36" width="61.92" height="139.19"/><rect class="cls-4" x="36.36" y="20.36" width="60.61" height="139.19"/><rect class="cls-3" x="40.05" y="23.52" width="53.23" height="132.88"/><path class="cls-5" d="M88.05,48.25h0A14.52,14.52,0,0,0,73.54,33.73H59.8A14.52,14.52,0,0,0,45.28,48.25Z"/><rect class="cls-4" x="45.29" y="116.39" width="42.76" height="31.74"/><rect class="cls-4" x="69.19" y="57.18" width="18.86" height="55.11"/><rect class="cls-4" x="45.28" y="57.18" width="18.86" height="55.11"/><path class="cls-6" d="M52.14,84.49H44.4a1.2,1.2,0,0,1-1.2-1.2h0a1.2,1.2,0,0,1,1.2-1.2h7.74a1.2,1.2,0,0,1,1.2,1.2h0a1.2,1.2,0,0,1-1.2,1.2Z"/><rect class="cls-3" x="40.05" y="23.52" width="0.96" height="132.88"/><rect class="cls-2" x="137.45" y="13.32" width="65.66" height="68.64"/><rect class="cls-4" x="135.79" y="13.32" width="65.66" height="68.64"/><rect class="cls-2" x="131.96" y="81.96" width="71.16" height="3.57"/><rect class="cls-4" x="130.09" y="81.96" width="67.49" height="3.57"/><rect class="cls-7" x="138.76" y="16.53" width="59.72" height="62.23"/><rect class="cls-4" x="166.97" y="16.53" width="3.31" height="62.23"/><rect class="cls-2" x="138.76" y="16.53" width="1.25" height="62.23"/><rect class="cls-2" x="170.28" y="16.53" width="1.25" height="62.23"/><path class="cls-2" d="M146.27,83.59c-1.21-12.51-2.05-32.81-1.4-39.61a.87.87,0,0,1,.35-.58h0a.83.83,0,0,1,1.16.18.79.79,0,0,1,.16.51c-.11,3.37-.24,11.78.49,26.29.35,7.22.87,12.18.52,13.21Z"/><path class="cls-2" d="M141.77,54.75c-3.44-3.82-10.46-6.53-17.62-6.52-2.81,0,8.55,4.44,13.27,9.34a52.92,52.92,0,0,1,9.22,13.75C145.71,63.84,145.23,58.57,141.77,54.75Z"/><path class="cls-2" d="M148.59,55.92c2.85-4,9.44-7,16.57-7.39,2.79-.13-7.86,4.88-11.83,10a46.33,46.33,0,0,0-7.13,14.17C146,65.18,145.71,59.89,148.59,55.92Z"/><path class="cls-2" d="M141.62,40.81c-2.92-3.24-8.86-5.54-14.92-5.52-2.38,0,7.23,3.76,11.24,7.9a44.34,44.34,0,0,1,7.79,11.65C145,48.51,144.53,44,141.62,40.81Z"/><path class="cls-2" d="M147.39,45.59c2.44-3.37,8-6,14-6.25,2.37-.11-6.65,4.11-10,8.44a39.16,39.16,0,0,0-6,12C145.23,53.43,145,49,147.39,45.59Z"/><path class="cls-2" d="M146.76,97.24h0a7.11,7.11,0,0,1-7.1-6.7L139,79.66h15.45l-.62,10.88A7.11,7.11,0,0,1,146.76,97.24Z"/><polygon class="cls-2" points="155.48 82.13 138.03 82.13 137.53 77.6 155.98 77.6 155.48 82.13"/></g><g id="freepik--Shadow--inject-91"><ellipse id="freepik--path--inject-91" class="cls-4" cx="125.68" cy="221.13" rx="117.18" ry="1.54"/></g><path class="cls-8" d="M28.33,31.7a3.4,3.4,0,0,1,3.4-3.4H183.49a3.41,3.41,0,0,1,3.41,3.4v11H28.33Z"/><path class="cls-3" d="M55.82,38.34a2.87,2.87,0,1,1,2.87-2.87,2.88,2.88,0,0,1-2.87,2.87Zm0-5.14a2.27,2.27,0,1,0,2.27,2.27A2.27,2.27,0,0,0,55.82,33.2Z"/><path class="cls-3" d="M46.71,38.34a2.87,2.87,0,1,1,2.87-2.87,2.87,2.87,0,0,1-2.87,2.87Zm0-5.14A2.27,2.27,0,1,0,49,35.47,2.27,2.27,0,0,0,46.71,33.2Z"/><path class="cls-3" d="M37.6,38.34a2.87,2.87,0,1,1,2.87-2.87,2.87,2.87,0,0,1-2.87,2.87Zm0-5.14a2.27,2.27,0,1,0,2.27,2.27A2.27,2.27,0,0,0,37.6,33.2Z"/><path class="cls-9" d="M183.49,208.52H31.73c-1.88,0-3.4-2.43-3.4-5.4V42.65H186.9V203.12C186.89,206.09,185.37,208.51,183.49,208.52Z"/><rect class="cls-7" x="29.29" y="45.55" width="156.64" height="153.76"/><rect class="cls-10" x="36.96" y="53.23" width="63.8" height="12.09" rx="2.06"/><path class="cls-11" d="M176.19,53.77a1.53,1.53,0,0,1,1.53,1.52v8a1.53,1.53,0,0,1-1.53,1.52H116.53A1.53,1.53,0,0,1,115,63.26v-8a1.53,1.53,0,0,1,1.53-1.52h59.66m0-.54H116.53a2.07,2.07,0,0,0-2.07,2.06v8a2.07,2.07,0,0,0,2.07,2.06h59.66a2.07,2.07,0,0,0,2.07-2.06v-8A2.07,2.07,0,0,0,176.19,53.23Z"/><path class="cls-12" d="M47.57,70.74A10.06,10.06,0,1,1,37.51,80.8,10.05,10.05,0,0,1,47.57,70.74m0-.54a10.61,10.61,0,1,0,10.6,10.6,10.6,10.6,0,0,0-10.6-10.6Z"/><path class="cls-13" d="M55.24,85a8.75,8.75,0,0,1-15.38,0A13.84,13.84,0,0,1,55.24,85Z"/><circle class="cls-13" cx="47.57" cy="77.81" r="3.9"/><path class="cls-13" d="M172.8,86.26H69.59a5.46,5.46,0,0,1-5.46-5.46h0a5.45,5.45,0,0,1,5.45-5.45H172.8a5.46,5.46,0,0,1,5.46,5.45h0a5.46,5.46,0,0,1-5.46,5.46Z"/><path class="cls-14" d="M47.57,99.65a10.07,10.07,0,1,1-10.06,10.07h0A10.07,10.07,0,0,1,47.57,99.65m0-.54a10.61,10.61,0,1,0,10.6,10.61h0A10.6,10.6,0,0,0,47.57,99.11Z"/><path class="cls-13" d="M55.24,113.86a8.75,8.75,0,0,1-15.38,0A13.84,13.84,0,0,1,55.24,113.86Z"/><circle class="cls-13" cx="47.57" cy="106.7" r="3.9"/><path class="cls-13" d="M69.59,104.24H172.8a5.45,5.45,0,0,1,5.46,5.45h0a5.45,5.45,0,0,1-5.46,5.45H69.59a5.45,5.45,0,0,1-5.46-5.45h0a5.45,5.45,0,0,1,5.45-5.45h0Z"/><path class="cls-15" d="M47.57,129a10.07,10.07,0,1,1-10.06,10.06h0A10.06,10.06,0,0,1,47.57,129m0-.54a10.61,10.61,0,1,0,10.6,10.6h0A10.6,10.6,0,0,0,47.57,128.47Z"/><path class="cls-13" d="M55.24,143.21a8.75,8.75,0,0,1-15.38,0A13.84,13.84,0,0,1,55.24,143.21Z"/><circle class="cls-13" cx="47.57" cy="136.05" r="3.9"/><path class="cls-13" d="M69.59,133.59H172.8a5.45,5.45,0,0,1,5.46,5.46h0a5.45,5.45,0,0,1-5.46,5.45H69.59a5.45,5.45,0,0,1-5.46-5.45h0a5.45,5.45,0,0,1,5.45-5.45h0Z"/><path class="cls-16" d="M47.73,157.59a10.07,10.07,0,1,1-10.07,10.07h0a10.08,10.08,0,0,1,10.07-10.07m0-.54a10.61,10.61,0,1,0,10.6,10.61h0A10.61,10.61,0,0,0,47.73,157.05Z"/><path class="cls-13" d="M55.4,171.79a8.75,8.75,0,0,1-15.39,0A13.9,13.9,0,0,1,55.4,171.79Z"/><circle class="cls-13" cx="47.73" cy="164.63" r="3.9"/><path class="cls-13" d="M69.74,162.17H173a5.46,5.46,0,0,1,5.45,5.46h0a5.45,5.45,0,0,1-5.45,5.45H69.74a5.45,5.45,0,0,1-5.45-5.45h0a5.45,5.45,0,0,1,5.45-5.45h0Z"/><path class="cls-17" d="M137.78,161.6A56.07,56.07,0,0,0,139,173.08a23.44,23.44,0,0,0-12.28,20.32,22.2,22.2,0,0,0,.66,5.56h55a4.1,4.1,0,0,0,4.2-4V104.24C158.05,110.24,137.8,134.08,137.78,161.6Z"/><circle class="cls-18" cx="187.4" cy="166.58" r="45.06"/><circle class="cls-7" cx="187.57" cy="166.52" r="41.08"/><path class="cls-19" d="M173.75,139l-2.62,3.35a15,15,0,0,0-3.17,3.25c-1,1-2,2-2.87,3.13a43,43,0,0,0-3,3.91,23.2,23.2,0,0,0-2.45,4.65,9.8,9.8,0,0,0-.65,3.25,6.2,6.2,0,0,0,.41,2.3,5.39,5.39,0,0,0,1.72,2.28l.57.43.86.16a27.94,27.94,0,0,0,5.16.51l.68-.06-.7-6.87c-.58,0-1.83.12-2.4.11a1.94,1.94,0,0,1,.07-.33,21.61,21.61,0,0,1,1.41-3.79c.61-1.31,1.31-2.63,2-3.94.64-1.16,1.33-2.32,2-3.46l3.25-2,1.9-3.37Zm-8.45,21.39v-.16a.5.5,0,0,1,0,.13C165.37,160.46,165.33,160.46,165.3,160.36Z"/><path class="cls-19" d="M192.21,146.22c.08-.41-2.76-1.84-4.73-.68-1.69,1-1.91,2.38-1.29,4a2.14,2.14,0,0,0,.06.35c0,.26.07.54.09.79a3.93,3.93,0,0,1-2.28,4.25c0,.11-.26.22-.35.3a3.86,3.86,0,0,0-1.29,2.46c0,.7.67,1.26,1.44,1.93l1.08.73,1.49-.14c4.55-1.33,6.68-5.49,6.58-5.8C191.84,152.5,191.86,149.12,192.21,146.22Z"/><path class="cls-20" d="M202.06,156.09l-.82-.14c-1.09-.17-5.92-1.27-8.25-1.47h0c-.54,1.15-2.32,4-6.88,5.3l-1.12.27-1.09-.54a2.93,2.93,0,0,1-1.18-2.08,3.14,3.14,0,0,1,1.18-2.17.29.29,0,0,0,.1-.12v-.23c-.34,0-4.67.7-5,.76A69.9,69.9,0,0,0,167,159l0,.39.79,6.82.29,2.58s2.16-.24,5-.74a101.57,101.57,0,0,0,1.44,29.75l9.24-.17,16.07-.3c.06-1.09-.06-3.33-.17-6.39l-.15-4.74c-.08-4.18-.07-9.2.31-14.58.06-.85.13-1.7.2-2.57h0c3.29,3.55,6.57,6.94,6.57,6.94l1.56-1.5a12.77,12.77,0,0,0,4.91-4.74L215,168S206.5,156.84,202.06,156.09Z"/><path class="cls-21" d="M198.9,165.79A7.93,7.93,0,0,0,200,169l1.24,2.14c.06-.86.13-1.71.21-2.58C200.55,167.61,199.7,166.68,198.9,165.79Z"/><path class="cls-22" d="M196.64,100.1a2,2,0,0,0,.06.34A2,2,0,0,0,196.64,100.1Z"/><path class="cls-23" d="M196.79,101.23a5.16,5.16,0,0,0-.09-.79C196.74,100.71,196.77,101,196.79,101.23Z"/><path class="cls-7" d="M195.79,155.3a1.22,1.22,0,0,0-.9-.92l-1.13-.27a.65.65,0,0,0-.73.32l0,0c-.54,1.15-2.32,4-6.88,5.3l-.35.09h0l-.77.18-1.09-.54a2.93,2.93,0,0,1-1.18-2.08,3.14,3.14,0,0,1,1.18-2.17,1,1,0,0,0,.16-.2c.05-.12,0-.18-.05-.24-1.19-.86-3.87.47-4,.7a4.15,4.15,0,0,0-.34.37,3.77,3.77,0,0,0-.87,2.87,5.79,5.79,0,0,0,2.75,4.2h.16a.19.19,0,0,0,.08-.15,3.24,3.24,0,0,1,2-3l.95.51c-4.07,16.72-1.31,36.75-1.23,37.29h.31c0-.2-2.87-20.41,1.23-37.22l1-.24a4.42,4.42,0,0,1,.6,3.52.16.16,0,0,0,.05.17.17.17,0,0,0,.1,0h.06c.22-.09,5.34-2.34,7.14-4.47a8.69,8.69,0,0,0,1.74-3.52A1.18,1.18,0,0,0,195.79,155.3Z"/><path class="cls-23" d="M194.77,142.52l-.32.23a6.27,6.27,0,0,1-3.19,1.05,2,2,0,0,0,.06.34c0,.27.07.54.09.79v0A5.45,5.45,0,0,0,194.77,142.52Z"/><path class="cls-8" d="M183,136.32c2.11-2.71.77-4.33-.13-4.18-.85.4-1.66,1.53-2.07,4.07a6.46,6.46,0,0,0,0,1.81C181.65,138,183,136.32,183,136.32Z"/><path class="cls-19" d="M191.89,142.3c5.87-10.32-5.72-11.52-8.08-9.21a10.13,10.13,0,0,0-2,2.56l-.49,1q-.3.69-.54,1.41a16.35,16.35,0,0,0-.92,5.32,6.2,6.2,0,0,0,6.17,6.23h.17a6.18,6.18,0,0,0,3.19-1.05l.32-.23a7.47,7.47,0,0,0,1.95-2.05C192.87,144.29,192.55,143.31,191.89,142.3Z"/><path class="cls-8" d="M181,136.3a.23.23,0,0,0,0,.31.24.24,0,0,0,.14,0,.17.17,0,0,0,.12,0s0,0,.06,0a1.85,1.85,0,0,1,1.47-.74.23.23,0,0,0,0-.45h0a2.31,2.31,0,0,0-1.09.27A2.56,2.56,0,0,0,181,136.3Z"/><path class="cls-8" d="M186.89,142.78a.11.11,0,0,0-.15,0,3.2,3.2,0,0,1-2.71.68.11.11,0,0,0-.13.08.13.13,0,0,0,.09.14,4,4,0,0,0,.78.07,3.27,3.27,0,0,0,2.11-.8.11.11,0,0,0,0-.16Z"/><path class="cls-8" d="M184,138.92a14.51,14.51,0,0,1-2.54,2.82,2.18,2.18,0,0,0,1.71.69Z"/><path class="cls-8" d="M182.07,139.05c.24,0,.54-.21.6-.59s0-.71-.28-.76-.52.21-.6.59S181.82,139,182.07,139.05Z"/><path class="cls-8" d="M186.3,139.91c.25.05.51-.21.61-.58s0-.71-.29-.76-.52.21-.6.58S186.05,139.84,186.3,139.91Z"/><path class="cls-8" d="M195.6,134c2.29-2-2.93-6-2.93-6s.59,1.43-.63,1.83-9.74-2.79-9.62.82a2.76,2.76,0,0,0,.47,1.42,4.16,4.16,0,0,0,.92.95c2,1.51,5.59,2,7.54,2a10,10,0,0,0-.64,2.35,6.27,6.27,0,0,0,1.18,4.87c1.09,1.89,2.53,1.83,3.77.4C197.64,140.79,199.55,137,195.6,134Z"/><path class="cls-19" d="M194.61,141.58a2.75,2.75,0,0,0-2.71.72,4.86,4.86,0,0,0-1.12,1.23c-.77,1.19-.5,2.58.87,2.7h.57a4.68,4.68,0,0,0,2.85-1.35,2.19,2.19,0,0,0,.59-2.17A1.72,1.72,0,0,0,194.61,141.58Z"/><path class="cls-8" d="M174.58,197.76s-.15,1.27-.38,3.4a41.17,41.17,0,0,0,25.62.24c.05-2.58.09-4.11.09-4.11l-16.09.3h-.31Z"/><path class="cls-19" d="M216.48,176a5.29,5.29,0,0,0-.31-1.35,5.78,5.78,0,0,0-.28-.63l-.16-.29-.08-.15c-.78-1.33-1.63-2.59-2.49-3.79l-4.92,4.74c.65.81,1.28,1.62,1.87,2.46a3.91,3.91,0,0,1-.42.78,17.91,17.91,0,0,1-2.71,3,79.62,79.62,0,0,1-6.65,5.37l-.76.1-3,.41-3,2,1.95,4,2.46-1.26a9.25,9.25,0,0,0,1.73-.4,3.76,3.76,0,0,0,2.13-1.51,44.51,44.51,0,0,0,4.22-1.93,43,43,0,0,0,4.28-2.54c.69-.47,1.38-1,2.06-1.56a16.27,16.27,0,0,0,2-2,8.91,8.91,0,0,0,1.76-3A5.61,5.61,0,0,0,216.48,176Zm-6.33.86v-.08c0-.13,0-.18,0-.11a.58.58,0,0,1,0,.19Z"/><circle class="cls-8" cx="54.13" cy="174.73" r="6.28"/><path class="cls-7" d="M57.57,174.14H54.71v-2.87a.58.58,0,0,0-.59-.58.59.59,0,0,0-.59.58v2.87H50.67a.59.59,0,1,0,0,1.17h2.86v2.87a.6.6,0,0,0,.59.59.59.59,0,0,0,.59-.59v-2.87h2.86a.59.59,0,1,0,0-1.17Z"/><circle class="cls-8" cx="152.85" cy="197.29" r="17.98"/><path class="cls-7" d="M162.72,195.59h-8.2v-8.2a1.69,1.69,0,0,0-3.37,0v8.2H143a1.69,1.69,0,0,0,0,3.37h8.2v8.2a1.69,1.69,0,0,0,3.37,0V199h8.2a1.69,1.69,0,0,0,0-3.37Z"/><path class="cls-8" d="M187.11,137.08a1.71,1.71,0,0,1,1.24,1,.21.21,0,0,0,.2.13h.09a.21.21,0,0,0,.11-.29h0a2.18,2.18,0,0,0-1.58-1.26.23.23,0,0,0-.25.19.23.23,0,0,0,.19.26h0Z"/></g></g></svg>