<svg xmlns="http://www.w3.org/2000/svg" xmlns:xlink="http://www.w3.org/1999/xlink" viewBox="0 0 244.94 152.62"><defs><style>.cls-1{fill:#263238;}.cls-2{fill:#455a64;}.cls-3{fill:#fff;}.cls-4{fill:url(#linear-gradient);}.cls-5{fill:url(#linear-gradient-2);}.cls-6{fill:url(#linear-gradient-3);}.cls-7{fill:url(#linear-gradient-4);}.cls-8{fill:url(#linear-gradient-5);}.cls-9{fill:url(#linear-gradient-6);}.cls-10{fill:url(#linear-gradient-7);}.cls-11{fill:url(#linear-gradient-8);}.cls-12{fill:url(#linear-gradient-9);}.cls-13{fill:url(#linear-gradient-10);}.cls-14{fill:url(#linear-gradient-11);}.cls-15{fill:url(#linear-gradient-12);}.cls-16{fill:url(#linear-gradient-13);}.cls-17{fill:url(#linear-gradient-14);}.cls-18{fill:#ffbe9d;}.cls-19{fill:#eb996e;}.cls-20{fill:#ff725e;}.cls-21{fill:url(#linear-gradient-15);}.cls-22{fill:url(#linear-gradient-16);}.cls-23{fill:url(#linear-gradient-17);}.cls-24{fill:url(#linear-gradient-18);}.cls-25{fill:#fafafa;}</style><linearGradient id="linear-gradient" x1="103.61" y1="39.35" x2="102.84" y2="121.84" gradientUnits="userSpaceOnUse"><stop offset="0" stop-color="#00ffaf"/><stop offset="0.06" stop-color="#00edad"/><stop offset="0.32" stop-color="#00a6a7"/><stop offset="0.55" stop-color="#006ea2"/><stop offset="0.75" stop-color="#00469f"/><stop offset="0.91" stop-color="#002d9d"/><stop offset="1" stop-color="#00249c"/></linearGradient><linearGradient id="linear-gradient-2" x1="112.74" y1="39.43" x2="111.98" y2="121.92" xlink:href="#linear-gradient"/><linearGradient id="linear-gradient-3" x1="121.74" y1="39.51" x2="120.98" y2="122" xlink:href="#linear-gradient"/><linearGradient id="linear-gradient-4" x1="130.78" y1="39.6" x2="130.01" y2="122.09" xlink:href="#linear-gradient"/><linearGradient id="linear-gradient-5" x1="139.9" y1="39.68" x2="139.14" y2="122.17" xlink:href="#linear-gradient"/><linearGradient id="linear-gradient-6" x1="148.99" y1="39.77" x2="148.22" y2="122.26" xlink:href="#linear-gradient"/><linearGradient id="linear-gradient-7" x1="157.94" y1="39.85" x2="157.18" y2="122.34" xlink:href="#linear-gradient"/><linearGradient id="linear-gradient-8" x1="167.03" y1="39.93" x2="166.27" y2="122.42" xlink:href="#linear-gradient"/><linearGradient id="linear-gradient-9" x1="176.06" y1="40.02" x2="175.29" y2="122.51" xlink:href="#linear-gradient"/><linearGradient id="linear-gradient-10" x1="185.18" y1="40.1" x2="184.41" y2="122.59" xlink:href="#linear-gradient"/><linearGradient id="linear-gradient-11" x1="203.16" y1="40.27" x2="202.39" y2="122.76" xlink:href="#linear-gradient"/><linearGradient id="linear-gradient-12" x1="222.52" y1="40.45" x2="221.75" y2="122.94" xlink:href="#linear-gradient"/><linearGradient id="linear-gradient-13" x1="213.08" y1="40.36" x2="212.32" y2="122.85" xlink:href="#linear-gradient"/><linearGradient id="linear-gradient-14" x1="194.2" y1="40.19" x2="193.44" y2="122.67" xlink:href="#linear-gradient"/><linearGradient id="linear-gradient-15" x1="76.02" y1="63.44" x2="102.75" y2="63.44" xlink:href="#linear-gradient"/><linearGradient id="linear-gradient-16" x1="76.01" y1="69.97" x2="90.84" y2="69.97" xlink:href="#linear-gradient"/><linearGradient id="linear-gradient-17" x1="97.77" y1="61.99" x2="107.11" y2="61.99" xlink:href="#linear-gradient"/><linearGradient id="linear-gradient-18" x1="88.28" y1="49.29" x2="95.15" y2="49.29" xlink:href="#linear-gradient"/></defs><g id="Layer_2" data-name="Layer 2"><g id="Layer_1-2" data-name="Layer 1"><g id="freepik--Floor--inject-168"><path class="cls-1" d="M244.94,147.54c0,.05-54.84.09-122.46.09S0,147.59,0,147.54s54.82-.1,122.48-.1S244.94,147.48,244.94,147.54Z"/></g><path class="cls-1" d="M229.86,24.9H90.79a4.34,4.34,0,0,0-4.34,4.34v98.24a4.34,4.34,0,0,0,4.34,4.34h53.38s3.39,10.49-7.13,15.93H187s-11.88-4.08-8.83-15.93h51.74a4.34,4.34,0,0,0,4.34-4.34h0V29.25A4.34,4.34,0,0,0,229.86,24.9Z"/><path class="cls-2" d="M162.18,121.47a2.67,2.67,0,0,1-4,3.54A2.67,2.67,0,0,1,162.18,121.47Z"/><path class="cls-3" d="M92.39,26.7H228.27a3.55,3.55,0,0,1,3.55,3.55v83.6h-143V30.25A3.55,3.55,0,0,1,92.39,26.7Z"/><rect class="cls-4" x="100.96" y="46.37" width="4.69" height="52.37"/><rect class="cls-5" x="110.01" y="64.16" width="4.69" height="34.58"/><rect class="cls-6" x="119.06" y="52.88" width="4.69" height="46.13"/><rect class="cls-7" x="128.12" y="48.4" width="4.69" height="50.34"/><rect class="cls-8" x="137.17" y="65.23" width="4.69" height="33.52"/><rect class="cls-9" x="146.22" y="71.8" width="4.69" height="26.94"/><rect class="cls-10" x="155.27" y="51.75" width="4.69" height="46.99"/><rect class="cls-11" x="164.32" y="60.22" width="4.69" height="38.52"/><rect class="cls-12" x="173.38" y="53.45" width="4.69" height="45.29"/><rect class="cls-13" x="182.43" y="67.89" width="4.69" height="30.86"/><rect class="cls-14" x="200.49" y="51.75" width="4.69" height="46.99"/><rect class="cls-15" x="219.71" y="81.99" width="4.69" height="16.08"/><rect class="cls-16" x="210.34" y="67.89" width="4.69" height="30.86"/><rect class="cls-17" x="191.48" y="62.02" width="4.69" height="36.73"/><path class="cls-1" d="M225.72,53.05c-11.62-2.94-24.06,1.76-31.91,10.58-8.74,9.16-12.65,26.48-26.9,29.53-18.37.36-21.87-23.73-32.5-34-8.24-9.33-23.56-7.69-30.86,1.94,7.17-10.06,22.51-11.74,31.16-2.25,10.65,10.09,14,34,32.11,33.79,14.06-3.11,17.9-20.24,26.67-29.31C201.41,54.58,214.12,49.6,225.72,53.05Z"/><path class="cls-1" d="M95.8,102.39c-.24,1.91-.24-68.61,0-66.7C96.05,33.81,96,104.29,95.8,102.39Z"/><path class="cls-1" d="M224.38,102.39c3.5.24-129.15.24-125.66,0C95.23,102.15,227.88,102.15,224.38,102.39Z"/><path class="cls-1" d="M107.64,106.51c.19.25-7.14.25-7,0C100.5,106.27,107.83,106.27,107.64,106.51Z"/><path class="cls-1" d="M119.18,106.72c.22.25-8.54.25-8.32,0C110.63,106.48,119.41,106.48,119.18,106.72Z"/><path class="cls-1" d="M129,106.72c.23.25-8.54.25-8.31,0C120.49,106.48,129.28,106.48,129,106.72Z"/><path class="cls-1" d="M138.88,106.72c.22.25-8.55.25-8.32,0C130.32,106.48,139.11,106.48,138.88,106.72Z"/><path class="cls-1" d="M148.72,106.72c.23.25-8.55.25-8.32,0C140.17,106.48,149,106.48,148.72,106.72Z"/><path class="cls-1" d="M158.57,106.72c.23.25-8.55.25-8.32,0C150,106.47,158.81,106.48,158.57,106.72Z"/><path class="cls-1" d="M168.41,106.72c.24.25-8.54.25-8.31,0C159.86,106.47,168.65,106.48,168.41,106.72Z"/><path class="cls-1" d="M178.26,106.72c.23.25-8.55.25-8.32,0C169.71,106.47,178.49,106.48,178.26,106.72Z"/><path class="cls-1" d="M188.1,106.72c.23.25-8.54.25-8.31,0C179.55,106.48,188.34,106.48,188.1,106.72Z"/><path class="cls-1" d="M198,106.72c.22.25-8.55.25-8.32,0C189.4,106.48,198.18,106.48,198,106.72Z"/><path class="cls-1" d="M207.11,106.72c.23.25-8.55.25-8.32,0C198.56,106.48,207.33,106.49,207.11,106.72Z"/><path class="cls-1" d="M216.26,106.73c.23.24-8.54.24-8.31,0C207.71,106.49,216.5,106.49,216.26,106.73Z"/><path class="cls-1" d="M225.42,106.73c.22.25-8.54.25-8.32,0C216.87,106.49,225.65,106.49,225.42,106.73Z"/><path class="cls-1" d="M143.65,70.76c.5-.2,1.17,1.67.62,2.25-.71,1.34-2.63.29-2.45-1,0-.83,1.13-1.94,1.82-1.23a1,1,0,0,0-.93.31C141,73.84,145.48,73.73,143.65,70.76Z"/><path class="cls-1" d="M205.37,53.53c2.07-.1,2,3.71-.16,3.65s-1.68-4,.08-3.8c-1.1.27-1.77,2.94-.06,3.26C206.88,56.47,206.75,54,205.37,53.53Z"/><rect class="cls-3" x="58.06" y="0.12" width="94.1" height="73.24"/><path class="cls-1" d="M152.16,73.36c0-.73,0-29-.09-73.24l.09.09H58.07l.11-.1V73.34l-.1-.09,94.1.09L58,73.44V0h94.29C152.2,44.12,152.17,72.7,152.16,73.36Z"/><rect class="cls-1" x="62.65" y="9.75" width="15.23" height="0.85"/><rect class="cls-1" x="62.65" y="11.73" width="7.53" height="0.85"/><rect class="cls-1" x="71.33" y="62.84" width="2.76" height="0.8"/><rect class="cls-1" x="77.58" y="67.09" width="3.53" height="0.8"/><rect class="cls-1" x="89.86" y="67.09" width="3.53" height="0.8"/><rect class="cls-1" x="102.15" y="67.09" width="3.53" height="0.8"/><rect class="cls-1" x="114.43" y="67.09" width="3.53" height="0.8"/><rect class="cls-1" x="126.72" y="67.09" width="3.53" height="0.8"/><rect class="cls-1" x="139" y="67.09" width="3.53" height="0.8"/><rect class="cls-1" x="71.33" y="52.22" width="2.76" height="0.8"/><rect class="cls-1" x="71.33" y="32.23" width="2.76" height="0.8"/><rect class="cls-1" x="71.33" y="22.18" width="2.76" height="0.8"/><rect class="cls-1" x="71.48" y="42.22" width="2.76" height="0.8"/><path class="cls-1" d="M142.43,63.63c-16.79.08-50.07.08-67,.08,0-19.62,0-32.17.06-47.79,0,15.61,0,28.07.06,47.7l-.09-.1C92.41,63.56,125.62,63.46,142.43,63.63Z"/><path class="cls-1" d="M143.21,42.62c1.78.12-66.81.12-65,0C76.4,42.5,145,42.5,143.21,42.62Z"/><path class="cls-1" d="M143.21,32.63c1.78.12-66.81.12-65,0C76.4,32.51,145,32.51,143.21,32.63Z"/><path class="cls-1" d="M143.21,22.58c1.78.12-66.81.12-65,0C76.4,22.46,145,22.46,143.21,22.58Z"/><path class="cls-1" d="M143.21,52.62c1.78.12-66.81.12-65,0C76.4,52.5,145,52.5,143.21,52.62Z"/><path class="cls-2" d="M78.87,61.48V52.62L84.4,44l3.75,2.88,7.7-12,4.54,3.2,6.32-11,5.11,4.18,7.73-14.63L127.84,33l6.68-8.19,7.9-2.26v38.9Z"/><path class="cls-1" d="M143.21,19.43l-8.21,0,0,0S128.55,28,128.52,28H112.23l.08,0L98.69,50.59c-.09-.13-8.8-12.08-8.89-12.22h.13c-2.2,3.42-8.91,14-11,17.2,1.86-3,8.88-14.06,11-17.37l8.89,12.18h-.15c3.38-5.64,10.17-16.94,13.56-22.57l16.33,0-.06,0L135,19.4v0C136.58,19.41,141.69,19.37,143.21,19.43Z"/><path class="cls-1" d="M92.51,41.18a.62.62,0,0,1-1.24,0A.62.62,0,0,1,92.51,41.18Z"/><path class="cls-1" d="M111.28,30.51a.63.63,0,0,1-1.25,0A.63.63,0,0,1,111.28,30.51Z"/><path class="cls-1" d="M125.23,27.3a.6.6,0,1,1,0,1.2A.6.6,0,1,1,125.23,27.3Z"/><path class="cls-1" d="M62,3.14a.73.73,0,0,1-1.46,0A.73.73,0,0,1,62,3.14Z"/><path class="cls-1" d="M64.1,3.14a.73.73,0,0,1-1.46,0A.73.73,0,0,1,64.1,3.14Z"/><path class="cls-1" d="M66.21,3.14a.73.73,0,0,1-1.46,0A.73.73,0,0,1,66.21,3.14Z"/><path class="cls-1" d="M152.09,6c2.6.12-96.53.12-93.91,0C55.6,5.88,154.64,5.86,152.09,6Z"/><path class="cls-2" d="M77.64,144.62,77,147.26s-4.33,5.63-5.66,5.35c-.88-.18.2-1.65,1.82-5.92l.37-1.76Z"/><path class="cls-1" d="M71.17,151.79a.49.49,0,0,0,.23.22.8.8,0,0,0,.83-.11,25.91,25.91,0,0,0,2.15-2c.8-.84,1.46-1.65,2-2.25l.55-.71.15-.19.06-.07-.06.07-.14.2-.53.73a28,28,0,0,1-1.94,2.27,22.21,22.21,0,0,1-2.19,2,1.08,1.08,0,0,1-.49.18.63.63,0,0,1-.38-.09.42.42,0,0,1-.19-.16Z"/><path class="cls-1" d="M71.78,150a.77.77,0,0,1,.37,0,2,2,0,0,1,.81.28,1.56,1.56,0,0,1,.59.63.88.88,0,0,1,.1.35,1.73,1.73,0,0,0-.15-.32,1.64,1.64,0,0,0-.58-.59,2,2,0,0,0-.78-.29Z"/><path class="cls-1" d="M75.88,148.66a.38.38,0,0,1-.06-.13c0-.12-.06-.24-.08-.37a2,2,0,0,1,.2-1.2,1.86,1.86,0,0,1,.88-.85,1.15,1.15,0,0,1,.36-.11h.14a2.64,2.64,0,0,0-.47.17A1.9,1.9,0,0,0,76,147a2.07,2.07,0,0,0-.22,1.17C75.83,148.47,75.89,148.65,75.88,148.66Z"/><path class="cls-1" d="M77.36,145.07s-.08.36-.16.84a2.76,2.76,0,0,1-.23.84s.07-.37.15-.85A2.94,2.94,0,0,1,77.36,145.07Z"/><path class="cls-1" d="M73.11,147.07a1.06,1.06,0,0,1,.56,0,1,1,0,0,1,.5.23s-.23-.09-.52-.16S73.12,147.09,73.11,147.07Z"/><path class="cls-1" d="M73,147.52a.72.72,0,0,1,.46,0,.61.61,0,0,1,.41.23,2.22,2.22,0,0,0-.43-.15A4.16,4.16,0,0,1,73,147.52Z"/><path class="cls-1" d="M72.68,148.09a.58.58,0,0,1,.48-.06.57.57,0,0,1,.41.26,2,2,0,0,0-.42-.19A2.48,2.48,0,0,0,72.68,148.09Z"/><path class="cls-1" d="M73.41,146.88a4.79,4.79,0,0,0,.51-.17,5,5,0,0,0,.52-.26l.29-.18a.38.38,0,0,0,.18-.26c0-.1-.13-.16-.23-.14a.8.8,0,0,0-.27.18,5,5,0,0,0-.4.42,2.66,2.66,0,0,1-.37.4l.08-.12c0-.08.13-.19.23-.32s.26-.29.4-.43a.75.75,0,0,1,.3-.2A.26.26,0,0,1,75,146s0,0,0,0a.45.45,0,0,1-.22.33,2.2,2.2,0,0,1-.3.19,5.05,5.05,0,0,1-.53.24,2.79,2.79,0,0,1-.39.1Z"/><path class="cls-1" d="M73.64,146.82a4,4,0,0,1-.08-.48,2.21,2.21,0,0,0-.15-.5,1,1,0,0,0-.16-.26c-.06-.07-.17-.14-.25-.09s-.09.17-.08.27a1.4,1.4,0,0,0,.09.29,1.52,1.52,0,0,0,.28.43,2.89,2.89,0,0,0,.36.34s0,0-.11-.06a2.09,2.09,0,0,1-.28-.24,1.63,1.63,0,0,1-.3-.44,1.24,1.24,0,0,1-.1-.31.34.34,0,0,1,.12-.34.28.28,0,0,1,.34.1,1.17,1.17,0,0,1,.17.28,1.91,1.91,0,0,1,.14.52c0,.15,0,.28,0,.37A.5.5,0,0,1,73.64,146.82Z"/><path class="cls-2" d="M98.36,145.85l0-3.53-6.6-.08-.09,5.17.41,0c1.83.12,9.28.5,10.5.14C104,147.18,98.36,145.85,98.36,145.85Z"/><path class="cls-1" d="M91.6,147.25h.11l.33,0,1.2.07c1,0,2.42.1,4,.12s3,0,4,0l1.21,0H97.21c-1.55,0-2.95-.06-4-.1l-1.2,0h-.33Z"/><path class="cls-1" d="M100.5,147.54a3.57,3.57,0,0,1,.23-.57,2.55,2.55,0,0,1,.42-.45.85.85,0,0,0-.48.41A.89.89,0,0,0,100.5,147.54Z"/><path class="cls-1" d="M98.57,146.53a.87.87,0,0,0,.21-.25c.09-.15.16-.28.14-.3s-.11.1-.21.25S98.54,146.52,98.57,146.53Z"/><path class="cls-1" d="M98,146.24s.12-.05.24-.15.19-.2.18-.22-.12.06-.23.16S98,146.22,98,146.24Z"/><path class="cls-1" d="M97.7,145.61a.83.83,0,0,0,.35,0,.18.18,0,1,0,0-.08A.7.7,0,0,0,97.7,145.61Z"/><path class="cls-1" d="M97.59,145.17a.78.78,0,0,0,.39.12.74.74,0,0,0,.39,0,2.34,2.34,0,0,0-.38,0A2.58,2.58,0,0,0,97.59,145.17Z"/><path class="cls-1" d="M98.8,146a1.48,1.48,0,0,0,.42,0,2.26,2.26,0,0,0,.45-.1,1.17,1.17,0,0,0,.26-.1.24.24,0,0,0,.11-.13.16.16,0,0,0-.06-.17.79.79,0,0,0-1,.21,1,1,0,0,0-.14.29.2.2,0,0,0,0,.11,1.11,1.11,0,0,1,.2-.37.72.72,0,0,1,.36-.23.69.69,0,0,1,.51,0c.07.05,0,.13,0,.17a.64.64,0,0,1-.24.1,2.18,2.18,0,0,1-.44.11A1.79,1.79,0,0,1,98.8,146Z"/><path class="cls-1" d="M98.91,146a.45.45,0,0,0,0-.3.68.68,0,0,0-.11-.31.43.43,0,0,0-.37-.22.17.17,0,0,0-.13.2.49.49,0,0,0,.07.19,1.57,1.57,0,0,0,.19.26.74.74,0,0,0,.25.17,2.26,2.26,0,0,1-.2-.21,1.51,1.51,0,0,1-.18-.26c-.06-.09-.09-.25,0-.27s.22.1.28.18a.77.77,0,0,1,.12.28Z"/><path class="cls-1" d="M91.76,145.44l.49,0A2.08,2.08,0,0,1,94,146.87a3.48,3.48,0,0,1,.12.47.29.29,0,0,0,0-.13,2.2,2.2,0,0,0-.06-.37,2,2,0,0,0-1.77-1.44,2.16,2.16,0,0,0-.36,0Z"/><path class="cls-1" d="M92.48,142.7a12.26,12.26,0,0,0-.08,1.36c0,.45,0,.9,0,1.36a10.44,10.44,0,0,0,.08-1.36A12.34,12.34,0,0,0,92.48,142.7Z"/><path class="cls-1" d="M94.93,146.75a3.87,3.87,0,0,0,1,.1,3.93,3.93,0,0,0,1-.06,8.49,8.49,0,0,0-1,0C95.37,146.79,94.93,146.72,94.93,146.75Z"/><path class="cls-1" d="M93.64,146.73s0,.09.07.19.07.18.09.18,0-.1,0-.22S93.65,146.71,93.64,146.73Z"/><path class="cls-1" d="M93.15,146.11a.46.46,0,0,0,.1.16c.07.07.13.11.15.1s0-.09-.09-.16S93.17,146.1,93.15,146.11Z"/><path class="cls-1" d="M92.46,145.82s.09,0,.19.06.16.09.18.08,0-.11-.16-.15S92.45,145.81,92.46,145.82Z"/><path class="cls-1" d="M92,145.69s0,.05.09.08.1,0,.11,0,0-.06-.08-.08S92,145.67,92,145.69Z"/><polygon class="cls-1" points="102.83 78.28 100.29 144.51 90 144.72 91.71 87.34 80.13 145.16 70.35 145.16 82.95 78.41 102.83 78.28"/><path class="cls-2" d="M94.08,80.69a6.85,6.85,0,0,1-.12,1.1c-.09.66-.24,1.59-.41,2.61a14.68,14.68,0,0,1-.29,1.44,2.12,2.12,0,0,1-.68,1,1.55,1.55,0,0,1-.75.33.51.51,0,0,1-.3,0,1.84,1.84,0,0,0,1.56-1.39,13.7,13.7,0,0,0,.28-1.42c.17-1,.33-1.94.46-2.6A7.71,7.71,0,0,1,94.08,80.69Z"/><path class="cls-2" d="M91.94,81a.47.47,0,0,0,0,.29.33.33,0,0,0,.17.23.31.31,0,0,0,.39-.19.28.28,0,0,0,0-.18.34.34,0,0,0-.19-.2.65.65,0,0,0-.3,0s.1-.15.34-.1a.43.43,0,0,1,.17.76.46.46,0,0,1-.5.07.44.44,0,0,1-.22-.35C91.78,81.08,91.93,81,91.94,81Z"/><path class="cls-2" d="M86.41,82a1.91,1.91,0,0,1,.2-1.82s-.11.41-.15.91A8.64,8.64,0,0,1,86.41,82Z"/><path class="cls-2" d="M87.65,81.87A2.23,2.23,0,0,1,87.78,80s-.07.43-.1,1A7.7,7.7,0,0,1,87.65,81.87Z"/><path class="cls-2" d="M98.29,82.14a6.57,6.57,0,0,1,0-1,6.7,6.7,0,0,1,0-1,1.85,1.85,0,0,1,.13,1A1.87,1.87,0,0,1,98.29,82.14Z"/><path class="cls-2" d="M99.63,82.07s.11-.46.15-1a9.68,9.68,0,0,1,0-1,2.18,2.18,0,0,1-.14,2Z"/><path class="cls-18" d="M88.5,50.72l6.35-.5c0-.73,0-3.61,0-3.61a3.19,3.19,0,0,0,2.68-3.06c0-2.64-.43-8.71-.43-8.71h0A9.16,9.16,0,0,0,87.85,36l-.4.31Z"/><path class="cls-19" d="M94.83,46.59a6.15,6.15,0,0,1-3.44-1,3.25,3.25,0,0,0,3.45,1.66Z"/><path class="cls-1" d="M96.05,39a.38.38,0,0,1-.76,0h0a.37.37,0,0,1,.37-.37.37.37,0,0,1,.39.34Z"/><path class="cls-1" d="M96.58,38.55c0,.05-.34-.17-.73-.17s-.71.21-.75.16,0-.11.15-.21a1.08,1.08,0,0,1,.6-.18,1,1,0,0,1,.59.19C96.56,38.45,96.6,38.55,96.58,38.55Z"/><path class="cls-1" d="M91.94,39.08a.36.36,0,0,1-.36.36.35.35,0,0,1-.39-.33h0a.38.38,0,0,1,.75,0Z"/><path class="cls-1" d="M92.58,38.63s-.33-.16-.73-.16-.7.21-.75.16,0-.11.16-.21a1,1,0,0,1,.6-.18,1,1,0,0,1,.59.19C92.57,38.52,92.61,38.61,92.58,38.63Z"/><path class="cls-1" d="M94.06,41.65a2.41,2.41,0,0,1,.66-.12c.1,0,.2,0,.22-.11a.53.53,0,0,0-.07-.3l-.31-.79a14.78,14.78,0,0,1-.69-2.07,13.65,13.65,0,0,1,.86,2c.1.27.19.54.29.79a.64.64,0,0,1,0,.41.27.27,0,0,1-.17.16l-.18,0A2.43,2.43,0,0,1,94.06,41.65Z"/><path class="cls-1" d="M92.88,41.93c.06,0,.06.43.44.75s.85.26.85.32-.1.09-.3.09a1.07,1.07,0,0,1-.71-.24,1,1,0,0,1-.36-.63C92.78,42,92.83,41.92,92.88,41.93Z"/><path class="cls-1" d="M92.69,37c0,.11-.45.06-.92.12s-.86.19-.93.09,0-.15.19-.26a1.61,1.61,0,0,1,1.41-.16C92.62,36.9,92.71,37,92.69,37Z"/><path class="cls-1" d="M96.43,37.38c-.07.1-.37,0-.69,0s-.62.07-.69,0,0-.14.15-.23a.9.9,0,0,1,.55-.15,1.06,1.06,0,0,1,.55.18C96.42,37.24,96.46,37.34,96.43,37.38Z"/><path class="cls-18" d="M87.77,39S85.94,38.5,86,40.31a1.36,1.36,0,0,0,1.86,1.33C87.87,41.58,87.77,39,87.77,39Z"/><path class="cls-19" d="M87.31,41l-.08.05A.33.33,0,0,1,87,41a.79.79,0,0,1-.36-.69.91.91,0,0,1,.07-.46.37.37,0,0,1,.22-.25.17.17,0,0,1,.19.08s0,.09,0,.09,0,0,0-.1a.18.18,0,0,0-.07-.11.24.24,0,0,0-.18,0,.43.43,0,0,0-.32.29,1.1,1.1,0,0,0-.09.51.8.8,0,0,0,.48.76.37.37,0,0,0,.29-.06S87.32,41,87.31,41Z"/><path class="cls-1" d="M98.09,32.56a2.8,2.8,0,0,0-4.34-.84,2.74,2.74,0,0,0-4.5-.58c-.51.57-.77,1.35-1.36,1.82s-1.21.56-1.73,1a2,2,0,0,0-.31,2.8,2,2,0,0,0,1,.67,2.15,2.15,0,0,0,1,2.88l.1.05.26-.11a3.75,3.75,0,0,0,.55-4.15h.1a2.1,2.1,0,0,0,2.74-.63,2.35,2.35,0,0,0,2.52.1,1,1,0,0,1,.37-.17.86.86,0,0,1,.47.14,2.12,2.12,0,0,0,1.28.26,1.22,1.22,0,0,0,1-.69h0a1.41,1.41,0,0,0,1.06-1A2.08,2.08,0,0,0,98.09,32.56Z"/><path class="cls-20" d="M102.1,64.28l.23-11.91a8.57,8.57,0,0,0-6.19-3l-.8-.1-.25-2-7.22-.41.37,2.33h0a18.54,18.54,0,0,0-2.8.54,7,7,0,0,0-5.39,4.47c-.46,1.55-3.42,13.06-3.42,13.06L76,70.74l6.63-2.41V80h20.09C102.81,77.83,102.1,64.28,102.1,64.28Z"/><path class="cls-21" d="M102.1,64.28l.23-11.91a8.57,8.57,0,0,0-6.19-3l-.8-.1-.25-2-7.22-.41.37,2.33h0a18.54,18.54,0,0,0-2.8.54,7,7,0,0,0-5.39,4.47c-.46,1.55-3.42,13.06-3.42,13.06L76,70.74l6.63-2.41V80h20.09C102.81,77.83,102.1,64.28,102.1,64.28Z"/><path class="cls-20" d="M79,67.43,89,66l1.89,3.37-9.22,4.16a4,4,0,0,1-1.63.36h0a4,4,0,0,1-3.68-2.48L76,70.7Z"/><path class="cls-22" d="M79,67.43,89,66l1.89,3.37-9.22,4.16a4,4,0,0,1-1.63.36h0a4,4,0,0,1-3.68-2.48L76,70.7Z"/><path class="cls-20" d="M99.29,50.05a7.31,7.31,0,0,1,4,3.66c.77,1.76,1.9,10.22,1.9,10.22l1.42,2.75a4.62,4.62,0,0,1,.52,2.13v.42a4.65,4.65,0,0,1-1,2.92h0a4.62,4.62,0,0,1-3.18,1.69c-1.42.12-3.14.18-3.5-.24a17.13,17.13,0,0,1-1.62-2.73l4.14-2.19-1.78-3.29Z"/><path class="cls-23" d="M99.29,50.05a7.31,7.31,0,0,1,4,3.66c.77,1.76,1.9,10.22,1.9,10.22l1.42,2.75a4.62,4.62,0,0,1,.52,2.13v.42a4.65,4.65,0,0,1-1,2.92h0a4.62,4.62,0,0,1-3.18,1.69c-1.42.12-3.14.18-3.5-.24a17.13,17.13,0,0,1-1.62-2.73l4.14-2.19-1.78-3.29Z"/><path class="cls-1" d="M82.31,73.25l.17-.09.47-.23,1.78-.83,6.07-2.77,0,.12L89.6,67.37l-.73-1.29.09,0-7.27.71-2.15.2-.59,0a.67.67,0,0,1-.2,0l.2,0,.58-.07,2.15-.25L89,66h0l0,0,.73,1.29,1.16,2.08,0,.09-.09,0-6.1,2.71L83,73l-.49.21Z"/><path class="cls-1" d="M84.08,66.45a37.62,37.62,0,0,1-.1-4,37.78,37.78,0,0,1,.1-4s.09,1.78.09,4S84.11,66.45,84.08,66.45Z"/><path class="cls-1" d="M101.13,69.1a1.14,1.14,0,0,1,.3,0,2.63,2.63,0,0,1,.84,0,1,1,0,0,1,.52.29,1.38,1.38,0,0,1,.28.63,1.5,1.5,0,0,1-.07.76,1.37,1.37,0,0,1-.5.64,3.72,3.72,0,0,1-1.43.51,6.43,6.43,0,0,1-1.24.12,2.13,2.13,0,0,1-1.11-.19,5.92,5.92,0,0,0,1.11.07,7.88,7.88,0,0,0,1.2-.16,3.76,3.76,0,0,0,1.37-.49,1.27,1.27,0,0,0,.5-1.23,1.18,1.18,0,0,0-.22-.56.88.88,0,0,0-.44-.27,3.1,3.1,0,0,0-.81-.1Z"/><path class="cls-1" d="M102.78,73.88a2,2,0,0,1-.73.09,4.57,4.57,0,0,1-1.72-.28,4.12,4.12,0,0,1-.85-.46,2,2,0,0,1-.52-.59A1.53,1.53,0,0,1,98.7,72s.13.25.37.61a2.18,2.18,0,0,0,.52.53,4.15,4.15,0,0,0,.81.42,5.49,5.49,0,0,0,1.65.32A6,6,0,0,1,102.78,73.88Z"/><path class="cls-1" d="M104.76,65.3a3.94,3.94,0,0,1-.49.59c-.32.34-.77.82-1.27,1.33s-1,1-1.31,1.31a3.07,3.07,0,0,1-.58.5,3.41,3.41,0,0,1,.49-.59c.32-.36.77-.82,1.27-1.34A16.09,16.09,0,0,1,104.76,65.3Z"/><path class="cls-1" d="M100.24,63.45a14.2,14.2,0,0,1-.09-2.26,14.2,14.2,0,0,1,.09-2.26,13.11,13.11,0,0,1,.09,2.26A12.18,12.18,0,0,1,100.24,63.45Z"/><path class="cls-24" d="M95.15,49.3a30.39,30.39,0,0,1-3.44.08,28,28,0,0,1-3.43-.12,32.72,32.72,0,0,1,3.43-.07A32.94,32.94,0,0,1,95.15,49.3Z"/><path class="cls-18" d="M97.88,64.4l-.21-.16a5,5,0,0,0-3.9-.91h0a6.89,6.89,0,0,0-3,1.43L89,66.16l1.81,3.23,1.23-1.72s1.15,1.56,1.35,1.4a3,3,0,0,0,.45-.66l-.82-1.15,2,.41,2.86-1.31-1.23-1.55,1.23.41Z"/><polygon class="cls-1" points="94.86 64.1 88.55 71.74 89.03 72.26 99.27 70.7 104.35 63.06 103.88 62.64 94.86 64.1"/><path class="cls-18" d="M101.55,66.12h0a1,1,0,0,0-.91.62A1.7,1.7,0,0,1,98.36,68c-.41-.2-2.07-1.69-2.35-1.52a.56.56,0,0,0-.25.87c.29.33,1.82,1.32,1.53,1.65s-3.52-1.12-4-1-.79.43-.5.64a18.69,18.69,0,0,1,2.61,1.31s-3.31-.87-3.44-.66-.32.54,0,.66,3.19.87,3.44,1a5.76,5.76,0,0,0,1.27.37c.45.12.9.26,1.34.42a2.9,2.9,0,0,0,2.05-.06l.34-.13a1.31,1.31,0,0,0,.81-1.3l-.06-1.12.36-.93Z"/><path class="cls-2" d="M104.36,63.13a.59.59,0,0,1-.19,0l-.54.1-2,.32-3,.46-1.76.26a3.39,3.39,0,0,0-1.72.7,11.25,11.25,0,0,0-1.24,1.43c-.39.49-.77,1-1.12,1.4l-1.91,2.36-1.29,1.58-.37.42a.58.58,0,0,1-.13.14.89.89,0,0,1,.1-.16l.33-.44,1.25-1.62,1.88-2.38,1.09-1.41A11.76,11.76,0,0,1,95,64.88a3.65,3.65,0,0,1,1.81-.73l1.77-.25,3-.42,2-.27.55-.06A.75.75,0,0,1,104.36,63.13Z"/><path class="cls-25" d="M99.58,64.81a.8.8,0,0,0-.29.23.3.3,0,0,0,0,.34.31.31,0,0,0,.42,0,.38.38,0,0,0,.16-.24.29.29,0,0,0-.08-.28.24.24,0,0,0-.28,0"/></g></g></svg>