<svg xmlns="http://www.w3.org/2000/svg" xmlns:xlink="http://www.w3.org/1999/xlink" viewBox="0 0 117.16 87.17"><defs><style>.cls-1{opacity:0.45;}.cls-2{fill:#ebebeb;}.cls-3{fill:#f0f0f0;}.cls-4{fill:#fafafa;}.cls-12,.cls-13,.cls-21,.cls-41,.cls-5,.cls-9{fill:#fff;}.cls-6{fill:#e0e0e0;}.cls-7{fill:#f5f5f5;}.cls-22,.cls-40,.cls-42,.cls-43,.cls-8{fill:#263238;}.cls-10,.cls-12,.cls-13,.cls-16,.cls-21,.cls-22,.cls-36,.cls-40,.cls-41,.cls-42,.cls-43,.cls-9{isolation:isolate;}.cls-15,.cls-16,.cls-22,.cls-9{opacity:0.2;}.cls-10,.cls-13,.cls-24,.cls-42{opacity:0.3;}.cls-11{fill:#407bff;}.cls-12{opacity:0.6;}.cls-14,.cls-21,.cls-43{opacity:0.1;}.cls-17{fill:url(#linear-gradient);}.cls-18{fill:#f4f4f4;}.cls-19{fill:url(#linear-gradient-2);}.cls-20{fill:url(#linear-gradient-3);}.cls-23,.cls-36{opacity:0.5;}.cls-25{fill:#ff8b7b;}.cls-26{fill:url(#linear-gradient-4);}.cls-27{fill:url(#linear-gradient-5);}.cls-28{fill:#a02724;}.cls-29{fill:url(#linear-gradient-6);}.cls-30{fill:url(#linear-gradient-7);}.cls-31{fill:url(#linear-gradient-8);}.cls-32{fill:url(#linear-gradient-9);}.cls-33{fill:url(#linear-gradient-10);}.cls-34{fill:url(#linear-gradient-11);}.cls-35{fill:url(#linear-gradient-12);}.cls-37{fill:url(#linear-gradient-13);}.cls-38{fill:url(#linear-gradient-14);}.cls-39{fill:url(#linear-gradient-15);}.cls-40,.cls-41,.cls-44{opacity:0.4;}</style><linearGradient id="linear-gradient" x1="18.13" y1="71.2" x2="63.85" y2="71.2" gradientUnits="userSpaceOnUse"><stop offset="0" stop-color="#00ffaf"/><stop offset="0.06" stop-color="#00edad"/><stop offset="0.32" stop-color="#00a6a7"/><stop offset="0.55" stop-color="#006ea2"/><stop offset="0.75" stop-color="#00469f"/><stop offset="0.91" stop-color="#002d9d"/><stop offset="1" stop-color="#00249c"/></linearGradient><linearGradient id="linear-gradient-2" x1="14.8" y1="56.78" x2="20.1" y2="56.78" xlink:href="#linear-gradient"/><linearGradient id="linear-gradient-3" x1="30.44" y1="45.66" x2="47.54" y2="45.66" xlink:href="#linear-gradient"/><linearGradient id="linear-gradient-4" x1="65.97" y1="79.1" x2="66.4" y2="79.1" xlink:href="#linear-gradient"/><linearGradient id="linear-gradient-5" x1="58.14" y1="79.05" x2="58.87" y2="79.05" xlink:href="#linear-gradient"/><linearGradient id="linear-gradient-6" x1="83" y1="35.12" x2="86.59" y2="46.48" xlink:href="#linear-gradient"/><linearGradient id="linear-gradient-7" x1="77.89" y1="36.73" x2="81.48" y2="48.09" xlink:href="#linear-gradient"/><linearGradient id="linear-gradient-8" x1="74.67" y1="37.75" x2="78.26" y2="49.11" xlink:href="#linear-gradient"/><linearGradient id="linear-gradient-9" x1="65.24" y1="61.98" x2="70.75" y2="61.98" xlink:href="#linear-gradient"/><linearGradient id="linear-gradient-10" x1="67.95" y1="81.06" x2="73.27" y2="81.06" xlink:href="#linear-gradient"/><linearGradient id="linear-gradient-11" x1="88.69" y1="81.67" x2="94.01" y2="81.67" xlink:href="#linear-gradient"/><linearGradient id="linear-gradient-12" x1="56.36" y1="70.82" x2="102.08" y2="70.82" xlink:href="#linear-gradient"/><linearGradient id="linear-gradient-13" x1="95.17" y1="79.32" x2="100.7" y2="79.32" xlink:href="#linear-gradient"/><linearGradient id="linear-gradient-14" x1="75.73" y1="80.26" x2="81.22" y2="80.26" xlink:href="#linear-gradient"/><linearGradient id="linear-gradient-15" x1="78.86" y1="63.95" x2="82.34" y2="63.95" xlink:href="#linear-gradient"/></defs><g id="Layer_2" data-name="Layer 2"><g id="Layer_1-2" data-name="Layer 1"><g id="freepik--background-complete--inject-151" class="cls-1"><rect class="cls-2" x="97.66" y="80.48" width="7.76" height="0.06"/><rect class="cls-2" x="75.57" y="81.12" width="2.04" height="0.06"/><rect class="cls-2" x="92.93" y="78.31" width="4.5" height="0.06"/><rect class="cls-2" x="12.29" y="78.7" width="10.12" height="0.06"/><rect class="cls-2" x="24.5" y="78.7" width="1.48" height="0.06"/><rect class="cls-2" x="30.8" y="79.69" width="21.95" height="0.06"/><path class="cls-2" d="M55.53,66.26H10.29A1.34,1.34,0,0,1,9,64.93V1.33A1.34,1.34,0,0,1,10.29,0H55.53a1.34,1.34,0,0,1,1.34,1.34h0V64.93A1.34,1.34,0,0,1,55.53,66.26ZM10.29.05A1.28,1.28,0,0,0,9,1.33v63.6a1.27,1.27,0,0,0,1.28,1.27H55.53a1.27,1.27,0,0,0,1.28-1.27V1.33A1.28,1.28,0,0,0,55.53.05Z"/><path class="cls-2" d="M106.22,66.26H61a1.34,1.34,0,0,1-1.34-1.33V1.33A1.34,1.34,0,0,1,61,0h45.25a1.34,1.34,0,0,1,1.33,1.33v63.6A1.34,1.34,0,0,1,106.22,66.26ZM61,.05a1.28,1.28,0,0,0-1.28,1.28v63.6A1.27,1.27,0,0,0,61,66.2h45.25a1.27,1.27,0,0,0,1.27-1.27V1.33A1.27,1.27,0,0,0,106.22.05Z"/><rect class="cls-2" y="76.71" width="117.16" height="0.06"/><rect class="cls-3" x="29.71" y="37.55" width="5.25" height="39.13"/><rect class="cls-3" x="38.46" y="24.21" width="5.25" height="52.48"/><rect class="cls-3" x="47.2" y="37.55" width="5.25" height="39.13"/><rect class="cls-3" x="12.21" y="50.89" width="5.25" height="25.79"/><rect class="cls-3" x="20.96" y="44.45" width="5.25" height="32.23"/><rect class="cls-3" x="55.95" y="50.89" width="5.25" height="25.79"/><rect class="cls-3" x="99.7" y="10.86" width="5.25" height="65.82"/><rect class="cls-3" x="64.7" y="37.55" width="5.25" height="39.13"/><rect class="cls-3" x="90.95" y="24.21" width="5.25" height="52.48"/><rect class="cls-3" x="82.2" y="31.11" width="5.25" height="45.58"/><rect class="cls-3" x="73.45" y="44.45" width="5.25" height="32.23"/><polygon class="cls-3" points="81.68 23.09 83.56 27.49 93.19 20.54 96 11.93 101.12 7.43 102.31 8.78 105 2.19 97.34 2.59 98.7 4.12 93.55 8.53 90.99 17.22 81.68 23.09"/><circle class="cls-2" cx="14.58" cy="34.31" r="3.66"/><circle class="cls-4" cx="15.02" cy="34.31" r="3.66"/><circle class="cls-3" cx="15.02" cy="34.31" r="2.74"/><path class="cls-5" d="M16.22,34.89c.11.61-.31,1-1.06,1.08v.5h-.47l0-.5a2.58,2.58,0,0,1-1.12-.35l.21-.57a2,2,0,0,0,.92.33l0-.77c-.45-.13-.94-.3-1-.85s.32-1,1.09-1.07v-.5h.47v.51a2.13,2.13,0,0,1,.88.26l-.19.55a1.86,1.86,0,0,0-.72-.24l0,.8C15.65,34.21,16.13,34.37,16.22,34.89ZM14.75,34l0-.65c-.25.05-.37.19-.35.36s.16.22.34.29ZM15.5,35c0-.13-.14-.21-.31-.27v.62C15.42,35.31,15.53,35.18,15.5,35Z"/><path class="cls-3" d="M45.23,15.51C46.52,18.26,44.79,21,42.3,22a4.49,4.49,0,0,1-5.92-2.31,3.34,3.34,0,0,1-.17-.44c-.87-2.56,0-6.67,2.53-7.72C38.75,11.57,43.54,11.89,45.23,15.51Z"/><path class="cls-5" d="M42.5,17c.4.59.14,1.21-.63,1.61l.22.54-.49.2-.22-.53A2.93,2.93,0,0,1,40,19l0-.69a2.4,2.4,0,0,0,1.13-.07l-.34-.82c-.53.06-1.14.11-1.5-.44s-.14-1.22.66-1.62l-.22-.54.48-.2.23.54A2.78,2.78,0,0,1,41.5,15l.07.68a2.19,2.19,0,0,0-.88.07l.36.86C41.57,16.56,42.15,16.52,42.5,17Zm-2-.34L40.2,16c-.23.16-.3.37-.2.54A.56.56,0,0,0,40.49,16.7Zm1.3.78a.49.49,0,0,0-.47-.15l.28.67C41.83,17.84,41.9,17.66,41.79,17.48Z"/><path class="cls-3" d="M37.48,12.49l-1.26-1.17s.14-1.13.82-1.46a1.38,1.38,0,0,1,1.22,0l1.26-.94.21,2.88S38.85,13.33,37.48,12.49Z"/><path class="cls-6" d="M38.9,11.85c-.32-.51-.61-1-.92-1.56a.78.78,0,0,0-.71.09.83.83,0,0,0-.33.63,6,6,0,0,0,1,1.17C38,12,38.73,11.73,38.9,11.85Z"/><path class="cls-6" d="M39.14,11.83l-.23-1.73c-.08.08-.13.16-.21.25.07.35.29,1.4.32,1.45Z"/><path class="cls-4" d="M72.74,34.59c-3.9,2.36-7.82-2.31-11.72,0,0-2.17,0-4.35,0-6.52,3.89-2.36,7.82,2.32,11.71,0Z"/><path class="cls-3" d="M72.21,33.84l0-4.46a.34.34,0,0,1-.45-.11.35.35,0,0,1,0-.2c-3.22,1-6.45-1.91-9.67-.89a.81.81,0,0,1-.49.69v4.47a.34.34,0,0,1,.46.1.34.34,0,0,1,0,.2c3.22-1,6.46,1.92,9.68.9A.82.82,0,0,1,72.21,33.84Z"/><path class="cls-5" d="M66.58,30.9a.21.21,0,0,0,0,.12l.13.1v-.35a.31.31,0,0,0-.13,0A.14.14,0,0,0,66.58,30.9Z"/><path class="cls-5" d="M67,31.62V32a.19.19,0,0,0,.13,0,.12.12,0,0,0,0-.09.17.17,0,0,0,0-.12A.32.32,0,0,0,67,31.62Z"/><path class="cls-5" d="M66.86,29.52A1.34,1.34,0,0,0,65,30.86a2.59,2.59,0,0,0,1.83,2.32,1.34,1.34,0,0,0,1.83-1.34A2.63,2.63,0,0,0,66.86,29.52Zm.58,2.7a.56.56,0,0,1-.42.05v.27l-.25-.07V32.2a1.58,1.58,0,0,1-.35-.16,1.71,1.71,0,0,1-.26-.21l.13-.26a1.24,1.24,0,0,0,.22.18,1.26,1.26,0,0,0,.26.13v-.41a1.83,1.83,0,0,1-.3-.18.64.64,0,0,1-.2-.2.51.51,0,0,1-.08-.29.34.34,0,0,1,.14-.31.59.59,0,0,1,.43,0v-.27l.25.07v.27a1.36,1.36,0,0,1,.49.29l-.11.27a1.52,1.52,0,0,0-.38-.24v.42a1.75,1.75,0,0,1,.29.18.64.64,0,0,1,.2.2.6.6,0,0,1,.08.29.33.33,0,0,1-.14.3Z"/><path class="cls-4" d="M73.65,33.51c-3.89,2.36-7.82-2.32-11.71,0l0-6.51c3.9-2.36,7.82,2.31,11.72-.05Z"/><path class="cls-3" d="M73.13,32.77l0-4.47a.31.31,0,0,1-.44-.1.3.3,0,0,1,0-.21c-3.22,1-6.46-1.91-9.68-.89a.84.84,0,0,1-.49.71l0,4.46a.33.33,0,0,1,.45.11.34.34,0,0,1,0,.2c3.22-1,6.46,1.91,9.68.89A.81.81,0,0,1,73.13,32.77Z"/><path class="cls-5" d="M67.5,29.83a.15.15,0,0,0,0,.11l.14.11V29.7a.17.17,0,0,0-.14,0A.1.1,0,0,0,67.5,29.83Z"/><path class="cls-5" d="M67.93,30.54v.34a.21.21,0,0,0,.13,0,.1.1,0,0,0,0-.09.15.15,0,0,0,0-.11A.63.63,0,0,0,67.93,30.54Z"/><path class="cls-5" d="M67.77,28.45A1.34,1.34,0,0,0,66,29.79a2.62,2.62,0,0,0,1.84,2.32,1.33,1.33,0,0,0,1.82-1.34A2.6,2.6,0,0,0,67.77,28.45Zm.58,2.7a.56.56,0,0,1-.42.05v.27l-.25-.07v-.26a2.16,2.16,0,0,1-.34-.17,1.39,1.39,0,0,1-.27-.21l.13-.26a1.24,1.24,0,0,0,.22.18,1.26,1.26,0,0,0,.26.13V30.4l-.29-.17a1,1,0,0,1-.21-.21.6.6,0,0,1-.08-.29.35.35,0,0,1,.15-.31.58.58,0,0,1,.43-.05V29.1l.23.07v.27a1.44,1.44,0,0,1,.51.29L68.3,30a1.52,1.52,0,0,0-.38-.24v.42l.29.17a.8.8,0,0,1,.2.21.44.44,0,0,1,.08.29A.34.34,0,0,1,68.35,31.15Z"/></g><g id="freepik--Shadow--inject-151"><ellipse id="freepik--path--inject-151" class="cls-7" cx="58.58" cy="84.51" rx="45.43" ry="2.65"/></g><path class="cls-8" d="M30.9,82.74v.49a.47.47,0,0,0,.47.45H48.84a.42.42,0,0,0,.42-.42v-.47a.42.42,0,0,0-.42-.42H44.48a.79.79,0,0,1-.79-.79.76.76,0,0,1,0-.15l1.52-8.79H35.3L31.05,82A1.69,1.69,0,0,0,30.9,82.74Z"/><path class="cls-9" d="M49.25,82.79v.47a.42.42,0,0,1-.42.42H31.36a.47.47,0,0,1-.47-.46v-.48a1.72,1.72,0,0,1,0-.39c0-.11.07-.21.11-.32l4.26-9.39h9.92l-1.52,8.8a.77.77,0,0,0,0,.15.79.79,0,0,0,.64.76l.16,0h4.35a.42.42,0,0,1,.42.42Z"/><path class="cls-8" d="M30.49,82l4.25-9.4h.56L31.05,82a1.69,1.69,0,0,0-.15.7v.49a.48.48,0,0,0,.47.46h-.56a.47.47,0,0,1-.47-.46v-.49A1.69,1.69,0,0,1,30.49,82Z"/><polygon class="cls-10" points="35.3 72.64 45.22 72.64 44.83 74.88 34.28 74.88 35.3 72.64"/><path class="cls-8" d="M62.43,73.63H20.1a1.73,1.73,0,0,1-1.68-1.55l-2.68-30.6A1.4,1.4,0,0,1,17,39.94h42.5a1.72,1.72,0,0,1,1.68,1.54l2.68,30.6a1.41,1.41,0,0,1-1.26,1.54Z"/><path class="cls-11" d="M63.56,68.77l.29,3.31a1.41,1.41,0,0,1-1.26,1.54H20.1a1.73,1.73,0,0,1-1.68-1.55l-.29-3.31Z"/><path class="cls-10" d="M63.56,68.77l.29,3.31a1.41,1.41,0,0,1-1.26,1.54H20.1a1.73,1.73,0,0,1-1.68-1.55l-.29-3.31"/><path class="cls-11" d="M19.62,67.83H61.9a.75.75,0,0,0,.77-.74V67L60.45,41.71a.94.94,0,0,0-.91-.84H17.26a.75.75,0,0,0-.77.74.34.34,0,0,0,0,.1L18.71,67A.94.94,0,0,0,19.62,67.83Z"/><path class="cls-12" d="M19.62,67.83H61.9a.75.75,0,0,0,.77-.74V67L60.45,41.71a.94.94,0,0,0-.91-.84H17.26a.75.75,0,0,0-.77.74.34.34,0,0,0,0,.1L18.71,67A.94.94,0,0,0,19.62,67.83Z"/><path class="cls-11" d="M16.22,39.94h.93a1.4,1.4,0,0,0-1.41,1.39.76.76,0,0,0,0,.15l2.67,30.6a1.73,1.73,0,0,0,1.68,1.55h-.94a1.73,1.73,0,0,1-1.68-1.55L14.8,41.48a1.41,1.41,0,0,1,1.26-1.54Z"/><path class="cls-13" d="M16.22,39.94h.93a1.4,1.4,0,0,0-1.41,1.39.76.76,0,0,0,0,.15l2.67,30.6a1.73,1.73,0,0,0,1.68,1.55h-.94a1.73,1.73,0,0,1-1.68-1.55L14.8,41.48a1.41,1.41,0,0,1,1.26-1.54Z"/><path class="cls-11" d="M48.07,45.88a2.2,2.2,0,0,1-2.16,2.23H33.1a2.73,2.73,0,0,1-2.66-2.45v-.22a2.2,2.2,0,0,1,2.17-2.23h12.8a2.73,2.73,0,0,1,2.66,2.45Z"/><g class="cls-14"><path class="cls-5" d="M47.54,45.88a2.2,2.2,0,0,1-2.16,2.23H33.1a2.73,2.73,0,0,1-2.66-2.45v-.22a2.2,2.2,0,0,1,2.17-2.23H44.88a2.72,2.72,0,0,1,2.66,2.45Z"/></g><path class="cls-11" d="M31.85,57.6l0,.31h-.24l0-.31a1.36,1.36,0,0,1-.71-.23l.1-.28a1.2,1.2,0,0,0,.57.21l0-.55c-.31-.08-.65-.18-.68-.56s.16-.52.58-.56l0-.31h.23l0,.3a1.3,1.3,0,0,1,.57.17l-.09.28a1.24,1.24,0,0,0-.47-.15l.05.55c.31.08.65.17.69.55S32.28,57.55,31.85,57.6Zm-.33-1.17,0-.49c-.19,0-.27.13-.26.25s.14.19.3.23Zm.57.63c0-.13-.14-.2-.31-.23l0,.48c.2,0,.28-.14.27-.25Z"/><path class="cls-11" d="M34.05,57c0,.33-.19.61-.71.61a1.24,1.24,0,0,1-.74-.22l.13-.28a.94.94,0,0,0,.58.19c.26,0,.4-.11.38-.29s-.14-.3-.54-.3h-.47V55.65h1.13l0,.3H33v.45h.18C33.77,56.4,34,56.64,34.05,57Z"/><path class="cls-11" d="M34.22,56.61c0-.63.26-1,.72-1s.83.35.89,1-.26,1-.72,1S34.28,57.25,34.22,56.61Zm1.25,0c0-.46-.23-.67-.51-.67s-.42.21-.38.67.24.68.5.68S35.51,57.08,35.47,56.61Z"/><path class="cls-11" d="M36.08,56.61c0-.63.26-1,.72-1s.83.35.89,1-.26,1-.72,1S36.13,57.25,36.08,56.61Zm1.25,0c0-.46-.23-.67-.5-.67s-.43.21-.39.67.24.68.5.68.42-.21.38-.68Z"/><path class="cls-11" d="M37.92,56.61c-.06-.63.26-1,.7-1a.94.94,0,0,1,.89,1c.06.63-.26,1-.71,1S38,57.25,37.92,56.61Zm1.25,0c0-.46-.24-.67-.51-.67s-.42.21-.38.67.23.68.5.68S39.21,57.08,39.17,56.61Z"/><path class="cls-11" d="M40.24,57.37a.59.59,0,0,1,0,.23l-.11.39h-.23l.07-.42a.27.27,0,0,1-.15-.21.2.2,0,0,1,.16-.23H40a.23.23,0,0,1,.25.21Z"/><path class="cls-11" d="M40.37,56.61c0-.63.26-1,.72-1a.93.93,0,0,1,.89,1c.05.63-.26,1-.72,1S40.43,57.25,40.37,56.61Zm1.25,0c0-.46-.23-.67-.5-.67s-.43.21-.39.67.24.68.5.68S41.66,57.08,41.62,56.61Z"/><path class="cls-11" d="M42.22,56.61c0-.63.26-1,.72-1s.83.35.89,1-.26,1-.72,1S42.28,57.25,42.22,56.61Zm1.25,0c0-.46-.23-.67-.5-.67s-.43.21-.39.67.24.68.5.68S43.51,57.08,43.47,56.61Z"/><path class="cls-11" d="M45,56.74l-.09-1.09h.35l.1,1.07c0,.4.23.57.53.57s.47-.17.44-.57l-.09-1.07h.35l.09,1.09a.7.7,0,0,1-.76.86.86.86,0,0,1-.92-.79Z"/><path class="cls-11" d="M47,57.37l.1-.28a1.11,1.11,0,0,0,.65.22c.3,0,.42-.11.4-.25,0-.42-1.15-.15-1.21-.86,0-.31.19-.57.72-.57a1.13,1.13,0,0,1,.65.17l-.08.28a1.17,1.17,0,0,0-.55-.16c-.29,0-.4.12-.39.26,0,.41,1.15.15,1.21.85,0,.31-.2.57-.72.57A1.28,1.28,0,0,1,47,57.37Z"/><path class="cls-11" d="M48.78,55.65h.84a1.06,1.06,0,0,1,1.13,1,.87.87,0,0,1-1,1H49Zm1,1.62a.58.58,0,0,0,.65-.5.43.43,0,0,0,0-.16.71.71,0,0,0-.74-.66h-.49l.11,1.31Z"/><path class="cls-11" d="M51,57.37a.21.21,0,0,1,.16-.24h.05a.23.23,0,0,1,.23.24.2.2,0,0,1-.16.23h0A.26.26,0,0,1,51,57.37Z"/><g class="cls-15"><path class="cls-5" d="M35.85,44.78l-.41,1.68h-.33l-.52-1.25-.32,1.25h-.33l-.7-1.68h.32l.53,1.27.32-1.27h.29l.54,1.28.31-1.28Z"/><path class="cls-5" d="M36.05,44.79a.17.17,0,0,1,.15-.18h0a.2.2,0,0,1,.21.17.18.18,0,0,1-.15.19h0A.21.21,0,0,1,36.05,44.79Zm.08.39h.3l.11,1.28h-.3Z"/><path class="cls-5" d="M37.7,46.39a.5.5,0,0,1-.29.09.43.43,0,0,1-.46-.4v0l-.06-.62h-.21l0-.23h.21l0-.3h.3l0,.3h.34l0,.23h-.34l.05.61a.19.19,0,0,0,.18.19h0a.22.22,0,0,0,.16,0Z"/><path class="cls-5" d="M39.14,45.72l.07.74h-.3l-.06-.71c0-.23-.14-.34-.34-.34a.32.32,0,0,0-.32.39l.06.65H38l-.16-1.78h.3l.06.65a.5.5,0,0,1,.41-.17.56.56,0,0,1,.57.53Z"/><path class="cls-5" d="M40.7,44.68l.15,1.78h-.28l0-.17a.43.43,0,0,1-.41.18.7.7,0,0,1-.7-.65.6.6,0,0,1,.55-.64.58.58,0,0,1,.47.17l-.06-.66Zm-.2,1.14a.4.4,0,0,0-.41-.4.33.33,0,0,0-.35.32v.08a.42.42,0,0,0,.42.4.34.34,0,0,0,.35-.32A.19.19,0,0,0,40.5,45.82Z"/><path class="cls-5" d="M41.88,45.16l0,.29h-.07c-.24,0-.36.14-.34.4l.06.62h-.31l-.11-1.28h.28l0,.18A.46.46,0,0,1,41.88,45.16Z"/><path class="cls-5" d="M43.24,45.71l.07.75H43V46.3a.4.4,0,0,1-.39.17.47.47,0,0,1-.51-.38c0-.21.11-.38.5-.38h.33v0c0-.18-.13-.28-.34-.28a.58.58,0,0,0-.38.13l-.14-.22a.85.85,0,0,1,.53-.16.55.55,0,0,1,.62.48A.15.15,0,0,1,43.24,45.71Zm-.27.35v-.15h-.32c-.2,0-.25.08-.23.17a.25.25,0,0,0,.26.18.3.3,0,0,0,.3-.2Z"/><path class="cls-5" d="M45.55,45.18l-.36,1.28H44.9l-.41-.88-.25.88H44l-.58-1.28h.28l.42.93.27-.93h.25l.43,1,.26-1Z"/></g><path class="cls-11" d="M32.26,53.56l.06.67H32l-.06-.67L31,52.31h.38l.64.94.49-.94h.35Z"/><path class="cls-11" d="M32.92,53.5a.67.67,0,0,1,.57-.75h.13a.81.81,0,0,1,.85.75.67.67,0,0,1-.57.75h-.13A.82.82,0,0,1,32.92,53.5Zm1.22,0a.48.48,0,0,0-.47-.46.39.39,0,0,0-.4.38v.08a.47.47,0,0,0,.47.47.39.39,0,0,0,.41-.37S34.14,53.53,34.14,53.5Z"/><path class="cls-11" d="M36.17,52.77l.13,1.46H36l0-.18a.53.53,0,0,1-.45.2.65.65,0,0,1-.69-.59v0l-.07-.84h.34l.07.79c0,.27.16.39.38.39a.36.36,0,0,0,.36-.44l-.07-.74Z"/><path class="cls-11" d="M37.47,52.75l0,.33h-.08c-.26,0-.41.15-.38.45l.06.71h-.34l-.13-1.47H37V53A.56.56,0,0,1,37.47,52.75Z"/><path class="cls-11" d="M38.53,52.31h.35l.17,1.92h-.36Z"/><path class="cls-11" d="M40.91,53.39l.07.84h-.34l-.07-.79a.37.37,0,0,0-.39-.39.37.37,0,0,0-.37.44l.07.74h-.34l-.13-1.46h.32l0,.19a.58.58,0,0,1,.49-.21.64.64,0,0,1,.67.6Z"/><path class="cls-11" d="M41.24,53.5a.67.67,0,0,1,.59-.75H42a.74.74,0,0,1,.65.34l-.25.15A.47.47,0,0,0,42,53a.39.39,0,0,0-.41.37.28.28,0,0,0,0,.09.46.46,0,0,0,.46.47h0a.39.39,0,0,0,.35-.21l.27.16a.58.58,0,0,1-.59.34A.82.82,0,0,1,41.24,53.5Z"/><path class="cls-11" d="M42.82,53.5a.67.67,0,0,1,.58-.75h.13a.82.82,0,0,1,.85.75.67.67,0,0,1-.57.75h-.14A.82.82,0,0,1,42.82,53.5Zm1.22,0a.48.48,0,0,0-.47-.46.39.39,0,0,0-.4.37v.09a.47.47,0,0,0,.47.47.4.4,0,0,0,.41-.37S44,53.53,44,53.5Z"/><path class="cls-11" d="M47.16,53.39l.07.84h-.34l-.07-.79c0-.26-.16-.39-.37-.39s-.37.15-.34.44l.07.74h-.35l-.07-.79c0-.26-.15-.39-.36-.39s-.37.15-.34.44l.06.74h-.34l-.13-1.46H45V53a.57.57,0,0,1,.47-.2A.59.59,0,0,1,46,53a.67.67,0,0,1,.94-.1.63.63,0,0,1,.24.49Z"/><path class="cls-11" d="M49,53.61H47.85a.5.5,0,0,0,.51.35.46.46,0,0,0,.38-.16L49,54a.71.71,0,0,1-.57.24.83.83,0,0,1-.88-.75.66.66,0,0,1,.56-.75h.13a.79.79,0,0,1,.81.75Zm-1.17-.23h.83a.43.43,0,0,0-.45-.36.36.36,0,0,0-.38.34v0Z"/><g class="cls-14"><polygon class="cls-5" points="34.69 40.87 33.06 40.87 27.34 67.83 28.96 67.83 34.69 40.87"/><polygon class="cls-5" points="25.69 67.83 31.42 40.87 25.31 40.87 19.58 67.83 25.69 67.83"/></g><path class="cls-9" d="M33.92,82.8v.44a.44.44,0,0,0,.44.44H48.83a.42.42,0,0,0,.42-.42v-.47a.42.42,0,0,0-.42-.42H34.36A.44.44,0,0,0,33.92,82.8Z"/><path class="cls-16" d="M30.94,82.36H44.32a.8.8,0,0,1-.63-.76H31.29Z"/><polygon class="cls-5" points="47.71 48.9 45.59 48.9 46.32 47.03 47.71 48.9"/><polygon class="cls-5" points="47.15 50.17 46.65 50.17 46.21 47.65 46.7 47.65 47.15 50.17"/><path class="cls-8" d="M30.9,82.74v.49a.47.47,0,0,0,.47.45H48.84a.42.42,0,0,0,.42-.42v-.47a.42.42,0,0,0-.42-.42H44.48a.79.79,0,0,1-.79-.79.76.76,0,0,1,0-.15l1.52-8.79H35.3L31.05,82A1.69,1.69,0,0,0,30.9,82.74Z"/><path class="cls-9" d="M49.25,82.79v.47a.42.42,0,0,1-.42.42H31.36a.47.47,0,0,1-.47-.46v-.48a1.72,1.72,0,0,1,0-.39c0-.11.07-.21.11-.32l4.26-9.39h9.92l-1.52,8.8a.77.77,0,0,0,0,.15.79.79,0,0,0,.64.76l.16,0h4.35a.42.42,0,0,1,.42.42Z"/><path class="cls-8" d="M30.49,82l4.25-9.4h.56L31.05,82a1.69,1.69,0,0,0-.15.7v.49a.48.48,0,0,0,.47.46h-.56a.47.47,0,0,1-.47-.46v-.49A1.69,1.69,0,0,1,30.49,82Z"/><polygon class="cls-10" points="35.3 72.64 45.22 72.64 44.83 74.88 34.28 74.88 35.3 72.64"/><path class="cls-8" d="M62.43,73.63H20.1a1.73,1.73,0,0,1-1.68-1.55l-2.68-30.6A1.4,1.4,0,0,1,17,39.94h42.5a1.72,1.72,0,0,1,1.68,1.54l2.68,30.6a1.41,1.41,0,0,1-1.26,1.54Z"/><path class="cls-11" d="M63.56,68.77l.29,3.31a1.41,1.41,0,0,1-1.26,1.54H20.1a1.73,1.73,0,0,1-1.68-1.55l-.29-3.31Z"/><path class="cls-17" d="M63.56,68.77l.29,3.31a1.41,1.41,0,0,1-1.26,1.54H20.1a1.73,1.73,0,0,1-1.68-1.55l-.29-3.31"/><path class="cls-18" d="M19.62,67.83H61.9a.75.75,0,0,0,.77-.74V67L60.45,41.71a.94.94,0,0,0-.91-.84H17.26a.75.75,0,0,0-.77.74.34.34,0,0,0,0,.1L18.71,67A.94.94,0,0,0,19.62,67.83Z"/><path class="cls-12" d="M20,68H62.27a.75.75,0,0,0,.77-.74.33.33,0,0,0,0-.1L60.83,41.9a.94.94,0,0,0-.92-.84H17.64a.76.76,0,0,0-.77.75.27.27,0,0,0,0,.09l2.21,25.29A.94.94,0,0,0,20,68Z"/><path class="cls-11" d="M16.22,39.94h.93a1.4,1.4,0,0,0-1.41,1.39.76.76,0,0,0,0,.15l2.67,30.6a1.73,1.73,0,0,0,1.68,1.55h-.94a1.73,1.73,0,0,1-1.68-1.55L14.8,41.48a1.41,1.41,0,0,1,1.26-1.54Z"/><path class="cls-19" d="M16.22,39.94h.93a1.4,1.4,0,0,0-1.41,1.39.76.76,0,0,0,0,.15l2.67,30.6a1.73,1.73,0,0,0,1.68,1.55h-.94a1.73,1.73,0,0,1-1.68-1.55L14.8,41.48a1.41,1.41,0,0,1,1.26-1.54Z"/><path class="cls-11" d="M48.07,45.88a2.2,2.2,0,0,1-2.16,2.23H33.1a2.73,2.73,0,0,1-2.66-2.45v-.22a2.2,2.2,0,0,1,2.17-2.23h12.8a2.73,2.73,0,0,1,2.66,2.45Z"/><path class="cls-20" d="M47.54,45.88a2.2,2.2,0,0,1-2.16,2.23H33.1a2.73,2.73,0,0,1-2.66-2.45v-.22a2.2,2.2,0,0,1,2.17-2.23H44.88a2.72,2.72,0,0,1,2.66,2.45Z"/><path class="cls-11" d="M51,57.37a.21.21,0,0,1,.16-.24h.05a.23.23,0,0,1,.23.24.2.2,0,0,1-.16.23h0A.26.26,0,0,1,51,57.37Z"/><g class="cls-14"><polygon class="cls-5" points="34.69 40.87 33.06 40.87 27.34 67.83 28.96 67.83 34.69 40.87"/><polygon class="cls-5" points="25.69 67.83 31.42 40.87 25.31 40.87 19.58 67.83 25.69 67.83"/></g><path class="cls-9" d="M33.92,82.8v.44a.44.44,0,0,0,.44.44H48.83a.42.42,0,0,0,.42-.42v-.47a.42.42,0,0,0-.42-.42H34.36A.44.44,0,0,0,33.92,82.8Z"/><path class="cls-16" d="M30.94,82.36H44.32a.8.8,0,0,1-.63-.76H31.29Z"/><polygon class="cls-5" points="47.71 48.9 45.59 48.9 46.32 47.03 47.71 48.9"/><polygon class="cls-5" points="47.15 50.17 46.65 50.17 46.21 47.65 46.7 47.65 47.15 50.17"/><g id="freepik--Plant--inject-151"><path class="cls-8" d="M26.81,75l-.68.07a.08.08,0,1,1,0-.16l.68-.07C26.91,74.85,26.91,75,26.81,75Z"/><path class="cls-8" d="M26.85,77.24l.4.3c.08.06,0,.2-.08.14l-.4-.31c-.08-.06,0-.2.08-.13Z"/><path class="cls-8" d="M27.85,76.39l.67.13c.1,0,.06.17,0,.15l-.67-.13A.08.08,0,0,1,27.85,76.39Z"/><path class="cls-8" d="M27.27,75.64l-.33-.49c-.06-.09.08-.17.14-.08l.33.49C27.47,75.64,27.33,75.72,27.27,75.64Z"/><path class="cls-8" d="M26.15,76.32l.53.12c.1,0,.06.17,0,.15l-.54-.12C26,76.45,26.05,76.3,26.15,76.32Z"/><path class="cls-8" d="M21.56,77l-.67.08c-.1,0-.1-.15,0-.16l.67-.08C21.66,76.81,21.66,77,21.56,77Z"/><path class="cls-8" d="M26.53,73.13l-.5.24c-.09,0-.17-.1-.08-.14l.5-.23C26.55,73,26.62,73.09,26.53,73.13Z"/><path class="cls-8" d="M25.23,71.46c-.09.22-.17.44-.25.66s-.19,0-.16,0l.26-.66C25.11,71.33,25.26,71.37,25.23,71.46Z"/><path class="cls-8" d="M21.48,76.27h-.6a.08.08,0,0,1-.06-.09.07.07,0,0,1,.06-.07h.6a.1.1,0,0,1,.07.09A.1.1,0,0,1,21.48,76.27Z"/><path class="cls-8" d="M21.46,74.71,21,74.6c-.1,0-.06-.17,0-.15l.5.11c.1,0,.06.17,0,.15Z"/><path class="cls-8" d="M23.4,71.84l-.15-.52a.08.08,0,0,1,.15,0l.15.53a.08.08,0,0,1-.06.09A.07.07,0,0,1,23.4,71.84Z"/><path class="cls-11" d="M25.67,78.2s3.61-1.5,2.52-2.79-1.49,1.62-2.52,2S25.67,78.2,25.67,78.2Z"/><path class="cls-21" d="M25.67,78.2s3.61-1.5,2.52-2.79-1.49,1.62-2.52,2S25.67,78.2,25.67,78.2Z"/><path class="cls-11" d="M25.81,79s2.45-7.47-1.93-7.35-2,7.79-2,7.79Z"/><path class="cls-13" d="M25.81,79s2.45-7.47-1.93-7.35-2,7.79-2,7.79Z"/><path class="cls-22" d="M21.9,79.43a15.51,15.51,0,0,1-.65-4.5,3.09,3.09,0,0,0,3.18,3.28l.21.91Z"/><path class="cls-8" d="M28,77.92l-.56,4.56a1.29,1.29,0,0,1-1.28,1.13h-3.7a1.3,1.3,0,0,1-1.29-1.13l-.56-4.55Z"/><g class="cls-15"><path class="cls-5" d="M25.36,77.79c.29-1.85.25-5-2.12-5.35-.17,0-.1-.28.06-.26,2.55.35,2.63,3.71,2.31,5.68C25.59,78,25.34,78,25.36,77.79Z"/></g><g class="cls-23"><path class="cls-5" d="M24.42,77.62a5.91,5.91,0,0,0-1.17-4.33c-.11-.12.08-.31.19-.18a6.11,6.11,0,0,1,1.25,4.51c0,.17-.28.17-.26,0Z"/></g><g class="cls-15"><path class="cls-5" d="M23.38,77.66a36.82,36.82,0,0,1-.71-3.77c0-.16.24-.23.26-.07.19,1.27.4,2.53.7,3.77C23.67,77.75,23.42,77.82,23.38,77.66Z"/></g><g class="cls-23"><path class="cls-5" d="M22.21,77.66a8.84,8.84,0,0,1-.5-3.57c0-.17.28-.17.27,0a8.5,8.5,0,0,0,.48,3.5C22.52,77.75,22.27,77.82,22.21,77.66Z"/></g><g class="cls-24"><path class="cls-5" d="M26.43,77.32c.54-.31,1.27-.81,1.4-1.45,0-.17.29-.1.26.07a3.06,3.06,0,0,1-1.54,1.61.14.14,0,0,1-.18,0,.13.13,0,0,1,.05-.19Z"/></g><g class="cls-15"><path class="cls-5" d="M27.63,75.89l-.61.85c-.1.14-.33,0-.24-.13l.62-.85c.09-.14.32,0,.23.13Z"/></g><path class="cls-11" d="M22.45,72.31s.55-.24.57-.41-.43-.78-.68-.75-.4.75-.4.75-.18-.72-.39-.75-.77.57-.73.85.55.36.55.36-.58,0-.65.15.14.83.37.87.53-.52.53-.52-.31.52-.22.66a.75.75,0,0,0,.79.07c.14-.14-.11-.73-.11-.73s.3.53.47.52.66-.49.61-.72S22.45,72.31,22.45,72.31Z"/><path class="cls-12" d="M22.45,72.31s.55-.24.57-.41-.43-.78-.68-.75-.4.75-.4.75-.18-.72-.39-.75-.77.57-.73.85.55.36.55.36-.58,0-.65.15.14.83.37.87.53-.52.53-.52-.31.52-.22.66a.75.75,0,0,0,.79.07c.14-.14-.11-.73-.11-.73s.3.53.47.52.66-.49.61-.72S22.45,72.31,22.45,72.31Z"/><path class="cls-8" d="M26.66,75.86l-.53,0c-.11,0-.11-.17,0-.16l.53,0C26.76,75.7,26.76,75.87,26.66,75.86Z"/><path class="cls-8" d="M26.74,74l-.52.12c-.1,0-.14-.13,0-.15l.52-.12C26.79,73.87,26.84,74,26.74,74Z"/><path class="cls-8" d="M26.05,72.15l-.44.47a.08.08,0,0,1-.11-.11l.44-.47C26,72,26.12,72.08,26.05,72.15Z"/><path class="cls-8" d="M21.72,77.65l-.72.18a.08.08,0,0,1,0-.16l.7-.17a.07.07,0,0,1,.09.07.07.07,0,0,1-.05.08Z"/><path class="cls-8" d="M21.38,75.49l-.52-.13a.08.08,0,0,1,0-.11.09.09,0,0,1,.08,0l.52.13C21.52,75.36,21.47,75.51,21.38,75.49Z"/><path class="cls-8" d="M21.46,74.09,21,74a.08.08,0,0,1,0-.15l.5.1C21.6,74,21.56,74.11,21.46,74.09Z"/><path class="cls-8" d="M24.12,71.82v-.47a.08.08,0,0,1,.09-.06.07.07,0,0,1,.07.06v.47a.1.1,0,0,1-.1.07A.11.11,0,0,1,24.12,71.82Z"/><path class="cls-8" d="M26.07,77l.44.12a.08.08,0,0,1,.06.1.08.08,0,0,1-.1.05L26,77.14A.09.09,0,0,1,26,77,.08.08,0,0,1,26.07,77Z"/><path class="cls-8" d="M26,77.53l.45.11a.08.08,0,0,1,0,.15l-.45-.11C25.82,77.66,25.86,77.51,26,77.53Z"/><path class="cls-8" d="M27.38,76.87l.55.3c.09,0,0,.19-.08.14L27.3,77C27.21,77,27.3,76.82,27.38,76.87Z"/><path class="cls-8" d="M28,75.79l.58-.32a.08.08,0,1,1,.08.13l-.58.32a.08.08,0,0,1-.08-.14Z"/><path class="cls-8" d="M27.68,75.32c0-.21.09-.43.13-.65s.17-.06.15,0-.08.44-.13.66S27.66,75.42,27.68,75.32Z"/><path class="cls-8" d="M27,76l-.3-.31c-.07-.07.05-.18.12-.11l.29.31A.08.08,0,0,1,27,76Z"/></g><path class="cls-8" d="M76.54,53.74c.12,0,.84.1.83-.13s.1-.82-.14-.79-.6-.08-.63.09S76.24,53.74,76.54,53.74Z"/><path class="cls-8" d="M75.58,53.76c.12,0,.85.09.84-.14s.11-.82-.13-.79-.6-.08-.63.1S75.3,53.74,75.58,53.76Z"/><path class="cls-8" d="M74.62,53.77c.12-.05.85.1.84-.13s.1-.82-.14-.79-.6-.08-.63.09S74.32,53.77,74.62,53.77Z"/><path class="cls-8" d="M73.66,53.78c.12,0,.85.12.84-.12s.1-.82-.15-.79c-.1,0-.59-.08-.62.09S73.37,53.79,73.66,53.78Z"/><path class="cls-8" d="M72.71,53.8c.11,0,.84.11.83-.13s.12-.82-.14-.78c-.1,0-.59-.08-.62.09S72.43,53.79,72.71,53.8Z"/><path class="cls-8" d="M71.75,53.81c.11,0,.84.11.83-.12s.12-.82-.13-.79-.6-.08-.63.09S71.47,53.8,71.75,53.81Z"/><path class="cls-8" d="M70.79,53.83c.12,0,.85.1.83-.14s.12-.82-.13-.78-.6-.08-.63.09S70.51,53.81,70.79,53.83Z"/><path class="cls-8" d="M69.82,53.84c.12,0,.84.1.83-.13s.11-.82-.14-.79-.59-.08-.62.09S69.52,53.84,69.82,53.84Z"/><path class="cls-8" d="M68.89,53.86c.11,0,.85.11.83-.13s.11-.81-.13-.79S69,52.87,69,53,68.61,53.85,68.89,53.86Z"/><path class="cls-8" d="M67.92,53.87c.11,0,.85.11.83-.12s.11-.82-.13-.79-.6-.08-.63.09S67.64,53.86,67.92,53.87Z"/><path class="cls-8" d="M67,53.89c.11,0,.85.11.83-.12s.12-.82-.13-.79-.6-.08-.63.09S66.68,53.88,67,53.89Z"/><path class="cls-8" d="M66,53.89c.12,0,.84.1.83-.13s.1-.82-.14-.79-.59-.08-.62.09S65.7,53.89,66,53.89Z"/><path class="cls-8" d="M65,53.91c.12,0,.85.1.84-.13S66,53,65.73,53s-.59-.08-.62.1S64.74,53.92,65,53.91Z"/><path class="cls-8" d="M64.08,53.93c.12,0,.85.1.84-.13S65,53,64.79,53s-.6-.08-.63.09S63.81,53.91,64.08,53.93Z"/><path class="cls-8" d="M63.13,53.94c.11,0,.84.12.83-.12s.12-.82-.14-.79c-.1,0-.59-.08-.62.09S62.85,53.93,63.13,53.94Z"/><path class="cls-8" d="M62.43,54c-.61,1.16,14.72,0,14.93.3a.56.56,0,0,0,.57-.54c.64-1.17-14.75,0-14.93-.3A.56.56,0,0,0,62.43,54Z"/><path class="cls-9" d="M62.43,54c-.61,1.16,14.72,0,14.93.3a.56.56,0,0,0,.57-.54c.64-1.17-14.75,0-14.93-.3A.56.56,0,0,0,62.43,54Z"/><path class="cls-8" d="M62.43,54a.57.57,0,0,0,.59.52l4.85-.08a.53.53,0,0,0,.39-.51c0-.3-.3-.53-.58-.52l-4.83.07A.54.54,0,0,0,62.43,54Z"/><polygon class="cls-25" points="68.6 79.6 66.8 79.25 66.9 75.06 69.13 75.61 68.6 79.6"/><polygon class="cls-16" points="69.3 74.47 66.95 73.86 66.87 76.72 68.96 76.99 69.3 74.47"/><path class="cls-8" d="M78.11,53.33C65.55,56.21,66.54,57,66.58,75.56l3.07.46s3.14-10,2.6-14.16c8.77-.83,14.93.81,12.58-8.65Z"/><polygon class="cls-8" points="70.15 76.61 66.14 76.05 66.15 74.28 70.31 75.07 70.15 76.61"/><path class="cls-8" d="M66.73,79.15c.09.08,2.31.23,2.17.51s.15,2.34-.45,2.26c-1.38-.27-3-.6-4.56-.76-.77-.07-.71-1-.38-1A10.6,10.6,0,0,0,66.73,79.15Z"/><path class="cls-11" d="M65.83,79.53c1,.16.27-.41-.24-.49C65.28,79.18,65.56,79.56,65.83,79.53Zm.39-.08c-.41,0-.85,0-.6-.32C65.74,79.1,66,79.29,66.22,79.45Z"/><path class="cls-26" d="M66.31,79.53c.09,0,.15-.54,0-.77C65.74,78.38,66,79.4,66.31,79.53Zm-.15-.77c.21.1.16.45.13.64C66.17,79.28,65.89,78.8,66.16,78.76Z"/><polygon class="cls-25" points="60.95 80.59 59.17 80.17 59.84 76.02 61.93 76.65 60.95 80.59"/><polygon class="cls-16" points="62.22 75.39 60.04 74.68 59.63 77.33 61.61 77.88 62.22 75.39"/><path class="cls-8" d="M75.29,53.21s-.47,1.23-1.38,1.18c-7.72-.4-13.67,0-13.67,4.75-.38,8.27-.87,17-.87,17l2.9.68s3.61-10.07,3.35-16C74.73,63,85.38,62.07,82,53.29Z"/><polygon class="cls-8" points="62.62 77.41 59.05 76.5 59.32 74.89 62.96 76 62.62 77.41"/><path class="cls-8" d="M59.29,79.16c.11.09,2.33.24,2.18.55s.18,2.6-.46,2.49c-1.43-.34-3.14-.63-4.81-1C55.47,81,55.57,80,56,80A7.16,7.16,0,0,0,59.29,79.16Z"/><path class="cls-11" d="M58.47,79.65c.09-.09.48-.25.37-.36s-.71-.07-.86.11S58.27,79.84,58.47,79.65Zm.26-.29c-.79.7-1-.17,0,0Z"/><path class="cls-27" d="M58.86,79.36c.07,0-.21-.53-.45-.63C57.73,78.77,58.52,79.43,58.86,79.36Zm-.58-.53c.23-.06.4.27.49.44C58.6,79.24,58.09,79,58.28,78.83Z"/><path class="cls-25" d="M79.71,36.55c.35.94.64,1.9-.72,2.4,0,0-1.48,2.25.84,5.23A28.67,28.67,0,0,0,83.1,38.5C81.59,37.25,83,33.87,79.71,36.55Z"/><path class="cls-8" d="M77.53,32.22c-.27,0-.3.61,0,.62S77.79,32.22,77.53,32.22Z"/><path class="cls-28" d="M77.52,34a.71.71,0,0,1-.57-.25,4.32,4.32,0,0,0,.83-.93Z"/><path class="cls-8" d="M77.6,31.56a.8.8,0,0,1,.64.34c.57.18-.33-.68-.64-.54A.1.1,0,1,0,77.6,31.56Z"/><path class="cls-25" d="M83.51,32.22c0,3.17-1.9,5.82-4.84,4.43h0c-2.26-1.59-1.49-6.5,1-7.48a2.89,2.89,0,0,1,3.81,3.06Z"/><path class="cls-8" d="M82.82,29.09c-1.55-.65-3.27.1-4.88-.07-.3,0-.57-.34-1,0s-.27,2.16,1,1.85.71,1.28.71,1.54c.55,1.26,1.69,3.5,2,4.21a4.72,4.72,0,0,0,1.5-.06C83.36,35,85.88,30.4,82.82,29.09Z"/><path class="cls-25" d="M79.29,32.36c-.91.16-.93,2.46.21,1.83C80.22,33.76,80.44,32.22,79.29,32.36Z"/><path class="cls-16" d="M79.93,37a2.66,2.66,0,0,1-1.26-.39h0v0C79.21,36.86,79.86,36.14,79.93,37Z"/><path class="cls-8" d="M78.05,39.21c.71-1.55,4.56-1.13,5.45-.91a1.73,1.73,0,0,1,.66.91Z"/><path class="cls-25" d="M84.41,52.22a61,61,0,0,0-6.08.67c0-.06.53-1.11-.51-1.38l6-1.94c0-2.62.05-7.49.05-8.52a1.47,1.47,0,1,1,2.93.07C86.9,47.29,87.16,52,84.41,52.22Z"/><path class="cls-25" d="M78.33,52.89h0c-.28,0-.49-1.4-.51-1.38C78.86,51.78,78.37,52.83,78.33,52.89Z"/><path class="cls-25" d="M78.33,52.89l-2.26,0c-.46,0-2,.59-2-.31h0c-.07-.39,1.36-1.2,1.56-1.43A.51.51,0,0,1,76,51C77.08,51.38,79.1,51.44,78.33,52.89Z"/><path class="cls-16" d="M83.85,43A12,12,0,0,0,85,45.1L86.57,44C86.11,42.81,84.75,42.11,83.85,43Z"/><path class="cls-11" d="M83.69,40.77c-.73,1,0,3.95,0,3.95l3.78-.94C87.48,41.89,87.14,36.76,83.69,40.77Z"/><path class="cls-29" d="M83.69,40.77c-.73,1,0,3.95,0,3.95l3.78-.94C87.48,41.89,87.14,36.76,83.69,40.77Z"/><path class="cls-30" d="M78.71,38.68c13.46-.27,5.3,2,6.16,14.61L75.55,53c-.2-1.49-.15-11.46,0-12.58C75.32,38.91,77.57,38.76,78.71,38.68Z"/><path class="cls-8" d="M84.8,52.66l-9.26-.25c-.28-.06-.19.75-.27.87s.07.19.15.19l9.46.21c.11,0,.19-.06.16-.13S85.08,52.58,84.8,52.66Z"/><path class="cls-25" d="M75.25,50.14a58.88,58.88,0,0,1-6,2.75c0-.07.53-1.11-.51-1.38C75,47.28,74.85,49,74.78,41.56a1.6,1.6,0,0,1,1.47-2,1.5,1.5,0,0,1,1.46,1.55C77.79,47.29,77.52,48.57,75.25,50.14Z"/><path class="cls-25" d="M69.21,52.89h0c-.28,0-.49-1.4-.51-1.38C69.74,51.78,69.24,52.83,69.21,52.89Z"/><path class="cls-25" d="M69.21,52.89l-2.26,0c-.45,0-2,.59-2-.31h0c-.08-.39,1.35-1.2,1.56-1.43a.49.49,0,0,1,.42-.09C68,51.38,70,51.43,69.21,52.89Z"/><path class="cls-31" d="M75.51,39.38c-1.4.61-1.25,2.47-1.17,4.95,2.8-.65,3.85-.08,3.82,0C78.61,43.21,78.41,38.15,75.51,39.38Z"/><path class="cls-11" d="M70.75,63.12a8.21,8.21,0,0,0-5.19,1.6c-.51-2.1-.87-7.06,2.68-5C69.45,60.58,69.75,62.08,70.75,63.12Z"/><path class="cls-11" d="M66.4,59.31a4.28,4.28,0,0,1,3,2.68,3.44,3.44,0,0,1,1.61-.7S68.45,58.6,66.4,59.31Z"/><path class="cls-32" d="M70.75,63.12a8.21,8.21,0,0,0-5.19,1.6c-.51-2.1-.87-7.06,2.68-5C69.45,60.58,69.75,62.08,70.75,63.12Z"/><path class="cls-11" d="M64.89,65.19a.94.94,0,0,1-1.55,1A.94.94,0,0,1,64.89,65.19Z"/><path class="cls-16" d="M64.89,65.19a.94.94,0,0,1-1.55,1A.94.94,0,0,1,64.89,65.19Z"/><path class="cls-11" d="M71.27,83.78c-3.9.23-2.81-2.53-3.32-5.15.62-.53,4.44-.56,5.32,1.27,0,0-.24.84-.67,2.61C72.3,83.73,72,83.75,71.27,83.78Z"/><path class="cls-33" d="M71.27,83.78c-3.9.23-2.81-2.53-3.32-5.15.62-.53,4.44-.56,5.32,1.27,0,0-.24.84-.67,2.61C72.3,83.73,72,83.75,71.27,83.78Z"/><path class="cls-11" d="M92.41,84.13c-3.52.59-3.08-1.54-3.72-4.06C89,79.26,92.07,78.45,94,80,93.86,80.39,93.89,84.19,92.41,84.13Z"/><path class="cls-34" d="M92.41,84.13c-3.52.59-3.08-1.54-3.72-4.06C89,79.26,92.07,78.45,94,80,93.86,80.39,93.89,84.19,92.41,84.13Z"/><path class="cls-35" d="M81.05,81c-10-1-21.55-3.87-24-7.5-.82-1.5-1.08-4.26.5-4.89a35.82,35.82,0,0,0,8.26-4.62c3.44-2.85,6.51-4.5,11.78-2.26,5.19-1,23.58-4.18,24.43,7.86C103.37,81.44,89.4,81.41,81.05,81Z"/><path class="cls-36" d="M97,62.29a25.73,25.73,0,0,0-8.86-.88c-.37-.23-1-.51-1.36-.74a26,26,0,0,1,8.11.74S96.65,62.06,97,62.29Z"/><path class="cls-16" d="M71.56,66.31a.93.93,0,0,1-1.85,0A.93.93,0,0,1,71.56,66.31Z"/><path class="cls-37" d="M99.27,84c-1.06.24-2.76.49-3.18-.82l-.92-7.69c.7-1.17,5.18-1.57,5.53.5-.06.81-.15,2.8-.39,6.51C100.22,83.69,100,83.79,99.27,84Z"/><path class="cls-38" d="M79.63,84.46c-1.06.19-2.78.34-3.12-1l-.78-6.73c.76-1.12,5.26-1.26,5.49.82-.1.8-.42,4.63-.47,5.46C80.69,84.26,80.32,84.33,79.63,84.46Z"/><path class="cls-11" d="M79.64,59.81c5.63,2,1,7.17-.78,8.27C78.86,68.08,81.92,65.3,79.64,59.81Z"/><path class="cls-39" d="M79.64,59.81c5.63,2,1,7.17-.78,8.27C78.86,68.08,81.92,65.3,79.64,59.81Z"/><path class="cls-11" d="M78.84,67.38a6.24,6.24,0,0,0-3.44-5.27c4.56-7,8.38,1.87,3.46,6C78.93,68,78.78,67.45,78.84,67.38Z"/><path class="cls-16" d="M78.84,67.38a6.24,6.24,0,0,0-3.44-5.27c4.56-7,8.38,1.87,3.46,6C78.93,68,78.78,67.45,78.84,67.38Z"/><path class="cls-36" d="M58.34,71.49c0,2.28-.77,2.28-.76,0S58.36,69.21,58.34,71.49Z"/><path class="cls-36" d="M59.77,69.72c.49-.07.49,3.6,0,3.53S59.28,69.65,59.77,69.72Z"/><path class="cls-16" d="M62,75.94a8.51,8.51,0,0,0,3.48-1C67,74.2,64.07,76.87,62,75.94Z"/><g id="freepik--Money--inject-151"><path class="cls-8" d="M91.49,26.83A3.53,3.53,0,0,0,88,23.25L82.57,25.7a4,4,0,0,1,3.19,3.16c.35,2.17,1.48,4.56,3.46,5.48,1.8-.62,5.86-2.49,6-2.54C94.35,31.29,91.74,29.94,91.49,26.83Zm-8-1.18v0h0Zm10.08,6.21c-.9.4-2.6,1.17-3.78,1.62a1,1,0,0,0-1,0c-1.68-1.15-2.3-3.28-2.64-5.1a3.44,3.44,0,0,0-1.79-2.53.32.32,0,0,0,0-.25.29.29,0,0,0-.17-.2l3.45-1.58a1.43,1.43,0,0,0,.86-.13,3.39,3.39,0,0,1,2.56,3,5.8,5.8,0,0,0,2.44,4.54.81.81,0,0,0,.08.71Z"/><path class="cls-8" d="M83.51,25.66v0h0Z"/><path class="cls-8" d="M93.6,31.87c-.9.4-2.6,1.17-3.79,1.62a1,1,0,0,0-1,0c-1.68-1.16-2.3-3.28-2.63-5.1a3.43,3.43,0,0,0-1.8-2.53.32.32,0,0,0,0-.25.28.28,0,0,0-.18-.2l3.45-1.58a1.41,1.41,0,0,0,.86-.13,3.38,3.38,0,0,1,2.56,3,5.84,5.84,0,0,0,2.44,4.53A.81.81,0,0,0,93.6,31.87Z"/><g class="cls-24"><path class="cls-8" d="M93.6,31.87c-.9.4-2.6,1.17-3.79,1.62a1,1,0,0,0-1,0c-1.68-1.16-2.3-3.28-2.63-5.1a3.43,3.43,0,0,0-1.8-2.53.32.32,0,0,0,0-.25.28.28,0,0,0-.18-.2l3.45-1.58a1.41,1.41,0,0,0,.86-.13,3.38,3.38,0,0,1,2.56,3,5.84,5.84,0,0,0,2.44,4.53A.81.81,0,0,0,93.6,31.87Z"/></g><path class="cls-40" d="M89.19,28a.11.11,0,0,0-.08.08.39.39,0,0,0,0,.15l.34-.11a.25.25,0,0,0-.12-.11A.17.17,0,0,0,89.19,28Z"/><path class="cls-40" d="M88.77,28.64l-.32.11a.22.22,0,0,0,.11.1.11.11,0,0,0,.11,0,.11.11,0,0,0,.08-.07A.24.24,0,0,0,88.77,28.64Z"/><path class="cls-41" d="M90.7,27.83a2,2,0,0,0-2.48-1.14,1.76,1.76,0,0,0-1.09,2.24l0,.1a2,2,0,0,0,2.48,1.14,1.77,1.77,0,0,0,1.1-2.24A.69.69,0,0,1,90.7,27.83ZM88.46,29.2a.8.8,0,0,1-.33-.35l-.26.09-.09-.23.26-.09a1.36,1.36,0,0,1-.07-.35,1.53,1.53,0,0,1,0-.3l.34,0a1.07,1.07,0,0,0,0,.25.84.84,0,0,0,0,.27l.4-.14a1.08,1.08,0,0,1,0-.31.51.51,0,0,1,.07-.24.4.4,0,0,1,.24-.16.53.53,0,0,1,.39,0,.8.8,0,0,1,.33.35L90,28l.08.24-.25.09a1.15,1.15,0,0,1,0,.52l-.33,0a.9.9,0,0,0,0-.4l-.4.14a1.56,1.56,0,0,1,0,.31.48.48,0,0,1-.07.23.36.36,0,0,1-.22.16A.47.47,0,0,1,88.46,29.2Z"/><path class="cls-8" d="M80.72,23.52l-.07,0A4.34,4.34,0,0,1,79,21.74a4.33,4.33,0,0,1-.8-2.3h0a.43.43,0,0,1,.09-.22h0l.06,0a.09.09,0,0,1,.07,0,.45.45,0,0,1,.23,0,1.15,1.15,0,0,1,.27.14,1.33,1.33,0,0,1,.19.14l.12.1A6.3,6.3,0,0,1,80.31,21,6,6,0,0,1,81,22.56a1.24,1.24,0,0,1,0,.16,2.17,2.17,0,0,1,0,.25,1.5,1.5,0,0,1,0,.3.36.36,0,0,1-.11.21l0,0,0,0A.34.34,0,0,1,80.72,23.52Z"/><path class="cls-8" d="M80.72,23.52l0-.06-1.23-2-.09-.16-1.15-1.87h0a.64.64,0,0,1,.06-.18l0,0,.12-.08.38-.24.17.28,0,.05.12.2.08.14,1.83,3,.07.11.13.21,0,.05.17.28-.43.26-.1.06A.31.31,0,0,1,80.72,23.52Z"/><path class="cls-8" d="M78.81,18.87c-.37.23-.08,1.37.64,2.57s1.62,2,2,1.76.08-1.38-.64-2.58S79.18,18.64,78.81,18.87Z"/><path class="cls-40" d="M78.81,18.87c-.37.23-.08,1.37.64,2.57s1.62,2,2,1.76.08-1.38-.64-2.58S79.18,18.64,78.81,18.87Z"/><path class="cls-8" d="M79,19.13a.1.1,0,0,0,0,.06c.31,0,1,.68,1.53,1.64s.88,1.83.74,2.11l.08,0c.25-.15-.06-1.13-.69-2.17S79.25,19,79,19.13Z"/><path class="cls-40" d="M79,19.13a.1.1,0,0,0,0,.06c.31,0,1,.68,1.53,1.64s.88,1.83.74,2.11l.08,0c.25-.15-.06-1.13-.69-2.17S79.25,19,79,19.13Z"/><path class="cls-40" d="M79,19.19a3.5,3.5,0,0,0,.74,2.11c.58.93,1.23,1.64,1.53,1.64a3.42,3.42,0,0,0-.74-2.11C79.91,19.89,79.26,19.19,79,19.19Z"/><path class="cls-8" d="M56.85,18.24c1.07.37,1.4,1.91.55,3.36s-2.34,1.95-3.21,1.21a2.53,2.53,0,0,1-.11-3.11A2.56,2.56,0,0,1,56.85,18.24Z"/><path class="cls-8" d="M56.47,18.1c1,.36,1.29,1.83.47,3.24s-2.24,1.9-3.06,1.21a2.48,2.48,0,0,1-.07-3A2.48,2.48,0,0,1,56.47,18.1Z"/><path class="cls-40" d="M56.47,18.1c1,.36,1.29,1.83.47,3.24s-2.24,1.9-3.06,1.21a2.48,2.48,0,0,1-.07-3A2.48,2.48,0,0,1,56.47,18.1Z"/><path class="cls-8" d="M56.11,18.65a.34.34,0,0,1,.12.06h0c.61.37.72,1.38.17,2.32s-1.48,1.36-2.11,1h0L54.18,22a1.8,1.8,0,0,1-.08-2.26C54.59,18.87,55.46,18.38,56.11,18.65Z"/><path class="cls-42" d="M56.23,18.71h0c.62.37.72,1.38.18,2.32s-1.49,1.36-2.11,1h0a1.94,1.94,0,0,1,0-2.23A1.94,1.94,0,0,1,56.23,18.71Z"/><path class="cls-8" d="M97.88,39.13a2.62,2.62,0,0,1-4.6,2.26,2.61,2.61,0,0,1,4.6-2.26Z"/><path class="cls-8" d="M97.67,38.71A2.61,2.61,0,0,1,93.08,41a2.61,2.61,0,0,1,4.59-2.26Z"/><path class="cls-40" d="M97.67,38.71A2.61,2.61,0,0,1,93.08,41a2.61,2.61,0,0,1,4.59-2.26Z"/><path class="cls-8" d="M97.08,39a1,1,0,0,1,.07.15h0a2,2,0,0,1-3.44,1.69h0a.64.64,0,0,1-.08-.14A2,2,0,0,1,97.08,39Z"/><path class="cls-13" d="M97.15,39.11h0a2,2,0,0,1-3.44,1.69h0a2,2,0,0,1,3.44-1.7Z"/><path class="cls-8" d="M75.29,16.44,70.37,19c-1.73-1.17-3.18-1.31-4.92-.17a12.9,12.9,0,0,1-1.74.88,8.93,8.93,0,0,1-1.22.45,2.19,2.19,0,0,1-2.21-.73c2.24-1.12,3.24-2,5.48-3.1.36.59,1,.6,1.76.39a14.51,14.51,0,0,0,2.35-1.13A5.52,5.52,0,0,1,75.29,16.44Z"/><path class="cls-42" d="M74.33,16.37A4.71,4.71,0,0,0,69.76,16c-.54.21-3.26,2-4.09.74-2.24,1.12-2.42,1.6-4.66,2.72.36.3,1.37,1,3.64-.62a5,5,0,0,1,5.65-.27C71.86,17.73,72.76,17.18,74.33,16.37Z"/><path class="cls-8" d="M61.35,19.14l-.49.33.57.29A.46.46,0,0,0,61.35,19.14Z"/><path class="cls-8" d="M66.08,16.91a.69.69,0,0,1-.74-.12,1,1,0,0,1,.39-.24A1.5,1.5,0,0,0,66.08,16.91Z"/><path class="cls-8" d="M71,18.37a1,1,0,0,0-1,.09l.41.25A1.33,1.33,0,0,1,71,18.37Z"/><path class="cls-8" d="M74.78,16.38a1.76,1.76,0,0,0-.75.37.44.44,0,0,1,.09-.61l.06,0A2.73,2.73,0,0,1,74.78,16.38Z"/><path class="cls-43" d="M67.51,16.73a40.53,40.53,0,0,1-3.81,3,12.5,12.5,0,0,1-1.21.45,2.2,2.2,0,0,1-2.21-.73c2.24-1.12,3.24-2,5.48-3.1C66.12,16.94,66.8,16.94,67.51,16.73Z"/><path class="cls-41" d="M65.9,17.93c0,.14.93-.06,2-.45s1.84-.82,1.79-.94a4.32,4.32,0,0,0-2,.46C66.65,17.39,65.84,17.81,65.9,17.93Z"/><path class="cls-8" d="M87.74,60.2c-2.3-5.25,4.18-9.36,1.89-14.61l8.12,1.06c2.3,5.25-4.18,9.36-1.89,14.61Z"/><path class="cls-42" d="M88.76,59.67l5.57.72a.41.41,0,0,1,.2-.55.49.49,0,0,1,.27,0c-.74-4.18,3.45-7.74,2.71-11.9a1.05,1.05,0,0,1-.77-.74l-5.57-.72A.43.43,0,0,1,91,47a.5.5,0,0,1-.27,0c.74,4.18-3.46,7.74-2.72,11.9A1.06,1.06,0,0,1,88.76,59.67Z"/><path class="cls-40" d="M93.36,53.14a.28.28,0,0,0-.15,0s-.11.1-.15.15l.43.06a.28.28,0,0,0,0-.18A.19.19,0,0,0,93.36,53.14Z"/><path class="cls-40" d="M92.4,53.56,92,53.5a.25.25,0,0,0,0,.17.12.12,0,0,0,.11.07.21.21,0,0,0,.15,0A.75.75,0,0,0,92.4,53.56Z"/><path class="cls-41" d="M95,53.72a1.67,1.67,0,0,0-1.36-2.49,3.27,3.27,0,0,0-3.19,1.9,1.67,1.67,0,0,0,1.36,2.49A3.25,3.25,0,0,0,95,53.72ZM91.57,54a.72.72,0,0,1,0-.54l-.34,0,.13-.29.34,0a1.84,1.84,0,0,1,.26-.4,1.42,1.42,0,0,1,.3-.3l.31.21a1.47,1.47,0,0,0-.26.23,1.61,1.61,0,0,0-.21.3l.51.07a2.88,2.88,0,0,1,.27-.34,1.06,1.06,0,0,1,.29-.22.68.68,0,0,1,.37-.05.43.43,0,0,1,.36.23.72.72,0,0,1,0,.54l.34,0c0,.1-.09.19-.13.29l-.33,0a1.93,1.93,0,0,1-.45.57L93,54.13a2.11,2.11,0,0,0,.36-.43l-.52-.07a2.16,2.16,0,0,1-.27.33.89.89,0,0,1-.29.22.66.66,0,0,1-.37,0,.44.44,0,0,1-.36-.24Z"/><path class="cls-8" d="M92.52,61a2.74,2.74,0,1,1,3.62-1.41A2.74,2.74,0,0,1,92.52,61Z"/><path class="cls-8" d="M92.39,61.33A2.74,2.74,0,1,1,96,59.92a2.75,2.75,0,0,1-3.61,1.41Z"/><path class="cls-40" d="M92.39,61.33A2.74,2.74,0,1,1,96,59.92a2.75,2.75,0,0,1-3.61,1.41Z"/><path class="cls-8" d="M95.36,59.65a1.24,1.24,0,0,1-.1.2,2.07,2.07,0,1,1,.1-.2Z"/><path class="cls-42" d="M95.36,59.65a1.24,1.24,0,0,1-.1.2,2.05,2.05,0,0,1-3.5-2.09,1.14,1.14,0,0,1,.1-.19,2.05,2.05,0,0,1,3.5,2.08Z"/><g class="cls-44"><path class="cls-8" d="M92.73,59.47c-.45-.11-.6-.52-.41-1L92,58.26l.13-.31.34.15a1.91,1.91,0,0,1,.58-.65l.32.31a1.81,1.81,0,0,0-.5.53l.53.24c.22-.27.48-.56.89-.46s.6.53.41,1.07l.34.16-.14.31-.35-.16a1.73,1.73,0,0,1-.44.53l-.33-.29a1.57,1.57,0,0,0,.38-.43L93.59,59C93.38,59.28,93.12,59.56,92.73,59.47Zm1.09-.72.44.21c0-.19,0-.32-.14-.35s-.2,0-.3.14Zm-.95.19a.3.3,0,0,0,.28-.13l-.42-.2c0,.18,0,.3.14.33Z"/></g><path class="cls-8" d="M45.29,28.89a2.48,2.48,0,1,1,3.41.87h0a2.48,2.48,0,0,1-3.4-.87Z"/><path class="cls-8" d="M45,29.05a2.49,2.49,0,1,1,3.41.88A2.48,2.48,0,0,1,45,29.05Z"/><path class="cls-40" d="M45,29.05a2.49,2.49,0,1,1,3.41.88A2.48,2.48,0,0,1,45,29.05Z"/><path class="cls-8" d="M48.12,29.38l-.19.09a1.85,1.85,0,0,1-2.45-1,1.88,1.88,0,0,1,.74-2.34,2.05,2.05,0,0,1,.41-.16A1.84,1.84,0,0,1,49,27.23a1.86,1.86,0,0,1-.83,2.16Z"/><path class="cls-42" d="M48.12,29.38l-.19.09a1.86,1.86,0,0,1-1.47-3.38l.17-.08A1.84,1.84,0,0,1,49,27.23a1.86,1.86,0,0,1-.83,2.16Z"/><g class="cls-44"><path class="cls-8" d="M46.27,27.85c-.27-.32-.17-.7.23-1l-.17-.3.27-.16.17.3a1.71,1.71,0,0,1,.77-.18l.07.4a1.41,1.41,0,0,0-.64.13l.25.46c.3-.08.65-.16.9.13s.16.71-.26,1l.16.3-.27.16-.16-.3A1.61,1.61,0,0,1,47,29l-.09-.39a1.25,1.25,0,0,0,.5-.11L47.13,28A.78.78,0,0,1,46.27,27.85Zm1.17,0,.22.39c.13-.12.15-.23.07-.33s-.16-.07-.28-.07Zm-.81-.36a.29.29,0,0,0,.28.06l-.2-.37c-.12.11-.14.22-.07.31Z"/></g><path class="cls-8" d="M43,43.27c3.83-4,.55-8.07,4.37-12.11H40.81c-3.83,4-.54,8.08-4.37,12.1Z"/><path class="cls-42" d="M42.46,42.72H38c.23-.28.15-.51-.13-.51,2.22-3.33.45-6.66,2.67-10a1.29,1.29,0,0,0,.88-.51h4.52c-.24.29-.15.52.13.52-2.22,3.32-.45,6.66-2.67,10A1.38,1.38,0,0,0,42.46,42.72Z"/><path class="cls-40" d="M41.56,36.92a.12.12,0,0,1,.1,0,.35.35,0,0,1,.06.14h-.35a.28.28,0,0,1,.08-.15A.15.15,0,0,1,41.56,36.92Z"/><path class="cls-40" d="M42.13,37.36h.34a.22.22,0,0,1-.08.13.13.13,0,0,1-.2,0A.31.31,0,0,1,42.13,37.36Z"/><path class="cls-41" d="M41.74,39.1a2.07,2.07,0,0,0,2-1.88,1.71,1.71,0,0,0-1.67-1.89,2.08,2.08,0,0,0-2,1.88A1.7,1.7,0,0,0,41.74,39.1ZM42.23,38a.39.39,0,0,1-.26-.09.41.41,0,0,1-.14-.2c0-.1,0-.2-.07-.3h-.42a1.12,1.12,0,0,0,.1.39l-.31.12a1.13,1.13,0,0,1-.12-.51h-.27c0-.09,0-.17,0-.25H41a.76.76,0,0,1,.21-.45.51.51,0,0,1,.36-.15.34.34,0,0,1,.26.08.6.6,0,0,1,.14.21,1.55,1.55,0,0,1,.07.31h.41a.77.77,0,0,0,0-.27.82.82,0,0,0-.1-.24l.32-.13a.81.81,0,0,1,.11.27,1.42,1.42,0,0,1,0,.36h.27a2.29,2.29,0,0,1,0,.25H42.8a.9.9,0,0,1-.21.44.58.58,0,0,1-.36.17Z"/></g></g></g></svg>