<svg xmlns="http://www.w3.org/2000/svg" xmlns:xlink="http://www.w3.org/1999/xlink" viewBox="0 0 272.56 203.09"><defs><style>.cls-1,.cls-6{fill:#e0e0e0;}.cls-2{fill:#e6e6e6;}.cls-3{fill:#f0f0f0;}.cls-4{fill:#ebebeb;}.cls-15,.cls-27,.cls-31,.cls-5{fill:#fafafa;}.cls-11,.cls-15,.cls-24,.cls-26,.cls-27,.cls-31,.cls-34,.cls-36,.cls-38,.cls-40,.cls-6{isolation:isolate;}.cls-6{opacity:0.4;}.cls-7{fill:#f5f5f5;}.cls-8{fill:#e58a7b;}.cls-9{fill:#407bff;}.cls-10{fill:url(#linear-gradient);}.cls-11,.cls-31{opacity:0.7;}.cls-12{fill:#263238;}.cls-13{fill:#cf6f64;}.cls-14{fill:url(#linear-gradient-2);}.cls-15{opacity:0.6;}.cls-16{fill:url(#linear-gradient-3);}.cls-17{fill:#3a3a3a;}.cls-18{fill:#232323;}.cls-19{fill:#df5753;}.cls-20{fill:url(#linear-gradient-4);}.cls-21{fill:url(#linear-gradient-5);}.cls-22{fill:url(#linear-gradient-6);}.cls-23{fill:#0b0c0c;}.cls-24{opacity:0.5;}.cls-25{fill:#fff;}.cls-26{opacity:0.3;}.cls-27{opacity:0.9;}.cls-28{fill:url(#linear-gradient-7);}.cls-29{fill:url(#linear-gradient-8);}.cls-30{fill:url(#linear-gradient-9);}.cls-32{fill:url(#linear-gradient-10);}.cls-33,.cls-34{fill:url(#linear-gradient-11);}.cls-34,.cls-36{opacity:0.2;}.cls-35,.cls-36{fill:url(#linear-gradient-13);}.cls-37,.cls-38{fill:url(#linear-gradient-15);}.cls-38,.cls-40{opacity:0.1;}.cls-39,.cls-40{fill:url(#linear-gradient-17);}</style><linearGradient id="linear-gradient" x1="193.98" y1="76.69" x2="202.28" y2="76.69" gradientUnits="userSpaceOnUse"><stop offset="0" stop-color="#00ffaf"/><stop offset="0.06" stop-color="#00edad"/><stop offset="0.32" stop-color="#00a6a7"/><stop offset="0.55" stop-color="#006ea2"/><stop offset="0.75" stop-color="#00469f"/><stop offset="0.91" stop-color="#002d9d"/><stop offset="1" stop-color="#00249c"/></linearGradient><linearGradient id="linear-gradient-2" x1="196.44" y1="83.53" x2="219.12" y2="83.53" xlink:href="#linear-gradient"/><linearGradient id="linear-gradient-3" x1="210.55" y1="50.37" x2="217.16" y2="50.37" xlink:href="#linear-gradient"/><linearGradient id="linear-gradient-4" x1="214.42" y1="76.81" x2="222.92" y2="76.81" xlink:href="#linear-gradient"/><linearGradient id="linear-gradient-5" x1="237.78" y1="175.89" x2="239.7" y2="175.89" xlink:href="#linear-gradient"/><linearGradient id="linear-gradient-6" x1="200.23" y1="190.96" x2="201.79" y2="190.96" xlink:href="#linear-gradient"/><linearGradient id="linear-gradient-7" x1="55.03" y1="92.38" x2="67.87" y2="92.38" xlink:href="#linear-gradient"/><linearGradient id="linear-gradient-8" x1="46.46" y1="81.93" x2="61.49" y2="95.71" xlink:href="#linear-gradient"/><linearGradient id="linear-gradient-9" x1="58.34" y1="100.83" x2="82.74" y2="100.83" xlink:href="#linear-gradient"/><linearGradient id="linear-gradient-10" x1="75.35" y1="92.6" x2="89.14" y2="92.6" xlink:href="#linear-gradient"/><linearGradient id="linear-gradient-11" x1="136.19" y1="51.37" x2="143" y2="51.37" xlink:href="#linear-gradient"/><linearGradient id="linear-gradient-13" x1="119.4" y1="41.19" x2="163.74" y2="41.19" xlink:href="#linear-gradient"/><linearGradient id="linear-gradient-15" x1="142.94" y1="11.63" x2="143.48" y2="11.63" xlink:href="#linear-gradient"/><linearGradient id="linear-gradient-17" x1="97.23" y1="15.96" x2="141.57" y2="15.96" xlink:href="#linear-gradient"/></defs><g id="Layer_2" data-name="Layer 2"><g id="Layer_1-2" data-name="Layer 1"><g id="freepik--background-complete--inject-21"><rect class="cls-1" y="178.47" width="272.56" height="0.14"/><rect class="cls-1" x="211.69" y="187.02" width="24.45" height="0.14"/><rect class="cls-1" x="203.37" y="187.02" width="4.74" height="0.14"/><rect class="cls-1" x="152.61" y="185.14" width="10.55" height="0.14"/><rect class="cls-1" x="44.12" y="185.07" width="23.54" height="0.14"/><rect class="cls-1" x="35.81" y="185.07" width="3.45" height="0.14"/><rect class="cls-1" x="103.19" y="181.84" width="51.07" height="0.14"/><path class="cls-1" d="M129.19,154.16H23.94a3.11,3.11,0,0,1-3.11-3.11V3.09A3.11,3.11,0,0,1,23.94,0H129.19a3.12,3.12,0,0,1,3.12,3.11h0V151.05A3.12,3.12,0,0,1,129.19,154.16ZM23.94.11a3,3,0,0,0-3,3v148a3,3,0,0,0,3,3H129.19a3,3,0,0,0,3-3V3.09a3,3,0,0,0-3-3Z"/><path class="cls-1" d="M247.11,154.16H141.85a3.12,3.12,0,0,1-3.12-3.11V3.09A3.12,3.12,0,0,1,141.85,0H247.11a3.11,3.11,0,0,1,3.1,3.09v148A3.12,3.12,0,0,1,247.11,154.16ZM141.85.11a3,3,0,0,0-3,3v148a3,3,0,0,0,3,3H247.11a3,3,0,0,0,3-3V3.09a3,3,0,0,0-3-3Z"/><rect class="cls-2" x="62.96" y="34.4" width="65.17" height="144.14"/><rect class="cls-3" x="66.05" y="34.4" width="62.08" height="144.14"/><rect class="cls-4" x="69.32" y="37.67" width="55.54" height="137.59"/><rect class="cls-2" x="124.01" y="37.68" width="0.85" height="137.59"/><circle class="cls-2" cx="117.44" cy="100.51" r="2.79"/><circle class="cls-5" cx="118.53" cy="99.94" r="2.79"/><rect class="cls-1" x="156.75" y="16.66" width="73.97" height="110.71"/><rect class="cls-3" x="158.4" y="16.66" width="73.97" height="110.71"/><rect class="cls-5" x="161.35" y="19.97" width="68.07" height="104.09"/><rect class="cls-1" x="228.18" y="19.97" width="1.24" height="104.09"/><rect class="cls-3" x="159.62" y="52.42" width="71.53" height="4.45"/><path class="cls-1" d="M235.58,11.17h-82a.46.46,0,0,0-.45.46h0a.46.46,0,0,0,.45.46h82a.47.47,0,0,0,.46-.46h0A.46.46,0,0,0,235.58,11.17Z"/><path class="cls-1" d="M238.31,11.63A2.28,2.28,0,1,1,236,9.36h0A2.27,2.27,0,0,1,238.31,11.63Z"/><path class="cls-1" d="M157.37,14.17h0a.61.61,0,0,1-.62-.61V12.24a.62.62,0,0,1,.62-.61h0a.61.61,0,0,1,.61.61v1.32A.61.61,0,0,1,157.37,14.17Z"/><path class="cls-1" d="M228.74,14.17h0a.61.61,0,0,1-.62-.61V12.24a.61.61,0,0,1,.62-.61h0a.61.61,0,0,1,.61.61v1.32A.61.61,0,0,1,228.74,14.17Z"/><rect class="cls-6" x="159.62" y="11.63" width="75.83" height="31.8"/><path class="cls-1" d="M166.94,11.63a2.27,2.27,0,1,1-2.28-2.27h0A2.27,2.27,0,0,1,166.94,11.63Z"/><rect class="cls-2" x="153.71" y="144.05" width="14.6" height="32.37"/><rect class="cls-2" x="156.52" y="176.42" width="72" height="2.05"/><rect class="cls-3" x="168.31" y="144.05" width="63.01" height="32.37"/><rect class="cls-2" x="174.05" y="148.03" width="51.53" height="10.62"/><rect class="cls-2" x="174.05" y="161.81" width="51.53" height="10.62"/><rect class="cls-3" x="192.61" y="152.61" width="14.42" height="1.46" rx="0.64"/><rect class="cls-3" x="192.61" y="166.4" width="14.42" height="1.46" rx="0.64"/><circle class="cls-3" cx="186.5" cy="136.06" r="3.22"/><circle class="cls-3" cx="191.56" cy="135.45" r="3.22"/><path class="cls-3" d="M210.33,136.94a3.22,3.22,0,1,1-3.21-3.22h0A3.22,3.22,0,0,1,210.33,136.94Z"/><path class="cls-3" d="M202,138.42a3.22,3.22,0,1,1-3.22-3.21h0A3.21,3.21,0,0,1,202,138.42Z"/><path class="cls-2" d="M177.16,136.65s.55,7.4,20.5,7.4,20.5-7.4,20.5-7.4Z"/><rect class="cls-2" x="23.75" y="132.64" width="9.94" height="43.1"/><rect class="cls-2" x="25.66" y="175.74" width="49.01" height="2.73"/><rect class="cls-3" x="33.68" y="132.64" width="42.88" height="43.1"/><rect class="cls-2" x="37.6" y="137.95" width="35.07" height="14.13"/><rect class="cls-2" x="37.6" y="156.3" width="35.07" height="14.13"/><path class="cls-3" d="M59.06,146H51.19a1,1,0,0,1-1-1v0h0a1,1,0,0,1,1-1h7.87a1,1,0,0,1,1,1h0a1,1,0,0,1-1,1Z"/><path class="cls-3" d="M59.06,164.34H51.19a1,1,0,0,1-1-1h0a1,1,0,0,1,1-1h7.87a1,1,0,0,1,1,1h0a1,1,0,0,1-1,1Z"/><path class="cls-3" d="M53.07,124.36S44.9,110.23,56.25,99c0,0,3,1.93,2.92,4.53S56,106.79,56.67,109s3.63,4.3,1.69,6.09.31,3.39.17,5.59S53.07,124.36,53.07,124.36Z"/><path class="cls-2" d="M41.14,122.11s.27,10.53,10.72,10.53,10.72-10.53,10.72-10.53Z"/><path class="cls-2" d="M53.69,125.65s3.33-16-11-23.07c0,0-2.18,2.76-1.34,5.22s4,2.09,4.09,4.36-2.09,5.22.32,6.31.77,3.32,1.59,5.36S53.69,125.65,53.69,125.65Z"/><rect class="cls-1" x="32.39" y="46.82" width="16.36" height="41.15"/><rect class="cls-3" x="34.7" y="46.82" width="17.36" height="41.15"/><rect class="cls-5" x="37.34" y="49.46" width="12.07" height="35.86"/></g><g id="freepik--Shadow--inject-21"><ellipse class="cls-7" cx="136.28" cy="196.92" rx="105.69" ry="6.17"/></g><path class="cls-8" d="M199.87,76.53c-.08,1.53-.27,2.94-.48,4.4s-.5,2.88-.82,4.3a41.36,41.36,0,0,1-2.87,8.46,7.26,7.26,0,0,1-1.8,2.21A15.73,15.73,0,0,1,192,97.31a29.32,29.32,0,0,1-4,2,55.28,55.28,0,0,1-8.22,2.8l-.67-2c1.25-.55,2.54-1.15,3.78-1.77s2.49-1.24,3.68-1.91a33.29,33.29,0,0,0,3.39-2.14,12.43,12.43,0,0,0,1.42-1.19,3.64,3.64,0,0,0,.82-1.09,32.82,32.82,0,0,0,1.28-3.73c.35-1.3.67-2.62.95-4s.49-2.69.68-4,.36-2.72.48-4Z"/><path class="cls-9" d="M196.94,71.41c-1.74.44-3,7.6-3,7.6l4.79,3.27s4.6-7.22,3.27-9.12S199.48,70.74,196.94,71.41Z"/><path class="cls-10" d="M196.94,71.41c-1.74.44-3,7.6-3,7.6l4.79,3.27s4.6-7.22,3.27-9.12S199.48,70.74,196.94,71.41Z"/><polygon class="cls-9" points="197.09 72.99 195.76 80.2 198.45 82.02 197.09 72.99"/><polygon class="cls-11" points="197.09 72.99 195.76 80.2 198.45 82.02 197.09 72.99"/><path class="cls-8" d="M180.07,100l-3-3-.39,4.27s2.24,1.52,3.82.71Z"/><polygon class="cls-8" points="173.56 96.55 173.43 100.14 176.69 101.27 177.08 97 173.56 96.55"/><polygon class="cls-8" points="206.34 191.82 202.13 191.82 201.84 182.05 206.06 182.05 206.34 191.82"/><polygon class="cls-8" points="243.57 172.22 240.35 174.96 233 168.39 236.21 165.66 243.57 172.22"/><path class="cls-12" d="M239.48,174.63l3.1-3.57A.33.33,0,0,1,243,171l3.18,2.06a.68.68,0,0,1,.17.94.18.18,0,0,1-.05.07c-1.09,1.22-1.7,1.76-3.07,3.33-.85,1-2,2.46-3.14,3.81s-2.55.25-2.18-.41a8.31,8.31,0,0,0,1.27-5.45A1.05,1.05,0,0,1,239.48,174.63Z"/><path class="cls-12" d="M202,191.34h4.74a.34.34,0,0,1,.34.29l.54,3.75a.67.67,0,0,1-.6.74h-.07c-1.64,0-2.46-.12-4.54-.12-1.28,0-3.93.13-5.7.13s-1.87-1.75-1.13-1.91a11.34,11.34,0,0,0,5.72-2.63A1.11,1.11,0,0,1,202,191.34Z"/><polygon class="cls-13" points="201.84 182.05 201.99 187.09 206.21 187.09 206.07 182.05 201.84 182.05"/><polygon class="cls-13" points="236.22 165.66 233 168.39 236.79 171.77 240.01 169.04 236.22 165.66"/><path class="cls-9" d="M196.94,71.41s-2,.71,2,25.46h17.14c-.29-7-.3-11.27,3-25.58a49.58,49.58,0,0,0-7.27-1,53.17,53.17,0,0,0-7.78,0A69.42,69.42,0,0,0,196.94,71.41Z"/><path class="cls-14" d="M196.94,71.41s-2,.71,2,25.46h17.14c-.29-7-.3-11.27,3-25.58a49.58,49.58,0,0,0-7.27-1,53.17,53.17,0,0,0-7.78,0A69.42,69.42,0,0,0,196.94,71.41Z"/><path class="cls-9" d="M206.6,72.1l1.55,3.16s6.49-2,5.64-4.84l-2.18-.25Z"/><path class="cls-15" d="M206.6,72.1l1.55,3.16s6.49-2,5.64-4.84l-2.18-.25Z"/><path class="cls-9" d="M206.48,71.8,204.3,75s-4.62-2-1.43-4.7l1.35-.16Z"/><path class="cls-15" d="M206.48,71.8,204.3,75s-4.62-2-1.43-4.7l1.35-.16Z"/><path class="cls-12" d="M213.44,48.52c2-1.93.08-11,5.35-8,6.69,3.82,11-1.18,8.78-3.07,4.7.33,4.24,5.68,2.29,8.55-5,7.31-15,.36-15.05,4.07S213.44,48.52,213.44,48.52Z"/><path class="cls-9" d="M210.55,47.21c2.3-1.81,10.14-.3,4.76,7Z"/><path class="cls-16" d="M210.55,47.21c2.3-1.81,10.14-.3,4.76,7Z"/><path class="cls-12" d="M211.76,50.61c6.69,1,7.15,11.86-3.22,13.54Z"/><path class="cls-8" d="M211.08,61.55c-.49,2.5-1,7.09.77,8.76,0,0-.69,2.53-5.34,2.53-5.11,0-2.44-2.53-2.44-2.53,2.79-.67,2.72-2.73,2.23-4.68Z"/><path class="cls-13" d="M209.13,63.23l-2.83,2.41a6.63,6.63,0,0,1,.24,1.39,3.43,3.43,0,0,0,2.65-2.44A3.89,3.89,0,0,0,209.13,63.23Z"/><path class="cls-12" d="M200.53,58.65c-2.31-3-5.31-10.64,3.68-11.37Z"/><path class="cls-8" d="M210.91,55.16c.54,4.15.87,5.9-.79,8.41-2.49,3.77-7.71,3.55-9.49-.35-1.61-3.51-2.24-9.71,1.45-12.13a5.72,5.72,0,0,1,8.83,4.07Z"/><path class="cls-17" d="M199,96.85s-3.33,32.5-3.05,45.36c.29,13.38,5.19,43.9,5.19,43.9h5.7s-.9-29.74-.39-42.87c.54-14.34,5.1-46.39,5.1-46.39Z"/><polygon class="cls-9" points="207.29 186.32 200.6 186.32 200.11 184.19 207.6 183.92 207.29 186.32"/><polygon class="cls-18" points="207.29 186.32 200.6 186.32 200.11 184.19 207.6 183.92 207.29 186.32"/><path class="cls-18" d="M206.34,104.94c-4.2,8.46-.84,23.9.65,29.65.76-8.63,2-19.18,3-26.92C209.4,103.28,208.28,101,206.34,104.94Z"/><path class="cls-17" d="M203.48,96.85s3.88,33.8,6.81,44.63c3.48,12.88,25.08,30.21,25.08,30.21l4.38-3.73s-15.66-18.82-18.32-25.62c-5.68-14.48-.82-36-5.36-45.5Z"/><polygon class="cls-9" points="240.47 167.77 235.03 172.38 233 171.17 239.15 165.44 240.47 167.77"/><polygon class="cls-18" points="240.47 167.77 235.03 172.38 233 171.17 239.15 165.44 240.47 167.77"/><path class="cls-12" d="M204.91,57.53c.07.33-.06.64-.28.68s-.44-.19-.51-.54.06-.64.28-.68S204.85,57.19,204.91,57.53Z"/><path class="cls-12" d="M201.15,58.27c.06.34-.06.64-.28.68s-.45-.19-.51-.54,0-.64.27-.68S201.07,57.94,201.15,58.27Z"/><path class="cls-12" d="M200.72,57.74l-.85-.07S200.41,58.21,200.72,57.74Z"/><path class="cls-19" d="M202.24,58.65a9.39,9.39,0,0,1-.77,2.37,1.47,1.47,0,0,0,1.23,0Z"/><path class="cls-12" d="M204.13,62.09a.09.09,0,0,1-.1-.1.1.1,0,0,1,.1-.1h0a2.68,2.68,0,0,0,2-1.46.1.1,0,0,1,.18.08,2.83,2.83,0,0,1-2.1,1.58Z"/><path class="cls-12" d="M200.6,52.56a15,15,0,0,0,10.09,6.09s6.76-6.13,2.6-10.39C206.57,41.39,198.54,50.15,200.6,52.56Z"/><path class="cls-8" d="M212.33,58.37a3,3,0,0,1-1,2.13c-.78.74-1.67.16-1.86-.84s0-2.36,1-2.73a1.37,1.37,0,0,1,1.8,1.44Z"/><path class="cls-12" d="M205.77,56.09a.15.15,0,0,1-.13-.05,1.61,1.61,0,0,0-1.39-.41.18.18,0,0,1-.24-.13h0a.19.19,0,0,1,.14-.24,2,2,0,0,1,1.75.49.21.21,0,0,1,0,.29A.16.16,0,0,1,205.77,56.09Z"/><path class="cls-12" d="M199.05,56.87a.11.11,0,0,1-.08,0,.19.19,0,0,1-.11-.25h0a2,2,0,0,1,1.37-1.2.18.18,0,0,1,.22.14h0a.21.21,0,0,1-.15.24h0a1.61,1.61,0,0,0-1.09,1A.17.17,0,0,1,199.05,56.87Z"/><path class="cls-8" d="M225.13,92.31v-.49c0-.65-.09-1.28-.15-1.91a47.16,47.16,0,0,0-1.56-7.24,67.25,67.25,0,0,0-2.44-6.9l-4,1.64c.81,2.1,1.58,4.32,2.28,6.5.34,1.09.66,2.18.94,3.27s.54,2.18.74,3.27l.11.73c-.38-.13-.76-.26-1.16-.43-2.06-.84-4.16-1.93-6.24-3l-1.2,1.76a40.34,40.34,0,0,0,5.95,4.27,15.13,15.13,0,0,0,1.76.87,7.69,7.69,0,0,0,1.05.37,4.67,4.67,0,0,0,.65.13,3.17,3.17,0,0,0,.87,0,2.52,2.52,0,0,0,1.33-.5,2.56,2.56,0,0,0,1-1.46A3.56,3.56,0,0,0,225.13,92.31Zm-2.93-.82h.1c.06,0,0,0-.13,0Z"/><path class="cls-9" d="M219.14,71.26c1.72.55,3.78,6.44,3.78,6.44l-6.66,4.76s-2.43-4.93-1.71-7.15S217.16,70.67,219.14,71.26Z"/><path class="cls-20" d="M219.14,71.26c1.72.55,3.78,6.44,3.78,6.44l-6.66,4.76s-2.43-4.93-1.71-7.15S217.16,70.67,219.14,71.26Z"/><path class="cls-21" d="M238.32,176.66a.59.59,0,0,1-.45-.23.33.33,0,0,1-.07-.33c.15-.52,1.63-.94,1.78-1a.11.11,0,0,1,.11,0,.11.11,0,0,1,0,.11c-.26.5-.79,1.34-1.31,1.4Zm1.09-1.28c-.58.19-1.33.51-1.42.78a.14.14,0,0,0,0,.14.39.39,0,0,0,.34.16c.28,0,.66-.43,1-1.08Z"/><path class="cls-9" d="M238.94,175.4a1.74,1.74,0,0,1-1.22-.35.35.35,0,0,1,0-.43.55.55,0,0,1,.38-.23c.6-.07,1.52.71,1.56.75a.08.08,0,0,1,0,.09.09.09,0,0,1-.06.08A2.67,2.67,0,0,1,238.94,175.4Zm-.74-.82h-.06a.33.33,0,0,0-.24.15c-.08.1-.05.16,0,.2a2.16,2.16,0,0,0,1.51.23,2.65,2.65,0,0,0-1.19-.58Z"/><path class="cls-9" d="M200.4,192.07a1.63,1.63,0,0,1-1-.26.57.57,0,0,1-.18-.49.35.35,0,0,1,.17-.27c.52-.27,2.18.58,2.39.68a.09.09,0,0,1,.05.1.08.08,0,0,1-.07.08A6.71,6.71,0,0,1,200.4,192.07Zm-.76-.87a.29.29,0,0,0-.18,0,.12.12,0,0,0-.07.11.35.35,0,0,0,.12.32,2.66,2.66,0,0,0,1.88.11A5.29,5.29,0,0,0,199.64,191.2Z"/><path class="cls-22" d="M201.69,191.92h0c-.5-.23-1.49-1.13-1.42-1.63,0-.12.1-.26.38-.29a.66.66,0,0,1,.54.18,2.66,2.66,0,0,1,.64,1.63.1.1,0,0,1,0,.09Zm-1-1.71h-.06c-.18,0-.19.09-.2.11,0,.29.63,1,1.14,1.32a2.29,2.29,0,0,0-.55-1.31.53.53,0,0,0-.32-.12Z"/><path class="cls-8" d="M214.23,88.26l-1.42-4.33-2.25,3.64s1.33,2.36,3.08,2.33Z"/><polygon class="cls-8" points="209.85 81.95 208.13 85.11 210.54 87.57 212.8 83.93 209.85 81.95"/><path class="cls-12" d="M204.5,57l-.85-.07S204.19,57.47,204.5,57Z"/><path class="cls-12" d="M216.34,95.84l.44,1.54c.06.11-.08.24-.28.24H198.87c-.16,0-.28-.08-.29-.17l-.16-1.51c0-.11.12-.2.29-.2h17.35A.35.35,0,0,1,216.34,95.84Z"/><path class="cls-9" d="M214,97.78h.47c.09,0,.16,0,.16-.1l-.22-2c0-.06-.09-.1-.18-.1h-.47c-.09,0-.16,0-.15.1l.21,2S213.92,97.78,214,97.78Z"/><path class="cls-15" d="M214,97.78h.47c.09,0,.16,0,.16-.1l-.22-2c0-.06-.09-.1-.18-.1h-.47c-.09,0-.16,0-.15.1l.21,2S213.92,97.78,214,97.78Z"/><path class="cls-9" d="M200.17,97.78h.47c.09,0,.16,0,.15-.1l-.21-2c0-.06-.09-.1-.18-.1h-.47c-.09,0-.16,0-.15.1l.21,2S200.06,97.78,200.17,97.78Z"/><path class="cls-15" d="M200.17,97.78h.47c.09,0,.16,0,.15-.1l-.21-2c0-.06-.09-.1-.18-.1h-.47c-.09,0-.16,0-.15.1l.21,2S200.06,97.78,200.17,97.78Z"/><path class="cls-9" d="M207.09,97.78h.47c.09,0,.16,0,.15-.1l-.22-2c0-.06-.08-.1-.18-.1h-.46c-.09,0-.16,0-.16.1l.22,2A.17.17,0,0,0,207.09,97.78Z"/><path class="cls-15" d="M207.09,97.78h.47c.09,0,.16,0,.15-.1l-.22-2c0-.06-.08-.1-.18-.1h-.46c-.09,0-.16,0-.16.1l.22,2A.17.17,0,0,0,207.09,97.78Z"/><path class="cls-23" d="M152.42,196.92h36.06a6,6,0,0,0,6.1-6,5.52,5.52,0,0,0,0-.58L185.94,67.05a7.15,7.15,0,0,0-7-6.54H142.88a6,6,0,0,0-6.11,6c0,.19,0,.39,0,.58l8.63,123.33A7.14,7.14,0,0,0,152.42,196.92Z"/><rect class="cls-9" x="133.12" y="105.09" width="0.55" height="8.61" transform="translate(-7.31 9.57) rotate(-4)"/><rect class="cls-24" x="133.12" y="105.09" width="0.55" height="8.61" transform="translate(-7.31 9.57) rotate(-4)"/><path class="cls-9" d="M147.69,196.92h36.06a6,6,0,0,0,6.1-6,3.71,3.71,0,0,0,0-.58L181.21,67.05a7.14,7.14,0,0,0-7-6.54H138.16a6,6,0,0,0-6.11,6c0,.19,0,.39,0,.58l8.63,123.33A7.14,7.14,0,0,0,147.69,196.92Z"/><path class="cls-12" d="M147.69,196.92h36.06a6,6,0,0,0,6.1-6,3.71,3.71,0,0,0,0-.58L181.21,67.05a7.14,7.14,0,0,0-7-6.54H138.16a6,6,0,0,0-6.11,6c0,.19,0,.39,0,.58l8.63,123.33A7.14,7.14,0,0,0,147.69,196.92Z"/><path class="cls-25" d="M154.39,99.79h6.67a1.1,1.1,0,0,0,1.14-1,.91.91,0,0,0,0-.17l-1.6-22.84a1.32,1.32,0,0,0-1.3-1.21h-6.66a1.1,1.1,0,0,0-1.13,1,.86.86,0,0,0,0,.16l1.6,22.84A1.32,1.32,0,0,0,154.39,99.79Z"/><path class="cls-12" d="M113.52,196.92H77.46a6,6,0,0,1-6.1-6,3.71,3.71,0,0,1,0-.58L80,67.05a7.15,7.15,0,0,1,7-6.54h36.06a6,6,0,0,1,6.11,6,5.63,5.63,0,0,1,0,.58l-8.62,123.33A7.14,7.14,0,0,1,113.52,196.92Z"/><rect class="cls-9" x="96.32" y="58.59" width="2.03" height="0.55"/><rect class="cls-26" x="96.32" y="58.59" width="2.03" height="0.55"/><rect class="cls-9" x="86.28" y="58.59" width="6.39" height="0.55"/><rect class="cls-26" x="86.28" y="58.59" width="6.39" height="0.55"/><path class="cls-12" d="M108.8,196.92H72.74a6,6,0,0,1-6.1-6,3.71,3.71,0,0,1,0-.58L75.28,67.05a7.14,7.14,0,0,1,7-6.54h36.05a6,6,0,0,1,6.11,6c0,.19,0,.39,0,.58l-8.63,123.33A7.14,7.14,0,0,1,108.8,196.92Z"/><path class="cls-25" d="M114.2,189.82H66.73a.84.84,0,0,1-.83-.84v0L74.3,68.79a.84.84,0,0,1,.83-.77H122.6a.84.84,0,0,1,.84.83v.06L115,189.05A.82.82,0,0,1,114.2,189.82Z"/><path class="cls-9" d="M113.05,80.32H82.23a3.38,3.38,0,0,0-3.31,3.09l-3.21,45.9a2.85,2.85,0,0,0,2.6,3.09h2.42l-1.09,3.36a9.62,9.62,0,0,0,6.49-3.36h23.28a3.39,3.39,0,0,0,3.31-3.1l3.21-45.9a2.86,2.86,0,0,0-2.62-3.08Z"/><path class="cls-15" d="M113.05,80.32H82.23a3.38,3.38,0,0,0-3.31,3.09l-3.21,45.9a2.85,2.85,0,0,0,2.6,3.09h2.42l-1.09,3.36a9.62,9.62,0,0,0,6.49-3.36h23.28a3.39,3.39,0,0,0,3.31-3.1l3.21-45.9a2.86,2.86,0,0,0-2.62-3.08Z"/><path class="cls-9" d="M78,141.65h30.82a2.85,2.85,0,0,1,2.89,2.82,2.72,2.72,0,0,1,0,.28l-1.38,19.71a3.39,3.39,0,0,1-3.31,3.1h-2.14l.6,3.36a8.27,8.27,0,0,1-6-3.36H76.13a2.85,2.85,0,0,1-2.89-2.82,2.62,2.62,0,0,1,0-.28l1.38-19.71A3.38,3.38,0,0,1,78,141.65Z"/><path class="cls-15" d="M78,141.65h30.82a2.85,2.85,0,0,1,2.89,2.82,2.72,2.72,0,0,1,0,.28l-1.38,19.71a3.39,3.39,0,0,1-3.31,3.1h-2.14l.6,3.36a8.27,8.27,0,0,1-6-3.36H76.13a2.85,2.85,0,0,1-2.89-2.82,2.62,2.62,0,0,1,0-.28l1.38-19.71A3.38,3.38,0,0,1,78,141.65Z"/><path class="cls-9" d="M105.78,64a1.12,1.12,0,0,1-1.09,1,1,1,0,0,1-1-.93V64a1.13,1.13,0,0,1,1.09-1,.94.94,0,0,1,1,.93Z"/><path class="cls-1" d="M105.78,64a1.12,1.12,0,0,1-1.09,1,1,1,0,0,1-1-.93V64a1.13,1.13,0,0,1,1.09-1,.94.94,0,0,1,1,.93Z"/><path class="cls-9" d="M100.47,65H93.28a1,1,0,0,1-1-.95V64h0a1.12,1.12,0,0,1,1.09-1h7.19a.94.94,0,0,1,1,.94V64h0A1.13,1.13,0,0,1,100.47,65Z"/><path class="cls-1" d="M100.47,65H93.28a1,1,0,0,1-1-.95V64h0a1.12,1.12,0,0,1,1.09-1h7.19a.94.94,0,0,1,1,.94V64h0A1.13,1.13,0,0,1,100.47,65Z"/><path class="cls-8" d="M62.08,88.67l.86,1.68c.3.54.6,1.14.92,1.7q.94,1.7,2,3.33a42,42,0,0,0,4.42,6c.41.41.85.9,1.13,1.12a8.27,8.27,0,0,0,1.27.85,21.88,21.88,0,0,0,3.3,1.42,69.18,69.18,0,0,0,7.47,2l-.17,3a36.58,36.58,0,0,1-8.49-.49,22.09,22.09,0,0,1-4.36-1.23,11.85,11.85,0,0,1-2.23-1.17,9,9,0,0,1-1-.8l-.86-.76a38.84,38.84,0,0,1-5.51-6.69c-.79-1.19-1.53-2.39-2.22-3.62-.34-.61-.68-1.23-1-1.86s-.63-1.24-1-2Z"/><path class="cls-8" d="M82.31,106.81l2.43-1.71,1.28,5a4.69,4.69,0,0,1-3.75-.33Z"/><polygon class="cls-8" points="88.09 103.98 88.95 108.12 86.01 110.05 84.73 105.1 88.09 103.98"/><path class="cls-9" d="M103.5,99.59l-.66-.12a4.53,4.53,0,0,0-2.07.12l-1.9.58a11.52,11.52,0,0,0,1-6.46c-.23-1.67-1.49-1.29-1.49-1.29S96.6,99.35,92.78,102l-1.2.84,1.71,12.21,1.41-.13h5.65a3.92,3.92,0,0,0,3-1.6,8.32,8.32,0,0,0,1.67-4.67l.36-5.68C105.47,101.3,104.66,99.79,103.5,99.59Z"/><path class="cls-27" d="M103.5,99.59l-.66-.12a4.53,4.53,0,0,0-2.07.12l-1.9.58a11.52,11.52,0,0,0,1-6.46c-.23-1.67-1.49-1.29-1.49-1.29S96.6,99.35,92.78,102l-1.2.84,1.71,12.21,1.41-.13h5.65a3.92,3.92,0,0,0,3-1.6,8.32,8.32,0,0,0,1.67-4.67l.36-5.68C105.47,101.3,104.66,99.79,103.5,99.59Z"/><path class="cls-9" d="M88,117.9l5.38-1.17c.42-.09.71-.67.65-1.28l-1.4-14c-.07-.61-.46-1-.88-1l-5.38,1.17c-.42.09-.71.67-.65,1.28l1.41,14C87.18,117.56,87.57,118,88,117.9Z"/><path class="cls-12" d="M77.64,71.77c-.07.32,0,.61.25.65s.43-.18.5-.49,0-.61-.26-.66S77.7,71.45,77.64,71.77Z"/><path class="cls-19" d="M77.66,72.37a11.39,11.39,0,0,0,.94,3,1.85,1.85,0,0,1-1.56,0Z"/><path class="cls-12" d="M78.5,69.84l-.11,0a1.48,1.48,0,0,0-1.36,0,.21.21,0,0,1-.26-.09.19.19,0,0,1,.09-.25h0a1.86,1.86,0,0,1,1.73.06.18.18,0,0,1,.06.25h0A.22.22,0,0,1,78.5,69.84Z"/><path class="cls-8" d="M66.42,72.78c.54,2.93,1.14,8.3-.91,10.25,0,0,.8,3,6.25,3,6,0,2.86-3,2.86-3-3.27-.78-3.18-3.2-2.62-5.45Z"/><path class="cls-9" d="M64.68,83.87c-.39-1-.32-2.72,0-2.75,1.13-.08,7.18-.09,9.18.68a2.09,2.09,0,0,1,1.37,2.62v0Z"/><path class="cls-9" d="M51.31,193.52a4.55,4.55,0,0,1-1-.12.08.08,0,0,1-.08-.07.14.14,0,0,1,0-.1c.05,0,1.16-.78,1.74-.65a.46.46,0,0,1,.3.22.39.39,0,0,1,0,.46A1.32,1.32,0,0,1,51.31,193.52Zm-.78-.25c.6.09,1.42.09,1.59-.13a.23.23,0,0,0,0-.24.23.23,0,0,0-.17-.13,2.53,2.53,0,0,0-1.42.51Z"/><path class="cls-9" d="M50.29,193.42h0a.11.11,0,0,1-.05-.09,2.89,2.89,0,0,1,.55-1.58.5.5,0,0,1,.41-.12.3.3,0,0,1,.3.25c.08.44-.72,1.32-1.13,1.54Zm.8-1.64a.36.36,0,0,0-.21.09,2.19,2.19,0,0,0-.47,1.25c.41-.31.92-1,.87-1.24,0,0,0-.08-.14-.1Z"/><polygon class="cls-8" points="45.66 193.32 49.67 193.32 53.36 184.05 49.36 184.05 45.66 193.32"/><path class="cls-12" d="M50,192.86h-4.5a.33.33,0,0,0-.34.28l-.79,3.56a.58.58,0,0,0,.45.69.33.33,0,0,0,.14,0c1.57,0,2.33-.12,4.31-.12,1.21,0,3.72.14,5.4.14s1.9-1.64,1.21-1.82a10,10,0,0,1-5.23-2.49A1,1,0,0,0,50,192.86Z"/><path class="cls-8" d="M82.59,86.93c1.19,2.18,2.37,4.42,3.53,6.63l3.48,6.64.87,1.64a7.42,7.42,0,0,0,.66,1.13,7.78,7.78,0,0,0,2.18,1.82,30,30,0,0,0,6.38,2.72l-.34,3a20,20,0,0,1-2-.06c-.68,0-1.35-.13-2-.24a18.79,18.79,0,0,1-4-1.09,12,12,0,0,1-4-2.5,10.56,10.56,0,0,1-1.49-2l-1-1.64q-2-3.27-3.88-6.57c-1.23-2.22-2.43-4.45-3.58-6.72Z"/><path class="cls-9" d="M55.35,86.35c-1.63,3.5,3.59,14.53,3.59,14.53l8.93-4.14a64,64,0,0,0-3.63-9.13C61.91,83,57,82.78,55.35,86.35Z"/><path class="cls-28" d="M55.35,86.35c-1.63,3.5,3.59,14.53,3.59,14.53l8.93-4.14a64,64,0,0,0-3.63-9.13C61.91,83,57,82.78,55.35,86.35Z"/><path class="cls-9" d="M60.14,87.07l-2,12c.48,1.13.81,1.85.81,1.85l8.93-4.14S63.84,89.76,60.14,87.07Z"/><path class="cls-29" d="M60.14,87.07l-2,12c.48,1.13.81,1.85.81,1.85l8.93-4.14S63.84,89.76,60.14,87.07Z"/><path class="cls-9" d="M80.78,84.14S85,89,81,118.76H59.6c-.15-3.27,1.91-19.32-1.26-34.82A56,56,0,0,1,65.51,83a81.43,81.43,0,0,1,9.11,0A43.25,43.25,0,0,1,80.78,84.14Z"/><path class="cls-30" d="M80.78,84.14S85,89,81,118.76H59.6c-.15-3.27,1.91-19.32-1.26-34.82A56,56,0,0,1,65.51,83a81.43,81.43,0,0,1,9.11,0A43.25,43.25,0,0,1,80.78,84.14Z"/><path class="cls-9" d="M82.5,91.24l-3.3,8.17,3.3,4.82A85.35,85.35,0,0,0,82.5,91.24Z"/><path class="cls-31" d="M82.5,91.24l-3.3,8.17,3.3,4.82A85.35,85.35,0,0,0,82.5,91.24Z"/><path class="cls-9" d="M75.56,86.79c-1.31,3.6,4,14.51,4,14.51l9.6-4.84a49.14,49.14,0,0,0-4.7-9.33C81.57,82.93,77,82.86,75.56,86.79Z"/><path class="cls-32" d="M75.56,86.79c-1.31,3.6,4,14.51,4,14.51l9.6-4.84a49.14,49.14,0,0,0-4.7-9.33C81.57,82.93,77,82.86,75.56,86.79Z"/><path class="cls-8" d="M98.89,107.66l3.93-1.57,1.09,4.73s-3.12,1.13-5.39-.51Z"/><polygon class="cls-8" points="107.14 106.14 106.54 110.36 103.9 110.82 102.81 106.09 107.14 106.14"/><polygon class="cls-13" points="49.35 184.05 53.36 184.05 50.71 190.72 47 189.96 49.35 184.05"/><path class="cls-8" d="M67.23,68.9c-.55,3.93-1.09,6.21.44,8.61a5.27,5.27,0,0,0,9.22-.85c1.57-3.31,2.24-9.19-1.24-11.53a5.45,5.45,0,0,0-8.42,3.77Z"/><path class="cls-12" d="M82.34,62.3c-3.39-3.14-.71-3.93-.71-3.93s-3.72-1.54-2.24,1.75c2,4.59-3.71,3.18-6.46,0-1.7-2-6.18.05-6,2s-6.82.43-3.63,4.61c.06,4.36,1.75,8.6,4,9.75,3.86,2,6.76-3.54,7.84-8C81,71.29,85.85,65.54,82.34,62.3Z"/><path class="cls-8" d="M72.23,71.12a4.61,4.61,0,0,0,1,2.73c.82,1,1.76.45,2-.71s0-2.83-1-3.41S72.23,69.93,72.23,71.12Z"/><path class="cls-12" d="M63.38,62.61a7.37,7.37,0,0,1,4.84,1.57S67.23,60,63.38,62.61Z"/><path class="cls-17" d="M71.63,118.76a233.12,233.12,0,0,0,3.77,30.53,17,17,0,0,1-2.33,13.17C65.27,173.58,52.9,188.4,52.9,188.4l-6.48-.73s10.49-19.45,15.87-29.12c1.22-2.18,2.3-4.17,1.37-6.54-8.9-22.59-4.08-33.25-4.08-33.25Z"/><path class="cls-18" d="M72.84,132.78l-6.2-7.4c-.24,3.32,1.77,15.74,8.65,23.37C74.19,143.37,73.4,137.69,72.84,132.78Z"/><polygon class="cls-9" points="54.73 187.41 53.45 190.04 45.64 188.03 46.26 185.6 54.73 187.41"/><polygon class="cls-18" points="54.73 187.41 53.45 190.04 45.64 188.03 46.26 185.6 54.73 187.41"/><polygon class="cls-8" points="78 193.32 82 193.32 83.17 184.05 79.17 184.05 78 193.32"/><path class="cls-9" d="M83.76,193.52a6.26,6.26,0,0,1-1.23-.12.08.08,0,0,1-.08-.07.09.09,0,0,1,0-.1c.06,0,1.45-.83,2.12-.65a.46.46,0,0,1,.3.22.36.36,0,0,1,0,.42C84.77,193.46,84.27,193.52,83.76,193.52Zm-.93-.25c.75.1,1.77.08,2-.17a.25.25,0,0,0,0-.2.26.26,0,0,0-.19-.13,3.27,3.27,0,0,0-1.73.51Z"/><path class="cls-9" d="M82.54,193.42h-.05a.1.1,0,0,1,0-.09,2.63,2.63,0,0,1,.62-1.54.68.68,0,0,1,.55-.16c.26,0,.33.15.34.26.08.46-.88,1.32-1.36,1.53Zm1-1.64a.51.51,0,0,0-.33.13,2.22,2.22,0,0,0-.54,1.23c.49-.29,1.14-1,1.09-1.25,0,0,0-.08-.19-.11Z"/><path class="cls-12" d="M82.12,192.86H77.76a.33.33,0,0,0-.34.28l-.8,3.56a.58.58,0,0,0,.45.69h.13c1.58,0,3.86-.12,5.84-.12,2.32,0,4.32.14,7,.14,1.64,0,2.1-1.64,1.41-1.82-3.13-.69-5.69-.76-8.4-2.43A1.86,1.86,0,0,0,82.12,192.86Z"/><polygon class="cls-13" points="79.17 184.05 83.18 184.05 82.32 190.81 78.39 190.2 79.17 184.05"/><path class="cls-17" d="M81,118.76s3.35,11.21,8.89,25.62c1.8,4.69,2.5,9.2,1.24,13.17-3.88,12.32-7.24,30.85-7.24,30.85l-6.68-.73S77,168.77,79.34,159c1.22-5,.8-6.82-.44-8.47-17-22.63-12.44-31.78-12.44-31.78Z"/><polygon class="cls-9" points="85.07 187.26 84.72 189.93 76.83 188.59 76.6 186.16 85.07 187.26"/><polygon class="cls-18" points="85.07 187.26 84.72 189.93 76.83 188.59 76.6 186.16 85.07 187.26"/><g id="freepik--speech-bubbles--inject-21"><rect class="cls-33" x="136.19" y="51.1" width="6.81" height="0.55"/><rect class="cls-34" x="136.19" y="51.1" width="6.81" height="0.55"/><path class="cls-35" d="M123.11,28.61H160a3.71,3.71,0,0,1,3.71,3.71V46A3.72,3.72,0,0,1,160,49.74h-2.56l1,4a10.75,10.75,0,0,1-7.44-4H123.11A3.72,3.72,0,0,1,119.4,46V32.32A3.71,3.71,0,0,1,123.11,28.61Z"/><path class="cls-36" d="M123.11,28.61H160a3.71,3.71,0,0,1,3.71,3.71V46A3.72,3.72,0,0,1,160,49.74h-2.56l1,4a10.75,10.75,0,0,1-7.44-4H123.11A3.72,3.72,0,0,1,119.4,46V32.32A3.71,3.71,0,0,1,123.11,28.61Z"/><rect class="cls-37" x="142.94" y="9.36" width="0.55" height="4.54"/><rect class="cls-38" x="142.94" y="9.36" width="0.55" height="4.54"/><path class="cls-39" d="M137.86,3.39H100.94a3.71,3.71,0,0,0-3.71,3.7V20.8a3.71,3.71,0,0,0,3.71,3.71h2.56l-1,4a10.68,10.68,0,0,0,7.46-4h27.92a3.72,3.72,0,0,0,3.71-3.71V7.09A3.71,3.71,0,0,0,137.86,3.39Z"/><path class="cls-40" d="M137.86,3.39H100.94a3.71,3.71,0,0,0-3.71,3.7V20.8a3.71,3.71,0,0,0,3.71,3.71h2.56l-1,4a10.68,10.68,0,0,0,7.46-4h27.92a3.72,3.72,0,0,0,3.71-3.71V7.09A3.71,3.71,0,0,0,137.86,3.39Z"/></g><path class="cls-25" d="M103.91,9.36c2,.15,28.91,0,28.91,0"/><path class="cls-25" d="M103.91,14.52c2,.15,28.91,0,28.91,0"/><path class="cls-25" d="M124.27,34.37c2,.15,28.92,0,28.92,0"/><path class="cls-25" d="M124.27,41.15c2,.15,28.92,0,28.92,0"/></g></g></svg>