<svg xmlns="http://www.w3.org/2000/svg" xmlns:xlink="http://www.w3.org/1999/xlink" viewBox="0 0 192.26 143.25"><defs><style>.cls-1{fill:#ebebeb;}.cls-2{fill:#f0f0f0;}.cls-3{fill:#e0e0e0;}.cls-4{fill:#f5f5f5;}.cls-32,.cls-5,.cls-75,.cls-8{fill:#fff;}.cls-6{fill:#e6e6e6;}.cls-7{fill:#407bff;}.cls-21,.cls-32,.cls-44,.cls-45,.cls-46,.cls-48,.cls-71,.cls-75,.cls-8{isolation:isolate;}.cls-44,.cls-48,.cls-8{opacity:0.6;}.cls-44,.cls-9{fill:#d3d3d3;}.cls-10{fill:url(#linear-gradient);}.cls-11{fill:url(#linear-gradient-2);}.cls-12{fill:url(#linear-gradient-3);}.cls-13{fill:url(#linear-gradient-4);}.cls-14{fill:url(#linear-gradient-5);}.cls-15{fill:url(#linear-gradient-6);}.cls-16{fill:url(#linear-gradient-7);}.cls-17{fill:url(#linear-gradient-8);}.cls-18{fill:url(#linear-gradient-9);}.cls-19{fill:#2e353a;}.cls-20{fill:#b97964;}.cls-21,.cls-46{opacity:0.2;}.cls-22{fill:#a24e3f;}.cls-23{fill:#de5753;}.cls-24{fill:#263238;}.cls-25{fill:url(#linear-gradient-10);}.cls-26{fill:url(#linear-gradient-11);}.cls-27{fill:url(#linear-gradient-12);}.cls-28,.cls-45,.cls-46,.cls-48{fill:#e4897b;}.cls-29{fill:url(#linear-gradient-13);}.cls-30{fill:url(#linear-gradient-14);}.cls-31{fill:url(#linear-gradient-15);}.cls-32,.cls-45{opacity:0.4;}.cls-33{fill:url(#linear-gradient-16);}.cls-34{fill:url(#linear-gradient-17);}.cls-35{fill:url(#linear-gradient-18);}.cls-36{fill:url(#linear-gradient-19);}.cls-37{fill:url(#linear-gradient-20);}.cls-38{fill:url(#linear-gradient-21);}.cls-39{fill:url(#linear-gradient-22);}.cls-40{fill:url(#linear-gradient-23);}.cls-41{fill:url(#linear-gradient-24);}.cls-42{fill:url(#linear-gradient-25);}.cls-43{fill:url(#linear-gradient-26);}.cls-47{fill:url(#linear-gradient-27);}.cls-49{fill:url(#linear-gradient-28);}.cls-50{fill:url(#linear-gradient-29);}.cls-51{fill:url(#linear-gradient-30);}.cls-52{fill:url(#linear-gradient-31);}.cls-53{fill:url(#linear-gradient-32);}.cls-54{fill:url(#linear-gradient-33);}.cls-55{fill:url(#linear-gradient-34);}.cls-56{fill:url(#linear-gradient-35);}.cls-57{fill:url(#linear-gradient-36);}.cls-58{fill:url(#linear-gradient-37);}.cls-59{fill:url(#linear-gradient-38);}.cls-60{fill:url(#linear-gradient-39);}.cls-61{fill:url(#linear-gradient-40);}.cls-62{fill:url(#linear-gradient-41);}.cls-63{fill:url(#linear-gradient-42);}.cls-64{fill:url(#linear-gradient-43);}.cls-65{fill:url(#linear-gradient-44);}.cls-66{fill:url(#linear-gradient-45);}.cls-67{fill:url(#linear-gradient-46);}.cls-68{fill:#4c4c4c;}.cls-69{fill:#a8a8a8;}.cls-70{fill:#ebb376;}.cls-71{opacity:0.1;}.cls-72{fill:url(#linear-gradient-47);}.cls-73{fill:url(#linear-gradient-48);}.cls-74{fill:url(#linear-gradient-49);}.cls-75{opacity:0.5;}.cls-76{fill:url(#linear-gradient-50);}.cls-77{fill:#d58745;}.cls-78{fill:url(#linear-gradient-51);}.cls-79{fill:url(#linear-gradient-52);}.cls-80{fill:url(#linear-gradient-53);}.cls-81{fill:url(#linear-gradient-54);}.cls-82{fill:#9b9b9b;}.cls-83{fill:#282828;}</style><linearGradient id="linear-gradient" x1="45.7" y1="50.23" x2="45.9" y2="50.23" gradientUnits="userSpaceOnUse"><stop offset="0" stop-color="#00ffaf"/><stop offset="0.06" stop-color="#00edad"/><stop offset="0.32" stop-color="#00a6a7"/><stop offset="0.55" stop-color="#006ea2"/><stop offset="0.75" stop-color="#00469f"/><stop offset="0.91" stop-color="#002d9d"/><stop offset="1" stop-color="#00249c"/></linearGradient><linearGradient id="linear-gradient-2" x1="44.06" y1="53.07" x2="47.57" y2="53.07" xlink:href="#linear-gradient"/><linearGradient id="linear-gradient-3" x1="51.19" y1="50.23" x2="51.39" y2="50.23" xlink:href="#linear-gradient"/><linearGradient id="linear-gradient-4" x1="49.55" y1="53.07" x2="53.05" y2="53.07" xlink:href="#linear-gradient"/><linearGradient id="linear-gradient-5" x1="56.68" y1="50.23" x2="56.88" y2="50.23" xlink:href="#linear-gradient"/><linearGradient id="linear-gradient-6" x1="55.04" y1="53.07" x2="58.54" y2="53.07" xlink:href="#linear-gradient"/><linearGradient id="linear-gradient-7" x1="44.33" y1="45.78" x2="71.09" y2="45.78" xlink:href="#linear-gradient"/><linearGradient id="linear-gradient-8" x1="44.33" y1="42.37" x2="57.79" y2="42.37" xlink:href="#linear-gradient"/><linearGradient id="linear-gradient-9" x1="44.33" y1="47.73" x2="56.1" y2="47.73" xlink:href="#linear-gradient"/><linearGradient id="linear-gradient-10" x1="108.84" y1="13.51" x2="135.6" y2="13.51" xlink:href="#linear-gradient"/><linearGradient id="linear-gradient-11" x1="108.79" y1="10.11" x2="122.34" y2="10.11" xlink:href="#linear-gradient"/><linearGradient id="linear-gradient-12" x1="108.84" y1="15.47" x2="120.6" y2="15.47" xlink:href="#linear-gradient"/><linearGradient id="linear-gradient-13" x1="108.87" y1="20.36" x2="113.53" y2="20.36" xlink:href="#linear-gradient"/><linearGradient id="linear-gradient-14" x1="111.42" y1="20.11" x2="112.13" y2="20.11" xlink:href="#linear-gradient"/><linearGradient id="linear-gradient-15" x1="111.6" y1="18.79" x2="112.14" y2="18.79" xlink:href="#linear-gradient"/><linearGradient id="linear-gradient-16" x1="112.96" y1="17.68" x2="113.9" y2="17.68" xlink:href="#linear-gradient"/><linearGradient id="linear-gradient-17" x1="113.53" y1="18.62" x2="115.09" y2="18.62" xlink:href="#linear-gradient"/><linearGradient id="linear-gradient-18" x1="113.88" y1="19.71" x2="115.22" y2="19.71" xlink:href="#linear-gradient"/><linearGradient id="linear-gradient-19" x1="116.56" y1="20.36" x2="121.22" y2="20.36" xlink:href="#linear-gradient"/><linearGradient id="linear-gradient-20" x1="120.65" y1="17.68" x2="121.59" y2="17.68" xlink:href="#linear-gradient"/><linearGradient id="linear-gradient-21" x1="121.22" y1="18.62" x2="122.78" y2="18.62" xlink:href="#linear-gradient"/><linearGradient id="linear-gradient-22" x1="121.57" y1="19.71" x2="122.91" y2="19.71" xlink:href="#linear-gradient"/><linearGradient id="linear-gradient-23" x1="124.25" y1="20.36" x2="128.91" y2="20.36" xlink:href="#linear-gradient"/><linearGradient id="linear-gradient-24" x1="128.34" y1="17.68" x2="129.28" y2="17.68" xlink:href="#linear-gradient"/><linearGradient id="linear-gradient-25" x1="128.91" y1="18.62" x2="130.47" y2="18.62" xlink:href="#linear-gradient"/><linearGradient id="linear-gradient-26" x1="129.26" y1="19.71" x2="130.6" y2="19.71" xlink:href="#linear-gradient"/><linearGradient id="linear-gradient-27" x1="127.18" y1="58.51" x2="134.72" y2="58.51" xlink:href="#linear-gradient"/><linearGradient id="linear-gradient-28" x1="126.47" y1="59.91" x2="138.64" y2="59.91" xlink:href="#linear-gradient"/><linearGradient id="linear-gradient-29" x1="143.71" y1="61.52" x2="170.47" y2="61.52" xlink:href="#linear-gradient"/><linearGradient id="linear-gradient-30" x1="143.66" y1="58.12" x2="157.12" y2="58.12" xlink:href="#linear-gradient"/><linearGradient id="linear-gradient-31" x1="143.71" y1="63.48" x2="155.47" y2="63.48" xlink:href="#linear-gradient"/><linearGradient id="linear-gradient-32" x1="143.55" y1="66.99" x2="147.1" y2="66.99" xlink:href="#linear-gradient"/><linearGradient id="linear-gradient-33" x1="143.5" y1="68.13" x2="144.09" y2="68.13" xlink:href="#linear-gradient"/><linearGradient id="linear-gradient-34" x1="143.5" y1="68.96" x2="145.51" y2="68.96" xlink:href="#linear-gradient"/><linearGradient id="linear-gradient-35" x1="144.88" y1="68.96" x2="146.93" y2="68.96" xlink:href="#linear-gradient"/><linearGradient id="linear-gradient-36" x1="146.3" y1="69.63" x2="147.11" y2="69.63" xlink:href="#linear-gradient"/><linearGradient id="linear-gradient-37" x1="149.09" y1="66.99" x2="152.64" y2="66.99" xlink:href="#linear-gradient"/><linearGradient id="linear-gradient-38" x1="149.02" y1="68.13" x2="149.61" y2="68.13" xlink:href="#linear-gradient"/><linearGradient id="linear-gradient-39" x1="149.02" y1="68.96" x2="151.02" y2="68.96" xlink:href="#linear-gradient"/><linearGradient id="linear-gradient-40" x1="150.4" y1="68.96" x2="152.44" y2="68.96" xlink:href="#linear-gradient"/><linearGradient id="linear-gradient-41" x1="151.82" y1="69.63" x2="152.63" y2="69.63" xlink:href="#linear-gradient"/><linearGradient id="linear-gradient-42" x1="154.6" y1="66.99" x2="158.15" y2="66.99" xlink:href="#linear-gradient"/><linearGradient id="linear-gradient-43" x1="154.53" y1="68.13" x2="155.12" y2="68.13" xlink:href="#linear-gradient"/><linearGradient id="linear-gradient-44" x1="154.53" y1="68.96" x2="156.54" y2="68.96" xlink:href="#linear-gradient"/><linearGradient id="linear-gradient-45" x1="155.91" y1="68.96" x2="157.95" y2="68.96" xlink:href="#linear-gradient"/><linearGradient id="linear-gradient-46" x1="157.33" y1="69.63" x2="158.14" y2="69.63" xlink:href="#linear-gradient"/><linearGradient id="linear-gradient-47" x1="94.79" y1="60.53" x2="92.43" y2="73.88" xlink:href="#linear-gradient"/><linearGradient id="linear-gradient-48" x1="73.58" y1="134.03" x2="75.53" y2="134.03" xlink:href="#linear-gradient"/><linearGradient id="linear-gradient-49" x1="87.69" y1="134.68" x2="89.6" y2="134.68" xlink:href="#linear-gradient"/><linearGradient id="linear-gradient-50" x1="106.15" y1="62.53" x2="103.79" y2="75.88" xlink:href="#linear-gradient"/><linearGradient id="linear-gradient-51" x1="108.29" y1="62.91" x2="105.94" y2="76.26" xlink:href="#linear-gradient"/><linearGradient id="linear-gradient-52" x1="95.36" y1="39.82" x2="96.28" y2="39.82" xlink:href="#linear-gradient"/><linearGradient id="linear-gradient-53" x1="100.43" y1="39.6" x2="101.34" y2="39.6" xlink:href="#linear-gradient"/><linearGradient id="linear-gradient-54" x1="105.7" y1="40.51" x2="106.61" y2="40.51" xlink:href="#linear-gradient"/></defs><g id="Layer_2" data-name="Layer 2"><g id="Layer_1-2" data-name="Layer 1"><rect class="cls-1" y="125.89" width="192.26" height="0.1"/><rect class="cls-1" x="160.26" y="132.08" width="12.73" height="0.1"/><rect class="cls-1" x="124.02" y="133.12" width="3.34" height="0.1"/><rect class="cls-1" x="152.49" y="128.51" width="7.38" height="0.1"/><rect class="cls-1" x="20.17" y="129.15" width="16.61" height="0.1"/><rect class="cls-1" x="40.2" y="129.15" width="2.43" height="0.1"/><rect class="cls-1" x="50.55" y="130.78" width="36.02" height="0.1"/><path class="cls-1" d="M91.13,108.74H16.88a2.19,2.19,0,0,1-2.19-2.2V2.18A2.19,2.19,0,0,1,16.88,0H91.13a2.19,2.19,0,0,1,2.19,2.2h0V106.54A2.19,2.19,0,0,1,91.13,108.74ZM16.88.08a2.1,2.1,0,0,0-2.09,2.1V106.54a2.1,2.1,0,0,0,2.09,2.1H91.13a2.1,2.1,0,0,0,2.1-2.1V2.18a2.1,2.1,0,0,0-2.1-2.1Z"/><path class="cls-1" d="M174.3,108.74H100.05a2.19,2.19,0,0,1-2.19-2.2V2.18A2.19,2.19,0,0,1,100.05,0H174.3a2.19,2.19,0,0,1,2.19,2.18V106.54A2.2,2.2,0,0,1,174.3,108.74ZM100.05.08A2.11,2.11,0,0,0,98,2.18V106.54a2.11,2.11,0,0,0,2.1,2.1H174.3a2.1,2.1,0,0,0,2.1-2.1V2.18a2.1,2.1,0,0,0-2.1-2.1Z"/><rect class="cls-1" x="27.39" y="16.78" width="55.04" height="56.87"/><rect class="cls-2" x="29.31" y="16.78" width="55.04" height="56.87"/><rect class="cls-3" x="30.7" y="18.13" width="52.19" height="54.2"/><rect class="cls-4" x="30.7" y="18.13" width="50.89" height="54.2"/><rect class="cls-1" x="55.63" y="18.13" width="1.03" height="54.2"/><polygon class="cls-5" points="49.69 18.13 35.18 72.33 33.79 72.33 48.3 18.13 49.69 18.13"/><rect class="cls-2" x="56.23" y="17.3" width="0.88" height="56.07"/><polygon class="cls-5" points="44.42 18.13 30.7 69.42 30.7 41.23 36.88 18.13 44.42 18.13"/><polygon class="cls-5" points="81.58 23.05 81.58 28.25 69.79 72.33 68.4 72.33 81.58 23.05"/><polygon class="cls-5" points="81.58 33.55 81.58 61.74 78.75 72.33 71.21 72.33 81.58 33.55"/><path class="cls-1" d="M171.45,78.72h-41.7a3.4,3.4,0,0,0-3.4,3.4l-4.61,29.4h48.49l4.61-29.4A3.4,3.4,0,0,0,171.45,78.72Z"/><path class="cls-3" d="M121.86,90.09l0-.15H105.76V125.7h20V94.22A4.07,4.07,0,0,0,121.86,90.09Z"/><path class="cls-2" d="M105.59,90.08h0a4.14,4.14,0,0,0-4.14,4.14V125.7h8.28V94.22A4.14,4.14,0,0,0,105.59,90.08Z"/><path class="cls-3" d="M168.38,90.09l.05-.15H152.29V125.7h20V94.22A4.09,4.09,0,0,0,168.38,90.09Z"/><rect class="cls-3" x="112.44" y="100.51" width="35.53" height="25.19"/><path class="cls-4" d="M114.75,97.93h40v8.73h-40a4.36,4.36,0,0,1-4.36-4.36v0h0A4.36,4.36,0,0,1,114.75,97.93Z"/><path class="cls-2" d="M152.12,90.08h0A4.15,4.15,0,0,0,148,94.22V125.7h8.29V94.22A4.15,4.15,0,0,0,152.12,90.08Z"/><path class="cls-3" d="M163.44,112h6.79l4.61-29.83a3.4,3.4,0,0,0-3.39-3.4h0a3.4,3.4,0,0,0-3.4,3.4Z"/><path class="cls-3" d="M29.15,111.62c0-.15-.51-15.26-3-17.65s-5.13-.08-5.25,0l-.24-.29s3.12-2.55,5.76,0,3.08,17.28,3.08,17.91Z"/><path class="cls-3" d="M29.37,114.58c0-.18-1.68-18.13,4.87-25.65l.29.25c-6.45,7.4-4.8,25.18-4.78,25.38Z"/><path class="cls-3" d="M29.12,112.69l-.38,0c0-.2,1.28-20.4-3.53-24.83l.26-.28C30.42,92.09,29.18,111.85,29.12,112.69Z"/><path class="cls-3" d="M29.75,112.66h-.38c0-.56.15-13.64,3.87-15.76a2.61,2.61,0,0,1,2.41-.24c2.25.93,3.36,4.93,3.41,5.1l-.39.1s-1.11-4-3.18-4.84a2.27,2.27,0,0,0-2.07.21C29.9,99.25,29.75,112.54,29.75,112.66Z"/><path class="cls-3" d="M28.3,112.68h-.38c0-.11.55-10.35-2.21-14a2.56,2.56,0,0,0-2.16-1.24c-1.81.13-3.33,2.78-3.35,2.81l-.33-.19c.06-.12,1.63-2.86,3.65-3A2.93,2.93,0,0,1,26,98.48C28.87,102.2,28.33,112.28,28.3,112.68Z"/><path class="cls-3" d="M28.91,114.08c-.08-1-1.81-24.38,1.24-28.5l.31.23c-3,4-1.19,28-1.16,28.24Z"/><path class="cls-1" d="M36.48,99s-1.83.67-1.29,2.27,6.34,4.21,6.34,4.21,2.42-2.22.19-5.83S36.53,97.89,36.48,99Z"/><path class="cls-1" d="M28.53,96s1.95-.08,2.06,1.6-4.23,6.32-4.23,6.32-3.08-1.12-2.42-5.3S28.05,95,28.53,96Z"/><path class="cls-1" d="M26.88,88s1.3-.14,1.2-.93-5-2.83-8,.47c0,0,1.86,3.2,4.56,3.25S26.88,88,26.88,88Z"/><path class="cls-1" d="M29.3,86.05s-1.15.57-1.5-.15,2.78-5.07,7-3.82c0,0,.11,3.71-2.16,5.17S29.3,86.05,29.3,86.05Z"/><path class="cls-1" d="M23.16,98.39s.89-.72-.07-1.07-5.71-.26-5.77,4.44c0,0,5.52.92,6.21-.87S23.16,98.39,23.16,98.39Z"/><path class="cls-1" d="M34.42,87.86s-.89-.73.07-1.08,5.71-.25,5.77,4.45c0,0-5.53.91-6.21-.88S34.42,87.86,34.42,87.86Z"/><path class="cls-1" d="M31.5,91.64s-.08-.88.63-.53,3.18,3,.62,5.54c0,0-3.46-2.56-2.83-3.89S31.5,91.64,31.5,91.64Z"/><path class="cls-1" d="M22.36,92.89s.53-.7-.25-.79-4.3.86-3.46,4.36c0,0,4.28-.32,4.46-1.78S22.36,92.89,22.36,92.89Z"/><polygon class="cls-2" points="36.82 125.7 22.13 125.7 20.55 109.62 38.41 109.62 36.82 125.7"/><rect class="cls-6" x="19.76" y="107.84" width="19.43" height="3.55"/><path class="cls-4" d="M176.25,9S156.64,16.89,147,1.4c0,0-15.63,15.09-31.08,0,0,0-15,6-27.1,0l2,2.76a30.92,30.92,0,0,0,24.82-.38s14.88,14.8,30.66.38c0,0,12.53,15.47,29.87,7.54Z"/><g id="freepik--Shadow--inject-1"><ellipse id="freepik--path--inject-1" class="cls-4" cx="96.13" cy="138.9" rx="74.55" ry="4.35"/></g><polygon class="cls-7" points="75.36 50.54 81.69 53.84 75.36 52.2 75.36 50.54"/><polygon class="cls-8" points="75.36 50.54 81.69 53.84 75.36 52.2 75.36 50.54"/><rect class="cls-7" x="23.69" y="38.72" width="52.05" height="18.78" rx="2.15"/><rect class="cls-9" x="23.69" y="38.72" width="52.05" height="18.78" rx="2.15"/><rect class="cls-7" x="45.6" y="50.53" width="0.37" height="2.05"/><path class="cls-7" d="M45.79,49.44s.58.75,0,1.09C45.79,50.53,45.31,50.29,45.79,49.44Z"/><path class="cls-10" d="M45.81,49.94a.48.48,0,0,1,0,.59A.48.48,0,0,1,45.81,49.94Z"/><rect class="cls-11" x="44.06" y="51.57" width="3.51" height="3.01"/><path class="cls-7" d="M43.94,51.56v1.29a.12.12,0,0,0,.13.12.07.07,0,0,0,.06,0l.43-.26a.12.12,0,0,1,.14,0l.2.15a.64.64,0,0,0,.68,0l.24-.16a.12.12,0,0,1,.14,0l.15.1a.6.6,0,0,0,.73,0l.1-.08a.12.12,0,0,1,.14,0l.41.26a.13.13,0,0,0,.18,0,.14.14,0,0,0,0-.06V51.55a.14.14,0,0,0-.13-.13h-3.5a.12.12,0,0,0-.12.13Z"/><path class="cls-5" d="M43.94,51.56v1.29a.12.12,0,0,0,.13.12.07.07,0,0,0,.06,0l.43-.26a.12.12,0,0,1,.14,0l.2.15a.64.64,0,0,0,.68,0l.24-.16a.12.12,0,0,1,.14,0l.15.1a.6.6,0,0,0,.73,0l.1-.08a.12.12,0,0,1,.14,0l.41.26a.13.13,0,0,0,.18,0,.14.14,0,0,0,0-.06V51.55a.14.14,0,0,0-.13-.13h-3.5a.12.12,0,0,0-.12.13Z"/><rect class="cls-7" x="51.09" y="50.53" width="0.37" height="2.05"/><path class="cls-7" d="M51.28,49.44s.58.75,0,1.09C51.28,50.53,50.8,50.29,51.28,49.44Z"/><path class="cls-12" d="M51.3,49.94a.48.48,0,0,1,0,.59A.48.48,0,0,1,51.3,49.94Z"/><rect class="cls-13" x="49.55" y="51.57" width="3.51" height="3.01"/><path class="cls-5" d="M49.43,51.56v1.29a.12.12,0,0,0,.12.12.08.08,0,0,0,.07,0l.42-.26a.12.12,0,0,1,.14,0l.21.15a.62.62,0,0,0,.67,0l.25-.16a.12.12,0,0,1,.14,0l.14.1a.61.61,0,0,0,.74,0l.09-.08a.14.14,0,0,1,.15,0l.41.26a.13.13,0,0,0,.18,0,.13.13,0,0,0,0-.06V51.55a.13.13,0,0,0-.12-.13h-3.5a.12.12,0,0,0-.12.13Z"/><rect class="cls-7" x="56.58" y="50.53" width="0.37" height="2.05"/><path class="cls-7" d="M56.77,49.44s.58.75,0,1.09C56.77,50.53,56.29,50.29,56.77,49.44Z"/><path class="cls-14" d="M56.79,49.94a.48.48,0,0,1,0,.59A.48.48,0,0,1,56.79,49.94Z"/><rect class="cls-15" x="55.04" y="51.57" width="3.51" height="3.01"/><path class="cls-5" d="M54.92,51.56v1.29A.12.12,0,0,0,55,53a.07.07,0,0,0,.06,0l.43-.26a.12.12,0,0,1,.14,0l.21.15a.62.62,0,0,0,.67,0l.25-.16a.12.12,0,0,1,.14,0l.14.1a.62.62,0,0,0,.74,0l.09-.08a.14.14,0,0,1,.15,0l.41.26a.12.12,0,0,0,.17,0,.07.07,0,0,0,0-.06V51.55a.12.12,0,0,0-.12-.13H55a.12.12,0,0,0-.12.13Z"/><path class="cls-16" d="M70.62,46.25H44.81a.48.48,0,0,1-.48-.47h0a.49.49,0,0,1,.48-.48H70.62a.47.47,0,0,1,.47.48h0A.47.47,0,0,1,70.62,46.25Z"/><path class="cls-17" d="M57.11,41.69H45a.68.68,0,0,0,0,1.36h12.1a.68.68,0,1,0,0-1.36Z"/><path class="cls-18" d="M55.62,48.2H44.81a.48.48,0,0,1-.48-.47h0a.49.49,0,0,1,.48-.48H55.62a.48.48,0,0,1,.48.48h0A.48.48,0,0,1,55.62,48.2Z"/><path class="cls-5" d="M39.63,42.78V53.45a1.09,1.09,0,0,1-1.09,1.09H27.89a1,1,0,0,1-.29,0h0a1.12,1.12,0,0,1-.77-1V42.8a1.09,1.09,0,0,1,1.09-1.1H38.54A1.1,1.1,0,0,1,39.63,42.78Z"/><path class="cls-19" d="M38.93,48.52c-.28,1.81-1.43,2.38-1.37,2.93,0,.27.29.75.45,1.39a1.36,1.36,0,0,0,0,.17,4,4,0,0,1,.07.69,2.89,2.89,0,0,1-.08.83H27.89a1,1,0,0,1-.29,0h0l-.22-.1a1.08,1.08,0,0,1-.55-.94V51.52a9.12,9.12,0,0,1,1-.92c1.57-1.19.62-1.89.43-2.69s-1.15-2.45-.39-3.93,1.67-1.54,1.67-1.54a1.33,1.33,0,0,1,.25-.77c1.23-1.83,6.72-1.45,7.69,0a.8.8,0,0,1,.08.16c.72,1.76-.2,2.81,0,3.63S39.22,46.71,38.93,48.52Z"/><path class="cls-7" d="M27.6,54.49h0l-.22-.1c.09-.16.14-.23.14-.23Z"/><path class="cls-7" d="M39.63,53v.45a1.09,1.09,0,0,1-1.09,1.09H27.89a1,1,0,0,1-.29,0h0l-.11-.33L28,54c.66-.2,1.33-.38,2-.52.48-.11,1-.2,1.44-.28l.53-.09h0l.29,0c.93-.14,1.87-.24,2.81-.29l.6,0h.49c.65,0,1.32,0,1.89.07h.12l1.44.11A.14.14,0,0,1,39.63,53Z"/><path class="cls-19" d="M39.63,53v.45a1.09,1.09,0,0,1-1.09,1.09H27.89a1,1,0,0,1-.29,0h0l-.11-.33L28,54c.66-.2,1.33-.38,2-.52.48-.11,1-.2,1.44-.28l.53-.09h0l.29,0c.93-.14,1.87-.24,2.81-.29l.6,0h.49c.65,0,1.32,0,1.89.07h.12l1.44.11A.14.14,0,0,1,39.63,53Z"/><path class="cls-20" d="M35.22,54.53H33.43a3.28,3.28,0,0,1-1.6-1,2.28,2.28,0,0,0,.39-.48v0a3.36,3.36,0,0,0,.11-2.61h0a5.4,5.4,0,0,0-.25-.67h0l2.79.53c0,.11,0,.22,0,.33s0,.28,0,.41v.43a2.76,2.76,0,0,0,.23,1.3l0,0a.63.63,0,0,0,.49.39A1.16,1.16,0,0,1,35.22,54.53Z"/><path class="cls-21" d="M34.88,50.28a7.73,7.73,0,0,0-.11,1.18,3.13,3.13,0,0,1-2.69-1.7Z"/><path class="cls-20" d="M33.33,42.46c2.43-.14,3.29,1.12,3.6,3.62.39,3.12-.17,5.38-3.25,4.88C29.5,50.27,29.3,42.68,33.33,42.46Z"/><path class="cls-22" d="M35.37,46a5.57,5.57,0,0,0,.77,1,.67.67,0,0,1-.62.31Z"/><path class="cls-19" d="M33.86,45.91c0,.2-.08.39-.22.39s-.25-.15-.27-.35.08-.38.22-.38S33.84,45.71,33.86,45.91Z"/><path class="cls-19" d="M33.53,45.58l.42-.21S33.76,45.76,33.53,45.58Z"/><path class="cls-19" d="M36.33,45.68c0,.2-.08.38-.21.38s-.26-.14-.27-.34.08-.39.21-.39S36.32,45.48,36.33,45.68Z"/><path class="cls-19" d="M36,45.35l.42-.21S36.24,45.53,36,45.35Z"/><path class="cls-19" d="M32.7,44.8a.13.13,0,0,1-.08,0,.14.14,0,0,1,0-.19,1.38,1.38,0,0,1,1.15-.48.12.12,0,0,1,.13.14h0a.13.13,0,0,1-.14.13h0a1.18,1.18,0,0,0-.92.39A.14.14,0,0,1,32.7,44.8Z"/><path class="cls-19" d="M36.48,44.32h-.07a1,1,0,0,0-.85-.14.15.15,0,0,1-.19-.07.14.14,0,0,1,.07-.18,1.24,1.24,0,0,1,1.11.15.13.13,0,0,1,.05.19.14.14,0,0,1-.12.07Z"/><path class="cls-19" d="M35.19,48.28a6.46,6.46,0,0,0-.24.86h-.16c-.71,0-1-.28-1.15-.55a.76.76,0,0,1-.09-.42,1.07,1.07,0,0,1,0-.25,3.33,3.33,0,0,0,1.38.36Z"/><path class="cls-5" d="M34.94,48.27l-.07.25a2,2,0,0,1-1.34-.36,1.13,1.13,0,0,1,0-.25A3.33,3.33,0,0,0,34.94,48.27Z"/><path class="cls-23" d="M34.79,49.14c-.71,0-1-.28-1.15-.55a2.23,2.23,0,0,1,.77.19A.83.83,0,0,1,34.79,49.14Z"/><path class="cls-19" d="M30.9,46.7a7.26,7.26,0,0,0,.77-3.59s4.71-2.23,5.21,2.64c0,0,.24-4.37-4-4.23s-3.85,6.25-1.57,7.95A3,3,0,0,1,30.9,46.7Z"/><path class="cls-20" d="M31.33,47.19a1.08,1.08,0,0,0-1.21-.91c-.74.12-1,1.69.88,2C31.27,48.28,31.4,48,31.33,47.19Z"/><path class="cls-20" d="M38.38,53.1a5.31,5.31,0,0,1-.23.55h0l0,0a5.38,5.38,0,0,1-.5.83H30.7l-.37-.23c-.41-.28-.66-.48-.66-.48l.39-.14a13.11,13.11,0,0,1,1.85-.55h0l.31-.07A15.16,15.16,0,0,1,35,52.74c.38,0,.77,0,1.12,0A12.29,12.29,0,0,1,38,53a.14.14,0,0,0,.09,0Z"/><path class="cls-24" d="M30.45,54.53H27.89a1,1,0,0,1-.29,0h0c0-.11-.05-.22-.08-.33L28,54l1.94-.61s0,0,.05.09l.1.19.29.62Z"/><path class="cls-24" d="M39.63,52.91v.54a1.09,1.09,0,0,1-1.09,1.09h-.36c0-.32,0-.62,0-.87h0v-.89Z"/><path class="cls-19" d="M37,45.79h0c-.39-.14-.51-.53-.66-1A2.2,2.2,0,0,0,35,43.2a5.62,5.62,0,0,0-3.34,0,.09.09,0,0,1-.06-.18h0a5.62,5.62,0,0,1,3.46,0,2.43,2.43,0,0,1,1.43,1.73c.14.41.24.74.54.85a.11.11,0,0,1,.06.13h0A.09.09,0,0,1,37,45.79Z"/><polygon class="cls-7" points="102.45 24.84 99.49 34.58 104.53 24.84 102.45 24.84"/><polygon class="cls-8" points="102.45 24.84 99.49 34.58 104.53 24.84 102.45 24.84"/><rect class="cls-7" x="88.6" y="6.46" width="52.05" height="18.78" rx="2.15"/><rect class="cls-9" x="88.6" y="6.46" width="52.05" height="18.78" rx="2.15"/><path class="cls-25" d="M135.12,14h-25.8a.48.48,0,0,1-.48-.47h0a.47.47,0,0,1,.47-.48h25.81a.48.48,0,0,1,.48.47h0a.47.47,0,0,1-.48.47Z"/><path class="cls-26" d="M121.61,9.43H109.52a.68.68,0,0,0-.11,1.35h12.2a.67.67,0,0,0,.73-.62.68.68,0,0,0-.63-.73Z"/><path class="cls-27" d="M120.12,15.94h-10.8a.47.47,0,0,1-.48-.47h0a.47.47,0,0,1,.48-.47h10.8a.47.47,0,0,1,.48.47h0A.47.47,0,0,1,120.12,15.94Z"/><path class="cls-5" d="M104.53,10.57V21.22a1.06,1.06,0,0,1-.13.52.41.41,0,0,1-.07.11,1.07,1.07,0,0,1-.9.45H92.79a.86.86,0,0,1-.28,0h0a1.07,1.07,0,0,1-.22-.1.55.55,0,0,1-.14-.09,1.09,1.09,0,0,1-.41-.85V10.57a1.09,1.09,0,0,1,1.09-1.09h10.64a1.09,1.09,0,0,1,1.1,1.09Z"/><g id="freepik--group--inject-1"><path class="cls-24" d="M104.33,21.8a1.1,1.1,0,0,1-.89.47H99a11.36,11.36,0,0,1-2,0H92.79a.86.86,0,0,1-.28,0h0l-.22-.1L92.11,22c.53-.12,1.14-.23,1.78-.33.36-.06.73-.11,1.09-.15h0a48.19,48.19,0,0,1,5.76-.41h0c.24,0,.47,0,.7,0,.6,0,1.17.09,1.67.15h.22A2.87,2.87,0,0,1,104.33,21.8Z"/><path class="cls-24" d="M101.69,10.34s.91,2.78-.7,4.42S98.3,10,98.3,10Z"/><path class="cls-28" d="M99.25,22.24l-.25,0a11.36,11.36,0,0,1-2,0,3.69,3.69,0,0,1-2-.74h0c.72-.77.8-2.26.65-3.72v-.2a2.39,2.39,0,0,0,0-.31c0-.1,0-.21,0-.32l-.09-.52c-.09-.47-.19-.91-.29-1.29l0-.19.08.06.93.69,2.75,2a1.2,1.2,0,0,1,0,.2,4.88,4.88,0,0,0-.06.52,3.87,3.87,0,0,0,0,.9,2.62,2.62,0,0,0,.09.38,1.72,1.72,0,0,0,.21.43,2.3,2.3,0,0,0,1.64,1h0C101.13,21.73,99.25,22.24,99.25,22.24Z"/><path class="cls-21" d="M99.08,20.19a4.57,4.57,0,0,1-3.52-2.89c0-.11-.09-.22-.13-.34l.09,0,3.3,1c0,.18,0,.35-.07.52a3.47,3.47,0,0,0,.12,1.28A1.9,1.9,0,0,0,99.08,20.19Z"/><path class="cls-28" d="M96.13,18.41a3.18,3.18,0,0,0,3.81.61,3.68,3.68,0,0,0,1.83-2.32c.54-2.27.21-6-2.27-7A3.46,3.46,0,0,0,95,11.55a3.42,3.42,0,0,0-.25,1.58C94.88,15.64,94.84,17.13,96.13,18.41Z"/><path class="cls-24" d="M98.56,13.84c0,.21.11.39.24.39s.25-.17.25-.39-.11-.38-.24-.38S98.57,13.62,98.56,13.84Z"/><path class="cls-24" d="M100.88,13.84c0,.21.12.39.25.39s.24-.17.24-.39-.11-.38-.24-.38S100.88,13.63,100.88,13.84Z"/><path class="cls-23" d="M100.15,13.93a7.07,7.07,0,0,0,1,1.76,1.2,1.2,0,0,1-1,.18Z"/><path class="cls-24" d="M97.84,13.07A.11.11,0,0,0,98,13a1,1,0,0,1,.77-.38.12.12,0,0,0,.13-.11h0a.13.13,0,0,0-.11-.13h0a1.18,1.18,0,0,0-1,.5.11.11,0,0,0,0,.17h.07Z"/><path class="cls-24" d="M101.9,13H102a.14.14,0,0,0,.07-.16h0a1.2,1.2,0,0,0-.87-.67.11.11,0,0,0-.13.1h0a.12.12,0,0,0,.1.14h0a1,1,0,0,1,.68.54A.11.11,0,0,0,101.9,13Z"/><path class="cls-24" d="M97.72,8.52a6.82,6.82,0,0,0-.9.07,4.39,4.39,0,0,0-2.4.92c-1.53,1.29-.8,3.84-.3,5.48a6.6,6.6,0,0,0,1.73,3c-.71-1-.91-3.07-.57-3.19s.38.29.38.29a3,3,0,0,0,.75-3A.9.9,0,0,1,97.58,11l.23.06.36.1Z"/><path class="cls-28" d="M93.63,15.18A2.35,2.35,0,0,0,95,16.4c.8.27,1.24-.44,1.06-1.21s-.77-1.68-1.6-1.61a1.08,1.08,0,0,0-1,1.16A1,1,0,0,0,93.63,15.18Z"/><path class="cls-24" d="M99.07,10.48c-.12.31.44,1.16-.51,1.1s-1,.33-1.5,1.07-2,0-2,0l-1.41.44s-1.21-.77-.64-1.39a5.09,5.09,0,0,0,.85-2.31,2.83,2.83,0,0,1,4-1.35s1-.52,1.45-.35a2.74,2.74,0,0,1,1,.77.7.7,0,0,1,.94-.26l.08.06c.61.45.52,2.44,1.05,2.84s-.37,1.16-.37,1.16-.81-.06-.9-.62c-.17-1-.39-1.35-.91-1.45a.46.46,0,0,0-.49.24S99.25,10,99.07,10.48Z"/><path class="cls-19" d="M99.75,16.56a7.83,7.83,0,0,0-.45.92l-.17-.05c-.79-.18-1.09-.53-1.19-.87a1,1,0,0,1,0-.49A1.07,1.07,0,0,1,98,15.8a3.91,3.91,0,0,0,1.47.7Z"/><path class="cls-5" d="M99.49,16.5l-.14.26a2.4,2.4,0,0,1-1.42-.69A.78.78,0,0,1,98,15.8,3.77,3.77,0,0,0,99.49,16.5Z"/><path class="cls-23" d="M99.13,17.43c-.79-.18-1.09-.53-1.19-.87a2.53,2.53,0,0,1,.83.39A1,1,0,0,1,99.13,17.43Z"/></g><polygon class="cls-29" points="109.12 21.68 112.14 18.4 113.53 20.52 109.4 21.93 109.37 22.32 108.87 21.57 109.12 21.68"/><polygon class="cls-30" points="111.42 19.71 111.42 20.52 112.13 20.06 111.42 19.71"/><polygon class="cls-31" points="111.6 18.99 111.94 19.19 112.14 18.4 111.6 18.99"/><polygon class="cls-32" points="110.57 20.52 110.9 20.66 110.57 20.82 110.57 20.52"/><polygon class="cls-32" points="111.6 21.17 111.94 20.52 112.96 20.71 111.6 21.17"/><polygon class="cls-32" points="112.52 18.99 112.46 19.71 113.16 19.96 112.52 18.99"/><polygon class="cls-32" points="109.91 20.82 110.24 21.25 109.45 21.32 109.91 20.82"/><polygon class="cls-33" points="112.96 18.25 113.65 17.12 113.9 17.3 112.96 18.25"/><polygon class="cls-34" points="113.53 19.09 114.93 18.14 115.09 18.5 113.53 19.09"/><polygon class="cls-35" points="113.88 19.75 115.22 19.55 115.11 19.88 113.88 19.75"/><polygon class="cls-36" points="116.81 21.68 119.83 18.4 121.22 20.52 117.09 21.93 117.06 22.32 116.56 21.57 116.81 21.68"/><polygon class="cls-32" points="119.11 19.71 119.11 20.52 119.82 20.06 119.11 19.71"/><polygon class="cls-32" points="119.29 18.99 119.63 19.19 119.83 18.4 119.29 18.99"/><polygon class="cls-32" points="118.26 20.52 118.59 20.66 118.26 20.82 118.26 20.52"/><polygon class="cls-32" points="119.29 21.17 119.63 20.52 120.65 20.71 119.29 21.17"/><polygon class="cls-32" points="120.21 18.99 120.15 19.71 120.85 19.96 120.21 18.99"/><polygon class="cls-32" points="117.59 20.82 117.93 21.25 117.14 21.32 117.59 20.82"/><polygon class="cls-37" points="120.65 18.25 121.34 17.12 121.59 17.3 120.65 18.25"/><polygon class="cls-38" points="121.22 19.09 122.62 18.14 122.78 18.5 121.22 19.09"/><polygon class="cls-39" points="121.58 19.75 122.91 19.55 122.8 19.88 121.58 19.75"/><polygon class="cls-40" points="124.5 21.68 127.52 18.4 128.91 20.52 124.78 21.93 124.75 22.32 124.25 21.57 124.5 21.68"/><polygon class="cls-32" points="126.8 19.71 126.8 20.52 127.51 20.06 126.8 19.71"/><polygon class="cls-32" points="126.98 18.99 127.32 19.19 127.52 18.4 126.98 18.99"/><polygon class="cls-32" points="125.95 20.52 126.28 20.66 125.95 20.82 125.95 20.52"/><polygon class="cls-32" points="126.98 21.17 127.32 20.52 128.34 20.71 126.98 21.17"/><polygon class="cls-32" points="127.9 18.99 127.84 19.71 128.54 19.96 127.9 18.99"/><polygon class="cls-32" points="125.28 20.82 125.62 21.25 124.83 21.32 125.28 20.82"/><polygon class="cls-41" points="128.34 18.25 129.03 17.12 129.28 17.3 128.34 18.25"/><polygon class="cls-42" points="128.91 19.09 130.31 18.14 130.47 18.5 128.91 19.09"/><polygon class="cls-43" points="129.26 19.75 130.6 19.55 130.49 19.88 129.26 19.75"/><polygon class="cls-9" points="123.62 59.91 116.6 59.91 123.94 61.58 123.62 59.91"/><polygon class="cls-44" points="123.62 59.91 116.6 59.91 123.94 61.58 123.62 59.91"/><rect class="cls-9" x="123.46" y="54.47" width="52.05" height="18.78" rx="2.15"/><path class="cls-5" d="M139.4,58.53V69.18a1.18,1.18,0,0,1-.13.52l-.07.11a1.15,1.15,0,0,1-.75.46H127.58l-.21,0h0a1.07,1.07,0,0,1-.22-.1L127,70a1.1,1.1,0,0,1-.41-.86V58.53a1.09,1.09,0,0,1,1.06-1.09H138.3a1.11,1.11,0,0,1,1.1,1.09Z"/><path class="cls-28" d="M138.45,70.27h-.65V70.1h0a2.25,2.25,0,0,1,.62.15Z"/><path class="cls-45" d="M138.45,70.27h-.65V70.1h0a2.25,2.25,0,0,1,.62.15Z"/><path class="cls-24" d="M138.34,70.27h-9.49a.14.14,0,0,0,0,.06l0-.06H127.6l1.15-.16.26,0c.34,0,.69-.08,1-.1h.1q.93-.08,1.86-.12h.14c.3,0,.59,0,.88,0h2.51l.36,0a1.67,1.67,0,0,1,.31,0l.82.1.39.06.18,0,.18,0h0a1.56,1.56,0,0,1,.48.14Z"/><path class="cls-28" d="M136,70.28h-5.49c-.13-.1-.26-.2-.38-.31l-.17-.16a2.26,2.26,0,0,0,.6-.77,4.84,4.84,0,0,0,.27-2.83h0c-.05-.39-.11-.68-.13-.86h0v-.06c0-.06,0-.1,0-.11l.08,0,.18.06.09,0,3.05,1.1-.06.3c0,.1,0,.2-.05.3l0,.19c0,.13,0,.27,0,.41a2.86,2.86,0,0,0,.1.77,1.66,1.66,0,0,0,.36.68h0a1.37,1.37,0,0,0,.17.17,2.76,2.76,0,0,0,1.24.57l.06.1A1.6,1.6,0,0,1,136,70.28Z"/><path class="cls-46" d="M134.08,68.34a3.93,3.93,0,0,1-2.82-2,4.33,4.33,0,0,1-.26-1.06l3.14,1.13A3.9,3.9,0,0,0,134.08,68.34Z"/><path class="cls-28" d="M130.28,61.52c.22,2.47.22,3.93,1.5,5.16a3.3,3.3,0,0,0,5.49-1.84c.48-2.24,0-5.9-2.4-6.83a3.39,3.39,0,0,0-4.38,2h0A3.46,3.46,0,0,0,130.28,61.52Z"/><path class="cls-19" d="M134.06,62.12c0,.2.11.36.25.36s.23-.18.23-.39-.12-.36-.25-.36S134.05,61.91,134.06,62.12Z"/><path class="cls-19" d="M136.34,62.06c0,.2.11.36.24.35s.24-.17.23-.38-.12-.36-.25-.36S136.33,61.87,136.34,62.06Z"/><path class="cls-23" d="M135.61,62.18a7.42,7.42,0,0,0,1,1.69,1.14,1.14,0,0,1-1,.21Z"/><path class="cls-19" d="M133.33,61.4a.13.13,0,0,0,.11,0,1,1,0,0,1,.75-.42.11.11,0,0,0,.12-.11.11.11,0,0,0-.1-.12h0a1.14,1.14,0,0,0-.95.51.14.14,0,0,0,0,.17h0Z"/><path class="cls-19" d="M137.29,61.25h.07a.13.13,0,0,0,.06-.16h0a1.18,1.18,0,0,0-.87-.64.11.11,0,0,0-.13.1h0a.11.11,0,0,0,.1.13h0a1,1,0,0,1,.68.52A.12.12,0,0,0,137.29,61.25Z"/><path class="cls-19" d="M131,63.54s1.28-2.22.64-4a3.52,3.52,0,0,1,2.49.24,3.56,3.56,0,0,0-.17-.85A5.15,5.15,0,0,1,137.43,60a3.73,3.73,0,0,0-1.1-2.13,1.64,1.64,0,0,1,1,0,5.88,5.88,0,0,0-5.17-.7c-3.16.92-4.14,2.84-3.42,5.65S131,66.28,131,66.28a10.36,10.36,0,0,1-.49-2.62C130.61,63.18,131,63.54,131,63.54Z"/><path class="cls-28" d="M129.24,64.28a2.31,2.31,0,0,0,1.49,1c.81.16,1.16-.59.87-1.32s-1-1.53-1.77-1.35a1.06,1.06,0,0,0-.59,1.67Z"/><path class="cls-47" d="M134.72,56.88a13.15,13.15,0,0,0-2.17.88,11.56,11.56,0,0,0-1.42.88h0a6.45,6.45,0,0,0-2.58,3.4l-.25-.53c-.14-.31-.33-.73-.52-1.17h0a5.15,5.15,0,0,1-.58-2C127.9,56,131,54.9,131.47,55a14.77,14.77,0,0,1,2.23,1.26l.94.6Z"/><path class="cls-48" d="M134.64,56.83a10,10,0,0,0-2.09.93c-.42.24-.89.53-1.42.88h0a7.71,7.71,0,0,0-2.83,2.87c-.14-.31-.33-.73-.52-1.17h0a11.16,11.16,0,0,1,5.92-4.11Z"/><path class="cls-28" d="M128.72,62.83s-2,1.81-2.2,1c-.63-2,4.49-7.33,10.1-8,4.62-.54-.14,1.53-.14,1.53C134.58,57,128.3,60.8,128.72,62.83Z"/><path class="cls-49" d="M128.72,62.83s-2,1.81-2.2,1c-.63-2,4.49-7.33,10.1-8,4.62-.54-.14,1.53-.14,1.53C134.58,57,128.3,60.8,128.72,62.83Z"/><path class="cls-28" d="M135.11,64.7a6.47,6.47,0,0,0-.46.91l-.17,0c-.79-.19-1.09-.54-1.19-.87a1,1,0,0,1,0-.49,1.07,1.07,0,0,1,.09-.27,3.76,3.76,0,0,0,1.47.69Z"/><path class="cls-28" d="M134.84,64.63l-.14.27a2.43,2.43,0,0,1-1.42-.69,1.07,1.07,0,0,1,.09-.27A3.76,3.76,0,0,0,134.84,64.63Z"/><path class="cls-19" d="M135.13,65.44c-.79-.19-1.09-.54-1.19-.87a2.68,2.68,0,0,1,.84.39A1,1,0,0,1,135.13,65.44Z"/><path class="cls-24" d="M133.08,70.22l.15.06h-4.39a1.3,1.3,0,0,1-.08-.17h0l1.4-1.35a4,4,0,0,0,.43.29,11.65,11.65,0,0,0,1.57.81h0l.51.21Z"/><path class="cls-24" d="M136.22,69.89v.39h-2l0-.06a2,2,0,0,0,.13-.39v0h0l.06-.28a4.36,4.36,0,0,0,0-.51V68.6h0Z"/><path class="cls-46" d="M134.58,69.82h0a1.71,1.71,0,0,1-.13.38v.06h-.26s0,0,0-.06a2.46,2.46,0,0,0,.14-.38v0h0a2.56,2.56,0,0,0,0-.27,3,3,0,0,0,0-.52v-.41a1.37,1.37,0,0,1,.19.59A2.32,2.32,0,0,1,134.58,69.82Z"/><path class="cls-50" d="M170,62h-25.8a.48.48,0,0,1-.48-.48h0a.48.48,0,0,1,.48-.47H170a.48.48,0,0,1,.48.47h0A.47.47,0,0,1,170,62Z"/><path class="cls-51" d="M156.5,57.44H144.38a.68.68,0,0,0-.1,1.35H156.5a.67.67,0,0,0,.62-.72A.68.68,0,0,0,156.5,57.44Z"/><path class="cls-52" d="M155,64H144.19a.48.48,0,0,1-.48-.47h0a.48.48,0,0,1,.48-.48H155a.47.47,0,0,1,.47.48h0A.47.47,0,0,1,155,64Z"/><path class="cls-9" d="M146.93,67a1.67,1.67,0,0,1-1.2.44c.7-.14,1.47-.88.71-1.15s-1.15,1.15-1.15,1.15-.56-1.59-1.16-1,.74,1.08.74,1.08a2.71,2.71,0,0,1-1.13-.41l-.19.26a2.9,2.9,0,0,0,1.75.31,2.65,2.65,0,0,0,1.8-.36Zm-2.57-.39c.24-.14.62.65.62.65s-.86-.52-.62-.67Zm1.27.65s.29-.84.67-.69-.67.67-.67.67Z"/><path class="cls-53" d="M146.93,67a1.67,1.67,0,0,1-1.2.44c.7-.14,1.47-.88.71-1.15s-1.15,1.15-1.15,1.15-.56-1.59-1.16-1,.74,1.08.74,1.08a2.71,2.71,0,0,1-1.13-.41l-.19.26a2.9,2.9,0,0,0,1.75.31,2.65,2.65,0,0,0,1.8-.36Zm-2.57-.39c.24-.14.62.65.62.65s-.86-.52-.62-.67Zm1.27.65s.29-.84.67-.69-.67.67-.67.67Z"/><rect class="cls-5" x="143.5" y="67.67" width="3.61" height="2.58"/><polygon class="cls-54" points="144.09 67.67 143.5 68.58 143.5 68.01 143.72 67.67 144.09 67.67"/><polygon class="cls-55" points="145.51 67.67 143.84 70.25 143.5 70.25 143.5 70.2 145.14 67.67 145.51 67.67"/><polygon class="cls-56" points="146.93 67.67 145.25 70.25 144.88 70.25 146.55 67.67 146.93 67.67"/><polygon class="cls-57" points="147.11 69 147.11 69.57 146.67 70.25 146.3 70.25 147.11 69"/><path class="cls-9" d="M152.44,67a1.63,1.63,0,0,1-1.19.44c.69-.14,1.46-.88.7-1.15s-1.13,1.15-1.13,1.15-.56-1.59-1.15-1,.74,1.08.74,1.08a2.7,2.7,0,0,1-1.14-.41l-.18.26a2.86,2.86,0,0,0,1.74.31,2.69,2.69,0,0,0,1.81-.36Zm-2.56-.39c.24-.14.61.65.61.65s-.85-.52-.61-.67Zm1.26.65s.3-.84.68-.69-.68.67-.68.67Z"/><path class="cls-58" d="M152.44,67a1.63,1.63,0,0,1-1.19.44c.69-.14,1.46-.88.7-1.15s-1.13,1.15-1.13,1.15-.56-1.59-1.15-1,.74,1.08.74,1.08a2.7,2.7,0,0,1-1.14-.41l-.18.26a2.86,2.86,0,0,0,1.74.31,2.69,2.69,0,0,0,1.81-.36Zm-2.56-.39c.24-.14.61.65.61.65s-.85-.52-.61-.67Zm1.26.65s.3-.84.68-.69-.68.67-.68.67Z"/><rect class="cls-5" x="149.01" y="67.67" width="3.61" height="2.58"/><polygon class="cls-59" points="149.6 67.67 149.02 68.58 149.02 68.01 149.24 67.67 149.6 67.67"/><polygon class="cls-60" points="151.02 67.67 149.35 70.25 149.02 70.25 149.02 70.2 150.66 67.67 151.02 67.67"/><polygon class="cls-61" points="152.44 67.67 150.77 70.25 150.4 70.25 152.07 67.67 152.44 67.67"/><polygon class="cls-62" points="152.63 69 152.63 69.57 152.19 70.25 151.82 70.25 152.63 69"/><path class="cls-9" d="M158,67a1.63,1.63,0,0,1-1.19.44c.7-.14,1.47-.88.71-1.15s-1.13,1.15-1.13,1.15-.56-1.59-1.16-1,.74,1.08.74,1.08a2.71,2.71,0,0,1-1.13-.41l-.19.26a2.9,2.9,0,0,0,1.75.31,2.65,2.65,0,0,0,1.8-.36Zm-2.56-.39c.24-.14.61.65.61.65s-.85-.52-.61-.67Zm1.27.65s.29-.84.67-.69-.67.67-.67.67Z"/><path class="cls-63" d="M158,67a1.63,1.63,0,0,1-1.19.44c.7-.14,1.47-.88.71-1.15s-1.13,1.15-1.13,1.15-.56-1.59-1.16-1,.74,1.08.74,1.08a2.71,2.71,0,0,1-1.13-.41l-.19.26a2.9,2.9,0,0,0,1.75.31,2.65,2.65,0,0,0,1.8-.36Zm-2.56-.39c.24-.14.61.65.61.65s-.85-.52-.61-.67Zm1.27.65s.29-.84.67-.69-.67.67-.67.67Z"/><rect class="cls-5" x="154.53" y="67.67" width="3.61" height="2.58"/><polygon class="cls-64" points="155.12 67.67 154.53 68.58 154.53 68.01 154.75 67.67 155.12 67.67"/><polygon class="cls-65" points="156.54 67.67 154.87 70.25 154.53 70.25 154.53 70.2 156.17 67.67 156.54 67.67"/><polygon class="cls-66" points="157.95 67.67 156.28 70.25 155.91 70.25 157.58 67.67 157.95 67.67"/><polygon class="cls-67" points="158.14 69 158.14 69.57 157.7 70.25 157.33 70.25 158.14 69"/><polygon class="cls-7" points="86.02 139.09 87.47 139.09 88.44 102.56 86.02 102.56 86.02 139.09"/><polygon class="cls-7" points="118.32 139.09 119.77 139.09 119.77 102.56 117.35 102.56 118.32 139.09"/><polygon class="cls-7" points="103.6 139.09 105.05 139.09 105.05 102.56 102.63 102.56 103.6 139.09"/><polygon class="cls-7" points="71.3 139.09 72.75 139.09 73.72 102.56 71.3 102.56 71.3 139.09"/><polygon class="cls-68" points="86.02 139.09 87.47 139.09 88.44 102.56 86.02 102.56 86.02 139.09"/><polygon class="cls-68" points="118.32 139.09 119.77 139.09 119.77 102.56 117.35 102.56 118.32 139.09"/><polygon class="cls-68" points="103.6 139.09 105.05 139.09 105.05 102.56 102.63 102.56 103.6 139.09"/><polygon class="cls-68" points="71.3 139.09 72.75 139.09 73.72 102.56 71.3 102.56 71.3 139.09"/><path class="cls-68" d="M119.68,103H70.84V97.05a1.62,1.62,0,0,1,1.62-1.61h45.6a1.62,1.62,0,0,1,1.62,1.61h0V103Z"/><path class="cls-68" d="M119.68,103H102V97.05a1.61,1.61,0,0,1,1.61-1.61h14.46a1.62,1.62,0,0,1,1.62,1.61h0V103Z"/><rect class="cls-7" x="69.02" y="102.56" width="51.91" height="3.85" rx="0.66"/><rect class="cls-69" x="69.02" y="102.56" width="51.91" height="3.85" rx="0.66"/><path class="cls-19" d="M71.1,97.64c.68-3.88,13.84-9.69,23.29-11l10.39,11a134.44,134.44,0,0,1-24.34,2.43S80,118,79.21,129.61l-3.75.07S70.41,101.51,71.1,97.64Z"/><path class="cls-21" d="M71.1,97.64c.68-3.88,13.84-9.69,23.29-11l10.39,11a134.44,134.44,0,0,1-24.34,2.43S80,118,79.21,129.61l-3.75.07S70.41,101.51,71.1,97.64Z"/><path class="cls-70" d="M91.41,69.43S89.26,75,88.06,75.77s-.16-8.23-.16-8.23l-2.29-.31s-2.69,13.53,1.24,13.43c3-.07,6.59-5.1,7.46-7.65Z"/><path class="cls-71" d="M91.41,69.43S89.26,75,88.06,75.77s-.16-8.23-.16-8.23l-2.29-.31s-2.69,13.53,1.24,13.43c3-.07,6.59-5.1,7.46-7.65Z"/><path class="cls-7" d="M94.72,62.6c-3,.7-5.23,11.17-5.23,11.17L95,76.26Z"/><path class="cls-72" d="M94.72,62.6c-3,.7-5.23,11.17-5.23,11.17L95,76.26Z"/><polygon class="cls-7" points="96.05 75.79 89.33 72.58 88.94 73.55 95.54 77.14 96.05 75.79"/><polygon class="cls-21" points="96.05 75.79 89.33 72.58 88.94 73.55 95.54 77.14 96.05 75.79"/><polygon class="cls-70" points="76.13 135.01 78.71 134.75 78.78 131.1 78.83 127.76 75.71 127.56 75.92 131.51 76.13 135.01"/><path class="cls-19" d="M79.4,134.73c0-.29-3.49-.55-3.49-.55a11.08,11.08,0,0,1-4.61,2.09c-2.16.2-1.15,1.61,1.15,1.92l5.77.8C79.9,139.24,79.06,137.68,79.4,134.73Z"/><path class="cls-73" d="M74.14,134.83a.65.65,0,0,1-.48-.14.32.32,0,0,1,0-.38.4.4,0,0,1,.22-.22,1.52,1.52,0,0,1,.79,0c-.26-.19-.49-.41-.47-.6s.1-.21.27-.26a.54.54,0,0,1,.45.05c.45.27.63,1.12.64,1.16v.07h0l0,0A5.22,5.22,0,0,1,74.14,134.83Zm0-.59a.42.42,0,0,0-.22,0,.22.22,0,0,0-.12.11.21.21,0,0,0,0,.19c.15.15.81.05,1.36-.1a3.28,3.28,0,0,0-1-.23Zm.48-.81a.24.24,0,0,0-.12,0s-.14,0-.14.1.45.5.93.76a1.54,1.54,0,0,0-.49-.83.31.31,0,0,0-.19,0Z"/><polygon class="cls-21" points="75.93 131.59 78.78 131.17 78.83 127.79 75.71 127.58 75.93 131.59"/><polygon class="cls-70" points="90.29 135.38 92.81 134.74 92.33 131.12 91.88 127.81 88.76 128.08 89.57 131.95 90.29 135.38"/><path class="cls-19" d="M93.49,134.61c0-.28-3.53,0-3.53,0a11.22,11.22,0,0,1-4.23,2.76c-2.09.52-.91,1.77,1.45,1.73L93,139C94.66,139,93.6,137.59,93.49,134.61Z"/><path class="cls-74" d="M88.11,135.52a.5.5,0,0,1-.3-.08.34.34,0,0,1-.09-.39.36.36,0,0,1,.18-.24,1.57,1.57,0,0,1,.77-.1c-.29-.14-.54-.33-.55-.51s.07-.22.23-.3a.51.51,0,0,1,.45,0c.48.19.77,1,.8,1v0h0v0h0v0h0l0,0A4.44,4.44,0,0,1,88.11,135.52Zm.32-.62A.89.89,0,0,0,88,135a.19.19,0,0,0-.1.13c0,.13,0,.17,0,.18.17.13.81-.07,1.33-.29a4.48,4.48,0,0,0-.81-.1Zm.18-.86a.29.29,0,0,0-.16,0s-.13.07-.13.12.52.42,1,.61a1.5,1.5,0,0,0-.61-.75l-.14,0Z"/><polygon class="cls-21" points="89.59 132.03 92.34 131.19 91.89 127.84 88.76 128.1 89.59 132.03"/><path class="cls-19" d="M94.37,87.28s.29-4,.42-4.8.32,1.2.5.68c.88-2.66,12.68-1,12.68-1s7,8.88,2.19,13.94c-3.34,3.48-15.19,5-20.18,7.39,0,0,1.53,14.49,2.54,26.07l-3.7.64s-8.8-27.11-8.7-31S81.66,93.29,94.37,87.28Z"/><polygon class="cls-68" points="93.06 128.47 87.97 129.05 88.95 131.04 93.07 130.51 93.06 128.47"/><polygon class="cls-68" points="79.48 127.69 74.36 127.5 75.03 129.62 79.19 129.71 79.48 127.69"/><path class="cls-70" d="M86.38,62.07s-2.06,0-2.13.32a14.14,14.14,0,0,0,.33,3.8,6.34,6.34,0,0,0,1,1l-.2,5.35,1.22.43,1.12-4.9a3.25,3.25,0,0,0,.9-2.79A8.22,8.22,0,0,0,86.38,62.07Z"/><path class="cls-71" d="M86.38,62.07s-2.06,0-2.13.32a14.14,14.14,0,0,0,.33,3.8,6.34,6.34,0,0,0,1,1l-.2,5.35,1.22.43,1.12-4.9a3.25,3.25,0,0,0,.9-2.79A8.22,8.22,0,0,0,86.38,62.07Z"/><path class="cls-24" d="M89.88,64.7a.32.32,0,0,1-.3.33h0L86,64.76a.42.42,0,0,1-.39-.39l-.24-7a.34.34,0,0,1,.32-.38h0l3.51.27a.44.44,0,0,1,.36.43Z"/><path class="cls-75" d="M89.24,57.65l.25,7a.26.26,0,0,1-.22.31h-.08l-3-.24c-.2,0-.55-.15-.56-.35l-.25-7.07c0-.2.34-.33.54-.31l3,.23A.37.37,0,0,1,89.24,57.65Z"/><path class="cls-70" d="M93.44,70,92.1,66.9s-.43-4.17-.64-4.61-3.6-.28-4-.31-.3,4.14.06,4.57a4.62,4.62,0,0,0,1.74.79l2.13,4.14Z"/><path class="cls-76" d="M109.83,63.3s-3.85-2.07-15.11-.7a35.15,35.15,0,0,0-1.59,12.56c.31,7.5,1.18,7.69,1.18,7.69l-.77,1.68a30.45,30.45,0,0,1,18.35,7.15l1-.72-4.06-9.29A49.69,49.69,0,0,1,109.83,63.3Z"/><path class="cls-19" d="M105.76,46.36s.92-2,4.44-1.48,3.52,4.88,1.39,8.3.41,4.49.1,5.81-1.86,1-1.86,1a1.17,1.17,0,0,0,.38-1.27C110,57.82,102.66,53.87,105.76,46.36Z"/><path class="cls-19" d="M100.69,57.6c-.28-.13-5.71.25-5.75-6.05,0,0-2.35-2.57,2-5.83s6.85-1,6.85-1,3.84-.57,4.81,5.22S105.44,59.84,100.69,57.6Z"/><path class="cls-19" d="M95.82,52.33s-2.06-7.82,6.37-7.43,6.53,13.45,1.31,12.66A11.27,11.27,0,0,1,95.82,52.33Z"/><path class="cls-70" d="M100.9,64.44a5.7,5.7,0,0,0,4.49-1.76c-2.46-1.7-1.22-5.5-1.22-5.5l-4,1.4a12.27,12.27,0,0,1,.42,1.69c.42,2.47-.7,2.67-.7,2.67C99.42,64.39,100.24,64.36,100.9,64.44Z"/><path class="cls-21" d="M100.21,58.58a12.27,12.27,0,0,1,.42,1.69,10.12,10.12,0,0,0,3.54-3.07Z"/><path class="cls-70" d="M100.33,46.78c-3.58.31-4.57,2.33-4.51,6,.07,4.64,1.37,7.83,5.77,6.45C107.55,57.42,106.28,46.27,100.33,46.78Z"/><path class="cls-77" d="M98.12,52.42A7.26,7.26,0,0,1,97.2,54a1,1,0,0,0,1,.33Z"/><path class="cls-19" d="M100.28,51.94c0,.29.2.52.38.51s.34-.26.33-.56-.2-.52-.39-.51S100.26,51.64,100.28,51.94Z"/><path class="cls-19" d="M100.69,51.39l-.66-.21S100.38,51.7,100.69,51.39Z"/><path class="cls-19" d="M96.62,52.11c0,.29.19.52.38.51s.34-.27.32-.56-.19-.52-.38-.51S96.6,51.81,96.62,52.11Z"/><path class="cls-19" d="M97,51.56l-.66-.22S96.72,51.87,97,51.56Z"/><path class="cls-19" d="M101.71,50a.14.14,0,0,1-.11-.05,1.76,1.76,0,0,0-1.46-.36.15.15,0,0,1-.18-.11h0a.15.15,0,0,1,.11-.18h0a2,2,0,0,1,1.74.45.16.16,0,0,1,0,.22A.13.13,0,0,1,101.71,50Z"/><path class="cls-19" d="M96.09,50.1A.14.14,0,0,1,96,50a.16.16,0,0,1,0-.21,1.81,1.81,0,0,1,1.54-.44.15.15,0,0,1,.11.18.16.16,0,0,1-.19.11,1.52,1.52,0,0,0-1.26.38A.21.21,0,0,1,96.09,50.1Z"/><path class="cls-19" d="M98.82,55.68a10.07,10.07,0,0,1,.53,1.21l.22,0c1-.2,1.45-.63,1.6-1.05a1.39,1.39,0,0,0,0-.64,1.19,1.19,0,0,0-.09-.36,5.1,5.1,0,0,1-2,.81Z"/><path class="cls-5" d="M99.17,55.61l.17.35a3.17,3.17,0,0,0,1.88-.8,1.61,1.61,0,0,0-.1-.36A5,5,0,0,1,99.17,55.61Z"/><path class="cls-23" d="M99.59,56.85c1-.2,1.45-.63,1.59-1.05a3.39,3.39,0,0,0-1.1.44A1.28,1.28,0,0,0,99.59,56.85Z"/><path class="cls-19" d="M104.76,52.48s-1.92-2.8-1.86-5.09c0,0-7.35-2.31-7.08,4.94,0,0-1.24-6.33,4.9-7s6.89,8.33,3.94,11.29C104.66,56.62,106,54.22,104.76,52.48Z"/><path class="cls-70" d="M104.24,53.29a1.57,1.57,0,0,1,1.57-1.58h0c1.12,0,1.85,2.25-.87,3C104.55,54.86,104.3,54.49,104.24,53.29Z"/><path class="cls-19" d="M103.39,52h0c-3.08-1.18-3-5.28-3-5.32a.1.1,0,0,1,.11-.1h0a.1.1,0,0,1,.1.1s0,4,2.9,5.12a.1.1,0,0,1,.06.13h0A.12.12,0,0,1,103.39,52Z"/><path class="cls-19" d="M96.36,46.62c3-2.54,4.81-1.74,4.81-1.74l0,0a4.82,4.82,0,0,1,5.09,1.7c3.13,3.38.5,5.83.5,5.83-4.14-1.16-5.77-3.76-6.38-5.41a10.78,10.78,0,0,1-5.42,4.51S93.34,49.16,96.36,46.62Z"/><path class="cls-70" d="M104.76,70.8s-2.35,5.33-3,5.72-5.42-4-9.68-9.62l-2.61,1S96.24,81.73,101,81.8s7.77-8,7.77-8Z"/><path class="cls-7" d="M109.83,63.3c3.28.91-1,14.23-1,14.23l-6.21-2.85a67.09,67.09,0,0,1,3-8C107.35,62.58,109.83,63.3,109.83,63.3Z"/><path class="cls-78" d="M109.83,63.3c3.28.91-1,14.23-1,14.23l-6.21-2.85a67.09,67.09,0,0,1,3-8C107.35,62.58,109.83,63.3,109.83,63.3Z"/><polygon class="cls-7" points="109.3 77.28 102.58 74.06 102.19 75.03 108.79 78.63 109.3 77.28"/><polygon class="cls-21" points="109.3 77.28 102.58 74.06 102.19 75.03 108.79 78.63 109.3 77.28"/><path class="cls-79" d="M96.28,39.82a.46.46,0,1,1-.46-.46.47.47,0,0,1,.46.46Z"/><path class="cls-80" d="M101.34,39.6a.46.46,0,1,1-.45-.45.45.45,0,0,1,.45.45Z"/><circle class="cls-81" cx="106.16" cy="40.51" r="0.46"/><polygon class="cls-82" points="67.09 83.33 65.17 139.09 63.63 139.09 64.79 83.33 67.09 83.33"/><polygon class="cls-82" points="55.17 83.33 53.25 139.09 51.71 139.09 52.87 83.33 55.17 83.33"/><rect class="cls-7" x="50.56" y="80.64" width="78.06" height="2.69"/><rect class="cls-68" x="50.56" y="80.64" width="78.06" height="2.69"/><rect class="cls-83" x="111.7" y="80.64" width="16.92" height="2.69"/><polygon class="cls-82" points="127.08 83.33 128.23 139.09 126.69 139.09 124.77 83.33 127.08 83.33"/><polygon class="cls-82" points="115.16 83.33 116.31 139.09 114.77 139.09 112.85 83.33 115.16 83.33"/></g></g></svg>