<svg id="Group_3077" data-name="Group 3077" xmlns="http://www.w3.org/2000/svg" xmlns:xlink="http://www.w3.org/1999/xlink" width="154.005" height="187.757" viewBox="0 0 154.005 187.757">
  <defs>
    <clipPath id="clip-path">
      <rect id="Rectangle_234" data-name="Rectangle 234" width="154.005" height="187.757" fill="none"/>
    </clipPath>
  </defs>
  <g id="Group_3076" data-name="Group 3076" clip-path="url(#clip-path)">
    <path id="Path_1065" data-name="Path 1065" d="M32.089,187.685H4.564a4.432,4.432,0,0,1-4.452-4.332,60.812,60.812,0,0,1,.126-9.045,11.4,11.4,0,0,1,11.181-10.017c4.431-.1,8.937-.1,13.377-.006h.043A11.666,11.666,0,0,1,36.488,175.5c.132,2.3.1,4.666.068,6.953l-.011.834a4.475,4.475,0,0,1-4.456,4.4m-27.524-4H32.089a.458.458,0,0,0,.456-.451l.012-.836c.031-2.32.061-4.511-.064-6.7a7.7,7.7,0,0,0-7.707-7.414h-.028c-4.432-.1-8.876-.1-13.262,0a7.409,7.409,0,0,0-7.283,6.461,57.207,57.207,0,0,0-.106,8.425.474.474,0,0,0,.459.509Zm13.572-21.957A11.918,11.918,0,0,1,6.465,149.911v-.067A11.912,11.912,0,0,1,18.217,138.18a11.774,11.774,0,1,1-.08,23.548m-7.671-11.8a7.915,7.915,0,0,0,7.716,7.8,7.978,7.978,0,0,0,7.831-7.843,7.9,7.9,0,0,0-7.8-7.707,7.91,7.91,0,0,0-7.749,7.749" fill="#393838"/>
    <path id="Path_1066" data-name="Path 1066" d="M63.277,187.757a4.431,4.431,0,0,1-4.453-4.335,62.046,62.046,0,0,1,.123-9.066,11.554,11.554,0,0,1,11.2-10.069c4.434-.1,8.935-.1,13.364,0h.033A11.667,11.667,0,0,1,95.2,175.508c.131,2.3.1,4.561.068,6.959l-.012.892a4.475,4.475,0,0,1-4.454,4.4H63.277ZM76.939,168.21c-2.244,0-4.485.025-6.711.077a7.515,7.515,0,0,0-7.306,6.5,58.531,58.531,0,0,0-.1,8.46.473.473,0,0,0,.458.509H90.8a.458.458,0,0,0,.456-.451l.012-.893c.032-2.326.061-4.523-.063-6.708a7.7,7.7,0,0,0-7.708-7.423h-.021c-2.177-.048-4.36-.072-6.537-.072m.034-6.484a11.922,11.922,0,0,1-11.8-11.692v-.067a11.775,11.775,0,1,1,11.8,11.759m-7.8-11.742a7.775,7.775,0,1,0,7.668-7.806,7.92,7.92,0,0,0-7.668,7.806" fill="#393838"/>
    <path id="Path_1067" data-name="Path 1067" d="M149.511,187.685H121.982a4.437,4.437,0,0,1-4.445-4.332,61,61,0,0,1,.127-9.049,11.4,11.4,0,0,1,11.181-10.015c4.43-.1,8.934-.1,13.376-.006h.038a11.666,11.666,0,0,1,11.65,11.222c.133,2.317.1,4.7.068,7.006l-.011.778a4.473,4.473,0,0,1-4.455,4.4m-27.52-4h27.52a.457.457,0,0,0,.455-.45l.011-.78c.033-2.338.063-4.547-.063-6.752a7.7,7.7,0,0,0-7.707-7.42h-.025c-4.432-.1-8.877-.1-13.259,0a7.408,7.408,0,0,0-7.284,6.459,57.247,57.247,0,0,0-.106,8.428.475.475,0,0,0,.458.51m13.5-21.96h-.069a11.919,11.919,0,0,1-11.539-11.947v-.069a11.776,11.776,0,1,1,11.607,12.016m-7.608-11.886a7.916,7.916,0,0,0,7.629,7.887h.043a7.773,7.773,0,1,0-7.672-7.887" fill="#393838"/>
    <path id="Path_1068" data-name="Path 1068" d="M142.969,111.5H128.241a4.338,4.338,0,0,1-4.333-4.333V92.541a4.338,4.338,0,0,1,4.333-4.333h14.728a4.338,4.338,0,0,1,4.333,4.333v14.621a4.337,4.337,0,0,1-4.333,4.333m-14.728-4h14.728a.333.333,0,0,0,.333-.333V92.541a.334.334,0,0,0-.333-.333H128.241a.334.334,0,0,0-.333.333v14.621a.333.333,0,0,0,.333.333m-102.7,3.992H10.9a4.338,4.338,0,0,1-4.333-4.333V90.478h.495a4.343,4.343,0,0,1,3.833-2.333H25.54a4.338,4.338,0,0,1,4.333,4.333v14.676a4.338,4.338,0,0,1-4.333,4.333M10.563,94.478v12.676a.334.334,0,0,0,.333.333H25.54a.334.334,0,0,0,.333-.333V92.478a.334.334,0,0,0-.333-.333H10.9a.333.333,0,0,0-.328.333Zm15.131-9.041-14.76,0A4.347,4.347,0,0,1,6.6,81.127c-.012-1.263-.031-2.53-.051-3.794-.067-4.389-.137-8.928.12-13.394C8.312,35.451,29.956,10.116,59.3,2.327a70.194,70.194,0,0,1,52.684,6.926,69.02,69.02,0,0,1,32.989,41.485,67.2,67.2,0,0,1,2.291,14.031c.262,4.308.2,8.709.143,12.965q-.022,1.659-.04,3.331a4.347,4.347,0,0,1-4.33,4.3H128.181a4.332,4.332,0,0,1-4.309-4.272c-.032-2.075-.016-4.164,0-6.184a119.663,119.663,0,0,0-.4-13.384c-1.281-12.077-7.376-21.913-18.114-29.235C92.61,23.6,77.8,21.231,63.647,25.625A49.4,49.4,0,0,0,32.251,54.4a32.153,32.153,0,0,0-2.242,12.171c.043,3.9.034,7.711.023,11.747l-.006,2.79a4.341,4.341,0,0,1-4.332,4.327M77.318,3.972a66.159,66.159,0,0,0-16.99,2.222c-27.7,7.35-48.12,31.191-49.664,57.975-.249,4.321-.184,8.586-.115,13.1.02,1.272.04,2.546.052,3.824a.337.337,0,0,0,.335.339l14.756,0a.335.335,0,0,0,.334-.334l.007-2.794c.01-4.021.019-7.82-.024-11.693a36.169,36.169,0,0,1,2.516-13.67A53.423,53.423,0,0,1,62.462,21.805c15.337-4.762,31.373-2.21,45.151,7.183,11.753,8.014,18.428,18.82,19.839,32.118a122.845,122.845,0,0,1,.42,13.836c-.016,2-.031,4.064,0,6.079a.324.324,0,0,0,.314.347h14.85a.335.335,0,0,0,.333-.333q.015-1.691.041-3.356c.059-4.375.116-8.508-.137-12.677a63.231,63.231,0,0,0-2.151-13.192C133,23.011,106.258,3.972,77.318,3.972" fill="#393838"/>
    <path id="Path_1069" data-name="Path 1069" d="M76.751,111.605h-.026A18.387,18.387,0,0,1,58.652,93.2v-.043A18.545,18.545,0,0,1,77.115,75.021h.056A18.382,18.382,0,0,1,95.247,93.414a18.6,18.6,0,0,1-18.5,18.191m-14.1-18.4a14.4,14.4,0,0,0,14.124,14.4h.019A14.56,14.56,0,0,0,91.247,93.384,14.384,14.384,0,0,0,77.118,79.021h-.043A14.518,14.518,0,0,0,62.652,93.208" fill="#393838"/>
    <path id="Path_1070" data-name="Path 1070" d="M86.65,89.991v6.542H80.275v6.406H73.731v-6.3H67.324V90.1h6.3V83.69h6.544v6.3Z" fill="#393838"/>
    <path id="Path_1071" data-name="Path 1071" d="M15.459,134.328a2,2,0,0,1-2-2V118.645a2,2,0,1,1,4,0v13.683a2,2,0,0,1-2,2" fill="#393838"/>
    <path id="Path_1072" data-name="Path 1072" d="M21.531,134.328a2,2,0,0,1-2-2V118.645a2,2,0,0,1,4,0v13.683a2,2,0,0,1-2,2" fill="#393838"/>
    <path id="Path_1073" data-name="Path 1073" d="M9.385,134.328a2,2,0,0,1-2-2V118.645a2,2,0,0,1,4,0v13.683a2,2,0,0,1-2,2" fill="#393838"/>
    <path id="Path_1074" data-name="Path 1074" d="M27.6,134.328a2,2,0,0,1-2-2V118.645a2,2,0,0,1,4,0v13.683a2,2,0,0,1-2,2" fill="#393838"/>
    <path id="Path_1075" data-name="Path 1075" d="M131.845,134.328a2,2,0,0,1-2-2V118.645a2,2,0,0,1,4,0v13.683a2,2,0,0,1-2,2" fill="#393838"/>
    <path id="Path_1076" data-name="Path 1076" d="M137.918,134.328a2,2,0,0,1-2-2V118.645a2,2,0,0,1,4,0v13.683a2,2,0,0,1-2,2" fill="#393838"/>
    <path id="Path_1077" data-name="Path 1077" d="M125.771,134.328a2,2,0,0,1-2-2V118.645a2,2,0,0,1,4,0v13.683a2,2,0,0,1-2,2" fill="#393838"/>
    <path id="Path_1078" data-name="Path 1078" d="M143.991,134.328a2,2,0,0,1-2-2V118.645a2,2,0,0,1,4,0v13.683a2,2,0,0,1-2,2" fill="#393838"/>
  </g>
</svg>
