<svg id="Group_3079" data-name="Group 3079" xmlns="http://www.w3.org/2000/svg" xmlns:xlink="http://www.w3.org/1999/xlink" width="152.16" height="188.327" viewBox="0 0 152.16 188.327">
  <defs>
    <clipPath id="clip-path">
      <rect id="Rectangle_235" data-name="Rectangle 235" width="152.16" height="188.327" fill="none"/>
    </clipPath>
  </defs>
  <g id="Group_3078" data-name="Group 3078" clip-path="url(#clip-path)">
    <path id="Path_1079" data-name="Path 1079" d="M74.434,188.327,43.57,157.3l12.747-13.32L87.56,175.219ZM49.158,157.246l25.285,25.419,7.458-7.448L56.38,149.7Zm-13.669,1.695c-.11,0-.221,0-.332-.009-2.537-.139-4.9-1.8-7.671-5.391A127.1,127.1,0,0,0,5.4,131.484c-2.43-1.915-5.232-4.51-5.394-7.672-.107-2.069.893-4.094,3.056-6.193,3.907-3.786,7.836-7.55,11.735-11.285l6.547-6.279L58.572,137.3l-1.017,1.384c-.312.424-11.962,12.837-16.222,17.258-1.944,2.017-3.859,3-5.844,3m-14.2-53.286-3.722,3.568c-3.892,3.729-7.815,7.487-11.715,11.269-1.288,1.247-1.891,2.266-1.848,3.115.061,1.18,1.325,2.726,3.866,4.727a131.121,131.121,0,0,1,22.778,22.755c1.921,2.49,3.51,3.782,4.731,3.849.889.032,1.879-.533,3.075-1.775,4.137-4.292,11.722-12.39,14.719-15.611ZM70.245,153.24,58.521,141.515l8.814-9.831,1.493,1.506c4.031,4.064,5.272,12.266,2.653,17.552Zm-6.217-11.875,4.72,4.72a13.92,13.92,0,0,0-1.474-8.341Zm-3.12-6.273-37-37.028,1.537-1.411c1.135-1.041,2.287-2.078,3.444-3.118,6.551-5.893,13.327-11.987,17.831-19.906,4.957-8.725,7.818-18.4,10.586-27.765l1.469-4.958,59.274,59.282-5.439,1.622c-9.145,2.715-18.6,5.522-27.158,10.371-8.062,4.569-14.277,11.5-20.287,18.206q-1.42,1.586-2.844,3.155Zm-31.217-36.9,31.078,31.1q.708-.786,1.416-1.577c6.225-6.944,12.662-14.124,21.293-19.016s17.946-7.741,27-10.43L60.7,48.489c-2.7,9.11-5.588,18.463-10.5,27.116-4.824,8.483-11.844,14.8-18.634,20.9q-.937.843-1.87,1.685m97.024,3.248a7.129,7.129,0,0,1-5.055-2.108c-2.1-1.978-4.194-4.088-6.223-6.128l-1.853-1.859Q87.228,64.989,60.86,38.638c-1.3-1.3-3.252-3.252-3.265-6.316a7.331,7.331,0,0,1,3.791-6.676,7.183,7.183,0,0,1,8.007.345,12.943,12.943,0,0,1,1.922,1.678c19.91,19.847,40.1,40.062,59.98,60.037l.109.12a20.352,20.352,0,0,1,2.731,4.184l1.41,2.879h-1.388a7.641,7.641,0,0,1-7.442,6.554M65.124,28.6a3.2,3.2,0,0,0-1.684.482l-.1.06a3.343,3.343,0,0,0-1.744,3.082c.008,1.4.835,2.328,2.1,3.589q26.368,26.349,52.724,52.71l1.86,1.868c2.008,2.018,4.083,4.1,6.175,6.08a3.172,3.172,0,0,0,3.776.591l.1-.05c.91-.423,1.807-1.063,1.987-3.693a16.385,16.385,0,0,0-1.912-2.847C108.547,70.515,88.377,50.325,68.446,30.456a9.211,9.211,0,0,0-1.392-1.22,3.263,3.263,0,0,0-1.93-.64" fill="#393838"/>
    <path id="Path_1080" data-name="Path 1080" d="M139.489,75.3c-3.135,0-6.271.046-9.4-.015-2.356-.046-3.784-2-2.628-3.685a3.653,3.653,0,0,1,2.552-1.4c6.267-.118,12.537-.081,18.806-.05a2.628,2.628,0,0,1,2.834,2.4c0,.04.005.08.007.121a2.579,2.579,0,0,1-2.558,2.6q-.1,0-.207-.006c-3.133.068-6.268.019-9.4.019Z" fill="#393838"/>
    <path id="Path_1081" data-name="Path 1081" d="M133.852,75.818c-1.255,0-2.52-.008-3.772-.032A3.632,3.632,0,0,1,126.837,74a2.554,2.554,0,0,1,.213-2.68,4.173,4.173,0,0,1,2.918-1.615c6.062-.115,12.189-.086,18.116-.056l.738,0a3.125,3.125,0,0,1,3.329,2.864l.009.15a3.078,3.078,0,0,1-3.054,3.113,2.055,2.055,0,0,1-.246-.008c-2.169.05-4.419.04-6.6.029q-1.242,0-2.484-.008l-.292.01q-1.41,0-2.822.008c-.928,0-1.869.009-2.815.009m6.017-5.2c-3.281,0-6.579.02-9.846.081a3.145,3.145,0,0,0-2.166,1.206,1.554,1.554,0,0,0-.131,1.634,2.645,2.645,0,0,0,2.373,1.245c2.185.043,4.413.033,6.563.023q1.269,0,2.537-.008l.006-.01h.29q1.388,0,2.774.008c2.172.011,4.412.02,6.616-.027.1,0,.153.007.211.006a2.079,2.079,0,0,0,2.064-2.1,2.161,2.161,0,0,0-.749-1.534,2.118,2.118,0,0,0-1.551-.5l-.781,0c-2.7-.013-5.451-.027-8.21-.027" fill="#393838"/>
    <path id="Path_1082" data-name="Path 1082" d="M131.572,23.2a12.181,12.181,0,0,1-1.338,2.238q-6.6,6.693-13.283,13.3c-1.27,1.259-2.827,1.284-3.868.177s-.986-2.474.277-3.747q6.618-6.674,13.286-13.3c.832-.832,1.849-1.4,2.938-.748a11.068,11.068,0,0,1,1.988,2.08" fill="#393838"/>
    <path id="Path_1083" data-name="Path 1083" d="M114.844,40.213h-.049a2.877,2.877,0,0,1-2.076-.957c-1.256-1.335-1.148-3,.285-4.442,4.415-4.451,8.886-8.926,13.289-13.3,1.525-1.523,2.773-1.289,3.548-.822a11.421,11.421,0,0,1,2.134,2.214l.174.236-.123.268a12.645,12.645,0,0,1-1.393,2.33c-4.424,4.492-8.895,8.968-13.33,13.353a3.551,3.551,0,0,1-2.459,1.123m13.79-18.887a2.428,2.428,0,0,0-1.635.893c-4.4,4.375-8.872,8.849-13.284,13.3-.735.741-1.378,1.872-.268,3.053a1.908,1.908,0,0,0,1.366.642,2.5,2.5,0,0,0,1.787-.832c4.432-4.383,8.9-8.856,13.277-13.3a11.665,11.665,0,0,0,1.112-1.828,10.527,10.527,0,0,0-1.718-1.749,1.24,1.24,0,0,0-.637-.181" fill="#393838"/>
    <path id="Path_1084" data-name="Path 1084" d="M81.891,12.718c0,3.133.016,6.265-.006,9.4-.013,1.856-.963,2.874-2.57,2.838-1.527-.035-2.442-1.05-2.446-2.814q-.021-9.4,0-18.794c0-1.834.985-2.882,2.579-2.847,1.51.032,2.425,1.058,2.437,2.823.021,3.129.006,6.261.006,9.394" fill="#393838"/>
    <path id="Path_1085" data-name="Path 1085" d="M79.394,25.457H79.3c-1.805-.041-2.929-1.311-2.934-3.313q-.023-9.4,0-18.8A3.487,3.487,0,0,1,77.293.781,2.938,2.938,0,0,1,79.458,0c1.792.039,2.913,1.311,2.927,3.32.014,2.21.011,4.421.008,6.633l0,2.764,0,2.784c0,2.206.006,4.412-.008,6.62a3.524,3.524,0,0,1-.925,2.572,2.887,2.887,0,0,1-2.066.763M79.369,1a1.894,1.894,0,0,0-1.377.5,2.532,2.532,0,0,0-.623,1.852q-.023,9.395,0,18.793c0,.848.259,2.276,1.957,2.315a1.91,1.91,0,0,0,1.437-.479,2.57,2.57,0,0,0,.622-1.862c.014-2.2.011-4.408.008-6.612l0-2.785,0-2.765c0-2.21.006-4.418-.008-6.625-.006-.854-.267-2.291-1.949-2.327h-.067" fill="#393838"/>
  </g>
</svg>
