<svg xmlns="http://www.w3.org/2000/svg" width="150" height="163.349" viewBox="0 0 150 163.349">
  <g id="Group_3074" data-name="Group 3074" transform="translate(1822.064 -851.767)">
    <path id="Path_88" data-name="Path 88" d="M-1821.081,1112.586a11.549,11.549,0,0,1-.911-2.875c-.128-2.652.016-5.316-.068-7.972-.047-1.5.278-2.632,1.943-2.964v-24.809c0-2.711.082-5.426-.022-8.133a11.357,11.357,0,0,1,2.5-7.525c5.049-6.706,9.988-13.495,15.061-20.182a14.258,14.258,0,0,0,2.6-5.845,86.963,86.963,0,0,1,2.573-8.833c.6-1.835,1.539-2.181,3.33-1.455q24.3,9.86,48.608,19.721a2.721,2.721,0,0,1,1.909,2.9q-.049,26.078-.024,52.156c0,2.138-.6,2.74-2.749,2.718a54.691,54.691,0,0,1-26.033-6.886c-.459-.251-.921-.494-1.281-.687l-4.082,6.983c1.186.736,1.288,2.1,1.249,3.574-.064,2.444.092,4.9-.072,7.332a9.486,9.486,0,0,1-1.144,2.777Zm25.326-56.353c1.666-2.468,3.164-4.777,4.756-7.02,2.352-3.313,6.345-3.959,9.845-1.664,3.712,2.434,4.554,5.87,2.308,9.57-2.946,4.855-5.9,9.709-8.9,14.529a1.762,1.762,0,0,0,.034,2.358,52.25,52.25,0,0,0,26.782,19.344,51.167,51.167,0,0,0,13.478,2.293c.025-.429.059-.738.059-1.047q0-24.161.032-48.322c0-1.109-.534-1.4-1.376-1.742q-19.312-7.809-38.605-15.661-3.426-1.391-6.849-2.774C-1797.866,1034.883-1798.334,1047.623-1795.755,1056.233Zm-20.55,42.465a2.153,2.153,0,0,0,.366.139q15.864.022,31.728.024a1.826,1.826,0,0,0,1.151-.374,18.954,18.954,0,0,0,5.437-7.726,1.538,1.538,0,0,0-.627-1.974q-4.72-4.143-9.264-8.486a47.268,47.268,0,0,1-3.317-3.971c-1.222,2.435-2.523,4.577-3.405,6.879a34.1,34.1,0,0,1-8.118,12.239c-.88.866-1.85,1.141-2.808.26a1.849,1.849,0,0,1-.011-2.824,17.28,17.28,0,0,1,1.169-1.306,27.956,27.956,0,0,0,6.177-9.738,40.845,40.845,0,0,1,2.686-5.385c4.282-7.085,8.648-14.119,12.968-21.182,1.2-1.954.9-3.2-.967-4.439-2.016-1.335-3.635-1.031-5.019,1.014-2.946,4.353-5.823,8.753-8.831,13.062a4.9,4.9,0,0,1-2.348,1.647c-2.048.692-4.206,1.059-6.255,1.748-1.248.42-2.336.649-2.99-.7a1.954,1.954,0,0,1,1.3-2.808,53.816,53.816,0,0,1,6.184-1.908,2.863,2.863,0,0,0,2.117-3.356c-.735-3.79-1.418-7.592-2.022-11.4-.257-1.623-.263-3.285-.405-5.228-4.739,6.381-9.32,12.439-13.741,18.611a7.108,7.108,0,0,0-1.107,3.87c-.09,9.885-.049,19.771-.049,29.657Zm35.81,10.045V1102.8h-37.61v5.941Z" transform="translate(0 -97.47)" fill="#393838"/>
    <path id="Path_89" data-name="Path 89" d="M-1606.391,1108.362a9.283,9.283,0,0,1-1.143-2.775,74.4,74.4,0,0,1-.013-7.97,13.964,13.964,0,0,1,.879-3.115l.424.1c-.021-.094-.013-.21-.066-.279-2.016-2.6-2.012-2.584-5.12-1.627a55.19,55.19,0,0,1-16.289,2.573c-1.833,0-2.537-.648-2.538-2.464q-.019-26.318-.018-52.637a2.63,2.63,0,0,1,1.7-2.6q23.73-11.42,47.445-22.869c1.668-.8,2.527-.491,3.31,1.2a55.229,55.229,0,0,1,5.044,28.5,3.3,3.3,0,0,0,.641,2c2,2.813,4.08,5.573,6.148,8.338a10.014,10.014,0,0,1,2.031,6.23c-.029,10.58-.013,21.161-.013,31.741v1.848c1.666.327,1.989,1.459,1.943,2.961-.082,2.656.06,5.32-.067,7.972a11.564,11.564,0,0,1-.911,2.875Zm26.2-49.217c5.182-13.563,5.107-26.906-.5-40.3-.461.186-.71.27-.944.382q-21.853,10.513-43.713,21.012a1.714,1.714,0,0,0-1.1,1.822q.04,23.918.022,47.837c0,.467.048.934.082,1.563,1.082-.1,2.07-.184,3.056-.281a51.366,51.366,0,0,0,30.606-13.825c1.18-1.088,1.365-1.825.455-3.267-4.444-7.047-8.75-14.182-13.087-21.3-1.652-2.709-1.567-5.725.391-7.825,4.186-4.49,9.647-3.631,12.292.629,2.519,4.057,5.274,7.97,8,11.891a3.925,3.925,0,0,0,1.851,1.137A17.3,17.3,0,0,0-1580.188,1059.145Zm6.659-8.225c-.961,3.03-1.864,5.743-2.654,8.488-.149.519.185,1.165.244,1.758.082.826.414,1.8.1,2.454-.475.984-1.51.823-2.518.482a35.844,35.844,0,0,0-5.74-1.635,4.084,4.084,0,0,1-3.1-1.863c-2.866-4.345-5.786-8.653-8.708-12.96-1.394-2.054-3-2.369-5.015-1.046-1.964,1.292-2.182,2.491-.828,4.7,3.716,6.067,7.5,12.093,11.131,18.212a102.552,102.552,0,0,1,4.857,9.29,27.388,27.388,0,0,0,5.372,8.208,20.4,20.4,0,0,1,1.589,1.787,1.807,1.807,0,0,1-.121,2.7,1.767,1.767,0,0,1-2.69-.176c-2.485-2.624-5.007-5.224-6.522-8.588-.449-1-.938-1.976-1.237-2.6l-15.047,10.359c.483.6,1.192,1.445,1.854,2.321a4.737,4.737,0,0,0,4.241,1.887c9.57-.095,19.14-.044,28.711-.044h1.739c.045-.375.09-.577.09-.779,0-11.112.016-22.225-.023-33.337a4.628,4.628,0,0,0-.619-2.426C-1570.028,1055.693-1571.773,1053.371-1573.53,1050.919Zm7.588,53.562v-5.94h-37.687v5.94Z" transform="translate(-110.045 -93.246)" fill="#393838"/>
    <path id="Path_90" data-name="Path 90" d="M-1685.579,886.394a55.913,55.913,0,0,1,31.465,27.316c1.33,2.525,1.1,3.122-1.507,4.382q-22.984,11.094-45.958,22.213a4.482,4.482,0,0,1-4.042.168q-23.906-9.8-47.866-19.473c-2.06-.837-2.39-1.63-1.5-3.683a55.2,55.2,0,0,1,21.585-25.295,2.425,2.425,0,0,0,1.3-2.4c-.051-7.971-.027-15.942-.027-24.045-1.739-.327-1.982-1.554-1.937-3.087.081-2.762.014-5.528.026-8.292.008-1.83.568-2.426,2.334-2.427q20.411-.012,40.822,0c1.644,0,2.341.649,2.365,2.3.046,3.029.089,6.063-.036,9.087a9.672,9.672,0,0,1-1.143,2.765C-1684.437,871.637-1684.664,878.913-1685.579,886.394Zm-65.431,31.378c.369.183.636.337.918.452q22.669,9.218,45.356,18.39a3.059,3.059,0,0,0,2.193-.177q21.662-10.372,43.282-20.833c.47-.227.927-.478,1.391-.719-9.908-18.828-29.4-27.658-45.106-27.534.353.612.652,1.156.976,1.684q5.613,9.165,11.228,18.328c1.611,2.643,1.559,5.607-.311,7.7-3.867,4.339-9.5,4-12.308-.417-2.566-4.029-5.282-7.964-8.018-11.88a3.332,3.332,0,0,0-1.961-1.228c-5.634-1-10.881-2.839-15.182-6.776a1.337,1.337,0,0,0-1.921-.135,51.672,51.672,0,0,0-13.624,11.876A50.059,50.059,0,0,0-1751.009,917.772Zm22.687-52.3c0,7.988-.011,15.744.03,23.5a2.347,2.347,0,0,0,.676,1.341c4.114,4.591,9.447,6.708,15.42,7.389a4.138,4.138,0,0,1,3.387,1.945c2.8,4.32,5.708,8.575,8.6,12.838,1.4,2.058,3.035,2.388,5.023,1.083,1.953-1.282,2.172-2.492.826-4.7q-7-11.491-14-22.98a11.953,11.953,0,0,1-1.046-1.961c-1.717-4.568-3.94-8.8-7.571-12.191-1.244-1.162-1.248-2.339-.317-3.19.915-.835,1.913-.571,3.15.619a34.841,34.841,0,0,1,8.309,13.054,2.042,2.042,0,0,0,1.375,1.119c4.99.531,9.991.96,15.237,1.441.091-1.153.231-2.72.335-4.291a16.515,16.515,0,0,0-5.519-13.989,4.079,4.079,0,0,0-2.488-.985c-9.886-.067-19.774-.043-29.661-.043Zm35.873-9.8h-37.671v5.875h37.671Z" transform="translate(-38.221 0)" fill="#393838"/>
  </g>
</svg>
