<svg xmlns="http://www.w3.org/2000/svg" xmlns:xlink="http://www.w3.org/1999/xlink" viewBox="0 0 503.62 538"><defs><style>.cls-1{fill:#ebebeb;}.cls-2{fill:#e0e0e0;}.cls-3{fill:#263238;}.cls-4{fill:#ff725e;}.cls-5{fill:url(#linear-gradient);}.cls-6{fill:url(#linear-gradient-2);}.cls-7{fill:url(#linear-gradient-3);}.cls-8{fill:#fff;}.cls-9{fill:url(#linear-gradient-4);}.cls-10{fill:url(#linear-gradient-5);}.cls-11{fill:url(#linear-gradient-6);}.cls-12{fill:#ffbe9d;}.cls-13{fill:#eb996e;}.cls-14{fill:#455a64;}.cls-15{fill:#544e4d;}.cls-16{fill:url(#linear-gradient-7);}.cls-17{opacity:0.6;}.cls-18{opacity:0.3;}.cls-19{fill:#fafafa;}.cls-20{fill:url(#linear-gradient-8);}.cls-21{fill:url(#linear-gradient-9);}.cls-22{fill:url(#linear-gradient-10);}.cls-23{fill:#d1a093;}.cls-24{fill:#7c5142;}.cls-25{fill:#515151;}.cls-26{fill:url(#linear-gradient-11);}.cls-27{fill:url(#linear-gradient-12);}</style><linearGradient id="linear-gradient" x1="66.1" y1="444.98" x2="109.39" y2="444.98" gradientUnits="userSpaceOnUse"><stop offset="0" stop-color="#00ffaf"/><stop offset="0.06" stop-color="#00edad"/><stop offset="0.32" stop-color="#00a6a7"/><stop offset="0.55" stop-color="#006ea2"/><stop offset="0.75" stop-color="#00469f"/><stop offset="0.91" stop-color="#002d9d"/><stop offset="1" stop-color="#00249c"/></linearGradient><linearGradient id="linear-gradient-2" x1="106.23" y1="427.1" x2="148.27" y2="427.1" xlink:href="#linear-gradient"/><linearGradient id="linear-gradient-3" x1="75.38" y1="410.44" x2="120.63" y2="410.44" xlink:href="#linear-gradient"/><linearGradient id="linear-gradient-4" x1="380.31" y1="448.78" x2="395.19" y2="448.78" xlink:href="#linear-gradient"/><linearGradient id="linear-gradient-5" x1="398.29" y1="465.51" x2="414.58" y2="465.51" xlink:href="#linear-gradient"/><linearGradient id="linear-gradient-6" x1="369.96" y1="471.99" x2="391.54" y2="471.99" xlink:href="#linear-gradient"/><linearGradient id="linear-gradient-7" x1="232.58" y1="509.24" x2="269.03" y2="509.24" xlink:href="#linear-gradient"/><linearGradient id="linear-gradient-8" x1="158.96" y1="234.28" x2="234.1" y2="234.28" xlink:href="#linear-gradient"/><linearGradient id="linear-gradient-9" x1="248.44" y1="227.78" x2="318.66" y2="227.78" xlink:href="#linear-gradient"/><linearGradient id="linear-gradient-10" x1="29.05" y1="160.59" x2="112.64" y2="160.59" xlink:href="#linear-gradient"/><linearGradient id="linear-gradient-11" x1="419.51" y1="74" x2="443.52" y2="74" xlink:href="#linear-gradient"/><linearGradient id="linear-gradient-12" x1="64.51" y1="261.3" x2="87.11" y2="261.3" xlink:href="#linear-gradient"/></defs><g id="Layer_2" data-name="Layer 2"><g id="Layer_1-2" data-name="Layer 1"><path class="cls-1" d="M463.75,347.87S456.3,343.27,448,361,436.62,389,436.62,389s-2.23,3.74-4.83,1.42-6.25-9-10.52-7.61-5.69,6.41-4.6,13.64,2.89,23.19,3,24.62-.59,3.51-2.61,2.25-13.79-13.56-19.27-7.62.85,25.59,1.51,27.75.24,3.11-.77,3.7-4.58-3.93-8.08-7.28-8.06-6.56-11-2.94-3.34,18.62,11.69,42.34l7.66,10.52,13-1.17c27.75-4.17,38.74-14.29,39.65-18.87s-4.6-6-9.41-6.41-10.52-.21-10.79-1.35.23-2.07,2.34-3,21-9,22-17-16.07-8.93-18.37-9.6-1.17-2.63,0-3.44,14.43-9.89,20.61-13.8,9.12-8.18,7.32-12.4-9.17-2.5-12.62-3-2.07-4.58-2.07-4.58,5.71-9,13.72-26.88-.57-20.56-.57-20.56"/><path class="cls-2" d="M396.81,492.19c5.93-13.12,16.86-36.23,26.12-56.2s17.65-38,23.64-51c3-6.55,5.4-11.84,7.09-15.52l1.92-4.22.51-1.09.18-.37a.82.82,0,0,1-.15.38,9.24,9.24,0,0,0-.46,1.11c-.44,1-1.07,2.42-1.86,4.26-1.63,3.68-4,9-7,15.56-5.93,13.16-14.22,31.18-23.46,51.11s-20.24,43.05-26.23,56.09"/><path class="cls-2" d="M426.05,392.38a3.93,3.93,0,0,1,.37.87c.21.57.48,1.4.81,2.44.66,2.05,1.5,4.93,2.34,8.11l2.19,8.18c.27,1,.5,1.8.67,2.46a4.86,4.86,0,0,1,.23.91,3,3,0,0,1-.38-.86c-.2-.57-.48-1.4-.79-2.43-.64-2.07-1.44-5-2.34-8.18l-2.24-8.18c-.27-1-.51-1.81-.69-2.47A4.92,4.92,0,0,1,426.05,392.38Z"/><path class="cls-2" d="M433.85,415.48c0-.1,5.84-2.09,13-4.44S460,406.88,460.07,407s-5.84,2.1-13.05,4.44S433.91,415.59,433.85,415.48Z"/><path class="cls-2" d="M418.26,445.43a4.4,4.4,0,0,1,1-.08l2.61-.07c2.21-.07,5.25-.17,8.61-.42s6.39-.55,8.59-.81l2.59-.28a6.2,6.2,0,0,1,1-.07,3.8,3.8,0,0,1-.94.23c-.6.11-1.48.25-2.58.42-2.18.31-5.22.67-8.59.91s-6.43.31-8.64.3h-2.61A4.36,4.36,0,0,1,418.26,445.43Z"/><path class="cls-2" d="M406.57,426a3.76,3.76,0,0,1,.54.72l1.33,2c1.1,1.72,2.61,4.1,4.24,6.74s3.11,5.06,4.16,6.82l1.17,2.08a3.26,3.26,0,0,1,.4.79,3.31,3.31,0,0,1-.53-.7l-1.33-2c-1.11-1.72-2.61-4.1-4.25-6.76s-3.11-5.05-4.15-6.8L407,426.83A3.33,3.33,0,0,1,406.57,426Z"/><path class="cls-2" d="M389.44,450.73a7.53,7.53,0,0,1,.68.92l1.7,2.57c1.43,2.2,3.39,5.24,5.52,8.61s4.06,6.43,5.42,8.66l1.6,2.66a4.83,4.83,0,0,1,.54,1,6.46,6.46,0,0,1-.66-.92l-1.72-2.58c-1.43-2.19-3.38-5.23-5.52-8.6s-4.05-6.44-5.42-8.66l-1.6-2.66A6,6,0,0,1,389.44,450.73Z"/><path class="cls-2" d="M404.69,474.46a6.65,6.65,0,0,1,1.17-.13l3.31-.22c2.79-.18,6.65-.45,10.9-.87s8.09-.89,10.87-1.27l3.28-.42a6.62,6.62,0,0,1,1.17-.11,9,9,0,0,1-1.17.26c-.77.14-1.88.34-3.27.55-2.77.45-6.6,1-10.87,1.38s-8.12.66-10.92.77c-1.41,0-2.54.09-3.32.09A7.33,7.33,0,0,1,404.69,474.46Z"/><path class="cls-2" d="M103.43,261.68a1.52,1.52,0,0,1-.06-.42l-.09-1.25v-.91a6.68,6.68,0,0,0-.18-1.09,18,18,0,0,0-.55-2.7,24.72,24.72,0,0,0-2.92-6.93,25.9,25.9,0,0,0-31.19-11,23.27,23.27,0,0,0-6.57,3.53,27.83,27.83,0,0,0-2.93,2.5,29.13,29.13,0,0,0-2.56,3,25.14,25.14,0,0,0-3.7,7.14,28.36,28.36,0,0,0-1.35,8.18,27.7,27.7,0,0,0,1.35,8.18,25,25,0,0,0,3.7,7.14,23.8,23.8,0,0,0,5.44,5.53,27.12,27.12,0,0,0,3.17,2,28.34,28.34,0,0,0,3.39,1.49A26,26,0,0,0,99.62,275a25,25,0,0,0,2.92-6.93,19.29,19.29,0,0,0,.55-2.7c.07-.39.14-.75.18-1.09s0-.64,0-.91c0-.53.07-.93.09-1.25a1.52,1.52,0,0,1,.06-.42,2.94,2.94,0,0,1,0,.42v2.17c0,.34-.09.7-.14,1.17a19.2,19.2,0,0,1-.52,2.72,24.39,24.39,0,0,1-2.85,7,26.34,26.34,0,0,1-38.49,7.74,30.51,30.51,0,0,1-3-2.54,31.83,31.83,0,0,1-2.6-3.08A25.5,25.5,0,0,1,52,270a26.07,26.07,0,0,1,0-16.74,25.28,25.28,0,0,1,3.8-7.3,31.61,31.61,0,0,1,2.59-3.07,29.3,29.3,0,0,1,3-2.55,23.7,23.7,0,0,1,6.75-3.59,26.33,26.33,0,0,1,31.68,11.41,24.76,24.76,0,0,1,2.86,7,20.7,20.7,0,0,1,.51,2.72c0,.41.12.77.14,1.11s0,.65,0,.93v1.25A2.08,2.08,0,0,1,103.43,261.68Z"/><path class="cls-2" d="M153.05,236.55c0,.17-11.48,3.58-25.71,7.61s-25.86,7.19-25.91,7,11.48-3.56,25.71-7.6S153,236.39,153.05,236.55Z"/><path class="cls-1" d="M370.28,334.87a7.77,7.77,0,0,0,4.61-7.16,7.28,7.28,0,0,0-14.52-1.08,6.81,6.81,0,0,0,0,1,7.74,7.74,0,0,0,4.67,7.23c-11.17,1.68-10.66,13.82-10.66,13.82l26.41.12S381.35,336.54,370.28,334.87Z"/><path class="cls-1" d="M404.63,335.89a4.36,4.36,0,0,0-.06-.59c-.05-.38-.07-1-.11-1.73a7.27,7.27,0,0,0-.08-1.27c-.09-.47-.16-1-.24-1.52a25.3,25.3,0,0,0-.76-3.76,34.66,34.66,0,0,0-4-9.67,36.52,36.52,0,0,0-24.48-17,35.47,35.47,0,0,0-4.58-.52c-.79,0-1.57-.11-2.34-.08l-2.4.11a5.61,5.61,0,0,0-1.17.08l-1.17.19c-.8.13-1.62.22-2.43.4A38.53,38.53,0,0,0,356,301.9a37.65,37.65,0,0,0-4.68,2.08c-.76.41-1.49.89-2.25,1.35a19.15,19.15,0,0,0-2.18,1.5,33.39,33.39,0,0,0-7.65,7.68,35.17,35.17,0,0,0-5.17,10,35.79,35.79,0,0,0,0,22.82,35,35,0,0,0,5.17,10,42.55,42.55,0,0,0,3.51,4.19,39.15,39.15,0,0,0,4.11,3.5,17.91,17.91,0,0,0,2.17,1.51c.76.44,1.5.93,2.26,1.34a36.71,36.71,0,0,0,4.67,2.08,38.72,38.72,0,0,0,4.83,1.42c.81.16,1.62.26,2.43.4l1.17.18a5.61,5.61,0,0,1,1.17.08l2.39.12c.8,0,1.58-.06,2.34-.08a35.11,35.11,0,0,0,4.58-.54,35.83,35.83,0,0,0,15.25-6.75,36.31,36.31,0,0,0,9.23-10.29,34.57,34.57,0,0,0,4.05-9.65,28.13,28.13,0,0,0,.76-3.76c.08-.55.18-1,.23-1.52s.06-.89.08-1.28c0-.73.1-1.32.12-1.73a4.25,4.25,0,0,1,.06-.59v.59c0,.39,0,1-.06,1.75v1.27a13.43,13.43,0,0,1-.2,1.53,28.89,28.89,0,0,1-.71,3.8,34.67,34.67,0,0,1-4,9.77A36.68,36.68,0,0,1,375,372a31.82,31.82,0,0,1-4.67.55c-.8,0-1.59.11-2.4.1l-2.43-.12a7.25,7.25,0,0,1-1.23-.07l-1.22-.19c-.82-.14-1.65-.23-2.48-.39a38.13,38.13,0,0,1-4.9-1.43,38.55,38.55,0,0,1-4.8-2.1c-.77-.42-1.52-.9-2.34-1.36a20.84,20.84,0,0,1-2.22-1.53,33.88,33.88,0,0,1-7.78-7.8,35.29,35.29,0,0,1-5.26-10.13,36.3,36.3,0,0,1,0-23.21,35.61,35.61,0,0,1,5.26-10.12,40.53,40.53,0,0,1,3.61-4.25,41.18,41.18,0,0,1,4.17-3.51,19.87,19.87,0,0,1,2.22-1.53c.77-.45,1.52-.94,2.34-1.35a39.93,39.93,0,0,1,9.7-3.51c.83-.17,1.66-.27,2.48-.4l1.22-.18a7.31,7.31,0,0,0,1.23-.07l2.43-.13c.8,0,1.6.07,2.34.1a34.8,34.8,0,0,1,4.67.55,36.66,36.66,0,0,1,24.68,17.36,34.61,34.61,0,0,1,4,9.78,28.6,28.6,0,0,1,.71,3.78c.07.57.17,1.07.2,1.55v1.27a13.9,13.9,0,0,0,.06,1.74A4.73,4.73,0,0,0,404.63,335.89Z"/><path class="cls-2" d="M348.18,305.19c-.14.09-4.68-6.34-10.24-14.37s-9.88-14.6-9.74-14.7,4.68,6.34,10.24,14.37S348.32,305.09,348.18,305.19Z"/><path class="cls-2" d="M458.16,74.78a1.52,1.52,0,0,1-.06-.42,6.09,6.09,0,0,0-.1-1.24,6.06,6.06,0,0,0-.05-.92c-.06-.34-.11-.69-.18-1.09a19.29,19.29,0,0,0-.55-2.7,25,25,0,0,0-2.92-6.93,26,26,0,0,0-31.19-11,28.27,28.27,0,0,0-3.39,1.48A26,26,0,0,0,416.55,54a23.27,23.27,0,0,0-5.48,5.5,25.14,25.14,0,0,0-3.7,7.14,25.73,25.73,0,0,0,0,16.36,24.88,24.88,0,0,0,3.7,7.14,28,28,0,0,0,2.54,3,29.17,29.17,0,0,0,2.93,2.51,27.72,27.72,0,0,0,3.18,2,26.62,26.62,0,0,0,17,2.63,26,26,0,0,0,17.52-12.2,25,25,0,0,0,2.93-6.93,22.13,22.13,0,0,0,.56-2.69,10.74,10.74,0,0,1,.16-1.1c0-.34,0-.64.06-.91,0-.52.07-.93.09-1.24a2.12,2.12,0,0,1,.06-.43,3.09,3.09,0,0,1,0,.43v2.16c0,.33-.09.72-.14,1.17a21.13,21.13,0,0,1-.5,2.73,24.79,24.79,0,0,1-2.87,7,26.37,26.37,0,0,1-17.76,12.53,26.71,26.71,0,0,1-13.92-1.17,29.36,29.36,0,0,1-3.5-1.52A28.92,28.92,0,0,1,416.18,96a32,32,0,0,1-3-2.55,31.61,31.61,0,0,1-2.59-3.07,25.21,25.21,0,0,1-3.8-7.31,27.93,27.93,0,0,1-1.37-8.36,28.59,28.59,0,0,1,1.37-8.37,25.21,25.21,0,0,1,3.8-7.31A30.14,30.14,0,0,1,413.16,56a29.33,29.33,0,0,1,3-2.53,27.11,27.11,0,0,1,3.25-2.08,26.34,26.34,0,0,1,35.19,9.84,24.94,24.94,0,0,1,2.86,7A19.55,19.55,0,0,1,458,71c0,.4.12.76.14,1.1s0,.64,0,.92v1.25A2.37,2.37,0,0,1,458.16,74.78Z"/><path class="cls-2" d="M413.33,92.71c.1.13-24.36,20.27-54.64,45s-54.92,44.65-55,44.52,24.35-20.27,54.63-45S413.22,92.58,413.33,92.71Z"/><path class="cls-1" d="M208.21,48.28a5.81,5.81,0,0,1,0-.59c0-.42-.07-1-.12-1.73,0-.38-.06-.8-.08-1.27s-.15-1-.23-1.53a28,28,0,0,0-.77-3.75,35,35,0,0,0-4-9.67,36.37,36.37,0,0,0-24.48-17,35.08,35.08,0,0,0-4.58-.52c-.77,0-1.57-.11-2.34-.1l-2.39.13a5.57,5.57,0,0,0-1.17.08l-1.17.19c-.81.13-1.63.22-2.44.4a38,38,0,0,0-4.82,1.41,36.1,36.1,0,0,0-4.67,2.08c-.77.41-1.5.89-2.26,1.35a17.86,17.86,0,0,0-2.18,1.49,40.49,40.49,0,0,0-4.11,3.51,41.1,41.1,0,0,0-3.5,4.19,35.54,35.54,0,0,0-5.18,10,39.16,39.16,0,0,0-1.86,11.42,38.37,38.37,0,0,0,1.86,11.4,35.07,35.07,0,0,0,5.18,10,40.16,40.16,0,0,0,3.5,4.2,40.39,40.39,0,0,0,4.11,3.5,19.23,19.23,0,0,0,2.18,1.51c.76.44,1.49.92,2.26,1.34a38.28,38.28,0,0,0,9.49,3.5c.81.16,1.63.26,2.44.4l1.17.18a6.46,6.46,0,0,1,1.17.07l2.39.13a20.17,20.17,0,0,0,2.34-.09,32,32,0,0,0,4.57-.53,36.37,36.37,0,0,0,24.48-17,34.54,34.54,0,0,0,4-9.65,25.35,25.35,0,0,0,.78-3.76c.08-.55.18-1.05.23-1.52s.06-.9.08-1.28a15.27,15.27,0,0,1,.12-1.72q0-.3,0-.6v3.61a13.58,13.58,0,0,1-.21,1.53,24.61,24.61,0,0,1-.86,3.78,34,34,0,0,1-4,9.77,36.66,36.66,0,0,1-24.68,17.36,33.38,33.38,0,0,1-4.68.55c-.79,0-1.59.11-2.33.09L169,84.88a6.24,6.24,0,0,1-1.17-.07l-1.23-.19c-.82-.14-1.65-.23-2.47-.4a41.59,41.59,0,0,1-4.9-1.42,38,38,0,0,1-4.8-2.11c-.78-.42-1.53-.91-2.33-1.36a17.88,17.88,0,0,1-2.23-1.52,42.43,42.43,0,0,1-4.18-3.51,44.18,44.18,0,0,1-3.6-4.25,35.57,35.57,0,0,1-5.27-10.13A39.13,39.13,0,0,1,135,48.31a39.39,39.39,0,0,1,1.89-11.6,35.38,35.38,0,0,1,5.29-10.11,40.66,40.66,0,0,1,3.6-4.27,41.2,41.2,0,0,1,4.18-3.5,16.83,16.83,0,0,1,2.22-1.53c.76-.46,1.51-.95,2.34-1.37a34.18,34.18,0,0,1,9.65-3.61c.82-.18,1.65-.27,2.47-.4l1.22-.19a5.47,5.47,0,0,0,1.17-.08l2.43-.12c.81,0,1.6.07,2.34.11a33.24,33.24,0,0,1,4.67.55,36.62,36.62,0,0,1,24.68,17.35,34.58,34.58,0,0,1,4,9.81,24.46,24.46,0,0,1,.72,3.78c.07.56.16,1.07.21,1.53s0,.9,0,1.29v1.74A.93.93,0,0,0,208.21,48.28Z"/><path class="cls-2" d="M202.46,150.75c-.16,0-4.67-15.12-10.06-33.89s-9.63-34-9.47-34.07,4.68,15.19,10,33.89S202.6,150.72,202.46,150.75Z"/><g id="freepik--Floor--inject-137"><path class="cls-3" d="M503.62,472.68c0,.15-112.75.29-251.8.29S0,472.83,0,472.68s112.72-.29,251.82-.29S503.62,472.51,503.62,472.68Z"/></g><g id="freepik--Plants--inject-137"><path class="cls-4" d="M102.22,467.52c.9-3.45-1.37-6.92-3.91-9.42s-5.58-4.75-6.9-8.07c-2.14-5.37.73-12.32-2.91-16.8-2.15-2.64-6-3.5-7.92-6.33a14.76,14.76,0,0,1-1.71-5,51.11,51.11,0,0,0-12.71-23.78,44.44,44.44,0,0,0,5,22.93c1.48,2.82,3.29,5.55,3.78,8.69.8,5.11-2.05,10.37-.8,15.38,1.44,5.74,7.88,9.57,8.18,15.48.26,5-4.09,9.34-3.76,14.35a13.59,13.59,0,0,0,2.21,5.91c3.87,6.42,9.52,10.82,18.11,10.68l10.52.38Z"/><path class="cls-5" d="M102.22,467.52c.9-3.45-1.37-6.92-3.91-9.42s-5.58-4.75-6.9-8.07c-2.14-5.37.73-12.32-2.91-16.8-2.15-2.64-6-3.5-7.92-6.33a14.76,14.76,0,0,1-1.71-5,51.11,51.11,0,0,0-12.71-23.78,44.44,44.44,0,0,0,5,22.93c1.48,2.82,3.29,5.55,3.78,8.69.8,5.11-2.05,10.37-.8,15.38,1.44,5.74,7.88,9.57,8.18,15.48.26,5-4.09,9.34-3.76,14.35a13.59,13.59,0,0,0,2.21,5.91c3.87,6.42,9.52,10.82,18.11,10.68l10.52.38Z"/><path class="cls-6" d="M111.53,492.14a8.5,8.5,0,0,0,2.89-.05,18.45,18.45,0,0,0,3.42-.87,14.55,14.55,0,0,0,4.22-2.34,5.8,5.8,0,0,0,1.74-2.33,10.78,10.78,0,0,0,.49-3.14,29.91,29.91,0,0,1,.25-3.41,9.39,9.39,0,0,1,1.28-3.38c1.24-2.18,3.3-4.24,4-7.19s.21-6.07-.28-9.22-1-6.6.25-9.89,3.43-6.25,4.59-10,.61-7.77.85-11.69a15.55,15.55,0,0,1,1.37-5.84c.85-1.86,2-3.61,3-5.57,1.87-4,2.19-8.45,2.7-12.86q.38-3.33.76-6.72a33.4,33.4,0,0,1,1.17-6.73,61.14,61.14,0,0,1,2.51-6.51,21.2,21.2,0,0,0,1.23-3.4c.17-1.2.28-2.4.33-3.61a43.34,43.34,0,0,0-.28-7.29c-.29-2.42-.72-4.83-1-7.26v-.42l-.06-.49-.43.22a16,16,0,0,0-5.65,4.78,25.74,25.74,0,0,0-3.51,6.4c-1.75,4.53-2.34,9.26-3.27,13.78a37.6,37.6,0,0,1-4.33,12.73c-1.17,1.87-2.54,3.58-3.77,5.41a15,15,0,0,0-2.61,6c-.62,4.44,1.83,8.35,1.32,12.29a13.72,13.72,0,0,1-1.91,5.46c-1,1.68-2.08,3.23-3.15,4.8a31.43,31.43,0,0,0-2.83,4.86,15.27,15.27,0,0,0-1.29,5.27c-.25,3.51.25,6.91,0,10.09a23,23,0,0,1-2.6,8.64c-1.27,2.59-2.68,4.94-3.86,7.2-.6,1.17-1.17,2.25-1.61,3.36a17.94,17.94,0,0,0-.92,3.32,21.16,21.16,0,0,0-.07,6,15.28,15.28,0,0,0,3,7.66,6.79,6.79,0,0,0,.86.92,3.91,3.91,0,0,0,.69.59c.39.29.6.42.6.42a13.85,13.85,0,0,1-2-2,15.2,15.2,0,0,1-2.85-7.61,21,21,0,0,1,.13-5.92,16.46,16.46,0,0,1,.93-3.24c.45-1.09,1-2.19,1.6-3.31,1.17-2.25,2.63-4.58,3.93-7.19a23.47,23.47,0,0,0,2.69-8.8c.28-3.24-.21-6.61.06-10.08a14.76,14.76,0,0,1,1.26-5.1,31.43,31.43,0,0,1,2.79-4.75c1.06-1.56,2.21-3.13,3.19-4.83a14.1,14.1,0,0,0,2-5.69c.51-4.2-1.92-8.18-1.29-12.26a14.24,14.24,0,0,1,2.52-5.74c1.16-1.8,2.6-3.51,3.79-5.42a38.17,38.17,0,0,0,4.41-12.95c.9-4.55,1.53-9.23,3.26-13.66a24.82,24.82,0,0,1,3.38-6.24,15.5,15.5,0,0,1,5.43-4.58l-.49-.27v.42c.27,2.46.7,4.87,1,7.27a40.93,40.93,0,0,1,.27,7.17,34.14,34.14,0,0,1-.31,3.51,22.46,22.46,0,0,1-1.17,3.28,57.65,57.65,0,0,0-2.54,6.58,33.76,33.76,0,0,0-1.17,6.84q-.36,3.41-.73,6.73c-.5,4.42-.84,8.83-2.63,12.66-.89,1.9-2.07,3.67-2.95,5.59a16.08,16.08,0,0,0-1.41,6.06c-.23,4.05.3,8-.79,11.61s-3.39,6.57-4.55,10-.73,7-.22,10.12,1,6.25.34,9.05-2.61,4.87-3.88,7.11a9.68,9.68,0,0,0-1.3,3.51,28.25,28.25,0,0,0-.22,3.44,10.6,10.6,0,0,1-.46,3.06,5.65,5.65,0,0,1-1.62,2.21,14.28,14.28,0,0,1-4.13,2.33,17.78,17.78,0,0,1-3.36.92,12.93,12.93,0,0,1-2.14.21Z"/><path class="cls-3" d="M144.77,368.22a1.42,1.42,0,0,0-.11.33l-.23.95c-.21.83-.46,2.08-.86,3.63s-1.36,3.32-2.18,5.49-1.71,4.68-2.49,7.47-1.52,5.91-2.27,9.26a38.77,38.77,0,0,1-3.36,10.27c-.87,1.71-1.84,3.43-2.61,5.33a25.11,25.11,0,0,0-1.51,6,122.46,122.46,0,0,1-2.26,12.78c-2.12,8.62-4.13,16.83-6,24.31s-3.57,14.15-5,19.87-2.5,10.17-3.3,13.38c-.37,1.54-.65,2.76-.86,3.65-.1.38-.16.68-.21.94a.92.92,0,0,0,0,.33,1.18,1.18,0,0,0,.1-.3c.08-.26.16-.57.28-.95.24-.88.57-2.08,1-3.61.86-3.2,2-7.74,3.51-13.32s3.2-12.36,5.13-19.79l6-24.32a117.71,117.71,0,0,0,2.27-12.77,23.92,23.92,0,0,1,1.46-5.84c.74-1.85,1.7-3.57,2.56-5.3a39.5,39.5,0,0,0,3.36-10.43c.72-3.35,1.4-6.46,2.17-9.25s1.58-5.29,2.4-7.45a58.24,58.24,0,0,0,2.08-5.57c.38-1.61.56-2.84.72-3.68l.18-1A1.35,1.35,0,0,0,144.77,368.22Z"/><path class="cls-7" d="M113.38,492.18c6.87-4.08,8.84-16.48,6-23.95S111.47,454,110.7,446c-.6-6.11,1.41-12.39,0-18.37-1.93-8.06-9.81-14.32-9.71-22.6,0-4.68,2.7-9,2.49-13.69-.26-5.7-4.68-10.22-7.34-15.19-4.15-7.69-4.43-16.78-5.84-25.39S85.62,332.93,78,328.7C76.79,336,74.89,341,75.5,350.9c.22,3.51,4.36,10.38,4.92,18.19.34,4.67.57,9.35.85,14s.58,9.16,2.2,13.42c1.25,3.25,3.25,6.2,4.18,9.57,1.75,6.32-.54,13.17.86,19.57,1.17,5.44,4.95,10.11,5.71,15.62,1.09,7.72-3.92,15.76-1.35,23.13,1.26,3.67,4.27,6.61,5.13,10.38.66,2.93,0,6,.53,9,1,4.74,10,8.44,14.87,8.18"/><path class="cls-8" d="M79.84,335.89a1.48,1.48,0,0,0,0,.42,9.92,9.92,0,0,0,.16,1.17c.15,1,.33,2.6.69,4.61s1.42,4.29,2.25,7,1.75,5.85,2.52,9.41,1.45,7.43,2.14,11.63a48.44,48.44,0,0,0,3.5,13.15c1,2.19,2.05,4.39,2.85,6.73a30.37,30.37,0,0,1,1.45,7.43,153.72,153.72,0,0,0,2,16L103.35,444c1.93,9.35,3.66,17.8,5.12,24.9s2.66,12.76,3.5,16.77c.42,1.94.75,3.51,1,4.56l.28,1.17a1.82,1.82,0,0,0,.11.4,2.94,2.94,0,0,0,0-.42c-.06-.31-.13-.69-.21-1.17-.21-1.09-.5-2.62-.86-4.58-.79-4-1.91-9.75-3.3-16.82s-3.1-15.55-5-24.93-3.8-19.71-5.85-30.56a149.14,149.14,0,0,1-2-15.91,31.63,31.63,0,0,0-1.5-7.58c-.84-2.33-1.94-4.59-2.9-6.77-2.08-4.3-2.8-8.8-3.5-13S86.81,362,86,358.41A95.16,95.16,0,0,0,83.37,349c-.87-2.75-1.94-5-2.34-7s-.62-3.51-.82-4.59L80,336.23A1.75,1.75,0,0,0,79.84,335.89Z"/><path class="cls-9" d="M384.92,432.81a11.48,11.48,0,0,1,7.31,5.25,20.21,20.21,0,0,1,2.83,8.73c.67,5.94-1.27,12.53-3.75,18-5.84-3.13-8.67-10.28-9.87-14-1.91-5.85-1.78-17.66,3.5-17.93"/><path class="cls-10" d="M399.16,473a9.85,9.85,0,0,1,1-9.8,13.05,13.05,0,0,1,8.69-5.07,5.45,5.45,0,0,1,4.54.9,4.17,4.17,0,0,1,1,4.12,8.39,8.39,0,0,1-2.33,3.73c-3.62,3.62-7.78,6.46-12.86,6.12"/><path class="cls-8" d="M397,492.17a7.3,7.3,0,0,1-.11-1.23c0-.86-.08-2-.14-3.34a34.7,34.7,0,0,1,1-11,21.07,21.07,0,0,1,5.57-9.52,14.78,14.78,0,0,1,2.69-2c.34-.2.62-.31.81-.41s.29-.13.31-.11a22,22,0,0,0-3.6,2.77,21.7,21.7,0,0,0-5.37,9.41,37,37,0,0,0-1.06,10.9v3.35A6.34,6.34,0,0,1,397,492.17Z"/><path class="cls-8" d="M385.61,441.8a3.36,3.36,0,0,1,.18.5l.43,1.47c.37,1.28.87,3.14,1.48,5.44,1.17,4.59,2.8,11,4.41,18.05s2.88,13.54,3.76,18.21c.43,2.34.77,4.23,1,5.55.09.62.18,1.17.24,1.51a2.47,2.47,0,0,1,0,.54,4.42,4.42,0,0,1-.14-.52l-.31-1.5c-.28-1.36-.67-3.23-1.17-5.52-.95-4.67-2.34-11.09-3.89-18.17s-3.13-13.47-4.27-18.08c-.56-2.27-1-4.13-1.34-5.47-.15-.61-.27-1.1-.36-1.48A2.39,2.39,0,0,1,385.61,441.8Z"/><path class="cls-11" d="M391.54,478.46a22.94,22.94,0,0,0-16-13.63c-1.81-.41-4.06-.43-5.11,1.09s-.27,3.62.77,5.17a19.65,19.65,0,0,0,20.3,7.83"/><path class="cls-8" d="M377.61,470.19a4.64,4.64,0,0,1,1.17.21,8.43,8.43,0,0,1,1.31.35,15,15,0,0,1,1.71.59,21,21,0,0,1,2,.89,22.18,22.18,0,0,1,2.18,1.23,23.52,23.52,0,0,1,7.9,8.18,24,24,0,0,1,1.17,2.25,17.88,17.88,0,0,1,.78,2,16.14,16.14,0,0,1,.48,1.74,10.11,10.11,0,0,1,.27,1.33,5.12,5.12,0,0,1,.13,1.17c-.09,0-.29-1.63-1.17-4.11a20.47,20.47,0,0,0-.82-2,18.54,18.54,0,0,0-1.17-2.2,25.26,25.26,0,0,0-3.41-4.5,26.36,26.36,0,0,0-4.36-3.59,24.35,24.35,0,0,0-2.18-1.22c-.64-.35-1.29-.65-2-.93C379.22,470.61,377.59,470.27,377.61,470.19Z"/></g><g id="freepik--character-4--inject-137"><path class="cls-3" d="M383.66,205.15c0,.17-13.09,3.8-29.34,8.18s-29.45,7.7-29.48,7.54,13.09-3.8,29.33-8.18S383.6,205,383.66,205.15Z"/><circle class="cls-8" cx="429.13" cy="194.72" r="60.63"/><path class="cls-3" d="M493.32,193.71a9,9,0,0,0-.08-1c-.08-.65-.1-1.64-.18-2.9,0-.63-.07-1.34-.11-2.13s-.25-1.62-.39-2.54-.3-1.92-.47-3a8.31,8.31,0,0,0-.35-1.63l-.44-1.7a57.66,57.66,0,0,0-6.74-16.19,60.4,60.4,0,0,0-15.44-17.23l-2.63-2c-.93-.61-1.89-1.17-2.85-1.75a31.27,31.27,0,0,0-2.91-1.76l-3.15-1.51-1.6-.76-1.69-.61-3.41-1.25c-1.17-.39-2.34-.63-3.58-1a30.89,30.89,0,0,0-3.67-.83,58.28,58.28,0,0,0-7.68-.9c-1.31,0-2.63-.16-4-.15l-4,.21a10.66,10.66,0,0,0-2,.13l-2,.31c-1.36.22-2.73.39-4.08.67a60,60,0,0,0-8.1,2.34l-2,.73c-.34.13-.68.24-1,.38l-1,.46-3.91,1.9c-1.29.7-2.51,1.5-3.78,2.25-.62.4-1.28.74-1.88,1.17l-1.79,1.33a70.87,70.87,0,0,0-6.88,5.85l-3.07,3.4-.79.85-.69.92-1.39,1.86-1.4,1.87-1.17,2-1.22,2-.61,1c-.19.34-.34.71-.52,1.06L376.59,170,375,174.45a60.16,60.16,0,0,0,0,38.29c.55,1.49,1.1,3,1.65,4.48l2,4.28.53,1.07.61,1,1.17,2,1.22,2,1.39,1.87,1.39,1.86.71.92.77.85c1,1.17,2.07,2.27,3.08,3.4a69.81,69.81,0,0,0,6.89,5.85l1.78,1.33c.6.44,1.25.78,1.89,1.17,1.26.76,2.48,1.56,3.77,2.25l3.91,1.9,1,.48,1,.37,2,.74a65.12,65.12,0,0,0,8.1,2.33c1.36.28,2.73.45,4.08.67l2,.3c.68.1,1.36.1,2,.14l4,.2c1.32,0,2.64-.1,3.95-.15a56.44,56.44,0,0,0,7.68-.89,30.45,30.45,0,0,0,3.67-.83c1.17-.33,2.42-.57,3.58-1l3.42-1.25,1.68-.6,1.6-.78,3.16-1.5c1.05-.48,2-1.17,3-1.72s1.94-1.17,2.86-1.75l2.62-2a60.76,60.76,0,0,0,15.45-17.24,58,58,0,0,0,6.73-16.19l.44-1.71a8.71,8.71,0,0,0,.35-1.61c.17-1.06.33-2.06.47-3s.3-1.76.39-2.55.08-1.49.11-2.13c.08-1.25.14-2.22.18-2.89s.08-1,.08-1v1c0,.65-.07,1.64-.12,2.9a18.25,18.25,0,0,1-.09,2.14c-.09.78-.23,1.63-.36,2.56s-.28,1.91-.44,3a11.21,11.21,0,0,1-.33,1.63c-.14.55-.28,1.17-.44,1.71a58,58,0,0,1-6.67,16.3,60.63,60.63,0,0,1-15.47,17.41l-2.64,2c-.94.62-1.91,1.17-2.88,1.77a27.39,27.39,0,0,1-3,1.75l-3.16,1.53-1.62.77-1.69.62L451,251.84c-1.17.4-2.34.64-3.6,1a29.13,29.13,0,0,1-3.7.84,56,56,0,0,1-7.74.93c-1.32,0-2.65.17-4,.15l-4-.2a10.81,10.81,0,0,1-2.05-.13l-2-.3c-1.37-.23-2.76-.39-4.12-.67a64.18,64.18,0,0,1-8.18-2.34l-2-.73c-.34-.13-.69-.25-1-.39l-1-.47-4-1.83c-1.29-.7-2.53-1.52-3.82-2.34-.62-.4-1.29-.73-1.89-1.17l-1.8-1.35A65.78,65.78,0,0,1,389,237c-1-1.16-2.08-2.27-3.12-3.43l-.79-.85-.71-.94-1.4-1.88-1.4-1.88-1.24-2-1.24-2-.61-1-.53-1.08-2.09-4.32c-.7-1.45-1.1-3-1.66-4.54a60.85,60.85,0,0,1,0-38.65c.56-1.52,1.17-3,1.67-4.55l2.08-4.31c.18-.36.34-.73.53-1.08l.62-1,1.23-2,1.24-2,1.41-1.88,1.4-1.88.7-.92.79-.87,3.12-3.42a67.47,67.47,0,0,1,6.95-5.9l1.8-1.35c.6-.45,1.27-.79,1.89-1.17,1.29-.76,2.53-1.57,3.82-2.33l4-1.91,1-.47c.32-.14.68-.25,1-.38l2-.74a64.18,64.18,0,0,1,8.18-2.34c1.37-.28,2.76-.44,4.12-.66l2-.32c.67-.08,1.36-.08,2-.13l4.06-.19c1.34,0,2.67.11,4,.16a57.68,57.68,0,0,1,7.75.91,32.9,32.9,0,0,1,3.69.85c1.17.33,2.45.59,3.61,1l3.44,1.27,1.69.63c.55.24,1.09.51,1.62.77l3.18,1.53c1.05.48,2,1.17,3,1.73s1.94,1.17,2.86,1.77l2.64,2a60.63,60.63,0,0,1,15.47,17.41,58,58,0,0,1,6.69,16.3l.43,1.72a11.23,11.23,0,0,1,.34,1.63c.15,1.06.3,2.07.43,3s.29,1.76.36,2.56.06,1.49.1,2.14c0,1.26.08,2.22.11,2.89S493.32,193.71,493.32,193.71Z"/><path class="cls-3" d="M387,234.37s7.71-8.51,9.7-9.49,19.44-5.67,19.44-5.67l27.72-1.63,29.59,12.73s3.83,2.8,4.41,4.54C478.49,235.84,434.23,279.61,387,234.37Z"/><path class="cls-3" d="M404.43,146.11c4.68-1.27,9.41,3.07,14.21,2.34,2.93-.48,5.19-2.71,7.82-4.07a14.93,14.93,0,0,1,13.23-.1c3.88,2.14,6.35,4.36,6.73,8.76,3.66-1.94,9.49,2.78,11.37,7.2s1.23,8.91-.08,13.53a63.59,63.59,0,0,1-11.25,22c-.46.57-1.17,1.17-1.83.86-.45-.22-.58-.8-.64-1.31-.55-4.29.14-8.62.66-12.91s.85-8.73-.38-12.86-4.3-8-8.51-9a13.68,13.68,0,0,0-9.24,1.66c-2.83,1.46-5.35,3.5-8.06,5.16a17.62,17.62,0,0,1-8.93,3.11c-3.2,0-6.57-1.59-7.83-4.52s.4-7,3.51-7.54a6.27,6.27,0,0,1-.85-12.29Z"/><path class="cls-12" d="M451,174.86l-6.25,48.07a14.42,14.42,0,0,1-16.18,12.43l-.69-.1h0a14.43,14.43,0,0,1-11.69-16.08c.47-3.63.85-6.64.88-7,0,0-12.09-2.74-11.4-15,.34-5.91,2-18,3.66-29a22.83,22.83,0,0,1,24.14-19.36l1.17.08C447.26,150.59,453,162.25,451,174.86Z"/><path class="cls-13" d="M417,212a28.44,28.44,0,0,0,16.24-3.43s-4.37,8.54-16.49,6.59Z"/><path class="cls-3" d="M412.24,177a1.75,1.75,0,0,0,1.55,1.89,1.7,1.7,0,0,0,1.92-1.45h0a1.76,1.76,0,0,0-1.56-1.89,1.67,1.67,0,0,0-1.9,1.41Z"/><path class="cls-3" d="M411.49,174.42c.2.24,1.59-.65,3.51-.5s3.19,1.16,3.41.94-.08-.51-.65-1a4.74,4.74,0,0,0-2.71-1,4.5,4.5,0,0,0-2.79.69C411.64,173.92,411.39,174.31,411.49,174.42Z"/><path class="cls-3" d="M430,178.71a1.75,1.75,0,0,0,1.56,1.87,1.67,1.67,0,0,0,1.9-1.41v0a1.75,1.75,0,0,0-1.56-1.87,1.68,1.68,0,0,0-1.91,1.39Z"/><path class="cls-3" d="M429.92,176.05c.21.24,1.6-.65,3.51-.51s3.19,1.17,3.41,1-.08-.52-.65-1a4.84,4.84,0,0,0-2.72-1,4.55,4.55,0,0,0-2.78.69C430.05,175.54,429.83,175.94,429.92,176.05Z"/><path class="cls-3" d="M422.16,189.5a13.56,13.56,0,0,0-3-.76c-.48-.08-.93-.21-1-.53a2.33,2.33,0,0,1,.42-1.4c.52-1.17,1.08-2.34,1.67-3.51,2.33-5.07,4-9.24,3.84-9.35s-2.27,3.94-4.59,9l-1.61,3.59a2.79,2.79,0,0,0-.38,1.85,1.17,1.17,0,0,0,.74.76,3.66,3.66,0,0,0,.81.18A11.87,11.87,0,0,0,422.16,189.5Z"/><path class="cls-3" d="M427.58,191.19c-.3,0-.44,2-2.33,3.33s-4,.94-4,1.23.45.43,1.36.52a5.11,5.11,0,0,0,3.37-.92,4.47,4.47,0,0,0,1.79-2.8C427.92,191.7,427.72,191.19,427.58,191.19Z"/><path class="cls-3" d="M430,168.66c.15.52,2,.41,4.23.83s3.92,1.16,4.25.7c.14-.21-.13-.72-.82-1.26a7.16,7.16,0,0,0-3.1-1.33,7.08,7.08,0,0,0-3.36.17C430.34,168,429.89,168.41,430,168.66Z"/><path class="cls-3" d="M412.56,169c.3.46,1.62.11,3.17.19s2.86.49,3.2.06c.15-.21,0-.65-.59-1.09a4.61,4.61,0,0,0-5.13-.2C412.64,168.39,412.43,168.82,412.56,169Z"/><path class="cls-12" d="M449.37,183.85c.22-.08,8.56-1.91,7.72,6.43s-9,5.77-9,5.54S449.37,183.85,449.37,183.85Z"/><path class="cls-13" d="M450.93,192.91a2.84,2.84,0,0,0,.37.25,1.5,1.5,0,0,0,1.08.13,3.59,3.59,0,0,0,2-3,5,5,0,0,0-.19-2.13,1.71,1.71,0,0,0-1-1.22.76.76,0,0,0-.9.31c-.14.22-.1.4-.14.41s-.17-.16-.07-.5a1,1,0,0,1,.39-.49,1.15,1.15,0,0,1,.81-.13,2.08,2.08,0,0,1,1.4,1.45,5,5,0,0,1,.26,2.34c-.22,1.67-1.23,3.16-2.49,3.38a1.51,1.51,0,0,1-1.29-.35C450.92,193.12,450.9,192.92,450.93,192.91Z"/><path class="cls-3" d="M406.86,165.52a17.65,17.65,0,0,0,15.93-2.44c3.15-2.34,5.69-5.78,9.49-6.67a10,10,0,0,1,7.53,1.55,19.5,19.5,0,0,1,5.39,5.69c-2.8,6.06-1.69,13.09-.52,19.66a3.32,3.32,0,0,0,.83,2c.94.83,2.47.34,3.39-.5a10.5,10.5,0,0,0,2.64-5.3,34.41,34.41,0,0,0,.85-13.55,23.35,23.35,0,0,0-5.62-12.26,22.23,22.23,0,0,0-15.13-6.95,27.28,27.28,0,0,0-16.19,4.55,16.2,16.2,0,0,0-5.54,5.56"/><path class="cls-14" d="M400.72,148.81a1.8,1.8,0,0,0,0,.73,3.33,3.33,0,0,0,1,1.81,5.44,5.44,0,0,0,3.05,1.25,9.13,9.13,0,0,0,2.09,0,4.75,4.75,0,0,0,2.2-.84,3,3,0,0,0,1.17-2.34,2.61,2.61,0,0,0-1.63-2.25,3.21,3.21,0,0,0-1.49-.3,2.73,2.73,0,0,0-1.48.54,3.79,3.79,0,0,0-1.45,2.84,4.45,4.45,0,0,0,1.1,3.16,6.78,6.78,0,0,0,2.91,1.92,11,11,0,0,0,7.2-.28,31,31,0,0,0,6.44-3.29,38.44,38.44,0,0,1,5.84-3.19,12.5,12.5,0,0,1,5.85-1,11.75,11.75,0,0,1,5,1.74,14.82,14.82,0,0,1,5.2,5.41c.45.79.74,1.43.94,1.86s.29.66.3.66,0-.06,0-.18a2.12,2.12,0,0,0-.17-.51,19.21,19.21,0,0,0-.88-1.9,14.68,14.68,0,0,0-5.19-5.59,12,12,0,0,0-5-1.72,12.92,12.92,0,0,0-6,1,40.85,40.85,0,0,0-5.93,3.2,30.2,30.2,0,0,1-6.35,3.25,10.6,10.6,0,0,1-6.92.29,6.18,6.18,0,0,1-2.75-1.8,4.08,4.08,0,0,1-1-2.87,3.54,3.54,0,0,1,1.29-2.56,2.49,2.49,0,0,1,2.6-.23,2.22,2.22,0,0,1,1.45,1.94,2.63,2.63,0,0,1-1.06,2.05,4.13,4.13,0,0,1-2.05.81,9.74,9.74,0,0,1-2,0,5.26,5.26,0,0,1-3-1.17,3.3,3.3,0,0,1-1.07-1.69A5.84,5.84,0,0,1,400.72,148.81Z"/><path class="cls-14" d="M458.82,167.55a14.24,14.24,0,0,1-2.59.48,7.12,7.12,0,0,1-2.78-.48,12.14,12.14,0,0,1-3-1.73,9.73,9.73,0,0,1-3.38-5.24,20.93,20.93,0,0,1-.38-2.62,1.93,1.93,0,0,0-.1.72,9.33,9.33,0,0,0,.19,2,9.48,9.48,0,0,0,3.41,5.49,11.7,11.7,0,0,0,3.16,1.77,7.07,7.07,0,0,0,2.92.41,6.52,6.52,0,0,0,1.94-.45A2.14,2.14,0,0,0,458.82,167.55Z"/><path class="cls-14" d="M458,173.56c0-.08-1,.07-2.56-.12a11.48,11.48,0,0,1-9.35-7.12c-.6-1.46-.71-2.46-.78-2.44s0,.25,0,.7a9.57,9.57,0,0,0,.48,1.84,11.1,11.1,0,0,0,3.69,5.06,11.31,11.31,0,0,0,5.84,2.25,8.71,8.71,0,0,0,1.91,0A1.88,1.88,0,0,0,458,173.56Z"/><path class="cls-13" d="M435.61,184.47a.21.21,0,0,0,.26-.16h0a.22.22,0,0,0-.14-.28.24.24,0,0,0-.12.45Z"/><path class="cls-13" d="M432.08,183.4a.27.27,0,0,0,.14-.5.23.23,0,0,0-.26.2h0a.22.22,0,0,0,.1.3Z"/><path class="cls-13" d="M429.68,183.19c.1,0,.22-.1.27-.29s0-.35-.15-.37-.23.11-.26.3S429.56,183.19,429.68,183.19Z"/><path class="cls-13" d="M433.7,186.59c.11,0,.21,0,.21-.11s-.08-.14-.19-.15-.22,0-.22.11S433.58,186.58,433.7,186.59Z"/><path class="cls-13" d="M430.46,185.6a.22.22,0,0,0,.24-.19h0a.2.2,0,0,0-.2-.21.22.22,0,0,0-.22.21h0A.22.22,0,0,0,430.46,185.6Z"/><path class="cls-13" d="M413.47,182.38a.22.22,0,0,0,.26-.17h0a.21.21,0,0,0-.19-.23.2.2,0,0,0-.23.18A.22.22,0,0,0,413.47,182.38Z"/><path class="cls-13" d="M411,182a.23.23,0,0,0,.25-.21v0a.25.25,0,0,0-.16-.29.26.26,0,0,0-.25.22C410.86,181.84,410.93,182,411,182Z"/><path class="cls-13" d="M415.63,182.59a.19.19,0,0,0,.24-.11h0a.21.21,0,0,0-.39-.13h0A.2.2,0,0,0,415.63,182.59Z"/><path class="cls-13" d="M413.64,184.91a.21.21,0,0,0,.29-.11h0a.23.23,0,0,0-.06-.31h0a.25.25,0,0,0-.22.43Z"/><path class="cls-13" d="M411.64,184.36a.18.18,0,0,0,.17-.2v0a.21.21,0,0,0-.4.08A.19.19,0,0,0,411.64,184.36Z"/><path class="cls-3" d="M454.12,195.41a4.91,4.91,0,0,1,.1,1.91,2.76,2.76,0,0,1-1,1.69,2.56,2.56,0,0,1-2.34.44,2.34,2.34,0,0,1-1.52-1.74,3,3,0,0,1,.48-1.92,4.15,4.15,0,0,1,1.32-1.38c0-.07-.86.14-1.56,1.17a3.11,3.11,0,0,0-.61,2.14,2.62,2.62,0,0,0,1.75,2.07,2.84,2.84,0,0,0,2.67-.53,2.91,2.91,0,0,0,1.08-1.94,3.23,3.23,0,0,0-.14-1.48C454.25,195.56,454.15,195.39,454.12,195.41Z"/><path class="cls-3" d="M454.19,194a.86.86,0,0,0-.5.54,1.18,1.18,0,0,0,.58,1.55l.15,0a1.19,1.19,0,0,0,1.05-.17,1,1,0,0,0,.36-.8c0-.51-.37-.68-.39-.63a1.47,1.47,0,0,1,.1.62.7.7,0,0,1-.29.5.89.89,0,0,1-.71.1,1,1,0,0,1-.51-.51,1.12,1.12,0,0,1,0-.63C454.05,194.24,454.24,194,454.19,194Z"/></g><g id="freepik--character-3--inject-137"><path class="cls-3" d="M318.61,89a1.22,1.22,0,0,1,.09.73,13.46,13.46,0,0,1-.34,2.08c-.4,1.77-1.16,4.31-2.15,7.39-2,6.2-5.09,14.65-8.64,23.91s-6.87,17.62-9.35,23.63c-1.17,3-2.22,5.37-3,7.12-.34.78-.62,1.43-.83,1.93a3.09,3.09,0,0,1-.34.65,4.41,4.41,0,0,1,.23-.7l.72-2c.69-1.78,1.62-4.21,2.77-7.19l9.16-23.7c3.51-9.26,6.68-17.68,8.8-23.81,1.05-3.08,1.86-5.58,2.34-7.33a16,16,0,0,0,.44-2A3.49,3.49,0,0,0,318.61,89Z"/><circle class="cls-8" cx="328.22" cy="48.29" r="48.03"/><path class="cls-3" d="M359.65,68.67c.59-3.9,2.62-7.46,3.23-11.35.65-4.15-.36-8.37-1.47-12.42-2.08-7.57-4.68-15.29-9.9-21.13s-13.82-9.35-21.17-6.61l-7.74,6.73c-5.4,1.39-8.73,6.76-10.74,12s-3.39,10.88-7.17,15c-2.34,2.59-5.84,4.75-6.18,8.18s2.24,6.93.6,9.86c-1.25,2.23-4.4,2.75-5.85,4.9-1.55,2.41.94,8.45.94,8.45s20.19,23,53.36,10c6.94-2.73,10.51-6,15.6-11.14A15.84,15.84,0,0,1,359.65,68.67Z"/><path class="cls-15" d="M300.62,88l15.87-4.6,26.12-1.34,16,3.75s-12.06,10.9-31.8,10.42a50.61,50.61,0,0,1-26.15-8.18"/><path class="cls-4" d="M311.42,20.56A20.13,20.13,0,0,1,326,13.4c7.82-.71,16.3,1.29,22.21,6.45,5.42,4.75,8.06,12.09,8.39,19.29a18.53,18.53,0,0,1-1.73,7.32,13.52,13.52,0,0,1-6.23,6.27c-2.34,1-3.21.16-5-1.66a11,11,0,0,1-2.16-4.14c-2.27-6.17-4.92-12.3-9.14-17.34s-10.24-8.84-16.79-9.19"/><path class="cls-3" d="M307.27,34.3a15.68,15.68,0,0,1,4.15-13.74,20.37,20.37,0,0,1,9.82-5.19A22.14,22.14,0,0,1,336,16.44c4.54,2.19,8.09,6.71,8.34,11.69.11,2.28-.42,4.67.2,6.84a5,5,0,0,1,.44,2.88,2.34,2.34,0,0,1-2.13,1.45,5.22,5.22,0,0,1-2.62-.67A28.38,28.38,0,0,1,333,32.87"/><path class="cls-12" d="M341.81,29.05l-21.75-6.73c-7-1.17-12.17,7.33-13,14.39-.92,7.85-1.71,17.46-1.09,23.37C307.25,72,316.21,74,316.21,74s0,2.79-.07,6.09a13,13,0,0,0,12.71,13.25,12.79,12.79,0,0,0,3.48-.4l.55-.15a13.1,13.1,0,0,0,9.29-11.68l3.13-47.63A4.17,4.17,0,0,0,341.81,29.05Z"/><path class="cls-3" d="M310,45.06a1.52,1.52,0,0,0,1.38,1.61A1.46,1.46,0,0,0,313,45.41v0a1.52,1.52,0,0,0-1.38-1.61A1.45,1.45,0,0,0,310,45Z"/><path class="cls-3" d="M308.9,41.79c.17.21,1.37-.57,3-.49s2.78,1,3,.78-.08-.45-.58-.86a4.25,4.25,0,0,0-2.34-.87,4,4,0,0,0-2.41.65C309,41.39,308.81,41.79,308.9,41.79Z"/><path class="cls-3" d="M325.56,46a1.52,1.52,0,0,0,1.38,1.61,1.46,1.46,0,0,0,1.64-1.26v0a1.53,1.53,0,0,0-1.38-1.62,1.46,1.46,0,0,0-1.63,1.27Z"/><path class="cls-3" d="M324.9,43c.17.21,1.36-.59,3-.49s2.78,1,3,.78-.08-.45-.59-.86a4.12,4.12,0,0,0-2.33-.87,4,4,0,0,0-2.41.64C325,42.53,324.82,42.88,324.9,43Z"/><path class="cls-3" d="M318.35,54.75a10.24,10.24,0,0,0-2.61-.62c-.43-.07-.81-.17-.87-.45a2.09,2.09,0,0,1,.35-1.17l1.39-3.11a56.15,56.15,0,0,0,3.2-8.18c-.18-.07-1.9,3.5-3.84,7.86l-1.32,3.12a2.38,2.38,0,0,0-.29,1.63,1,1,0,0,0,.65.64,2.79,2.79,0,0,0,.7.13A11.68,11.68,0,0,0,318.35,54.75Z"/><path class="cls-13" d="M316.21,74a30,30,0,0,0,16-3.39s-4.3,8.18-16.06,6.49Z"/><path class="cls-13" d="M318.83,58.71a3,3,0,0,1,2.69-1,2.74,2.74,0,0,1,1.8,1.09,1.67,1.67,0,0,1,0,1.95,2,2,0,0,1-2.16.43,6,6,0,0,1-2-1.35,2,2,0,0,1-.45-.5.56.56,0,0,1,0-.61"/><path class="cls-3" d="M323.09,56.13c-.26,0-.37,1.73-1.94,2.91s-3.45.88-3.51,1.17.4.36,1.17.42a4.44,4.44,0,0,0,2.9-.84,3.81,3.81,0,0,0,1.5-2.45C323.39,56.57,323.21,56.12,323.09,56.13Z"/><path class="cls-3" d="M324.89,38c.14.45,1.77.32,3.67.66s3.42.93,3.69.55c.13-.18-.12-.62-.73-1.07a5.91,5.91,0,0,0-2.7-1.11,6.24,6.24,0,0,0-2.91.18C325.17,37.49,324.83,37.82,324.89,38Z"/><path class="cls-3" d="M309.75,34.78c.26.38,1.4,0,2.76.1s2.48.39,2.76,0c.13-.18,0-.56-.52-.93a4,4,0,0,0-4.45-.11C309.81,34.17,309.64,34.54,309.75,34.78Z"/><path class="cls-12" d="M340.92,53.06c0-.88,1.17-2.9,2-3,2.34-.25,6.51.16,6.24,6.05-.37,8.05-8.37,6-8.37,5.84S340.74,56.09,340.92,53.06Z"/><path class="cls-13" d="M343.42,59a2.31,2.31,0,0,0,.36.22,1.37,1.37,0,0,0,1.05.07,3.49,3.49,0,0,0,1.76-3,4.86,4.86,0,0,0-.31-2,1.64,1.64,0,0,0-1-1.17.72.72,0,0,0-.84.35c-.13.22-.09.39-.13.4s-.17-.15-.08-.48a.88.88,0,0,1,.34-.49,1.07,1.07,0,0,1,.78-.16A2,2,0,0,1,346.76,54a4.75,4.75,0,0,1,.39,2.26c-.13,1.63-1,3.11-2.21,3.39a1.49,1.49,0,0,1-1.27-.27C343.42,59.18,343.4,59,343.42,59Z"/><path class="cls-3" d="M319,20.87a11,11,0,0,0,6.85,8.94c2,.76,4.38,1.1,5.45,2.91s.2,4.38,1.17,6.29c1.41,2.63,5.72,2.82,6.71,5.63.42,1.24,0,2.64.5,3.87a3.73,3.73,0,0,0,4.32,2,5.94,5.94,0,0,0,3.76-3.35,15.91,15.91,0,0,0,1.23-5,28.66,28.66,0,0,0-.12-10.2c-1.65-6.95-10.87-17-18-17"/><path class="cls-3" d="M376.24,48.28a6.59,6.59,0,0,0-.07-.78c-.08-.51-.09-1.29-.16-2.33,0-.51-.06-1.07-.09-1.69s-.2-1.28-.3-2-.25-1.49-.38-2.33a23.24,23.24,0,0,0-.63-2.62,45.7,45.7,0,0,0-5.32-12.74,47.53,47.53,0,0,0-12.16-13.54l-2.07-1.55c-.72-.46-1.48-.91-2.24-1.37A21.56,21.56,0,0,0,350.48,6L348,4.8l-1.26-.59-1.32-.48-2.72-1c-.93-.31-1.87-.5-2.82-.76a28.33,28.33,0,0,0-2.9-.66,46,46,0,0,0-6-.69c-1,0-2.07-.14-3.11-.12l-3.15.16a8.66,8.66,0,0,0-1.61.1L321.56,1c-1.07.18-2.16.3-3.22.53A48.9,48.9,0,0,0,312,3.44a47.23,47.23,0,0,0-6.23,2.73c-1,.55-2,1.17-3,1.78-.5.31-1,.57-1.49.93l-1.4,1a51.64,51.64,0,0,0-5.41,4.61L292,17.25l-.61.68-.54.72-1.09,1.46-1.1,1.47-1,1.51-1,1.58-.48.79-.41.85-1.61,3.36-1.3,3.51a51,51,0,0,0-2.46,15.06,51.32,51.32,0,0,0,2.45,15.06l1.3,3.51,1.62,3.37.41.84.48.79,1,1.58,1,1.57,1.1,1.47,1.1,1.46.54.72.61.68L294.44,82a53.87,53.87,0,0,0,5.41,4.6l1.41,1.05c.46.35,1,.62,1.48.94,1,.58,2,1.23,3,1.77a51.61,51.61,0,0,0,6.23,2.74,50,50,0,0,0,6.37,1.87c1.06.22,2.15.34,3.21.51l1.59.25c.53.07,1.06.07,1.6.1l3.16.17c1.05,0,2.08-.08,3.12-.12a45.61,45.61,0,0,0,6-.7,25.53,25.53,0,0,0,2.88-.65c.95-.26,1.91-.46,2.82-.75l2.69-1,1.32-.5,1.26-.59,2.49-1.17c.8-.41,1.58-.86,2.34-1.34s1.52-.9,2.25-1.38l2.06-1.55a47.66,47.66,0,0,0,12.17-13.56,45.37,45.37,0,0,0,5.31-12.74,23.77,23.77,0,0,0,.63-2.62c.13-.83.26-1.61.38-2.34s.23-1.39.3-2,.07-1.16.09-1.67c.07-1,.12-1.75.16-2.33a6.51,6.51,0,0,1,.07-.79V49c0,.51,0,1.29-.08,2.33a12.82,12.82,0,0,1-.08,1.7c-.07.62-.18,1.28-.28,2s-.22,1.52-.33,2.33a26.12,26.12,0,0,1-.61,2.65,45.74,45.74,0,0,1-5.26,12.85,48,48,0,0,1-12.19,13.74l-2.1,1.6c-.74.5-1.51.93-2.27,1.41A20.1,20.1,0,0,1,350.71,91l-2.5,1.17-1.27.61-1.33.49-2.72,1c-.92.32-1.89.52-2.85.78a24.18,24.18,0,0,1-2.92.66,43,43,0,0,1-6.1.73c-1,0-2.09.14-3.14.13l-3.2-.16a8.82,8.82,0,0,1-1.62-.1L321.45,96c-1.08-.17-2.16-.29-3.25-.51a53.86,53.86,0,0,1-6.44-1.88,52,52,0,0,1-6.31-2.76c-1-.56-2-1.17-3-1.8-.49-.32-1-.58-1.5-.94l-1.48-1A54.35,54.35,0,0,1,294,82.42l-2.47-2.7-.61-.67-.56-.74-1.06-1.46-1.17-1.49-1-1.58-.92-1.61-.48-.8-.42-.84c-.54-1.17-1.09-2.27-1.64-3.42l-1.32-3.57a51.89,51.89,0,0,1-2.49-15.19,51.26,51.26,0,0,1,2.5-15.2c.43-1.16.88-2.33,1.31-3.57l1.65-3.41.41-.85.49-.8,1-1.6,1-1.59,1.17-1.49,1.09-1.48.57-.74.61-.67,2.46-2.7a52,52,0,0,1,5.49-4.68L301,8.51c.47-.36,1-.63,1.49-1,1-.59,2-1.24,3-1.79A49.14,49.14,0,0,1,311.8,3a48.67,48.67,0,0,1,6.35-2c1.09-.22,2.18-.35,3.25-.53L323,.26c.53-.07,1.07-.06,1.61-.1l3.2-.16c1.05,0,2.1.09,3.14.13a44.53,44.53,0,0,1,6.1.72,24.37,24.37,0,0,1,2.93.67c.95.27,1.91.47,2.84.77l2.72,1,1.33.49,1.27.6,2.51,1.17c.83.39,1.56.93,2.33,1.37s1.53.92,2.27,1.4l2.08,1.57a47.73,47.73,0,0,1,12.22,13.76,45.51,45.51,0,0,1,5.26,12.86,26.56,26.56,0,0,1,.61,2.64c.12.84.23,1.63.34,2.34s.22,1.4.28,2,0,1.17.07,1.68c0,1,.06,1.76.08,2.34S376.24,48.28,376.24,48.28Z"/></g><path class="cls-16" d="M255.31,480.55,259,510.64l9.78,23a3.1,3.1,0,0,1-1.65,4.07l-.18.08h0a3.11,3.11,0,0,1-2.82-.4c-5.23-3.73-24.36-17.53-24.54-19.74-.18-2.56-7-35.57-7-35.57Z"/><g class="cls-17"><path class="cls-8" d="M267,537.76l-27.62-22.21.19,1.28a4.69,4.69,0,0,0,1.5,2.93c2.24,2,8.51,7.23,23,17.66a3.12,3.12,0,0,0,2.91.38Z"/></g><g class="cls-17"><path class="cls-8" d="M244.08,505a1.89,1.89,0,0,1,.86,2.34,1.81,1.81,0,0,1-2.34.88,2,2,0,0,1-.9-2.5,1.89,1.89,0,0,1,2.53-.65"/></g><path class="cls-3" d="M251.54,512c.11.18,1.67-.76,3.81-1.17s3.93-.12,4-.31a7.7,7.7,0,0,0-7.79,1.47Z"/><path class="cls-3" d="M250.25,503.22a15.17,15.17,0,0,1,3.93-1.32,15.93,15.93,0,0,1,4.13.42c0-.07-.35-.39-1.1-.69a6.78,6.78,0,0,0-6,.67C250.5,502.76,250.2,503.16,250.25,503.22Z"/><path class="cls-3" d="M253.88,500.24a2.59,2.59,0,0,0-.12-1.17,8,8,0,0,0-1.34-2.84,3.42,3.42,0,0,0-1.74-1.44,1.17,1.17,0,0,0-1.35.47,2,2,0,0,0-.28,1.43,4.4,4.4,0,0,0,4.4,3.51,5.13,5.13,0,0,0,4.57-3.36,1.76,1.76,0,0,0-.14-1.47,1.19,1.19,0,0,0-1.36-.46,4.44,4.44,0,0,0-1.82,1.32,9,9,0,0,0-1.71,2.63,2.67,2.67,0,0,0-.31,1.1,14.66,14.66,0,0,1,2.33-3.4,4,4,0,0,1,1.62-1.11.65.65,0,0,1,.74.25,1.17,1.17,0,0,1,0,1,4.53,4.53,0,0,1-4,2.86,3.8,3.8,0,0,1-3.78-2.89,1.52,1.52,0,0,1,.16-1,.65.65,0,0,1,.73-.27,3.24,3.24,0,0,1,1.51,1.17A11.74,11.74,0,0,1,253.88,500.24Z"/><g class="cls-18"><polygon points="235.8 499.67 257.4 497.44 256.75 492.37 234.77 494.62 235.8 499.67"/></g><path class="cls-3" d="M232.26,262.66l.07.4L194.6,265.4s-11.4,45.4-3.23,63.16S220,419.08,220,419.08l14.47,77.31,25.65-3.51L256.92,455c2.64-6.43,15.8-38.57,17.4-43.9,1.78-5.92,5.14-69.44,5.43-92.54.32-26.34.88-59.53.88-59.53Z"/><path class="cls-14" d="M246.87,296.82a2.7,2.7,0,0,1,.06.41c0,.29.08.68.13,1.17.1,1.07.25,2.59.44,4.54.37,4,.92,9.68,1.58,16.71,1.34,14.12,3.36,33.6,5.15,55.16.89,10.79,1.55,21,2,30.39s.69,17.81.8,24.9.07,12.86,0,16.79c0,2-.08,3.51-.11,4.57v1.17a1.34,1.34,0,0,1,0,.4,2.81,2.81,0,0,1,0-.41v-5.74c0-4,0-9.7-.16-16.78s-.41-15.52-.91-24.88-1.17-19.64-2.08-30.38c-1.79-21.56-3.74-41.06-5-55.19-.62-7-1.1-12.77-1.39-16.73-.14-1.94-.25-3.51-.33-4.55,0-.5-.06-.88-.07-1.16A2.14,2.14,0,0,1,246.87,296.82Z"/><path class="cls-14" d="M246.87,296.67a16.18,16.18,0,0,1-4.35-.94,15.81,15.81,0,0,1-4.16-1.5A31.54,31.54,0,0,1,246.87,296.67Z"/><path class="cls-14" d="M247.69,284.76a104.57,104.57,0,0,1-1.83-11.11,110.7,110.7,0,0,1-1.17-11.2,102.08,102.08,0,0,1,1.83,11.11A105.23,105.23,0,0,1,247.69,284.76Z"/><path class="cls-14" d="M247.69,263.89c-.07,0,.51-.55,1.53-.2a1.72,1.72,0,0,1,1.17,1.38,1.92,1.92,0,0,1-1,2,1.87,1.87,0,0,1-2.16-.47A1.59,1.59,0,0,1,248,264a.71.71,0,0,1,.43,0,1.57,1.57,0,0,0-1,.93,1.17,1.17,0,0,0,.21,1.24,1.34,1.34,0,0,0,1.47.3,1.36,1.36,0,0,0,.7-1.36,1.33,1.33,0,0,0-.74-1.07A3.14,3.14,0,0,0,247.69,263.89Z"/><polygon class="cls-19" points="218.9 146.97 250.76 144.48 263.05 153.35 255.36 226.67 265.54 262.61 208.54 262.61 201.2 196.54 218.9 146.97"/><path class="cls-20" d="M222.2,155.23l.47-12.69h-4.28l-3.51,5.74-11.51,4.86c-1,1.05-11.52,5.92-16.36,11.51s-29.72,72.16-28,80.48c1.32,6.36,15.29,17.62,23.49,23.37l-.13,1.17s-.07.94-.09,2.34c0,3.08.2,8.5,1.87,11.84,2.45,4.88,12.86,23,12.86,23L225.63,326s7-24,8-33.8,0-102.49,0-102.49S223.26,161.53,222.2,155.23Z"/><path class="cls-21" d="M316.23,229.94s-15.83-44.7-20.82-58.64-13.53-15.19-13.53-15.19l-18.29-7.64-1.62-5H249.92s6.38,6.18,7.08,10.72-7.32,26.88-7.32,26.88-2.79,47.41,0,60.31,27.57,70.74,27.57,70.74a31.19,31.19,0,0,0,7.21-11.85c2.67-7.67,2.9-21.27,0-36.23-.29-1.51-.56-3-.83-4.45a9.34,9.34,0,0,0,1.71.59c11.43,2.63,15.3,5.39,26.88-4.51S316.23,229.94,316.23,229.94Z"/><path class="cls-3" d="M214.74,158.24c0,.1-1.55.52-4,1.35a75.31,75.31,0,0,0-9.47,3.83,78.66,78.66,0,0,0-8.87,5.07c-2.17,1.45-3.5,2.43-3.5,2.34s.27-.3.83-.78,1.4-1.17,2.46-1.92a61.3,61.3,0,0,1,8.85-5.27,58.82,58.82,0,0,1,9.61-3.69c1.26-.37,2.33-.62,3-.76A4.58,4.58,0,0,1,214.74,158.24Z"/><path class="cls-3" d="M283.45,167.77a20.52,20.52,0,0,1-2.6-1.72,71.18,71.18,0,0,0-6.34-3.93c-2.56-1.4-5-2.5-6.72-3.25a19.47,19.47,0,0,1-2.84-1.26,13,13,0,0,1,3,.87,47,47,0,0,1,6.86,3.11,50.17,50.17,0,0,1,6.31,4.11A12.45,12.45,0,0,1,283.45,167.77Z"/><path class="cls-3" d="M217.52,261.68a3.81,3.81,0,0,1,0,1.26,8,8,0,0,1-.19,1.47,15.58,15.58,0,0,1-.45,1.91,15.1,15.1,0,0,1-.81,2.25,19.74,19.74,0,0,1-1.16,2.46,23.19,23.19,0,0,1-8.89,8.69,19.32,19.32,0,0,1-2.48,1.17,19,19,0,0,1-4.19,1.17,8.07,8.07,0,0,1-1.47.16,5.31,5.31,0,0,1-1.26,0c0-.14,1.8-.17,4.53-1a14.51,14.51,0,0,0,2.2-.81,22.29,22.29,0,0,0,2.41-1.17,24.13,24.13,0,0,0,8.67-8.48,26.16,26.16,0,0,0,1.24-2.34,20.12,20.12,0,0,0,.81-2.25C217.31,263.47,217.4,261.67,217.52,261.68Z"/><path class="cls-3" d="M190.25,182.38a48.93,48.93,0,0,1-1.93-7.53A49.57,49.57,0,0,1,187,167.2a50,50,0,0,1,1.93,7.52A50.71,50.71,0,0,1,190.25,182.38Z"/><path class="cls-3" d="M288.94,165.52a68.53,68.53,0,0,0-4.28,6.17,68.88,68.88,0,0,0-3,6.88,6.58,6.58,0,0,1,.39-2.2,23.92,23.92,0,0,1,2.1-5,23.27,23.27,0,0,1,3.14-4.37A6.43,6.43,0,0,1,288.94,165.52Z"/><path class="cls-3" d="M307.27,230.24a10.46,10.46,0,0,1-1.22-1.27c-.38-.43-.84-.95-1.4-1.52s-1.17-1.25-1.93-1.94a66.13,66.13,0,0,0-5.36-4.67,64.17,64.17,0,0,0-21.71-11c-1-.31-1.87-.51-2.64-.71s-1.46-.35-2-.46a9.24,9.24,0,0,1-1.72-.44,11.57,11.57,0,0,1,1.76.2,20.47,20.47,0,0,1,2,.38c.78.18,1.71.32,2.68.6a56.43,56.43,0,0,1,6.81,2.23,58.71,58.71,0,0,1,20.5,13.55c.73.71,1.33,1.42,1.87,2s1,1.17,1.33,1.59A8.58,8.58,0,0,1,307.27,230.24Z"/><path class="cls-3" d="M280,187.87c.16,0,.93,5.35,1.7,12a116,116,0,0,1,1.11,12.06c-.16,0-.93-5.36-1.7-12A116.22,116.22,0,0,1,280,187.87Z"/><path class="cls-3" d="M283.83,259.65a9.32,9.32,0,0,1-1.46-.86,36.39,36.39,0,0,1-3.68-2.76,27.39,27.39,0,0,1-4.67-5,29.14,29.14,0,0,1-3.86-7.45,40.74,40.74,0,0,1-1.25-4.17c-.33-1.37-.49-2.71-.75-4a11.56,11.56,0,0,0-2.7-6,11.72,11.72,0,0,0-3.66-2.61,9,9,0,0,1-1.52-.7,8.17,8.17,0,0,1,1.62.48,11.6,11.6,0,0,1,3.88,2.52,11.9,11.9,0,0,1,2.93,6.19c.27,1.27.46,2.6.78,3.93s.75,2.73,1.24,4.11A29,29,0,0,0,279,255.71c1.43,1.29,2.69,2.23,3.51,2.9A9,9,0,0,1,283.83,259.65Z"/><path class="cls-12" d="M203.35,259.38s-12.68,5.45-8.54,12.15c2.84,4.6,8.7,8.73,8.7,8.73,5.94-3.4,10.11-7,13-13.53Z"/><path class="cls-3" d="M182.59,268.5a18.05,18.05,0,0,0,2.47,1.36,20.56,20.56,0,0,0,7.58,1.86l-.18.16a14.39,14.39,0,0,1,3.28-7,22.4,22.4,0,0,1,7.56-5.74h0a5.93,5.93,0,0,0,1.85-1.88,4.11,4.11,0,0,0,.76-2.54,5.66,5.66,0,0,0-1.39-2.45,14.12,14.12,0,0,0-2.25-2h0a33.06,33.06,0,0,1-3.33-4.56,40.67,40.67,0,0,0-3.09-4.89c-.51-.67-1-1.3-1.57-1.95s-1-1.33-1.48-2q-1.41-2-2.68-4.06v-.14a76.6,76.6,0,0,1-.26-8.57q.25-4.12.46-7.86c.3-5,.57-9.35.8-13.1s.44-6.59.58-8.68q.12-1.45.18-2.34a7,7,0,0,1,.1-.8,3.66,3.66,0,0,1,0,.81c0,.59,0,1.36-.08,2.34-.1,2.09-.24,5-.4,8.7s-.41,8.18-.67,13.1q-.2,3.74-.42,7.85a78,78,0,0,0,.29,8.51v-.13q1.29,2,2.67,4c.47.68.94,1.34,1.46,2s1.07,1.3,1.59,2a43.89,43.89,0,0,1,3.13,5,31.86,31.86,0,0,0,3.25,4.49h0a14.36,14.36,0,0,1,2.34,2.14,6,6,0,0,1,1.5,2.74,3.3,3.3,0,0,1-.18,1.59,7.71,7.71,0,0,1-.67,1.35,6.31,6.31,0,0,1-2.06,2.05h0a22.43,22.43,0,0,0-7.41,5.54,14.28,14.28,0,0,0-3.56,6.77v.17h-.16a20,20,0,0,1-7.66-2,12.84,12.84,0,0,1-1.81-1.1A4.59,4.59,0,0,1,182.59,268.5Z"/><path class="cls-3" d="M190.21,233.2c0,.09-.83-.08-2.14-.11a13.45,13.45,0,0,0-9.25,3.51c-1,.89-1.45,1.55-1.53,1.5a4.8,4.8,0,0,1,1.17-1.8,11.83,11.83,0,0,1,9.59-3.64A4.64,4.64,0,0,1,190.21,233.2Z"/><path class="cls-3" d="M230.78,245.73a8.57,8.57,0,0,1-.31-1l-.76-2.88c-.64-2.5-1.56-6.12-2.54-10.63a149.29,149.29,0,0,1-2.72-16,85.75,85.75,0,0,1,0-19.87c.37-3.5,1.48-6.89.79-10.1s-3.12-5.51-4.75-8.09a37.58,37.58,0,0,1-5.7-26.09c.23-1.27.42-2.25.61-2.91a7,7,0,0,1,.29-1,7.2,7.2,0,0,1-.16,1c-.16.66-.31,1.64-.51,2.92a39,39,0,0,0,.17,10.84A37.17,37.17,0,0,0,221,176.86c.81,1.27,1.8,2.48,2.72,3.81a12.67,12.67,0,0,1,2.14,4.49c.73,3.42-.42,6.83-.76,10.28a85.74,85.74,0,0,0,0,19.74,155.71,155.71,0,0,0,2.53,15.93c.93,4.52,1.77,8.18,2.33,10.67.28,1.17.49,2.18.66,2.9A7.21,7.21,0,0,1,230.78,245.73Z"/><path class="cls-3" d="M262,143.46a2,2,0,0,1,.22.44,12.78,12.78,0,0,1,.49,1.35,28.68,28.68,0,0,1,1.17,5.11,34.8,34.8,0,0,1,.15,7.77,21.7,21.7,0,0,1-2.75,9.11c-1.66,2.92-3.5,5.59-4.06,8.4s.11,5.42.18,7.64a9.74,9.74,0,0,1-.91,5.15,5.29,5.29,0,0,1-.83,1.17c-.23.23-.37.33-.38.31a10.9,10.9,0,0,0,1-1.59,10.13,10.13,0,0,0,.69-5c-.08-1.09-.27-2.28-.4-3.58a13.69,13.69,0,0,1,.1-4.19c.57-3,2.45-5.71,4.09-8.59a22,22,0,0,0,2.71-8.87,37.71,37.71,0,0,0,0-7.66,32.57,32.57,0,0,0-.94-5.09A13.49,13.49,0,0,1,262,143.46Z"/><path class="cls-3" d="M227.67,318.54a3,3,0,0,1-.58-.19l-1.61-.67c-1.4-.58-3.41-1.46-5.84-2.61a104.76,104.76,0,0,1-18.37-10.51A53.34,53.34,0,0,1,186.92,289a34.64,34.64,0,0,1-2.76-5.84c-.28-.7-.43-1.28-.56-1.66a2.41,2.41,0,0,1-.14-.59,23.08,23.08,0,0,1,.91,2.17,43.49,43.49,0,0,0,2.92,5.68A55.13,55.13,0,0,0,201.6,304a114.28,114.28,0,0,0,18.19,10.67l5.79,2.79,1.56.77A2.6,2.6,0,0,1,227.67,318.54Z"/><path class="cls-3" d="M286.29,278a5.62,5.62,0,0,1,0,1.16,32.65,32.65,0,0,1-.23,3.28,42.68,42.68,0,0,1-2.54,10.51,38.74,38.74,0,0,1-5.25,9.46,25.23,25.23,0,0,1-2.12,2.5,5.63,5.63,0,0,1-.87.82c-.08-.07,1.06-1.33,2.65-3.58a44.34,44.34,0,0,0,5-9.42,49.1,49.1,0,0,0,2.7-10.33C286.09,279.65,286.18,278,286.29,278Z"/><path class="cls-3" d="M226.84,281.8a3.16,3.16,0,0,0-1.53,1.38,2.55,2.55,0,0,0-.11,2.11,2.35,2.35,0,0,0,3.19.86,2.38,2.38,0,0,0,1-1,2.5,2.5,0,0,0-.3-2.08,3.19,3.19,0,0,0-1.65-1.24,1.12,1.12,0,0,1,.62,0,2.53,2.53,0,0,1,1.38,1,2.9,2.9,0,0,1,.49,2.5,2.86,2.86,0,0,1-5.2.24,2.86,2.86,0,0,1,.24-2.53,2.64,2.64,0,0,1,1.29-1.11C226.6,281.73,226.84,281.77,226.84,281.8Z"/><path class="cls-3" d="M228.82,264.92a3.11,3.11,0,0,0-1.53,1.38,2.49,2.49,0,0,0-.1,2.1,2.14,2.14,0,0,0,2.13,1.17,2.2,2.2,0,0,0,2-1.36,2.55,2.55,0,0,0-.31-2.08,3.31,3.31,0,0,0-1.64-1.24,1.09,1.09,0,0,1,.61,0,2.55,2.55,0,0,1,1.38,1,2.89,2.89,0,0,1,.48,2.51,2.87,2.87,0,0,1-5.2.23,2.9,2.9,0,0,1,.26-2.53,2.49,2.49,0,0,1,1.25-1.08C228.59,264.85,228.82,264.89,228.82,264.92Z"/><g class="cls-18"><path d="M189.23,232l.49.29a11.69,11.69,0,0,0-16.36,2.33,11.24,11.24,0,0,0-1.05,1.68c-.57,1.11-.91,2.63,0,3.51a2.42,2.42,0,0,0,2.71.25,9.72,9.72,0,0,0,2.27-1.82,19.3,19.3,0,0,1,13-5.22"/></g><g class="cls-18"><path d="M217.86,171.83c.73,6.75,4.15,12,3.4,18.46s-3,12.63-3.7,19.08a51.59,51.59,0,0,0,3.84,24.18c3,7.65,7.44,13.31,12,20.19-5.66-17.83-9.76-35.39-8.9-53.5.22-4.59,2-10.16,1.16-14.69-1.16-6.05-5.78-8.68-7.74-13.72"/></g><g class="cls-18"><path d="M248.62,225.93c.15,2.48,3.12,5.13,5.61,5.19s5.15-.47,7.3.78c2.87,1.67,3.31,5.52,3.78,8.8,1.09,7.62,4.35,15.38,10.72,19.71a7.47,7.47,0,0,0,4.09,1.54,3.39,3.39,0,0,0,3.35-2.34,67,67,0,0,0-5.32-4.18c-4.19-2.74-6.06-8.07-7.49-12.86-1-3.41-1.66-7-3.26-10.22-3.12-6.22-7.74-7-18.78-6.36"/></g><path class="cls-3" d="M234.68,72.56s-6.52-1.78-11.56,0S203.25,101,198.81,104.28s-7.1,10.07-3.26,16,8.9,4.14,7.72,9.19-2.34,11.26,4.44,11.26,15.12-2.07,16-4.15,29.63,6.52,34.09,5.93,11.25-4.31,11-7.19,13.64-2.89,12.44-12.08c0,0,3.42-9.49.07-13,0,0,10-13.93-2.73-14.82S266.86,81.84,258.39,74C255.13,71,242.68,62.83,234.68,72.56Z"/><path class="cls-12" d="M220,96.42a21.27,21.27,0,0,1,20.89-21.64h.78a21.91,21.91,0,0,1,21.42,20.77c.51,9.92.8,19.86.39,23.51-1.16,10.8-8.09,14.35-10.83,15.34a13.55,13.55,0,0,1-3,.42h0a.07.07,0,0,0-.07.07v0l1.17,12.65c.29,8.18-8.46,9.56-12.7,10.19-6.58,1-15-1.36-15.46-9.64Z"/><path class="cls-3" d="M257.91,102.89a1.73,1.73,0,0,1-1.61,1.81,1.69,1.69,0,0,1-1.88-1.46v0A1.73,1.73,0,0,1,256,101.4a1.69,1.69,0,0,1,1.88,1.46Z"/><path class="cls-3" d="M260.25,98.27c-.21.23-1.59-.68-3.51-.6s-3.22,1.07-3.5.85.1-.51.69-1a4.86,4.86,0,0,1,2.74-1,4.68,4.68,0,0,1,2.77.76C260.13,97.76,260.34,98.16,260.25,98.27Z"/><path class="cls-3" d="M239.86,103.34a1.75,1.75,0,0,1-1.62,1.81,1.67,1.67,0,0,1-1.89-1.41h0a1.71,1.71,0,0,1,1.61-1.81A1.69,1.69,0,0,1,239.86,103.34Z"/><path class="cls-3" d="M241.68,99.38c-.21.23-1.59-.68-3.51-.6s-3.22,1.08-3.5.86.09-.52.69-1a4.76,4.76,0,0,1,2.74-1,4.61,4.61,0,0,1,2.77.75C241.56,98.88,241.77,99.27,241.68,99.38Z"/><path class="cls-3" d="M249.21,112.88a12.2,12.2,0,0,1,3-.68c.48-.07.94-.18,1-.5a2.45,2.45,0,0,0-.39-1.4c-.51-1.17-1-2.34-1.6-3.51-2.22-5.06-3.85-9.22-3.64-9.35s2.17,4,4.4,9l1.53,3.58a2.73,2.73,0,0,1,.33,1.88,1.16,1.16,0,0,1-.76.72,3.28,3.28,0,0,1-.82.14A12.3,12.3,0,0,1,249.21,112.88Z"/><path class="cls-13" d="M249.59,134.87s-7.27.89-16.65-4.12c0,0,3.32,9.35,17,7.53Z"/><path class="cls-13" d="M248.59,117.38a3.51,3.51,0,0,0-3.11-1.17,3,3,0,0,0-2.09,1.17,1.89,1.89,0,0,0,0,2.22,2.33,2.33,0,0,0,2.5.51,6.81,6.81,0,0,0,2.33-1.52,2,2,0,0,0,.52-.56.64.64,0,0,0,0-.7"/><path class="cls-3" d="M243.68,114.39c.3,0,.4,2,2.22,3.34s4,1,4,1.33-.47.41-1.39.48a5.27,5.27,0,0,1-3.35-1,4.44,4.44,0,0,1-1.75-2.82C243.36,114.89,243.54,114.39,243.68,114.39Z"/><path class="cls-3" d="M242.37,96.1c-.15.51-2.06.35-4.27.7s-4,1-4.29.58c-.14-.21.16-.7.86-1.17A7.22,7.22,0,0,1,237.81,95a7.3,7.3,0,0,1,3.38.25C242,95.47,242.44,95.85,242.37,96.1Z"/><path class="cls-3" d="M259.37,94.5c-.31.44-1.63,0-3.2.1s-2.89.4-3.2,0c-.15-.21,0-.63.59-1.06a4.57,4.57,0,0,1,2.58-.8,4.36,4.36,0,0,1,2.59.75C259.3,93.86,259.51,94.28,259.37,94.5Z"/><path class="cls-3" d="M227,76.31A21.91,21.91,0,0,0,218.25,91L213,94l5.72,44.5-.76.91c3.28.24,7.53-2.65,9.84-5a11.51,11.51,0,0,0,3.26-8.94c-.37-4.6-3.5-9-2.46-13.49.7-2.94,3.11-5.24,3.84-8.18a11.23,11.23,0,0,0-.69-6.6,31.19,31.19,0,0,0,7-7.61c-.31,1-.62,2-.94,3A22.58,22.58,0,0,0,255.24,76.7C247.84,69.92,235.18,70.5,227,76.31Z"/><path class="cls-3" d="M255.36,76.36a1.69,1.69,0,0,1-.1.35c0,.12.06,0,.07.06Z"/><path class="cls-14" d="M194.12,113.7a2.52,2.52,0,0,1,.71-.26l2.06-.6c.9-.27,2-.66,3.22-1.08a37.87,37.87,0,0,0,4.16-1.72A60.5,60.5,0,0,0,225,94.62,58.5,58.5,0,0,0,233.42,82l.39-.81.12.9c.12.86.24,1.7.34,2.52l-.4-.2a21.81,21.81,0,0,0,8.77-10.25,29.18,29.18,0,0,0,1.47-5v.35a3.46,3.46,0,0,1-.13,1,19.79,19.79,0,0,1-1,3.76,21.69,21.69,0,0,1-8.77,10.59l-.36.22v-.41c-.11-.82-.23-1.65-.36-2.51l.53.08a59,59,0,0,1-29.46,28.18c-1.53.7-3,1.16-4.22,1.64a25.67,25.67,0,0,1-3.27,1l-2.11.5A7,7,0,0,1,194.12,113.7Z"/><path class="cls-14" d="M241.17,90.66c-.07-.07.87-1,2.2-2.6a36.9,36.9,0,0,0,4.5-6.84,36.09,36.09,0,0,0,2.85-7.67c.52-2,.71-3.33.81-3.32a2.9,2.9,0,0,1,0,.93,23.36,23.36,0,0,1-.37,2.49,31.15,31.15,0,0,1-7.45,14.69,21.24,21.24,0,0,1-1.79,1.76C241.46,90.49,241.2,90.69,241.17,90.66Z"/><path class="cls-12" d="M266.73,211.94a19.53,19.53,0,0,1-1.34-7,13.21,13.21,0,0,0-.53-4.28c-.47-1.34-2-2.6-3.4-2.26L261,208.9Z"/><path class="cls-3" d="M262,187.68l-1.72,36.42a1.57,1.57,0,0,1-1.42,1.48l-18.44,1.92a1.59,1.59,0,0,1-1.72-1.42c0-.06,0-.12,0-.17l.62-35.17a1.58,1.58,0,0,1,1.34-1.52l19.54-3.13a1.56,1.56,0,0,1,1.79,1.28C262,187.47,262,187.58,262,187.68Z"/><path class="cls-19" d="M249.21,195.08a1.21,1.21,0,0,1,2.33-.12,1.34,1.34,0,0,1-.46,1.33,1.26,1.26,0,0,1-1.4.09A1.17,1.17,0,0,1,249.21,195.08Z"/><path class="cls-12" d="M253.94,202.1c.42,0,10.57,3.39,10.57,3.39l5.72,4.4a10.13,10.13,0,0,1,1.55,7.59c-.7,4.9-2.78,6.91-8,9.09H253.37l-5.85-3.42a3.24,3.24,0,0,1-1.56-3.28v-.24l-.74-.87a1.78,1.78,0,0,1-.22-2h0a1.79,1.79,0,0,1,2.41-.77l6.48,3.32,4.09-.11.39-1.4L252,215.71l-8.37-4.59a2.22,2.22,0,0,1-.87-3,.59.59,0,0,1,0-.08h0a2.22,2.22,0,0,1,2.72-.91l7.56,3,7.73,2-1.59-2.69-9.5-4.94S248.64,201.6,253.94,202.1Z"/><path class="cls-13" d="M270.24,209.89a46.7,46.7,0,0,1-5.9-4.15h.09l-.38-.13a47.41,47.41,0,0,1-7.14-2.65,46.61,46.61,0,0,1,7.32,2.08l.39.12h.06A44,44,0,0,1,270.24,209.89Z"/><path class="cls-13" d="M260.79,222.93a7.63,7.63,0,0,1-2.15.84,8.69,8.69,0,0,1-5.61,0,20.37,20.37,0,0,1-2.78-1.35l-2.18-1.16a8.27,8.27,0,0,1-1.93-1.27,9,9,0,0,1,2.13.88l2.24,1.1c.89.47,1.8.9,2.73,1.28a9.26,9.26,0,0,0,5.29.17A9.7,9.7,0,0,1,260.79,222.93Z"/><path class="cls-3" d="M166.74,184.55c-.1.14-11-6.45-24.34-14.71s-24.1-15.09-24-15.2,11,6.44,24.33,14.72S166.82,184.36,166.74,184.55Z"/><circle class="cls-8" cx="68.11" cy="118.44" r="62.25"/><path class="cls-3" d="M76.9,79.26a15.85,15.85,0,0,0-22.39-1c-.25.23-.49.47-.72.71-2.9,3-4.68,7.21-8.43,9.08s-8.27,1-11.42,3.51c-5.57,4.45-1.49,14.76-6.58,19.77-2.8,2.76-7.94,3.36-9,7.13s3.29,7.56,2.86,11.61c-.25,2.4-2.15,4.27-3.12,6.49a9.06,9.06,0,0,0,4.05,11.28,22.81,22.81,0,0,1,4,2c2.52,2.05,2.34,5.84,3.51,8.9a9.67,9.67,0,0,0,10.21,5.73,11.21,11.21,0,0,1,4-.47c3.28.64,4.47,5.38,7.74,5.94,2.14.36,4.09-1.27,5.39-3s2.34-3.75,4.28-4.79c2.33-1.28,5.27-.69,7.93-.22a19.1,19.1,0,0,0,7.11.2,8,8,0,0,0,5.65-4c1-1.86,1-4.2,2.34-5.7s3.68-1.63,5.65-1.17,3.85,1.28,5.85,1.56a10,10,0,0,0,11.36-8.54,10.2,10.2,0,0,0,0-2.92c-.24-1.49-.8-3-.4-4.47.55-2,2.65-3.07,4.19-4.46a10.09,10.09,0,0,0,.09-14.28l-.09-.08c-1.46-1.33-3.5-2.42-3.81-4.36-.43-2.53,2.28-4.68,2.25-7.21,0-2.82-3.19-4.41-5.85-5.14s-5.92-1.63-6.84-4.28c-.48-1.36-.21-2.86-.62-4.24a7.13,7.13,0,0,0-4.33-4.06,30.7,30.7,0,0,1-4.67-2.88c-2.51-1.59-3.43-5.44-5.61-7.45s-5.84-1.69-8.11.17"/><path class="cls-22" d="M29.05,166.63s5.13-18.71,27-22,23.59-4,23.59-4,26.63-4.92,33.05,21.28c0,0-9.59,13.47-35.95,18.25C50,184.94,29.05,166.63,29.05,166.63Z"/><path class="cls-23" d="M48.89,101.39A19.49,19.49,0,0,1,66.52,80.2c.23,0,.46,0,.7-.06a20.06,20.06,0,0,1,21,17.53c1.17,9,2.09,18.15,2,21.46-.38,9.94-6.42,13.66-8.85,14.76a13.18,13.18,0,0,1-2.69.58h0a.08.08,0,0,0,0,.07l2,11.49c.82,7.52-3.61,14-11.25,15s-13.48-5-14.45-12.54Z"/><path class="cls-3" d="M85.85,103.6a1.59,1.59,0,0,1-1.35,1.76,1.54,1.54,0,0,1-1.82-1.2v0A1.58,1.58,0,0,1,84,102.37a1.54,1.54,0,0,1,1.82,1.21Z"/><path class="cls-3" d="M85.82,100.72c-.18.24-1.5-.51-3.21-.3s-2.89,1.17-3.1,1,0-.47.56-.94a4.53,4.53,0,0,1,2.44-1.06,4.43,4.43,0,0,1,2.6.5C85.68,100.22,85.9,100.62,85.82,100.72Z"/><path class="cls-3" d="M69,106.06a1.58,1.58,0,0,1-1.35,1.77,1.55,1.55,0,0,1-1.82-1.17,1.58,1.58,0,0,1,1.34-1.76A1.54,1.54,0,0,1,69,106.06Z"/><path class="cls-3" d="M68.93,103.14c-.17.23-1.49-.51-3.21-.31s-2.89,1.17-3.1,1,0-.47.56-.93a4.38,4.38,0,0,1,2.45-1.06,4.25,4.25,0,0,1,2.59.5C68.79,102.69,69,103,68.93,103.14Z"/><path class="cls-3" d="M76.7,114.43a11.52,11.52,0,0,1,2.74-.82c.43-.1.84-.23.88-.53a2.24,2.24,0,0,0-.45-1.25l-1.7-3.14c-2.34-4.47-4.15-8.18-4-8.26s2.26,3.51,4.68,7.93l1.65,3.16a2.6,2.6,0,0,1,.43,1.67,1.13,1.13,0,0,1-.66.72,2.92,2.92,0,0,1-.72.18A12.13,12.13,0,0,1,76.7,114.43Z"/><path class="cls-24" d="M78.59,134.5s-6.58,1.31-15.5-2.63c0,0,3.68,8.33,16,5.72Z"/><path class="cls-3" d="M69.34,99.57c-.1.48-1.86.45-3.84.93s-3.51,1.17-3.88.82c-.14-.19.09-.65.69-1.17a7,7,0,0,1,5.84-1.34C69,99.05,69.39,99.33,69.34,99.57Z"/><path class="cls-3" d="M84.77,97c-.26.42-1.5.15-2.92.3s-2.61.56-2.94.2c-.14-.19,0-.59.49-1a4.31,4.31,0,0,1,4.68-.4C84.66,96.36,84.87,96.72,84.77,97Z"/><path class="cls-3" d="M79.87,80.65A20.65,20.65,0,0,1,65,96.72c.22-.94.44-1.87.65-2.81a29.21,29.21,0,0,1-16.36,13.53,20.28,20.28,0,0,1,4.68-24.9c7.14-5.84,18.7-7.28,25.93-1.52"/><path class="cls-3" d="M56.91,102.56c-1.73,3.12-1,6.94.08,10.32s2.54,6.81,2.14,10.33c-.38,3.26-2.34,6.22-2.75,9.46-.71,5.49,2.9,10.52,4.29,16a20.91,20.91,0,0,1-5.59,19.75,2.76,2.76,0,0,1-2,1,2,2,0,0,1-1.7-1.68,8,8,0,0,1,.12-2.49c.92-7.88-7-14.4-7.94-22.27-.63-5.11,1.74-10.1,2.22-15.2.58-6.45-1.84-12.78-2.5-19.23a13.91,13.91,0,0,1,.56-6.56,7,7,0,0,1,4.85-4.44c2.33-.5,5,.68,5.65,2.82"/><path class="cls-3" d="M130.37,118.44a9.33,9.33,0,0,0-.08-1c-.09-.67-.11-1.68-.19-3,0-.66-.08-1.38-.13-2.17s-.25-1.68-.39-2.61-.3-2-.47-3a9.34,9.34,0,0,0-.36-1.65c-.15-.56-.3-1.17-.45-1.74a59.05,59.05,0,0,0-6.88-16.53,62.09,62.09,0,0,0-15.78-17.62l-2.68-2c-.94-.62-1.94-1.17-2.91-1.79a23.68,23.68,0,0,0-3-1.74L93.78,62c-.54-.25-1.08-.52-1.64-.77l-1.72-.63-3.5-1.27c-1.17-.39-2.42-.65-3.65-1a33.89,33.89,0,0,0-3.75-.84,59,59,0,0,0-7.84-.91c-1.33,0-2.69-.17-4-.15l-4.11.21a10.92,10.92,0,0,0-2.06.13l-2.07.31c-1.38.24-2.78.4-4.18.68A67.38,67.38,0,0,0,47,60.23L45,61c-.34.13-.69.25-1,.39l-1,.48-4,1.92c-1.31.72-2.57,1.55-3.86,2.34-.64.41-1.32.76-1.92,1.17l-1.85,1.38a70,70,0,0,0-7,6l-3.14,3.51-.79.86-.72.95-1.42,1.89-1.42,1.91-1.25,2-1.26,2-.62,1c-.19.35-.35.71-.54,1.08-.69,1.44-1.39,2.91-2.1,4.37a37,37,0,0,0-1.68,4.59,66.17,66.17,0,0,0-3.24,19.54A65.91,65.91,0,0,0,9.32,138L11,142.57l2.14,4.4.53,1.08.63,1,1.24,2,1.25,2,1.42,1.91,1.42,1.9.71.94.8.87,3.15,3.51a71.06,71.06,0,0,0,7,6l1.83,1.37A20,20,0,0,0,35,170.81c1.3.77,2.56,1.6,3.87,2.33l4,1.87,1,.48c.34.14.69.26,1,.39l2.06.75a65.87,65.87,0,0,0,8.27,2.43c1.38.28,2.78.44,4.16.67l2.07.32c.69.09,1.39.08,2.07.13l4.11.21c1.36,0,2.7-.11,4-.15a59,59,0,0,0,7.85-.91,33.43,33.43,0,0,0,3.7-.81c1.17-.33,2.47-.58,3.66-1l3.5-1.27,1.73-.64,1.64-.78L97,173.32a34.62,34.62,0,0,0,3-1.75c1-.59,2-1.17,2.91-1.79l2.69-2a61.7,61.7,0,0,0,15.76-17.61,59.08,59.08,0,0,0,6.89-16.53l.45-1.74a9.24,9.24,0,0,0,.35-1.66l.48-3c.14-1,.31-1.8.39-2.61s.09-1.52.13-2.17c.08-1.29.14-2.27.18-3s.08-1,.08-1v1c0,.67-.07,1.67-.11,3,0,.65-.07,1.38-.11,2.18s-.22,1.66-.35,2.61l-.45,3A11.63,11.63,0,0,1,129,132c-.15.57-.3,1.17-.45,1.75a58.86,58.86,0,0,1-6.82,16.64,62,62,0,0,1-15.8,17.79l-2.69,2c-1,.63-2,1.17-2.93,1.81a34.6,34.6,0,0,1-3.05,1.78L94,175.29l-1.65.79-1.73.64L87.12,178c-1.17.39-2.45.65-3.67,1a35.23,35.23,0,0,1-3.79.87,56.73,56.73,0,0,1-7.9.92c-1.34.06-2.71.19-4.08.17l-4.13-.21a11.45,11.45,0,0,1-2.1-.13l-2.08-.31c-1.39-.23-2.8-.4-4.2-.68a67.55,67.55,0,0,1-8.35-2.43l-2.12-.79c-.34-.13-.69-.25-1-.4l-1-.48-4-1.94c-1.33-.71-2.6-1.55-3.9-2.34-.65-.41-1.33-.76-1.94-1.17l-1.84-1.38a67.93,67.93,0,0,1-7.1-6l-3.18-3.5-.81-.88-.71-1-1.44-1.91-1.44-1.92L15,151.44l-1.23-2.14-.63-1-.53-1.08-2.13-4.42a39.85,39.85,0,0,1-1.7-4.67,62.06,62.06,0,0,1,0-39.49l1.71-4.68,2.13-4.22c.17-.36.34-.72.53-1.08l.64-1L15,85.51l1.26-2.12,1.44-1.87,1.43-1.91.73-1,.79-.88,3.18-3.5a70.46,70.46,0,0,1,7.11-6l1.84-1.38a16.82,16.82,0,0,1,1.93-1.17c1.31-.78,2.58-1.61,3.9-2.34l4.05-1.94,1-.49,1-.45,2.08-.76a68.36,68.36,0,0,1,8.43-2.46c1.41-.28,2.82-.44,4.21-.67l2.08-.32c.7-.09,1.4-.08,2.09-.13l4.14-.21c1.37,0,2.72.12,4.08.17a58.3,58.3,0,0,1,7.9.93,34.88,34.88,0,0,1,3.77.87c1.24.33,2.49.59,3.68,1l3.51,1.3,1.73.63c.56.25,1.1.52,1.65.79l3.23,1.57a31.27,31.27,0,0,1,3,1.76c1,.6,2,1.17,2.94,1.81l2.69,2a62,62,0,0,1,15.76,17.77,59.16,59.16,0,0,1,6.82,16.65c.15.6.3,1.17.45,1.76a11.36,11.36,0,0,1,.34,1.66c.16,1.08.31,2.1.44,3.05s.29,1.81.36,2.6.07,1.53.11,2.19c0,1.29.08,2.33.11,3S130.37,118.44,130.37,118.44Z"/><path class="cls-24" d="M77.2,118.24c-1,0-2-.1-3-.12a2.47,2.47,0,0,0-1.17.19,1.7,1.7,0,0,0-.8,1.38,3.07,3.07,0,0,0,5.94,1.38"/><path class="cls-3" d="M77.35,122.32a2.51,2.51,0,0,1-1.73.89,4,4,0,0,1-2.12-.56,2.25,2.25,0,0,1-1-1,3.71,3.71,0,0,1-.36-1.35,4.72,4.72,0,0,1,.12-1.4,1.21,1.21,0,0,1,.36-.71.71.71,0,0,1,.43-.14h2.37a6.13,6.13,0,0,1,1.91.12,6,6,0,0,1-1.88.3l-2,.18H73a.17.17,0,0,0,0-.1h0c0,.07-.11-.18.12.17h0a.7.7,0,0,0-.15.39,5.14,5.14,0,0,0-.1,1.17,3.37,3.37,0,0,0,.3,1.17,1.75,1.75,0,0,0,.72.73,4.14,4.14,0,0,0,1.8.6A11.54,11.54,0,0,0,77.35,122.32Z"/><path class="cls-25" d="M186.11,43.47v1.67l-.06.61a14.36,14.36,0,0,1-16.2,12.72,13.47,13.47,0,0,1-5.67-2.08.55.55,0,0,0-.51-.06l-4.91,1.57-.31.1c.54-1.63,1.06-3.21,1.61-4.78a1,1,0,0,0-.13-1,13.93,13.93,0,0,1-2.35-9.36,13.61,13.61,0,0,1,2.32-6.47,14.13,14.13,0,0,1,9.44-6.18c.54-.1,1.09-.15,1.63-.22h1.68l.21.05a13.5,13.5,0,0,1,6.24,2,14.12,14.12,0,0,1,6.79,9.83C186,42.38,186,42.93,186.11,43.47Zm-9.62,8.91v-.07a3.59,3.59,0,0,0,.47,0,4.82,4.82,0,0,0,.68-.15c2-.7,2.73-1.69,2.78-3.56a.58.58,0,0,0-.36-.6c-1.07-.51-2.13-1-3.2-1.53a.85.85,0,0,0-1.23.33c-.28.38-.55.76-.83,1.12a1,1,0,0,1-1.41.36,11.3,11.3,0,0,1-5.48-4.85.62.62,0,0,1,.06-.8c.22-.26.44-.53.68-.77A1.3,1.3,0,0,0,169,40a0,0,0,0,0,0,0c-.42-1-.84-2-1.28-3a.72.72,0,0,0-.38-.37,2.48,2.48,0,0,0-2.18.31,4,4,0,0,0-1.29,1.79,5.34,5.34,0,0,0,.22,4.13,14.33,14.33,0,0,0,1.68,2.72,20.12,20.12,0,0,0,3.73,3.87,15.26,15.26,0,0,0,5.14,2.5C175.21,52.14,175.85,52.24,176.49,52.38Z"/><path class="cls-26" d="M443.52,73.3v1.41l-.06.51a12,12,0,0,1-13.6,10.67,11.2,11.2,0,0,1-4.75-1.74.47.47,0,0,0-.43-.05c-1.37.45-2.75.88-4.12,1.32l-.27.08c.46-1.37.9-2.69,1.36-4a.83.83,0,0,0-.11-.83,11.7,11.7,0,0,1-2-7.85,11.45,11.45,0,0,1,1.94-5.44,11.87,11.87,0,0,1,7.93-5.18c.45-.09.91-.13,1.37-.19h1.41l.18,0a11.45,11.45,0,0,1,5.24,1.65,11.86,11.86,0,0,1,5.69,8.25C443.42,72.39,443.46,72.85,443.52,73.3Zm-8.08,7.48v0a2.69,2.69,0,0,0,.4,0,2.77,2.77,0,0,0,.57-.13c1.71-.59,2.29-1.41,2.33-3a.49.49,0,0,0-.31-.5l-2.68-1.28a.71.71,0,0,0-1,.28c-.23.31-.46.63-.7.94a.82.82,0,0,1-1.18.3,9.5,9.5,0,0,1-4.6-4.07.53.53,0,0,1,0-.67c.19-.22.38-.44.58-.65a1.08,1.08,0,0,0,.25-1.5s0,0,0,0c-.35-.85-.7-1.69-1.07-2.52-.06-.13-.19-.29-.32-.31a2.08,2.08,0,0,0-1.83.26,3.29,3.29,0,0,0-1.09,1.5A4.52,4.52,0,0,0,425,72.8a11.81,11.81,0,0,0,1.42,2.29,16.81,16.81,0,0,0,3.12,3.24,12.67,12.67,0,0,0,4.32,2.1C434.37,80.59,434.91,80.67,435.44,80.78Z"/><path class="cls-27" d="M87.11,260.64V262c0,.16,0,.31,0,.47a11.33,11.33,0,0,1-12.8,10.05,10.48,10.48,0,0,1-4.47-1.64.43.43,0,0,0-.41-.05l-3.88,1.25-.25.07c.43-1.28.84-2.53,1.28-3.77a.78.78,0,0,0-.1-.78,11,11,0,0,1-1.86-7.4,10.7,10.7,0,0,1,1.83-5.11,11.12,11.12,0,0,1,7.46-4.88c.43-.08.86-.12,1.29-.18h1.32l.17,0a10.78,10.78,0,0,1,4.94,1.55,11.15,11.15,0,0,1,5.36,7.77C87,259.78,87.06,260.21,87.11,260.64Zm-7.6,7v-.05c.12,0,.25,0,.37,0a3.27,3.27,0,0,0,.54-.13,2.67,2.67,0,0,0,2.19-2.81.44.44,0,0,0-.28-.47c-.85-.4-1.68-.82-2.53-1.21a.68.68,0,0,0-1,.26c-.22.3-.43.6-.66.89a.77.77,0,0,1-1.11.28,8.93,8.93,0,0,1-4.33-3.83.49.49,0,0,1,0-.63c.18-.21.35-.42.54-.61a1,1,0,0,0,.24-1.42v0c-.33-.79-.66-1.58-1-2.37a.53.53,0,0,0-.3-.29,2,2,0,0,0-1.73.25,3.12,3.12,0,0,0-1,1.41,4.2,4.2,0,0,0,.17,3.26A11.33,11.33,0,0,0,71,262.32a15.55,15.55,0,0,0,3,3.06,12.06,12.06,0,0,0,4.06,2C78.5,267.5,79,267.57,79.51,267.68Z"/></g></g></svg>