<svg xmlns="http://www.w3.org/2000/svg" xmlns:xlink="http://www.w3.org/1999/xlink" viewBox="0 0 681.69 416.84"><defs><style>.cls-1{fill:#ebebeb;}.cls-2{fill:#a6a6a6;}.cls-3{fill:#ffc727;}.cls-4{fill:#263238;}.cls-5{fill:#dbdbdb;}.cls-6{fill:#37474f;}.cls-29,.cls-32,.cls-7{fill:#fff;}.cls-8{fill:url(#linear-gradient);}.cls-9{fill:#455a64;}.cls-10{fill:#c7c7c7;}.cls-11{fill:url(#linear-gradient-2);}.cls-12,.cls-24,.cls-29,.cls-32{isolation:isolate;}.cls-13{fill:url(#linear-gradient-3);}.cls-14{fill:url(#linear-gradient-4);}.cls-15{fill:url(#linear-gradient-5);}.cls-16{fill:url(#linear-gradient-6);}.cls-17{fill:url(#linear-gradient-7);}.cls-18{fill:url(#linear-gradient-8);}.cls-19{fill:url(#linear-gradient-9);}.cls-20{fill:url(#linear-gradient-10);}.cls-21{fill:url(#linear-gradient-11);}.cls-22{fill:url(#linear-gradient-12);}.cls-23{fill:#407bff;}.cls-24{opacity:0.2;}.cls-25{fill:#e4897b;}.cls-26{fill:url(#linear-gradient-13);}.cls-27{fill:url(#linear-gradient-14);}.cls-28{fill:url(#linear-gradient-15);}.cls-29{opacity:0.4;}.cls-30{fill:#de5753;}.cls-31{fill:url(#linear-gradient-16);}.cls-32{opacity:0.7;}.cls-33{fill:url(#linear-gradient-17);}.cls-34{fill:url(#linear-gradient-18);}.cls-35{fill:url(#linear-gradient-19);}.cls-36{fill:#ffbe9d;}.cls-37{fill:#eb996e;}.cls-38{fill:url(#linear-gradient-20);}.cls-39{fill:#d1a093;}.cls-40{fill:#7c5142;}</style><linearGradient id="linear-gradient" x1="107.62" y1="47.71" x2="542.24" y2="47.71" gradientUnits="userSpaceOnUse"><stop offset="0" stop-color="#00ffaf"/><stop offset="0.06" stop-color="#00edad"/><stop offset="0.32" stop-color="#00a6a7"/><stop offset="0.55" stop-color="#006ea2"/><stop offset="0.75" stop-color="#00469f"/><stop offset="0.91" stop-color="#002d9d"/><stop offset="1" stop-color="#00249c"/></linearGradient><linearGradient id="linear-gradient-2" x1="474.52" y1="186.4" x2="510.84" y2="186.4" gradientTransform="translate(276.11 -293.78) rotate(45)" xlink:href="#linear-gradient"/><linearGradient id="linear-gradient-3" x1="283.13" y1="211.96" x2="368.91" y2="226.51" xlink:href="#linear-gradient"/><linearGradient id="linear-gradient-4" x1="283.17" y1="211.71" x2="368.96" y2="226.27" xlink:href="#linear-gradient"/><linearGradient id="linear-gradient-5" x1="283.21" y1="211.45" x2="369" y2="226" xlink:href="#linear-gradient"/><linearGradient id="linear-gradient-6" x1="283.68" y1="208.71" x2="369.47" y2="223.27" xlink:href="#linear-gradient"/><linearGradient id="linear-gradient-7" x1="283.64" y1="208.94" x2="369.43" y2="223.49" xlink:href="#linear-gradient"/><linearGradient id="linear-gradient-8" x1="283.64" y1="208.94" x2="369.43" y2="223.49" xlink:href="#linear-gradient"/><linearGradient id="linear-gradient-9" x1="283.96" y1="207.07" x2="369.74" y2="221.62" xlink:href="#linear-gradient"/><linearGradient id="linear-gradient-10" x1="284.11" y1="206.15" x2="369.9" y2="220.71" xlink:href="#linear-gradient"/><linearGradient id="linear-gradient-11" x1="284.48" y1="203.98" x2="370.27" y2="218.53" xlink:href="#linear-gradient"/><linearGradient id="linear-gradient-12" x1="281.46" y1="151.93" x2="375.6" y2="151.93" xlink:href="#linear-gradient"/><linearGradient id="linear-gradient-13" x1="515.68" y1="188.29" x2="561.64" y2="188.29" xlink:href="#linear-gradient"/><linearGradient id="linear-gradient-14" x1="544.16" y1="399.14" x2="547.21" y2="399.14" xlink:href="#linear-gradient"/><linearGradient id="linear-gradient-15" x1="587.36" y1="399.14" x2="590.4" y2="399.14" xlink:href="#linear-gradient"/><linearGradient id="linear-gradient-16" x1="589.55" y1="203.33" x2="609.69" y2="203.33" xlink:href="#linear-gradient"/><linearGradient id="linear-gradient-17" x1="555.83" y1="207.3" x2="566.44" y2="207.3" xlink:href="#linear-gradient"/><linearGradient id="linear-gradient-18" x1="597.92" y1="195.15" x2="625.19" y2="195.15" xlink:href="#linear-gradient"/><linearGradient id="linear-gradient-19" x1="600.04" y1="228.31" x2="611.99" y2="228.31" xlink:href="#linear-gradient"/><linearGradient id="linear-gradient-20" x1="175.89" y1="183.35" x2="242.08" y2="183.35" xlink:href="#linear-gradient"/></defs><g id="Layer_2" data-name="Layer 2"><g id="Layer_1-2" data-name="Layer 1"><g id="freepik--background-complete--inject-43"><path class="cls-1" d="M166.85,134.34H40.21V47.7H166.85Zm-125.64-1H165.85V48.7H41.21Z"/><path class="cls-2" d="M50.11,53.29a2.52,2.52,0,1,1-2.52-2.53,2.52,2.52,0,0,1,2.52,2.53Z"/><path class="cls-1" d="M60.4,53.29a2.52,2.52,0,1,1-2.52-2.53,2.52,2.52,0,0,1,2.52,2.53Z"/><path class="cls-3" d="M70.69,53.29a2.52,2.52,0,1,1-2.52-2.53,2.52,2.52,0,0,1,2.52,2.53Z"/><rect class="cls-1" x="40.71" y="57.72" width="125.64" height="1"/><path class="cls-1" d="M619.58,130l5.89-9.49-2.91-1.8a2.69,2.69,0,0,1-1.23-2.5,11.64,11.64,0,0,0,0-1.67,2.68,2.68,0,0,1,1.39-2.41l3-1.61-5.28-9.85-3,1.62a2.66,2.66,0,0,1-2.77-.18,16,16,0,0,0-1.42-.88,2.66,2.66,0,0,1-1.4-2.41l.11-3.42L600.85,95l-.1,3.43a2.66,2.66,0,0,1-1.56,2.31l-.73.37-.72.41a2.61,2.61,0,0,1-2.77,0L592,99.72l-5.88,9.49,2.91,1.81a2.64,2.64,0,0,1,1.23,2.5,15.35,15.35,0,0,0-.06,1.66,2.67,2.67,0,0,1-1.38,2.41l-3,1.61,5.28,9.85,3-1.62a2.66,2.66,0,0,1,2.77.18,12.71,12.71,0,0,0,1.41.87,2.67,2.67,0,0,1,1.41,2.41l-.11,3.43,11.16.34.11-3.42a2.66,2.66,0,0,1,1.55-2.31c.25-.11.5-.24.74-.37s.48-.26.72-.41a2.63,2.63,0,0,1,2.78,0Zm-9.45-7a9.15,9.15,0,1,1,3.72-12.42A9.15,9.15,0,0,1,610.13,123Z"/><path class="cls-1" d="M65.67,214.66l5.88-9.49-2.9-1.8a2.67,2.67,0,0,1-1.24-2.5,15.54,15.54,0,0,0,.06-1.67,2.67,2.67,0,0,1,1.38-2.41l3-1.61-5.28-9.85-3,1.62a2.66,2.66,0,0,1-2.77-.18,16,16,0,0,0-1.42-.88,2.66,2.66,0,0,1-1.4-2.41l.11-3.42-11.16-.34-.08,3.43a2.66,2.66,0,0,1-1.55,2.31c-.25.11-.5.24-.74.37s-.48.26-.71.41a2.67,2.67,0,0,1-2.78,0l-2.92-1.82-5.89,9.49,2.91,1.81a2.64,2.64,0,0,1,1.23,2.5,15.32,15.32,0,0,0,0,1.66A2.68,2.68,0,0,1,35,202.29l-3,1.62,5.28,9.84,3-1.61a2.64,2.64,0,0,1,2.77.17,16,16,0,0,0,1.42.88,2.67,2.67,0,0,1,1.4,2.41L45.77,219l11.17.35.1-3.43a2.65,2.65,0,0,1,1.56-2.3c.24-.12.49-.24.74-.38s.48-.26.71-.4a2.69,2.69,0,0,1,2.79,0Zm-9.45-7A9.15,9.15,0,1,1,60,195.22h0a9.14,9.14,0,0,1-3.73,12.38Z"/><path class="cls-1" d="M579.57,57.9l-3.91-6.77-2.07,1.2a1.86,1.86,0,0,1-2-.07c-.33-.21-.66-.41-1-.59a1.85,1.85,0,0,1-1-1.65V47.63h-7.83V50a1.85,1.85,0,0,1-1,1.65c-.34.18-.68.38-1,.59a1.86,1.86,0,0,1-2,.07l-2.08-1.2-3.91,6.77,2.09,1.2a1.89,1.89,0,0,1,.91,1.73V62a1.88,1.88,0,0,1-.91,1.72l-2.09,1.21,3.91,6.77,2.08-1.19a1.86,1.86,0,0,1,2,.06c.32.21.66.41,1,.59a1.85,1.85,0,0,1,1,1.65v2.4h7.83v-2.4a1.87,1.87,0,0,1,1-1.65,9.05,9.05,0,0,0,1-.59,1.86,1.86,0,0,1,2-.06l2.08,1.19,3.91-6.77-2.08-1.2a1.85,1.85,0,0,1-.9-1.72V60.83a1.87,1.87,0,0,1,.91-1.73Zm-7.48,3.51a6.41,6.41,0,1,1-6.4-6.42,6.41,6.41,0,0,1,6.4,6.42Z"/><path class="cls-1" d="M36.48,23.84l13.12-.3,6.66-.11c2.23,0,4.47,0,6.7-.06h.44v.45L63.46,35v.53H63l-13.24-.06c-4.42,0-8.83-.12-13.24-.17H36.2V35c0-1.9.08-3.79.13-5.65Zm0,0,.14,5.7c0,1.87.11,3.71.13,5.54l-.27-.27c4.41,0,8.82-.16,13.24-.17L63,34.54l-.5.5V23.85l.45.45c-2.18,0-4.36,0-6.55-.06l-6.51-.12Z"/><path class="cls-1" d="M51.25,9.73l13.12-.28L71,9.34c2.22,0,4.46,0,6.69-.06h.44V21.42h-.5l-13.24-.06c-4.41,0-8.83-.12-13.24-.17h-.28v-.27c0-1.9.08-3.79.13-5.65Zm0,0,.14,5.65c0,1.87.11,3.71.13,5.54l-.27-.27c4.41,0,8.83-.16,13.24-.17l13.24-.06-.5.5,0-11.19.45.45c-2.18,0-4.36,0-6.55-.06L64.61,10Z"/><path class="cls-1" d="M21.71,9.73l13.14-.28,6.66-.11c2.23,0,4.47,0,6.7-.06h.44v.45l.06,11.19v.5h-.5L35,21.36c-4.42,0-8.83-.12-13.24-.17h-.28v-.27c0-1.9.09-3.79.13-5.65Zm0,0,.14,5.65c0,1.87.11,3.71.13,5.54l-.27-.27c4.41,0,8.82-.16,13.24-.17l13.24-.06-.5.5V9.73l.45.45c-2.19,0-4.36,0-6.55-.06L35,10Z"/><path class="cls-1" d="M414.06,157l13.12-.28,6.66-.11c2.23,0,4.47,0,6.7-.06H441V157l.06,11.19v.5h-.5l-13.24-.07c-4.42,0-8.83-.11-13.24-.16h-.28v-.27c0-1.9.09-3.79.14-5.66Zm0,0,.14,5.65c0,1.86.11,3.71.13,5.54l-.27-.28c4.41,0,8.82-.15,13.24-.16l13.24-.06-.5.5,0-11.19.45.44c-2.18,0-4.36,0-6.55-.05l-6.58-.11Z"/><path class="cls-1" d="M428.85,142.89l13.12-.28,6.67-.11c2.22-.05,4.46,0,6.69-.06h.44v12.14h-.5l-13.2,0c-4.41,0-8.83-.11-13.24-.16h-.28v-.27c0-1.9.08-3.79.13-5.66Zm0,0,.14,5.65c.05,1.86.11,3.71.13,5.54l-.27-.28c4.41,0,8.83-.15,13.24-.16l13.24-.06-.5.5.05-11.19.45.44h-6.55l-6.57-.11Z"/><path class="cls-1" d="M399.29,142.89l13.12-.28,6.66-.11c2.23-.05,4.46,0,6.7-.06h.44v.45l.06,11.19v.5h-.5l-13.24,0c-4.42,0-8.83-.11-13.24-.16H399v-.27c0-1.9.09-3.79.13-5.66Zm0,0,.14,5.65c0,1.86.11,3.71.13,5.54l-.27-.28c4.41,0,8.82-.15,13.24-.16l13.24-.06-.5.5.05-11.19.45.44h-6.55l-6.58-.11Z"/><path class="cls-1" d="M597.47,19.91l13.13-.28,6.66-.11h7.13V20l.05,11.19v.5h-.5l-13.23-.12c-4.41,0-8.83-.12-13.24-.17h-.27V31.1c0-1.9.08-3.79.13-5.65Zm0,0,.14,5.65c0,1.87.12,3.71.13,5.54l-.27-.27c4.41,0,8.83-.16,13.24-.17L624,30.6l-.5.5.06-11.19.44.45c-2.18,0-4.36,0-6.54-.06l-6.56-.11Z"/><path class="cls-1" d="M191,157l13.12-.27,6.66-.12h7.14v.44l.06,11.19v.51h-.5l-13.24-.06c-4.42,0-8.83-.11-13.24-.16h-.28v-.27c0-1.89.08-3.78.13-5.65Zm0,0,.14,5.66c.05,1.86.11,3.7.13,5.53l-.27-.27c4.41,0,8.82-.16,13.24-.16l13.24-.06-.5.49L217,157l.45.45h-6.55l-6.58-.12Z"/><path class="cls-1" d="M38,265.68l13.12-.27,6.67-.12c2.22,0,4.46,0,6.69-.05h.44v12.14h-.5l-13.24-.06c-4.41,0-8.83-.11-13.24-.16h-.28v-.27c0-1.89.08-3.78.13-5.65Zm0,0,.14,5.66c0,1.86.11,3.7.13,5.53L38,276.6c4.41-.05,8.83-.16,13.24-.16l13.24-.07-.5.5V265.68l.45.45H57.89L51.32,266Z"/><path class="cls-1" d="M23.24,251.54l13.12-.27,6.66-.12c2.23,0,4.47,0,6.7-.05h.44v.44l.06,11.19v.51h-.5l-13.24-.06c-4.42,0-8.83-.11-13.24-.16H23v-.27c0-1.89.09-3.78.14-5.65Zm0,0,.14,5.66c0,1.86.11,3.7.13,5.53l-.27-.27c4.41,0,8.82-.16,13.24-.16l13.24-.07-.5.5V251.54l.45.45c-2.18,0-4.36,0-6.55-.05l-6.58-.12Z"/><path class="cls-1" d="M609.51,265.67l13.13-.28,6.66-.11c2.22,0,4.46,0,6.69,0h.45v12.14h-.51l-13.24-.06c-4.41,0-8.82-.11-13.24-.16h-.27v-.27c0-1.9.09-3.78.13-5.65Zm0,0,.15,5.66c0,1.86.11,3.7.13,5.53l-.28-.27c4.42,0,8.83-.16,13.24-.16l13.24-.07-.5.5.06-11.19.44.45c-2.18,0-4.35,0-6.54-.06l-6.58-.11Z"/></g><g id="freepik--Floor--inject-43"><polygon class="cls-4" points="0 353.48 82.21 353.24 164.42 353.15 328.85 352.98 493.27 353.15 575.49 353.24 657.7 353.48 575.49 353.73 493.27 353.81 328.85 353.98 164.42 353.81 82.21 353.73 0 353.48"/></g><g id="freepik--Shadow--inject-43"><ellipse class="cls-1" cx="379.71" cy="401.4" rx="301.98" ry="15.44"/></g><rect class="cls-5" x="233.86" y="381.21" width="189.97" height="15.87"/><polygon class="cls-1" points="401.21 381.22 256.48 381.22 260.16 353.67 260.34 352.37 260.68 349.78 260.85 348.48 261.21 345.9 261.25 345.5 261.37 344.6 261.73 342.01 261.9 340.72 264.47 321.47 393.23 321.47 395.66 339.62 395.78 340.5 396.18 343.51 396.29 344.38 396.44 345.5 396.7 347.39 396.81 348.27 397.21 351.29 397.33 352.15 401.21 381.22"/><polygon class="cls-5" points="396.44 345.5 261.9 340.72 264.47 321.47 393.23 321.47 396.44 345.5"/><rect class="cls-6" x="85.12" width="487.45" height="331.46"/><rect class="cls-1" x="85.12" y="282.56" width="487.45" height="48.89"/><path class="cls-6" d="M336.78,303.72a8.08,8.08,0,1,1-8.09-8.07h0a8.07,8.07,0,0,1,8.07,8.07Z"/><rect class="cls-7" x="107.62" y="21.55" width="442.46" height="238.02"/><rect class="cls-7" x="107.62" y="21.55" width="442.46" height="238.02"/><rect class="cls-8" x="107.62" y="32.32" width="434.62" height="30.78"/><rect class="cls-7" x="122.23" y="42.61" width="10.5" height="1.69"/><rect class="cls-7" x="122.23" y="50.17" width="10.5" height="1.69"/><rect class="cls-7" x="122.23" y="46.44" width="10.5" height="1.69"/><rect class="cls-7" x="154.04" y="42.7" width="238.3" height="9.06"/><path class="cls-7" d="M392.43,51.86H154V42.61H392.43Z"/><rect class="cls-9" x="383.18" y="42.61" width="9.25" height="9.25"/><path class="cls-7" d="M390.68,49.78l-.84.63-1.55-2-.56-.75a1,1,0,0,0,.32-.18,1.32,1.32,0,0,0,.43-.56l.6.8Z"/><path class="cls-7" d="M389,45a2.29,2.29,0,1,0-.74,3.41,2.14,2.14,0,0,0,.32-.2,2.42,2.42,0,0,0,.47-.49A2.27,2.27,0,0,0,389,45Zm-1,2.48a1,1,0,0,1-.32.18,1.36,1.36,0,0,1-1.77-.76,1.36,1.36,0,1,1,2.52,0,1.34,1.34,0,0,1-.41.56Z"/><rect class="cls-10" x="155.94" y="44.48" width="0.49" height="5.5"/><path class="cls-9" d="M526.31,52.12a4.8,4.8,0,0,1-1.48.62,5.15,5.15,0,1,1,1.48-.62Z"/><path class="cls-7" d="M525.17,47.15a1.57,1.57,0,1,1-1.56-1.61,1.57,1.57,0,0,1,1.56,1.61Z"/><path class="cls-7" d="M526.31,51.47v.65a4.8,4.8,0,0,1-1.48.62,5.12,5.12,0,0,1-3.93-.62v-.65a2.71,2.71,0,1,1,5.41-.33A1.82,1.82,0,0,1,526.31,51.47Z"/><path class="cls-7" d="M508.48,54.4H504.9V53.13a.18.18,0,0,0-.11-.17,4,4,0,0,1-.39-.23.23.23,0,0,0-.2,0l-1.1.64-1.79-3.1,1.1-.64a.17.17,0,0,0,.09-.18V49a.19.19,0,0,0-.09-.18l-1.1-.64,1.79-3.1,1.1.64a.18.18,0,0,0,.2,0l.39-.23a.18.18,0,0,0,.11-.17V44.05h3.58v1.27a.18.18,0,0,0,.11.17l.39.23a.18.18,0,0,0,.2,0l1.1-.64,1.79,3.1-1.1.64a.18.18,0,0,0-.13.21v.46a.16.16,0,0,0,.09.18l1.1.64-1.79,3.1-1.1-.63a.18.18,0,0,0-.2,0,4,4,0,0,1-.39.23.18.18,0,0,0-.11.17Zm-2.69-.89h1.8v-.38a1.06,1.06,0,0,1,.59-1l.31-.18a1.11,1.11,0,0,1,1.14,0l.32.19.9-1.55-.33-.2a1,1,0,0,1-.53-1v-.34a1.08,1.08,0,0,1,.53-1l.33-.19-.9-1.55-.32.19a1.07,1.07,0,0,1-1.14,0,3.07,3.07,0,0,0-.31-.17,1.1,1.1,0,0,1-.59-1V45h-1.8v.38a1.1,1.1,0,0,1-.59,1,3.07,3.07,0,0,0-.31.17,1.07,1.07,0,0,1-1.14,0l-.32-.19-.9,1.55.32.19a1.11,1.11,0,0,1,.54,1v.35a1.06,1.06,0,0,1-.53,1l-.33.19.9,1.55.32-.19a1.11,1.11,0,0,1,1.14,0l.3.18a1.07,1.07,0,0,1,.6,1Zm.9-1.64a2.65,2.65,0,1,1,2.65-2.65,2.65,2.65,0,0,1-2.65,2.65Zm0-4.41a1.77,1.77,0,0,0-1.77,1.75,1.76,1.76,0,1,0,3.52,0h0A1.77,1.77,0,0,0,506.69,47.46Z"/><rect class="cls-9" x="107.62" y="21.55" width="442.46" height="10.77"/><path class="cls-10" d="M116.18,26.94a2.67,2.67,0,1,1-2.67-2.68A2.68,2.68,0,0,1,116.18,26.94Z"/><path class="cls-7" d="M127.09,26.94a2.68,2.68,0,1,1-2.68-2.68h0A2.68,2.68,0,0,1,127.09,26.94Z"/><path class="cls-3" d="M138,26.94a2.67,2.67,0,1,1-2.67-2.68A2.68,2.68,0,0,1,138,26.94Z"/><rect class="cls-5" x="542.23" y="32.32" width="7.85" height="227.25"/><path class="cls-2" d="M546.15,125.63h0a2,2,0,0,1-2-2V35.92a2,2,0,0,1,2-2h0a2,2,0,0,1,2,2V123.6a2,2,0,0,1-2,2Z"/><path class="cls-7" d="M525.17,47.15a1.57,1.57,0,1,1-1.56-1.61,1.57,1.57,0,0,1,1.56,1.61Z"/><path class="cls-7" d="M526.31,50v.65a5.34,5.34,0,0,1-1.48.62,5.16,5.16,0,0,1-3.93-.62V50a2.71,2.71,0,1,1,5.41-.33A1.82,1.82,0,0,1,526.31,50Z"/><rect class="cls-2" x="406.26" y="104.86" width="94.14" height="94.14"/><path class="cls-7" d="M471.09,143.78A17.77,17.77,0,1,1,453.32,126h0a17.76,17.76,0,0,1,17.76,17.76Z"/><path class="cls-7" d="M484,192.77v6.32H422.64v-6.32a30.69,30.69,0,0,1,61.38-.06Z"/><circle class="cls-11" cx="492.68" cy="186.4" r="18.16" transform="translate(12.5 402.98) rotate(-45)"/><rect class="cls-7" x="490.74" y="176.32" width="3.9" height="20.16"/><rect class="cls-7" x="482.61" y="184.44" width="20.16" height="3.9"/><g class="cls-12"><path class="cls-9" d="M187.66,218.76v-7.15H193v1.21H189.1v1.58h3.6v1.21h-3.6v1.95h4v1.2Z"/><path class="cls-9" d="M194.22,213.58h1.26v.71a2,2,0,0,1,1.62-.83,1.69,1.69,0,0,1,.86.21,1.56,1.56,0,0,1,.6.62,2.23,2.23,0,0,1,.74-.62,1.74,1.74,0,0,1,.84-.21,1.93,1.93,0,0,1,1,.23,1.46,1.46,0,0,1,.59.68,3.11,3.11,0,0,1,.14,1.08v3.31h-1.37v-3a2.31,2.31,0,0,0-.14-1,.66.66,0,0,0-.59-.29.92.92,0,0,0-.54.18,1,1,0,0,0-.37.51,4,4,0,0,0-.11,1.07v2.49h-1.37v-2.84a3.86,3.86,0,0,0-.07-1,.64.64,0,0,0-.23-.33.72.72,0,0,0-.42-.11,1,1,0,0,0-.57.17,1,1,0,0,0-.36.49,3.5,3.5,0,0,0-.11,1.07v2.52h-1.37Z"/><path class="cls-9" d="M203.17,213.58h1.28v.76a1.93,1.93,0,0,1,.67-.63,1.82,1.82,0,0,1,.95-.25,2,2,0,0,1,1.53.71,2.86,2.86,0,0,1,.63,2,2.92,2.92,0,0,1-.64,2,2,2,0,0,1-1.53.72,1.79,1.79,0,0,1-.78-.17,2.48,2.48,0,0,1-.74-.59v2.62h-1.37Zm1.36,2.5a2,2,0,0,0,.34,1.29,1.08,1.08,0,0,0,.85.42,1,1,0,0,0,.8-.38,2,2,0,0,0,.31-1.26,1.92,1.92,0,0,0-.32-1.21,1.06,1.06,0,0,0-1.65,0A1.75,1.75,0,0,0,204.53,216.08Z"/><path class="cls-9" d="M209.32,218.76v-7.15h1.37v7.15Z"/><path class="cls-9" d="M211.78,216.1a2.77,2.77,0,0,1,.34-1.33,2.28,2.28,0,0,1,.95-1,2.77,2.77,0,0,1,1.38-.34,2.63,2.63,0,0,1,1.93.76,2.88,2.88,0,0,1,0,3.89,2.59,2.59,0,0,1-1.91.77,3.05,3.05,0,0,1-1.36-.32,2.2,2.2,0,0,1-1-.95A3.06,3.06,0,0,1,211.78,216.1Zm1.4.07a1.72,1.72,0,0,0,.37,1.18,1.2,1.2,0,0,0,1.81,0,1.75,1.75,0,0,0,.36-1.19,1.71,1.71,0,0,0-.36-1.17,1.2,1.2,0,0,0-1.81,0A1.74,1.74,0,0,0,213.18,216.17Z"/><path class="cls-9" d="M217.56,213.58H219l1.24,3.68,1.21-3.68h1.42l-1.83,5-.33.9a3.76,3.76,0,0,1-.35.7,1.49,1.49,0,0,1-.37.38,1.79,1.79,0,0,1-.52.24,3,3,0,0,1-.7.08,4,4,0,0,1-.78-.08l-.12-1.08a3.17,3.17,0,0,0,.58.06.86.86,0,0,0,.71-.28,1.89,1.89,0,0,0,.35-.71Z"/><path class="cls-9" d="M226.77,217.11l1.37.23a2.28,2.28,0,0,1-.84,1.15,2.45,2.45,0,0,1-1.42.39,2.31,2.31,0,0,1-2-.88,3,3,0,0,1-.51-1.79,2.87,2.87,0,0,1,.67-2,2.21,2.21,0,0,1,1.7-.73,2.33,2.33,0,0,1,1.83.76,3.37,3.37,0,0,1,.64,2.35h-3.44a1.42,1.42,0,0,0,.33,1,1.08,1.08,0,0,0,.79.34.85.85,0,0,0,.55-.18A1.2,1.2,0,0,0,226.77,217.11Zm.08-1.38a1.36,1.36,0,0,0-.31-.91.93.93,0,0,0-.71-.31,1,1,0,0,0-.75.33,1.25,1.25,0,0,0-.28.89Z"/><path class="cls-9" d="M232.33,217.11l1.37.23a2.33,2.33,0,0,1-.83,1.15,2.48,2.48,0,0,1-1.43.39,2.31,2.31,0,0,1-2-.88,3,3,0,0,1-.51-1.79,2.87,2.87,0,0,1,.67-2,2.22,2.22,0,0,1,1.71-.73,2.31,2.31,0,0,1,1.82.76,3.37,3.37,0,0,1,.64,2.35h-3.44a1.37,1.37,0,0,0,.34,1,1,1,0,0,0,.79.34.84.84,0,0,0,.54-.18A1.12,1.12,0,0,0,232.33,217.11Zm.08-1.38a1.31,1.31,0,0,0-.31-.91.92.92,0,0,0-.71-.31.94.94,0,0,0-.74.33,1.21,1.21,0,0,0-.29.89Z"/><path class="cls-9" d="M240.89,218.76h-1.38v-5.17a4.64,4.64,0,0,1-1.77,1v-1.24a4,4,0,0,0,1.17-.67,2.51,2.51,0,0,0,.86-1.14h1.12Z"/></g><path class="cls-13" d="M303.05,219.37v-7.16h5.31v1.21h-3.87V215h3.6v1.21h-3.6v1.94h4v1.21Z"/><path class="cls-14" d="M309.61,214.18h1.26v.71a2,2,0,0,1,1.62-.82,1.79,1.79,0,0,1,.86.2,1.56,1.56,0,0,1,.6.62,2.63,2.63,0,0,1,.74-.62,1.86,1.86,0,0,1,.84-.2,1.83,1.83,0,0,1,1,.23,1.41,1.41,0,0,1,.59.68,2.83,2.83,0,0,1,.14,1.07v3.32h-1.37v-3a2.28,2.28,0,0,0-.14-1,.64.64,0,0,0-.59-.29,1,1,0,0,0-.54.17,1,1,0,0,0-.36.52,3.43,3.43,0,0,0-.12,1.07v2.49h-1.37v-2.84a4,4,0,0,0-.07-1,.59.59,0,0,0-.65-.43,1,1,0,0,0-.57.17.91.91,0,0,0-.36.49,3.8,3.8,0,0,0-.11,1.07v2.52h-1.37Z"/><path class="cls-15" d="M318.56,214.18h1.28V215a2,2,0,0,1,.67-.64,1.92,1.92,0,0,1,.95-.24,2,2,0,0,1,1.53.71,2.86,2.86,0,0,1,.63,2,3,3,0,0,1-.63,2,2,2,0,0,1-1.54.72,1.79,1.79,0,0,1-.78-.17,2.8,2.8,0,0,1-.74-.59v2.61h-1.37Zm1.36,2.51a2,2,0,0,0,.35,1.29,1.05,1.05,0,0,0,.84.42,1,1,0,0,0,.8-.39,2,2,0,0,0,.31-1.25,1.9,1.9,0,0,0-.32-1.21,1,1,0,0,0-.81-.4,1.05,1.05,0,0,0-.84.39A1.73,1.73,0,0,0,319.92,216.69Z"/><path class="cls-16" d="M324.71,219.37v-7.16h1.37v7.16Z"/><path class="cls-17" d="M327.17,216.7a2.76,2.76,0,0,1,.34-1.32,2.3,2.3,0,0,1,.95-1,2.87,2.87,0,0,1,1.38-.33,2.58,2.58,0,0,1,1.93.76,2.87,2.87,0,0,1,0,3.88,2.54,2.54,0,0,1-1.91.78,3.09,3.09,0,0,1-1.36-.32,2.2,2.2,0,0,1-1-.95A3.08,3.08,0,0,1,327.17,216.7Zm1.41.08a1.73,1.73,0,0,0,.36,1.18,1.2,1.2,0,0,0,1.81,0,1.75,1.75,0,0,0,.36-1.19,1.71,1.71,0,0,0-.36-1.17,1.2,1.2,0,0,0-1.81,0A1.72,1.72,0,0,0,328.58,216.78Z"/><path class="cls-18" d="M333,214.18h1.46l1.24,3.69,1.21-3.69h1.42l-1.83,5-.33.91a4.42,4.42,0,0,1-.34.69,1.57,1.57,0,0,1-.38.39,1.55,1.55,0,0,1-.52.23,2.54,2.54,0,0,1-.7.08,3.33,3.33,0,0,1-.78-.08l-.12-1.07a3.17,3.17,0,0,0,.58.06.86.86,0,0,0,.71-.28,2,2,0,0,0,.35-.72Z"/><path class="cls-19" d="M342.16,217.72l1.37.23a2.26,2.26,0,0,1-.84,1.14,2.38,2.38,0,0,1-1.42.4,2.32,2.32,0,0,1-2-.89,3,3,0,0,1-.51-1.78,2.85,2.85,0,0,1,.67-2,2.21,2.21,0,0,1,1.7-.73,2.29,2.29,0,0,1,1.83.76,3.36,3.36,0,0,1,.64,2.34h-3.44a1.38,1.38,0,0,0,.33,1,1.05,1.05,0,0,0,.8.34.89.89,0,0,0,.54-.17A1.12,1.12,0,0,0,342.16,217.72Zm.08-1.39a1.29,1.29,0,0,0-.31-.9.93.93,0,0,0-.71-.31,1,1,0,0,0-.75.32,1.27,1.27,0,0,0-.28.89Z"/><path class="cls-20" d="M347.72,217.72l1.37.23a2.24,2.24,0,0,1-.83,1.14,2.41,2.41,0,0,1-1.43.4,2.32,2.32,0,0,1-2-.89,3,3,0,0,1-.51-1.78,2.85,2.85,0,0,1,.67-2,2.22,2.22,0,0,1,1.71-.73,2.28,2.28,0,0,1,1.82.76,3.36,3.36,0,0,1,.64,2.34h-3.44a1.38,1.38,0,0,0,.34,1,1,1,0,0,0,.79.34.89.89,0,0,0,.54-.17A1.06,1.06,0,0,0,347.72,217.72Zm.08-1.39a1.29,1.29,0,0,0-.31-.9.92.92,0,0,0-.71-.31,1,1,0,0,0-.74.32,1.27,1.27,0,0,0-.29.89Z"/><path class="cls-21" d="M357.4,218.1v1.27h-4.81a3.29,3.29,0,0,1,.47-1.37,9.25,9.25,0,0,1,1.54-1.72,8.92,8.92,0,0,0,1.14-1.17,1.48,1.48,0,0,0,.28-.84,1,1,0,0,0-.24-.7,1,1,0,0,0-1.37,0,1.29,1.29,0,0,0-.29.86l-1.37-.14a2.22,2.22,0,0,1,.77-1.62,2.56,2.56,0,0,1,1.61-.5,2.31,2.31,0,0,1,1.66.57,1.86,1.86,0,0,1,.61,1.42,2.55,2.55,0,0,1-.17.92,3.79,3.79,0,0,1-.55.92,9.07,9.07,0,0,1-.9.91c-.43.4-.71.66-.82.79a2.46,2.46,0,0,0-.29.39Z"/><g class="cls-12"><path class="cls-2" d="M421.24,218.76h-1.57l-.62-1.62h-2.87l-.59,1.62h-1.53l2.79-7.15h1.53Zm-2.66-2.83-1-2.65-1,2.65Z"/><path class="cls-2" d="M426.76,218.76h-1.28V218a2,2,0,0,1-.75.66,1.87,1.87,0,0,1-.87.22,2,2,0,0,1-1.53-.72,3.51,3.51,0,0,1,0-4,2,2,0,0,1,1.57-.69,1.93,1.93,0,0,1,1.5.72v-2.57h1.38Zm-3.67-2.7a2.42,2.42,0,0,0,.23,1.2,1,1,0,0,0,1.74.13,1.87,1.87,0,0,0,.33-1.2,2.09,2.09,0,0,0-.32-1.29,1.07,1.07,0,0,0-1.65,0A1.75,1.75,0,0,0,423.09,216.06Z"/><path class="cls-2" d="M432.86,218.76h-1.27V218a2,2,0,0,1-.75.66,1.87,1.87,0,0,1-.87.22,2,2,0,0,1-1.53-.72,3.51,3.51,0,0,1,0-4,2,2,0,0,1,1.57-.69,1.93,1.93,0,0,1,1.5.72v-2.57h1.37Zm-3.66-2.7a2.42,2.42,0,0,0,.23,1.2,1,1,0,0,0,.93.54,1,1,0,0,0,.8-.41,1.81,1.81,0,0,0,.34-1.2,2,2,0,0,0-.33-1.29,1,1,0,0,0-.82-.39,1,1,0,0,0-.82.39A1.75,1.75,0,0,0,429.2,216.06Z"/><path class="cls-2" d="M437,218.76v-7.15h5.31v1.21h-3.86v1.58H442v1.21h-3.59v1.95h4v1.2Z"/><path class="cls-2" d="M443.56,213.58h1.27v.71a2,2,0,0,1,1.61-.83,1.75,1.75,0,0,1,.87.21,1.56,1.56,0,0,1,.6.62,2.3,2.3,0,0,1,.73-.62,1.81,1.81,0,0,1,.85-.21,2,2,0,0,1,1,.23,1.46,1.46,0,0,1,.59.68,3.11,3.11,0,0,1,.14,1.08v3.31h-1.37v-3a2.31,2.31,0,0,0-.14-1,.67.67,0,0,0-.59-.29.92.92,0,0,0-.54.18,1,1,0,0,0-.37.51,4,4,0,0,0-.11,1.07v2.49H446.7v-2.84a3.7,3.7,0,0,0-.08-1,.62.62,0,0,0-.22-.33.77.77,0,0,0-.42-.11,1,1,0,0,0-.57.17,1,1,0,0,0-.37.49,3.85,3.85,0,0,0-.11,1.07v2.52h-1.37Z"/><path class="cls-2" d="M452.52,213.58h1.28v.76a1.85,1.85,0,0,1,.67-.63,1.79,1.79,0,0,1,.94-.25,2,2,0,0,1,1.54.71,2.86,2.86,0,0,1,.63,2,3,3,0,0,1-.64,2,2,2,0,0,1-1.54.72,1.85,1.85,0,0,1-.78-.17,2.58,2.58,0,0,1-.73-.59v2.62h-1.37Zm1.35,2.5a2,2,0,0,0,.35,1.29,1.06,1.06,0,0,0,.85.42,1,1,0,0,0,.79-.38,2,2,0,0,0,.32-1.26,1.86,1.86,0,0,0-.33-1.21,1,1,0,0,0-.81-.4,1,1,0,0,0-.83.39A1.7,1.7,0,0,0,453.87,216.08Z"/><path class="cls-2" d="M458.66,218.76v-7.15H460v7.15Z"/><path class="cls-2" d="M461.13,216.1a2.88,2.88,0,0,1,.33-1.33,2.36,2.36,0,0,1,1-1,2.77,2.77,0,0,1,1.38-.34,2.6,2.6,0,0,1,2.68,2.7,2.71,2.71,0,0,1-.76,2,2.6,2.6,0,0,1-1.91.77,3.05,3.05,0,0,1-1.36-.32,2.27,2.27,0,0,1-1-.95A3.18,3.18,0,0,1,461.13,216.1Zm1.4.07a1.67,1.67,0,0,0,.37,1.18,1.19,1.19,0,0,0,1.8,0,1.75,1.75,0,0,0,.37-1.19,1.71,1.71,0,0,0-.37-1.17,1.19,1.19,0,0,0-1.8,0A1.69,1.69,0,0,0,462.53,216.17Z"/><path class="cls-2" d="M466.9,213.58h1.46l1.24,3.68,1.21-3.68h1.42l-1.83,5-.32.9a4.5,4.5,0,0,1-.35.7,1.52,1.52,0,0,1-.38.38,1.67,1.67,0,0,1-.52.24,2.93,2.93,0,0,1-.7.08,3.94,3.94,0,0,1-.77-.08l-.13-1.08a3.26,3.26,0,0,0,.58.06.85.85,0,0,0,.71-.28,1.75,1.75,0,0,0,.35-.71Z"/><path class="cls-2" d="M476.12,217.11l1.36.23a2.21,2.21,0,0,1-.83,1.15,2.45,2.45,0,0,1-1.42.39,2.33,2.33,0,0,1-2-.88,3,3,0,0,1-.51-1.79,2.87,2.87,0,0,1,.68-2,2.2,2.2,0,0,1,1.7-.73,2.35,2.35,0,0,1,1.83.76,3.42,3.42,0,0,1,.64,2.35h-3.44a1.42,1.42,0,0,0,.33,1,1.07,1.07,0,0,0,.79.34.8.8,0,0,0,.54-.18A1.13,1.13,0,0,0,476.12,217.11Zm.07-1.38a1.36,1.36,0,0,0-.3-.91,1,1,0,0,0-1.46,0,1.31,1.31,0,0,0-.29.89Z"/><path class="cls-2" d="M481.68,217.11l1.36.23a2.21,2.21,0,0,1-.83,1.15,2.45,2.45,0,0,1-1.42.39,2.31,2.31,0,0,1-2-.88,2.92,2.92,0,0,1-.52-1.79,2.87,2.87,0,0,1,.68-2,2.2,2.2,0,0,1,1.7-.73,2.35,2.35,0,0,1,1.83.76,3.42,3.42,0,0,1,.64,2.35h-3.44a1.42,1.42,0,0,0,.33,1,1.07,1.07,0,0,0,.79.34.85.85,0,0,0,.55-.18A1.2,1.2,0,0,0,481.68,217.11Zm.08-1.38a1.36,1.36,0,0,0-.31-.91,1,1,0,0,0-1.46,0,1.31,1.31,0,0,0-.29.89Z"/></g><rect class="cls-22" x="281.46" y="104.86" width="94.14" height="94.14"/><rect class="cls-9" x="163.66" y="104.86" width="94.14" height="94.14"/><path class="cls-23" d="M607.21,236.6s-18.34-2.32-46.11,5.26c0,0-4.47-49.64-3.94-56.46s42.89-4.83,42.89-4.83,1.05,19.87,3.81,31.86S608.64,234.29,607.21,236.6Z"/><path class="cls-24" d="M607.21,236.6s-18.34-2.32-46.11,5.26c0,0-4.47-49.64-3.94-56.46s42.89-4.83,42.89-4.83,1.05,19.87,3.81,31.86S608.64,234.29,607.21,236.6Z"/><polygon class="cls-25" points="547.7 400.94 555.18 403.05 556.96 391.42 557.91 385.19 550.44 383.08 549.16 391.42 547.7 400.94"/><polygon class="cls-25" points="590.69 401.55 598.39 402.57 598.47 391.42 598.52 384.49 590.8 383.48 590.75 391.42 590.69 401.55"/><polygon class="cls-24" points="590.8 383.48 590.75 391.42 598.47 391.42 598.52 384.49 590.8 383.48"/><polygon class="cls-24" points="549.16 391.42 556.96 391.42 557.91 385.19 550.44 383.08 549.16 391.42"/><path class="cls-25" d="M514.51,189.47l-7.43-2.19,1.36,8.48s6.74,1.55,7.37-2Z"/><polygon class="cls-25" points="499.67 189.25 503.31 196.14 508.44 195.76 507.08 187.28 499.67 189.25"/><polygon class="cls-25" points="524.75 191.64 512.56 188.91 511.45 194.83 522.52 197.53 524.75 191.64"/><path class="cls-26" d="M561.64,186.29l-.71.85c-1.54,1.8-5.27,6.15-9.15,9.9-3.16,3.06-6.32,5.72-8.43,6.26-6,1.54-27.67-4.86-27.67-4.86l2.24-8.8s20.22,2.68,21.79,2.68c1.19,0,13.49-17.81,16.47-19.28Z"/><path class="cls-24" d="M560.93,187.14c-1.54,1.8-5.27,6.15-9.15,9.9.77-6.17,3-11.83,6-15.41a5.57,5.57,0,0,1,1-.93Z"/><path class="cls-4" d="M547.8,399.77l8.48-.22a.68.68,0,0,1,.68.5l1.79,6.84a1.13,1.13,0,0,1-.81,1.37l-.25,0c-3.06,0-7.49,0-11.34.07-4.5.13-7.37-.09-12.63,0-3.16.08-4.22-3.1-2.87-3.42,6-1.5,10-1.2,15.12-4.57A3.73,3.73,0,0,1,547.8,399.77Z"/><path class="cls-23" d="M547.06,400.86h0c-1.24.28-3.46.64-4.34-.08a1.08,1.08,0,0,1-.38-.89.58.58,0,0,1,.28-.49c.94-.56,4.11,1,4.48,1.11a.21.21,0,0,1,.11.18A.18.18,0,0,1,547.06,400.86Zm-4.21-1.17h-.07a.23.23,0,0,0-.11.2.68.68,0,0,0,.24.58c.49.41,1.78.46,3.48.12-1.23-.52-2.94-1.12-3.52-.9Z"/><path class="cls-27" d="M547.06,400.86h-.13c-1-.4-2.87-2-2.77-2.89,0-.21.17-.48.68-.54a1.42,1.42,0,0,1,1,.28c1.05.79,1.29,2.87,1.32,3a.21.21,0,0,1-.08.17Zm-2.36-3c-.16.05-.17.14-.17.17-.06.52,1.24,1.81,2.22,2.36a4.19,4.19,0,0,0-1.11-2.36.92.92,0,0,0-.76-.21A.58.58,0,0,0,544.7,397.84Z"/><path class="cls-4" d="M591,399.77l8.49-.22a.66.66,0,0,1,.68.5l1.78,6.84a1.11,1.11,0,0,1-.78,1.37l-.27,0c-3.06,0-7.5,0-11.35.07-4.5.13-7.37-.09-12.64,0-3.16.08-4.21-3.1-2.86-3.42,6-1.5,10-1.2,15.11-4.57A3.57,3.57,0,0,1,591,399.77Z"/><path class="cls-23" d="M590.26,400.86h0c-1.24.28-3.46.64-4.33-.08a1,1,0,0,1-.38-.89.55.55,0,0,1,.28-.49c.93-.56,4.11,1,4.47,1.11a.17.17,0,0,1,.1.18A.18.18,0,0,1,590.26,400.86Zm-4.21-1.17H586a.23.23,0,0,0-.11.2.66.66,0,0,0,.25.58c.49.41,1.77.46,3.48.12-1.25-.52-3-1.12-3.55-.9Z"/><path class="cls-28" d="M590.26,400.86h-.13c-1-.4-2.88-2-2.76-2.89,0-.21.16-.48.66-.54a1.43,1.43,0,0,1,1.06.28,5.33,5.33,0,0,1,1.31,3,.18.18,0,0,1-.07.17Zm-2.36-3c-.15.05-.16.14-.16.17-.08.52,1.24,1.81,2.22,2.36a4.27,4.27,0,0,0-1.12-2.36.93.93,0,0,0-.75-.21Z"/><path class="cls-4" d="M606.59,232.07c4.08,17.7-2.93,157-2.93,157H590.12L584.33,273,563,389,548.52,388C558,298.07,566.35,244.4,566.35,244.4v-6.78Z"/><path class="cls-29" d="M548.52,388,563,389l16.79-91.37L584.33,273,590.12,389h13.54s7-139.27,2.93-157l-40.26,5.55v6.78S558,298.07,548.52,388Z"/><path class="cls-4" d="M599.29,166.5a170.67,170.67,0,0,0,.64,25.38c.57,5.9,1.35,11.47,2.18,16.49,1.95,11.79,4.16,20.62,4.48,23.71l-40.26,5.55c-14.68-41.07-9.15-64.93-9.15-64.93a77.25,77.25,0,0,1,9.23-3.16c.67-.18,1.34-.35,2-.51a151.35,151.35,0,0,1,17.11-2.36c1.05-.09,2.2-.17,3.27-.22A104,104,0,0,1,599.29,166.5Z"/><path class="cls-25" d="M577.74,148c.3,5.64.9,16.21,5.59,18.89,0,0-2.92,5.55-9.23,6.12-4.77.42-4.45-4.28-4.45-4.28,2.76-2.06,2.1-5.54,0-9.48Z"/><path class="cls-24" d="M574.44,152.61l-4.76,6.66a18.46,18.46,0,0,1,1.26,2.84c2.21-.88,4.75-4.21,4.38-6.62A8.1,8.1,0,0,0,574.44,152.61Z"/><path class="cls-4" d="M557.21,136.68c-.92,2.93-.41,8.93,3.66,7S558.79,131.66,557.21,136.68Z"/><path class="cls-25" d="M578.27,140.64c.45,7.51,1.05,11.88-2.22,16.13-5,6.4-14.63,4-17.32-3.23C556.3,147,556,135.83,562.94,132a10.38,10.38,0,0,1,15.33,8.6Z"/><path class="cls-4" d="M573,136.55v-8.42s8.93-.66,8.53,3.91c4.94,2.45,2.61,10.15-4,13.92-3.64-2.92-3.22-9.93-3.22-9.93A9.64,9.64,0,0,1,573,136.55Z"/><path class="cls-25" d="M581.9,146.5a7,7,0,0,1-3,4.53c-2.1,1.38-3.93-.31-4-2.68-.06-2.11.94-5.43,3.36-5.86a3.24,3.24,0,0,1,3.7,2.71A3.17,3.17,0,0,1,581.9,146.5Z"/><path class="cls-4" d="M567.18,144c.08.61-.19,1.14-.59,1.18s-.78-.41-.85-1,.19-1.14.58-1.18S567.11,143.34,567.18,144Z"/><path class="cls-4" d="M560.29,144.76c.08.61-.18,1.14-.58,1.18s-.78-.41-.86-1.06.19-1.13.59-1.18S560.2,144.15,560.29,144.76Z"/><path class="cls-30" d="M562.52,144.81a21.82,21.82,0,0,1-2.35,5.35,3.64,3.64,0,0,0,3,.16Z"/><path class="cls-4" d="M566.68,152.28a7.27,7.27,0,0,1-.79.14.18.18,0,1,1,0-.35h0a4.83,4.83,0,0,0,3.7-2.32.16.16,0,0,1,.22-.09h0a.18.18,0,0,1,.08.23h0A5,5,0,0,1,566.68,152.28Z"/><path class="cls-4" d="M569,141.54a.37.37,0,0,1-.36-.11,2.94,2.94,0,0,0-2.44-.94.33.33,0,0,1-.41-.26v0a.36.36,0,0,1,.29-.42h0a3.58,3.58,0,0,1,3.08,1.15.35.35,0,0,1,0,.49h0A.49.49,0,0,1,569,141.54Z"/><path class="cls-4" d="M557,142.73a.37.37,0,0,1-.21,0,.36.36,0,0,1-.22-.46,3.51,3.51,0,0,1,2.33-2.29.36.36,0,0,1,.18.69,2.77,2.77,0,0,0-1.83,1.83A.34.34,0,0,1,557,142.73Z"/><path class="cls-4" d="M577,139.67s-5.26-1.93-7.66-5c0,0-4.78,1.25-5.76,3.16a2.38,2.38,0,0,1-.41-3.16s-3.58.76-4.29,3.16a3,3,0,0,1-1.68-3.16s-1.59.6-2.11,3.16c0,0-3.95-8.23,9.1-10.59a9.7,9.7,0,0,0-3.07-.52s9.11-3.68,16.33-.32S583.37,136.29,577,139.67Z"/><path class="cls-31" d="M609.69,239.16l-12.63,1.69s-5.22-36.43-7.51-48.19v-25.1l6.6-1.74,5.12,1.74a123.79,123.79,0,0,1,3.23,15.37c.62,3.94,1.18,8.15,1.68,12.42.68,5.81,1.25,11.73,1.73,17.27.76,8.94,1.27,16.85,1.54,21.68C609.61,237.33,609.69,239.16,609.69,239.16Z"/><path class="cls-23" d="M589.56,192.64s1.05-17.72,6.6-26.86c0,0-.13-2.61-1.24-3s-5.36,2.11-5.36,2.11-2.64-1.81-3.22-1S584.35,170.33,589.56,192.64Z"/><path class="cls-32" d="M589.56,192.64s1.05-17.72,6.6-26.86c0,0-.13-2.61-1.24-3s-5.36,2.11-5.36,2.11-2.64-1.81-3.22-1S584.35,170.33,589.56,192.64Z"/><path class="cls-33" d="M560.83,244l1.44,1s-2.1-11.74-1.24-41.44c0-1.43.1-2.81.15-4.12,1.05-25.13,5-29.7,5.26-30l-3.64,1.24-6.6,2.27C554.21,194.48,560.83,244,560.83,244Z"/><path class="cls-23" d="M561.4,195.18S557.76,178,558.84,172s5-3.29,5-3.29,3.57-2.89,4.64.29C568.45,169,563.54,172.46,561.4,195.18Z"/><path class="cls-32" d="M561.4,195.18S557.76,178,558.84,172s5-3.29,5-3.29,3.57-2.89,4.64.29C568.45,169,563.54,172.46,561.4,195.18Z"/><path class="cls-24" d="M606.16,195.3c-5.4-3-6.11-10.9-6.11-10.9.32-.13,2.33-.82,4.43-1.51C605.1,186.83,605.66,191,606.16,195.3Z"/><path class="cls-24" d="M579.79,297.67,584.33,273l-.88-13.07S577.23,282.57,579.79,297.67Z"/><path class="cls-24" d="M609.43,234.26c-3.39-.23-6.32-.46-6.32-.46L602.47,220a4.92,4.92,0,0,1,3.55-.65,39.06,39.06,0,0,0,1.88-6.79C608.64,221.52,609.16,229.43,609.43,234.26Z"/><polygon class="cls-25" points="610.59 212.56 603.99 223.17 609.21 226.17 615.41 216.62 610.59 212.56"/><path class="cls-34" d="M601,167.39c4.44.48,23.33,26.41,24.16,34.22s-11.1,21.31-11.1,21.31l-8-4.69s8.09-12.44,8.51-15.8-14.79-16.93-14.79-16.93a30.67,30.67,0,0,1-1.88-9.75C597.72,170,601,167.39,601,167.39Z"/><path class="cls-35" d="M602.46,220s6.79,1.45,9.53,5.73c0,0-2.84,8.9-4.88,9.87s-7.06,1-7.06,1S599.72,226.7,602.46,220Z"/><path class="cls-4" d="M364.17,190.25a8.41,8.41,0,0,0-2.33-5.82,32.46,32.46,0,0,0-4.7-4.38c-1.44-.71-14.1-4.11-14.1-4.11l-20.11-1.19L301.47,184s-2.78,2-3.19,3.29c0,.07-2.5,11.79,0,11.81,11.09.1,52.66.27,65.89.1Z"/><path class="cls-4" d="M351.52,120.1c-3.39-.92-6.82,2.22-10.31,1.7-2.11-.35-3.76-2-5.67-3a10.81,10.81,0,0,0-9.59-.08c-2.81,1.55-4.6,3.16-4.88,6.36-2.66-1.41-6.88,2-8.25,5.22s-.89,6.46.06,9.81a46,46,0,0,0,8.16,16c.33.41.85.84,1.32.62a1.13,1.13,0,0,0,.47-.95,38.21,38.21,0,0,0-.47-9.36c-.38-3.11-.62-6.33.27-9.32s3.12-5.81,6.17-6.52a9.93,9.93,0,0,1,6.7,1.2c2.05,1.06,3.88,2.54,5.85,3.75a12.76,12.76,0,0,0,6.48,2.25,6.09,6.09,0,0,0,5.67-3.28c.92-2.13-.28-5.08-2.54-5.47a4.55,4.55,0,0,0,.61-8.91Z"/><path class="cls-36" d="M317.75,141l4.54,34.86a10.47,10.47,0,0,0,11.74,9l.5-.08h0A10.46,10.46,0,0,0,343,173.09c-.34-2.63-.62-4.81-.63-5.08,0,0,8.76-2,8.26-10.87-.25-4.29-1.46-13.08-2.65-21a16.57,16.57,0,0,0-17.51-14l-.85.06C320.46,123.35,316.32,131.81,317.75,141Z"/><path class="cls-37" d="M342.4,167.9a20.64,20.64,0,0,1-11.78-2.49s3.17,6.2,12,4.78Z"/><path class="cls-4" d="M345.86,142.52a1.25,1.25,0,0,1-1.13,1.36,1.23,1.23,0,0,1-1.39-1h0a1.27,1.27,0,0,1,1.14-1.36,1.2,1.2,0,0,1,1.37,1Z"/><path class="cls-4" d="M346.4,140.63c-.14.18-1.15-.47-2.54-.37s-2.32.85-2.48.69.06-.37.48-.72a3.44,3.44,0,0,1,2-.75,3.27,3.27,0,0,1,2,.5C346.29,140.26,346.48,140.55,346.4,140.63Z"/><path class="cls-4" d="M333,143.74a1.28,1.28,0,0,1-1.14,1.36,1.21,1.21,0,0,1-1.37-1v0a1.27,1.27,0,0,1,1.13-1.36,1.21,1.21,0,0,1,1.38,1Z"/><path class="cls-4" d="M333,141.82c-.15.17-1.16-.48-2.54-.38s-2.31.85-2.47.69.06-.37.47-.72a3.46,3.46,0,0,1,2-.76,3.34,3.34,0,0,1,2,.5C332.94,141.44,333.1,141.73,333,141.82Z"/><path class="cls-4" d="M338.66,151.57a9.77,9.77,0,0,1,2.19-.55c.35-.06.67-.15.71-.39a1.77,1.77,0,0,0-.3-1c-.39-.84-.79-1.69-1.22-2.54-1.69-3.68-2.93-6.7-2.78-6.78a46.07,46.07,0,0,1,3.33,6.53l1.17,2.6a2,2,0,0,1,.27,1.35.87.87,0,0,1-.54.55,2.3,2.3,0,0,1-.58.12A8.49,8.49,0,0,1,338.66,151.57Z"/><path class="cls-4" d="M334.73,152.79c.22,0,.32,1.45,1.7,2.42s2.89.68,2.92.89-.33.31-1,.38a3.72,3.72,0,0,1-2.44-.67,3.19,3.19,0,0,1-1.3-2C334.48,153.16,334.63,152.79,334.73,152.79Z"/><path class="cls-4" d="M333,136.45c-.11.38-1.49.3-3.07.6s-2.85.85-3.09.51c-.1-.15.1-.52.6-.91a5.15,5.15,0,0,1,2.24-1,5.08,5.08,0,0,1,2.45.12C332.73,136,333.06,136.27,333,136.45Z"/><path class="cls-4" d="M345.63,136.72c-.22.33-1.18.08-2.31.14s-2.06.35-2.31,0c-.11-.15,0-.47.42-.79a3.39,3.39,0,0,1,3.73-.14C345.57,136.26,345.72,136.57,345.63,136.72Z"/><path class="cls-36" d="M318.93,147.47c-.16-.06-6.21-1.38-5.6,4.66s6.55,4.19,6.54,4S318.93,147.47,318.93,147.47Z"/><path class="cls-37" d="M317.8,154a2.51,2.51,0,0,1-.27.18,1.08,1.08,0,0,1-.79.1,2.63,2.63,0,0,1-1.44-2.21,3.7,3.7,0,0,1,.14-1.55,1.28,1.28,0,0,1,.71-.89.55.55,0,0,1,.65.23c.11.16.08.29.11.3s.12-.12,0-.37a.74.74,0,0,0-.28-.35.89.89,0,0,0-.6-.1,1.5,1.5,0,0,0-1,1.06,3.48,3.48,0,0,0-.2,1.69,2.74,2.74,0,0,0,1.81,2.46,1.12,1.12,0,0,0,.94-.26C317.8,154.19,317.82,154.05,317.8,154Z"/><path class="cls-4" d="M349.76,134.18a12.83,12.83,0,0,1-11.55-1.77c-2.28-1.7-4.13-4.2-6.89-4.84a7.24,7.24,0,0,0-5.46,1.13,14.19,14.19,0,0,0-3.9,4.12c2,4.39,1.22,9.5.37,14.26a2.35,2.35,0,0,1-.6,1.44,1.94,1.94,0,0,1-2.46-.36,7.62,7.62,0,0,1-1.92-3.84,25.12,25.12,0,0,1-.61-9.84,17,17,0,0,1,4.07-8.89,16.15,16.15,0,0,1,11-5,19.74,19.74,0,0,1,11.74,3.3,11.66,11.66,0,0,1,4,4"/><path class="cls-9" d="M354.22,122.06a1.51,1.51,0,0,1,0,.52,2.46,2.46,0,0,1-.76,1.32,4,4,0,0,1-2.21.91,6.44,6.44,0,0,1-1.52,0,3.52,3.52,0,0,1-1.59-.61,2.18,2.18,0,0,1-.85-1.7,1.9,1.9,0,0,1,1.18-1.64,2.51,2.51,0,0,1,1.08-.21,2,2,0,0,1,1.07.39,2.73,2.73,0,0,1,1.05,2.06,3.2,3.2,0,0,1-.79,2.29,5,5,0,0,1-2.11,1.4,8.08,8.08,0,0,1-5.23-.2,23.38,23.38,0,0,1-4.67-2.39,28.48,28.48,0,0,0-4.23-2.32,9.09,9.09,0,0,0-4.24-.73,8.46,8.46,0,0,0-3.6,1.27,10.58,10.58,0,0,0-3.77,3.92,13,13,0,0,0-.68,1.35c-.15.31-.21.47-.22.47s0,0,0-.13a1.51,1.51,0,0,1,.12-.37,13.15,13.15,0,0,1,.64-1.37,10.63,10.63,0,0,1,3.76-4.06A8.82,8.82,0,0,1,330.3,121a9.42,9.42,0,0,1,4.36.71A30.23,30.23,0,0,1,339,124a22.25,22.25,0,0,0,4.61,2.35,7.72,7.72,0,0,0,5,.22,4.51,4.51,0,0,0,2-1.31,3,3,0,0,0,.75-2.09,2.58,2.58,0,0,0-.94-1.85,1.82,1.82,0,0,0-1.89-.17,1.63,1.63,0,0,0-1.05,1.41,1.93,1.93,0,0,0,.77,1.49,3.11,3.11,0,0,0,1.49.58,5.94,5.94,0,0,0,1.46,0,3.88,3.88,0,0,0,2.16-.84,2.44,2.44,0,0,0,.78-1.23C354.22,122.25,354.19,122.06,354.22,122.06Z"/><path class="cls-9" d="M312.07,135.65A10.13,10.13,0,0,0,314,136a4.92,4.92,0,0,0,2-.34,8.9,8.9,0,0,0,2.2-1.26,7.07,7.07,0,0,0,2.45-3.8,15.11,15.11,0,0,0,.28-1.89,1.75,1.75,0,0,1,.07.51,7,7,0,0,1-.14,1.44,6.91,6.91,0,0,1-2.47,4,8.9,8.9,0,0,1-2.29,1.28,5.27,5.27,0,0,1-2.12.3,4.91,4.91,0,0,1-1.41-.33A1.58,1.58,0,0,1,312.07,135.65Z"/><path class="cls-9" d="M312.64,140c0-.06.72.05,1.86-.09a8.33,8.33,0,0,0,6.78-5.16c.43-1.06.52-1.78.57-1.78s0,.19,0,.51a6.77,6.77,0,0,1-.35,1.34,8.06,8.06,0,0,1-2.68,3.67,8.18,8.18,0,0,1-4.24,1.63,6.37,6.37,0,0,1-1.38,0A1.38,1.38,0,0,1,312.64,140Z"/><path class="cls-37" d="M328.91,147.92a.16.16,0,0,1-.19-.11h0a.15.15,0,1,1,.28-.05A.17.17,0,0,1,328.91,147.92Z"/><path class="cls-37" d="M331.47,147.15a.19.19,0,0,1-.2-.15.18.18,0,0,1,.1-.22.18.18,0,0,1,.19.14h0a.16.16,0,0,1-.08.21Z"/><path class="cls-37" d="M333.21,147c-.07,0-.16-.07-.19-.21s0-.25.1-.27.17.09.19.22S333.3,147,333.21,147Z"/><path class="cls-37" d="M330.3,149.46c-.09,0-.16,0-.16-.08s.06-.11.14-.11.16,0,.16.08S330.38,149.45,330.3,149.46Z"/><path class="cls-37" d="M332.65,148.74a.16.16,0,0,1-.18-.14h0a.15.15,0,0,1,.15-.16.15.15,0,0,1,.15.15h0A.15.15,0,0,1,332.65,148.74Z"/><path class="cls-37" d="M345,146.4a.15.15,0,0,1-.19-.12h0a.16.16,0,1,1,.31,0A.15.15,0,0,1,345,146.4Z"/><path class="cls-37" d="M346.73,146.15a.17.17,0,0,1-.18-.15h0a.2.2,0,0,1,.11-.22.18.18,0,0,1,.18.17C346.86,146,346.81,146.15,346.73,146.15Z"/><path class="cls-37" d="M343.4,146.55a.12.12,0,0,1-.17-.07h0a.16.16,0,0,1,.11-.17.14.14,0,0,1,.18.08h0A.13.13,0,0,1,343.4,146.55Z"/><path class="cls-37" d="M344.84,148.24a.16.16,0,0,1-.21-.08h0a.17.17,0,0,1,0-.23h0a.17.17,0,0,1,.21.08A.17.17,0,0,1,344.84,148.24Z"/><path class="cls-37" d="M346.29,147.84a.14.14,0,0,1-.12-.15h0a.17.17,0,0,1,.21-.07.16.16,0,0,1,.08.13A.14.14,0,0,1,346.29,147.84Z"/><path class="cls-4" d="M315.48,155.85a3.83,3.83,0,0,0-.07,1.39,2,2,0,0,0,.75,1.22,1.8,1.8,0,0,0,1.7.32,1.68,1.68,0,0,0,1.1-1.26,2.2,2.2,0,0,0-.35-1.39,3,3,0,0,0-1-1s.63.1,1.14.85a2.26,2.26,0,0,1,.44,1.55A1.88,1.88,0,0,1,318,159a2.06,2.06,0,0,1-1.94-.38,2.16,2.16,0,0,1-.78-1.41,2.28,2.28,0,0,1,.1-1.07C315.39,156,315.46,155.84,315.48,155.85Z"/><path class="cls-4" d="M315.43,154.83a.64.64,0,0,1,.37.39.85.85,0,0,1-.43,1.12l-.1,0a.86.86,0,0,1-.76-.13.69.69,0,0,1-.27-.58c0-.37.28-.49.28-.45a1,1,0,0,0-.06.45.49.49,0,0,0,.21.36.65.65,0,0,0,.51.07.7.7,0,0,0,.37-.37.86.86,0,0,0,0-.45C315.53,155,315.4,154.86,315.43,154.83Z"/><path class="cls-4" d="M212.46,122.53a11.46,11.46,0,0,0-16.2-.73l-.52.51c-2.1,2.17-3.39,5.22-6.1,6.57s-6,.75-8.26,2.54c-4,3.22-1.08,10.68-4.76,14.3-2,2-5.75,2.43-6.53,5.16s2.37,5.47,2.07,8.39c-.19,1.74-1.56,3.1-2.26,4.7a6.56,6.56,0,0,0,2.93,8.16,16.53,16.53,0,0,1,2.89,1.43c1.82,1.49,1.69,4.23,2.53,6.44a7,7,0,0,0,7.39,4.14,8.42,8.42,0,0,1,2.91-.34c2.37.47,3.23,3.89,5.6,4.3,1.54.26,3-.91,3.89-2.17s1.69-2.72,3.1-3.47c1.69-.93,3.81-.5,5.74-.16a13.67,13.67,0,0,0,5.14.14,5.85,5.85,0,0,0,4.09-2.85c.68-1.35.69-3,1.69-4.13a4.21,4.21,0,0,1,4.09-.84c1.43.33,2.78.93,4.23,1.13a7.28,7.28,0,0,0,8.22-6.18,7.46,7.46,0,0,0,0-2.11,7.79,7.79,0,0,1-.29-3.23c.4-1.45,1.92-2.23,3-3.23a7.3,7.3,0,0,0,.06-10.33l-.06-.06c-1-1-2.53-1.75-2.75-3.16-.32-1.82,1.65-3.38,1.62-5.21,0-2-2.31-3.19-4.23-3.72s-4.28-1.18-5-3.09c-.35-1-.15-2.08-.45-3.07a5.14,5.14,0,0,0-3.13-2.94,22.56,22.56,0,0,1-3.38-2.08c-1.81-1.15-2.47-3.94-4.06-5.39a4.62,4.62,0,0,0-5.86.12"/><path class="cls-38" d="M177.84,185.73a23.7,23.7,0,0,1,19.49-15.92c15.79-2.38,17.07-2.9,17.07-2.9s19.27-3.56,23.91,15.39c0,0,6.36,13.51,2.57,16.24,0,0-56.79,3.42-63,0C173.44,196.13,177.84,185.73,177.84,185.73Z"/><path class="cls-39" d="M192.19,138.54a14.1,14.1,0,0,1,12.75-15.33l.51,0a14.5,14.5,0,0,1,15.21,12.68,139.73,139.73,0,0,1,1.43,15.52c-.28,7.19-4.65,9.88-6.41,10.68a10,10,0,0,1-2,.42h0a0,0,0,0,0,0,.05l1.41,8.31c.6,5.43-2.61,10.14-8.14,10.82s-9.74-3.63-10.44-9.07Z"/><path class="cls-4" d="M218.93,140.13a1.16,1.16,0,0,1-1,1.28,1.11,1.11,0,0,1-1.31-.87v0a1.14,1.14,0,0,1,1-1.27,1.11,1.11,0,0,1,1.32.87Z"/><path class="cls-4" d="M218.91,138.05c-.13.17-1.09-.37-2.33-.22s-2.09.85-2.24.73,0-.34.41-.67a3.23,3.23,0,0,1,1.76-.77,3.14,3.14,0,0,1,1.88.36C218.81,137.69,219,138,218.91,138.05Z"/><path class="cls-4" d="M206.71,141.92a1.13,1.13,0,0,1-1,1.27,1.11,1.11,0,0,1-1.32-.84,1.14,1.14,0,0,1,1-1.28A1.12,1.12,0,0,1,206.71,141.92Z"/><path class="cls-4" d="M206.69,139.8c-.13.16-1.08-.37-2.32-.22s-2.09.84-2.24.73,0-.35.4-.67a3.09,3.09,0,0,1,1.77-.77,3.16,3.16,0,0,1,1.88.36C206.59,139.47,206.75,139.73,206.69,139.8Z"/><path class="cls-4" d="M212.31,148a8.06,8.06,0,0,1,2-.59c.31-.08.61-.17.63-.39a1.54,1.54,0,0,0-.32-.9l-1.23-2.27a46,46,0,0,1-2.87-6,45.84,45.84,0,0,1,3.39,5.73l1.19,2.3a1.83,1.83,0,0,1,.31,1.2.79.79,0,0,1-.47.52,2.44,2.44,0,0,1-.53.14A9.09,9.09,0,0,1,212.31,148Z"/><path class="cls-40" d="M213.67,162.48s-4.76,1-11.21-1.9c0,0,2.67,6,11.59,4.14Z"/><path class="cls-4" d="M207,137.22c-.08.34-1.35.33-2.78.67s-2.54.85-2.81.6c-.1-.14.07-.48.5-.85a5,5,0,0,1,4.22-1C206.73,136.85,207,137.05,207,137.22Z"/><path class="cls-4" d="M218.15,135.32c-.19.31-1.09.11-2.12.22s-1.88.41-2.12.15,0-.43.36-.74a3.14,3.14,0,0,1,3.38-.29C218.07,134.9,218.22,135.15,218.15,135.32Z"/><path class="cls-4" d="M214.6,123.53a14.92,14.92,0,0,1-10.78,11.62c.16-.67.32-1.35.47-2a21.18,21.18,0,0,1-11.83,9.79,14.66,14.66,0,0,1,3.38-18c5.16-4.23,13.52-5.27,18.76-1.1"/><path class="cls-4" d="M198,139.38c-1.25,2.26-.73,5,.06,7.47s1.84,4.92,1.55,7.47c-.27,2.36-1.69,4.5-2,6.85-.51,4,2.1,7.6,3.1,11.53a15.09,15.09,0,0,1-4,14.29,2,2,0,0,1-1.42.74,1.44,1.44,0,0,1-1.23-1.22,6,6,0,0,1,.09-1.8c.66-5.7-5.07-10.42-5.75-16.11-.45-3.7,1.26-7.31,1.61-11,.42-4.67-1.33-9.25-1.81-13.92a10.17,10.17,0,0,1,.41-4.74,5.05,5.05,0,0,1,3.51-3.21,3.5,3.5,0,0,1,4.09,2"/><path class="cls-40" d="M212.67,150.73c-.73,0-1.46-.08-2.18-.09a1.78,1.78,0,0,0-.85.14,1.25,1.25,0,0,0-.58,1,2.22,2.22,0,0,0,4.3,1"/><path class="cls-4" d="M212.78,153.68a1.86,1.86,0,0,1-1.25.64,2.84,2.84,0,0,1-1.53-.41,1.61,1.61,0,0,1-.71-.68,2.81,2.81,0,0,1-.27-1,3.43,3.43,0,0,1,.09-1,.9.9,0,0,1,.26-.51.58.58,0,0,1,.31-.11h1.72a4.57,4.57,0,0,1,1.38.09,4.21,4.21,0,0,1-1.36.22l-1.48.13h-.29V151h0s-.08-.14.08.12h0a.57.57,0,0,0-.11.28,3.48,3.48,0,0,0-.06.85,2.42,2.42,0,0,0,.21.84,1.27,1.27,0,0,0,.52.53,3.19,3.19,0,0,0,1.3.44A9.65,9.65,0,0,0,212.78,153.68Z"/></g></g></svg>