<svg xmlns="http://www.w3.org/2000/svg" xmlns:xlink="http://www.w3.org/1999/xlink" viewBox="0 0 596.24 556.38"><defs><style>.cls-1{fill:url(#linear-gradient);}.cls-11,.cls-12,.cls-2,.cls-33,.cls-4,.cls-51{fill:#fff;}.cls-2{fill-rule:evenodd;}.cls-3{fill:url(#linear-gradient-2);}.cls-5{fill:url(#linear-gradient-3);}.cls-6{fill:url(#linear-gradient-4);}.cls-7,.cls-8{fill:#efefef;}.cls-10,.cls-51,.cls-52,.cls-55,.cls-8{isolation:isolate;}.cls-8{opacity:0.7;}.cls-10,.cls-9{fill:#ddd;}.cls-10{opacity:0.5;}.cls-11,.cls-12,.cls-16,.cls-33,.cls-34,.cls-35,.cls-46,.cls-54{stroke:#263238;}.cls-11,.cls-12,.cls-35,.cls-46,.cls-54{stroke-miterlimit:10;}.cls-12{stroke-width:2px;}.cls-13{fill:#1a1f21;}.cls-14,.cls-34{fill:#263238;}.cls-15,.cls-35{fill:#92e3a9;}.cls-16,.cls-46,.cls-47,.cls-53,.cls-55{fill:none;}.cls-16,.cls-33,.cls-34,.cls-47,.cls-55{stroke-linecap:round;stroke-linejoin:round;}.cls-17{fill:url(#linear-gradient-5);}.cls-18{fill:url(#linear-gradient-6);}.cls-19{fill:url(#linear-gradient-7);}.cls-20{fill:url(#linear-gradient-8);}.cls-21{fill:url(#linear-gradient-9);}.cls-22{fill:url(#linear-gradient-10);}.cls-23{fill:url(#linear-gradient-11);}.cls-24{fill:url(#linear-gradient-12);}.cls-25{fill:url(#linear-gradient-13);}.cls-26{fill:url(#linear-gradient-14);}.cls-27{fill:url(#linear-gradient-15);}.cls-28{fill:url(#linear-gradient-16);}.cls-29{fill:url(#linear-gradient-17);}.cls-30{fill:url(#linear-gradient-18);}.cls-31{fill:url(#linear-gradient-19);}.cls-32{fill:#c5c5c5;}.cls-36{fill:#fafafa;}.cls-37{fill:#e0e0e0;}.cls-38{fill:url(#linear-gradient-20);}.cls-39{fill:#234e99;}.cls-40{fill:#2f29aa;}.cls-41{fill:url(#linear-gradient-21);}.cls-42{opacity:0.3;}.cls-43{fill:#455a64;}.cls-44{fill:url(#linear-gradient-22);}.cls-45{fill:url(#linear-gradient-23);}.cls-47{stroke:#000;}.cls-48{fill:#0e0f0f;}.cls-49{fill:#e5a491;}.cls-50{fill:url(#linear-gradient-24);}.cls-51{opacity:0.6;}.cls-52,.cls-55{opacity:0.2;}.cls-54{fill:#682718;}.cls-55{stroke:#fff;stroke-width:0.75px;}.cls-56{fill:url(#linear-gradient-25);}</style><linearGradient id="linear-gradient" x1="-25.06" y1="259.56" x2="45.81" y2="342.72" gradientUnits="userSpaceOnUse"><stop offset="0" stop-color="#00ffaf"/><stop offset="0.06" stop-color="#00edad"/><stop offset="0.32" stop-color="#00a6a7"/><stop offset="0.55" stop-color="#006ea2"/><stop offset="0.75" stop-color="#00469f"/><stop offset="0.91" stop-color="#002d9d"/><stop offset="1" stop-color="#00249c"/></linearGradient><linearGradient id="linear-gradient-2" x1="12.05" y1="432.38" x2="72.47" y2="432.38" xlink:href="#linear-gradient"/><linearGradient id="linear-gradient-3" x1="526.38" y1="391.51" x2="596.24" y2="391.51" xlink:href="#linear-gradient"/><linearGradient id="linear-gradient-4" x1="43.79" y1="206.22" x2="80.18" y2="206.22" xlink:href="#linear-gradient"/><linearGradient id="linear-gradient-5" x1="396.23" y1="354.72" x2="415.23" y2="354.72" xlink:href="#linear-gradient"/><linearGradient id="linear-gradient-6" x1="386.29" y1="385.25" x2="405.3" y2="385.25" xlink:href="#linear-gradient"/><linearGradient id="linear-gradient-7" x1="413.87" y1="364.02" x2="435.46" y2="364.02" xlink:href="#linear-gradient"/><linearGradient id="linear-gradient-8" x1="400.94" y1="401.19" x2="425.22" y2="401.19" xlink:href="#linear-gradient"/><linearGradient id="linear-gradient-9" x1="405.06" y1="438.41" x2="424.07" y2="438.41" xlink:href="#linear-gradient"/><linearGradient id="linear-gradient-10" x1="398.19" y1="476.48" x2="417.19" y2="476.48" xlink:href="#linear-gradient"/><linearGradient id="linear-gradient-11" x1="370.4" y1="421.59" x2="380.85" y2="421.59" xlink:href="#linear-gradient"/><linearGradient id="linear-gradient-12" x1="379.93" y1="446.15" x2="404.97" y2="446.15" xlink:href="#linear-gradient"/><linearGradient id="linear-gradient-13" x1="356.6" y1="429.42" x2="373.16" y2="429.42" xlink:href="#linear-gradient"/><linearGradient id="linear-gradient-14" x1="367.01" y1="451.45" x2="385.1" y2="451.45" xlink:href="#linear-gradient"/><linearGradient id="linear-gradient-15" x1="372.03" y1="474.93" x2="386.81" y2="474.93" xlink:href="#linear-gradient"/><linearGradient id="linear-gradient-16" x1="386.84" y1="478.34" x2="396.1" y2="478.34" xlink:href="#linear-gradient"/><linearGradient id="linear-gradient-17" x1="394.99" y1="498.6" x2="417.9" y2="498.6" xlink:href="#linear-gradient"/><linearGradient id="linear-gradient-18" x1="380.46" y1="498.02" x2="395.26" y2="498.02" xlink:href="#linear-gradient"/><linearGradient id="linear-gradient-19" x1="382.98" y1="508.58" x2="393.3" y2="508.58" xlink:href="#linear-gradient"/><linearGradient id="linear-gradient-20" x1="168.88" y1="63.34" x2="232.52" y2="68.4" xlink:href="#linear-gradient"/><linearGradient id="linear-gradient-21" x1="225.85" y1="55.77" x2="258.4" y2="73.85" xlink:href="#linear-gradient"/><linearGradient id="linear-gradient-22" x1="307.86" y1="92.18" x2="466.22" y2="89.29" xlink:href="#linear-gradient"/><linearGradient id="linear-gradient-23" x1="405.24" y1="101.09" x2="416.24" y2="101.09" xlink:href="#linear-gradient"/><linearGradient id="linear-gradient-24" x1="140.05" y1="330.17" x2="255.24" y2="330.17" xlink:href="#linear-gradient"/><linearGradient id="linear-gradient-25" x1="446.64" y1="261.6" x2="530.53" y2="261.6" xlink:href="#linear-gradient"/></defs><g id="Layer_2" data-name="Layer 2"><g id="Layer_1-2" data-name="Layer 1"><path class="cls-1" d="M23,293a23,23,0,1,0,23,23h0A23.06,23.06,0,0,0,23,293Z"/><path class="cls-2" d="M37.14,315.4a13.22,13.22,0,0,0-26.35-.24v.58a13,13,0,0,0,1.89,6.76l-2.38,7,7.31-2.32a13.23,13.23,0,0,0,19.55-11.45C37.15,315.62,37.15,315.51,37.14,315.4ZM23.92,326.73a11.16,11.16,0,0,1-6.1-1.83l-4.25,1.36L15,322.17a10.86,10.86,0,0,1-2.11-6.44,9.46,9.46,0,0,1,.06-1.07,11.09,11.09,0,0,1,22.12.2v.86a11.06,11.06,0,0,1-11.06,11Z"/><path class="cls-2" d="M30,318.37c-.33-.16-1.89-.94-2.22-1s-.51-.16-.72.16-.84,1-1,1.26-.38.23-.71.07a8.71,8.71,0,0,1-2.6-1.59A9.54,9.54,0,0,1,21,315c-.19-.32,0-.5.14-.66l.48-.56.13-.15a2.35,2.35,0,0,0,.19-.39.54.54,0,0,0,0-.55c-.08-.17-.72-1.75-1-2.39s-.54-.53-.72-.53h-.63a1.18,1.18,0,0,0-.86.39,3.6,3.6,0,0,0-1.13,2.69,4,4,0,0,0,.17,1.09,7.22,7.22,0,0,0,1.15,2.22c.16.21,2.24,3.56,5.53,4.84s3.28.86,3.88.81a3.31,3.31,0,0,0,2.18-1.53,2.83,2.83,0,0,0,.19-1.52A2.14,2.14,0,0,0,30,318.37Z"/><path class="cls-3" d="M42.26,402.17a30.21,30.21,0,1,0,30.21,30.21A30.2,30.2,0,0,0,42.26,402.17Z"/><path class="cls-4" d="M37.17,451.75H45V432.18h5.44l.59-6.55H45v-3.78c0-1.54.3-2.15,1.8-2.15H51v-6.81H45.61c-5.82,0-8.44,2.57-8.44,7.47v5.22H33.1v6.61h4.07Z"/><path class="cls-5" d="M561.31,426.44h0a34.93,34.93,0,0,1-34.93-34.93h0a34.93,34.93,0,0,1,34.93-34.93h0a34.93,34.93,0,0,1,34.93,34.93h0A34.93,34.93,0,0,1,561.31,426.44Z"/><path class="cls-4" d="M542.71,403.23a21.56,21.56,0,0,0,11.7,3.42c14.16,0,22.17-12,21.71-22.7A15.77,15.77,0,0,0,579.9,380a15.25,15.25,0,0,1-4.38,1.2,7.64,7.64,0,0,0,3.35-4.22,15.45,15.45,0,0,1-4.85,1.89,7.64,7.64,0,0,0-13,7,21.65,21.65,0,0,1-15.72-8A7.62,7.62,0,0,0,547.65,388a7.62,7.62,0,0,1-3.46-.94,7.64,7.64,0,0,0,6.12,7.55,7.55,7.55,0,0,1-3.44.13,7.63,7.63,0,0,0,7.13,5.3A15.38,15.38,0,0,1,542.71,403.23Z"/><path class="cls-6" d="M62,188a18.19,18.19,0,1,0,18.2,18.19A18.19,18.19,0,0,0,62,188Z"/><rect class="cls-4" x="52.68" y="201.45" width="4" height="12.92"/><path class="cls-4" d="M54.66,199.76a2.39,2.39,0,1,0-2.37-2.4h0a2.37,2.37,0,0,0,2.37,2.39Z"/><path class="cls-4" d="M63.08,207.6c0-1.82.83-2.9,2.44-2.9s2.17,1,2.17,2.9v6.78h4v-8.16c0-3.45-2-5.13-4.72-5.13a4.48,4.48,0,0,0-3.89,2.14V201.5H59.22v12.93h3.84Z"/><g id="freepik--background-simple--inject-19"><g id="freepik--background-simple--inject-11--inject-19"><path class="cls-7" d="M411.48,215.33s-43.91-35.88-101-20-81,65.15-113.78,99c-17.15,17.72-42.48,24.24-62.88,37.88-65.14,43.6-55.51,141.62-5.26,178.59,48.56,35.7,113.17,30.68,167.94,14.21,100.13-30.14,220.72-122.07,168.66-239.8A190.51,190.51,0,0,0,411.48,215.33Z"/><path class="cls-8" d="M411.48,215.33s-43.91-35.88-101-20-81,65.15-113.78,99c-17.15,17.72-42.48,24.24-62.88,37.88-65.14,43.6-55.51,141.62-5.26,178.59,48.56,35.7,113.17,30.68,167.94,14.21,100.13-30.14,220.72-122.07,168.66-239.8A190.51,190.51,0,0,0,411.48,215.33Z"/></g></g><g id="freepik--Shape--inject-19"><ellipse class="cls-9" cx="201.73" cy="540.49" rx="199.45" ry="15.89"/><ellipse class="cls-10" cx="201.73" cy="540.49" rx="199.45" ry="15.89"/></g><g id="freepik--Plant--inject-19"><path class="cls-11" d="M350.93,508.19V541.4c0,2.38,20.57,8,46.73,8s48-5.58,48-8V508.19Z"/><path class="cls-12" d="M350.93,528.78c0,2.38,20.57,8,46.73,8s48-5.6,48-8"/><path class="cls-13" d="M445.66,508.19c0,1-4,2.36-10.71,3.51a246.84,246.84,0,0,1-73.32,0c-6.69-1.15-10.7-2.47-10.7-3.51,0-2.39,21.2-4.3,47.36-4.3S445.66,505.8,445.66,508.19Z"/><path class="cls-14" d="M435,511.72a246.84,246.84,0,0,1-73.32,0c6.9-1.21,20.77-2,36.66-2S428.05,510.5,435,511.72Z"/><g id="freepik--Plants--inject-83--inject-19"><path class="cls-15" d="M415.23,361.55s0-4.89-6.84-11.72-11.24-10.77-11.24-10.77-3.42,11.25,2.93,18.1a119,119,0,0,0,15.15,13.22Z"/><path class="cls-15" d="M405.3,392.09s0-4.89-6.84-11.73-11.25-10.76-11.25-10.76-3.42,11.24,2.94,18.09a119.26,119.26,0,0,0,15.1,13.21Z"/><path class="cls-15" d="M414.8,369.89s.53-4.87,8.05-10.95,12.27-9.51,12.27-9.51,2.22,11.55-4.82,17.67a118.37,118.37,0,0,1-16.43,11.5Z"/><path class="cls-15" d="M402.81,406s1-4.77,9.15-10,13.21-8.17,13.21-8.17,1,11.72-6.65,17.08a120.54,120.54,0,0,1-17.58,9.74Z"/><path class="cls-15" d="M405.06,445.25s0-4.89,6.84-11.74,11.24-10.75,11.24-10.75,3.43,11.24-2.92,18.08a119.19,119.19,0,0,1-15.16,13.22Z"/><path class="cls-15" d="M405,454.84s.69-4.84-5.11-12.58S390.27,430,390.27,430s-5,10.63.33,18.28a120.34,120.34,0,0,0,13.12,15.22Z"/><path class="cls-15" d="M398.19,483.31s0-4.89,6.86-11.72,11.23-10.76,11.23-10.76,3.39,11.24-2.94,18.09a120.52,120.52,0,0,1-15.15,13.21Z"/><path class="cls-15" d="M416.31,501a120.32,120.32,0,0,1-8.69,13.21c-.88,0-1.79.07-2.7.09h-.77l-1.31-5-.08-.29a10.91,10.91,0,0,1,.19-4.48,23.76,23.76,0,0,1,2-5.79c.42-.88.95-1.81,1.47-2.78,4.9-8.32,8.15-13.22,8.15-13.22S420.73,492.76,416.31,501Z"/><path class="cls-16" d="M403.92,514.38c-.47-1.58-.94-3.2-1.4-4.81-.36-1.26-.71-2.51-1.06-3.78s-.66-2.4-.95-3.57c-1-3.94-1.88-7.47-2.31-10a25.91,25.91,0,0,1,0-8.15c.19-1.28.45-2.58.78-3.89,1.19-5,3.12-10.32,4.56-16.9.31-1.4.59-2.83.84-4.34v-.18c.13-.84.26-1.71.37-2.6,0-.22.06-.44.08-.67q.07-.6.12-1.23v0c.05-.46.08-1,.1-1.36a52.25,52.25,0,0,0,0-5.31c-.57-11.89-4.55-23.45-3.78-33.2a24.5,24.5,0,0,1,.47-3.3,61,61,0,0,1,2.27-7.8c.3-.87.63-1.74.94-2.61a.21.21,0,0,1,.07-.18,2.8,2.8,0,0,0,.19-.49c3.06-7.69,6.83-15,8.68-24.55.23-1.24.44-2.48.63-3.73v0c.07-.55.16-1.1.23-1.65,0-.3.09-.61.12-.94.11-.72.19-1.46.27-2.17.26-2.22.46-4.45.62-6.68"/><line class="cls-16" x1="414.73" y1="373.13" x2="422.12" y2="367.47"/><line class="cls-16" x1="415.08" y1="366.61" x2="411.99" y2="361.12"/><path class="cls-16" d="M402.21,410.52s6.18-4.63,12.52-9.26"/><path class="cls-16" d="M405.3,400.88s-5.14-10.08-11-16.78"/><path class="cls-16" d="M405.31,452.24a76.12,76.12,0,0,1,13.22-17.62"/><path class="cls-16" d="M404.1,459.06a85.83,85.83,0,0,0-6.69-12.69c-3.6-5.31-4.12-6-4.12-6"/><path class="cls-16" d="M398.19,492.26A83.84,83.84,0,0,1,403.75,481a71,71,0,0,1,7.22-9.44"/><path class="cls-16" d="M404.92,514.36a18.78,18.78,0,0,1,1.89-7.61c2.62-5,5.5-11.5,6.69-14.07"/><path class="cls-15" d="M370.43,426.87s-.54-3.07,3-8.1,5.88-8,5.88-8,3.37,6.67.12,11.67a76.75,76.75,0,0,1-8.07,9.91Z"/><path class="cls-15" d="M380,444.93s-.53-3.07,3-8.09,5.88-8,5.88-8,3.36,6.68.13,11.66a77.22,77.22,0,0,1-8,9.92Z"/><path class="cls-15" d="M371.59,432s-.87-3-6.23-6-8.76-4.62-8.76-4.62-.13,7.48,5,10.53a74.75,74.75,0,0,0,11.56,5.44Z"/><path class="cls-15" d="M383,453.34s-1.16-2.88-6.83-5.3-9.19-3.68-9.19-3.68.65,7.45,6,10a76.63,76.63,0,0,0,12.07,4.2Z"/><path class="cls-15" d="M385.88,478.24s-.53-3.07-5.56-6.6-8.21-5.53-8.21-5.53-.95,7.42,3.77,11a78.44,78.44,0,0,0,10.93,6.61Z"/><path class="cls-15" d="M387,484.24s-.94-3,1.84-8.44,4.72-8.71,4.72-8.71,4.28,6.14,1.74,11.52a75.33,75.33,0,0,1-6.61,11Z"/><path class="cls-15" d="M395.59,509s.35-3.09,5.22-7,7.89-6,7.89-6,1.35,7.36-3.16,11.22A76.76,76.76,0,0,1,395,514.49Z"/><path class="cls-15" d="M394.31,501.34s-.53-3.06-5.56-6.61-8.21-5.52-8.21-5.52-1,7.42,3.77,11a75.66,75.66,0,0,0,10.95,6.61Z"/><path class="cls-15" d="M393.3,514.39c-1.28,0-2.57,0-3.82-.1-1.65,0-3.25-.12-4.83-.2-3.32-4.65-.66-11.33-.66-11.33s2.57,2.7,6.54,7.43A19.09,19.09,0,0,1,393.3,514.39Z"/><path class="cls-17" d="M415.23,361.55s0-4.89-6.84-11.72-11.24-10.77-11.24-10.77-3.42,11.25,2.93,18.1a119,119,0,0,0,15.15,13.22Z"/><path class="cls-18" d="M405.3,392.09s0-4.89-6.84-11.73-11.25-10.76-11.25-10.76-3.42,11.24,2.94,18.09a119.26,119.26,0,0,0,15.1,13.21Z"/><path class="cls-19" d="M414.8,369.89s.53-4.87,8.05-10.95,12.27-9.51,12.27-9.51,2.22,11.55-4.82,17.67a118.37,118.37,0,0,1-16.43,11.5Z"/><path class="cls-20" d="M402.81,406s1-4.77,9.15-10,13.21-8.17,13.21-8.17,1,11.72-6.65,17.08a120.54,120.54,0,0,1-17.58,9.74Z"/><path class="cls-21" d="M405.06,445.25s0-4.89,6.84-11.74,11.24-10.75,11.24-10.75,3.43,11.24-2.92,18.08a119.19,119.19,0,0,1-15.16,13.22Z"/><path class="cls-22" d="M398.19,483.31s0-4.89,6.86-11.72,11.23-10.76,11.23-10.76,3.39,11.24-2.94,18.09a120.52,120.52,0,0,1-15.15,13.21Z"/><path class="cls-23" d="M370.43,426.87s-.54-3.07,3-8.1,5.88-8,5.88-8,3.37,6.67.12,11.67a76.75,76.75,0,0,1-8.07,9.91Z"/><path class="cls-24" d="M399.84,442.26C394,434.5,390.27,430,390.27,430s-.22.46-.51,1.24a14.76,14.76,0,0,0-.9-2.4s-2.33,2.95-5.88,8-3,8.09-3,8.09l.94,5.51a75.58,75.58,0,0,0,7.32-8.85,13.85,13.85,0,0,0,2.37,6.71,120.34,120.34,0,0,0,13.12,15.22l1.23-8.68S405.64,450,399.84,442.26Z"/><path class="cls-25" d="M371.59,432s-.87-3-6.23-6-8.76-4.62-8.76-4.62-.13,7.48,5,10.53a74.75,74.75,0,0,0,11.56,5.44Z"/><path class="cls-26" d="M383,453.34s-1.16-2.88-6.83-5.3-9.19-3.68-9.19-3.68.65,7.45,6,10a76.63,76.63,0,0,0,12.07,4.2Z"/><path class="cls-27" d="M385.88,478.24s-.53-3.07-5.56-6.6-8.21-5.53-8.21-5.53-.95,7.42,3.77,11a78.44,78.44,0,0,0,10.93,6.61Z"/><path class="cls-28" d="M387,484.24s-.94-3,1.84-8.44,4.72-8.71,4.72-8.71,4.28,6.14,1.74,11.52a75.33,75.33,0,0,1-6.61,11Z"/><path class="cls-29" d="M414.56,482.75s-3.25,4.94-8.15,13.22a31.38,31.38,0,0,0-1.47,2.78c-1.16.88-2.55,1.95-4.13,3.21-4.87,3.88-5.22,7-5.22,7l-.6,5.52a76.75,76.75,0,0,0,7.85-5.14l1.31,5h.77c.95,0,1.82-.05,2.7-.09A120.32,120.32,0,0,0,416.31,501C420.73,492.76,414.56,482.75,414.56,482.75Z"/><path class="cls-30" d="M394.31,501.34s-.53-3.06-5.56-6.61-8.21-5.52-8.21-5.52-1,7.42,3.77,11a75.66,75.66,0,0,0,10.95,6.61Z"/><path class="cls-31" d="M393.3,514.39c-1.28,0-2.57,0-3.82-.1-1.65,0-3.25-.12-4.83-.2-3.32-4.65-.66-11.33-.66-11.33s2.57,2.7,6.54,7.43A19.09,19.09,0,0,1,393.3,514.39Z"/><path class="cls-16" d="M394.84,514.41c.27-2.95.45-5.66.44-7.44h0a16.37,16.37,0,0,0-.87-5c-.26-.81-.59-1.63-1-2.46-1.3-3-3.08-6.09-4.67-10-.4-.94-.78-1.94-1.12-3-.15-.43-.3-.89-.44-1.34v-.2c-.1-.33-.19-.66-.28-1h0a9.36,9.36,0,0,1-.22-.94c-.22-.95-.38-1.95-.51-2.93-1-7.61.27-15.43-1.31-21.55a20.46,20.46,0,0,0-.65-2,39.48,39.48,0,0,0-2.26-4.62,16.25,16.25,0,0,0-.94-1.54l-.05-.11c-.07-.11-.12-.2-.19-.3-2.75-4.49-5.9-8.63-8.1-14.44-.28-.76-.55-1.52-.8-2.31a.43.43,0,0,1-.05-.12c-.09-.29-.19-.57-.27-.88a3.71,3.71,0,0,1-.16-.47c-.16-.47-.3-.94-.44-1.41-.4-1.36-.77-2.73-1.11-4.12"/><line class="cls-16" x1="371.99" y1="434.06" x2="366.75" y2="431.31"/><line class="cls-16" x1="371.07" y1="430.02" x2="372.41" y2="426.24"/><path class="cls-16" d="M383.9,456.15s-4.35-2.23-8.86-4.44"/><path class="cls-16" d="M381,450.44A63.48,63.48,0,0,1,386,438.73"/><path class="cls-16" d="M386.48,482.63A48.45,48.45,0,0,0,376.29,473"/><path class="cls-16" d="M388,486.8a53.35,53.35,0,0,1,2.83-8.71c1.69-3.72,1.89-4.21,1.89-4.21"/><path class="cls-16" d="M395.06,512.27a45.27,45.27,0,0,1,5.66-5.84,30.1,30.1,0,0,0,3.66-3.19"/><path class="cls-16" d="M395.28,507a51.25,51.25,0,0,0-4.72-6.45,44.77,44.77,0,0,0-5.54-5.12"/><path class="cls-16" d="M385.74,508.89c.73,1,2.19,3.21,3.78,5.39"/></g></g><path class="cls-11" d="M306.52,534.48c-8.57-6-18.46-15.75-21.72-29.92a79.4,79.4,0,0,1-10.46,18.88,47.09,47.09,0,0,1-24.17,16.45c-2.35.72-3.67,1.52-3.67,2.37,0,3,16.6,5.46,37.08,5.46s37.08-2.44,37.08-5.46c0-.73-1-1.45-2.83-2.09A46.52,46.52,0,0,1,306.52,534.48Z"/><polygon class="cls-11" points="281.06 381.44 273.37 511.19 283.83 526.34 294.15 513.25 288.21 381.8 281.06 381.44"/><path class="cls-14" d="M326.33,370.33H223.54v6.78c0,5.17,27.25,9.36,60.86,9.36s60.86-4.19,60.86-9.36v-6.78Z"/><ellipse class="cls-32" cx="284.4" cy="370.33" rx="60.86" ry="9.36"/><ellipse class="cls-16" cx="284.4" cy="370.33" rx="60.86" ry="9.36"/><g id="freepik--Plant--inject-1--inject-2--inject-19"><path class="cls-33" d="M325.91,351.6H294.76s0,8.37,4.39,19.31c0,2.1,5,3.78,11.25,3.78s11.23-1.69,11.23-3.78a1.61,1.61,0,0,0,0-.31A58.5,58.5,0,0,0,325.91,351.6Z"/><ellipse class="cls-33" cx="310.44" cy="351.6" rx="15.64" ry="4.54"/><ellipse class="cls-33" cx="310.44" cy="351.6" rx="14.04" ry="3.8"/><path class="cls-34" d="M297.72,353.21c2.25,1.29,7.09,2.18,12.72,2.18s10.47-.89,12.7-2.18c-2.23-1.29-7.09-2.18-12.7-2.18S300,351.92,297.72,353.21Z"/><path class="cls-35" d="M303.89,353.57s-4.06-10.16-2.88-12.87,5.08-2.37,6.44.34,2,12.87,2,12.87S305.43,355.27,303.89,353.57Z"/><path class="cls-35" d="M307.45,354.59s-3.22-17.94-2.38-21.34,5.09-4.58,8.13-2,1.89,15.42,1.89,17.28-.17,5.76-.17,5.76A14.24,14.24,0,0,1,307.45,354.59Z"/><path class="cls-35" d="M314.05,354.25s-2.51-6.95-1-9.66,4.57-1.69,4.57.51.17,7.46-.17,8.64S315.24,355.27,314.05,354.25Z"/><path class="cls-16" d="M310.33,354.06c-4.24-16.05-.68-24.05-.68-24.05s5.08,8.81,2.37,24.05"/><path class="cls-16" d="M303.38,340.36s-3.89.17,2.54,13.55"/></g><polygon class="cls-36" points="542.71 1.73 119.5 1.73 119.5 287.23 349.08 287.23 364.39 288.52 377.63 287.23 542.71 287.23 542.71 1.73"/><rect class="cls-37" x="120.46" width="421.02" height="18.16"/><circle class="cls-14" cx="130.9" cy="9.4" r="2.36"/><circle class="cls-14" cx="139.68" cy="9.4" r="2.36"/><circle class="cls-14" cx="148.46" cy="9.4" r="2.36"/><path class="cls-14" d="M331.55,39.11c0,.14-8.3.25-18.56.25s-18.56-.11-18.56-.25,8.31-.24,18.56-.24S331.55,39,331.55,39.11Z"/><path class="cls-14" d="M380.92,39.11c0,.14-8.31.25-18.55.25s-18.56-.11-18.56-.25,8.31-.24,18.56-.24S380.92,39,380.92,39.11Z"/><path class="cls-14" d="M430.3,39.11c0,.14-8.31.25-18.56.25s-18.56-.11-18.56-.25,8.3-.24,18.56-.24S430.3,39,430.3,39.11Z"/><path class="cls-14" d="M480.1,39.11c0,.14-8.31.25-18.55.25S443,39.25,443,39.11s8.3-.24,18.56-.24S480.1,39,480.1,39.11Z"/><path class="cls-38" d="M186.28,58.53V71.14a2.23,2.23,0,0,0,2.21,2.23h14.3l3.57,4.54,3.9-4.37h14.86a2.22,2.22,0,0,0,2.22-2.23V58.46a2.22,2.22,0,0,0-2.22-2.23l-36.62.07A2.23,2.23,0,0,0,186.28,58.53Z"/><path class="cls-4" d="M194.87,68.55h-2.14v-2l4.93-5.39h.1a1.6,1.6,0,0,1,1.59.23,2,2,0,0,1,.44,1.73v.1Zm-1.43-.71h1.11l4.56-5a1.4,1.4,0,0,0-.23-.95,1,1,0,0,0-.84-.09l-4.6,5Z"/><path class="cls-4" d="M208.81,67.19v.7h-4.07V62.28h4V63h-3.17v1.73h2.84v.69h-2.84v1.8Z"/><path class="cls-4" d="M214,62v5.94h-.74v-.67a1.84,1.84,0,0,1-1.52.72,2.18,2.18,0,0,1,0-4.34,1.8,1.8,0,0,1,1.48.69V62Zm-.77,3.78a1.43,1.43,0,0,0-2.83-.47,1.24,1.24,0,0,0,0,.47,1.43,1.43,0,1,0,2.83.46A1.19,1.19,0,0,0,213.19,65.73Z"/><path class="cls-4" d="M215.28,62.34a.51.51,0,0,1,.51-.51h0a.49.49,0,0,1,.52.46v0a.52.52,0,0,1-.52.52.52.52,0,0,1-.52-.52Zm.13,1.31h.77v4.24h-.77Z"/><path class="cls-4" d="M220,67.65a1.53,1.53,0,0,1-.95.29,1.2,1.2,0,0,1-1.35-1.32V64.28H217v-.63h.72v-.94h.78v.94h1.21v.63h-1.21v2.3c0,.46.23.72.66.72a.93.93,0,0,0,.6-.21Z"/><path class="cls-39" d="M291.39,217.22H152.17V77.6H291.39Zm-138.27-.94H290.45V78.54H153.12Z"/><path class="cls-40" d="M223.31,219.43h-4.8v-4.72h4.8Zm-3.86-1h2.92v-2.83h-2.92Z"/><path class="cls-40" d="M293.35,142.65h-4.81v-4.72h4.81Zm-3.87-.94h2.92v-2.83h-2.92Z"/><path class="cls-40" d="M154.56,142.65h-4.81v-4.72h4.81Zm-3.86-.94h2.92v-2.83h-2.93Z"/><path class="cls-39" d="M503,149.94H318.22V105.33H503ZM319.17,149H502.06V106.28H319.17Z"/><path class="cls-14" d="M504.33,168.1c0,.13-40.31.24-90,.24s-90.05-.11-90.05-.24,40.3-.25,90.05-.25S504.33,168,504.33,168.1Z"/><path class="cls-37" d="M503.37,195.5c0,.14-40.32.25-90.05.25s-90.05-.11-90.05-.25,40.32-.25,90.05-.25S503.37,195.36,503.37,195.5Z"/><path class="cls-37" d="M503.37,202.75c0,.13-40.32.24-90.05.24s-90.05-.11-90.05-.24,40.32-.25,90.05-.25S503.37,202.6,503.37,202.75Z"/><path class="cls-14" d="M415.45,177.61c0,.14-20.42.24-45.6.24s-45.6-.1-45.6-.24,20.41-.25,45.6-.25S415.45,177.47,415.45,177.61Z"/><path class="cls-14" d="M520.88,226.14h-4.73v-.94h4.73Zm-9.45,0h-4.72v-.94h4.72Zm-9.44,0h-4.72v-.94H502Zm-9.44,0h-4.72v-.94h4.72Zm28.8-1h-1v-4.72h1Zm-36.73-.47h-.94v-4.72h.94Zm36.73-9h-1v-4.72h1Zm-36.73-.47h-.94v-4.72h.94Zm36.73-9h-1V201.5h1Zm-36.73-.47h-.94V201h.94Zm36.73-9h-1v-4.72h1Zm-36.73-.47h-.94v-4.72h.94Zm34.65-6.89h-4.72v-.95h4.72Zm-9.44,0h-4.72v-.95h4.72Zm-9.44,0h-4.72v-.95h4.72Zm-9.44,0h-4.72v-.95H491Z"/><path class="cls-14" d="M484.42,192.85a3.48,3.48,0,1,1,3.48-3.47h0A3.47,3.47,0,0,1,484.42,192.85Zm0-6a2.53,2.53,0,1,0,2.53,2.53h0a2.52,2.52,0,0,0-2.53-2.49Z"/><path class="cls-14" d="M520.64,192.85a3.48,3.48,0,1,1,3.47-3.47h0A3.47,3.47,0,0,1,520.64,192.85Zm0-6a2.53,2.53,0,1,0,2.53,2.53h0a2.53,2.53,0,0,0-2.53-2.49Z"/><path class="cls-14" d="M484.42,230.13a3.48,3.48,0,1,1,3.48-3.48h0A3.48,3.48,0,0,1,484.42,230.13Zm0-6a2.53,2.53,0,1,0,2.53,2.53h0A2.53,2.53,0,0,0,484.42,224.13Z"/><path class="cls-14" d="M520.64,230.13a3.48,3.48,0,1,1,3.47-3.48h0A3.47,3.47,0,0,1,520.64,230.13Zm0-6a2.53,2.53,0,1,0,2.53,2.53h0A2.53,2.53,0,0,0,520.64,224.13Z"/><path class="cls-14" d="M501.71,200.59h-6.8v-3.22h17.4v3.22h-6.8v17.29h-3.77Z"/><path class="cls-14" d="M523.37,45a3.91,3.91,0,0,0,.89-.15,4.09,4.09,0,0,0,2.13-1.3,4,4,0,0,0,.85-1.59,8.07,8.07,0,0,0,.13-2.19c-.1-1.55.37-3.58-1-5.06a4,4,0,0,0-2.64-1.3H495.41A3.92,3.92,0,0,0,492,35.55a4.1,4.1,0,0,0-.44,2v2.2a8,8,0,0,0,.14,2.08,4.06,4.06,0,0,0,.94,1.71,4.18,4.18,0,0,0,1.68,1.06,6.66,6.66,0,0,0,1.89.17l14.16.05,9.54.08h2.59l-2.59,0-9.54.08-14.16,0a6.56,6.56,0,0,1-2.07-.19,4.31,4.31,0,0,1-2.94-3,4.74,4.74,0,0,1-.17-1.12V37.62A4.43,4.43,0,0,1,495.16,33h28.53a4.3,4.3,0,0,1,2.83,1.44,4.25,4.25,0,0,1,1.07,2.73V39.7a7.76,7.76,0,0,1-.18,2.25,4.24,4.24,0,0,1-3.19,2.94A2.46,2.46,0,0,1,523.37,45Z"/><rect class="cls-41" x="229.45" y="56.23" width="25.52" height="17.25" rx="3.31"/><path class="cls-4" d="M240.93,68.35h-5.67V61.4h5.67Zm-4.72-.94H240V62.35h-3.78Z"/><rect class="cls-4" x="237.16" y="60.58" width="1.85" height="1.21"/><rect class="cls-4" x="234.39" y="61.36" width="7.4" height="0.94"/><path class="cls-4" d="M251,62.05a.94.94,0,1,1-.94-.95A.94.94,0,0,1,251,62.05Z"/><path class="cls-4" d="M251,64.56a.94.94,0,1,1-.94-1A.94.94,0,0,1,251,64.56Z"/><path class="cls-4" d="M251,67.07a.94.94,0,1,1-.94-.94A.94.94,0,0,1,251,67.07Z"/><g class="cls-42"><path class="cls-4" d="M245.12,56.23h6.53A3.32,3.32,0,0,1,255,59.54h0V70.17a3.32,3.32,0,0,1-3.32,3.31h-6.53V56.23Z"/></g><rect class="cls-43" x="161.65" y="87.2" width="120.27" height="116.35"/><g class="cls-42"><polygon points="170.98 193.6 204.25 133.72 231.46 171.99 247.99 151.67 272.59 193.6 170.98 193.6"/></g><g class="cls-42"><path d="M243.05,122a8.66,8.66,0,1,1-8.66-8.64h0A8.65,8.65,0,0,1,243.05,122Z"/></g><g class="cls-42"><path d="M272.58,96.35,171,96.26c.11-.12-1.09,1.1-.58.6v51.19c0,16.29,0,31.7.05,45.87v.5h.5l73.79-.26,20.61-.13,5.4-.05h1.37a3.38,3.38,0,0,0,.45,0h-1.93l-5.49-.06-20.77-.13-73-.26c0-14,0-29.27,0-45.37V97.4L272,97.33c.1,28.84.19,52.87.25,69.76.05,8.49.1,15.1.13,19.76,0,2.26,0,4,.05,5.24v1.36a3.68,3.68,0,0,0,0,.47,1.55,1.55,0,0,0,0-.43v-1.3c0-1.21,0-2.93.06-5.13,0-4.59.08-11.23.12-19.66.07-17.07.15-41.38.26-70.56v-.49Z"/></g><rect class="cls-44" x="333.28" y="81.84" width="139.52" height="17.2" rx="3.85"/><g class="cls-42"><rect class="cls-4" x="337.64" y="85.07" width="45.56" height="10.12"/></g><path class="cls-4" d="M342.33,88.83h-1.65v-.59h4v.59H343V93h-.68Z"/><path class="cls-4" d="M345.08,88.28a.45.45,0,0,1,.89,0h0a.45.45,0,1,1-.89,0Zm.12,1.12h.66V93h-.66Z"/><path class="cls-4" d="M349.14,92.78a1.22,1.22,0,0,1-.79.25,1,1,0,0,1-1.15-.91.81.81,0,0,1,0-.22v-2h-.62v-.53h.58v-.8h.66v.8h1v.53h-1v2a.53.53,0,0,0,.45.6h.12a.75.75,0,0,0,.51-.17Z"/><path class="cls-4" d="M349.94,88h.65V93h-.65Z"/><path class="cls-4" d="M355.09,91.43h-2.94a1.23,1.23,0,0,0,1.32,1,1.32,1.32,0,0,0,1-.43l.36.43a2,2,0,0,1-3.37-1.27,1.76,1.76,0,0,1,1.64-1.88h.18A1.74,1.74,0,0,1,355.11,91a1.33,1.33,0,0,1,0,.2A1.64,1.64,0,0,1,355.09,91.43ZM352.15,91h2.33a1.17,1.17,0,0,0-2.33,0Z"/><polygon class="cls-4" points="375.95 89.71 380.29 89.71 378.13 91.87 375.95 89.71"/><path class="cls-4" d="M396.25,91.58c0,.87-.71,1.38-2.06,1.38h-2.72v-5H394c1.34,0,2,.55,2,1.33a1.2,1.2,0,0,1-.67,1.09A1.27,1.27,0,0,1,396.25,91.58ZM392.88,89v.94h.95c.47,0,.71-.16.71-.49s-.24-.48-.71-.48Zm1.95,2.47c0-.34-.27-.51-.75-.51h-1.2v1h1.2c.48,0,.75-.21.75-.55Z"/><path class="cls-4" d="M404.07,87.85h.37l-1,5h-.37Z"/><rect class="cls-4" x="411.57" y="84.91" width="0.94" height="10.89"/><rect class="cls-4" x="433.4" y="84.7" width="0.94" height="10.89"/><rect class="cls-4" x="453.72" y="84.91" width="0.94" height="10.89"/><rect class="cls-4" x="417.64" y="87.61" width="5.96" height="0.94"/><rect class="cls-4" x="417.64" y="91.05" width="5.96" height="0.94"/><rect class="cls-4" x="417.64" y="89.4" width="2.98" height="0.94"/><polygon class="cls-4" points="427.25 89.74 430.39 89.74 428.82 91.15 427.25 89.74"/><polygon class="cls-4" points="442.7 92.4 437.26 92.4 437.26 87.92 440.08 87.92 440.08 88.87 438.2 88.87 438.2 91.45 441.76 91.45 441.76 90.51 442.7 90.51 442.7 92.4"/><polygon class="cls-4" points="445.85 92.4 443.52 92.4 443.52 91.45 444.9 91.45 444.9 88.87 441.34 88.87 441.34 90.07 440.4 90.07 440.4 87.92 445.85 87.92 445.85 92.4"/><polygon class="cls-4" points="448.06 89.8 450.96 89.8 449.51 91.15 448.06 89.8"/><path class="cls-4" d="M464.82,93.66h-5V87.54h5Zm-4.08-1h3.14V88.48h-3.14Z"/><rect class="cls-4" x="461.51" y="86.9" width="1.6" height="1.04"/><rect class="cls-4" x="459.12" y="87.51" width="6.37" height="0.94"/><polygon class="cls-45" points="405.24 98.07 410.83 104.22 416.24 97.95 405.24 98.07"/><rect class="cls-37" x="419.13" y="112.79" width="78.52" height="32.58"/><path class="cls-14" d="M339.67,131.55v6.83h-2.83v-6.89L329,118.63h3.05L338.37,129l6.35-10.38h2.84Z"/><path class="cls-14" d="M347.92,128.51c0-5.79,4.45-10.1,10.51-10.1s10.44,4.29,10.44,10.1-4.46,10.09-10.47,10.09S347.92,134.32,347.92,128.51Zm18.16,0a7.68,7.68,0,1,0-7.8,7.55h.15a7.41,7.41,0,0,0,7.61-7.2v-.35Z"/><path class="cls-14" d="M373.05,129.86V118.64h2.83v11.11c0,4.37,2,6.34,5.55,6.34s5.59-2,5.59-6.34V118.64h2.74v11.22c0,5.72-3.14,8.74-8.35,8.74S373.05,135.58,373.05,129.86Z"/><path class="cls-14" d="M408.73,138.38l-4.25-6.06c-.4,0-.82.05-1.25.05h-4.88v6h-2.83V118.64h7.69c5.14,0,8.24,2.59,8.24,6.88a6.22,6.22,0,0,1-4.34,6.23l4.72,6.61Zm-.08-12.86c0-2.83-1.89-4.43-5.5-4.43h-4.8V130h4.8c3.61,0,5.5-1.63,5.5-4.45Z"/><path class="cls-14" d="M428.77,122.36h-6.33l.77-3.72h17.21l-.77,3.72h-6.28l-3.22,16h-4.57Z"/><path class="cls-14" d="M446.68,122.3l-.84,4.29H455l-.71,3.55h-9.2l-.94,4.57H455l-.77,3.67H438.93l3.94-19.74h14.92L457,122.3Z"/><path class="cls-14" d="M469.89,128.43l5.42,9.95h-4.93l-3.5-6.72-6,6.72h-5.47l9.44-10.24-5.11-9.5h4.88l3.3,6.34,5.76-6.34h5.18Z"/><path class="cls-14" d="M484.23,122.36h-6.32l.76-3.72h17.21l-.76,3.72h-6.29l-3.22,16H481Z"/><circle class="cls-37" cx="154.08" cy="39.11" r="8.02"/><path class="cls-14" d="M541.3.33c0,1.79.07,111.49.18,287.4V288H377.24l.17-.08-28.7,0,.15.06H120.46V0h.23L541.28.26,120.71.63l.22-.27V287.77l-.24-.29H348.93l.07.08h28.09l.07-.08H541.3l-.18.22C541.22,111.79,541.3,2.12,541.3.33Z"/><path class="cls-11" d="M210.74,536.05c-8.57-5.3-18.46-13.88-21.72-26.37a67.16,67.16,0,0,1-10.46,16.61c-6,7-14.6,11.94-24.16,14.5-2.36.63-3.68,1.34-3.68,2.09,0,2.65,16.6,4.8,37.08,4.8s37.08-2.15,37.08-4.8c0-.65-1-1.29-2.83-1.89A48.84,48.84,0,0,1,210.74,536.05Z"/><polygon class="cls-11" points="185.28 401.21 177.59 515.52 188.05 528.88 198.37 517.35 192.43 401.53 185.28 401.21"/><path class="cls-14" d="M229.76,406.45H127v6.79c0,5.16,27.24,9.35,60.85,9.35s60.86-4.19,60.86-9.35v-6.79Z"/><ellipse class="cls-32" cx="187.84" cy="406.46" rx="60.86" ry="9.36"/><path class="cls-4" d="M285.42,517.75c-2,2.26-5.67,2.25-8.5,1.37-4.42-1.36-8.21-4.27-12.56-5.8-5.35-1.89-11.68-1.81-15.84-5.67A14,14,0,0,1,244.6,500l-.11-.64a42.12,42.12,0,0,1-.06-9.39l10.33-6c6.82,9.68,18.41,18.82,25.05,24.18a44.06,44.06,0,0,1,4.78,4.17C287,515.24,285.42,517.75,285.42,517.75Z"/><path class="cls-46" d="M244.39,490a42.73,42.73,0,0,0,.06,9.39,14.3,14.3,0,0,0,4,8.3c4.16,3.87,10.49,3.78,15.84,5.67,4.35,1.53,8.14,4.44,12.56,5.8,2.91.88,6.5.89,8.5-1.37,0,0,1.56-2.51-.87-5.48S264,497.08,254.69,483.94Z"/><path class="cls-14" d="M159.93,367.35s-11.94,12.2-10.85,26.9,20.14,21.22,32.72,26.25a75.26,75.26,0,0,1,21.38,13.32s-4.11,11.5,6.68,25.88,35.25,32.38,35.25,32.38a11.27,11.27,0,0,0,10.39-7.2s-23.6-41.36-29.43-58.62c0,0-1.08-13.22-6.52-18,0,0,7.21-7.71,7.14-16.36s-8.11-22.16-17.56-28.42l-.69,2.16-8.5,6.9s-19.36,1.53-32.78-9.61v-3.23l-1.07,1.34Z"/><path class="cls-47" d="M216.74,404.28a41.36,41.36,0,0,1,2.84,4"/><path class="cls-47" d="M192.94,381.8s12.64,9.76,21.22,19.42"/><path class="cls-47" d="M203.18,390.39s4.47-4.29,5.29-8.59"/><path class="cls-48" d="M285.42,517.75c-2,2.26-5.67,2.25-8.5,1.37-4.42-1.36-8.21-4.27-12.56-5.8-5.35-1.89-11.68-1.81-15.84-5.67-2.13-2-4.06-6.41-4.33-11.76a35.45,35.45,0,0,0,8.58,6.47c3.21,1.68,6.61,3.66,9.79,5.4a30.31,30.31,0,0,0,10.62,3.83,7.51,7.51,0,0,0,3.29-.37c2.67-1.16,2.25-3,2.32-3.88a73.76,73.76,0,0,1,5.8,4.94C287,515.24,285.42,517.75,285.42,517.75Z"/><path class="cls-4" d="M197.08,530.93c0,7.41-2.23,15.1-7.4,20.37a6,6,0,0,1-3.31,2,5.13,5.13,0,0,1-4.34-2.13c-2.08-2.53-2.72-6-2.58-9.26a84.46,84.46,0,0,1,1.47-9.72c.2-1.35.36-2.7.47-4.06a51.74,51.74,0,0,0-.21-9.72c-.41-3.49-1.18-6.95,1.38-9.61,1.95-2,5.66-5.08,8.49-2.77a6.38,6.38,0,0,1,1.77,3.18c.43,1.35.87,2.7,1.27,4.07A61.57,61.57,0,0,1,197.08,530.93Z"/><path class="cls-46" d="M181.18,518.41a51.29,51.29,0,0,1-.26,13.78,84.46,84.46,0,0,0-1.47,9.72c-.13,3.27.5,6.73,2.58,9.26a5.13,5.13,0,0,0,4.34,2.13,6,6,0,0,0,3.31-2c5.17-5.31,7.39-13,7.4-20.37s-2-14.68-4.3-21.72A6.44,6.44,0,0,0,191,506c-2.84-2.31-6.51.74-8.5,2.77C180,511.46,180.81,514.92,181.18,518.41Z"/><path class="cls-14" d="M181,513.61s5.31,8,13,0c0,0-1.07-22.36,1.32-33.92s11.44-47.75-1.32-60.25-24.22-.81-26.34,9.31,4.52,38.84,8.49,52.14S181,513.61,181,513.61Z"/><path class="cls-47" d="M198.2,425.89s-7.95-20.85-24.88-8.79"/><path class="cls-48" d="M197.08,530.93c0,7.41-2.23,15.1-7.4,20.37a6,6,0,0,1-3.31,2,5.13,5.13,0,0,1-4.34-2.13c-2.08-2.53-2.72-6-2.58-9.26a84.46,84.46,0,0,1,1.47-9.72c.2-1.35.36-2.7.47-4.06.59,2.83.71,9.09.79,10.25a11.64,11.64,0,0,0,.59,3.37,4,4,0,0,0,2.27,2.42A3.92,3.92,0,0,0,189,543a9.69,9.69,0,0,0,2.07-3.72c2.55-7.2,2.89-15,2.78-22.59a13.75,13.75,0,0,1,.26-3.45A61.54,61.54,0,0,1,197.08,530.93Z"/><path class="cls-14" d="M163.69,273.81a13,13,0,0,0,1.38,12.72c4.52,6.42,18.4,12.45,26.44,9s22.5-3.24,29.12.94,31.55,1.32,31.55-13.8a8.52,8.52,0,0,1,2.61,7.4s11-9.77-2-24.28c0,0,3.7-6.69-4.08-7.68s-8.5-5.22-9.24-9.63-.57-15.2-10.24-15.11c0,0-15.61-15.46-33-7.84S183,244.45,174.77,242.85a4.57,4.57,0,0,0,0,3s2.61,6-1.2,8.84-13.95,7.85-14.46,21.71A5,5,0,0,1,163.69,273.81Z"/><path class="cls-49" d="M189.19,288.86l2.94-1.57V280s4.53,8.32,9.69,9.2S213,281.11,213,281.11s-1,5.78,0,7.24,9.54,5.91,9.54,5.91S209.4,306.58,206.44,316c0,0-.94-8.87-7.06-13.55A29,29,0,0,1,189.19,288.86Z"/><path class="cls-50" d="M189.19,288.86a25.62,25.62,0,0,1-10.66.82c-5.15-.95-13.56-4-19.66.42s-5,22.11-5.66,27.07-1.28,9.79-5.52,14.06-7.08,16.51-6,21c0,0-3.13,4.24-.85,12.11s4.09,6.4,4.09,6.4,9.33.37,14.16-2.55c0,0,4.84-3.93,6.45-7.17s-1.08-8.79-1.08-8.79l2.69,2.84V363s10.1,7.37,20.47,8.83l11.86.76,8.69-6.13s3.78-11.75,7.37-16,12-11.55,12.59-15.86-1.31-14.51-1.31-14.51,6.17,6.45,7.6,13.75,20.78-7.46,20.78-7.46-5.72-10.82-7.22-16.65-3.77-12.67-9.38-13.5S222,294.58,222,294.58s-12.13,11.33-15.5,21.89c0,0-1.28-8.19-7.19-14S189.36,292.94,189.19,288.86Z"/><path class="cls-51" d="M222.49,294.26s-13.07,12.64-15.71,20.68c0,0-3.3-8.49-8.31-13.41s-7.49-8.75-9.28-12.67l-2.4.82s-2.33,5.61-2.7,8.23l6.79,3.64L190.32,314s12,12.33,13.22,19.82l3.28,1.89s1.61-9.33.84-14.41a15.83,15.83,0,0,1,6.53-4.4c4.65-1.87,7.81-3.52,7.81-3.52l-1.32-8a48.15,48.15,0,0,0,9.86-3.61l-5.9-7Z"/><path class="cls-52" d="M243.25,329.1s-3.77-10.77-19-17.76l.81,3.21-3.84-.5s.94,16.37-4.63,21.71-27,1-32.57,5.83l9.73.76s-8.4,2.3-8.84,5.19,11.55,1.39,16.36,3.65c0,0,1.12,14.16-3.12,21.26l1.37.09,8.91-6.88s5.38-14.7,9.44-18.12,10.21-9.11,10.12-13.7-.85-14.16-.85-14.16,5.2,6.52,6.61,11.73S243.25,329.1,243.25,329.1Z"/><path class="cls-49" d="M242.72,348s3.19,13.4,15.43,13.07c0,0,1.44.65,3-3s3.25-7.47,1.72-14.7-6.57-15.22-6.57-15.22l-14.66,8.26Z"/><path class="cls-49" d="M221.41,258.16s-.95-16.56-13.22-20.46-22.95,5.66-25.33,18.69c0,0,2.83,13.78,4.6,17.07s8.9,14.44,14,15.77,12.21-8.71,15-13.05,4.85-11.65,5.27-18"/><path class="cls-16" d="M201.25,276.27a5.66,5.66,0,0,0,1,1.3c1.43,1.33,1.89-.79,1.89-1.89a19.65,19.65,0,0,1,1.34-7.74"/><path class="cls-16" d="M207.29,265.45c1.15-1.74,4-3.77,6.83-1.89"/><path class="cls-16" d="M192.51,262.79c3.06-1.89,6.68-.75,7.28,1.74"/><path class="cls-14" d="M210.08,270c-.05,1.11-.49,2-1,2s-.87-.95-.83-2,.49-2,1-2S210.08,268.91,210.08,270Z"/><path class="cls-14" d="M197.39,269.72c0,1.1-.49,2-1,2s-.88-.94-.83-2,.49-2,1-2S197.44,268.61,197.39,269.72Z"/><path class="cls-49" d="M219.57,269.91s1,.55,3.41-1.55,4.46-6.16,3.48-7.86-4,.76-4,.76Z"/><path class="cls-49" d="M183.13,259s-2.55-1.54-4-.31c-1.64,1.35.75,5.89,1.57,7.18,1,1.63,3.08,3,4.81,1.53Z"/><path class="cls-16" d="M196.22,278a6.52,6.52,0,0,0,4.59,4"/><path class="cls-16" d="M213.52,280.35c-1.48,3.31-1.4,6.23-.52,9.75"/><path class="cls-16" d="M191.82,280a39.5,39.5,0,0,1,.31,6.34,10.11,10.11,0,0,1-.58,4.15"/><path class="cls-14" d="M182,257.24s14-.56,17.19-15.06c0,0,6.12,15.45,23.95,16.78,0,0,3.18-11,1.38-18S214,227.8,202.17,228.77,180.65,234,182,257.24Z"/><path class="cls-53" d="M167.2,355.08V363s14,10.68,32.78,9.61l8.21-6.15s2.76-10.33,8.37-17.31S229.11,339,228,330.28s-1.35-11.65-1.35-11.65"/><path class="cls-53" d="M191.82,288s-8,3.11-16.23,1.28-13.87-2.24-18.49,2.38S155,320.9,151,326.42s-11.59,16.63-9.28,25.87"/><path class="cls-53" d="M165.55,356.73c2.2,4-2.37,7.55-5.66,10.62s-12.63,3.78-15.52,3.25S139.5,360,140,356.71s2.35-6.32,5.06-7.6,4.72-9.72,6.71-10.88,3.18,2.6,3.18,2.6"/><path class="cls-16" d="M191,342l18.37,2.24c1.74.21,3.63.51,4.78,1.83"/><path class="cls-16" d="M170,327.75s1.12-9.37,0-13.74"/><path class="cls-16" d="M170.48,324.34a24.17,24.17,0,0,0,4.82-6.9"/><path class="cls-11" d="M238.58,327.77a7.22,7.22,0,0,1-6-8.28,7.36,7.36,0,0,1,1.36-3.2c.95-1.3,2.37-2.25,3.29-3.6a6.28,6.28,0,0,0-3.23-9.44,28.36,28.36,0,0,1,5.45.05c3.72.54,6,3.14,5.19,7.05s-5.36,4.42-8.08,6.6a5.28,5.28,0,0,0-2.22,4.42A7.56,7.56,0,0,0,238.58,327.77Z"/><path class="cls-53" d="M212.51,288a25.64,25.64,0,0,0,12.56,6.5c7.36,1.25,15.56.89,18.3,4.13s6.82,20.53,12.15,28.26,12.94,23.88,3.65,33.81c0,0-10,3.28-15.77-10.39"/><path class="cls-16" d="M225.07,316.69s5.84,6.78,8.29,13.59"/><path class="cls-49" d="M237.46,349.11a13.39,13.39,0,0,1,8.69-2.05c5,.6,4.56,2,3.68,2.36s-14.3,3.43-14.74,2.64S237.46,349.11,237.46,349.11Z"/><path class="cls-53" d="M189.19,288.86c.42,4.44,4.12,7.74,7.38,10.81a37.15,37.15,0,0,1,6.94,8.26c4.92,8.55,3.83,19.15,2.59,28.94"/><path class="cls-53" d="M187.42,288.81a26.56,26.56,0,0,0-3.3,8.5,1,1,0,0,0,0,.63,1,1,0,0,0,.47.39l6.31,3.24a40.44,40.44,0,0,0-.7,9.18,5.05,5.05,0,0,0,.24,1.64,5.72,5.72,0,0,0,1.22,1.81c5.13,5.84,10.66,12,11.87,19.68"/><path class="cls-53" d="M223.1,293.91a14.9,14.9,0,0,0-3.54,2.83A59.27,59.27,0,0,0,206.78,316"/><path class="cls-53" d="M223.89,294q3.44,3.78,6.61,7.84a21.6,21.6,0,0,1-9.86,3.61c.45,2.41.88,4.83,1.32,7.24a1.23,1.23,0,0,1,0,.76,1.35,1.35,0,0,1-.73.62c-4.67,2.27-10.32,3.26-13.61,7.3"/><path class="cls-16" d="M199.19,242.18s.82,18.68,23.3,19.08"/><path class="cls-54" d="M248.69,327.75a37.11,37.11,0,0,1,2.49,11.62c.15,5.88-5.27,9-9.12,9.74s-8.56.48-11.69-3.46-4.24-12.36-4.24-12.36Z"/><path class="cls-49" d="M253.79,326.39a5.54,5.54,0,0,0-2.15.57,62.82,62.82,0,0,0-10,5.32c-.28.19-.61.42-.63.76,0,.53.59.82,1.11.95,3,.56,6.15-.11,9.15-.78a10.26,10.26,0,0,0,2.54-.79C256.34,331.13,258,326.45,253.79,326.39Z"/><path class="cls-49" d="M255.5,333.29a44.54,44.54,0,0,0-7.5,1.53,5.93,5.93,0,0,0-2.18.88.88.88,0,0,0-.42.68c0,.34.34.56.64.7a12,12,0,0,0,3.39.79c2.83.35,6.25.81,8.69-1C260.81,334.9,257.72,333.13,255.5,333.29Z"/><path class="cls-49" d="M248.12,339.48a4.9,4.9,0,0,0-2.4.61,1.34,1.34,0,0,0-.53.55,1.2,1.2,0,0,0,.46,1.37,3.55,3.55,0,0,0,1.44.54l5.11,1.1c1.05.23,2.33.4,3-.66a2.37,2.37,0,0,0,0-2.44C253.93,339,249.83,339.37,248.12,339.48Z"/><path class="cls-16" d="M145.93,348.39c-1.59,3.05-1.76,6.61-1.89,10"/><path class="cls-16" d="M147.05,350.42a18,18,0,0,0,11,16.5"/><path class="cls-16" d="M211.36,347.23c-5.06-.37-10.19-.73-15.15.32"/><polygon class="cls-14" points="199.34 302.44 180.86 303.14 184.51 336.87 201.75 335.77 199.34 302.44"/><path class="cls-49" d="M199.51,312.1l1,1.79-5.27,9.63c2.84-.68,7.43-5.74,8.2-4.73S191.2,332.66,188,333.47a18,18,0,0,1-6.93,0c-2.53,3-16.72,26.25-16.72,26.25s-14.5-1.57-11.64-17.46c0,0,17.87-14.56,23.11-19.22,0,0,2.09-8.14,5.34-9l1.15,2.83s17.41-8,17.94-7.37,0,1.93,0,1.93-9.72,8.93-12.06,9.44"/><path class="cls-53" d="M199.51,312.1l1,1.79-5.27,9.63c2.84-.68,7.43-5.74,8.2-4.73S191.2,332.66,188,333.47a18,18,0,0,1-6.93,0c-2.53,3-16.72,26.25-16.72,26.25s-14.5-1.57-11.64-17.46c0,0,17.87-14.56,23.11-19.22,0,0,2.09-8.4,5.34-9l1.15,2.83s17.41-8,17.94-7.37,0,1.93,0,1.93-9.72,8.93-12.06,9.44"/><path class="cls-55" d="M199.92,238.62a46.93,46.93,0,0,0,7.55,6.88,37.27,37.27,0,0,0,3.87,2.23A82.47,82.47,0,0,0,225,253.19"/><path class="cls-55" d="M200.87,234.84a78.69,78.69,0,0,0,21.21,9"/><path class="cls-14" d="M192.51,281s2.66,11.93,8.74,13,10.92-11.8,10.92-11.8-6,7.09-9.83,7S192.51,281,192.51,281Z"/><circle class="cls-11" cx="185.09" cy="307.14" r="1.42"/><path class="cls-56" d="M517.94,274.19H459.23a12.58,12.58,0,0,1-12.59-12.56v0h0A12.59,12.59,0,0,1,459.23,249h58.71a12.61,12.61,0,0,1,12.59,12.59h0a12.59,12.59,0,0,1-12.59,12.59Z"/><path class="cls-4" d="M459.83,262v-5.25h1.33V262c0,2,.94,3,2.6,3s2.62-.92,2.62-3v-5.21h1.27V262a3.91,3.91,0,0,1-7.82,0v0Z"/><path class="cls-4" d="M479.15,260c0,2-1.49,3.23-3.85,3.23H473V266h-1.33v-9.25h3.68C477.7,256.78,479.15,258,479.15,260Zm-1.31,0c0-1.31-.9-2.07-2.59-2.07H473v4.15h2.24C476.94,262.08,477.84,261.33,477.84,260Z"/><path class="cls-4" d="M482.42,256.78h3.9a4.64,4.64,0,1,1,.74,9.25,4.57,4.57,0,0,1-.74,0h-3.9Zm3.81,8.11a3.49,3.49,0,1,0,.64-7,3.42,3.42,0,0,0-.64,0h-2.5v7Z"/><path class="cls-4" d="M500.41,263.72h-4.92l-1,2.31h-1.36l4.2-9.25h1.3l4.21,9.25h-1.39Zm-.46-1.06-2-4.48-2,4.48Z"/><path class="cls-4" d="M506.88,257.93h-3.15v-1.15h7.64v1.15h-3.16V266h-1.32Z"/><path class="cls-4" d="M520.49,264.84V266h-6.65v-9.25h6.52v1.15h-5.21v2.83h4.66v1.14h-4.65v3Z"/></g></g></svg>