<svg xmlns="http://www.w3.org/2000/svg" xmlns:xlink="http://www.w3.org/1999/xlink" viewBox="0 0 673.41 533.98"><defs><style>.cls-1,.cls-10{fill:none;}.cls-2,.cls-3,.cls-6,.cls-7{fill:#fff;}.cls-10,.cls-2,.cls-3{stroke:#777;stroke-miterlimit:10;}.cls-2{stroke-width:1.2px;}.cls-4{fill:#f6f6f6;}.cls-5{fill:url(#linear-gradient);}.cls-7{font-size:35.05px;font-family:Poppins-Regular, Poppins;}.cls-8{fill:url(#linear-gradient-2);}.cls-9{fill:url(#linear-gradient-3);}.cls-10{stroke-width:0.75px;}.cls-11{fill:#777;}.cls-12{clip-path:url(#clip-path);}</style><linearGradient id="linear-gradient" x1="134.28" y1="240.07" x2="264.52" y2="326.29" gradientUnits="userSpaceOnUse"><stop offset="0" stop-color="#00ffaf"/><stop offset="0.06" stop-color="#00edad"/><stop offset="0.32" stop-color="#00a6a7"/><stop offset="0.55" stop-color="#006ea2"/><stop offset="0.75" stop-color="#00469f"/><stop offset="0.91" stop-color="#002d9d"/><stop offset="1" stop-color="#00249c"/></linearGradient><linearGradient id="linear-gradient-2" x1="286.86" y1="242.82" x2="404.26" y2="322.16" xlink:href="#linear-gradient"/><linearGradient id="linear-gradient-3" x1="424.9" y1="246.01" x2="551.02" y2="320.3" xlink:href="#linear-gradient"/><clipPath id="clip-path"><path class="cls-1" d="M390.33,88.81a11.48,11.48,0,1,0,11.48,11.48,11.48,11.48,0,0,0-11.48-11.48Z"/></clipPath></defs><g id="Layer_2" data-name="Layer 2"><g id="Layer_1-2" data-name="Layer 1"><path class="cls-2" d="M.6,47.52V507.33a26.07,26.07,0,0,0,26.05,26.05h620.1a26.08,26.08,0,0,0,26.06-26.05V47.52a26.08,26.08,0,0,0-26.06-26.05H26.65A26.07,26.07,0,0,0,.6,47.52Zm18.62,0a7.44,7.44,0,0,1,7.43-7.44h620.1a7.45,7.45,0,0,1,7.44,7.44V507.33a7.45,7.45,0,0,1-7.44,7.44H26.65a7.44,7.44,0,0,1-7.43-7.44Z"/><path class="cls-3" d="M1.17,30.73a28.32,28.32,0,0,0-.54,3.46A34.23,34.23,0,0,1,1.17,30.73Zm670.2,484.44c0-.09.12-.16.19-.26-.07.1-.14.17-.21.26s-.31.38-.47.57ZM667,519.41a33.9,33.9,0,0,1-3.29,2.23A28.77,28.77,0,0,0,667,519.41Zm-8.21,4.52c.45-.17.87-.31,1.27-.5-.42.17-.85.33-1.27.47a3.24,3.24,0,0,1-.64.22C658.37,524.07,658.59,524,658.8,523.93Zm0,0c.45-.17.87-.31,1.27-.5-.42.17-.85.33-1.27.47a3.24,3.24,0,0,1-.64.22C658.37,524.07,658.59,524,658.8,523.93ZM1.17,30.73a28.32,28.32,0,0,0-.54,3.46A34.23,34.23,0,0,1,1.17,30.73Zm670.2,484.44c0-.09.12-.16.19-.26-.07.1-.14.17-.21.26s-.31.38-.47.57ZM667,519.41a33.9,33.9,0,0,1-3.29,2.23A28.77,28.77,0,0,0,667,519.41Z"/><path class="cls-2" d="M517.84,16.3l-18.07,3.53H144.27a9.64,9.64,0,0,1-9.59-10.21,9.86,9.86,0,0,1,10-9H499.77l18.07,3.56.78.14L536.8,7.87a2.4,2.4,0,0,1,0,4.71l-18.18,3.56Z"/><path class="cls-4" d="M335.81,504.6q-31.18,0-62.36,0c-4.07,0-8.87.38-8.54-4.55.29-4.4,4.85-3.86,8.54-3.86q63.23,0,126.45,0c4.39,0,10-.14,9.69,4.55-.24,3.94-5.52,3.9-9.69,3.9Q367.85,504.56,335.81,504.6Z"/><path class="cls-4" d="M660.42,276.74q0-14.83,0-29.68c0-1.94-.23-4.22,2.68-4.07,2.58.14,2.27,2.31,2.27,4.07q0,30.09,0,60.19c0,2.09.08,4.74-2.68,4.61-2.31-.11-2.29-2.63-2.29-4.61Q660.44,292,660.42,276.74Z"/><circle class="cls-4" cx="665.9" cy="277.42" r="2"/><path class="cls-5" d="M256.25,243H135.57a8.12,8.12,0,0,0-8.11,8.11v59.55a8.11,8.11,0,0,0,8.11,8.11H187.8a6.61,6.61,0,0,1,5.85,3.54l2.4,4.59a2.15,2.15,0,0,0,3.8,0l2.4-4.59a6.61,6.61,0,0,1,5.85-3.54h48.15a8.11,8.11,0,0,0,8.11-8.11V251.09A8.12,8.12,0,0,0,256.25,243Z"/><path class="cls-6" d="M170.28,269.47a7.15,7.15,0,0,0-6.37,3.91,7.14,7.14,0,0,0-13.51,3c0,7.24,13.51,17.9,13.51,17.9s13.52-10.68,13.52-17.9A7.15,7.15,0,0,0,170.28,269.47Z"/><text class="cls-7" transform="translate(191.5 294.27)">128</text><path class="cls-8" d="M392.33,243H294a8.12,8.12,0,0,0-8.11,8.11v59.55a8.11,8.11,0,0,0,8.11,8.11H332.5a6.61,6.61,0,0,1,5.85,3.54l2.41,4.59a2.14,2.14,0,0,0,3.79,0l2.4-4.59a6.61,6.61,0,0,1,5.85-3.54h39.53a8.11,8.11,0,0,0,8.11-8.11V251.09A8.12,8.12,0,0,0,392.33,243Z"/><text class="cls-7" transform="translate(346.79 294.27)">17</text><path class="cls-6" d="M330.52,275.69a6.19,6.19,0,1,1-6.19-6.19A6.2,6.2,0,0,1,330.52,275.69Z"/><path class="cls-6" d="M332.87,294.27a2.52,2.52,0,0,0,2.33-3.51,11.9,11.9,0,0,0-21.74,0,2.52,2.52,0,0,0,2.33,3.51Z"/><path class="cls-9" d="M537.84,243H430.31a8.12,8.12,0,0,0-8.11,8.11v59.55a8.12,8.12,0,0,0,8.11,8.11h42.6a6.62,6.62,0,0,1,5.85,3.54l2.4,4.59a2.14,2.14,0,0,0,3.79,0l2.4-4.59a6.62,6.62,0,0,1,5.85-3.54h44.64a8.11,8.11,0,0,0,8.11-8.11V251.09A8.12,8.12,0,0,0,537.84,243Z"/><text class="cls-7" transform="translate(483.11 294.27)">25</text><path class="cls-6" d="M470.86,288.7a12.27,12.27,0,0,0,2.09-8.49,12.38,12.38,0,0,0-24.65,2.3,13.08,13.08,0,0,0,11,11.5,12.4,12.4,0,0,0,7.59-1.6,1.61,1.61,0,0,1,1.39,0L471.2,294a.51.51,0,0,0,.71-.63l-1.24-3.26A1.48,1.48,0,0,1,470.86,288.7Z"/><rect class="cls-4" x="107.36" y="88.74" width="22.96" height="22.96" rx="3.67"/><rect class="cls-10" x="142.33" y="88.81" width="211.33" height="22.96"/><rect class="cls-11" x="319.22" y="88.81" width="34.44" height="22.96"/><path class="cls-11" d="M554.57,88.81a11.48,11.48,0,1,0,11.48,11.48,11.48,11.48,0,0,0-11.48-11.48Z"/><path class="cls-11" d="M521.4,88.81a11.48,11.48,0,1,0,11.48,11.48A11.48,11.48,0,0,0,521.4,88.81Z"/><polygon class="cls-11" points="511.93 104.26 509.92 111.77 517.43 109.76 511.93 104.26"/><path class="cls-11" d="M479.31,107.69a10.21,10.21,0,1,1,20.41,0Z"/><circle class="cls-11" cx="489.51" cy="93.91" r="5.1"/><path class="cls-11" d="M469.1,111.77a10.21,10.21,0,1,1,20.41,0Z"/><circle class="cls-11" cx="479.31" cy="97.99" r="5.1"/><rect class="cls-6" x="409.47" y="97.74" width="34.44" height="5.1"/><path class="cls-11" d="M390.33,88.81a11.48,11.48,0,1,0,11.48,11.48,11.48,11.48,0,0,0-11.48-11.48Z"/><g class="cls-12"><path class="cls-6" d="M380.13,111.77a10.21,10.21,0,1,1,20.41,0Z"/><circle class="cls-6" cx="390.33" cy="97.99" r="5.1"/></g><path class="cls-6" d="M333.34,103.83a6.6,6.6,0,1,1,6.6-6.59A6.6,6.6,0,0,1,333.34,103.83Zm0-12a5.4,5.4,0,1,0,5.4,5.4A5.4,5.4,0,0,0,333.34,91.84Z"/><path class="cls-6" d="M338.45,101.31h2.37a0,0,0,0,1,0,0v8.27a.93.93,0,0,1-.93.93h-.51a.93.93,0,0,1-.93-.93v-8.27a0,0,0,0,1,0,0Z" transform="translate(-1.37 207.32) rotate(-33.88)"/></g></g></svg>