<svg xmlns="http://www.w3.org/2000/svg" xmlns:xlink="http://www.w3.org/1999/xlink" viewBox="0 0 312.95 598.96"><defs><style>.cls-1{fill:#777;}.cls-2{fill:#f6f6f6;}.cls-3{fill:url(#linear-gradient);}.cls-4{fill:#fff;}</style><linearGradient id="linear-gradient" x1="82.48" y1="166.24" x2="215.47" y2="336.84" gradientUnits="userSpaceOnUse"><stop offset="0" stop-color="#00ffaf"/><stop offset="0.06" stop-color="#00edad"/><stop offset="0.32" stop-color="#00a6a7"/><stop offset="0.55" stop-color="#006ea2"/><stop offset="0.75" stop-color="#00469f"/><stop offset="0.91" stop-color="#002d9d"/><stop offset="1" stop-color="#00249c"/></linearGradient></defs><g id="Layer_2" data-name="Layer 2"><g id="Layer_1-2" data-name="Layer 1"><path class="cls-1" d="M2.45,299.62q0,123.92,0,247.82c0,7.93.19,15.84,4,23.2,8.88,17,22.7,26,42,26,72,.06,144-.05,216,.07,21.36,0,38-14.41,43.83-32.92a52.93,52.93,0,0,0,2.29-15.93q0-53.46,0-106.92c0-1.16-.05-2.33,0-3.49.05-.91-.25-2.21,1.31-2.08,1.12.1,1,1.15,1,1.94,0,1,0,2,0,3,0,36.3.07,72.61,0,108.92,0,12.24-3.24,23.34-11.6,32.91C291.45,593.38,279.43,599,264.51,599q-108-.09-215.95,0c-10,0-19.81-1.15-27.93-7.42C7.31,581.22-.72,568,.05,550.52c.07-1.5,0-3,0-4.5q0-247.56,0-495.14c0-9.24.59-18.42,5.28-26.61,8-14,20.15-22.07,36.3-23.82A77.4,77.4,0,0,1,50.1.06q106.49,0,213-.06c20.9,0,36,9.18,45.4,27.64,3.45,6.75,4.43,14.19,4.43,21.66q.09,184.37,0,368.73c0,.67.05,1.34,0,2-.1,1.07.35,2.77-1.35,2.64s-.91-1.84-1-2.88,0-2.33,0-3.5q0-182.12,0-364.23c0-13.52-3.28-25.94-13-35.88C291.42,10,283.81,6.42,275.5,4c-6.85-2-13.77-1.7-20.71-1.7q-102.22,0-204.46,0c-11.12,0-21.53,2.53-30.47,9.39C7.39,21.28,2.31,34.27,2.4,49.8c.18,28.48.05,57,.05,85.44Z"/><path class="cls-1" d="M16,119.22c2.06,1.72,1.06,4.06,1.06,6.07q.08,211.59,0,423.17c0,13.27,4.68,23.64,16.72,30,4.82,2.56,10.1,3.32,15.48,3.32q107.22,0,214.45,0c19.49,0,31.63-12.32,31.79-32,.13-16.82,0-33.64,0-50.46q0-224.08.13-448.17c0-13.2-4.38-23.11-15.55-30.12a26.38,26.38,0,0,0-14.25-3.9c-12.33-.08-24.66-.12-37,0-6.74.06-9.55,2.65-10.82,9.34C216,37.58,209.63,43,198.42,43q-42,.09-84,0C103.1,43,97.08,37.8,94.92,26.51,93.69,20.07,90.6,17.19,84,17.12c-12.33-.14-24.67-.35-37,.07-17.85.59-29.76,13.29-29.86,31.46-.12,20.32,0,40.64-.07,61,0,1.87.9,4-1.08,5.58a2.8,2.8,0,0,1-1.1-2.63c.1-23.14-.22-46.3.42-69.43a28.84,28.84,0,0,1,26.42-27.8,267.59,267.59,0,0,1,45.38.08,10.46,10.46,0,0,1,9.69,9.47c1.06,11.06,9.46,16.05,19,15.94,27-.31,54-.1,81-.11,11.51,0,15.9-3.73,18.31-15.4,1.3-6.27,5.43-10.33,12.28-10.4,14.3-.16,28.63-.9,42.93.46C286,16.87,296.4,30.3,297.77,44.15a59.74,59.74,0,0,1,.16,6q0,249.3.08,498.61c0,14.07-5.26,24.79-17.56,31.63-4.83,2.68-10,5-15.91,3.94a20.28,20.28,0,0,0-3.49-.05c-70.15,0-140.29-.13-210.44.17-9,0-17-1.61-24-7.2a29.54,29.54,0,0,1-11.24-19.8A81.21,81.21,0,0,1,14.92,547q0-184.61,0-369.21c0-17.81,0-35.63,0-53.45C15,122.6,14.16,120.6,16,119.22Z"/><path class="cls-2" d="M157.55,560c12.14,0,24.27,0,36.41,0,1.71,0,4.34-.61,4.47,1.83.15,2.72-2.36,3.16-4.67,3.16h-74.3c-1.83,0-4.12.15-4.2-2.35-.08-2.9,2.43-2.64,4.39-2.64Q138.61,559.94,157.55,560Z"/><path class="cls-2" d="M155.87,26.71H129.7c-1.71,0-3.72.27-3.59-3.24.13-3.13,2-2.74,3.59-2.74q26.53,0,53.07,0c1.85,0,4.19-.1,4.07,3.24-.1,2.8-2.32,2.77-4.07,2.77C173.81,26.69,164.84,26.71,155.87,26.71Z"/><circle class="cls-2" cx="118.43" cy="23.71" r="3.58"/><circle class="cls-2" cx="108.11" cy="23.71" r="3.58"/><circle class="cls-2" cx="204.84" cy="23.71" r="3.58"/><circle class="cls-2" cx="194.53" cy="23.71" r="3.58"/><path class="cls-3" d="M158.45,207.21l8.89-27.73a2.07,2.07,0,0,1,4,.64l-.11,29.12a2.07,2.07,0,0,0,3.75,1.22l17-23.62a2.07,2.07,0,0,1,3.64,1.85l-9.1,27.67a2.07,2.07,0,0,0,3.19,2.31l23.5-17.2a2.07,2.07,0,0,1,2.89,2.89L199,227.86a2.07,2.07,0,0,0,2.32,3.18l27.66-9.1a2.07,2.07,0,0,1,1.86,3.65l-23.63,17a2.07,2.07,0,0,0,1.22,3.75l29.12-.11a2.07,2.07,0,0,1,.64,4l-27.73,8.9a2.07,2.07,0,0,0,0,3.94L238.15,272a2.07,2.07,0,0,1-.64,4L208.39,276a2.07,2.07,0,0,0-1.22,3.75l23.63,17a2.07,2.07,0,0,1-1.86,3.65l-27.66-9.11a2.07,2.07,0,0,0-2.32,3.19L216.17,318a2.07,2.07,0,0,1-2.89,2.89l-23.5-17.21a2.07,2.07,0,0,0-3.19,2.32l9.1,27.66a2.07,2.07,0,0,1-3.64,1.86l-17-23.63a2.07,2.07,0,0,0-3.75,1.22l.11,29.12a2.07,2.07,0,0,1-4,.64l-8.89-27.73a2.07,2.07,0,0,0-3.94,0l-8.9,27.73a2.07,2.07,0,0,1-4-.64l.11-29.12a2.07,2.07,0,0,0-3.75-1.22l-17,23.63a2.07,2.07,0,0,1-3.64-1.86l9.1-27.66a2.07,2.07,0,0,0-3.19-2.32L99.68,320.85A2.07,2.07,0,0,1,96.79,318l17.2-23.5a2.07,2.07,0,0,0-2.31-3.19L84,300.38a2.07,2.07,0,0,1-1.85-3.65l23.62-17a2.07,2.07,0,0,0-1.22-3.75l-29.12.11a2.07,2.07,0,0,1-.64-4l27.73-8.89a2.07,2.07,0,0,0,0-3.94l-27.73-8.9a2.07,2.07,0,0,1,.64-4l29.12.11a2.07,2.07,0,0,0,1.22-3.75l-23.62-17A2.07,2.07,0,0,1,84,221.94l27.67,9.1a2.06,2.06,0,0,0,2.31-3.18l-17.2-23.5a2.07,2.07,0,0,1,2.89-2.89l23.49,17.2a2.07,2.07,0,0,0,3.19-2.31l-9.1-27.67a2.07,2.07,0,0,1,3.64-1.85l17,23.62a2.07,2.07,0,0,0,3.75-1.22l-.11-29.12a2.07,2.07,0,0,1,4-.64l8.9,27.73A2.07,2.07,0,0,0,158.45,207.21Z"/><path class="cls-4" d="M125.52,242.54h3.84V274h-5.44V248.11l-5.62,1.57-1.16-4.47Z"/><path class="cls-4" d="M162.43,264.65a16.21,16.21,0,0,1-2.77,5.15,13.16,13.16,0,0,1-4.31,3.46,13,13,0,0,1-11.17,0,12.88,12.88,0,0,1-4.29-3.44,15.57,15.57,0,0,1-2.74-5.13,20.94,20.94,0,0,1,0-12.6,16,16,0,0,1,2.77-5.16,13.09,13.09,0,0,1,4.3-3.45,12.24,12.24,0,0,1,5.6-1.28,12.37,12.37,0,0,1,5.58,1.25,13,13,0,0,1,4.28,3.44,15.79,15.79,0,0,1,2.75,5.13,21,21,0,0,1,0,12.61Zm-5.25-10.6a11.68,11.68,0,0,0-1.6-3.57,8.24,8.24,0,0,0-2.52-2.41,6.61,6.61,0,0,0-6.59,0,8,8,0,0,0-2.47,2.36,11.68,11.68,0,0,0-1.59,3.55,17.76,17.76,0,0,0,0,8.77A12.15,12.15,0,0,0,144,266.3a8,8,0,0,0,2.52,2.41,6.36,6.36,0,0,0,3.3.87,6.23,6.23,0,0,0,3.28-.87,7.94,7.94,0,0,0,2.48-2.39,11.89,11.89,0,0,0,1.58-3.55,16.4,16.4,0,0,0,.56-4.35A16.72,16.72,0,0,0,157.18,254.05Z"/><path class="cls-4" d="M182.28,253.45a7.85,7.85,0,0,1-1.52,2.54,7.23,7.23,0,0,1-2.34,1.74,7.35,7.35,0,0,1-6,0,6.85,6.85,0,0,1-2.3-1.72,7.74,7.74,0,0,1-1.49-2.54,8.68,8.68,0,0,1-.54-3.06,8.82,8.82,0,0,1,.54-3.1,7.82,7.82,0,0,1,1.51-2.54,7.38,7.38,0,0,1,2.35-1.74,7,7,0,0,1,8.3,1.7,7.92,7.92,0,0,1,1.49,2.54,8.68,8.68,0,0,1,.54,3.06A8.82,8.82,0,0,1,182.28,253.45ZM175.68,274h-4.42l22.85-31.23h4.41Zm2.21-26.83a2.94,2.94,0,0,0-2.48-1.32,2.8,2.8,0,0,0-2.45,1.32,5.5,5.5,0,0,0-.9,3.19,5.39,5.39,0,0,0,1,3.27,2.94,2.94,0,0,0,2.48,1.32,2.8,2.8,0,0,0,2.45-1.32,5.5,5.5,0,0,0,.9-3.19A5.39,5.39,0,0,0,177.89,247.16Zm23.27,22.26a7.81,7.81,0,0,1-1.52,2.54,7.45,7.45,0,0,1-2.34,1.74,7,7,0,0,1-3,.65,7.11,7.11,0,0,1-3-.62A6.94,6.94,0,0,1,189,272a8.17,8.17,0,0,1-1.5-2.54,9.21,9.21,0,0,1,0-6.16,7.79,7.79,0,0,1,1.52-2.55,7.53,7.53,0,0,1,2.34-1.74,6.94,6.94,0,0,1,3-.64,7.08,7.08,0,0,1,3,.62,6.88,6.88,0,0,1,2.3,1.72,8.17,8.17,0,0,1,1.5,2.54,9,9,0,0,1,.53,3.06A9.05,9.05,0,0,1,201.16,269.42Zm-4.4-6.29a2.93,2.93,0,0,0-2.48-1.32,2.81,2.81,0,0,0-2.45,1.32,5.51,5.51,0,0,0-.89,3.19,5.42,5.42,0,0,0,1,3.28,2.93,2.93,0,0,0,2.47,1.32,2.83,2.83,0,0,0,2.46-1.32,5.59,5.59,0,0,0,.89-3.19A5.42,5.42,0,0,0,196.76,263.13Z"/><path class="cls-1" d="M83,393.43a11.38,11.38,0,0,1-2.71,3.94A12.75,12.75,0,0,1,76.06,400a14.46,14.46,0,0,1-5.35,1H61V376.1h9.69a14.67,14.67,0,0,1,5.35.95,12.38,12.38,0,0,1,4.19,2.61A11.49,11.49,0,0,1,83,383.58a12.32,12.32,0,0,1,1,4.88v.07A12.45,12.45,0,0,1,83,393.43Zm-4.75-4.9a8.27,8.27,0,0,0-.55-3,7.12,7.12,0,0,0-1.53-2.37,6.73,6.73,0,0,0-2.36-1.55,8.17,8.17,0,0,0-3.06-.55H66.49v15h4.22a8.37,8.37,0,0,0,3.06-.53A6.53,6.53,0,0,0,76.13,394a7.34,7.34,0,0,0,1.53-2.35,8,8,0,0,0,.55-3Z"/><path class="cls-1" d="M89,401V376.1H94.5V401Z"/><path class="cls-1" d="M118,396.89a6.66,6.66,0,0,1-1.87,2.42,8.27,8.27,0,0,1-2.86,1.49,12.54,12.54,0,0,1-3.68.52,16.48,16.48,0,0,1-5.58-1,14.74,14.74,0,0,1-5-3l3.23-3.87a16.16,16.16,0,0,0,3.5,2.2,9.39,9.39,0,0,0,3.92.82,4.83,4.83,0,0,0,2.65-.62,2,2,0,0,0,.94-1.73v-.07a2.16,2.16,0,0,0-.2-.94,1.93,1.93,0,0,0-.75-.76,6.93,6.93,0,0,0-1.53-.71,25.34,25.34,0,0,0-2.54-.75,31.18,31.18,0,0,1-3.42-1,9.55,9.55,0,0,1-2.6-1.4,5.69,5.69,0,0,1-1.65-2.08,7.1,7.1,0,0,1-.59-3.09v-.07a7.26,7.26,0,0,1,.63-3.07,7.11,7.11,0,0,1,1.78-2.36,8.21,8.21,0,0,1,2.74-1.53,11.14,11.14,0,0,1,3.51-.53,14.79,14.79,0,0,1,5,.82,14.34,14.34,0,0,1,4.2,2.34L115.06,383a17.41,17.41,0,0,0-3.26-1.79,8.34,8.34,0,0,0-3.2-.66,3.93,3.93,0,0,0-2.4.62,1.88,1.88,0,0,0-.79,1.54v.08a2.13,2.13,0,0,0,.23,1,2,2,0,0,0,.83.8,8.28,8.28,0,0,0,1.66.68c.7.21,1.58.46,2.65.74a26.07,26.07,0,0,1,3.37,1.12,9.67,9.67,0,0,1,2.49,1.49,5.83,5.83,0,0,1,1.53,2,7,7,0,0,1,.52,2.81v.07A7.6,7.6,0,0,1,118,396.89Z"/><path class="cls-1" d="M143.29,398.79A11.83,11.83,0,0,1,141,400.2a11.7,11.7,0,0,1-2.68.88,15.53,15.53,0,0,1-3.27.31,12.93,12.93,0,0,1-5.08-1,12.18,12.18,0,0,1-6.71-6.78,13.07,13.07,0,0,1-1-5v-.07a12.92,12.92,0,0,1,3.62-9.07,12.48,12.48,0,0,1,4.09-2.77,13.35,13.35,0,0,1,5.25-1,16.43,16.43,0,0,1,3.18.28,13.34,13.34,0,0,1,2.61.78,12.34,12.34,0,0,1,2.17,1.21,16.29,16.29,0,0,1,1.84,1.56l-3.48,4a12.9,12.9,0,0,0-3-2.06,7.54,7.54,0,0,0-3.39-.75,6.85,6.85,0,0,0-5.19,2.27,7.91,7.91,0,0,0-1.49,2.47,8.53,8.53,0,0,0-.53,3v.07a8.64,8.64,0,0,0,.53,3,8,8,0,0,0,1.48,2.49,6.84,6.84,0,0,0,5.2,2.3,7.6,7.6,0,0,0,3.6-.78,14,14,0,0,0,2.93-2.13l3.48,3.52A17.93,17.93,0,0,1,143.29,398.79Z"/><path class="cls-1" d="M174,393.52a12.82,12.82,0,0,1-2.75,4.08,12.61,12.61,0,0,1-4.19,2.77,14.28,14.28,0,0,1-10.6,0,13,13,0,0,1-4.17-2.73,12.29,12.29,0,0,1-2.74-4.05,12.76,12.76,0,0,1-1-5v-.07a12.63,12.63,0,0,1,1-5,12.71,12.71,0,0,1,6.94-6.85,13.76,13.76,0,0,1,5.31-1,13.62,13.62,0,0,1,5.29,1,13.34,13.34,0,0,1,4.17,2.73,12.14,12.14,0,0,1,2.74,4.05,12.79,12.79,0,0,1,1,5v.07A12.59,12.59,0,0,1,174,393.52Zm-4.72-5a8.47,8.47,0,0,0-.55-3,7.46,7.46,0,0,0-4-4.17,7.35,7.35,0,0,0-3-.62,7.53,7.53,0,0,0-3,.6,7,7,0,0,0-2.34,1.67,8,8,0,0,0-1.53,2.47,8.32,8.32,0,0,0-.55,3v.07a8.43,8.43,0,0,0,.55,3,7.47,7.47,0,0,0,1.57,2.49,7.34,7.34,0,0,0,2.38,1.68,7.14,7.14,0,0,0,3,.62,7.5,7.5,0,0,0,3-.6,6.89,6.89,0,0,0,2.36-1.67,7.9,7.9,0,0,0,1.53-2.47,8.24,8.24,0,0,0,.55-3Z"/><path class="cls-1" d="M200.33,395.07a9.14,9.14,0,0,1-2.18,3.49,8.87,8.87,0,0,1-3.44,2.1,14,14,0,0,1-4.51.69,10.89,10.89,0,0,1-7.89-2.77c-1.91-1.85-2.87-4.6-2.87-8.27V376.1h5.47v14.07a6.56,6.56,0,0,0,1.42,4.59,5.08,5.08,0,0,0,3.94,1.55,5.2,5.2,0,0,0,3.94-1.49,6.27,6.27,0,0,0,1.42-4.48V376.1h5.47v14A14.44,14.44,0,0,1,200.33,395.07Z"/><path class="cls-1" d="M224.11,401l-12-15.8V401h-5.4V376.1h5l11.65,15.31V376.1h5.4V401Z"/><path class="cls-1" d="M246,381.15V401h-5.47V381.15H233v-5h20.59v5Z"/><path class="cls-1" d="M116.43,443.57,114.16,438H103.65l-2.28,5.58H95.8l10.65-25h5l10.66,25Zm-7.53-18.46-3.3,8.06h6.6Z"/><path class="cls-1" d="M144.87,431.18a7.71,7.71,0,0,1-2.15,2.73,9,9,0,0,1-3.19,1.65,13.48,13.48,0,0,1-3.93.55h-4.15v7.46H126V418.71h10.16a11.76,11.76,0,0,1,4,.63,8.45,8.45,0,0,1,3,1.75,7.75,7.75,0,0,1,1.89,2.72,9.17,9.17,0,0,1,.65,3.5v.07A8.74,8.74,0,0,1,144.87,431.18Zm-4.76-3.77a3.36,3.36,0,0,0-1.19-2.8,5,5,0,0,0-3.25-1h-4.22v7.6h4.33a4.47,4.47,0,0,0,3.2-1.08,3.6,3.6,0,0,0,1.13-2.69Z"/><path class="cls-1" d="M168.59,431.18a7.71,7.71,0,0,1-2.15,2.73,9,9,0,0,1-3.19,1.65,13.48,13.48,0,0,1-3.93.55h-4.15v7.46H149.7V418.71h10.16a11.76,11.76,0,0,1,4,.63,8.45,8.45,0,0,1,3,1.75,7.59,7.59,0,0,1,1.88,2.72,9,9,0,0,1,.66,3.5v.07A8.74,8.74,0,0,1,168.59,431.18Zm-4.76-3.77a3.36,3.36,0,0,0-1.19-2.8,5,5,0,0,0-3.25-1h-4.22v7.6h4.33a4.47,4.47,0,0,0,3.2-1.08,3.6,3.6,0,0,0,1.13-2.69Z"/><path class="cls-1" d="M173.42,443.57V418.71h5.47v19.92h12.39v4.94Z"/><path class="cls-1" d="M207.86,433.66v9.91h-5.47v-9.8l-9.55-15.06h6.39l5.93,10,6-10h6.21Z"/></g></g></svg>