<svg xmlns="http://www.w3.org/2000/svg" xmlns:xlink="http://www.w3.org/1999/xlink" viewBox="0 0 677.39 666.96"><defs><style>.cls-1,.cls-9{fill:none;}.cls-2{clip-path:url(#clip-path);}.cls-3{fill:#e2e2e2;}.cls-4,.cls-5,.cls-7{fill:#fff;}.cls-4,.cls-5{stroke:#777;}.cls-10,.cls-4,.cls-5,.cls-9{stroke-miterlimit:10;}.cls-4{stroke-width:1.2px;}.cls-6{fill:#f6f6f6;}.cls-8{fill:#405256;}.cls-9{stroke:#405256;stroke-width:0.5px;}.cls-10{fill:#545454;stroke:#00094c;stroke-width:3px;opacity:0.6;}.cls-11{fill:url(#linear-gradient);}</style><clipPath id="clip-path" transform="translate(0 115.35)"><rect class="cls-1" x="14.59" y="38.68" width="644.21" height="485.24"/></clipPath><linearGradient id="linear-gradient" x1="351.29" y1="233.78" x2="419.39" y2="297.07" gradientUnits="userSpaceOnUse"><stop offset="0" stop-color="#00ffaf"/><stop offset="0.06" stop-color="#00edad"/><stop offset="0.32" stop-color="#00a6a7"/><stop offset="0.55" stop-color="#006ea2"/><stop offset="0.75" stop-color="#00469f"/><stop offset="0.91" stop-color="#002d9d"/><stop offset="1" stop-color="#00249c"/></linearGradient></defs><g id="Layer_2" data-name="Layer 2"><g id="Layer_1-2" data-name="Layer 1"><g class="cls-2"><path class="cls-3" d="M636.13,457.22l2-1,8.32,41.41h0l.23,1.11h.06l12.86,52.81h-6.13c-4.63-8.16-9.56-19.65-9.68-31.78C643.5,497.43,640.26,476.79,636.13,457.22Z" transform="translate(0 115.35)"/><path class="cls-3" d="M202.3-30.82c.35,9.15.61,18.3.77,27.6h.06L238.19.62,282-2.9c.1-1.14.13-1.94.13-2.32L276.8-60l-76.28-7.27c.64,11,1.18,21.72,1.59,32.36Z" transform="translate(0 115.35)"/><path class="cls-3" d="M437.56-100.17l-.95-1.59,7.52-4.51c-2.28-3.56-4.29-6.64-5.87-9H425.08C428.89-110.81,433.14-105.67,437.56-100.17Z" transform="translate(0 115.35)"/><path class="cls-3" d="M446.1-103.19l-7.4,4.45c13.09,16.45,27.31,35.82,34.9,51,10.61,21.18,18.8,48.94,25.63,82l8.13-2.54c-3.49-16-7.3-31.37-11.56-43.54C486.84-37.48,461.41-79.25,446.1-103.19Z" transform="translate(0 115.35)"/><path class="cls-3" d="M561.44,185.16c-4.7-14.51-12.26-25.4-19.43-35.69-7-10-13.56-19.53-17-31.38-2.61-9.18-5.59-24.8-9-42.74-2.41-12.71-5-26.55-7.91-40.08L500,37.81c3.46,17.15,6.54,35.7,9.43,55.48,8.67,59.7,27.12,59.26,36.68,74.28a71.8,71.8,0,0,1,8.45,19.28Z" transform="translate(0 115.35)"/><path class="cls-3" d="M565.82,199.77c-.79-2.73-1.55-5.3-2.22-7.62l-7.21,1.78c.64,2.57,1.21,5.08,1.84,7.46Z" transform="translate(0 115.35)"/><path class="cls-3" d="M634.32,450a288.58,288.58,0,0,1,32.78-13.95l-45.42-91.52c-18.64-5.84-25.75-33.12-25.78-33.19-.07-.25-17-65.26-28.07-104.57l-7.4,1.56c3.49,10.7-1,22.83,6,34.13,7.3,11.63-4.45,14.93,14.7,50s29.63,81.81,31.89,99.81C615.14,408.67,628.64,431,634.32,450Z" transform="translate(0 115.35)"/><polygon class="cls-3" points="446.51 209.02 431.37 218.71 430.98 218.87 391.32 233.25 385.92 251.58 398.5 280.92 404.72 271.65 399.74 263.71 408.06 247.13 420.54 247.96 446.51 209.02"/><path class="cls-3" d="M511.65,225.53c2,4.25,5.71,11.87,10.1,21.08a65.29,65.29,0,0,0,21.18-10.79c-1.88-6.67-3.34-12.14-4.26-15.85-.63-2.67-1.33-5.34-2.06-7.94l-15.88,3.37a22.28,22.28,0,0,1-4.54,6.63A20.68,20.68,0,0,1,511.65,225.53Z" transform="translate(0 115.35)"/><path class="cls-3" d="M481.64,240.71a54.56,54.56,0,0,0,35.25,7.46c-4.35-9.08-7.85-16.32-9.69-20.14a21,21,0,0,1-3.21.26,21.46,21.46,0,0,1-15.3-6.35,21.76,21.76,0,0,1-5.27-8.55c-3.34.8-8,1.88-13.44,3.05Z" transform="translate(0 115.35)"/><path class="cls-3" d="M512.82,199a13.7,13.7,0,1,0-9.68,23.37,13.66,13.66,0,0,0,13.68-13.69A13.62,13.62,0,0,0,512.82,199Z" transform="translate(0 115.35)"/><path class="cls-3" d="M10.46,328.29l10.61-1.21c1.43-.38,9.59-2.73,11-7.43,2.06-6.89,7.11-47.89,7.11-48l.06-.45c0-.06,5.88-23.75,18.87-33.79,12.35-9.52,36.9-19.81,37-19.85l1.37-.28,45.41-.48s13.94-.79,14.19-7.71l-22.8-157.8-6.67-17.34-.25-1.56,10.19-147.7h7.31L133.64,32.19l6.55,17,.22.79,22.9,158.5,0,.51c0,13.91-21.09,15.12-21.12,15.12l-45,.47c-3.81,1.62-24.17,10.51-34.68,18.61s-15.75,27.95-16.2,29.7c-.47,3.84-5.17,41.79-7.3,48.84-2.76,9.21-16.42,12.45-16.45,12.45l-.48.09-11.65,1.37Z" transform="translate(0 115.35)"/><path class="cls-3" d="M10.46,122.51l128.68,14.26.51.09s11.59,2.95,35-2.7l104.61-29.85,2,7L176.52,141.18c-22.81,5.56-36,3.3-38.3,2.83L10.46,129.81Z" transform="translate(0 115.35)"/><path class="cls-3" d="M275.47-115.32,285.92-8.08v.45c0,.06-.35,16.51-7.46,31.75L268.23,48.2s-3.81,9.65-.41,19.3l59,159.3.1.31c0,.13,11.05,41.29,13.72,62.72l33.79,151.26.09.92-3.94,109.56h-7.27l3.94-109.43L333.43,290.69c-2.51-20.23-12.74-58.84-13.47-61.61L261,69.92c-4.32-12.23.48-24.39.51-24.42,3.33-7.78,6.67-16.9,10.35-24.36,6-12.93,6.76-26.84,6.83-28.74L268.17-115.32Z" transform="translate(0 115.35)"/><polygon class="cls-3" points="10.46 326.71 96.71 332.65 96.23 339.93 10.46 334.02 10.46 326.71"/><path class="cls-3" d="M136.22,551.57c-3.34-11.71-8.55-31.66-11-50.27l-19-138.46c-.06-.22-7-36.68-13.24-50.27-6-13-29.63-65.61-32.62-72.31l-23-20.55,4.86-5.39,23.56,21.05.92,1.24c.07.16,26.33,58.72,32.9,72.94,6.67,14.42,13.76,51.83,13.79,52,4.86,35.22,19,107.5,19,138.9,2.48,19.18,8.07,40.05,11.31,51.2h-7.59Z" transform="translate(0 115.35)"/><path class="cls-3" d="M368.84,524.14l-28.46,6.19c-1.74.44-18.13,4.13-39.66-4C265.18,510.32,229.2,492,194,475.14l-17.08-52-56.47,13.37-1.68-7.08,63-14.93L200,469.93,303.39,519.5c20.51,7.75,35.28,3.75,35.31,3.75L367.28,517Z" transform="translate(0 115.35)"/><path class="cls-3" d="M677.35,440.27c-16.29,5.2-44.23,15.91-69.57,34.17l-.48.31c-.1,0-26.77,13.63-50.43,13.63l-.8-.1-186-42.9,1.62-7.08,185.56,42.77c20.8-.12,44.36-11.62,46.59-12.7,27.12-19.5,57.16-30.61,73.51-35.69v7.59Z" transform="translate(0 115.35)"/><path class="cls-3" d="M677.35,316l-26.73-98.7-99-228.87c-.38-.7-5.59-11,.44-20.07l.29-.35L577.61-61.4l5.52,4.73L558-27.51c-3.68,5.68,0,12.57,0,12.57L657.44,214.7l.19.5,19.76,72.92V316Z" transform="translate(0 115.35)"/><path class="cls-3" d="M576.81-115.32q7.91,62.07,15.69,124.1c0,.07,3.24,25.79-12.32,35.35l-3.78-6.19c11.53-7.08,8.89-28.2,8.89-28.23l-8.54-68.25-7.24-56.78Z" transform="translate(0 115.35)"/><path class="cls-3" d="M460.93-115.32,527.08,3.58s7.78,15.11,16.51,16c10.9,1.15,28.68,3.12,28.71,3.12L571.57,30s-18.23-2-28.77-3.12c-12.67-1.33-22.2-19.91-22.2-19.94l-68-122.23Z" transform="translate(0 115.35)"/><polygon class="cls-3" points="526.38 0.03 563.19 78.57 556.65 81.65 518.38 0.03 526.38 0.03"/><path class="cls-3" d="M417.2-115.32l-51.83,45.6c-.06,0-19.75,17.34-40.74,16.83L137-70.77l.7-7.24L324.92-60.16c18,.35,35.34-14.77,35.66-15l45.57-40.11Z" transform="translate(0 115.35)"/><path class="cls-3" d="M489.23,213.62c-.13,0-44.56,11.62-70.57,11.14-23.37-.41-41.82-28.23-47-36.93l-57,17-1.18.16-117.4-4.23c-2.54.26-24.46,2.7-35.48,15.88L155,211.93c13.62-16.32,40.52-18.45,40.61-18.48h.48l117,4.23,62.06-18.46,1.42,2.58c0,.09,18.87,35.28,42.21,35.69,25,.45,68.5-10.89,68.66-11Z" transform="translate(0 115.35)"/><path class="cls-3" d="M501.64,473c0-.06-1.77-28-4.19-36.46-2-7.05-19.05-19.75-21.75-21.72-3.21-1.33-16.8-8.42-17.25-32.9l-1.58-119.85c0-.57-.23-24.58-27.54-38.2l3.24-6.51c31.6,15.78,31.54,44.52,31.54,44.61l1.58,119.89c.42,22.45,12.83,26.32,12.87,26.32l1,.51c.07,0,22,15.75,24.84,25.88,2.6,9.28,4.44,37.86,4.44,37.95Z" transform="translate(0 115.35)"/><path class="cls-3" d="M454.33,88.49,354.51,238.07l33.32,125.79s1.49,7.24,8.95,4.29l63.87-33.22,1.68,3.24-64.09,33.34c-11.59,4.7-14-6.89-14-6.92L350.61,237.43q50.29-75.49,100.7-150.94Z" transform="translate(0 115.35)"/><path class="cls-3" d="M461,280.43l-51.26,9.05c-1.08.7-5.43,4.2-3,14.14l16.7,53L420,357.73,403.26,304.6c-3.52-14.16,5-18.42,5-18.45l.54-.19,51.54-9.11Z" transform="translate(0 115.35)"/><polygon class="cls-3" points="359.4 379.27 384.21 371.68 384.49 371.62 408.21 368.57 412.06 389.21 387.61 392.67 387.1 389.05 407.77 386.13 405.26 372.6 385.13 375.21 360.48 382.77 359.4 379.27"/><polygon class="cls-3" points="386.52 373.18 389.16 390.58 385.54 391.12 382.94 373.68 386.52 373.18"/><polygon class="cls-3" points="398.31 371.62 400.91 389.05 397.32 389.59 394.72 372.16 398.31 371.62"/><path class="cls-3" d="M421.55,453.6,426.76,423c0-.57.06-2.54,0-3.65-.06-1.33-.19-3-.44-4.92-.19-1.49-.48-3.27-.89-5.31l-13-47.57,3.49-.95L429,408.45c.38,2,.67,3.84.92,5.55.26,2.07.42,3.81.48,5.21.32,6.32,0,4,0,4l0,.32-5.24,30.74Z" transform="translate(0 115.35)"/><polygon class="cls-3" points="283.89 531.99 396.02 501.92 396.94 505.41 284.84 535.49 283.89 531.99"/><path class="cls-3" d="M394.85,370.37l3.39,17.5,7.31,24.45s1.71,7.91,8.92,7l13.91-1.81.48,3.58L415,422.93c-10,1.27-12.7-8.8-13-9.82-4.89-16.32-7.56-25.72-10.73-42Z" transform="translate(0 115.35)"/><polygon class="cls-3" points="424.63 514.53 491.51 498.01 492.4 501.54 425.52 518.05 424.63 514.53"/><path class="cls-3" d="M419.81,383.39,469.6,355l.35-.16,24.23-7.68c1.43-.7,11.88-5.34,15.21,6.82l44.05,128.87L550,484.06,505.9,355c-2.35-8.73-10.1-4.57-10.13-4.57l-.32.12-24.2,7.69L421.62,386.5Z" transform="translate(0 115.35)"/><path class="cls-3" d="M368.52,487l40.17-16.42a22,22,0,0,0,12.86-16.95l3.59.6A25.89,25.89,0,0,1,410,474l-40.11,16.39Z" transform="translate(0 115.35)"/><polygon class="cls-3" points="442.8 666.93 416.28 581.63 419.74 580.58 446.61 666.93 442.8 666.93"/><polygon class="cls-3" points="402.31 615.07 419.62 648.1 416.41 649.78 399.07 616.75 402.31 615.07"/><path class="cls-3" d="M506.69,473.93a46.08,46.08,0,0,1-18.26,13l-77.58,33.31-1.43-3.33,77.68-33.35a42.22,42.22,0,0,0,16.73-11.91Z" transform="translate(0 115.35)"/><path class="cls-3" d="M485.1,535.12l-11.94,4.23-.22.06s-4.58,1.11-6.93-2.51l-23.4,7.88-1.15-3.43,26.62-9,.57,1.72a2.86,2.86,0,0,0,3.33,1.81l11.88-4.19Z" transform="translate(0 115.35)"/><path class="cls-3" d="M496.94,533.69l-17-77.32c-4.76.16-18.48-.64-22.19-14.67A251.25,251.25,0,0,1,452,414.1l3.62-.45a245.24,245.24,0,0,0,5.65,27.09c3.68,13.94,19.88,11.88,19.91,11.88l1.62-.16L500.5,532.9Z" transform="translate(0 115.35)"/><polygon class="cls-3" points="501.45 592.84 510.5 614.05 507.14 615.48 498.09 594.27 501.45 592.84"/><path class="cls-3" d="M522.79,508.89,525,520.42l-20.42,13.66-6.79-31.25,12.13-6,3.78,10.7,8.89-.22ZM521,518.74l-1.43-7.66-8.44.23L507.77,502l-5.87,2.92L507,528.14Z" transform="translate(0 115.35)"/><path class="cls-3" d="M490.91,551.57,527.43,532c.16-.1,4.19-2.45,2.29-10.7L517,476.41l3.5-1,12.76,45c2.57,11.12-4.09,14.74-4.09,14.74l-30.56,16.38h-7.68Z" transform="translate(0 115.35)"/><polygon class="cls-3" points="563.06 619.51 528.48 626.18 527.81 622.63 562.36 615.92 563.06 619.51"/><path class="cls-3" d="M582.12,551.57a12.76,12.76,0,0,0-3.28-2.19l-48.14-18L532,528l48.4,18.13a17,17,0,0,1,6.6,5.49Z" transform="translate(0 115.35)"/><polygon class="cls-3" points="520.22 666.93 515.81 655.37 519.21 654.07 524.13 666.93 520.22 666.93"/><path class="cls-3" d="M571.89,483l11.27,45.83.07.44s0,3.49,8.35,6.48c5.72,2.06,25.25,9.84,40.08,15.85h-9.75c-13-5.21-26.87-10.74-31.57-12.39-9.37-3.33-10.61-8.38-10.76-9.62l-11.22-45.67Z" transform="translate(0 115.35)"/><path class="cls-3" d="M587.64,434.42l-26.39,13a10.2,10.2,0,0,0-2.13,8c1.15,5.47,5.78,28.59,5.78,28.65l-3.55.73c0-.06-4.64-23.15-5.78-28.65-1.34-6.35,3.14-11.36,3.14-11.4l.57-.41L586,431.15Z" transform="translate(0 115.35)"/><polygon class="cls-3" points="426.09 251.96 410.21 250.91 403.9 263.49 435.27 313.69 432.19 315.6 399.74 263.71 408.06 247.13 426.32 248.34 426.09 251.96"/><path class="cls-3" d="M394.5,176.08l16.06,23.25c15.15-1.24,27.92-2,43-2.42l.47,0S465,199.23,470.24,214l12.6,26.29.1,1.31-6.48,21.21,17.78,86.44-3.55.73-17.88-86.92,0-.88,6.42-21-12.45-26c-4.2-11.82-12.07-14.39-13.41-14.74l-19.56.57-25.09,2-17.27-25Z" transform="translate(0 115.35)"/><polygon class="cls-3" points="360.99 340.24 381.6 352.47 453.09 353.39 453.06 357.04 381.06 356.09 380.14 355.87 359.15 343.39 360.99 340.24"/><polygon class="cls-3" points="482.3 415.13 537.47 405.47 538.07 409.06 482.94 418.71 482.3 415.13"/><path class="cls-3" d="M576.94,424l-20.58-1.42-13.5-39.89a21.36,21.36,0,0,1-14-14.89L508.47,297.3l3.49-1,20.39,70.47c3.11,10.8,12.32,12.64,12.36,12.64l1,.22,13.37,39.47,18.17,1.27Z" transform="translate(0 115.35)"/><path class="cls-3" d="M442.61-115.32C455.79-95.12,488.69-43.23,499.26-13c8.23,23.53,14.9,58.65,20.39,87.71C523,92.5,526,108,528.57,117.08c3.21,11.27,9.66,20.51,16.45,30.29,7.47,10.7,15.34,22,20.17,37.51,9.21,29.34,34.07,125,34.2,125.53,0,.07,6.54,25.09,23,30.55l5.56-5.56.35-133.34h3.65l-.35,134.11-.54,1.27L623.46,345l-1-.29c-19.25-5.3-26.55-33.34-26.58-33.41-.07-.28-24.93-95.93-34.17-125.37-4.67-14.9-12.39-26-19.69-36.52-7-10-13.56-19.53-17-31.38-2.61-9.18-5.59-24.8-9-42.74-5.49-28.93-12.13-63.9-20.26-87.18-10.8-30.9-45.44-85-57.57-103.49h4.38Z" transform="translate(0 115.35)"/><polygon class="cls-3" points="677.36 323.73 630.16 319.25 571.25 328.43 570.72 324.84 629.85 315.63 630.29 315.63 677.36 320.08 677.36 323.73"/><polygon class="cls-3" points="590.88 131.19 677.36 358.19 677.36 368.41 587.45 132.46 590.88 131.19"/><polygon class="cls-3" points="549.06 270.54 636.74 255.64 637.31 259.23 549.66 274.13 549.06 270.54"/><polygon class="cls-3" points="555.85 281.68 642.2 269.9 642.71 273.52 556.33 285.3 555.85 281.68"/><polygon class="cls-3" points="499.23 0.03 506.22 31.66 545.69 136.9 542.26 138.14 502.79 32.8 502.72 32.55 495.48 0.03 499.23 0.03"/><path class="cls-3" d="M10.46,27.27,70.73,55.82s15.18,7,27.54,4c13-3.18,37.92-11,38-11.08l.73-.1L263.31,61.56l.32.07,44.8,13.56c1.43.32,28.14,5.94,49.55,1.36,22.23-4.76,185-56,185.42-56.14l1.08,3.49c-.47.16-163.35,51.42-185.77,56.21C336,85,307.64,78.75,307.58,78.75L262.7,65.19,137,52.32c-3.15,1-25.73,8-37.86,11-13.62,3.34-29.85-4.19-29.88-4.19L10.46,31.3Z" transform="translate(0 115.35)"/><path class="cls-3" d="M10.46,4.56,131.14,16.18,247,26.25c.07,0,15.79,1.24,22,12.51,4.29,1.75,28.58,12.58,34.2,35.79L307.93,94l9.62,20.58-3.3,1.52-9.69-20.74-.13-.35-4.79-19.59c-5.72-23.56-32.55-33.47-32.62-33.5L266,41c-5-9.94-19.09-11.12-19.4-11.15C167.75,23,89.28,15.8,10.46,8.21Z" transform="translate(0 115.35)"/><path class="cls-3" d="M10.46,79.32a36.67,36.67,0,0,1,13.69.85l9,2.61C49,87.38,75.53,95.2,83.41,95.35,93.22,95.58,148.92,84,149.08,84l.25,0c.13,0,41.64-2.54,64.12,0a143.45,143.45,0,0,1,41.12,11.34l.51.35,13.21,13-2.54,2.6-13-12.76A139.93,139.93,0,0,0,213,87.61c-21.5-2.42-60.85-.16-63.39,0-3,.6-56.37,11.62-66.34,11.4-8.38-.19-35.22-8.07-51.19-12.74-3.69-1.08-6.8-2-9-2.6a33.17,33.17,0,0,0-12.7-.7V79.32Z" transform="translate(0 115.35)"/><polygon class="cls-3" points="302.05 192.03 275.12 201.91 254.73 213.88 252.92 210.74 273.41 198.67 273.72 198.54 300.81 188.6 302.05 192.03"/><polygon class="cls-3" points="658.4 0.03 677.36 64.28 677.36 77.11 654.62 0.03 658.4 0.03"/><polygon class="cls-3" points="575.54 17.82 611.65 15.31 614.44 0.03 618.13 0.03 614.73 18.74 575.8 21.44 575.54 17.82"/><polygon class="cls-3" points="598.41 0.03 598.88 18.1 595.23 18.2 594.79 0.03 598.41 0.03"/><polygon class="cls-3" points="612.79 83.23 584.18 86.82 583.74 83.2 612.35 79.61 612.79 83.23"/><path class="cls-3" d="M399.23-115.32c10.16,10.57,29.28,31.25,43.73,51.38a163.45,163.45,0,0,1,22.29,42C470.39-7.6,474,8.21,478.14,28.12c8,38.53,18.2,89.21,18.68,91.53.28,1,7.05,25.44,16.8,36.49,5.24,5.9,10.44,15,15.21,26a241.35,241.35,0,0,1,12.41,37.79C547.85,247,586.91,374.18,587,374.53l49.38,177h-3.78l-49.1-175.93c-.12-.38-39.18-127.66-45.82-154.85a239.65,239.65,0,0,0-12.23-37.22c-4.6-10.64-9.62-19.37-14.57-25-10.55-11.94-17.6-37.92-17.6-38l0-.13c0-.16-10.41-51.67-18.7-91.59-4.1-19.72-7.66-35.37-12.74-49.63A161,161,0,0,0,440-61.87c-15.6-21.6-36.75-44-45.89-53.45Z" transform="translate(0 115.35)"/><polygon class="cls-3" points="624.54 457.58 672.08 553.3 668.81 554.92 621.3 459.17 624.54 457.58"/><path class="cls-3" d="M10.46-16.59,41.64-13.1c.67.07,14,1.27,19.44-7.55l.64-1,71.51,8.54L206.4-5.79l32.07,3.52,43.45-3.49h.28L340-.87l.38.06,62.88,19,38.93-9.56L438.57-9.16c-.19-.82-3.36-17,24.65-15.21L463-20.75c-23.82-1.49-20.87,10.8-20.87,10.83,1.59,7,2.89,14.26,4.32,21.28L403.64,21.87l-.95,0L339.52,2.75,282.08-2.08l-43.45,3.5h-.31L206.08-2.11C158.19-6.9,111.35-12,63.62-17.7,56.54-7.79,41.39-9.41,41.36-9.41l-30.9-3.53Z" transform="translate(0 115.35)"/><polygon class="cls-3" points="10.46 44.59 43.71 63.61 134.76 82.22 134.03 85.78 42.66 67.1 42.12 66.91 10.46 48.81 10.46 44.59"/><path class="cls-3" d="M60.6-115.32c3.78,68,5.56,98.92-3,166.31L54,50.51,59,11.1l1.81-30.93,0-26.1L57-115.32Z" transform="translate(0 115.35)"/><polygon class="cls-3" points="75.81 174.82 41.61 332.78 38.06 331.99 72.29 174.06 75.81 174.82"/><polygon class="cls-3" points="10.46 268.38 44.03 319.03 41.01 321.03 10.46 274.95 10.46 268.38"/><polygon class="cls-3" points="90.52 337.89 100.11 251.45 103.73 251.86 94.14 338.31 90.52 337.89"/><polygon class="cls-3" points="50.76 281.72 97.76 290.42 97.09 293.97 50.09 285.3 50.76 281.72"/><polygon class="cls-3" points="39.58 202.2 45.27 161.74 48.85 162.21 43.17 202.67 39.58 202.2"/><polygon class="cls-3" points="34.12 155.61 20.18 196.93 16.72 195.78 30.69 154.47 34.12 155.61"/><polygon class="cls-3" points="25.45 197.56 18.18 242.46 14.59 241.86 21.89 196.99 25.45 197.56"/><polygon class="cls-3" points="78.64 128.23 82.93 98.03 86.55 98.54 82.23 128.74 78.64 128.23"/><path class="cls-3" d="M31.55-57.56,30.28-32.63c0,.73-.7,16.36-12.61,20.33l-1.18-3.43c9.75-3.24,10.13-17,10.13-17l1.27-25Z" transform="translate(0 115.35)"/><polygon class="cls-3" points="101.47 77.11 98.74 99.94 95.12 99.53 97.85 76.69 101.47 77.11"/><polygon class="cls-3" points="60.89 34.96 137.52 37.89 137.39 41.54 60.73 38.62 60.89 34.96"/><polygon class="cls-3" points="101.86 0.03 100.97 38.3 97.31 38.2 98.24 0.03 101.86 0.03"/><polygon class="cls-3" points="515.87 179.24 603.2 167.96 629.05 160.94 630 164.47 604.09 171.49 516.32 182.86 515.87 179.24"/><polygon class="cls-3" points="525.46 227.03 604.22 215.03 604.73 218.62 526 230.62 525.46 227.03"/><polygon class="cls-3" points="569.7 244.02 614.63 238.94 615.02 242.56 570.11 247.61 569.7 244.02"/><polygon class="cls-3" points="676.4 249.74 634.2 251.58 634.04 247.96 676.24 246.12 676.4 249.74"/><polygon class="cls-3" points="618.83 142.84 677.36 109.94 677.36 114.1 620.64 146.02 618.83 142.84"/><path class="cls-3" d="M675.64,10.56,654.52,23.17s-15,7.3-20.26-2.29l3.18-1.74c3.46,6.22,14.51,1.24,15.46.79L673.77,7.45Z" transform="translate(0 115.35)"/><polygon class="cls-3" points="674.78 0.03 673.7 52.15 670.05 52.08 671.13 0.03 674.78 0.03"/><polygon class="cls-3" points="436.61 13.62 459.22 0.03 466.27 0.03 438.48 16.74 436.61 13.62"/><path class="cls-3" d="M482.27,239.59c.1.07,28.14,19.82,60.31-5l2.22,2.85c-34.26,26.49-64.47,5.24-64.56,5.18Z" transform="translate(0 115.35)"/><path class="cls-3" d="M640.83,451.38l8.93,44.43a27,27,0,0,1,17.5,18.26c2.54,8.95,6.7,25.94,9.46,37.5H673c-2.76-11.49-6.73-27.78-9.24-36.52a23.12,23.12,0,0,0-15.94-16l-1.18-.26-9.36-46.68Z" transform="translate(0 115.35)"/><polygon class="cls-3" points="659.54 666.93 646.42 613 649.95 612.18 663.29 666.93 659.54 666.93"/><path class="cls-3" d="M360-115.32,411-46c.06.07,18,26.65,34.36,24.2l.54,3.62C427.36-15.45,408.28-43.55,408-44l-52.52-71.36Z" transform="translate(0 115.35)"/><path class="cls-3" d="M372.71-80.64,400.78-35s11,18.68-1.23,29l-2.35-2.8c9.59-8.09.95-23.47.44-24.32l-28-45.64Z" transform="translate(0 115.35)"/><polygon class="cls-3" points="425.78 86.6 424.92 118.17 421.27 118.04 422.16 86.51 425.78 86.6"/><path class="cls-3" d="M387.7-94.39l9.84,9.81.23.25s6.7,9.56,18.29,2.45l1.27-.79,1,1.11S429.43-69.34,436.13-57s15.94,34.46,16,34.52l-3.36,1.37c0-.07-9.21-22.14-15.79-34.14C427.62-65,419.42-74.8,416.63-78c-12.83,6.93-20.77-2.82-21.75-4.09l-9.75-9.72Z" transform="translate(0 115.35)"/><polygon class="cls-3" points="233.23 236.65 305.51 528.12 301.99 528.98 229.71 237.51 233.23 236.65"/><polygon class="cls-3" points="233.46 313.35 286.11 533.33 290.02 549.39 197.7 589.53 196.24 586.2 285.79 547.27 282.58 534.18 229.93 314.17 233.46 313.35"/><path class="cls-3" d="M235.17,491.78s-.6-15.25,16-20l-3.27-21.88,3.59-.54,3.78,25.18-1.66.38c-15.37,3.53-14.86,16.77-14.86,16.8Z" transform="translate(0 115.35)"/><polygon class="cls-3" points="327.58 643.62 306.4 548.76 288.01 550.16 287.76 546.5 309.26 544.92 331.11 642.86 327.58 643.62"/><polygon class="cls-3" points="371.95 559.24 323.84 541.96 308.56 548.5 307.13 545.17 323.07 538.34 324.41 538.31 373.15 555.84 371.95 559.24"/><polygon class="cls-3" points="320.15 524.02 325.49 539.42 322.09 540.6 316.72 525.2 320.15 524.02"/><polygon class="cls-3" points="296.14 592.49 314.75 580.71 315.29 580.49 370.04 566.48 370.93 570.04 316.44 583.95 298.08 595.57 296.14 592.49"/><path class="cls-3" d="M200.81-115.32c4.19,63.93,7.3,108.58,4.7,172.72l-3.62-.15,2.48-61.2-7.21-111.37Z" transform="translate(0 115.35)"/><polygon class="cls-3" points="355.63 57.1 318.47 194.32 314.98 193.37 352.13 56.18 355.63 57.1"/><polygon class="cls-3" points="302.43 139.44 294.65 174.03 291.13 173.23 298.88 138.65 302.43 139.44"/><polygon class="cls-3" points="321.8 174.5 294.72 164.47 295.95 161.04 323.04 171.07 321.8 174.5"/><polygon class="cls-3" points="273.5 11.05 337.97 26.93 337.11 30.45 272.64 14.58 273.5 11.05"/><polygon class="cls-3" points="312.47 0.03 310.59 21.75 306.94 21.44 308.78 0.03 312.47 0.03"/><polygon class="cls-3" points="370.26 16.77 343.81 40.68 341.37 37.98 367.82 14.07 370.26 16.77"/><path class="cls-3" d="M383.79,14,372.74,65.25s-2.38,9.56-.28,16.1c1.43,4.38,2.6,7.81,3.27,9.72l13.14-3.91,1.05,3.49-16.45,4.93-.57-1.69s-1.52-4.12-3.87-11.43c-2.42-7.49.12-17.85.19-18.07l11-51.16Z" transform="translate(0 115.35)"/><polygon class="cls-3" points="397.7 183.68 381.35 236.11 377.89 235.03 394.21 182.6 397.7 183.68"/><path class="cls-3" d="M246.76,136l39.51-8.47c30.8-14.83,54.91-23.66,87.68-35.95L375.22,95l-58.59,22-29,14-.41.16-39.7,8.51Z" transform="translate(0 115.35)"/><path class="cls-3" d="M296.59,61.09,343,70.62s14.77,2.25,19.88,27.43l-3.55.7c-4.61-22.67-16.93-24.55-17-24.55l-46.46-9.55Z" transform="translate(0 115.35)"/><polygon class="cls-3" points="341.94 352.09 303.04 236.62 306.47 235.48 345.4 350.91 341.94 352.09"/><path class="cls-3" d="M453.79,89l-22.46,14.33-.35.15L380.27,121.9,313.71,147l-1.27-3.4c39.12-14.73,77.86-29.21,117.18-43.44L451.88,86Z" transform="translate(0 115.35)"/><polygon class="cls-3" points="344.51 219.82 355.66 244.47 355.72 244.72 372.01 299.31 368.52 300.36 352.29 245.86 341.21 221.31 344.51 219.82"/><polygon class="cls-3" points="371.38 238.84 388.81 300.9 385.32 301.85 367.85 239.83 371.38 238.84"/><polygon class="cls-3" points="405.01 135.35 406.63 180.44 406.56 180.98 391.57 232.37 385.92 251.58 399.83 284.03 396.5 285.46 382.33 252.4 382.27 251.16 388.08 231.35 402.98 180.25 401.39 135.47 405.01 135.35"/><path class="cls-3" d="M306.81,257.19l-37.28,16.73-.32.1-68,15.78.45,73.55.51.64.32-2.35,8.89,1.14,1.14.63,35.09,41.26.35.66,7.88,26.33-13.34,2.48-8.13-24.42-35.95-44.59-.38-1.11-.48-77.11,70.63-16.38,37.12-16.65ZM203.32,365.38l34.07,42.24.32.57L245,429.91l6.26-1.14-6.61-22.1-34.39-40.43Z" transform="translate(0 115.35)"/><polygon class="cls-3" points="265.82 456.47 200.18 470.42 199.44 466.86 265.06 452.92 265.82 456.47"/><polygon class="cls-3" points="257.62 422.33 199.99 434.4 199.22 430.85 256.89 418.78 257.62 422.33"/><polygon class="cls-3" points="274.68 488.45 247.68 522.27 244.82 520.02 271.82 486.2 274.68 488.45"/><path class="cls-3" d="M265.25,551.57l-.74-5.87v-.38a74,74,0,0,1,13.79-34.2l2.92,2.16a70.35,70.35,0,0,0-13.08,32.2l.76,6.09Z" transform="translate(0 115.35)"/><polygon class="cls-3" points="10.46 661.65 171.37 629.04 195.38 587 198.56 588.77 173.69 632.28 10.46 665.37 10.46 661.65"/><polygon class="cls-3" points="175.98 666.93 170.74 630.91 174.32 630.41 179.66 666.93 175.98 666.93"/><polygon class="cls-3" points="37.87 666.93 173.82 640.06 174.52 643.62 56.63 666.93 37.87 666.93"/><path class="cls-3" d="M10.46,452c7.4-2.12,19.43-5.27,35.57-8.35,2.7-.51,5.46-1,8.29-1.52,2.54-.45,5.33-.92,8.41-1.4l56.81-7.78.48,3.59L63.24,444.3c-2.67.41-5.46.89-8.32,1.4s-5.65,1-8.23,1.49c-16.83,3.24-29.09,6.48-36.26,8.57V452Z" transform="translate(0 115.35)"/><path class="cls-3" d="M47.3,439.73l4.09,27.66s.23,4.12,3.34,4.82c4.29,1,17.88,3.4,17.91,3.4h.06S78,476.91,79.56,486c0,3.4,1.84,10.58,2.29,14.49,0,0,.51,6.44-5.56,8.76-11.59,3.84-23.47,9.37-35,12.89a6.39,6.39,0,0,0-4.48,6.67c.35,6.77,1.27,13.82,1.27,13.85l-3.59.47s-1-7.24-1.27-14.13a10,10,0,0,1,7-10.29L75,505.81a5.11,5.11,0,0,0,3.24-5L76,486.57c-1.08-6.1-3.59-7.24-4-7.4s-13.52-2.38-18.07-3.43c-5.39-1.24-6-7.12-6.12-7.94l-4.1-27.57Z" transform="translate(0 115.35)"/><path class="cls-3" d="M10.46,490l16.29.35a10.16,10.16,0,0,0,7.75-7.91c1.68-8,4-24.68,4-24.74l3.62.51s-2.29,16.8-4,25a13.9,13.9,0,0,1-10.8,10.77l-.35,0-16.48-.35Z" transform="translate(0 115.35)"/><polygon class="cls-3" points="33.58 642.03 22.69 608.02 26.15 606.91 37.04 640.92 33.58 642.03"/><polygon class="cls-3" points="88.36 590.33 83.5 555.02 87.12 554.54 91.95 589.85 88.36 590.33"/><polygon class="cls-3" points="61.24 558.13 44.25 444.41 47.87 443.87 64.83 557.59 61.24 558.13"/><polygon class="cls-3" points="21.67 494.96 110.59 482.77 111.06 486.36 22.15 498.58 21.67 494.96"/><polygon class="cls-3" points="30.91 530.53 114.78 514.11 115.48 517.7 31.58 534.12 30.91 530.53"/><path class="cls-3" d="M29.86,326.42s3,2.28,16,.54l56.52-7.53.48,3.62-56.53,7.53c-14.38,1.9-18.57-1.24-18.61-1.24Z" transform="translate(0 115.35)"/><polygon class="cls-3" points="76.96 489.15 72.51 440.53 76.13 440.21 80.58 488.8 76.96 489.15"/><polygon class="cls-3" points="347.62 453.04 288.08 465.62 287.35 462.06 346.86 449.49 347.62 453.04"/><polygon class="cls-3" points="280.87 435.93 310.15 429.93 310.88 433.48 281.6 439.52 280.87 435.93"/><polygon class="cls-3" points="302.62 410.81 336.7 403.85 337.43 407.41 303.35 414.36 302.62 410.81"/><polygon class="cls-3" points="322.5 456.44 314.21 410.24 317.8 409.6 326.06 455.81 322.5 456.44"/><polygon class="cls-3" points="343.18 433.39 320.92 437.36 320.28 433.8 342.54 429.8 343.18 433.39"/><path class="cls-3" d="M159.53,213.87l16.73,64.56c0,.1,5.78,30.39-25,38.08l-48.4,6.54-.48-3.62L150.38,313c26.8-6.73,22.52-32.55,22.29-33.82L156,214.76Z" transform="translate(0 115.35)"/><polygon class="cls-3" points="116.75 335.7 142.63 452.73 206.81 524.62 207.22 525.39 225.93 600.46 222.41 601.35 203.8 526.69 139.62 454.79 139.2 453.96 113.22 336.5 116.75 335.7"/><polygon class="cls-3" points="128.44 432.94 134.44 457.71 159.18 485.18 159.5 485.66 180.96 533.45 177.63 534.95 156.29 487.4 131.42 459.81 131.01 459.01 124.91 433.8 128.44 432.94"/><polygon class="cls-3" points="114.56 514.18 145.33 504.14 156.25 485.5 159.4 487.31 148.13 506.59 147.11 507.38 115.67 517.64 114.56 514.18"/><path class="cls-3" d="M171.88,302.16s-1.68,11.52,2,22.51l21.41,64s3.78,10.32-.13,16.36c-3.53,5.43-14.26,16.07-14.26,16.1l-2.57-2.57s10.51-10.48,13.81-15.53c2.92-4.45-.25-13.15-.25-13.18l-21.41-64.06c-4-11.81-2.19-24.19-2.19-24.26Z" transform="translate(0 115.35)"/><polygon class="cls-3" points="37.13 415.76 87.98 403.66 88.8 407.22 37.99 419.29 37.13 415.76"/><polygon class="cls-3" points="194.24 313.09 181.88 277.59 168.51 255.17 168.26 254.28 166.64 200.39 170.26 200.29 171.88 253.71 185.09 275.87 185.25 276.22 197.63 311.88 194.24 313.09"/><polygon class="cls-3" points="186.65 170.79 184.81 250.94 181.19 250.88 183 170.69 186.65 170.79"/><polygon class="cls-3" points="240.25 114.96 238.16 176.06 238.09 176.44 231.26 204.48 227.74 203.66 234.54 175.74 236.63 114.86 240.25 114.96"/><path class="cls-3" d="M99.89,15,97.38,36c3.55.28,10.67,1.36,12.92,5.84,2.73,5.5,7.47,14.1,7.47,14.1l-3.21,1.69s-5.24-9.63-7.5-14.17c-2-4-11.68-3.9-11.71-3.9H93.28l3-24.9Z" transform="translate(0 115.35)"/><polygon class="cls-3" points="284.49 345.42 325.96 345.87 325.93 349.49 284.46 349.04 284.49 345.42"/><polygon class="cls-3" points="190.78 335.89 164.26 352.5 162.32 349.42 188.84 332.81 190.78 335.89"/><polygon class="cls-3" points="204.94 355.23 170.96 378.13 168.93 375.11 202.91 352.22 204.94 355.23"/><polygon class="cls-3" points="10.46 372.41 44.88 380.16 44.06 383.69 10.46 376.16 10.46 372.41"/><polygon class="cls-3" points="645.85 318.74 645.41 499.98 641.75 499.98 642.23 318.74 645.85 318.74"/><polygon class="cls-3" points="238.09 75.87 204.81 84.54 203.89 81.01 237.2 72.34 238.09 75.87"/><path class="cls-3" d="M168.51-7.79c-1.77,20.42-3.71,40.49-5.78,60.88l-2.6,32.39-3.65-.29c1.74-21.72,3.65-42.77,5.87-64.46l2.51-28.84Z" transform="translate(0 115.35)"/><path class="cls-3" d="M10.46-100.17,36.72-83.82l.19.16s12.23,10,7.94,33.95l-3.59-.64C45-71,35.77-79.85,34.72-80.8L10.46-95.89Z" transform="translate(0 115.35)"/><path class="cls-3" d="M298.3-29.9s6.2,6,13.6,1.88l38.29-35.66L352.67-61,314.21-25.23l-.31.26c-9.85,5.71-18.14-2.32-18.17-2.35Z" transform="translate(0 115.35)"/><polygon class="cls-3" points="426 160.85 421.97 130.58 425.55 130.11 429.62 160.34 426 160.85"/><polygon class="cls-3" points="193.25 247.67 207.73 277.59 242.82 280.41 242.54 284.07 205.38 281.05 189.98 249.23 193.25 247.67"/><path class="cls-3" d="M339.81-115.32l-.29,20.7h0s0,5.5,4.58,14C349-71.4,377.86-30.15,377.92-30l.16.22s6.76,11.81,23.53,20c17.56,8.57,55.61,20,55.73,20.07l.16.06s10,3.68,12.64,18.51c1.49,9.31,6.16,32.24,6.16,40.27,0,0,1.3,9.91-7.4,14.26L456.23,89.1l-.48.16s-1.58.47-.28,6.79l43.47,96.7-6.63,3L448.67,98.63l-.25-.7c-2.48-11.31,3.14-14.74,4.79-15.47l12.55-5.72c3.65-1.9,3.36-6.09,3.3-6.66l-6.06-40c-1.85-10.32-7.47-12.73-7.85-12.89-2.7-.83-39.35-12-56.68-20.45-18.3-8.93-26.17-22.14-26.59-22.84-2.12-3-29.27-42-34.13-51.06-5.47-10.16-5.47-17.44-5.47-17.44v0l.29-20.64h7.24Z" transform="translate(0 115.35)"/><path class="cls-3" d="M503.14,188.85a19.84,19.84,0,1,1-14,5.81A19.74,19.74,0,0,1,503.14,188.85Zm8.86,11a12.58,12.58,0,1,0,3.65,8.86A12.53,12.53,0,0,0,512,199.8Z" transform="translate(0 115.35)"/><path class="cls-3" d="M511.36,222.51c.06.13,18.77,38.93,32,67.39l4.76,10.38c1.59,3.49,3,6.67,4.23,9.31h0l3.27,7.46c9.59,22.86,27.88,85.9,27.91,86.09l.07.16,35.18,148.27h-7.49L576.46,405c-1-3.55-18.35-63.07-27.59-85.1-1.08-2.58-2.13-5-3.18-7.34-1.33-3-2.73-6.07-4.19-9.24L536.7,293c-14.1-30.43-31.88-67.2-31.94-67.33Z" transform="translate(0 115.35)"/><path class="cls-3" d="M541.72,286.59c0,.16,12.07,49.83,18.39,82,6.29,31.82,35.06,84.51,35.15,84.66l-6.38,3.47c-.1-.16-29.44-53.83-35.92-86.73-6.41-32.55-18.29-81.55-18.32-81.68Z" transform="translate(0 115.35)"/><polygon class="cls-3" points="515.93 311.82 677.36 271.78 677.36 279.27 517.65 318.87 515.93 311.82"/><polygon class="cls-3" points="677.36 298.99 520.51 332.15 519.01 325 677.36 291.53 677.36 298.99"/><path class="cls-3" d="M637.37-115.32,612.19-17.95l-.13.34S606.25-2.74,626.89,35c13.31,24.33,35.48,64.69,50.43,91.91v15c-14.26-25.88-41.47-75.39-56.81-103.49C599.77.5,604.44-17.61,605.17-19.92l24.71-95.4Z" transform="translate(0 115.35)"/><polygon class="cls-3" points="677.36 123.57 644.52 185.87 638.07 182.47 677.36 108 677.36 123.57"/><path class="cls-3" d="M344.29,15.9A2.42,2.42,0,1,1,349,14.6a2.42,2.42,0,1,1-4.67,1.3Z" transform="translate(0 115.35)"/><path class="cls-3" d="M339,22.85a3.6,3.6,0,1,1,4.42,2.51A3.61,3.61,0,0,1,339,22.85Z" transform="translate(0 115.35)"/><path class="cls-3" d="M348.58,22.85A2.29,2.29,0,0,1,353,21.61a2.29,2.29,0,1,1-4.41,1.24Z" transform="translate(0 115.35)"/><path class="cls-3" d="M347,33.49a2.43,2.43,0,1,1,4.67-1.33A2.43,2.43,0,0,1,347,33.49Z" transform="translate(0 115.35)"/><path class="cls-3" d="M336.54,31.4a2.43,2.43,0,0,1,1.68-3,2.46,2.46,0,0,1,3,1.68,2.44,2.44,0,0,1-4.7,1.31Z" transform="translate(0 115.35)"/><path class="cls-3" d="M342.67,9.77a2.43,2.43,0,0,1,1.68-3,2.46,2.46,0,0,1,3,1.69,2.42,2.42,0,0,1-1.68,3A2.45,2.45,0,0,1,342.67,9.77Z" transform="translate(0 115.35)"/><path class="cls-3" d="M341.62,43.34A3.6,3.6,0,1,1,346,45.81,3.56,3.56,0,0,1,341.62,43.34Z" transform="translate(0 115.35)"/><path class="cls-3" d="M332.63,45.78a2.3,2.3,0,1,1,2.83,1.59A2.33,2.33,0,0,1,332.63,45.78Z" transform="translate(0 115.35)"/><path class="cls-3" d="M212,496.92a2.44,2.44,0,1,1-1.08,3.27A2.43,2.43,0,0,1,212,496.92Z" transform="translate(0 115.35)"/><path class="cls-3" d="M208.53,487.43a3.59,3.59,0,1,1-1.59,4.82A3.56,3.56,0,0,1,208.53,487.43Z" transform="translate(0 115.35)"/><path class="cls-3" d="M208,503.81a2.29,2.29,0,1,1-1,3.08A2.28,2.28,0,0,1,208,503.81Z" transform="translate(0 115.35)"/><path class="cls-3" d="M199,502.86a2.43,2.43,0,0,1,3.27,1.08,2.39,2.39,0,0,1-1.08,3.24,2.44,2.44,0,0,1-3.27-1.08A2.39,2.39,0,0,1,199,502.86Z" transform="translate(0 115.35)"/><path class="cls-3" d="M199,492.19a2.44,2.44,0,0,1,2.19,4.35,2.39,2.39,0,0,1-3.24-1.08A2.43,2.43,0,0,1,199,492.19Z" transform="translate(0 115.35)"/><path class="cls-3" d="M221.45,494.09a2.41,2.41,0,1,1-1.08,3.24A2.44,2.44,0,0,1,221.45,494.09Z" transform="translate(0 115.35)"/><path class="cls-3" d="M190.39,497.33a3.6,3.6,0,1,1-1.58,4.83A3.62,3.62,0,0,1,190.39,497.33Z" transform="translate(0 115.35)"/><path class="cls-3" d="M198.56,481.71a2.26,2.26,0,0,1,3,1,2.28,2.28,0,0,1-1,3.08,2.29,2.29,0,1,1-2-4.1Z" transform="translate(0 115.35)"/><path class="cls-3" d="M234.35,240a4.32,4.32,0,0,1-6,.6,4.28,4.28,0,1,1,6-.6Z" transform="translate(0 115.35)"/><path class="cls-3" d="M235.2,249.06a2.23,2.23,0,0,1-3.14.32,2.27,2.27,0,0,1-.32-3.18,2.24,2.24,0,0,1,3.15-.32A2.27,2.27,0,0,1,235.2,249.06Z" transform="translate(0 115.35)"/><path class="cls-3" d="M238.09,259.54a3.53,3.53,0,1,1-.47-5A3.54,3.54,0,0,1,238.09,259.54Z" transform="translate(0 115.35)"/><path class="cls-3" d="M240.57,267.89a3.43,3.43,0,1,1-.48-4.83A3.44,3.44,0,0,1,240.57,267.89Z" transform="translate(0 115.35)"/><path class="cls-3" d="M230.47,227.84a2.23,2.23,0,1,1-.32-3.14A2.25,2.25,0,0,1,230.47,227.84Z" transform="translate(0 115.35)"/><path class="cls-3" d="M561.92,95.2a4.27,4.27,0,1,1-6,.38A4.26,4.26,0,0,1,561.92,95.2Z" transform="translate(0 115.35)"/><path class="cls-3" d="M571,94.69a2.25,2.25,0,0,1-3,3.36,2.21,2.21,0,0,1-.19-3.17A2.25,2.25,0,0,1,571,94.69Z" transform="translate(0 115.35)"/><path class="cls-3" d="M581.61,92.15a3.53,3.53,0,1,1-5,.31A3.55,3.55,0,0,1,581.61,92.15Z" transform="translate(0 115.35)"/><path class="cls-3" d="M590.09,90a3.46,3.46,0,0,1,.31,4.86,3.44,3.44,0,1,1-.31-4.86Z" transform="translate(0 115.35)"/><path class="cls-3" d="M549.69,98.63a2.22,2.22,0,0,1,.19,3.17,2.25,2.25,0,1,1-.19-3.17Z" transform="translate(0 115.35)"/><path class="cls-3" d="M121.93-64.13a2.42,2.42,0,0,1,1.68-3,2.41,2.41,0,0,1,3,1.68,2.48,2.48,0,0,1-1.68,3A2.44,2.44,0,0,1,121.93-64.13Z" transform="translate(0 115.35)"/><path class="cls-3" d="M113.13-56.19a3.61,3.61,0,0,1,2.48-4.45,3.61,3.61,0,0,1,4.44,2.48,3.6,3.6,0,0,1-2.51,4.45A3.58,3.58,0,0,1,113.13-56.19Z" transform="translate(0 115.35)"/><path class="cls-3" d="M127.2-69.27a2.28,2.28,0,0,1,1.59-2.83,2.28,2.28,0,0,1,2.82,1.59A2.32,2.32,0,0,1,130-67.69,2.3,2.3,0,0,1,127.2-69.27Z" transform="translate(0 115.35)"/><path class="cls-3" d="M124.63-46.54a2.42,2.42,0,0,1,1.68-3,2.42,2.42,0,0,1,3,1.68,2.46,2.46,0,0,1-1.68,3A2.41,2.41,0,0,1,124.63-46.54Z" transform="translate(0 115.35)"/><path class="cls-3" d="M114.18-48.63a2.43,2.43,0,0,1,1.68-3,2.44,2.44,0,0,1,3,1.69,2.42,2.42,0,0,1-1.69,3A2.45,2.45,0,0,1,114.18-48.63Z" transform="translate(0 115.35)"/><path class="cls-3" d="M120.27-70.29a2.49,2.49,0,0,1,1.69-3,2.46,2.46,0,0,1,3,1.69,2.42,2.42,0,0,1-1.68,3A2.4,2.4,0,0,1,120.27-70.29Z" transform="translate(0 115.35)"/><path class="cls-3" d="M124.59-55.49a3.62,3.62,0,0,1,2.48-4.45,3.6,3.6,0,0,1,4.45,2.51A3.6,3.6,0,0,1,129-53,3.63,3.63,0,0,1,124.59-55.49Z" transform="translate(0 115.35)"/><path class="cls-3" d="M112.27-66.19A2.33,2.33,0,0,1,113.86-69a2.28,2.28,0,0,1,2.83,1.59,2.25,2.25,0,0,1-1.59,2.82A2.29,2.29,0,0,1,112.27-66.19Z" transform="translate(0 115.35)"/><path class="cls-3" d="M218.18,259a2.45,2.45,0,0,1,.35-3.4,2.44,2.44,0,1,1-.35,3.4Z" transform="translate(0 115.35)"/><path class="cls-3" d="M213.23,269.76a3.61,3.61,0,1,1,5.08.51A3.59,3.59,0,0,1,213.23,269.76Z" transform="translate(0 115.35)"/><path class="cls-3" d="M225.17,254.68a2.28,2.28,0,1,1,3.21.35A2.27,2.27,0,0,1,225.17,254.68Z" transform="translate(0 115.35)"/><path class="cls-3" d="M227.58,274.11a2.45,2.45,0,0,1,.35-3.43,2.43,2.43,0,0,1,3.4.39,2.4,2.4,0,0,1-.35,3.39A2.45,2.45,0,0,1,227.58,274.11Z" transform="translate(0 115.35)"/><path class="cls-3" d="M217.13,276.27a2.43,2.43,0,1,1,3.43.35A2.4,2.4,0,0,1,217.13,276.27Z" transform="translate(0 115.35)"/><path class="cls-3" d="M214.24,254a2.43,2.43,0,0,1,3.78-3,2.43,2.43,0,0,1-3.78,3Z" transform="translate(0 115.35)"/><path class="cls-3" d="M224,265.89a3.56,3.56,0,0,1,.54-5.05,3.6,3.6,0,0,1,5.09.54,3.61,3.61,0,1,1-5.63,4.51Z" transform="translate(0 115.35)"/><path class="cls-3" d="M208.53,260.9a2.27,2.27,0,1,1,3.17.35A2.22,2.22,0,0,1,208.53,260.9Z" transform="translate(0 115.35)"/><path class="cls-3" d="M563.06,72a4.26,4.26,0,1,1,6,0A4.26,4.26,0,0,1,563.06,72Z" transform="translate(0 115.35)"/><path class="cls-3" d="M554,71.89a2.28,2.28,0,0,1,0-3.18,2.24,2.24,0,0,1,3.17,0,2.28,2.28,0,0,1,0,3.18A2.22,2.22,0,0,1,554,71.89Z" transform="translate(0 115.35)"/><path class="cls-3" d="M543.21,73.73a3.57,3.57,0,0,1,0-5,3.52,3.52,0,0,1,5,0,3.54,3.54,0,0,1-5,5Z" transform="translate(0 115.35)"/><path class="cls-3" d="M534.61,75.32a3.44,3.44,0,1,1,4.86,0A3.44,3.44,0,0,1,534.61,75.32Z" transform="translate(0 115.35)"/><path class="cls-3" d="M575.51,69.38a2.25,2.25,0,1,1,3.18,0A2.28,2.28,0,0,1,575.51,69.38Z" transform="translate(0 115.35)"/><path class="cls-3" d="M332.41,234.45a4.29,4.29,0,1,1,1,6A4.31,4.31,0,0,1,332.41,234.45Z" transform="translate(0 115.35)"/><path class="cls-3" d="M330.85,225.49a2.29,2.29,0,0,1,3.15-.57,2.2,2.2,0,0,1,.54,3.11,2.24,2.24,0,1,1-3.69-2.54Z" transform="translate(0 115.35)"/><path class="cls-3" d="M327.17,215.24a3.54,3.54,0,1,1,.89,4.89A3.52,3.52,0,0,1,327.17,215.24Z" transform="translate(0 115.35)"/><path class="cls-3" d="M324.09,207.08a3.42,3.42,0,1,1,.83,4.76A3.41,3.41,0,0,1,324.09,207.08Z" transform="translate(0 115.35)"/><path class="cls-3" d="M337.17,246.26a2.24,2.24,0,1,1,.54,3.12A2.3,2.3,0,0,1,337.17,246.26Z" transform="translate(0 115.35)"/><path class="cls-3" d="M345,286.63a4.26,4.26,0,1,1,.09,6A4.23,4.23,0,0,1,345,286.63Z" transform="translate(0 115.35)"/><path class="cls-3" d="M344.92,277.51a2.25,2.25,0,0,1,3.24,3.11,2.25,2.25,0,0,1-3.24-3.11Z" transform="translate(0 115.35)"/><path class="cls-3" d="M342.89,266.81a3.54,3.54,0,1,1,.1,5A3.53,3.53,0,0,1,342.89,266.81Z" transform="translate(0 115.35)"/><path class="cls-3" d="M341.14,258.27a3.44,3.44,0,1,1,.07,4.89A3.46,3.46,0,0,1,341.14,258.27Z" transform="translate(0 115.35)"/><path class="cls-3" d="M347.88,299a2.24,2.24,0,0,1,3.17-.06,2.22,2.22,0,0,1,0,3.17,2.23,2.23,0,1,1-3.2-3.11Z" transform="translate(0 115.35)"/><path class="cls-3" d="M360.17,325.88a4.28,4.28,0,1,1-.42-6A4.28,4.28,0,0,1,360.17,325.88Z" transform="translate(0 115.35)"/><path class="cls-3" d="M360.74,335a2.28,2.28,0,0,1-3.18.22,2.25,2.25,0,1,1,3.18-.22Z" transform="translate(0 115.35)"/><path class="cls-3" d="M363.34,345.57a3.53,3.53,0,1,1-.35-5A3.55,3.55,0,0,1,363.34,345.57Z" transform="translate(0 115.35)"/><path class="cls-3" d="M365.57,354a3.44,3.44,0,1,1-.32-4.85A3.49,3.49,0,0,1,365.57,354Z" transform="translate(0 115.35)"/><path class="cls-3" d="M356.64,313.68a2.23,2.23,0,1,1-3.36-2.92,2.22,2.22,0,0,1,3.17-.22A2.18,2.18,0,0,1,356.64,313.68Z" transform="translate(0 115.35)"/><path class="cls-3" d="M178,478a2.43,2.43,0,1,1-3.24-1.11A2.44,2.44,0,0,1,178,478Z" transform="translate(0 115.35)"/><path class="cls-3" d="M187.44,474.56a3.6,3.6,0,1,1-4.83-1.65A3.6,3.6,0,0,1,187.44,474.56Z" transform="translate(0 115.35)"/><path class="cls-3" d="M171.09,473.9a2.28,2.28,0,1,1-3.05-1A2.26,2.26,0,0,1,171.09,473.9Z" transform="translate(0 115.35)"/><path class="cls-3" d="M172.1,464.91a2.42,2.42,0,1,1-3.24-1.11A2.42,2.42,0,0,1,172.1,464.91Z" transform="translate(0 115.35)"/><path class="cls-3" d="M182.77,465.07a2.44,2.44,0,1,1-4.38,2.16,2.44,2.44,0,0,1,4.38-2.16Z" transform="translate(0 115.35)"/><path class="cls-3" d="M180.71,487.46a2.42,2.42,0,1,1-4.35,2.12,2.42,2.42,0,0,1,4.35-2.12Z" transform="translate(0 115.35)"/><path class="cls-3" d="M177.66,456.4a3.6,3.6,0,1,1-4.83-1.62A3.6,3.6,0,0,1,177.66,456.4Z" transform="translate(0 115.35)"/><path class="cls-3" d="M186.3,458.84a2.29,2.29,0,1,1-3.08-1A2.28,2.28,0,0,1,186.3,458.84Z" transform="translate(0 115.35)"/><path class="cls-3" d="M662.4-27.29a2.41,2.41,0,0,1,.35-3.4,2.44,2.44,0,0,1,3.39.35,2.39,2.39,0,0,1-.34,3.4A2.39,2.39,0,0,1,662.4-27.29Z" transform="translate(0 115.35)"/><path class="cls-3" d="M661.16-17.92A3.59,3.59,0,0,1,661.7-23a3.62,3.62,0,0,1,5.08.54,3.58,3.58,0,0,1-.54,5.05A3.56,3.56,0,0,1,661.16-17.92Z" transform="translate(0 115.35)"/><path class="cls-3" d="M669.38-31.58a2.29,2.29,0,0,1,.35-3.21,2.31,2.31,0,0,1,3.21.32,2.28,2.28,0,0,1-.35,3.21A2.31,2.31,0,0,1,669.38-31.58Z" transform="translate(0 115.35)"/><path class="cls-3" d="M669.76-7.79a2.46,2.46,0,0,1,.35-3.4,2.44,2.44,0,0,1,3.4.35,2.42,2.42,0,0,1-.35,3.43A2.43,2.43,0,0,1,669.76-7.79Z" transform="translate(0 115.35)"/><path class="cls-3" d="M661.35-10a2.43,2.43,0,0,1,.35-3.39,2.42,2.42,0,0,1,3.43.35,2.41,2.41,0,0,1-.38,3.39A2.39,2.39,0,0,1,661.35-10Z" transform="translate(0 115.35)"/><path class="cls-3" d="M658.49-32.31a2.41,2.41,0,0,1,.35-3.4,2.39,2.39,0,0,1,3.4.35,2.41,2.41,0,0,1-.35,3.4A2.39,2.39,0,0,1,658.49-32.31Z" transform="translate(0 115.35)"/><path class="cls-3" d="M670.91-18.91a3.59,3.59,0,0,1,.54-5.08,3.6,3.6,0,0,1,5.08.54,3.62,3.62,0,0,1-.54,5.08A3.67,3.67,0,0,1,670.91-18.91Z" transform="translate(0 115.35)"/><path class="cls-3" d="M652.71-25.39a2.27,2.27,0,0,1,.35-3.2,2.27,2.27,0,0,1,3.21.35,2.27,2.27,0,0,1-.35,3.2A2.27,2.27,0,0,1,652.71-25.39Z" transform="translate(0 115.35)"/><path class="cls-3" d="M658.27-1.47a3.55,3.55,0,0,1,.54-5,3.59,3.59,0,0,1,5.08.54,3.66,3.66,0,0,1-.54,5.08A3.68,3.68,0,0,1,658.27-1.47Z" transform="translate(0 115.35)"/><path class="cls-3" d="M669.29-40.15a2.44,2.44,0,0,1,.35-3.4,2.48,2.48,0,0,1,3.43.35,2.5,2.5,0,0,1-.35,3.43A2.46,2.46,0,0,1,669.29-40.15Z" transform="translate(0 115.35)"/><path class="cls-3" d="M231.65,539.09c-35.73,16-51.29-12.89-33-21,14.52-6.38,22,4.23,31.7-.57C248.6,508.48,262.45,525.34,231.65,539.09Z" transform="translate(0 115.35)"/><path class="cls-3" d="M167.59-22.62c-26.9-15.72-16.32-34.94-.41-35.86,8.35-.47,30.23,12.2,22.93,32.65C188.58-21.61,180.3-15.19,167.59-22.62Z" transform="translate(0 115.35)"/><polygon class="cls-3" points="654.15 493.55 670.06 493.74 670.22 440.29 653.61 440.36 654.15 493.55"/><polygon class="cls-3" points="68.04 539.76 66.93 534.87 71.85 533.75 72.97 538.68 68.04 539.76"/><polygon class="cls-3" points="67.28 548.14 65.03 537.95 75.19 535.69 77.44 545.85 67.28 548.14"/><polygon class="cls-3" points="78.87 545.7 76.59 535.5 86.78 533.25 89.03 543.41 78.87 545.7"/><polygon class="cls-3" points="90.46 543.25 88.18 533.09 98.34 530.8 100.63 541 90.46 543.25"/><polygon class="cls-3" points="102.78 532.45 101.7 527.53 106.6 526.45 107.71 531.34 102.78 532.45"/><polygon class="cls-3" points="102.02 540.8 99.77 530.64 109.93 528.36 112.22 538.52 102.02 540.8"/><path class="cls-3" d="M131.08,240.82l22.61-3.66L155,245.1l-22.61,3.66Zm4.8,37.28,22.61-3.65,1.27,7.94L137.15,286Zm.12-13.24,22.61-3.66,1.27,7.94-22.61,3.66Zm-2.51-12.48,22.61-3.66,1.28,7.94-22.62,3.66Z" transform="translate(0 115.35)"/><path class="cls-3" d="M142.74,189.94,133.46,193l-3.05-9.27,9.31-3.05Zm-30.49,9.78-9.78-.31.28-9.79,9.78.32Zm-9-19,3.94-33.63,11.72,1.4-4,33.63ZM135,167.3l-9.3,3L122.6,161l9.27-3Zm3.91,11.31-9.3,3-3-9.27,9.3-3Z" transform="translate(0 115.35)"/><path class="cls-3" d="M401.08,298.27l-2.38-14.36-22.77,2.48,1.55,14.45Zm-1.4,34L398.31,324l-13.14,1.43.92,8.35ZM396,321.7l-1.37-8.29-13.15,1.43.92,8.32Zm-3.69-10.61L391,302.81l-13.15,1.43.92,8.32Z" transform="translate(0 115.35)"/><path class="cls-3" d="M598.1,271.49V253.23h11.21v18.26Zm-.35-44.84,7.84-9.14,7.91,7.08-7.84,9.15Zm3.84,23.82v-15h15v15Z" transform="translate(0 115.35)"/><polygon class="cls-3" points="259.95 304.69 247.31 268.11 260.01 263.69 272.68 300.28 259.95 304.69"/><polygon class="cls-3" points="281.1 282.18 270.72 278.05 274.88 267.66 285.26 271.79 281.1 282.18"/><path class="cls-3" d="M232.35-69.7l10.26-10.51L237-85.74,223.43-71.86,222-70.37l10.16.92Zm19.28,2,10.16.92,8.48-8.67L264.62-81Zm-33.09-4.35L228.8-82.6l-5.66-5.55L209.62-74.28l-2.45,2.51.06.07,10,.89Zm37.88-5.78-5.65-5.53L237.24-69.51l-.44.44,10.16.92Z" transform="translate(0 115.35)"/><path class="cls-3" d="M102.12,124.9l2.06-15.81-12.7-1.65-2.06,15.81Zm33.72,4.42,2.07-15.82-12.7-1.65-2.07,15.82ZM119,127.1l2.07-15.82-12.71-1.68-2.06,15.81Z" transform="translate(0 115.35)"/><path class="cls-3" d="M541.63-95l14.71-6.23-5-11.81-14.67,6.22Zm13.28,31.31L569.61-70l-5-11.81-14.67,6.22ZM548.3-79.36,563-85.58l-5-11.78-14.7,6.22Z" transform="translate(0 115.35)"/><path class="cls-3" d="M376.21,513.93l15.94.38.32-12.8-15.94-.38Zm-.82,34,15.94.38.32-12.8-16-.41Zm.41-17,15.94.38.32-12.83-16-.38Z" transform="translate(0 115.35)"/><path class="cls-3" d="M484.15,278.48l15.91-1.24,1.24,15.91-15.91,1.24Zm25-6.07L519.56,280l-6.89,9-10.35-7.59Z" transform="translate(0 115.35)"/><path class="cls-3" d="M188.18,15,198.5,16.1l1.33-12.86L189.51,2.16Zm-17.75-1.88,10.32,1.08,1.33-12.86L171.76.29Z" transform="translate(0 115.35)"/><path class="cls-3" d="M113.58,519.07l10.23-1.84-2.26-12.74-10.22,1.81ZM96,522.21l10.22-1.81-2.28-12.73L93.7,509.48Z" transform="translate(0 115.35)"/><path class="cls-3" d="M25.23-101.24,26.09-114l-10.29-.7L15-101.94ZM52.55-99.4l.85-12.82-10.29-.7-.85,12.83Zm-13.66-.92.86-12.83-10.29-.69L28.6-101Z" transform="translate(0 115.35)"/><polygon class="cls-3" points="222.6 455.6 219.59 440.9 207.77 443.31 210.79 458.01 222.6 455.6"/><polygon class="cls-3" points="238.29 452.39 235.28 437.69 223.46 440.1 226.48 454.81 238.29 452.39"/><polygon class="cls-3" points="253.98 449.19 250.96 434.48 239.12 436.9 242.13 451.6 253.98 449.19"/><polygon class="cls-3" points="302.19 481.7 316.73 478.02 313.81 466.33 299.23 469.99 302.19 481.7"/><polygon class="cls-3" points="306.06 497.23 320.64 493.55 317.68 481.86 303.14 485.52 306.06 497.23"/><polygon class="cls-3" points="309.97 512.73 324.54 509.08 321.59 497.39 307.01 501.05 309.97 512.73"/><polygon class="cls-3" points="191.8 229.01 209.81 229.01 209.81 206.56 191.8 206.56 191.8 229.01"/><polygon class="cls-3" points="101.96 406.92 119.78 404.06 116.19 381.89 98.4 384.75 101.96 406.92"/><path class="cls-3" d="M428.42,85l-5.14-17.92L408.92,71.2,414,89.08Zm38.11-10.93-5.11-17.88-14.36,4.13,5.11,17.88Zm-19,5.46-5.12-17.88L428,65.77l5.14,17.88Z" transform="translate(0 115.35)"/></g><path class="cls-4" d="M.6,47.52V507.33a26.07,26.07,0,0,0,26.05,26.05h620.1a26.08,26.08,0,0,0,26.06-26.05V47.52a26.08,26.08,0,0,0-26.06-26.05H26.65A26.07,26.07,0,0,0,.6,47.52Zm18.62,0a7.44,7.44,0,0,1,7.43-7.44h620.1a7.45,7.45,0,0,1,7.44,7.44V507.33a7.45,7.45,0,0,1-7.44,7.44H26.65a7.44,7.44,0,0,1-7.43-7.44Z" transform="translate(0 115.35)"/><path class="cls-5" d="M1.17,30.73a28.32,28.32,0,0,0-.54,3.46A34.23,34.23,0,0,1,1.17,30.73Zm670.2,484.44c0-.09.12-.16.19-.26-.07.1-.14.17-.21.26s-.31.38-.47.57ZM667,519.41a33.9,33.9,0,0,1-3.29,2.23A28.77,28.77,0,0,0,667,519.41Zm-8.21,4.52c.45-.17.87-.31,1.27-.5-.42.17-.85.33-1.27.47a3.24,3.24,0,0,1-.64.22C658.37,524.07,658.59,524,658.8,523.93Zm0,0c.45-.17.87-.31,1.27-.5-.42.17-.85.33-1.27.47a3.24,3.24,0,0,1-.64.22C658.37,524.07,658.59,524,658.8,523.93ZM1.17,30.73a28.32,28.32,0,0,0-.54,3.46A34.23,34.23,0,0,1,1.17,30.73Zm670.2,484.44c0-.09.12-.16.19-.26-.07.1-.14.17-.21.26s-.31.38-.47.57ZM667,519.41a33.9,33.9,0,0,1-3.29,2.23A28.77,28.77,0,0,0,667,519.41Z" transform="translate(0 115.35)"/><path class="cls-4" d="M517.84,16.3l-18.07,3.53H144.27a9.64,9.64,0,0,1-9.59-10.21,9.86,9.86,0,0,1,10-9H499.77l18.07,3.56.78.14L536.8,7.87a2.4,2.4,0,0,1,0,4.71l-18.18,3.56Z" transform="translate(0 115.35)"/><path class="cls-6" d="M335.81,504.6q-31.18,0-62.36,0c-4.07,0-8.87.38-8.54-4.55.29-4.4,4.85-3.86,8.54-3.86q63.23,0,126.45,0c4.39,0,10-.14,9.69,4.55-.24,3.94-5.52,3.9-9.69,3.9Q367.85,504.56,335.81,504.6Z" transform="translate(0 115.35)"/><path class="cls-6" d="M660.42,276.74q0-14.83,0-29.68c0-1.94-.23-4.22,2.68-4.07,2.58.14,2.27,2.31,2.27,4.07q0,30.09,0,60.19c0,2.09.08,4.74-2.68,4.61-2.31-.11-2.29-2.63-2.29-4.61Q660.44,292,660.42,276.74Z" transform="translate(0 115.35)"/><circle class="cls-6" cx="665.9" cy="392.78" r="2"/><rect class="cls-7" x="230.37" y="187.38" width="258.47" height="36.21" rx="8"/><path class="cls-8" d="M464.86,80.41a.73.73,0,0,1,.73.73v8.75a.73.73,0,0,1-.73.73h-3.11a.73.73,0,0,1-.73-.73V81.14a.73.73,0,0,1,.73-.73h3.11m0-.5h-3.11a1.23,1.23,0,0,0-1.23,1.23v8.75a1.23,1.23,0,0,0,1.23,1.23h3.11a1.23,1.23,0,0,0,1.23-1.23V81.14a1.23,1.23,0,0,0-1.23-1.23Z" transform="translate(0 115.35)"/><path class="cls-9" d="M457.81,85.94v1.67a5.49,5.49,0,0,0,5.49,5.5h0v5.71" transform="translate(0 115.35)"/><path class="cls-9" d="M468.8,85.94v1.67a5.5,5.5,0,0,1-5.5,5.5h0" transform="translate(0 115.35)"/><line class="cls-9" x1="459.54" y1="214.18" x2="467.15" y2="214.18"/><circle class="cls-10" cx="388.66" cy="398.7" r="58.94"/><path class="cls-11" d="M387.1,243.07a20.46,20.46,0,0,0-20.46,20.46c0,16.77,20.46,35,20.46,35s20.46-18.2,20.46-35A20.46,20.46,0,0,0,387.1,243.07Zm0,30.63a10.17,10.17,0,1,1,10.17-10.17A10.17,10.17,0,0,1,387.1,273.7Z" transform="translate(0 115.35)"/></g></g></svg>