<svg xmlns="http://www.w3.org/2000/svg" xmlns:xlink="http://www.w3.org/1999/xlink" viewBox="0 0 312.95 598.96"><defs><style>.cls-1{fill:#777;}.cls-2{fill:#f6f6f6;}.cls-3{fill:#e8e8e8;}.cls-4{fill:url(#linear-gradient);}.cls-5{fill:url(#linear-gradient-2);}.cls-6{fill:url(#linear-gradient-3);}.cls-7{fill:url(#linear-gradient-4);}.cls-8{fill:url(#linear-gradient-5);}.cls-9{fill:#fff;}</style><linearGradient id="linear-gradient" x1="90.51" y1="118" x2="281.29" y2="118" gradientUnits="userSpaceOnUse"><stop offset="0" stop-color="#00ffaf"/><stop offset="0.06" stop-color="#00edad"/><stop offset="0.32" stop-color="#00a6a7"/><stop offset="0.55" stop-color="#006ea2"/><stop offset="0.75" stop-color="#00469f"/><stop offset="0.91" stop-color="#002d9d"/><stop offset="1" stop-color="#00249c"/></linearGradient><linearGradient id="linear-gradient-2" x1="107.94" y1="175.63" x2="262.26" y2="175.63" xlink:href="#linear-gradient"/><linearGradient id="linear-gradient-3" x1="107.94" y1="185.26" x2="262.26" y2="185.26" xlink:href="#linear-gradient"/><linearGradient id="linear-gradient-4" x1="107.94" y1="194.89" x2="262.26" y2="194.89" xlink:href="#linear-gradient"/><linearGradient id="linear-gradient-5" x1="127.43" y1="203.61" x2="242.77" y2="203.61" xlink:href="#linear-gradient"/></defs><g id="Layer_2" data-name="Layer 2"><g id="Layer_1-2" data-name="Layer 1"><path class="cls-1" d="M2.45,299.62q0,123.92,0,247.82c0,7.93.19,15.84,4,23.2,8.88,17,22.7,26,42,26,72,.06,144-.05,216,.07,21.36,0,38-14.41,43.83-32.92a52.93,52.93,0,0,0,2.29-15.93q0-53.46,0-106.92c0-1.16-.05-2.33,0-3.49.05-.91-.25-2.21,1.31-2.08,1.12.1,1,1.15,1,1.94,0,1,0,2,0,3,0,36.3.07,72.61,0,108.92,0,12.24-3.24,23.34-11.6,32.91C291.45,593.38,279.43,599,264.51,599q-108-.09-215.95,0c-10,0-19.81-1.15-27.93-7.42C7.31,581.22-.72,568,.05,550.52c.07-1.5,0-3,0-4.5q0-247.56,0-495.14c0-9.24.59-18.42,5.28-26.61,8-14,20.15-22.07,36.3-23.82A77.4,77.4,0,0,1,50.1.06q106.49,0,213-.06c20.9,0,36,9.18,45.4,27.64,3.45,6.75,4.43,14.19,4.43,21.66q.09,184.37,0,368.73c0,.67.05,1.34,0,2-.1,1.07.35,2.77-1.35,2.64s-.91-1.84-1-2.88,0-2.33,0-3.5q0-182.12,0-364.23c0-13.52-3.28-25.94-13-35.88C291.42,10,283.81,6.42,275.5,4c-6.85-2-13.77-1.7-20.71-1.7q-102.22,0-204.46,0c-11.12,0-21.53,2.53-30.47,9.39C7.39,21.28,2.31,34.27,2.4,49.8c.18,28.48.05,57,.05,85.44Z"/><path class="cls-1" d="M16,119.22c2.06,1.72,1.06,4.06,1.06,6.07q.08,211.59,0,423.17c0,13.27,4.68,23.64,16.72,30,4.82,2.56,10.1,3.32,15.48,3.32q107.22,0,214.45,0c19.49,0,31.63-12.32,31.79-32,.13-16.82,0-33.64,0-50.46q0-224.08.13-448.17c0-13.2-4.38-23.11-15.55-30.12a26.38,26.38,0,0,0-14.25-3.9c-12.33-.08-24.66-.12-37,0-6.74.06-9.55,2.65-10.82,9.34C216,37.58,209.63,43,198.42,43q-42,.09-84,0C103.1,43,97.08,37.8,94.92,26.51,93.69,20.07,90.6,17.19,84,17.12c-12.33-.14-24.67-.35-37,.07-17.85.59-29.76,13.29-29.86,31.46-.12,20.32,0,40.64-.07,61,0,1.87.9,4-1.08,5.58a2.8,2.8,0,0,1-1.1-2.63c.1-23.14-.22-46.3.42-69.43a28.84,28.84,0,0,1,26.42-27.8,267.59,267.59,0,0,1,45.38.08,10.46,10.46,0,0,1,9.69,9.47c1.06,11.06,9.46,16.05,19,15.94,27-.31,54-.1,81-.11,11.51,0,15.9-3.73,18.31-15.4,1.3-6.27,5.43-10.33,12.28-10.4,14.3-.16,28.63-.9,42.93.46C286,16.87,296.4,30.3,297.77,44.15a59.74,59.74,0,0,1,.16,6q0,249.3.08,498.61c0,14.07-5.26,24.79-17.56,31.63-4.83,2.68-10,5-15.91,3.94a20.28,20.28,0,0,0-3.49-.05c-70.15,0-140.29-.13-210.44.17-9,0-17-1.61-24-7.2a29.54,29.54,0,0,1-11.24-19.8A81.21,81.21,0,0,1,14.92,547q0-184.61,0-369.21c0-17.81,0-35.63,0-53.45C15,122.6,14.16,120.6,16,119.22Z"/><path class="cls-2" d="M157.55,560c12.14,0,24.27,0,36.41,0,1.71,0,4.34-.61,4.47,1.83.15,2.72-2.36,3.16-4.67,3.16h-74.3c-1.83,0-4.12.15-4.2-2.35-.08-2.9,2.43-2.64,4.39-2.64Q138.61,559.94,157.55,560Z"/><path class="cls-2" d="M155.87,26.71H129.7c-1.71,0-3.72.27-3.59-3.24.13-3.13,2-2.74,3.59-2.74q26.53,0,53.07,0c1.85,0,4.19-.1,4.07,3.24-.1,2.8-2.32,2.77-4.07,2.77C173.81,26.69,164.84,26.71,155.87,26.71Z"/><circle class="cls-2" cx="118.43" cy="23.71" r="3.58"/><circle class="cls-2" cx="108.11" cy="23.71" r="3.58"/><circle class="cls-2" cx="204.84" cy="23.71" r="3.58"/><circle class="cls-2" cx="194.53" cy="23.71" r="3.58"/><path class="cls-3" d="M287.75,320.27c-4.81-4.24-13.18-5-13.18-5H95.35A7.33,7.33,0,0,1,88,307.89V241.38A7.33,7.33,0,0,1,95.35,234h186.1a7.34,7.34,0,0,1,7.34,7.34v64.79a20,20,0,0,0-.17,3.29C288.75,316.88,292,324,287.75,320.27Z"/><path class="cls-3" d="M30.63,396C35.44,391.8,43.81,391,43.81,391H203a7.33,7.33,0,0,0,7.34-7.33V347.15a7.33,7.33,0,0,0-7.34-7.34H36.93a7.34,7.34,0,0,0-7.34,7.34v34.79a20,20,0,0,1,.17,3.29C29.63,392.65,26.43,399.73,30.63,396Z"/><path class="cls-3" d="M26.47,527.48c4.81-4.24,13.18-5.05,13.18-5.05H198.87a7.33,7.33,0,0,0,7.34-7.33V478.59a7.33,7.33,0,0,0-7.34-7.34H32.77a7.34,7.34,0,0,0-7.34,7.34v34.79a20,20,0,0,1,.17,3.29C25.47,524.09,22.27,531.17,26.47,527.48Z"/><path class="cls-3" d="M281,462.33c-4.81-4.24-13.18-5.05-13.18-5.05H108.58a7.33,7.33,0,0,1-7.34-7.33V421.44a7.33,7.33,0,0,1,7.34-7.34h166.1a7.34,7.34,0,0,1,7.34,7.34v26.79a20,20,0,0,0-.17,3.29C282,458.94,285.18,466,281,462.33Z"/><rect class="cls-3" x="90.51" y="68.01" width="190.78" height="146.28" rx="10.32"/><path class="cls-4" d="M100.29,68H271.52a9.77,9.77,0,0,1,9.77,9.77V168a0,0,0,0,1,0,0H90.51a0,0,0,0,1,0,0V77.78A9.77,9.77,0,0,1,100.29,68Z"/><rect class="cls-5" x="107.94" y="174.13" width="154.32" height="3"/><rect class="cls-6" x="107.94" y="183.76" width="154.32" height="3"/><rect class="cls-7" x="107.94" y="193.39" width="154.32" height="3"/><rect class="cls-8" x="127.43" y="202.11" width="115.34" height="3"/><path class="cls-9" d="M164.85,99.33,167,99.1l1.9,17.75-3.07.33-1.57-14.61-3.07,1.23-.93-2.45Z"/><path class="cls-9" d="M187,109.58a9.14,9.14,0,0,1-1.25,3.07,7.31,7.31,0,0,1-2.22,2.21,6.9,6.9,0,0,1-3.08,1.06,7.05,7.05,0,0,1-3.23-.37,7.35,7.35,0,0,1-2.62-1.68,8.91,8.91,0,0,1-1.86-2.73,11.58,11.58,0,0,1-.92-3.49A11.45,11.45,0,0,1,172,104a9.2,9.2,0,0,1,1.25-3.08,7.66,7.66,0,0,1,2.22-2.21,7.47,7.47,0,0,1,6.31-.69,7.35,7.35,0,0,1,2.62,1.68,8.91,8.91,0,0,1,1.86,2.73,11.35,11.35,0,0,1,.92,3.5A11.19,11.19,0,0,1,187,109.58Zm-3.6-5.67a6.5,6.5,0,0,0-1.12-1.91,4.77,4.77,0,0,0-1.57-1.21,3.44,3.44,0,0,0-1.91-.3,3.55,3.55,0,0,0-1.8.68,4.7,4.7,0,0,0-1.26,1.49,6.73,6.73,0,0,0-.68,2.1,9.88,9.88,0,0,0,0,2.5,9.58,9.58,0,0,0,.58,2.44,6.58,6.58,0,0,0,1.13,1.92,4.4,4.4,0,0,0,1.56,1.21,3.64,3.64,0,0,0,1.92.29,3.48,3.48,0,0,0,1.8-.69,4.41,4.41,0,0,0,1.25-1.5,6.94,6.94,0,0,0,.68-2.09,9.37,9.37,0,0,0,.05-2.49A9.07,9.07,0,0,0,183.41,103.91Z"/><path class="cls-9" d="M197.54,102.06a4.54,4.54,0,0,1-.7,1.53,4.22,4.22,0,0,1-1.22,1.12,4.15,4.15,0,0,1-3.39.37,3.91,3.91,0,0,1-1.4-.83,4.62,4.62,0,0,1-1-1.34,5.15,5.15,0,0,1-.49-1.69,4.85,4.85,0,0,1,.12-1.79,4.31,4.31,0,0,1,.7-1.52,4.22,4.22,0,0,1,1.21-1.13,4.25,4.25,0,0,1,3.39-.37,3.89,3.89,0,0,1,1.4.83,4.65,4.65,0,0,1,1,1.34,4.9,4.9,0,0,1,.48,1.7A5,5,0,0,1,197.54,102.06Zm-2.49,12-2.49.27,11-19,2.49-.26Zm-.37-15.28a1.7,1.7,0,0,0-1.48-.59,1.58,1.58,0,0,0-1.3.89,3.07,3.07,0,0,0-.31,1.86,3,3,0,0,0,.74,1.79,1.64,1.64,0,0,0,1.47.59,1.6,1.6,0,0,0,1.31-.89,3.21,3.21,0,0,0,.31-1.85A3.14,3.14,0,0,0,194.68,98.77Zm14.47,11.16a4.28,4.28,0,0,1-.7,1.53,4.18,4.18,0,0,1-1.21,1.12,4,4,0,0,1-1.67.55,3.87,3.87,0,0,1-3.12-1,4.52,4.52,0,0,1-1-1.35,4.84,4.84,0,0,1-.48-1.69,5,5,0,0,1,.11-1.78,4.46,4.46,0,0,1,.7-1.53,4.22,4.22,0,0,1,1.22-1.12,4,4,0,0,1,1.66-.55,3.89,3.89,0,0,1,1.72.17,4,4,0,0,1,1.41.83,4.67,4.67,0,0,1,1,1.35,5.08,5.08,0,0,1,.49,1.69A4.79,4.79,0,0,1,209.15,109.93Zm-2.86-3.28a1.65,1.65,0,0,0-1.47-.6,1.6,1.6,0,0,0-1.31.9,3.19,3.19,0,0,0-.31,1.85,3.08,3.08,0,0,0,.74,1.79,1.67,1.67,0,0,0,1.48.6,1.6,1.6,0,0,0,1.3-.9,3.46,3.46,0,0,0-.43-3.64Z"/><path class="cls-9" d="M146.78,144.37a8.23,8.23,0,0,1-1.63,3,9,9,0,0,1-2.77,2.18,10.28,10.28,0,0,1-3.71,1.09l-6.57.7-1.89-17.62,6.57-.71a10.67,10.67,0,0,1,3.86.26,9.18,9.18,0,0,1,3.17,1.54,8.19,8.19,0,0,1,2.23,2.59,9.29,9.29,0,0,1,.74,7Zm-3.64-5.53a5.58,5.58,0,0,0-3.5-2.84,6.83,6.83,0,0,0-2.58-.18l-3.48.37,1.29,12,3.48-.38a6.7,6.7,0,0,0,2.48-.71,5.41,5.41,0,0,0,2.83-3.47,6.88,6.88,0,0,0-.52-4.83Z"/><path class="cls-9" d="M149.84,133.94l-.31-2.89,3.3-.36.31,2.9Zm1.77,15.32L150.19,136l3.07-.33,1.42,13.29Z"/><path class="cls-9" d="M167.52,145.44a3.49,3.49,0,0,1-.9,1.41,4.81,4.81,0,0,1-1.49,1,6.94,6.94,0,0,1-1.91.47,8.79,8.79,0,0,1-3-.19,9.5,9.5,0,0,1-2.9-1.19l1.14-2.21a8.65,8.65,0,0,0,2.34,1,6.21,6.21,0,0,0,2.19.19,2.62,2.62,0,0,0,1.48-.55,1.22,1.22,0,0,0,.43-1.11v-.05a1,1,0,0,0-.31-.63,2.38,2.38,0,0,0-.71-.42,5.88,5.88,0,0,0-1-.27l-1.16-.22c-.5-.1-1-.22-1.53-.35a5.48,5.48,0,0,1-1.41-.57,3.61,3.61,0,0,1-1.08-1,3.12,3.12,0,0,1-.55-1.56v0a4,4,0,0,1,.19-1.73,3.8,3.8,0,0,1,.87-1.39,4.52,4.52,0,0,1,1.42-1,6.33,6.33,0,0,1,1.82-.47,8.44,8.44,0,0,1,2.59.13,9.2,9.2,0,0,1,2.46.86l-1,2.29a10.32,10.32,0,0,0-2-.71,5.48,5.48,0,0,0-1.85-.15,2.26,2.26,0,0,0-1.33.53,1.17,1.17,0,0,0-.39,1v0a.86.86,0,0,0,.32.59,2.22,2.22,0,0,0,.72.4,6.6,6.6,0,0,0,1,.31l1.16.24c.5.1,1,.22,1.51.37a6.09,6.09,0,0,1,1.4.6,3.9,3.9,0,0,1,1.09,1,3.05,3.05,0,0,1,.54,1.5v0A4,4,0,0,1,167.52,145.44Z"/><path class="cls-9" d="M180.55,145.77a6.58,6.58,0,0,1-3.13,1,6.83,6.83,0,0,1-5.15-1.49,7.22,7.22,0,0,1-1.68-2,7,7,0,0,1-.8-2.63,6.85,6.85,0,0,1,.23-2.75,6.88,6.88,0,0,1,3.24-4.11,6.79,6.79,0,0,1,2.7-.85,6.89,6.89,0,0,1,3.2.29,7.39,7.39,0,0,1,2.36,1.43l-1.67,2.24a7,7,0,0,0-1.63-1,3.78,3.78,0,0,0-2-.26,3.65,3.65,0,0,0-1.5.5,4,4,0,0,0-1.11,1.05,4.65,4.65,0,0,0-.65,1.43,5,5,0,0,0,.36,3.34,4.09,4.09,0,0,0,1,1.27,4,4,0,0,0,1.35.79,3.76,3.76,0,0,0,1.65.16,3.8,3.8,0,0,0,1.85-.66,7.32,7.32,0,0,0,1.42-1.37l2,1.62A8.24,8.24,0,0,1,180.55,145.77Z"/><path class="cls-9" d="M197.7,140.33a7,7,0,0,1-3.34,4.1,7.35,7.35,0,0,1-2.79.86,7.16,7.16,0,0,1-2.86-.24,6.71,6.71,0,0,1-2.4-1.25,6.83,6.83,0,0,1-1.71-2,7,7,0,0,1,.68-7.76,7.13,7.13,0,0,1,4.86-2.6,7.3,7.3,0,0,1,2.89.24,6.84,6.84,0,0,1,4.92,5.93A6.66,6.66,0,0,1,197.7,140.33Zm-3.29-4a4.19,4.19,0,0,0-1-1.28,3.78,3.78,0,0,0-1.37-.8,3.9,3.9,0,0,0-1.68-.16,3.82,3.82,0,0,0-1.6.51,3.69,3.69,0,0,0-1.16,1.06,4,4,0,0,0-.66,1.43,4.92,4.92,0,0,0-.1,1.68,4.64,4.64,0,0,0,.48,1.64,4.19,4.19,0,0,0,1,1.28,4,4,0,0,0,1.38.78,3.79,3.79,0,0,0,1.65.17,3.9,3.9,0,0,0,3.45-3,4.94,4.94,0,0,0,.1-1.68A4.67,4.67,0,0,0,194.41,136.33Z"/><path class="cls-9" d="M209.05,129.67l3.07-.33,1.43,13.29-3.08.33-.22-2.08a6.55,6.55,0,0,1-1.45,1.83,4.26,4.26,0,0,1-2.44,1,4.44,4.44,0,0,1-3.64-1,5.42,5.42,0,0,1-1.63-3.59l-.9-8.46,3.07-.33.81,7.53a3.55,3.55,0,0,0,1,2.32,2.62,2.62,0,0,0,2.17.62,2.82,2.82,0,0,0,2.06-1.1,3.37,3.37,0,0,0,.56-2.51Z"/><path class="cls-9" d="M220.44,141.89l-3.07.33L216,128.93l3.07-.33.22,2.09a7.42,7.42,0,0,1,.62-1,4.75,4.75,0,0,1,.83-.85,4.4,4.4,0,0,1,1.07-.64,5,5,0,0,1,1.37-.34,4.47,4.47,0,0,1,3.64,1,5.45,5.45,0,0,1,1.63,3.6l.91,8.46-3.07.32-.81-7.53a3.55,3.55,0,0,0-1-2.32,2.64,2.64,0,0,0-2.18-.62,2.8,2.8,0,0,0-2,1.1,3.38,3.38,0,0,0-.57,2.51Z"/><path class="cls-9" d="M236.24,136a1.66,1.66,0,0,0,.56,1.23,1.77,1.77,0,0,0,1.25.26,4.13,4.13,0,0,0,1.84-.66l.27,2.5A5.14,5.14,0,0,1,239,140a5.54,5.54,0,0,1-1.49.34,5.44,5.44,0,0,1-1.57,0,3.24,3.24,0,0,1-1.3-.52,2.85,2.85,0,0,1-.92-1.12,5.28,5.28,0,0,1-.48-1.82l-.75-7-1.69.18-.28-2.59,1.69-.18-.39-3.65,3.07-.33.39,3.65,3.58-.38.27,2.59-3.57.39Z"/></g></g></svg>