<svg xmlns="http://www.w3.org/2000/svg" width="323.442" height="619.035" viewBox="0 0 323.442 619.035">
  <g id="Group_1107" data-name="Group 1107" transform="translate(-3160.218 -1104.131)">
    <g id="Group_1105" data-name="Group 1105" transform="translate(3160.218 1104.131)">
      <path id="Path_2329" data-name="Path 2329" d="M3162.753,1413.792q0,128.064.026,256.127c0,8.2.2,16.373,4.177,23.973,9.18,17.551,23.46,26.829,43.365,26.845,74.4.058,148.794-.053,223.189.07,22.076.036,39.314-14.894,45.3-34.023a55.011,55.011,0,0,0,2.37-16.458q-.047-55.252-.015-110.505c0-1.205-.046-2.412.022-3.614.054-.932-.263-2.282,1.357-2.14,1.152.1,1.029,1.183,1.072,2,.055,1.03.022,2.065.022,3.1,0,37.524.068,75.048-.037,112.572-.036,12.654-3.347,24.127-11.986,34.012-10.178,11.648-22.6,17.43-38.022,17.419q-111.6-.088-223.19-.036c-10.288,0-20.471-1.185-28.864-7.667-13.765-10.631-22.068-24.284-21.269-42.363.068-1.546.007-3.1.007-4.647q0-255.868-.017-511.736c0-9.555.607-19.042,5.457-27.5,8.289-14.458,20.824-22.817,37.514-24.625a81.877,81.877,0,0,1,8.767-.4q110.045-.032,220.09-.058c21.609-.031,37.168,9.49,46.926,28.565,3.568,6.976,4.58,14.67,4.583,22.389q.084,190.542.039,381.086c0,.688.052,1.382-.014,2.064-.1,1.1.359,2.869-1.39,2.726-1.672-.135-.94-1.894-1.044-2.972-.115-1.194-.027-2.407-.027-3.612q0-188.222-.007-376.442c0-13.976-3.395-26.812-13.469-37.085-6.284-6.408-14.15-10.085-22.74-12.574-7.076-2.049-14.228-1.756-21.4-1.758q-105.654-.025-211.308-.009c-11.495,0-22.26,2.616-31.493,9.708-12.893,9.9-18.145,23.336-18.044,39.384.185,29.432.051,58.867.051,88.3Q3162.752,1328.846,3162.753,1413.792Z" transform="translate(-3160.218 -1104.131)" fill="#777"/>
      <path id="Path_2330" data-name="Path 2330" d="M3176.269,1226.869c2.129,1.773,1.091,4.188,1.092,6.273q.084,218.675.011,437.352c-.006,13.708,4.842,24.429,17.279,31.049,4.989,2.654,10.443,3.432,16,3.433q110.82.034,221.641-.018c20.146-.023,32.69-12.731,32.851-33.048.14-17.384.03-34.769.03-52.155q0-231.6.138-463.2c.019-13.634-4.521-23.875-16.074-31.123a27.244,27.244,0,0,0-14.719-4.031c-12.743-.081-25.488-.126-38.23-.013-6.969.062-9.873,2.737-11.187,9.657-2.173,11.441-8.719,17.05-20.306,17.073q-43.4.088-86.8,0c-11.717-.025-17.947-5.407-20.172-17.077-1.27-6.65-4.472-9.625-11.277-9.7-12.742-.143-25.5-.358-38.228.068-18.447.618-30.758,13.744-30.865,32.523-.119,21,0,42-.073,63-.007,1.931.928,4.176-1.117,5.764a2.879,2.879,0,0,1-1.13-2.711c.094-23.922-.233-47.854.431-71.759a29.812,29.812,0,0,1,27.308-28.739,277.859,277.859,0,0,1,46.895.084,10.83,10.83,0,0,1,10.023,9.787c1.089,11.434,9.768,16.59,19.646,16.477,27.893-.315,55.793-.1,83.689-.116,11.9-.007,16.434-3.85,18.927-15.909,1.34-6.486,5.61-10.679,12.687-10.756,14.787-.159,29.6-.928,44.371.483,16.161,1.543,26.946,15.422,28.36,29.742.2,2.049.165,4.127.165,6.191q.009,257.659.081,515.317c.01,14.544-5.429,25.627-18.146,32.7-4.986,2.77-10.33,5.2-16.438,4.073a20.216,20.216,0,0,0-3.611-.053c-72.5,0-144.995-.138-217.492.168-9.35.04-17.54-1.655-24.779-7.437a30.49,30.49,0,0,1-11.607-20.465,83.936,83.936,0,0,1-.5-10.818q-.035-190.79-.02-381.582c0-18.414-.023-36.828.038-55.242C3175.171,1230.354,3174.356,1228.289,3176.269,1226.869Z" transform="translate(-3159.722 -1103.648)" fill="#777"/>
      <path id="Path_2331" data-name="Path 2331" d="M3319.188,1664.09c12.542,0,25.083-.022,37.624.024,1.773.007,4.489-.634,4.627,1.889.156,2.813-2.443,3.268-4.829,3.267q-38.4,0-76.791-.007c-1.893,0-4.261.154-4.337-2.43-.087-3,2.5-2.728,4.537-2.731Q3299.6,1664.069,3319.188,1664.09Z" transform="translate(-3156.354 -1085.365)" fill="#f6f6f6"/>
      <g id="Group_1104" data-name="Group 1104" transform="translate(108.029 20.803)">
        <path id="Path_2332" data-name="Path 2332" d="M3317.087,1131.04q-13.525,0-27.05-.005c-1.763,0-3.847.279-3.705-3.35.127-3.234,2.1-2.835,3.705-2.836q27.428-.023,54.853-.01c1.908,0,4.326-.1,4.2,3.349-.1,2.9-2.395,2.87-4.2,2.865C3335.623,1131.027,3326.355,1131.04,3317.087,1131.04Z" transform="translate(-3264.02 -1124.24)" fill="#f6f6f6"/>
        <g id="Group_1103" data-name="Group 1103">
          <circle id="Ellipse_64" data-name="Ellipse 64" cx="3.703" cy="3.703" r="3.703" transform="translate(10.664)" fill="#f6f6f6"/>
          <circle id="Ellipse_65" data-name="Ellipse 65" cx="3.703" cy="3.703" r="3.703" fill="#f6f6f6"/>
          <circle id="Ellipse_66" data-name="Ellipse 66" cx="3.703" cy="3.703" r="3.703" transform="translate(99.978)" fill="#f6f6f6"/>
          <circle id="Ellipse_67" data-name="Ellipse 67" cx="3.703" cy="3.703" r="3.703" transform="translate(89.314)" fill="#f6f6f6"/>
        </g>
      </g>
    </g>
    <rect id="Rectangle_394" data-name="Rectangle 394" width="197.171" height="151.184" rx="10.318" transform="translate(3253.766 1226.095)" fill="#e2e2e2"/>
    <path id="Rectangle_395" data-name="Rectangle 395" d="M13.758,0H183.413a13.758,13.758,0,0,1,13.758,13.758v89.567a0,0,0,0,1,0,0H0a0,0,0,0,1,0,0V13.758A13.758,13.758,0,0,1,13.758,0Z" transform="translate(3253.766 1226.095)" fill="#777" opacity="0.5"/>
    <line id="Line_88" data-name="Line 88" x2="159.49" transform="translate(3271.777 1337.326)" fill="none" stroke="#777" stroke-miterlimit="10" stroke-width="3"/>
    <line id="Line_89" data-name="Line 89" x2="159.49" transform="translate(3271.777 1347.28)" fill="none" stroke="#777" stroke-miterlimit="10" stroke-width="3"/>
    <line id="Line_90" data-name="Line 90" x2="159.49" transform="translate(3271.777 1357.233)" fill="none" stroke="#777" stroke-miterlimit="10" stroke-width="3"/>
    <line id="Line_91" data-name="Line 91" x2="119.203" transform="translate(3291.92 1366.238)" fill="none" stroke="#777" stroke-miterlimit="10" stroke-width="3"/>
    <path id="Path_2333" data-name="Path 2333" d="M3446.52,1439.991v1.778a7.678,7.678,0,0,1-.175,1.623A20.716,20.716,0,0,1,3446.52,1439.991Z" transform="translate(9.589 11.256)" fill="#e2e2e2"/>
    <path id="Path_2334" data-name="Path 2334" d="M3447.168,1436.784c-4.972-4.382-13.622-5.219-13.622-5.219H3248.32a7.576,7.576,0,0,1-7.586-7.576v-27.4a7.578,7.578,0,0,1,7.586-7.586h192.337a7.584,7.584,0,0,1,7.586,7.586v25.621a20.659,20.659,0,0,0-.176,3.4C3448.2,1433.281,3451.509,1440.6,3447.168,1436.784Z" transform="translate(2.698 9.548)" fill="#e2e2e2"/>
    <text id="Hey_Bro_open_this_link_i_will_gate_10_discount_on_my_Grossory" data-name="Hey Bro,open this link, i will gate 
10% discount on my Grossory" transform="translate(3255.822 1415.559)" font-size="9" font-family="Gotham-Medium, Gotham" font-weight="500"><tspan x="0" y="0">Hey Bro,open this link, i will gate </tspan><tspan x="0" y="10">10% discount on my Grossory</tspan></text>
    <path id="Path_2335" data-name="Path 2335" d="M3188.073,1493.666c4.971-4.382,13.621-5.219,13.621-5.219h164.556a7.576,7.576,0,0,0,7.587-7.576v-17.063a7.578,7.578,0,0,0-7.587-7.586H3194.584a7.584,7.584,0,0,0-7.585,7.586v15.286a20.8,20.8,0,0,1,.176,3.4C3187.04,1490.162,3183.732,1497.48,3188.073,1493.666Z" transform="translate(0.859 11.8)" fill="#e2e2e2"/>
    <text id="Cool_How_did_I_get_This_offer" data-name="Cool, How did I get This offer" transform="translate(3210.32 1485.964)" font-size="9" font-family="Gotham-Medium, Gotham" font-weight="500"><tspan x="0" y="0">Cool, How did I get This offer</tspan></text>
    <path id="Path_2336" data-name="Path 2336" d="M3188.073,1616.265c4.971-4.382,13.621-5.219,13.621-5.219h164.556a7.576,7.576,0,0,0,7.587-7.576v-17.063a7.578,7.578,0,0,0-7.587-7.586H3194.584a7.584,7.584,0,0,0-7.585,7.586v15.286a20.8,20.8,0,0,1,.176,3.4C3187.04,1612.761,3183.732,1620.079,3188.073,1616.265Z" transform="translate(0.859 15.909)" fill="#e2e2e2"/>
    <text id="Grat_livig_home_for_the_shop" data-name="Grat, livig home for the shop" transform="translate(3209.287 1613.705)" font-size="9" font-family="Gotham-Medium, Gotham" font-weight="500"><tspan x="0" y="0">Grat, livig home for the shop</tspan></text>
    <path id="Path_2337" data-name="Path 2337" d="M3446.5,1561.539c-4.972-4.382-13.622-5.219-13.622-5.219H3268.32a7.575,7.575,0,0,1-7.586-7.576v-17.063a7.578,7.578,0,0,1,7.586-7.586h171.667a7.584,7.584,0,0,1,7.586,7.586v15.286a20.771,20.771,0,0,0-.176,3.4C3447.531,1558.036,3450.839,1565.353,3446.5,1561.539Z" transform="translate(3.369 14.075)" fill="#e2e2e2"/>
    <text id="Visit_that_shop_and_get_your_offer" data-name="Visit that shop, and get your offer" transform="translate(3271.186 1556.112)" font-size="9" font-family="Gotham-Medium, Gotham" font-weight="500"><tspan x="0" y="0">Visit that shop, and get your offer</tspan></text>
  </g>
</svg>
