<svg xmlns="http://www.w3.org/2000/svg" xmlns:xlink="http://www.w3.org/1999/xlink" viewBox="0 0 629.62 318.5"><defs><style>.cls-1,.cls-10,.cls-12,.cls-2{fill:none;}.cls-2{stroke:#151c1e;}.cls-12,.cls-2{stroke-miterlimit:10;stroke-width:0.75px;}.cls-3{fill:#ebebeb;}.cls-4{fill:#e0e0e0;}.cls-5{fill:#fafafa;}.cls-6{fill:#f5f5f5;}.cls-7{fill:url(#linear-gradient);}.cls-25,.cls-26,.cls-27,.cls-8{fill:#fff;}.cls-9{fill:#f2f2f2;}.cls-10{stroke:#263238;stroke-linecap:round;stroke-linejoin:round;}.cls-11,.cls-27{fill-opacity:0.7;isolation:isolate;}.cls-11{opacity:0.2;}.cls-12{stroke:#1c1c1c;}.cls-13{fill:#263238;}.cls-14{fill:url(#linear-gradient-2);}.cls-15{fill:url(#linear-gradient-3);}.cls-16{fill:url(#linear-gradient-4);}.cls-17{fill:url(#linear-gradient-5);}.cls-18{fill:url(#linear-gradient-6);}.cls-19{fill:url(#linear-gradient-7);}.cls-20{fill:url(#linear-gradient-8);}.cls-21{opacity:0.3;}.cls-22{fill:#dfd8cc;}.cls-23{clip-path:url(#clip-path);}.cls-24{fill:#388176;}.cls-25{opacity:0.92;}.cls-26{opacity:0.81;}.cls-28{fill:#bcf7bf;}.cls-29{fill:#f8f8f8;}.cls-30{fill:#e8eaea;}.cls-31{fill:#ccc;}.cls-32{font-size:4.07px;fill:#3a3a3a;font-family:MyriadPro-Regular, Myriad Pro;}.cls-33{fill:url(#linear-gradient-9);}.cls-34{fill:url(#linear-gradient-10);}.cls-35{fill:url(#linear-gradient-11);}.cls-36{fill:url(#linear-gradient-12);}.cls-37{fill:url(#linear-gradient-13);}.cls-38{fill:url(#linear-gradient-14);}</style><linearGradient id="linear-gradient" x1="102.06" y1="205.13" x2="137.22" y2="205.13" gradientUnits="userSpaceOnUse"><stop offset="0" stop-color="#00ffaf"/><stop offset="0.06" stop-color="#00edad"/><stop offset="0.32" stop-color="#00a6a7"/><stop offset="0.55" stop-color="#006ea2"/><stop offset="0.75" stop-color="#00469f"/><stop offset="0.91" stop-color="#002d9d"/><stop offset="1" stop-color="#00249c"/></linearGradient><linearGradient id="linear-gradient-2" x1="431.77" y1="88.99" x2="442.94" y2="108.43" xlink:href="#linear-gradient"/><linearGradient id="linear-gradient-3" x1="412.9" y1="119.28" x2="429.24" y2="119.28" xlink:href="#linear-gradient"/><linearGradient id="linear-gradient-4" x1="428.18" y1="119.35" x2="429.76" y2="119.35" xlink:href="#linear-gradient"/><linearGradient id="linear-gradient-5" x1="461.91" y1="71.66" x2="473.09" y2="91.1" xlink:href="#linear-gradient"/><linearGradient id="linear-gradient-6" x1="228.83" y1="7.58" x2="243.99" y2="7.58" xlink:href="#linear-gradient"/><linearGradient id="linear-gradient-7" x1="180.59" y1="78.14" x2="184.97" y2="96.19" xlink:href="#linear-gradient"/><linearGradient id="linear-gradient-8" x1="111.22" y1="80.96" x2="141.31" y2="118.7" xlink:href="#linear-gradient"/><clipPath id="clip-path"><path class="cls-1" d="M343,38.4H329.89a3.23,3.23,0,0,0-3.18,3.3h0v2.36a3.24,3.24,0,0,1-3.17,3.32H298a3.26,3.26,0,0,1-3.18-3.32h0v-2.4a3.25,3.25,0,0,0-3.18-3.31H275.61A10.27,10.27,0,0,0,265.3,48.59h0l0,164.2A10.26,10.26,0,0,0,275.56,223l67.37.05a10.27,10.27,0,0,0,10.3-10.24h0l0-164.21A10.27,10.27,0,0,0,343,38.4Z"/></clipPath><linearGradient id="linear-gradient-9" x1="191.44" y1="14.12" x2="222.2" y2="47.98" xlink:href="#linear-gradient"/><linearGradient id="linear-gradient-10" x1="197.3" y1="8.8" x2="228.06" y2="42.66" xlink:href="#linear-gradient"/><linearGradient id="linear-gradient-11" x1="182.57" y1="22.17" x2="213.33" y2="56.03" xlink:href="#linear-gradient"/><linearGradient id="linear-gradient-12" x1="189.06" y1="16.28" x2="219.82" y2="50.14" xlink:href="#linear-gradient"/><linearGradient id="linear-gradient-13" x1="187.38" y1="17.8" x2="218.14" y2="51.66" xlink:href="#linear-gradient"/><linearGradient id="linear-gradient-14" x1="194.64" y1="11.21" x2="225.4" y2="45.07" xlink:href="#linear-gradient"/></defs><g id="Layer_2" data-name="Layer 2"><g id="Layer_1-2" data-name="Layer 1"><path class="cls-2" d="M238,60.35V69.6l-.05-.06-7.61-9h0l-50.79,0h-.08V4.85H238v.07c0,16.76,0,30.57,0,40.22,0,4.83,0,8.61,0,11.19v4h0a1.31,1.31,0,0,1,0-.28V56.33c0-2.58,0-6.36,0-11.19,0-9.65,0-23.46,0-40.22L238,5H179.62l.08-.1V60.47l-.08-.09,50.79,0h0l7.6,9,0,0C238,63.62,238,60.6,238,60.35Z"/><path class="cls-3" d="M598.06,227.21a22.28,22.28,0,0,0-5.92-14.72C590.35,219.88,598.06,227.21,598.06,227.21Z"/><path class="cls-3" d="M589.47,223a22.35,22.35,0,0,0-15.86-.44C579.66,227.19,589.47,223,589.47,223Z"/><path class="cls-3" d="M588.48,218.26A17.52,17.52,0,0,0,586.33,206C583.73,211.34,588.48,218.26,588.48,218.26Z"/><path class="cls-3" d="M621.74,201c-12.52,3.36-19.32,14.29-19.32,14.29C613.17,215.28,621.74,201,621.74,201Z"/><path class="cls-3" d="M601.66,206.14c.66-13.54-12.63-28.88-12.63-28.88,2,16.82,12.63,28.88,12.63,28.88"/><path class="cls-3" d="M601.73,167.55A36.19,36.19,0,0,0,606.49,187C608.36,178.25,601.73,167.55,601.73,167.55Z"/><path class="cls-3" d="M606.84,195.09c9.9-1.07,15.29-10.93,15.29-10.93C610.19,187.52,606.84,195.09,606.84,195.09Z"/><path class="cls-3" d="M628.2,236.52a22.31,22.31,0,0,0-15.54-3C617.86,239,628.2,236.52,628.2,236.52Z"/><path class="cls-3" d="M602.53,241a14.66,14.66,0,0,0,6.66,7.5C608.76,243.87,602.53,241,602.53,241Z"/><path class="cls-3" d="M603.81,239.51a17.6,17.6,0,0,0,11.84,2.11C611.84,237.64,603.81,239.51,603.81,239.51Z"/><path class="cls-4" d="M598.74,257.75v-6.66c0-1.4,0-3,.1-4.75.08-3.53.33-7.72.69-12.36s1-9.72,1.75-15c1.57-10.69,3.7-20.16,5.42-27,.87-3.42,1.6-6.17,2.13-8.08l.59-2.18.15-.58v-.2a.71.71,0,0,0-.08.18,2.58,2.58,0,0,1-.18.57l-.67,2.16c-.59,1.89-1.36,4.64-2.27,8.05a251,251,0,0,0-5.57,27c-.77,5.34-1.33,10.44-1.71,15.09s-.55,8.85-.6,12.38v4.76c0,1.4,0,2.61,0,3.59l.08,2.28v.59A.48.48,0,0,1,598.74,257.75Z"/><path class="cls-4" d="M616.92,229.06c-.06-.1-4.07,2.53-8.94,5.83s-8.74,6.13-8.74,6.23,4.07-2.52,8.94-5.83S617,229.16,616.92,229.06Z"/><path class="cls-4" d="M599.29,230.51a4,4,0,0,0-.62-.68l-1.78-1.72-6-5.62L585,216.91l-1.81-1.69a3.44,3.44,0,0,0-.7-.59,3.28,3.28,0,0,0,.58.7c.39.44,1,1,1.7,1.8,1.47,1.5,3.55,3.51,5.83,5.69s4.47,4.11,6,5.49c.78.69,1.43,1.24,1.88,1.61A3.48,3.48,0,0,0,599.29,230.51Z"/><path class="cls-3" d="M629.62,222.64s-10.24-.19-14.57,7.86A18.45,18.45,0,0,0,629.62,222.64Z"/><path class="cls-3" d="M615.66,218.53s-8.34,5.95-7,15A18.47,18.47,0,0,0,615.66,218.53Z"/><path class="cls-3" d="M571.74,203.88s3.3,11.45,13.75,13.51A21.46,21.46,0,0,0,571.74,203.88Z"/><path class="cls-3" d="M620.21,161.28s-13.06,8.52-11.66,22.35A28.08,28.08,0,0,0,620.21,161.28Z"/><path class="cls-4" d="M576.73,237.07a4.55,4.55,0,0,0,.84.68c.58.41,1.37,1,2.35,1.8a57.06,57.06,0,0,1,12.93,14.39c.66,1.05,1.18,1.94,1.52,2.51a5.68,5.68,0,0,0,.6.93,5.07,5.07,0,0,0-.44-1c-.3-.63-.78-1.52-1.41-2.6a51.12,51.12,0,0,0-5.83-7.88,49.67,49.67,0,0,0-7.22-6.6c-1-.74-1.84-1.32-2.43-1.68A5.35,5.35,0,0,0,576.73,237.07Z"/><path class="cls-3" d="M588.1,245.57a22.23,22.23,0,0,0-3-15.55C583.69,239.71,588.1,245.57,588.1,245.57Z"/><path class="cls-3" d="M579.3,240.78A16.17,16.17,0,0,0,567.91,239C574.24,242.35,579.3,240.78,579.3,240.78Z"/><polygon class="cls-3" points="617.79 258.81 612.88 291.02 584.41 291.02 577.8 259.28 617.79 258.81"/><path class="cls-5" d="M581.78,279.46c0,.09,7.3.17,16.29.17s16.31-.08,16.31-.17-7.3-.17-16.31-.17S581.78,279.36,581.78,279.46Z"/><path class="cls-5" d="M581.67,277.88c0,.08,7.35.16,16.4.16s16.42-.08,16.42-.16-7.35-.18-16.42-.18S581.67,277.78,581.67,277.88Z"/><path class="cls-5" d="M581.73,276.08c0,.1,7.35.17,16.4.17s16.41-.07,16.41-.17-7.34-.17-16.41-.17S581.73,276,581.73,276.08Z"/><path class="cls-5" d="M609.62,289.19a28.22,28.22,0,0,0,.87-4.06A27.23,27.23,0,0,0,611,281a24.27,24.27,0,0,0-.88,4.06A23.6,23.6,0,0,0,609.62,289.19Z"/><path class="cls-5" d="M607.67,288.85a29.43,29.43,0,0,0,.36-4,32.71,32.71,0,0,0,.19-4,31.48,31.48,0,0,0-.55,7.93Z"/><path class="cls-5" d="M604.15,288.84a33.14,33.14,0,0,0,1-8.17,112.75,112.75,0,0,0-1,8.17Z"/><path class="cls-5" d="M601.67,289a21,21,0,0,0,.4-4.12,21.24,21.24,0,0,0-.13-4.14,113.93,113.93,0,0,0-.27,8.26Z"/><path class="cls-5" d="M597.28,288.85a50.63,50.63,0,0,0,.3-7.78,21.18,21.18,0,0,0-.3,3.89A23,23,0,0,0,597.28,288.85Z"/><path class="cls-5" d="M594.08,289a26,26,0,0,0,.13-4,24.93,24.93,0,0,0-.2-4.05,48.57,48.57,0,0,0,.07,8.09Z"/><path class="cls-5" d="M591.07,288.56a25,25,0,0,0-.24-4.23,25.88,25.88,0,0,0-.58-4.2,28.64,28.64,0,0,0,.25,4.24A26.89,26.89,0,0,0,591.07,288.56Z"/><path class="cls-5" d="M587.2,288.16a14.58,14.58,0,0,0-.48-3.6,14.07,14.07,0,0,0-1.06-3.47,30.48,30.48,0,0,0,.74,3.54A28.59,28.59,0,0,0,587.2,288.16Z"/><path class="cls-3" d="M621.05,252.44v6a2.38,2.38,0,0,1-2.37,2.38H577.45a2.38,2.38,0,0,1-2.37-2.38h0v-6Z"/><polygon class="cls-4" points="617.48 260.83 617.14 262.76 579.09 265.47 578.13 260.83 617.48 260.83"/><path class="cls-4" d="M18.32,220A24,24,0,0,0,8,216.47a6.89,6.89,0,0,0-4.86.89,1,1,0,0,0-.51.9,1.06,1.06,0,0,0,.48.6A14.7,14.7,0,0,0,18.32,220"/><path class="cls-4" d="M18.06,219.72a49.21,49.21,0,0,1-6.64-5.85,16.66,16.66,0,0,1-4.16-7.72,3.06,3.06,0,0,1,.32-2.57c5.3,4.13,9.46,9.48,10.48,16.12"/><path class="cls-4" d="M18.27,220a24.11,24.11,0,0,1,.12-8.72,11.77,11.77,0,0,1,4.65-7.2c.91,2.14.52,4.58-.12,6.87a33.2,33.2,0,0,1-4.58,9.7"/><path class="cls-4" d="M23.46,229.27a15.22,15.22,0,0,0-8.25,4.18,15.64,15.64,0,0,0-4.72,8.09c3.06-.19,5.72-2.37,7.64-4.81s3.22-5.12,5.35-7.41"/><path class="cls-4" d="M24.58,230.76A20.37,20.37,0,0,1,27,211.5a24.46,24.46,0,0,1-2.35,19.24"/><path class="cls-4" d="M31.44,238.92A14.71,14.71,0,0,0,17.38,247a1.09,1.09,0,0,0-.09,1.11,1.07,1.07,0,0,0,.93.27c2.77-.18,5.23-1.85,7.26-3.75s3.82-4.09,6-5.74"/><path class="cls-4" d="M31.23,238.48A26.1,26.1,0,0,1,31,223.85c.51-1.88,1.37-3.87,3.11-4.75a.7.7,0,0,1,.49-.09.64.64,0,0,1,.3.35,8.93,8.93,0,0,1,.77,4.2,27.44,27.44,0,0,1-.66,4.25c-.55,2.6-.84,5.39-2.29,7.64a14.19,14.19,0,0,0-.9,1.67c-.28.57-.28.76-.52,1.23"/><path class="cls-4" d="M49.38,241.18a18.9,18.9,0,0,1,3.31-15.51c.24-.3.55-.64.94-.6.59.05.76.85.72,1.44a28.06,28.06,0,0,1-5,14.67"/><path class="cls-4" d="M51,242.31a22.61,22.61,0,0,0,18.52-3.77,14.94,14.94,0,0,0-10-1.23,14.35,14.35,0,0,0-8.49,5"/><path class="cls-4" d="M52.4,238.9a21.39,21.39,0,0,1,16.8-9.72,10.46,10.46,0,0,1-5.5,6.11,30.6,30.6,0,0,1-8.06,2.36c-1.07.2-2.55.43-3.24,1.28"/><path class="cls-4" d="M49.73,222.36a48.58,48.58,0,0,0,2.14-9.83,16.44,16.44,0,0,0-2-9.74,21.4,21.4,0,0,0-.29,19.92"/><path class="cls-4" d="M60.68,216.84c3.82-6.91,11.55-12.43,19.4-13.2-3,7.54-11.28,13.36-19.4,13.2"/><path class="cls-4" d="M58.29,218.19c5.67.86,10.5,4.49,15.8,6.68a7.1,7.1,0,0,0,3.57.69,2.79,2.79,0,0,0,1.75-4.95A7.57,7.57,0,0,0,76.82,219a28.76,28.76,0,0,0-18-1"/><path class="cls-4" d="M55,222.19c1.29.37,1.72,1,2.74,1.9a29.56,29.56,0,0,0,12,6.13c.46.12,1.06.16,1.29-.26s0-.76-.31-1.11a16.48,16.48,0,0,0-7.23-4.92c-2.77-1-5.16-2.29-8.46-2"/><path class="cls-4" d="M51.3,198.15a22.71,22.71,0,0,0,17.38,5.91,1.22,1.22,0,0,0,.77-.28c.43-.48-.1-1.22-.6-1.62-5.12-4-11.3-5.63-17.57-4"/><path class="cls-4" d="M55.69,196.54A24.22,24.22,0,0,1,77.38,193a17.17,17.17,0,0,1-10.33,4.55,32.94,32.94,0,0,1-11.36-1"/><path class="cls-4" d="M53.94,185.53c-.5-5.1-.17-9.16-.53-14.26,0-.41-.12-.9-.5-1s-1,.45-1.15,1a16.36,16.36,0,0,0,2.17,14.2"/><path class="cls-4" d="M53.57,186.07A30.11,30.11,0,0,0,62,177.85c1.66-2.29,3-5,2.7-7.83a8.09,8.09,0,0,0-6.11,3,16.81,16.81,0,0,0-3.11,6.26c-.68,2.24-1.16,4.58-1.95,6.76"/><path class="cls-4" d="M61.88,183.75a68.06,68.06,0,0,0,20.8-12.26c-2.49-1-5.35-.4-7.81.6a24.67,24.67,0,0,0-13.1,11.61"/><path class="cls-4" d="M55.91,188.85a42.15,42.15,0,0,0,11.55.06,48.77,48.77,0,0,0,10.78-3.59,1.31,1.31,0,0,0,.77-.55.85.85,0,0,0-.27-.92,2.23,2.23,0,0,0-.92-.43,19.92,19.92,0,0,0-11.65.69,54.27,54.27,0,0,0-10.23,4.74"/><path class="cls-4" d="M34,198.32a20.41,20.41,0,0,1-.19-16.91c1.59,2.43,1.79,5.52,1.53,8.4s-1.18,5.86-1.23,8.76"/><path class="cls-4" d="M23.52,193A23.53,23.53,0,0,0,6,200.51a16.49,16.49,0,0,0,9.6-1.78,48.68,48.68,0,0,0,8.21-5.51"/><path class="cls-4" d="M16.48,190.69c-3.19-.26-6.28-.66-9.35.29A11.17,11.17,0,0,0,0,197a17,17,0,0,0,8.77-1.65,51.26,51.26,0,0,0,7.71-4.68"/><path class="cls-4" d="M26.91,190.79c-2.88-1.88-5.84-3.82-9.17-4.58S10.5,186,8.16,188.5c2.72,1.59,6,1.78,9.17,1.77s7,0,10,1"/><path class="cls-4" d="M26.92,191c-4.92-4.84-6.79-13.51-4.81-20.12A30.59,30.59,0,0,1,26.92,191"/><path class="cls-4" d="M40.45,177.25c.93-2.15,1.58-4.42,2.42-6.61a18.91,18.91,0,0,1,3.43-6.11,9.11,9.11,0,0,1,6.11-3.16,24.5,24.5,0,0,1-11.84,15.92"/><path class="cls-4" d="M38,180.11c-1.52-2.12-3.31-5-5.39-6.56a9,9,0,0,0-7.34-1.93A17.1,17.1,0,0,0,38,180.11"/><path class="cls-4" d="M38.49,177.44a37,37,0,0,1-2.43-7.87,12.33,12.33,0,0,1,1.23-8c2.71,5.11,3.58,10.6,1.34,15.92"/><path class="cls-4" d="M40.48,161.57c1.52-5,6.16-8.78,11.16-10.49a4.15,4.15,0,0,1,2-.3A1.73,1.73,0,0,1,55.05,152c.17.86-.54,1.63-1.2,2.21a38.12,38.12,0,0,1-13.37,7.37"/><path class="cls-4" d="M40.53,157.43A36.15,36.15,0,0,1,42,147.77a12.16,12.16,0,0,1,6.11-7.34c.5,3.29-1,6.57-2.7,9.4s-3.88,5.52-4.92,8.68"/><path class="cls-4" d="M40.45,159.69c-1.26-3.69-1.39-8.4-3.6-11.6-1.53-2.24-4-3.77-5.35-6.15a9.4,9.4,0,0,0,.32,7,20.27,20.27,0,0,0,4.08,5.85c1.64,1.74,3.06,3.05,4.58,4.91"/><path class="cls-4" d="M40.48,268.32c-.1,0-.19-24.61-.19-55s.06-55,.16-55,.19,24.61.19,55S40.58,268.32,40.48,268.32Z"/><path class="cls-4" d="M62,194.6a5.22,5.22,0,0,1-.93.35l-2.54.86c-2.15.76-5.1,1.8-8.3,3.1s-6.16,2.47-7.86,3.94a5.88,5.88,0,0,0-1.58,2.09c-.25.58-.29.94-.32.93s0-.09,0-.26a3.47,3.47,0,0,1,.19-.72,5.62,5.62,0,0,1,1.52-2.23,13.54,13.54,0,0,1,3.42-2.11c1.37-.64,2.88-1.3,4.48-2,3.21-1.31,6.19-2.33,8.36-3,1.08-.34,2-.58,2.58-.76A5.52,5.52,0,0,1,62,194.6Z"/><path class="cls-4" d="M69,177.29a1.69,1.69,0,0,1-.26.28l-.76.76-3,2.68-9.83,8.71c-3.82,3.41-7.13,6.67-9.43,9.12-1.15,1.22-2,2.24-2.67,2.95l-.71.82c-.16.18-.26.27-.27.26a2.11,2.11,0,0,1,.21-.31c.15-.2.37-.49.67-.86.58-.77,1.46-1.78,2.59-3.06A123.52,123.52,0,0,1,55,189.43c3.81-3.4,7.34-6.46,9.88-8.66l3.05-2.59.84-.7A2.48,2.48,0,0,1,69,177.29Z"/><path class="cls-4" d="M51.09,193.17c-.1,0,.7-1.9,1.52-4.23s1.19-4.31,1.29-4.3a14,14,0,0,1-1,4.43,26.12,26.12,0,0,1-1.19,3A4.64,4.64,0,0,1,51.09,193.17Z"/><path class="cls-4" d="M40.5,208.08a4.36,4.36,0,0,1-.6-.68c-.39-.52-.9-1.16-1.52-1.94-1.27-1.64-3.06-3.91-5-6.39s-3.82-4.7-5.09-6.31l-1.53-1.91a5.91,5.91,0,0,1-.54-.77,4.91,4.91,0,0,1,.65.64l1.62,1.84c1.37,1.58,3.21,3.78,5.18,6.26s3.7,4.78,4.92,6.46c.61.84,1.09,1.53,1.42,2A5.73,5.73,0,0,1,40.5,208.08Z"/><path class="cls-4" d="M35.78,202a8.72,8.72,0,0,1-1.93-3.7,10.23,10.23,0,0,1-.45-3.73h.16c-.08.29-.12.44-.15.43s0-.16,0-.46h.16a16.52,16.52,0,0,0,.62,3.63A29.15,29.15,0,0,0,35.78,202Z"/><path class="cls-4" d="M29.69,194.37a6.46,6.46,0,0,0-1.37-.8,9.14,9.14,0,0,0-3.82-.3,24.06,24.06,0,0,0-3.86.62,10.4,10.4,0,0,1-1.58.38,5.65,5.65,0,0,1,1.53-.62,17.37,17.37,0,0,1,3.9-.76,8.29,8.29,0,0,1,4,.42A2.41,2.41,0,0,1,29.69,194.37Z"/><path class="cls-4" d="M28.25,192.52s-.8-.32-2.11-.77a21.28,21.28,0,0,0-10.62-.81c-1.36.24-2.19.49-2.2.44s.19-.11.56-.24a12.52,12.52,0,0,1,1.59-.45,18.84,18.84,0,0,1,10.74.82,14.94,14.94,0,0,1,1.53.69C28.08,192.4,28.27,192.5,28.25,192.52Z"/><path class="cls-4" d="M40.45,184.67a42.94,42.94,0,0,1-1.52-5.35,41.88,41.88,0,0,1-1.2-5.44,45.31,45.31,0,0,1,1.53,5.35A44,44,0,0,1,40.45,184.67Z"/><path class="cls-4" d="M40.55,184.67a26.48,26.48,0,0,0-1.71-3.2,14.37,14.37,0,0,0-2.51-2.6,2.27,2.27,0,0,1,1,.51,7.78,7.78,0,0,1,1.83,1.88A7,7,0,0,1,40.55,184.67Z"/><path class="cls-4" d="M40.48,255.2s-.12-.59-.39-1.64a24.26,24.26,0,0,0-1.66-4.26A59.21,59.21,0,0,0,29.7,237c-1.95-2.23-3.82-4.32-5.44-6.34a43.46,43.46,0,0,1-3.89-5.61,25.87,25.87,0,0,1-2-4.16c-.19-.51-.32-.92-.39-1.19a2.23,2.23,0,0,1-.1-.43s.21.56.62,1.57a31.18,31.18,0,0,0,2,4.09,47.44,47.44,0,0,0,3.94,5.53c1.61,2,3.5,4.08,5.45,6.31a56.44,56.44,0,0,1,8.68,12.41,21.74,21.74,0,0,1,1.53,4.34c.09.41.16.82.21,1.24A2.2,2.2,0,0,1,40.48,255.2Z"/><path class="cls-4" d="M59.91,233.26a8.45,8.45,0,0,1-1,.56,21.18,21.18,0,0,0-2.64,1.75,29.71,29.71,0,0,0-3.47,3.16c-1.22,1.29-2.47,2.78-3.76,4.39-2.56,3.21-5,6-6.38,8.32A27.47,27.47,0,0,0,41,254.17a9.21,9.21,0,0,1-.55,1,.77.77,0,0,1,.09-.29c.09-.18.18-.45.34-.8a30.56,30.56,0,0,1,1.53-2.81,95.5,95.5,0,0,1,6.32-8.4,57.64,57.64,0,0,1,3.82-4.38,27.13,27.13,0,0,1,3.55-3.14,18.64,18.64,0,0,1,2.73-1.67c.34-.17.62-.27.76-.36S59.91,233.24,59.91,233.26Z"/><path class="cls-4" d="M60.29,240.37a14.24,14.24,0,0,1-2.16.32,27.88,27.88,0,0,0-5.1,1,15.55,15.55,0,0,0-4.58,2.4c-1.05.81-1.53,1.48-1.6,1.45s.09-.19.32-.5a8.7,8.7,0,0,1,1.12-1.15,13.93,13.93,0,0,1,4.58-2.54,23.53,23.53,0,0,1,5.2-.92A11.75,11.75,0,0,1,60.29,240.37Z"/><path class="cls-4" d="M47.49,244.76c-.12-.06.85-1.53,1.61-3.54s.87-3.76,1-3.76a3.76,3.76,0,0,1,0,1.16,11.68,11.68,0,0,1-.63,2.72,12.35,12.35,0,0,1-1.25,2.49A3.66,3.66,0,0,1,47.49,244.76Z"/><path class="cls-4" d="M66.2,214.13a1.63,1.63,0,0,1-.34.19l-1,.46a16.69,16.69,0,0,0-1.59.76c-.6.34-1.32.64-2.06,1.08l-1.17.67c-.41.24-.81.52-1.24.77-.87.52-1.73,1.17-2.66,1.83a50.46,50.46,0,0,0-5.55,4.88,51.19,51.19,0,0,0-4.69,5.71c-.62,1-1.24,1.84-1.74,2.73-.25.44-.52.85-.76,1.26l-.63,1.2c-.42.76-.72,1.47-1,2.09s-.52,1.16-.69,1.61-.32.77-.43,1a1.62,1.62,0,0,1-.17.35,1.64,1.64,0,0,1,.1-.38c.1-.27.23-.62.37-1.05a15.48,15.48,0,0,1,.64-1.64c.27-.63.56-1.36,1-2.13.19-.39.4-.76.61-1.21a10,10,0,0,1,.76-1.28c.49-.9,1.1-1.8,1.72-2.76A44,44,0,0,1,56,219.61c.94-.66,1.82-1.3,2.7-1.82.43-.26.84-.53,1.26-.76l1.19-.65a22.68,22.68,0,0,1,2.09-1c.62-.28,1.16-.53,1.62-.69l1-.4A2,2,0,0,1,66.2,214.13Z"/><path class="cls-4" d="M50.83,224.48a2.36,2.36,0,0,1,.84-1.26,5.37,5.37,0,0,1,3.4-1.31,9.41,9.41,0,0,1,3.59.7,4.84,4.84,0,0,1,1.35.66,8.71,8.71,0,0,1-1.43-.42,10.69,10.69,0,0,0-3.49-.58,5.51,5.51,0,0,0-3.26,1.14A8.45,8.45,0,0,0,50.83,224.48Z"/><path class="cls-4" d="M48.53,226.81a13.2,13.2,0,0,0,1-3.15,12.88,12.88,0,0,0-.21-3.28,2,2,0,0,1,.39.92,6.49,6.49,0,0,1-.55,4.71C48.82,226.56,48.56,226.83,48.53,226.81Z"/><path class="cls-4" d="M23.48,258.73c.53,9.4,3.36,19,7.73,28.64H50.16c4.16-9.57,6.79-19.1,7.26-28.64Z"/><path class="cls-5" d="M54.35,274c0,.1-6.24.17-13.94.17s-13.94-.07-13.94-.17,6.24-.18,13.94-.18S54.35,273.85,54.35,274Z"/><path class="cls-5" d="M53.93,277.35c0,.1-5.85.18-13.07.18s-13.07-.08-13.07-.18,5.85-.17,13.07-.17S53.93,277.25,53.93,277.35Z"/><path class="cls-5" d="M31.51,264.9a53,53,0,0,1,0,8.73A53,53,0,0,1,31.51,264.9Z"/><path class="cls-5" d="M41.66,264.9a54.7,54.7,0,0,1,0,9.05A59.44,59.44,0,0,1,41.66,264.9Z"/><path class="cls-5" d="M51.2,264.83a61.69,61.69,0,0,1,0,9.22A61.69,61.69,0,0,1,51.2,264.83Z"/><path class="cls-5" d="M56.82,264.9c0,.1-7.32.18-16.35.18s-16.34-.08-16.34-.18,7.31-.17,16.34-.17S56.82,264.8,56.82,264.9Z"/><rect class="cls-6" x="95.85" y="180.33" width="47.57" height="42.83"/><rect class="cls-7" x="102.06" y="198.58" width="35.16" height="13.1" rx="3.83"/><path class="cls-4" d="M143.16,188.44c0,.08-10.49.13-23.41.13s-23.4,0-23.4-.13,10.49-.12,23.4-.12S143.16,188.39,143.16,188.44Z"/><path class="cls-4" d="M101.16,185.27a1.18,1.18,0,1,1-1.18-1.18,1.18,1.18,0,0,1,1.18,1.18Z"/><path class="cls-4" d="M104.64,185.27a1.18,1.18,0,1,1-2.36,0,1.18,1.18,0,0,1,1.18-1.18h0a1.17,1.17,0,0,1,1.17,1.18Z"/><path class="cls-4" d="M108.13,185.27a1.18,1.18,0,1,1-2.36,0,1.18,1.18,0,1,1,2.36,0Z"/><path class="cls-8" d="M111.22,205.49v.58a1,1,0,0,1-2,0V203.8a1,1,0,0,1,2,0v.41h-.66v-.46c0-.31-.14-.43-.35-.43s-.36.12-.36.43v2.35c0,.31.14.42.36.42s.35-.11.35-.42v-.62Z"/><path class="cls-8" d="M111.62,202.76h.69v3.73h1.12v.62h-1.81Z"/><path class="cls-8" d="M113.73,202.76h.69v4.35h-.69Z"/><path class="cls-8" d="M116.9,205.49v.58a1,1,0,0,1-.8,1.09h-.22c-.67,0-1-.41-1-1.1V203.8c0-.69.34-1.09,1-1.09a1,1,0,0,1,1,.88,1.48,1.48,0,0,1,0,.21v.41h-.65v-.46c0-.31-.13-.43-.35-.43s-.36.12-.36.43v2.35c0,.31.14.42.36.42s.35-.11.35-.42v-.62Z"/><path class="cls-8" d="M118.21,205.38l-.21.4v1.33h-.67v-4.35H118v1.9l.89-1.9h.69l-1,2,1,2.42h-.7Z"/><path class="cls-8" d="M121.54,207.11h-.68v-4.35h.68v1.87h.78v-1.87H123v4.35h-.69v-1.88h-.78Z"/><path class="cls-8" d="M124.2,204.59h.94v.64h-.94v1.27h1.18v.63h-1.87v-4.36h1.87v.63H124.2Z"/><path class="cls-8" d="M127.23,207.11a1.57,1.57,0,0,1-.06-.53v-.69c0-.4-.14-.55-.45-.55h-.24v1.77h-.68v-4.35h1a.89.89,0,0,1,1,1v.34a.88.88,0,0,1-.45.89c.35.14.46.47.46.92v.68a1.21,1.21,0,0,0,.07.5Zm-.75-3.73v1.34h.27c.26,0,.42-.11.42-.46v-.43c0-.31-.11-.44-.35-.44Z"/><path class="cls-8" d="M129,204.59h.94v.64H129v1.27h1.18v.63h-1.86v-4.36h1.86v.63H129Z"/><path class="cls-8" d="M339.25,100.84s19.42-9.5,23.69-7.86,8.38,11.46-7.95,20.86-11.47,26.93-11.47,26.93h11.66s7,2.85,9.7,6.51,4.67,16.15,6.22,20.39.76,8.47-3.5,9.85c0,0-2.72,11.85-1.94,17.1s.39,8.64-4.66,9.28a8.82,8.82,0,0,1-9.68-7.85,9.73,9.73,0,0,1,0-1.43l-3.88,14.08,2.72,5.4a35.22,35.22,0,0,1,10.48,6.35c5.44,4.66,10.88,5.94,9.32,11.13s-4.66,10.79-21,4.3-29.9-32-29.9-32l-9.8-88.9Z"/><path class="cls-9" d="M361.56,152.18c-8.8,12,.94,25.82.94,25.82s-6.09,3.4-6.27,12.06c-.07,3.6.84,8.64,1.92,13.3a8.74,8.74,0,0,1-5-8.46L349.28,209l2.72,5.4a33.44,33.44,0,0,1,8,4.41c-2.41,5.54-3.15,12.4-2.94,19.46a53.08,53.08,0,0,1-6.24-2.08c-16.31-6.5-29.9-32-29.9-32l-9.8-88.9,30-14.16s10.61-5.19,17.88-7.23a58.31,58.31,0,0,0,1.72,17.73,42.49,42.49,0,0,1-3.86,2.51C340.55,123.52,345.4,141,345.4,141h11.66s6.64,2.72,9.48,6.24A19.17,19.17,0,0,0,361.56,152.18Z"/><path class="cls-10" d="M311.6,115l30-14.16S361,91.34,365.28,93s8.38,11.46-7.95,20.86-11.47,26.93-11.47,26.93h11.66s7,2.85,9.71,6.51,4.66,16.15,6.21,20.39.76,8.47-3.5,9.85c0,0-2.71,11.85-1.94,17.1s.39,8.64-4.66,9.28a8.82,8.82,0,0,1-9.68-7.85,9.73,9.73,0,0,1,0-1.43l-3.88,14.08,2.72,5.4A35.22,35.22,0,0,1,363,220.45c5.44,4.66,10.88,5.94,9.32,11.13s-4.66,10.79-21,4.3-29.9-32-29.9-32"/><path class="cls-10" d="M369.94,177.52c-5.82,1.58-12.61.41-15.14-9.9s2.53-21.32,5.82-22.33"/><path class="cls-10" d="M353.63,194.62s-.39-13.25,4.47-16.53"/><path class="cls-8" d="M306.73,232v.4h-3.05V232l1.81-1.77c.49-.48.58-.76.58-1.07,0-.51-.35-.81-1-.81a1.51,1.51,0,0,0-1.19.48l-.32-.28a2,2,0,0,1,1.52-.61c.88,0,1.44.45,1.44,1.17a1.78,1.78,0,0,1-.72,1.36L304.32,232Z"/><path class="cls-8" d="M307.26,230.19c0-1.39.73-2.21,1.73-2.21s1.74.82,1.74,2.21-.76,2.2-1.74,2.2S307.26,231.57,307.26,230.19Zm3,0c0-1.16-.52-1.8-1.28-1.8s-1.28.64-1.28,1.8S308.24,232,309,232s1.28-.64,1.28-1.79Z"/><path class="cls-8" d="M311.37,230.19c0-1.39.76-2.21,1.73-2.21s1.74.82,1.74,2.21-.76,2.2-1.74,2.2S311.37,231.57,311.37,230.19Zm3,0c0-1.16-.51-1.8-1.27-1.8s-1.28.64-1.28,1.8.52,1.79,1.28,1.79,1.24-.64,1.24-1.79Z"/><path class="cls-11" d="M311.93,228.11s-5.87,29.8-41.89,36.55c0,0-9.4,7.5-12.53,11.94s-19.8,12-36.78,35.54-42.27-51.23-42.27-51.23l55.88-72.57Z"/><path class="cls-8" d="M313.59,213.79s-21.12,41.42-59.2,50.81c0,0-1.45,8.2-7.89,11.71C243.06,278.19,229.17,299,217,318l-67.53-41.43c4.16-4.11,8.9-8.85,13.71-13.79,14.09-14.36,29.12-30.46,33.72-38.42,4.11-7.09,9.31-19.38,13.84-30.93,5.81-14.77,10.53-28.34,10.53-28.34l22.51-25,35.39-39.34,1.52,5Z"/><path class="cls-9" d="M279.17,100.72l34.42,113.07s-21.12,41.42-59.2,50.81c0,0-1.45,8.2-7.89,11.71-3.09,1.69-14.6,18.63-25.73,35.8,4.12-14.17,16.07-36.75,16.07-36.75-7.67-9.08-5.43-18.65-2.36-15.93s10.78,10.39,11.27,10.87c-3.39-4-4.17-10.24-4.17-10.24s9.5,6.32,10.27-3.81-5.7-34.88-5.7-34.88l-17-65.08Z"/><path class="cls-9" d="M214.31,247.83s-14.23-1.77-17.41-8.14c-2.63-5.27-16.87,14.47-33.72,23.09,14.09-14.36,29.12-30.46,33.72-38.42,4.11-7.09,9.31-19.38,13.84-30.93h0c-.22,9.58-5.33,24.25-3.87,31.89a6.11,6.11,0,0,0-4.38,7.41C203.58,238.8,214.31,247.83,214.31,247.83Z"/><path class="cls-10" d="M313.59,213.79s-21.12,41.42-59.2,50.81c0,0-1.45,8.2-7.89,11.71C243.06,278.19,229.17,299,217,318"/><path class="cls-10" d="M149.44,276.57c16.27-16.07,41.27-41.56,47.46-52.21,9.37-16.12,24.37-59.28,24.37-59.28l57.87-64.36"/><path class="cls-10" d="M246.12,149.87s8.89,8,11.42,15.23"/><path class="cls-8" d="M255.48,201.79c1.15,17.55-7,37.1-7,37.1l-43.93-12.37-7.66-2.16c7.62-10.58,11.24-31.42,9.25-48.28-.15-1.27-.24-2.46-.31-3.61-.76-13.9,5-18,9.9-24.11,5.33-6.66,17.19-31.79,17.19-37.74s14.89-20.5,11.58-37c0,0,4.5-2.79,9-.5,2.06,1,4.11,3.11,5.76,7,3.88,9-1.57,34.65-6.2,40.92l-8.92,36.92a79.11,79.11,0,0,1,6,14.6A125.67,125.67,0,0,1,255.48,201.79Z"/><path class="cls-9" d="M205.84,172.47c2.49,6.82,5.13,11.43,4.9,21s-5.33,24.24-3.87,31.88a6.86,6.86,0,0,0-2.29,1.19l-7.66-2.16c7.62-10.58,11.24-31.42,9.26-48.28C206,174.81,205.91,173.62,205.84,172.47Z"/><path class="cls-9" d="M253.09,121l-8.92,36.92a79.11,79.11,0,0,1,6,14.6h0c-6-9.73-11.17-12.64-11.17-12.64,4-4.82,7.12-40.08,7.12-40.08s12.6-14.81,11.42-30.31a49.3,49.3,0,0,0-4-16.38c2.06,1,4.11,3.11,5.76,7C263.17,89.11,257.72,114.71,253.09,121Z"/><path class="cls-10" d="M196.9,224.36c7.62-10.58,11.24-31.42,9.26-48.28s4.29-21.07,9.59-27.73,17.18-31.78,17.18-37.73,14.88-20.5,11.58-37c0,0,9.5-5.88,14.78,6.47,3.88,9.06-1.57,34.65-6.2,40.93l-8.91,36.91s9.51,16.41,11.3,43.89c1.15,17.55-7,37.1-7,37.1"/><path class="cls-10" d="M226.26,252.94s10,6.15,15.84,15.88"/><path class="cls-10" d="M254.35,264.58s-8.61,1.23-16.4-8.09c-5-6-20.13-8.66-23.6-24.25"/><polygon class="cls-6" points="397.18 0.86 397.18 44.25 397.18 52.96 405.57 44.25 445.37 44.25 445.37 0.86 397.18 0.86"/><path class="cls-4" d="M445.12,9.1c0,.07-10.62.13-23.72.13s-23.72-.06-23.72-.13S408.29,9,421.4,9,445.12,9,445.12,9.1Z"/><path class="cls-4" d="M402.56,5.87a1.2,1.2,0,1,1-1.2-1.19h0A1.19,1.19,0,0,1,402.56,5.87Z"/><path class="cls-4" d="M406.09,5.87a1.2,1.2,0,1,1-1.19-1.2h0A1.2,1.2,0,0,1,406.09,5.87Z"/><path class="cls-4" d="M409.62,5.87a1.19,1.19,0,1,1-1.19-1.19A1.19,1.19,0,0,1,409.62,5.87Z"/><path class="cls-4" d="M414.6,28.13h-3.19l-.59,1.47h-2.18L412,22.05h2.1l3.35,7.55h-2.23ZM414,26.55l-1-2.41-1,2.41Z"/><path class="cls-4" d="M418,22.05h3.57c2.5,0,4.21,1.45,4.21,3.77s-1.71,3.78-4.21,3.78H418Zm3.48,5.84a2.07,2.07,0,1,0,0-4.14h-1.35v4.14Z"/><path class="cls-4" d="M426.4,28.91l.7-1.57a4.77,4.77,0,0,0,2.49.74c.88,0,1.23-.25,1.23-.61,0-1.2-4.29-.32-4.29-3.13,0-1.36,1.09-2.45,3.34-2.45a5.69,5.69,0,0,1,2.74.66L432,24.14a4.42,4.42,0,0,0-2.09-.59c-.91,0-1.22.31-1.22.68,0,1.16,4.28.3,4.28,3.07,0,1.32-1.1,2.44-3.34,2.44A5.91,5.91,0,0,1,426.4,28.91Z"/><polygon class="cls-8" points="469.49 82.18 408.93 82.18 409.24 124.61 415.85 124.61 415.85 134.42 424.81 124.61 469.8 124.61 469.49 82.18"/><path class="cls-12" d="M469.49,82.19v.74c0,.5,0,1.26,0,2.22,0,1.95.05,4.81.08,8.49.07,7.37.16,18,.28,31v.09h-.09l-44.95,0,.08,0-9,9.81-.18.21V124.61l.1.11h-6.74v-.11c-.11-15.28-.21-29.68-.3-42.42v-.1h.1l43.82,0,12.36,0h0l-12.38,0-43.76,0,.1-.1c.09,12.74.2,27.15.32,42.42l-.11-.11H416v9.92l-.19-.07,9-9.76,0,0h45.06l-.09.09c-.07-13-.14-23.55-.18-30.91,0-3.68,0-6.56,0-8.51V82.94C469.51,82.43,469.49,82.19,469.49,82.19Z"/><path class="cls-13" d="M469.18,88.17s-13.42.09-30,.09-30,0-30-.09,13.41-.1,30-.1S469.18,88.11,469.18,88.17Z"/><ellipse class="cls-4" cx="411.72" cy="85.79" rx="0.8" ry="0.88"/><ellipse class="cls-4" cx="414.1" cy="85.79" rx="0.8" ry="0.88"/><ellipse class="cls-4" cx="416.46" cy="85.79" rx="0.8" ry="0.88"/><circle class="cls-14" cx="440.04" cy="103.38" r="8.54"/><path class="cls-8" d="M438,105.88v-5a.32.32,0,0,1,.32-.32.27.27,0,0,1,.16,0L443,103.1a.33.33,0,0,1,.12.44.34.34,0,0,1-.12.12l-4.51,2.51a.32.32,0,0,1-.43-.12A.34.34,0,0,1,438,105.88Z"/><rect class="cls-13" x="412.94" y="119.22" width="52.29" height="0.26"/><rect class="cls-15" x="412.9" y="118.94" width="16.34" height="0.69"/><ellipse class="cls-16" cx="428.97" cy="119.35" rx="0.79" ry="0.87"/><circle class="cls-17" cx="469.03" cy="84.03" r="5.76"/><rect class="cls-8" x="466.43" y="83.45" width="5.2" height="1.16" transform="translate(77.95 356.26) rotate(-45)"/><rect class="cls-8" x="468.44" y="81.43" width="1.16" height="5.2" transform="translate(77.96 356.26) rotate(-45)"/><polygon class="cls-8" points="181.12 7.39 181.12 57.27 227.26 57.27 237.23 64.88 237.23 57.27 237.23 55.31 237.23 7.39 181.12 7.39"/><path class="cls-13" d="M236.41,17.17c0,.09-12.37.16-27.62.16s-27.63-.07-27.63-.16S193.53,17,208.79,17,236.41,17.09,236.41,17.17Z"/><path class="cls-4" d="M190.34,39.2a1.28,1.28,0,1,1-1.28-1.28h0A1.28,1.28,0,0,1,190.34,39.2Z"/><path class="cls-4" d="M191,13.41A1.4,1.4,0,1,1,189.59,12h0A1.39,1.39,0,0,1,191,13.41Z"/><path class="cls-4" d="M195.1,13.41A1.4,1.4,0,1,1,193.7,12a1.4,1.4,0,0,1,1.4,1.39Z"/><circle class="cls-18" cx="236.41" cy="7.58" r="7.58"/><rect class="cls-8" x="232.99" y="6.82" width="6.83" height="1.53" transform="translate(63.88 169.39) rotate(-45)"/><rect class="cls-8" x="235.64" y="4.16" width="1.53" height="6.83" transform="translate(63.88 169.38) rotate(-45)"/><polygon class="cls-8" points="182.55 146.36 182.5 146.36 182.5 85.01 106.11 85.01 106.11 146.53 172.6 146.53 182.55 156.5 182.55 146.36"/><path class="cls-2" d="M179.67,146.36v10.23l-.06-.06-10-10h0l-66.64,0h-.1V84.91h76.76V85c0,18.55,0,33.84,0,44.53,0,5.34,0,9.53,0,12.39v4.43h0a1.6,1.6,0,0,1,0-.31v-4.12c0-2.86,0-7,0-12.39,0-10.69,0-26,0-44.53l.08.09H103.07l.11-.11v61.51l-.1-.09,66.64,0h0l10,10-.06,0C179.66,150,179.67,146.63,179.67,146.36Z"/><path class="cls-13" d="M182.67,91.85c0,.06-17.14.11-38.28.11s-38.29,0-38.29-.11,17.14-.11,38.29-.11S182.67,91.79,182.67,91.85Z"/><path class="cls-4" d="M110.55,88.53a1,1,0,1,1-1-1h0A1,1,0,0,1,110.55,88.53Z"/><path class="cls-4" d="M113.4,88.53a1,1,0,0,1-1,1,1,1,0,1,1,0-1.93h0A1,1,0,0,1,113.4,88.53Z"/><circle class="cls-4" cx="115.29" cy="88.53" r="0.97"/><circle class="cls-19" cx="182.72" cy="86.94" r="7.24"/><rect class="cls-8" x="179.46" y="86.21" width="6.53" height="1.45" transform="translate(-7.96 154.67) rotate(-45)"/><rect class="cls-8" x="182" y="83.68" width="1.45" height="6.53" transform="translate(-7.96 154.67) rotate(-45)"/><polygon class="cls-20" points="141.55 93.29 147.21 99.13 155.13 97.28 156.74 105.25 164.4 107.98 161.44 115.56 166.41 121.99 159.83 126.77 160.53 134.87 152.41 135.33 148.62 142.53 141.55 138.52 134.47 142.53 130.68 135.33 122.56 134.87 123.26 126.77 116.68 121.99 121.65 115.56 118.69 107.98 126.35 105.25 127.96 97.28 135.88 99.13 141.55 93.29"/><g class="cls-21"><path d="M138.43,111.48c0-1.65-.57-2.1-1.49-2.1s-1.5.51-1.5,1.81v1.18h-2.72v-1c0-2.94,1.47-4.62,4.3-4.62s4.3,1.68,4.3,4.62v.47c0,2-.63,3.2-2,3.78,1.45.62,2,2,2,3.86v1.43c0,2.95-1.47,4.62-4.3,4.62s-4.3-1.67-4.3-4.62v-1.52h2.72v1.7c0,1.32.58,1.81,1.5,1.81s1.49-.44,1.49-2.07v-1.44c0-1.71-.57-2.34-1.88-2.34h-1v-2.62h1.12c1.08,0,1.73-.47,1.73-1.94Z"/><path d="M143,111.38c0-2.94,1.52-4.62,4.38-4.62s4.38,1.68,4.38,4.62v9.55c0,2.94-1.53,4.61-4.38,4.61s-4.38-1.67-4.38-4.61Zm2.88,9.73c0,1.31.58,1.81,1.5,1.81s1.49-.51,1.49-1.81v-9.92c0-1.31-.57-1.81-1.49-1.81s-1.5.51-1.5,1.81Z"/></g><g class="cls-21"><path d="M152.56,106.82a.76.76,0,0,1,.63-.88.77.77,0,0,1,.89.63.53.53,0,0,1,0,.25v1.67a.77.77,0,1,1-1.52.25.53.53,0,0,1,0-.25Zm.51,1.71c0,.23.09.32.26.32s.26-.09.26-.32v-1.75c0-.22-.1-.32-.26-.32s-.26.1-.26.32Zm2.26-2.49h.48l-2,5.09h-.47Zm-.25,2.65a.78.78,0,0,1,1.53-.25,1,1,0,0,1,0,.25v1.66a.78.78,0,0,1-1.53.25,1,1,0,0,1,0-.25Zm.51,1.7c0,.23.09.32.26.32s.26-.09.26-.32v-1.75c0-.22-.1-.31-.26-.31s-.26.09-.26.31Z"/></g><g class="cls-21"><path d="M136.33,126.47c1.14,0,1.73.68,1.73,1.88v.24H137v-.31c0-.51-.21-.74-.59-.74s-.59.2-.59.74c0,1.52,2.3,1.83,2.3,4,0,1.21-.6,1.89-1.75,1.89s-1.76-.68-1.76-1.89v-.45h1.11v.51c0,.53.24.72.61.72s.62-.19.62-.72c0-1.53-2.31-1.84-2.31-4A1.62,1.62,0,0,1,136.33,126.47Z"/><path d="M142.57,134.06h-1.19l-.2-1.36h-1.47l-.2,1.36h-1.07l1.2-7.51h1.73Zm-2.69-2.39H141l-.57-3.76Z"/><path d="M143.11,126.55h1.18V133h1.94v1.08h-3.12Z"/><path d="M147.93,129.72h1.62v1.06h-1.62V133h2v1.08h-3.22v-7.52H150v1.08h-2Z"/></g><path class="cls-8" d="M137.36,112c0-1.65-.58-2.1-1.49-2.1s-1.5.51-1.5,1.81v1.18h-2.73v-1c0-2.94,1.47-4.62,4.3-4.62s4.31,1.68,4.31,4.62v.47c0,2-.64,3.2-2,3.78,1.45.63,2,2,2,3.85v1.45c0,2.93-1.47,4.61-4.31,4.61s-4.3-1.68-4.3-4.61v-1.53h2.73v1.71c0,1.31.57,1.81,1.5,1.81s1.49-.45,1.49-2.08v-1.44c0-1.71-.58-2.33-1.89-2.33h-1V115h1.14c1.08,0,1.74-.47,1.74-1.94Z"/><path class="cls-8" d="M142,111.91c0-2.94,1.53-4.62,4.39-4.62s4.38,1.68,4.38,4.62v9.55c0,2.93-1.53,4.61-4.38,4.61s-4.39-1.68-4.39-4.61Zm2.89,9.73c0,1.32.57,1.81,1.5,1.81s1.49-.51,1.49-1.81v-9.92c0-1.31-.58-1.81-1.49-1.81s-1.5.51-1.5,1.81Z"/><path class="cls-8" d="M151.48,106.82a.77.77,0,0,1,1.52-.25.53.53,0,0,1,0,.25v1.67a.77.77,0,1,1-1.52.25.53.53,0,0,1,0-.25Zm.51,1.71c0,.23.09.32.26.32s.26-.09.26-.32v-1.75c0-.22-.1-.32-.26-.32s-.26.1-.26.32Zm2.27-2.49h.47l-2,5.09h-.47Zm-.26,2.65a.78.78,0,0,1,1.53-.25,1,1,0,0,1,0,.25v1.66a.78.78,0,0,1-1.53.25,1,1,0,0,1,0-.25Zm.51,1.7c0,.23.09.32.26.32s.26-.09.26-.32v-1.75c0-.22-.1-.31-.26-.31s-.26.09-.26.31Z"/><path class="cls-8" d="M135.25,126.47c1.14,0,1.73.68,1.73,1.88v.24h-1.11v-.31c0-.51-.21-.74-.59-.74s-.59.2-.59.74c0,1.52,2.3,1.83,2.3,4,0,1.21-.6,1.89-1.75,1.89s-1.76-.68-1.76-1.89v-.45h1.11v.51c0,.53.24.72.62.72s.61-.19.61-.72c0-1.53-2.3-1.84-2.3-4A1.62,1.62,0,0,1,135.25,126.47Z"/><path class="cls-8" d="M141.49,134.06H140.3l-.2-1.36h-1.45l-.21,1.36h-1.08l1.2-7.51h1.73Zm-2.69-2.39h1.14l-.57-3.76Z"/><path class="cls-8" d="M142,126.55h1.18V133h1.94v1.08H142Z"/><path class="cls-8" d="M146.83,129.72h1.62v1.06h-1.62V133h2v1.08h-3.2v-7.52h3.2v1.08h-2Z"/><path class="cls-13" d="M342.89,231.37l-67.11,0a14.62,14.62,0,0,1-14.61-14.62l0-168.24a14.62,14.62,0,0,1,14.61-14.61l67.11,0a14.63,14.63,0,0,1,14.61,14.63l0,168.24A14.61,14.61,0,0,1,342.89,231.37Z"/><path class="cls-22" d="M342.86,38.4h-13a3.23,3.23,0,0,0-3.16,3.3h0v2.36a3.23,3.23,0,0,1-3.15,3.32H298.17A3.24,3.24,0,0,1,295,44.07h0v-2.4a3.24,3.24,0,0,0-3.16-3.31h-16a10.24,10.24,0,0,0-10.25,10.23h0l0,164.2A10.23,10.23,0,0,0,275.84,223l67,.05a10.25,10.25,0,0,0,10.25-10.24h0l0-164.21A10.23,10.23,0,0,0,342.86,38.4Z"/><g class="cls-23"><rect class="cls-24" x="265.4" y="33.39" width="88.05" height="37.91"/></g><circle class="cls-25" cx="277.21" cy="59.37" r="6.32"/><rect class="cls-26" x="287.74" y="54.45" width="36.04" height="4.21" rx="2.11"/><rect class="cls-26" x="288.67" y="63.34" width="21.53" height="2.34" rx="1.17"/><rect class="cls-27" x="269.01" y="202.83" width="65.53" height="12.17" rx="6.08"/><circle class="cls-24" cx="343.44" cy="208.91" r="6.55"/><polygon class="cls-8" points="340.63 205.17 346.63 209.17 340.63 212.3 343.63 208.73 340.63 205.17"/><path class="cls-28" d="M294.09,79.73h48.15A7.75,7.75,0,0,1,350,87.48v67.61a0,0,0,0,1,0,0h-55.9a7.75,7.75,0,0,1-7.75-7.75V87.48A7.75,7.75,0,0,1,294.09,79.73Z"/><path class="cls-28" d="M295.93,184.11h44.93a6.79,6.79,0,0,1,6.79,6.79v6.79a0,0,0,0,1,0,0H295.93a6.79,6.79,0,0,1-6.79-6.79v0A6.79,6.79,0,0,1,295.93,184.11Z"/><path class="cls-29" d="M298.56,83.47h39a9.12,9.12,0,0,1,9.12,9.12v53.13a0,0,0,0,1,0,0H298.56a9.12,9.12,0,0,1-9.12-9.12v-44A9.12,9.12,0,0,1,298.56,83.47Z"/><rect class="cls-30" x="293.35" y="92.36" width="50.08" height="3.74" rx="1.87"/><rect class="cls-30" x="293.35" y="130.75" width="50.08" height="3.74" rx="1.87"/><rect class="cls-31" x="294.29" y="103.13" width="21.98" height="2.74" rx="1.37"/><rect class="cls-31" x="320.05" y="103.13" width="21.98" height="2.74" rx="1.37"/><rect class="cls-31" x="294.29" y="112.02" width="21.98" height="2.74" rx="1.37"/><rect class="cls-31" x="320.05" y="112.02" width="21.98" height="2.74" rx="1.37"/><rect class="cls-31" x="294.29" y="119.98" width="21.98" height="2.74" rx="1.37"/><rect class="cls-31" x="320.05" y="119.98" width="21.98" height="2.74" rx="1.37"/><path class="cls-29" d="M279.32,161.17h17.3a7.5,7.5,0,0,1,7.5,7.5v4.66a7.5,7.5,0,0,1-7.5,7.5h-24.8a0,0,0,0,1,0,0V168.67A7.5,7.5,0,0,1,279.32,161.17Z"/><rect class="cls-31" x="294.29" y="188.25" width="37.45" height="2.41" rx="1.2"/><rect class="cls-31" x="275.57" y="168.66" width="25.28" height="2.34" rx="1.17"/><text class="cls-32" transform="translate(331.17 152.22)">11.17am</text><text class="cls-32" transform="translate(286.71 177.5)">11.18am</text><text class="cls-32" transform="translate(331.17 196.69)">11.20am</text><path class="cls-11" d="M411.82,285c-22-10.54-8.69-19-39-32.09s-30.64-24.27-27-50,.76-53.08,9.57-55.41-6.89-37.8,3.39-50.34l50.59,98.42Z"/><path class="cls-8" d="M491.63,288.14c-1-3-2.09-6.2-2.9-9.14a45,45,0,0,0-3.81-10.39c-.31-.57-.63-1.16-1-1.8a63.41,63.41,0,0,1-6.54-14.9c-1.11-4.16,0-14.42,1-24.37.77-7.14,1.46-13.88,1.25-17.7l-.06-1.36c-.51-10-1.6-30.8-3.8-36.55-2.17-5.54-4.2-6.37-7.89-7.85-.38-.17-.77-.32-1.21-.5-1.38-.58-3.74-1.8-6.46-3.21-6.13-3.17-13.76-7.13-17.64-7.61a34.5,34.5,0,0,0-10.87.5c-4.77-3.66-12.9-8.38-15.32-8.48-2-.1-6.3,1.15-8.37,1.79l-1.05.34a31,31,0,0,0-4.16-2.73l-.28-.13c-2.69-1.1-6.74-1.14-9-1.08a13.63,13.63,0,0,0-1.43.09c-4.18-6.43-8.29-12.84-10.08-15.65-3.74-5.91-15.29-30.22-15.4-30.46a.22.22,0,0,0-.15-.12h-.11c-.9-.26-7.52-1.94-10.17,4.47-2.91,7,1.24,22.31,5.29,27.88,1.95,2.68,7.27,13.62,12.67,24.93-1.39,1.29-12.47,11.53-17.86,13.44-4.41,1.56-3.37,24.16-2.54,42.31.31,6.7.57,12.47.49,15.93-.15,6.7,12,15.93,23.86,24.86,10.66,8.09,21.72,16.44,23,22.51a11.69,11.69,0,0,0,2.6,4.65c2,2.59,4.65,5.64,5.77,11.42.32,1.74,3.11,4,5.33,7.72h80C494.19,295.14,492.92,291.85,491.63,288.14ZM380.7,167.74c3.87,8.12,6.27,12.95,6.85,13.49s.54,3.11.53,5.62a45.05,45.05,0,0,0,.22,6.57c-.94.83-6.9,6.26-8.11,10.66l-5.06-6-1.28-18.71C374.61,178.6,379.82,173.1,380.7,167.74Z"/><path class="cls-9" d="M468.68,219.91c1.88,17.55,1.9,27.07,4,32.15,3.56,8.57,8.81,10.31,8.81,10.31a53.29,53.29,0,0,1-4.14-10.44c-1.1-4.17,0-14.43,1-24.37.76-7.14,1.46-13.89,1.26-17.71l-.06-1.36c-.52-10-1.6-30.79-3.81-36.55-2.16-5.55-4.2-6.38-7.89-7.86l-1.2-.5c-1.39-.57-3.74-1.79-6.47-3.2-6.13-3.18-13.76-7.13-17.64-7.62a34.15,34.15,0,0,0-10.86.51c-4.78-3.67-12.9-8.38-15.33-8.48-2-.1-7.34,1.46-9.43,2.13,9.14,7.45,22.3,16.75,22.3,16.75,10.41,2.07,9.07,6.59,13.29,9.14,3.8,2.28,7.44-4.41,10.66-5,4.2-.76,9,3.67,8.76,9.05C461.33,191.68,467.06,204.84,468.68,219.91Z"/><path class="cls-9" d="M416.05,165.51s-8.24-6.85-12.18-9.14-4.57-10.16-1.46-12.07a.89.89,0,0,1,.39-.12l-.29-.13c-2.68-1.1-6.74-1.15-9-1.08,4.57,8.51,8.22,15,9.2,16.46C406.06,164.22,416.05,165.51,416.05,165.51Z"/><path class="cls-9" d="M403.54,272.09c.35-1.82-2.65-7.15-4-9.31-3-4.94-37.75-35.64-32.71-43.83s9.63-2.14,12.81-1.6c2.29.38,8.56-3.36,8.53-3.67-.71-6.32,5.11-10.42,5.11-10.42s-.53-25.13-1.87-24.7-17.38-37.74-17.38-37.74-16.95-22.54-16-33,8.32-10.7,8.32-10.7v-.29c-.9-.25-7.52-1.94-10.18,4.47-2.91,7,1.24,22.32,5.29,27.88,1.95,2.68,7.28,13.62,12.68,24.94-1.39,1.28-12.48,11.53-17.86,13.44-4.41,1.56-3.37,24.16-2.54,42.31.31,6.7.57,12.46.49,15.93-.15,6.7,12,15.93,23.86,24.85,10.66,8.09,21.72,16.44,23,22.51a11.72,11.72,0,0,0,2.6,4.66A31.69,31.69,0,0,1,403.54,272.09ZM380.7,167.77c3.87,8.11,6.27,12.94,6.85,13.48s.54,3.12.53,5.62a45.05,45.05,0,0,0,.22,6.57c-.94.83-6.9,6.26-8.11,10.66l-5.06-6-1.28-18.71c.76-.83,6-6.33,6.85-11.69Z"/><path class="cls-10" d="M411.33,165.41a17.22,17.22,0,0,1-8.56-6c-3.48-4.66-17.15-25.89-20.94-31.88S366.4,97.07,366.4,97.07s-7.16-2.4-9.95,4.28,1,21.8,5.27,27.62,24.4,50.61,26,52.06-.8,13.4,2.41,16.3"/><path class="cls-10" d="M388.59,193.53s-7.39,6.43-8.26,11.13l-5.48-6.45-1.3-18.9s6.62-6.63,7-12.52"/><path class="cls-10" d="M374.49,154.09s-12.27,11.57-18.1,13.64-1.58,45.43-1.87,58,44.13,34.43,46.86,47.29c1.08,5.11,5.56,6.16,8.29,16"/><path class="cls-10" d="M392,143.31s6.68-.6,10.44,1,19,14.69,22.73,17.2,9.23,3.45,10.28,6.16"/><path class="cls-10" d="M406.89,147.18s6.85-2.28,9.47-2.15,12.47,5.94,16.89,9.82a37.6,37.6,0,0,0,11.51,7"/><path class="cls-10" d="M431.64,153.53a33.49,33.49,0,0,1,10.89-.52c5.58.76,19.57,9,24,10.84s6.59,2.2,8.94,8.2,3.42,28.82,3.89,37.83-4.23,34.84-2.29,42.11,5.45,12.87,7.57,16.75"/><path class="cls-10" d="M373.55,179.31s-1.06-4.46-2.58-5"/><path class="cls-10" d="M374.85,198.21a56.14,56.14,0,0,0,2.08,7.65c1.09,2.71-.61,6.62-.61,6.62"/><path class="cls-10" d="M380.33,204.66c-.17,4.33,4.13,9.38,5.17,8.67"/><path class="cls-10" d="M402.24,179.31s4.62-7.48,9.06-7.84,9.54,5.92,12.28,5.33,6.17-4.62,10.77-5.33,6.76,1.47,10.41,1.66,4-4.69,8.37-5.33,5.84,1.52,8.77,2.08,3.65-1.74,6-3"/><path class="cls-33" d="M202.29,23.67c.2,0,.4.07.6.12a10.06,10.06,0,0,1,4.59,2.53,3,3,0,0,1,.39.48,1.32,1.32,0,0,1-.25,1.81,3.4,3.4,0,0,1-1.41.7,9.43,9.43,0,0,1-5.16.08,2.83,2.83,0,0,1-2-1.78,3.14,3.14,0,0,1,1.19-3.52,8.11,8.11,0,0,1,1.2-.42Zm3.43,3.74a.71.71,0,0,0-.11-.12c-.62-.38-1.22-.8-1.86-1.13a3.94,3.94,0,0,0-2.24-.48.57.57,0,0,0-.51.37c-.3.87-.16,1.17.63,1.44l.17.06a7.5,7.5,0,0,0,2.91.06C205,27.56,205.36,27.48,205.72,27.41Z"/><path class="cls-34" d="M215.65,23.67a3.37,3.37,0,0,1,1.34.48,2.82,2.82,0,0,1,1.18,2.06,2.72,2.72,0,0,1-2.12,3.18,8.9,8.9,0,0,1-3.91.19,6.44,6.44,0,0,1-2.18-.64,1.7,1.7,0,0,1-.92-1,1.53,1.53,0,0,1,.46-1.55,8.51,8.51,0,0,1,2.35-1.73,7.89,7.89,0,0,1,2.9-1,.15.15,0,0,0,.07,0Zm-4.23,3.67v.1c.47.08.94.18,1.41.23a6.22,6.22,0,0,0,2.61-.17c.79-.26.93-.57.68-1.36a.61.61,0,0,0-.58-.46,3.78,3.78,0,0,0-1.66.25A9,9,0,0,0,211.42,27.34Z"/><path class="cls-35" d="M207.49,44.26v5.32c0,.43-.07.5-.51.5h-8.33a1.27,1.27,0,0,1-1.41-1.42V39.74a1.27,1.27,0,0,1,1.4-1.41h8.25c.47,0,.6.13.6.6Z"/><path class="cls-36" d="M209.57,44.27V39c0-.51.12-.63.62-.63h8.23a1.27,1.27,0,0,1,1.4,1.41v8.94a1.26,1.26,0,0,1-1.38,1.4h-8.38c-.42,0-.49-.08-.49-.5Z"/><path class="cls-37" d="M202,30.62h4.87c.48,0,.59.12.59.6v5.21c0,.41-.1.51-.51.51-3.26,0-6.51,0-9.77,0a1.25,1.25,0,0,1-1.37-1.38V32a1.26,1.26,0,0,1,1.37-1.38Z"/><path class="cls-38" d="M215,30.62h4.77A1.27,1.27,0,0,1,221.22,32v3.5a1.26,1.26,0,0,1-1.41,1.4c-3.2,0-6.4,0-9.61,0h-.26a.35.35,0,0,1-.37-.4V31.07c0-.33.14-.45.49-.45Z"/></g></g></svg>