<svg xmlns="http://www.w3.org/2000/svg" xmlns:xlink="http://www.w3.org/1999/xlink" viewBox="0 0 91.8 91.76"><defs><style>.cls-1{fill:url(#linear-gradient);}.cls-2{fill:#fff;}</style><linearGradient id="linear-gradient" y1="45.88" x2="91.8" y2="45.88" gradientUnits="userSpaceOnUse"><stop offset="0" stop-color="#00ffaf"/><stop offset="0.06" stop-color="#00edad"/><stop offset="0.32" stop-color="#00a6a7"/><stop offset="0.55" stop-color="#006ea2"/><stop offset="0.75" stop-color="#00469f"/><stop offset="0.91" stop-color="#002d9d"/><stop offset="1" stop-color="#00249c"/></linearGradient></defs><g id="Layer_2" data-name="Layer 2"><g id="Layer_1-2" data-name="Layer 1"><path class="cls-1" d="M91.8,43.22V48.6c-.07.65-.15,1.29-.22,1.94A44.56,44.56,0,0,1,80.44,76.05C69.51,88.19,55.83,93.3,39.59,91.35a43,43,0,0,1-18.17-6.66,1.76,1.76,0,0,0-1.66-.2C14.52,86.2,9.26,87.87,4,89.55l-1,.31c1.75-5.24,3.42-10.31,5.18-15.34a3.16,3.16,0,0,0-.41-3.18,44.86,44.86,0,0,1-7.56-30A43.6,43.6,0,0,1,7.66,20.55,45.36,45.36,0,0,1,38,.71C39.71.4,41.46.23,43.2,0h5.38a5.67,5.67,0,0,0,.69.15,43.72,43.72,0,0,1,20,6.31C81.2,13.75,88.52,24.26,91.09,38,91.41,39.73,91.57,41.48,91.8,43.22Z"/><path class="cls-2" d="M67.88,43v5.68a1.66,1.66,0,0,1-1.31,1.08c-1.45.33-2.88.71-4.33,1.06a.63.63,0,0,0-.51.43c-.26.7-.55,1.38-.86,2.06a.6.6,0,0,0,0,.63c.68,1.11,1.35,2.23,2,3.35a1.36,1.36,0,0,1-.24,2L59.4,62.57a1.39,1.39,0,0,1-2,.24l-3.27-2a.56.56,0,0,0-.62,0c-.73.33-1.46.65-2.21.94a.61.61,0,0,0-.43.51c-.34,1.45-.72,2.89-1,4.34a1.66,1.66,0,0,1-1.08,1.31H43.07A1.62,1.62,0,0,1,42,66.59c-.34-1.45-.72-2.89-1.05-4.34a.69.69,0,0,0-.48-.53c-.69-.26-1.38-.55-2.05-.86a.65.65,0,0,0-.71,0c-1,.65-2.1,1.27-3.16,1.91a1.4,1.4,0,0,1-2-.25L29.27,59.3a1.39,1.39,0,0,1-.26-2c.65-1.08,1.29-2.16,1.95-3.24a.55.55,0,0,0,0-.58c-.32-.72-.63-1.44-.91-2.18a.64.64,0,0,0-.5-.44l-4.46-1.1a1.35,1.35,0,0,1-1.2-1.52V43.55A1.37,1.37,0,0,1,25.13,42l4.45-1.1a.58.58,0,0,0,.48-.41c.23-.63.49-1.25.76-1.87a.57.57,0,0,0,0-.59c-.75-1.22-1.48-2.45-2.21-3.68a1.4,1.4,0,0,1,.24-2l3.25-3.26a1.39,1.39,0,0,1,2-.24c1.17.7,2.34,1.42,3.53,2.11a.77.77,0,0,0,.58,0c.77-.3,1.52-.65,2.29-.95a.63.63,0,0,0,.43-.51c.35-1.45.72-2.89,1.06-4.34a1.62,1.62,0,0,1,1.08-1.32h5.67a1.69,1.69,0,0,1,1.09,1.36c.33,1.43.7,2.86,1,4.3a.63.63,0,0,0,.43.51q1.06.4,2.1.87a.58.58,0,0,0,.63,0c1.12-.69,2.25-1.36,3.38-2a1.36,1.36,0,0,1,2,.24l3.25,3.25a1.39,1.39,0,0,1,.25,2c-.67,1.13-1.36,2.25-2,3.39a.83.83,0,0,0,0,.58c.28.72.6,1.42.88,2.14a.64.64,0,0,0,.51.44c1.45.34,2.88.72,4.33,1.06A1.62,1.62,0,0,1,67.88,43Zm-22,11.87a9,9,0,1,0-9-9A9.06,9.06,0,0,0,45.91,54.91Z"/></g></g></svg>