<?xml version="1.0" encoding="UTF-8"?><svg id="Layer_2" xmlns="http://www.w3.org/2000/svg" xmlns:xlink="http://www.w3.org/1999/xlink" viewBox="0 0 387.78 204.17"><defs><style>.cls-1{fill:url(#linear-gradient-2);}.cls-2{fill:#505456;}.cls-3,.cls-4{fill:#fff;}.cls-5{fill:#f5f5f5;}.cls-6{fill:#a0a0a0;}.cls-7{fill:url(#linear-gradient-6);}.cls-8{clip-path:url(#clippath-1);}.cls-9{fill:url(#linear-gradient-5);}.cls-10{clip-path:url(#clippath);}.cls-4{opacity:.2;}.cls-11{fill:#407bff;}.cls-12{fill:none;}.cls-13{fill:url(#linear-gradient-3);}.cls-14{fill:url(#linear-gradient);}.cls-15{fill:url(#linear-gradient-4);}</style><linearGradient id="linear-gradient" x1="70.53" y1="60.37" x2="72.86" y2="60.37" gradientTransform="translate(4.52 -4.99) rotate(4.12)" gradientUnits="userSpaceOnUse"><stop offset="0" stop-color="#8fffb1"/><stop offset=".06" stop-color="#85ebae"/><stop offset=".32" stop-color="#5da3a4"/><stop offset=".55" stop-color="#3e6e9e"/><stop offset=".75" stop-color="#28489a"/><stop offset=".91" stop-color="#1c3198"/><stop offset="1" stop-color="#172997"/></linearGradient><linearGradient id="linear-gradient-2" x1="72.54" y1="82.59" x2="74.04" y2="82.59" gradientTransform="translate(6.12 -5.05) rotate(4.12)" xlink:href="#linear-gradient"/><linearGradient id="linear-gradient-3" x1="70.22" y1="81.87" x2="312.56" y2="81.87" gradientTransform="matrix(1, 0, 0, 1, 0, 0)" xlink:href="#linear-gradient"/><linearGradient id="linear-gradient-4" x1="80.27" y1="8.81" x2="84.31" y2="8.81" gradientTransform="matrix(1, 0, 0, 1, 0, 0)" xlink:href="#linear-gradient"/><linearGradient id="linear-gradient-5" x1="87.13" y1="8.81" x2="91.18" y2="8.81" gradientTransform="matrix(1, 0, 0, 1, 0, 0)" xlink:href="#linear-gradient"/><linearGradient id="linear-gradient-6" x1="94" y1="8.81" x2="98.05" y2="8.81" gradientTransform="matrix(1, 0, 0, 1, 0, 0)" xlink:href="#linear-gradient"/><clipPath id="clippath"><polygon class="cls-12" points="175.43 77.69 182.48 77.69 192.27 71.3 198.48 82.92 206.43 77.11 213.67 77.11 211.89 49.47 173.46 49.99 175.43 77.69"/></clipPath><clipPath id="clippath-1"><polygon class="cls-12" points="173.46 83.99 181.95 83.47 191.26 76.41 198.27 87.57 205.8 81.22 212.24 80.76 214.32 111.41 176.1 113.02 173.46 83.99"/></clipPath></defs><g id="Window_No_Data"><g><ellipse id="_Path_" class="cls-5" cx="193.89" cy="192.85" rx="193.89" ry="11.32"/><g><rect class="cls-14" x="71.19" y="51.13" width="1" height="18.49" transform="translate(-4.15 5.31) rotate(-4.12)"/><rect class="cls-1" x="72.79" y="79.11" width="1" height="6.96" transform="translate(-5.74 5.48) rotate(-4.12)"/><path class="cls-11" d="M305.12,163.92H90.96c-4.84,0-9.09-3.96-9.44-8.81L71,8.98c-.35-4.84,3.33-8.81,8.17-8.81h214.16c4.84,0,9.09,3.96,9.44,8.81l10.52,146.13c.35,4.84-3.33,8.81-8.17,8.81Z"/><g><g><path class="cls-13" d="M304.36,163.74H90.21c-4.84,0-9.09-3.96-9.44-8.81L70.24,8.81c-.35-4.84,3.33-8.81,8.17-8.81h214.16c4.84,0,9.09,3.96,9.44,8.81l10.52,146.13c.35,4.84-3.33,8.81-8.17,8.81Z"/><path class="cls-4" d="M304.36,163.74H90.21c-4.84,0-9.09-3.96-9.44-8.81L70.24,8.81c-.35-4.84,3.33-8.81,8.17-8.81h214.16c4.84,0,9.09,3.96,9.44,8.81l10.52,146.13c.35,4.84-3.33,8.81-8.17,8.81Z"/></g><path class="cls-3" d="M292.89,4.4H78.73c-.24,0-.48,0-.72,.03-5.47,.45-4.36,8.78,1.17,8.78h214.52c5.53,0,5.44-8.33-.1-8.78-.24-.02-.48-.03-.72-.03Z"/><path class="cls-15" d="M84.31,8.81c.08,1.12-.76,2.02-1.87,2.02s-2.08-.9-2.16-2.02c-.08-1.11,.76-2.02,1.87-2.02s2.08,.9,2.16,2.02Z"/><path class="cls-9" d="M91.18,8.81c.08,1.12-.76,2.02-1.87,2.02s-2.08-.9-2.16-2.02c-.08-1.11,.76-2.02,1.87-2.02s2.08,.9,2.16,2.02Z"/><path class="cls-7" d="M98.05,8.81c.08,1.12-.76,2.02-1.87,2.02s-2.08-.9-2.16-2.02c-.08-1.11,.76-2.02,1.87-2.02s2.08,.9,2.16,2.02Z"/></g><path class="cls-3" d="M300.27,149.33H95.36c-1.76,0-3.3-1.43-3.42-3.19l-8.65-120.17c-.13-1.76,1.2-3.19,2.96-3.19h204.9c1.76,0,3.3,1.43,3.42,3.19l8.65,120.17c.13,1.76-1.2,3.19-2.96,3.19Z"/></g><g class="cls-10"><g><polygon class="cls-6" points="215.19 102.36 211.85 56.04 201.75 49.96 173.94 49.96 177.72 102.36 215.19 102.36"/><path class="cls-6" d="M215.19,102.84h-37.47c-.25,0-.47-.2-.48-.45l-3.77-52.4c0-.13,.04-.27,.13-.37,.09-.1,.22-.15,.35-.15h27.8c.09,0,.17,.02,.25,.07l10.11,6.08c.14,.08,.22,.22,.23,.38l3.34,46.32c0,.13-.04,.27-.13,.37-.09,.1-.22,.15-.35,.15Zm-37.02-.97h36.5l-3.28-45.55-9.78-5.88h-27.15l3.7,51.43Z"/></g></g><g class="cls-8"><g><polygon class="cls-6" points="213.79 111.29 210.45 64.97 200.35 58.89 172.54 58.89 176.32 111.29 213.79 111.29"/><path class="cls-6" d="M213.79,111.78h-37.47c-.25,0-.47-.2-.48-.45l-3.77-52.4c0-.13,.04-.27,.13-.37,.09-.1,.22-.15,.35-.15h27.8c.09,0,.17,.02,.25,.07l10.11,6.08c.14,.08,.22,.22,.23,.38l3.34,46.32c0,.13-.04,.27-.13,.37-.09,.1-.22,.15-.35,.15Zm-37.02-.97h36.5l-3.28-45.55-9.78-5.88h-27.15l3.7,51.43Z"/></g></g><g><polygon class="cls-2" points="212.23 56.2 202.12 50.11 205.83 58.17 212.23 56.2"/><path class="cls-2" d="M205.83,58.66c-.18,0-.36-.11-.44-.28l-3.71-8.06c-.09-.19-.04-.42,.12-.56,.16-.14,.39-.16,.57-.05l10.11,6.08c.16,.1,.25,.28,.23,.47-.02,.19-.16,.35-.34,.4l-6.4,1.98s-.1,.02-.14,.02Zm-2.61-7.32l2.88,6.24,4.96-1.53-7.83-4.71Z"/></g></g></g></svg>