<?xml version="1.0" encoding="utf-8"?>
<!-- Generator: Adobe Illustrator 27.3.0, SVG Export Plug-In . SVG Version: 6.00 Build 0)  -->
<svg version="1.1" id="Layer_2_00000137099835173604112190000005869924093297286273_"
	 xmlns="http://www.w3.org/2000/svg" xmlns:xlink="http://www.w3.org/1999/xlink" x="0px" y="0px" viewBox="0 0 381.4 101.8"
	 style="enable-background:new 0 0 381.4 101.8;" xml:space="preserve">
<style type="text/css">
	.st0{fill:#FFFFFF;}
	.st1{fill:url(#SVGID_1_);}
	.st2{fill:url(#SVGID_00000125586729253807292200000011012722639452900740_);}
	.st3{fill:url(#SVGID_00000036225448104656352790000017114299031377650599_);}
	.st4{fill:url(#SVGID_00000034795787506222606260000005119710633552491664_);}
	.st5{fill:url(#SVGID_00000167381210489682682060000008072229431761807001_);}
</style>
<g>
	<g>
		<path class="st0" d="M109,38v27.3h-6.7V48.9l-6.1,16.4h-5.4l-6.1-16.4v16.4H78V38h7.9l7.7,18.9l7.6-18.9C101.2,38,109,38,109,38z"
			/>
		<path class="st0" d="M117.9,64.3c-1.7-0.9-3-2.2-4-3.9s-1.5-3.7-1.5-5.9s0.5-4.2,1.5-5.9s2.3-3,4.1-3.9c1.7-0.9,3.6-1.4,5.8-1.4
			c2.1,0,4.1,0.5,5.8,1.4c1.7,0.9,3.1,2.2,4.1,3.9s1.5,3.7,1.5,5.9s-0.5,4.2-1.5,5.9s-2.4,3-4.1,3.9c-1.7,0.9-3.7,1.4-5.8,1.4
			C121.5,65.6,119.6,65.2,117.9,64.3z M126.9,58.5c0.9-0.9,1.3-2.3,1.3-4s-0.4-3.1-1.3-4c-0.9-0.9-1.9-1.4-3.2-1.4s-2.4,0.5-3.2,1.4
			c-0.9,0.9-1.3,2.3-1.3,4s0.4,3.1,1.3,4c0.8,0.9,1.9,1.4,3.2,1.4C124.9,59.9,126,59.4,126.9,58.5z"/>
		<path class="st0" d="M160.1,43.6v21.7h-6.7v-3c-0.7,1-1.6,1.7-2.7,2.3c-1.2,0.6-2.4,0.9-3.8,0.9c-1.7,0-3.1-0.4-4.4-1.1
			c-1.3-0.7-2.3-1.8-3-3.2s-1.1-3.1-1.1-4.9V43.6h6.6v11.8c0,1.5,0.4,2.6,1.1,3.4c0.8,0.8,1.8,1.2,3,1.2c1.3,0,2.3-0.4,3.1-1.2
			s1.1-1.9,1.1-3.4V43.6H160.1z"/>
		<path class="st0" d="M177,59.7v5.6h-3.4c-2.4,0-4.3-0.6-5.6-1.8c-1.4-1.2-2-3.1-2-5.8v-8.6h-2.6v-5.5h2.6v-5.3h6.7v5.3h4.4v5.5
			h-4.4v8.7c0,0.6,0.2,1.1,0.5,1.4c0.3,0.3,0.8,0.4,1.6,0.4L177,59.7L177,59.7z"/>
		<path class="st0" d="M200,45.8c1.5,1.6,2.3,3.9,2.3,6.8v12.7h-6.6V53.5c0-1.5-0.4-2.6-1.1-3.4c-0.8-0.8-1.8-1.2-3-1.2
			c-1.3,0-2.3,0.4-3,1.2c-0.8,0.8-1.1,1.9-1.1,3.4v11.8h-6.8V36.5h6.7v10c0.7-1,1.6-1.7,2.8-2.3s2.5-0.9,3.9-0.9
			C196.5,43.4,198.5,44.2,200,45.8z"/>
		<path class="st0" d="M226.7,51.1c-0.7,1.3-1.8,2.4-3.3,3.2s-3.4,1.2-5.6,1.2h-4.1v9.8H207V38h10.7c2.2,0,4,0.4,5.5,1.1
			c1.5,0.8,2.6,1.8,3.4,3.1c0.8,1.3,1.1,2.8,1.1,4.6C227.8,48.4,227.4,49.8,226.7,51.1z M220,49.3c0.6-0.6,0.9-1.4,0.9-2.5
			s-0.3-1.9-0.9-2.5c-0.6-0.6-1.6-0.9-2.8-0.9h-3.6v6.9h3.6C218.5,50.2,219.4,49.9,220,49.3z"/>
		<path class="st0" d="M252.7,43.6v21.7H246v-3c-0.7,1-1.6,1.7-2.7,2.3c-1.2,0.6-2.4,0.9-3.8,0.9c-1.7,0-3.1-0.4-4.4-1.1
			c-1.3-0.7-2.3-1.8-3-3.2s-1.1-3.1-1.1-4.9V43.6h6.6v11.8c0,1.5,0.4,2.6,1.1,3.4c0.8,0.8,1.8,1.2,3,1.2c1.3,0,2.3-0.4,3.1-1.2
			s1.1-1.9,1.1-3.4V43.6H252.7z"/>
		<path class="st0" d="M266.8,44.2c1.2-0.6,2.5-0.9,4-0.9c1.8,0,3.4,0.5,4.9,1.4s2.6,2.2,3.4,3.9s1.3,3.6,1.3,5.9
			c0,2.2-0.4,4.2-1.3,5.9c-0.8,1.7-2,3-3.4,3.9c-1.5,0.9-3.1,1.4-4.9,1.4c-1.5,0-2.9-0.3-4-0.9s-2-1.4-2.7-2.4v3h-6.7V36.5h6.7v10.2
			C264.8,45.7,265.7,44.8,266.8,44.2z M272.3,50.5c-0.9-0.9-2.1-1.4-3.4-1.4s-2.4,0.5-3.4,1.4c-0.9,1-1.4,2.3-1.4,3.9
			c0,1.7,0.5,3,1.4,3.9c0.9,1,2,1.4,3.4,1.4c1.3,0,2.5-0.5,3.4-1.5s1.4-2.3,1.4-4C273.6,52.8,273.2,51.5,272.3,50.5z"/>
		<path class="st0" d="M290.6,36.5v28.8h-6.7V36.5H290.6z"/>
		<path class="st0" d="M295.9,40.3c-0.7-0.7-1.1-1.5-1.1-2.6c0-1,0.4-1.9,1.1-2.6c0.7-0.7,1.7-1,2.9-1c1.1,0,2.1,0.3,2.8,1
			c0.7,0.7,1.1,1.6,1.1,2.6s-0.4,1.9-1.1,2.6c-0.7,0.7-1.7,1-2.8,1C297.6,41.3,296.6,41,295.9,40.3z M302.1,43.6v21.7h-6.7V43.6
			H302.1z"/>
		<path class="st0" d="M307,48.5c0.9-1.7,2.2-3,3.9-3.9c1.6-0.9,3.5-1.4,5.7-1.4c2.7,0,5,0.7,6.8,2.1c1.8,1.4,3,3.4,3.6,6h-7.1
			c-0.6-1.7-1.8-2.5-3.5-2.5c-1.2,0-2.2,0.5-2.9,1.4c-0.7,0.9-1.1,2.3-1.1,4.1s0.4,3.1,1.1,4.1c0.7,0.9,1.7,1.4,2.9,1.4
			c1.7,0,2.9-0.8,3.5-2.5h7.1c-0.6,2.5-1.8,4.5-3.6,6c-1.8,1.5-4.1,2.2-6.8,2.2c-2.1,0-4-0.5-5.7-1.4c-1.6-0.9-2.9-2.2-3.9-3.9
			s-1.4-3.7-1.4-5.9C305.6,52.2,306,50.2,307,48.5z"/>
		<path class="st0" d="M331,40.3c-0.7-0.7-1.1-1.5-1.1-2.6c0-1,0.4-1.9,1.1-2.6c0.7-0.7,1.7-1,2.9-1c1.1,0,2.1,0.3,2.8,1
			c0.7,0.7,1.1,1.6,1.1,2.6s-0.4,1.9-1.1,2.6c-0.7,0.7-1.7,1-2.8,1C332.7,41.3,331.7,41,331,40.3z M337.1,43.6v21.7h-6.7V43.6H337.1
			z"/>
		<path class="st0" d="M354.1,59.7v5.6h-3.4c-2.4,0-4.3-0.6-5.6-1.8c-1.4-1.2-2-3.1-2-5.8v-8.6h-2.6v-5.5h2.6v-5.3h6.7v5.3h4.4v5.5
			h-4.5v8.7c0,0.6,0.2,1.1,0.5,1.4c0.3,0.3,0.8,0.4,1.6,0.4L354.1,59.7L354.1,59.7z"/>
		<path class="st0" d="M380,43.6l-13.6,32.1h-7.2l5-11.1l-8.8-21h7.4l5,13.6l5-13.6C372.8,43.6,380,43.6,380,43.6z"/>
	</g>
	<g id="Layer_2_00000010284556006159707610000000100922157554548127_">
		<g id="Layer_1-2">
			
				<linearGradient id="SVGID_1_" gradientUnits="userSpaceOnUse" x1="38.6613" y1="1005.3863" x2="50.5982" y2="1016.1" gradientTransform="matrix(1 0 0 1 0 -976)">
				<stop  offset="0" style="stop-color:#00FFAF"/>
				<stop  offset="6.000000e-02" style="stop-color:#00EDAD"/>
				<stop  offset="0.32" style="stop-color:#00A6A7"/>
				<stop  offset="0.55" style="stop-color:#006EA2"/>
				<stop  offset="0.75" style="stop-color:#00469F"/>
				<stop  offset="0.91" style="stop-color:#002D9D"/>
				<stop  offset="1" style="stop-color:#00249C"/>
			</linearGradient>
			<path class="st1" d="M42.8,29.3L42.8,29.3v0.1V29.3z M42.6,27.6c0,0.1,0,0.1,0,0.2C42.6,27.7,42.6,27.7,42.6,27.6L42.6,27.6z
				 M39.5,34.9c0.1,0.2,0.3,0.4,0.4,0.7c0.1,0.2,0.2,0.3,0.4,0.5C40,35.6,39.8,35.2,39.5,34.9L39.5,34.9z"/>
			
				<linearGradient id="SVGID_00000129909232263580331890000002450048011669465756_" gradientUnits="userSpaceOnUse" x1="36.4498" y1="999.1599" x2="57.4572" y2="1018.0147" gradientTransform="matrix(1 0 0 1 0 -976)">
				<stop  offset="0" style="stop-color:#00FFAF"/>
				<stop  offset="6.000000e-02" style="stop-color:#00EDAD"/>
				<stop  offset="0.32" style="stop-color:#00A6A7"/>
				<stop  offset="0.55" style="stop-color:#006EA2"/>
				<stop  offset="0.75" style="stop-color:#00469F"/>
				<stop  offset="0.91" style="stop-color:#002D9D"/>
				<stop  offset="1" style="stop-color:#00249C"/>
			</linearGradient>
			<path style="fill:url(#SVGID_00000129909232263580331890000002450048011669465756_);" d="M65.6,26.3c-0.2-2.5-1.1-4.9-2.5-6.9
				c-0.7-1-1.4-1.8-2.3-2.6l0,0c-1.4-1.2-3-2.1-4.7-2.7c-0.3-0.1-0.7-0.2-1-0.3c0,0-0.1,0-0.2,0c-0.3-0.1-0.6-0.1-0.9-0.2
				c-0.3-0.1-0.6-0.1-1-0.1c-0.1,0-0.1,0-0.2,0c-0.3,0-0.6-0.1-1-0.1h-0.1c-0.8,0-1.5,0-2.3,0.1c-0.4,0-0.8,0.1-1.1,0.2
				c-0.3,0.1-0.6,0.2-1,0.3c-0.1,0-0.2,0-0.2,0.1c-0.3,0.1-0.6,0.2-0.9,0.4c-0.3,0.1-0.7,0.3-1,0.5s-0.6,0.3-0.9,0.5
				c-0.4,0.2-0.7,0.4-1,0.7c-0.3,0.2-0.5,0.4-0.8,0.6c-0.2,0.2-0.4,0.4-0.7,0.6c-0.2,0.1-0.3,0.3-0.4,0.4c-0.2,0.2-0.4,0.4-0.6,0.6
				c-0.4,0.4-0.7,0.9-1,1.4c-0.2,0.2-0.3,0.5-0.4,0.7c-0.3,0.4-0.5,0.9-0.7,1.3c0,0.1,0,0.1-0.1,0.2l-9.5,22.7l4.5,2.7l5.6-13.3l0,0
				c0.1,0.2,0.3,0.5,0.5,0.8c0.2,0.4,0.5,0.8,0.8,1.2c0.1,0.1,0.1,0.2,0.2,0.3c0.2,0.2,0.4,0.5,0.6,0.7c0.2,0.2,0.4,0.4,0.6,0.6l0,0
				c0.2,0.2,0.4,0.4,0.6,0.6c0.4,0.4,0.9,0.7,1.4,1c1,0.6,2,1.1,3.1,1.5c0.6,0.2,1.2,0.4,1.8,0.5c0.3,0.1,0.6,0.1,0.9,0.2
				c0.3,0,0.6,0.1,0.9,0.1c0.3,0,0.6,0,0.9,0c0.7,0,1.3,0,2-0.1c0.4-0.1,0.8-0.1,1.1-0.2c0.4-0.1,0.7-0.2,1.1-0.3
				c0.3-0.1,0.6-0.2,0.8-0.3c0.3-0.1,0.5-0.2,0.7-0.3c0.3-0.1,0.5-0.2,0.8-0.4c0.3-0.1,0.5-0.3,0.7-0.4s0.5-0.3,0.7-0.4
				s0.5-0.3,0.7-0.5l0.6-0.5c0.2-0.2,0.4-0.4,0.6-0.6c0.3-0.3,0.5-0.5,0.8-0.8c0.7-0.9,1.3-1.8,1.9-2.8c0.8-1.6,1.3-3.3,1.5-5
				c0-0.4,0.1-0.9,0.1-1.3C65.7,27.2,65.6,26.7,65.6,26.3z M60.4,28.4c-0.1,0.8-0.3,1.6-0.6,2.4L59.7,31c-0.1,0.2-0.2,0.4-0.3,0.6
				s-0.2,0.5-0.4,0.7c-0.1,0.2-0.2,0.4-0.4,0.5c-0.4,0.6-0.9,1.2-1.5,1.6c-0.3,0.3-0.7,0.5-1,0.7c-0.2,0.1-0.4,0.2-0.6,0.3
				c-0.2,0.1-0.4,0.2-0.7,0.3c-0.2,0.1-0.4,0.2-0.6,0.2c-0.5,0.2-1,0.3-1.6,0.4c-0.2,0-0.5,0.1-0.7,0.1s-0.4,0-0.6,0
				c-0.1,0-0.3,0-0.4,0c-0.1,0-0.3,0-0.4,0c-0.3,0-0.6-0.1-0.9-0.2c0,0,0,0-0.1,0c-0.3-0.1-0.6-0.2-0.9-0.3l0,0
				c-0.4-0.1-0.9-0.3-1.3-0.5c-0.2-0.1-0.5-0.3-0.7-0.4c-0.1-0.1-0.3-0.2-0.4-0.3c-0.3-0.2-0.6-0.4-0.8-0.7
				c-0.1-0.1-0.3-0.3-0.4-0.4c-0.3-0.3-0.5-0.6-0.7-0.9c-0.4-0.6-0.8-1.3-1.1-2c-0.1-0.2-0.1-0.3-0.2-0.5c-0.1-0.2-0.1-0.4-0.2-0.6
				v-0.1v-0.1c-0.1-0.5-0.2-1-0.2-1.4l0,0c0-0.1,0-0.1,0-0.2l0,0c-0.1-1,0-2,0.4-3l0.3-0.7c0.1-0.2,0.2-0.3,0.2-0.5
				c0.1-0.3,0.3-0.6,0.5-0.9l0,0c0.1-0.2,0.2-0.3,0.4-0.5c0.1-0.2,0.3-0.4,0.5-0.6c0.3-0.4,0.6-0.7,1-1c1.3-1,2.8-1.7,4.4-1.9
				c0.1,0,0.3,0,0.4-0.1c0.1,0,0.3,0,0.4,0c0.2,0,0.3,0,0.4,0c0.2,0,0.3,0,0.5,0s0.4,0,0.6,0.1c0.2,0,0.3,0,0.5,0.1
				c0.2,0,0.3,0.1,0.5,0.1s0.4,0.1,0.6,0.2c0.2,0,0.4,0.1,0.5,0.2c1.1,0.4,2.1,1.1,3,1.9c0.9,0.9,1.6,1.9,2,3
				c0.1,0.2,0.2,0.4,0.2,0.7c0.1,0.3,0.2,0.6,0.2,0.9s0.1,0.5,0.1,0.8c0,0.1,0,0.1,0,0.2C60.5,27.2,60.5,27.8,60.4,28.4z"/>
			
				<linearGradient id="SVGID_00000006681599536344151020000004243861498922073515_" gradientUnits="userSpaceOnUse" x1="50.2397" y1="1041.4301" x2="50.3644" y2="1041.5406" gradientTransform="matrix(1 0 0 1 0 -976)">
				<stop  offset="0" style="stop-color:#00FFAF"/>
				<stop  offset="6.000000e-02" style="stop-color:#00EDAD"/>
				<stop  offset="0.32" style="stop-color:#00A6A7"/>
				<stop  offset="0.55" style="stop-color:#006EA2"/>
				<stop  offset="0.75" style="stop-color:#00469F"/>
				<stop  offset="0.91" style="stop-color:#002D9D"/>
				<stop  offset="1" style="stop-color:#00249C"/>
			</linearGradient>
			<path style="fill:url(#SVGID_00000006681599536344151020000004243861498922073515_);" d="M50.3,65.4L50.3,65.4
				C50.3,65.4,50.3,65.4,50.3,65.4L50.3,65.4z"/>
			
				<linearGradient id="SVGID_00000115484047108948976730000016884249292148991152_" gradientUnits="userSpaceOnUse" x1="48.7053" y1="1027.119" x2="16.0112" y2="1053.1958" gradientTransform="matrix(1 0 0 1 0 -976)">
				<stop  offset="0" style="stop-color:#00FFAF"/>
				<stop  offset="6.000000e-02" style="stop-color:#00EDAD"/>
				<stop  offset="0.32" style="stop-color:#00A6A7"/>
				<stop  offset="0.55" style="stop-color:#006EA2"/>
				<stop  offset="0.75" style="stop-color:#00469F"/>
				<stop  offset="0.91" style="stop-color:#002D9D"/>
				<stop  offset="1" style="stop-color:#00249C"/>
			</linearGradient>
			<path style="fill:url(#SVGID_00000115484047108948976730000016884249292148991152_);" d="M63.3,73.2c0-0.3-0.1-0.7-0.1-1
				c0-0.1,0-0.2,0-0.3c-0.1-0.3-0.1-0.7-0.2-1c-0.1-0.4-0.2-0.7-0.3-1.1c-0.1-0.3-0.2-0.7-0.4-1c-0.2-0.4-0.3-0.8-0.5-1.1
				c-0.2-0.3-0.3-0.6-0.5-0.9c-0.2-0.2-0.3-0.5-0.5-0.7c-0.1-0.2-0.2-0.3-0.3-0.5c-0.2-0.2-0.4-0.5-0.6-0.7
				c-0.4-0.4-0.8-0.8-1.2-1.2c-0.2-0.2-0.4-0.4-0.6-0.5c-0.4-0.3-0.8-0.6-1.2-0.9l-0.1-0.1L39.6,52.1l-6.5-3.9l-4.4-2.8l0,0l0,0
				c0,0-5.3-3.2-5.5-3.4c-1-0.6-2-1.1-3.1-1.5c-0.6-0.2-1.2-0.4-1.8-0.5c-0.3-0.1-0.6-0.1-0.9-0.2c-0.4,0-0.7,0-1,0s-0.6,0-0.9,0
				c-0.7,0-1.3,0-2,0.1c-0.4,0.1-0.8,0.1-1.1,0.2c-0.4,0.1-0.7,0.2-1.1,0.3c-0.3,0.1-0.6,0.2-0.8,0.3c-0.3,0.1-0.5,0.2-0.7,0.3
				c-0.3,0.1-0.5,0.2-0.8,0.4c-0.3,0.1-0.5,0.3-0.7,0.4c-0.2,0.1-0.5,0.3-0.7,0.4c-0.2,0.2-0.4,0.3-0.7,0.5
				c-0.2,0.2-0.4,0.4-0.6,0.5c-0.2,0.2-0.4,0.4-0.6,0.6c-0.3,0.3-0.5,0.5-0.8,0.8c-0.7,0.8-1.3,1.8-1.9,2.8c-0.8,1.6-1.3,3.3-1.5,5
				c0,0.4-0.1,0.9-0.1,1.3c0,0.4,0,0.9,0.1,1.3c0.3,3.7,2.1,7.1,4.8,9.5l0,0c1.4,1.2,3,2.1,4.7,2.7c0.3,0.1,0.7,0.2,1,0.3
				c0,0,0.1,0,0.2,0c0.3,0.1,0.6,0.1,0.9,0.2s0.6,0.1,1,0.1c0.1,0,0.1,0,0.2,0c0.3,0,0.7,0.1,1,0.1h0.1c0.8,0,1.5,0,2.2-0.2
				c0.4,0,0.8-0.1,1.1-0.2c0.3-0.1,0.6-0.2,1-0.3c0.1,0,0.2,0,0.2-0.1c0.3-0.1,0.6-0.2,0.9-0.4c0.3-0.1,0.7-0.3,1-0.5
				s0.6-0.3,0.9-0.5c0.4-0.2,0.7-0.4,1-0.7c0.3-0.2,0.5-0.4,0.8-0.6c0.2-0.2,0.4-0.4,0.7-0.6c0.2-0.1,0.3-0.3,0.4-0.4
				c0.2-0.2,0.4-0.4,0.6-0.6c0.4-0.4,0.7-0.9,1-1.4c0.2-0.2,0.3-0.5,0.4-0.7c0.2-0.4,0.5-0.9,0.7-1.3c0-0.1,0-0.1,0.1-0.2l2.4-5.7
				l-4.4-2.7h-0.1l0,0l-2.6,6.5c-0.1,0.2-0.2,0.3-0.2,0.5c-0.1,0.3-0.3,0.6-0.5,0.9l0,0c-0.1,0.2-0.2,0.3-0.4,0.5
				c-0.1,0.2-0.3,0.4-0.5,0.6c-0.3,0.4-0.6,0.7-1,1c-0.5,0.4-1.1,0.8-1.7,1.1c-0.9,0.4-1.8,0.7-2.7,0.8c-0.1,0-0.3,0-0.4,0.1
				c-0.1,0-0.3,0-0.4,0h-0.4c-0.2,0-0.3,0-0.5,0s-0.4,0-0.6-0.1c-0.2,0-0.3,0-0.5-0.1c-0.2,0-0.3-0.1-0.5-0.1s-0.4-0.1-0.6-0.2
				c-0.2,0-0.4-0.1-0.5-0.2c-1.1-0.4-2.1-1.1-3-1.9c-0.2-0.2-0.5-0.5-0.7-0.7c-0.6-0.7-1-1.5-1.3-2.3c-0.1-0.2-0.2-0.4-0.2-0.7
				c-0.1-0.3-0.2-0.6-0.2-0.9c-0.1-0.3-0.1-0.5-0.1-0.8c0-0.1,0-0.1,0-0.2c-0.1-0.6-0.1-1.2,0-1.8c0.1-0.8,0.3-1.6,0.6-2.4l0.1-0.2
				c0.1-0.2,0.2-0.4,0.3-0.6c0.1-0.2,0.2-0.5,0.4-0.7c0.1-0.2,0.2-0.4,0.4-0.5c0.4-0.6,0.9-1.2,1.5-1.6c0.3-0.3,0.7-0.5,1-0.7
				c0.2-0.1,0.4-0.2,0.6-0.3c0.2-0.1,0.4-0.2,0.7-0.3c0.2-0.1,0.4-0.2,0.6-0.2c0.5-0.2,1-0.3,1.6-0.4c0.2,0,0.5-0.1,0.7-0.1
				s0.4,0,0.6,0c0.1,0,0.3,0,0.4,0s0.3,0,0.4,0c0.3,0,0.6,0.1,0.9,0.2c0,0,0,0,0.1,0c0.3,0.1,0.6,0.2,0.9,0.3l0,0
				c0.4,0.1,0.7,0.3,1.1,0.4l0.2,0.1c0.2,0.1,11.5,6.9,11.5,6.9l13.3,8.1c-0.2,0.1-0.5,0.2-0.8,0.4l-0.4,0.2l-0.3,0.2
				c-0.1,0.1-0.2,0.1-0.3,0.2c-0.2,0.1-0.4,0.2-0.5,0.3c-0.3,0.2-0.5,0.3-0.8,0.5c-0.2,0.1-0.4,0.3-0.7,0.5l0,0
				c-0.2,0.2-0.5,0.4-0.7,0.6c-0.4,0.4-0.8,0.8-1.2,1.2c-0.8,0.9-1.4,1.8-2,2.9c-0.3,0.6-0.5,1.1-0.7,1.7c-0.1,0.3-0.2,0.6-0.3,0.9
				s-0.2,0.6-0.2,0.9c-0.1,0.3-0.1,0.6-0.2,0.9c-0.1,0.7-0.1,1.3-0.2,2c0,0.4,0,0.8,0,1.1c0,0.4,0.1,0.7,0.1,1.1
				c0,0.3,0.1,0.6,0.2,0.9c0.1,0.3,0.1,0.5,0.2,0.8c0.1,0.3,0.2,0.5,0.3,0.8s0.2,0.5,0.3,0.8s0.2,0.5,0.3,0.8s0.3,0.5,0.4,0.7
				c0.1,0.2,0.3,0.5,0.4,0.7s0.3,0.5,0.5,0.7c0.2,0.3,0.5,0.6,0.7,0.9c0.7,0.8,1.6,1.6,2.4,2.2c1.4,1,3,1.8,4.7,2.2
				c0.4,0.1,0.9,0.2,1.3,0.3c0.4,0.1,0.8,0.1,1.3,0.1c3.7,0.2,7.3-1,10.1-3.4l0,0c1.4-1.2,2.5-2.6,3.4-4.2c0.2-0.3,0.3-0.6,0.4-1
				l0.1-0.1c0.1-0.3,0.2-0.6,0.3-0.9c0.1-0.3,0.2-0.6,0.3-0.9c0-0.1,0-0.1,0.1-0.2c0.1-0.3,0.1-0.6,0.2-1v-0.1
				c0.1-0.7,0.2-1.5,0.2-2.2C63.3,74,63.3,73.6,63.3,73.2z M58.1,74.9c0,0.1,0,0.3,0,0.4c0,0.2,0,0.3-0.1,0.4c0,0.2,0,0.3-0.1,0.5
				c0,0.2-0.1,0.4-0.1,0.6s-0.1,0.4-0.2,0.6c0,0.1-0.1,0.3-0.2,0.4c-0.1,0.2-0.2,0.4-0.3,0.5c-0.1,0.2-0.2,0.3-0.3,0.5
				c-0.6,1-1.4,1.9-2.3,2.6c-0.3,0.2-0.5,0.4-0.8,0.6c-0.8,0.5-1.6,0.8-2.5,1c-0.2,0.1-0.5,0.1-0.7,0.1c-0.3,0-0.6,0.1-0.9,0.1
				c-0.3,0-0.5,0-0.8,0c-0.1,0-0.1,0-0.2,0c-0.6,0-1.2-0.1-1.7-0.3c-0.8-0.2-1.6-0.5-2.3-1l-0.2-0.1c-0.2-0.1-0.4-0.2-0.5-0.4
				c-0.2-0.1-0.4-0.3-0.6-0.5c-0.2-0.1-0.3-0.3-0.5-0.4c-0.6-0.5-1-1.1-1.4-1.8c-0.2-0.4-0.4-0.7-0.6-1.1c-0.1-0.2-0.2-0.4-0.2-0.7
				c-0.1-0.2-0.1-0.5-0.2-0.7c-0.1-0.2-0.1-0.4-0.1-0.6c-0.1-0.5-0.1-1.1-0.1-1.6c0-0.2,0-0.5,0-0.7s0-0.4,0.1-0.6
				c0-0.1,0-0.3,0.1-0.4c0-0.1,0-0.3,0.1-0.4c0.1-0.3,0.2-0.6,0.3-0.9c0,0,0,0,0-0.1c0.1-0.3,0.3-0.6,0.4-0.9l0,0
				c0.2-0.4,0.5-0.8,0.7-1.2c0.2-0.2,0.3-0.4,0.5-0.6c0.1-0.1,0.3-0.3,0.4-0.4c0.3-0.3,0.5-0.5,0.8-0.7c0.1-0.1,0.3-0.2,0.5-0.3
				c0.3-0.2,0.7-0.4,1-0.6c0.7-0.4,1.4-0.6,2.2-0.8c0.2,0,0.3-0.1,0.5-0.1c0.2-0.1,0.5-0.1,0.8-0.1c0.1,0,0.2,0,0.2,0
				c0.5,0,0.9,0,1.4,0h0.1l0,0c1,0.1,2.1,0.4,2.9,0.9l0.5,0.3c0.2,0.1,0.3,0.2,0.5,0.3c0.3,0.2,0.6,0.4,0.8,0.6l0,0
				c0.1,0.1,0.3,0.3,0.4,0.4c0.2,0.2,0.3,0.4,0.5,0.6c0.3,0.4,0.6,0.7,0.8,1.1c0.4,0.6,0.6,1.2,0.8,1.9c0.3,0.9,0.4,1.8,0.4,2.8
				C58.1,74.6,58.1,74.7,58.1,74.9z"/>
			
				<linearGradient id="SVGID_00000147938874503083535430000016695809195878436245_" gradientUnits="userSpaceOnUse" x1="27.9618" y1="989.9881" x2="112.5817" y2="1065.9374" gradientTransform="matrix(1 0 0 1 0 -976)">
				<stop  offset="0" style="stop-color:#00FFAF"/>
				<stop  offset="6.000000e-02" style="stop-color:#00EDAD"/>
				<stop  offset="0.32" style="stop-color:#00A6A7"/>
				<stop  offset="0.55" style="stop-color:#006EA2"/>
				<stop  offset="0.75" style="stop-color:#00469F"/>
				<stop  offset="0.91" style="stop-color:#002D9D"/>
				<stop  offset="1" style="stop-color:#00249C"/>
			</linearGradient>
			<path style="fill:url(#SVGID_00000147938874503083535430000016695809195878436245_);" d="M55.6,38.7c0,0.1,0,0.1,0.1,0.2
				L55.6,38.7L55.6,38.7z"/>
		</g>
	</g>
</g>
</svg>
