<?xml version="1.0" encoding="utf-8"?>
<!-- Generator: Adobe Illustrator 27.3.0, SVG Export Plug-In . SVG Version: 6.00 Build 0)  -->
<svg version="1.1" id="Layer_2_00000141427161170270903140000001000026309564858549_"
	 xmlns="http://www.w3.org/2000/svg" xmlns:xlink="http://www.w3.org/1999/xlink" x="0px" y="0px" viewBox="0 0 387.2 101.8"
	 style="enable-background:new 0 0 387.2 101.8;" xml:space="preserve">
<style type="text/css">
	.st0{fill:url(#SVGID_1_);}
	.st1{fill:url(#SVGID_00000096049344691385618760000009847872798494602426_);}
	.st2{fill:url(#SVGID_00000099637735316997481490000002422478039741851319_);}
	.st3{fill:url(#SVGID_00000173120909386449669680000009179979411004961685_);}
	.st4{fill:url(#SVGID_00000152953597818851836740000013855067580056453505_);}
</style>
<g>
	<path d="M113.3,37.2v27.3h-6.7V48.1l-6.1,16.4h-5.4L89,48.1v16.4h-6.7V37.2h7.9l7.7,18.9l7.6-18.9H113.3z"/>
	<path d="M122.2,63.5c-1.7-0.9-3-2.2-4-3.9c-1-1.7-1.5-3.7-1.5-5.9c0-2.2,0.5-4.2,1.5-5.9c1-1.7,2.3-3,4.1-3.9
		c1.7-0.9,3.6-1.4,5.8-1.4c2.1,0,4.1,0.5,5.8,1.4c1.7,0.9,3.1,2.2,4.1,3.9c1,1.7,1.5,3.7,1.5,5.9c0,2.2-0.5,4.2-1.5,5.9
		c-1,1.7-2.4,3-4.1,3.9c-1.7,0.9-3.7,1.4-5.8,1.4C125.8,64.8,123.9,64.4,122.2,63.5z M131.2,57.7c0.9-0.9,1.3-2.3,1.3-4
		c0-1.7-0.4-3.1-1.3-4c-0.9-0.9-1.9-1.4-3.2-1.4c-1.3,0-2.4,0.5-3.2,1.4c-0.9,0.9-1.3,2.3-1.3,4c0,1.7,0.4,3.1,1.3,4
		c0.8,0.9,1.9,1.4,3.2,1.4C129.2,59.1,130.3,58.6,131.2,57.7z"/>
	<path d="M164.4,42.8v21.7h-6.7v-3c-0.7,1-1.6,1.7-2.7,2.3c-1.2,0.6-2.4,0.9-3.8,0.9c-1.7,0-3.1-0.4-4.4-1.1c-1.3-0.7-2.3-1.8-3-3.2
		c-0.7-1.4-1.1-3.1-1.1-4.9V42.8h6.6v11.8c0,1.5,0.4,2.6,1.1,3.4c0.8,0.8,1.8,1.2,3,1.2c1.3,0,2.3-0.4,3.1-1.2
		c0.8-0.8,1.1-1.9,1.1-3.4V42.8H164.4z"/>
	<path d="M181.3,58.9v5.6h-3.4c-2.4,0-4.3-0.6-5.6-1.8c-1.4-1.2-2-3.1-2-5.8v-8.6h-2.6v-5.5h2.6v-5.3h6.7v5.3h4.4v5.5h-4.4v8.7
		c0,0.6,0.2,1.1,0.5,1.4c0.3,0.3,0.8,0.4,1.6,0.4H181.3z"/>
	<path d="M204.3,45c1.5,1.6,2.3,3.9,2.3,6.8v12.7H200V52.7c0-1.5-0.4-2.6-1.1-3.4c-0.8-0.8-1.8-1.2-3-1.2c-1.3,0-2.3,0.4-3,1.2
		c-0.8,0.8-1.1,1.9-1.1,3.4v11.8H185V35.7h6.7v10c0.7-1,1.6-1.7,2.8-2.3c1.2-0.6,2.5-0.9,3.9-0.9C200.8,42.6,202.8,43.4,204.3,45z"
		/>
	<path d="M231,50.3c-0.7,1.3-1.8,2.4-3.3,3.2c-1.5,0.8-3.4,1.2-5.6,1.2h-4.1v9.8h-6.7V37.2H222c2.2,0,4,0.4,5.5,1.1
		c1.5,0.8,2.6,1.8,3.4,3.1c0.8,1.3,1.1,2.8,1.1,4.6C232.1,47.6,231.7,49,231,50.3z M224.3,48.5c0.6-0.6,0.9-1.4,0.9-2.5
		s-0.3-1.9-0.9-2.5c-0.6-0.6-1.6-0.9-2.8-0.9h-3.6v6.9h3.6C222.8,49.4,223.7,49.1,224.3,48.5z"/>
	<path d="M257,42.8v21.7h-6.7v-3c-0.7,1-1.6,1.7-2.7,2.3c-1.2,0.6-2.4,0.9-3.8,0.9c-1.7,0-3.1-0.4-4.4-1.1c-1.3-0.7-2.3-1.8-3-3.2
		s-1.1-3.1-1.1-4.9V42.8h6.6v11.8c0,1.5,0.4,2.6,1.1,3.4c0.8,0.8,1.8,1.2,3,1.2c1.3,0,2.3-0.4,3.1-1.2c0.8-0.8,1.1-1.9,1.1-3.4V42.8
		H257z"/>
	<path d="M271.1,43.4c1.2-0.6,2.5-0.9,4-0.9c1.8,0,3.4,0.5,4.9,1.4c1.5,0.9,2.6,2.2,3.4,3.9c0.8,1.7,1.3,3.6,1.3,5.9
		c0,2.2-0.4,4.2-1.3,5.9c-0.8,1.7-2,3-3.4,3.9c-1.5,0.9-3.1,1.4-4.9,1.4c-1.5,0-2.9-0.3-4-0.9c-1.1-0.6-2-1.4-2.7-2.4v3h-6.7V35.7
		h6.7v10.2C269.1,44.9,270,44,271.1,43.4z M276.6,49.7c-0.9-0.9-2.1-1.4-3.4-1.4c-1.3,0-2.4,0.5-3.4,1.4c-0.9,1-1.4,2.3-1.4,3.9
		c0,1.7,0.5,3,1.4,3.9c0.9,1,2,1.4,3.4,1.4c1.3,0,2.5-0.5,3.4-1.5c0.9-1,1.4-2.3,1.4-4C277.9,52,277.5,50.7,276.6,49.7z"/>
	<path d="M294.9,35.7v28.8h-6.7V35.7H294.9z"/>
	<path d="M300.2,39.5c-0.7-0.7-1.1-1.5-1.1-2.6c0-1,0.4-1.9,1.1-2.6c0.7-0.7,1.7-1,2.9-1c1.1,0,2.1,0.3,2.8,1
		c0.7,0.7,1.1,1.6,1.1,2.6c0,1-0.4,1.9-1.1,2.6c-0.7,0.7-1.7,1-2.8,1C301.9,40.5,300.9,40.2,300.2,39.5z M306.4,42.8v21.7h-6.7V42.8
		H306.4z"/>
	<path d="M311.3,47.7c0.9-1.7,2.2-3,3.9-3.9c1.6-0.9,3.5-1.4,5.7-1.4c2.7,0,5,0.7,6.8,2.1c1.8,1.4,3,3.4,3.6,6h-7.1
		c-0.6-1.7-1.8-2.5-3.5-2.5c-1.2,0-2.2,0.5-2.9,1.4c-0.7,0.9-1.1,2.3-1.1,4.1c0,1.8,0.4,3.1,1.1,4.1c0.7,0.9,1.7,1.4,2.9,1.4
		c1.7,0,2.9-0.8,3.5-2.5h7.1c-0.6,2.5-1.8,4.5-3.6,6c-1.8,1.5-4.1,2.2-6.8,2.2c-2.1,0-4-0.5-5.7-1.4c-1.6-0.9-2.9-2.2-3.9-3.9
		s-1.4-3.7-1.4-5.9C309.9,51.4,310.3,49.4,311.3,47.7z"/>
	<path d="M335.3,39.5c-0.7-0.7-1.1-1.5-1.1-2.6c0-1,0.4-1.9,1.1-2.6c0.7-0.7,1.7-1,2.9-1c1.1,0,2.1,0.3,2.8,1
		c0.7,0.7,1.1,1.6,1.1,2.6c0,1-0.4,1.9-1.1,2.6c-0.7,0.7-1.7,1-2.8,1C337,40.5,336,40.2,335.3,39.5z M341.4,42.8v21.7h-6.7V42.8
		H341.4z"/>
	<path d="M358.4,58.9v5.6H355c-2.4,0-4.3-0.6-5.6-1.8c-1.4-1.2-2-3.1-2-5.8v-8.6h-2.6v-5.5h2.6v-5.3h6.7v5.3h4.4v5.5H354v8.7
		c0,0.6,0.2,1.1,0.5,1.4c0.3,0.3,0.8,0.4,1.6,0.4H358.4z"/>
	<path d="M384.3,42.8l-13.6,32.1h-7.2l5-11.1l-8.8-21h7.4l5,13.6l5-13.6H384.3z"/>
</g>
<g id="Layer_2_00000010284556006159707610000000100922157554548127_">
	<g id="Layer_1-2">
		
			<linearGradient id="SVGID_1_" gradientUnits="userSpaceOnUse" x1="42.9924" y1="75.4876" x2="54.9293" y2="64.7739" gradientTransform="matrix(1 0 0 -1 0 104)">
			<stop  offset="0" style="stop-color:#00FFAF"/>
			<stop  offset="6.000000e-02" style="stop-color:#00EDAD"/>
			<stop  offset="0.32" style="stop-color:#00A6A7"/>
			<stop  offset="0.55" style="stop-color:#006EA2"/>
			<stop  offset="0.75" style="stop-color:#00469F"/>
			<stop  offset="0.91" style="stop-color:#002D9D"/>
			<stop  offset="1" style="stop-color:#00249C"/>
		</linearGradient>
		<path class="st0" d="M47.1,28.5L47.1,28.5c0,0,0,0.1,0,0.1C47.1,28.6,47.1,28.5,47.1,28.5z M46.9,26.8c0,0.1,0,0.1,0,0.2
			C46.9,26.9,46.9,26.9,46.9,26.8L46.9,26.8z M43.8,34.1c0.1,0.2,0.3,0.4,0.4,0.7c0.1,0.2,0.2,0.3,0.4,0.5
			C44.3,34.8,44.1,34.4,43.8,34.1L43.8,34.1z"/>
		
			<linearGradient id="SVGID_00000080199335424437260550000017973787767017614998_" gradientUnits="userSpaceOnUse" x1="40.7635" y1="81.6946" x2="61.7709" y2="62.8398" gradientTransform="matrix(1 0 0 -1 0 104)">
			<stop  offset="0" style="stop-color:#00FFAF"/>
			<stop  offset="6.000000e-02" style="stop-color:#00EDAD"/>
			<stop  offset="0.32" style="stop-color:#00A6A7"/>
			<stop  offset="0.55" style="stop-color:#006EA2"/>
			<stop  offset="0.75" style="stop-color:#00469F"/>
			<stop  offset="0.91" style="stop-color:#002D9D"/>
			<stop  offset="1" style="stop-color:#00249C"/>
		</linearGradient>
		<path style="fill:url(#SVGID_00000080199335424437260550000017973787767017614998_);" d="M69.9,25.5c-0.2-2.5-1.1-4.9-2.5-6.9
			c-0.7-1-1.4-1.8-2.3-2.6h0c-1.4-1.2-3-2.1-4.7-2.7c-0.3-0.1-0.7-0.2-1-0.3c0,0-0.1,0-0.2,0c-0.3-0.1-0.6-0.1-0.9-0.2
			c-0.3-0.1-0.6-0.1-1-0.1c-0.1,0-0.1,0-0.2,0c-0.3,0-0.6-0.1-1-0.1c0,0-0.1,0-0.1,0c-0.8,0-1.5,0-2.3,0.1c-0.4,0-0.8,0.1-1.1,0.2
			c-0.3,0.1-0.6,0.2-1,0.3c-0.1,0-0.2,0-0.2,0.1c-0.3,0.1-0.6,0.2-0.9,0.4c-0.3,0.1-0.7,0.3-1,0.5c-0.3,0.2-0.6,0.3-0.9,0.5
			c-0.4,0.2-0.7,0.4-1,0.7c-0.3,0.2-0.5,0.4-0.8,0.6c-0.2,0.2-0.4,0.4-0.7,0.6c-0.2,0.1-0.3,0.3-0.4,0.4c-0.2,0.2-0.4,0.4-0.6,0.6
			c-0.4,0.4-0.7,0.9-1,1.4c-0.2,0.2-0.3,0.5-0.4,0.7c-0.3,0.4-0.5,0.9-0.7,1.3c0,0.1,0,0.1-0.1,0.2l-9.5,22.7l4.5,2.7l5.6-13.3v0
			c0.1,0.2,0.3,0.5,0.5,0.8c0.2,0.4,0.5,0.8,0.8,1.2c0.1,0.1,0.1,0.2,0.2,0.3c0.2,0.2,0.4,0.5,0.6,0.7c0.2,0.2,0.4,0.4,0.6,0.6
			c0,0,0,0,0,0c0.2,0.2,0.4,0.4,0.6,0.6c0.4,0.4,0.9,0.7,1.4,1c1,0.6,2,1.1,3.1,1.5c0.6,0.2,1.2,0.4,1.8,0.5
			c0.3,0.1,0.6,0.1,0.9,0.2c0.3,0,0.6,0.1,0.9,0.1c0.3,0,0.6,0,0.9,0c0.7,0,1.3,0,2-0.1c0.4-0.1,0.8-0.1,1.1-0.2
			c0.4-0.1,0.7-0.2,1.1-0.3c0.3-0.1,0.6-0.2,0.8-0.3c0.3-0.1,0.5-0.2,0.7-0.3c0.3-0.1,0.5-0.2,0.8-0.4c0.3-0.1,0.5-0.3,0.7-0.4
			s0.5-0.3,0.7-0.4s0.5-0.3,0.7-0.5l0.6-0.5c0.2-0.2,0.4-0.4,0.6-0.6c0.3-0.3,0.5-0.5,0.8-0.8c0.7-0.9,1.3-1.8,1.9-2.8
			c0.8-1.6,1.3-3.3,1.5-5c0-0.4,0.1-0.9,0.1-1.3C70,26.4,69.9,25.9,69.9,25.5z M64.7,27.6c-0.1,0.8-0.3,1.6-0.6,2.4L64,30.2
			c-0.1,0.2-0.2,0.4-0.3,0.6c-0.1,0.2-0.2,0.5-0.4,0.7c-0.1,0.2-0.2,0.4-0.4,0.5c-0.4,0.6-0.9,1.2-1.5,1.6c-0.3,0.3-0.7,0.5-1,0.7
			c-0.2,0.1-0.4,0.2-0.6,0.3c-0.2,0.1-0.4,0.2-0.7,0.3c-0.2,0.1-0.4,0.2-0.6,0.2c-0.5,0.2-1,0.3-1.6,0.4c-0.2,0-0.5,0.1-0.7,0.1
			c-0.2,0-0.4,0-0.6,0c-0.1,0-0.3,0-0.4,0c-0.1,0-0.3,0-0.4,0c-0.3,0-0.6-0.1-0.9-0.2c0,0,0,0-0.1,0c-0.3-0.1-0.6-0.2-0.9-0.3
			c0,0,0,0,0,0c-0.4-0.1-0.9-0.3-1.3-0.5c-0.2-0.1-0.5-0.3-0.7-0.4c-0.1-0.1-0.3-0.2-0.4-0.3c-0.3-0.2-0.6-0.4-0.8-0.7
			c-0.1-0.1-0.3-0.3-0.4-0.4c-0.3-0.3-0.5-0.6-0.7-0.9c-0.4-0.6-0.8-1.3-1.1-2c-0.1-0.2-0.1-0.3-0.2-0.5c-0.1-0.2-0.1-0.4-0.2-0.6
			l0-0.1c0,0,0-0.1,0-0.1c-0.1-0.5-0.2-1-0.2-1.4v0c0-0.1,0-0.1,0-0.2v0c-0.1-1,0-2,0.4-3l0.3-0.7c0.1-0.2,0.2-0.3,0.2-0.5
			c0.1-0.3,0.3-0.6,0.5-0.9l0,0c0.1-0.2,0.2-0.3,0.4-0.5c0.1-0.2,0.3-0.4,0.5-0.6c0.3-0.4,0.6-0.7,1-1c1.3-1,2.8-1.7,4.4-1.9
			c0.1,0,0.3,0,0.4-0.1c0.1,0,0.3,0,0.4,0c0.2,0,0.3,0,0.4,0c0.2,0,0.3,0,0.5,0c0.2,0,0.4,0,0.6,0.1c0.2,0,0.3,0,0.5,0.1
			c0.2,0,0.3,0.1,0.5,0.1c0.2,0,0.4,0.1,0.6,0.2c0.2,0,0.4,0.1,0.5,0.2c1.1,0.4,2.1,1.1,3,1.9c0.9,0.9,1.6,1.9,2,3
			c0.1,0.2,0.2,0.4,0.2,0.7c0.1,0.3,0.2,0.6,0.2,0.9c0,0.3,0.1,0.5,0.1,0.8c0,0.1,0,0.1,0,0.2C64.8,26.4,64.8,27,64.7,27.6z"/>
		
			<linearGradient id="SVGID_00000037664355470056684060000010342458672529396101_" gradientUnits="userSpaceOnUse" x1="54.5313" y1="39.3997" x2="54.656" y2="39.2891" gradientTransform="matrix(1 0 0 -1 0 104)">
			<stop  offset="0" style="stop-color:#00FFAF"/>
			<stop  offset="6.000000e-02" style="stop-color:#00EDAD"/>
			<stop  offset="0.32" style="stop-color:#00A6A7"/>
			<stop  offset="0.55" style="stop-color:#006EA2"/>
			<stop  offset="0.75" style="stop-color:#00469F"/>
			<stop  offset="0.91" style="stop-color:#002D9D"/>
			<stop  offset="1" style="stop-color:#00249C"/>
		</linearGradient>
		<path style="fill:url(#SVGID_00000037664355470056684060000010342458672529396101_);" d="M54.6,64.6c0,0-0.1,0-0.1,0
			C54.6,64.6,54.6,64.6,54.6,64.6L54.6,64.6z"/>
		
			<linearGradient id="SVGID_00000011711054463078073790000005741860804094850725_" gradientUnits="userSpaceOnUse" x1="52.9702" y1="53.7642" x2="20.2761" y2="27.6875" gradientTransform="matrix(1 0 0 -1 0 104)">
			<stop  offset="0" style="stop-color:#00FFAF"/>
			<stop  offset="6.000000e-02" style="stop-color:#00EDAD"/>
			<stop  offset="0.32" style="stop-color:#00A6A7"/>
			<stop  offset="0.55" style="stop-color:#006EA2"/>
			<stop  offset="0.75" style="stop-color:#00469F"/>
			<stop  offset="0.91" style="stop-color:#002D9D"/>
			<stop  offset="1" style="stop-color:#00249C"/>
		</linearGradient>
		<path style="fill:url(#SVGID_00000011711054463078073790000005741860804094850725_);" d="M67.6,72.4c0-0.3-0.1-0.7-0.1-1
			c0-0.1,0-0.2,0-0.3c-0.1-0.3-0.1-0.7-0.2-1c-0.1-0.4-0.2-0.7-0.3-1.1c-0.1-0.3-0.2-0.7-0.4-1c-0.2-0.4-0.3-0.8-0.5-1.1
			c-0.2-0.3-0.3-0.6-0.5-0.9c-0.2-0.2-0.3-0.5-0.5-0.7c-0.1-0.2-0.2-0.3-0.3-0.5c-0.2-0.2-0.4-0.5-0.6-0.7c-0.4-0.4-0.8-0.8-1.2-1.2
			c-0.2-0.2-0.4-0.4-0.6-0.5c-0.4-0.3-0.8-0.6-1.2-0.9c0,0-0.1-0.1-0.1-0.1L43.9,51.3l-6.5-3.9L33,44.6l0,0l0,0c0,0-5.3-3.2-5.5-3.4
			c-1-0.6-2-1.1-3.1-1.5c-0.6-0.2-1.2-0.4-1.8-0.5c-0.3-0.1-0.6-0.1-0.9-0.2C21.3,39,21,39,20.7,39c-0.3,0-0.6,0-0.9,0
			c-0.7,0-1.3,0-2,0.1c-0.4,0.1-0.8,0.1-1.1,0.2c-0.4,0.1-0.7,0.2-1.1,0.3c-0.3,0.1-0.6,0.2-0.8,0.3c-0.3,0.1-0.5,0.2-0.7,0.3
			c-0.3,0.1-0.5,0.2-0.8,0.4c-0.3,0.1-0.5,0.3-0.7,0.4s-0.5,0.3-0.7,0.4c-0.2,0.2-0.4,0.3-0.7,0.5c-0.2,0.2-0.4,0.4-0.6,0.5
			c-0.2,0.2-0.4,0.4-0.6,0.6c-0.3,0.3-0.5,0.5-0.8,0.8c-0.7,0.8-1.3,1.8-1.9,2.8c-0.8,1.6-1.3,3.3-1.5,5c0,0.4-0.1,0.9-0.1,1.3
			c0,0.4,0,0.9,0.1,1.3c0.3,3.7,2.1,7.1,4.8,9.5h0c1.4,1.2,3,2.1,4.7,2.7c0.3,0.1,0.7,0.2,1,0.3c0,0,0.1,0,0.2,0
			c0.3,0.1,0.6,0.1,0.9,0.2s0.6,0.1,1,0.1c0.1,0,0.1,0,0.2,0c0.3,0,0.7,0.1,1,0.1c0,0,0.1,0,0.1,0c0.8,0,1.5,0,2.2-0.2
			c0.4,0,0.8-0.1,1.1-0.2c0.3-0.1,0.6-0.2,1-0.3c0.1,0,0.2,0,0.2-0.1c0.3-0.1,0.6-0.2,0.9-0.4c0.3-0.1,0.7-0.3,1-0.5
			c0.3-0.2,0.6-0.3,0.9-0.5c0.4-0.2,0.7-0.4,1-0.7c0.3-0.2,0.5-0.4,0.8-0.6c0.2-0.2,0.4-0.4,0.7-0.6c0.2-0.1,0.3-0.3,0.4-0.4
			c0.2-0.2,0.4-0.4,0.6-0.6c0.4-0.4,0.7-0.9,1-1.4c0.2-0.2,0.3-0.5,0.4-0.7c0.2-0.4,0.5-0.9,0.7-1.3c0-0.1,0-0.1,0.1-0.2l2.4-5.7
			l-4.4-2.7l-0.1,0v0L28,56.5c-0.1,0.2-0.2,0.3-0.2,0.5c-0.1,0.3-0.3,0.6-0.5,0.9l0,0c-0.1,0.2-0.2,0.3-0.4,0.5
			c-0.1,0.2-0.3,0.4-0.5,0.6c-0.3,0.4-0.6,0.7-1,1c-0.5,0.4-1.1,0.8-1.7,1.1c-0.9,0.4-1.8,0.7-2.7,0.8c-0.1,0-0.3,0-0.4,0.1
			c-0.1,0-0.3,0-0.4,0h-0.4c-0.2,0-0.3,0-0.5,0c-0.2,0-0.4,0-0.6-0.1c-0.2,0-0.3,0-0.5-0.1c-0.2,0-0.3-0.1-0.5-0.1
			c-0.2,0-0.4-0.1-0.6-0.2c-0.2,0-0.4-0.1-0.5-0.2c-1.1-0.4-2.1-1.1-3-1.9c-0.2-0.2-0.5-0.5-0.7-0.7c-0.6-0.7-1-1.5-1.3-2.3
			c-0.1-0.2-0.2-0.4-0.2-0.7c-0.1-0.3-0.2-0.6-0.2-0.9c-0.1-0.3-0.1-0.5-0.1-0.8c0-0.1,0-0.1,0-0.2c-0.1-0.6-0.1-1.2,0-1.8
			c0.1-0.8,0.3-1.6,0.6-2.4l0.1-0.2c0.1-0.2,0.2-0.4,0.3-0.6c0.1-0.2,0.2-0.5,0.4-0.7c0.1-0.2,0.2-0.4,0.4-0.5
			c0.4-0.6,0.9-1.2,1.5-1.6c0.3-0.3,0.7-0.5,1-0.7c0.2-0.1,0.4-0.2,0.6-0.3c0.2-0.1,0.4-0.2,0.7-0.3c0.2-0.1,0.4-0.2,0.6-0.2
			c0.5-0.2,1-0.3,1.6-0.4c0.2,0,0.5-0.1,0.7-0.1c0.2,0,0.4,0,0.6,0c0.1,0,0.3,0,0.4,0c0.1,0,0.3,0,0.4,0c0.3,0,0.6,0.1,0.9,0.2
			c0,0,0,0,0.1,0c0.3,0.1,0.6,0.2,0.9,0.3c0,0,0,0,0,0c0.4,0.1,0.7,0.3,1.1,0.4l0.2,0.1c0.2,0.1,11.5,6.9,11.5,6.9l13.3,8.1
			c-0.2,0.1-0.5,0.2-0.8,0.4l-0.4,0.2l-0.3,0.2c-0.1,0.1-0.2,0.1-0.3,0.2c-0.2,0.1-0.4,0.2-0.5,0.3c-0.3,0.2-0.5,0.3-0.8,0.5
			c-0.2,0.1-0.4,0.3-0.7,0.5c0,0,0,0,0,0c-0.2,0.2-0.5,0.4-0.7,0.6c-0.4,0.4-0.8,0.8-1.2,1.2c-0.8,0.9-1.4,1.8-2,2.9
			c-0.3,0.6-0.5,1.1-0.7,1.7c-0.1,0.3-0.2,0.6-0.3,0.9c-0.1,0.3-0.2,0.6-0.2,0.9c-0.1,0.3-0.1,0.6-0.2,0.9c-0.1,0.7-0.1,1.3-0.2,2
			c0,0.4,0,0.8,0,1.1c0,0.4,0.1,0.7,0.1,1.1c0,0.3,0.1,0.6,0.2,0.9c0.1,0.3,0.1,0.5,0.2,0.8c0.1,0.3,0.2,0.5,0.3,0.8
			c0.1,0.3,0.2,0.5,0.3,0.8c0.1,0.3,0.2,0.5,0.3,0.8c0.1,0.3,0.3,0.5,0.4,0.7c0.1,0.2,0.3,0.5,0.4,0.7s0.3,0.5,0.5,0.7
			c0.2,0.3,0.5,0.6,0.7,0.9c0.7,0.8,1.6,1.6,2.4,2.2c1.4,1,3,1.8,4.7,2.2c0.4,0.1,0.9,0.2,1.3,0.3c0.4,0.1,0.8,0.1,1.3,0.1
			c3.7,0.2,7.3-1,10.1-3.4v0c1.4-1.2,2.5-2.6,3.4-4.2c0.2-0.3,0.3-0.6,0.4-1c0,0,0.1-0.1,0.1-0.1c0.1-0.3,0.2-0.6,0.3-0.9
			c0.1-0.3,0.2-0.6,0.3-0.9c0-0.1,0-0.1,0.1-0.2c0.1-0.3,0.1-0.6,0.2-1c0,0,0-0.1,0-0.1c0.1-0.7,0.2-1.5,0.2-2.2
			C67.6,73.2,67.6,72.8,67.6,72.4z M62.4,74.1c0,0.1,0,0.3,0,0.4c0,0.2,0,0.3-0.1,0.4c0,0.2,0,0.3-0.1,0.5c0,0.2-0.1,0.4-0.1,0.6
			c0,0.2-0.1,0.4-0.2,0.6c0,0.1-0.1,0.3-0.2,0.4c-0.1,0.2-0.2,0.4-0.3,0.5c-0.1,0.2-0.2,0.3-0.3,0.5c-0.6,1-1.4,1.9-2.3,2.6
			c-0.3,0.2-0.5,0.4-0.8,0.6c-0.8,0.5-1.6,0.8-2.5,1c-0.2,0.1-0.5,0.1-0.7,0.1c-0.3,0-0.6,0.1-0.9,0.1c-0.3,0-0.5,0-0.8,0
			c-0.1,0-0.1,0-0.2,0c-0.6,0-1.2-0.1-1.7-0.3c-0.8-0.2-1.6-0.5-2.3-1l-0.2-0.1c-0.2-0.1-0.4-0.2-0.5-0.4c-0.2-0.1-0.4-0.3-0.6-0.5
			c-0.2-0.1-0.3-0.3-0.5-0.4c-0.6-0.5-1-1.1-1.4-1.8c-0.2-0.4-0.4-0.7-0.6-1.1c-0.1-0.2-0.2-0.4-0.2-0.7c-0.1-0.2-0.1-0.5-0.2-0.7
			c-0.1-0.2-0.1-0.4-0.1-0.6c-0.1-0.5-0.1-1.1-0.1-1.6c0-0.2,0-0.5,0-0.7c0-0.2,0-0.4,0.1-0.6c0-0.1,0-0.3,0.1-0.4
			c0-0.1,0-0.3,0.1-0.4c0.1-0.3,0.2-0.6,0.3-0.9c0,0,0,0,0-0.1c0.1-0.3,0.3-0.6,0.4-0.9c0,0,0,0,0,0c0.2-0.4,0.5-0.8,0.7-1.2
			c0.2-0.2,0.3-0.4,0.5-0.6c0.1-0.1,0.3-0.3,0.4-0.4c0.3-0.3,0.5-0.5,0.8-0.7c0.1-0.1,0.3-0.2,0.5-0.3c0.3-0.2,0.7-0.4,1-0.6
			c0.7-0.4,1.4-0.6,2.2-0.8c0.2,0,0.3-0.1,0.5-0.1c0.2-0.1,0.5-0.1,0.8-0.1c0.1,0,0.2,0,0.2,0c0.5,0,0.9,0,1.4,0c0,0,0.1,0,0.1,0h0
			c1,0.1,2.1,0.4,2.9,0.9l0.5,0.3c0.2,0.1,0.3,0.2,0.5,0.3c0.3,0.2,0.6,0.4,0.8,0.6l0,0c0.1,0.1,0.3,0.3,0.4,0.4
			c0.2,0.2,0.3,0.4,0.5,0.6c0.3,0.4,0.6,0.7,0.8,1.1c0.4,0.6,0.6,1.2,0.8,1.9c0.3,0.9,0.4,1.8,0.4,2.8
			C62.4,73.8,62.4,73.9,62.4,74.1z"/>
		
			<linearGradient id="SVGID_00000178192052637900059060000013916986823094142876_" gradientUnits="userSpaceOnUse" x1="32.2496" y1="90.8376" x2="116.8695" y2="14.8883" gradientTransform="matrix(1 0 0 -1 0 104)">
			<stop  offset="0" style="stop-color:#00FFAF"/>
			<stop  offset="6.000000e-02" style="stop-color:#00EDAD"/>
			<stop  offset="0.32" style="stop-color:#00A6A7"/>
			<stop  offset="0.55" style="stop-color:#006EA2"/>
			<stop  offset="0.75" style="stop-color:#00469F"/>
			<stop  offset="0.91" style="stop-color:#002D9D"/>
			<stop  offset="1" style="stop-color:#00249C"/>
		</linearGradient>
		<path style="fill:url(#SVGID_00000178192052637900059060000013916986823094142876_);" d="M59.9,37.9c0,0.1,0,0.1,0.1,0.2
			L59.9,37.9L59.9,37.9z"/>
	</g>
</g>
</svg>
