<?xml version="1.0" encoding="UTF-8"?>
<svg id="Layer_2" data-name="Layer 2" xmlns="http://www.w3.org/2000/svg" xmlns:xlink="http://www.w3.org/1999/xlink" viewBox="0 0 408.05 101.8">
  <defs>
    <style>
      .cls-1 {
        fill: url(#linear-gradient-2);
      }

      .cls-2 {
        fill: #fff;
      }

      .cls-3 {
        fill: url(#linear-gradient-3);
      }

      .cls-4 {
        fill: url(#linear-gradient);
      }

      .cls-5 {
        fill: url(#linear-gradient-4);
      }
    </style>
    <linearGradient id="linear-gradient" x1="44.09" y1="1003.6" x2="57.02" y2="1015.2" gradientTransform="translate(0 -976)" gradientUnits="userSpaceOnUse">
      <stop offset="0" stop-color="#00ffaf"/>
      <stop offset=".06" stop-color="#00edad"/>
      <stop offset=".32" stop-color="#00a6a7"/>
      <stop offset=".55" stop-color="#006ea2"/>
      <stop offset=".75" stop-color="#00469f"/>
      <stop offset=".91" stop-color="#002d9d"/>
      <stop offset="1" stop-color="#00249c"/>
    </linearGradient>
    <linearGradient id="linear-gradient-2" x1="41.75" y1="996.83" x2="64.5" y2="1017.25" gradientTransform="translate(0 -976)" gradientUnits="userSpaceOnUse">
      <stop offset="0" stop-color="#00ffaf"/>
      <stop offset=".06" stop-color="#00edad"/>
      <stop offset=".32" stop-color="#00a6a7"/>
      <stop offset=".55" stop-color="#006ea2"/>
      <stop offset=".75" stop-color="#00469f"/>
      <stop offset=".91" stop-color="#002d9d"/>
      <stop offset="1" stop-color="#00249c"/>
    </linearGradient>
    <linearGradient id="linear-gradient-3" x1="54.81" y1="1026.94" x2="19.41" y2="1055.18" gradientTransform="translate(0 -976)" gradientUnits="userSpaceOnUse">
      <stop offset="0" stop-color="#00ffaf"/>
      <stop offset=".06" stop-color="#00edad"/>
      <stop offset=".32" stop-color="#00a6a7"/>
      <stop offset=".55" stop-color="#006ea2"/>
      <stop offset=".75" stop-color="#00469f"/>
      <stop offset=".91" stop-color="#002d9d"/>
      <stop offset="1" stop-color="#00249c"/>
    </linearGradient>
    <linearGradient id="linear-gradient-4" x1="32.46" y1="986.98" x2="124.09" y2="1069.22" gradientTransform="translate(0 -976)" gradientUnits="userSpaceOnUse">
      <stop offset="0" stop-color="#00ffaf"/>
      <stop offset=".06" stop-color="#00edad"/>
      <stop offset=".32" stop-color="#00a6a7"/>
      <stop offset=".55" stop-color="#006ea2"/>
      <stop offset=".75" stop-color="#00469f"/>
      <stop offset=".91" stop-color="#002d9d"/>
      <stop offset="1" stop-color="#00249c"/>
    </linearGradient>
  </defs>
  <g>
    <path class="cls-2" d="m120.65,19.07v28.16h-6.83v-16.92l-6.31,16.92h-5.57l-6.31-16.92v16.92h-6.83v-28.16h8.09l7.88,19.55,7.88-19.55s7.99,0,7.99,0Z"/>
    <path class="cls-2" d="m129.8,46.18c-1.79-.95-3.15-2.31-4.1-3.99-1.05-1.79-1.47-3.78-1.47-6.1s.53-4.31,1.58-6.1,2.42-3.15,4.2-3.99c1.79-.95,3.78-1.37,5.99-1.37s4.2.42,5.99,1.37c1.79.95,3.15,2.31,4.2,3.99,1.05,1.79,1.58,3.78,1.58,6.1s-.53,4.31-1.58,6.1-2.42,3.15-4.2,3.99c-1.79.95-3.78,1.37-5.99,1.37-2.42,0-4.41-.42-6.2-1.37Zm9.35-5.99c.95-.95,1.37-2.31,1.37-4.1s-.42-3.15-1.37-4.1c-.95-.95-2-1.47-3.36-1.47s-2.42.53-3.36,1.47c-.84.95-1.37,2.31-1.37,4.2,0,1.79.42,3.15,1.26,4.1s2,1.47,3.26,1.47c1.47-.21,2.63-.63,3.57-1.58Z"/>
    <path class="cls-2" d="m173.3,24.85v22.38h-6.83v-3.05c-.74.95-1.68,1.79-2.84,2.42-1.16.63-2.52.95-3.99.95-1.68,0-3.26-.42-4.52-1.16s-2.31-1.89-3.05-3.36-1.05-3.15-1.05-5.15v-13.03h6.83v12.19c0,1.47.42,2.63,1.16,3.47.74.84,1.79,1.26,3.15,1.26s2.42-.42,3.15-1.26,1.16-2,1.16-3.47v-12.19h6.83Z"/>
    <path class="cls-2" d="m190.75,41.45v5.78h-3.47c-2.52,0-4.41-.63-5.78-1.79-1.37-1.26-2.1-3.26-2.1-5.99v-8.93h-2.73v-5.67h2.73v-5.46h6.83v5.46h4.52v5.67h-4.52v9.04c0,.63.21,1.16.53,1.47.32.32.84.42,1.58.42,0,0,2.42,0,2.42,0Z"/>
    <path class="cls-2" d="m214.5,27.16c1.58,1.68,2.31,3.99,2.31,7.04v13.14h-6.83v-12.3c0-1.47-.42-2.63-1.16-3.47-.74-.84-1.79-1.26-3.15-1.26-1.26,0-2.31.42-3.15,1.26-.74.84-1.16,2-1.16,3.47v12.19h-6.83v-29.74h6.83v10.3c.74-.95,1.68-1.79,2.84-2.42,1.16-.63,2.52-.84,4.1-.84,2.63,0,4.73.84,6.2,2.63Z"/>
    <path class="cls-2" d="m242.03,32.63c-.74,1.37-1.89,2.42-3.47,3.26s-3.47,1.26-5.78,1.26h-4.31v10.09h-6.83v-28.16h11.14c2.21,0,4.2.42,5.67,1.16,1.58.74,2.73,1.89,3.47,3.26.74,1.37,1.16,2.94,1.16,4.73.11,1.58-.32,3.05-1.05,4.41Zm-6.83-1.89c.63-.63.95-1.47.95-2.63s-.32-2-.95-2.63c-.63-.63-1.58-.95-2.94-.95h-3.78v7.04h3.78c1.26.11,2.31-.21,2.94-.84Z"/>
    <path class="cls-2" d="m268.83,24.85v22.38h-6.83v-3.05c-.74.95-1.68,1.79-2.84,2.42-1.16.63-2.52.95-3.99.95-1.68,0-3.26-.42-4.52-1.16-1.26-.74-2.31-1.89-3.05-3.36s-1.05-3.15-1.05-5.15v-13.03h6.83v12.19c0,1.47.42,2.63,1.16,3.47.74.84,1.79,1.26,3.15,1.26s2.42-.42,3.15-1.26,1.16-2,1.16-3.47v-12.19h6.83Z"/>
    <path class="cls-2" d="m283.44,25.48c1.16-.63,2.63-.95,4.1-.95,1.89,0,3.57.42,5.04,1.37s2.73,2.31,3.57,3.99c.84,1.79,1.26,3.78,1.26,6.1s-.42,4.31-1.26,6.1c-.84,1.79-2.1,3.15-3.57,4.1s-3.15,1.47-5.04,1.47c-1.58,0-2.94-.32-4.1-.95-1.16-.63-2.1-1.47-2.73-2.52v3.15h-6.83v-29.85h6.83v10.51c.63-1.05,1.58-1.89,2.73-2.52Zm5.57,6.52c-.95-.95-2.1-1.47-3.47-1.47s-2.52.53-3.47,1.47-1.47,2.31-1.47,4.1.53,3.05,1.47,4.1c.95.95,2.1,1.47,3.47,1.47s2.52-.53,3.47-1.47,1.47-2.31,1.47-4.1c0-1.79-.53-3.15-1.47-4.1Z"/>
    <path class="cls-2" d="m307.92,17.49v29.74h-6.83v-29.74h6.83Z"/>
    <path class="cls-2" d="m313.49,21.38c-.74-.74-1.16-1.58-1.16-2.63s.42-2,1.16-2.63,1.79-1.05,2.94-1.05,2.1.32,2.94,1.05,1.16,1.58,1.16,2.63-.42,1.89-1.16,2.63-1.79,1.05-2.94,1.05c-1.26,0-2.21-.32-2.94-1.05Zm6.31,3.47v22.38h-6.83v-22.38h6.83Z"/>
    <path class="cls-2" d="m324.84,29.89c.95-1.79,2.31-3.05,3.99-3.99,1.68-.95,3.68-1.37,5.89-1.37,2.84,0,5.15.74,7.04,2.21,1.89,1.47,3.15,3.57,3.68,6.2h-7.36c-.63-1.68-1.79-2.52-3.57-2.52-1.26,0-2.31.53-3.05,1.47-.74.95-1.16,2.42-1.16,4.2s.42,3.26,1.16,4.2,1.79,1.47,3.05,1.47c1.79,0,2.94-.84,3.57-2.52h7.36c-.63,2.63-1.79,4.73-3.78,6.2-1.89,1.47-4.2,2.21-7.04,2.21-2.21,0-4.1-.42-5.89-1.37-1.68-.95-3.05-2.31-3.99-3.99-.95-1.79-1.47-3.78-1.47-6.1s.63-4.52,1.58-6.31Z"/>
    <path class="cls-2" d="m349.64,21.38c-.74-.74-1.16-1.58-1.16-2.63s.42-2,1.16-2.63,1.79-1.05,2.94-1.05,2.1.32,2.94,1.05,1.16,1.58,1.16,2.63-.42,1.89-1.16,2.63-1.79,1.05-2.94,1.05c-1.26,0-2.21-.32-2.94-1.05Zm6.31,3.47v22.38h-6.83v-22.38h6.83Z"/>
    <path class="cls-2" d="m373.5,41.45v5.78h-3.47c-2.52,0-4.41-.63-5.78-1.79-1.37-1.26-2.1-3.26-2.1-5.99v-8.93h-2.73v-5.67h2.73v-5.46h6.83v5.46h4.52v5.67h-4.52v9.04c0,.63.21,1.16.53,1.47.32.32.84.42,1.58.42,0,0,2.42,0,2.42,0Z"/>
    <path class="cls-2" d="m400.19,24.85l-14.08,33.1h-7.36l5.15-11.45-9.14-21.65h7.67l5.15,13.98,5.15-13.98h7.46Z"/>
  </g>
  <g>
    <path class="cls-2" d="m101.82,60.57v14.74c0,2.07-.55,3.58-1.79,4.82-1.24,1.1-2.75,1.65-4.82,1.65s-3.58-.55-4.82-1.79-1.79-2.75-1.79-4.96h4.27c0,.96.28,1.65.69,2.07.41.55.96.69,1.79.69s1.38-.28,1.79-.69.55-1.1.55-1.93v-14.6h4.13Z"/>
    <path class="cls-2" d="m124,64.98v16.67h-4.27v-2.07c-.55.69-1.24,1.24-2.07,1.65s-1.79.55-2.89.55c-1.38,0-2.48-.28-3.44-.83s-1.79-1.38-2.34-2.48c-.55-1.1-.83-2.34-.83-3.86v-9.78h4.27v9.23c0,1.38.28,2.34.96,3.03s1.52,1.1,2.75,1.1c1.1,0,2.07-.41,2.75-1.1s.96-1.79.96-3.03v-9.23h4.13v.14Z"/>
    <path class="cls-2" d="m132.4,81.23c-1.1-.55-1.93-1.1-2.62-2.07-.69-.83-.96-1.79-1.1-2.75h4.27c.14.69.41,1.24.96,1.65s1.24.69,2.07.69,1.38-.14,1.93-.55c.41-.28.69-.69.69-1.24s-.28-.96-.83-1.24-1.38-.55-2.62-.83-2.2-.55-3.03-.96c-.83-.28-1.52-.83-2.07-1.52s-.83-1.52-.83-2.75c0-.96.28-1.79.83-2.48.55-.83,1.24-1.38,2.34-1.79s2.2-.69,3.58-.69c1.93,0,3.58.55,4.82,1.52s1.79,2.34,1.93,3.99h-3.99c0-.69-.28-1.24-.83-1.65-.55-.41-1.1-.55-1.93-.55s-1.38.14-1.79.41c-.41.28-.55.69-.55,1.24s.28.96.83,1.24,1.38.55,2.62.83,2.2.55,3.03.96c.83.28,1.52.83,2.07,1.52s.83,1.52.83,2.62c0,.96-.28,1.79-.83,2.62s-1.24,1.38-2.34,1.79c-.96.41-2.2.69-3.44.69-1.65,0-2.89-.28-3.99-.69Z"/>
    <path class="cls-2" d="m152.51,68.42v8.13c0,.55.14.96.41,1.24.28.28.69.41,1.38.41h1.93v3.58h-2.62c-3.58,0-5.37-1.79-5.37-5.23v-8.13h-1.93v-3.44h1.93v-4.13h4.27v4.13h3.72v3.44h-3.72Z"/>
    <path class="cls-2" d="m195.21,66.63c1.24,1.24,1.93,3.03,1.93,5.23v9.78h-4.27v-9.23c0-1.24-.28-2.34-.96-3.03s-1.52-1.1-2.75-1.1-2.07.41-2.75,1.1-.96,1.65-.96,3.03v9.23h-4.27v-9.23c0-1.24-.28-2.34-.96-3.03s-1.52-1.1-2.75-1.1c-1.1,0-2.07.41-2.75,1.1s-.96,1.65-.96,3.03v9.23h-4.27v-16.67h4.27v1.93c.55-.69,1.24-1.24,2.07-1.65.83-.41,1.79-.55,2.75-.55,1.38,0,2.48.28,3.44.83s1.79,1.38,2.34,2.34c.55-.96,1.38-1.79,2.34-2.34,1.1-.55,2.2-.83,3.31-.83,2.34,0,3.99.69,5.23,1.93Z"/>
    <path class="cls-2" d="m202.51,68.7c.69-1.38,1.65-2.34,2.75-3.03s2.48-1.1,3.86-1.1c1.24,0,2.34.28,3.31.69s1.65,1.1,2.2,1.93v-2.34h4.27v16.67h-4.27v-2.2c-.55.83-1.24,1.38-2.2,1.93-.96.55-2.07.83-3.31.83-1.38,0-2.75-.41-3.86-1.1s-2.07-1.79-2.75-3.03c-.69-1.38-.96-2.89-.96-4.55,0-1.79.28-3.31.96-4.68Zm11.57,1.93c-.41-.69-.96-1.24-1.65-1.65-.69-.41-1.38-.55-2.2-.55s-1.52.14-2.2.55-1.24.96-1.65,1.65-.55,1.65-.55,2.62.14,1.93.55,2.62c.41.69.96,1.38,1.65,1.79s1.38.55,2.2.55,1.52-.14,2.2-.55,1.24-.96,1.65-1.65.55-1.65.55-2.62c0-1.1-.14-1.93-.55-2.75Z"/>
    <path class="cls-2" d="m238.6,66.63c1.24,1.24,1.79,3.03,1.79,5.23v9.78h-4.27v-9.23c0-1.38-.28-2.34-.96-3.03s-1.52-1.1-2.75-1.1c-1.1,0-2.07.41-2.75,1.1s-.96,1.79-.96,3.03v9.23h-4.27v-16.67h4.27v2.07c.55-.69,1.24-1.24,2.2-1.65.83-.41,1.79-.69,2.89-.69,2.07,0,3.58.69,4.82,1.93Z"/>
    <path class="cls-2" d="m245.9,68.7c.69-1.38,1.65-2.34,2.75-3.03s2.48-1.1,3.86-1.1c1.24,0,2.34.28,3.31.69s1.65,1.1,2.2,1.93v-2.34h4.27v16.67h-4.27v-2.2c-.55.83-1.24,1.38-2.2,1.93-.96.55-2.07.83-3.31.83-1.38,0-2.75-.41-3.86-1.1s-2.07-1.79-2.75-3.03c-.69-1.38-.96-2.89-.96-4.55,0-1.79.28-3.31.96-4.68Zm11.57,1.93c-.41-.69-.96-1.24-1.65-1.65-.69-.41-1.38-.55-2.2-.55s-1.52.14-2.2.55-1.24.96-1.65,1.65-.55,1.65-.55,2.62.14,1.93.55,2.62.96,1.38,1.65,1.79,1.38.55,2.2.55,1.52-.14,2.2-.55,1.24-.96,1.65-1.65.55-1.65.55-2.62c0-1.1-.14-1.93-.55-2.75Z"/>
    <path class="cls-2" d="m277.72,65.39c.96.55,1.65,1.1,2.2,1.93v-2.34h4.27v16.8c0,1.52-.28,2.89-.96,4.13s-1.52,2.2-2.75,2.89-2.75,1.1-4.55,1.1c-2.34,0-4.27-.55-5.79-1.65s-2.34-2.62-2.62-4.55h4.13c.28.83.69,1.38,1.38,1.79s1.65.69,2.62.69c1.24,0,2.2-.41,3.03-1.1.83-.69,1.1-1.79,1.1-3.31v-2.62c-.55.83-1.24,1.38-2.2,1.93s-2.07.83-3.31.83c-1.38,0-2.75-.41-3.86-1.1s-2.07-1.79-2.75-3.03c-.69-1.38-.96-2.89-.96-4.55s.28-3.17.96-4.55,1.65-2.34,2.75-3.03,2.48-1.1,3.86-1.1c1.52.14,2.62.41,3.44.83Zm1.65,5.23c-.41-.69-.96-1.24-1.65-1.65-.69-.41-1.38-.55-2.2-.55s-1.52.14-2.2.55-1.24.96-1.65,1.65-.55,1.65-.55,2.62.14,1.93.55,2.62.96,1.38,1.65,1.79,1.38.55,2.2.55,1.52-.14,2.2-.55,1.24-.96,1.65-1.65.55-1.65.55-2.62c.14-1.1-.14-1.93-.55-2.75Z"/>
    <path class="cls-2" d="m305.26,74.62h-12.26c.14,1.24.55,2.2,1.24,2.89s1.65.96,2.75.96c1.52,0,2.75-.69,3.31-2.07h4.55c-.55,1.65-1.38,2.89-2.75,3.99s-3.03,1.52-5.1,1.52c-1.65,0-3.03-.41-4.27-1.1-1.24-.69-2.34-1.79-3.03-3.03-.69-1.38-1.1-2.75-1.1-4.55s.41-3.31,1.1-4.55c.69-1.38,1.65-2.34,2.89-3.03s2.75-1.1,4.41-1.1,3.03.28,4.27.96c1.24.69,2.2,1.65,2.89,2.89s1.1,2.75,1.1,4.27c.14.83.14,1.38,0,1.93Zm-4.27-2.89c0-1.1-.41-1.93-1.24-2.62-.83-.69-1.65-.96-2.75-.96s-1.93.28-2.62.96-1.1,1.52-1.38,2.62h7.99Z"/>
    <path class="cls-2" d="m318.9,62.22c-.55-.41-.69-1.1-.69-1.79s.28-1.24.69-1.79c.55-.41,1.1-.69,1.79-.69s1.38.28,1.79.69c.55.41.69,1.1.69,1.79s-.28,1.24-.69,1.79c-.55.41-1.1.69-1.79.69s-1.24-.14-1.79-.69Zm3.99,2.75v16.67h-4.27v-16.67h4.27Z"/>
    <path class="cls-2" d="m333.5,68.42v8.13c0,.55.14.96.41,1.24.28.28.69.41,1.38.41h1.93v3.58h-2.62c-3.58,0-5.37-1.79-5.37-5.23v-8.13h-1.93v-3.44h1.93v-4.13h4.27v4.13h3.72v3.44h-3.72Z"/>
    <path class="cls-2" d="m341.76,81.23c-.55-.41-.69-1.1-.69-1.79s.28-1.24.69-1.79c.55-.41,1.1-.69,1.93-.69.69,0,1.38.28,1.79.69.55.41.69,1.1.69,1.79s-.28,1.24-.69,1.79c-.55.41-1.1.69-1.79.69-.83,0-1.52-.28-1.93-.69Z"/>
    <path class="cls-2" d="m350.99,81.23c-.55-.41-.69-1.1-.69-1.79s.28-1.24.69-1.79c.55-.41,1.1-.69,1.93-.69.69,0,1.38.28,1.79.69.55.41.69,1.1.69,1.79s-.28,1.24-.69,1.79c-.55.41-1.1.69-1.79.69s-1.38-.28-1.93-.69Z"/>
    <path class="cls-2" d="m361.74,81.23c-.55-.41-.69-1.1-.69-1.79s.28-1.24.69-1.79c.55-.41,1.1-.69,1.93-.69.69,0,1.38.28,1.79.69.55.41.69,1.1.69,1.79s-.28,1.24-.69,1.79c-.55.41-1.1.69-1.79.69s-1.38-.28-1.93-.69Zm4.13-20.94l-.55,14.6h-3.44l-.55-14.6s4.55,0,4.55,0Z"/>
  </g>
  <g id="Layer_2-2" data-name="Layer 2">
    <g id="Layer_1-2" data-name="Layer 1-2">
      <path class="cls-4" d="m48.6,27.5h0v.1-.1Zm-.3-1.8v.2c.1,0,.1-.1,0-.2h0Zm-3.3,7.9c.2.2.3.5.5.7.1.2.3.4.4.6-.3-.5-.6-1-.9-1.3h0Z"/>
      <path class="cls-1" d="m73.3,24.3c-.2-2.7-1.2-5.3-2.7-7.5-.7-1-1.5-2-2.5-2.8h0c-1.5-1.3-3.2-2.3-5.1-2.9-.4-.1-.7-.2-1.1-.3h-.2c-.3-.1-.6-.1-1-.2-.3-.1-.7-.1-1.1-.2h-.2c-.4,0-.7-.1-1.1-.1h-.2c-.8,0-1.6,0-2.4.2-.4.1-.8.1-1.2.2-.3.1-.7.2-1,.3-.1,0-.2,0-.3.1-.4.1-.7.2-1,.4-.4.1-.7.3-1.1.5-.3.2-.7.4-1,.6-.4.2-.8.5-1.1.8-.3.2-.6.4-.9.7-.2.2-.5.4-.7.6-.2.1-.3.3-.5.4-.2.2-.4.5-.6.7-.4.5-.8,1-1.1,1.5-.2.3-.3.5-.5.8-.3.5-.5,1-.7,1.5,0,.1-.1.1-.1.2l-10.2,24.3,4.8,2.9,6-14.4h0c.1.2.3.5.5.9s.5.8.9,1.3c.1.1.2.2.2.3.2.3.4.5.6.7l.6.6h.1c.2.2.5.4.7.6.5.4,1,.8,1.5,1.1,1.1.7,2.2,1.2,3.4,1.7.6.2,1.3.4,2,.5.3.1.7.1,1,.2.3.1.7.1,1,.1h1c.7,0,1.4,0,2.2-.1.4-.1.8-.1,1.2-.2.4-.1.8-.2,1.2-.3.3-.1.6-.2.9-.3.3-.1.5-.2.8-.3s.6-.3.8-.4.5-.3.8-.5.5-.3.8-.5.5-.4.7-.5l.7-.6c.2-.2.5-.4.7-.6.3-.3.6-.6.8-.9.8-.9,1.4-1.9,2-3,.9-1.7,1.4-3.5,1.6-5.4,0-.5.1-.9.1-1.4v-1.3Zm-5.6,2.2c-.1.9-.3,1.8-.7,2.6l-.1.2c-.1.2-.2.4-.3.6-.1.2-.3.5-.4.7s-.2.4-.4.6c-.5.7-1,1.3-1.7,1.8-.4.3-.7.6-1.1.8-.2.1-.4.3-.7.4-.2.1-.5.2-.7.3s-.4.2-.6.2c-.5.2-1.1.3-1.7.4-.3,0-.5.1-.8.1h-1.5c-.3,0-.7-.1-1-.2h-.1c-.3-.1-.7-.2-1-.3h0c-.5-.2-.9-.4-1.4-.6-.3-.1-.5-.3-.8-.5-.2-.1-.3-.2-.5-.3-.3-.2-.6-.5-.9-.8-.2-.1-.3-.3-.4-.4-.3-.3-.6-.7-.8-1-.5-.7-.9-1.4-1.2-2.2-.1-.2-.1-.3-.2-.5-.1-.2-.1-.4-.2-.6v-.3c-.1-.5-.2-1-.2-1.6h0v-.2h0c-.1-1.1,0-2.2.5-3.2l.3-.7c.1-.2.2-.4.3-.5.2-.3.3-.7.6-1h0c.1-.2.3-.4.4-.5.2-.2.3-.4.5-.6.3-.4.7-.7,1.1-1,1.4-1.1,3-1.8,4.8-2.1.1,0,.3,0,.4-.1h1.5c.2,0,.5,0,.7.1.2,0,.4,0,.5.1.2,0,.4.1.5.1.2,0,.4.1.6.2.2,0,.4.1.6.2,1.2.5,2.3,1.2,3.2,2.1,1,.9,1.7,2,2.2,3.3.1.2.2.5.3.7.1.3.2.6.2,1,.1.3.1.5.1.8v.2c.1.5.1,1.1.1,1.7Z"/>
      <path class="cls-3" d="m70.7,75.1c0-.4-.1-.7-.1-1.1v-.3c-.1-.4-.1-.7-.2-1.1s-.2-.8-.3-1.2c-.1-.4-.2-.7-.4-1.1-.2-.4-.4-.8-.6-1.2-.2-.3-.3-.6-.5-.9s-.3-.5-.5-.8c-.1-.2-.2-.4-.4-.5-.2-.3-.4-.5-.6-.7-.4-.5-.9-.9-1.3-1.3-.2-.2-.5-.4-.7-.6-.4-.3-.9-.6-1.3-.9-.1,0-.1-.1-.2-.1l-18.4-11.1-7-4.3-4.9-2.9h0s-5.7-3.5-6-3.7c-1.1-.7-2.2-1.2-3.4-1.7-.6-.2-1.3-.4-2-.5-.3-.1-.7-.1-1-.2-.3-.1-.7-.1-1-.1h-1c-.7,0-1.4,0-2.2.1-.4.1-.8.1-1.2.2-.4.1-.8.2-1.2.3-.3.1-.6.2-.9.3-.3.1-.5.2-.8.3s-.6.3-.8.4c-.3.1-.5.3-.8.4s-.5.3-.8.5-.5.4-.7.5c-.2.2-.5.4-.7.6-.2.2-.5.4-.7.6-.3.3-.6.6-.8.9-.8.9-1.5,1.9-2,3-.9,1.7-1.4,3.5-1.6,5.4,0,.5-.1,1-.1,1.4,0,.5,0,.9.1,1.4.4,4,2.2,7.7,5.2,10.3h0c1.5,1.3,3.2,2.3,5.1,2.9.4.1.7.2,1.1.3h.2c.3.1.6.1,1,.2.3.1.7.1,1.1.2h.2c.4,0,.7.1,1.1.1h.2c.8,0,1.6,0,2.4-.2.4-.1.8-.1,1.2-.2.3-.1.7-.2,1-.3.1,0,.2,0,.3-.1.4-.1.7-.2,1-.4.4-.1.7-.3,1.1-.5.3-.2.7-.4,1-.6.4-.2.8-.5,1.1-.8.3-.2.6-.4.9-.7.2-.2.5-.4.7-.6.2-.1.3-.3.5-.4.2-.2.4-.5.6-.7.4-.5.8-1,1.1-1.5.2-.3.3-.5.5-.8.3-.5.5-1,.7-1.5,0-.1.1-.1.1-.2l2.6-6.2-4.8-2.9-.1.5h0l-2.9,6.8c-.1.2-.2.4-.3.5-.2.3-.3.7-.6,1h0c-.1.2-.3.4-.4.5-.2.2-.3.4-.5.6-.3.4-.7.7-1.1,1-.6.5-1.2.9-1.9,1.2-.9.4-1.9.7-2.9.9-.1,0-.3,0-.4.1s-.3,0-.5,0h-1c-.2,0-.5,0-.7-.1-.2,0-.4,0-.5-.1-.2,0-.4-.1-.5-.1-.2,0-.4-.1-.6-.2-.2,0-.4-.1-.6-.2-1.2-.5-2.3-1.2-3.2-2.1-.3-.3-.5-.5-.7-.8-.6-.7-1.1-1.6-1.4-2.5-.1-.2-.2-.5-.3-.7-.1-.3-.2-.6-.2-.9-.1-.3-.1-.5-.1-.8v-.2c-.1-.6-.1-1.3,0-1.9.1-.9.3-1.8.7-2.6l.1-.2c.1-.2.2-.4.3-.6.1-.3.3-.5.4-.7.1-.2.2-.4.4-.6.5-.7,1-1.3,1.7-1.8.4-.3.7-.5,1.1-.8.2-.1.4-.3.6-.4.2-.1.5-.2.7-.3s.4-.2.6-.2c.5-.2,1.1-.3,1.7-.4.3,0,.5-.1.8-.1h1.5c.3,0,.7.1,1,.2h.1c.3.1.7.2,1,.3h0c.4.1.8.3,1.1.5l.2.1c.3.1,12.5,7.5,12.5,7.5l14.4,8.8c-.3.1-.6.2-.9.4l-.5.3-.4.2c-.1.1-.2.1-.4.2-.2.1-.4.2-.6.3-.3.2-.6.3-.8.5s-.5.3-.7.5h0c-.2.2-.5.4-.7.6-.5.4-.9.8-1.3,1.3-.8.9-1.5,2-2.1,3.1-.3.6-.6,1.2-.8,1.9-.1.3-.2.6-.3,1-.1.3-.2.7-.2,1-.1.3-.1.6-.2,1-.1.7-.2,1.4-.2,2.2,0,.4,0,.8.1,1.2,0,.4.1.8.1,1.2,0,.3.1.6.2.9.1.3.1.6.2.8.1.3.2.6.3.9s.2.6.3.8c.1.3.2.5.4.8.1.3.3.5.4.8.2.3.3.5.5.8s.3.5.5.7c.2.3.5.6.8,1,.8.9,1.7,1.7,2.6,2.4,1.6,1.1,3.3,1.9,5.1,2.4.5.1.9.2,1.4.3.5.1.9.1,1.4.1,4,.2,7.9-1.1,11-3.7h0c1.5-1.3,2.7-2.8,3.6-4.6.2-.3.3-.7.5-1,0,0,.1-.1.1-.2.1-.3.2-.6.3-.9.1-.3.2-.7.3-1,0-.1.1-.1.1-.2.1-.4.2-.7.2-1v-.2c.1-.8.2-1.6.2-2.4-.1-.2-.1-.6-.2-1Zm-5.6,1.8c0,.2,0,.3-.1.5,0,.2,0,.3-.1.5,0,.2-.1.4-.1.5,0,.2-.1.4-.2.6s-.1.5-.2.6c0,.1-.1.3-.2.4-.1.2-.2.4-.3.6-.1.2-.2.4-.3.5-.6,1.1-1.5,2.1-2.5,2.9-.3.2-.6.4-.9.6-.8.5-1.7.8-2.7,1-.2.1-.5.1-.7.1-.3.1-.6.1-1,.1h-1c-.6,0-1.3-.1-1.9-.3-.9-.2-1.7-.6-2.5-1l-.2-.1c-.2-.1-.4-.3-.6-.4-.2-.2-.4-.3-.6-.5-.2-.1-.4-.3-.5-.5-.6-.6-1.1-1.2-1.5-1.9l-.6-1.2c-.1-.2-.2-.5-.3-.7s-.2-.5-.2-.7c-.1-.2-.1-.4-.1-.6-.1-.6-.1-1.1-.1-1.7v-.8c0-.2,0-.5.1-.7,0-.1,0-.3.1-.4,0-.1,0-.3.1-.4.1-.3.2-.7.3-1v-.1c.1-.3.3-.6.4-1h0c.2-.4.5-.9.8-1.3.2-.2.4-.5.6-.7.1-.1.3-.3.4-.4.3-.3.6-.6.9-.8.2-.1.3-.3.5-.4.4-.3.7-.5,1.1-.7.7-.4,1.5-.7,2.3-.8.2-.1.4-.1.5-.1.3-.1.5-.1.8-.1h1.8c1.1.1,2.2.4,3.2,1l.6.3c.2.1.3.2.5.3.3.2.6.4.9.7h0c.2.2.3.3.5.5s.4.4.5.6c.3.4.6.8.9,1.2.4.6.7,1.3.9,2,.3,1,.5,2,.4,3,.4.5.3.6.3.8Z"/>
      <path class="cls-5" d="m62.4,37.8q0,.1.1.2l-.1-.2h0Z"/>
    </g>
  </g>
</svg>