<?xml version="1.0" encoding="utf-8"?>
<!-- Generator: Adobe Illustrator 27.3.0, SVG Export Plug-In . SVG Version: 6.00 Build 0)  -->
<svg version="1.1" id="Layer_2_00000080896977302660629260000009525413326711132325_"
	 xmlns="http://www.w3.org/2000/svg" xmlns:xlink="http://www.w3.org/1999/xlink" x="0px" y="0px" viewBox="0 0 391.6 101.8"
	 style="enable-background:new 0 0 391.6 101.8;" xml:space="preserve">
<style type="text/css">
	.st0{fill:url(#SVGID_1_);}
	.st1{fill:url(#SVGID_00000183229907974415780550000009389523212914000514_);}
	.st2{fill:url(#SVGID_00000119813411784048300290000018079828609042849960_);}
	.st3{fill:url(#SVGID_00000047746193309416586190000004446302745931129274_);}
	.st4{fill:url(#SVGID_00000066514205885355996270000003937102960817707909_);}
</style>
<g>
	<path d="M122.1,26.5v26.8h-6.5V37.2l-6,16.1h-5.3l-6-16.1v16.1h-6.5V26.5h7.7l7.5,18.6l7.5-18.6H122.1z"/>
	<path d="M130.8,52.3c-1.7-0.9-3-2.2-3.9-3.8c-1-1.7-1.4-3.6-1.4-5.8c0-2.2,0.5-4.1,1.5-5.8c1-1.7,2.3-3,4-3.8
		c1.7-0.9,3.6-1.3,5.7-1.3c2.1,0,4,0.4,5.7,1.3c1.7,0.9,3,2.2,4,3.8c1,1.7,1.5,3.6,1.5,5.8s-0.5,4.1-1.5,5.8c-1,1.7-2.3,3-4,3.8
		c-1.7,0.9-3.6,1.3-5.7,1.3C134.4,53.6,132.5,53.2,130.8,52.3z M139.7,46.6c0.9-0.9,1.3-2.2,1.3-3.9c0-1.7-0.4-3-1.3-3.9
		c-0.9-0.9-1.9-1.4-3.2-1.4c-1.3,0-2.3,0.5-3.2,1.4c-0.8,0.9-1.3,2.2-1.3,4c0,1.7,0.4,3,1.2,3.9c0.8,0.9,1.9,1.4,3.1,1.4
		C137.7,47.9,138.8,47.5,139.7,46.6z"/>
	<path d="M172.2,32v21.3h-6.5v-2.9c-0.7,0.9-1.6,1.7-2.7,2.3c-1.1,0.6-2.4,0.9-3.8,0.9c-1.6,0-3.1-0.4-4.3-1.1s-2.2-1.8-2.9-3.2
		c-0.7-1.4-1-3-1-4.9V32h6.5v11.6c0,1.4,0.4,2.5,1.1,3.3c0.7,0.8,1.7,1.2,3,1.2c1.3,0,2.3-0.4,3-1.2c0.7-0.8,1.1-1.9,1.1-3.3V32
		H172.2z"/>
	<path d="M188.8,47.8v5.5h-3.3c-2.4,0-4.2-0.6-5.5-1.7c-1.3-1.2-2-3.1-2-5.7v-8.5h-2.6V32h2.6v-5.2h6.5V32h4.3v5.4h-4.3V46
		c0,0.6,0.2,1.1,0.5,1.4c0.3,0.3,0.8,0.4,1.5,0.4H188.8z"/>
	<path d="M211.4,34.2c1.5,1.6,2.2,3.8,2.2,6.7v12.5h-6.5V41.7c0-1.4-0.4-2.5-1.1-3.3c-0.7-0.8-1.7-1.2-3-1.2c-1.2,0-2.2,0.4-3,1.2
		c-0.7,0.8-1.1,1.9-1.1,3.3v11.6h-6.5V25h6.5v9.8c0.7-0.9,1.6-1.7,2.7-2.3c1.1-0.6,2.4-0.8,3.9-0.8C208,31.7,210,32.5,211.4,34.2z"
		/>
	<path d="M237.6,39.4c-0.7,1.3-1.8,2.3-3.3,3.1c-1.5,0.8-3.3,1.2-5.5,1.2h-4.1v9.6h-6.5V26.5h10.6c2.1,0,4,0.4,5.4,1.1
		c1.5,0.7,2.6,1.8,3.3,3.1c0.7,1.3,1.1,2.8,1.1,4.5C238.7,36.7,238.3,38.1,237.6,39.4z M231.1,37.6c0.6-0.6,0.9-1.4,0.9-2.5
		s-0.3-1.9-0.9-2.5c-0.6-0.6-1.5-0.9-2.8-0.9h-3.6v6.7h3.6C229.5,38.5,230.5,38.2,231.1,37.6z"/>
	<path d="M263.1,32v21.3h-6.5v-2.9c-0.7,0.9-1.6,1.7-2.7,2.3c-1.1,0.6-2.4,0.9-3.8,0.9c-1.6,0-3.1-0.4-4.3-1.1
		c-1.2-0.7-2.2-1.8-2.9-3.2c-0.7-1.4-1-3-1-4.9V32h6.5v11.6c0,1.4,0.4,2.5,1.1,3.3c0.7,0.8,1.7,1.2,3,1.2c1.3,0,2.3-0.4,3-1.2
		c0.7-0.8,1.1-1.9,1.1-3.3V32H263.1z"/>
	<path d="M277,32.6c1.1-0.6,2.5-0.9,3.9-0.9c1.8,0,3.4,0.4,4.8,1.3c1.4,0.9,2.6,2.2,3.4,3.8c0.8,1.7,1.2,3.6,1.2,5.8
		c0,2.2-0.4,4.1-1.2,5.8c-0.8,1.7-2,3-3.4,3.9c-1.4,0.9-3,1.4-4.8,1.4c-1.5,0-2.8-0.3-3.9-0.9c-1.1-0.6-2-1.4-2.6-2.4v3h-6.5V25h6.5
		v10C275,34,275.9,33.2,277,32.6z M282.3,38.8c-0.9-0.9-2-1.4-3.3-1.4c-1.3,0-2.4,0.5-3.3,1.4c-0.9,0.9-1.4,2.2-1.4,3.9
		s0.5,2.9,1.4,3.9c0.9,0.9,2,1.4,3.3,1.4c1.3,0,2.4-0.5,3.3-1.4s1.4-2.2,1.4-3.9C283.7,41,283.2,39.7,282.3,38.8z"/>
	<path d="M300.3,25v28.3h-6.5V25H300.3z"/>
	<path d="M305.6,28.7c-0.7-0.7-1.1-1.5-1.1-2.5c0-1,0.4-1.9,1.1-2.5s1.7-1,2.8-1c1.1,0,2,0.3,2.8,1s1.1,1.5,1.1,2.5
		c0,1-0.4,1.8-1.1,2.5c-0.7,0.7-1.7,1-2.8,1C307.2,29.7,306.3,29.4,305.6,28.7z M311.6,32v21.3h-6.5V32H311.6z"/>
	<path d="M316.4,36.8c0.9-1.7,2.2-2.9,3.8-3.8c1.6-0.9,3.5-1.3,5.6-1.3c2.7,0,4.9,0.7,6.7,2.1c1.8,1.4,3,3.4,3.5,5.9h-7
		c-0.6-1.6-1.7-2.4-3.4-2.4c-1.2,0-2.2,0.5-2.9,1.4c-0.7,0.9-1.1,2.3-1.1,4c0,1.7,0.4,3.1,1.1,4c0.7,0.9,1.7,1.4,2.9,1.4
		c1.7,0,2.8-0.8,3.4-2.4h7c-0.6,2.5-1.7,4.5-3.6,5.9c-1.8,1.4-4,2.1-6.7,2.1c-2.1,0-3.9-0.4-5.6-1.3c-1.6-0.9-2.9-2.2-3.8-3.8
		c-0.9-1.7-1.4-3.6-1.4-5.8S315.5,38.5,316.4,36.8z"/>
	<path d="M340,28.7c-0.7-0.7-1.1-1.5-1.1-2.5c0-1,0.4-1.9,1.1-2.5s1.7-1,2.8-1c1.1,0,2,0.3,2.8,1s1.1,1.5,1.1,2.5
		c0,1-0.4,1.8-1.1,2.5c-0.7,0.7-1.7,1-2.8,1C341.6,29.7,340.7,29.4,340,28.7z M346,32v21.3h-6.5V32H346z"/>
	<path d="M362.7,47.8v5.5h-3.3c-2.4,0-4.2-0.6-5.5-1.7c-1.3-1.2-2-3.1-2-5.7v-8.5h-2.6V32h2.6v-5.2h6.5V32h4.3v5.4h-4.3V46
		c0,0.6,0.2,1.1,0.5,1.4c0.3,0.3,0.8,0.4,1.5,0.4H362.7z"/>
	<path d="M388.1,32l-13.4,31.5h-7l4.9-10.9L363.9,32h7.3l4.9,13.3L381,32H388.1z"/>
</g>
<g>
	<path d="M100.7,63.4v10.7c0,1.5-0.4,2.6-1.3,3.5c-0.9,0.8-2,1.2-3.5,1.2c-1.5,0-2.6-0.4-3.5-1.3s-1.3-2-1.3-3.6h3.1
		c0,0.7,0.2,1.2,0.5,1.5c0.3,0.4,0.7,0.5,1.3,0.5c0.6,0,1-0.2,1.3-0.5s0.4-0.8,0.4-1.4V63.4H100.7z"/>
	<path d="M116.8,66.6v12.1h-3.1v-1.5c-0.4,0.5-0.9,0.9-1.5,1.2s-1.3,0.4-2.1,0.4c-1,0-1.8-0.2-2.5-0.6c-0.7-0.4-1.3-1-1.7-1.8
		c-0.4-0.8-0.6-1.7-0.6-2.8v-7.1h3.1v6.7c0,1,0.2,1.7,0.7,2.2s1.1,0.8,2,0.8c0.8,0,1.5-0.3,2-0.8s0.7-1.3,0.7-2.2v-6.7H116.8z"/>
	<path d="M122.9,78.4c-0.8-0.4-1.4-0.8-1.9-1.5c-0.5-0.6-0.7-1.3-0.8-2h3.1c0.1,0.5,0.3,0.9,0.7,1.2s0.9,0.5,1.5,0.5
		c0.6,0,1-0.1,1.4-0.4c0.3-0.2,0.5-0.5,0.5-0.9c0-0.4-0.2-0.7-0.6-0.9s-1-0.4-1.9-0.6c-0.9-0.2-1.6-0.4-2.2-0.7
		c-0.6-0.2-1.1-0.6-1.5-1.1c-0.4-0.5-0.6-1.1-0.6-2c0-0.7,0.2-1.3,0.6-1.8c0.4-0.6,0.9-1,1.7-1.3s1.6-0.5,2.6-0.5
		c1.4,0,2.6,0.4,3.5,1.1c0.9,0.7,1.3,1.7,1.4,2.9h-2.9c0-0.5-0.2-0.9-0.6-1.2c-0.4-0.3-0.8-0.4-1.4-0.4c-0.6,0-1,0.1-1.3,0.3
		c-0.3,0.2-0.4,0.5-0.4,0.9c0,0.4,0.2,0.7,0.6,0.9s1,0.4,1.9,0.6c0.9,0.2,1.6,0.4,2.2,0.7c0.6,0.2,1.1,0.6,1.5,1.1
		c0.4,0.5,0.6,1.1,0.6,1.9c0,0.7-0.2,1.3-0.6,1.9c-0.4,0.6-0.9,1-1.7,1.3c-0.7,0.3-1.6,0.5-2.5,0.5
		C124.6,78.9,123.7,78.7,122.9,78.4z"/>
	<path d="M137.5,69.1V75c0,0.4,0.1,0.7,0.3,0.9c0.2,0.2,0.5,0.3,1,0.3h1.4v2.6h-1.9c-2.6,0-3.9-1.3-3.9-3.8v-5.9H133v-2.5h1.4v-3
		h3.1v3h2.7v2.5H137.5z"/>
	<path d="M168.5,67.8c0.9,0.9,1.4,2.2,1.4,3.8v7.1h-3.1V72c0-0.9-0.2-1.7-0.7-2.2c-0.5-0.5-1.1-0.8-2-0.8s-1.5,0.3-2,0.8
		c-0.5,0.5-0.7,1.2-0.7,2.2v6.7h-3.1V72c0-0.9-0.2-1.7-0.7-2.2c-0.5-0.5-1.1-0.8-2-0.8c-0.8,0-1.5,0.3-2,0.8
		c-0.5,0.5-0.7,1.2-0.7,2.2v6.7h-3.1V66.6h3.1V68c0.4-0.5,0.9-0.9,1.5-1.2c0.6-0.3,1.3-0.4,2-0.4c1,0,1.8,0.2,2.5,0.6
		c0.7,0.4,1.3,1,1.7,1.7c0.4-0.7,1-1.3,1.7-1.7c0.8-0.4,1.6-0.6,2.4-0.6C166.4,66.4,167.6,66.9,168.5,67.8z"/>
	<path d="M173.8,69.3c0.5-1,1.2-1.7,2-2.2c0.8-0.5,1.8-0.8,2.8-0.8c0.9,0,1.7,0.2,2.4,0.5s1.2,0.8,1.6,1.4v-1.7h3.1v12.1h-3.1V77
		c-0.4,0.6-0.9,1-1.6,1.4c-0.7,0.4-1.5,0.6-2.4,0.6c-1,0-2-0.3-2.8-0.8c-0.8-0.5-1.5-1.3-2-2.2c-0.5-1-0.7-2.1-0.7-3.3
		C173.1,71.4,173.3,70.3,173.8,69.3z M182.2,70.7c-0.3-0.5-0.7-0.9-1.2-1.2c-0.5-0.3-1-0.4-1.6-0.4c-0.6,0-1.1,0.1-1.6,0.4
		s-0.9,0.7-1.2,1.2c-0.3,0.5-0.4,1.2-0.4,1.9c0,0.7,0.1,1.4,0.4,1.9c0.3,0.5,0.7,1,1.2,1.3s1,0.4,1.6,0.4c0.6,0,1.1-0.1,1.6-0.4
		c0.5-0.3,0.9-0.7,1.2-1.2c0.3-0.5,0.4-1.2,0.4-1.9C182.6,71.9,182.5,71.3,182.2,70.7z"/>
	<path d="M200,67.8c0.9,0.9,1.3,2.2,1.3,3.8v7.1h-3.1V72c0-1-0.2-1.7-0.7-2.2s-1.1-0.8-2-0.8c-0.8,0-1.5,0.3-2,0.8
		c-0.5,0.5-0.7,1.3-0.7,2.2v6.7h-3.1V66.6h3.1v1.5c0.4-0.5,0.9-0.9,1.6-1.2s1.3-0.5,2.1-0.5C198,66.4,199.2,66.9,200,67.8z"/>
	<path d="M205.3,69.3c0.5-1,1.2-1.7,2-2.2c0.8-0.5,1.8-0.8,2.8-0.8c0.9,0,1.7,0.2,2.4,0.5s1.2,0.8,1.6,1.4v-1.7h3.1v12.1h-3.1V77
		c-0.4,0.6-0.9,1-1.6,1.4c-0.7,0.4-1.5,0.6-2.4,0.6c-1,0-2-0.3-2.8-0.8c-0.8-0.5-1.5-1.3-2-2.2c-0.5-1-0.7-2.1-0.7-3.3
		C204.6,71.4,204.8,70.3,205.3,69.3z M213.7,70.7c-0.3-0.5-0.7-0.9-1.2-1.2c-0.5-0.3-1-0.4-1.6-0.4c-0.6,0-1.1,0.1-1.6,0.4
		s-0.9,0.7-1.2,1.2s-0.4,1.2-0.4,1.9c0,0.7,0.1,1.4,0.4,1.9s0.7,1,1.2,1.3c0.5,0.3,1,0.4,1.6,0.4c0.6,0,1.1-0.1,1.6-0.4
		c0.5-0.3,0.9-0.7,1.2-1.2c0.3-0.5,0.4-1.2,0.4-1.9C214.1,71.9,214,71.3,213.7,70.7z"/>
	<path d="M228.5,66.9c0.7,0.4,1.2,0.8,1.6,1.4v-1.7h3.1v12.2c0,1.1-0.2,2.1-0.7,3c-0.5,0.9-1.1,1.6-2,2.1c-0.9,0.5-2,0.8-3.3,0.8
		c-1.7,0-3.1-0.4-4.2-1.2s-1.7-1.9-1.9-3.3h3c0.2,0.6,0.5,1,1,1.3c0.5,0.3,1.2,0.5,1.9,0.5c0.9,0,1.6-0.3,2.2-0.8
		c0.6-0.5,0.8-1.3,0.8-2.4v-1.9c-0.4,0.6-0.9,1-1.6,1.4s-1.5,0.6-2.4,0.6c-1,0-2-0.3-2.8-0.8s-1.5-1.3-2-2.2c-0.5-1-0.7-2.1-0.7-3.3
		c0-1.2,0.2-2.3,0.7-3.3c0.5-1,1.2-1.7,2-2.2c0.8-0.5,1.8-0.8,2.8-0.8C227,66.4,227.8,66.6,228.5,66.9z M229.6,70.7
		c-0.3-0.5-0.7-0.9-1.2-1.2c-0.5-0.3-1-0.4-1.6-0.4c-0.6,0-1.1,0.1-1.6,0.4s-0.9,0.7-1.2,1.2s-0.4,1.2-0.4,1.9
		c0,0.7,0.1,1.4,0.4,1.9s0.7,1,1.2,1.3c0.5,0.3,1,0.4,1.6,0.4c0.6,0,1.1-0.1,1.6-0.4c0.5-0.3,0.9-0.7,1.2-1.2
		c0.3-0.5,0.4-1.2,0.4-1.9C230.1,71.9,229.9,71.3,229.6,70.7z"/>
	<path d="M248.5,73.6h-8.9c0.1,0.9,0.4,1.6,0.9,2.1c0.5,0.5,1.2,0.7,2,0.7c1.1,0,2-0.5,2.4-1.5h3.3c-0.4,1.2-1,2.1-2,2.9
		c-1,0.8-2.2,1.1-3.7,1.1c-1.2,0-2.2-0.3-3.1-0.8c-0.9-0.5-1.7-1.3-2.2-2.2c-0.5-1-0.8-2-0.8-3.3c0-1.3,0.3-2.4,0.8-3.3
		c0.5-1,1.2-1.7,2.1-2.2s2-0.8,3.2-0.8c1.2,0,2.2,0.2,3.1,0.7c0.9,0.5,1.6,1.2,2.1,2.1c0.5,0.9,0.8,2,0.8,3.1
		C248.5,72.8,248.5,73.2,248.5,73.6z M245.4,71.5c0-0.8-0.3-1.4-0.9-1.9c-0.6-0.5-1.2-0.7-2-0.7c-0.8,0-1.4,0.2-1.9,0.7
		c-0.5,0.5-0.8,1.1-1,1.9H245.4z"/>
	<path d="M258.3,64.6c-0.4-0.3-0.5-0.8-0.5-1.3c0-0.5,0.2-0.9,0.5-1.3c0.4-0.3,0.8-0.5,1.3-0.5c0.5,0,1,0.2,1.3,0.5
		c0.4,0.3,0.5,0.8,0.5,1.3c0,0.5-0.2,0.9-0.5,1.3c-0.4,0.3-0.8,0.5-1.3,0.5C259.2,65.1,258.7,65,258.3,64.6z M261.2,66.6v12.1h-3.1
		V66.6H261.2z"/>
	<path d="M268.9,69.1V75c0,0.4,0.1,0.7,0.3,0.9c0.2,0.2,0.5,0.3,1,0.3h1.4v2.6h-1.9c-2.6,0-3.9-1.3-3.9-3.8v-5.9h-1.4v-2.5h1.4v-3
		h3.1v3h2.7v2.5H268.9z"/>
	<path d="M274.9,78.4c-0.4-0.3-0.5-0.8-0.5-1.3c0-0.5,0.2-0.9,0.5-1.3c0.4-0.3,0.8-0.5,1.4-0.5c0.5,0,1,0.2,1.3,0.5
		c0.4,0.3,0.5,0.8,0.5,1.3c0,0.5-0.2,0.9-0.5,1.3c-0.4,0.3-0.8,0.5-1.3,0.5C275.7,78.9,275.2,78.7,274.9,78.4z"/>
	<path d="M281.7,78.4c-0.4-0.3-0.5-0.8-0.5-1.3c0-0.5,0.2-0.9,0.5-1.3c0.4-0.3,0.8-0.5,1.4-0.5c0.5,0,1,0.2,1.3,0.5
		c0.4,0.3,0.5,0.8,0.5,1.3c0,0.5-0.2,0.9-0.5,1.3c-0.4,0.3-0.8,0.5-1.3,0.5C282.5,78.9,282,78.7,281.7,78.4z"/>
	<path d="M289.5,78.4c-0.4-0.3-0.5-0.8-0.5-1.3c0-0.5,0.2-0.9,0.5-1.3c0.4-0.3,0.8-0.5,1.4-0.5c0.5,0,1,0.2,1.3,0.5
		c0.4,0.3,0.5,0.8,0.5,1.3c0,0.5-0.2,0.9-0.5,1.3c-0.4,0.3-0.8,0.5-1.3,0.5C290.3,78.9,289.8,78.7,289.5,78.4z M292.4,63.2
		l-0.4,10.6h-2.6l-0.4-10.6H292.4z"/>
</g>
<g id="Layer_2_00000010284556006159707610000000100922157554548127_">
	<g id="Layer_1-2">
		
			<linearGradient id="SVGID_1_" gradientUnits="userSpaceOnUse" x1="47.1252" y1="76.4357" x2="60.0515" y2="64.8341" gradientTransform="matrix(1 0 0 -1 0 104)">
			<stop  offset="0" style="stop-color:#00FFAF"/>
			<stop  offset="6.000000e-02" style="stop-color:#00EDAD"/>
			<stop  offset="0.32" style="stop-color:#00A6A7"/>
			<stop  offset="0.55" style="stop-color:#006EA2"/>
			<stop  offset="0.75" style="stop-color:#00469F"/>
			<stop  offset="0.91" style="stop-color:#002D9D"/>
			<stop  offset="1" style="stop-color:#00249C"/>
		</linearGradient>
		<path class="st0" d="M51.6,27.5L51.6,27.5c0,0,0,0.1,0,0.1C51.6,27.6,51.6,27.6,51.6,27.5z M51.3,25.7c0,0.1,0,0.1,0,0.2
			C51.4,25.9,51.4,25.8,51.3,25.7L51.3,25.7z M48,33.6c0.2,0.2,0.3,0.5,0.5,0.7c0.1,0.2,0.3,0.4,0.4,0.6
			C48.6,34.4,48.3,33.9,48,33.6L48,33.6z"/>
		
			<linearGradient id="SVGID_00000128475488256947924080000017577988727978652847_" gradientUnits="userSpaceOnUse" x1="44.7116" y1="83.1572" x2="67.4602" y2="62.7396" gradientTransform="matrix(1 0 0 -1 0 104)">
			<stop  offset="0" style="stop-color:#00FFAF"/>
			<stop  offset="6.000000e-02" style="stop-color:#00EDAD"/>
			<stop  offset="0.32" style="stop-color:#00A6A7"/>
			<stop  offset="0.55" style="stop-color:#006EA2"/>
			<stop  offset="0.75" style="stop-color:#00469F"/>
			<stop  offset="0.91" style="stop-color:#002D9D"/>
			<stop  offset="1" style="stop-color:#00249C"/>
		</linearGradient>
		<path style="fill:url(#SVGID_00000128475488256947924080000017577988727978652847_);" d="M76.3,24.3c-0.2-2.7-1.2-5.3-2.7-7.5
			c-0.7-1-1.5-2-2.5-2.8h0c-1.5-1.3-3.2-2.3-5.1-2.9c-0.4-0.1-0.7-0.2-1.1-0.3c-0.1,0-0.1,0-0.2,0c-0.3-0.1-0.6-0.1-1-0.2
			c-0.3-0.1-0.7-0.1-1.1-0.2c-0.1,0-0.1,0-0.2,0c-0.4,0-0.7-0.1-1.1-0.1c-0.1,0-0.1,0-0.2,0c-0.8,0-1.6,0-2.4,0.2
			c-0.4,0.1-0.8,0.1-1.2,0.2c-0.3,0.1-0.7,0.2-1,0.3c-0.1,0-0.2,0-0.3,0.1c-0.4,0.1-0.7,0.2-1,0.4c-0.4,0.1-0.7,0.3-1.1,0.5
			c-0.3,0.2-0.7,0.4-1,0.6c-0.4,0.2-0.8,0.5-1.1,0.8c-0.3,0.2-0.6,0.4-0.9,0.7c-0.2,0.2-0.5,0.4-0.7,0.6c-0.2,0.1-0.3,0.3-0.5,0.4
			c-0.2,0.2-0.4,0.5-0.6,0.7c-0.4,0.5-0.8,1-1.1,1.5c-0.2,0.3-0.3,0.5-0.5,0.8c-0.3,0.5-0.5,1-0.7,1.5c0,0.1-0.1,0.1-0.1,0.2
			L36.7,44.1l4.8,2.9l6-14.4v0c0.1,0.2,0.3,0.5,0.5,0.9c0.2,0.4,0.5,0.8,0.9,1.3c0.1,0.1,0.2,0.2,0.2,0.3c0.2,0.3,0.4,0.5,0.6,0.7
			c0.2,0.2,0.4,0.4,0.6,0.6c0,0,0,0,0.1,0c0.2,0.2,0.5,0.4,0.7,0.6c0.5,0.4,1,0.8,1.5,1.1c1.1,0.7,2.2,1.2,3.4,1.7
			c0.6,0.2,1.3,0.4,2,0.5c0.3,0.1,0.7,0.1,1,0.2c0.3,0.1,0.7,0.1,1,0.1c0.3,0,0.7,0,1,0c0.7,0,1.4,0,2.2-0.1
			c0.4-0.1,0.8-0.1,1.2-0.2c0.4-0.1,0.8-0.2,1.2-0.3c0.3-0.1,0.6-0.2,0.9-0.3c0.3-0.1,0.5-0.2,0.8-0.3c0.3-0.1,0.6-0.3,0.8-0.4
			s0.5-0.3,0.8-0.5s0.5-0.3,0.8-0.5c0.3-0.2,0.5-0.4,0.7-0.5l0.7-0.6c0.2-0.2,0.5-0.4,0.7-0.6c0.3-0.3,0.6-0.6,0.8-0.9
			c0.8-0.9,1.4-1.9,2-3c0.9-1.7,1.4-3.5,1.6-5.4c0-0.5,0.1-0.9,0.1-1.4C76.3,25.2,76.3,24.8,76.3,24.3z M70.7,26.5
			c-0.1,0.9-0.3,1.8-0.7,2.6l-0.1,0.2c-0.1,0.2-0.2,0.4-0.3,0.6c-0.1,0.2-0.3,0.5-0.4,0.7c-0.1,0.2-0.2,0.4-0.4,0.6
			c-0.5,0.7-1,1.3-1.7,1.8c-0.4,0.3-0.7,0.6-1.1,0.8c-0.2,0.1-0.4,0.3-0.7,0.4c-0.2,0.1-0.5,0.2-0.7,0.3c-0.2,0.1-0.4,0.2-0.6,0.2
			c-0.5,0.2-1.1,0.3-1.7,0.4c-0.3,0-0.5,0.1-0.8,0.1c-0.2,0-0.5,0-0.7,0c-0.1,0-0.3,0-0.4,0c-0.1,0-0.3,0-0.4,0
			c-0.3,0-0.7-0.1-1-0.2c0,0,0,0-0.1,0c-0.3-0.1-0.7-0.2-1-0.3c0,0,0,0,0,0c-0.5-0.2-0.9-0.4-1.4-0.6c-0.3-0.1-0.5-0.3-0.8-0.5
			c-0.2-0.1-0.3-0.2-0.5-0.3c-0.3-0.2-0.6-0.5-0.9-0.8c-0.2-0.1-0.3-0.3-0.4-0.4c-0.3-0.3-0.6-0.7-0.8-1c-0.5-0.7-0.9-1.4-1.2-2.2
			c-0.1-0.2-0.1-0.3-0.2-0.5c-0.1-0.2-0.1-0.4-0.2-0.6l0-0.1c0,0,0-0.1,0-0.2c-0.1-0.5-0.2-1-0.2-1.6v0c0-0.1,0-0.1,0-0.2v0
			c-0.1-1.1,0-2.2,0.5-3.2l0.3-0.7c0.1-0.2,0.2-0.4,0.3-0.5c0.2-0.3,0.3-0.7,0.6-1l0,0c0.1-0.2,0.3-0.4,0.4-0.5
			c0.2-0.2,0.3-0.4,0.5-0.6c0.3-0.4,0.7-0.7,1.1-1c1.4-1.1,3-1.8,4.8-2.1c0.1,0,0.3,0,0.4-0.1c0.1,0,0.3,0,0.5,0s0.3,0,0.5,0
			c0.2,0,0.4,0,0.5,0c0.2,0,0.5,0,0.7,0.1c0.2,0,0.4,0,0.5,0.1c0.2,0,0.4,0.1,0.5,0.1c0.2,0,0.4,0.1,0.6,0.2c0.2,0,0.4,0.1,0.6,0.2
			c1.2,0.5,2.3,1.2,3.2,2.1c1,0.9,1.7,2,2.2,3.3c0.1,0.2,0.2,0.5,0.3,0.7c0.1,0.3,0.2,0.6,0.2,1c0.1,0.3,0.1,0.5,0.1,0.8
			c0,0.1,0,0.1,0,0.2C70.7,25.3,70.7,25.9,70.7,26.5z"/>
		
			<linearGradient id="SVGID_00000047774464792430078310000014439656304864805022_" gradientUnits="userSpaceOnUse" x1="59.6205" y1="37.3568" x2="59.7555" y2="37.2369" gradientTransform="matrix(1 0 0 -1 0 104)">
			<stop  offset="0" style="stop-color:#00FFAF"/>
			<stop  offset="6.000000e-02" style="stop-color:#00EDAD"/>
			<stop  offset="0.32" style="stop-color:#00A6A7"/>
			<stop  offset="0.55" style="stop-color:#006EA2"/>
			<stop  offset="0.75" style="stop-color:#00469F"/>
			<stop  offset="0.91" style="stop-color:#002D9D"/>
			<stop  offset="1" style="stop-color:#00249C"/>
		</linearGradient>
		<path style="fill:url(#SVGID_00000047774464792430078310000014439656304864805022_);" d="M59.7,66.7c0,0-0.1,0-0.1,0
			C59.6,66.7,59.7,66.7,59.7,66.7L59.7,66.7z"/>
		
			<linearGradient id="SVGID_00000072988285002875797610000002231250518458925973_" gradientUnits="userSpaceOnUse" x1="57.93" y1="52.9118" x2="22.5261" y2="24.6737" gradientTransform="matrix(1 0 0 -1 0 104)">
			<stop  offset="0" style="stop-color:#00FFAF"/>
			<stop  offset="6.000000e-02" style="stop-color:#00EDAD"/>
			<stop  offset="0.32" style="stop-color:#00A6A7"/>
			<stop  offset="0.55" style="stop-color:#006EA2"/>
			<stop  offset="0.75" style="stop-color:#00469F"/>
			<stop  offset="0.91" style="stop-color:#002D9D"/>
			<stop  offset="1" style="stop-color:#00249C"/>
		</linearGradient>
		<path style="fill:url(#SVGID_00000072988285002875797610000002231250518458925973_);" d="M73.7,75.1c0-0.4-0.1-0.7-0.1-1.1
			c0-0.1,0-0.2,0-0.3c-0.1-0.4-0.1-0.7-0.2-1.1c-0.1-0.4-0.2-0.8-0.3-1.2c-0.1-0.4-0.2-0.7-0.4-1.1c-0.2-0.4-0.4-0.8-0.6-1.2
			c-0.2-0.3-0.3-0.6-0.5-0.9c-0.2-0.3-0.3-0.5-0.5-0.8c-0.1-0.2-0.2-0.4-0.4-0.5c-0.2-0.3-0.4-0.5-0.6-0.7c-0.4-0.5-0.9-0.9-1.3-1.3
			c-0.2-0.2-0.5-0.4-0.7-0.6c-0.4-0.3-0.9-0.6-1.3-0.9c-0.1,0-0.1-0.1-0.2-0.1L48.2,52.2l-7-4.3L36.3,45l0,0l0,0c0,0-5.7-3.5-6-3.7
			c-1.1-0.7-2.2-1.2-3.4-1.7c-0.6-0.2-1.3-0.4-2-0.5c-0.3-0.1-0.7-0.1-1-0.2c-0.3-0.1-0.7-0.1-1-0.1c-0.3,0-0.7,0-1,0
			c-0.7,0-1.4,0-2.2,0.1c-0.4,0.1-0.8,0.1-1.2,0.2c-0.4,0.1-0.8,0.2-1.2,0.3c-0.3,0.1-0.6,0.2-0.9,0.3c-0.3,0.1-0.5,0.2-0.8,0.3
			c-0.3,0.1-0.6,0.3-0.8,0.4c-0.3,0.1-0.5,0.3-0.8,0.4s-0.5,0.3-0.8,0.5s-0.5,0.4-0.7,0.5c-0.2,0.2-0.5,0.4-0.7,0.6
			c-0.2,0.2-0.5,0.4-0.7,0.6c-0.3,0.3-0.6,0.6-0.8,0.9c-0.8,0.9-1.5,1.9-2,3c-0.9,1.7-1.4,3.5-1.6,5.4c0,0.5-0.1,1-0.1,1.4
			s0,0.9,0.1,1.4c0.4,4,2.2,7.7,5.2,10.3h0c1.5,1.3,3.2,2.3,5.1,2.9c0.4,0.1,0.7,0.2,1.1,0.3c0.1,0,0.1,0,0.2,0
			c0.3,0.1,0.6,0.1,1,0.2c0.3,0.1,0.7,0.1,1.1,0.2c0.1,0,0.1,0,0.2,0c0.4,0,0.7,0.1,1.1,0.1c0.1,0,0.1,0,0.2,0c0.8,0,1.6,0,2.4-0.2
			c0.4-0.1,0.8-0.1,1.2-0.2c0.3-0.1,0.7-0.2,1-0.3c0.1,0,0.2,0,0.3-0.1c0.4-0.1,0.7-0.2,1-0.4c0.4-0.1,0.7-0.3,1.1-0.5
			c0.3-0.2,0.7-0.4,1-0.6c0.4-0.2,0.8-0.5,1.1-0.8c0.3-0.2,0.6-0.4,0.9-0.7c0.2-0.2,0.5-0.4,0.7-0.6c0.2-0.1,0.3-0.3,0.5-0.4
			c0.2-0.2,0.4-0.5,0.6-0.7c0.4-0.5,0.8-1,1.1-1.5c0.2-0.3,0.3-0.5,0.5-0.8c0.3-0.5,0.5-1,0.7-1.5c0-0.1,0.1-0.1,0.1-0.2l2.6-6.2
			l-4.8-2.9L33.8,51v0l-2.9,6.8c-0.1,0.2-0.2,0.4-0.3,0.5c-0.2,0.3-0.3,0.7-0.6,1l0,0c-0.1,0.2-0.3,0.4-0.4,0.5
			c-0.2,0.2-0.3,0.4-0.5,0.6c-0.3,0.4-0.7,0.7-1.1,1c-0.6,0.5-1.2,0.9-1.9,1.2c-0.9,0.4-1.9,0.7-2.9,0.9c-0.1,0-0.3,0-0.4,0.1
			s-0.3,0-0.5,0h-0.5c-0.2,0-0.4,0-0.5,0c-0.2,0-0.5,0-0.7-0.1c-0.2,0-0.4,0-0.5-0.1c-0.2,0-0.4-0.1-0.5-0.1c-0.2,0-0.4-0.1-0.6-0.2
			c-0.2,0-0.4-0.1-0.6-0.2c-1.2-0.5-2.3-1.2-3.2-2.1c-0.3-0.3-0.5-0.5-0.7-0.8c-0.6-0.7-1.1-1.6-1.4-2.5c-0.1-0.2-0.2-0.5-0.3-0.7
			c-0.1-0.3-0.2-0.6-0.2-0.9c-0.1-0.3-0.1-0.5-0.1-0.8c0-0.1,0-0.1,0-0.2c-0.1-0.6-0.1-1.3,0-1.9c0.1-0.9,0.3-1.8,0.7-2.6l0.1-0.2
			c0.1-0.2,0.2-0.4,0.3-0.6c0.1-0.3,0.3-0.5,0.4-0.7c0.1-0.2,0.2-0.4,0.4-0.6c0.5-0.7,1-1.3,1.7-1.8c0.4-0.3,0.7-0.5,1.1-0.8
			c0.2-0.1,0.4-0.3,0.6-0.4c0.2-0.1,0.5-0.2,0.7-0.3c0.2-0.1,0.4-0.2,0.6-0.2c0.5-0.2,1.1-0.3,1.7-0.4c0.3,0,0.5-0.1,0.8-0.1
			c0.2,0,0.5,0,0.7,0c0.1,0,0.3,0,0.4,0c0.1,0,0.3,0,0.4,0c0.3,0,0.7,0.1,1,0.2c0,0,0,0,0.1,0c0.3,0.1,0.7,0.2,1,0.3c0,0,0,0,0,0
			c0.4,0.1,0.8,0.3,1.1,0.5l0.2,0.1c0.3,0.1,12.5,7.5,12.5,7.5l14.4,8.8c-0.3,0.1-0.6,0.2-0.9,0.4L52,62.4l-0.4,0.2
			c-0.1,0.1-0.2,0.1-0.4,0.2c-0.2,0.1-0.4,0.2-0.6,0.3c-0.3,0.2-0.6,0.3-0.8,0.5c-0.2,0.2-0.5,0.3-0.7,0.5c0,0,0,0,0,0
			c-0.2,0.2-0.5,0.4-0.7,0.6c-0.5,0.4-0.9,0.8-1.3,1.3c-0.8,0.9-1.5,2-2.1,3.1c-0.3,0.6-0.6,1.2-0.8,1.9c-0.1,0.3-0.2,0.6-0.3,1
			c-0.1,0.3-0.2,0.7-0.2,1c-0.1,0.3-0.1,0.6-0.2,1c-0.1,0.7-0.2,1.4-0.2,2.2c0,0.4,0,0.8,0.1,1.2c0,0.4,0.1,0.8,0.1,1.2
			c0,0.3,0.1,0.6,0.2,0.9c0.1,0.3,0.1,0.6,0.2,0.8c0.1,0.3,0.2,0.6,0.3,0.9c0.1,0.3,0.2,0.6,0.3,0.8c0.1,0.3,0.2,0.5,0.4,0.8
			c0.1,0.3,0.3,0.5,0.4,0.8c0.2,0.3,0.3,0.5,0.5,0.8c0.2,0.3,0.3,0.5,0.5,0.7c0.2,0.3,0.5,0.6,0.8,1c0.8,0.9,1.7,1.7,2.6,2.4
			c1.6,1.1,3.3,1.9,5.1,2.4c0.5,0.1,0.9,0.2,1.4,0.3c0.5,0.1,0.9,0.1,1.4,0.1c4,0.2,7.9-1.1,11-3.7v0c1.5-1.3,2.7-2.8,3.6-4.6
			c0.2-0.3,0.3-0.7,0.5-1c0,0,0.1-0.1,0.1-0.2c0.1-0.3,0.2-0.6,0.3-0.9c0.1-0.3,0.2-0.7,0.3-1c0-0.1,0.1-0.1,0.1-0.2
			c0.1-0.4,0.2-0.7,0.2-1c0,0,0-0.1,0-0.2c0.1-0.8,0.2-1.6,0.2-2.4C73.8,75.9,73.8,75.5,73.7,75.1z M68.1,76.9c0,0.2,0,0.3-0.1,0.5
			c0,0.2,0,0.3-0.1,0.5c0,0.2-0.1,0.4-0.1,0.5c0,0.2-0.1,0.4-0.2,0.6c-0.1,0.2-0.1,0.5-0.2,0.6c0,0.1-0.1,0.3-0.2,0.4
			c-0.1,0.2-0.2,0.4-0.3,0.6c-0.1,0.2-0.2,0.4-0.3,0.5c-0.6,1.1-1.5,2.1-2.5,2.9c-0.3,0.2-0.6,0.4-0.9,0.6c-0.8,0.5-1.7,0.8-2.7,1
			c-0.2,0.1-0.5,0.1-0.7,0.1c-0.3,0.1-0.6,0.1-1,0.1c-0.3,0-0.6,0-0.8,0c-0.1,0-0.1,0-0.2,0c-0.6,0-1.3-0.1-1.9-0.3
			c-0.9-0.2-1.7-0.6-2.5-1l-0.2-0.1c-0.2-0.1-0.4-0.3-0.6-0.4c-0.2-0.2-0.4-0.3-0.6-0.5c-0.2-0.1-0.4-0.3-0.5-0.5
			c-0.6-0.6-1.1-1.2-1.5-1.9c-0.2-0.4-0.4-0.8-0.6-1.2c-0.1-0.2-0.2-0.5-0.3-0.7c-0.1-0.2-0.2-0.5-0.2-0.7c-0.1-0.2-0.1-0.4-0.1-0.6
			c-0.1-0.6-0.1-1.1-0.1-1.7c0-0.3,0-0.5,0-0.8c0-0.2,0-0.5,0.1-0.7c0-0.1,0-0.3,0.1-0.4c0-0.1,0-0.3,0.1-0.4c0.1-0.3,0.2-0.7,0.3-1
			c0,0,0,0,0-0.1c0.1-0.3,0.3-0.6,0.4-1c0,0,0,0,0,0c0.2-0.4,0.5-0.9,0.8-1.3c0.2-0.2,0.4-0.5,0.6-0.7c0.1-0.1,0.3-0.3,0.4-0.4
			c0.3-0.3,0.6-0.6,0.9-0.8c0.2-0.1,0.3-0.3,0.5-0.4c0.4-0.3,0.7-0.5,1.1-0.7c0.7-0.4,1.5-0.7,2.3-0.8c0.2-0.1,0.4-0.1,0.5-0.1
			c0.3-0.1,0.5-0.1,0.8-0.1c0.1,0,0.2,0,0.2,0c0.5,0,1,0,1.5,0c0,0,0.1,0,0.1,0h0c1.1,0.1,2.2,0.4,3.2,1l0.6,0.3
			c0.2,0.1,0.3,0.2,0.5,0.3c0.3,0.2,0.6,0.4,0.9,0.7l0,0c0.2,0.2,0.3,0.3,0.5,0.5c0.2,0.2,0.4,0.4,0.5,0.6c0.3,0.4,0.6,0.8,0.9,1.2
			c0.4,0.6,0.7,1.3,0.9,2c0.3,1,0.5,2,0.4,3C68.2,76.6,68.1,76.7,68.1,76.9z"/>
		
			<linearGradient id="SVGID_00000098190753014972431570000007124149877955158925_" gradientUnits="userSpaceOnUse" x1="35.492" y1="93.0581" x2="127.1256" y2="10.8138" gradientTransform="matrix(1 0 0 -1 0 104)">
			<stop  offset="0" style="stop-color:#00FFAF"/>
			<stop  offset="6.000000e-02" style="stop-color:#00EDAD"/>
			<stop  offset="0.32" style="stop-color:#00A6A7"/>
			<stop  offset="0.55" style="stop-color:#006EA2"/>
			<stop  offset="0.75" style="stop-color:#00469F"/>
			<stop  offset="0.91" style="stop-color:#002D9D"/>
			<stop  offset="1" style="stop-color:#00249C"/>
		</linearGradient>
		<path style="fill:url(#SVGID_00000098190753014972431570000007124149877955158925_);" d="M65.4,37.8c0,0.1,0,0.1,0.1,0.2
			L65.4,37.8L65.4,37.8z"/>
	</g>
</g>
</svg>
