<?xml version="1.0" encoding="utf-8"?>
<!-- Generator: Adobe Illustrator 27.3.0, SVG Export Plug-In . SVG Version: 6.00 Build 0)  -->
<svg version="1.1" id="Layer_2_00000110433382554459798270000006235840528913946252_"
	 xmlns="http://www.w3.org/2000/svg" xmlns:xlink="http://www.w3.org/1999/xlink" x="0px" y="0px" viewBox="0 0 400 273.3"
	 style="enable-background:new 0 0 400 273.3;" xml:space="preserve">
<style type="text/css">
	.st0{enable-background:new    ;}
	.st1{fill:url(#SVGID_1_);}
	.st2{fill:url(#SVGID_00000113325833135652608660000018156677931758303902_);}
	.st3{fill:url(#SVGID_00000179606784741487760080000003828770770649058211_);}
	.st4{fill:url(#SVGID_00000052816320758779581540000015412742618382637993_);}
	.st5{fill:url(#SVGID_00000148652854648279995470000005063901336036730001_);}
</style>
<g>
	<g class="st0">
		<path d="M49.6,186.1v34.6h-8.4V200l-7.7,20.8h-6.8L18.9,200v20.8h-8.4v-34.6h10l9.7,24l9.6-24h9.8V186.1z"/>
		<path d="M60.9,219.4c-2.2-1.2-3.8-2.8-5.1-4.9c-1.2-2.1-1.8-4.6-1.8-7.5c0-2.8,0.6-5.3,1.9-7.5c1.2-2.2,3-3.8,5.1-5
			c2.2-1.2,4.6-1.7,7.3-1.7s5.1,0.6,7.3,1.7c2.2,1.2,3.9,2.8,5.1,5s1.9,4.6,1.9,7.5c0,2.8-0.6,5.3-1.9,7.5s-3,3.8-5.2,5
			s-4.6,1.7-7.3,1.7C65.5,221.1,63.1,220.6,60.9,219.4z M72.3,212.1c1.1-1.2,1.7-2.9,1.7-5.1c0-2.2-0.6-3.9-1.7-5.1
			c-1.1-1.2-2.5-1.8-4.1-1.8s-3,0.6-4.1,1.8s-1.6,2.9-1.6,5.1c0,2.2,0.5,3.9,1.6,5.1c1.1,1.2,2.4,1.8,4,1.8
			C69.8,213.8,71.2,213.3,72.3,212.1z"/>
		<path d="M114.3,193.2v27.5h-8.4V217c-0.9,1.2-2,2.2-3.5,2.9s-3.1,1.1-4.9,1.1c-2.1,0-4-0.5-5.6-1.4s-2.9-2.3-3.7-4.1
			s-1.3-3.9-1.3-6.3v-16.1h8.4V208c0,1.8,0.5,3.3,1.4,4.3c1,1,2.2,1.5,3.8,1.5c1.6,0,2.9-0.5,3.9-1.5s1.4-2.4,1.4-4.3v-14.9h8.5
			V193.2z"/>
		<path d="M135.7,213.6v7.2h-4.3c-3.1,0-5.4-0.7-7.1-2.2s-2.6-3.9-2.6-7.3v-10.9h-3.4v-7h3.4v-6.7h8.4v6.7h5.5v7h-5.5v11
			c0,0.8,0.2,1.4,0.6,1.8c0.4,0.4,1.1,0.5,2,0.5h3V213.6z"/>
		<path d="M164.8,196.1c1.9,2.1,2.9,5,2.9,8.6v16.1h-8.4v-14.9c0-1.8-0.5-3.3-1.4-4.3c-1-1-2.2-1.5-3.8-1.5s-2.9,0.5-3.8,1.5
			c-1,1-1.4,2.4-1.4,4.3v14.9h-8.4v-36.5h8.4V197c0.9-1.2,2-2.2,3.5-2.9s3.1-1.1,5-1.1C160.4,192.9,162.9,194,164.8,196.1z"/>
		<path d="M198.6,202.8c-0.9,1.7-2.3,3-4.2,4s-4.3,1.5-7.1,1.5H182v12.4h-8.4v-34.6h13.7c2.8,0,5.1,0.5,7,1.4c1.9,1,3.3,2.3,4.3,3.9
			c1,1.7,1.4,3.6,1.4,5.8C200,199.3,199.5,201.1,198.6,202.8z M190.2,200.5c0.8-0.8,1.2-1.8,1.2-3.2s-0.4-2.4-1.2-3.2
			s-2-1.1-3.6-1.1H182v8.7h4.6C188.2,201.6,189.4,201.2,190.2,200.5z"/>
		<path d="M231.5,193.2v27.5h-8.4V217c-0.9,1.2-2,2.2-3.5,2.9s-3.1,1.1-4.9,1.1c-2.1,0-4-0.5-5.6-1.4s-2.9-2.3-3.7-4.1
			s-1.3-3.9-1.3-6.3v-16.1h8.4V208c0,1.8,0.5,3.3,1.4,4.3c1,1,2.2,1.5,3.8,1.5s2.9-0.5,3.9-1.5s1.4-2.4,1.4-4.3v-14.9h8.5V193.2z"/>
		<path d="M249.4,194c1.5-0.8,3.2-1.2,5.1-1.2c2.3,0,4.3,0.6,6.2,1.7c1.8,1.2,3.3,2.8,4.4,4.9c1.1,2.1,1.6,4.6,1.6,7.4
			s-0.5,5.3-1.6,7.5s-2.5,3.8-4.4,5c-1.8,1.2-3.9,1.8-6.2,1.8c-1.9,0-3.6-0.4-5.1-1.2c-1.4-0.8-2.6-1.8-3.4-3.1v3.8h-8.4v-36.5h8.4
			V197C246.8,195.8,247.9,194.8,249.4,194z M256.3,202c-1.2-1.2-2.6-1.8-4.3-1.8s-3.1,0.6-4.3,1.8s-1.8,2.9-1.8,5s0.6,3.8,1.8,5
			s2.6,1.8,4.3,1.8s3.1-0.6,4.3-1.8c1.2-1.2,1.8-2.9,1.8-5C258,204.8,257.5,203.2,256.3,202z"/>
		<path d="M279.5,184.3v36.5h-8.4v-36.5H279.5z"/>
		<path d="M286.2,189.1c-0.9-0.9-1.4-1.9-1.4-3.2s0.5-2.4,1.4-3.3c0.9-0.9,2.1-1.3,3.6-1.3c1.4,0,2.6,0.4,3.6,1.3
			c0.9,0.9,1.4,2,1.4,3.3s-0.5,2.4-1.4,3.2c-0.9,0.9-2.1,1.3-3.6,1.3C288.4,190.4,287.2,189.9,286.2,189.1z M294,193.2v27.5h-8.4
			v-27.5H294z"/>
		<path d="M300.2,199.5c1.2-2.1,2.8-3.8,4.9-4.9c2.1-1.2,4.5-1.7,7.2-1.7c3.5,0,6.3,0.9,8.7,2.7c2.3,1.8,3.8,4.4,4.6,7.6h-9
			c-0.8-2.1-2.2-3.2-4.4-3.2c-1.5,0-2.8,0.6-3.7,1.8c-0.9,1.2-1.4,2.9-1.4,5.2c0,2.2,0.5,4,1.4,5.2s2.2,1.8,3.7,1.8
			c2.2,0,3.6-1.1,4.4-3.2h9c-0.7,3.2-2.3,5.8-4.6,7.6c-2.3,1.8-5.2,2.8-8.6,2.8c-2.7,0-5.1-0.6-7.2-1.7s-3.7-2.8-4.9-4.9
			c-1.2-2.1-1.8-4.6-1.8-7.5C298.5,204.1,299.1,201.6,300.2,199.5z"/>
		<path d="M330.6,189.1c-0.9-0.9-1.4-1.9-1.4-3.2s0.5-2.4,1.4-3.3c0.9-0.9,2.1-1.3,3.6-1.3c1.4,0,2.6,0.4,3.6,1.3
			c0.9,0.9,1.4,2,1.4,3.3s-0.5,2.4-1.4,3.2c-0.9,0.9-2.1,1.3-3.6,1.3C332.7,190.4,331.5,189.9,330.6,189.1z M338.4,193.2v27.5H330
			v-27.5H338.4z"/>
		<path d="M359.9,213.6v7.2h-4.3c-3.1,0-5.4-0.7-7.2-2.2s-2.6-3.9-2.6-7.3v-10.9h-3.4v-7h3.4v-6.7h8.4v6.7h5.5v7h-5.5v11
			c0,0.8,0.2,1.4,0.6,1.8c0.4,0.4,1.1,0.5,2,0.5h3.1V213.6z"/>
		<path d="M392.7,193.2l-17.3,40.6h-9.1l6.3-14l-11.2-26.6h9.4l6.4,17.2l6.3-17.2L392.7,193.2L392.7,193.2z"/>
	</g>
	<g class="st0">
		<path d="M107.7,235.5v10.7c0,1.5-0.4,2.6-1.3,3.5c-0.9,0.8-2,1.2-3.5,1.2s-2.6-0.4-3.5-1.3s-1.3-2-1.3-3.6h3.1
			c0,0.7,0.2,1.2,0.5,1.5c0.3,0.4,0.7,0.5,1.3,0.5c0.6,0,1-0.2,1.3-0.5s0.4-0.8,0.4-1.4v-10.7h3V235.5z"/>
		<path d="M123.7,238.7v12.1h-3.1v-1.5c-0.4,0.5-0.9,0.9-1.5,1.2s-1.3,0.4-2.1,0.4c-1,0-1.8-0.2-2.5-0.6c-0.7-0.4-1.3-1-1.7-1.8
			c-0.4-0.8-0.6-1.7-0.6-2.8v-7.1h3.1v6.7c0,1,0.2,1.7,0.7,2.2s1.1,0.8,2,0.8c0.8,0,1.5-0.3,2-0.8s0.7-1.3,0.7-2.2v-6.7h3V238.7z"/>
		<path d="M129.7,250.5c-0.8-0.4-1.4-0.8-1.9-1.5c-0.5-0.6-0.7-1.3-0.8-2h3.1c0.1,0.5,0.3,0.9,0.7,1.2s0.9,0.5,1.5,0.5
			s1-0.1,1.4-0.4c0.3-0.2,0.5-0.5,0.5-0.9s-0.2-0.7-0.6-0.9s-1-0.4-1.9-0.6c-0.9-0.2-1.6-0.4-2.2-0.7c-0.6-0.2-1.1-0.6-1.5-1.1
			c-0.4-0.5-0.6-1.1-0.6-2c0-0.7,0.2-1.3,0.6-1.8c0.4-0.6,0.9-1,1.7-1.3s1.6-0.5,2.6-0.5c1.4,0,2.6,0.4,3.5,1.1
			c0.9,0.7,1.3,1.7,1.4,2.9h-2.9c0-0.5-0.2-0.9-0.6-1.2c-0.4-0.3-0.8-0.4-1.4-0.4c-0.6,0-1,0.1-1.3,0.3s-0.4,0.5-0.4,0.9
			s0.2,0.7,0.6,0.9s1,0.4,1.9,0.6c0.9,0.2,1.6,0.4,2.2,0.7c0.6,0.2,1.1,0.6,1.5,1.1s0.6,1.1,0.6,1.9c0,0.7-0.2,1.3-0.6,1.9
			c-0.4,0.6-0.9,1-1.7,1.3c-0.7,0.3-1.6,0.5-2.5,0.5C131.4,251,130.5,250.8,129.7,250.5z"/>
		<path d="M144.2,241.2v5.9c0,0.4,0.1,0.7,0.3,0.9s0.5,0.3,1,0.3h1.4v2.6H145c-2.6,0-3.9-1.3-3.9-3.8v-5.9h-1.4v-2.5h1.4v-3h3.1v3
			h2.7v2.5H144.2z"/>
		<path d="M175.1,239.8c0.9,0.9,1.4,2.2,1.4,3.8v7.1h-3.1V244c0-0.9-0.2-1.7-0.7-2.2s-1.1-0.8-2-0.8s-1.5,0.3-2,0.8S168,243,168,244
			v6.7h-3.1V244c0-0.9-0.2-1.7-0.7-2.2s-1.1-0.8-2-0.8c-0.8,0-1.5,0.3-2,0.8s-0.7,1.2-0.7,2.2v6.7h-3.1v-12.1h3.1v1.5
			c0.4-0.5,0.9-0.9,1.5-1.2s1.3-0.4,2-0.4c1,0,1.8,0.2,2.5,0.6c0.7,0.4,1.3,1,1.7,1.7c0.4-0.7,1-1.3,1.7-1.7
			c0.8-0.4,1.6-0.6,2.4-0.6C172.9,238.5,174.1,238.9,175.1,239.8z"/>
		<path d="M180.3,241.4c0.5-1,1.2-1.7,2-2.2s1.8-0.8,2.8-0.8c0.9,0,1.7,0.2,2.4,0.5s1.2,0.8,1.6,1.4v-1.7h3.1v12.1h-3.1V249
			c-0.4,0.6-0.9,1-1.6,1.4c-0.7,0.4-1.5,0.6-2.4,0.6c-1,0-2-0.3-2.8-0.8s-1.5-1.3-2-2.2c-0.5-1-0.7-2.1-0.7-3.3
			C179.5,243.5,179.8,242.4,180.3,241.4z M188.7,242.8c-0.3-0.5-0.7-0.9-1.2-1.2s-1-0.4-1.6-0.4s-1.1,0.1-1.6,0.4s-0.9,0.7-1.2,1.2
			s-0.4,1.2-0.4,1.9s0.1,1.4,0.4,1.9c0.3,0.5,0.7,1,1.2,1.3s1,0.4,1.6,0.4s1.1-0.1,1.6-0.4c0.5-0.3,0.9-0.7,1.2-1.2s0.4-1.2,0.4-1.9
			C189.1,244,188.9,243.3,188.7,242.8z"/>
		<path d="M206.4,239.8c0.9,0.9,1.3,2.2,1.3,3.8v7.1h-3.1V244c0-1-0.2-1.7-0.7-2.2s-1.1-0.8-2-0.8c-0.8,0-1.5,0.3-2,0.8
			s-0.7,1.3-0.7,2.2v6.7h-3.1v-12.1h3.1v1.5c0.4-0.5,0.9-0.9,1.6-1.2c0.6-0.3,1.3-0.5,2.1-0.5C204.4,238.5,205.5,238.9,206.4,239.8z
			"/>
		<path d="M211.6,241.4c0.5-1,1.2-1.7,2-2.2s1.8-0.8,2.8-0.8c0.9,0,1.7,0.2,2.4,0.5s1.2,0.8,1.6,1.4v-1.7h3.1v12.1h-3.1V249
			c-0.4,0.6-0.9,1-1.6,1.4c-0.7,0.4-1.5,0.6-2.4,0.6c-1,0-2-0.3-2.8-0.8s-1.5-1.3-2-2.2c-0.5-1-0.7-2.1-0.7-3.3
			C210.9,243.5,211.1,242.4,211.6,241.4z M220,242.8c-0.3-0.5-0.7-0.9-1.2-1.2s-1-0.4-1.6-0.4s-1.1,0.1-1.6,0.4s-0.9,0.7-1.2,1.2
			s-0.5,1.2-0.5,1.9s0.2,1.4,0.5,1.9s0.7,1,1.2,1.3s1,0.4,1.6,0.4s1.1-0.1,1.6-0.4c0.5-0.3,0.9-0.7,1.2-1.2s0.4-1.2,0.4-1.9
			C220.4,244,220.3,243.3,220,242.8z"/>
		<path d="M234.7,239c0.7,0.4,1.2,0.8,1.6,1.4v-1.7h3.1v12.2c0,1.1-0.2,2.1-0.7,3s-1.1,1.6-2,2.1s-2,0.8-3.3,0.8
			c-1.7,0-3.1-0.4-4.2-1.2s-1.7-1.9-1.9-3.3h3c0.2,0.6,0.5,1,1,1.3s1.2,0.5,1.9,0.5c0.9,0,1.6-0.3,2.2-0.8c0.6-0.5,0.8-1.3,0.8-2.4
			V249c-0.4,0.6-0.9,1-1.6,1.4c-0.7,0.4-1.5,0.6-2.4,0.6c-1,0-2-0.3-2.8-0.8s-1.5-1.3-2-2.2c-0.5-1-0.7-2.1-0.7-3.3s0.2-2.3,0.7-3.3
			s1.2-1.7,2-2.2s1.8-0.8,2.8-0.8C233.2,238.5,234,238.6,234.7,239z M235.8,242.8c-0.3-0.5-0.7-0.9-1.2-1.2s-1-0.4-1.6-0.4
			s-1.1,0.1-1.6,0.4s-0.9,0.7-1.2,1.2s-0.5,1.2-0.5,1.9s0.2,1.4,0.5,1.9s0.7,1,1.2,1.3s1,0.4,1.6,0.4s1.1-0.1,1.6-0.4
			c0.5-0.3,0.9-0.7,1.2-1.2s0.4-1.2,0.4-1.9C236.3,244,236.1,243.3,235.8,242.8z"/>
		<path d="M254.6,245.6h-8.9c0.1,0.9,0.4,1.6,0.9,2.1s1.2,0.7,2,0.7c1.1,0,2-0.5,2.4-1.5h3.3c-0.4,1.2-1,2.1-2,2.9
			c-1,0.8-2.2,1.1-3.7,1.1c-1.2,0-2.2-0.3-3.1-0.8c-0.9-0.5-1.7-1.3-2.2-2.2c-0.5-1-0.8-2-0.8-3.3s0.3-2.4,0.8-3.3s1.2-1.7,2.1-2.2
			s2-0.8,3.2-0.8s2.2,0.2,3.1,0.7c0.9,0.5,1.6,1.2,2.1,2.1c0.5,0.9,0.8,2,0.8,3.1C254.6,244.9,254.6,245.3,254.6,245.6z
			 M251.5,243.6c0-0.8-0.3-1.4-0.9-1.9c-0.6-0.5-1.2-0.7-2-0.7s-1.4,0.2-1.9,0.7s-0.8,1.1-1,1.9H251.5z"/>
		<path d="M264.3,236.7c-0.4-0.3-0.5-0.8-0.5-1.3s0.2-0.9,0.5-1.3c0.4-0.3,0.8-0.5,1.3-0.5s1,0.2,1.3,0.5c0.4,0.3,0.5,0.8,0.5,1.3
			s-0.2,0.9-0.5,1.3c-0.4,0.3-0.8,0.5-1.3,0.5S264.6,237,264.3,236.7z M267.1,238.7v12.1H264v-12.1H267.1z"/>
		<path d="M274.7,241.2v5.9c0,0.4,0.1,0.7,0.3,0.9c0.2,0.2,0.5,0.3,1,0.3h1.4v2.6h-1.9c-2.6,0-3.9-1.3-3.9-3.8v-5.9h-1.4v-2.5h1.4
			v-3h3.1v3h2.7v2.5H274.7z"/>
		<path d="M280.6,250.4c-0.4-0.3-0.5-0.8-0.5-1.3s0.2-0.9,0.5-1.3c0.4-0.3,0.8-0.5,1.4-0.5c0.5,0,1,0.2,1.3,0.5
			c0.4,0.3,0.5,0.8,0.5,1.3s-0.2,0.9-0.5,1.3c-0.4,0.3-0.8,0.5-1.3,0.5C281.4,251,281,250.8,280.6,250.4z"/>
		<path d="M287.3,250.4c-0.4-0.3-0.5-0.8-0.5-1.3s0.2-0.9,0.5-1.3c0.4-0.3,0.8-0.5,1.4-0.5c0.5,0,1,0.2,1.3,0.5
			c0.4,0.3,0.5,0.8,0.5,1.3s-0.2,0.9-0.5,1.3c-0.4,0.3-0.8,0.5-1.3,0.5C288.1,251,287.7,250.8,287.3,250.4z"/>
		<path d="M295,250.4c-0.4-0.3-0.5-0.8-0.5-1.3s0.2-0.9,0.5-1.3c0.4-0.3,0.8-0.5,1.4-0.5c0.5,0,1,0.2,1.3,0.5
			c0.4,0.3,0.5,0.8,0.5,1.3s-0.2,0.9-0.5,1.3c-0.4,0.3-0.8,0.5-1.3,0.5C295.9,251,295.4,250.8,295,250.4z M298,235.2l-0.4,10.6H295
			l-0.4-10.6H298z"/>
	</g>
	<g id="Layer_2_00000010284556006159707610000000100922157554548127_">
		<g id="Layer_1-2">
			
				<linearGradient id="SVGID_1_" gradientUnits="userSpaceOnUse" x1="199.9475" y1="-571.4524" x2="225.2246" y2="-594.1391" gradientTransform="matrix(1 0 0 -1 0 -528)">
				<stop  offset="0" style="stop-color:#00FFAF"/>
				<stop  offset="6.000000e-02" style="stop-color:#00EDAD"/>
				<stop  offset="0.32" style="stop-color:#00A6A7"/>
				<stop  offset="0.55" style="stop-color:#006EA2"/>
				<stop  offset="0.75" style="stop-color:#00469F"/>
				<stop  offset="0.91" style="stop-color:#002D9D"/>
				<stop  offset="1" style="stop-color:#00249C"/>
			</linearGradient>
			<path class="st1" d="M208.7,43.4L208.7,43.4c0,0.1,0,0.2,0,0.2C208.7,43.5,208.7,43.4,208.7,43.4z M208.2,39.8c0,0.1,0,0.3,0,0.4
				C208.3,40,208.3,39.9,208.2,39.8L208.2,39.8z M201.8,55.2c0.3,0.5,0.6,0.9,0.9,1.4c0.3,0.4,0.5,0.7,0.8,1.1
				C202.9,56.7,202.3,55.8,201.8,55.2L201.8,55.2z"/>
			
				<linearGradient id="SVGID_00000093152509223636652130000015251988225723699357_" gradientUnits="userSpaceOnUse" x1="195.2886" y1="-558.1716" x2="239.7729" y2="-598.0977" gradientTransform="matrix(1 0 0 -1 0 -528)">
				<stop  offset="0" style="stop-color:#00FFAF"/>
				<stop  offset="6.000000e-02" style="stop-color:#00EDAD"/>
				<stop  offset="0.32" style="stop-color:#00A6A7"/>
				<stop  offset="0.55" style="stop-color:#006EA2"/>
				<stop  offset="0.75" style="stop-color:#00469F"/>
				<stop  offset="0.91" style="stop-color:#002D9D"/>
				<stop  offset="1" style="stop-color:#00249C"/>
			</linearGradient>
			<path style="fill:url(#SVGID_00000093152509223636652130000015251988225723699357_);" d="M257,37c-0.4-5.3-2.3-10.4-5.3-14.7
				c-1.4-2-3-3.9-4.9-5.5l0,0c-2.9-2.5-6.3-4.5-9.9-5.7c-0.7-0.2-1.4-0.4-2.1-0.6c-0.1-0.1-0.2-0.1-0.3-0.1
				c-0.6-0.2-1.2-0.3-1.9-0.4c-0.7-0.1-1.4-0.2-2.1-0.3c-0.1,0-0.2-0.1-0.4-0.1c-0.7-0.1-1.4-0.1-2.1-0.1c-0.1,0-0.2-0.1-0.3,0
				c-1.6,0-3.2,0.1-4.8,0.3c-0.8,0.1-1.6,0.3-2.4,0.4c-0.7,0.1-1.4,0.3-2,0.6c-0.2,0-0.4,0.1-0.5,0.1c-0.7,0.2-1.4,0.5-2,0.7
				c-0.7,0.3-1.5,0.6-2.2,1c-0.7,0.3-1.3,0.7-2,1.1c-0.8,0.5-1.5,1-2.2,1.5c-0.6,0.4-1.1,0.9-1.7,1.3c-0.5,0.4-0.9,0.8-1.4,1.3
				c-0.3,0.3-0.6,0.6-0.9,0.9c-0.4,0.4-0.8,0.9-1.2,1.4c-0.8,0.9-1.5,1.9-2.2,2.9c-0.3,0.5-0.6,1-0.9,1.5c-0.5,0.9-1,1.9-1.4,2.9
				c-0.1,0.1-0.1,0.2-0.1,0.3l-20.1,48.1l9.5,5.7L201,53.4l0,0c0.2,0.4,0.6,1,1,1.7c0.5,0.7,1,1.6,1.7,2.5c0.2,0.2,0.3,0.4,0.5,0.6
				c0.4,0.5,0.8,1,1.2,1.4s0.8,0.8,1.2,1.3c0.1,0,0.1,0,0.1,0.1c0.4,0.4,0.9,0.8,1.4,1.2c0.9,0.8,1.9,1.5,2.9,2.2
				c2.1,1.3,4.3,2.4,6.6,3.2c1.3,0.4,2.6,0.8,3.9,1c0.6,0.1,1.3,0.2,2,0.3c0.7,0.1,1.3,0.2,2,0.2c0.6,0,1.3,0.1,2,0.1
				c1.4,0,2.8-0.1,4.2-0.3c0.8-0.1,1.6-0.3,2.4-0.5c0.8-0.2,1.6-0.4,2.3-0.6c0.6-0.2,1.2-0.4,1.7-0.6s1.1-0.4,1.6-0.6
				c0.5-0.3,1.1-0.5,1.6-0.8s1-0.6,1.5-0.9s1-0.6,1.5-0.9c0.5-0.3,1-0.7,1.4-1l1.4-1.1c0.4-0.4,0.9-0.8,1.3-1.2
				c0.6-0.6,1.1-1.2,1.6-1.8c1.5-1.8,2.8-3.8,3.9-5.8c1.7-3.3,2.8-6.9,3.2-10.6c0.1-0.9,0.2-1.9,0.2-2.8
				C257.1,38.8,257.1,37.9,257,37z M246,41.4c-0.2,1.8-0.6,3.5-1.3,5.1l-0.2,0.4c-0.2,0.4-0.4,0.8-0.6,1.2c-0.2,0.5-0.5,1-0.8,1.4
				c-0.2,0.4-0.5,0.8-0.8,1.1c-0.9,1.3-2,2.5-3.2,3.5c-0.7,0.6-1.4,1.1-2.2,1.5c-0.4,0.3-0.9,0.5-1.3,0.7c-0.4,0.2-0.9,0.4-1.4,0.6
				c-0.4,0.2-0.8,0.3-1.2,0.4c-1.1,0.4-2.2,0.6-3.3,0.8c-0.5,0.1-1,0.1-1.5,0.1c-0.4,0-0.9,0-1.3,0c-0.3,0-0.6,0-0.9,0
				c-0.3,0-0.5,0-0.8,0c-0.7,0-1.3-0.2-2-0.3h-0.1c-0.7-0.1-1.3-0.4-2-0.6H221c-0.9-0.3-1.8-0.7-2.7-1.2c-0.5-0.3-1-0.6-1.5-0.9
				c-0.3-0.2-0.7-0.4-1-0.7c-0.6-0.4-1.2-0.9-1.8-1.5c-0.3-0.3-0.6-0.5-0.8-0.8c-0.6-0.6-1.1-1.3-1.6-2c-0.9-1.3-1.7-2.8-2.3-4.3
				c-0.2-0.3-0.3-0.7-0.3-1c-0.2-0.4-0.3-0.8-0.4-1.2v-0.1c0-0.1,0-0.2,0-0.3c-0.2-1-0.4-2-0.4-3l0,0c0-0.1,0-0.2,0-0.4l0,0
				c-0.2-2.1,0.1-4.3,0.9-6.3l0.6-1.4c0.2-0.4,0.3-0.7,0.5-1.1c0.3-0.7,0.7-1.3,1.1-1.9v-0.1c0.3-0.4,0.5-0.7,0.8-1.1s0.7-0.8,1-1.2
				c0.7-0.7,1.4-1.4,2.1-2c2.7-2.2,6-3.6,9.4-4.1c0.3,0,0.6-0.1,0.8-0.1s0.6,0,0.9,0s0.6,0,0.9,0c0.3,0,0.7,0,1,0
				c0.5,0,0.9,0.1,1.3,0.1c0.3,0,0.7,0.1,1,0.2s0.7,0.1,1.1,0.2c0.4,0.1,0.8,0.2,1.2,0.4c0.4,0.1,0.8,0.2,1.1,0.4
				c2.3,0.9,4.5,2.3,6.3,4.1c1.9,1.8,3.3,4,4.2,6.4c0.2,0.4,0.4,0.9,0.5,1.4c0.2,0.6,0.4,1.2,0.5,1.9c0.1,0.5,0.2,1.1,0.2,1.6
				c0,0.1,0,0.3,0.1,0.4C246.2,38.9,246.2,40.1,246,41.4z"/>
			
				<linearGradient id="SVGID_00000087412025308346833880000009276398495890855305_" gradientUnits="userSpaceOnUse" x1="224.4195" y1="-647.8286" x2="224.6834" y2="-648.0629" gradientTransform="matrix(1 0 0 -1 0 -528)">
				<stop  offset="0" style="stop-color:#00FFAF"/>
				<stop  offset="6.000000e-02" style="stop-color:#00EDAD"/>
				<stop  offset="0.32" style="stop-color:#00A6A7"/>
				<stop  offset="0.55" style="stop-color:#006EA2"/>
				<stop  offset="0.75" style="stop-color:#00469F"/>
				<stop  offset="0.91" style="stop-color:#002D9D"/>
				<stop  offset="1" style="stop-color:#00249C"/>
			</linearGradient>
			<path style="fill:url(#SVGID_00000087412025308346833880000009276398495890855305_);" d="M224.6,119.9c-0.1,0-0.1,0-0.2,0
				C224.5,119.9,224.6,119.9,224.6,119.9L224.6,119.9z"/>
			
				<linearGradient id="SVGID_00000062898584193776492140000011056382649531091634_" gradientUnits="userSpaceOnUse" x1="221.1677" y1="-617.517" x2="151.9307" y2="-672.7404" gradientTransform="matrix(1 0 0 -1 0 -528)">
				<stop  offset="0" style="stop-color:#00FFAF"/>
				<stop  offset="6.000000e-02" style="stop-color:#00EDAD"/>
				<stop  offset="0.32" style="stop-color:#00A6A7"/>
				<stop  offset="0.55" style="stop-color:#006EA2"/>
				<stop  offset="0.75" style="stop-color:#00469F"/>
				<stop  offset="0.91" style="stop-color:#002D9D"/>
				<stop  offset="1" style="stop-color:#00249C"/>
			</linearGradient>
			<path style="fill:url(#SVGID_00000062898584193776492140000011056382649531091634_);" d="M252,136.4c0-0.7-0.1-1.4-0.2-2.1
				c0-0.2,0-0.4-0.1-0.5c-0.1-0.7-0.3-1.4-0.4-2.1c-0.2-0.8-0.4-1.5-0.7-2.3c-0.2-0.7-0.5-1.4-0.8-2.1c-0.3-0.8-0.7-1.6-1.2-2.4
				c-0.3-0.6-0.7-1.2-1.1-1.9c-0.3-0.5-0.7-1.1-1-1.6c-0.2-0.4-0.5-0.7-0.7-1c-0.4-0.5-0.8-1-1.2-1.4c-0.8-0.9-1.7-1.8-2.6-2.6
				c-0.4-0.4-0.9-0.8-1.4-1.2c-0.8-0.7-1.7-1.3-2.6-1.8c-0.1-0.1-0.2-0.1-0.3-0.2L202,91.5l-13.8-8.3l-9.4-5.7l0,0l0,0
				c0,0-11.2-6.9-11.6-7.1c-2.1-1.3-4.3-2.4-6.6-3.2c-1.3-0.4-2.6-0.8-3.9-1c-0.6-0.1-1.3-0.2-2-0.3c-0.7-0.1-1.3-0.2-2-0.2
				s-1.3-0.1-2-0.1c-1.4,0-2.8,0.1-4.2,0.3c-0.8,0.1-1.6,0.3-2.4,0.5c-0.8,0.2-1.6,0.4-2.3,0.6c-0.6,0.2-1.2,0.4-1.8,0.6
				c-0.5,0.2-1.1,0.4-1.6,0.6c-0.5,0.3-1.1,0.5-1.6,0.8s-1,0.6-1.5,0.9s-1,0.6-1.5,0.9s-1,0.7-1.4,1s-0.9,0.7-1.3,1.1
				c-0.4,0.4-0.9,0.8-1.3,1.2c-0.6,0.6-1.1,1.2-1.6,1.8c-1.5,1.8-2.8,3.8-3.9,5.8c-1.7,3.3-2.8,6.9-3.2,10.6
				c-0.1,0.9-0.2,1.9-0.2,2.8s0,1.8,0.1,2.7c0.7,7.8,4.3,15,10.2,20.2l0,0c2.9,2.5,6.3,4.5,9.9,5.7c0.7,0.2,1.4,0.4,2.2,0.6
				c0.1,0.1,0.2,0.1,0.3,0.1c0.6,0.2,1.2,0.3,1.9,0.4s1.4,0.2,2.1,0.3c0.1,0,0.2,0.1,0.4,0.1c0.7,0.1,1.4,0.1,2.1,0.1
				c0.1,0,0.2,0.1,0.3,0c1.6,0,3.2-0.1,4.8-0.3c0.8-0.1,1.6-0.2,2.4-0.4c0.7-0.1,1.4-0.3,2-0.5c0.2,0,0.4-0.1,0.5-0.1
				c0.7-0.2,1.4-0.5,2-0.8c0.7-0.3,1.5-0.6,2.2-1c0.7-0.3,1.3-0.7,2-1.1c0.8-0.5,1.5-0.9,2.2-1.5c0.6-0.4,1.1-0.9,1.7-1.3
				c0.5-0.4,0.9-0.8,1.4-1.3c0.3-0.3,0.6-0.6,0.9-0.9c0.4-0.4,0.8-0.9,1.2-1.4c0.8-0.9,1.5-1.9,2.2-3c0.3-0.5,0.7-1,0.9-1.5
				c0.5-0.9,1-1.9,1.4-2.9c0.1-0.1,0.1-0.2,0.1-0.3l5-12l-9.3-5.6l-0.2-0.1l0,0l-5.6,13.4c-0.1,0.4-0.3,0.7-0.5,1.1
				c-0.3,0.7-0.7,1.3-1.1,1.9v0.1c-0.3,0.4-0.5,0.7-0.8,1.1s-0.7,0.8-1,1.2c-0.7,0.7-1.4,1.4-2.1,2c-1.1,0.9-2.4,1.7-3.7,2.4
				c-1.8,0.9-3.7,1.4-5.7,1.7c-0.3,0-0.6,0.1-0.8,0.1c-0.3,0-0.6,0-0.9,0h-0.9c-0.3,0-0.7,0-1,0c-0.5,0-0.9-0.1-1.3-0.1
				c-0.3,0-0.7-0.1-1-0.2s-0.7-0.1-1.1-0.2c-0.4-0.1-0.8-0.2-1.2-0.4c-0.4-0.1-0.8-0.2-1.1-0.4c-2.3-0.9-4.5-2.3-6.3-4.1
				c-0.5-0.5-1-1-1.4-1.6c-1.2-1.5-2.1-3.1-2.8-4.9c-0.2-0.4-0.4-0.9-0.5-1.4c-0.2-0.6-0.3-1.2-0.5-1.9c-0.1-0.5-0.2-1.1-0.3-1.6
				c0-0.1,0-0.3,0-0.4c-0.1-1.2-0.1-2.5,0-3.7c0.2-1.8,0.6-3.5,1.3-5.1l0.2-0.4c0.2-0.4,0.4-0.8,0.6-1.2c0.2-0.5,0.5-1,0.8-1.4
				c0.2-0.4,0.5-0.8,0.8-1.1c0.9-1.3,2-2.5,3.2-3.5c0.7-0.6,1.4-1.1,2.2-1.5c0.4-0.3,0.8-0.5,1.3-0.7c0.4-0.2,0.9-0.4,1.4-0.6
				c0.4-0.2,0.8-0.3,1.2-0.5c1.1-0.4,2.2-0.6,3.3-0.8c0.5-0.1,1-0.1,1.5-0.1c0.4,0,0.9,0,1.3,0c0.3,0,0.6,0,0.8,0c0.3,0,0.5,0,0.8,0
				c0.7,0.1,1.3,0.2,2,0.3h0.1c0.7,0.1,1.3,0.4,2,0.6h0.1c0.8,0.3,1.5,0.6,2.2,0.9l0.4,0.2c0.5,0.3,24.4,14.7,24.4,14.7l28.1,17.2
				c-0.5,0.2-1.1,0.5-1.8,0.8l-0.8,0.4l-0.7,0.4c-0.2,0.1-0.5,0.2-0.7,0.4c-0.4,0.2-0.8,0.4-1.2,0.7c-0.5,0.3-1.1,0.7-1.6,1
				s-0.9,0.7-1.4,1c0,0,0,0.1-0.1,0.1c-0.5,0.4-1,0.8-1.4,1.2c-0.9,0.8-1.8,1.7-2.6,2.6c-1.6,1.9-3,3.9-4.2,6.1
				c-0.6,1.2-1.1,2.4-1.6,3.7c-0.2,0.6-0.4,1.2-0.6,1.9c-0.2,0.6-0.3,1.3-0.5,1.9c-0.1,0.6-0.3,1.3-0.3,1.9
				c-0.2,1.4-0.3,2.8-0.3,4.2c0,0.8,0,1.6,0.1,2.4c0,0.8,0.1,1.6,0.3,2.4c0.1,0.6,0.2,1.2,0.4,1.8c0.1,0.6,0.3,1.1,0.4,1.6
				c0.1,0.5,0.3,1.1,0.5,1.7c0.2,0.6,0.4,1.1,0.7,1.6s0.5,1.1,0.7,1.6s0.5,1,0.8,1.6c0.3,0.5,0.6,1,0.9,1.5c0.3,0.5,0.7,1,1,1.5
				c0.5,0.7,1,1.3,1.5,1.9c1.6,1.7,3.3,3.3,5.2,4.7c3,2.2,6.4,3.8,10.1,4.7c0.9,0.2,1.8,0.4,2.7,0.6c0.9,0.2,1.8,0.2,2.7,0.3
				c7.8,0.5,15.5-2.1,21.5-7.1l0,0c2.9-2.5,5.3-5.5,7.1-8.9c0.3-0.7,0.6-1.4,0.9-2c0.1-0.1,0.1-0.2,0.1-0.3c0.3-0.6,0.5-1.2,0.7-1.8
				s0.4-1.3,0.6-2c0.1-0.1,0.1-0.2,0.1-0.4c0.2-0.7,0.3-1.3,0.4-2c0.1-0.1,0.1-0.2,0.1-0.3c0.3-1.6,0.4-3.2,0.4-4.8
				C252.1,138,252.1,137.1,252,136.4z M241.1,139.8c0,0.3,0,0.6-0.1,0.9s-0.1,0.6-0.1,0.9c0,0.3-0.1,0.7-0.2,1
				c-0.1,0.4-0.2,0.8-0.3,1.2s-0.3,0.9-0.4,1.3c-0.1,0.3-0.2,0.5-0.3,0.8c-0.2,0.4-0.3,0.8-0.5,1.1c-0.2,0.4-0.3,0.7-0.6,1.1
				c-1.2,2.2-2.9,4.1-4.9,5.6c-0.6,0.4-1.1,0.8-1.8,1.2c-1.6,1-3.4,1.7-5.2,2c-0.5,0.1-1,0.2-1.5,0.3c-0.6,0.1-1.3,0.2-1.9,0.2
				c-0.6,0-1.1,0-1.6,0c-0.1,0-0.3,0-0.4,0c-1.2-0.1-2.5-0.2-3.7-0.5c-1.7-0.5-3.4-1.1-4.9-2l-0.3-0.2c-0.4-0.2-0.8-0.5-1.1-0.7
				c-0.5-0.3-0.9-0.6-1.3-1c-0.4-0.3-0.7-0.6-1-0.9c-1.2-1.1-2.2-2.3-3-3.7c-0.5-0.8-0.9-1.6-1.2-2.4c-0.2-0.5-0.4-0.9-0.5-1.4
				c-0.2-0.5-0.3-1-0.4-1.5c-0.1-0.4-0.2-0.8-0.3-1.3c-0.2-1.1-0.3-2.2-0.3-3.4c0-0.5,0-1,0.1-1.6c0-0.4,0.1-0.9,0.2-1.3
				c0-0.3,0.1-0.6,0.2-0.8c0-0.3,0.1-0.5,0.2-0.8c0.1-0.6,0.3-1.3,0.6-1.9v-0.1c0.2-0.6,0.6-1.3,0.8-1.9c0,0,0,0,0-0.1
				c0.5-0.9,1-1.7,1.5-2.5c0.3-0.5,0.7-0.9,1.1-1.4c0.3-0.3,0.5-0.6,0.8-0.8c0.5-0.6,1.1-1.1,1.8-1.5c0.3-0.3,0.6-0.5,1-0.7
				c0.7-0.5,1.4-0.9,2.2-1.3c1.4-0.7,3-1.3,4.6-1.6c0.3-0.1,0.7-0.2,1.1-0.2c0.5-0.1,1.1-0.2,1.6-0.2c0.2,0,0.3,0,0.5,0
				c1-0.1,1.9,0,2.9,0.1c0.1,0,0.1,0,0.2,0l0,0c2.2,0.1,4.3,0.8,6.2,1.9l1.1,0.7c0.3,0.2,0.7,0.4,1,0.7c0.6,0.4,1.2,0.9,1.7,1.4
				l0.1,0.1c0.3,0.3,0.6,0.6,0.9,0.9c0.4,0.4,0.7,0.8,1.1,1.2c0.6,0.8,1.2,1.6,1.7,2.4c0.8,1.3,1.4,2.6,1.8,4
				c0.6,1.9,0.9,3.9,0.9,5.9C241.1,139.3,241.1,139.5,241.1,139.8z"/>
			
				<linearGradient id="SVGID_00000109745447129165277840000007935764512422491307_" gradientUnits="userSpaceOnUse" x1="177.2433" y1="-538.8984" x2="356.4305" y2="-699.7252" gradientTransform="matrix(1 0 0 -1 0 -528)">
				<stop  offset="0" style="stop-color:#00FFAF"/>
				<stop  offset="6.000000e-02" style="stop-color:#00EDAD"/>
				<stop  offset="0.32" style="stop-color:#00A6A7"/>
				<stop  offset="0.55" style="stop-color:#006EA2"/>
				<stop  offset="0.75" style="stop-color:#00469F"/>
				<stop  offset="0.91" style="stop-color:#002D9D"/>
				<stop  offset="1" style="stop-color:#00249C"/>
			</linearGradient>
			<path style="fill:url(#SVGID_00000109745447129165277840000007935764512422491307_);" d="M235.8,63.3c0,0.1,0.1,0.2,0.1,0.4
				L235.8,63.3L235.8,63.3z"/>
		</g>
	</g>
</g>
</svg>
