<?xml version="1.0" encoding="UTF-8"?>
<svg id="Layer_2" data-name="Layer 2" xmlns="http://www.w3.org/2000/svg" xmlns:xlink="http://www.w3.org/1999/xlink" viewBox="0 0 400 273.3">
  <defs>
    <style>
      .cls-1 {
        fill: url(#linear-gradient-2);
      }

      .cls-2 {
        fill: #fff;
      }

      .cls-3 {
        isolation: isolate;
      }

      .cls-4 {
        fill: url(#linear-gradient-3);
      }

      .cls-5 {
        fill: url(#linear-gradient);
      }

      .cls-6 {
        fill: url(#linear-gradient-4);
      }
    </style>
    <linearGradient id="linear-gradient" x1="200.95" y1="2455.45" x2="226.22" y2="2478.14" gradientTransform="translate(0 -2412)" gradientUnits="userSpaceOnUse">
      <stop offset="0" stop-color="#00ffaf"/>
      <stop offset=".06" stop-color="#00edad"/>
      <stop offset=".32" stop-color="#00a6a7"/>
      <stop offset=".55" stop-color="#006ea2"/>
      <stop offset=".75" stop-color="#00469f"/>
      <stop offset=".91" stop-color="#002d9d"/>
      <stop offset="1" stop-color="#00249c"/>
    </linearGradient>
    <linearGradient id="linear-gradient-2" x1="196.29" y1="2442.17" x2="240.77" y2="2482.1" gradientTransform="translate(0 -2412)" gradientUnits="userSpaceOnUse">
      <stop offset="0" stop-color="#00ffaf"/>
      <stop offset=".06" stop-color="#00edad"/>
      <stop offset=".32" stop-color="#00a6a7"/>
      <stop offset=".55" stop-color="#006ea2"/>
      <stop offset=".75" stop-color="#00469f"/>
      <stop offset=".91" stop-color="#002d9d"/>
      <stop offset="1" stop-color="#00249c"/>
    </linearGradient>
    <linearGradient id="linear-gradient-3" x1="222.17" y1="2501.52" x2="152.93" y2="2556.74" gradientTransform="translate(0 -2412)" gradientUnits="userSpaceOnUse">
      <stop offset="0" stop-color="#00ffaf"/>
      <stop offset=".06" stop-color="#00edad"/>
      <stop offset=".32" stop-color="#00a6a7"/>
      <stop offset=".55" stop-color="#006ea2"/>
      <stop offset=".75" stop-color="#00469f"/>
      <stop offset=".91" stop-color="#002d9d"/>
      <stop offset="1" stop-color="#00249c"/>
    </linearGradient>
    <linearGradient id="linear-gradient-4" x1="178.24" y1="2422.9" x2="357.43" y2="2583.73" gradientTransform="translate(0 -2412)" gradientUnits="userSpaceOnUse">
      <stop offset="0" stop-color="#00ffaf"/>
      <stop offset=".06" stop-color="#00edad"/>
      <stop offset=".32" stop-color="#00a6a7"/>
      <stop offset=".55" stop-color="#006ea2"/>
      <stop offset=".75" stop-color="#00469f"/>
      <stop offset=".91" stop-color="#002d9d"/>
      <stop offset="1" stop-color="#00249c"/>
    </linearGradient>
  </defs>
  <g class="cls-3">
    <path class="cls-2" d="m49.6,186.1v34.6h-8.4v-20.7l-7.7,20.8h-6.8l-7.8-20.8v20.8h-8.4v-34.6h10l9.7,24,9.6-24h9.8s0-.1,0-.1Z"/>
    <path class="cls-2" d="m60.9,219.4c-2.2-1.2-3.8-2.8-5.1-4.9-1.2-2.1-1.8-4.6-1.8-7.5s.6-5.3,1.9-7.5c1.2-2.2,3-3.8,5.1-5,2.2-1.2,4.6-1.7,7.3-1.7s5.1.6,7.3,1.7c2.2,1.2,3.9,2.8,5.1,5s1.9,4.6,1.9,7.5-.6,5.3-1.9,7.5-3,3.8-5.2,5-4.6,1.7-7.3,1.7c-2.7-.1-5.1-.6-7.3-1.8Zm11.4-7.3c1.1-1.2,1.7-2.9,1.7-5.1s-.6-3.9-1.7-5.1c-1.1-1.2-2.5-1.8-4.1-1.8s-3,.6-4.1,1.8-1.6,2.9-1.6,5.1.5,3.9,1.6,5.1c1.1,1.2,2.4,1.8,4,1.8,1.7-.1,3.1-.6,4.2-1.8Z"/>
    <path class="cls-2" d="m114.3,193.2v27.5h-8.4v-3.7c-.9,1.2-2,2.2-3.5,2.9s-3.1,1.1-4.9,1.1c-2.1,0-4-.5-5.6-1.4s-2.9-2.3-3.7-4.1-1.3-3.9-1.3-6.3v-16.1h8.4v14.9c0,1.8.5,3.3,1.4,4.3,1,1,2.2,1.5,3.8,1.5s2.9-.5,3.9-1.5,1.4-2.4,1.4-4.3v-14.9l8.5.1c0-.1,0,0,0,0Z"/>
    <path class="cls-2" d="m135.7,213.6v7.2h-4.3c-3.1,0-5.4-.7-7.1-2.2s-2.6-3.9-2.6-7.3v-10.9h-3.4v-7h3.4v-6.7h8.4v6.7h5.5v7h-5.5v11c0,.8.2,1.4.6,1.8s1.1.5,2,.5h3v-.1Z"/>
    <path class="cls-2" d="m164.8,196.1c1.9,2.1,2.9,5,2.9,8.6v16.1h-8.4v-14.9c0-1.8-.5-3.3-1.4-4.3-1-1-2.2-1.5-3.8-1.5s-2.9.5-3.8,1.5c-1,1-1.4,2.4-1.4,4.3v14.9h-8.4v-36.5h8.4v12.7c.9-1.2,2-2.2,3.5-2.9s3.1-1.1,5-1.1c3-.1,5.5,1,7.4,3.1Z"/>
    <path class="cls-2" d="m198.6,202.8c-.9,1.7-2.3,3-4.2,4s-4.3,1.5-7.1,1.5h-5.3v12.4h-8.4v-34.6h13.7c2.8,0,5.1.5,7,1.4,1.9,1,3.3,2.3,4.3,3.9,1,1.7,1.4,3.6,1.4,5.8s-.5,3.9-1.4,5.6Zm-8.4-2.3c.8-.8,1.2-1.8,1.2-3.2s-.4-2.4-1.2-3.2-2-1.1-3.6-1.1h-4.6v8.7h4.6c1.6-.1,2.8-.5,3.6-1.2Z"/>
    <path class="cls-2" d="m231.5,193.2v27.5h-8.4v-3.7c-.9,1.2-2,2.2-3.5,2.9s-3.1,1.1-4.9,1.1c-2.1,0-4-.5-5.6-1.4s-2.9-2.3-3.7-4.1-1.3-3.9-1.3-6.3v-16.1h8.4v14.9c0,1.8.5,3.3,1.4,4.3,1,1,2.2,1.5,3.8,1.5s2.9-.5,3.9-1.5,1.4-2.4,1.4-4.3v-14.9l8.5.1h0Z"/>
    <path class="cls-2" d="m249.4,194c1.5-.8,3.2-1.2,5.1-1.2,2.3,0,4.3.6,6.2,1.7,1.8,1.2,3.3,2.8,4.4,4.9,1.1,2.1,1.6,4.6,1.6,7.4s-.5,5.3-1.6,7.5-2.5,3.8-4.4,5c-1.8,1.2-3.9,1.8-6.2,1.8-1.9,0-3.6-.4-5.1-1.2-1.4-.8-2.6-1.8-3.4-3.1v3.8h-8.4v-36.5h8.4v12.9c.8-1.2,1.9-2.2,3.4-3Zm6.9,8c-1.2-1.2-2.6-1.8-4.3-1.8s-3.1.6-4.3,1.8-1.8,2.9-1.8,5,.6,3.8,1.8,5,2.6,1.8,4.3,1.8,3.1-.6,4.3-1.8c1.2-1.2,1.8-2.9,1.8-5-.1-2.2-.6-3.8-1.8-5Z"/>
    <path class="cls-2" d="m279.5,184.3v36.5h-8.4v-36.5h8.4Z"/>
    <path class="cls-2" d="m286.2,189.1c-.9-.9-1.4-1.9-1.4-3.2s.5-2.4,1.4-3.3c.9-.9,2.1-1.3,3.6-1.3,1.4,0,2.6.4,3.6,1.3.9.9,1.4,2,1.4,3.3s-.5,2.4-1.4,3.2c-.9.9-2.1,1.3-3.6,1.3-1.4,0-2.6-.5-3.6-1.3Zm7.8,4.1v27.5h-8.4v-27.5h8.4Z"/>
    <path class="cls-2" d="m300.2,199.5c1.2-2.1,2.8-3.8,4.9-4.9,2.1-1.2,4.5-1.7,7.2-1.7,3.5,0,6.3.9,8.7,2.7,2.3,1.8,3.8,4.4,4.6,7.6h-9c-.8-2.1-2.2-3.2-4.4-3.2-1.5,0-2.8.6-3.7,1.8-.9,1.2-1.4,2.9-1.4,5.2s.5,4,1.4,5.2,2.2,1.8,3.7,1.8c2.2,0,3.6-1.1,4.4-3.2h9c-.7,3.2-2.3,5.8-4.6,7.6-2.3,1.8-5.2,2.8-8.6,2.8-2.7,0-5.1-.6-7.2-1.7s-3.7-2.8-4.9-4.9c-1.2-2.1-1.8-4.6-1.8-7.5,0-3,.6-5.5,1.7-7.6Z"/>
    <path class="cls-2" d="m330.6,189.1c-.9-.9-1.4-1.9-1.4-3.2s.5-2.4,1.4-3.3c.9-.9,2.1-1.3,3.6-1.3,1.4,0,2.6.4,3.6,1.3.9.9,1.4,2,1.4,3.3s-.5,2.4-1.4,3.2c-.9.9-2.1,1.3-3.6,1.3-1.5,0-2.7-.5-3.6-1.3Zm7.8,4.1v27.5h-8.4v-27.5h8.4Z"/>
    <path class="cls-2" d="m359.9,213.6v7.2h-4.3c-3.1,0-5.4-.7-7.2-2.2s-2.6-3.9-2.6-7.3v-10.9h-3.4v-7h3.4v-6.7h8.4v6.7h5.5v7h-5.5v11c0,.8.2,1.4.6,1.8.4.4,1.1.5,2,.5h3.1v-.1Z"/>
    <path class="cls-2" d="m392.7,193.2l-17.3,40.6h-9.1l6.3-14-11.2-26.6h9.4l6.4,17.2,6.3-17.2h9.2Z"/>
  </g>
  <g class="cls-3">
    <path class="cls-2" d="m64.32,235.82v16.05c0,2.25-.6,3.9-1.95,5.25-1.35,1.2-3,1.8-5.25,1.8s-3.9-.6-5.25-1.95-1.95-3-1.95-5.4h4.65c0,1.05.3,1.8.75,2.25.45.6,1.05.75,1.95.75s1.5-.3,1.95-.75.6-1.2.6-2.1v-16.05h4.5v.15Z"/>
    <path class="cls-2" d="m88.32,240.62v18.15h-4.65v-2.25c-.6.75-1.35,1.35-2.25,1.8s-1.95.6-3.15.6c-1.5,0-2.7-.3-3.75-.9-1.05-.6-1.95-1.5-2.55-2.7-.6-1.2-.9-2.55-.9-4.2v-10.65h4.65v10.05c0,1.5.3,2.55,1.05,3.3s1.65,1.2,3,1.2c1.2,0,2.25-.45,3-1.2s1.05-1.95,1.05-3.3v-10.05h4.5v.15Z"/>
    <path class="cls-2" d="m97.32,258.32c-1.2-.6-2.1-1.2-2.85-2.25-.75-.9-1.05-1.95-1.2-3h4.65c.15.75.45,1.35,1.05,1.8s1.35.75,2.25.75,1.5-.15,2.1-.6c.45-.3.75-.75.75-1.35s-.3-1.05-.9-1.35-1.5-.6-2.85-.9c-1.35-.3-2.4-.6-3.3-1.05-.9-.3-1.65-.9-2.25-1.65-.6-.75-.9-1.65-.9-3,0-1.05.3-1.95.9-2.7.6-.9,1.35-1.5,2.55-1.95s2.4-.75,3.9-.75c2.1,0,3.9.6,5.25,1.65,1.35,1.05,1.95,2.55,2.1,4.35h-4.35c0-.75-.3-1.35-.9-1.8-.6-.45-1.2-.6-2.1-.6s-1.5.15-1.95.45-.6.75-.6,1.35.3,1.05.9,1.35,1.5.6,2.85.9c1.35.3,2.4.6,3.3,1.05.9.3,1.65.9,2.25,1.65s.9,1.65.9,2.85c0,1.05-.3,1.95-.9,2.85-.6.9-1.35,1.5-2.55,1.95-1.05.45-2.4.75-3.75.75-1.8,0-3.15-.3-4.35-.75Z"/>
    <path class="cls-2" d="m119.07,244.37v8.85c0,.6.15,1.05.45,1.35s.75.45,1.5.45h2.1v3.9h-2.85c-3.9,0-5.85-1.95-5.85-5.7v-8.85h-2.1v-3.75h2.1v-4.5h4.65v4.5h4.05v3.75h-4.05Z"/>
    <path class="cls-2" d="m165.42,242.27c1.35,1.35,2.1,3.3,2.1,5.7v10.65h-4.65v-10.05c0-1.35-.3-2.55-1.05-3.3s-1.65-1.2-3-1.2-2.25.45-3,1.2-1.05,1.8-1.05,3.3v10.05h-4.65v-10.05c0-1.35-.3-2.55-1.05-3.3s-1.65-1.2-3-1.2c-1.2,0-2.25.45-3,1.2s-1.05,1.8-1.05,3.3v10.05h-4.65v-18.15h4.65v2.25c.6-.75,1.35-1.35,2.25-1.8s1.95-.6,3-.6c1.5,0,2.7.3,3.75.9,1.05.6,1.95,1.5,2.55,2.55.6-1.05,1.5-1.95,2.55-2.55,1.2-.6,2.4-.9,3.6-.9,2.4,0,4.2.6,5.7,1.95Z"/>
    <path class="cls-2" d="m173.22,244.67c.75-1.5,1.8-2.55,3-3.3s2.7-1.2,4.2-1.2c1.35,0,2.55.3,3.6.75s1.8,1.2,2.4,2.1v-2.55h4.65v18.15h-4.65v-2.55c-.6.9-1.35,1.5-2.4,2.1-1.05.6-2.25.9-3.6.9-1.5,0-3-.45-4.2-1.2s-2.25-1.95-3-3.3c-.75-1.5-1.05-3.15-1.05-4.95-.15-1.8.3-3.45,1.05-4.95Zm12.6,2.1c-.45-.75-1.05-1.35-1.8-1.8s-1.5-.6-2.4-.6-1.65.15-2.4.6-1.35,1.05-1.8,1.8-.6,1.8-.6,2.85.15,2.1.6,2.85c.45.75,1.05,1.5,1.8,1.95s1.5.6,2.4.6,1.65-.15,2.4-.6c.75-.45,1.35-1.05,1.8-1.8s.6-1.8.6-2.85c0-1.2-.3-2.25-.6-3Z"/>
    <path class="cls-2" d="m212.38,242.27c1.35,1.35,1.95,3.3,1.95,5.7v10.65h-4.65v-10.05c0-1.5-.3-2.55-1.05-3.3s-1.65-1.2-3-1.2c-1.2,0-2.25.45-3,1.2s-1.05,1.95-1.05,3.3v10.05h-4.65v-18.15h4.65v2.25c.6-.75,1.35-1.35,2.4-1.8.9-.45,1.95-.75,3.15-.75,2.25.15,3.9.75,5.25,2.1Z"/>
    <path class="cls-2" d="m220.18,244.67c.75-1.5,1.8-2.55,3-3.3s2.7-1.2,4.2-1.2c1.35,0,2.55.3,3.6.75s1.8,1.2,2.4,2.1v-2.55h4.65v18.15h-4.65v-2.55c-.6.9-1.35,1.5-2.4,2.1-1.05.6-2.25.9-3.6.9-1.5,0-3-.45-4.2-1.2s-2.25-1.95-3-3.3c-.75-1.5-1.05-3.15-1.05-4.95,0-1.8.3-3.45,1.05-4.95Zm12.6,2.1c-.45-.75-1.05-1.35-1.8-1.8s-1.5-.6-2.4-.6-1.65.15-2.4.6-1.35,1.05-1.8,1.8-.75,1.8-.75,2.85.3,2.1.75,2.85,1.05,1.5,1.8,1.95,1.5.6,2.4.6,1.65-.15,2.4-.6c.75-.45,1.35-1.05,1.8-1.8s.6-1.8.6-2.85c0-1.2-.15-2.25-.6-3Z"/>
    <path class="cls-2" d="m254.83,241.07c1.05.6,1.8,1.2,2.4,2.1v-2.55h4.65v18.3c0,1.65-.3,3.15-1.05,4.5s-1.65,2.4-3,3.15-3,1.2-4.95,1.2c-2.55,0-4.65-.6-6.3-1.8s-2.55-2.85-2.85-4.95h4.5c.3.9.75,1.5,1.5,1.95s1.8.75,2.85.75c1.35,0,2.4-.45,3.3-1.2.9-.75,1.2-1.95,1.2-3.6v-2.85c-.6.9-1.35,1.5-2.4,2.1-1.05.6-2.25.9-3.6.9-1.5,0-3-.45-4.2-1.2s-2.25-1.95-3-3.3c-.75-1.5-1.05-3.15-1.05-4.95s.3-3.45,1.05-4.95,1.8-2.55,3-3.3,2.7-1.2,4.2-1.2c1.5.15,2.7.3,3.75.9Zm1.65,5.7c-.45-.75-1.05-1.35-1.8-1.8s-1.5-.6-2.4-.6-1.65.15-2.4.6-1.35,1.05-1.8,1.8-.75,1.8-.75,2.85.3,2.1.75,2.85,1.05,1.5,1.8,1.95,1.5.6,2.4.6,1.65-.15,2.4-.6c.75-.45,1.35-1.05,1.8-1.8s.6-1.8.6-2.85c.15-1.2-.15-2.25-.6-3Z"/>
    <path class="cls-2" d="m284.68,250.97h-13.35c.15,1.35.6,2.4,1.35,3.15s1.8,1.05,3,1.05c1.65,0,3-.75,3.6-2.25h4.95c-.6,1.8-1.5,3.15-3,4.35-1.5,1.2-3.3,1.65-5.55,1.65-1.8,0-3.3-.45-4.65-1.2-1.35-.75-2.55-1.95-3.3-3.3-.75-1.5-1.2-3-1.2-4.95s.45-3.6,1.2-4.95,1.8-2.55,3.15-3.3,3-1.2,4.8-1.2,3.3.3,4.65,1.05c1.35.75,2.4,1.8,3.15,3.15.75,1.35,1.2,3,1.2,4.65,0,1.05,0,1.65,0,2.1Zm-4.65-3c0-1.2-.45-2.1-1.35-2.85-.9-.75-1.8-1.05-3-1.05s-2.1.3-2.85,1.05-1.2,1.65-1.5,2.85h8.7Z"/>
    <path class="cls-2" d="m299.23,237.62c-.6-.45-.75-1.2-.75-1.95s.3-1.35.75-1.95c.6-.45,1.2-.75,1.95-.75s1.5.3,1.95.75c.6.45.75,1.2.75,1.95s-.3,1.35-.75,1.95c-.6.45-1.2.75-1.95.75s-1.5-.3-1.95-.75Zm4.2,3v18.15h-4.65v-18.15h4.65Z"/>
    <path class="cls-2" d="m314.83,244.37v8.85c0,.6.15,1.05.45,1.35.3.3.75.45,1.5.45h2.1v3.9h-2.85c-3.9,0-5.85-1.95-5.85-5.7v-8.85h-2.1v-3.75h2.1v-4.5h4.65v4.5h4.05v3.75h-4.05Z"/>
    <path class="cls-2" d="m323.68,258.17c-.6-.45-.75-1.2-.75-1.95s.3-1.35.75-1.95c.6-.45,1.2-.75,2.1-.75.75,0,1.5.3,1.95.75.6.45.75,1.2.75,1.95s-.3,1.35-.75,1.95c-.6.45-1.2.75-1.95.75-.9.15-1.5-.15-2.1-.75Z"/>
    <path class="cls-2" d="m333.73,258.17c-.6-.45-.75-1.2-.75-1.95s.3-1.35.75-1.95c.6-.45,1.2-.75,2.1-.75.75,0,1.5.3,1.95.75.6.45.75,1.2.75,1.95s-.3,1.35-.75,1.95c-.6.45-1.2.75-1.95.75-.9.15-1.5-.15-2.1-.75Z"/>
    <path class="cls-2" d="m345.28,258.17c-.6-.45-.75-1.2-.75-1.95s.3-1.35.75-1.95c.6-.45,1.2-.75,2.1-.75.75,0,1.5.3,1.95.75.6.45.75,1.2.75,1.95s-.3,1.35-.75,1.95c-.6.45-1.2.75-1.95.75-.75.15-1.5-.15-2.1-.75Zm4.5-22.8l-.6,15.9h-3.9l-.6-15.9h5.1Z"/>
  </g>
  <g id="Layer_2-2" data-name="Layer 2">
    <g id="Layer_1-2" data-name="Layer 1-2">
      <path class="cls-5" d="m209.7,43.4h0v.2-.2Zm-.5-3.6v.4c.1-.2.1-.3,0-.4h0Zm-6.4,15.4c.3.5.6.9.9,1.4.3.4.5.7.8,1.1-.6-1-1.2-1.9-1.7-2.5h0Z"/>
      <path class="cls-1" d="m258,37c-.4-5.3-2.3-10.4-5.3-14.7-1.4-2-3-3.9-4.9-5.5h0c-2.9-2.5-6.3-4.5-9.9-5.7-.7-.2-1.4-.4-2.1-.6-.1-.1-.2-.1-.3-.1-.6-.2-1.2-.3-1.9-.4-.7-.1-1.4-.2-2.1-.3-.1,0-.2-.1-.4-.1-.7-.1-1.4-.1-2.1-.1-.1,0-.2-.1-.3,0-1.6,0-3.2.1-4.8.3-.8.1-1.6.3-2.4.4-.7.1-1.4.3-2,.6-.2,0-.4.1-.5.1-.7.2-1.4.5-2,.7-.7.3-1.5.6-2.2,1-.7.3-1.3.7-2,1.1-.8.5-1.5,1-2.2,1.5-.6.4-1.1.9-1.7,1.3-.5.4-.9.8-1.4,1.3-.3.3-.6.6-.9.9-.4.4-.8.9-1.2,1.4-.8.9-1.5,1.9-2.2,2.9-.3.5-.6,1-.9,1.5-.5.9-1,1.9-1.4,2.9-.1.1-.1.2-.1.3l-20.1,48.1,9.5,5.7,11.8-28.1h0c.2.4.6,1,1,1.7.5.7,1,1.6,1.7,2.5.2.2.3.4.5.6.4.5.8,1,1.2,1.4s.8.8,1.2,1.3q.1,0,.1.1c.4.4.9.8,1.4,1.2.9.8,1.9,1.5,2.9,2.2,2.1,1.3,4.3,2.4,6.6,3.2,1.3.4,2.6.8,3.9,1,.6.1,1.3.2,2,.3.7.1,1.3.2,2,.2.6,0,1.3.1,2,.1,1.4,0,2.8-.1,4.2-.3.8-.1,1.6-.3,2.4-.5.8-.2,1.6-.4,2.3-.6.6-.2,1.2-.4,1.7-.6s1.1-.4,1.6-.6c.5-.3,1.1-.5,1.6-.8s1-.6,1.5-.9,1-.6,1.5-.9c.5-.3,1-.7,1.4-1l1.4-1.1c.4-.4.9-.8,1.3-1.2.6-.6,1.1-1.2,1.6-1.8,1.5-1.8,2.8-3.8,3.9-5.8,1.7-3.3,2.8-6.9,3.2-10.6.1-.9.2-1.9.2-2.8-.2-.9-.2-1.8-.3-2.7Zm-11,4.4c-.2,1.8-.6,3.5-1.3,5.1l-.2.4c-.2.4-.4.8-.6,1.2-.2.5-.5,1-.8,1.4-.2.4-.5.8-.8,1.1-.9,1.3-2,2.5-3.2,3.5-.7.6-1.4,1.1-2.2,1.5-.4.3-.9.5-1.3.7-.4.2-.9.4-1.4.6-.4.2-.8.3-1.2.4-1.1.4-2.2.6-3.3.8-.5.1-1,.1-1.5.1h-3c-.7,0-1.3-.2-2-.3h-.1c-.7-.1-1.3-.4-2-.6h-.1c-.9-.3-1.8-.7-2.7-1.2-.5-.3-1-.6-1.5-.9-.3-.2-.7-.4-1-.7-.6-.4-1.2-.9-1.8-1.5-.3-.3-.6-.5-.8-.8-.6-.6-1.1-1.3-1.6-2-.9-1.3-1.7-2.8-2.3-4.3-.2-.3-.3-.7-.3-1-.2-.4-.3-.8-.4-1.2v-.4c-.2-1-.4-2-.4-3h0v-.4h0c-.2-2.1.1-4.3.9-6.3l.6-1.4c.2-.4.3-.7.5-1.1.3-.7.7-1.3,1.1-1.9v-.1c.3-.4.5-.7.8-1.1s.7-.8,1-1.2c.7-.7,1.4-1.4,2.1-2,2.7-2.2,6-3.6,9.4-4.1.3,0,.6-.1.8-.1h2.8c.5,0,.9.1,1.3.1.3,0,.7.1,1,.2s.7.1,1.1.2c.4.1.8.2,1.2.4.4.1.8.2,1.1.4,2.3.9,4.5,2.3,6.3,4.1,1.9,1.8,3.3,4,4.2,6.4.2.4.4.9.5,1.4.2.6.4,1.2.5,1.9.1.5.2,1.1.2,1.6,0,.1,0,.3.1.4.5,1.2.5,2.4.3,3.7Z"/>
      <path class="cls-4" d="m253,136.4c0-.7-.1-1.4-.2-2.1,0-.2,0-.4-.1-.5-.1-.7-.3-1.4-.4-2.1-.2-.8-.4-1.5-.7-2.3-.2-.7-.5-1.4-.8-2.1-.3-.8-.7-1.6-1.2-2.4-.3-.6-.7-1.2-1.1-1.9-.3-.5-.7-1.1-1-1.6-.2-.4-.5-.7-.7-1-.4-.5-.8-1-1.2-1.4-.8-.9-1.7-1.8-2.6-2.6-.4-.4-.9-.8-1.4-1.2-.8-.7-1.7-1.3-2.6-1.8-.1-.1-.2-.1-.3-.2l-35.7-21.7-13.8-8.3-9.4-5.7h0s-11.2-6.9-11.6-7.1c-2.1-1.3-4.3-2.4-6.6-3.2-1.3-.4-2.6-.8-3.9-1-.6-.1-1.3-.2-2-.3-.7-.1-1.3-.2-2-.2s-1.3-.1-2-.1c-1.4,0-2.8.1-4.2.3-.8.1-1.6.3-2.4.5-.8.2-1.6.4-2.3.6-.6.2-1.2.4-1.8.6-.5.2-1.1.4-1.6.6-.5.3-1.1.5-1.6.8s-1,.6-1.5.9-1,.6-1.5.9-1,.7-1.4,1-.9.7-1.3,1.1c-.4.4-.9.8-1.3,1.2-.6.6-1.1,1.2-1.6,1.8-1.5,1.8-2.8,3.8-3.9,5.8-1.7,3.3-2.8,6.9-3.2,10.6-.1.9-.2,1.9-.2,2.8s0,1.8.1,2.7c.7,7.8,4.3,15,10.2,20.2h0c2.9,2.5,6.3,4.5,9.9,5.7.7.2,1.4.4,2.2.6.1.1.2.1.3.1.6.2,1.2.3,1.9.4s1.4.2,2.1.3c.1,0,.2.1.4.1.7.1,1.4.1,2.1.1.1,0,.2.1.3,0,1.6,0,3.2-.1,4.8-.3.8-.1,1.6-.2,2.4-.4.7-.1,1.4-.3,2-.5.2,0,.4-.1.5-.1.7-.2,1.4-.5,2-.8.7-.3,1.5-.6,2.2-1,.7-.3,1.3-.7,2-1.1.8-.5,1.5-.9,2.2-1.5.6-.4,1.1-.9,1.7-1.3.5-.4.9-.8,1.4-1.3.3-.3.6-.6.9-.9.4-.4.8-.9,1.2-1.4.8-.9,1.5-1.9,2.2-3,.3-.5.7-1,.9-1.5.5-.9,1-1.9,1.4-2.9.1-.1.1-.2.1-.3l5-12-9.3-5.6-.2-.1h0l-5.6,13.4c-.1.4-.3.7-.5,1.1-.3.7-.7,1.3-1.1,1.9v.1c-.3.4-.5.7-.8,1.1s-.7.8-1,1.2c-.7.7-1.4,1.4-2.1,2-1.1.9-2.4,1.7-3.7,2.4-1.8.9-3.7,1.4-5.7,1.7-.3,0-.6.1-.8.1h-2.8c-.5,0-.9-.1-1.3-.1-.3,0-.7-.1-1-.2s-.7-.1-1.1-.2c-.4-.1-.8-.2-1.2-.4-.4-.1-.8-.2-1.1-.4-2.3-.9-4.5-2.3-6.3-4.1-.5-.5-1-1-1.4-1.6-1.2-1.5-2.1-3.1-2.8-4.9-.2-.4-.4-.9-.5-1.4-.2-.6-.3-1.2-.5-1.9-.1-.5-.2-1.1-.3-1.6v-.4c-.1-1.2-.1-2.5,0-3.7.2-1.8.6-3.5,1.3-5.1l.2-.4c.2-.4.4-.8.6-1.2.2-.5.5-1,.8-1.4.2-.4.5-.8.8-1.1.9-1.3,2-2.5,3.2-3.5.7-.6,1.4-1.1,2.2-1.5.4-.3.8-.5,1.3-.7.4-.2.9-.4,1.4-.6.4-.2.8-.3,1.2-.5,1.1-.4,2.2-.6,3.3-.8.5-.1,1-.1,1.5-.1h2.9c.7.1,1.3.2,2,.3h.1c.7.1,1.3.4,2,.6h.1c.8.3,1.5.6,2.2.9l.4.2c.5.3,24.4,14.7,24.4,14.7l28.1,17.2c-.5.2-1.1.5-1.8.8l-.8.4-.7.4c-.2.1-.5.2-.7.4-.4.2-.8.4-1.2.7-.5.3-1.1.7-1.6,1s-.9.7-1.4,1c0,0,0,.1-.1.1-.5.4-1,.8-1.4,1.2-.9.8-1.8,1.7-2.6,2.6-1.6,1.9-3,3.9-4.2,6.1-.6,1.2-1.1,2.4-1.6,3.7-.2.6-.4,1.2-.6,1.9-.2.6-.3,1.3-.5,1.9-.1.6-.3,1.3-.3,1.9-.2,1.4-.3,2.8-.3,4.2,0,.8,0,1.6.1,2.4,0,.8.1,1.6.3,2.4.1.6.2,1.2.4,1.8.1.6.3,1.1.4,1.6.1.5.3,1.1.5,1.7.2.6.4,1.1.7,1.6s.5,1.1.7,1.6.5,1,.8,1.6c.3.5.6,1,.9,1.5.3.5.7,1,1,1.5.5.7,1,1.3,1.5,1.9,1.6,1.7,3.3,3.3,5.2,4.7,3,2.2,6.4,3.8,10.1,4.7.9.2,1.8.4,2.7.6.9.2,1.8.2,2.7.3,7.8.5,15.5-2.1,21.5-7.1h0c2.9-2.5,5.3-5.5,7.1-8.9.3-.7.6-1.4.9-2,.1-.1.1-.2.1-.3.3-.6.5-1.2.7-1.8s.4-1.3.6-2c.1-.1.1-.2.1-.4.2-.7.3-1.3.4-2,.1-.1.1-.2.1-.3.3-1.6.4-3.2.4-4.8-.2-1-.2-1.9-.3-2.6Zm-10.9,3.4c0,.3,0,.6-.1.9s-.1.6-.1.9-.1.7-.2,1c-.1.4-.2.8-.3,1.2s-.3.9-.4,1.3c-.1.3-.2.5-.3.8-.2.4-.3.8-.5,1.1-.2.4-.3.7-.6,1.1-1.2,2.2-2.9,4.1-4.9,5.6-.6.4-1.1.8-1.8,1.2-1.6,1-3.4,1.7-5.2,2-.5.1-1,.2-1.5.3-.6.1-1.3.2-1.9.2h-2c-1.2-.1-2.5-.2-3.7-.5-1.7-.5-3.4-1.1-4.9-2l-.3-.2c-.4-.2-.8-.5-1.1-.7-.5-.3-.9-.6-1.3-1-.4-.3-.7-.6-1-.9-1.2-1.1-2.2-2.3-3-3.7-.5-.8-.9-1.6-1.2-2.4-.2-.5-.4-.9-.5-1.4-.2-.5-.3-1-.4-1.5-.1-.4-.2-.8-.3-1.3-.2-1.1-.3-2.2-.3-3.4,0-.5,0-1,.1-1.6,0-.4.1-.9.2-1.3,0-.3.1-.6.2-.8,0-.3.1-.5.2-.8.1-.6.3-1.3.6-1.9v-.1c.2-.6.6-1.3.8-1.9v-.1c.5-.9,1-1.7,1.5-2.5.3-.5.7-.9,1.1-1.4.3-.3.5-.6.8-.8.5-.6,1.1-1.1,1.8-1.5.3-.3.6-.5,1-.7.7-.5,1.4-.9,2.2-1.3,1.4-.7,3-1.3,4.6-1.6.3-.1.7-.2,1.1-.2.5-.1,1.1-.2,1.6-.2h.5c1-.1,1.9,0,2.9.1h.2c2.2.1,4.3.8,6.2,1.9l1.1.7c.3.2.7.4,1,.7.6.4,1.2.9,1.7,1.4l.1.1c.3.3.6.6.9.9.4.4.7.8,1.1,1.2.6.8,1.2,1.6,1.7,2.4.8,1.3,1.4,2.6,1.8,4,.6,1.9.9,3.9.9,5.9-.1.3-.1.5-.1.8Z"/>
      <path class="cls-6" d="m236.8,63.3c0,.1.1.2.1.4l-.1-.4h0Z"/>
    </g>
  </g>
</svg>