<?xml version="1.0" encoding="UTF-8"?><svg id="Layer_2" xmlns="http://www.w3.org/2000/svg" xmlns:xlink="http://www.w3.org/1999/xlink" viewBox="0 0 484.26 457.36"><defs><style>.cls-1{fill:#255096;}.cls-2{fill:url(#_езымянный_градиент_37-3);}.cls-3{fill:#fff;}.cls-4{fill:#232e4f;}.cls-5{fill:#f37168;}.cls-6{fill:url(#_езымянный_градиент_37-4);}.cls-7{fill:#9ec8ff;}.cls-8{fill:#93bbf0;}.cls-9{fill:#455a64;}.cls-10{clip-path:url(#clippath-2);}.cls-11{fill:#c1c765;}.cls-12{fill:#3e49e1;}.cls-13{fill:#e0e0e0;}.cls-14{fill:#c6e0f7;}.cls-15{fill:#f09959;}.cls-16{fill:#ffc34e;}.cls-17{fill:#ff725e;}.cls-18{fill:url(#_езымянный_градиент_37-2);}.cls-19{clip-path:url(#clippath-1);}.cls-20{clip-path:url(#clippath-4);}.cls-21{fill:#d5ebfe;}.cls-22{fill:#b78876;}.cls-23{fill:#eb996e;}.cls-24{fill:#fb8627;}.cls-25{fill:#ffab37;}.cls-26{fill:#bdccd4;}.cls-27{fill:#7a4e34;}.cls-28{fill:url(#_езымянный_градиент_37);}.cls-29{fill:#ffbe9d;}.cls-30{fill:#a8ceff;}.cls-31{fill:#9bd6e8;}.cls-32{fill:#a1a654;}.cls-33{clip-path:url(#clippath);}.cls-34{fill:#ebebeb;}.cls-35{fill:#e38540;}.cls-36{fill:none;}.cls-37{fill:#050505;}.cls-38{clip-path:url(#clippath-3);}.cls-39{fill:#d54a41;}.cls-40{fill:#63acc2;}.cls-41{fill:#0f2d5c;}.cls-42{fill:#995037;}.cls-43{fill:#2e2d3d;}.cls-44{fill:#303c60;}.cls-45{fill:#3e6bab;}.cls-46{fill:#263238;}</style><clipPath id="clippath"><circle class="cls-36" cx="238.53" cy="162.99" r="37.82"/></clipPath><clipPath id="clippath-1"><circle class="cls-36" cx="371.55" cy="66.66" r="29.64" transform="translate(150.52 372.66) rotate(-64.33)"/></clipPath><clipPath id="clippath-2"><circle class="cls-36" cx="200.86" cy="50.9" r="42" transform="translate(86.34 223.59) rotate(-70.67)"/></clipPath><clipPath id="clippath-3"><circle class="cls-36" cx="449.63" cy="185.3" r="34.24" transform="translate(-36.69 186.17) rotate(-22.5)"/></clipPath><clipPath id="clippath-4"><circle class="cls-36" cx="32.62" cy="124.23" r="32.21"/></clipPath><linearGradient id="_езымянный_градиент_37" x1="2112.73" y1="110.06" x2="2057.62" y2="175.41" gradientTransform="translate(-2051.62)" gradientUnits="userSpaceOnUse"><stop offset="0" stop-color="#ffc34e"/><stop offset="1" stop-color="#fb8627"/></linearGradient><linearGradient id="_езымянный_градиент_37-2" x1="2101.97" y1="100.99" x2="2046.85" y2="166.33" xlink:href="#_езымянный_градиент_37"/><linearGradient id="_езымянный_градиент_37-3" x1="2114.77" y1="89.12" x2="2076.91" y2="156.86" xlink:href="#_езымянный_градиент_37"/><linearGradient id="_езымянный_градиент_37-4" x1="2111.5" y1="105.22" x2="2052.68" y2="174.96" xlink:href="#_езымянный_градиент_37"/></defs><g id="_лой_1"><g><g><path class="cls-40" d="M48.78,127.91c-.16,0-.31-.11-.36-.27l-1.07-3.63c-.05-.18,.03-.37,.2-.45l3.41-1.64c.19-.09,.41-.01,.5,.18,.09,.19,.01,.41-.18,.51l-3.12,1.5,.98,3.32c.06,.2-.06,.41-.26,.47-.04,.01-.07,.02-.11,.02Z"/><path class="cls-40" d="M72.89,209.56c-.16,0-.31-.11-.36-.27l-2.01-6.8c-.06-.2,.06-.41,.26-.47,.2-.06,.41,.06,.47,.26l2.01,6.8c.06,.2-.06,.41-.26,.47-.04,.01-.07,.02-.11,.02Zm-4.02-13.61c-.16,0-.31-.11-.36-.27l-2.01-6.8c-.06-.2,.06-.41,.26-.47,.2-.06,.41,.06,.47,.26l2.01,6.8c.06,.2-.06,.41-.26,.47-.04,.01-.07,.02-.11,.02Zm-4.02-13.61c-.16,0-.31-.11-.36-.27l-2.01-6.8c-.06-.2,.06-.41,.26-.47,.2-.06,.41,.06,.47,.26l2.01,6.8c.06,.2-.06,.41-.26,.47-.04,.01-.07,.02-.11,.02Zm-4.02-13.61c-.16,0-.31-.11-.36-.27l-2.01-6.8c-.06-.2,.06-.41,.26-.47,.2-.06,.41,.06,.47,.26l2.01,6.8c.06,.2-.06,.41-.26,.47-.04,.01-.07,.02-.11,.02Zm-4.02-13.61c-.16,0-.31-.11-.36-.27l-2.01-6.8c-.06-.2,.06-.41,.26-.47,.2-.06,.41,.06,.47,.26l2.01,6.8c.06,.2-.06,.41-.26,.47-.04,.01-.07,.02-.11,.02Zm-4.02-13.61c-.16,0-.31-.11-.36-.27l-2.01-6.8c-.06-.2,.06-.41,.26-.47,.2-.06,.41,.06,.47,.26l2.01,6.8c.06,.2-.06,.41-.26,.47-.04,.01-.07,.02-.11,.02Z"/><path class="cls-40" d="M75.97,219.99c-.06,0-.12-.01-.17-.04-.09-.05-.16-.13-.19-.23l-1.07-3.63c-.06-.2,.06-.41,.26-.47,.2-.06,.41,.06,.47,.26l.96,3.24,3.17-1.17c.2-.07,.41,.03,.49,.22,.07,.2-.03,.41-.22,.49l-3.55,1.31s-.09,.02-.13,.02Z"/><path class="cls-40" d="M86.52,216.09c-.15,0-.3-.09-.36-.25-.07-.2,.03-.41,.22-.49l7-2.59c.2-.07,.41,.03,.49,.22,.07,.2-.03,.41-.22,.49l-7,2.59s-.09,.02-.13,.02Zm14-5.18c-.15,0-.3-.09-.36-.25-.07-.2,.03-.41,.22-.49l7-2.59c.2-.07,.41,.03,.49,.22,.07,.2-.03,.41-.22,.49l-7,2.59s-.09,.02-.13,.02Zm14-5.18c-.15,0-.3-.09-.36-.25-.07-.2,.03-.41,.22-.49l7-2.59c.2-.07,.41,.03,.49,.22,.07,.2-.03,.41-.22,.49l-7,2.59s-.09,.02-.13,.02Zm14-5.18c-.15,0-.3-.09-.36-.25-.07-.2,.03-.41,.22-.49l7-2.59c.2-.07,.41,.03,.49,.22,.07,.2-.03,.41-.22,.49l-7,2.59s-.09,.02-.13,.02Zm14-5.18c-.15,0-.3-.09-.36-.25-.07-.2,.03-.41,.22-.49l7-2.59c.2-.07,.41,.03,.49,.22,.07,.2-.03,.41-.22,.49l-7,2.59s-.09,.02-.13,.02Zm14-5.18c-.15,0-.3-.09-.36-.25-.07-.2,.03-.41,.22-.49l7-2.59c.2-.07,.41,.03,.49,.22,.07,.2-.03,.41-.22,.49l-7,2.59s-.09,.02-.13,.02Zm14-5.18c-.15,0-.3-.09-.36-.25-.07-.2,.03-.41,.22-.49l7-2.59c.2-.07,.41,.03,.49,.22,.07,.2-.03,.41-.22,.49l-7,2.59s-.09,.02-.13,.02Zm14-5.18c-.15,0-.3-.09-.36-.25-.07-.2,.03-.41,.22-.49l7-2.59c.2-.07,.41,.03,.49,.22,.07,.2-.03,.41-.22,.49l-7,2.59s-.09,.02-.13,.02Zm14-5.18c-.15,0-.3-.09-.36-.25-.07-.2,.03-.41,.22-.49l7-2.59c.2-.07,.41,.03,.49,.22,.07,.2-.03,.41-.22,.49l-7,2.59s-.09,.02-.13,.02Zm14-5.18c-.15,0-.3-.09-.36-.25-.07-.2,.03-.41,.22-.49l7-2.59c.2-.07,.41,.03,.49,.22s-.03,.41-.22,.49l-7,2.59s-.09,.02-.13,.02Z"/><path class="cls-40" d="M233.29,164.92c-.07,0-.13-.02-.19-.05l-3.1-1.84-3.38,1.25c-.2,.07-.41-.03-.49-.22s.03-.41,.22-.49l3.55-1.31c.11-.04,.23-.03,.32,.03l3.26,1.93c.18,.11,.24,.34,.13,.52-.07,.12-.2,.19-.33,.19Z"/><path class="cls-40" d="M340.78,228.72c-.07,0-.13-.02-.19-.05l-6.72-3.99c-.18-.11-.24-.34-.13-.52,.11-.18,.34-.24,.52-.13l6.72,3.99c.18,.11,.24,.34,.13,.52-.07,.12-.2,.19-.33,.19Zm-13.44-7.98c-.07,0-.13-.02-.19-.05l-6.72-3.99c-.18-.11-.24-.34-.13-.52s.34-.24,.52-.13l6.72,3.99c.18,.11,.24,.34,.13,.52-.07,.12-.2,.19-.33,.19Zm-13.44-7.98c-.07,0-.13-.02-.19-.05l-6.72-3.99c-.18-.11-.24-.34-.13-.52,.11-.18,.34-.24,.52-.13l6.72,3.99c.18,.11,.24,.34,.13,.52-.07,.12-.2,.19-.33,.19Zm-13.44-7.98c-.07,0-.13-.02-.19-.05l-6.72-3.99c-.18-.11-.24-.34-.13-.52,.11-.18,.34-.24,.52-.13l6.72,3.99c.18,.11,.24,.34,.13,.52-.07,.12-.2,.19-.33,.19Zm-13.44-7.97c-.07,0-.13-.02-.19-.05l-6.72-3.99c-.18-.11-.24-.34-.13-.52,.11-.18,.34-.24,.52-.13l6.72,3.99c.18,.11,.24,.34,.13,.52-.07,.12-.2,.19-.33,.19Zm-13.44-7.98c-.07,0-.13-.02-.19-.05l-6.72-3.99c-.18-.11-.24-.34-.13-.52,.11-.18,.34-.24,.52-.13l6.72,3.99c.18,.11,.24,.34,.13,.52-.07,.12-.2,.19-.33,.19Zm-13.44-7.98c-.07,0-.13-.02-.19-.05l-6.72-3.99c-.18-.11-.24-.34-.13-.52,.11-.18,.34-.24,.52-.13l6.72,3.99c.18,.11,.24,.34,.13,.52-.07,.12-.2,.19-.33,.19Zm-13.44-7.98c-.07,0-.13-.02-.19-.05l-6.72-3.99c-.18-.11-.24-.34-.13-.52,.11-.18,.34-.24,.52-.13l6.72,3.99c.18,.11,.24,.34,.13,.52-.07,.12-.2,.19-.33,.19Z"/><path class="cls-40" d="M350.75,234.64c-.07,0-.13-.02-.19-.05l-3.26-1.93c-.18-.11-.24-.34-.13-.52,.11-.18,.34-.24,.52-.13l3.05,1.81,2.97-1.94c.17-.11,.41-.06,.52,.11,.11,.18,.06,.41-.11,.52l-3.17,2.07c-.06,.04-.13,.06-.21,.06Z"/><path class="cls-40" d="M360.65,228.2c-.12,0-.24-.06-.32-.17-.11-.18-.06-.41,.11-.52l6.72-4.38c.17-.11,.41-.06,.52,.11,.11,.18,.06,.41-.11,.52l-6.72,4.38c-.06,.04-.14,.06-.21,.06Zm13.44-8.76c-.12,0-.24-.06-.32-.17-.11-.18-.06-.41,.11-.52l6.72-4.38c.18-.11,.41-.06,.52,.11,.11,.18,.06,.41-.11,.52l-6.72,4.38c-.06,.04-.14,.06-.21,.06Zm13.44-8.76c-.12,0-.24-.06-.32-.17-.11-.18-.06-.41,.11-.52l6.72-4.38c.18-.11,.41-.06,.52,.11,.11,.18,.06,.41-.11,.52l-6.72,4.38c-.06,.04-.14,.06-.21,.06Zm13.44-8.76c-.12,0-.24-.06-.32-.17-.11-.18-.06-.41,.11-.52l6.72-4.38c.17-.11,.41-.06,.52,.11,.11,.18,.06,.41-.11,.52l-6.72,4.38c-.06,.04-.14,.06-.21,.06Zm13.44-8.76c-.12,0-.24-.06-.32-.17-.11-.18-.06-.41,.11-.52l6.72-4.38c.17-.11,.41-.06,.52,.11,.11,.18,.06,.41-.11,.52l-6.72,4.38c-.06,.04-.14,.06-.21,.06Zm13.44-8.76c-.12,0-.24-.06-.32-.17-.11-.18-.06-.41,.11-.52l6.72-4.38c.18-.11,.41-.06,.52,.11,.11,.18,.06,.41-.11,.52l-6.72,4.38c-.06,.04-.14,.06-.21,.06Zm13.44-8.76c-.12,0-.24-.06-.32-.17-.11-.18-.06-.41,.11-.52l6.72-4.38c.18-.11,.41-.06,.52,.11,.11,.18,.06,.41-.11,.52l-6.72,4.38c-.06,.04-.14,.06-.21,.06Z"/><path class="cls-40" d="M454.74,166.88c-.12,0-.24-.06-.32-.17-.11-.18-.06-.41,.11-.52l3.03-1.98,.63-3.57c.04-.21,.23-.34,.44-.31,.21,.04,.34,.23,.31,.44l-.65,3.73c-.02,.1-.08,.19-.17,.25l-3.17,2.07c-.06,.04-.14,.06-.21,.06Z"/><path class="cls-40" d="M57.99,119.35c-.14,0-.28-.08-.34-.22-.09-.19-.01-.41,.18-.51l6.87-3.29c.19-.09,.41-.01,.5,.18,.09,.19,.01,.41-.18,.5l-6.87,3.29c-.05,.03-.11,.04-.16,.04Zm13.75-6.59c-.14,0-.28-.08-.34-.22-.09-.19-.01-.41,.18-.51l6.87-3.29c.19-.09,.41-.01,.51,.18s.01,.41-.18,.51l-6.87,3.29c-.05,.03-.11,.04-.16,.04Zm13.75-6.59c-.14,0-.28-.08-.34-.22-.09-.19-.01-.41,.18-.51l6.87-3.29c.19-.09,.41-.01,.51,.18,.09,.19,.01,.41-.18,.5l-6.87,3.29c-.05,.03-.11,.04-.16,.04Zm13.75-6.59c-.14,0-.28-.08-.34-.22-.09-.19-.01-.41,.18-.5l6.87-3.29c.19-.09,.41-.01,.51,.18,.09,.19,.01,.41-.18,.51l-6.87,3.29c-.05,.03-.11,.04-.16,.04Zm13.75-6.59c-.14,0-.28-.08-.34-.22-.09-.19-.01-.41,.18-.51l6.87-3.29c.19-.09,.41-.01,.51,.18,.09,.19,.01,.41-.18,.5l-6.87,3.29c-.05,.03-.11,.04-.16,.04Zm13.75-6.59c-.14,0-.28-.08-.34-.22-.09-.19-.01-.41,.18-.5l6.87-3.29c.19-.09,.41-.01,.51,.18,.09,.19,.01,.41-.18,.51l-6.87,3.29c-.05,.03-.11,.04-.16,.04Zm13.75-6.59c-.14,0-.28-.08-.34-.22-.09-.19-.01-.41,.18-.51l4.55-2.18s.04-.02,.06-.02l2.47-.72c.2-.06,.41,.06,.47,.26,.06,.2-.06,.41-.26,.47l-2.44,.71-4.52,2.17c-.05,.03-.11,.04-.16,.04Zm14.34-5.04c-.16,0-.32-.11-.36-.27-.06-.2,.06-.41,.26-.47l7.32-2.14c.2-.06,.41,.06,.47,.26,.06,.2-.06,.41-.26,.47l-7.32,2.14s-.07,.02-.11,.02Zm14.63-4.27c-.16,0-.32-.11-.36-.27-.06-.2,.06-.41,.26-.47l7.32-2.14c.2-.06,.41,.06,.47,.26,.06,.2-.06,.41-.26,.47l-7.32,2.14s-.07,.02-.11,.02Zm232.37-2.95h-.03l-7.6-.6c-.21-.02-.36-.2-.35-.41,.02-.21,.2-.36,.41-.35l7.6,.6c.21,.02,.36,.2,.35,.41-.02,.2-.18,.35-.38,.35Zm-15.19-1.2h-.03l-7.6-.6c-.21-.02-.36-.2-.35-.41,.02-.21,.2-.36,.41-.35l7.6,.6c.21,.02,.36,.2,.35,.41-.02,.2-.18,.35-.38,.35Zm-202.55-.12c-.16,0-.32-.11-.36-.27-.06-.2,.06-.41,.26-.47l7.32-2.14c.2-.06,.41,.06,.47,.26,.06,.2-.06,.41-.26,.47l-7.32,2.14s-.07,.02-.11,.02Zm187.35-1.08h-.03l-7.6-.6c-.21-.02-.36-.2-.35-.41,.02-.21,.2-.36,.41-.35l7.6,.6c.21,.02,.36,.2,.35,.41-.02,.2-.18,.35-.38,.35Zm-15.19-1.3s-.03,0-.04,0l-7.57-.89c-.21-.02-.36-.21-.33-.42,.02-.21,.21-.36,.42-.33l7.57,.89c.21,.02,.36,.21,.33,.42-.02,.19-.19,.33-.38,.33Zm-15.14-1.78s-.03,0-.04,0l-7.57-.89c-.21-.02-.36-.21-.33-.42,.02-.21,.21-.36,.42-.33l7.57,.89c.21,.02,.36,.21,.33,.42-.02,.19-.19,.33-.38,.33Zm-142.4-.11c-.16,0-.31-.11-.36-.27-.06-.2,.06-.41,.26-.47l7.32-2.14c.2-.06,.41,.06,.47,.26,.06,.2-.06,.41-.26,.47l-7.32,2.14s-.07,.02-.11,.02Zm127.26-1.67s-.03,0-.04,0l-7.57-.89c-.21-.02-.36-.21-.33-.42,.02-.21,.21-.36,.42-.33l7.57,.89c.21,.02,.36,.21,.33,.42-.02,.19-.19,.33-.38,.33Zm-15.14-1.78s-.03,0-.04,0l-7.57-.89c-.21-.02-.36-.21-.33-.42,.02-.21,.21-.36,.42-.33l7.57,.89c.21,.02,.36,.21,.33,.42-.02,.19-.19,.33-.38,.33Zm-97.49-.82c-.16,0-.31-.11-.36-.27-.06-.2,.06-.41,.26-.47l7.32-2.14c.2-.06,.41,.06,.47,.26,.06,.2-.06,.41-.26,.47l-7.32,2.14s-.07,.02-.11,.02Zm82.36-.97s-.03,0-.04,0l-7.57-.89c-.21-.02-.36-.21-.33-.42,.02-.21,.21-.36,.42-.33l7.57,.89c.21,.02,.36,.21,.33,.42-.02,.19-.19,.33-.38,.33Zm-15.14-1.78s-.03,0-.04,0l-7.57-.89c-.21-.02-.36-.21-.33-.42,.02-.21,.21-.36,.42-.33l7.57,.89c.21,.02,.36,.21,.33,.42-.02,.19-.19,.33-.38,.33Zm-52.59-1.52c-.16,0-.32-.11-.36-.27-.06-.2,.06-.41,.26-.47l7.32-2.14c.2-.06,.41,.06,.47,.26,.06,.2-.06,.41-.26,.47l-7.32,2.14s-.07,.02-.11,.02Zm37.45-.26s-.03,0-.04,0l-7.57-.89c-.21-.02-.36-.21-.33-.42,.02-.21,.21-.36,.42-.33l7.57,.89c.21,.02,.36,.21,.33,.42-.02,.19-.19,.33-.38,.33Zm-15.14-1.78s-.03,0-.04,0l-7.57-.89c-.21-.02-.36-.21-.33-.42,.02-.21,.21-.36,.42-.33l7.57,.89c.21,.02,.36,.21,.33,.42-.02,.19-.19,.33-.38,.33Z"/></g><path class="cls-40" d="M54.51,125.73s-.05,0-.08,0l-3.7-.79c-.2-.04-.34-.24-.29-.45,.04-.2,.24-.34,.45-.29l3.7,.79c.2,.04,.34,.24,.29,.45-.04,.18-.19,.3-.37,.3Z"/><path class="cls-40" d="M218.86,160.62s-.05,0-.08,0l-7.47-1.59c-.2-.04-.34-.24-.29-.45,.04-.2,.24-.33,.45-.29l7.47,1.59c.2,.04,.34,.24,.29,.45-.04,.18-.19,.3-.37,.3Zm-14.94-3.17s-.05,0-.08,0l-7.47-1.59c-.2-.04-.34-.24-.29-.45,.04-.2,.24-.34,.45-.29l7.47,1.59c.2,.04,.34,.24,.29,.45-.04,.18-.19,.3-.37,.3Zm-14.94-3.17s-.05,0-.08,0l-7.47-1.59c-.2-.04-.34-.24-.29-.45,.04-.2,.24-.34,.45-.29l7.47,1.59c.2,.04,.34,.24,.29,.45-.04,.18-.19,.3-.37,.3Zm-14.94-3.17s-.05,0-.08,0l-7.47-1.59c-.2-.04-.34-.24-.29-.45,.04-.2,.24-.34,.45-.29l7.47,1.59c.2,.04,.34,.24,.29,.45-.04,.18-.19,.3-.37,.3Zm-14.94-3.17s-.05,0-.08,0l-7.47-1.59c-.2-.04-.34-.24-.29-.45,.04-.2,.24-.33,.45-.29l7.47,1.59c.2,.04,.34,.24,.29,.45-.04,.18-.19,.3-.37,.3Zm-14.94-3.17s-.05,0-.08,0l-7.47-1.59c-.2-.04-.34-.24-.29-.45,.04-.2,.24-.33,.45-.29l7.47,1.59c.2,.04,.34,.24,.29,.45-.04,.18-.19,.3-.37,.3Zm-14.94-3.17s-.05,0-.08,0l-7.47-1.59c-.2-.04-.34-.24-.29-.45,.04-.2,.24-.34,.45-.29l7.47,1.59c.2,.04,.34,.24,.29,.45-.04,.18-.19,.3-.37,.3Zm-14.94-3.17s-.05,0-.08,0l-7.47-1.59c-.2-.04-.34-.24-.29-.45,.04-.2,.24-.33,.45-.29l7.47,1.59c.2,.04,.34,.24,.29,.45-.04,.18-.19,.3-.37,.3Zm-14.94-3.17s-.05,0-.08,0l-7.47-1.59c-.2-.04-.34-.24-.29-.45,.04-.2,.24-.34,.45-.29l7.47,1.59c.2,.04,.34,.24,.29,.45-.04,.18-.19,.3-.37,.3Zm-14.94-3.17s-.05,0-.08,0l-7.47-1.59c-.2-.04-.34-.24-.29-.45,.04-.2,.24-.34,.45-.29l7.47,1.59c.2,.04,.34,.24,.29,.45-.04,.18-.19,.3-.37,.3Zm-14.94-3.17s-.05,0-.08,0l-7.47-1.59c-.2-.04-.34-.24-.29-.45,.04-.2,.24-.33,.45-.29l7.47,1.59c.2,.04,.34,.24,.29,.45-.04,.18-.2,.3-.37,.3Z"/><path class="cls-40" d="M230.03,162.99s-.05,0-.08,0l-3.7-.79c-.2-.04-.34-.24-.29-.45,.04-.2,.24-.34,.45-.29l3.3,.7,.38-3.35c.02-.21,.21-.36,.42-.33,.21,.02,.36,.21,.33,.42l-.42,3.76c-.01,.11-.07,.2-.15,.26-.06,.05-.14,.07-.22,.07Z"/><path class="cls-40" d="M229.89,164.15s-.03,0-.04,0c-.21,.03-.4-.11-.43-.32l-1.2-7.78c-.03-.21,.11-.4,.32-.43,.21-.03,.4,.11,.43,.32l1.2,7.78c.03,.19-.09,.37-.27,.42Zm-2.4-15.57s-.03,0-.04,0c-.21,.03-.4-.11-.43-.32l-1.2-7.78c-.03-.21,.11-.4,.32-.43,.21-.03,.4,.11,.43,.32l1.2,7.78c.03,.19-.09,.37-.27,.42Zm-2.4-15.57s-.03,0-.04,0c-.21,.03-.4-.11-.43-.32l-1.2-7.78c-.03-.21,.11-.4,.32-.43,.21-.03,.4,.11,.43,.32l1.2,7.78c.03,.19-.09,.37-.27,.42Zm-2.4-15.57s-.03,0-.04,0c-.21,.03-.4-.11-.43-.32l-1.2-7.78c-.03-.21,.11-.4,.32-.43,.21-.03,.4,.11,.43,.32l1.2,7.78c.03,.19-.09,.37-.27,.42Zm-2.4-15.57s-.03,0-.04,0c-.21,.03-.4-.11-.43-.32l-1.2-7.78c-.03-.21,.11-.4,.32-.43,.21-.03,.4,.11,.43,.32l1.2,7.78c.03,.19-.09,.37-.27,.42Zm-2.4-15.57s-.03,0-.04,0c-.21,.03-.4-.11-.43-.32l-1.2-7.78c-.03-.21,.11-.4,.32-.43,.21-.03,.4,.11,.43,.32l1.2,7.78c.03,.19-.09,.37-.27,.42Z"/><path class="cls-40" d="M241.91,57.48s-.03,0-.04,0c-.21-.02-.36-.21-.33-.42l.42-3.76c.02-.21,.21-.36,.42-.33,.21,.02,.36,.21,.33,.42l-.42,3.76c-.02,.19-.19,.34-.38,.34Z"/><g><path class="cls-40" d="M82.52,223.29h-.02l-3.78-.18c-.21,0-.37-.19-.36-.4,0-.21,.19-.37,.4-.36l3.78,.18c.21,0,.37,.19,.36,.4,0,.2-.18,.36-.38,.36Z"/><path class="cls-40" d="M314.55,234.11h-.02l-7.73-.36c-.21,0-.37-.19-.36-.4,0-.21,.19-.37,.4-.36l7.73,.36c.21,0,.37,.19,.36,.4,0,.2-.18,.36-.38,.36Zm-15.47-.72h-.02l-7.73-.36c-.21,0-.37-.19-.36-.4,0-.21,.19-.37,.4-.36l7.73,.36c.21,0,.37,.19,.36,.4,0,.2-.18,.36-.38,.36Zm-15.47-.72h-.02l-7.73-.36c-.21,0-.37-.19-.36-.4,0-.21,.19-.37,.4-.36l7.73,.36c.21,0,.37,.19,.36,.4,0,.2-.18,.36-.38,.36Zm-15.47-.72h-.02l-7.73-.36c-.21,0-.37-.19-.36-.4s.19-.37,.4-.36l7.73,.36c.21,0,.37,.19,.36,.4,0,.2-.18,.36-.38,.36Zm-15.47-.72h-.02l-7.73-.36c-.21,0-.37-.19-.36-.4,0-.21,.18-.37,.4-.36l7.73,.36c.21,0,.37,.19,.36,.4,0,.2-.18,.36-.38,.36Zm-15.47-.72h-.02l-7.73-.36c-.21,0-.37-.19-.36-.4,0-.21,.18-.37,.4-.36l7.73,.36c.21,0,.37,.19,.36,.4,0,.2-.18,.36-.38,.36Zm-15.47-.72h-.02l-7.73-.36c-.21,0-.37-.19-.36-.4,0-.21,.19-.37,.4-.36l7.73,.36c.21,0,.37,.19,.36,.4,0,.2-.18,.36-.38,.36Zm-15.47-.72h-.02l-7.73-.36c-.21,0-.37-.19-.36-.4,0-.21,.18-.37,.4-.36l7.73,.36c.21,0,.37,.19,.36,.4,0,.2-.18,.36-.38,.36Zm-15.47-.72h-.02l-7.73-.36c-.21,0-.37-.19-.36-.4,0-.21,.19-.37,.4-.36l7.73,.36c.21,0,.37,.19,.36,.4,0,.2-.18,.36-.38,.36Zm-15.47-.72h-.02l-7.73-.36c-.21,0-.37-.19-.36-.4,0-.21,.19-.37,.4-.36l7.73,.36c.21,0,.37,.19,.36,.4,0,.2-.18,.36-.38,.36Zm-15.47-.72h-.02l-7.73-.36c-.21,0-.37-.19-.36-.4,0-.21,.18-.37,.4-.36l7.73,.36c.21,0,.37,.19,.36,.4,0,.2-.18,.36-.38,.36Zm-15.47-.72h-.02l-7.73-.36c-.21,0-.37-.19-.36-.4,0-.21,.19-.37,.4-.36l7.73,.36c.21,0,.37,.19,.36,.4,0,.2-.18,.36-.38,.36Zm-15.47-.72h-.02l-7.73-.36c-.21,0-.37-.19-.36-.4,0-.21,.19-.37,.4-.36l7.73,.36c.21,0,.37,.19,.36,.4,0,.2-.18,.36-.38,.36Zm-15.47-.72h-.02l-7.73-.36c-.21,0-.37-.19-.36-.4,0-.21,.18-.37,.4-.36l7.73,.36c.21,0,.37,.19,.36,.4,0,.2-.18,.36-.38,.36Zm-15.47-.72h-.02l-7.73-.36c-.21,0-.37-.19-.36-.4,0-.21,.19-.37,.4-.36l7.73,.36c.21,0,.37,.19,.36,.4,0,.2-.18,.36-.38,.36Z"/><path class="cls-40" d="M326.07,234.64h-.02l-3.78-.18c-.21,0-.37-.19-.36-.4,0-.21,.19-.37,.4-.36l3.78,.18c.21,0,.37,.19,.36,.4,0,.2-.18,.36-.38,.36Z"/></g><g><path class="cls-40" d="M465.61,177.87c-.09,0-.18-.03-.25-.1l-2.83-2.52c-.16-.14-.17-.38-.03-.53,.14-.16,.38-.17,.53-.03l2.83,2.52c.16,.14,.17,.38,.03,.53-.07,.08-.18,.13-.28,.13Z"/><path class="cls-40" d="M457.14,170.33c-.09,0-.18-.03-.25-.1l-5.64-5.02c-.16-.14-.17-.38-.03-.53,.14-.16,.38-.17,.53-.03l5.64,5.02c.16,.14,.17,.38,.03,.53-.07,.08-.18,.13-.28,.13Zm-11.29-10.04c-.09,0-.18-.03-.25-.1l-5.64-5.02c-.16-.14-.17-.38-.03-.53,.14-.16,.38-.17,.53-.03l5.64,5.02c.16,.14,.17,.38,.03,.53-.07,.08-.18,.13-.28,.13Zm-11.29-10.04c-.09,0-.18-.03-.25-.1l-5.64-5.02c-.16-.14-.17-.38-.03-.53,.14-.16,.38-.17,.53-.03l5.64,5.02c.16,.14,.17,.38,.03,.53-.07,.08-.18,.13-.28,.13Zm-11.29-10.04c-.09,0-.18-.03-.25-.1l-5.64-5.02c-.16-.14-.17-.38-.03-.53,.14-.16,.38-.17,.53-.03l5.64,5.02c.16,.14,.17,.38,.03,.53-.07,.08-.18,.13-.28,.13Zm-11.29-10.04c-.09,0-.18-.03-.25-.1l-5.64-5.02c-.16-.14-.17-.38-.03-.53,.14-.16,.38-.17,.53-.03l5.64,5.02c.16,.14,.17,.38,.03,.53-.07,.08-.18,.13-.28,.13Zm-11.29-10.04c-.09,0-.18-.03-.25-.1l-5.64-5.02c-.16-.14-.17-.38-.03-.53,.14-.16,.38-.17,.53-.03l5.64,5.02c.16,.14,.17,.38,.03,.53-.07,.08-.18,.13-.28,.13Zm-11.29-10.04c-.09,0-.18-.03-.25-.1l-5.64-5.02c-.16-.14-.17-.38-.03-.53,.14-.16,.38-.17,.53-.03l5.64,5.02c.16,.14,.17,.38,.03,.53-.07,.08-.18,.13-.28,.13Zm-11.29-10.04c-.09,0-.18-.03-.25-.1l-5.64-5.02c-.16-.14-.17-.38-.03-.53,.14-.16,.38-.17,.53-.03l5.64,5.02c.16,.14,.17,.38,.03,.53-.07,.08-.18,.13-.28,.13Z"/><path class="cls-40" d="M366.84,89.99c-.09,0-.18-.03-.25-.1l-2.62-2.33-3,1.82c-.18,.11-.41,.05-.52-.13-.11-.18-.05-.41,.13-.52l3.24-1.96c.14-.09,.32-.07,.45,.04l2.83,2.52c.16,.14,.17,.38,.03,.53-.07,.08-.18,.13-.28,.13Z"/><path class="cls-40" d="M248.65,157.26c-.13,0-.25-.06-.32-.18-.11-.18-.05-.41,.13-.52l6.23-3.77c.18-.11,.41-.05,.52,.13,.11,.18,.05,.41-.13,.52l-6.23,3.77c-.06,.04-.13,.05-.2,.05Zm12.46-7.54c-.13,0-.25-.06-.32-.18-.11-.18-.05-.41,.13-.52l6.23-3.77c.18-.11,.41-.05,.52,.13,.11,.18,.05,.41-.13,.52l-6.23,3.77c-.06,.04-.13,.05-.2,.05Zm12.46-7.54c-.13,0-.25-.06-.32-.18-.11-.18-.05-.41,.13-.52l6.23-3.77c.18-.11,.41-.05,.52,.13,.11,.18,.05,.41-.13,.52l-6.23,3.77c-.06,.04-.13,.05-.2,.05Zm12.46-7.54c-.13,0-.25-.06-.32-.18-.11-.18-.05-.41,.13-.52l6.23-3.77c.18-.11,.41-.05,.52,.13,.11,.18,.05,.41-.13,.52l-6.23,3.77c-.06,.04-.13,.05-.2,.05Zm12.46-7.54c-.13,0-.25-.06-.32-.18-.11-.18-.05-.41,.13-.52l6.23-3.77c.18-.11,.41-.05,.52,.13,.11,.18,.05,.41-.13,.52l-6.23,3.77c-.06,.04-.13,.05-.2,.05Zm12.46-7.54c-.13,0-.25-.06-.32-.18-.11-.18-.05-.41,.13-.52l6.23-3.77c.18-.11,.41-.05,.52,.13,.11,.18,.05,.41-.13,.52l-6.23,3.77c-.06,.04-.13,.05-.2,.05Zm12.46-7.54c-.13,0-.25-.06-.32-.18-.11-.18-.05-.41,.13-.52l6.23-3.77c.18-.11,.41-.05,.52,.13,.11,.18,.05,.41-.13,.52l-6.23,3.77c-.06,.04-.13,.05-.2,.05Zm12.46-7.54c-.13,0-.25-.07-.32-.18-.11-.18-.05-.41,.13-.52l6.23-3.77c.18-.11,.41-.05,.52,.13,.11,.18,.05,.41-.13,.52l-6.23,3.77c-.06,.04-.13,.05-.2,.05Zm12.46-7.54c-.13,0-.25-.07-.32-.18-.11-.18-.05-.41,.13-.52l6.23-3.77c.18-.11,.41-.05,.52,.13,.11,.18,.05,.41-.13,.52l-6.23,3.77c-.06,.04-.13,.05-.2,.05Z"/><path class="cls-40" d="M239.18,162.99c-.13,0-.25-.06-.32-.18-.11-.18-.05-.41,.13-.52l3.24-1.96c.18-.11,.41-.05,.52,.13,.11,.18,.05,.41-.13,.52l-3.24,1.96c-.06,.04-.13,.05-.2,.05Z"/></g><g class="cls-33"><circle class="cls-14" cx="238.53" cy="162.99" r="37.82"/><g><path class="cls-43" d="M226.82,159.5c-.09-.28-2.44-13.77-2.73-19.02-.28-5.25,8.43-6,8.43-6,0,0,7.12-3.84,12.28-1.87,5.15,1.97,8.66,5.28,11,9.4,2.34,4.12-2.06,16.97-2.06,16.97l-26.93,.52Z"/><path class="cls-3" d="M210.67,202.86c-.03-.22,.6-5.53,.62-5.75,1.19-11.18,14.97-14.33,28.73-14.33,16.16,0,27.12,2.96,28.87,14.58,.05,.34,.98,5.66,.94,6.02-29.95,.41-59.16-.53-59.16-.53Z"/><path class="cls-15" d="M242.79,191.46c-1.6,2.36-2.78,2.46-4.51,0-1.38-1.96-6-6.42-6-8.68l1.89-22.5c0-2.26,1.85-4.1,4.1-4.1h4.51c2.26,0,4.1,1.85,4.1,4.1l.88,22.5c0,2.26-3.55,6.56-4.98,8.68Z"/><path class="cls-35" d="M242.79,156.18h-4.51c-2.26,0-4.1,1.85-4.1,4.1l-1.64,19.96c5.07,1.61,11.91-1.67,14.94-5.28l-.57-14.68c0-2.26-1.85-4.1-4.1-4.1Z"/><path class="cls-26" d="M225.05,184.42l7.24,13.37s3.87-3.19,4.25-2.56c.37,.62-.69,8.51-.69,8.51,0,0,8.62,.12,9-.26s-1.75-8.56-.87-8.56,3.51,2.37,3.51,2.37l8.08-12.87-1.78-.43-13.24,7.12-14.16-6.97-1.33,.28Z"/><polygon class="cls-39" points="233.32 190.59 238.69 194.19 237.03 203.76 244.28 203.36 242.47 194.65 246.92 190.59 244.83 188.61 235.41 188.61 233.32 190.59"/><path class="cls-3" d="M232.66,177.87l-6.65,6.32s6.77,12.04,7.15,12.04,5.75-6.64,5.75-6.64l3.44-.06,5.43,5.7,6.31-11.17-6.44-6.82s-5.5,10.62-6.5,10.87c-1,.25-1.01,.37-1.82-.25-.81-.62-6.68-10-6.68-10Z"/><ellipse class="cls-15" cx="240.53" cy="156.4" rx="13.64" ry="18.59"/><path class="cls-15" d="M228.29,156.12c1.28,2.69,.86,5.55-.93,6.4-1.79,.85-4.28-.64-5.55-3.32-1.28-2.69-.86-5.55,.93-6.4,1.79-.85,4.28,.64,5.55,3.32Z"/><path class="cls-15" d="M252.16,156.12c-1.28,2.69-.86,5.55,.93,6.4,1.79,.85,4.28-.64,5.55-3.32,1.28-2.69,.86-5.55-.93-6.4-1.79-.85-4.28,.64-5.55,3.32Z"/><path class="cls-3" d="M246.59,164.03s-2.71,4.39-6.05,4.39-6.05-4.39-6.05-4.39h12.1Z"/><path class="cls-43" d="M232.53,143.76c5.62-3.94,8.15-3.28,12.37,3.19,4.22,6.47,9.28,6.58,9.28,6.58l.66-6.7s-6.28-12.15-14.71-10.56c-8.43,1.59-13.23,9.18-13.23,9.18,0,0-.41,14.23,.77,14.71,1.18,.49,1.31-4.59,2.16-5.62,.84-1.03-.84-5.9,.28-8.15,1.12-2.25,2.44-2.62,2.44-2.62Z"/><path class="cls-43" d="M250.62,151.07c1.96,2.15,1.22,10.68,2.25,10.59,1.03-.09,1.41-8.15,1.12-9-.28-.84-3.37-1.59-3.37-1.59Z"/></g></g><path class="cls-31" d="M238.53,201.8c-21.4,0-38.81-17.41-38.81-38.81s17.41-38.81,38.81-38.81,38.81,17.41,38.81,38.81-17.41,38.81-38.81,38.81Zm0-75.65c-20.31,0-36.84,16.52-36.84,36.84s16.52,36.84,36.84,36.84,36.84-16.52,36.84-36.84-16.52-36.84-36.84-36.84Z"/><g><circle class="cls-45" cx="208.97" cy="174.52" r="18.43" transform="translate(-34.51 52.68) rotate(-13.28)"/><path class="cls-3" d="M208.56,162.38c2.39-.33,4.45,5.6,4.28,7.5-.16,1.9,4.45-.25,6.67,1.4,2.22,1.65,1.57,10.22,0,10.8-1.57,.58-7.88,.66-9.91-.41-2.03-1.07-3.41-.87-3.41-.87l-1.05-8.97s1.27-.38,2.67-1.62c1.4-1.24,.74-7.83,.74-7.83Zm-10.63,21.01c.58,.49,7.09,2.06,7.42-1.24,.33-3.3-1.32-10.3-1.32-10.3,0,0-4.53-.23-6.1,.57-.6,.31-.58,10.47,0,10.96Z"/></g><g id="freepik--Desk--inject-237"><rect class="cls-13" x="194.88" y="347.55" width="6.82" height="109.24"/><path class="cls-46" d="M201.7,456.79v-8.56c0-5.51-.05-13.45-.08-23.29,0-19.67-.06-46.94-.11-77.39l.26,.26h-6.82l.26-.26c0,50.81-.07,93.98-.18,109.24l-.08-.09,5.1,.05h-5.18v-.09c-.1-15.26-.17-58.44-.17-109.24v-.26h7.34v.26c0,30.52-.08,57.86-.11,77.59,0,9.82-.06,17.74-.07,23.22v7.89c-.14,.48-.16,.66-.16,.66Z"/><rect class="cls-13" x="299.82" y="347.64" width="6.82" height="109.24"/><path class="cls-46" d="M306.64,456.92v-8.56c0-5.5-.05-13.45-.08-23.28,0-19.68-.07-46.95-.11-77.4l.26,.26h-6.82l.26-.26c0,50.81-.08,93.98-.18,109.24l-.08-.08,5.1,.05h.04l-5.14,.05h-.09v-.02c-.1-15.26-.17-58.39-.17-109.24v-.26h7.34v.26c0,30.52-.08,57.86-.11,77.59,0,9.82-.06,17.74-.08,23.22v7.89c0,.38-.14,.53-.14,.53Z"/><rect class="cls-9" x="156.98" y="342.76" width="184.38" height="6.65"/></g><g><g class="cls-19"><circle class="cls-14" cx="371.55" cy="66.66" r="29.64" transform="translate(150.52 372.66) rotate(-64.33)"/><g><path class="cls-27" d="M356.12,62.27c0,8.14,4.9,21.28,16.47,20.86,11.57-.42,14.12-12.95,14.57-16.48,.45-3.53-31.04-4.38-31.04-4.38Z"/><path class="cls-39" d="M351.3,93.97c3.82-8.22,10.28-10.85,20.9-10.85,12.64,0,19.2,4.58,21.06,11.24-7.44,.1-14.52,7.5-20.67,7.44-12.58-.12-21.29-7.84-21.29-7.84Z"/><path class="cls-15" d="M374.3,89.68c-1.21,1.79-2.1,1.86-3.41,0-1.04-1.48-3.1-4.84-3.1-6.54v-17.02c0-1.71,1.39-3.1,3.1-3.1h3.41c1.71,0,3.1,1.4,3.1,3.1v17.02c0,1.71-2.02,4.94-3.1,6.54Z"/><path class="cls-35" d="M374.3,63.02h-3.41c-1.71,0-3.1,1.4-3.1,3.1v15.18c3.83,1.22,7.32-1.2,9.61-3.93v-11.25c0-1.71-1.4-3.1-3.1-3.1Z"/><path class="cls-15" d="M382.9,63.19c0,7.76-4.62,14.05-10.31,14.05s-10.31-6.29-10.31-14.05,4.62-14.05,10.31-14.05,10.31,6.29,10.31,14.05Z"/><path class="cls-27" d="M378.26,52.52c-1.22,4.32-3.91,4.27-7.65,5.69-3.74,1.42-5.53,2.85-6.76,5.61-1.56,3.52,.71,13.8,.71,13.8,0,0-9.48-7.09-8.38-18.25,1.1-11.15,7.67-15.47,13.86-15.47s8.54,3.77,8.54,3.77c0,0,3.3,.01,6.42,3.71,4.19,4.96,2.9,17.02,0,21.34-2.9,4.32-4.84,5.67-4.77,5.48,.06-.19,2.71-10.11,1.29-16.25-1.42-6.13-3.26-9.43-3.26-9.43Z"/><path class="cls-3" d="M376.47,70.81s-1.74,2.25-3.88,2.25-3.88-2.25-3.88-2.25h7.75Z"/></g></g><path class="cls-31" d="M371.55,97.02c-16.74,0-30.36-13.62-30.36-30.36s13.62-30.36,30.36-30.36,30.36,13.62,30.36,30.36-13.62,30.36-30.36,30.36Zm0-59.27c-15.94,0-28.91,12.97-28.91,28.91s12.97,28.91,28.91,28.91,28.91-12.97,28.91-28.91-12.97-28.91-28.91-28.91Z"/></g><path class="cls-31" d="M449.63,219.93c-4.67,0-9.21-.92-13.48-2.72-4.12-1.74-7.83-4.24-11.01-7.42-3.18-3.18-5.68-6.88-7.42-11.01-1.81-4.27-2.72-8.81-2.72-13.48s.92-9.21,2.72-13.48c1.74-4.12,4.24-7.83,7.42-11.01,3.18-3.18,6.88-5.68,11.01-7.42,4.27-1.81,8.81-2.72,13.48-2.72s9.21,.92,13.48,2.72c4.12,1.74,7.83,4.24,11.01,7.42,3.18,3.18,5.68,6.88,7.42,11.01,1.81,4.27,2.72,8.81,2.72,13.48s-.92,9.21-2.72,13.48c-1.74,4.12-4.24,7.83-7.42,11.01-3.18,3.18-6.88,5.68-11.01,7.42-4.27,1.81-8.81,2.72-13.48,2.72Zm0-68.48c-18.67,0-33.85,15.19-33.85,33.85s15.19,33.85,33.85,33.85,33.85-15.19,33.85-33.85-15.19-33.85-33.85-33.85Z"/><g><g class="cls-10"><circle class="cls-21" cx="200.86" cy="50.9" r="42" transform="translate(86.34 223.59) rotate(-70.67)"/><g><path class="cls-44" d="M194.24,30.89c-3.2,6.4-.55,13.77,5.74,16.38,6.34,2.62,13.27,1.13,16.47-5.27,3.2-6.4,.82-14.08-5.31-17.14-6.13-3.07-13.7-.36-16.9,6.04Z"/><path class="cls-44" d="M211.49,48.11c-.32,0-.5-.05-.53-.06-.22-.06-.34-.29-.28-.5,.06-.22,.29-.34,.5-.28,0,0,1.48,.35,3.69-1.61,2.49-2.21,4.23-7.23,1.65-14.69-.07-.21,.04-.44,.25-.52,.21-.07,.44,.04,.52,.25,3.41,9.87-.58,14.41-1.88,15.57-1.79,1.59-3.2,1.84-3.93,1.84Z"/><g><path class="cls-30" d="M201.71,55.79c-3.64,.82-8.24,10.94-10.49,17.42-2.27,6.54-6.12,14.66-8.64,17.18-2.52,2.52-19.09,8.37-19.09,8.37,0,0,40.93,.08,40.1,0-.84-.08-1.87-42.97-1.87-42.97Z"/><path class="cls-8" d="M179.98,95.51c2.24-.32,10.33,.72,6.88-.72s-2.96-3.28-2.96-3.28c0,0,4.88,4.08,5.76,.51,.76-3.08,1.05-13.94,3.93-24.84,2.38-5.4,5.5-10.8,8.12-11.39,0,0,.09,3.83,.24,9.21-1.01,11.9-2.71,29.38-3.14,33.79-5.43,0-14.51,0-22.1,0l-5.05-.24s6.08-2.71,8.32-3.03Z"/><path class="cls-30" d="M215.1,53.55s11.59,6.47,14.29,7.85-7.57,41.79-9.85,43.53c-2.28,1.73-22.39,.3-24.68-1.88-2.29-2.18,1.76-8.88-.22-22.29-1.98-13.41,6.04-24.99,7.07-24.96,1.03,.03,7.76-2.24,7.76-2.24h5.64Z"/><path class="cls-8" d="M219.54,104.93c-2.28,1.73-16.67,1.77-22.8-.13-.69-.22-3.83-1.47-3.9-2.64,.74-.14,3.67,.21,4.86-.06,4.14-.95,6.42-6.08,6.42-6.08,0,0,2.28-.82,7.38-2.98,5.1-2.16,3-8.7,3.12-11.59,.12-2.88,5.04-12.31,14.29-19.45l.85,.38c.66,6.57-8.12,40.95-10.23,42.56Z"/><path class="cls-15" d="M207.99,94.87c-7.28,1.36-9.07,3.03-13.05,3.67-4.5,.73-3.97,1.72-.62,1.72s11.74,.13,14.63-.51c2.88-.64-.96-4.88-.96-4.88Z"/><path class="cls-30" d="M230.3,62.16c5.58,17.85,13.5,38.1,12.24,38.1s-33.31,1.3-34.58,.22c-1.26-1.08-.9-5.22-.72-5.76,.18-.54,18.22-3.74,18.22-3.74,0,0-2.38-4.63-3.28-13.68-.9-9.05,7.05-18.52,8.11-15.13Z"/></g><path class="cls-15" d="M210.86,38.04l4.5,16.43s-7.6,11.86-9.69,10.81c-2.09-1.05,1.17-9.64,1.17-10.81s-3.26-13.21-3.26-13.21l7.28-3.23Z"/><path class="cls-35" d="M206.68,55.31c.1-.39,.16-.68,.16-.84,0-1.17-3.26-13.21-3.26-13.21l7.28-3.23,1.49,5.44c-1.3,5.62-3.64,9.36-5.67,11.83Z"/><path class="cls-15" d="M194.03,37.77c-.86,4.77-.29,11.09,3.94,12.7s9.33-1.47,11.38-6.88c2.06-5.41,.29-11.09-3.94-12.7-4.23-1.61-10.36,1.18-11.38,6.88Z"/><path class="cls-15" d="M208.35,40.45c-.59,1.67-.08,3.37,1.15,3.81,1.23,.44,2.71-.56,3.3-2.22,.59-1.67,.08-3.37-1.15-3.81-1.23-.44-2.71,.56-3.3,2.22Z"/><path class="cls-44" d="M193.98,31.78c1.44,11.18,15.03,9.74,15.03,9.74,0,0,2.8-3.68,4.06-1.75,1.26,1.93-1.75-11.34-9.54-11.75-2.56-.14-9.54,3.77-9.54,3.77Z"/><ellipse class="cls-44" cx="215.15" cy="27.05" rx="7.36" ry="6.9"/></g></g><path class="cls-31" d="M200.86,93.57c-11.4,0-22.11-4.44-30.17-12.5-8.06-8.06-12.5-18.77-12.5-30.17s4.44-22.11,12.5-30.17c8.06-8.06,18.77-12.5,30.17-12.5s22.11,4.44,30.17,12.5c8.06,8.06,12.5,18.77,12.5,30.17s-4.44,22.11-12.5,30.17c-8.06,8.06-18.77,12.5-30.17,12.5Zm0-84c-22.79,0-41.33,18.54-41.33,41.33s18.54,41.33,41.33,41.33,41.33-18.54,41.33-41.33-18.54-41.33-41.33-41.33Z"/><g><circle class="cls-45" cx="168.27" cy="26.7" r="11.42"/><path class="cls-3" d="M168.01,19.17c1.48-.2,2.76,3.47,2.66,4.65-.1,1.17,2.76-.15,4.14,.87,1.38,1.02,.97,6.33,0,6.69-.97,.36-4.89,.41-6.15-.26-1.26-.66-2.11-.54-2.11-.54l-.65-5.56s.79-.24,1.65-1c.87-.77,.46-4.85,.46-4.85Zm-6.59,13.03c.36,.31,4.39,1.28,4.6-.77,.2-2.04-.82-6.38-.82-6.38,0,0-2.81-.14-3.78,.36-.37,.19-.36,6.49,0,6.8Z"/></g></g><g class="cls-38"><circle class="cls-21" cx="449.63" cy="185.3" r="34.24" transform="translate(-36.69 186.17) rotate(-22.5)"/><g><path class="cls-1" d="M443.97,186.72s-1.2,1.12-2.7,.39c-1.5-.72-6.97-4.59-6.8-5.53s2.72-1.17,2.72-1.17c0,0,7.92,6.26,6.78,6.31Z"/><path class="cls-16" d="M442.53,186.57c1.03-.16-2.35-2.85-3.45-3.96-1.1-1.11-1.82-1.63-1.82-1.63,0,0-1.89,.23-1.89,.6s5.41,4.69,5.41,4.69c0,0,1.28,.38,1.75,.3Z"/><path class="cls-15" d="M449.15,191.4s-1.97-3.33-2.91-4.22c-.94-.89-4.13-2.61-4.61-2.62-.83-.02,2.84,2.45,2.84,2.45,0,0-.5,3.22-.06,4.39,.44,1.17,5.11,2.72,5.11,2.72l-.36-2.72Z"/><path class="cls-32" d="M452.82,194.9s-3.22-4.83-3.94-4.5c-.72,.33-2.66,4.5-2.66,4.5,0,0,5.66,5.88,5.66,4.77s.94-4.77,.94-4.77Z"/><path class="cls-15" d="M461.72,169.03s3.33,11.77,5.55,16.65c2.22,4.88,3.33,13.99,2.89,29.97-.44,15.99,2.66,15.54-2,17.54-4.66,2-21.31-1.33-23.53-6.44-2.22-5.11,1.49-25.9,6.99-33.53,5.44-7.53,7.88-10.21,7.88-11.99s-2.15-9.33-2.15-9.33l4.37-2.89Z"/><path class="cls-11" d="M444.62,226.76c-2.22-5.11,1.49-25.9,6.99-33.53,2.53-3.51,4.41-5.96,5.7-7.76,2.64-1.57,5.55-3.04,8.34-3.89,.56,1.57,1.11,3.01,1.61,4.11,2.22,4.88,3.33,13.99,2.89,29.97-.44,15.99,2.66,15.54-2,17.54-4.66,2-21.31-1.33-23.53-6.44Z"/><path class="cls-11" d="M467.64,179.47c-.06-.91-11.92,3.77-11.99,4.66-.07,.89-.77,4.2-1.76,5.99-.98,1.78,16.51,11.76,15.87,6.9-.64-4.85-1.97-15.11-2.12-17.55Z"/><path class="cls-35" d="M459.49,181.44c0-.07,.01-.13,.01-.2,0-1.78-2.15-9.33-2.15-9.33l4.37-2.89s.77,2.73,1.82,6.11c-1.36,4.05-2.63,5.44-4.05,6.3Z"/><path class="cls-15" d="M449.47,174.8c.92,4.18,3.81,7.16,7.15,6.34,2.45-.6,6.22-4.03,5.01-9.03-1.01-4.17-4.39-6.98-7.75-6.23-3.36,.74-5.33,4.73-4.41,8.92Z"/><path class="cls-15" d="M445.67,202.04c-3.03-5.24-3.37-10.13-5.52-11.65-3.02-2.15-5.5-6.95-4.41-7.14,1.09-.19,5.52,3.87,5.52,3.87,0,0-1.15-1.58-.88-1.71,.28-.13,2.51,1.49,2.85,3.4,.35,1.91,4.63,10.71,8.23,13.52,3.6,2.82-2.77,4.95-5.8-.29Z"/><path class="cls-32" d="M465.31,188.85c5.37,1.34,2.91,17.56-1.61,27.18-4.53,9.62-13.04,1.31-16.22-1.05-1.21-.89-2-1.8-2.53-2.58,1.02-5.74,2.77-11.9,4.94-16.23,5.07,5.95,7.48-9.29,15.43-7.32Z"/><path class="cls-11" d="M463.7,187.68c6.76,.68,3.06,17.54-1.88,24.35-4.94,6.81-11.97,.22-14.19-3.7-2.22-3.92-6.72-10.59-6.72-14.93,0-.81,1.67-.98,3.66-.83,1.88,.14,10.38,11.84,10.38,11.84,0,0,2.84-17.32,8.74-16.73Z"/><path class="cls-41" d="M447.4,166.07c-4.13,1.74-1.66,7.24,.52,7.45,2.18,.21,4.7-3.81,5.99-3.95,1.29-.14-.26,2.25,.89,2.79,1.15,.54,2.23,1.45,2.56,2.88,.34,1.43,1.26,4.54-.25,4.68-1.5,.14-3.14-1.5-4.16-1.57-1.02-.07-1.91,.23-1.91,.23,0,0,2.59,3.58,4.5,3.79s3.98-2.58,5.46-4.93c1.48-2.35,.85-3.92,.85-3.92,0,0,1.51,1.7,2.47,1.57,.95-.14-1.43-1.5-1.5-5.51-.07-4.02-1.84-6.13-4.02-6.13s-1.91-1.11-5.23-1.02c-3,.08-5.21,3.24-6.18,3.65Z"/><path class="cls-15" d="M456.49,174.28c-.1,1.04,.44,1.93,1.19,2,.75,.07,1.44-.71,1.54-1.75,.1-1.04-.44-1.93-1.19-2-.75-.07-1.44,.71-1.54,1.75Z"/></g></g><g><g class="cls-20"><circle class="cls-21" cx="32.62" cy="124.23" r="32.21"/><g><g><path class="cls-1" d="M48.28,121.63s1.01,.94,2.27,.33c1.26-.61,5.87-3.86,5.73-4.66-.14-.79-2.29-.98-2.29-.98,0,0-6.67,5.27-5.71,5.31Z"/><path class="cls-16" d="M49.49,121.51c-.86-.14,1.98-2.4,2.91-3.33,.93-.93,1.53-1.37,1.53-1.37,0,0,1.59,.19,1.59,.5s-4.56,3.95-4.56,3.95c0,0-1.08,.32-1.47,.26Z"/><path class="cls-15" d="M43.91,125.58s1.66-2.8,2.45-3.55c.79-.75,3.48-2.2,3.88-2.21,.7-.02-2.39,2.07-2.39,2.07,0,0,.42,2.71,.05,3.69-.37,.98-4.3,2.29-4.3,2.29l.3-2.29Z"/><path class="cls-24" d="M40.83,128.52s2.71-4.07,3.32-3.79c.61,.28,2.24,3.79,2.24,3.79,0,0-4.77,4.95-4.77,4.02s-.79-4.02-.79-4.02Z"/><path class="cls-15" d="M33.33,106.74s-2.8,9.91-4.67,14.02c-1.87,4.11-2.8,11.78-2.43,25.24,.37,13.46-2.24,13.09,1.68,14.77,3.93,1.68,17.95-1.12,19.82-5.42,1.87-4.3-1.25-21.81-5.89-28.23-4.58-6.34-6.64-8.6-6.64-10.1s1.81-7.85,1.81-7.85l-3.68-2.43Z"/><path class="cls-28" d="M47.73,155.36c1.87-4.3-1.25-21.81-5.89-28.23-2.13-2.95-3.72-5.02-4.8-6.54-2.22-1.33-4.67-2.56-7.02-3.28-.47,1.33-.94,2.54-1.35,3.46-1.87,4.11-2.8,11.78-2.43,25.24,.37,13.46-2.24,13.09,1.68,14.77,3.93,1.68,17.95-1.12,19.82-5.42Z"/><path class="cls-18" d="M28.35,115.53c.05-.77,10.03,3.18,10.1,3.93s.65,3.54,1.48,5.04c.83,1.5-13.91,9.9-13.36,5.81,.54-4.09,1.66-12.72,1.79-14.78Z"/><path class="cls-35" d="M35.21,117.19c0-.06,0-.11,0-.17,0-1.5,1.81-7.85,1.81-7.85l-3.68-2.43s-.65,2.3-1.54,5.14c1.14,3.41,2.21,4.58,3.41,5.31Z"/><path class="cls-15" d="M42.59,111.58c-.68,3.08-2.81,5.27-5.27,4.67-1.8-.44-4.58-2.96-3.69-6.64,.74-3.07,3.23-5.14,5.71-4.59,2.47,.55,3.93,3.48,3.25,6.57Z"/><path class="cls-15" d="M46.84,134.53c2.55-4.41,2.84-8.53,4.65-9.81,2.54-1.81,4.63-5.86,3.71-6.01-.92-.16-4.65,3.26-4.65,3.26,0,0,.97-1.33,.74-1.44-.23-.11-2.11,1.25-2.4,2.86-.29,1.61-3.9,9.02-6.93,11.39-3.03,2.37,2.33,4.16,4.88-.24Z"/><path class="cls-2" d="M30.3,123.42c-4.52,1.13-2.45,14.79,1.36,22.89,3.81,8.1,10.98,1.1,13.66-.88,1.02-.75,1.69-1.52,2.13-2.18-.86-4.83-2.34-10.02-4.16-13.67-4.27,5.01-6.3-7.83-12.99-6.16Z"/><path class="cls-6" d="M31.66,122.44c-5.69,.57-2.57,14.77,1.59,20.51,4.16,5.73,10.08,.19,11.95-3.12,1.87-3.3,5.66-8.92,5.66-12.57,0-.69-1.4-.83-3.09-.7-1.58,.12-8.74,9.97-8.74,9.97,0,0-2.39-14.58-7.36-14.09Z"/></g><path class="cls-41" d="M40.33,102.01c5.94,.41,5.18,9.61,5.18,9.61,0,0-4.9,.14-6.36-.28-1.46-.42-2.95-1.57-2.95-1.57,0,0-.9,3.49-3.35,3.68l-2.45,.19s-1.62-6.62-.34-9.6c2.65-6.19,7.96-3.09,10.27-2.03Z"/><path class="cls-15" d="M33.85,110.93c.35,.9,1.18,1.43,1.86,1.16,.67-.26,.94-1.21,.58-2.11s-1.18-1.43-1.86-1.16c-.67,.26-.94,1.21-.58,2.11Z"/><path class="cls-41" d="M30.91,109.87c0-.19-.26-.25-.34-.07-.54,1.25-1.66,3.42-3.06,3.57-1.98,.22-16.08,1.37-11.39,12.25,2.97,6.88,5.11,9.62,2.2,12.17-2.68,2.34-6.22,.14-7.1-.45-.11-.07-.25,0-.27,.12-.25,1.52-1.07,8.77,5.96,8.67,7.85-.12,11.6-7.21,8.4-13.72-3.2-6.51,3.14-8.18,3.4-11.83,.25-3.52,.06-5.3,.01-5.69,0-.05,.01-.11,.05-.15l2.1-2.16s.05-.08,.05-.12v-2.58Z"/><path class="cls-41" d="M15.38,138.53c-1.6,0-4.11-.65-4.22-.68-.13-.03-.2-.16-.18-.28,.02-.13,.14-.22,.27-.21,.03,0,3.41,.29,4.73-.75,1.67-1.31,.74-3.46-.81-7.02-.65-1.5-1.39-3.21-2.07-5.18-1.29-3.73,.1-6.3,1.48-7.8,2.91-3.14,8.57-4.49,13.47-3.21,.13,.03,.21,.17,.18,.3-.03,.13-.17,.21-.3,.18-.11-.03-.23-.06-.34-.09-6.23,.1-10.25,1.55-11.95,4.3-1.49,2.4-1.18,5.83,.91,10.18,2.04,4.25,2.59,7.23,1.63,8.88-.48,.82-1.33,1.29-2.46,1.36-.1,0-.21,0-.32,0Zm-1.83-.68c.75,.13,1.54,.22,2.12,.18,.98-.07,1.67-.44,2.07-1.12,.6-1.03,.8-3.32-1.64-8.41-2.17-4.51-2.46-8.1-.88-10.66,1.53-2.48,4.8-3.96,9.73-4.4-3.88-.18-7.78,1.12-10,3.52-1.85,2-2.33,4.52-1.38,7.3,.67,1.95,1.41,3.65,2.05,5.14,1.58,3.65,2.63,6.06,.66,7.61-.67,.53-1.74,.75-2.73,.84Z"/></g></g><path class="cls-31" d="M32.62,156.85c-8.71,0-16.91-3.39-23.07-9.56-6.16-6.16-9.56-14.35-9.56-23.07s3.39-16.91,9.56-23.07,14.35-9.56,23.07-9.56,16.91,3.39,23.07,9.56c6.16,6.16,9.56,14.35,9.56,23.07s-3.39,16.91-9.56,23.07-14.35,9.56-23.07,9.56Zm0-64.43c-17.54,0-31.81,14.27-31.81,31.81s14.27,31.81,31.81,31.81,31.81-14.27,31.81-31.81-14.27-31.81-31.81-31.81Z"/><g><circle class="cls-45" cx="64.67" cy="132.61" r="7.62" transform="translate(-80.96 156.25) rotate(-73.22)"/><path class="cls-3" d="M64.5,127.59c.99-.14,1.84,2.32,1.77,3.1-.07,.78,1.84-.1,2.76,.58s.65,4.23,0,4.46c-.65,.24-3.26,.27-4.1-.17-.84-.44-1.41-.36-1.41-.36l-.43-3.71s.52-.16,1.1-.67c.58-.51,.31-3.24,.31-3.24Zm-4.4,8.69c.24,.2,2.93,.85,3.07-.51,.14-1.36-.55-4.26-.55-4.26,0,0-1.87-.09-2.52,.24-.25,.13-.24,4.33,0,4.53Z"/></g></g><g><circle class="cls-5" cx="55.69" cy="85.71" r="15.45" transform="translate(-40.92 119.1) rotate(-76.05)"/><path class="cls-3" d="M55.54,80.28s-5.39-4.76-9.21-.19c-5.24,6.27,9.21,14.25,9.21,14.25,0,0,14.71-8.24,9.56-14.58-3.89-4.8-9.56,.51-9.56,.51Z"/></g><g><circle class="cls-31" cx="424.48" cy="167.18" r="6.08"/><circle class="cls-31" cx="424.48" cy="194.56" r="6.08"/><circle class="cls-31" cx="401.67" cy="181.34" r="6.08"/><path class="cls-31" d="M424.48,195.78c-.21,0-.42-.05-.61-.16l-22.82-13.22c-.37-.21-.6-.61-.61-1.03,0-.43,.21-.83,.58-1.05l22.82-14.15c.57-.35,1.32-.18,1.68,.39,.35,.57,.18,1.32-.39,1.68l-21.09,13.08,21.06,12.21c.58,.34,.78,1.08,.44,1.66-.23,.39-.63,.61-1.05,.61Z"/></g><g><path class="cls-7" d="M352.43,25.99h-48.91c-1.56,0-2.82-1.28-2.8-2.84l.26-20.32c.02-1.56,1.31-2.84,2.87-2.84h48.91c1.56,0,2.82,1.28,2.8,2.84l-.26,20.32c-.02,1.56-1.31,2.84-2.87,2.84Z"/><path class="cls-3" d="M350.02,23.86h-44.05c-1.35,0-2.44-1.11-2.42-2.46l.21-16.83c.02-1.35,1.14-2.46,2.49-2.46h44.05c1.35,0,2.44,1.11,2.42,2.46l-.21,16.83c-.02,1.35-1.14,2.46-2.49,2.46Z"/><path class="cls-7" d="M329.18,24.81c.02,10.71,5.02,14.02,5.02,14.02,0,0-2.13-6.14-.36-9.14,1.77-2.99,4.62-4.25,4.62-4.25l-9.29-.63Z"/><path class="cls-7" d="M333.03,9.53h-23.96c-.43,0-.78-.35-.77-.78v-.17c0-.43,.36-.78,.79-.78h23.96c.43,0,.78,.35,.77,.78v.17c0,.43-.36,.78-.79,.78Z"/><path class="cls-7" d="M332.99,13.15h-23.96c-.43,0-.78-.35-.77-.78v-.17c0-.43,.36-.78,.79-.78h23.96c.43,0,.78,.35,.77,.78v.17c0,.43-.36,.78-.79,.78Z"/><path class="cls-7" d="M332.93,17.25h-23.96c-.43,0-.78-.35-.77-.78v-.17c0-.43,.36-.78,.79-.78h23.96c.43,0,.78,.35,.77,.78v.17c0,.43-.36,.78-.79,.78Z"/><path class="cls-7" d="M344.56,18.67h-3.47c-1.56,0-2.82-1.28-2.8-2.84l.09-7.09c.02-1.56,1.31-2.84,2.87-2.84h3.47c1.56,0,2.82,1.28,2.8,2.84l-.09,7.09c-.02,1.56-1.31,2.84-2.87,2.84Z"/></g><g id="freepik--character-3--inject-237"><rect class="cls-46" x="105.91" y="394.52" width="4.07" height="62.36"/><rect class="cls-46" x="156.87" y="394.52" width="4.07" height="62.36"/><rect class="cls-9" x="104.21" y="387.69" width="59.48" height="7.85"/><rect class="cls-9" x="95.97" y="321.29" width="9.06" height="74.07" transform="translate(-89.34 38.24) rotate(-15)"/><path class="cls-37" d="M172.05,418.22l-16.39,18.57,22.95,20.5c1.82-2.32-6.12-17.31-6.12-17.31l10.98-11.45-11.43-10.31Z"/><path class="cls-46" d="M166.31,432.59c-.58-.27-1.28-.06-1.61,.49-.29,.57-.08,1.27,.47,1.59,.62,.28,1.35,.06,1.7-.52,.24-.63-.06-1.34-.67-1.61"/><path class="cls-46" d="M155.73,436.67l1.64-1.88,21.31,20.56s.61,1.37-.14,2.01l-22.81-20.69Z"/><path class="cls-46" d="M172.98,440.14c-.11,.11-.71-.34-1.59-.47s-1.58,.08-1.65-.06,.68-.63,1.74-.45,1.61,.91,1.5,.99Z"/><path class="cls-46" d="M174.49,443.29c-.07,.13-.72-.12-1.53,0s-1.36,.53-1.47,.43,.39-.81,1.39-1.01,1.71,.46,1.61,.57Z"/><path class="cls-46" d="M173.28,447.39c-.12-.07,.22-.77,1.06-1.12s1.58-.14,1.55,0-.65,.17-1.34,.47-1.14,.73-1.27,.64Z"/><path class="cls-46" d="M175.19,437.25c-.14,.06-.52-.55-1.19-1.07s-1.35-.77-1.32-.92,.86-.12,1.64,.5,1.05,1.45,.87,1.48Z"/><path class="cls-46" d="M177.08,434.04c0,.05-.54-.27-1.15-1.01-.34-.44-.63-.93-.87-1.44-.14-.31-.25-.62-.35-.95-.06-.19-.1-.39-.1-.58,0-.29,.19-.56,.47-.63,.26-.06,.52,.01,.72,.18,.15,.13,.27,.28,.37,.44,.19,.28,.36,.58,.5,.89,.23,.52,.38,1.07,.43,1.64,.1,.52,.05,1.05-.15,1.54-.09,0,0-.59-.21-1.49-.11-.52-.28-1.02-.51-1.49-.14-.28-.3-.54-.47-.8-.19-.28-.39-.46-.55-.41s-.07,0-.09,.15c.01,.14,.04,.29,.08,.42,.22,.82,.56,1.6,1.01,2.32,.31,.39,.6,.8,.87,1.22Z"/><path class="cls-46" d="M176.78,434.08c.08-.53,.32-1.01,.69-1.39,.36-.44,.79-.82,1.28-1.12,.29-.17,.6-.32,.92-.43,.4-.2,.87-.17,1.25,.07,.2,.19,.28,.49,.19,.76-.06,.19-.14,.36-.25,.52-.19,.29-.43,.55-.69,.78-.45,.38-.98,.63-1.55,.74-1.01,.2-1.57-.08-1.54-.13,.49-.05,.97-.12,1.45-.22,.49-.15,.95-.41,1.33-.76,.22-.2,.42-.43,.57-.68,.18-.27,.26-.55,.15-.61-.24-.11-.51-.11-.74,0-.29,.1-.57,.22-.84,.37-.46,.25-.88,.57-1.25,.95-.63,.66-.89,1.19-.97,1.16Z"/><path class="cls-37" d="M200.59,431.11l-.35,25.42,31.62,.6c-.12-3.02-16.37-9.4-16.37-9.4l.9-16.28-15.79-.34Z"/><path class="cls-46" d="M205.74,446.17c-.63,.18-1.03,.81-.93,1.46,.16,.64,.79,1.05,1.44,.93,.69-.18,1.12-.85,1.01-1.55-.23-.65-.94-1-1.6-.8"/><path class="cls-46" d="M200.24,456.43v-2.57l30.39,1.73s1.39,.65,1.21,1.64l-31.6-.81Z"/><path class="cls-46" d="M216,447.58c0,.15-.79,.21-1.55,.68s-1.19,1.13-1.33,1.07,.11-.96,1.01-1.52,1.91-.37,1.87-.23Z"/><path class="cls-46" d="M219.3,449.01c0,.15-.64,.4-1.18,1.01s-.7,1.33-.86,1.32-.23-.89,.44-1.67,1.59-.8,1.59-.65Z"/><path class="cls-46" d="M221.11,453.02c-.14,0-.34-.74,.07-1.58s1.14-1.16,1.2-1.01-.39,.57-.71,1.27-.4,1.31-.55,1.32Z"/><path class="cls-46" d="M215.79,443.84c-.06,.14-.77-.09-1.64,0s-1.56,.3-1.64,.17,.59-.67,1.62-.71,1.74,.43,1.66,.54Z"/><path class="cls-46" d="M215.12,440.08c-.52,.14-1.07,.14-1.59,0-.57-.11-1.12-.29-1.64-.54-.31-.14-.62-.31-.91-.49-.17-.11-.33-.24-.47-.38-.18-.24-.18-.58,0-.83,.16-.22,.41-.34,.68-.34,.2,0,.4,.04,.59,.1,.91,.23,1.74,.69,2.42,1.34,.72,.69,1.01,1.28,.91,1.3s-.41-.43-1.15-1.01c-.43-.33-.9-.61-1.4-.83-.29-.12-.6-.23-.91-.3-.33-.09-.61-.1-.7,.05s0,.08,0,.17c.1,.11,.21,.21,.34,.28,.27,.18,.54,.35,.83,.49,.49,.25,1,.46,1.52,.61,.5,.09,1,.22,1.48,.37Z"/><path class="cls-46" d="M214.91,440.29c-.29-.45-.43-.99-.38-1.53-.02-.59,.06-1.17,.24-1.73,.11-.33,.25-.65,.42-.96,.18-.42,.56-.71,1.01-.78,.29,0,.55,.19,.65,.45,.08,.19,.13,.38,.15,.58,.06,.35,.06,.71,0,1.07-.1,.59-.34,1.15-.7,1.62-.63,.81-1.28,1.01-1.3,.93s.49-.36,1.01-1.15c.28-.45,.46-.95,.53-1.48,.04-.3,.04-.61,0-.92,0-.33-.16-.6-.29-.57s-.42,.24-.56,.5c-.16,.27-.29,.56-.4,.86-.18,.51-.3,1.03-.34,1.57-.1,.94,.06,1.51-.03,1.53Z"/><path class="cls-29" d="M106.49,280.75l6.04,10.45,8.4,8.39,4.93-6.77v-12.54s7.6-1.01,7.82-8.63c.11-3.65-.28-11.2-.71-18.04-.45-7.35-6.49-13.12-13.85-13.23h-.73c-7.89,.32-13.09,7.17-12.53,15.04l.56,25.35"/><path class="cls-46" d="M130.81,258.61c0,.59-.47,1.06-1.06,1.07-.55,.05-1.04-.36-1.09-.91,0-.03,0-.06,0-.09,0-.59,.47-1.07,1.06-1.08,.55-.05,1.04,.36,1.09,.91,0,.03,0,.07,0,.1Z"/><path class="cls-46" d="M131.47,256.9c-.14,.14-.95-.48-2.11-.49s-2.01,.54-2.15,.4,.08-.32,.46-.58c.51-.34,1.11-.51,1.72-.49,.61,0,1.19,.2,1.68,.56,.35,.3,.46,.54,.4,.6Z"/><path class="cls-46" d="M119.91,258.61c0,.57-.44,1.04-1.01,1.07-.55,.06-1.05-.35-1.1-.9,0-.04,0-.07,0-.11,0-.59,.48-1.07,1.07-1.08,.56-.02,1.02,.41,1.05,.97,0,.02,0,.03,0,.05Z"/><path class="cls-46" d="M119.88,256.37c-.12,.15-1.01-.38-2.15-.27s-1.95,.78-2.09,.64,0-.33,.39-.63c.47-.39,1.05-.63,1.66-.68,.6-.06,1.2,.08,1.72,.39,.38,.24,.53,.48,.47,.55Z"/><path class="cls-46" d="M124.03,266.03c.61-.19,1.25-.29,1.89-.31,.3,0,.58-.08,.63-.28,.03-.31-.04-.61-.18-.89l-.85-2.28c-.78-1.93-1.41-3.93-1.87-5.96,.94,1.86,1.72,3.8,2.35,5.79,.28,.81,.55,1.56,.81,2.3,.18,.36,.23,.77,.14,1.17-.09,.21-.28,.37-.5,.42-.16,.05-.33,.07-.5,.07-.64,.07-1.28,.06-1.91-.03Z"/><path class="cls-46" d="M120.54,266.77c.19,0,.17,1.26,1.24,2.16s2.41,.81,2.42,1.01-.3,.24-.88,.25c-.74,0-1.45-.26-2.01-.74-.56-.45-.93-1.1-1.01-1.82,.01-.55,.15-.87,.24-.86Z"/><path class="cls-46" d="M119.8,252.57c-.09,.32-1.26,.25-2.62,.5s-2.43,.7-2.63,.43,.08-.44,.5-.78c1.16-.86,2.65-1.12,4.03-.71,.48,.14,.75,.37,.71,.55Z"/><path class="cls-46" d="M130.98,253.92c-.21,.26-1.01,0-2.01-.06s-1.78,.15-1.96-.13c-.08-.13,.05-.39,.41-.64,.99-.59,2.24-.53,3.17,.15,.38,.28,.49,.55,.39,.68Z"/><path class="cls-46" d="M110.31,243.7c-.36-.2-1.91,1.52-2.21,1.81-1.75,1.68-2.4,4.74-2.53,7.17-.19,2.32-.08,4.65,.34,6.94,.06,.3,.27,1.54,.27,1.54,.33,.27,.78,2.96,1.21,3.02,.6,0,1.01-4.13,1.13-4.45,.07-.94,.2-1.88,.4-2.8,.36-1.48,.59-2.98,.69-4.5,0-2.11,.69-5.26,.71-7.37-.01-.44,.33-1.18-.02-1.36Z"/><path class="cls-46" d="M108.75,246.86c2.21-3.07,5.47-5.22,9.16-6.04,.83-.24,1.71-.21,2.52,.08,.45,.26,.86,.56,1.25,.9,.39,.34,.9,.51,1.41,.48,.5-.05,.87-.5,.82-1.01,0-.02,0-.05-.01-.07-6.07-2.41-12.99-.04-16.32,5.58"/><path class="cls-13" d="M110.22,246.53l-4.26,3.33c-.18,.82-.31,1.64-.37,2.48l4.26-2.82,.37-2.99Z"/><path class="cls-29" d="M107.29,261c-.13-.06-5.17-1.63-5.1,3.55s5.26,4.03,5.27,3.89-.17-7.44-.17-7.44Z"/><path class="cls-23" d="M105.85,266.5s-.09,.06-.24,.14c-.22,.09-.46,.09-.67,0-.7-.43-1.11-1.2-1.07-2.01-.02-.44,.06-.88,.23-1.29,.1-.33,.35-.59,.67-.7,.21-.07,.44,.04,.53,.24,.07,.14,0,.24,.07,.25s.11-.09,.06-.3c-.03-.13-.1-.24-.2-.32-.14-.11-.33-.15-.5-.12-.43,.09-.79,.4-.94,.82-.22,.45-.32,.95-.29,1.45-.04,.94,.49,1.81,1.35,2.21,.28,.08,.59,.03,.83-.15,.16-.05,.23-.2,.17-.21Z"/><path class="cls-23" d="M126.05,280.17c-3.62,0-7.15-1.07-10.16-3.08,0,0,2.25,5.76,10.07,5.19l.09-2.11Z"/><path class="cls-12" d="M110.58,368.9s2.4,15.1,4.18,18.62c1.78,3.52,28.1,.4,28.1,.4l57.32,1.51-.64,54.71,20.62,.54,1.41-65.53c0-7.05-2.48-12.02-8.34-13.85-9.11-2.86-21.66-4.03-25.7-4.53-6.14-.8-29.42-1.71-29.42-1.71l-1.78-2.81-45.74,12.64Z"/><path class="cls-12" d="M215.92,391.87l-34.02,47.12-18.07-14.09,23.9-30.39-52.57-14.33,2.1-18.04,15.42,1.01s49.18,6.14,55.55,8.12c.43,.13,.89,.29,1.34,.46,6.96,2.68,10.42,10.5,7.74,17.45-.36,.94-.83,1.84-1.4,2.68Z"/><path class="cls-9" d="M180.57,360.28c0,.15-6.62,0-14.78-.33-8.15-.33-14.76-.71-14.76-.87s6.62,0,14.78,.34c8.15,.34,14.76,.69,14.76,.86Z"/><path class="cls-9" d="M199.53,444.15c-.01-.08-.01-.16,0-.23v-13.21c.09-8.35,.21-19.79,.33-32.44,0-3.02,.08-5.99,.12-8.85l.23,.26c-10.51-.88-19.76-1.28-26.38-1.47l-7.78-.19-2.08-.05c-.24,0-.49-.01-.72-.05,.24-.02,.48-.02,.72,0h9.88c6.61,.1,15.89,.43,26.42,1.29h.23v.26c0,2.85-.07,5.82-.11,8.85-.18,12.64-.35,24.09-.48,32.44-.08,4.11-.15,7.46-.2,9.83l-.09,2.68v.69c-.02,.07-.04,.13-.08,.19Z"/><path class="cls-46" d="M214.93,342.87c.72-1.06,8.8-43.5,8.8-43.5h-1.71l-8.51,40.65h-41.27v3.02l42.69-.17Z"/><path class="cls-23" d="M187.06,330.38c.95-1.2,2.07-2.27,3.31-3.16,.46-.15,8.78-3.61,8.93-3.23s1.16,2.29-.54,3.18l-1.31,.44,4.78,.38s5.31,3.93,5.22,4.77-.77,1.38-1.23,1.01,1.24,2.7,1.24,2.7c0,0,0,1.31-.69,1.08-.67-.38-1.27-.87-1.77-1.46,0,0,1.01,1.61,.69,1.92s-1.85,.38-2.01,0-.38-1.08-.38-1.08l-.93,.07v1.27l-16.04,1.12,.72-9.01Z"/><path class="cls-13" d="M125.84,290.31c0,1.39,28.51,37.39,28.51,37.39,0,0,33.11,1.19,33.11,1.78s-2.17,9.31-2.17,9.31l-40.43,.7-31.08-35.38,12.06-13.8Z"/><path class="cls-34" d="M105.48,284.16s-12.87,9.51-14.68,19.27c-1.81,9.75,15.11,45.78,15.11,45.78l3.02,18.32c.14,.89,.99,1.5,1.88,1.36,.1-.02,.2-.04,.3-.08l45.78-12.55c.86-.31-.34-4.86-.71-5.69-5.98-13.34-11.01-24.95-21.76-35.54l-8.41-27.18-20.13-7.33-.4,3.63Z"/><path class="cls-34" d="M93.17,306.93s4.36,12.68,5.15,14.26c.61,1.24,21.52,19.49,30.56,27.35,2.59,2.25,6.07,3.18,9.43,2.53l43.81-8.5-.71-11.38-41.06,.65-17.64-26.17s-1.78-7.53-6.53-10.5-16.05-.8-18.62,2.97c-1.78,2.76-3.25,5.7-4.39,8.78Z"/><path class="cls-46" d="M140.32,331.85c-.92,1.12-1.66,2.38-2.18,3.72-.4,1.4-.68,2.82-.85,4.27-.36-1.48-.24-3.04,.34-4.45,.35-1.02,.91-1.95,1.63-2.75,.56-.55,1.03-.85,1.06-.8Z"/><path class="cls-46" d="M113.78,294.23c.37,.01,.74,.09,1.09,.23,1,.43,1.9,1.08,2.64,1.89,2.01,2.08,4.2,5.7,6.23,10.64h0l16.79,24.76-.18-.1,41.06-.43h.25v.24c.24,3.53,.49,7.28,.74,11.07v.22l-.21,.05c-1.64,.4-3.41,.76-5.19,1.13-14.09,2.86-27.54,5.3-39.75,7.93-1.59,.16-3.19-.19-4.56-1.01-1.27-.79-2.48-1.69-3.61-2.67l-6.72-5.34-12.08-9.58c-3.64-2.96-7.18-5.44-9.55-8.4-1.98-2.54-3.5-5.41-4.49-8.48-.87-2.5-1.37-4.48-1.71-5.83-.15-.65-.28-1.17-.36-1.53s-.11-.52-.11-.52c0,0,.06,.17,.16,.51l.42,1.52c.37,1.33,.9,3.31,1.79,5.78,1.02,3.02,2.55,5.85,4.52,8.36,2.37,2.9,5.9,5.35,9.56,8.3l12.08,9.53,6.73,5.32c1.14,.96,2.35,1.82,3.61,2.6,1.28,.78,2.78,1.14,4.28,1.01,12.08-2.66,25.63-5.11,39.7-7.97,1.77-.37,3.54-.72,5.17-1.13l-.2,.27c-.25-3.8-.5-7.54-.73-11.07l.26,.24-41.07,.35h-.11l-.07-.1c-6.69-9.99-12.39-18.49-16.66-24.84h0c-2.01-4.92-4.16-8.56-6.04-10.63-.71-.82-1.58-1.47-2.56-1.93-.36-.16-.73-.29-1.12-.39Z"/><polygon class="cls-17" points="126.27 290.31 126.34 288.96 128.86 293.81 128.86 297.49 126.41 295.53 126.27 290.31"/><path class="cls-46" d="M126.27,288.07c.08,.5,.11,1.01,.09,1.52v4.33l-.29-.12c-2.18-.91-4.95-2.08-7.95-3.38-3.6-1.56-6.86-3.02-9.2-4.03-1.18-.53-2.12-1.01-2.77-1.29-.36-.14-.69-.32-1.01-.54,.37,.08,.73,.2,1.07,.35l2.83,1.14c2.39,1.01,5.66,2.37,9.27,3.93,3.02,1.3,5.75,2.52,7.91,3.49l-.29,.18c.05-1.7,.1-3.1,.15-4.03,0-.52,.07-1.04,.19-1.55Z"/><path class="cls-17" d="M127.56,296.45c-.1,.71,6.94,18.03,6.94,18.03,0,0,11.24,14.21,12.32,16.9h2.95l-14.87-17.83-6.04-17.11h-1.3Z"/><path class="cls-29" d="M206.58,336.9l-.17-1.69-6.79-4.43-8.34-1.41-6.41,4.03-3.02-.24,.46,8.05h1.01c1.05,.5,2.19,.81,3.35,.91,2.19,.24,5.19-1.45,5.19-1.45l4.03-2.8,3.02-1.18,2.44,1.11c.15,.39,.26,.79,.35,1.2,0,.3,.91,.6,1.37,.56s.5-1.14,.5-1.14l-.77-2.24,1.17,.89,2.6-.16Z"/></g><g id="freepik--character-5--inject-237"><rect class="cls-46" x="410.63" y="394.53" width="4.07" height="62.36"/><rect class="cls-46" x="359.67" y="394.53" width="4.07" height="62.36"/><rect class="cls-9" x="356.9" y="387.68" width="59.48" height="7.85"/><polygon class="cls-9" points="407.68 391.71 416.38 395.55 435.48 322.79 426.76 320.46 407.68 391.71"/><path class="cls-46" d="M434.73,264.94c-.05-.43-.22-.84-.49-1.19-.84-1.17-2.09-1.98-3.5-2.27,1.2-.52,2.29-1.28,3.2-2.21,.92-.97,1.27-2.34,.93-3.63-.54-1.19-1.56-2.09-2.81-2.48-1.66-.71-3.51-.84-5.25-.37-1.75,.49-3.16,1.8-3.75,3.52l1.66,4.31c.21,1.71,.88,3.32,1.94,4.68,.4,.69,1.15,1.1,1.94,1.07,.65-.2,1.11-.79,1.15-1.47,.01-.67-.11-1.33-.36-1.95,.85,1.23,2,2.24,3.33,2.92,.44,.29,.98,.36,1.48,.19,.38-.24,.59-.67,.54-1.12Z"/><path class="cls-9" d="M425.64,259.02c.68,.74,1.46,1.36,2.33,1.86,.94,.33,1.93,.52,2.93,.54,0,.07-.31,.23-.9,.3-1.58,.17-3.12-.53-4.03-1.83-.3-.48-.39-.85-.33-.88Z"/><path class="cls-9" d="M435.4,256.08c-.55-.12-1.09-.27-1.62-.45-2.63-.66-5.41-.08-7.55,1.58-.42,.38-.85,.74-1.31,1.07,.24-.53,.61-1,1.08-1.35,2.14-1.93,5.15-2.57,7.88-1.65,.57,.13,1.09,.41,1.52,.81Z"/><path class="cls-17" d="M425.16,260.19c.06-.33,.06-.67,0-1.01-.11-1.4-.63-2.73-1.5-3.83-.15-.2-.39-.31-.63-.31-.38,0-.54,.53-.48,.92,.12,.37,.19,.75,.21,1.14l.65,2.78c.02,.31,.14,.6,.34,.83,.21,.23,.53,.34,.84,.27,.31-.15,.53-.44,.57-.79Z"/><path class="cls-46" d="M422.57,279.6c1.18-3,2.1-6.09,2.74-9.25,.64-3.18,.49-6.46-.45-9.56-.15-.46-1.5-3.58-2.01-3.54s.45,2.91,.27,3.21c-1.68,2.9-2.45,6.25-2.18,9.59,.19,3.23,.73,6.44,1.62,9.55"/><path class="cls-22" d="M413,306.26c5,.05,9.12-3.9,9.29-8.89l1.01-30.05c.53-8.05-3.72-15.1-11.8-15.4h-.76c-7.52,.18-13.64,6.09-14.09,13.59-.41,6.99-.79,14.73-.66,18.47,.26,7.75,8.05,8.79,8.05,8.79,0,0,0,1.8-.06,4.08-.12,5.07,3.9,9.28,8.98,9.4h.04Z"/><path class="cls-42" d="M403.98,292.83c3.59-.07,7.09-1.18,10.07-3.19,0,0-2.35,5.69-10.07,5.15v-1.96Z"/><path class="cls-46" d="M398.86,271.14c.01,.6,.5,1.08,1.1,1.09,.58,.03,1.08-.41,1.12-.99h0c0-.61-.49-1.1-1.09-1.11-.59-.03-1.09,.42-1.13,1h0Z"/><path class="cls-46" d="M398.33,268.67c.14,.14,1.01-.49,2.16-.52s2.07,.56,2.2,.41-.09-.32-.47-.59c-.52-.35-1.14-.52-1.77-.5-.62,.01-1.22,.22-1.71,.59-.36,.31-.47,.61-.41,.61Z"/><path class="cls-46" d="M410.17,270.99c.01,.6,.5,1.09,1.1,1.1,.59,.03,1.08-.42,1.12-1.01,0-.6-.49-1.09-1.09-1.1-.59-.03-1.09,.41-1.13,1h0Z"/><path class="cls-46" d="M410.02,268.95c.14,.14,1.01-.5,2.15-.52s2.08,.56,2.2,.41-.08-.32-.46-.59c-.52-.35-1.14-.52-1.77-.5-.62,0-1.22,.22-1.71,.59-.36,.28-.5,.54-.41,.61Z"/><path class="cls-46" d="M405.9,278.19c-.63-.19-1.28-.29-1.94-.31-.3,0-.59-.07-.64-.28-.04-.31,.03-.63,.18-.91l.86-2.34c.79-1.98,1.42-4.02,1.89-6.1-.95,1.91-1.75,3.89-2.39,5.93-.28,.83-.55,1.61-.82,2.36-.18,.37-.22,.8-.13,1.2,.1,.21,.29,.37,.51,.43,.17,.04,.34,.06,.51,.06,.65,.07,1.31,.06,1.96-.04Z"/><path class="cls-46" d="M409.46,278.94c-.19,0-.17,1.29-1.26,2.22s-2.47,.83-2.47,1.01,.31,.25,.89,.25c.76,0,1.49-.27,2.07-.77,.57-.47,.93-1.14,1.01-1.87,0-.54-.15-.86-.24-.85Z"/><path class="cls-46" d="M409.98,264.1c.13,.32,1.32,.15,2.72,.28s2.54,.5,2.72,.21c.08-.14-.12-.44-.58-.76-.61-.37-1.3-.6-2.01-.65-.72-.08-1.44,.02-2.11,.29-.52,.21-.78,.47-.72,.62Z"/><path class="cls-46" d="M398.75,264.73c.22,.27,1.01,0,2.01-.06s1.82,.14,2.01-.14-.06-.41-.43-.65c-.49-.31-1.07-.46-1.65-.41-.58,.02-1.13,.22-1.59,.57-.33,.29-.44,.61-.35,.69Z"/><path class="cls-22" d="M422.78,273.07c.13-.06,5.3-1.68,5.24,3.62-.05,5.31-5.38,4.15-5.39,4.03s.14-7.65,.14-7.65Z"/><path class="cls-42" d="M424.28,278.74s.09,.07,.25,.14c.22,.09,.46,.09,.68,0,.69-.43,1.11-1.2,1.09-2.01,.02-.46-.07-.91-.24-1.33-.1-.34-.36-.61-.69-.71-.22-.07-.45,.04-.54,.24-.07,.15,0,.25-.07,.26s-.11-.09-.07-.3c.03-.13,.11-.25,.21-.33,.15-.11,.33-.15,.51-.13,.46,.07,.85,.39,1.01,.84,.23,.46,.33,.97,.31,1.48,.04,.97-.5,1.87-1.38,2.28-.29,.08-.6,.02-.85-.15-.21-.17-.24-.26-.22-.26Z"/><path class="cls-46" d="M400.23,256.81c-.86-.49,1.78-3.22,3.91-4.14,3.22-1.38,8.05-2.17,11.07-1.29,3.52,1.08,6.43,2.9,8.14,6.15,1.65,3.32,2.38,7.01,2.12,10.7,.02,1.13-.25,2.25-.81,3.23-.77,1.16-2.2,1.86-2.17,3.48,.03,.59-.18,1.17-.58,1.61-1.01,1.01-2.15,0-2.69-1.01-1.12-2.1-1.2-4.58-1.26-6.97-.13-1.69,.02-3.39,.43-5.03,.28-.89,.71-1.71,.95-2.61,.28-.89,.17-1.85-.32-2.65-.13-.16-.27-.31-.42-.45-1.48-1.34-3.57-1.78-5.47-1.15-3.02,1.01-8.14,2.47-9.45,1.43-.94-.65-1.73-1.48-2.33-2.46l-1.13,1.14Z"/><path class="cls-46" d="M414.89,250.65c-2.91-1.09-6.14-.98-8.97,.31-1.52,.66-2.69,1.91-3.26,3.46-.53,1.6,.16,3.35,1.65,4.15l.1,.07c2.25,.81,3.72,.53,6.04-.2,1.91-.61,3.62-1.76,5.54-2.37,2.05-.65,4.25-.67,6.31-.06-1.95-2.41-4.51-4.26-7.41-5.37Z"/><path class="cls-9" d="M421.68,255.24c-.82-.34-1.69-.52-2.57-.55-.95,0-1.89,.2-2.77,.56-1.09,.45-2.14,1-3.14,1.62-1.02,.65-2.09,1.21-3.19,1.69-.93,.39-1.92,.6-2.92,.63-.93,.09-1.86-.16-2.62-.71,.84,.26,1.73,.37,2.61,.34,.95-.07,1.87-.31,2.74-.7,1.07-.5,2.12-1.07,3.12-1.7,1.02-.64,2.11-1.18,3.23-1.62,.94-.36,1.94-.52,2.95-.48,.94-.03,1.85,.3,2.56,.93Z"/><path class="cls-9" d="M419.47,253.45c-.77-.23-1.57-.35-2.38-.36-.87,.05-1.72,.23-2.53,.55-.99,.41-1.93,.93-2.81,1.54-1.01,.63-1.86,1.29-2.74,1.8-.77,.48-1.59,.87-2.45,1.17-.78,.33-1.63,.43-2.47,.29,.8-.16,1.58-.38,2.35-.64,1.78-.82,3.47-1.84,5.03-3.02,.91-.63,1.9-1.15,2.93-1.56,.86-.32,1.78-.48,2.7-.46,.84-.05,1.68,.19,2.36,.69Z"/><path class="cls-9" d="M424.86,260.32c-.77,3.55-3.43,6.4-6.92,7.43,3.08-1.63,5.51-4.24,6.92-7.43Z"/><path class="cls-9" d="M425.45,264.07c.07,.5-.02,1-.27,1.44-.51,1.09-1.35,1.99-2.39,2.59-1.02,.59-2.12,1.02-3.26,1.27-.46,.16-.94,.23-1.42,.2,.41-.25,.85-.44,1.32-.55,1.07-.35,2.11-.8,3.09-1.36,.96-.56,1.76-1.36,2.34-2.32,.42-.69,.5-1.28,.59-1.27Z"/><path class="cls-9" d="M407.09,251.56c.05,.05-.24,.4-.7,.96-.62,.69-1.15,1.46-1.57,2.29-.4,.82-.59,1.72-.55,2.63,0,.69,.23,1.12,.15,1.16s-.36-.35-.51-1.11c-.17-.99-.01-2.01,.44-2.91,.44-.87,1.04-1.65,1.77-2.31,.54-.53,.93-.79,.98-.7Z"/><path class="cls-9" d="M403.36,254c-.07,.81-.07,1.63,0,2.44,.24,.78,.55,1.54,.92,2.27-.07,.12-1.13-.65-1.43-2.15-.26-.88-.07-1.84,.51-2.55Z"/><path class="cls-25" d="M297.33,431.76l-10.89,25.44-31.33-14.26c1.54-2.91,20.49-1.55,20.49-1.55l6.75-16.41,14.98,6.79Z"/><path class="cls-13" d="M285.91,444.42c.53,.48,.63,1.27,.22,1.86-.46,.56-1.27,.67-1.85,.24-.59-.51-.69-1.39-.22-2.01,.54-.52,1.4-.52,1.94,0"/><path class="cls-4" d="M286.44,457.18l1.24-2.64-30.65-12.54s-1.67,0-1.95,1.01l31.37,14.17Z"/><path class="cls-13" d="M275.17,440.99c-.07,.15,.66,.57,1.2,1.41s.63,1.65,.81,1.66,.34-1.01-.32-2.01-1.65-1.23-1.68-1.06Z"/><path class="cls-13" d="M271.26,440.82c-.1,.14,.44,.69,.66,1.58s.06,1.64,.22,1.7,.64-.76,.34-1.85-1.16-1.54-1.23-1.43Z"/><path class="cls-13" d="M267.61,443.94c.12,.09,.68-.57,.67-1.59s-.58-1.67-.7-1.58,.12,.76,.11,1.59-.23,1.48-.08,1.58Z"/><path class="cls-13" d="M277.12,437.41c0,.17,.8,.28,1.63,.73s1.39,1.01,1.53,.94-.26-.94-1.26-1.46-1.92-.36-1.9-.21Z"/><path class="cls-13" d="M279.56,434.04c.45,.37,.99,.62,1.57,.7,.61,.15,1.24,.23,1.87,.24,.37,0,.75-.02,1.12-.07,.22-.02,.44-.07,.64-.15,.31-.13,.49-.45,.43-.79-.06-.28-.24-.53-.5-.65-.2-.09-.41-.15-.62-.18-.37-.07-.75-.11-1.13-.11-.64,0-1.27,.1-1.88,.29-1.01,.34-1.54,.81-1.5,.86s.61-.24,1.61-.45c.57-.13,1.16-.18,1.75-.16,.34,.02,.67,.06,1.01,.13,.37,.07,.65,.19,.67,.38s0,.09-.11,.16c-.15,.05-.31,.09-.47,.11-.94,.13-1.89,.13-2.83,0-.54-.14-1.08-.25-1.63-.31Z"/><path class="cls-13" d="M279.66,434.35s.59-.36,1.1-1.33c.29-.57,.49-1.19,.57-1.82,.04-.37,.04-.75,0-1.13,.02-.5-.22-.98-.64-1.25-.29-.12-.62-.07-.86,.14-.16,.15-.31,.32-.42,.5-.21,.31-.37,.65-.47,1.01-.19,.62-.21,1.29-.07,1.92,.24,1.09,.8,1.56,.84,1.52-.17-.52-.32-1.05-.43-1.59-.06-.57,0-1.15,.18-1.7,.1-.32,.25-.62,.44-.9,.19-.3,.44-.51,.55-.42s.3,.43,.31,.76c.03,.33,.03,.67,0,1.01-.05,.59-.19,1.16-.4,1.71-.34,.99-.78,1.51-.69,1.57Z"/><path class="cls-9" d="M273.85,404.33l22.33-57.29c3.25-6.62,7.59-9.15,15.1-7.17l60.18,13.36,36.61,26s-2.47,10.17-7.47,11.84c-1.37,.45-81.9-.66-81.9-.66l-22.52,47.94-17.11-8.36,9.46-20.39-14.68-5.27Z"/><path class="cls-46" d="M365,363.54h-.26l-.79,.05-3.02,.14-11.07,.41-36.49,1.18-2.11,.06,.23-.16-12.97,32.62-3.96,9.8c-.46,1.13-.84,2.01-1.1,2.65-.12,.28-.22,.5-.29,.68s-.11,.23-.12,.22,0-.08,.07-.24l.24-.7c.25-.64,.58-1.54,1.01-2.68,.91-2.37,2.2-5.72,3.8-9.86,3.28-8.36,7.8-19.86,12.83-32.68l.06-.16h.22l2.1-.06,36.5-1.01,11.07-.25h4.05Z"/><path class="cls-46" d="M311.28,380.31c2.43,3.16,4.58,6.53,6.43,10.07-1.28-1.54-2.42-3.19-3.41-4.92-1.16-1.62-2.17-3.34-3.02-5.14Z"/><path class="cls-46" d="M319.06,375.48c.22,.7,.35,1.43,.38,2.16,.17,1.76,.24,3.53,.19,5.3-.04,1.77-.19,3.53-.45,5.29-.06,.73-.22,1.45-.48,2.14-.16,0,.32-3.33,.41-7.44,.09-4.11-.21-7.44-.05-7.45Z"/><path class="cls-25" d="M367.32,352.37l15.5-16.74s3.85-15.01,5.73-19.13c1.88-4.12,15.2-19.52,15.2-19.52l18.21-6.04s11.26,16.79,10.14,30.45c-1.13,13.66-24.03,57.78-24.03,57.78-1.71,.66-3.51,1.03-5.34,1.1-2.93,0-11.8-4.03-17.73-6.93-3.65-1.77-6.76-4.49-9-7.87l-8.69-13.11Z"/><path class="cls-25" d="M402.73,380.42c-2.88,0-11.25-3.78-17.78-6.94-3.67-1.78-6.8-4.52-9.06-7.92l-8.74-13.21,.07-.07,15.52-16.71c.19-.77,3.91-15.1,5.73-19.13s14.68-18.93,15.22-19.55h0l18.31-6.07v.08c.12,.17,11.27,16.98,10.16,30.53-1.12,13.55-23.81,57.38-24.04,57.83h0c-1.72,.68-3.55,1.07-5.4,1.15Zm-35.23-28.04l8.63,13.04c2.23,3.37,5.33,6.07,8.96,7.83,5.32,2.58,14.69,6.92,17.67,6.92,1.8-.07,3.57-.43,5.24-1.08,.82-1.58,22.9-44.39,23.99-57.69,1.08-12.99-9.22-29.02-10.07-30.29l-18.12,5.97c-.62,.71-13.36,15.47-15.17,19.46s-5.68,18.97-5.72,19.13v.06l-15.41,16.66Z"/><path class="cls-25" d="M376.47,366.2c3.29,2.74,19.32,3.2,26.93,1.68,7.61-1.52,5.92-3.92,7.8-8.95s6.79-23.77,6.79-35.8-9.42-19.85-11.39-20.97-6.65,3.35-9.34,7.55-4.03,38.59-4.03,38.59l-25.84,4.79,2.01,11.37,7.07,1.74Z"/><path class="cls-46" d="M392.42,368.85c-6.79,0-13.86-.79-16.01-2.54l-7.23-1.75v-.08l-2.01-11.49h.12l25.74-4.79c.1-2.44,1.43-34.45,4.03-38.56s7.42-8.79,9.51-7.59c2.28,1.3,11.45,9.12,11.45,21.08s-4.72,30.45-6.73,35.84c-.37,1.03-.67,2.08-.91,3.14-.69,2.94-1.11,4.71-7.05,5.89-3.61,.6-7.26,.89-10.91,.85Zm-23.02-4.49l7.15,1.74c3.16,2.63,18.93,3.24,26.82,1.65,5.73-1.15,6.11-2.76,6.81-5.7,.23-1.08,.54-2.14,.92-3.17,2.01-5.37,6.71-24.01,6.71-35.75s-9.06-19.58-11.32-20.86c-1.81-1.01-6.41,3.19-9.18,7.51-2.64,4.12-4.03,38.18-4.03,38.53v.1h-.1l-25.71,4.82,1.93,11.12Z"/><path class="cls-25" d="M395.93,315.59v.59c0,.39-.07,1.01-.12,1.72-.11,1.54-.28,3.75-.49,6.57-.46,5.72-1.12,13.89-1.92,23.85v.16h-.16l-25.83,4.82,.2-.29c.63,3.63,1.3,7.46,2.01,11.38l-.19-.21c3.52,.92,7.23,1.88,11.07,2.64,5.36,1.2,10.87,1.62,16.36,1.27,2.59-.17,5.15-.7,7.6-1.58,2.34-.82,4.28-2.49,5.45-4.68,.96-2.17,1.67-4.44,2.12-6.77,.54-2.25,1.08-4.45,1.58-6.57,1.01-4.25,1.84-8.22,2.5-11.87,1.09-5.75,1.72-11.58,1.89-17.44v-6.01c-.01-.14-.01-.29,0-.43,.01,.14,.01,.28,0,.42,0,.3,.05,.71,.08,1.24,.08,1.1,.13,2.71,.12,4.78-.09,5.87-.67,11.72-1.73,17.5-.62,3.66-1.46,7.65-2.44,11.91-.5,2.13-1.02,4.32-1.55,6.58-.45,2.37-1.17,4.68-2.14,6.89-.57,1.15-1.37,2.18-2.35,3.02-1.01,.82-2.14,1.48-3.35,1.94-2.49,.9-5.1,1.45-7.74,1.63-5.57,.36-11.16-.08-16.6-1.31-3.83-.77-7.54-1.73-11.07-2.65h-.16v-.16c-.67-3.92-1.34-7.74-2.01-11.38v-.24l.25-.05,25.85-4.74-.17,.18c.88-9.95,1.59-18.12,2.09-23.83,.26-2.82,.47-5.03,.61-6.56,.08-.73,.13-1.31,.18-1.72s.06-.59,.06-.59Z"/><path class="cls-9" d="M415.3,305.78c-.07,.07-.8-.69-2.21-1.56-3.74-2.32-8.42-2.51-12.33-.49-1.49,.74-2.28,1.45-2.33,1.37s.14-.22,.5-.53c.51-.44,1.06-.83,1.64-1.17,3.99-2.28,8.92-2.08,12.71,.51,.56,.38,1.08,.82,1.55,1.3,.33,.34,.48,.55,.46,.57Z"/><path class="cls-46" d="M296.18,438.35l.09-.25,.3-.69,1.22-2.69c1.09-2.37,2.66-5.77,4.61-10.07l16.04-34.43,.07-.14h.16l19.81-.09,51.48-.11h8.9c1.2,.06,2.39-.22,3.42-.83,.88-.5,1.66-1.16,2.31-1.93,.86-1.1,1.54-2.33,2.01-3.64l.35-1.01c.03-.12,.08-.24,.14-.35-.02,.12-.05,.24-.09,.36-.07,.27-.17,.62-.3,1.07-.45,1.35-1.13,2.62-2.01,3.74-.65,.81-1.44,1.49-2.34,2.01-1.07,.65-2.3,.96-3.54,.91l-8.89,.07-51.48,.26-19.81,.07,.23-.15c-6.53,13.84-12.18,25.81-16.21,34.36-2.01,4.23-3.62,7.61-4.75,9.96l-1.29,2.66-.34,.67c-.02,.08-.05,.16-.09,.24Z"/><path class="cls-46" d="M348.29,348.07c-.09,.02-.19,.02-.28,0l-.83-.15-3.16-.65-11.61-2.54-17.36-3.79-2.49-.54c-.83-.21-1.67-.4-2.53-.54-1.74-.32-3.52-.35-5.27-.1-1.8,.29-3.49,1.08-4.87,2.28-1.4,1.28-2.55,2.81-3.38,4.51h0l-1.11,2.88c-5.91,15.18-11.24,28.91-15.1,38.89-1.94,4.94-3.53,8.96-4.64,11.77-.54,1.36-1.01,2.43-1.28,3.19-.15,.33-.26,.6-.35,.82s-.13,.28-.13,.28c.01-.1,.04-.2,.08-.29,.08-.22,.17-.5,.3-.85,.28-.78,.68-1.85,1.19-3.22l4.49-11.83c3.85-10,9.13-23.75,14.98-38.94l1.12-2.88h0c.86-1.76,2.05-3.34,3.5-4.66,1.45-1.25,3.23-2.08,5.12-2.39,1.81-.25,3.65-.21,5.45,.12,.88,.15,1.72,.34,2.56,.55l2.49,.56,17.23,3.83,11.61,2.66,3.14,.74,.82,.2,.31,.09Z"/><path class="cls-25" d="M293.09,411.23l-7.26,21.58-32-12.67c1.4-3.02,20.39-2.57,20.39-2.57l4.13-11.62,14.75,5.27Z"/><path class="cls-13" d="M284.66,420.11c.55,.45,.69,1.24,.31,1.85-.43,.57-1.23,.72-1.83,.32-.6-.47-.74-1.32-.32-1.96,.51-.56,1.36-.61,1.94-.13"/><path class="cls-4" d="M285.83,432.81l1.1-2.69-31.21-11.01s-1.67,.06-1.9,1.13l32.01,12.57Z"/><path class="cls-13" d="M273.76,417.21c-.06,.15,.69,.53,1.27,1.34s.71,1.63,.89,1.62,.29-1.01-.41-1.96-1.72-1.16-1.74-1Z"/><path class="cls-13" d="M269.85,417.26c-.1,.14,.47,.67,.74,1.55s.14,1.63,.3,1.68,.6-.79,.25-1.86-1.24-1.51-1.3-1.37Z"/><path class="cls-13" d="M266.35,420.53c.13,.08,.66-.61,.59-1.62s-.65-1.65-.78-1.54,.16,.73,.19,1.57-.15,1.51-.01,1.59Z"/><path class="cls-13" d="M275.53,413.55c0,.17,.82,.24,1.67,.64s1.44,1.01,1.57,.87-.3-.93-1.32-1.39-1.95-.27-1.92-.12Z"/><path class="cls-13" d="M277.79,410.05c.47,.35,1.03,.56,1.61,.62,.62,.13,1.25,.18,1.88,.15,.37-.02,.74-.06,1.11-.12,.22-.03,.43-.1,.63-.19,.3-.14,.47-.47,.4-.8-.07-.29-.27-.52-.54-.63-.2-.08-.42-.14-.63-.15-.37-.05-.75-.07-1.13-.06-.64,.03-1.27,.16-1.86,.39-1.01,.39-1.5,.88-1.46,.93s.6-.27,1.58-.53c.57-.16,1.16-.24,1.75-.24,.34,0,.67,.03,1.01,.08,.37,0,.66,.16,.68,.34s0,.09-.1,.16c-.15,.07-.3,.12-.46,.14-.33,.07-.67,.12-1.01,.15-.59,.05-1.19,.05-1.78,0-.55-.12-1.12-.21-1.68-.24Z"/><path class="cls-13" d="M277.91,410.35c0,.05,.57-.39,1.01-1.38,.26-.58,.42-1.21,.47-1.84,.04-.38,.04-.76,0-1.14-.01-.5-.28-.95-.7-1.21-.29-.11-.63-.04-.85,.18-.16,.16-.29,.33-.4,.52-.19,.34-.32,.71-.39,1.1-.16,.63-.16,1.29,0,1.92,.29,1.08,.88,1.53,.91,1.48-.2-.51-.37-1.03-.5-1.56-.1-.57-.07-1.15,.09-1.71,.08-.32,.22-.63,.39-.92,.19-.32,.42-.54,.53-.45,.22,.19,.35,.46,.35,.74,.14,.92,.05,1.87-.27,2.75-.31,.94-.71,1.45-.63,1.51Z"/><path class="cls-46" d="M329.28,300.89c-.29,.67,1.69,44.77,1.69,44.77l31.21,17.92,2.25-2.21-30-17.68-2.22-42.88-2.93,.09Z"/><path class="cls-22" d="M367.32,353.09l-7.89-6.04-12.56,3.02s.18,1.11,1.8,1.64l3.4-.53-6.28,4.3c.32,1.18,1.25,2.1,2.43,2.43,1.26,.4,2.36,1.18,3.14,2.24l3.23,3.4h8.61l5.85-.58-1.72-9.87h0Z"/></g></g></g></svg>