<?xml version="1.0" encoding="UTF-8"?>
<svg id="Layer_1" data-name="Layer 1" xmlns="http://www.w3.org/2000/svg" xmlns:xlink="http://www.w3.org/1999/xlink" viewBox="0 0 1080 348">
  <defs>
    <style>
      .cls-1 {
        fill: url(#linear-gradient-2);
      }

      .cls-2 {
        fill: url(#linear-gradient-5);
      }

      .cls-3 {
        fill: url(#linear-gradient-3);
      }

      .cls-4 {
        fill: url(#linear-gradient);
      }

      .cls-5 {
        fill: url(#linear-gradient-4);
      }
    </style>
    <linearGradient id="linear-gradient" x1="118.2" y1="126.57" x2="150.17" y2="155.27" gradientTransform="translate(0 -10.26)" gradientUnits="userSpaceOnUse">
      <stop offset="0" stop-color="#00ffaf"/>
      <stop offset=".06" stop-color="#00edad"/>
      <stop offset=".32" stop-color="#00a6a7"/>
      <stop offset=".55" stop-color="#006ea2"/>
      <stop offset=".75" stop-color="#00469f"/>
      <stop offset=".91" stop-color="#002d9d"/>
      <stop offset="1" stop-color="#00249c"/>
    </linearGradient>
    <linearGradient id="linear-gradient-2" x1="112.27" y1="109.93" x2="168.55" y2="160.45" xlink:href="#linear-gradient"/>
    <linearGradient id="linear-gradient-3" x1="149.11" y1="223.24" x2="149.45" y2="223.53" xlink:href="#linear-gradient"/>
    <linearGradient id="linear-gradient-4" x1="144.94" y1="184.77" x2="57.35" y2="254.62" xlink:href="#linear-gradient"/>
    <linearGradient id="linear-gradient-5" x1="89.42" y1="85.44" x2="316.11" y2="288.9" xlink:href="#linear-gradient"/>
  </defs>
  <g>
    <path d="m312.16,133.61v65.09h-15.7v-39.11l-14.56,39.11h-12.85l-14.56-39.11v39.11h-15.7v-65.09h18.56l18.27,45.1,18.27-45.1c-.29,0,18.27,0,18.27,0Z"/>
    <path d="m433.48,147.02v51.67h-15.7v-7.14c-1.71,2.28-4,4-6.57,5.71-2.57,1.43-5.71,2.28-9.13,2.28-4,0-7.42-.86-10.28-2.57-2.85-1.71-5.42-4.28-7.14-7.71s-2.28-7.14-2.28-11.99v-30.26h15.7v27.98c0,3.43.86,5.99,2.57,7.99,1.71,2,4,2.85,7.14,2.85s5.71-.86,7.14-2.85c1.71-2,2.57-4.57,2.57-7.99v-27.98h15.99Z"/>
    <path d="m473.73,185.28v13.42h-7.99c-5.71,0-10.28-1.43-13.42-4-3.14-2.85-4.85-7.42-4.85-13.7v-20.55h-6.28v-13.13h6.28v-12.56h15.7v12.56h10.28v13.13h-10.28v20.84c0,1.43.57,2.57,1.14,3.43.86.86,2,.86,3.71.86,0-.29,5.71-.29,5.71-.29Z"/>
    <path d="m528.25,152.45c3.71,4,5.42,9.13,5.42,16.27v29.97h-15.7v-28.26c0-3.43-.86-5.99-2.57-7.99-1.71-2-4-2.85-7.14-2.85-2.85,0-5.42.86-7.14,2.85s-2.57,4.57-2.57,7.99v28.26h-15.7v-68.51h15.7v23.69c1.71-2.28,4-4,6.57-5.71,2.57-1.43,5.71-2,9.42-2,5.71,0,10.56,2,13.7,6.28Z"/>
    <path d="m591.91,165.01c-1.71,3.14-4.28,5.71-7.99,7.42-3.71,2-7.99,2.85-13.42,2.85h-9.99v23.41h-15.7v-65.09h25.69c5.14,0,9.71.86,13.13,2.57,3.71,1.71,6.28,4.28,7.99,7.42,1.71,3.14,2.57,6.85,2.57,10.85.29,4-.57,7.42-2.28,10.56Zm-15.7-4.57c1.43-1.43,2.28-3.43,2.28-5.99s-.86-4.57-2.28-5.99-3.71-2.28-6.85-2.28h-8.85v16.27h8.85c2.85.29,5.42-.57,6.85-2Z"/>
    <path d="m653.57,147.02v51.67h-15.7v-7.14c-1.71,2.28-4,4-6.57,5.71-2.57,1.43-5.71,2.28-9.13,2.28-4,0-7.42-.86-10.28-2.57-2.85-1.71-5.42-4.28-7.14-7.71s-2.28-7.14-2.28-11.99v-30.26h15.7v27.98c0,3.43.86,5.99,2.57,7.99,1.71,2,4,2.85,7.14,2.85s5.71-.86,7.14-2.85c1.71-2,2.57-4.57,2.57-7.99v-27.98h15.99Z"/>
    <path d="m687.25,148.45c2.57-1.43,5.99-2.28,9.42-2.28,4.28,0,8.28.86,11.7,3.14,3.43,2.28,6.28,5.42,8.28,9.13,2,4,2.85,8.85,2.85,13.99s-.86,9.99-2.85,13.99-4.85,7.14-8.28,9.42-7.14,3.43-11.7,3.43c-3.71,0-6.85-.86-9.42-2.28-2.57-1.43-4.85-3.43-6.28-5.71v7.42h-15.7v-68.8h15.7v24.26c1.43-2.28,3.71-4.28,6.28-5.71Zm12.85,15.13c-2.28-2.28-4.85-3.43-7.99-3.43s-5.71,1.14-7.99,3.43-3.43,5.42-3.43,9.42,1.14,7.14,3.43,9.42,4.85,3.43,7.99,3.43,5.71-1.14,7.99-3.43,3.43-5.42,3.43-9.42-1.14-7.42-3.43-9.42Z"/>
    <path d="m743.78,129.9v68.51h-15.7v-68.51h15.7Z"/>
    <path d="m756.62,139.03c-1.71-1.71-2.57-3.71-2.57-5.99s.86-4.57,2.57-5.99c1.71-1.43,4-2.28,6.85-2.28,2.57,0,4.85.86,6.85,2.28,2,1.71,2.57,3.71,2.57,5.99s-.86,4.28-2.57,5.99-4,2.28-6.85,2.28c-3.14,0-5.14-.57-6.85-2.28Zm14.56,7.99v51.67h-15.7v-51.67h15.7Z"/>
    <path d="m782.6,158.73c2.28-4,5.42-7.14,9.13-9.13,3.71-2,8.56-3.14,13.7-3.14,6.57,0,11.99,1.71,16.27,5.14s7.14,8.28,8.56,14.27h-17.13c-1.43-4-4-5.71-8.28-5.71-2.85,0-5.42,1.14-7.14,3.43s-2.57,5.71-2.57,9.71.86,7.42,2.57,9.71c1.71,2.28,4,3.43,7.14,3.43,4,0,6.85-2,8.28-5.71h16.84c-1.43,5.99-4,10.85-8.85,14.27-4.28,3.43-9.71,5.14-16.27,5.14-5.14,0-9.42-.86-13.7-3.14-4-2.28-7.14-5.42-9.13-9.13-2.28-4-3.43-8.85-3.43-13.99.57-5.99,2-11.13,4-15.13Z"/>
    <path d="m839.98,139.03c-1.71-1.71-2.57-3.71-2.57-5.99s.86-4.57,2.57-5.99c1.71-1.43,4-2.28,6.85-2.28,2.57,0,4.85.86,6.85,2.28,2,1.71,2.57,3.71,2.57,5.99s-.86,4.28-2.57,5.99-4,2.28-6.85,2.28c-3.14,0-5.14-.57-6.85-2.28Zm14.27,7.99v51.67h-15.7v-51.67h15.7Z"/>
    <path d="m894.79,185.28v13.42h-7.99c-5.71,0-10.28-1.43-13.42-4-3.14-2.85-4.85-7.42-4.85-13.7v-20.55h-6.28v-13.13h6.28v-12.56h15.7v12.56h10.28v13.13h-9.99v20.84c0,1.43.57,2.57,1.14,3.43.86.86,2,.86,3.71.86,0-.29,5.42-.29,5.42-.29Z"/>
    <path d="m956.45,147.02l-32.54,76.22h-16.84l11.99-26.26-21.12-49.96h17.7l11.99,32.26,11.99-32.26s16.84,0,16.84,0Z"/>
    <path d="m333.24,196.37c-4.04-2.16-7.22-5.25-9.54-9.26-2.31-4.01-3.47-8.7-3.47-14.07s1.17-9.98,3.52-14.03c2.35-4.04,5.56-7.14,9.63-9.31,4.07-2.16,8.64-3.24,13.7-3.24s9.63,1.08,13.7,3.24c4.07,2.16,7.28,5.26,9.63,9.31,2.35,4.04,3.52,8.72,3.52,14.03s-1.19,9.99-3.56,14.03c-2.38,4.04-5.62,7.15-9.72,9.31-4.11,2.16-8.69,3.24-13.75,3.24s-9.62-1.08-13.66-3.24Zm21.39-13.8c2.13-2.22,3.19-5.4,3.19-9.54s-1.03-7.31-3.1-9.54c-2.07-2.22-4.61-3.33-7.64-3.33s-5.65,1.1-7.68,3.29c-2.04,2.19-3.06,5.39-3.06,9.58s1,7.31,3.01,9.54c2,2.22,4.52,3.33,7.55,3.33s5.6-1.11,7.73-3.33Z"/>
    <g>
      <path d="m959.59,196.98c-1.71-1.71-2.57-3.71-2.57-5.99,0-2.57.86-4.57,2.57-6.28s4-2.57,6.85-2.57c2.57,0,4.85.86,6.57,2.57s2.57,3.71,2.57,6.28c0,2.28-.86,4.28-2.57,5.99s-4,2.57-6.57,2.57c-2.85-.29-5.14-.86-6.85-2.57Z"/>
      <path d="m986.13,139.6c-1.71-1.71-2.57-3.71-2.57-5.99,0-2.57.86-4.57,2.57-5.99,1.71-1.71,4-2.57,6.85-2.57,2.57,0,4.85.86,6.57,2.57,1.71,1.71,2.57,3.71,2.57,5.99s-.86,4.28-2.57,5.99-4,2.57-6.57,2.57c-2.85,0-5.14-.86-6.85-2.57Zm14.56,7.99v51.1h-15.7v-51.1h15.7Z"/>
    </g>
    <path d="m1021.14,196.45c-4.04-2.16-7.22-5.25-9.54-9.26-2.31-4.01-3.47-8.7-3.47-14.07s1.17-9.98,3.52-14.03c2.35-4.04,5.56-7.14,9.63-9.31,4.07-2.16,8.64-3.24,13.7-3.24s9.63,1.08,13.7,3.24c4.07,2.16,7.28,5.26,9.63,9.31,2.35,4.04,3.52,8.72,3.52,14.03s-1.19,9.99-3.56,14.03c-2.38,4.04-5.62,7.15-9.72,9.31-4.11,2.16-8.69,3.24-13.75,3.24s-9.62-1.08-13.66-3.24Zm21.39-13.8c2.13-2.22,3.19-5.4,3.19-9.54s-1.03-7.31-3.1-9.54c-2.07-2.22-4.61-3.33-7.64-3.33s-5.65,1.1-7.68,3.29c-2.04,2.19-3.06,5.39-3.06,9.58s1,7.31,3.01,9.54c2,2.22,4.52,3.33,7.55,3.33s5.6-1.11,7.73-3.33Z"/>
  </g>
  <g id="Layer_2" data-name="Layer 2">
    <g id="Layer_1-2" data-name="Layer 1-2">
      <path class="cls-4" d="m129.23,116.28l-.03-.11c.03.16.05.3.05.38,0-.08-.03-.19-.03-.27Zm-.63-4.48c0,.16.05.33.05.46v-.57l-.05.11Zm-8.12,19.41c.38.6.79,1.18,1.18,1.75.33.46.66.93,1.01,1.39-.85-1.18-1.59-2.27-2.16-3.23l-.03.08Z"/>
      <path class="cls-1" d="m190.3,108.27c-.55-6.7-2.87-13.12-6.72-18.61-1.75-2.57-3.83-4.89-6.18-6.94h-.03c-3.66-3.2-7.93-5.63-12.52-7.22-.87-.3-1.83-.55-2.71-.79-.14-.05-.27-.11-.41-.11-.79-.19-1.56-.36-2.38-.49s-1.72-.3-2.6-.38c-.16-.05-.3-.08-.46-.08-.87-.08-1.75-.14-2.62-.14-.14-.05-.27-.08-.41-.05-2.02-.03-4.05.11-6.04.38-1.01.14-2.02.33-3.01.55-.87.19-1.72.41-2.54.71-.22.03-.44.11-.66.19-.87.3-1.72.6-2.54.93-.93.36-1.86.79-2.73,1.26-.85.41-1.69.87-2.54,1.37-.96.57-1.91,1.2-2.79,1.89-.71.52-1.42,1.07-2.13,1.67-.57.49-1.2,1.04-1.75,1.61-.41.33-.79.71-1.15,1.12-.55.55-1.07,1.12-1.56,1.72-1.01,1.18-1.94,2.41-2.79,3.69-.44.63-.82,1.26-1.18,1.91-.68,1.18-1.28,2.38-1.8,3.61-.05.14-.14.27-.19.41l-25.48,60.79,11.97,7.27,14.92-35.59h0c.3.55.71,1.31,1.26,2.19.57.96,1.31,2.05,2.16,3.23.19.25.38.49.6.74.49.63,1.04,1.23,1.59,1.83.49.55,1.01,1.07,1.53,1.61.08.03.11.05.14.11.57.52,1.15,1.07,1.72,1.56,1.18,1.01,2.41,1.91,3.69,2.76,2.62,1.69,5.44,3.06,8.36,4.1,1.61.55,3.23.98,4.89,1.28.79.16,1.64.3,2.46.41.82.14,1.67.22,2.51.25.82.05,1.64.11,2.49.08,1.78,0,3.58-.11,5.33-.36,1.01-.14,2.02-.33,3.01-.57.98-.22,1.97-.46,2.92-.79.74-.22,1.48-.49,2.21-.79.68-.25,1.37-.52,1.97-.79.68-.36,1.37-.66,2.05-.98s1.31-.71,1.94-1.12,1.26-.77,1.89-1.18,1.2-.87,1.8-1.28l1.72-1.42c.55-.52,1.12-.98,1.64-1.53.71-.71,1.42-1.48,2.08-2.21,1.91-2.27,3.58-4.76,4.97-7.38,2.16-4.18,3.5-8.75,3.99-13.45.11-1.18.19-2.35.22-3.5s-.05-2.3-.14-3.44Zm-13.89,5.49c-.25,2.21-.79,4.4-1.61,6.48l-.19.46c-.22.52-.49,1.04-.74,1.53-.3.63-.66,1.2-1.04,1.78-.27.52-.6,1.01-.98,1.42-1.15,1.67-2.51,3.14-4.1,4.4-.87.71-1.83,1.37-2.82,1.91-.52.33-1.07.63-1.64.9-.57.3-1.15.57-1.75.77-.49.22-1.01.41-1.53.57-1.37.46-2.76.77-4.18.98-.66.08-1.31.16-1.97.19-.55.05-1.12.05-1.67,0-.36.03-.71.03-1.09-.03-.36,0-.68-.03-1.01-.05-.85-.05-1.67-.19-2.46-.41-.05.03-.08,0-.16,0-.85-.19-1.67-.46-2.51-.71,0-.05-.08-.03-.11-.05-1.18-.41-2.3-.9-3.39-1.48-.66-.33-1.31-.71-1.91-1.15-.38-.3-.85-.55-1.2-.85-.82-.55-1.56-1.2-2.27-1.91-.38-.33-.74-.68-1.07-1.07-.74-.77-1.42-1.61-2-2.51-1.2-1.67-2.16-3.5-2.87-5.44-.19-.41-.33-.85-.41-1.31-.22-.49-.36-1.01-.44-1.53l-.03-.16c0-.08-.03-.22-.05-.38-.3-1.26-.49-2.54-.52-3.85v-.05c0-.16-.03-.3-.05-.46v-.05c-.3-2.71.11-5.44,1.15-7.93l.77-1.8c.19-.46.41-.9.63-1.34.38-.85.85-1.64,1.37-2.38l.05-.11c.33-.44.63-.9.98-1.34.41-.55.82-1.07,1.28-1.56.82-.96,1.72-1.8,2.71-2.6,3.42-2.79,7.52-4.56,11.89-5.14.36-.05.71-.08,1.07-.14s.77-.05,1.2-.03.77,0,1.18,0c.44-.03.87,0,1.31.05.57.03,1.12.11,1.67.16.44.05.87.11,1.28.19s.9.16,1.34.3c.52.11,1.04.27,1.56.46.49.11.98.3,1.45.52,2.98,1.15,5.66,2.9,7.93,5.14,2.38,2.3,4.18,5.06,5.33,8.15.27.57.49,1.15.63,1.78.25.77.44,1.56.6,2.35.14.68.22,1.34.3,2.05.03.16.05.36.08.52.22,1.61.19,3.2.03,4.76Z"/>
      <path class="cls-3" d="m149.35,213.07h-.27c.11,0,.22.03.33.05l-.05-.05Z"/>
      <path class="cls-5" d="m184.01,233.93c-.05-.87-.16-1.75-.3-2.62,0-.22-.03-.46-.08-.68-.16-.93-.36-1.8-.57-2.65-.22-.98-.49-1.94-.85-2.9-.3-.9-.6-1.8-.98-2.71-.44-1.04-.9-2.05-1.45-3.03-.41-.79-.85-1.56-1.34-2.35-.41-.66-.85-1.34-1.31-1.97-.27-.46-.6-.87-.93-1.28-.46-.66-.98-1.23-1.48-1.8-1.04-1.18-2.13-2.27-3.28-3.31-.55-.52-1.15-1.01-1.75-1.45-1.07-.82-2.16-1.61-3.31-2.32-.14-.08-.27-.16-.41-.25l-45.21-27.39-17.41-10.55-11.95-7.22-.05-.03h0s-14.21-8.69-14.73-9.02c-2.62-1.69-5.41-3.06-8.34-4.1-1.61-.55-3.23-.98-4.89-1.28-.82-.16-1.64-.3-2.46-.41-.82-.14-1.67-.22-2.51-.25-.85-.05-1.64-.11-2.51-.08-1.78,0-3.55.11-5.33.36-1.04.16-2.02.33-3.01.57-.98.22-1.97.46-2.92.79-.77.22-1.5.49-2.21.79-.68.25-1.34.52-1.97.82-.68.33-1.37.63-2.05.98-.68.36-1.31.71-1.94,1.12-.63.41-1.26.79-1.89,1.18-.63.41-1.2.87-1.8,1.31-.6.44-1.12.96-1.69,1.42s-1.12.98-1.64,1.53c-.71.71-1.39,1.45-2.08,2.21-1.91,2.27-3.58,4.76-4.97,7.38-2.16,4.18-3.5,8.75-3.99,13.42-.11,1.18-.19,2.35-.22,3.53s.05,2.3.14,3.44c.87,9.87,5.49,19,12.93,25.53h.03c3.66,3.2,7.93,5.63,12.52,7.22.87.27,1.83.55,2.73.79.14.08.27.11.41.08.79.22,1.56.36,2.38.49s1.72.3,2.6.38c.14.05.3.08.46.08.9.08,1.75.14,2.62.14.14.05.27.05.41.05,2.02.03,4.02-.11,6.01-.41,1.01-.14,2.02-.3,3.01-.55.87-.16,1.72-.41,2.54-.68.22-.03.44-.11.66-.19.87-.3,1.72-.63,2.54-.96.93-.36,1.86-.79,2.73-1.26.85-.41,1.69-.87,2.54-1.37.96-.57,1.91-1.2,2.79-1.89.71-.55,1.42-1.09,2.13-1.67.6-.49,1.2-1.04,1.75-1.61.41-.33.79-.71,1.15-1.12.57-.55,1.07-1.15,1.56-1.75,1.01-1.18,1.94-2.43,2.79-3.74.44-.63.82-1.26,1.18-1.91.66-1.18,1.26-2.38,1.8-3.61.05-.14.14-.3.19-.41l6.4-15.23-11.78-7.11-.22-.14v.03l-7.11,16.95c-.19.46-.41.9-.63,1.34-.38.85-.85,1.64-1.37,2.41l-.05.11c-.33.46-.63.9-.98,1.34-.38.55-.82,1.07-1.28,1.56-.82.96-1.72,1.8-2.71,2.6-1.45,1.18-3.01,2.16-4.67,2.98-2.27,1.09-4.73,1.83-7.22,2.16-.36.05-.71.08-1.07.14s-.79.05-1.2.05h-1.18c-.44.03-.87,0-1.31-.05-.57-.03-1.12-.08-1.67-.16-.44-.05-.87-.11-1.31-.22-.41-.08-.9-.16-1.34-.3-.52-.11-1.04-.27-1.53-.46-.49-.11-.98-.3-1.45-.52-2.98-1.15-5.66-2.9-7.93-5.14-.66-.63-1.26-1.28-1.8-1.97-1.5-1.86-2.71-3.94-3.53-6.15-.27-.57-.49-1.18-.66-1.78-.25-.79-.41-1.56-.6-2.35-.14-.68-.25-1.37-.33-2.05-.03-.16-.05-.36-.05-.55-.16-1.56-.16-3.14,0-4.73.25-2.21.79-4.4,1.61-6.48l.19-.46c.22-.55.49-1.07.74-1.53.3-.63.66-1.23,1.04-1.78.25-.52.57-1.01.98-1.42,1.15-1.67,2.51-3.14,4.1-4.4.87-.71,1.83-1.37,2.82-1.91.52-.33,1.07-.63,1.61-.9.55-.3,1.15-.57,1.75-.77.49-.22,1.01-.41,1.53-.57,1.37-.46,2.76-.79,4.18-.96.66-.11,1.31-.16,1.97-.19.55-.05,1.12-.05,1.67,0,.36-.03.71-.03,1.07.03.36,0,.68.03,1.04.05.82.05,1.67.19,2.46.41h.16c.85.19,1.67.46,2.51.71.03.05.08.03.11.05.98.33,1.91.71,2.84,1.18l.57.27c.66.33,30.83,18.59,30.83,18.59l35.53,21.7c-.63.25-1.39.6-2.24.98l-.98.46-.9.44c-.3.14-.6.3-.9.46-.49.25-.98.52-1.45.85-.68.41-1.37.85-2.05,1.28-.6.41-1.2.85-1.83,1.28-.05.05-.05.11-.11.11-.6.49-1.23.98-1.8,1.48-1.18,1.01-2.27,2.1-3.28,3.25-2.05,2.35-3.83,4.92-5.28,7.68-.77,1.5-1.45,3.06-2,4.65-.3.77-.55,1.56-.77,2.38s-.44,1.64-.6,2.43-.36,1.61-.41,2.43c-.27,1.78-.41,3.55-.41,5.33,0,1.01.03,2.05.14,3.06.05,1.01.19,2,.36,3.01.11.79.27,1.56.44,2.32.16.74.33,1.42.52,2.08.19.68.44,1.45.68,2.16.25.71.52,1.39.85,2.08.33.68.57,1.34.9,2.02.3.68.68,1.31,1.01,1.97.38.63.77,1.28,1.15,1.91s.85,1.26,1.26,1.86c.6.85,1.26,1.61,1.89,2.41,1.97,2.21,4.15,4.21,6.56,5.96,3.83,2.73,8.15,4.76,12.71,5.93,1.15.27,2.3.52,3.44.71,1.15.19,2.27.3,3.44.36,9.87.6,19.6-2.65,27.17-9.02v-.03c3.69-3.17,6.72-7,8.97-11.32.41-.85.82-1.72,1.2-2.6.08-.11.14-.25.16-.41.33-.77.6-1.5.85-2.3.25-.79.55-1.64.77-2.51.08-.14.14-.3.14-.46.19-.87.38-1.69.52-2.6.08-.11.11-.25.11-.38.33-2,.49-4.02.49-6.01-.08-.9-.16-1.94-.22-2.92Zm-13.8,4.37c-.05.38-.05.77-.14,1.18-.05.41-.11.74-.16,1.15-.05.44-.14.87-.25,1.28-.11.55-.25,1.07-.38,1.59-.14.44-.36,1.18-.52,1.61-.11.33-.27.68-.41.98-.19.49-.44.98-.68,1.45-.19.46-.44.93-.74,1.37-1.59,2.76-3.69,5.19-6.23,7.11-.71.55-1.45,1.04-2.21,1.5-2.05,1.2-4.29,2.08-6.61,2.6-.6.19-1.23.3-1.86.36-.79.14-1.61.22-2.41.25-.71.03-1.37.03-2.08,0h-.55c-1.56-.08-3.12-.3-4.65-.68-2.16-.57-4.24-1.42-6.18-2.57l-.41-.25c-.49-.3-.96-.63-1.42-.96-.57-.38-1.12-.82-1.61-1.28-.49-.33-.9-.74-1.28-1.18-1.48-1.37-2.73-2.95-3.74-4.7-.57-.98-1.09-2-1.48-3.06-.25-.57-.46-1.15-.66-1.75-.22-.6-.38-1.2-.52-1.83-.16-.52-.27-1.07-.36-1.61-.25-1.42-.38-2.84-.36-4.29,0-.66.05-1.31.11-1.97.03-.57.11-1.12.22-1.67.03-.36.08-.71.19-1.07.05-.33.11-.68.19-1.01.19-.82.44-1.61.77-2.38,0-.05,0-.08.05-.16.3-.79.71-1.61,1.07-2.38.05,0,.03-.05.05-.11.57-1.09,1.23-2.16,1.97-3.14.44-.6.9-1.18,1.39-1.72.36-.33.68-.71,1.01-1.07.68-.71,1.42-1.37,2.21-1.94.38-.33.79-.63,1.2-.9.87-.63,1.8-1.18,2.79-1.61,1.83-.93,3.77-1.61,5.79-2.05.44-.14.9-.22,1.37-.22.66-.16,1.34-.25,2.02-.22.19,0,.41-.03.63-.05,1.23-.08,2.46-.05,3.69.11h.33c2.79.14,5.49.98,7.9,2.43l1.39.85c.41.25.85.52,1.26.85.77.52,1.48,1.09,2.16,1.72l.11.05c.41.38.79.77,1.18,1.18.49.46.93.96,1.37,1.5.82.96,1.53,2,2.16,3.06.96,1.59,1.72,3.31,2.27,5.06.74,2.41,1.12,4.95,1.07,7.46,0,.44-.03.79-.03,1.15Z"/>
      <path class="cls-2" d="m163.51,141.54c.05.14.11.3.16.44l-.16-.44h0Z"/>
    </g>
  </g>
</svg>