<?xml version="1.0" encoding="utf-8"?>
<svg version="1.1" id="Layer_1" xmlns="http://www.w3.org/2000/svg" xmlns:xlink="http://www.w3.org/1999/xlink" x="0px" y="0px"
	 viewBox="0 0 100 100" style="enable-background:new 0 0 100 100;" xml:space="preserve">
	<style type="text/css">
		.st0{fill:#FFFFFF;}
		.st1{
			fill:#0ADD64;
			animation: rotate 10s cubic-bezier(0.01,-0.01, 0.99, 1) infinite;
			transform-origin: center center;
		}
		@keyframes rotate {
			0%    {transform: rotate(0deg)}
			100%  {transform: rotate(360deg)}
		}
	</style>
	<path class="st1" d="M99,50c0-3.4-1-6.7-2.8-9.3c0.6-3.2,0.3-6.5-1-9.7c-1.9-4.5-5.5-7.7-9.7-9.3c-0.6-4.5-3-8.7-6.9-11.5
		c-4.1-2.9-8.9-3.8-13.5-2.8c-2.9-3.6-7.2-6-12.2-6.3c-4.8-0.3-9.3,1.5-12.5,4.5c-4.2-1.4-9-1.2-13.3,1.1
		c-4.2,2.3-7.1,6.1-8.4,10.3c-4.3,1-8.3,3.7-10.7,7.8c-2.4,4.1-3,8.8-1.8,13C3,40.9,1,45.2,1,50c0,3.4,1,6.7,2.8,9.3
		c-0.6,3.2-0.3,6.5,1,9.7c1.9,4.5,5.5,7.7,9.7,9.3c0.6,4.5,3,8.7,6.9,11.5c4.1,2.9,8.9,3.8,13.5,2.8c2.9,3.6,7.2,6,12.2,6.3
		c4.8,0.3,9.3-1.5,12.5-4.5c4.2,1.4,9,1.2,13.3-1.1c4.2-2.3,7.1-6.1,8.4-10.3c4.3-1,8.3-3.7,10.7-7.8c2.4-4.1,3-8.8,1.8-13
		C97,59.1,99,54.8,99,50z M48.2,75.8L48.2,75.8c0,0,0,0.1,0,0.1C48.3,75.9,48.3,75.8,48.2,75.8z M51.8,24.2L51.8,24.2
		c0,0,0-0.1,0-0.1C51.7,24.1,51.7,24.2,51.8,24.2z"/>
	<path class="st0" d="M41.4,69.3c-5.8-5.7-11.5-11.3-17.3-17c1.9-1.9,3.8-3.8,5.7-5.8c3.8,3.7,7.5,7.4,11.3,11.1
		c8.4-9.1,16.7-18.2,25.1-27.3c2,1.8,4,3.7,6,5.5C61.9,47,51.7,58.1,41.4,69.3z"/>
</svg>
