<svg xmlns="http://www.w3.org/2000/svg" xmlns:xlink="http://www.w3.org/1999/xlink" viewBox="0 0 1921.03 1080"><defs><style>.cls-1,.cls-2{opacity:0.7;}.cls-1{fill:url(#linear-gradient);}.cls-2{fill:url(#linear-gradient-2);}.cls-3{fill:none;}.cls-4{opacity:0.3;}.cls-5{fill:#3a3a3a;}</style><linearGradient id="linear-gradient" x1="471.95" y1="910.98" x2="471.95" y2="-157.19" gradientUnits="userSpaceOnUse"><stop offset="0"/><stop offset="0.5" stop-color="#444"/><stop offset="1" stop-color="#212121"/></linearGradient><linearGradient id="linear-gradient-2" x1="734.84" y1="540" x2="1956.53" y2="540" xlink:href="#linear-gradient"/></defs><g id="Layer_2" data-name="Layer 2"><g id="OBJECTS"><rect width="1920" height="1080"/><path class="cls-1" d="M477.14,519.43c-246.79,123.07-68.57,386.38-53,560.57H0V0H919.9a245.41,245.41,0,0,1,23.8,100.48C952.44,514,658.24,429.13,477.14,519.43Z"/><path class="cls-2" d="M1920,0V1080h-57.42c-29.11-5.51-60.74-5.75-95.08,0h-689C938.88,962.79,854,781.84,913.17,616c100.94-282.89,388.36-143.56,640-392.51,88.41-87.46,69.13-167.75,75.86-223.53Z"/><rect class="cls-3" width="1920" height="1080"/><g class="cls-4"><polygon class="cls-5" points="1251.3 318 1921.03 21.26 1921.03 111.77 1251.3 318"/><polygon class="cls-5" points="1318.98 818.58 1921.03 1070.69 1921.03 964.43 1318.98 818.58"/><polygon class="cls-5" points="1482.68 625.41 1921.03 652.18 1921.03 714.79 1482.68 625.41"/></g></g></g></svg>