<svg xmlns="http://www.w3.org/2000/svg" xmlns:xlink="http://www.w3.org/1999/xlink" viewBox="0 0 1920 1080"><defs><style>.cls-1{isolation:isolate;}.cls-2{fill:#a6a6a6;opacity:0.13;}.cls-3{opacity:0.3;}.cls-10,.cls-100,.cls-101,.cls-102,.cls-103,.cls-104,.cls-105,.cls-106,.cls-107,.cls-108,.cls-109,.cls-11,.cls-110,.cls-111,.cls-112,.cls-113,.cls-114,.cls-115,.cls-116,.cls-117,.cls-118,.cls-119,.cls-12,.cls-120,.cls-121,.cls-13,.cls-14,.cls-15,.cls-16,.cls-17,.cls-18,.cls-19,.cls-20,.cls-21,.cls-22,.cls-23,.cls-24,.cls-25,.cls-26,.cls-27,.cls-28,.cls-29,.cls-30,.cls-31,.cls-32,.cls-33,.cls-34,.cls-35,.cls-36,.cls-37,.cls-38,.cls-39,.cls-4,.cls-40,.cls-41,.cls-42,.cls-43,.cls-44,.cls-45,.cls-46,.cls-47,.cls-48,.cls-49,.cls-5,.cls-50,.cls-51,.cls-52,.cls-53,.cls-54,.cls-55,.cls-56,.cls-57,.cls-58,.cls-59,.cls-6,.cls-60,.cls-61,.cls-62,.cls-63,.cls-64,.cls-65,.cls-66,.cls-67,.cls-68,.cls-69,.cls-7,.cls-70,.cls-71,.cls-72,.cls-73,.cls-74,.cls-75,.cls-76,.cls-77,.cls-78,.cls-79,.cls-8,.cls-80,.cls-81,.cls-82,.cls-83,.cls-84,.cls-85,.cls-86,.cls-87,.cls-88,.cls-89,.cls-9,.cls-90,.cls-91,.cls-92,.cls-93,.cls-94,.cls-95,.cls-96,.cls-97,.cls-98,.cls-99{mix-blend-mode:screen;}.cls-4{fill:url(#radial-gradient);}.cls-5{fill:url(#radial-gradient-2);}.cls-6{fill:url(#radial-gradient-3);}.cls-7{fill:url(#radial-gradient-4);}.cls-8{fill:url(#radial-gradient-5);}.cls-9{fill:url(#radial-gradient-6);}.cls-10{fill:url(#radial-gradient-7);}.cls-11{fill:url(#radial-gradient-8);}.cls-12{fill:url(#radial-gradient-9);}.cls-13{fill:url(#radial-gradient-10);}.cls-14{fill:url(#radial-gradient-11);}.cls-15{fill:url(#radial-gradient-12);}.cls-16{fill:url(#radial-gradient-13);}.cls-17{fill:url(#radial-gradient-14);}.cls-18{fill:url(#radial-gradient-15);}.cls-19{fill:url(#radial-gradient-16);}.cls-20{fill:url(#radial-gradient-17);}.cls-21{fill:url(#radial-gradient-18);}.cls-22{fill:url(#radial-gradient-19);}.cls-23{fill:url(#radial-gradient-20);}.cls-24{fill:url(#radial-gradient-21);}.cls-25{fill:url(#radial-gradient-22);}.cls-26{fill:url(#radial-gradient-23);}.cls-27{fill:url(#radial-gradient-24);}.cls-28{fill:url(#radial-gradient-25);}.cls-29{fill:url(#radial-gradient-26);}.cls-30{fill:url(#radial-gradient-27);}.cls-31{fill:url(#radial-gradient-28);}.cls-32{fill:url(#radial-gradient-29);}.cls-33{fill:url(#radial-gradient-30);}.cls-34{fill:url(#radial-gradient-31);}.cls-35{fill:url(#radial-gradient-32);}.cls-36{fill:url(#radial-gradient-33);}.cls-37{fill:url(#radial-gradient-34);}.cls-38{fill:url(#radial-gradient-35);}.cls-39{fill:url(#radial-gradient-36);}.cls-40{fill:url(#radial-gradient-37);}.cls-41{fill:url(#radial-gradient-38);}.cls-42{fill:url(#radial-gradient-39);}.cls-43{fill:url(#radial-gradient-40);}.cls-44{fill:url(#radial-gradient-41);}.cls-45{fill:url(#radial-gradient-42);}.cls-46{fill:url(#radial-gradient-43);}.cls-47{fill:url(#radial-gradient-44);}.cls-48{fill:url(#radial-gradient-45);}.cls-49{fill:url(#radial-gradient-46);}.cls-50{fill:url(#radial-gradient-47);}.cls-51{fill:url(#radial-gradient-48);}.cls-52{fill:url(#radial-gradient-49);}.cls-53{fill:url(#radial-gradient-50);}.cls-54{fill:url(#radial-gradient-51);}.cls-55{fill:url(#radial-gradient-52);}.cls-56{fill:url(#radial-gradient-53);}.cls-57{fill:url(#radial-gradient-54);}.cls-58{fill:url(#radial-gradient-55);}.cls-59{fill:url(#radial-gradient-56);}.cls-60{fill:url(#radial-gradient-57);}.cls-61{fill:url(#radial-gradient-58);}.cls-62{fill:url(#radial-gradient-59);}.cls-63{fill:url(#radial-gradient-60);}.cls-64{fill:url(#radial-gradient-61);}.cls-65{fill:url(#radial-gradient-62);}.cls-66{fill:url(#radial-gradient-63);}.cls-67{fill:url(#radial-gradient-64);}.cls-68{fill:url(#radial-gradient-65);}.cls-69{fill:url(#radial-gradient-66);}.cls-70{fill:url(#radial-gradient-67);}.cls-71{fill:url(#radial-gradient-68);}.cls-72{fill:url(#radial-gradient-69);}.cls-73{fill:url(#radial-gradient-70);}.cls-74{fill:url(#radial-gradient-71);}.cls-75{fill:url(#radial-gradient-72);}.cls-76{fill:url(#radial-gradient-73);}.cls-77{fill:url(#radial-gradient-74);}.cls-78{fill:url(#radial-gradient-75);}.cls-79{fill:url(#radial-gradient-76);}.cls-80{fill:url(#radial-gradient-77);}.cls-81{fill:url(#radial-gradient-78);}.cls-82{fill:url(#radial-gradient-79);}.cls-83{fill:url(#radial-gradient-80);}.cls-84{fill:url(#radial-gradient-81);}.cls-85{fill:url(#radial-gradient-82);}.cls-86{fill:url(#radial-gradient-83);}.cls-87{fill:url(#radial-gradient-84);}.cls-88{fill:url(#radial-gradient-85);}.cls-89{fill:url(#radial-gradient-86);}.cls-90{fill:url(#radial-gradient-87);}.cls-91{fill:url(#radial-gradient-88);}.cls-92{fill:url(#radial-gradient-89);}.cls-93{fill:url(#radial-gradient-90);}.cls-94{fill:url(#radial-gradient-91);}.cls-95{fill:url(#radial-gradient-92);}.cls-96{fill:url(#radial-gradient-93);}.cls-97{fill:url(#radial-gradient-94);}.cls-98{fill:url(#radial-gradient-95);}.cls-99{fill:url(#radial-gradient-96);}.cls-100{fill:url(#radial-gradient-97);}.cls-101{fill:url(#radial-gradient-98);}.cls-102{fill:url(#radial-gradient-99);}.cls-103{fill:url(#radial-gradient-100);}.cls-104{fill:url(#radial-gradient-101);}.cls-105{fill:url(#radial-gradient-102);}.cls-106{fill:url(#radial-gradient-103);}.cls-107{fill:url(#radial-gradient-104);}.cls-108{fill:url(#radial-gradient-105);}.cls-109{fill:url(#radial-gradient-106);}.cls-110{fill:url(#radial-gradient-107);}.cls-111{fill:url(#radial-gradient-108);}.cls-112{fill:url(#radial-gradient-109);}.cls-113{fill:url(#radial-gradient-110);}.cls-114{fill:url(#radial-gradient-111);}.cls-115{fill:url(#radial-gradient-112);}.cls-116{fill:url(#radial-gradient-113);}.cls-117{fill:url(#radial-gradient-114);}.cls-118{fill:url(#radial-gradient-115);}.cls-119{fill:url(#radial-gradient-116);}.cls-120{fill:url(#radial-gradient-117);}.cls-121{fill:url(#radial-gradient-118);}</style><radialGradient id="radial-gradient" cx="1897.06" cy="168.47" r="6.73" gradientUnits="userSpaceOnUse"><stop offset="0.45" stop-color="#a1def3"/><stop offset="0.52" stop-color="#7d0010"/><stop offset="1"/></radialGradient><radialGradient id="radial-gradient-2" cx="1909.02" cy="289.16" r="7.61" xlink:href="#radial-gradient"/><radialGradient id="radial-gradient-3" cx="1866.38" cy="224.55" r="4.04" xlink:href="#radial-gradient"/><radialGradient id="radial-gradient-4" cx="1833.88" cy="234.22" r="2.81" xlink:href="#radial-gradient"/><radialGradient id="radial-gradient-5" cx="1743.01" cy="258.82" r="4.74" xlink:href="#radial-gradient"/><radialGradient id="radial-gradient-6" cx="1698.09" cy="256.96" r="8.05" xlink:href="#radial-gradient"/><radialGradient id="radial-gradient-7" cx="1682.6" cy="358.07" r="5.92" xlink:href="#radial-gradient"/><radialGradient id="radial-gradient-8" cx="1683.33" cy="458.23" r="4.76" xlink:href="#radial-gradient"/><radialGradient id="radial-gradient-9" cx="1780.63" cy="509.94" r="8.19" xlink:href="#radial-gradient"/><radialGradient id="radial-gradient-10" cx="1704.61" cy="609.58" r="7.07" xlink:href="#radial-gradient"/><radialGradient id="radial-gradient-11" cx="1608.94" cy="668.32" r="3.61" xlink:href="#radial-gradient"/><radialGradient id="radial-gradient-12" cx="1641.75" cy="704.54" r="6.23" xlink:href="#radial-gradient"/><radialGradient id="radial-gradient-13" cx="1598.36" cy="731.19" r="7.83" xlink:href="#radial-gradient"/><radialGradient id="radial-gradient-14" cx="1588.93" cy="913.4" r="4.06" xlink:href="#radial-gradient"/><radialGradient id="radial-gradient-15" cx="1522.99" cy="955.36" r="3.34" gradientTransform="translate(2223.41 -700.42) rotate(80.83)" xlink:href="#radial-gradient"/><radialGradient id="radial-gradient-16" cx="1399.63" cy="902.67" r="6.42" xlink:href="#radial-gradient"/><radialGradient id="radial-gradient-17" cx="1318.71" cy="878.33" r="7.43" gradientTransform="translate(447.62 -445.17) rotate(22.98)" xlink:href="#radial-gradient"/><radialGradient id="radial-gradient-18" cx="1232.27" cy="741.99" r="3.28" xlink:href="#radial-gradient"/><radialGradient id="radial-gradient-19" cx="1161.6" cy="777.03" r="3.11" xlink:href="#radial-gradient"/><radialGradient id="radial-gradient-20" cx="1101.11" cy="889.84" r="4.65" xlink:href="#radial-gradient"/><radialGradient id="radial-gradient-21" cx="1020.69" cy="879.1" r="6.69" xlink:href="#radial-gradient"/><radialGradient id="radial-gradient-22" cx="919.23" cy="761.47" r="6.81" xlink:href="#radial-gradient"/><radialGradient id="radial-gradient-23" cx="879.1" cy="908.17" r="6.72" xlink:href="#radial-gradient"/><radialGradient id="radial-gradient-24" cx="752.81" cy="899" r="4.4" xlink:href="#radial-gradient"/><radialGradient id="radial-gradient-25" cx="740.1" cy="791.85" r="8.15" xlink:href="#radial-gradient"/><radialGradient id="radial-gradient-26" cx="810.17" cy="728.69" r="3.95" xlink:href="#radial-gradient"/><radialGradient id="radial-gradient-27" cx="770.21" cy="638.18" r="4.62" xlink:href="#radial-gradient"/><radialGradient id="radial-gradient-28" cx="735.06" cy="612.94" r="2.93" xlink:href="#radial-gradient"/><radialGradient id="radial-gradient-29" cx="693.63" cy="515.5" r="6.18" xlink:href="#radial-gradient"/><radialGradient id="radial-gradient-30" cx="598.74" cy="475.88" r="7.69" xlink:href="#radial-gradient"/><radialGradient id="radial-gradient-31" cx="534.27" cy="591.26" r="7.17" xlink:href="#radial-gradient"/><radialGradient id="radial-gradient-32" cx="436.73" cy="651.36" r="6.78" xlink:href="#radial-gradient"/><radialGradient id="radial-gradient-33" cx="396.59" cy="602.48" r="8.2" xlink:href="#radial-gradient"/><radialGradient id="radial-gradient-34" cx="327.31" cy="615.5" r="2.69" xlink:href="#radial-gradient"/><radialGradient id="radial-gradient-35" cx="362.82" cy="499.3" r="7.83" xlink:href="#radial-gradient"/><radialGradient id="radial-gradient-36" cx="316.47" cy="427.06" r="5.63" gradientTransform="translate(588.95 -29.32) rotate(67.38)" xlink:href="#radial-gradient"/><radialGradient id="radial-gradient-37" cx="436.67" cy="298.97" r="3.74" xlink:href="#radial-gradient"/><radialGradient id="radial-gradient-38" cx="394" cy="164.66" r="7.12" xlink:href="#radial-gradient"/><radialGradient id="radial-gradient-39" cx="197.02" cy="106.09" r="5.37" xlink:href="#radial-gradient"/><radialGradient id="radial-gradient-40" cx="174.79" cy="190.92" r="5.85" xlink:href="#radial-gradient"/><radialGradient id="radial-gradient-41" cx="145.27" cy="228.65" r="3.46" xlink:href="#radial-gradient"/><radialGradient id="radial-gradient-42" cx="110.83" cy="224.93" r="4.09" xlink:href="#radial-gradient"/><radialGradient id="radial-gradient-43" cx="1921.49" cy="227.98" r="5.93" xlink:href="#radial-gradient"/><radialGradient id="radial-gradient-44" cx="1883.74" cy="302.44" r="6.96" xlink:href="#radial-gradient"/><radialGradient id="radial-gradient-45" cx="1925.76" cy="341.58" r="6.28" xlink:href="#radial-gradient"/><radialGradient id="radial-gradient-46" cx="1842.95" cy="425.8" r="7.43" xlink:href="#radial-gradient"/><radialGradient id="radial-gradient-47" cx="1871.5" cy="474.58" r="3.76" xlink:href="#radial-gradient"/><radialGradient id="radial-gradient-48" cx="1843.94" cy="524.94" r="3.83" xlink:href="#radial-gradient"/><radialGradient id="radial-gradient-49" cx="1862.87" cy="565.72" r="3.62" xlink:href="#radial-gradient"/><radialGradient id="radial-gradient-50" cx="1882.83" cy="765.87" r="2.81" xlink:href="#radial-gradient"/><radialGradient id="radial-gradient-51" cx="1907.72" cy="798.98" r="8" xlink:href="#radial-gradient"/><radialGradient id="radial-gradient-52" cx="1817.29" cy="887.74" r="3.69" xlink:href="#radial-gradient"/><radialGradient id="radial-gradient-53" cx="1802.21" cy="843.76" r="3.38" xlink:href="#radial-gradient"/><radialGradient id="radial-gradient-54" cx="1746.03" cy="865.53" r="7.36" xlink:href="#radial-gradient"/><radialGradient id="radial-gradient-55" cx="1702.64" cy="1011.71" r="3.22" xlink:href="#radial-gradient"/><radialGradient id="radial-gradient-56" cx="1672.47" cy="852.16" r="7.77" xlink:href="#radial-gradient"/><radialGradient id="radial-gradient-57" cx="1629.88" cy="901.39" r="4.96" xlink:href="#radial-gradient"/><radialGradient id="radial-gradient-58" cx="1607.51" cy="897.47" r="7.19" xlink:href="#radial-gradient"/><radialGradient id="radial-gradient-59" cx="1543.3" cy="775.96" r="7.72" xlink:href="#radial-gradient"/><radialGradient id="radial-gradient-60" cx="1441.39" cy="868" r="6.69" xlink:href="#radial-gradient"/><radialGradient id="radial-gradient-61" cx="1346.41" cy="957.12" r="3.37" xlink:href="#radial-gradient"/><radialGradient id="radial-gradient-62" cx="1306.61" cy="890.09" r="7.86" xlink:href="#radial-gradient"/><radialGradient id="radial-gradient-63" cx="1233.59" cy="840.97" r="5.64" xlink:href="#radial-gradient"/><radialGradient id="radial-gradient-64" cx="1200.1" cy="851.38" r="4.22" xlink:href="#radial-gradient"/><radialGradient id="radial-gradient-65" cx="1125" cy="859.32" r="6.7" xlink:href="#radial-gradient"/><radialGradient id="radial-gradient-66" cx="1091.32" cy="879.94" r="2.67" xlink:href="#radial-gradient"/><radialGradient id="radial-gradient-67" cx="978.23" cy="874.57" r="3.07" gradientTransform="translate(413.22 -309.73) rotate(22.7)" xlink:href="#radial-gradient"/><radialGradient id="radial-gradient-68" cx="942.33" cy="935.18" r="7.9" xlink:href="#radial-gradient"/><radialGradient id="radial-gradient-69" cx="920.33" cy="931.32" r="6.34" gradientTransform="translate(1693.8 -125.13) rotate(80.87)" xlink:href="#radial-gradient"/><radialGradient id="radial-gradient-70" cx="884.74" cy="988.98" r="6.41" xlink:href="#radial-gradient"/><radialGradient id="radial-gradient-71" cx="856.9" cy="982.91" r="3.6" xlink:href="#radial-gradient"/><radialGradient id="radial-gradient-72" cx="837.85" cy="984.74" r="2.84" xlink:href="#radial-gradient"/><radialGradient id="radial-gradient-73" cx="819.96" cy="834.39" r="7.38" xlink:href="#radial-gradient"/><radialGradient id="radial-gradient-74" cx="697.88" cy="817.92" r="6" xlink:href="#radial-gradient"/><radialGradient id="radial-gradient-75" cx="634.63" cy="776.25" r="5.39" xlink:href="#radial-gradient"/><radialGradient id="radial-gradient-76" cx="537.66" cy="714.76" r="5.63" xlink:href="#radial-gradient"/><radialGradient id="radial-gradient-77" cx="455.55" cy="830.81" r="4.27" xlink:href="#radial-gradient"/><radialGradient id="radial-gradient-78" cx="365.23" cy="818.03" r="6.17" xlink:href="#radial-gradient"/><radialGradient id="radial-gradient-79" cx="314.6" cy="936.53" r="3.45" xlink:href="#radial-gradient"/><radialGradient id="radial-gradient-80" cx="240.99" cy="890.89" r="4.79" xlink:href="#radial-gradient"/><radialGradient id="radial-gradient-81" cx="261.86" cy="772.51" r="3.69" xlink:href="#radial-gradient"/><radialGradient id="radial-gradient-82" cx="187.52" cy="746.22" r="5.52" xlink:href="#radial-gradient"/><radialGradient id="radial-gradient-83" cx="260.67" cy="693.38" r="6.85" xlink:href="#radial-gradient"/><radialGradient id="radial-gradient-84" cx="364.66" cy="638.5" r="2.61" gradientTransform="translate(936.72 176.54) rotate(80.81)" xlink:href="#radial-gradient"/><radialGradient id="radial-gradient-85" cx="287.49" cy="544.65" r="5.97" xlink:href="#radial-gradient"/><radialGradient id="radial-gradient-86" cx="252.04" cy="500.5" r="3.16" xlink:href="#radial-gradient"/><radialGradient id="radial-gradient-87" cx="213.71" cy="365.25" r="4.69" gradientTransform="translate(157.45 -54.17) rotate(22.69)" xlink:href="#radial-gradient"/><radialGradient id="radial-gradient-88" cx="240.59" cy="335.04" r="7.11" xlink:href="#radial-gradient"/><radialGradient id="radial-gradient-89" cx="119.55" cy="308.28" r="4.09" xlink:href="#radial-gradient"/><radialGradient id="radial-gradient-90" cx="185" cy="192.42" r="5.89" xlink:href="#radial-gradient"/><radialGradient id="radial-gradient-91" cx="239.64" cy="114.69" r="4.22" xlink:href="#radial-gradient"/><radialGradient id="radial-gradient-92" cx="887.62" cy="872.47" r="6.01" xlink:href="#radial-gradient"/><radialGradient id="radial-gradient-93" cx="855.83" cy="810.68" r="2.92" xlink:href="#radial-gradient"/><radialGradient id="radial-gradient-94" cx="801.69" cy="803.31" r="3.6" xlink:href="#radial-gradient"/><radialGradient id="radial-gradient-95" cx="698.41" cy="843.81" r="5.65" xlink:href="#radial-gradient"/><radialGradient id="radial-gradient-96" cx="659.63" cy="933.27" r="5.76" xlink:href="#radial-gradient"/><radialGradient id="radial-gradient-97" cx="612.94" cy="844.35" r="6.99" xlink:href="#radial-gradient"/><radialGradient id="radial-gradient-98" cx="540.91" cy="925.59" r="6.17" xlink:href="#radial-gradient"/><radialGradient id="radial-gradient-99" cx="454.99" cy="887.98" r="4.43" xlink:href="#radial-gradient"/><radialGradient id="radial-gradient-100" cx="415.36" cy="1028.74" r="6.63" xlink:href="#radial-gradient"/><radialGradient id="radial-gradient-101" cx="334.34" cy="1053.57" r="2.75" xlink:href="#radial-gradient"/><radialGradient id="radial-gradient-102" cx="272.64" cy="937.91" r="7.47" xlink:href="#radial-gradient"/><radialGradient id="radial-gradient-103" cx="212.43" cy="936.86" r="5.3" xlink:href="#radial-gradient"/><radialGradient id="radial-gradient-104" cx="103.65" cy="958.24" r="3.79" xlink:href="#radial-gradient"/><radialGradient id="radial-gradient-105" cx="80.69" cy="943.32" r="3.82" xlink:href="#radial-gradient"/><radialGradient id="radial-gradient-106" cx="20.96" cy="856.54" r="5.83" xlink:href="#radial-gradient"/><radialGradient id="radial-gradient-107" cx="50.93" cy="788.7" r="7.48" xlink:href="#radial-gradient"/><radialGradient id="radial-gradient-108" cx="60.88" cy="790.73" r="6.15" xlink:href="#radial-gradient"/><radialGradient id="radial-gradient-109" cx="55.28" cy="720.4" r="4.97" xlink:href="#radial-gradient"/><radialGradient id="radial-gradient-110" cx="58.34" cy="599.87" r="6.16" xlink:href="#radial-gradient"/><radialGradient id="radial-gradient-111" cx="3.54" cy="546.44" r="5.43" xlink:href="#radial-gradient"/><radialGradient id="radial-gradient-112" cx="138.97" cy="498.52" r="5.98" xlink:href="#radial-gradient"/><radialGradient id="radial-gradient-113" cx="78.64" cy="419.42" r="5.35" xlink:href="#radial-gradient"/><radialGradient id="radial-gradient-114" cx="40.11" cy="364.28" r="3.95" xlink:href="#radial-gradient"/><radialGradient id="radial-gradient-115" cx="163.77" cy="418.46" r="4.03" xlink:href="#radial-gradient"/><radialGradient id="radial-gradient-116" cx="102.39" cy="275.85" r="3.67" xlink:href="#radial-gradient"/><radialGradient id="radial-gradient-117" cx="268.86" cy="229.37" r="7.89" xlink:href="#radial-gradient"/><radialGradient id="radial-gradient-118" cx="163.85" cy="79.15" r="5.64" gradientTransform="translate(215.85 -95.23) rotate(80.82)" xlink:href="#radial-gradient"/></defs><g class="cls-1"><g id="Layer_1" data-name="Layer 1"><rect width="1920" height="1080"/><path class="cls-2" d="M2047.17,305.58v-22l-61.8-247.07-9.65-38.59h-1.94l73.28,293a7.83,7.83,0,0,0-5,6.82l-966.77,52.05-8.44.45c0-.26-.12-.51-.19-.77L1910.72-2.08h-4.88L1065.93,347.7a7.84,7.84,0,0,0-6.82-4,7.32,7.32,0,0,0-1,.1L968.42-2.08h-1.94l89.76,346.32a7.85,7.85,0,0,0-4.9,6.27l-377.21-5.12a7.87,7.87,0,0,0-6.2-6.88L696.43-2.08h-1.88L666.06,338.38a7.86,7.86,0,0,0-6.43,3.77L288.47,173.88,203.2,135.22a7.69,7.69,0,0,0,.4-2.36,7.81,7.81,0,0,0-3-6.15L279.15-2.08H277l-78,127.8a7.73,7.73,0,0,0-8.65,1.44L35.15-2.08H32.22L189.13,128.59a7.84,7.84,0,0,0-1.27,4.27,7.75,7.75,0,0,0,1.14,4L-112.94,370.12v2.36l303.06-234.1a7.94,7.94,0,0,0,3.78,2.12L100.15,954.42a7.87,7.87,0,0,0-6.66,3.79l-206.43-93.89v2.06L92.72,959.92a8.12,8.12,0,0,0-.4,2.37,7.71,7.71,0,0,0,.53,2.77L-112.94,1072.3v2.12l42.53-22.16L93.7,966.73a7.81,7.81,0,0,0,3.72,2.9L70.74,1078h1.93L99.24,970.06a7.65,7.65,0,0,0,1,.1,7.78,7.78,0,0,0,3.41-.81L173.18,1078h2.23L105.18,968.33a7.83,7.83,0,0,0,2.88-6,7.74,7.74,0,0,0-.1-1l940.28-236.24a7.82,7.82,0,0,0,6.34,5L1052.43,1078h1.87l1-158.84L1056.46,730a7.82,7.82,0,0,0,5.7-3.5L1778.87,1078h4.26L1063,724.85a8,8,0,0,0,.46-2.5l283.69-30.75L1564.52,668a7.83,7.83,0,0,0,11.93,4.82l285.84,343.31,51.46,61.81h2.44L1696.07,813.6l-118.19-142a7.8,7.8,0,0,0,2.17-5.39,7.93,7.93,0,0,0-.47-2.59l467.59-229.55V432l-467,229.27,464.1-357.58A7.85,7.85,0,0,0,2047.17,305.58ZM104.78,955.92a8,8,0,0,0-2.76-1.27l93.75-813.92a7.82,7.82,0,0,0,6.66-3.8L658.87,343.86a7.69,7.69,0,0,0-.4,2.36,7.78,7.78,0,0,0,1.92,5.09ZM1047.7,722.26a6.51,6.51,0,0,0,.1,1L107.52,959.48a7.66,7.66,0,0,0-1.37-2.28L661.76,352.6a7.75,7.75,0,0,0,9.52-.3l378,365.23A7.75,7.75,0,0,0,1047.7,722.26Zm7-7.78a7.82,7.82,0,0,0-4.08,1.71L672.59,351a7.79,7.79,0,0,0,1.51-3.7l377.22,5.13a7.81,7.81,0,0,0,6.77,6.93Zm509.62-48.31-501.1,54.32a7.84,7.84,0,0,0-6.64-6L1060,359.34a7.85,7.85,0,0,0,5.28-2.92L1565,663A7.73,7.73,0,0,0,1564.32,666.17Zm40.91-26.56-27.44,21.14a7.81,7.81,0,0,0-11.75.64l-499.8-306.56a7.73,7.73,0,0,0,.68-2.76l975.21-52.5a7.58,7.58,0,0,0,1,2.65ZM2022.83,1078l24.34-186.63V876.83L2020.94,1078Z"/><g class="cls-3"><path class="cls-4" d="M1903.79,168.47a6.73,6.73,0,1,1-6.73-6.73A6.73,6.73,0,0,1,1903.79,168.47Z"/><path class="cls-5" d="M1916.63,289.16a7.62,7.62,0,1,1-7.61-7.61A7.61,7.61,0,0,1,1916.63,289.16Z"/><path class="cls-6" d="M1870.42,224.55a4,4,0,1,1-4-4A4,4,0,0,1,1870.42,224.55Z"/><path class="cls-7" d="M1836.7,234.22a2.82,2.82,0,1,1-2.82-2.82A2.81,2.81,0,0,1,1836.7,234.22Z"/><path class="cls-8" d="M1747.75,258.82a4.74,4.74,0,1,1-4.74-4.74A4.74,4.74,0,0,1,1747.75,258.82Z"/><circle class="cls-9" cx="1698.09" cy="256.96" r="8.05"/><path class="cls-10" d="M1688.51,358.07a5.92,5.92,0,1,1-5.91-5.91A5.92,5.92,0,0,1,1688.51,358.07Z"/><circle class="cls-11" cx="1683.33" cy="458.23" r="4.76"/><path class="cls-12" d="M1788.82,509.94a8.19,8.19,0,1,1-8.19-8.19A8.19,8.19,0,0,1,1788.82,509.94Z"/><path class="cls-13" d="M1711.67,609.58a7.07,7.07,0,1,1-7.06-7.07A7.07,7.07,0,0,1,1711.67,609.58Z"/><path class="cls-14" d="M1612.55,668.32a3.61,3.61,0,1,1-3.61-3.62A3.61,3.61,0,0,1,1612.55,668.32Z"/><path class="cls-15" d="M1648,704.54a6.23,6.23,0,1,1-6.23-6.23A6.23,6.23,0,0,1,1648,704.54Z"/><path class="cls-16" d="M1606.2,731.19a7.84,7.84,0,1,1-7.84-7.84A7.83,7.83,0,0,1,1606.2,731.19Z"/><path class="cls-17" d="M1593,913.4a4.07,4.07,0,1,1-4.07-4.07A4.07,4.07,0,0,1,1593,913.4Z"/><circle class="cls-18" cx="1522.99" cy="955.36" r="3.34" transform="translate(337.12 2306.62) rotate(-80.83)"/><path class="cls-19" d="M1406.05,902.67a6.43,6.43,0,1,1-6.42-6.42A6.43,6.43,0,0,1,1406.05,902.67Z"/><circle class="cls-20" cx="1318.71" cy="878.33" r="7.43" transform="translate(-238.27 584.61) rotate(-22.98)"/><path class="cls-21" d="M1235.55,742a3.28,3.28,0,1,1-3.28-3.28A3.28,3.28,0,0,1,1235.55,742Z"/><path class="cls-22" d="M1164.7,777a3.11,3.11,0,1,1-3.1-3.1A3.1,3.1,0,0,1,1164.7,777Z"/><path class="cls-23" d="M1105.76,889.84a4.66,4.66,0,1,1-4.65-4.65A4.65,4.65,0,0,1,1105.76,889.84Z"/><path class="cls-24" d="M1027.39,879.1a6.7,6.7,0,1,1-6.7-6.69A6.69,6.69,0,0,1,1027.39,879.1Z"/><path class="cls-25" d="M926,761.47a6.81,6.81,0,1,1-6.81-6.81A6.81,6.81,0,0,1,926,761.47Z"/><path class="cls-26" d="M885.82,908.17a6.72,6.72,0,1,1-6.72-6.72A6.72,6.72,0,0,1,885.82,908.17Z"/><path class="cls-27" d="M757.22,899a4.41,4.41,0,1,1-4.41-4.41A4.41,4.41,0,0,1,757.22,899Z"/><path class="cls-28" d="M748.25,791.85a8.15,8.15,0,1,1-8.15-8.15A8.15,8.15,0,0,1,748.25,791.85Z"/><circle class="cls-29" cx="810.17" cy="728.69" r="3.95"/><circle class="cls-30" cx="770.21" cy="638.18" r="4.62"/><path class="cls-31" d="M738,612.94a2.93,2.93,0,1,1-2.93-2.93A2.93,2.93,0,0,1,738,612.94Z"/><path class="cls-32" d="M699.81,515.5a6.18,6.18,0,1,1-6.18-6.19A6.18,6.18,0,0,1,699.81,515.5Z"/><path class="cls-33" d="M606.43,475.88a7.7,7.7,0,1,1-7.69-7.69A7.69,7.69,0,0,1,606.43,475.88Z"/><path class="cls-34" d="M541.44,591.26a7.17,7.17,0,1,1-7.17-7.17A7.17,7.17,0,0,1,541.44,591.26Z"/><circle class="cls-35" cx="436.73" cy="651.36" r="6.78"/><path class="cls-36" d="M404.79,602.48a8.2,8.2,0,1,1-8.2-8.19A8.2,8.2,0,0,1,404.79,602.48Z"/><circle class="cls-37" cx="327.31" cy="615.5" r="2.69"/><circle class="cls-38" cx="362.82" cy="499.3" r="7.83"/><circle class="cls-39" cx="316.47" cy="427.06" r="5.63" transform="translate(-199.47 554.92) rotate(-67.38)"/><circle class="cls-40" cx="436.67" cy="298.97" r="3.74"/><circle class="cls-41" cx="394" cy="164.66" r="7.12"/><circle class="cls-42" cx="197.02" cy="106.09" r="5.37"/><path class="cls-43" d="M180.64,190.92a5.85,5.85,0,1,1-5.85-5.85A5.85,5.85,0,0,1,180.64,190.92Z"/><path class="cls-44" d="M148.74,228.65a3.47,3.47,0,1,1-3.47-3.47A3.47,3.47,0,0,1,148.74,228.65Z"/><path class="cls-45" d="M114.92,224.93a4.09,4.09,0,1,1-4.09-4.09A4.09,4.09,0,0,1,114.92,224.93Z"/><path class="cls-46" d="M1927.42,228a5.93,5.93,0,1,1-5.93-5.93A5.92,5.92,0,0,1,1927.42,228Z"/><circle class="cls-47" cx="1883.74" cy="302.44" r="6.96"/><path class="cls-48" d="M1932,341.58a6.28,6.28,0,1,1-6.28-6.28A6.28,6.28,0,0,1,1932,341.58Z"/><path class="cls-49" d="M1850.38,425.8a7.44,7.44,0,1,1-7.43-7.44A7.43,7.43,0,0,1,1850.38,425.8Z"/><path class="cls-50" d="M1875.25,474.58a3.76,3.76,0,1,1-3.75-3.76A3.76,3.76,0,0,1,1875.25,474.58Z"/><path class="cls-51" d="M1847.77,524.94a3.83,3.83,0,1,1-3.83-3.83A3.82,3.82,0,0,1,1847.77,524.94Z"/><circle class="cls-52" cx="1862.87" cy="565.72" r="3.62"/><path class="cls-53" d="M1885.64,765.87a2.81,2.81,0,1,1-2.81-2.81A2.8,2.8,0,0,1,1885.64,765.87Z"/><path class="cls-54" d="M1915.72,799a8,8,0,1,1-8-8A8,8,0,0,1,1915.72,799Z"/><circle class="cls-55" cx="1817.29" cy="887.74" r="3.69"/><circle class="cls-56" cx="1802.21" cy="843.76" r="3.38"/><path class="cls-57" d="M1753.39,865.53a7.36,7.36,0,1,1-7.36-7.36A7.36,7.36,0,0,1,1753.39,865.53Z"/><circle class="cls-58" cx="1702.64" cy="1011.71" r="3.22"/><path class="cls-59" d="M1680.24,852.16a7.77,7.77,0,1,1-7.77-7.78A7.77,7.77,0,0,1,1680.24,852.16Z"/><path class="cls-60" d="M1634.84,901.39a5,5,0,1,1-5-5A5,5,0,0,1,1634.84,901.39Z"/><path class="cls-61" d="M1614.7,897.47a7.19,7.19,0,1,1-7.19-7.19A7.19,7.19,0,0,1,1614.7,897.47Z"/><path class="cls-62" d="M1551,776a7.72,7.72,0,1,1-7.72-7.72A7.72,7.72,0,0,1,1551,776Z"/><path class="cls-63" d="M1448.07,868a6.69,6.69,0,1,1-6.68-6.68A6.68,6.68,0,0,1,1448.07,868Z"/><path class="cls-64" d="M1349.78,957.12a3.38,3.38,0,1,1-3.37-3.37A3.37,3.37,0,0,1,1349.78,957.12Z"/><path class="cls-65" d="M1314.47,890.09a7.87,7.87,0,1,1-7.86-7.86A7.86,7.86,0,0,1,1314.47,890.09Z"/><path class="cls-66" d="M1239.24,841a5.65,5.65,0,1,1-5.65-5.64A5.65,5.65,0,0,1,1239.24,841Z"/><path class="cls-67" d="M1204.31,851.38a4.22,4.22,0,1,1-4.21-4.21A4.21,4.21,0,0,1,1204.31,851.38Z"/><circle class="cls-68" cx="1125" cy="859.32" r="6.7"/><path class="cls-69" d="M1094,879.94a2.67,2.67,0,1,1-2.67-2.67A2.67,2.67,0,0,1,1094,879.94Z"/><circle class="cls-70" cx="978.23" cy="874.57" r="3.07" transform="translate(-261.71 445.19) rotate(-22.7)"/><path class="cls-71" d="M950.23,935.18a7.9,7.9,0,1,1-7.9-7.9A7.9,7.9,0,0,1,950.23,935.18Z"/><circle class="cls-72" cx="920.33" cy="931.32" r="6.34" transform="translate(-145.24 1692.19) rotate(-80.87)"/><path class="cls-73" d="M891.15,989a6.41,6.41,0,1,1-6.41-6.41A6.41,6.41,0,0,1,891.15,989Z"/><circle class="cls-74" cx="856.9" cy="982.91" r="3.6"/><path class="cls-75" d="M840.69,984.74a2.84,2.84,0,1,1-2.84-2.84A2.84,2.84,0,0,1,840.69,984.74Z"/><path class="cls-76" d="M827.34,834.39A7.38,7.38,0,1,1,820,827,7.38,7.38,0,0,1,827.34,834.39Z"/><circle class="cls-77" cx="697.88" cy="817.92" r="6"/><circle class="cls-78" cx="634.63" cy="776.25" r="5.39"/><path class="cls-79" d="M543.29,714.76a5.63,5.63,0,1,1-5.63-5.63A5.63,5.63,0,0,1,543.29,714.76Z"/><path class="cls-80" d="M459.82,830.81a4.27,4.27,0,1,1-4.27-4.27A4.27,4.27,0,0,1,459.82,830.81Z"/><path class="cls-81" d="M371.39,818a6.17,6.17,0,1,1-6.16-6.17A6.16,6.16,0,0,1,371.39,818Z"/><path class="cls-82" d="M318.05,936.53a3.45,3.45,0,1,1-3.45-3.45A3.44,3.44,0,0,1,318.05,936.53Z"/><path class="cls-83" d="M245.78,890.89A4.79,4.79,0,1,1,241,886.1,4.8,4.8,0,0,1,245.78,890.89Z"/><path class="cls-84" d="M265.54,772.51a3.69,3.69,0,1,1-3.68-3.68A3.69,3.69,0,0,1,265.54,772.51Z"/><path class="cls-85" d="M193,746.22a5.53,5.53,0,1,1-5.52-5.52A5.53,5.53,0,0,1,193,746.22Z"/><circle class="cls-86" cx="260.67" cy="693.38" r="6.85"/><circle class="cls-87" cx="364.66" cy="638.5" r="2.61" transform="translate(-323.89 896.5) rotate(-80.81)"/><circle class="cls-88" cx="287.49" cy="544.65" r="5.97"/><path class="cls-89" d="M255.21,500.5a3.17,3.17,0,1,1-3.17-3.17A3.17,3.17,0,0,1,255.21,500.5Z"/><circle class="cls-90" cx="213.71" cy="365.25" r="4.69" transform="translate(-124.36 110.72) rotate(-22.69)"/><path class="cls-91" d="M247.71,335a7.12,7.12,0,1,1-7.12-7.11A7.11,7.11,0,0,1,247.71,335Z"/><path class="cls-92" d="M123.64,308.28a4.09,4.09,0,1,1-4.09-4.09A4.09,4.09,0,0,1,123.64,308.28Z"/><path class="cls-93" d="M190.88,192.42a5.89,5.89,0,1,1-5.88-5.89A5.89,5.89,0,0,1,190.88,192.42Z"/><path class="cls-94" d="M243.86,114.69a4.23,4.23,0,1,1-4.22-4.22A4.22,4.22,0,0,1,243.86,114.69Z"/><circle class="cls-95" cx="887.62" cy="872.47" r="6.01"/><path class="cls-96" d="M858.76,810.68a2.93,2.93,0,1,1-2.93-2.92A2.93,2.93,0,0,1,858.76,810.68Z"/><circle class="cls-97" cx="801.69" cy="803.31" r="3.6"/><path class="cls-98" d="M704.06,843.81a5.65,5.65,0,1,1-5.65-5.65A5.65,5.65,0,0,1,704.06,843.81Z"/><path class="cls-99" d="M665.38,933.27a5.76,5.76,0,1,1-5.75-5.75A5.75,5.75,0,0,1,665.38,933.27Z"/><path class="cls-100" d="M619.93,844.35a7,7,0,1,1-7-7A7,7,0,0,1,619.93,844.35Z"/><circle class="cls-101" cx="540.91" cy="925.59" r="6.17"/><circle class="cls-102" cx="454.99" cy="887.98" r="4.43"/><path class="cls-103" d="M422,1028.74a6.63,6.63,0,1,1-6.63-6.63A6.63,6.63,0,0,1,422,1028.74Z"/><circle class="cls-104" cx="334.34" cy="1053.57" r="2.75"/><path class="cls-105" d="M280.12,937.91a7.48,7.48,0,1,1-7.48-7.47A7.48,7.48,0,0,1,280.12,937.91Z"/><path class="cls-106" d="M217.73,936.86a5.3,5.3,0,1,1-5.3-5.29A5.3,5.3,0,0,1,217.73,936.86Z"/><path class="cls-107" d="M107.44,958.24a3.79,3.79,0,1,1-3.79-3.79A3.79,3.79,0,0,1,107.44,958.24Z"/><path class="cls-108" d="M84.5,943.32a3.82,3.82,0,1,1-3.81-3.82A3.82,3.82,0,0,1,84.5,943.32Z"/><path class="cls-109" d="M26.79,856.54A5.83,5.83,0,1,1,21,850.71,5.83,5.83,0,0,1,26.79,856.54Z"/><path class="cls-110" d="M58.41,788.7a7.48,7.48,0,1,1-7.48-7.48A7.48,7.48,0,0,1,58.41,788.7Z"/><circle class="cls-111" cx="60.88" cy="790.73" r="6.15"/><path class="cls-112" d="M60.24,720.4a5,5,0,1,1-5-5A5,5,0,0,1,60.24,720.4Z"/><path class="cls-113" d="M64.5,599.87a6.16,6.16,0,1,1-6.16-6.16A6.16,6.16,0,0,1,64.5,599.87Z"/><path class="cls-114" d="M9,546.44A5.44,5.44,0,1,1,3.54,541,5.44,5.44,0,0,1,9,546.44Z"/><path class="cls-115" d="M145,498.52a6,6,0,1,1-6-6A6,6,0,0,1,145,498.52Z"/><path class="cls-116" d="M84,419.42a5.36,5.36,0,1,1-5.35-5.36A5.36,5.36,0,0,1,84,419.42Z"/><path class="cls-117" d="M44.06,364.28a4,4,0,1,1-4-4A4,4,0,0,1,44.06,364.28Z"/><path class="cls-118" d="M167.8,418.46a4,4,0,1,1-4-4A4,4,0,0,1,167.8,418.46Z"/><circle class="cls-119" cx="102.39" cy="275.85" r="3.67"/><path class="cls-120" d="M276.75,229.37a7.9,7.9,0,1,1-7.89-7.89A7.9,7.9,0,0,1,276.75,229.37Z"/><circle class="cls-121" cx="163.85" cy="79.15" r="5.64" transform="translate(59.57 228.27) rotate(-80.82)"/></g></g></g></svg>