<svg id="Layer_1" data-name="Layer 1" xmlns="http://www.w3.org/2000/svg" xmlns:xlink="http://www.w3.org/1999/xlink" viewBox="0 0 400 763"><defs><linearGradient id="linear-gradient" x1="55.29" y1="282.29" x2="284.38" y2="282.29" gradientUnits="userSpaceOnUse"><stop offset="0" stop-color="#00ffaf"/><stop offset="0.06" stop-color="#00edad"/><stop offset="0.32" stop-color="#00a6a7"/><stop offset="0.55" stop-color="#006ea2"/><stop offset="0.75" stop-color="#00469f"/><stop offset="0.91" stop-color="#002d9d"/><stop offset="1" stop-color="#00249c"/></linearGradient><linearGradient id="linear-gradient-2" x1="103.72" y1="254.35" x2="236.17" y2="254.35" xlink:href="#linear-gradient"/><linearGradient id="linear-gradient-3" x1="-761.96" y1="-1294.08" x2="-503.19" y2="-1019.9" gradientTransform="translate(-495.41 -771.56) rotate(180)" xlink:href="#linear-gradient"/><linearGradient id="linear-gradient-4" x1="-951.41" y1="407.33" x2="-691.92" y2="682.26" gradientTransform="matrix(-1, 0, 0, 1, -612.65, 0)" xlink:href="#linear-gradient"/><linearGradient id="linear-gradient-5" x1="-1026.22" y1="470.03" x2="-766.74" y2="744.97" gradientTransform="matrix(-1, 0, 0, 1, -612.65, 0)" xlink:href="#linear-gradient"/><linearGradient id="linear-gradient-6" x1="-809.61" y1="-1303.06" x2="-550.13" y2="-1028.12" gradientTransform="translate(-477.34 -541.21) rotate(180)" xlink:href="#linear-gradient"/></defs><rect x="8.51" y="13.73" width="382.84" height="735.6" rx="55.43" style="fill:#fff"/><g id="Group_1105" data-name="Group 1105"><path id="Path_2329" data-name="Path 2329" d="M10.18,381.66q0,152.71,0,305.43c0,9.78.24,19.52,5,28.59,11,20.92,28,32,51.71,32,88.72.07,177.43-.07,266.15.08,26.32,0,46.88-17.76,54-40.57a65.26,65.26,0,0,0,2.83-19.63q-.06-65.88,0-131.77c0-1.44-.05-2.88,0-4.31.06-1.11-.31-2.72,1.62-2.55,1.37.12,1.22,1.41,1.28,2.38.06,1.23,0,2.47,0,3.7,0,44.75.08,89.49,0,134.24,0,15.09-4,28.77-14.3,40.56-12.13,13.89-27,20.78-45.34,20.77q-133.08-.11-266.14,0c-12.27,0-24.41-1.42-34.42-9.15-16.42-12.67-26.32-29-25.36-50.51.08-1.85,0-3.7,0-5.55q0-305.11,0-610.22c0-11.4.73-22.71,6.51-32.8C23.6,25.08,38.54,15.11,58.44,13a96.23,96.23,0,0,1,10.46-.48l262.45-.07c25.77,0,44.32,11.32,56,34.06,4.25,8.32,5.46,17.5,5.46,26.7q.11,227.22.05,454.44c0,.82.06,1.64,0,2.46-.12,1.31.43,3.42-1.65,3.25s-1.13-2.26-1.25-3.55,0-2.87,0-4.3q0-224.46,0-448.9c0-16.66-4.05-32-16.06-44.22-7.49-7.64-16.87-12-27.12-15-8.44-2.44-17-2.09-25.52-2.09q-126,0-252,0c-13.7,0-26.54,3.12-37.55,11.57C16.26,38.63,10,54.65,10.11,73.79c.22,35.09.06,70.19.06,105.29Q10.17,280.38,10.18,381.66Z" style="fill:#777"/><path id="Path_2330" data-name="Path 2330" d="M26.89,159.34c2.53,2.12,1.3,5,1.3,7.48q.09,260.76,0,521.53c0,16.35,5.77,29.13,20.61,37,5.94,3.17,12.45,4.1,19.08,4.1q132.14,0,264.3,0c24,0,39-15.18,39.17-39.41.17-20.73,0-41.46,0-62.19q0-276.18.16-552.36c0-16.25-5.39-28.47-19.17-37.11a32.51,32.51,0,0,0-17.55-4.81c-15.2-.09-30.39-.15-45.59,0-8.31.07-11.77,3.26-13.34,11.51-2.59,13.65-10.4,20.34-24.21,20.36q-51.75.1-103.51,0c-14,0-21.4-6.45-24-20.36-1.52-7.93-5.34-11.48-13.45-11.57-15.2-.17-30.41-.43-45.59.08-22,.74-36.67,16.39-36.8,38.79-.14,25,0,50.08-.09,75.12,0,2.3,1.11,5-1.33,6.87a3.44,3.44,0,0,1-1.35-3.23c.11-28.52-.28-57.06.52-85.57A35.54,35.54,0,0,1,58.61,31.29a331.49,331.49,0,0,1,55.92.1,12.91,12.91,0,0,1,12,11.67c1.3,13.64,11.65,19.78,23.43,19.65,33.26-.38,66.53-.12,99.8-.14,14.19,0,19.59-4.59,22.57-19,1.59-7.73,6.69-12.73,15.12-12.83,17.64-.19,35.3-1.1,52.92.58,19.27,1.84,32.13,18.39,33.81,35.47.24,2.44.2,4.92.2,7.38q0,307.25.1,614.5c0,17.34-6.48,30.56-21.64,39-6,3.31-12.32,6.2-19.6,4.86a23.86,23.86,0,0,0-4.31-.06c-86.45,0-172.9-.17-259.35.2-11.15,0-20.92-2-29.55-8.87a36.38,36.38,0,0,1-13.84-24.41,99.23,99.23,0,0,1-.6-12.9q0-227.5,0-455c0-22,0-43.92,0-65.87C25.58,163.5,24.6,161,26.89,159.34Z" style="fill:#777"/><path id="Path_2331" data-name="Path 2331" d="M201.33,702.52c14.95,0,29.91,0,44.86,0,2.12,0,5.36-.75,5.52,2.26.19,3.35-2.91,3.89-5.76,3.89H154.38c-2.26,0-5.08.19-5.17-2.89-.1-3.58,3-3.26,5.41-3.26Q178,702.49,201.33,702.52Z" style="fill:#f4f4f4"/><g id="Group_1104" data-name="Group 1104"><path id="Path_2332" data-name="Path 2332" d="M199.26,45.32H167c-2.1,0-4.59.34-4.42-4,.15-3.86,2.51-3.38,4.42-3.38q32.7,0,65.41,0c2.27,0,5.16-.11,5,4-.12,3.46-2.86,3.42-5,3.41C221.36,45.3,210.31,45.32,199.26,45.32Z" style="fill:#f4f4f4"/><g id="Group_1103" data-name="Group 1103"><circle id="Ellipse_64" data-name="Ellipse 64" cx="153.11" cy="41.63" r="4.42" style="fill:#f4f4f4"/><circle id="Ellipse_65" data-name="Ellipse 65" cx="140.39" cy="41.63" r="4.42" style="fill:#f4f4f4"/><circle id="Ellipse_66" data-name="Ellipse 66" cx="259.61" cy="41.63" r="4.42" style="fill:#f4f4f4"/><circle id="Ellipse_67" data-name="Ellipse 67" cx="246.89" cy="41.63" r="4.42" style="fill:#f4f4f4"/></g></g></g><rect id="Rectangle_394" data-name="Rectangle 394" x="55.29" y="194.46" width="229.08" height="175.65" rx="11.99" style="fill:url(#linear-gradient)"/><path id="Rectangle_395" data-name="Rectangle 395" d="M67,194.46H272.69a11.7,11.7,0,0,1,11.69,11.69V314.51H55.29V206.15A11.69,11.69,0,0,1,67,194.46Z" style="fill:#e2e2e2"/><line id="Line_88" data-name="Line 88" x1="76.22" y1="323.7" x2="261.52" y2="323.7" style="fill:none;stroke:#fff;stroke-miterlimit:10;stroke-width:3px"/><rect x="103.72" y="200.9" width="132.45" height="106.89" style="opacity:0.12;fill:url(#linear-gradient-2)"/><line id="Line_89" data-name="Line 89" x1="76.22" y1="335.26" x2="261.52" y2="335.26" style="fill:none;stroke:#fff;stroke-miterlimit:10;stroke-width:3px"/><line id="Line_90" data-name="Line 90" x1="76.22" y1="346.83" x2="261.52" y2="346.83" style="fill:none;stroke:#fff;stroke-miterlimit:10;stroke-width:3px"/><line id="Line_91" data-name="Line 91" x1="99.62" y1="357.29" x2="238.12" y2="357.29" style="fill:none;stroke:#fff;stroke-miterlimit:10;stroke-width:3px"/><path id="Path_2333" data-name="Path 2333" d="M358.17,376.31v2.06a8.55,8.55,0,0,1-.2,1.89A24.84,24.84,0,0,1,358.17,376.31Z" style="fill:#e2e2e2"/><path id="Path_2334" data-name="Path 2334" d="M56.36,395.33c5.77,5.07,15.8,6,15.8,6H286.91a8.77,8.77,0,0,1,8.79,8.75h0v31.66a8.76,8.76,0,0,1-8.77,8.76h-223a8.77,8.77,0,0,1-8.79-8.76h0V412.17a24.53,24.53,0,0,0,.2-3.93C55.17,399.38,51.33,390.92,56.36,395.33Z" style="fill:url(#linear-gradient-3)"/><g id="Hey_Bro_open_this_link_i_will_gate_10_discount_on_my_Grossory" data-name="Hey Bro open this link i will gate 10 discount on my Grossory" style="isolation:isolate"><g style="isolation:isolate"><path d="M76.43,421.24V418.3h-3v2.94H71.85v-7.32h1.61v2.9h3v-2.9H78v7.32Z" style="fill:#fff"/><path d="M84.85,418.79a1.41,1.41,0,0,1,0,.2h-3.9a1.34,1.34,0,0,0,.47.82,1.4,1.4,0,0,0,.9.28A1.8,1.8,0,0,0,83,420a2.33,2.33,0,0,0,.65-.44l.91.81a3,3,0,0,1-1,.77,3.07,3.07,0,0,1-1.33.28,3.42,3.42,0,0,1-1.17-.21,2.66,2.66,0,0,1-.93-.6,2.79,2.79,0,0,1-.61-.92,2.94,2.94,0,0,1-.22-1.17v0a3.24,3.24,0,0,1,.2-1.13,2.91,2.91,0,0,1,.57-.93,2.63,2.63,0,0,1,.88-.63,2.7,2.7,0,0,1,1.12-.23,2.67,2.67,0,0,1,1.21.25,2.41,2.41,0,0,1,.86.68,2.88,2.88,0,0,1,.5,1,3.93,3.93,0,0,1,.16,1.14v0A1.15,1.15,0,0,1,84.85,418.79Zm-1.91-1.66a1.08,1.08,0,0,0-.81-.32,1.06,1.06,0,0,0-.81.32,1.6,1.6,0,0,0-.4.87h2.39A1.61,1.61,0,0,0,82.94,417.13Z" style="fill:#fff"/><path d="M89.22,421.38a4.92,4.92,0,0,1-.33.72,2,2,0,0,1-.4.49,1.42,1.42,0,0,1-.48.27,2,2,0,0,1-.63.08,2.57,2.57,0,0,1-.77-.1,2.82,2.82,0,0,1-.64-.28l.53-1.15a2.07,2.07,0,0,0,.34.15.9.9,0,0,0,.34.07.62.62,0,0,0,.33-.08.72.72,0,0,0,.23-.29l-2.2-5.63h1.68l1.28,3.82,1.22-3.82h1.65Z" style="fill:#fff"/><path d="M101.64,420.11a1.77,1.77,0,0,1-.56.63,2.41,2.41,0,0,1-.86.37,4.36,4.36,0,0,1-1.12.13H95.62v-7.32H99a2.78,2.78,0,0,1,1.77.51,1.66,1.66,0,0,1,.64,1.38v0a1.61,1.61,0,0,1-.08.56,1.89,1.89,0,0,1-.2.43,2,2,0,0,1-.3.34,2.19,2.19,0,0,1-.37.25,2.5,2.5,0,0,1,1,.66,1.66,1.66,0,0,1,.36,1.14v0A1.87,1.87,0,0,1,101.64,420.11Zm-1.81-4a.62.62,0,0,0-.27-.55,1.32,1.32,0,0,0-.78-.2H97.19v1.55h1.48a1.7,1.7,0,0,0,.85-.18.64.64,0,0,0,.31-.59Zm.41,2.93a.7.7,0,0,0-.28-.58,1.55,1.55,0,0,0-.91-.21H97.19v1.61H99.1a1.53,1.53,0,0,0,.84-.2.65.65,0,0,0,.3-.6Z" style="fill:#fff"/><path d="M106.3,417.19a1.63,1.63,0,0,0-1.25.48,2.09,2.09,0,0,0-.46,1.5v2.07H103v-5.61h1.59v1.13a2.34,2.34,0,0,1,.66-.92,1.6,1.6,0,0,1,1.13-.31v1.66Z" style="fill:#fff"/><path d="M112.94,419.58a3.15,3.15,0,0,1-.64.93,3.11,3.11,0,0,1-1,.62,3.05,3.05,0,0,1-1.22.24,3.17,3.17,0,0,1-1.2-.23,2.84,2.84,0,0,1-1-.62,2.69,2.69,0,0,1-.63-.92,2.85,2.85,0,0,1-.23-1.13v0a2.9,2.9,0,0,1,.23-1.14,2.82,2.82,0,0,1,.64-.92,2.86,2.86,0,0,1,1-.63,3.3,3.3,0,0,1,2.42,0,2.93,2.93,0,0,1,1,.61,3,3,0,0,1,.64.92,2.87,2.87,0,0,1,.23,1.14v0A2.85,2.85,0,0,1,112.94,419.58Zm-1.34-1.13a1.63,1.63,0,0,0-.11-.59,1.44,1.44,0,0,0-.3-.49,1.46,1.46,0,0,0-1.07-.47,1.48,1.48,0,0,0-.61.12,1.25,1.25,0,0,0-.45.33,1.28,1.28,0,0,0-.29.49,1.63,1.63,0,0,0-.1.59v0a1.66,1.66,0,0,0,.1.59,1.56,1.56,0,0,0,.77.83,1.47,1.47,0,0,0,.6.13,1.44,1.44,0,0,0,.61-.12,1.54,1.54,0,0,0,.46-.33,1.51,1.51,0,0,0,.29-.49,1.87,1.87,0,0,0,.1-.59Z" style="fill:#fff"/><path d="M124.78,419.05a3.54,3.54,0,0,1-.81,1.2,3.63,3.63,0,0,1-1.23.82,4,4,0,0,1-1.57.3,3.93,3.93,0,0,1-1.55-.3,3.76,3.76,0,0,1-1.23-.81,3.49,3.49,0,0,1-.81-1.19,3.81,3.81,0,0,1-.28-1.47v0a3.64,3.64,0,0,1,.29-1.47,3.54,3.54,0,0,1,.81-1.2,3.63,3.63,0,0,1,1.23-.82,4,4,0,0,1,1.57-.3,3.93,3.93,0,0,1,1.55.3,3.76,3.76,0,0,1,1.23.81,3.49,3.49,0,0,1,.81,1.19,3.82,3.82,0,0,1,.29,1.47v0A3.65,3.65,0,0,1,124.78,419.05Zm-1.39-1.47a2.42,2.42,0,0,0-.16-.89,2.21,2.21,0,0,0-.46-.73,2.12,2.12,0,0,0-.71-.5,2.14,2.14,0,0,0-.89-.18,2.18,2.18,0,0,0-.89.18,2,2,0,0,0-.69.49,2.36,2.36,0,0,0-.45.73,2.33,2.33,0,0,0-.16.88v0a2.42,2.42,0,0,0,.16.89,2.16,2.16,0,0,0,2.06,1.41,2.13,2.13,0,0,0,.88-.18,2,2,0,0,0,.7-.49,2.36,2.36,0,0,0,.45-.73,2.33,2.33,0,0,0,.16-.88Z" style="fill:#fff"/><path d="M132,419.69a2.86,2.86,0,0,1-.56.91,2.35,2.35,0,0,1-1.77.74,2.11,2.11,0,0,1-1.06-.24,2.83,2.83,0,0,1-.69-.59v2.4h-1.59v-7.28h1.59v.8a2.29,2.29,0,0,1,.71-.64,1.93,1.93,0,0,1,1-.26,2.44,2.44,0,0,1,.95.19,2.23,2.23,0,0,1,.81.56,2.71,2.71,0,0,1,.57.91,3.19,3.19,0,0,1,.22,1.24v0A3.19,3.19,0,0,1,132,419.69Zm-1.37-1.26a1.87,1.87,0,0,0-.11-.64,1.48,1.48,0,0,0-.3-.5,1.43,1.43,0,0,0-.43-.31,1.36,1.36,0,0,0-.53-.11,1.28,1.28,0,0,0-1,.42,1.64,1.64,0,0,0-.29.5,1.87,1.87,0,0,0-.11.64v0a1.81,1.81,0,0,0,.11.63,1.53,1.53,0,0,0,.29.5,1.34,1.34,0,0,0,.43.32,1.32,1.32,0,0,0,.53.11,1.36,1.36,0,0,0,.53-.11,1.46,1.46,0,0,0,.43-.32,1.44,1.44,0,0,0,.3-.49,1.83,1.83,0,0,0,.11-.64Z" style="fill:#fff"/><path d="M138.62,418.79c0,.06,0,.13,0,.2h-3.9a1.3,1.3,0,0,0,.47.82,1.4,1.4,0,0,0,.9.28,1.8,1.8,0,0,0,.71-.14,2.33,2.33,0,0,0,.65-.44l.9.81a2.77,2.77,0,0,1-1,.77,3,3,0,0,1-1.33.28,3.41,3.41,0,0,1-1.16-.21,2.7,2.7,0,0,1-1.54-1.52,2.94,2.94,0,0,1-.22-1.17v0a3,3,0,0,1,.2-1.13,2.91,2.91,0,0,1,.57-.93,2.59,2.59,0,0,1,.87-.63,2.78,2.78,0,0,1,1.13-.23,2.7,2.7,0,0,1,1.21.25,2.37,2.37,0,0,1,.85.68,2.56,2.56,0,0,1,.5,1,3.93,3.93,0,0,1,.17,1.14v0C138.63,418.67,138.62,418.74,138.62,418.79Zm-1.92-1.66a1.06,1.06,0,0,0-.8-.32,1,1,0,0,0-.81.32,1.69,1.69,0,0,0-.41.87h2.4A1.62,1.62,0,0,0,136.7,417.13Z" style="fill:#fff"/><path d="M143.35,421.24v-3.12a1.25,1.25,0,0,0-.25-.85.9.9,0,0,0-.71-.29,1,1,0,0,0-.73.29,1.25,1.25,0,0,0-.26.85v3.12h-1.59v-5.61h1.59v.81a3.27,3.27,0,0,1,.3-.35,1.76,1.76,0,0,1,.36-.29,1.78,1.78,0,0,1,.44-.2,2.09,2.09,0,0,1,1.95.48,2.22,2.22,0,0,1,.49,1.53v3.63Z" style="fill:#fff"/><path d="M152.05,421.25a2.87,2.87,0,0,1-.7.08,2.73,2.73,0,0,1-.66-.07,1.24,1.24,0,0,1-.85-.8,2.31,2.31,0,0,1-.12-.81V417h-.67v-1.36h.67V414.2h1.59v1.43h1.32V417h-1.32v2.4q0,.54.51.54a1.57,1.57,0,0,0,.79-.2V421A2.56,2.56,0,0,1,152.05,421.25Z" style="fill:#fff"/><path d="M157.34,421.24v-3.12a1.25,1.25,0,0,0-.25-.85.88.88,0,0,0-.71-.29,1,1,0,0,0-.73.29,1.25,1.25,0,0,0-.26.85v3.12H153.8v-7.63h1.59v2.83a3.27,3.27,0,0,1,.3-.35,1.76,1.76,0,0,1,.36-.29,2,2,0,0,1,.44-.2,1.81,1.81,0,0,1,.54-.07,1.79,1.79,0,0,1,1.41.55,2.22,2.22,0,0,1,.49,1.53v3.63Z" style="fill:#fff"/><path d="M160.34,415v-1.41H162V415Zm0,6.22v-5.61H162v5.61Z" style="fill:#fff"/><path d="M167.42,420.35a1.56,1.56,0,0,1-.46.56,2,2,0,0,1-.68.32,2.84,2.84,0,0,1-.84.11,3.76,3.76,0,0,1-1.22-.2,4.06,4.06,0,0,1-1.19-.64l.68-1.05a3.79,3.79,0,0,0,.92.5,2.47,2.47,0,0,0,.85.17A1,1,0,0,0,166,420a.38.38,0,0,0,.16-.31v0a.3.3,0,0,0-.1-.22.83.83,0,0,0-.25-.16,2.64,2.64,0,0,0-.37-.13L165,419a4.56,4.56,0,0,1-.59-.2,2.38,2.38,0,0,1-.54-.31,1.53,1.53,0,0,1-.39-.48,1.35,1.35,0,0,1-.16-.69v0a1.67,1.67,0,0,1,.17-.76,1.59,1.59,0,0,1,.44-.56,1.79,1.79,0,0,1,.64-.34,2.63,2.63,0,0,1,.8-.12,3.8,3.8,0,0,1,1.09.17,4.47,4.47,0,0,1,1,.48l-.61,1.1a4.6,4.6,0,0,0-.82-.38,2,2,0,0,0-.7-.14.78.78,0,0,0-.44.1.37.37,0,0,0-.14.28v0a.29.29,0,0,0,.09.21,1,1,0,0,0,.25.16,3,3,0,0,0,.36.16l.44.14a5.5,5.5,0,0,1,.59.23,2,2,0,0,1,.55.32,1.35,1.35,0,0,1,.39.46,1.23,1.23,0,0,1,.16.65v0A1.86,1.86,0,0,1,167.42,420.35Z" style="fill:#fff"/><path d="M171.93,421.24v-7.63h1.59v7.63Z" style="fill:#fff"/><path d="M175.05,415v-1.41h1.67V415Zm0,6.22v-5.61h1.59v5.61Z" style="fill:#fff"/><path d="M181.72,421.24v-3.12a1.31,1.31,0,0,0-.25-.85.91.91,0,0,0-.71-.29,1,1,0,0,0-.73.29,1.2,1.2,0,0,0-.27.85v3.12h-1.59v-5.61h1.59v.81a3.27,3.27,0,0,1,.3-.35,2.54,2.54,0,0,1,.36-.29,2,2,0,0,1,.44-.2,1.81,1.81,0,0,1,.54-.07,1.79,1.79,0,0,1,1.41.55,2.22,2.22,0,0,1,.5,1.53v3.63Z" style="fill:#fff"/><path d="M188.29,421.24,186.83,419l-.55.59v1.7h-1.59v-7.63h1.59v4.06l1.86-2H190l-2.13,2.21,2.2,3.4Z" style="fill:#fff"/><path d="M191.45,421.24h-.64v-1.67h1.69V421a1.94,1.94,0,0,1-.5,1.49,2.11,2.11,0,0,1-1.44.46l-.13-.65C191.17,422.2,191.51,421.85,191.45,421.24Z" style="fill:#fff"/><path d="M197,415v-1.41h1.67V415Zm0,6.22v-5.61h1.59v5.61Z" style="fill:#fff"/><path d="M209.59,421.28h-1.43l-1.08-3.44L206,421.28h-1.43l-1.72-5.65h1.61l.9,3.4,1.06-3.42h1.36l1.07,3.43.92-3.41h1.58Z" style="fill:#fff"/><path d="M212.33,415v-1.41H214V415Zm0,6.22v-5.61H214v5.61Z" style="fill:#fff"/><path d="M215.53,421.24v-7.63h1.59v7.63Z" style="fill:#fff"/><path d="M218.69,421.24v-7.63h1.59v7.63Z" style="fill:#fff"/><path d="M230.36,421.33a2.15,2.15,0,0,1-.59.91,2.5,2.5,0,0,1-1,.53,5.05,5.05,0,0,1-1.37.16,5.68,5.68,0,0,1-1.32-.15,5,5,0,0,1-1.16-.43l.55-1.19a4.72,4.72,0,0,0,.88.37,3.47,3.47,0,0,0,1,.14,1.66,1.66,0,0,0,1.21-.39,1.54,1.54,0,0,0,.39-1.14v-.27a2.81,2.81,0,0,1-.77.67,2.11,2.11,0,0,1-1.06.24,2.7,2.7,0,0,1-.94-.17,2.48,2.48,0,0,1-.8-.51,2.34,2.34,0,0,1-.54-.82,2.78,2.78,0,0,1-.21-1.11v0a2.82,2.82,0,0,1,.21-1.11,2.39,2.39,0,0,1,.56-.82,2.44,2.44,0,0,1,.79-.51,2.69,2.69,0,0,1,.93-.17,2.14,2.14,0,0,1,1.07.24,3,3,0,0,1,.74.6v-.74h1.59V420A4.46,4.46,0,0,1,230.36,421.33ZM229,418.14a1.3,1.3,0,0,0-.1-.52,1.22,1.22,0,0,0-.29-.41,1.16,1.16,0,0,0-.44-.27,1.53,1.53,0,0,0-.54-.09,1.61,1.61,0,0,0-.54.09,1.3,1.3,0,0,0-.43.27,1.2,1.2,0,0,0-.28.41,1.31,1.31,0,0,0-.11.52v0a1.21,1.21,0,0,0,.39.94,1.41,1.41,0,0,0,1,.35,1.53,1.53,0,0,0,.54-.09,1.3,1.3,0,0,0,.44-.27,1.22,1.22,0,0,0,.29-.41,1.3,1.3,0,0,0,.1-.52Z" style="fill:#fff"/><path d="M237.19,418.79a1.41,1.41,0,0,1,0,.2h-3.9a1.3,1.3,0,0,0,.47.82,1.4,1.4,0,0,0,.9.28,1.8,1.8,0,0,0,.71-.14,2.33,2.33,0,0,0,.65-.44l.91.81a2.9,2.9,0,0,1-1,.77,3,3,0,0,1-1.32.28,3.42,3.42,0,0,1-1.17-.21,2.7,2.7,0,0,1-1.54-1.52,2.94,2.94,0,0,1-.22-1.17v0a3.24,3.24,0,0,1,.2-1.13,2.91,2.91,0,0,1,.57-.93,2.63,2.63,0,0,1,.88-.63,2.7,2.7,0,0,1,1.12-.23,2.67,2.67,0,0,1,1.21.25,2.5,2.5,0,0,1,.86.68,2.88,2.88,0,0,1,.5,1,3.93,3.93,0,0,1,.16,1.14v0A1.15,1.15,0,0,1,237.19,418.79Zm-1.92-1.66a1.17,1.17,0,0,0-1.61,0,1.6,1.6,0,0,0-.4.87h2.39A1.55,1.55,0,0,0,235.27,417.13Z" style="fill:#fff"/><path d="M241,421.25a2.87,2.87,0,0,1-.7.08,2.73,2.73,0,0,1-.66-.07,1.24,1.24,0,0,1-.85-.8,2.31,2.31,0,0,1-.12-.81V417H238v-1.36h.67V414.2h1.59v1.43h1.32V417h-1.32v2.4q0,.54.51.54a1.57,1.57,0,0,0,.79-.2V421A2.36,2.36,0,0,1,241,421.25Z" style="fill:#fff"/></g><path d="M73.33,429h1.09v7.37H72.83V430.6l-1.27.32-.34-1.32Z" style="fill:#fff"/><path d="M82.22,434.17a3.86,3.86,0,0,1-.66,1.2,3.25,3.25,0,0,1-1,.81,3.13,3.13,0,0,1-1.34.29,3.05,3.05,0,0,1-1.33-.29,3.08,3.08,0,0,1-1-.8,3.7,3.7,0,0,1-.65-1.19A4.79,4.79,0,0,1,76,432.7a4.52,4.52,0,0,1,.24-1.49,3.45,3.45,0,0,1,.66-1.21,3.25,3.25,0,0,1,1-.81,3.22,3.22,0,0,1,2.67,0,2.84,2.84,0,0,1,1,.8,3.65,3.65,0,0,1,.65,1.2,4.46,4.46,0,0,1,.23,1.48A4.54,4.54,0,0,1,82.22,434.17Zm-1.53-2.41a2.64,2.64,0,0,0-.33-.74,1.66,1.66,0,0,0-.5-.49,1.32,1.32,0,0,0-1.33,0,1.52,1.52,0,0,0-.5.48,2.44,2.44,0,0,0-.32.73,4,4,0,0,0-.11.93,3.38,3.38,0,0,0,.12.93,2.33,2.33,0,0,0,.32.75,1.59,1.59,0,0,0,.51.49,1.26,1.26,0,0,0,.66.18,1.21,1.21,0,0,0,.66-.18,1.43,1.43,0,0,0,.5-.48,2.37,2.37,0,0,0,.32-.74,3.36,3.36,0,0,0,.11-.92A4,4,0,0,0,80.69,431.76Z" style="fill:#fff"/><path d="M86.91,431.54a1.62,1.62,0,0,1-.36.59,1.66,1.66,0,0,1-.57.41,1.71,1.71,0,0,1-.72.14,1.65,1.65,0,0,1-.72-.14,1.63,1.63,0,0,1-.56-.4,1.62,1.62,0,0,1-.36-.59,2,2,0,0,1-.13-.73,2,2,0,0,1,.13-.73,1.84,1.84,0,0,1,.37-.6,1.63,1.63,0,0,1,.56-.4,1.83,1.83,0,0,1,1.45,0,1.87,1.87,0,0,1,.56.39,1.66,1.66,0,0,1,.36.6,2.09,2.09,0,0,1,.12.72A2,2,0,0,1,86.91,431.54Zm-1.44,4.8H84.22L89.56,429h1.25Zm.29-6.17a.57.57,0,0,0-.5-.28.57.57,0,0,0-.51.27,1.24,1.24,0,0,0-.16.64,1.14,1.14,0,0,0,.19.66.57.57,0,0,0,.5.27.55.55,0,0,0,.5-.27,1.2,1.2,0,0,0,.17-.64A1.16,1.16,0,0,0,85.76,430.17Zm5.65,5.11a1.84,1.84,0,0,1-.37.6,1.63,1.63,0,0,1-.56.4,1.83,1.83,0,0,1-1.45,0,1.85,1.85,0,0,1-.56-.4,1.83,1.83,0,0,1-.36-.59,2.13,2.13,0,0,1-.12-.72,2,2,0,0,1,.13-.74,1.81,1.81,0,0,1,.36-.6,1.78,1.78,0,0,1,.57-.4,1.83,1.83,0,0,1,1.45,0,1.85,1.85,0,0,1,.56.4,2,2,0,0,1,.36.59,2.15,2.15,0,0,1,.12.73A1.93,1.93,0,0,1,91.41,435.28Zm-1.16-1.37a.57.57,0,0,0-.5-.27.55.55,0,0,0-.5.27,1.2,1.2,0,0,0-.17.64,1.18,1.18,0,0,0,.19.65.59.59,0,0,0,.5.28.57.57,0,0,0,.51-.27,1.24,1.24,0,0,0,.16-.64A1.14,1.14,0,0,0,90.25,433.91Z" style="fill:#fff"/><path d="M99.91,436.34v-.79a2.41,2.41,0,0,1-.71.64,2,2,0,0,1-1,.26,2.46,2.46,0,0,1-1.77-.75,3.07,3.07,0,0,1-.57-.91,3.39,3.39,0,0,1-.21-1.24v0a3.39,3.39,0,0,1,.21-1.24,2.88,2.88,0,0,1,.57-.91,2.27,2.27,0,0,1,.81-.56,2.61,2.61,0,0,1,1-.19,2.06,2.06,0,0,1,1,.25,2.89,2.89,0,0,1,.7.58v-2.75h1.59v7.63Zm0-2.81a1.91,1.91,0,0,0-.11-.64,1.61,1.61,0,0,0-.3-.49,1.3,1.3,0,0,0-.42-.32,1.36,1.36,0,0,0-.53-.11,1.32,1.32,0,0,0-.53.11,1.34,1.34,0,0,0-.43.32,1.44,1.44,0,0,0-.3.49,1.62,1.62,0,0,0-.11.64v0a1.66,1.66,0,0,0,.11.64,1.35,1.35,0,0,0,.3.49A1.21,1.21,0,0,0,98,435a1.32,1.32,0,0,0,.53.11,1.36,1.36,0,0,0,.53-.11,1.18,1.18,0,0,0,.42-.32,1.5,1.5,0,0,0,.3-.49,1.87,1.87,0,0,0,.11-.64Z" style="fill:#fff"/><path d="M103,430.12v-1.41h1.67v1.41Zm0,6.22v-5.6h1.59v5.6Z" style="fill:#fff"/><path d="M110,435.45a1.45,1.45,0,0,1-.45.56,1.92,1.92,0,0,1-.69.33,3.22,3.22,0,0,1-.84.11,4.1,4.1,0,0,1-1.22-.2,4,4,0,0,1-1.18-.65l.68-1a3.74,3.74,0,0,0,.91.5,2.52,2.52,0,0,0,.85.17.87.87,0,0,0,.51-.12.35.35,0,0,0,.16-.3v0a.29.29,0,0,0-.09-.22.73.73,0,0,0-.26-.17l-.37-.13-.44-.13-.59-.21a2.05,2.05,0,0,1-.54-.31,1.53,1.53,0,0,1-.39-.48,1.4,1.4,0,0,1-.15-.68v0a1.62,1.62,0,0,1,.16-.75,1.74,1.74,0,0,1,.44-.56,1.86,1.86,0,0,1,.65-.35,2.58,2.58,0,0,1,.8-.11,3.47,3.47,0,0,1,1.08.17,3.89,3.89,0,0,1,1,.47l-.61,1.1a5.82,5.82,0,0,0-.81-.38,2.27,2.27,0,0,0-.7-.14.75.75,0,0,0-.44.11.32.32,0,0,0-.15.28v0a.26.26,0,0,0,.1.2.84.84,0,0,0,.25.17l.36.15.43.15a4.84,4.84,0,0,1,.6.22,2.85,2.85,0,0,1,.54.32,1.62,1.62,0,0,1,.4.46,1.34,1.34,0,0,1,.16.66v0A1.86,1.86,0,0,1,110,435.45Z" style="fill:#fff"/><path d="M115.33,436.18a2.83,2.83,0,0,1-1.36.29,3,3,0,0,1-1.17-.23,2.84,2.84,0,0,1-1.53-1.54,3,3,0,0,1-.22-1.13v0a2.93,2.93,0,0,1,.83-2.06,3,3,0,0,1,2.11-.86,3,3,0,0,1,1.32.26,2.78,2.78,0,0,1,.92.69l-1,1a2.51,2.51,0,0,0-.56-.45A1.42,1.42,0,0,0,114,432a1.26,1.26,0,0,0-.55.12,1.41,1.41,0,0,0-.43.34,1.52,1.52,0,0,0-.28.48,1.63,1.63,0,0,0-.1.59v0a1.74,1.74,0,0,0,.1.61,1.42,1.42,0,0,0,.29.49,1.25,1.25,0,0,0,.45.33,1.37,1.37,0,0,0,.58.12,1.42,1.42,0,0,0,.7-.16,2.82,2.82,0,0,0,.59-.44l.93.95A3.66,3.66,0,0,1,115.33,436.18Z" style="fill:#fff"/><path d="M122.86,434.69a2.82,2.82,0,0,1-.64.92,2.86,2.86,0,0,1-1,.63,3.22,3.22,0,0,1-1.21.23,3.38,3.38,0,0,1-1.21-.22,2.85,2.85,0,0,1-1-.62,3,3,0,0,1-.64-.92,2.87,2.87,0,0,1-.23-1.14v0a2.85,2.85,0,0,1,.23-1.13,3.15,3.15,0,0,1,.64-.93,3,3,0,0,1,1-.62,3.05,3.05,0,0,1,1.22-.24,3.17,3.17,0,0,1,1.2.23,2.86,2.86,0,0,1,1.82,2.67v0A2.9,2.9,0,0,1,122.86,434.69Zm-1.34-1.14a1.92,1.92,0,0,0-.1-.59,1.57,1.57,0,0,0-.31-.49,1.46,1.46,0,0,0-1.06-.47,1.52,1.52,0,0,0-.62.12,1.49,1.49,0,0,0-.74.82,1.63,1.63,0,0,0-.1.59v0a1.63,1.63,0,0,0,.11.59,1.44,1.44,0,0,0,.3.49,1.32,1.32,0,0,0,.47.34,1.26,1.26,0,0,0,.6.13,1.48,1.48,0,0,0,.61-.12,1.25,1.25,0,0,0,.45-.33,1.42,1.42,0,0,0,.29-.49,1.63,1.63,0,0,0,.1-.59Z" style="fill:#fff"/><path d="M127.74,436.34v-.8a2.43,2.43,0,0,1-.3.34,1.48,1.48,0,0,1-.36.29,1.63,1.63,0,0,1-.44.21,2.21,2.21,0,0,1-.54.07,1.79,1.79,0,0,1-1.41-.56,2.17,2.17,0,0,1-.49-1.52v-3.63h1.59v3.12a1.25,1.25,0,0,0,.25.85.88.88,0,0,0,.71.29,1,1,0,0,0,.73-.29,1.25,1.25,0,0,0,.26-.85v-3.12h1.59v5.6Z" style="fill:#fff"/><path d="M134.3,436.34v-3.11a1.29,1.29,0,0,0-.25-.85.88.88,0,0,0-.71-.29.92.92,0,0,0-.73.29,1.19,1.19,0,0,0-.27.85v3.11h-1.59v-5.6h1.59v.8a3.17,3.17,0,0,1,.3-.34,2,2,0,0,1,.36-.29,1.6,1.6,0,0,1,.44-.2,2,2,0,0,1,1.95.48,2.22,2.22,0,0,1,.5,1.53v3.62Z" style="fill:#fff"/><path d="M139.86,436.35a2.48,2.48,0,0,1-.7.09,2.65,2.65,0,0,1-.66-.08,1.25,1.25,0,0,1-.52-.28,1.33,1.33,0,0,1-.33-.51,2.41,2.41,0,0,1-.12-.82V432.1h-.67v-1.36h.67v-1.43h1.59v1.43h1.32v1.36h-1.32v2.39c0,.37.17.55.51.55a1.62,1.62,0,0,0,.78-.2v1.27A2.29,2.29,0,0,1,139.86,436.35Z" style="fill:#fff"/><path d="M150.31,434.69a3,3,0,0,1-.64.92,2.86,2.86,0,0,1-1,.63,3.23,3.23,0,0,1-1.22.23,3.37,3.37,0,0,1-1.2-.22,3,3,0,0,1-1-.62,3,3,0,0,1-.63-.92,2.87,2.87,0,0,1-.23-1.14v0a2.85,2.85,0,0,1,.23-1.13,2.9,2.9,0,0,1,1.6-1.55,3,3,0,0,1,1.21-.24,3.18,3.18,0,0,1,1.21.23,2.7,2.7,0,0,1,.95.62,2.81,2.81,0,0,1,.87,2v0A2.9,2.9,0,0,1,150.31,434.69ZM149,433.55a1.67,1.67,0,0,0-.11-.59,1.54,1.54,0,0,0-.3-.49,1.46,1.46,0,0,0-1.07-.47,1.48,1.48,0,0,0-.61.12,1.28,1.28,0,0,0-.45.34,1.37,1.37,0,0,0-.29.48,1.63,1.63,0,0,0-.1.59v0a1.63,1.63,0,0,0,.11.59,1.3,1.3,0,0,0,.3.49,1.38,1.38,0,0,0,.46.34,1.32,1.32,0,0,0,.6.13,1.52,1.52,0,0,0,.62-.12,1.35,1.35,0,0,0,.45-.33,1.42,1.42,0,0,0,.29-.49,1.63,1.63,0,0,0,.1-.59Z" style="fill:#fff"/><path d="M155.23,436.34v-3.11a1.23,1.23,0,0,0-.25-.85.87.87,0,0,0-.71-.29.92.92,0,0,0-.73.29,1.19,1.19,0,0,0-.26.85v3.11h-1.59v-5.6h1.59v.8c.09-.12.19-.23.29-.34a1.76,1.76,0,0,1,.37-.29,1.54,1.54,0,0,1,.43-.2,1.87,1.87,0,0,1,.55-.08,1.79,1.79,0,0,1,1.4.56,2.17,2.17,0,0,1,.5,1.53v3.62Z" style="fill:#fff"/><path d="M168.3,436.34v-3.11a1.29,1.29,0,0,0-.24-.85.83.83,0,0,0-.69-.29.86.86,0,0,0-.7.29,1.19,1.19,0,0,0-.26.85v3.11h-1.59v-3.11a1.29,1.29,0,0,0-.24-.85.83.83,0,0,0-.69-.29.88.88,0,0,0-.71.29,1.23,1.23,0,0,0-.25.85v3.11h-1.59v-5.6h1.59v.8a3.17,3.17,0,0,1,.3-.34,1.48,1.48,0,0,1,.36-.29,1.6,1.6,0,0,1,.44-.2,1.87,1.87,0,0,1,.55-.08,1.85,1.85,0,0,1,1,.24,1.59,1.59,0,0,1,.62.66,2.55,2.55,0,0,1,.81-.67,2.29,2.29,0,0,1,1-.23,1.83,1.83,0,0,1,1.39.53,2.16,2.16,0,0,1,.5,1.54v3.64Z" style="fill:#fff"/><path d="M174.45,436.48a4.62,4.62,0,0,1-.33.73,1.76,1.76,0,0,1-.4.48,1.15,1.15,0,0,1-.48.27,2,2,0,0,1-.63.09,2.55,2.55,0,0,1-.77-.11,2.44,2.44,0,0,1-.64-.28l.53-1.15a2.11,2.11,0,0,0,.34.16,1.11,1.11,0,0,0,.34.06.54.54,0,0,0,.33-.08.75.75,0,0,0,.23-.28l-2.2-5.63h1.68l1.28,3.82,1.22-3.82h1.65Z" style="fill:#fff"/><path d="M186.13,436.43a2.18,2.18,0,0,1-.59.92,2.49,2.49,0,0,1-1,.52,5,5,0,0,1-1.37.17,5.53,5.53,0,0,1-1.31-.15,5,5,0,0,1-1.17-.44l.55-1.19a4.78,4.78,0,0,0,.88.38,3.48,3.48,0,0,0,1,.13,1.7,1.7,0,0,0,1.21-.38,1.54,1.54,0,0,0,.39-1.14V435a2.81,2.81,0,0,1-.77.67,2.11,2.11,0,0,1-1.06.24,2.49,2.49,0,0,1-.94-.17,2.3,2.3,0,0,1-.8-.5,2.39,2.39,0,0,1-.54-.83,2.75,2.75,0,0,1-.21-1.11v0a2.83,2.83,0,0,1,.21-1.12,2.49,2.49,0,0,1,.56-.82,2.26,2.26,0,0,1,.79-.5,2.48,2.48,0,0,1,.93-.18,2,2,0,0,1,1.07.25,3,3,0,0,1,.74.59v-.73h1.59v4.34A4.39,4.39,0,0,1,186.13,436.43Zm-1.38-3.18a1.27,1.27,0,0,0-.1-.52,1.37,1.37,0,0,0-.29-.42,1.28,1.28,0,0,0-.44-.26,1.33,1.33,0,0,0-.54-.1,1.4,1.4,0,0,0-.54.1,1.45,1.45,0,0,0-.43.26,1.34,1.34,0,0,0-.28.42,1.27,1.27,0,0,0-.11.52v0a1.21,1.21,0,0,0,.39.94,1.37,1.37,0,0,0,1,.36,1.33,1.33,0,0,0,.54-.1,1.28,1.28,0,0,0,.44-.26,1.37,1.37,0,0,0,.29-.42,1.27,1.27,0,0,0,.1-.52Z" style="fill:#fff"/><path d="M191,432.3a1.61,1.61,0,0,0-1.24.48,2.08,2.08,0,0,0-.46,1.49v2.07h-1.59v-5.6h1.59v1.13A2.34,2.34,0,0,1,190,431a1.6,1.6,0,0,1,1.13-.32v1.67Z" style="fill:#fff"/><path d="M197.67,434.69a2.79,2.79,0,0,1-.63.92,3,3,0,0,1-1,.63,3.23,3.23,0,0,1-1.22.23,3.37,3.37,0,0,1-1.2-.22,3,3,0,0,1-1-.62,2.79,2.79,0,0,1-.63-.92,2.87,2.87,0,0,1-.23-1.14v0a2.85,2.85,0,0,1,.23-1.13,2.9,2.9,0,0,1,1.6-1.55,3,3,0,0,1,1.21-.24,3.22,3.22,0,0,1,1.21.23,2.79,2.79,0,0,1,.95.62,2.86,2.86,0,0,1,.86,2v0A2.73,2.73,0,0,1,197.67,434.69Zm-1.33-1.14a1.67,1.67,0,0,0-.11-.59,1.54,1.54,0,0,0-.3-.49,1.46,1.46,0,0,0-1.07-.47,1.48,1.48,0,0,0-.61.12,1.28,1.28,0,0,0-.45.34,1.24,1.24,0,0,0-.29.48,1.63,1.63,0,0,0-.1.59v0a1.63,1.63,0,0,0,.1.59,1.32,1.32,0,0,0,.31.49,1.28,1.28,0,0,0,.46.34,1.32,1.32,0,0,0,.6.13,1.44,1.44,0,0,0,.61-.12,1.39,1.39,0,0,0,.46-.33,1.42,1.42,0,0,0,.29-.49,1.87,1.87,0,0,0,.1-.59Z" style="fill:#fff"/><path d="M203.06,436.18a2.83,2.83,0,0,1-1.36.29,3,3,0,0,1-1.17-.23A2.84,2.84,0,0,1,199,434.7a3,3,0,0,1-.22-1.13v0a2.93,2.93,0,0,1,.83-2.06,3,3,0,0,1,2.11-.86,3,3,0,0,1,1.32.26,2.78,2.78,0,0,1,.92.69l-1,1a2.51,2.51,0,0,0-.56-.45,1.42,1.42,0,0,0-.72-.17,1.26,1.26,0,0,0-.55.12,1.41,1.41,0,0,0-.43.34,1.52,1.52,0,0,0-.28.48,1.63,1.63,0,0,0-.1.59v0a1.74,1.74,0,0,0,.1.61,1.42,1.42,0,0,0,.29.49,1.25,1.25,0,0,0,.45.33,1.37,1.37,0,0,0,.58.12,1.42,1.42,0,0,0,.7-.16,2.82,2.82,0,0,0,.59-.44l.93.95A3.66,3.66,0,0,1,203.06,436.18Z" style="fill:#fff"/><path d="M210.25,433.9a1.91,1.91,0,0,1,0,.2h-3.9a1.38,1.38,0,0,0,.48.82,1.45,1.45,0,0,0,.89.27,1.76,1.76,0,0,0,.71-.13,2.41,2.41,0,0,0,.65-.44l.91.8a2.66,2.66,0,0,1-1,.77,2.93,2.93,0,0,1-1.33.28,3.11,3.11,0,0,1-1.16-.21,2.8,2.8,0,0,1-.94-.6,2.75,2.75,0,0,1-.61-.91,3.14,3.14,0,0,1-.22-1.18v0a3.06,3.06,0,0,1,.21-1.13,2.78,2.78,0,0,1,.57-.93,2.73,2.73,0,0,1,2-.86,2.71,2.71,0,0,1,1.22.26,2.44,2.44,0,0,1,.85.67,2.8,2.8,0,0,1,.5,1,4,4,0,0,1,.16,1.15v.22Zm-1.92-1.66a1,1,0,0,0-.81-.33,1.1,1.1,0,0,0-.81.32,1.68,1.68,0,0,0-.4.87h2.4A1.59,1.59,0,0,0,208.33,432.24Z" style="fill:#fff"/><path d="M214.73,432.3a1.63,1.63,0,0,0-1.25.48,2.12,2.12,0,0,0-.46,1.49v2.07h-1.58v-5.6H213v1.13a2.45,2.45,0,0,1,.66-.92,1.62,1.62,0,0,1,1.13-.32v1.67Z" style="fill:#fff"/><path d="M215.84,430.12v-1.41h1.67v1.41Zm0,6.22v-5.6h1.59v5.6Z" style="fill:#fff"/><path d="M224.19,433.9c0,.05,0,.12,0,.2h-3.9a1.38,1.38,0,0,0,.48.82,1.45,1.45,0,0,0,.89.27,1.76,1.76,0,0,0,.71-.13,2.41,2.41,0,0,0,.65-.44l.91.8a2.75,2.75,0,0,1-1,.77,2.93,2.93,0,0,1-1.33.28,3.2,3.2,0,0,1-1.17-.21,2.66,2.66,0,0,1-.93-.6,2.75,2.75,0,0,1-.61-.91,3.14,3.14,0,0,1-.22-1.18v0a3.06,3.06,0,0,1,.21-1.13,2.78,2.78,0,0,1,.57-.93,2.73,2.73,0,0,1,2-.86,2.74,2.74,0,0,1,1.22.26,2.44,2.44,0,0,1,.85.67,3,3,0,0,1,.5,1,4,4,0,0,1,.16,1.15v.22Zm-1.92-1.66a1,1,0,0,0-.81-.33,1.1,1.1,0,0,0-.81.32,1.68,1.68,0,0,0-.4.87h2.39A1.51,1.51,0,0,0,222.27,432.24Z" style="fill:#fff"/><path d="M229.32,435.45a1.55,1.55,0,0,1-.45.56,2,2,0,0,1-.69.33,3.22,3.22,0,0,1-.84.11,4.1,4.1,0,0,1-1.22-.2,4,4,0,0,1-1.18-.65l.67-1a4,4,0,0,0,.92.5,2.52,2.52,0,0,0,.85.17.87.87,0,0,0,.51-.12.35.35,0,0,0,.16-.3v0a.29.29,0,0,0-.09-.22.84.84,0,0,0-.26-.17l-.37-.13-.44-.13-.59-.21a2.05,2.05,0,0,1-.54-.31,1.53,1.53,0,0,1-.39-.48,1.4,1.4,0,0,1-.15-.68v0a1.64,1.64,0,0,1,.6-1.31,1.77,1.77,0,0,1,.65-.35,2.54,2.54,0,0,1,.8-.11,3.47,3.47,0,0,1,1.08.17,4,4,0,0,1,1,.47l-.61,1.1a5.82,5.82,0,0,0-.81-.38,2.27,2.27,0,0,0-.7-.14.73.73,0,0,0-.44.11.32.32,0,0,0-.15.28v0a.28.28,0,0,0,.09.2,1.06,1.06,0,0,0,.26.17l.36.15.43.15c.19.06.39.13.6.22a2.85,2.85,0,0,1,.54.32,1.62,1.62,0,0,1,.4.46,1.34,1.34,0,0,1,.15.66v0A1.86,1.86,0,0,1,229.32,435.45Z" style="fill:#fff"/></g><path id="Path_2335" data-name="Path 2335" d="M350.05,527c-5.78-5.09-15.83-6.06-15.83-6.06H143a8.81,8.81,0,0,1-8.81-8.79V492.34a8.81,8.81,0,0,1,8.79-8.82H342.48a8.82,8.82,0,0,1,8.82,8.81h0V510.1a23.72,23.72,0,0,0-.21,3.95C351.25,523,355.09,531.46,350.05,527Z" style="fill:url(#linear-gradient-4)"/><g id="Cool_How_did_I_get_This_offer" data-name="Cool How did I get This offer" style="isolation:isolate"><g style="isolation:isolate"><path d="M157.67,502.15a3.26,3.26,0,0,1-.8,1.16,3.69,3.69,0,0,1-1.23.78,4.23,4.23,0,0,1-1.58.28h-2.85v-7.32h2.85a4.23,4.23,0,0,1,1.58.28,3.52,3.52,0,0,1,1.23.77,3.31,3.31,0,0,1,.8,1.15,3.59,3.59,0,0,1,.28,1.44v0A3.59,3.59,0,0,1,157.67,502.15Zm-1.4-1.44a2.35,2.35,0,0,0-.16-.89,2.21,2.21,0,0,0-.45-.7,1.88,1.88,0,0,0-.7-.45,2.37,2.37,0,0,0-.9-.17h-1.24v4.42h1.24a2.57,2.57,0,0,0,.9-.16,1.76,1.76,0,0,0,.7-.45,2.17,2.17,0,0,0,.45-.69,2.28,2.28,0,0,0,.16-.89Z" style="fill:#fff"/><path d="M164.78,502.71a2.94,2.94,0,0,1-.63.93,3.38,3.38,0,0,1-1,.63,3.27,3.27,0,0,1-2.41,0,2.84,2.84,0,0,1-1-.62,2.86,2.86,0,0,1-.86-2v0a2.73,2.73,0,0,1,.23-1.14,2.68,2.68,0,0,1,.64-.92,2.86,2.86,0,0,1,1-.63,3.27,3.27,0,0,1,2.41,0,3,3,0,0,1,1,.61,2.79,2.79,0,0,1,.63.92,2.73,2.73,0,0,1,.23,1.14v0A2.69,2.69,0,0,1,164.78,502.71Zm-1.34-1.13a1.63,1.63,0,0,0-.1-.59,1.44,1.44,0,0,0-.3-.49,1.41,1.41,0,0,0-.47-.34,1.35,1.35,0,0,0-.6-.13,1.48,1.48,0,0,0-.61.12,1.33,1.33,0,0,0-.74.82,1.63,1.63,0,0,0-.1.59v0a1.66,1.66,0,0,0,.1.59,1.54,1.54,0,0,0,.3.49,1.57,1.57,0,0,0,.47.34,1.53,1.53,0,0,0,1.21,0,1.39,1.39,0,0,0,.46-.33,1.59,1.59,0,0,0,.29-.49,1.87,1.87,0,0,0,.09-.59Z" style="fill:#fff"/><path d="M169.71,504.37v-3.12a1.31,1.31,0,0,0-.25-.85.91.91,0,0,0-.71-.29,1,1,0,0,0-.73.29,1.2,1.2,0,0,0-.27.85v3.12h-1.59v-5.6h1.59v.8a3.27,3.27,0,0,1,.3-.35,3.51,3.51,0,0,1,.36-.29,2,2,0,0,1,.44-.2,2.21,2.21,0,0,1,.54-.07,1.82,1.82,0,0,1,1.41.55,2.22,2.22,0,0,1,.5,1.53v3.63Z" style="fill:#fff"/><path d="M177.9,501.92a1.68,1.68,0,0,1,0,.2H174a1.35,1.35,0,0,0,.48.82,1.39,1.39,0,0,0,.89.28,1.81,1.81,0,0,0,.72-.14,2.3,2.3,0,0,0,.64-.44l.91.81a2.77,2.77,0,0,1-1,.77,3,3,0,0,1-1.33.28,3.19,3.19,0,0,1-1.16-.21,2.66,2.66,0,0,1-.93-.6,2.88,2.88,0,0,1-.62-.91,3.22,3.22,0,0,1-.21-1.18v0a3,3,0,0,1,.2-1.13,2.91,2.91,0,0,1,.57-.93,2.5,2.5,0,0,1,.87-.63,2.78,2.78,0,0,1,1.13-.23,2.7,2.7,0,0,1,1.21.25,2.37,2.37,0,0,1,.85.68,2.56,2.56,0,0,1,.5,1,3.93,3.93,0,0,1,.17,1.14v0C177.91,501.8,177.9,501.87,177.9,501.92ZM176,500.27a1.16,1.16,0,0,0-1.61,0,1.69,1.69,0,0,0-.41.87h2.4A1.55,1.55,0,0,0,176,500.27Z" style="fill:#fff"/><path d="M179.66,504.37H179V502.7h1.69v1.41a2,2,0,0,1-.5,1.49,2.11,2.11,0,0,1-1.44.46l-.13-.65C179.38,505.33,179.72,505,179.66,504.37Z" style="fill:#fff"/><path d="M191.4,503.24a1.75,1.75,0,0,1-.55.63,2.46,2.46,0,0,1-.87.37,4.36,4.36,0,0,1-1.12.13h-3.48v-7.32h3.39a2.74,2.74,0,0,1,1.77.51,1.68,1.68,0,0,1,.65,1.38v0a1.89,1.89,0,0,1-.08.56,1.56,1.56,0,0,1-.21.43,2,2,0,0,1-.3.34,2.19,2.19,0,0,1-.37.25,2.43,2.43,0,0,1,1,.66,1.66,1.66,0,0,1,.36,1.14v0A1.87,1.87,0,0,1,191.4,503.24Zm-1.8-4a.62.62,0,0,0-.28-.55,1.32,1.32,0,0,0-.78-.2H187V500h1.49a1.69,1.69,0,0,0,.84-.18.63.63,0,0,0,.32-.59Zm.4,2.93a.7.7,0,0,0-.28-.58,1.55,1.55,0,0,0-.91-.21H187V503h1.91a1.63,1.63,0,0,0,.84-.19.67.67,0,0,0,.3-.61Z" style="fill:#fff"/><path d="M196.25,498.54v5.83h-1.61v-5.83h-2.23v-1.49h6.06v1.49Z" style="fill:#fff"/><path d="M207.75,504.42h-1.4l-1.66-4.79L203,504.42h-1.4l-2.5-7.37h1.73l1.51,5,1.65-5h1.38l1.64,5,1.51-5h1.69Z" style="fill:#fff"/><path d="M218,504.37v-3.12a1.25,1.25,0,0,0-.25-.85.88.88,0,0,0-.71-.29.93.93,0,0,0-.72.29,1.2,1.2,0,0,0-.27.85v3.12h-1.59v-7.63H216v2.83a3.27,3.27,0,0,1,.3-.35,2.17,2.17,0,0,1,.36-.29,2,2,0,0,1,.44-.2,2.21,2.21,0,0,1,.54-.07,1.82,1.82,0,0,1,1.41.55,2.22,2.22,0,0,1,.49,1.53v3.63Z" style="fill:#fff"/><path d="M226.49,502.71a3.15,3.15,0,0,1-.64.93,3.2,3.2,0,0,1-1,.63,3.23,3.23,0,0,1-1.22.23,3.17,3.17,0,0,1-1.2-.23,2.86,2.86,0,0,1-1.82-2.67v0a2.9,2.9,0,0,1,.23-1.14,2.82,2.82,0,0,1,.64-.92,2.86,2.86,0,0,1,1-.63,3.22,3.22,0,0,1,1.21-.23,3.18,3.18,0,0,1,1.21.23,2.82,2.82,0,0,1,.95.61,3,3,0,0,1,.64.92,2.9,2.9,0,0,1,.23,1.14v0A2.85,2.85,0,0,1,226.49,502.71Zm-1.34-1.13A1.63,1.63,0,0,0,225,501a1.44,1.44,0,0,0-.3-.49,1.46,1.46,0,0,0-1.07-.47,1.48,1.48,0,0,0-.61.12,1.25,1.25,0,0,0-.45.33,1.42,1.42,0,0,0-.29.49,1.63,1.63,0,0,0-.1.59v0a1.66,1.66,0,0,0,.1.59,1.57,1.57,0,0,0,.31.49,1.53,1.53,0,0,0,.46.34,1.47,1.47,0,0,0,.6.13,1.52,1.52,0,0,0,.62-.12,1.35,1.35,0,0,0,.45-.33,1.42,1.42,0,0,0,.29-.49,1.87,1.87,0,0,0,.1-.59Z" style="fill:#fff"/><path d="M234.16,504.41h-1.43L231.65,501l-1.1,3.44h-1.42l-1.72-5.64H229l.9,3.39,1.05-3.42h1.37l1.07,3.43.92-3.4h1.58Z" style="fill:#fff"/><path d="M244.05,504.37v-.8a2.55,2.55,0,0,1-.7.65,2,2,0,0,1-1,.25,2.4,2.4,0,0,1-1.77-.74,2.71,2.71,0,0,1-.57-.91,3.43,3.43,0,0,1-.21-1.24v0a3.39,3.39,0,0,1,.21-1.24,2.86,2.86,0,0,1,.56-.91,2.32,2.32,0,0,1,.81-.56,2.47,2.47,0,0,1,1-.19,2,2,0,0,1,1.05.25,3,3,0,0,1,.69.58v-2.75h1.59v7.63Zm0-2.81a1.66,1.66,0,0,0-.11-.64,1.48,1.48,0,0,0-.29-.49,1.13,1.13,0,0,0-.43-.32,1.31,1.31,0,0,0-1.05,0,1.25,1.25,0,0,0-.44.32,1.69,1.69,0,0,0-.3.49,1.79,1.79,0,0,0-.11.64v0a1.81,1.81,0,0,0,.11.63,1.75,1.75,0,0,0,.3.5,1.38,1.38,0,0,0,.44.32,1.31,1.31,0,0,0,1.05,0,1.24,1.24,0,0,0,.43-.32,1.53,1.53,0,0,0,.29-.5,1.61,1.61,0,0,0,.11-.63Z" style="fill:#fff"/><path d="M252.63,502.71a3.15,3.15,0,0,1-.64.93,3.2,3.2,0,0,1-1,.63,3.23,3.23,0,0,1-1.22.23,3.17,3.17,0,0,1-1.2-.23,2.7,2.7,0,0,1-1-.62,2.81,2.81,0,0,1-.87-2v0a2.9,2.9,0,0,1,.23-1.14,3,3,0,0,1,.64-.92,2.86,2.86,0,0,1,1-.63,3.23,3.23,0,0,1,1.22-.23,3.17,3.17,0,0,1,1.2.23,3,3,0,0,1,1,.61,3.13,3.13,0,0,1,.63.92,2.9,2.9,0,0,1,.23,1.14v0A2.85,2.85,0,0,1,252.63,502.71Zm-1.34-1.13a1.63,1.63,0,0,0-.11-.59,1.44,1.44,0,0,0-.3-.49,1.46,1.46,0,0,0-1.07-.47,1.48,1.48,0,0,0-.61.12,1.35,1.35,0,0,0-.45.33,1.42,1.42,0,0,0-.29.49,1.63,1.63,0,0,0-.1.59v0a1.67,1.67,0,0,0,.11.59,1.5,1.5,0,0,0,.76.83,1.55,1.55,0,0,0,1.22,0,1.35,1.35,0,0,0,.45-.33,1.42,1.42,0,0,0,.29-.49,1.63,1.63,0,0,0,.1-.59Z" style="fill:#fff"/><path d="M257.39,504.37v-7.32H259v7.32Z" style="fill:#fff"/><path d="M269.24,504.46a2.15,2.15,0,0,1-.59.91,2.38,2.38,0,0,1-1,.53,5.05,5.05,0,0,1-1.37.16,5.6,5.6,0,0,1-1.31-.15,4.71,4.71,0,0,1-1.16-.43l.54-1.19a4.72,4.72,0,0,0,.88.37,3.52,3.52,0,0,0,1,.14,1.64,1.64,0,0,0,1.21-.39,1.54,1.54,0,0,0,.39-1.14V503a2.67,2.67,0,0,1-.77.67,2.11,2.11,0,0,1-1.06.24,2.74,2.74,0,0,1-.94-.17,2.44,2.44,0,0,1-.79-.51,2.37,2.37,0,0,1-.55-.82,2.78,2.78,0,0,1-.21-1.11v0a2.83,2.83,0,0,1,.21-1.12,2.54,2.54,0,0,1,.56-.82,2.44,2.44,0,0,1,.79-.51,2.69,2.69,0,0,1,.93-.17,2.14,2.14,0,0,1,1.07.24,2.87,2.87,0,0,1,.74.6v-.73h1.59v4.34A4.15,4.15,0,0,1,269.24,504.46Zm-1.38-3.18a1.32,1.32,0,0,0-.1-.53,1.22,1.22,0,0,0-.29-.41,1.21,1.21,0,0,0-.43-.27,1.63,1.63,0,0,0-.55-.09,1.61,1.61,0,0,0-.54.09,1.17,1.17,0,0,0-.42.27,1.09,1.09,0,0,0-.29.41,1.32,1.32,0,0,0-.11.53v0a1.21,1.21,0,0,0,.39.94,1.41,1.41,0,0,0,1,.35,1.63,1.63,0,0,0,.55-.09,1.21,1.21,0,0,0,.43-.27,1.22,1.22,0,0,0,.29-.41,1.3,1.3,0,0,0,.1-.52Z" style="fill:#fff"/><path d="M276.08,501.92c0,.06,0,.12,0,.2h-3.9a1.35,1.35,0,0,0,.48.82,1.37,1.37,0,0,0,.89.28,1.8,1.8,0,0,0,.71-.14,2.2,2.2,0,0,0,.65-.44l.91.81a3,3,0,0,1-1,.77,3.07,3.07,0,0,1-1.33.28,3.2,3.2,0,0,1-1.17-.21,2.66,2.66,0,0,1-.93-.6,2.85,2.85,0,0,1-.61-.91,3,3,0,0,1-.22-1.18v0a3,3,0,0,1,.21-1.13,2.72,2.72,0,0,1,.56-.93,2.63,2.63,0,0,1,.88-.63,3,3,0,0,1,2.34,0,2.46,2.46,0,0,1,.85.68,2.88,2.88,0,0,1,.5,1,3.93,3.93,0,0,1,.16,1.14v.22Zm-1.92-1.65a1,1,0,0,0-.81-.33,1.06,1.06,0,0,0-.81.32,1.68,1.68,0,0,0-.4.87h2.39A1.54,1.54,0,0,0,274.16,500.27Z" style="fill:#fff"/><path d="M279.86,504.38a3,3,0,0,1-.7.08,2.76,2.76,0,0,1-.67-.07,1.27,1.27,0,0,1-.51-.28,1.38,1.38,0,0,1-.34-.52,2.31,2.31,0,0,1-.12-.81v-2.66h-.67v-1.35h.67v-1.44h1.59v1.44h1.32v1.35h-1.32v2.4c0,.36.17.54.52.54a1.54,1.54,0,0,0,.78-.2v1.28A2.48,2.48,0,0,1,279.86,504.38Z" style="fill:#fff"/><path d="M287.33,504.38a2.87,2.87,0,0,1-.7.08,2.73,2.73,0,0,1-.66-.07,1.24,1.24,0,0,1-.85-.8,2.31,2.31,0,0,1-.12-.81v-2.66h-.67v-1.35H285v-1.44h1.59v1.44h1.32v1.35h-1.32v2.4q0,.54.51.54a1.57,1.57,0,0,0,.79-.2v1.28A2.56,2.56,0,0,1,287.33,504.38Z" style="fill:#fff"/><path d="M292.62,504.37v-3.12a1.25,1.25,0,0,0-.25-.85.88.88,0,0,0-.71-.29,1,1,0,0,0-.73.29,1.25,1.25,0,0,0-.26.85v3.12h-1.59v-7.63h1.59v2.83a3.27,3.27,0,0,1,.3-.35,2.17,2.17,0,0,1,.36-.29,2,2,0,0,1,.44-.2,2.21,2.21,0,0,1,.54-.07,1.82,1.82,0,0,1,1.41.55,2.22,2.22,0,0,1,.49,1.53v3.63Z" style="fill:#fff"/><path d="M295.62,498.15v-1.41h1.68v1.41Zm.05,6.22v-5.6h1.59v5.6Z" style="fill:#fff"/><path d="M302.7,503.48a1.56,1.56,0,0,1-.46.56,2.27,2.27,0,0,1-.68.33,3.22,3.22,0,0,1-.84.1,3.76,3.76,0,0,1-1.22-.2,4.06,4.06,0,0,1-1.19-.64l.68-1.05a3.79,3.79,0,0,0,.92.5,2.26,2.26,0,0,0,.85.17,1,1,0,0,0,.51-.11.38.38,0,0,0,.16-.31v0a.3.3,0,0,0-.1-.22.83.83,0,0,0-.25-.16,2.64,2.64,0,0,0-.37-.13l-.44-.14a4.56,4.56,0,0,1-.59-.2,2.05,2.05,0,0,1-.54-.31,1.53,1.53,0,0,1-.39-.48,1.35,1.35,0,0,1-.16-.69v0a1.67,1.67,0,0,1,.17-.76,1.5,1.5,0,0,1,.44-.56,1.79,1.79,0,0,1,.64-.34,2.63,2.63,0,0,1,.8-.12,3.8,3.8,0,0,1,1.09.17,4.2,4.2,0,0,1,1,.48l-.6,1.1a4.6,4.6,0,0,0-.82-.38,2,2,0,0,0-.7-.14.7.7,0,0,0-.44.11.33.33,0,0,0-.14.27v0a.29.29,0,0,0,.09.21,1,1,0,0,0,.25.16,3,3,0,0,0,.36.16l.44.14a5.5,5.5,0,0,1,.59.23,2.14,2.14,0,0,1,.55.32,1.35,1.35,0,0,1,.39.46,1.23,1.23,0,0,1,.16.65v0A1.86,1.86,0,0,1,302.7,503.48Z" style="fill:#fff"/><path d="M312.7,502.71a3,3,0,0,1-.64.93,3.21,3.21,0,0,1-3.38.63,2.79,2.79,0,0,1-.95-.62,2.92,2.92,0,0,1-.87-2v0a2.74,2.74,0,0,1,.24-1.14,2.79,2.79,0,0,1,.63-.92,3,3,0,0,1,1-.63,3.23,3.23,0,0,1,1.22-.23,3.17,3.17,0,0,1,1.2.23,3,3,0,0,1,1,.61,2.79,2.79,0,0,1,.63.92,2.9,2.9,0,0,1,.23,1.14v0A2.85,2.85,0,0,1,312.7,502.71Zm-1.34-1.13a1.63,1.63,0,0,0-.1-.59,1.53,1.53,0,0,0-.78-.83,1.31,1.31,0,0,0-.59-.13,1.44,1.44,0,0,0-.61.12,1.39,1.39,0,0,0-.46.33,1.42,1.42,0,0,0-.29.49,1.87,1.87,0,0,0-.1.59v0a1.67,1.67,0,0,0,.11.59,1.54,1.54,0,0,0,.3.49,1.45,1.45,0,0,0,.47.34,1.4,1.4,0,0,0,.6.13,1.48,1.48,0,0,0,.61-.12,1.25,1.25,0,0,0,.45-.33,1.28,1.28,0,0,0,.29-.49,1.63,1.63,0,0,0,.1-.59Z" style="fill:#fff"/><path d="M316.87,498a1.4,1.4,0,0,0-.37,0c-.39,0-.58.2-.58.61v.22h1.29v1.29h-1.27v4.25h-1.59v-4.25h-.66v-1.3h.66v-.36a1.81,1.81,0,0,1,.45-1.36,1.75,1.75,0,0,1,1.29-.44,3.87,3.87,0,0,1,.64,0,2.35,2.35,0,0,1,.49.11v1.32A2.68,2.68,0,0,0,316.87,498Z" style="fill:#fff"/><path d="M320.87,498a1.53,1.53,0,0,0-.38,0c-.38,0-.58.2-.58.61v.22h1.29v1.29h-1.26v4.25h-1.59v-4.25h-.66v-1.3h.66v-.36a1.81,1.81,0,0,1,.44-1.36,1.78,1.78,0,0,1,1.29-.44,4,4,0,0,1,.65,0,2.4,2.4,0,0,1,.48.11v1.32A2.56,2.56,0,0,0,320.87,498Z" style="fill:#fff"/><path d="M327.29,501.92c0,.06,0,.12,0,.2h-3.9a1.3,1.3,0,0,0,.47.82,1.4,1.4,0,0,0,.9.28,1.8,1.8,0,0,0,.71-.14,2.33,2.33,0,0,0,.65-.44l.91.81a2.9,2.9,0,0,1-1,.77,3,3,0,0,1-1.32.28,3.2,3.2,0,0,1-1.17-.21,2.66,2.66,0,0,1-.93-.6,2.7,2.7,0,0,1-.61-.91,3,3,0,0,1-.22-1.18v0a3.24,3.24,0,0,1,.2-1.13,2.91,2.91,0,0,1,.57-.93,2.59,2.59,0,0,1,.87-.63,2.78,2.78,0,0,1,1.13-.23,2.67,2.67,0,0,1,1.21.25,2.37,2.37,0,0,1,.85.68,2.73,2.73,0,0,1,.51,1,4.3,4.3,0,0,1,.16,1.14v0A1.15,1.15,0,0,1,327.29,501.92Zm-1.92-1.65a1.16,1.16,0,0,0-1.61,0,1.69,1.69,0,0,0-.41.87h2.4A1.49,1.49,0,0,0,325.37,500.27Z" style="fill:#fff"/><path d="M331.77,500.32a1.65,1.65,0,0,0-1.25.48,2.14,2.14,0,0,0-.45,1.5v2.07h-1.59v-5.6h1.59v1.12a2.42,2.42,0,0,1,.66-.92,1.6,1.6,0,0,1,1.13-.31v1.66Z" style="fill:#fff"/></g></g><path id="Path_2336" data-name="Path 2336" d="M351.38,667.6c-5.78-5.09-15.83-6.06-15.83-6.06H144.36a8.8,8.8,0,0,1-8.81-8.79V632.91a8.81,8.81,0,0,1,8.79-8.82H343.81a8.82,8.82,0,0,1,8.82,8.82h0v17.76a23.72,23.72,0,0,0-.21,4C352.58,663.53,356.42,672,351.38,667.6Z" style="fill:url(#linear-gradient-5)"/><g id="Grat_livig_home_for_the_shop" data-name="Grat livig home for the shop" style="isolation:isolate"><g style="isolation:isolate"><path d="M163.63,645.93a4.52,4.52,0,0,1-1.78.34,4.13,4.13,0,0,1-1.56-.29,3.48,3.48,0,0,1-2-2,4.14,4.14,0,0,1-.28-1.51v0a3.82,3.82,0,0,1,.29-1.47,3.66,3.66,0,0,1,.8-1.2,3.75,3.75,0,0,1,1.21-.82,3.88,3.88,0,0,1,1.54-.29,5.93,5.93,0,0,1,.89.06,4.11,4.11,0,0,1,.75.2,3,3,0,0,1,.65.31,5.9,5.9,0,0,1,.59.43l-1,1.22a3.77,3.77,0,0,0-.42-.31,2.55,2.55,0,0,0-.43-.23,3.14,3.14,0,0,0-.49-.15,3.27,3.27,0,0,0-.57-.05,1.86,1.86,0,0,0-.82.18,2.28,2.28,0,0,0-1.12,1.22,2.37,2.37,0,0,0-.16.88v0a2.51,2.51,0,0,0,.16.92,2.15,2.15,0,0,0,1.16,1.23,2.31,2.31,0,0,0,.89.17,2.58,2.58,0,0,0,1.52-.44v-1H161.8v-1.39H165v3.18A5.58,5.58,0,0,1,163.63,645.93Z" style="fill:#fff"/><path d="M169.65,642.09a1.63,1.63,0,0,0-1.25.48,2.14,2.14,0,0,0-.45,1.5v2.07h-1.59v-5.6H168v1.12a2.34,2.34,0,0,1,.66-.92,1.58,1.58,0,0,1,1.12-.31v1.66Z" style="fill:#fff"/><path d="M176,643.69c0,.06,0,.13,0,.2H172a1.35,1.35,0,0,0,.48.82,1.39,1.39,0,0,0,.89.28,1.65,1.65,0,0,0,.72-.14,2.3,2.3,0,0,0,.64-.44l.91.81a2.77,2.77,0,0,1-1,.77,3,3,0,0,1-1.33.28,3.19,3.19,0,0,1-1.16-.21,2.7,2.7,0,0,1-1.54-1.52,2.94,2.94,0,0,1-.22-1.17v0a3,3,0,0,1,.2-1.13,2.91,2.91,0,0,1,.57-.93,2.5,2.5,0,0,1,.87-.63,2.78,2.78,0,0,1,1.13-.23,2.7,2.7,0,0,1,1.21.25,2.37,2.37,0,0,1,.85.68,2.56,2.56,0,0,1,.5,1,4,4,0,0,1,.17,1.14v0C176,643.57,176,643.64,176,643.69ZM174,642a1.16,1.16,0,0,0-1.61,0,1.69,1.69,0,0,0-.41.87h2.4A1.55,1.55,0,0,0,174,642Z" style="fill:#fff"/><path d="M180.42,646.14v-.61a2.14,2.14,0,0,1-.7.52,2.65,2.65,0,0,1-1.74.08,1.78,1.78,0,0,1-.61-.32,1.71,1.71,0,0,1-.42-.54,1.75,1.75,0,0,1-.15-.74v0a1.81,1.81,0,0,1,.17-.8,1.55,1.55,0,0,1,.47-.55,1.87,1.87,0,0,1,.71-.33,3.66,3.66,0,0,1,.91-.11,4.06,4.06,0,0,1,.75.06,6.29,6.29,0,0,1,.62.17v-.09a1,1,0,0,0-.3-.77,1.36,1.36,0,0,0-.9-.26,3.83,3.83,0,0,0-.81.08,6.09,6.09,0,0,0-.74.22l-.4-1.21a6.12,6.12,0,0,1,1-.32,4.66,4.66,0,0,1,1.21-.13,2.19,2.19,0,0,1,2.5,2.42v3.25Zm0-2.26a2.76,2.76,0,0,0-.46-.15,2.44,2.44,0,0,0-.55-.06,1.47,1.47,0,0,0-.81.2.67.67,0,0,0-.29.58v0a.59.59,0,0,0,.24.5,1,1,0,0,0,.63.18,1.4,1.4,0,0,0,.9-.27.88.88,0,0,0,.34-.72Z" style="fill:#fff"/><path d="M185.92,646.15a2.45,2.45,0,0,1-.7.08,2.67,2.67,0,0,1-.66-.07,1.19,1.19,0,0,1-.85-.8,2.31,2.31,0,0,1-.12-.81v-2.66h-.67v-1.35h.67V639.1h1.59v1.44h1.32v1.35h-1.32v2.4q0,.54.51.54a1.57,1.57,0,0,0,.79-.2v1.28A2.56,2.56,0,0,1,185.92,646.15Z" style="fill:#fff"/><path d="M188.24,646.14h-.64v-1.67h1.69v1.41a1.94,1.94,0,0,1-.5,1.49,2.11,2.11,0,0,1-1.44.46l-.13-.65C188,647.1,188.3,646.75,188.24,646.14Z" style="fill:#fff"/><path d="M194,646.14v-7.32h1.61v7.32Z" style="fill:#fff"/><path d="M206.74,646.18h-1.43l-1.08-3.44-1.1,3.44h-1.42L200,640.54h1.62l.89,3.39,1.06-3.42h1.37l1.07,3.43.92-3.4h1.58Z" style="fill:#fff"/><path d="M209.48,639.92v-1.41h1.67v1.41Zm0,6.22v-5.6h1.59v5.6Z" style="fill:#fff"/><path d="M212.68,646.14v-7.63h1.59v7.63Z" style="fill:#fff"/><path d="M215.84,646.14v-7.63h1.59v7.63Z" style="fill:#fff"/><path d="M225.21,646.18h-1.45l-2.2-5.64h1.68l1.25,3.75,1.27-3.75h1.65Z" style="fill:#fff"/><path d="M228.36,639.92v-1.41H230v1.41Zm0,6.22v-5.6H230v5.6Z" style="fill:#fff"/><path d="M235.44,645.25a1.56,1.56,0,0,1-.46.56,2,2,0,0,1-.68.32,2.84,2.84,0,0,1-.84.11,3.76,3.76,0,0,1-1.22-.2,4.06,4.06,0,0,1-1.19-.64l.68-1a3.48,3.48,0,0,0,.92.5,2.47,2.47,0,0,0,.85.17.9.9,0,0,0,.5-.11.37.37,0,0,0,.17-.31v0a.3.3,0,0,0-.1-.22,1,1,0,0,0-.25-.16l-.37-.13-.44-.14a4.1,4.1,0,0,1-.59-.2,2.38,2.38,0,0,1-.54-.31,1.71,1.71,0,0,1-.4-.48,1.47,1.47,0,0,1-.15-.69v0a1.72,1.72,0,0,1,.6-1.32,1.84,1.84,0,0,1,.65-.34,2.63,2.63,0,0,1,.8-.12,3.69,3.69,0,0,1,1.08.17,4.09,4.09,0,0,1,1,.48l-.6,1.1a4.6,4.6,0,0,0-.82-.38,2,2,0,0,0-.7-.14.7.7,0,0,0-.44.11.31.31,0,0,0-.14.27v0a.29.29,0,0,0,.09.21,1,1,0,0,0,.25.16,3,3,0,0,0,.36.16l.44.14a5.5,5.5,0,0,1,.59.23,2.08,2.08,0,0,1,.54.32,1.27,1.27,0,0,1,.4.46,1.23,1.23,0,0,1,.16.65v0A1.86,1.86,0,0,1,235.44,645.25Z" style="fill:#fff"/><path d="M236.77,639.92v-1.41h1.67v1.41Zm0,6.22v-5.6h1.59v5.6Z" style="fill:#fff"/><path d="M242.49,646.15a2.5,2.5,0,0,1-.7.08,2.67,2.67,0,0,1-.66-.07,1.19,1.19,0,0,1-.85-.8,2.31,2.31,0,0,1-.12-.81v-2.66h-.67v-1.35h.67V639.1h1.59v1.44h1.32v1.35h-1.32v2.4q0,.54.51.54a1.51,1.51,0,0,0,.78-.2v1.28A2.29,2.29,0,0,1,242.49,646.15Z" style="fill:#fff"/><path d="M250,646.15a2.54,2.54,0,0,1-.7.08,2.76,2.76,0,0,1-.67-.07,1.27,1.27,0,0,1-.51-.28,1.38,1.38,0,0,1-.34-.52,2.31,2.31,0,0,1-.12-.81v-2.66H247v-1.35h.66V639.1h1.59v1.44h1.32v1.35h-1.32v2.4c0,.36.17.54.52.54a1.51,1.51,0,0,0,.78-.2v1.28A2.48,2.48,0,0,1,250,646.15Z" style="fill:#fff"/><path d="M255.26,646.14V643a1.31,1.31,0,0,0-.25-.85.91.91,0,0,0-.71-.29,1,1,0,0,0-.73.29,1.2,1.2,0,0,0-.27.85v3.12h-1.59v-7.63h1.59v2.83a3.27,3.27,0,0,1,.3-.35,1.93,1.93,0,0,1,.36-.28,1.63,1.63,0,0,1,.44-.21,2.21,2.21,0,0,1,.54-.07,1.82,1.82,0,0,1,1.41.55,2.22,2.22,0,0,1,.5,1.53v3.63Z" style="fill:#fff"/><path d="M263.45,643.69a1.5,1.5,0,0,1,0,.2h-3.9a1.35,1.35,0,0,0,.48.82,1.39,1.39,0,0,0,.89.28,1.65,1.65,0,0,0,.72-.14,2.3,2.3,0,0,0,.64-.44l.91.81a2.77,2.77,0,0,1-1,.77,3.07,3.07,0,0,1-1.33.28,3.15,3.15,0,0,1-1.16-.21,2.66,2.66,0,0,1-.93-.6,2.82,2.82,0,0,1-.62-.92,3.13,3.13,0,0,1-.21-1.17v0a3,3,0,0,1,.2-1.13,2.59,2.59,0,0,1,.57-.93,2.5,2.5,0,0,1,.87-.63,2.75,2.75,0,0,1,1.13-.23,2.7,2.7,0,0,1,1.21.25,2.46,2.46,0,0,1,.85.68,2.56,2.56,0,0,1,.5,1,4,4,0,0,1,.17,1.14v0C263.46,643.57,263.45,643.64,263.45,643.69ZM261.53,642a1.16,1.16,0,0,0-1.61,0,1.69,1.69,0,0,0-.41.87h2.4A1.55,1.55,0,0,0,261.53,642Z" style="fill:#fff"/><path d="M271.72,645.25a1.64,1.64,0,0,1-.45.56,2.19,2.19,0,0,1-.69.32,2.84,2.84,0,0,1-.84.11,3.8,3.8,0,0,1-1.22-.2,4.18,4.18,0,0,1-1.19-.64l.68-1a3.64,3.64,0,0,0,.92.5,2.52,2.52,0,0,0,.85.17,1,1,0,0,0,.51-.11.36.36,0,0,0,.16-.31v0a.33.33,0,0,0-.09-.22,1.05,1.05,0,0,0-.26-.16l-.37-.13-.44-.14a5.14,5.14,0,0,1-.59-.2,2.38,2.38,0,0,1-.54-.31,1.53,1.53,0,0,1-.39-.48,1.47,1.47,0,0,1-.15-.69v0a1.67,1.67,0,0,1,.16-.76,1.71,1.71,0,0,1,.44-.56,1.75,1.75,0,0,1,.65-.34,2.53,2.53,0,0,1,.8-.12,3.79,3.79,0,0,1,1.08.17,4.47,4.47,0,0,1,1,.48l-.61,1.1a4.86,4.86,0,0,0-.81-.38,2,2,0,0,0-.7-.14.66.66,0,0,0-.44.11.32.32,0,0,0-.15.27v0a.29.29,0,0,0,.09.21,1.05,1.05,0,0,0,.26.16,2,2,0,0,0,.36.16l.43.14c.19.06.39.14.6.23a2.08,2.08,0,0,1,.54.32,1.5,1.5,0,0,1,.4.46,1.33,1.33,0,0,1,.15.65v0A1.86,1.86,0,0,1,271.72,645.25Z" style="fill:#fff"/><path d="M276.57,646.14V643a1.31,1.31,0,0,0-.25-.85.91.91,0,0,0-.71-.29,1,1,0,0,0-.73.29,1.2,1.2,0,0,0-.27.85v3.12H273v-7.63h1.59v2.83a3.27,3.27,0,0,1,.3-.35,1.93,1.93,0,0,1,.36-.28,1.63,1.63,0,0,1,.44-.21,2.21,2.21,0,0,1,.54-.07,1.82,1.82,0,0,1,1.41.55,2.22,2.22,0,0,1,.5,1.53v3.63Z" style="fill:#fff"/><path d="M285.1,644.48a3,3,0,0,1-.64.93,3,3,0,0,1-2.17.86,3.13,3.13,0,0,1-1.2-.23,2.84,2.84,0,0,1-1-.62,2.86,2.86,0,0,1-.86-2v0a2.73,2.73,0,0,1,.23-1.14,2.79,2.79,0,0,1,.63-.92,3,3,0,0,1,1-.63,3.27,3.27,0,0,1,2.41,0,3,3,0,0,1,1,.61,2.79,2.79,0,0,1,.63.92,2.87,2.87,0,0,1,.23,1.14v0A2.85,2.85,0,0,1,285.1,644.48Zm-1.34-1.13a1.63,1.63,0,0,0-.1-.59,1.53,1.53,0,0,0-.78-.83,1.31,1.31,0,0,0-.59-.13,1.44,1.44,0,0,0-.61.12,1.39,1.39,0,0,0-.46.33,1.59,1.59,0,0,0-.29.49,1.87,1.87,0,0,0-.1.59v0a1.67,1.67,0,0,0,.11.59,1.54,1.54,0,0,0,.3.49,1.46,1.46,0,0,0,1.07.47,1.48,1.48,0,0,0,.61-.12,1.39,1.39,0,0,0,.46-.33,1.49,1.49,0,0,0,.28-.49,1.63,1.63,0,0,0,.1-.59Z" style="fill:#fff"/><path d="M292.15,644.59a2.86,2.86,0,0,1-.56.91,2.35,2.35,0,0,1-1.77.74,2,2,0,0,1-1.05-.24,2.71,2.71,0,0,1-.7-.59v2.4h-1.59v-7.27h1.59v.79a2.41,2.41,0,0,1,.71-.64,1.93,1.93,0,0,1,1-.26,2.44,2.44,0,0,1,.95.19,2.23,2.23,0,0,1,.81.56,2.71,2.71,0,0,1,.57.91,3.19,3.19,0,0,1,.22,1.24v0A3.19,3.19,0,0,1,292.15,644.59Zm-1.37-1.26a1.87,1.87,0,0,0-.11-.64,1.35,1.35,0,0,0-.3-.49,1.21,1.21,0,0,0-.43-.32,1.36,1.36,0,0,0-.53-.11,1.32,1.32,0,0,0-.53.11,1.21,1.21,0,0,0-.43.32,1.48,1.48,0,0,0-.29.49,1.87,1.87,0,0,0-.11.64v0a1.91,1.91,0,0,0,.11.64,1.59,1.59,0,0,0,.29.49,1.34,1.34,0,0,0,.43.32,1.32,1.32,0,0,0,.53.11,1.36,1.36,0,0,0,.53-.11,1.34,1.34,0,0,0,.43-.32,1.44,1.44,0,0,0,.3-.49,1.83,1.83,0,0,0,.11-.64Z" style="fill:#fff"/><path d="M300.62,645.25a1.64,1.64,0,0,1-.45.56,2.19,2.19,0,0,1-.69.32,2.84,2.84,0,0,1-.84.11,3.8,3.8,0,0,1-1.22-.2,4,4,0,0,1-1.18-.64l.68-1a3.43,3.43,0,0,0,.91.5,2.52,2.52,0,0,0,.85.17,1,1,0,0,0,.51-.11.36.36,0,0,0,.16-.31v0a.33.33,0,0,0-.09-.22.89.89,0,0,0-.26-.16l-.37-.13-.44-.14a5.14,5.14,0,0,1-.59-.2,2.38,2.38,0,0,1-.54-.31,1.53,1.53,0,0,1-.39-.48,1.47,1.47,0,0,1-.15-.69v0a1.67,1.67,0,0,1,.16-.76,1.85,1.85,0,0,1,.44-.56,1.75,1.75,0,0,1,.65-.34,2.58,2.58,0,0,1,.8-.12,3.79,3.79,0,0,1,1.08.17,4.27,4.27,0,0,1,1,.48l-.61,1.1a4.86,4.86,0,0,0-.81-.38,2,2,0,0,0-.7-.14.66.66,0,0,0-.44.11.32.32,0,0,0-.15.27v0a.26.26,0,0,0,.1.21.83.83,0,0,0,.25.16,2,2,0,0,0,.36.16l.43.14a5.63,5.63,0,0,1,.6.23,2.08,2.08,0,0,1,.54.32,1.5,1.5,0,0,1,.4.46,1.33,1.33,0,0,1,.15.65v0A1.86,1.86,0,0,1,300.62,645.25Z" style="fill:#fff"/><path d="M307.49,644.48a3.15,3.15,0,0,1-.64.93,3.2,3.2,0,0,1-1,.63,3.23,3.23,0,0,1-1.22.23,3.17,3.17,0,0,1-1.2-.23,2.7,2.7,0,0,1-1-.62,2.81,2.81,0,0,1-.87-2v0a2.9,2.9,0,0,1,.23-1.14,3,3,0,0,1,.64-.92,2.86,2.86,0,0,1,1-.63,3.23,3.23,0,0,1,1.22-.23,3.17,3.17,0,0,1,1.2.23,3,3,0,0,1,1,.61,3.13,3.13,0,0,1,.63.92,2.87,2.87,0,0,1,.23,1.14v0A2.85,2.85,0,0,1,307.49,644.48Zm-1.34-1.13a1.63,1.63,0,0,0-.11-.59,1.3,1.3,0,0,0-.3-.49,1.46,1.46,0,0,0-1.07-.47,1.48,1.48,0,0,0-.61.12,1.35,1.35,0,0,0-.45.33,1.42,1.42,0,0,0-.29.49,1.63,1.63,0,0,0-.1.59v0a1.67,1.67,0,0,0,.11.59,1.5,1.5,0,0,0,.76.83,1.55,1.55,0,0,0,1.22,0,1.25,1.25,0,0,0,.45-.33,1.51,1.51,0,0,0,.29-.49,1.63,1.63,0,0,0,.1-.59Z" style="fill:#fff"/><path d="M314.43,644.48a3,3,0,0,1-.64.93,3,3,0,0,1-2.17.86,3.13,3.13,0,0,1-1.2-.23,2.84,2.84,0,0,1-1-.62,2.86,2.86,0,0,1-.86-2v0a2.73,2.73,0,0,1,.23-1.14,2.79,2.79,0,0,1,.63-.92,3,3,0,0,1,1-.63,3.27,3.27,0,0,1,2.41,0,3,3,0,0,1,1,.61,2.79,2.79,0,0,1,.63.92,2.87,2.87,0,0,1,.23,1.14v0A2.85,2.85,0,0,1,314.43,644.48Zm-1.34-1.13a1.63,1.63,0,0,0-.1-.59,1.32,1.32,0,0,0-.31-.49,1.24,1.24,0,0,0-.47-.34,1.31,1.31,0,0,0-.59-.13,1.44,1.44,0,0,0-.61.12,1.39,1.39,0,0,0-.46.33,1.59,1.59,0,0,0-.29.49,1.87,1.87,0,0,0-.1.59v0a1.67,1.67,0,0,0,.11.59,1.54,1.54,0,0,0,.3.49,1.46,1.46,0,0,0,1.07.47,1.48,1.48,0,0,0,.61-.12,1.39,1.39,0,0,0,.46-.33A1.49,1.49,0,0,0,313,644a1.63,1.63,0,0,0,.1-.59Z" style="fill:#fff"/><path d="M319.36,646.14V643a1.25,1.25,0,0,0-.26-.85.88.88,0,0,0-.71-.29,1,1,0,0,0-.72.29,1.2,1.2,0,0,0-.27.85v3.12h-1.59v-5.6h1.59v.8a3.27,3.27,0,0,1,.3-.35,1.93,1.93,0,0,1,.36-.28,1.63,1.63,0,0,1,.44-.21,2.21,2.21,0,0,1,.54-.07,1.82,1.82,0,0,1,1.41.55,2.22,2.22,0,0,1,.5,1.53v3.63Z" style="fill:#fff"/></g></g><path id="Path_2337" data-name="Path 2337" d="M50,551.62c5.78,5.09,15.83,6.06,15.83,6.06H257a8.81,8.81,0,0,1,8.82,8.79h0v19.83a8.8,8.8,0,0,1-8.8,8.81H57.52a8.81,8.81,0,0,1-8.81-8.81h0V568.55a24.84,24.84,0,0,0,.2-3.95C48.76,555.69,44.91,547.18,50,551.62Z" style="fill:url(#linear-gradient-6)"/><g id="Visit_that_shop_and_get_your_offer" data-name="Visit that shop and get your offer" style="isolation:isolate"><g style="isolation:isolate"><path d="M72.19,579.28H70.77l-3-7.37h1.77l1.92,5.15,1.91-5.15h1.74Z" style="fill:#fff"/><path d="M76.14,573v-1.41h1.67V573Zm0,6.23v-5.61h1.59v5.61Z" style="fill:#fff"/><path d="M83.22,578.33a1.41,1.41,0,0,1-.46.56,2,2,0,0,1-.68.33,3.35,3.35,0,0,1-.85.11,4,4,0,0,1-1.21-.2,3.87,3.87,0,0,1-1.19-.65l.68-1a3.74,3.74,0,0,0,.91.5,2.57,2.57,0,0,0,.86.17.84.84,0,0,0,.5-.12.34.34,0,0,0,.16-.3v0a.29.29,0,0,0-.09-.22.72.72,0,0,0-.26-.16,2.25,2.25,0,0,0-.37-.13l-.44-.14c-.19-.06-.39-.12-.59-.2a2.08,2.08,0,0,1-.54-.32,1.61,1.61,0,0,1-.39-.47,1.47,1.47,0,0,1-.15-.69v0a1.67,1.67,0,0,1,.16-.76,1.74,1.74,0,0,1,.44-.56,1.86,1.86,0,0,1,.65-.35,2.92,2.92,0,0,1,.8-.11,3.69,3.69,0,0,1,1.08.17,3.91,3.91,0,0,1,1,.48l-.6,1.09a5.92,5.92,0,0,0-.82-.38,2.27,2.27,0,0,0-.7-.14.75.75,0,0,0-.44.11.33.33,0,0,0-.15.28v0a.25.25,0,0,0,.1.2.84.84,0,0,0,.25.17l.36.15.43.15c.2.06.4.14.6.22a2.85,2.85,0,0,1,.54.32,1.6,1.6,0,0,1,.4.46,1.34,1.34,0,0,1,.16.66v0A2,2,0,0,1,83.22,578.33Z" style="fill:#fff"/><path d="M84.55,573v-1.41h1.67V573Zm0,6.23v-5.61h1.59v5.61Z" style="fill:#fff"/><path d="M90.27,579.23a2.48,2.48,0,0,1-.7.09,2.73,2.73,0,0,1-.67-.08,1.07,1.07,0,0,1-.51-.28,1.33,1.33,0,0,1-.33-.51,2.39,2.39,0,0,1-.12-.81V575h-.67v-1.36h.67v-1.43h1.59v1.43h1.31V575H89.53v2.4q0,.54.51.54a1.62,1.62,0,0,0,.78-.2V579A3,3,0,0,1,90.27,579.23Z" style="fill:#fff"/><path d="M97.74,579.23a2.43,2.43,0,0,1-.7.09,2.71,2.71,0,0,1-.66-.08,1.07,1.07,0,0,1-.51-.28,1.24,1.24,0,0,1-.34-.51,2.39,2.39,0,0,1-.12-.81V575h-.67v-1.36h.67v-1.43H97v1.43h1.32V575H97v2.4q0,.54.51.54a1.68,1.68,0,0,0,.79-.2V579A2.85,2.85,0,0,1,97.74,579.23Z" style="fill:#fff"/><path d="M103,579.23v-3.12a1.23,1.23,0,0,0-.26-.85.88.88,0,0,0-.71-.29.93.93,0,0,0-.72.29,1.19,1.19,0,0,0-.27.85v3.12H99.49v-7.64h1.59v2.83a3.17,3.17,0,0,1,.3-.34,2.54,2.54,0,0,1,.36-.29,2,2,0,0,1,.44-.2,1.81,1.81,0,0,1,.54-.07,1.79,1.79,0,0,1,1.41.55,2.22,2.22,0,0,1,.49,1.53v3.63Z" style="fill:#fff"/><path d="M111.23,576.78c0,.05,0,.12,0,.2h-3.9a1.38,1.38,0,0,0,.48.82,1.45,1.45,0,0,0,.89.28,1.76,1.76,0,0,0,.71-.14,2.41,2.41,0,0,0,.65-.44l.91.81a2.84,2.84,0,0,1-1,.76,2.93,2.93,0,0,1-1.33.28,3.2,3.2,0,0,1-1.17-.21,3,3,0,0,1-.93-.59,2.9,2.9,0,0,1-.61-.92,3.13,3.13,0,0,1-.22-1.17v0a3.1,3.1,0,0,1,.21-1.13,2.78,2.78,0,0,1,.57-.93,2.67,2.67,0,0,1,2-.85,2.71,2.71,0,0,1,1.22.25,2.56,2.56,0,0,1,.85.67,2.8,2.8,0,0,1,.5,1,4,4,0,0,1,.16,1.15v.22Zm-1.92-1.66a1,1,0,0,0-.81-.33,1.07,1.07,0,0,0-.81.33,1.61,1.61,0,0,0-.4.86h2.4A1.59,1.59,0,0,0,109.31,575.12Z" style="fill:#fff"/><path d="M119.5,578.33a1.41,1.41,0,0,1-.46.56,1.88,1.88,0,0,1-.68.33,3.22,3.22,0,0,1-.84.11,4,4,0,0,1-1.22-.2,3.87,3.87,0,0,1-1.19-.65l.68-1a3.79,3.79,0,0,0,.92.5,2.47,2.47,0,0,0,.85.17.87.87,0,0,0,.51-.12.37.37,0,0,0,.16-.3v0a.27.27,0,0,0-.1-.22.67.67,0,0,0-.25-.16,2.64,2.64,0,0,0-.37-.13l-.44-.14c-.2-.06-.39-.12-.59-.2a2.08,2.08,0,0,1-.54-.32,1.61,1.61,0,0,1-.39-.47,1.35,1.35,0,0,1-.16-.69v0a1.67,1.67,0,0,1,.17-.76A1.5,1.5,0,0,1,116,574a1.81,1.81,0,0,1,.64-.35,3,3,0,0,1,.8-.11,3.8,3.8,0,0,1,1.09.17,4.08,4.08,0,0,1,1,.48l-.61,1.09a5.43,5.43,0,0,0-.82-.38,2.22,2.22,0,0,0-.7-.14.77.77,0,0,0-.44.11.35.35,0,0,0-.14.28v0a.27.27,0,0,0,.09.2,1,1,0,0,0,.25.17l.36.15.44.15c.19.06.39.14.59.22a2.65,2.65,0,0,1,.55.32,1.57,1.57,0,0,1,.39.46,1.24,1.24,0,0,1,.16.66v0A1.8,1.8,0,0,1,119.5,578.33Z" style="fill:#fff"/><path d="M124.35,579.23v-3.12a1.23,1.23,0,0,0-.26-.85.88.88,0,0,0-.71-.29.93.93,0,0,0-.72.29,1.19,1.19,0,0,0-.27.85v3.12H120.8v-7.64h1.59v2.83a3.17,3.17,0,0,1,.3-.34,2.54,2.54,0,0,1,.36-.29,2,2,0,0,1,.44-.2,1.81,1.81,0,0,1,.54-.07,1.79,1.79,0,0,1,1.41.55,2.22,2.22,0,0,1,.49,1.53v3.63Z" style="fill:#fff"/><path d="M132.88,577.57a3,3,0,0,1-.64.92,2.86,2.86,0,0,1-1,.63,3,3,0,0,1-1.22.23,3.16,3.16,0,0,1-1.2-.22,2.85,2.85,0,0,1-1-.62,3,3,0,0,1-.64-.92,2.85,2.85,0,0,1-.23-1.13v0a2.85,2.85,0,0,1,.23-1.13,3.15,3.15,0,0,1,.64-.93,3,3,0,0,1,1-.62,3,3,0,0,1,1.22-.23,3.16,3.16,0,0,1,1.2.22,3,3,0,0,1,1,.62,3.13,3.13,0,0,1,.63.92,2.85,2.85,0,0,1,.23,1.13v0A2.87,2.87,0,0,1,132.88,577.57Zm-1.34-1.14a1.92,1.92,0,0,0-.1-.59,1.57,1.57,0,0,0-.31-.49,1.62,1.62,0,0,0-.47-.34,1.59,1.59,0,0,0-1.21,0,1.35,1.35,0,0,0-.45.33,1.47,1.47,0,0,0-.29.48,1.66,1.66,0,0,0-.1.59v0a1.73,1.73,0,0,0,.11.6,1.66,1.66,0,0,0,.3.49,1.72,1.72,0,0,0,.46.34,1.61,1.61,0,0,0,1.22,0,1.25,1.25,0,0,0,.45-.33,1.47,1.47,0,0,0,.29-.48,1.7,1.7,0,0,0,.1-.59Z" style="fill:#fff"/><path d="M139.93,577.67a2.75,2.75,0,0,1-.56.91,2.32,2.32,0,0,1-.81.56,2.47,2.47,0,0,1-1,.19,2,2,0,0,1-1.05-.25,2.8,2.8,0,0,1-.69-.58v2.4h-1.59v-7.28h1.59v.8a2.55,2.55,0,0,1,.7-.65,2,2,0,0,1,1-.25,2.45,2.45,0,0,1,1,.19,2.43,2.43,0,0,1,.81.55,2.71,2.71,0,0,1,.57.91,3.43,3.43,0,0,1,.22,1.24v0A3.39,3.39,0,0,1,139.93,577.67Zm-1.37-1.26a1.81,1.81,0,0,0-.11-.63,1.75,1.75,0,0,0-.3-.5,1.22,1.22,0,0,0-.44-.31,1.16,1.16,0,0,0-.52-.11,1.17,1.17,0,0,0-.53.11,1.1,1.1,0,0,0-.43.31,1.53,1.53,0,0,0-.29.5,1.61,1.61,0,0,0-.11.63v0a1.62,1.62,0,0,0,.11.64,1.64,1.64,0,0,0,.29.5,1.22,1.22,0,0,0,.43.31,1.17,1.17,0,0,0,.53.11,1.16,1.16,0,0,0,.52-.11,1.35,1.35,0,0,0,.44-.31,1.84,1.84,0,0,0,.3-.49,1.88,1.88,0,0,0,.11-.65Z" style="fill:#fff"/><path d="M147.74,579.23v-.61a2.24,2.24,0,0,1-.7.52,2.35,2.35,0,0,1-1,.19,2.67,2.67,0,0,1-.75-.11,1.72,1.72,0,0,1-.61-.33,1.49,1.49,0,0,1-.41-.54,1.7,1.7,0,0,1-.15-.73v0a1.64,1.64,0,0,1,.17-.79,1.45,1.45,0,0,1,.46-.55,2,2,0,0,1,.71-.33,3.32,3.32,0,0,1,.92-.11,4,4,0,0,1,.74.06,4.5,4.5,0,0,1,.63.17v-.1a.93.93,0,0,0-.31-.76,1.36,1.36,0,0,0-.9-.26,3.37,3.37,0,0,0-.81.08,4.61,4.61,0,0,0-.73.22l-.4-1.21a7.76,7.76,0,0,1,1-.33,5.32,5.32,0,0,1,1.21-.12,2.49,2.49,0,0,1,1.91.64,2.46,2.46,0,0,1,.59,1.77v3.26Zm0-2.26a1.73,1.73,0,0,0-.47-.15,2.38,2.38,0,0,0-.55-.06,1.34,1.34,0,0,0-.8.2.63.63,0,0,0-.29.57v0a.57.57,0,0,0,.24.5,1,1,0,0,0,.62.18,1.43,1.43,0,0,0,.91-.27.89.89,0,0,0,.34-.71Z" style="fill:#fff"/><path d="M154.19,579.23v-3.12a1.29,1.29,0,0,0-.25-.85.91.91,0,0,0-.71-.29,1,1,0,0,0-.73.29,1.19,1.19,0,0,0-.27.85v3.12h-1.59v-5.61h1.59v.8a3.17,3.17,0,0,1,.3-.34,2.54,2.54,0,0,1,.36-.29,2,2,0,0,1,.44-.2,1.81,1.81,0,0,1,.54-.07,1.79,1.79,0,0,1,1.41.55,2.22,2.22,0,0,1,.5,1.53v3.63Z" style="fill:#fff"/><path d="M161.2,579.23v-.8a2.55,2.55,0,0,1-.7.65,2,2,0,0,1-1,.25,2.37,2.37,0,0,1-1-.19,2.27,2.27,0,0,1-.82-.56,2.61,2.61,0,0,1-.57-.91,3.39,3.39,0,0,1-.21-1.24v0a3.43,3.43,0,0,1,.21-1.24,2.71,2.71,0,0,1,.57-.91,2.24,2.24,0,0,1,.81-.55,2.38,2.38,0,0,1,1-.19,2,2,0,0,1,1,.25,2.45,2.45,0,0,1,.69.58v-2.76h1.59v7.64Zm0-2.82a1.81,1.81,0,0,0-.11-.63,1.75,1.75,0,0,0-.3-.5,1.1,1.1,0,0,0-.43-.31,1.16,1.16,0,0,0-.52-.11,1.17,1.17,0,0,0-.53.11,1.22,1.22,0,0,0-.44.31,1.59,1.59,0,0,0-.29.49,1.62,1.62,0,0,0-.11.64v0a1.62,1.62,0,0,0,.11.64,1.64,1.64,0,0,0,.29.5,1.35,1.35,0,0,0,.44.31,1.17,1.17,0,0,0,.53.11,1.16,1.16,0,0,0,.52-.11,1.22,1.22,0,0,0,.43-.31,1.9,1.9,0,0,0,.3-.5,1.83,1.83,0,0,0,.11-.64Z" style="fill:#fff"/><path d="M172.8,579.31a2.18,2.18,0,0,1-.59.92,2.36,2.36,0,0,1-1,.52,5,5,0,0,1-1.37.17,5.68,5.68,0,0,1-1.32-.15,5.05,5.05,0,0,1-1.16-.44l.55-1.19a4.78,4.78,0,0,0,.88.38,3.48,3.48,0,0,0,1,.13,1.66,1.66,0,0,0,1.21-.38,1.54,1.54,0,0,0,.39-1.14v-.27a3,3,0,0,1-.77.67,2.11,2.11,0,0,1-1.06.24,2.5,2.5,0,0,1-.94-.18,2.3,2.3,0,0,1-.8-.5,2.44,2.44,0,0,1-.54-.82,2.83,2.83,0,0,1-.21-1.12v0a2.75,2.75,0,0,1,.21-1.11,2.3,2.3,0,0,1,.56-.82,2.15,2.15,0,0,1,.79-.51,2.47,2.47,0,0,1,.93-.17,2.14,2.14,0,0,1,1.07.24,3.26,3.26,0,0,1,.74.59v-.73H173V578A4.39,4.39,0,0,1,172.8,579.31Zm-1.38-3.18a1.27,1.27,0,0,0-.1-.52,1.22,1.22,0,0,0-.29-.41,1.16,1.16,0,0,0-.44-.27,1.53,1.53,0,0,0-.54-.1,1.62,1.62,0,0,0-.54.1,1.3,1.3,0,0,0-.43.27,1.2,1.2,0,0,0-.28.41,1.27,1.27,0,0,0-.11.52v0a1.2,1.2,0,0,0,.39.94,1.37,1.37,0,0,0,1,.36,1.33,1.33,0,0,0,.54-.1,1.28,1.28,0,0,0,.44-.26,1.37,1.37,0,0,0,.29-.42,1.27,1.27,0,0,0,.1-.52Z" style="fill:#fff"/><path d="M179.63,576.78c0,.05,0,.12,0,.2h-3.9a1.32,1.32,0,0,0,.47.82,1.46,1.46,0,0,0,.9.28,1.8,1.8,0,0,0,.71-.14,2.57,2.57,0,0,0,.65-.44l.91.81a2.86,2.86,0,0,1-2.29,1,3.2,3.2,0,0,1-1.17-.21,2.79,2.79,0,0,1-.93-.59,2.74,2.74,0,0,1-.61-.92,2.94,2.94,0,0,1-.22-1.17v0a3.32,3.32,0,0,1,.2-1.13,3.14,3.14,0,0,1,.57-.93,2.75,2.75,0,0,1,.88-.62,2.55,2.55,0,0,1,1.12-.23,2.67,2.67,0,0,1,1.21.25,2.59,2.59,0,0,1,.86.67,3,3,0,0,1,.5,1,4.37,4.37,0,0,1,.16,1.15v0A1.21,1.21,0,0,1,179.63,576.78Zm-1.92-1.66a1,1,0,0,0-.8-.33,1.07,1.07,0,0,0-.81.33,1.54,1.54,0,0,0-.4.86h2.39A1.52,1.52,0,0,0,177.71,575.12Z" style="fill:#fff"/><path d="M183.41,579.23a2.43,2.43,0,0,1-.7.09,2.71,2.71,0,0,1-.66-.08,1.07,1.07,0,0,1-.51-.28,1.24,1.24,0,0,1-.34-.51,2.39,2.39,0,0,1-.12-.81V575h-.67v-1.36h.67v-1.43h1.59v1.43H184V575h-1.32v2.4q0,.54.51.54a1.68,1.68,0,0,0,.79-.2V579A2.85,2.85,0,0,1,183.41,579.23Z" style="fill:#fff"/><path d="M190.89,579.23a2.48,2.48,0,0,1-.7.09,2.65,2.65,0,0,1-.66-.08A1.15,1.15,0,0,1,189,579a1.33,1.33,0,0,1-.33-.51,2.39,2.39,0,0,1-.12-.81V575h-.67v-1.36h.67v-1.43h1.59v1.43h1.32V575h-1.32v2.4q0,.54.51.54a1.62,1.62,0,0,0,.78-.2V579A2.75,2.75,0,0,1,190.89,579.23Z" style="fill:#fff"/><path d="M196.18,579.23v-3.12a1.23,1.23,0,0,0-.25-.85.9.9,0,0,0-.71-.29,1,1,0,0,0-.73.29,1.19,1.19,0,0,0-.26.85v3.12h-1.59v-7.64h1.59v2.83c.09-.12.19-.23.29-.34a2.54,2.54,0,0,1,.36-.29,2.19,2.19,0,0,1,.44-.2,1.88,1.88,0,0,1,.55-.07,1.78,1.78,0,0,1,1.4.55,2.22,2.22,0,0,1,.5,1.53v3.63Z" style="fill:#fff"/><path d="M204.37,576.78a1.56,1.56,0,0,1,0,.2h-3.9a1.32,1.32,0,0,0,.47.82,1.46,1.46,0,0,0,.9.28,1.8,1.8,0,0,0,.71-.14,2.57,2.57,0,0,0,.65-.44l.91.81a2.86,2.86,0,0,1-2.29,1,3.2,3.2,0,0,1-1.17-.21,2.79,2.79,0,0,1-.93-.59,2.9,2.9,0,0,1-.61-.92,2.94,2.94,0,0,1-.22-1.17v0a3.32,3.32,0,0,1,.2-1.13,3.14,3.14,0,0,1,.57-.93,2.75,2.75,0,0,1,.88-.62,2.55,2.55,0,0,1,1.12-.23,2.67,2.67,0,0,1,1.21.25,2.59,2.59,0,0,1,.86.67,3,3,0,0,1,.5,1,4,4,0,0,1,.16,1.15v0A1.21,1.21,0,0,1,204.37,576.78Zm-1.91-1.66a1.16,1.16,0,0,0-1.62,0,1.54,1.54,0,0,0-.4.86h2.39A1.58,1.58,0,0,0,202.46,575.12Z" style="fill:#fff"/><path d="M214.26,577.57a2.82,2.82,0,0,1-.64.92,2.86,2.86,0,0,1-1,.63,3,3,0,0,1-1.21.23,3.13,3.13,0,0,1-1.2-.22,3,3,0,0,1-1-.62,2.79,2.79,0,0,1-.63-.92,2.69,2.69,0,0,1-.23-1.13v0a2.69,2.69,0,0,1,.23-1.13,2.94,2.94,0,0,1,.63-.93,3.16,3.16,0,0,1,1-.62,3,3,0,0,1,1.21-.23,3.16,3.16,0,0,1,1.2.22,3,3,0,0,1,1,.62,2.79,2.79,0,0,1,.63.92,2.85,2.85,0,0,1,.23,1.13v0A2.87,2.87,0,0,1,214.26,577.57Zm-1.34-1.14a1.66,1.66,0,0,0-.1-.59,1.41,1.41,0,0,0-.31-.49A1.62,1.62,0,0,0,212,575a1.56,1.56,0,0,0-1.2,0,1.39,1.39,0,0,0-.46.33,1.66,1.66,0,0,0-.29.48,1.92,1.92,0,0,0-.1.59v0a1.73,1.73,0,0,0,.11.6,1.66,1.66,0,0,0,.3.49,1.62,1.62,0,0,0,.47.34,1.43,1.43,0,0,0,.6.12,1.48,1.48,0,0,0,.61-.12,1.39,1.39,0,0,0,.46-.33,1.44,1.44,0,0,0,.28-.48,1.7,1.7,0,0,0,.1-.59Z" style="fill:#fff"/><path d="M218.43,572.89a2.05,2.05,0,0,0-.37,0c-.39,0-.58.2-.58.6v.22h1.29V575H217.5v4.25h-1.59V575h-.66v-1.31h.66v-.35a1.84,1.84,0,0,1,.45-1.37,1.75,1.75,0,0,1,1.29-.43,4,4,0,0,1,.64,0,3.19,3.19,0,0,1,.49.12V573Z" style="fill:#fff"/><path d="M222.43,572.89a2.17,2.17,0,0,0-.38,0q-.57,0-.57.6v.22h1.28V575H221.5v4.25h-1.59V575h-.66v-1.31h.66v-.35a1.84,1.84,0,0,1,.44-1.37,1.78,1.78,0,0,1,1.29-.43,4.11,4.11,0,0,1,.65,0,3.06,3.06,0,0,1,.48.12V573Z" style="fill:#fff"/><path d="M228.85,576.78c0,.05,0,.12,0,.2h-3.9a1.32,1.32,0,0,0,.47.82,1.46,1.46,0,0,0,.9.28,1.8,1.8,0,0,0,.71-.14,2.57,2.57,0,0,0,.65-.44l.91.81a2.86,2.86,0,0,1-2.29,1,3.2,3.2,0,0,1-1.17-.21,2.79,2.79,0,0,1-.93-.59,2.74,2.74,0,0,1-.61-.92,2.94,2.94,0,0,1-.22-1.17v0a3.32,3.32,0,0,1,.2-1.13,3.14,3.14,0,0,1,.57-.93,2.82,2.82,0,0,1,.87-.62,2.63,2.63,0,0,1,1.13-.23,2.67,2.67,0,0,1,1.21.25,2.46,2.46,0,0,1,.85.67,2.82,2.82,0,0,1,.51,1,4.37,4.37,0,0,1,.16,1.15v0A1.21,1.21,0,0,1,228.85,576.78Zm-1.92-1.66a1.15,1.15,0,0,0-1.61,0,1.54,1.54,0,0,0-.4.86h2.39A1.52,1.52,0,0,0,226.93,575.12Z" style="fill:#fff"/><path d="M233.33,575.18a1.65,1.65,0,0,0-1.25.48,2.14,2.14,0,0,0-.45,1.5v2.07H230v-5.61h1.59v1.13a2.34,2.34,0,0,1,.66-.92,1.6,1.6,0,0,1,1.13-.31v1.66Z" style="fill:#fff"/></g></g><rect x="112.76" y="210.2" width="114.66" height="40.13" style="fill:#fff"/><rect x="112.25" y="269.67" width="33.72" height="28.66" style="fill:#fff"/><rect x="152.71" y="269.67" width="33.72" height="28.66" style="fill:#fff"/><rect x="193.18" y="269.67" width="33.72" height="28.66" style="fill:#fff"/><line id="Line_90-2" data-name="Line 90" x1="135.75" y1="263.72" x2="203.59" y2="263.72" style="fill:none;stroke:#fff;stroke-miterlimit:10;stroke-width:3px"/><line id="Line_90-3" data-name="Line 90" x1="146.58" y1="257.99" x2="192.12" y2="257.99" style="fill:none;stroke:#fff;stroke-miterlimit:10;stroke-width:3px"/></svg>