<svg xmlns="http://www.w3.org/2000/svg" width="163.749" height="163.749" viewBox="0 0 163.749 163.749"><circle cx="3.095" cy="3.095" r="3.095" transform="translate(78.779)" fill="#ccc"/><circle cx="3.095" cy="3.095" r="3.095" transform="translate(26.26 52.52)" fill="#ccc"/><circle cx="3.095" cy="3.095" r="3.095" transform="translate(52.52 26.26)" fill="#ccc"/><circle cx="3.095" cy="3.095" r="3.095" transform="translate(0 78.78)" fill="#ccc"/><circle cx="3.095" cy="3.095" r="3.095" transform="translate(131.299 52.52)" fill="#ccc"/><circle cx="3.095" cy="3.095" r="3.095" transform="translate(78.779 105.039)" fill="#ccc"/><circle cx="3.095" cy="3.095" r="3.095" transform="translate(105.039 78.78)" fill="#ccc"/><circle cx="3.095" cy="3.095" r="3.095" transform="translate(52.52 131.299)" fill="#ccc"/><circle cx="3.095" cy="3.095" r="3.095" transform="translate(105.039 26.26)" fill="#ccc"/><circle cx="3.095" cy="3.095" r="3.095" transform="translate(52.52 78.78)" fill="#ccc"/><circle cx="3.095" cy="3.095" r="3.095" transform="translate(78.78 52.52)" fill="#ccc"/><circle cx="3.095" cy="3.095" r="3.095" transform="translate(26.26 105.039)" fill="#ccc"/><circle cx="3.095" cy="3.095" r="3.095" transform="translate(157.559 78.78)" fill="#ccc"/><circle cx="3.095" cy="3.095" r="3.095" transform="translate(105.039 131.299)" fill="#ccc"/><circle cx="3.095" cy="3.095" r="3.095" transform="translate(131.299 105.039)" fill="#ccc"/><circle cx="3.095" cy="3.095" r="3.095" transform="translate(78.779 157.559)" fill="#ccc"/></svg>