<?xml version="1.0" encoding="utf-8"?>
<!-- Generator: Adobe Illustrator 26.0.1, SVG Export Plug-In . SVG Version: 6.00 Build 0)  -->
<svg version="1.1" xmlns="http://www.w3.org/2000/svg" xmlns:xlink="http://www.w3.org/1999/xlink" x="0px" y="0px"
	 viewBox="0 0 701 567" style="enable-background:new 0 0 701 567;" xml:space="preserve">
<style type="text/css">
	.st0{fill:#FFFFFF;}
	.st1{fill:none;stroke:#777777;stroke-width:0.75;stroke-miterlimit:10;}
	.st2{fill:#FFFFFF;stroke:#777777;stroke-miterlimit:10;}
	.st3{fill:#777777;}
	.st4{fill:#F4F4F4;}
	.st5{fill:none;stroke:#777777;stroke-width:0.6;stroke-miterlimit:10;}
	.st6{clip-path:url(#SVGID_00000072998245774096943020000006151571470596214969_);fill:#777777;}
	.st7{fill:url(#SVGID_00000003797358725732534170000011990652117583255442_);}
	.st8{fill:url(#SVGID_00000150100266579290166730000010158117247748971401_);}
	.st9{fill:url(#SVGID_00000181765872935432389320000008346333870715372712_);}
	.st10{fill:url(#SVGID_00000175310899500187945350000004416042140139313555_);}
	.st11{fill:url(#SVGID_00000177453405115124749760000014783990795029199751_);}
	.st12{fill:url(#SVGID_00000009551437718009516020000014646169941413065148_);}
	.st13{fill:url(#Rectangle_394_00000013885766526805003050000007409023487573563286_);}
	.st14{fill:#E0E0E0;}
	.st15{fill:none;stroke:#FFFFFF;stroke-width:3;stroke-miterlimit:10;}
	.st16{opacity:0.12;fill:url(#SVGID_00000166670357631972647360000014805935758776803246_);}
	.st17{fill:url(#SVGID_00000013190883902559589440000016101633096145259710_);}
	.st18{font-family:'Poppins-SemiBold';}
	.st19{font-size:16.0277px;}
</style>
<g id="Layer_1">
	<path class="st0" d="M531.6,455.5H32c-13.1,0-23.7-10.6-23.7-23.7V62.2c0-13.1,10.6-23.7,23.7-23.7h499.6
		c13.1,0,23.7,10.6,23.7,23.7v369.6C555.3,444.9,544.7,455.5,531.6,455.5z"/>
	<path class="st1" d="M120.4,80.7h237.5c4.6,0,8.4,3.1,8.4,6.9v5c0,3.8-3.8,6.9-8.4,6.9H120.4c-4.6,0-8.4-3.1-8.4-6.9v-5
		C112,83.8,115.8,80.7,120.4,80.7z"/>
	<path class="st2" d="M554.3,428.3c0-0.1,0.1-0.1,0.2-0.2C554.4,428.1,554.3,428.2,554.3,428.3c-0.1,0.1-0.3,0.3-0.4,0.5
		L554.3,428.3z M550.7,431.7c-0.9,0.7-1.8,1.3-2.7,1.8C549,433,549.9,432.4,550.7,431.7z M544,435.4c0.4-0.1,0.7-0.3,1-0.4
		C544.7,435.1,544.4,435.3,544,435.4c-0.2,0.1-0.3,0.1-0.5,0.2C543.7,435.5,543.9,435.5,544,435.4L544,435.4z M544,435.4
		c0.4-0.1,0.7-0.3,1-0.4C544.7,435.1,544.4,435.3,544,435.4c-0.2,0.1-0.3,0.1-0.5,0.2C543.7,435.5,543.9,435.5,544,435.4L544,435.4z
		 M554.3,428.3c0-0.1,0.1-0.1,0.2-0.2C554.4,428.1,554.3,428.2,554.3,428.3c-0.1,0.1-0.3,0.3-0.4,0.5L554.3,428.3z M550.7,431.7
		c-0.9,0.7-1.8,1.3-2.7,1.8C549,433,549.9,432.4,550.7,431.7z"/>
	<g>
		<path class="st0" d="M425.2,27.6l-14.7,2.9H120.6c-4.3,0-7.8-3.5-7.8-7.9c0-0.1,0-0.3,0-0.4c0.4-4.2,3.9-7.4,8.2-7.3h289.5
			l14.7,2.9l0.6,0.1l14.8,2.9c1.1,0.2,1.8,1.2,1.5,2.3c-0.2,0.8-0.8,1.4-1.5,1.5l-14.8,2.9L425.2,27.6z"/>
		<path class="st3" d="M410.5,31.4H120.6c-2.4,0-4.6-0.9-6.3-2.6c-1.7-1.7-2.6-3.9-2.6-6.3c0-0.2,0-0.3,0-0.5c0.4-4.7,4.3-8.3,9-8.3
			c0.1,0,0.1,0,0.2,0l289.6,0l30.3,5.9c0.8,0.2,1.4,0.6,1.9,1.3c0.4,0.7,0.6,1.4,0.4,2.2c-0.2,1.2-1.1,2.1-2.3,2.3L410.5,31.4z
			 M120.8,15.8c-3.6,0-6.7,2.8-7,6.4c0,0.1,0,0.2,0,0.4c0,1.8,0.7,3.6,2,4.9c1.3,1.3,3,2,4.8,2h289.7l30.1-5.9
			c0.4-0.1,0.7-0.4,0.8-0.8c0-0.3,0-0.5-0.1-0.7c-0.1-0.2-0.4-0.4-0.6-0.4l-30.1-5.9H120.9C120.9,15.8,120.8,15.8,120.8,15.8z"/>
	</g>
	<path class="st4" d="M279.7,419.7c-16.9,0-33.9,0-50.8,0c-3.3,0-7.2,0.3-7-3.7c0.2-3.6,4-3.1,7-3.1c34.4,0,68.7,0,103.1,0
		c3.6,0,8.2-0.1,7.9,3.7c-0.2,3.2-4.5,3.2-7.9,3.2C314.6,419.6,297.1,419.6,279.7,419.7z"/>
	<g>
		<g>
			<g>
				<path class="st3" d="M534.2,456.7H28.7c-12,0-21.8-9.8-21.8-21.8V60c0-12,9.8-21.8,21.8-21.8h505.5c12,0,21.8,9.8,21.8,21.8
					v374.9C556.1,446.9,546.3,456.7,534.2,456.7z M8.1,60v374.9c0,11.4,9.3,20.6,20.6,20.6h505.5c11.4,0,20.6-9.3,20.6-20.6V60
					c0-11.4-9.3-20.6-20.6-20.6H28.7C17.3,39.4,8.1,48.6,8.1,60L8.1,60z M534.2,441.5H28.7c-3.7,0-6.7-3-6.7-6.7V60
					c0-3.7,3-6.7,6.7-6.7h505.5c3.7,0,6.7,3,6.7,6.7v374.9C540.9,438.6,537.9,441.5,534.2,441.5z M28.7,54.5c-3,0-5.5,2.5-5.5,5.5
					v374.9c0,3,2.4,5.5,5.5,5.5h505.5c3,0,5.5-2.5,5.5-5.5V60c0-3-2.5-5.5-5.5-5.5H28.7z"/>
				<g>
					<path class="st3" d="M534.2,456.8c0,0-474.5,0.2-474.5,0.2s-29.7,0-29.7,0c-10.1,0.6-20-6.3-22.6-16.1
						c-1.3-4-0.7-10.6-0.9-14.8c-0.1-79.4,0.2-202,0.1-281.7c0.1-10.3-0.1-64.9,0-74.1c0.2-3.8-0.4-10.9,0.5-14.8
						c2-9.9,11.4-17.5,21.5-17.4c0,0,474.5-0.1,474.5-0.1s29.7,0,29.7,0c10.9-0.7,21.2,7.2,23.2,18c0.6,3.1,0.4,9.7,0.4,13
						c-0.1,109.2-0.2,246.8-0.3,355.9c-0.2,3.8,0.4,11-0.5,14.8C553.6,449.3,544.3,456.9,534.2,456.8L534.2,456.8z M534.2,456.7
						c10,0.1,19.3-7.4,21.3-17.2c0.9-4,0.3-10.6,0.5-14.8c0-109.1-0.2-246.7-0.3-355.9c-0.1-2.6,0.3-10.1-0.4-12.9
						c-1.9-10.4-11.9-18.1-22.5-17.4c0,0-29.7,0-29.7,0S28.7,38.4,28.7,38.4c-9.9-0.1-19.2,7.3-21.2,17.1C6.6,59.4,7.2,66.1,7,70.2
						c0.3,8.9-0.2,63.9,0,74.1c0.2,79.9-0.1,202.1,0.1,281.7c0.1,3.7-0.4,10.9,0.8,14.7c2.6,9.6,12.2,16.4,22.2,15.7
						c0,0,29.7,0,29.7,0S534.2,456.7,534.2,456.7L534.2,456.7z"/>
					<path class="st3" d="M8.1,60c0.1,86.9,0.2,284.6,0.3,369.2c0,0,0,3.7,0,3.7s0,1.8,0,1.8s0.1,1.8,0.1,1.8
						c0.6,7.3,5.4,14,12.1,16.9c4.5,2.1,9.5,1.7,14.4,1.7c144.2-0.1,351.4,0.4,494.8,0.1c4.9,0.1,9.9,0,14.3-2.5
						c6.5-3.5,10.7-10.6,10.7-18c0,0-0.1-236.3-0.1-236.3c0.1-15.8,0-127-0.1-140.3c-0.7-9.8-9.3-18.2-19.1-18.5
						c-137.8,0-342.9-0.2-480-0.3c0,0-14.8,0-14.8,0c-3.5,0.1-11.1-0.3-14.7,0.2C15.8,40.9,8,50.1,8.1,60L8.1,60z M8.1,60
						c-0.3-10,7.8-19.3,17.8-20.5c4-0.4,10.6-0.2,14.8-0.2c0,0,14.8,0,14.8,0c136.8-0.2,342.5-0.3,480-0.2c7.5,0.3,14.6,5.1,17.8,12
						c1.7,3.3,2.2,7.2,2,10.9c0,86-0.1,284.8-0.1,372.9c0,7.5-4.3,14.8-10.9,18.3c-4.4,2.5-9.5,2.7-14.4,2.5
						c-143,0-350.8-0.1-494.8,0.1c-4.9,0-10.1,0.4-14.6-1.8c-6.9-3-11.9-9.9-12.5-17.4c-0.1-1.9-0.1-5.4-0.1-7.4
						C7.9,345.4,7.8,145.9,8.1,60L8.1,60z"/>
					<path class="st3" d="M534.2,441.6c-29.2,0.1-482.9,0.2-500,0.2c0,0-3.5,0-3.5,0c-1.2,0-2.4,0.1-3.6-0.2
						c-2.4-0.5-4.4-2.4-5.1-4.7c-0.5-1.8-0.2-5.2-0.3-7.1c0.1-8.6-0.1-33.3,0-42.2c0.3-98.6-0.1-225.8,0-323.9c0,0,0-3.5,0-3.5
						c-0.1-3.7,3.1-7.1,6.9-7C58,53.1,511.6,53,528.7,53c0,0,3.5,0,3.5,0s1.8,0,1.8,0c0.6,0,1.2,0,1.8,0.2c3,0.6,5.4,3.5,5.5,6.6
						c0,0.6,0,1.2,0,1.8c0,0,0,3.5,0,3.5c-0.1,98.2-0.2,225.7-0.3,323.9c-0.2,8.7,0.1,33.7,0,42.2c0,0,0,3.5,0,3.5
						C541,438.4,537.9,441.7,534.2,441.6L534.2,441.6z M534.2,441.5c2.3,0,4.6-1.3,5.8-3.4c1.2-2.1,0.8-4.6,0.9-6.9
						c0,0,0-14.1,0-14.1c-0.1-17.5,0-66.3-0.1-84.5c-0.3-75.9,0-192-0.2-267.6c0,0,0-3.5,0-3.5c0-1.1,0.1-2.3-0.3-3.4
						c-0.6-2.1-2.5-3.9-4.7-4.3c-1.1-0.2-2.3-0.1-3.4-0.2c0,0-3.5,0-3.5,0c-15.3,0.1-472.4-0.2-500-0.1c-2.3,0-4.5,1.3-5.6,3.3
						c-1.2,2-0.7,4.5-0.8,6.8c-0.2,108.9,0,243,0,352.1c0,0,0,14.1,0,14.1s0,3.5,0,3.5c0,1.2-0.1,2.3,0.3,3.4
						c0.7,2.2,2.5,3.9,4.8,4.4c1.7,0.3,5.1,0.1,7,0.2C49.5,441.1,506.7,441.6,534.2,441.5L534.2,441.5z"/>
					<path class="st3" d="M28.7,54.6c-2.3,0-4.6,1.6-5.2,3.9c-0.3,1.1-0.2,2.3-0.2,3.5c0,0,0,3.5,0,3.5s0,14,0,14
						c0,103.1,0.2,233.3,0.3,336.6c0,0,0,14,0,14s0,3.5,0,3.5c0,0.6,0,1.2,0,1.7c0.2,2.9,2.9,5,5.8,4.7c22-0.1,470.8,0.2,504.9,0.1
						c2.3,0,4.4-1.6,5-3.8c0.3-1.1,0.2-2.3,0.2-3.4c0,0,0-3.5,0-3.5c0-25,0-72.6-0.1-98.2c-0.3-75.6,0.1-191.2-0.1-266.5
						c0,0,0-3.5,0-3.5c0-0.6,0-1.2,0-1.7c-0.3-2.8-2.9-5-5.8-4.7C511.5,55.1,62.7,54.5,28.7,54.6L28.7,54.6z M28.7,54.5
						C65,54.7,509.1,54,533.6,54.2c2.4-0.2,5,1.2,6,3.5c0.5,1.1,0.5,2.4,0.5,3.6c0,0,0,3.5,0,3.5c0.1,75.1-0.1,191-0.1,266.5
						c-0.1,25.6,0,72.9-0.1,98.2c0,0,0,3.5,0,3.5s0,1.8,0,1.8c0.1,3.1-2.6,5.9-5.7,5.9c-36.2-0.1-480.5,0.2-504.9,0.1
						c-2.4,0.2-5-1.2-5.9-3.5c-0.5-1.1-0.5-2.4-0.5-3.6c0,0,0-3.5,0-3.5s0-14,0-14c0.1-103.4,0.1-233.5,0.3-336.6c0,0,0-14,0-14
						s0-3.5,0-3.5c0-1.2-0.1-2.4,0.2-3.5C24.1,56.2,26.3,54.5,28.7,54.5L28.7,54.5z"/>
				</g>
			</g>
		</g>
		<g>
			<g>
				<path class="st4" d="M545.4,246.9c0-8.1,0-16.1,0-24.2c0-1.6-0.2-3.4,2.2-3.3c2.1,0.1,1.9,1.9,1.9,3.3c0,16.4,0,32.7,0,49.1
					c0,1.7,0.1,3.9-2.2,3.8c-1.9-0.1-1.9-2.1-1.9-3.8C545.4,263.5,545.4,255.2,545.4,246.9z"/>
				<path class="st3" d="M545.4,246.9c0-7.3-0.2-14.6-0.3-21.9c0-1.2,0-2.4,0-3.7c0-0.6,0.2-1.4,0.9-1.8c1-0.5,2.1-0.5,2.9,0.1
					c0.8,0.7,0.8,1.9,0.8,2.8c-0.3,12.7,0,27.4,0.1,40.2c0,0,0,7.3,0,7.3c-0.2,2,0.7,5.4-1.9,6c-3.9,0.5-2.7-4.7-2.8-7
					C545.1,261.7,545.3,253.9,545.4,246.9L545.4,246.9z M545.4,246.9c0,7.1,0.2,14.9,0.3,21.9c0,0,0,3.6,0,3.6
					c0,1.2,0.2,2.5,1.2,2.6c2.9,0.4,1.9-3.5,2.1-5.3c0,0,0-7.3,0-7.3c0.1-12.9,0.3-27.5,0.1-40.2c0-0.6,0-1.2-0.2-1.7
					c-0.3-1-1.9-1.1-2.7-0.6c-0.4,0.3-0.6,0.8-0.6,1.4c0,1.2,0,2.4,0,3.6C545.7,232.3,545.4,239.6,545.4,246.9L545.4,246.9z"/>
			</g>
		</g>
		<g>
			<g>
				<circle class="st4" cx="549.9" cy="247.4" r="1.6"/>
				<path class="st3" d="M549.9,245.8c2.7,0,2.4,3.1,0,3.5C547.3,249.4,547.1,245.7,549.9,245.8L549.9,245.8z M549.9,245.8
					c-1.6,0.1-1.7,2.8,0,3C551.8,249.2,551.5,245.9,549.9,245.8L549.9,245.8z"/>
			</g>
		</g>
	</g>
	<path class="st4" d="M83.8,80.5H98c1.8,0,3.3,1.5,3.3,3.3V98c0,1.8-1.5,3.3-3.3,3.3H83.8c-1.8,0-3.3-1.5-3.3-3.3V83.8
		C80.5,82,82,80.5,83.8,80.5z"/>
	<path class="st1" d="M425.8,79.7c-4.7,0-8.6,3.8-8.6,8.6c0,1.6,0.4,3,1.1,4.3l-1.1,4.3l4.3-1.1c1.3,0.7,2.7,1.1,4.3,1.1
		c4.7,0,8.6-3.8,8.6-8.6C434.4,83.5,430.6,79.7,425.8,79.7z"/>
	<path class="st1" d="M397.3,88.7c0.9-0.8,1.5-2,1.5-3.3c0-2.5-2-4.5-4.5-4.5s-4.5,2-4.5,4.5c0,1.3,0.6,2.5,1.5,3.3
		c-3.6,1.2-6.1,4.7-6,8.7h17.9c0-0.2,0-0.4,0-0.6C403.2,93,400.7,89.9,397.3,88.7z"/>
	<path class="st5" d="M405.8,85c0.4-0.4,0.7-0.9,0.7-1.5c0-1.1-0.9-2-2-2c-1.1,0-2,0.9-2,2c0,0.6,0.3,1.1,0.7,1.5
		c-1.6,0.6-2.8,2.1-2.7,4h8.1c0-0.1,0-0.2,0-0.3C408.5,87,407.3,85.6,405.8,85z"/>
	<path class="st1" d="M456.6,79.3c-5.4,0-9.7,4.4-9.7,9.7s4.4,9.7,9.7,9.7c5.4,0,9.7-4.4,9.7-9.7S461.9,79.3,456.6,79.3L456.6,79.3z
		"/>
	<g>
		<defs>
			<path id="SVGID_1_" d="M456.6,79c-5.4,0-9.7,4.4-9.7,9.7s4.4,9.7,9.7,9.7c5.4,0,9.7-4.4,9.7-9.7S461.9,79,456.6,79L456.6,79z"/>
		</defs>
		<clipPath id="SVGID_00000167379031389544457990000015140582247528667287_">
			<use xlink:href="#SVGID_1_"  style="overflow:visible;"/>
		</clipPath>
		<path style="clip-path:url(#SVGID_00000167379031389544457990000015140582247528667287_);fill:#777777;" d="M448.9,98.5
			c-0.1-4.2,3.2-7.7,7.3-7.8s7.7,3.2,7.8,7.3c0,0.2,0,0.3,0,0.5H448.9z"/>
		
			<circle style="clip-path:url(#SVGID_00000167379031389544457990000015140582247528667287_);fill:#777777;" cx="456.5" cy="88.3" r="3.8"/>
	</g>
	<path class="st0" d="M305.8,92.1c-2.4,0-4.4-2-4.4-4.4s2-4.4,4.4-4.4c2.4,0,4.4,2,4.4,4.4c0,0,0,0,0,0
		C310.2,90.1,308.3,92.1,305.8,92.1z M305.8,84.1c-2,0-3.6,1.6-3.6,3.6c0,2,1.6,3.6,3.6,3.6c2,0,3.6-1.6,3.6-3.6v0
		C309.4,85.7,307.8,84.1,305.8,84.1L305.8,84.1z"/>
	<path class="st0" d="M307.2,91.5l1.3-0.9l0,0l3.1,4.6c0.2,0.3,0.1,0.7-0.2,0.9l-0.3,0.2c-0.3,0.2-0.7,0.1-0.9-0.2L307.2,91.5
		L307.2,91.5z"/>
	<g>
		<path class="st3" d="M349.1,92.4c-2,0-3.7-1.6-3.7-3.7s1.6-3.7,3.7-3.7s3.7,1.6,3.7,3.7c0,0,0,0,0,0
			C352.7,90.7,351.1,92.4,349.1,92.4z M349.1,85.7c-1.7,0-3,1.3-3,3c0,1.7,1.3,3,3,3c1.7,0,3-1.3,3-3v0
			C352.1,87,350.7,85.7,349.1,85.7L349.1,85.7z"/>
		<path class="st3" d="M350.2,91.9l1.1-0.7l0,0l2.6,3.8c0.2,0.2,0.1,0.6-0.1,0.7l-0.2,0.2c-0.2,0.2-0.6,0.1-0.7-0.1L350.2,91.9
			L350.2,91.9z"/>
	</g>
</g>
<g id="Layer_2">
	<path class="st4" d="M504.9,331.3H72c-8.6,0-15.7-7-15.7-15.7V159.3c0-8.6,7-15.7,15.7-15.7h432.9c8.6,0,15.7,7,15.7,15.7v156.3
		C520.6,324.3,513.6,331.3,504.9,331.3z"/>
	<g>
		
			<linearGradient id="SVGID_00000108277365079423724800000012838974311802705806_" gradientUnits="userSpaceOnUse" x1="96.6091" y1="246.6618" x2="384.1505" y2="164.1141">
			<stop  offset="0" style="stop-color:#00FFAD"/>
			<stop  offset="6.000000e-02" style="stop-color:#04EBAB"/>
			<stop  offset="0.32" style="stop-color:#0BA4A5"/>
			<stop  offset="0.55" style="stop-color:#006EA0"/>
			<stop  offset="0.75" style="stop-color:#00469D"/>
			<stop  offset="0.91" style="stop-color:#012D9B"/>
			<stop  offset="1" style="stop-color:#00249A"/>
		</linearGradient>
		<path style="fill:url(#SVGID_00000108277365079423724800000012838974311802705806_);" d="M102.9,259.2
			c13.6-12,27.9-23.1,27.9-34.6c0-5.6-2.4-9.4-8.1-9.4c-5.5,0-8.6,4.1-8.7,10.7h-11.2c0.4-14.3,9.2-20.9,20-20.9
			c12.9,0,19.4,8,19.4,18.9c0,14.5-13.4,25.8-23,34.2h24.3v10h-40.7V259.2z"/>
		
			<linearGradient id="SVGID_00000049938683601257471270000000127521352329205179_" gradientUnits="userSpaceOnUse" x1="99.8879" y1="258.0831" x2="387.4293" y2="175.5353">
			<stop  offset="0" style="stop-color:#00FFAD"/>
			<stop  offset="6.000000e-02" style="stop-color:#04EBAB"/>
			<stop  offset="0.32" style="stop-color:#0BA4A5"/>
			<stop  offset="0.55" style="stop-color:#006EA0"/>
			<stop  offset="0.75" style="stop-color:#00469D"/>
			<stop  offset="0.91" style="stop-color:#012D9B"/>
			<stop  offset="1" style="stop-color:#00249A"/>
		</linearGradient>
		<path style="fill:url(#SVGID_00000049938683601257471270000000127521352329205179_);" d="M173.1,205.3c17,0,22.2,13.6,22.2,31.7
			c0,18.3-5.3,31.9-22.2,31.9s-22.2-13.6-22.2-31.9C150.9,218.8,156.2,205.3,173.1,205.3z M173.1,216.4c-9.7,0-10.9,9.8-10.9,20.5
			c0,11.2,1.2,20.8,10.9,20.8s10.9-9.6,10.9-20.8C184,226.2,182.9,216.4,173.1,216.4z"/>
		
			<linearGradient id="SVGID_00000164479527298649657230000006744139081039549608_" gradientUnits="userSpaceOnUse" x1="105.0331" y1="276.0057" x2="392.5746" y2="193.4579">
			<stop  offset="0" style="stop-color:#00FFAD"/>
			<stop  offset="6.000000e-02" style="stop-color:#04EBAB"/>
			<stop  offset="0.32" style="stop-color:#0BA4A5"/>
			<stop  offset="0.55" style="stop-color:#006EA0"/>
			<stop  offset="0.75" style="stop-color:#00469D"/>
			<stop  offset="0.91" style="stop-color:#012D9B"/>
			<stop  offset="1" style="stop-color:#00249A"/>
		</linearGradient>
		<path style="fill:url(#SVGID_00000164479527298649657230000006744139081039549608_);" d="M215.9,207.9c7.5,0,13.1,5,13.1,13.9
			c0,9-5.6,14-13.1,14c-7.5,0-13.1-5-13.1-14C202.8,212.9,208.4,207.9,215.9,207.9z M211.3,221.8c0,4.7,1.7,6.8,4.5,6.8
			c2.9,0,4.7-2.1,4.7-6.8s-1.8-6.7-4.7-6.7C213,215.1,211.3,217.1,211.3,221.8z M244.4,208.9h11.3L223.3,269h-11.2L244.4,208.9z
			 M252.1,242.2c7.4,0,12.9,4.9,12.9,13.9c0,9.1-5.5,14-12.9,14c-7.5,0-13.1-4.9-13.1-14C239,247.1,244.6,242.2,252.1,242.2z
			 M247.3,256.1c0,4.8,1.8,6.8,4.7,6.8c2.8,0,4.6-2,4.6-6.8c0-4.7-1.8-6.7-4.6-6.7C249.1,249.4,247.3,251.3,247.3,256.1z"/>
		
			<linearGradient id="SVGID_00000106866040979011106510000015761903524293461402_" gradientUnits="userSpaceOnUse" x1="112.773" y1="302.9663" x2="400.3145" y2="220.4186">
			<stop  offset="0" style="stop-color:#00FFAD"/>
			<stop  offset="6.000000e-02" style="stop-color:#04EBAB"/>
			<stop  offset="0.32" style="stop-color:#0BA4A5"/>
			<stop  offset="0.55" style="stop-color:#006EA0"/>
			<stop  offset="0.75" style="stop-color:#00469D"/>
			<stop  offset="0.91" style="stop-color:#012D9B"/>
			<stop  offset="1" style="stop-color:#00249A"/>
		</linearGradient>
		<path style="fill:url(#SVGID_00000106866040979011106510000015761903524293461402_);" d="M313.6,269.8c-13.2,0-23.2-9.6-23.2-24.5
			c0-15,10.3-24.5,23.5-24.5s23.5,9.5,23.5,24.5C337.4,260.2,326.9,269.8,313.6,269.8z M313.6,259.3c6.1,0,11.9-4.6,11.9-14.1
			c0-9.5-5.7-14.1-11.8-14.1s-11.6,4.5-11.6,14.1C302.2,254.7,307.4,259.3,313.6,259.3z"/>
		
			<linearGradient id="SVGID_00000083082588469814529010000004972608262061554355_" gradientUnits="userSpaceOnUse" x1="113.7393" y1="306.3322" x2="401.2807" y2="223.7844">
			<stop  offset="0" style="stop-color:#00FFAD"/>
			<stop  offset="6.000000e-02" style="stop-color:#04EBAB"/>
			<stop  offset="0.32" style="stop-color:#0BA4A5"/>
			<stop  offset="0.55" style="stop-color:#006EA0"/>
			<stop  offset="0.75" style="stop-color:#00469D"/>
			<stop  offset="0.91" style="stop-color:#012D9B"/>
			<stop  offset="1" style="stop-color:#00249A"/>
		</linearGradient>
		<path style="fill:url(#SVGID_00000083082588469814529010000004972608262061554355_);" d="M347.2,231.4H342v-9.9h5.2v-2.4
			c0-11.7,6.3-17.1,19.2-16.7v10.1c-5.6-0.2-7.5,1.7-7.5,7v2h8v9.9h-8V269h-11.7V231.4z"/>
		
			<linearGradient id="SVGID_00000134952841862021562040000002143758174600496027_" gradientUnits="userSpaceOnUse" x1="115.9037" y1="313.8713" x2="403.4451" y2="231.3236">
			<stop  offset="0" style="stop-color:#00FFAD"/>
			<stop  offset="6.000000e-02" style="stop-color:#04EBAB"/>
			<stop  offset="0.32" style="stop-color:#0BA4A5"/>
			<stop  offset="0.55" style="stop-color:#006EA0"/>
			<stop  offset="0.75" style="stop-color:#00469D"/>
			<stop  offset="0.91" style="stop-color:#012D9B"/>
			<stop  offset="1" style="stop-color:#00249A"/>
		</linearGradient>
		<path style="fill:url(#SVGID_00000134952841862021562040000002143758174600496027_);" d="M375.6,231.4h-5.2v-9.9h5.2v-2.4
			c0-11.7,6.3-17.1,19.2-16.7v10.1c-5.6-0.2-7.5,1.7-7.5,7v2h8v9.9h-8V269h-11.7V231.4z"/>
	</g>
</g>
<g id="Layer_5">
	<path class="st0" d="M633.1,551.5H480.5c-18.3,0-33.2-14.9-33.2-33.2V163.9c0-18.3,14.9-33.2,33.2-33.2h152.7
		c18.3,0,33.2,14.9,33.2,33.2v354.4C666.3,536.7,651.4,551.5,633.1,551.5z"/>
	<path class="st0" d="M640.8,562.5H467.2c-18.3,0-33.2-14.9-33.2-33.2V150.5c0-18.3,14.9-33.2,33.2-33.2h173.7
		c18.3,0,33.2,14.9,33.2,33.2v378.8C674,547.6,659.1,562.5,640.8,562.5z"/>
	<g id="Group_1105_00000173140426573711388730000014575252121091571337_" transform="translate(3160.218 1104.131)">
		<path id="Path_2329_00000067225361727833617900000007671397389757838009_" class="st3" d="M-2712-762.9c0,58.2,0,116.5,0,174.7
			c0,5.6,0.1,11.2,2.8,16.4c6.3,12,16,18.3,29.6,18.3c50.8,0,101.5,0,152.2,0c15.1,0,26.8-10.2,30.9-23.2c1.1-3.6,1.6-7.4,1.6-11.2
			c0-25.1,0-50.3,0-75.4c0-0.8,0-1.6,0-2.5c0-0.6-0.2-1.6,0.9-1.5c0.8,0.1,0.7,0.8,0.7,1.4c0,0.7,0,1.4,0,2.1c0,25.6,0,51.2,0,76.8
			c0,8.6-2.3,16.5-8.2,23.2c-6.9,7.9-15.4,11.9-25.9,11.9c-50.8,0-101.5,0-152.2,0c-7,0-14-0.8-19.7-5.2
			c-9.4-7.3-15.1-16.6-14.5-28.9c0-1.1,0-2.1,0-3.2c0-116.4,0-232.7,0-349.1c0-6.5,0.4-13,3.7-18.8c5.7-9.9,14.2-15.6,25.6-16.8
			c2-0.2,4-0.3,6-0.3c50,0,100.1,0,150.1,0c14.7,0,25.4,6.5,32,19.5c2.4,4.8,3.1,10,3.1,15.3c0,86.7,0,173.3,0,260
			c0,0.5,0,0.9,0,1.4c-0.1,0.8,0.2,2-0.9,1.9c-1.1-0.1-0.6-1.3-0.7-2c-0.1-0.8,0-1.6,0-2.5c0-85.6,0-171.2,0-256.8
			c0-9.5-2.3-18.3-9.2-25.3c-4.3-4.4-9.7-6.9-15.5-8.6c-4.8-1.4-9.7-1.2-14.6-1.2c-48,0-96.1,0-144.1,0c-7.8,0-15.2,1.8-21.5,6.6
			c-8.8,6.8-12.4,15.9-12.3,26.9c0.1,20.1,0,40.2,0,60.2C-2712-840.2-2712-801.6-2712-762.9z"/>
		<path id="Path_2330_00000029025464698849040730000011199912599882588850_" class="st3" d="M-2702.4-890.1c1.5,1.2,0.7,2.9,0.7,4.3
			c0,99.4,0,198.9,0,298.3c0,9.4,3.3,16.7,11.8,21.2c3.4,1.8,7.1,2.3,10.9,2.3c50.4,0,100.8,0,151.2,0c13.7,0,22.3-8.7,22.4-22.5
			c0.1-11.9,0-23.7,0-35.6c0-105.3,0-210.6,0.1-316c0-9.3-3.1-16.3-11-21.2c-3-1.9-6.5-2.8-10-2.7c-8.7-0.1-17.4-0.1-26.1,0
			c-4.8,0-6.7,1.9-7.6,6.6c-1.5,7.8-5.9,11.6-13.9,11.6c-19.7,0-39.5,0-59.2,0c-8,0-12.2-3.7-13.8-11.6c-0.9-4.5-3.1-6.6-7.7-6.6
			c-8.7-0.1-17.4-0.2-26.1,0c-12.6,0.4-21,9.4-21.1,22.2c-0.1,14.3,0,28.6,0,43c0,1.3,0.6,2.8-0.8,3.9c-0.6-0.4-0.9-1.1-0.8-1.8
			c0.1-16.3-0.2-32.6,0.3-48.9c0.3-10.3,8.3-18.7,18.6-19.6c10.6-0.9,21.3-0.9,32,0.1c3.6,0.3,6.5,3.1,6.8,6.7
			c0.7,7.8,6.7,11.3,13.4,11.2c19-0.2,38.1-0.1,57.1-0.1c8.1,0,11.2-2.6,12.9-10.9c0.9-4.4,3.8-7.3,8.7-7.3
			c10.1-0.1,20.2-0.6,30.3,0.3c11,1.1,18.4,10.5,19.3,20.3c0.1,1.4,0.1,2.8,0.1,4.2c0,117.2,0,234.3,0.1,351.5
			c0,9.9-3.7,17.5-12.4,22.3c-3.4,1.9-7,3.5-11.2,2.8c-0.8-0.1-1.6-0.1-2.5,0c-49.5,0-98.9-0.1-148.4,0.1c-6.4,0-12-1.1-16.9-5.1
			c-4.4-3.4-7.3-8.4-7.9-14c-0.3-2.4-0.4-4.9-0.3-7.4c0-86.8,0-173.5,0-260.3c0-12.6,0-25.1,0-37.7
			C-2703.2-887.7-2703.7-889.2-2702.4-890.1z"/>
		<path id="Path_2331_00000088094307698214883730000008160444438818879648_" class="st4" d="M-2602.6-579.4c8.6,0,17.1,0,25.7,0
			c1.2,0,3.1-0.4,3.2,1.3c0.1,1.9-1.7,2.2-3.3,2.2c-17.5,0-34.9,0-52.4,0c-1.3,0-2.9,0.1-3-1.7c-0.1-2,1.7-1.9,3.1-1.9
			C-2620.4-579.4-2611.5-579.4-2602.6-579.4z"/>
		<g id="Group_1104_00000067940138091469096090000011531014688954519225_" transform="translate(108.029 20.803)">
			<path id="Path_2332_00000090277918843579727230000016155284498691431562_" class="st4" d="M-2711.8-976.1c-6.2,0-12.3,0-18.5,0
				c-1.2,0-2.6,0.2-2.5-2.3c0.1-2.2,1.4-1.9,2.5-1.9c12.5,0,24.9,0,37.4,0c1.3,0,3-0.1,2.9,2.3c-0.1,2-1.6,2-2.9,2
				C-2699.2-976.2-2705.5-976.1-2711.8-976.1z"/>
			<g id="Group_1103_00000037679983301638087920000002187964562771784345_">
				<circle id="Ellipse_64_00000089556258635745311110000000528640530894595006_" class="st4" cx="-2738.2" cy="-978.3" r="2.5"/>
				<circle id="Ellipse_65_00000092432839565836019030000013359497940585420215_" class="st4" cx="-2745.5" cy="-978.3" r="2.5"/>
				<circle id="Ellipse_66_00000171677304279125671560000014952955811561976510_" class="st4" cx="-2677.3" cy="-978.3" r="2.5"/>
				<circle id="Ellipse_67_00000148620357646589568950000013161047465866544516_" class="st4" cx="-2684.6" cy="-978.3" r="2.5"/>
			</g>
		</g>
	</g>
</g>
<g id="Layer_3">
	
		<linearGradient id="Rectangle_394_00000005957683433292387570000014753885232880465803_" gradientUnits="userSpaceOnUse" x1="479.1907" y1="434.9068" x2="613.6879" y2="434.9068">
		<stop  offset="0" style="stop-color:#00FFAD"/>
		<stop  offset="6.000000e-02" style="stop-color:#04EBAB"/>
		<stop  offset="0.32" style="stop-color:#0BA4A5"/>
		<stop  offset="0.55" style="stop-color:#006EA0"/>
		<stop  offset="0.75" style="stop-color:#00469D"/>
		<stop  offset="0.91" style="stop-color:#012D9B"/>
		<stop  offset="1" style="stop-color:#00249A"/>
	</linearGradient>
	
		<path id="Rectangle_394_00000093898345830318253900000001176830677726020276_" style="fill:url(#Rectangle_394_00000005957683433292387570000014753885232880465803_);" d="
		M486.2,383.3h120.4c3.9,0,7,3.2,7,7v89.1c0,3.9-3.2,7-7,7H486.2c-3.9,0-7-3.2-7-7v-89.1C479.2,386.5,482.3,383.3,486.2,383.3z"/>
	<path id="Rectangle_395_00000183236199245812981000000006406163165573183138_" class="st14" d="M486.1,367.8h120.8
		c3.8,0,6.9,3.8,6.9,8.4v77.7l0,0H479.2l0,0v-77.7C479.2,371.5,482.3,367.8,486.1,367.8z"/>
	
		<line id="Line_88_00000054955305598459570110000004146732973523146911_" class="st15" x1="491.5" y1="459.2" x2="600.3" y2="459.2"/>
	<line id="Line_89_00000173867333532714708810000010915168588803793592_" class="st15" x1="491.5" y1="466" x2="600.3" y2="466"/>
	
		<line id="Line_90_00000098941430666287482830000006796015252442816669_" class="st15" x1="491.5" y1="472.8" x2="600.3" y2="472.8"/>
	
		<line id="Line_91_00000060732081477199507780000004828410392701830321_" class="st15" x1="505.2" y1="478.9" x2="586.5" y2="478.9"/>
	
		<linearGradient id="SVGID_00000110430424066935401020000010464983812093365150_" gradientUnits="userSpaceOnUse" x1="501.9636" y1="411.574" x2="593.3046" y2="411.574">
		<stop  offset="0" style="stop-color:#00FFAD"/>
		<stop  offset="6.000000e-02" style="stop-color:#04EBAB"/>
		<stop  offset="0.32" style="stop-color:#0BA4A5"/>
		<stop  offset="0.55" style="stop-color:#006EA0"/>
		<stop  offset="0.75" style="stop-color:#00469D"/>
		<stop  offset="0.91" style="stop-color:#012D9B"/>
		<stop  offset="1" style="stop-color:#00249A"/>
	</linearGradient>
	
		<rect x="502" y="374.7" style="opacity:0.12;fill:url(#SVGID_00000110430424066935401020000010464983812093365150_);" width="91.3" height="73.7"/>
	<rect x="508.2" y="381.1" class="st0" width="79.1" height="27.7"/>
	<rect x="507.8" y="422.1" class="st0" width="23.3" height="19.8"/>
	<rect x="535.8" y="422.1" class="st0" width="23.3" height="19.8"/>
	<rect x="563.7" y="422.1" class="st0" width="23.3" height="19.8"/>
	<line id="Line_90_00000174578483518047951900000006000760744047690402_" class="st15" x1="524.1" y1="418" x2="570.8" y2="418"/>
	
		<line id="Line_90_00000178167635308254125370000018281265351938379668_" class="st15" x1="531.5" y1="414.1" x2="562.9" y2="414.1"/>
</g>
<g id="Layer_4">
	
		<linearGradient id="SVGID_00000143574829200302409370000013489995889720927905_" gradientUnits="userSpaceOnUse" x1="73.7285" y1="418.3645" x2="228.5001" y2="327.1976">
		<stop  offset="0" style="stop-color:#00FFAD"/>
		<stop  offset="6.000000e-02" style="stop-color:#04EBAB"/>
		<stop  offset="0.32" style="stop-color:#0BA4A5"/>
		<stop  offset="0.55" style="stop-color:#006EA0"/>
		<stop  offset="0.75" style="stop-color:#00469D"/>
		<stop  offset="0.91" style="stop-color:#012D9B"/>
		<stop  offset="1" style="stop-color:#00249A"/>
	</linearGradient>
	<path style="fill:url(#SVGID_00000143574829200302409370000013489995889720927905_);" d="M225.2,395.3H67.5c-8.3,0-15-6.7-15-15
		v-9.6c0-8.3,6.7-15,15-15h157.7c8.3,0,15,6.7,15,15v9.6C240.2,388.6,233.5,395.3,225.2,395.3z"/>
	<text transform="matrix(1 0 0 1 68.6023 382.2684)" class="st0 st18 st19">Share Instant offer</text>
</g>
</svg>
