<svg id="Layer_1" data-name="Layer 1" xmlns="http://www.w3.org/2000/svg" xmlns:xlink="http://www.w3.org/1999/xlink" viewBox="0 0 674 567"><defs><style>.cls-1,.cls-11,.cls-3,.cls-6,.cls-9{fill:none;}.cls-14,.cls-2{fill:#fff;}.cls-3,.cls-6{stroke:#777;}.cls-11,.cls-3,.cls-6,.cls-9{stroke-miterlimit:10;}.cls-3{stroke-width:0.75px;}.cls-4{fill:#777;}.cls-5{fill:#f4f4f4;}.cls-6{stroke-width:0.6px;}.cls-7{clip-path:url(#clip-path);}.cls-8{fill:url(#linear-gradient);}.cls-9{stroke:#d3d3d3;stroke-linecap:round;stroke-width:2px;}.cls-10{fill:#d3d3d3;}.cls-11{stroke:#fff;stroke-width:3px;}.cls-12{fill:url(#linear-gradient-2);}.cls-13,.cls-14{isolation:isolate;}.cls-14{font-size:22.48px;font-family:Gotham-Bold, Gotham;font-weight:700;}.cls-15{fill:url(#linear-gradient-3);}.cls-16{fill:url(#linear-gradient-4);}.cls-17{fill:url(#linear-gradient-5);}.cls-18{fill:url(#linear-gradient-6);}</style><clipPath id="clip-path"><path class="cls-1" d="M544.75,102.27a11.66,11.66,0,1,0,11.66,11.66,11.66,11.66,0,0,0-11.66-11.66Z"/></clipPath><linearGradient id="linear-gradient" x1="523.55" y1="522.87" x2="21.38" y2="218.82" gradientUnits="userSpaceOnUse"><stop offset="0" stop-color="#00ffaf"/><stop offset="0.06" stop-color="#00edad"/><stop offset="0.32" stop-color="#00a6a7"/><stop offset="0.65" stop-color="#006ea2"/><stop offset="0.75" stop-color="#00469f"/><stop offset="0.91" stop-color="#002d9d"/><stop offset="1" stop-color="#00249c"/></linearGradient><linearGradient id="linear-gradient-2" x1="399.01" y1="388.56" x2="209.15" y2="318.86" gradientUnits="userSpaceOnUse"><stop offset="0" stop-color="#00ffaf"/><stop offset="0.06" stop-color="#00edad"/><stop offset="0.32" stop-color="#00a6a7"/><stop offset="0.55" stop-color="#006ea2"/><stop offset="0.75" stop-color="#00469f"/><stop offset="0.91" stop-color="#002d9d"/><stop offset="1" stop-color="#00249c"/></linearGradient><linearGradient id="linear-gradient-3" x1="250.87" y1="257.25" x2="158.98" y2="154.11" xlink:href="#linear-gradient-2"/><linearGradient id="linear-gradient-4" x1="336.87" y1="256.25" x2="244.98" y2="153.11" xlink:href="#linear-gradient-2"/><linearGradient id="linear-gradient-5" x1="426.87" y1="256.25" x2="334.98" y2="153.11" xlink:href="#linear-gradient-2"/><linearGradient id="linear-gradient-6" x1="513.87" y1="256.25" x2="421.98" y2="153.11" xlink:href="#linear-gradient-2"/></defs><path class="cls-2" d="M637.3,553,32.11,554.42A24.54,24.54,0,0,1,7.44,530V81C7.44,67.47,19.33,53.42,33,53.42H637.3c14.2.08,30.46,16.2,25,28.92L661.62,530C661.62,543.49,650.92,553,637.3,553Z"/><path class="cls-3" d="M142,104.23h284.5c5.56,0,10.06,3.69,10.06,8.23v6c0,4.55-4.5,8.23-10.06,8.23H142c-5.55,0-10-3.68-10-8.23v-6C132,107.92,136.49,104.23,142,104.23Z"/><path class="cls-2" d="M507.12,40.6l-17.65,3.45H142.27a9.41,9.41,0,0,1-9.38-9.45c0-.17,0-.35,0-.52a9.63,9.63,0,0,1,9.77-8.79h346.8l17.65,3.47.76.14,17.76,3.47a2.35,2.35,0,0,1,0,4.6l-17.76,3.48Z"/><path class="cls-4" d="M489.57,45.05H142.27A10.42,10.42,0,0,1,131.89,34.6a5.52,5.52,0,0,1,0-.58,10.65,10.65,0,0,1,10.78-9.73H489.57l36.26,7.1A3.3,3.3,0,0,1,528,32.8,3.34,3.34,0,0,1,525.83,38ZM142.51,26.29a8.66,8.66,0,0,0-8.61,7.87c0,.13,0,.29,0,.45a8.42,8.42,0,0,0,8.38,8.44h347.1L525.44,36a1.35,1.35,0,0,0,.86-2.07,1.32,1.32,0,0,0-.86-.57l-36.07-7.06H142.51Z"/><path class="cls-4" d="M637.81,554.71H32.18A26.21,26.21,0,0,1,6,528.55V79.48A26.21,26.21,0,0,1,32.18,53.32H637.81A26.23,26.23,0,0,1,664,79.48V528.55A26.23,26.23,0,0,1,637.81,554.71ZM7.46,79.48V528.55a24.78,24.78,0,0,0,24.72,24.73H637.81a24.8,24.8,0,0,0,24.73-24.73V79.48a24.79,24.79,0,0,0-24.73-24.72H32.18A24.77,24.77,0,0,0,7.46,79.48ZM637.81,536.54H32.18a8,8,0,0,1-8-8V79.48a8,8,0,0,1,8-8H637.81a8,8,0,0,1,8,8V528.55A8,8,0,0,1,637.81,536.54ZM32.18,72.93a6.56,6.56,0,0,0-6.53,6.55V528.55a6.55,6.55,0,0,0,6.53,6.55H637.81a6.57,6.57,0,0,0,6.55-6.55V79.48a6.58,6.58,0,0,0-6.55-6.55Z"/><path class="cls-4" d="M637.81,554.75,69.39,555l-35.52,0c-12.06.78-23.92-7.48-27-19.22C5.24,531,5.94,523,5.8,518c-.13-95.14.24-242,.08-337.49.1-12.29-.11-77.72,0-88.82.19-4.55-.47-13.12.59-17.76A26.63,26.63,0,0,1,32.19,53.11L600.6,53h35.53c13-.81,25.34,8.59,27.69,21.47.76,3.75.46,11.61.5,15.58-.08,130.8-.19,295.61-.28,426.31-.19,4.54.46,13.12-.61,17.73a26.48,26.48,0,0,1-25.62,20.69Zm0-.07A26.38,26.38,0,0,0,663.32,534c1.09-4.74.41-12.74.59-17.71,0-130.67-.25-295.54-.28-426.31-.15-3.11.33-12.12-.49-15.45a26.16,26.16,0,0,0-27-20.91H600.6L32.19,53.53A26.22,26.22,0,0,0,6.81,74a40.39,40.39,0,0,0-.6,8.8c.14,17.49-.14,79.06,0,97.7C6.41,276.24,6,422.68,6.25,518c.16,4.46-.52,13.12,1,17.6a26.25,26.25,0,0,0,26.6,18.85H69.4l568.41.23Z"/><path class="cls-4" d="M7.5,79.48c.08,104.07.18,340.88.27,442.31v6.63l.11,2.19c1.27,14,13.48,23.5,27.39,22.37,174.58-.12,423.55.38,597.12.11a73.6,73.6,0,0,0,8.8-.27,24.33,24.33,0,0,0,15.09-8.2,24.77,24.77,0,0,0,6.05-16.07l-.11-283.08c.1-18.95,0-152.12-.12-168-.86-11.78-11.11-21.87-23-22.27-165-.06-410.83-.25-575-.33H46.45c-4.13.15-13.33-.3-17.67.26C16.7,56.6,7.43,67.52,7.5,79.48Zm0,0C7.19,67.5,16.88,56.39,28.77,55c4.77-.53,12.72-.16,17.68-.27h17.7c163.86-.19,410.28-.3,575-.19,12.15.44,22.74,10.76,23.59,22.88.39,15-.06,149.76.1,168.1l-.11,283.08a25.17,25.17,0,0,1-6.17,16.33c-6.58,7.53-14.66,9-24.19,8.59-173.23,0-422.87-.1-597.12.11-14.14,1.09-26.71-8.46-28-22.92-.15-2.32-.09-6.48-.1-8.87.12-100.4.09-339.42.35-442.31Z"/><path class="cls-4" d="M637.81,536.57c-35.06.07-578.5.24-598.93.21H32.56a8.3,8.3,0,0,1-8.57-8c0-.46,0-5.53,0-6.33V505.6c.19-130.84,0-291.26,0-421.78V79.6a8.27,8.27,0,0,1,8.18-8.32c35.06-.07,578.49-.1,598.92-.13h6.33a9.43,9.43,0,0,1,2.17.2,8.43,8.43,0,0,1,6.17,5.71c.66,2.11.25,6.22.36,8.5-.06,117.62-.21,270.43-.27,388-.19,10.48.11,40.3,0,50.61v4.22a8.1,8.1,0,0,1-8,8.14Zm0-.07a8,8,0,0,0,7.94-8.07v-4.22c-.14-10.28.06-39.84,0-50.61-.06-117.61-.21-270.43-.27-388V81.34a13.29,13.29,0,0,0-.33-4.08A7.71,7.71,0,0,0,639.46,72a78.93,78.93,0,0,0-8.35-.19c-18.33.17-565.88-.25-598.92-.14a7.84,7.84,0,0,0-6.77,4c-1.46,2.41-.89,5.37-1,8.15-.18,130.41,0,291.05,0,421.78v21.09a13.74,13.74,0,0,0,.34,4.12,7.82,7.82,0,0,0,5.73,5.31,21.1,21.1,0,0,0,4.15.18h4.22c18.22-.24,566,.31,598.93.2Z"/><path class="cls-4" d="M32.18,73A6.56,6.56,0,0,0,26,77.65a15.62,15.62,0,0,0-.26,4.16v21c0,123.46.24,279.49.26,403.22v21c0,.69,0,1.42,0,2.07a6.41,6.41,0,0,0,7,5.7c26.41-.09,564.06.18,604.82.09a6.39,6.39,0,0,0,6.07-4.55,15.6,15.6,0,0,0,.26-4.12V522c0-30,0-87-.06-117.6-.3-90.52.13-229.06-.06-319.21V81a9.12,9.12,0,0,0-.52-4A6.44,6.44,0,0,0,637,73.27C610.6,73.47,73,72.88,32.18,73Zm0-.07c43.46.18,575.55-.51,604.83-.3a7.11,7.11,0,0,1,7.11,4.15,9.77,9.77,0,0,1,.57,4.25v4.2c.16,90-.14,228.87-.06,319.22-.06,30.68,0,87.35-.06,117.6v6.3a6.84,6.84,0,0,1-6.76,7c-43.38-.18-575.6.18-604.82.09a7.07,7.07,0,0,1-7.08-4.13,9.88,9.88,0,0,1-.57-4.24V506c.16-123.82.12-279.67.26-403.22v-21a15.93,15.93,0,0,1,.28-4.19,6.61,6.61,0,0,1,6.3-4.72Z"/><path class="cls-5" d="M651.16,303.35v-29c0-1.9-.23-4.12,2.62-4,2.51.14,2.21,2.26,2.21,4v58.78c0,2.05.08,4.63-2.62,4.51-2.25-.11-2.23-2.57-2.23-4.51Q651.17,318.26,651.16,303.35Z"/><path class="cls-4" d="M651.12,303.35c0-8.45-.21-17.8-.27-26.29,0-1.48,0-2.9,0-4.41a2.68,2.68,0,0,1,1-2.14,3.37,3.37,0,0,1,3.47.09c1,.78.91,2.21.88,3.28l0,4.38-.08,8.77c-.12,15.17.43,33,.17,48.24a3.24,3.24,0,0,1-1,2.18,2.81,2.81,0,0,1-3.52-.09,4.75,4.75,0,0,1-1-3.33c0-1.48,0-2.93,0-4.39l.11-8.77c.1-5.84.18-11.68.2-17.52Zm.07,0q0,8.76.19,17.52l.09,8.77c.08,1.29-.16,5.2.31,6.42a2,2,0,0,0,3,.84c1.33-1.5.62-4.13.81-6.06,0-13.57.29-30.3.24-43.81l-.07-8.77,0-4.38c0-1.32,0-3-1.62-3.16a2.81,2.81,0,0,0-1.9.28,2.1,2.1,0,0,0-.74,1.7c0,1.41,0,2.91,0,4.36-.05,8.51-.26,17.83-.27,26.29Z"/><circle class="cls-5" cx="656.51" cy="304.01" r="1.95"/><path class="cls-4" d="M656.51,302c3.15,0,2.78,3.74,0,4.14a2.08,2.08,0,1,1,0-4.14Zm0,.07c-2.06.16-2.11,3.45,0,3.68,2.37.28,2.06-3.61,0-3.68Z"/><rect class="cls-5" x="94.24" y="104.03" width="24.96" height="24.96" rx="3.99"/><path class="cls-3" d="M508,103a10.26,10.26,0,0,0-8.88,15.38l-1.37,5.14,5.14-1.38A10.25,10.25,0,1,0,508,103Z"/><path class="cls-3" d="M473.73,113.82a5.35,5.35,0,1,0-7,0,10.7,10.7,0,0,0-7.19,10.45h21.41c0-.22,0-.45,0-.67A10.7,10.7,0,0,0,473.73,113.82Z"/><path class="cls-6" d="M483.93,109.47a2.4,2.4,0,0,0,.84-1.82,2.43,2.43,0,1,0-4,1.82,4.85,4.85,0,0,0-3.26,4.74h9.71a1.6,1.6,0,0,0,0-.31A4.85,4.85,0,0,0,483.93,109.47Z"/><path class="cls-3" d="M544.75,102.59a11.66,11.66,0,1,0,11.66,11.66,11.66,11.66,0,0,0-11.66-11.66Z"/><g class="cls-7"><path class="cls-4" d="M535.59,125.59a9.07,9.07,0,1,1,18.13-.57,5.42,5.42,0,0,1,0,.57Z"/><circle class="cls-4" cx="544.65" cy="113.35" r="4.53"/></g><path class="cls-2" d="M364.19,117.91a5.27,5.27,0,1,1,5.26-5.27h0A5.27,5.27,0,0,1,364.19,117.91Zm0-9.57a4.31,4.31,0,1,0,4.3,4.3h0a4.3,4.3,0,0,0-4.3-4.29Z"/><path class="cls-2" d="M365.85,117.21l1.57-1h0l3.68,5.47a.75.75,0,0,1-.21,1l-.33.23a.75.75,0,0,1-1-.21l-3.68-5.47Z"/><path class="cls-4" d="M416,118.24a4.41,4.41,0,1,1,4.41-4.41h0A4.42,4.42,0,0,1,416,118.24Zm0-8a3.61,3.61,0,1,0,3.61,3.61h0a3.61,3.61,0,0,0-3.61-3.6Z"/><path class="cls-4" d="M417.35,117.66l1.32-.88h0l3.08,4.59a.62.62,0,0,1-.17.86l-.28.19a.64.64,0,0,1-.87-.17l-3.08-4.59Z"/><path class="cls-1" d="M201.1,166.82a35.82,35.82,0,0,0-35.82,35.82c0,19.78,15.87,34.76,35.65,34.76s36-15,36-34.76a35.82,35.82,0,0,0-35.82-35.82Z"/><path class="cls-1" d="M291.7,165.77a35.82,35.82,0,0,0-35.82,35.82c0,19.77,15.87,34.76,35.65,34.76s36-15,36-34.76a35.82,35.82,0,0,0-35.82-35.82Z"/><path class="cls-1" d="M383.35,164.71a35.82,35.82,0,0,0-35.81,35.82c0,19.78,15.87,34.77,35.65,34.77s36-15,36-34.77a35.82,35.82,0,0,0-35.82-35.82Z"/><path class="cls-1" d="M472.9,163.66a35.82,35.82,0,0,0-35.82,35.82c0,19.78,15.87,34.76,35.66,34.76s36-15,36-34.76a35.81,35.81,0,0,0-35.82-35.82Z"/><rect class="cls-8" x="187.26" y="311.93" width="288.63" height="189.42" rx="9.27"/><rect class="cls-2" x="225.77" y="326.48" width="214.84" height="75.19"/><line class="cls-9" x1="219.36" y1="250.46" x2="310.57" y2="360.43"/><line class="cls-9" x1="291.58" y1="251.48" x2="323.66" y2="350.77"/><line class="cls-9" x1="375.68" y1="254.61" x2="340.08" y2="352.69"/><path class="cls-10" d="M359.79,352.33a1,1,0,0,1-.7-1.72L461.92,249.45a1,1,0,1,1,1.41,1.42L360.5,352A1,1,0,0,1,359.79,352.33Z"/><rect class="cls-2" x="224.81" y="431.83" width="63.19" height="53.71"/><rect class="cls-2" x="300.63" y="431.83" width="63.19" height="53.71"/><rect class="cls-2" x="376.46" y="431.83" width="63.19" height="53.71"/><line id="Line_90" data-name="Line 90" class="cls-11" x1="268.86" y1="418.95" x2="395.96" y2="418.95"/><line id="Line_90-2" data-name="Line 90" class="cls-11" x1="289.15" y1="411.69" x2="374.47" y2="411.69"/><rect class="cls-12" x="260.29" y="343.4" width="141.62" height="40.46" rx="11.06"/><g id="Cool_How_did_I_get_This_offer" data-name="Cool How did I get This offer" class="cls-13"><text class="cls-14" transform="translate(298.66 371.24)">Share</text></g><path class="cls-15" d="M207.73,172a36.8,36.8,0,1,0,36.8,36.8A36.84,36.84,0,0,0,207.73,172ZM175,208.83A32.72,32.72,0,1,1,233,229.64a25.83,25.83,0,0,0-13.87-15,14.35,14.35,0,1,0-22.54,0c-7.51,3.43-12.92,10-14.14,14.89A32.57,32.57,0,0,1,175,208.83Zm15.45,27.73-1.6-1.05a33.25,33.25,0,0,1-3.32-2.71c1.67-7.49,6.75-13.23,14.52-15.93l2.77-1-2.2-1.94A10.95,10.95,0,1,1,215,214l-2.2,1.94,2.77,1a21.16,21.16,0,0,1,14.26,16,32.47,32.47,0,0,1-39.36,3.68Z"/><path class="cls-16" d="M293.73,171a36.8,36.8,0,1,0,36.8,36.8A36.84,36.84,0,0,0,293.73,171ZM261,207.83A32.72,32.72,0,1,1,319,228.64a25.83,25.83,0,0,0-13.87-15,14.35,14.35,0,1,0-22.54,0c-7.51,3.43-12.92,10-14.14,14.89A32.57,32.57,0,0,1,261,207.83Zm15.45,27.73-1.6-1.05a33.25,33.25,0,0,1-3.32-2.71c1.67-7.49,6.75-13.23,14.52-15.93l2.77-1-2.2-1.94A10.95,10.95,0,1,1,301,213l-2.2,1.94,2.77,1a21.16,21.16,0,0,1,14.26,16,32.47,32.47,0,0,1-39.36,3.68Z"/><path class="cls-17" d="M383.73,171a36.8,36.8,0,1,0,36.8,36.8A36.84,36.84,0,0,0,383.73,171ZM351,207.83A32.72,32.72,0,1,1,409,228.64a25.83,25.83,0,0,0-13.87-15,14.35,14.35,0,1,0-22.54,0c-7.51,3.43-12.92,10-14.14,14.89A32.57,32.57,0,0,1,351,207.83Zm15.45,27.73-1.6-1.05a33.25,33.25,0,0,1-3.32-2.71c1.67-7.49,6.75-13.23,14.52-15.93l2.77-1-2.2-1.94A10.95,10.95,0,1,1,391,213l-2.2,1.94,2.77,1a21.16,21.16,0,0,1,14.26,16,32.47,32.47,0,0,1-39.36,3.68Z"/><path class="cls-18" d="M470.73,171a36.8,36.8,0,1,0,36.8,36.8A36.84,36.84,0,0,0,470.73,171ZM438,207.83A32.72,32.72,0,1,1,496,228.64a25.83,25.83,0,0,0-13.87-15,14.35,14.35,0,1,0-22.54,0c-7.51,3.43-12.92,10-14.14,14.89A32.57,32.57,0,0,1,438,207.83Zm15.45,27.73-1.6-1.05a33.25,33.25,0,0,1-3.32-2.71c1.67-7.49,6.75-13.23,14.52-15.93l2.77-1-2.2-1.94A10.95,10.95,0,1,1,478,213l-2.2,1.94,2.77,1a21.16,21.16,0,0,1,14.26,16,32.47,32.47,0,0,1-39.36,3.68Z"/></svg>