<?xml version="1.0" encoding="utf-8"?>
<!-- Generator: Adobe Illustrator 26.1.0, SVG Export Plug-In . SVG Version: 6.00 Build 0)  -->
<svg version="1.1" id="Layer_1" xmlns="http://www.w3.org/2000/svg" xmlns:xlink="http://www.w3.org/1999/xlink" x="0px" y="0px"
	 viewBox="0 0 400 763" style="enable-background:new 0 0 400 763;" xml:space="preserve">
<style type="text/css">
	.st0{fill:#F4F4F4;}
	.st1{fill:url(#Rectangle_394_00000112597016508148644760000007034139536768965030_);}
	.st2{fill:#E2E2E2;}
	.st3{fill:none;stroke:#FFFFFF;stroke-width:3;stroke-miterlimit:10;}
	.st4{opacity:0.12;fill:url(#SVGID_1_);}
	.st5{fill:url(#Path_2334_00000139276827575937880120000005327068010067150469_);}
	.st6{fill:url(#Path_2335_00000085241903947339708380000002606315063421376673_);}
	.st7{fill:url(#Path_2336_00000129168171529648735500000003234910666385002162_);}
	.st8{fill:url(#Path_2337_00000013882791841839447590000001728607686994053266_);}
	.st9{fill:#EAEAEA;}
	.st10{fill:#DBDBDB;}
	.st11{fill:url(#SVGID_00000107580690260261731670000008240238215487678614_);}
	.st12{fill:#FFFFFF;}
	.st13{fill:url(#SVGID_00000014595684459240575770000015267475057994907313_);}
	.st14{fill:url(#SVGID_00000097481465653014569110000008553084071154833598_);}
	.st15{fill:url(#SVGID_00000153695056526369843940000007534298994465147319_);}
	.st16{fill:url(#SVGID_00000100359760152775432850000010973049188658953123_);}
	.st17{fill:url(#SVGID_00000135689357931822731200000014580243333813509524_);}
	.st18{fill:url(#SVGID_00000080206563511504954890000002467799889170861989_);}
	.st19{fill:url(#SVGID_00000176745173170664667150000003684448570938543785_);}
	.st20{fill:url(#SVGID_00000005963875790577036150000014450098360058474666_);}
	.st21{fill:none;stroke:#777777;stroke-width:2.5;stroke-miterlimit:10;}
	.st22{fill:#FFFFFF;stroke:#777777;stroke-width:2.5;stroke-miterlimit:10;}
	.st23{clip-path:url(#SVGID_00000098912463446178936740000015867237397909937307_);}
	.st24{clip-path:url(#SVGID_00000163041966318747102830000015074796646672465056_);}
	.st25{fill:url(#SVGID_00000021815191659034508110000003474906510315703692_);}
	.st26{fill:url(#SVGID_00000147194435911457424580000012017915997522080158_);}
	.st27{fill:none;}
	.st28{clip-path:url(#SVGID_00000092441293100214582250000001106495245336807308_);}
	.st29{fill:url(#SVGID_00000029762761996378303740000004548953255476714663_);}
	.st30{fill:url(#SVGID_00000153679792738975445210000008880230093082876817_);}
	.st31{clip-path:url(#SVGID_00000034090605253923879130000008729958505078734767_);}
	.st32{fill:url(#SVGID_00000000907427177524769920000014973780975465637268_);}
	.st33{fill:url(#SVGID_00000136413391594764376060000005353655953427859090_);}
	.st34{clip-path:url(#SVGID_00000076562658046727773010000007591484066091329956_);}
	.st35{fill:url(#SVGID_00000037652876119114483490000010258841128648486287_);}
	.st36{fill:url(#SVGID_00000023283493505571968740000004965016963921565103_);}
	.st37{fill:none;stroke:#FFFFFF;stroke-width:0.75;stroke-miterlimit:10;}
	.st38{fill:url(#SVGID_00000129901392879708214170000001524949863342231196_);}
	.st39{fill:url(#SVGID_00000171692868517506332520000013854382230583506077_);}
	.st40{fill:url(#SVGID_00000001660434206220220490000002280127638394662323_);}
	.st41{fill:url(#SVGID_00000060747669538482308890000012961518852975703186_);}
	.st42{fill:none;stroke:#D3D3D3;stroke-width:2;stroke-linecap:round;stroke-miterlimit:10;}
	.st43{fill:url(#Path_1240-2_00000082336935922530164720000009841405937018687416_);}
	.st44{fill:url(#Path_1241-2_00000043440747056203549580000011629659738034333078_);}
	.st45{fill:url(#SVGID_00000119081125388865086860000002677880442784796560_);}
	.st46{fill:url(#Path_1240-2_00000079465114138201287520000014770557821980929690_);}
	.st47{fill:url(#Path_1241-2_00000016778237586541303430000005490030510055012536_);}
	.st48{fill:url(#SVGID_00000061454076064225688420000011190555844497364894_);}
	.st49{fill:url(#SVGID_00000016782189286935716570000016573720867357958538_);}
	.st50{fill:url(#SVGID_00000018925550619862329290000014844380115335742349_);}
	.st51{fill:url(#SVGID_00000132081666704132822290000000705468105677403067_);}
	.st52{fill:url(#SVGID_00000169555446252529055640000008391655458819711670_);}
	.st53{fill:url(#SVGID_00000018210451402422328660000015170190369771354810_);}
	.st54{fill:url(#SVGID_00000020362539810695480320000000883827163529327807_);}
	.st55{fill:url(#SVGID_00000044860891826402130580000015688260375916397954_);}
	.st56{fill:url(#SVGID_00000150815994141972134240000008723472962282418086_);}
	.st57{fill:url(#SVGID_00000072276874436137678580000014743768509914852786_);}
	.st58{fill:url(#SVGID_00000103235140205717833910000003607145913809221793_);}
	.st59{fill:url(#SVGID_00000130640741485479124030000006856297098516663440_);}
	.st60{fill:url(#SVGID_00000115509443624712164180000015829650427772965819_);}
	.st61{fill:none;stroke:#F89808;}
	.st62{fill:none;stroke:#95989A;}
	.st63{opacity:0.3;enable-background:new    ;}
	.st64{fill:#E5E5E5;}
	.st65{fill:#F6E3D3;}
	.st66{fill:#282525;}
	.st67{fill:none;stroke:#000000;stroke-miterlimit:10;}
	.st68{fill:url(#Path_1442_00000111183951268513080150000012399889981832741512_);}
	.st69{fill:url(#Path_1443_00000097495820197147516570000016702475625769348486_);}
	.st70{fill:url(#Path_1444_00000043435742768719907310000002481923324580584328_);}
	.st71{clip-path:url(#SVGID_00000111881144152221177320000002916188334797367467_);}
	.st72{clip-path:url(#SVGID_00000105409342990307866900000008429862561654355106_);}
	.st73{clip-path:url(#SVGID_00000076597326279538850080000007998952683929105824_);}
	.st74{clip-path:url(#SVGID_00000098920047617180026010000016666175671033679802_);}
	.st75{fill:#3A3A3A;}
	.st76{fill:url(#Path_1651_00000085231474203117417060000004105923545450171545_);}
	.st77{fill:url(#Path_1652_00000139980701527099841760000016803140056123592369_);}
	.st78{fill:url(#Path_1653_00000156575349868528453890000007040865453642813825_);}
	.st79{fill:url(#Path_1654_00000034780964099308117460000011239683705262333881_);}
	.st80{fill:url(#Path_1655_00000138574931445041135090000012650162714210835075_);}
	.st81{fill:url(#Path_1656_00000157298164659959796790000014141014756877811866_);}
	.st82{fill:url(#Path_1657_00000140010137168212193520000012670772465448018827_);}
	.st83{fill:#D79581;}
	.st84{fill:#111F23;}
	.st85{fill:#1A2E35;}
	.st86{fill:url(#Path_1675_00000083085498729920754620000010599296676780131488_);}
	.st87{fill:url(#Path_1676_00000109716917149557435630000003554911166721833617_);}
	.st88{fill:#1E1735;}
	.st89{fill:#B77E70;}
	.st90{fill:url(#Path_1686_00000166658400689165402340000013182174379261253032_);}
	.st91{fill:url(#Path_1698_00000054952650347244955400000012971128512780521622_);}
	.st92{fill:url(#Path_1703_00000077290465813521710200000003454747884040995512_);}
	.st93{fill:url(#Path_1704_00000121253329116394386400000006938206543337925041_);}
	.st94{fill:url(#Rectangle_313_00000176031206926791024850000018142381042266572961_);}
	.st95{fill:#263238;}
	.st96{fill:#EBEBFF;}
	.st97{fill:#9192FF;}
	.st98{clip-path:url(#SVGID_00000170966754639649808580000004160601506346932386_);fill:#FFFFFF;}
	.st99{clip-path:url(#SVGID_00000170966754639649808580000004160601506346932386_);fill:#D1D1FF;}
	.st100{opacity:0.8;clip-path:url(#SVGID_00000170966754639649808580000004160601506346932386_);}
	.st101{clip-path:url(#SVGID_00000170966754639649808580000004160601506346932386_);}
	.st102{opacity:0.7;fill:#FFF2E0;}
	.st103{fill:#FFA121;}
	.st104{opacity:0.4;fill:#FFFFFF;}
	.st105{fill:#D1D1FF;}
	.st106{fill:#3335CF;}
	.st107{fill:#1B1B43;}
	.st108{fill:#C5C5FF;}
	.st109{fill:url(#SVGID_00000073688315225589594380000012027949252954911906_);}
	.st110{fill:#FFBC96;}
	.st111{fill:#D28572;}
	.st112{fill:#37474F;}
	.st113{opacity:0.2;enable-background:new    ;}
	.st114{opacity:0.3;fill:#1B1B43;}
	.st115{fill:#030347;}
	.st116{fill:url(#SVGID_00000121249374878124340640000012240271005132222856_);}
	.st117{fill:#753E3E;}
	.st118{opacity:0.2;fill:#FE5B52;}
	.st119{fill:#F5F5F5;}
	.st120{fill:#E6E6E6;}
	.st121{fill:#EBEBEB;}
	.st122{fill:#E0E0E0;}
	.st123{opacity:0.15;}
	.st124{fill:url(#SVGID_00000021114230918767497800000000801631772174692764_);}
	.st125{fill:#F0F0F0;}
	.st126{fill:url(#SVGID_00000070812141474909781610000012118116407450490809_);}
	.st127{fill:url(#SVGID_00000085945780360062412940000014158869210077047954_);}
	.st128{opacity:0.2;fill:#FFFFFF;enable-background:new    ;}
	.st129{fill:url(#SVGID_00000035508473940447861380000006361032604772945319_);}
	.st130{opacity:0.1;enable-background:new    ;}
	.st131{fill:url(#SVGID_00000167368919862338293250000014216741873113045439_);}
	.st132{fill:url(#SVGID_00000132801616113133797930000014787095510555532441_);}
	.st133{opacity:0.4;fill:#FFFFFF;enable-background:new    ;}
	.st134{fill:url(#SVGID_00000170973643271463861870000016935038052612813959_);}
	.st135{opacity:0.5;}
	.st136{fill:url(#SVGID_00000019647434684707657690000004158863151880824757_);}
	.st137{fill:url(#SVGID_00000056405086177444333450000001410722474466590367_);}
	.st138{fill:url(#SVGID_00000086650953804651787720000000058185847540245172_);}
	.st139{fill:url(#SVGID_00000078747344727013955830000016059431119080822717_);}
	.st140{fill:url(#SVGID_00000040550121431614789310000012257099154923444872_);}
	.st141{fill:url(#SVGID_00000028312824930503391450000015255157956290701489_);}
	.st142{fill:url(#SVGID_00000181804332746821649700000006859011031132296101_);}
	.st143{fill:url(#SVGID_00000025433007944365002860000017535135873676574850_);}
	.st144{fill:url(#SVGID_00000001645587332200595320000008388656123414233993_);}
	.st145{fill:url(#SVGID_00000055679865131365537180000007202619054956471198_);}
	.st146{fill:url(#SVGID_00000004532250720830073710000010248750583424315047_);}
	.st147{fill:url(#SVGID_00000180367213412799014540000014695789496638206110_);}
	.st148{fill:url(#SVGID_00000134210146240752689820000002361045828378940548_);}
	.st149{fill:url(#SVGID_00000183969579835394697990000001286522622721187483_);}
	.st150{fill:url(#SVGID_00000113341714581392969050000003887017175291816065_);}
	.st151{fill:url(#SVGID_00000048487414547453251730000016138477074544822201_);}
	.st152{opacity:0.3;}
	.st153{fill:url(#SVGID_00000173118489537136826730000011320248436863363500_);}
	.st154{fill:url(#SVGID_00000054241640756659349430000003261404001955332487_);}
	.st155{fill:url(#SVGID_00000175297865510725434530000012918633077290206634_);}
	.st156{fill:url(#SVGID_00000137115908680033587470000011170697893928961948_);}
	.st157{fill:url(#SVGID_00000070834429775845860360000003184746954192322723_);}
	.st158{fill:url(#SVGID_00000083787864560483934620000017086050845116569997_);}
	.st159{fill:#455A64;}
	.st160{fill:url(#SVGID_00000033331665146344607780000001680437474960650629_);}
	.st161{opacity:0.4;}
	.st162{fill:url(#SVGID_00000160879913588265834480000014560901335405279915_);}
	.st163{fill:url(#SVGID_00000060750982371235681590000015566915768647633837_);}
	.st164{fill:url(#SVGID_00000137827461196279795180000009990865262454615206_);}
	.st165{fill:url(#SVGID_00000085252111559423972050000010334152894997048459_);}
	.st166{fill:url(#SVGID_00000101077629841267765130000002529062844153569186_);}
	.st167{fill:url(#SVGID_00000012460043240206673160000016019952774546111390_);}
	.st168{fill:url(#SVGID_00000044864225672793707290000017806505965832086403_);}
	.st169{fill:url(#SVGID_00000067219918932795543770000009414248620434936454_);}
	.st170{fill:url(#SVGID_00000149372049544388066220000005251483131487096194_);}
	.st171{fill:url(#SVGID_00000147901250103412161210000011373921809616539567_);}
	.st172{fill:#945F5F;}
	.st173{fill:url(#SVGID_00000027595887763826161590000013446250689930954153_);}
	.st174{fill:url(#SVGID_00000173859127376489940300000000926223112292880788_);}
	.st175{opacity:0.5;enable-background:new    ;}
	.st176{fill:#FFA8A7;}
	.st177{fill:url(#SVGID_00000138546562238843279590000015875267702058585779_);}
	.st178{fill:url(#SVGID_00000057864886240037411270000013558833094135951035_);}
	.st179{fill:#CE8282;}
	.st180{fill:#F28F8F;}
	.st181{opacity:0.15;enable-background:new    ;}
	.st182{fill:url(#SVGID_00000020372532293178618470000005075558500733006999_);}
	.st183{fill:url(#SVGID_00000140695400297317565100000007132579380729893310_);}
	.st184{fill:url(#SVGID_00000030456891470710922350000012630087425782276784_);}
	.st185{fill:url(#SVGID_00000102511605254673607300000001194207362761674407_);}
	.st186{opacity:0.2;}
	.st187{opacity:0.1;fill:#FFFFFF;enable-background:new    ;}
	.st188{opacity:5.000000e-02;fill:#FFFFFF;enable-background:new    ;}
	.st189{fill:url(#SVGID_00000168825913712066478910000015731642560499463588_);}
	.st190{fill:url(#SVGID_00000049205289913154461700000017498410208734984064_);}
	.st191{fill:url(#SVGID_00000101075078939667521440000011355995325954111679_);}
	.st192{fill:url(#SVGID_00000141449628270736159330000008643784116223840409_);}
	.st193{fill:url(#SVGID_00000134227458206116669420000017269317572581205428_);}
	.st194{fill:url(#SVGID_00000113338342374961591040000006875593863386856885_);}
	.st195{fill:url(#SVGID_00000003089566973794178770000017812219743194782110_);}
	.st196{fill:url(#SVGID_00000158737417398167079620000014812109073766257329_);}
	.st197{fill:url(#SVGID_00000065769483039418123860000003030975696110614188_);}
	.st198{fill:url(#SVGID_00000112610170060058961170000011110833851358608794_);}
	.st199{fill:url(#SVGID_00000008846217777025260570000017581030748525541770_);}
	.st200{fill:url(#SVGID_00000023278779142125225230000018301225186637389199_);}
	.st201{fill:url(#SVGID_00000143602999269626750940000015417940533675561863_);}
	.st202{fill:url(#SVGID_00000050624511780679090230000007028276749095415461_);}
	.st203{fill:url(#SVGID_00000117671139732943612010000009828009512735034770_);}
	.st204{fill:url(#SVGID_00000147925061634980800960000008152852564761692085_);}
	.st205{fill:url(#SVGID_00000137101632948210093320000004025717418807684998_);}
	.st206{fill:url(#SVGID_00000152236851425211957980000018018585391082175146_);}
	.st207{fill:url(#SVGID_00000013903434839920666930000017705553383518437504_);}
	.st208{fill:url(#SVGID_00000172429268454445178380000013789993143912152454_);}
	.st209{fill:url(#SVGID_00000179624946030742401290000010160539886964427923_);}
	.st210{fill:url(#SVGID_00000099656365395953616410000015076849389339139970_);}
	.st211{fill:url(#SVGID_00000183958918722674758890000002770977916550694810_);}
	.st212{fill:url(#SVGID_00000077324309773031964120000006257471947381460155_);}
	.st213{fill:url(#SVGID_00000168809815348549494520000001673432650678401451_);}
	.st214{fill:url(#SVGID_00000108999807247620784800000001624848535823600804_);}
	.st215{fill:url(#SVGID_00000124847057105248108980000006966153257502156160_);}
	.st216{fill:url(#SVGID_00000127013018890802674820000005718303587790401678_);}
	.st217{fill:url(#SVGID_00000120555966565580650640000003683723004597771668_);}
	.st218{fill:url(#SVGID_00000105399506861462139340000003509614069413652873_);}
	.st219{fill:url(#SVGID_00000170971820077770683020000002359347464969456826_);}
	.st220{fill:url(#SVGID_00000129194922572490363350000016955798719376584634_);}
	.st221{fill:url(#SVGID_00000017514184855900319940000015539468393654038701_);}
	.st222{fill:url(#SVGID_00000016041776804460427570000000791772265121447048_);}
	.st223{fill:url(#SVGID_00000036971988780080941620000000437222138406922151_);}
	.st224{fill:url(#SVGID_00000039097102979668722840000002855626877155497633_);}
	.st225{fill:url(#SVGID_00000134962159446632590230000014987963397727423891_);}
	.st226{fill:url(#SVGID_00000033362299560737400540000017285279253473854610_);}
	.st227{fill:url(#SVGID_00000117653084160426342020000002932842606448021683_);}
	.st228{fill:url(#SVGID_00000139270814070827233500000008152586347336171961_);}
	.st229{fill:url(#SVGID_00000168797177918530132140000014493551690361767334_);}
	.st230{fill:url(#SVGID_00000110466606855240059270000000600055338018991778_);}
	.st231{fill:url(#SVGID_00000068653355783850213750000005707645238461387414_);}
	.st232{fill:url(#SVGID_00000134963685450261241240000014005248546183045526_);}
	.st233{fill:url(#SVGID_00000047018402713662485570000014120781871240791973_);}
	.st234{fill:url(#SVGID_00000028321449399553956040000008668559590630050953_);}
	.st235{fill:url(#SVGID_00000100341059357480110760000000493518832163819442_);}
	.st236{fill:url(#SVGID_00000007412480702959734430000010571812912518193816_);}
	.st237{fill:url(#SVGID_00000164511972217760033320000011575131911509094787_);}
	.st238{fill:url(#SVGID_00000043456774963016773610000010503485430717718957_);}
	.st239{fill:url(#SVGID_00000054231028320207908250000002183084790744964271_);}
	.st240{fill:url(#SVGID_00000150086689854491828260000006206128438592881546_);}
	.st241{fill:#FAFAFA;}
	.st242{fill:url(#SVGID_00000025401542115060504890000010713632435386152126_);}
	.st243{fill:url(#SVGID_00000091007942843687045340000017626023724625870984_);}
	.st244{fill:url(#SVGID_00000017487134502107280080000017628812714003613623_);}
	.st245{fill:url(#SVGID_00000055684700233101697220000011659628219343165631_);}
	.st246{fill:url(#SVGID_00000109718728014228185400000005881089295704180633_);}
	.st247{fill:url(#SVGID_00000096049043785913158830000008182120117816283016_);}
	.st248{fill:url(#SVGID_00000065074292639280677370000011496581847407738502_);}
	.st249{fill:url(#SVGID_00000160163529430931747720000008140927746488871067_);}
	.st250{fill:url(#SVGID_00000101797639969987033790000018411158535420893064_);}
	.st251{opacity:2.000000e-02;enable-background:new    ;}
	.st252{fill:url(#SVGID_00000111158136979241146550000004452457146773908637_);}
	.st253{fill:url(#SVGID_00000053534521344243772980000005518018216823040931_);}
	.st254{fill:#353535;}
	.st255{fill:#B16668;}
	.st256{fill:url(#SVGID_00000175284978348417075120000006146757672016898208_);}
	.st257{fill:url(#SVGID_00000168839767527168853950000005824898742748875688_);}
	.st258{fill:url(#SVGID_00000182511899629928063320000007242791258084731311_);}
	.st259{opacity:0.6;}
	.st260{fill:url(#SVGID_00000120520669615547373200000015522452563641985173_);}
	.st261{fill:url(#SVGID_00000080181553818285101160000014542776932562172848_);}
	.st262{fill:url(#SVGID_00000183231319187238334520000001809483458868881795_);}
	.st263{fill:url(#SVGID_00000114794989002566879010000004346133643429715385_);}
	.st264{fill:url(#SVGID_00000077324922885731799460000014395134206172527032_);}
	.st265{fill:url(#SVGID_00000039107763523392956780000007207619761747654571_);}
	.st266{fill:url(#SVGID_00000077294077776589859380000012376984915422033847_);}
	.st267{fill:url(#SVGID_00000039122945400722819670000017071402581104771973_);}
	.st268{fill:url(#SVGID_00000062170841652039490660000007858734088116765313_);}
	.st269{fill:url(#SVGID_00000128449301144483046890000016332786526113049493_);}
	.st270{fill:url(#SVGID_00000029757531705041389690000008670214203051018664_);}
	.st271{fill:url(#SVGID_00000015339837410762732290000014118679660286406072_);}
	.st272{fill:url(#SVGID_00000025435272906719578450000000847002805652383118_);}
	.st273{fill:url(#SVGID_00000000199966834441505880000009472537746756942263_);}
	.st274{fill:url(#SVGID_00000128448341154160911520000014446691763877849749_);}
	.st275{fill:url(#SVGID_00000048466922658926263340000000626800792369230518_);}
	.st276{fill:url(#SVGID_00000127728741279958486760000000913817077991971495_);}
	.st277{fill:url(#SVGID_00000181799606304022937170000009262659432516345272_);}
	.st278{fill:url(#SVGID_00000132083706339820745880000015977288356346623422_);}
	.st279{fill:url(#SVGID_00000181048199929534764240000001997664075232016778_);}
	.st280{fill:url(#SVGID_00000152972167375908173610000014691714598090075067_);}
	.st281{opacity:0.3;fill:#FFFFFF;enable-background:new    ;}
	.st282{fill:url(#SVGID_00000147908764935726200440000002541378427262884759_);}
	.st283{fill:url(#SVGID_00000097490863738002469050000004484610228930571400_);}
	.st284{fill:url(#SVGID_00000007419211633656676760000015106028132522508160_);}
	.st285{fill:url(#SVGID_00000134235059302829372420000003192286689952383375_);}
	.st286{fill:url(#SVGID_00000167389507111508096220000016439593258293225870_);}
	.st287{fill:url(#SVGID_00000106867087694811463920000013708960743414841506_);}
	.st288{fill:url(#SVGID_00000031175392432229734560000013624710348048434098_);}
	.st289{fill:url(#SVGID_00000179638340199363622590000001106228402304565411_);}
	.st290{fill:url(#SVGID_00000124872692259398864430000014294856371598186147_);}
	.st291{fill:url(#SVGID_00000108310289741950961040000005723777671767056056_);}
	.st292{fill:url(#SVGID_00000096037206908649539210000006868797713462237882_);}
	.st293{fill:url(#Path_1652_00000135653232679406453870000011718001627970546304_);}
	.st294{fill:url(#Path_1653_00000078758004858057103620000014200268636173462401_);}
	.st295{fill:url(#Path_1654_00000041988792971796103170000013971992523236537732_);}
	.st296{fill:url(#Path_1655_00000147204011126679691770000000213462150180716429_);}
	.st297{fill:url(#Path_1656_00000182519911651123439970000011133575381015315127_);}
	.st298{fill:url(#Path_1657_00000183239555405230789400000015493960143473794229_);}
	.st299{fill:none;stroke:#777777;stroke-width:0.75;stroke-miterlimit:10;}
	.st300{fill:#777777;}
	.st301{fill:none;stroke:#777777;stroke-width:0.6;stroke-miterlimit:10;}
	.st302{clip-path:url(#SVGID_00000039132436870368476500000011689243359767250823_);fill:#777777;}
	.st303{clip-path:url(#SVGID_00000113320083548123429330000012454533264736045449_);fill:#777777;}
	.st304{fill:#D8D8D8;}
	.st305{fill:#E8E8E8;}
	.st306{fill:url(#SVGID_00000152958616525351697560000012485507424008399018_);}
	.st307{fill:url(#SVGID_00000112610404327400667180000008563068528818847873_);}
	.st308{fill:url(#SVGID_00000137093297824246384560000016893865673657771429_);}
	.st309{fill:url(#SVGID_00000097501364344552865070000011801369584505907353_);}
	.st310{fill:url(#SVGID_00000119820953985467906270000013648816930161192612_);}
	.st311{clip-path:url(#SVGID_00000023973415147342882840000007047637663789152650_);fill:#777777;}
	.st312{fill:url(#SVGID_00000065060052769250365210000016381044991266756230_);}
	.st313{fill:url(#SVGID_00000110465843314301628750000000607857874086532994_);}
	.st314{fill:url(#SVGID_00000063617995520391801910000018390242797567277452_);}
	.st315{fill:url(#Rectangle_394_00000060000401204602684600000015907657949362631091_);}
	.st316{fill:none;stroke:#FFFFFF;stroke-width:5;stroke-miterlimit:10;}
	.st317{fill:none;stroke:#FFFFFF;stroke-width:7;stroke-miterlimit:10;}
	.st318{fill:url(#Rectangle_394_00000137836970563278958590000007504192835776147849_);}
	.st319{opacity:0.12;fill:url(#SVGID_00000183927517407160588790000016670545387658519208_);}
	.st320{fill:url(#Path_2334_00000160913348714225385990000006604868786864199336_);}
	.st321{fill:url(#Path_2335_00000181799154461551128580000004314805123873334676_);}
	.st322{fill:url(#Path_2336_00000163032855063844434930000010235338487249244592_);}
	.st323{fill:url(#Path_2337_00000003101080054349123400000002549387233537523606_);}
	.st324{enable-background:new    ;}
	.st325{fill:url(#Rectangle_394_00000137832096406816117200000008718976499511649703_);}
	.st326{opacity:0.12;fill:url(#SVGID_00000143575657958496800050000016480704420290945945_);}
	.st327{fill:url(#Path_2334_00000093161389596016073370000005191722791764948644_);}
	.st328{fill:url(#Path_2335_00000173142176486011247640000005382216813875584912_);}
	.st329{fill:url(#Path_2336_00000005955752428424619900000018159380758205845416_);}
	.st330{fill:url(#Path_2337_00000151534238051288309500000018406520318392896919_);}
	.st331{fill:url(#SVGID_00000080194528932821763620000009096869584778795923_);}
	.st332{fill:#D3D3D3;}
	.st333{fill:url(#SVGID_00000138574433078709680520000007619789731349742979_);}
	.st334{fill:url(#SVGID_00000179630399844890521710000007979414823441416862_);}
	.st335{fill:url(#SVGID_00000183206820650082977810000014462474501635715214_);}
	.st336{fill:url(#SVGID_00000066476523175303086840000017921531504494287243_);}
	.st337{fill:url(#SVGID_00000119076377976741491630000011428732109350533050_);}
	.st338{fill:url(#SVGID_00000060748099594846262560000010460886578366138501_);}
	.st339{fill:url(#SVGID_00000010993620469685292270000005879878717905215118_);}
	.st340{fill:url(#SVGID_00000101815325283408816210000009687032639385431202_);}
	.st341{fill:url(#SVGID_00000073689650942759494100000004626741583261215407_);}
	.st342{fill:url(#SVGID_00000029742288387801817090000015041803831039443852_);}
	.st343{font-family:'Gotham-Bold';}
	.st344{font-size:10.6958px;}
	.st345{font-size:9.5632px;}
</style>
<path class="st12" d="M335.9,749.3h-272c-30.6,0-55.4-24.8-55.4-55.4V69.2c0-30.6,24.8-55.4,55.4-55.4h272
	c30.6,0,55.4,24.8,55.4,55.4v624.7C391.4,724.5,366.5,749.3,335.9,749.3z"/>
<g id="Group_1105_00000033337250384645310440000004781273672039387325_" transform="translate(3160.218 1104.131)">
	<path id="Path_2329_00000145769196418741126460000017105098895986769038_" class="st300" d="M-3150-722.5c0,101.8,0,203.6,0,305.4
		c0,9.8,0.2,19.5,5,28.6c10.9,20.9,28,32,51.7,32c88.7,0.1,177.4-0.1,266.1,0.1c26.3,0,46.9-17.8,54-40.6c1.9-6.4,2.9-13,2.8-19.6
		c0-43.9,0-87.8,0-131.8c0-1.4-0.1-2.9,0-4.3c0.1-1.1-0.3-2.7,1.6-2.6c1.4,0.1,1.2,1.4,1.3,2.4c0.1,1.2,0,2.5,0,3.7
		c0,44.7,0.1,89.5,0,134.2c0,15.1-4,28.8-14.3,40.6c-12.1,13.9-26.9,20.8-45.3,20.8c-88.7-0.1-177.4-0.1-266.1,0
		c-12.3,0-24.4-1.4-34.4-9.1c-16.4-12.7-26.3-29-25.4-50.5c0.1-1.8,0-3.7,0-5.5c0-203.4,0-406.8,0-610.2c0-11.4,0.7-22.7,6.5-32.8
		c9.9-17.2,24.8-27.2,44.7-29.4c3.5-0.3,7-0.5,10.5-0.5c87.5,0,175,0,262.5-0.1c25.8,0,44.3,11.3,56,34.1c4.3,8.3,5.5,17.5,5.5,26.7
		c0.1,151.5,0.1,303,0,454.4c0,0.8,0.1,1.6,0,2.5c-0.1,1.3,0.4,3.4-1.7,3.3c-2-0.2-1.1-2.3-1.2-3.5c-0.1-1.4,0-2.9,0-4.3
		c0-149.6,0-299.3,0-448.9c0-16.7-4-32-16.1-44.2c-7.5-7.6-16.9-12-27.1-15c-8.4-2.4-17-2.1-25.5-2.1c-84,0-168,0-252,0
		c-13.7,0-26.5,3.1-37.6,11.6c-15.4,11.8-21.6,27.8-21.5,47c0.2,35.1,0.1,70.2,0.1,105.3C-3150-857.5-3150-790-3150-722.5z"/>
	<path id="Path_2330_00000030475211995681023550000006097772720470418077_" class="st300" d="M-3133.3-944.8c2.5,2.1,1.3,5,1.3,7.5
		c0.1,173.8,0.1,347.7,0,521.5c0,16.3,5.8,29.1,20.6,37c5.9,3.2,12.5,4.1,19.1,4.1c88.1,0,176.2,0,264.3,0c24,0,39-15.2,39.2-39.4
		c0.2-20.7,0-41.5,0-62.2c0-184.1,0.1-368.2,0.2-552.4c0-16.3-5.4-28.5-19.2-37.1c-5.3-3.2-11.4-4.9-17.6-4.8
		c-15.2-0.1-30.4-0.2-45.6,0c-8.3,0.1-11.8,3.3-13.3,11.5c-2.6,13.6-10.4,20.3-24.2,20.4c-34.5,0.1-69,0.1-103.5,0
		c-14,0-21.4-6.4-24.1-20.4c-1.5-7.9-5.3-11.5-13.4-11.6c-15.2-0.2-30.4-0.4-45.6,0.1c-22,0.7-36.7,16.4-36.8,38.8
		c-0.1,25,0,50.1-0.1,75.1c0,2.3,1.1,5-1.3,6.9c-1-0.8-1.5-2-1.3-3.2c0.1-28.5-0.3-57.1,0.5-85.6c0.6-18,14.6-32.8,32.6-34.3
		c18.6-1.5,37.3-1.5,55.9,0.1c6.3,0.4,11.4,5.4,12,11.7c1.3,13.6,11.6,19.8,23.4,19.6c33.3-0.4,66.5-0.1,99.8-0.1
		c14.2,0,19.6-4.6,22.6-19c1.6-7.7,6.7-12.7,15.1-12.8c17.6-0.2,35.3-1.1,52.9,0.6c19.3,1.8,32.1,18.4,33.8,35.5
		c0.2,2.4,0.2,4.9,0.2,7.4c0,204.8,0,409.7,0.1,614.5c0,17.3-6.5,30.6-21.6,39c-5.9,3.3-12.3,6.2-19.6,4.9c-1.4-0.1-2.9-0.2-4.3-0.1
		c-86.5,0-172.9-0.2-259.4,0.2c-11.1,0-20.9-2-29.5-8.9c-7.7-6-12.7-14.7-13.8-24.4c-0.5-4.3-0.7-8.6-0.6-12.9
		c0-151.7,0-303.3,0-455c0-22,0-43.9,0-65.9C-3134.6-940.6-3135.6-943.1-3133.3-944.8z"/>
	<path id="Path_2331_00000178190109779436013310000003119079263213613483_" class="st0" d="M-2958.9-401.6c15,0,29.9,0,44.9,0
		c2.1,0,5.4-0.8,5.5,2.3c0.2,3.4-2.9,3.9-5.8,3.9c-30.5,0-61.1,0-91.6,0c-2.3,0-5.1,0.2-5.2-2.9c-0.1-3.6,3-3.3,5.4-3.3
		C-2990-401.6-2974.5-401.6-2958.9-401.6z"/>
	<g id="Group_1104_00000034073823820718447480000013973274026141560498_" transform="translate(108.029 20.803)">
		<path id="Path_2332_00000133505976805146627510000009576338042563053728_" class="st0" d="M-3069-1079.6c-10.8,0-21.5,0-32.3,0
			c-2.1,0-4.6,0.3-4.4-4c0.2-3.9,2.5-3.4,4.4-3.4c21.8,0,43.6,0,65.4,0c2.3,0,5.2-0.1,5,4c-0.1,3.5-2.9,3.4-5,3.4
			C-3046.9-1079.6-3057.9-1079.6-3069-1079.6z"/>
		<g id="Group_1103_00000069358029664027749740000013017018873792764040_">
			<circle id="Ellipse_64_00000065778924719524911330000016782539234259775882_" class="st0" cx="-3115.1" cy="-1083.3" r="4.4"/>
			<circle id="Ellipse_65_00000101094885616658015940000010915483575497518006_" class="st0" cx="-3127.9" cy="-1083.3" r="4.4"/>
			<circle id="Ellipse_66_00000033371025546233628110000001791433301809337514_" class="st0" cx="-3008.6" cy="-1083.3" r="4.4"/>
			<circle id="Ellipse_67_00000045590511896021036180000018426662053780209086_" class="st0" cx="-3021.4" cy="-1083.3" r="4.4"/>
		</g>
	</g>
</g>
<linearGradient id="Rectangle_394_00000010996090353377123210000001252909412603002271_" gradientUnits="userSpaceOnUse" x1="55.2924" y1="282.2918" x2="284.3767" y2="282.2918">
	<stop  offset="0" style="stop-color:#00FFAF"/>
	<stop  offset="6.000000e-02" style="stop-color:#00EDAD"/>
	<stop  offset="0.32" style="stop-color:#00A6A7"/>
	<stop  offset="0.55" style="stop-color:#006EA2"/>
	<stop  offset="0.75" style="stop-color:#00469F"/>
	<stop  offset="0.91" style="stop-color:#002D9D"/>
	<stop  offset="1" style="stop-color:#00249C"/>
</linearGradient>
<path id="Rectangle_394_00000175319267723700664930000017755378525875423872_" style="fill:url(#Rectangle_394_00000010996090353377123210000001252909412603002271_);" d="
	M67.3,194.5h205.1c6.6,0,12,5.4,12,12v151.7c0,6.6-5.4,12-12,12H67.3c-6.6,0-12-5.4-12-12V206.5C55.3,199.8,60.7,194.5,67.3,194.5z"
	/>
<path id="Rectangle_395_00000152225529426681861710000001160763137825656208_" class="st2" d="M67,194.5h205.7
	c6.5,0,11.7,5.2,11.7,11.7v108.4l0,0H55.3l0,0V206.2C55.3,199.7,60.5,194.5,67,194.5z"/>
<line id="Line_88_00000133518102409667000320000014390593399043696302_" class="st3" x1="76.2" y1="323.7" x2="261.5" y2="323.7"/>
<linearGradient id="SVGID_1_" gradientUnits="userSpaceOnUse" x1="103.7159" y1="254.3497" x2="236.1675" y2="254.3497">
	<stop  offset="0" style="stop-color:#00FFAF"/>
	<stop  offset="6.000000e-02" style="stop-color:#00EDAD"/>
	<stop  offset="0.32" style="stop-color:#00A6A7"/>
	<stop  offset="0.55" style="stop-color:#006EA2"/>
	<stop  offset="0.75" style="stop-color:#00469F"/>
	<stop  offset="0.91" style="stop-color:#002D9D"/>
	<stop  offset="1" style="stop-color:#00249C"/>
</linearGradient>
<rect x="103.7" y="200.9" class="st4" width="132.5" height="106.9"/>
<line id="Line_89_00000040554068067482315070000012901426555579426996_" class="st3" x1="76.2" y1="335.3" x2="261.5" y2="335.3"/>
<line id="Line_90_00000079465924831457096620000013832025295107860648_" class="st3" x1="76.2" y1="346.8" x2="261.5" y2="346.8"/>
<line id="Line_91_00000157295053942535704250000005365099504717256365_" class="st3" x1="99.6" y1="357.3" x2="238.1" y2="357.3"/>
<path id="Path_2333_00000097483211037218038120000004592486470620339086_" class="st2" d="M358.2,376.3v2.1c0,0.6-0.1,1.3-0.2,1.9
	C357.9,378.9,358,377.6,358.2,376.3z"/>
<linearGradient id="Path_2334_00000028309465263126992390000001827839028227524268_" gradientUnits="userSpaceOnUse" x1="-761.9632" y1="-1294.0797" x2="-503.1944" y2="-1019.9016" gradientTransform="matrix(-1 0 0 -1 -495.4083 -771.5562)">
	<stop  offset="0" style="stop-color:#00FFAF"/>
	<stop  offset="6.000000e-02" style="stop-color:#00EDAD"/>
	<stop  offset="0.32" style="stop-color:#00A6A7"/>
	<stop  offset="0.55" style="stop-color:#006EA2"/>
	<stop  offset="0.75" style="stop-color:#00469F"/>
	<stop  offset="0.91" style="stop-color:#002D9D"/>
	<stop  offset="1" style="stop-color:#00249C"/>
</linearGradient>
<path id="Path_2334_00000052823170529320066780000017805773822077268612_" style="fill:url(#Path_2334_00000028309465263126992390000001827839028227524268_);" d="
	M56.4,395.3c5.8,5.1,15.8,6,15.8,6h214.8c4.9,0,8.8,3.9,8.8,8.7c0,0,0,0,0,0v31.7c0,4.8-3.9,8.8-8.8,8.8c0,0,0,0,0,0h-223
	c-4.9,0-8.8-3.9-8.8-8.8c0,0,0,0,0,0v-29.6c0.2-1.3,0.2-2.6,0.2-3.9C55.2,399.4,51.3,390.9,56.4,395.3z"/>
<linearGradient id="Path_2335_00000165925966010648146750000009913069977321693842_" gradientUnits="userSpaceOnUse" x1="-951.4102" y1="407.3256" x2="-691.9241" y2="682.2637" gradientTransform="matrix(-1 0 0 1 -612.6528 0)">
	<stop  offset="0" style="stop-color:#00FFAF"/>
	<stop  offset="6.000000e-02" style="stop-color:#00EDAD"/>
	<stop  offset="0.32" style="stop-color:#00A6A7"/>
	<stop  offset="0.55" style="stop-color:#006EA2"/>
	<stop  offset="0.75" style="stop-color:#00469F"/>
	<stop  offset="0.91" style="stop-color:#002D9D"/>
	<stop  offset="1" style="stop-color:#00249C"/>
</linearGradient>
<path id="Path_2335_00000126306569563330905580000016477596895093668235_" style="fill:url(#Path_2335_00000165925966010648146750000009913069977321693842_);" d="
	M350,527c-5.8-5.1-15.8-6.1-15.8-6.1H143c-4.9,0-8.8-3.9-8.8-8.8c0,0,0,0,0,0v-19.8c0-4.9,3.9-8.8,8.8-8.8c0,0,0,0,0,0h199.5
	c4.9,0,8.8,3.9,8.8,8.8c0,0,0,0,0,0v17.8c-0.2,1.3-0.2,2.6-0.2,4C351.2,523,355.1,531.5,350,527z"/>
<linearGradient id="Path_2336_00000111888298280972463840000017844517342218740372_" gradientUnits="userSpaceOnUse" x1="-1026.2246" y1="470.0349" x2="-766.7386" y2="744.9729" gradientTransform="matrix(-1 0 0 1 -612.6528 0)">
	<stop  offset="0" style="stop-color:#00FFAF"/>
	<stop  offset="6.000000e-02" style="stop-color:#00EDAD"/>
	<stop  offset="0.32" style="stop-color:#00A6A7"/>
	<stop  offset="0.55" style="stop-color:#006EA2"/>
	<stop  offset="0.75" style="stop-color:#00469F"/>
	<stop  offset="0.91" style="stop-color:#002D9D"/>
	<stop  offset="1" style="stop-color:#00249C"/>
</linearGradient>
<path id="Path_2336_00000041259665960499502840000010792830616773317797_" style="fill:url(#Path_2336_00000111888298280972463840000017844517342218740372_);" d="
	M351.4,667.6c-5.8-5.1-15.8-6.1-15.8-6.1H144.4c-4.9,0-8.8-3.9-8.8-8.8c0,0,0,0,0,0v-19.8c0-4.9,3.9-8.8,8.8-8.8c0,0,0,0,0,0h199.5
	c4.9,0,8.8,3.9,8.8,8.8c0,0,0,0,0,0v17.8c-0.2,1.3-0.2,2.6-0.2,4C352.6,663.5,356.4,672,351.4,667.6z"/>
<linearGradient id="Path_2337_00000085934743574834686250000017218212165120674177_" gradientUnits="userSpaceOnUse" x1="-809.6113" y1="-1303.0587" x2="-550.1252" y2="-1028.1207" gradientTransform="matrix(-1 0 0 -1 -477.3382 -541.2141)">
	<stop  offset="0" style="stop-color:#00FFAF"/>
	<stop  offset="6.000000e-02" style="stop-color:#00EDAD"/>
	<stop  offset="0.32" style="stop-color:#00A6A7"/>
	<stop  offset="0.55" style="stop-color:#006EA2"/>
	<stop  offset="0.75" style="stop-color:#00469F"/>
	<stop  offset="0.91" style="stop-color:#002D9D"/>
	<stop  offset="1" style="stop-color:#00249C"/>
</linearGradient>
<path id="Path_2337_00000155147781240295021790000010433865394939885705_" style="fill:url(#Path_2337_00000085934743574834686250000017218212165120674177_);" d="
	M50,551.6c5.8,5.1,15.8,6.1,15.8,6.1H257c4.9,0,8.8,3.9,8.8,8.8c0,0,0,0,0,0v19.8c0,4.9-3.9,8.8-8.8,8.8c0,0,0,0,0,0H57.5
	c-4.9,0-8.8-3.9-8.8-8.8c0,0,0,0,0,0v-17.8c0.2-1.3,0.2-2.6,0.2-4C48.8,555.7,44.9,547.2,50,551.6z"/>
<g class="st324">
	<path class="st12" d="M71.2,579.3h-1.4l-3-7.4h1.8l1.9,5.2l1.9-5.2h1.7L71.2,579.3z"/>
	<path class="st12" d="M75.1,573v-1.4h1.7v1.4H75.1z M75.2,579.2v-5.6h1.6v5.6H75.2z"/>
	<path class="st12" d="M82.2,578.3c-0.1,0.2-0.3,0.4-0.5,0.6c-0.2,0.1-0.4,0.3-0.7,0.3c-0.3,0.1-0.5,0.1-0.8,0.1
		c-0.4,0-0.8-0.1-1.2-0.2c-0.4-0.1-0.8-0.4-1.2-0.6l0.7-1c0.3,0.2,0.6,0.4,0.9,0.5s0.6,0.2,0.9,0.2c0.2,0,0.4,0,0.5-0.1
		c0.1-0.1,0.2-0.2,0.2-0.3v0c0-0.1,0-0.2-0.1-0.2c-0.1-0.1-0.1-0.1-0.3-0.2c-0.1,0-0.2-0.1-0.4-0.1c-0.1,0-0.3-0.1-0.4-0.1
		c-0.2-0.1-0.4-0.1-0.6-0.2c-0.2-0.1-0.4-0.2-0.5-0.3c-0.2-0.1-0.3-0.3-0.4-0.5c-0.1-0.2-0.2-0.4-0.2-0.7v0c0-0.3,0.1-0.5,0.2-0.8
		c0.1-0.2,0.3-0.4,0.4-0.6c0.2-0.2,0.4-0.3,0.6-0.3c0.2-0.1,0.5-0.1,0.8-0.1c0.4,0,0.7,0.1,1.1,0.2c0.4,0.1,0.7,0.3,1,0.5l-0.6,1.1
		c-0.3-0.2-0.6-0.3-0.8-0.4c-0.3-0.1-0.5-0.1-0.7-0.1c-0.2,0-0.3,0-0.4,0.1c-0.1,0.1-0.1,0.2-0.1,0.3v0c0,0.1,0,0.1,0.1,0.2
		c0.1,0.1,0.1,0.1,0.3,0.2c0.1,0.1,0.2,0.1,0.4,0.2c0.1,0,0.3,0.1,0.4,0.1c0.2,0.1,0.4,0.1,0.6,0.2c0.2,0.1,0.4,0.2,0.5,0.3
		c0.2,0.1,0.3,0.3,0.4,0.5s0.2,0.4,0.2,0.7v0C82.4,577.8,82.3,578.1,82.2,578.3z"/>
	<path class="st12" d="M83.5,573v-1.4h1.7v1.4H83.5z M83.6,579.2v-5.6h1.6v5.6H83.6z"/>
	<path class="st12" d="M89.3,579.2c-0.2,0.1-0.4,0.1-0.7,0.1c-0.2,0-0.5,0-0.7-0.1c-0.2-0.1-0.4-0.1-0.5-0.3s-0.3-0.3-0.3-0.5
		s-0.1-0.5-0.1-0.8V575h-0.7v-1.4h0.7v-1.4h1.6v1.4h1.3v1.4h-1.3v2.4c0,0.4,0.2,0.5,0.5,0.5c0.3,0,0.5-0.1,0.8-0.2v1.3
		C89.7,579.1,89.5,579.2,89.3,579.2z"/>
	<path class="st12" d="M96.7,579.2c-0.2,0.1-0.4,0.1-0.7,0.1c-0.2,0-0.5,0-0.7-0.1c-0.2-0.1-0.4-0.1-0.5-0.3s-0.3-0.3-0.3-0.5
		s-0.1-0.5-0.1-0.8V575h-0.7v-1.4h0.7v-1.4H96v1.4h1.3v1.4H96v2.4c0,0.4,0.2,0.5,0.5,0.5c0.3,0,0.5-0.1,0.8-0.2v1.3
		C97.1,579.1,96.9,579.2,96.7,579.2z"/>
	<path class="st12" d="M102,579.2v-3.1c0-0.4-0.1-0.7-0.3-0.8c-0.2-0.2-0.4-0.3-0.7-0.3c-0.3,0-0.5,0.1-0.7,0.3
		c-0.2,0.2-0.3,0.5-0.3,0.8v3.1h-1.6v-7.6h1.6v2.8c0.1-0.1,0.2-0.2,0.3-0.3c0.1-0.1,0.2-0.2,0.4-0.3c0.1-0.1,0.3-0.2,0.4-0.2
		c0.2,0,0.3-0.1,0.5-0.1c0.6,0,1.1,0.2,1.4,0.6c0.3,0.4,0.5,0.9,0.5,1.5v3.6H102z"/>
	<path class="st12" d="M110.2,576.8c0,0.1,0,0.1,0,0.2h-3.9c0.1,0.4,0.2,0.6,0.5,0.8c0.2,0.2,0.5,0.3,0.9,0.3c0.3,0,0.5,0,0.7-0.1
		c0.2-0.1,0.4-0.2,0.6-0.4l0.9,0.8c-0.3,0.3-0.6,0.6-1,0.8c-0.4,0.2-0.8,0.3-1.3,0.3c-0.4,0-0.8-0.1-1.2-0.2
		c-0.4-0.1-0.7-0.3-0.9-0.6s-0.5-0.6-0.6-0.9c-0.1-0.4-0.2-0.7-0.2-1.2v0c0-0.4,0.1-0.8,0.2-1.1s0.3-0.7,0.6-0.9s0.5-0.5,0.9-0.6
		c0.3-0.2,0.7-0.2,1.1-0.2c0.5,0,0.9,0.1,1.2,0.3c0.3,0.2,0.6,0.4,0.9,0.7c0.2,0.3,0.4,0.6,0.5,1c0.1,0.4,0.2,0.7,0.2,1.1v0
		C110.2,576.7,110.2,576.7,110.2,576.8z M108.3,575.1c-0.2-0.2-0.5-0.3-0.8-0.3c-0.3,0-0.6,0.1-0.8,0.3c-0.2,0.2-0.3,0.5-0.4,0.9
		h2.4C108.6,575.6,108.5,575.3,108.3,575.1z"/>
	<path class="st12" d="M118.5,578.3c-0.1,0.2-0.3,0.4-0.5,0.6c-0.2,0.1-0.4,0.3-0.7,0.3c-0.3,0.1-0.5,0.1-0.8,0.1
		c-0.4,0-0.8-0.1-1.2-0.2c-0.4-0.1-0.8-0.4-1.2-0.6l0.7-1c0.3,0.2,0.6,0.4,0.9,0.5s0.6,0.2,0.9,0.2c0.2,0,0.4,0,0.5-0.1
		c0.1-0.1,0.2-0.2,0.2-0.3v0c0-0.1,0-0.2-0.1-0.2c-0.1-0.1-0.1-0.1-0.3-0.2c-0.1,0-0.2-0.1-0.4-0.1c-0.1,0-0.3-0.1-0.4-0.1
		c-0.2-0.1-0.4-0.1-0.6-0.2c-0.2-0.1-0.4-0.2-0.5-0.3c-0.2-0.1-0.3-0.3-0.4-0.5c-0.1-0.2-0.2-0.4-0.2-0.7v0c0-0.3,0.1-0.5,0.2-0.8
		c0.1-0.2,0.3-0.4,0.4-0.6c0.2-0.2,0.4-0.3,0.6-0.3c0.2-0.1,0.5-0.1,0.8-0.1c0.4,0,0.7,0.1,1.1,0.2c0.4,0.1,0.7,0.3,1,0.5l-0.6,1.1
		c-0.3-0.2-0.6-0.3-0.8-0.4c-0.3-0.1-0.5-0.1-0.7-0.1c-0.2,0-0.3,0-0.4,0.1c-0.1,0.1-0.1,0.2-0.1,0.3v0c0,0.1,0,0.1,0.1,0.2
		c0.1,0.1,0.1,0.1,0.3,0.2c0.1,0.1,0.2,0.1,0.4,0.2c0.1,0,0.3,0.1,0.4,0.1c0.2,0.1,0.4,0.1,0.6,0.2c0.2,0.1,0.4,0.2,0.5,0.3
		c0.2,0.1,0.3,0.3,0.4,0.5s0.2,0.4,0.2,0.7v0C118.7,577.8,118.6,578.1,118.5,578.3z"/>
	<path class="st12" d="M123.3,579.2v-3.1c0-0.4-0.1-0.7-0.3-0.8c-0.2-0.2-0.4-0.3-0.7-0.3c-0.3,0-0.5,0.1-0.7,0.3
		c-0.2,0.2-0.3,0.5-0.3,0.8v3.1h-1.6v-7.6h1.6v2.8c0.1-0.1,0.2-0.2,0.3-0.3c0.1-0.1,0.2-0.2,0.4-0.3c0.1-0.1,0.3-0.2,0.4-0.2
		c0.2,0,0.3-0.1,0.5-0.1c0.6,0,1.1,0.2,1.4,0.6c0.3,0.4,0.5,0.9,0.5,1.5v3.6H123.3z"/>
	<path class="st12" d="M131.9,577.6c-0.2,0.4-0.4,0.7-0.6,0.9c-0.3,0.3-0.6,0.5-1,0.6c-0.4,0.2-0.8,0.2-1.2,0.2
		c-0.4,0-0.8-0.1-1.2-0.2c-0.4-0.2-0.7-0.4-1-0.6s-0.5-0.6-0.6-0.9c-0.2-0.4-0.2-0.7-0.2-1.1v0c0-0.4,0.1-0.8,0.2-1.1
		c0.2-0.4,0.4-0.7,0.6-0.9s0.6-0.5,1-0.6c0.4-0.2,0.8-0.2,1.2-0.2c0.4,0,0.8,0.1,1.2,0.2c0.4,0.1,0.7,0.4,1,0.6
		c0.3,0.3,0.5,0.6,0.6,0.9c0.2,0.4,0.2,0.7,0.2,1.1v0C132.1,576.8,132,577.2,131.9,577.6z M130.5,576.4c0-0.2,0-0.4-0.1-0.6
		c-0.1-0.2-0.2-0.3-0.3-0.5c-0.1-0.1-0.3-0.3-0.5-0.3s-0.4-0.1-0.6-0.1c-0.2,0-0.4,0-0.6,0.1s-0.3,0.2-0.5,0.3
		c-0.1,0.1-0.2,0.3-0.3,0.5c-0.1,0.2-0.1,0.4-0.1,0.6v0c0,0.2,0,0.4,0.1,0.6c0.1,0.2,0.2,0.3,0.3,0.5c0.1,0.1,0.3,0.3,0.5,0.3
		c0.2,0.1,0.4,0.1,0.6,0.1c0.2,0,0.4,0,0.6-0.1s0.3-0.2,0.5-0.3s0.2-0.3,0.3-0.5C130.5,576.9,130.5,576.7,130.5,576.4L130.5,576.4z"
		/>
	<path class="st12" d="M138.9,577.7c-0.1,0.4-0.3,0.7-0.6,0.9c-0.2,0.2-0.5,0.4-0.8,0.6s-0.6,0.2-1,0.2c-0.4,0-0.8-0.1-1.1-0.2
		s-0.5-0.4-0.7-0.6v2.4h-1.6v-7.3h1.6v0.8c0.2-0.3,0.4-0.5,0.7-0.6c0.3-0.2,0.6-0.3,1-0.3c0.3,0,0.6,0.1,1,0.2
		c0.3,0.1,0.6,0.3,0.8,0.6c0.2,0.2,0.4,0.6,0.6,0.9s0.2,0.8,0.2,1.2v0C139.1,576.9,139.1,577.3,138.9,577.7z M137.6,576.4
		c0-0.2,0-0.4-0.1-0.6s-0.2-0.4-0.3-0.5s-0.3-0.2-0.4-0.3c-0.2-0.1-0.3-0.1-0.5-0.1c-0.2,0-0.4,0-0.5,0.1c-0.2,0.1-0.3,0.2-0.4,0.3
		s-0.2,0.3-0.3,0.5s-0.1,0.4-0.1,0.6v0c0,0.2,0,0.4,0.1,0.6s0.2,0.4,0.3,0.5s0.3,0.2,0.4,0.3c0.2,0.1,0.3,0.1,0.5,0.1
		c0.2,0,0.4,0,0.5-0.1c0.2-0.1,0.3-0.2,0.4-0.3s0.2-0.3,0.3-0.5S137.6,576.7,137.6,576.4L137.6,576.4z"/>
	<path class="st12" d="M146.7,579.2v-0.6c-0.2,0.2-0.4,0.4-0.7,0.5s-0.6,0.2-1,0.2c-0.3,0-0.5,0-0.7-0.1s-0.4-0.2-0.6-0.3
		s-0.3-0.3-0.4-0.5c-0.1-0.2-0.2-0.5-0.2-0.7v0c0-0.3,0.1-0.6,0.2-0.8c0.1-0.2,0.3-0.4,0.5-0.6c0.2-0.1,0.4-0.3,0.7-0.3
		c0.3-0.1,0.6-0.1,0.9-0.1c0.3,0,0.5,0,0.7,0.1c0.2,0,0.4,0.1,0.6,0.2v-0.1c0-0.3-0.1-0.6-0.3-0.8s-0.5-0.3-0.9-0.3
		c-0.3,0-0.6,0-0.8,0.1c-0.2,0.1-0.5,0.1-0.7,0.2l-0.4-1.2c0.3-0.1,0.6-0.2,1-0.3c0.3-0.1,0.7-0.1,1.2-0.1c0.9,0,1.5,0.2,1.9,0.6
		s0.6,1,0.6,1.8v3.3H146.7z M146.8,577c-0.1-0.1-0.3-0.1-0.5-0.2c-0.2,0-0.4-0.1-0.5-0.1c-0.3,0-0.6,0.1-0.8,0.2
		c-0.2,0.1-0.3,0.3-0.3,0.6v0c0,0.2,0.1,0.4,0.2,0.5c0.2,0.1,0.4,0.2,0.6,0.2c0.4,0,0.7-0.1,0.9-0.3s0.3-0.4,0.3-0.7V577z"/>
	<path class="st12" d="M153.2,579.2v-3.1c0-0.4-0.1-0.7-0.3-0.8c-0.2-0.2-0.4-0.3-0.7-0.3c-0.3,0-0.5,0.1-0.7,0.3
		c-0.2,0.2-0.3,0.5-0.3,0.8v3.1h-1.6v-5.6h1.6v0.8c0.1-0.1,0.2-0.2,0.3-0.3c0.1-0.1,0.2-0.2,0.4-0.3c0.1-0.1,0.3-0.2,0.4-0.2
		c0.2,0,0.3-0.1,0.5-0.1c0.6,0,1.1,0.2,1.4,0.6c0.3,0.4,0.5,0.9,0.5,1.5v3.6H153.2z"/>
	<path class="st12" d="M160.2,579.2v-0.8c-0.2,0.3-0.4,0.5-0.7,0.6s-0.6,0.3-1,0.3c-0.3,0-0.6-0.1-1-0.2c-0.3-0.1-0.6-0.3-0.8-0.6
		c-0.2-0.2-0.4-0.6-0.6-0.9c-0.1-0.4-0.2-0.8-0.2-1.2v0c0-0.5,0.1-0.9,0.2-1.2c0.1-0.4,0.3-0.7,0.6-0.9c0.2-0.2,0.5-0.4,0.8-0.6
		s0.6-0.2,1-0.2c0.4,0,0.8,0.1,1.1,0.2s0.5,0.4,0.7,0.6v-2.8h1.6v7.6H160.2z M160.2,576.4c0-0.2,0-0.4-0.1-0.6s-0.2-0.4-0.3-0.5
		s-0.3-0.2-0.4-0.3c-0.2-0.1-0.3-0.1-0.5-0.1c-0.2,0-0.4,0-0.5,0.1c-0.2,0.1-0.3,0.2-0.4,0.3s-0.2,0.3-0.3,0.5s-0.1,0.4-0.1,0.6v0
		c0,0.2,0,0.4,0.1,0.6s0.2,0.4,0.3,0.5s0.3,0.2,0.4,0.3c0.2,0.1,0.3,0.1,0.5,0.1c0.2,0,0.4,0,0.5-0.1c0.2-0.1,0.3-0.2,0.4-0.3
		s0.2-0.3,0.3-0.5S160.2,576.7,160.2,576.4L160.2,576.4z"/>
	<path class="st12" d="M171.8,579.3c-0.1,0.4-0.3,0.7-0.6,0.9c-0.3,0.2-0.6,0.4-1,0.5c-0.4,0.1-0.8,0.2-1.4,0.2
		c-0.5,0-0.9-0.1-1.3-0.2c-0.4-0.1-0.8-0.2-1.2-0.4l0.5-1.2c0.3,0.2,0.6,0.3,0.9,0.4c0.3,0.1,0.6,0.1,1,0.1c0.5,0,0.9-0.1,1.2-0.4
		c0.3-0.3,0.4-0.6,0.4-1.1v-0.3c-0.2,0.3-0.5,0.5-0.8,0.7s-0.6,0.2-1.1,0.2c-0.3,0-0.6-0.1-0.9-0.2c-0.3-0.1-0.6-0.3-0.8-0.5
		c-0.2-0.2-0.4-0.5-0.5-0.8c-0.1-0.3-0.2-0.7-0.2-1.1v0c0-0.4,0.1-0.8,0.2-1.1c0.1-0.3,0.3-0.6,0.6-0.8c0.2-0.2,0.5-0.4,0.8-0.5
		s0.6-0.2,0.9-0.2c0.4,0,0.8,0.1,1.1,0.2s0.5,0.4,0.7,0.6v-0.7h1.6v4.3C172,578.5,171.9,578.9,171.8,579.3z M170.4,576.1
		c0-0.2,0-0.4-0.1-0.5c-0.1-0.2-0.2-0.3-0.3-0.4c-0.1-0.1-0.3-0.2-0.4-0.3c-0.2-0.1-0.3-0.1-0.5-0.1c-0.2,0-0.4,0-0.5,0.1
		c-0.2,0.1-0.3,0.2-0.4,0.3c-0.1,0.1-0.2,0.3-0.3,0.4c-0.1,0.2-0.1,0.3-0.1,0.5v0c0,0.4,0.1,0.7,0.4,0.9c0.3,0.2,0.6,0.4,1,0.4
		c0.2,0,0.4,0,0.5-0.1c0.2-0.1,0.3-0.2,0.4-0.3c0.1-0.1,0.2-0.3,0.3-0.4C170.4,576.5,170.4,576.3,170.4,576.1L170.4,576.1z"/>
	<path class="st12" d="M178.6,576.8c0,0.1,0,0.1,0,0.2h-3.9c0.1,0.4,0.2,0.6,0.5,0.8c0.2,0.2,0.5,0.3,0.9,0.3c0.3,0,0.5,0,0.7-0.1
		c0.2-0.1,0.4-0.2,0.6-0.4l0.9,0.8c-0.3,0.3-0.6,0.6-1,0.8c-0.4,0.2-0.8,0.3-1.3,0.3c-0.4,0-0.8-0.1-1.2-0.2
		c-0.4-0.1-0.7-0.3-0.9-0.6s-0.5-0.6-0.6-0.9c-0.1-0.4-0.2-0.7-0.2-1.2v0c0-0.4,0.1-0.8,0.2-1.1s0.3-0.7,0.6-0.9s0.5-0.5,0.9-0.6
		c0.3-0.2,0.7-0.2,1.1-0.2c0.5,0,0.9,0.1,1.2,0.3c0.3,0.2,0.6,0.4,0.9,0.7c0.2,0.3,0.4,0.6,0.5,1c0.1,0.4,0.2,0.7,0.2,1.1v0
		C178.6,576.7,178.6,576.7,178.6,576.8z M176.7,575.1c-0.2-0.2-0.5-0.3-0.8-0.3c-0.3,0-0.6,0.1-0.8,0.3c-0.2,0.2-0.3,0.5-0.4,0.9
		h2.4C177,575.6,176.9,575.3,176.7,575.1z"/>
	<path class="st12" d="M182.4,579.2c-0.2,0.1-0.4,0.1-0.7,0.1c-0.2,0-0.5,0-0.7-0.1c-0.2-0.1-0.4-0.1-0.5-0.3s-0.3-0.3-0.3-0.5
		s-0.1-0.5-0.1-0.8V575h-0.7v-1.4h0.7v-1.4h1.6v1.4h1.3v1.4h-1.3v2.4c0,0.4,0.2,0.5,0.5,0.5c0.3,0,0.5-0.1,0.8-0.2v1.3
		C182.8,579.1,182.6,579.2,182.4,579.2z"/>
	<path class="st12" d="M189.9,579.2c-0.2,0.1-0.4,0.1-0.7,0.1c-0.2,0-0.5,0-0.7-0.1c-0.2-0.1-0.4-0.1-0.5-0.3s-0.3-0.3-0.3-0.5
		s-0.1-0.5-0.1-0.8V575h-0.7v-1.4h0.7v-1.4h1.6v1.4h1.3v1.4h-1.3v2.4c0,0.4,0.2,0.5,0.5,0.5c0.3,0,0.5-0.1,0.8-0.2v1.3
		C190.3,579.1,190.1,579.2,189.9,579.2z"/>
	<path class="st12" d="M195.2,579.2v-3.1c0-0.4-0.1-0.7-0.3-0.8c-0.2-0.2-0.4-0.3-0.7-0.3c-0.3,0-0.5,0.1-0.7,0.3
		c-0.2,0.2-0.3,0.5-0.3,0.8v3.1h-1.6v-7.6h1.6v2.8c0.1-0.1,0.2-0.2,0.3-0.3c0.1-0.1,0.2-0.2,0.4-0.3c0.1-0.1,0.3-0.2,0.4-0.2
		c0.2,0,0.3-0.1,0.5-0.1c0.6,0,1.1,0.2,1.4,0.6c0.3,0.4,0.5,0.9,0.5,1.5v3.6H195.2z"/>
	<path class="st12" d="M203.4,576.8c0,0.1,0,0.1,0,0.2h-3.9c0.1,0.4,0.2,0.6,0.5,0.8c0.2,0.2,0.5,0.3,0.9,0.3c0.3,0,0.5,0,0.7-0.1
		c0.2-0.1,0.4-0.2,0.6-0.4l0.9,0.8c-0.3,0.3-0.6,0.6-1,0.8c-0.4,0.2-0.8,0.3-1.3,0.3c-0.4,0-0.8-0.1-1.2-0.2
		c-0.4-0.1-0.7-0.3-0.9-0.6s-0.5-0.6-0.6-0.9c-0.1-0.4-0.2-0.7-0.2-1.2v0c0-0.4,0.1-0.8,0.2-1.1s0.3-0.7,0.6-0.9s0.5-0.5,0.9-0.6
		c0.3-0.2,0.7-0.2,1.1-0.2c0.5,0,0.9,0.1,1.2,0.3c0.3,0.2,0.6,0.4,0.9,0.7c0.2,0.3,0.4,0.6,0.5,1c0.1,0.4,0.2,0.7,0.2,1.1v0
		C203.4,576.7,203.4,576.7,203.4,576.8z M201.5,575.1c-0.2-0.2-0.5-0.3-0.8-0.3c-0.3,0-0.6,0.1-0.8,0.3c-0.2,0.2-0.3,0.5-0.4,0.9
		h2.4C201.8,575.6,201.7,575.3,201.5,575.1z"/>
	<path class="st12" d="M213.3,577.6c-0.2,0.4-0.4,0.7-0.6,0.9c-0.3,0.3-0.6,0.5-1,0.6c-0.4,0.2-0.8,0.2-1.2,0.2
		c-0.4,0-0.8-0.1-1.2-0.2c-0.4-0.2-0.7-0.4-1-0.6s-0.5-0.6-0.6-0.9c-0.2-0.4-0.2-0.7-0.2-1.1v0c0-0.4,0.1-0.8,0.2-1.1
		c0.2-0.4,0.4-0.7,0.6-0.9s0.6-0.5,1-0.6c0.4-0.2,0.8-0.2,1.2-0.2c0.4,0,0.8,0.1,1.2,0.2c0.4,0.1,0.7,0.4,1,0.6
		c0.3,0.3,0.5,0.6,0.6,0.9c0.2,0.4,0.2,0.7,0.2,1.1v0C213.5,576.8,213.4,577.2,213.3,577.6z M211.9,576.4c0-0.2,0-0.4-0.1-0.6
		c-0.1-0.2-0.2-0.3-0.3-0.5c-0.1-0.1-0.3-0.3-0.5-0.3s-0.4-0.1-0.6-0.1c-0.2,0-0.4,0-0.6,0.1s-0.3,0.2-0.5,0.3
		c-0.1,0.1-0.2,0.3-0.3,0.5c-0.1,0.2-0.1,0.4-0.1,0.6v0c0,0.2,0,0.4,0.1,0.6c0.1,0.2,0.2,0.3,0.3,0.5c0.1,0.1,0.3,0.3,0.5,0.3
		c0.2,0.1,0.4,0.1,0.6,0.1c0.2,0,0.4,0,0.6-0.1s0.3-0.2,0.5-0.3s0.2-0.3,0.3-0.5C211.9,576.9,211.9,576.7,211.9,576.4L211.9,576.4z"
		/>
	<path class="st12" d="M217.4,572.9c-0.1,0-0.2,0-0.4,0c-0.4,0-0.6,0.2-0.6,0.6v0.2h1.3v1.3h-1.3v4.2h-1.6V575h-0.7v-1.3h0.7v-0.4
		c0-0.6,0.1-1.1,0.4-1.4s0.7-0.4,1.3-0.4c0.3,0,0.5,0,0.6,0s0.3,0.1,0.5,0.1v1.3C217.7,573,217.5,572.9,217.4,572.9z"/>
	<path class="st12" d="M221.4,572.9c-0.1,0-0.2,0-0.4,0c-0.4,0-0.6,0.2-0.6,0.6v0.2h1.3v1.3h-1.3v4.2h-1.6V575h-0.7v-1.3h0.7v-0.4
		c0-0.6,0.1-1.1,0.4-1.4s0.7-0.4,1.3-0.4c0.3,0,0.5,0,0.6,0s0.3,0.1,0.5,0.1v1.3C221.7,573,221.5,572.9,221.4,572.9z"/>
	<path class="st12" d="M227.9,576.8c0,0.1,0,0.1,0,0.2h-3.9c0.1,0.4,0.2,0.6,0.5,0.8c0.2,0.2,0.5,0.3,0.9,0.3c0.3,0,0.5,0,0.7-0.1
		c0.2-0.1,0.4-0.2,0.6-0.4l0.9,0.8c-0.3,0.3-0.6,0.6-1,0.8c-0.4,0.2-0.8,0.3-1.3,0.3c-0.4,0-0.8-0.1-1.2-0.2
		c-0.4-0.1-0.7-0.3-0.9-0.6s-0.5-0.6-0.6-0.9c-0.1-0.4-0.2-0.7-0.2-1.2v0c0-0.4,0.1-0.8,0.2-1.1s0.3-0.7,0.6-0.9s0.5-0.5,0.9-0.6
		c0.3-0.2,0.7-0.2,1.1-0.2c0.5,0,0.9,0.1,1.2,0.3c0.3,0.2,0.6,0.4,0.9,0.7c0.2,0.3,0.4,0.6,0.5,1c0.1,0.4,0.2,0.7,0.2,1.1v0
		C227.9,576.7,227.9,576.7,227.9,576.8z M225.9,575.1c-0.2-0.2-0.5-0.3-0.8-0.3c-0.3,0-0.6,0.1-0.8,0.3c-0.2,0.2-0.3,0.5-0.4,0.9
		h2.4C226.3,575.6,226.1,575.3,225.9,575.1z"/>
	<path class="st12" d="M232.3,575.2c-0.5,0-0.9,0.2-1.2,0.5s-0.5,0.8-0.5,1.5v2.1H229v-5.6h1.6v1.1c0.2-0.4,0.4-0.7,0.7-0.9
		c0.3-0.2,0.7-0.3,1.1-0.3L232.3,575.2L232.3,575.2z"/>
</g>
<g>
	<rect x="112.8" y="210.2" class="st12" width="114.7" height="40.1"/>
	<g>
		<rect x="112.2" y="269.7" class="st12" width="33.7" height="28.7"/>
		<rect x="152.7" y="269.7" class="st12" width="33.7" height="28.7"/>
		<rect x="193.2" y="269.7" class="st12" width="33.7" height="28.7"/>
	</g>
	
		<line id="Line_90_00000102522467453554172070000017897786630187124618_" class="st3" x1="135.8" y1="263.7" x2="203.6" y2="263.7"/>
	<line id="Line_90_00000101819896415600620100000002415558507140672667_" class="st3" x1="146.6" y1="258" x2="192.1" y2="258"/>
</g>
<g class="st324">
	<path class="st12" d="M75.4,422.1v-3h-3v3h-1.6v-7.5h1.6v3h3v-3h1.6v7.5H75.4z"/>
	<path class="st12" d="M84,419.6c0,0.1,0,0.1,0,0.2h-4c0.1,0.4,0.2,0.7,0.5,0.8c0.2,0.2,0.6,0.3,0.9,0.3c0.3,0,0.5,0,0.7-0.1
		s0.4-0.2,0.7-0.4l0.9,0.8c-0.3,0.3-0.6,0.6-1,0.8c-0.4,0.2-0.8,0.3-1.4,0.3c-0.4,0-0.8-0.1-1.2-0.2s-0.7-0.3-1-0.6
		c-0.3-0.3-0.5-0.6-0.6-0.9s-0.2-0.8-0.2-1.2v0c0-0.4,0.1-0.8,0.2-1.2c0.1-0.4,0.3-0.7,0.6-1c0.2-0.3,0.5-0.5,0.9-0.6
		s0.7-0.2,1.1-0.2c0.5,0,0.9,0.1,1.2,0.3c0.3,0.2,0.6,0.4,0.9,0.7c0.2,0.3,0.4,0.6,0.5,1c0.1,0.4,0.2,0.8,0.2,1.2v0
		C84,419.5,84,419.5,84,419.6z M82.1,417.9c-0.2-0.2-0.5-0.3-0.8-0.3s-0.6,0.1-0.8,0.3c-0.2,0.2-0.3,0.5-0.4,0.9h2.4
		C82.4,418.4,82.3,418.1,82.1,417.9z"/>
	<path class="st12" d="M88.5,422.2c-0.1,0.3-0.2,0.5-0.3,0.7c-0.1,0.2-0.3,0.4-0.4,0.5c-0.1,0.1-0.3,0.2-0.5,0.3
		c-0.2,0.1-0.4,0.1-0.6,0.1c-0.3,0-0.6,0-0.8-0.1c-0.2-0.1-0.4-0.2-0.7-0.3l0.5-1.2c0.1,0.1,0.2,0.1,0.3,0.2c0.1,0,0.2,0.1,0.3,0.1
		c0.1,0,0.3,0,0.3-0.1s0.2-0.2,0.2-0.3l-2.2-5.8h1.7l1.3,3.9l1.3-3.9h1.7L88.5,422.2z"/>
	<path class="st12" d="M101.2,420.9c-0.1,0.3-0.3,0.5-0.6,0.6c-0.2,0.2-0.5,0.3-0.9,0.4c-0.3,0.1-0.7,0.1-1.1,0.1H95v-7.5h3.5
		c0.8,0,1.4,0.2,1.8,0.5c0.4,0.3,0.7,0.8,0.7,1.4v0c0,0.2,0,0.4-0.1,0.6s-0.1,0.3-0.2,0.4c-0.1,0.1-0.2,0.2-0.3,0.3
		c-0.1,0.1-0.2,0.2-0.4,0.3c0.4,0.2,0.8,0.4,1,0.7s0.4,0.7,0.4,1.2v0C101.4,420.4,101.3,420.7,101.2,420.9z M99.3,416.8
		c0-0.2-0.1-0.4-0.3-0.6c-0.2-0.1-0.5-0.2-0.8-0.2h-1.6v1.6h1.5c0.4,0,0.7-0.1,0.9-0.2C99.2,417.3,99.3,417.1,99.3,416.8L99.3,416.8
		z M99.8,419.8c0-0.2-0.1-0.4-0.3-0.6c-0.2-0.1-0.5-0.2-0.9-0.2h-1.9v1.6h2c0.4,0,0.6-0.1,0.9-0.2C99.7,420.3,99.8,420.1,99.8,419.8
		L99.8,419.8z"/>
	<path class="st12" d="M106,418c-0.5,0-1,0.2-1.3,0.5s-0.5,0.8-0.5,1.5v2.1h-1.6v-5.7h1.6v1.2c0.2-0.4,0.4-0.7,0.7-0.9
		c0.3-0.2,0.7-0.3,1.2-0.3L106,418L106,418z"/>
	<path class="st12" d="M112.7,420.4c-0.2,0.4-0.4,0.7-0.7,0.9c-0.3,0.3-0.6,0.5-1,0.6c-0.4,0.2-0.8,0.2-1.2,0.2
		c-0.4,0-0.9-0.1-1.2-0.2s-0.7-0.4-1-0.6s-0.5-0.6-0.6-0.9s-0.2-0.7-0.2-1.2v0c0-0.4,0.1-0.8,0.2-1.2c0.2-0.4,0.4-0.7,0.7-0.9
		c0.3-0.3,0.6-0.5,1-0.6s0.8-0.2,1.2-0.2c0.4,0,0.9,0.1,1.2,0.2c0.4,0.2,0.7,0.4,1,0.6c0.3,0.3,0.5,0.6,0.6,0.9
		c0.2,0.4,0.2,0.7,0.2,1.2v0C113,419.6,112.9,420,112.7,420.4z M111.4,419.2c0-0.2,0-0.4-0.1-0.6c-0.1-0.2-0.2-0.4-0.3-0.5
		c-0.1-0.1-0.3-0.3-0.5-0.3c-0.2-0.1-0.4-0.1-0.6-0.1c-0.2,0-0.4,0-0.6,0.1c-0.2,0.1-0.3,0.2-0.5,0.3s-0.2,0.3-0.3,0.5
		c-0.1,0.2-0.1,0.4-0.1,0.6v0c0,0.2,0,0.4,0.1,0.6c0.1,0.2,0.2,0.4,0.3,0.5c0.1,0.1,0.3,0.3,0.5,0.3c0.2,0.1,0.4,0.1,0.6,0.1
		c0.2,0,0.4,0,0.6-0.1c0.2-0.1,0.3-0.2,0.5-0.3s0.2-0.3,0.3-0.5C111.3,419.7,111.4,419.5,111.4,419.2L111.4,419.2z"/>
	<path class="st12" d="M114.7,422.1h-0.7v-1.7h1.7v1.4c0,0.7-0.2,1.2-0.5,1.5s-0.8,0.5-1.5,0.5l-0.1-0.7
		C114.5,423.1,114.8,422.7,114.7,422.1z"/>
	<path class="st12" d="M122.9,420.4c-0.2,0.4-0.4,0.7-0.7,0.9c-0.3,0.3-0.6,0.5-1,0.6c-0.4,0.2-0.8,0.2-1.2,0.2
		c-0.4,0-0.9-0.1-1.2-0.2s-0.7-0.4-1-0.6s-0.5-0.6-0.6-0.9s-0.2-0.7-0.2-1.2v0c0-0.4,0.1-0.8,0.2-1.2c0.2-0.4,0.4-0.7,0.7-0.9
		c0.3-0.3,0.6-0.5,1-0.6s0.8-0.2,1.2-0.2c0.4,0,0.9,0.1,1.2,0.2c0.4,0.2,0.7,0.4,1,0.6c0.3,0.3,0.5,0.6,0.6,0.9
		c0.2,0.4,0.2,0.7,0.2,1.2v0C123.1,419.6,123.1,420,122.9,420.4z M121.5,419.2c0-0.2,0-0.4-0.1-0.6c-0.1-0.2-0.2-0.4-0.3-0.5
		c-0.1-0.1-0.3-0.3-0.5-0.3c-0.2-0.1-0.4-0.1-0.6-0.1c-0.2,0-0.4,0-0.6,0.1c-0.2,0.1-0.3,0.2-0.5,0.3s-0.2,0.3-0.3,0.5
		c-0.1,0.2-0.1,0.4-0.1,0.6v0c0,0.2,0,0.4,0.1,0.6c0.1,0.2,0.2,0.4,0.3,0.5c0.1,0.1,0.3,0.3,0.5,0.3c0.2,0.1,0.4,0.1,0.6,0.1
		c0.2,0,0.4,0,0.6-0.1c0.2-0.1,0.3-0.2,0.5-0.3s0.2-0.3,0.3-0.5C121.5,419.7,121.5,419.5,121.5,419.2L121.5,419.2z"/>
	<path class="st12" d="M130.1,420.5c-0.1,0.4-0.3,0.7-0.6,0.9c-0.2,0.3-0.5,0.4-0.8,0.6c-0.3,0.1-0.6,0.2-1,0.2
		c-0.4,0-0.8-0.1-1.1-0.3s-0.5-0.4-0.7-0.6v2.5h-1.6v-7.4h1.6v0.8c0.2-0.3,0.4-0.5,0.7-0.7c0.3-0.2,0.6-0.3,1.1-0.3
		c0.3,0,0.7,0.1,1,0.2c0.3,0.1,0.6,0.3,0.8,0.6s0.4,0.6,0.6,0.9s0.2,0.8,0.2,1.3v0C130.3,419.7,130.3,420.1,130.1,420.5z
		 M128.7,419.2c0-0.2,0-0.5-0.1-0.7c-0.1-0.2-0.2-0.4-0.3-0.5c-0.1-0.1-0.3-0.2-0.4-0.3s-0.3-0.1-0.5-0.1s-0.4,0-0.5,0.1
		c-0.2,0.1-0.3,0.2-0.4,0.3c-0.1,0.1-0.2,0.3-0.3,0.5c-0.1,0.2-0.1,0.4-0.1,0.7v0c0,0.2,0,0.5,0.1,0.7c0.1,0.2,0.2,0.4,0.3,0.5
		c0.1,0.1,0.3,0.2,0.4,0.3c0.2,0.1,0.3,0.1,0.5,0.1s0.4,0,0.5-0.1s0.3-0.2,0.4-0.3c0.1-0.1,0.2-0.3,0.3-0.5
		C128.7,419.7,128.7,419.5,128.7,419.2L128.7,419.2z"/>
	<path class="st12" d="M136.9,419.6c0,0.1,0,0.1,0,0.2h-4c0.1,0.4,0.2,0.7,0.5,0.8c0.2,0.2,0.6,0.3,0.9,0.3c0.3,0,0.5,0,0.7-0.1
		s0.4-0.2,0.7-0.4l0.9,0.8c-0.3,0.3-0.6,0.6-1,0.8c-0.4,0.2-0.8,0.3-1.4,0.3c-0.4,0-0.8-0.1-1.2-0.2s-0.7-0.3-1-0.6
		c-0.3-0.3-0.5-0.6-0.6-0.9s-0.2-0.8-0.2-1.2v0c0-0.4,0.1-0.8,0.2-1.2c0.1-0.4,0.3-0.7,0.6-1c0.2-0.3,0.5-0.5,0.9-0.6
		s0.7-0.2,1.1-0.2c0.5,0,0.9,0.1,1.2,0.3c0.3,0.2,0.6,0.4,0.9,0.7c0.2,0.3,0.4,0.6,0.5,1c0.1,0.4,0.2,0.8,0.2,1.2v0
		C136.9,419.5,136.9,419.5,136.9,419.6z M134.9,417.9c-0.2-0.2-0.5-0.3-0.8-0.3s-0.6,0.1-0.8,0.3c-0.2,0.2-0.3,0.5-0.4,0.9h2.4
		C135.3,418.4,135.1,418.1,134.9,417.9z"/>
	<path class="st12" d="M141.7,422.1v-3.2c0-0.4-0.1-0.7-0.3-0.9c-0.2-0.2-0.4-0.3-0.7-0.3s-0.6,0.1-0.7,0.3
		c-0.2,0.2-0.3,0.5-0.3,0.9v3.2h-1.6v-5.7h1.6v0.8c0.1-0.1,0.2-0.2,0.3-0.4c0.1-0.1,0.2-0.2,0.4-0.3s0.3-0.2,0.4-0.2
		c0.2,0,0.3-0.1,0.6-0.1c0.6,0,1.1,0.2,1.4,0.6c0.3,0.4,0.5,0.9,0.5,1.6v3.7H141.7z"/>
	<path class="st12" d="M150.6,422.1c-0.2,0.1-0.4,0.1-0.7,0.1c-0.2,0-0.5,0-0.7-0.1c-0.2-0.1-0.4-0.1-0.5-0.3
		c-0.1-0.1-0.3-0.3-0.3-0.5s-0.1-0.5-0.1-0.8v-2.7h-0.7v-1.4h0.7v-1.5h1.6v1.5h1.3v1.4h-1.3v2.4c0,0.4,0.2,0.6,0.5,0.6
		c0.3,0,0.6-0.1,0.8-0.2v1.3C151,422,150.8,422,150.6,422.1z"/>
	<path class="st12" d="M156,422.1v-3.2c0-0.4-0.1-0.7-0.3-0.9c-0.2-0.2-0.4-0.3-0.7-0.3s-0.6,0.1-0.7,0.3c-0.2,0.2-0.3,0.5-0.3,0.9
		v3.2h-1.6v-7.8h1.6v2.9c0.1-0.1,0.2-0.2,0.3-0.4c0.1-0.1,0.2-0.2,0.4-0.3s0.3-0.2,0.4-0.2c0.2,0,0.3-0.1,0.6-0.1
		c0.6,0,1.1,0.2,1.4,0.6c0.3,0.4,0.5,0.9,0.5,1.6v3.7H156z"/>
	<path class="st12" d="M159.1,415.7v-1.4h1.7v1.4H159.1z M159.1,422.1v-5.7h1.6v5.7H159.1z"/>
	<path class="st12" d="M166.3,421.2c-0.1,0.2-0.3,0.4-0.5,0.6c-0.2,0.1-0.4,0.3-0.7,0.3c-0.3,0.1-0.6,0.1-0.9,0.1
		c-0.4,0-0.8-0.1-1.2-0.2c-0.4-0.1-0.8-0.4-1.2-0.7l0.7-1.1c0.3,0.2,0.6,0.4,0.9,0.5s0.6,0.2,0.9,0.2c0.2,0,0.4,0,0.5-0.1
		c0.1-0.1,0.2-0.2,0.2-0.3v0c0-0.1,0-0.2-0.1-0.2c-0.1-0.1-0.2-0.1-0.3-0.2c-0.1,0-0.2-0.1-0.4-0.1c-0.1,0-0.3-0.1-0.4-0.1
		c-0.2-0.1-0.4-0.1-0.6-0.2c-0.2-0.1-0.4-0.2-0.6-0.3s-0.3-0.3-0.4-0.5c-0.1-0.2-0.2-0.4-0.2-0.7v0c0-0.3,0.1-0.6,0.2-0.8
		c0.1-0.2,0.3-0.4,0.4-0.6c0.2-0.2,0.4-0.3,0.7-0.4c0.3-0.1,0.5-0.1,0.8-0.1c0.4,0,0.7,0.1,1.1,0.2c0.4,0.1,0.7,0.3,1,0.5l-0.6,1.1
		c-0.3-0.2-0.6-0.3-0.8-0.4c-0.3-0.1-0.5-0.1-0.7-0.1c-0.2,0-0.3,0-0.4,0.1c-0.1,0.1-0.1,0.2-0.1,0.3v0c0,0.1,0,0.1,0.1,0.2
		c0.1,0.1,0.1,0.1,0.3,0.2s0.2,0.1,0.4,0.2c0.1,0,0.3,0.1,0.4,0.1c0.2,0.1,0.4,0.1,0.6,0.2s0.4,0.2,0.6,0.3c0.2,0.1,0.3,0.3,0.4,0.5
		s0.2,0.4,0.2,0.7v0C166.5,420.7,166.4,420.9,166.3,421.2z"/>
	<path class="st12" d="M171,422.1v-7.8h1.6v7.8H171z"/>
	<path class="st12" d="M174.1,415.7v-1.4h1.7v1.4H174.1z M174.2,422.1v-5.7h1.6v5.7H174.2z"/>
	<path class="st12" d="M181,422.1v-3.2c0-0.4-0.1-0.7-0.3-0.9c-0.2-0.2-0.4-0.3-0.7-0.3s-0.6,0.1-0.7,0.3c-0.2,0.2-0.3,0.5-0.3,0.9
		v3.2h-1.6v-5.7h1.6v0.8c0.1-0.1,0.2-0.2,0.3-0.4c0.1-0.1,0.2-0.2,0.4-0.3s0.3-0.2,0.4-0.2c0.2,0,0.3-0.1,0.6-0.1
		c0.6,0,1.1,0.2,1.4,0.6c0.3,0.4,0.5,0.9,0.5,1.6v3.7H181z"/>
	<path class="st12" d="M187.7,422.1l-1.5-2.3l-0.6,0.6v1.7H184v-7.8h1.6v4.2l1.9-2.1h1.9l-2.2,2.3l2.3,3.5H187.7z"/>
	<path class="st12" d="M190.9,422.1h-0.7v-1.7h1.7v1.4c0,0.7-0.2,1.2-0.5,1.5s-0.8,0.5-1.5,0.5l-0.1-0.7
		C190.6,423.1,191,422.7,190.9,422.1z"/>
	<path class="st12" d="M196.6,415.7v-1.4h1.7v1.4H196.6z M196.7,422.1v-5.7h1.6v5.7H196.7z"/>
	<path class="st12" d="M209.5,422.1H208l-1.1-3.5l-1.1,3.5h-1.5l-1.8-5.8h1.6l0.9,3.5l1.1-3.5h1.4l1.1,3.5l0.9-3.5h1.6L209.5,422.1z
		"/>
	<path class="st12" d="M212.3,415.7v-1.4h1.7v1.4H212.3z M212.3,422.1v-5.7h1.6v5.7H212.3z"/>
	<path class="st12" d="M215.6,422.1v-7.8h1.6v7.8H215.6z"/>
	<path class="st12" d="M218.8,422.1v-7.8h1.6v7.8H218.8z"/>
	<path class="st12" d="M230.7,422.2c-0.1,0.4-0.3,0.7-0.6,0.9c-0.3,0.2-0.6,0.4-1,0.5s-0.9,0.2-1.4,0.2c-0.5,0-0.9-0.1-1.3-0.2
		c-0.4-0.1-0.8-0.3-1.2-0.4l0.6-1.2c0.3,0.2,0.6,0.3,0.9,0.4c0.3,0.1,0.6,0.1,1,0.1c0.6,0,1-0.1,1.2-0.4c0.3-0.3,0.4-0.7,0.4-1.2
		v-0.3c-0.2,0.3-0.5,0.5-0.8,0.7c-0.3,0.2-0.6,0.2-1.1,0.2c-0.3,0-0.7-0.1-1-0.2c-0.3-0.1-0.6-0.3-0.8-0.5c-0.2-0.2-0.4-0.5-0.6-0.8
		c-0.1-0.3-0.2-0.7-0.2-1.1v0c0-0.4,0.1-0.8,0.2-1.1c0.1-0.3,0.3-0.6,0.6-0.8s0.5-0.4,0.8-0.5c0.3-0.1,0.6-0.2,1-0.2
		c0.4,0,0.8,0.1,1.1,0.2c0.3,0.2,0.5,0.4,0.8,0.6v-0.7h1.6v4.4C230.9,421.3,230.8,421.8,230.7,422.2z M229.3,418.9
		c0-0.2,0-0.4-0.1-0.5c-0.1-0.2-0.2-0.3-0.3-0.4c-0.1-0.1-0.3-0.2-0.4-0.3c-0.2-0.1-0.4-0.1-0.6-0.1s-0.4,0-0.6,0.1
		c-0.2,0.1-0.3,0.2-0.4,0.3c-0.1,0.1-0.2,0.3-0.3,0.4c-0.1,0.2-0.1,0.3-0.1,0.5v0c0,0.4,0.1,0.7,0.4,1c0.3,0.2,0.6,0.4,1,0.4
		c0.2,0,0.4,0,0.6-0.1c0.2-0.1,0.3-0.2,0.4-0.3c0.1-0.1,0.2-0.3,0.3-0.4C229.3,419.3,229.3,419.1,229.3,418.9L229.3,418.9z"/>
	<path class="st12" d="M237.7,419.6c0,0.1,0,0.1,0,0.2h-4c0.1,0.4,0.2,0.7,0.5,0.8c0.2,0.2,0.6,0.3,0.9,0.3c0.3,0,0.5,0,0.7-0.1
		s0.4-0.2,0.7-0.4l0.9,0.8c-0.3,0.3-0.6,0.6-1,0.8c-0.4,0.2-0.8,0.3-1.4,0.3c-0.4,0-0.8-0.1-1.2-0.2s-0.7-0.3-1-0.6
		c-0.3-0.3-0.5-0.6-0.6-0.9s-0.2-0.8-0.2-1.2v0c0-0.4,0.1-0.8,0.2-1.2c0.1-0.4,0.3-0.7,0.6-1c0.2-0.3,0.5-0.5,0.9-0.6
		s0.7-0.2,1.1-0.2c0.5,0,0.9,0.1,1.2,0.3c0.3,0.2,0.6,0.4,0.9,0.7c0.2,0.3,0.4,0.6,0.5,1c0.1,0.4,0.2,0.8,0.2,1.2v0
		C237.7,419.5,237.7,419.5,237.7,419.6z M235.7,417.9c-0.2-0.2-0.5-0.3-0.8-0.3s-0.6,0.1-0.8,0.3c-0.2,0.2-0.3,0.5-0.4,0.9h2.4
		C236.1,418.4,236,418.1,235.7,417.9z"/>
	<path class="st12" d="M241.6,422.1c-0.2,0.1-0.4,0.1-0.7,0.1c-0.2,0-0.5,0-0.7-0.1c-0.2-0.1-0.4-0.1-0.5-0.3
		c-0.1-0.1-0.3-0.3-0.3-0.5s-0.1-0.5-0.1-0.8v-2.7h-0.7v-1.4h0.7v-1.5h1.6v1.5h1.3v1.4h-1.3v2.4c0,0.4,0.2,0.6,0.5,0.6
		c0.3,0,0.6-0.1,0.8-0.2v1.3C242,422,241.8,422,241.6,422.1z"/>
</g>
<g>
	<path class="st12" d="M72.2,430h1.1v7.5h-1.6v-5.9l-1.3,0.3l-0.3-1.3L72.2,430z"/>
	<path class="st12" d="M81.3,435.3c-0.2,0.5-0.4,0.9-0.7,1.2c-0.3,0.3-0.6,0.6-1.1,0.8c-0.4,0.2-0.9,0.3-1.4,0.3s-1-0.1-1.4-0.3
		c-0.4-0.2-0.8-0.5-1-0.8c-0.3-0.3-0.5-0.8-0.7-1.2c-0.2-0.5-0.2-1-0.2-1.5c0-0.5,0.1-1,0.2-1.5c0.2-0.5,0.4-0.9,0.7-1.2
		c0.3-0.3,0.6-0.6,1.1-0.8c0.4-0.2,0.9-0.3,1.4-0.3s1,0.1,1.4,0.3s0.8,0.5,1,0.8c0.3,0.3,0.5,0.8,0.7,1.2s0.2,1,0.2,1.5
		C81.6,434.3,81.5,434.8,81.3,435.3z M79.8,432.9c-0.1-0.3-0.2-0.5-0.3-0.8c-0.1-0.2-0.3-0.4-0.5-0.5c-0.2-0.1-0.4-0.2-0.7-0.2
		s-0.5,0.1-0.7,0.2c-0.2,0.1-0.4,0.3-0.5,0.5c-0.1,0.2-0.3,0.5-0.3,0.8s-0.1,0.6-0.1,1c0,0.3,0,0.7,0.1,1c0.1,0.3,0.2,0.5,0.3,0.8
		s0.3,0.4,0.5,0.5s0.4,0.2,0.7,0.2s0.5-0.1,0.7-0.2c0.2-0.1,0.4-0.3,0.5-0.5c0.1-0.2,0.3-0.5,0.3-0.8c0.1-0.3,0.1-0.6,0.1-0.9
		C79.9,433.5,79.8,433.1,79.8,432.9z"/>
	<path class="st12" d="M86.1,432.6c-0.1,0.2-0.2,0.4-0.4,0.6s-0.4,0.3-0.6,0.4c-0.2,0.1-0.5,0.2-0.7,0.2c-0.3,0-0.5,0-0.7-0.2
		c-0.2-0.1-0.4-0.2-0.6-0.4c-0.2-0.2-0.3-0.4-0.4-0.6c-0.1-0.2-0.1-0.5-0.1-0.7s0-0.5,0.1-0.7c0.1-0.2,0.2-0.4,0.4-0.6
		c0.2-0.2,0.4-0.3,0.6-0.4s0.5-0.1,0.7-0.1s0.5,0,0.7,0.1c0.2,0.1,0.4,0.2,0.6,0.4c0.2,0.2,0.3,0.4,0.4,0.6c0.1,0.2,0.1,0.5,0.1,0.7
		C86.3,432.1,86.2,432.4,86.1,432.6z M84.6,437.5h-1.3l5.5-7.5h1.3L84.6,437.5z M84.9,431.2c-0.1-0.2-0.3-0.3-0.5-0.3
		c-0.2,0-0.4,0.1-0.5,0.3s-0.2,0.4-0.2,0.7c0,0.3,0.1,0.5,0.2,0.7c0.1,0.2,0.3,0.3,0.5,0.3c0.2,0,0.4-0.1,0.5-0.3
		c0.1-0.2,0.2-0.4,0.2-0.7C85.1,431.6,85.1,431.4,84.9,431.2z M90.7,436.5c-0.1,0.2-0.2,0.4-0.4,0.6c-0.2,0.2-0.4,0.3-0.6,0.4
		s-0.5,0.2-0.7,0.2s-0.5-0.1-0.7-0.2c-0.2-0.1-0.4-0.2-0.6-0.4c-0.2-0.2-0.3-0.4-0.4-0.6c-0.1-0.2-0.1-0.5-0.1-0.7s0-0.5,0.1-0.7
		c0.1-0.2,0.2-0.4,0.4-0.6c0.2-0.2,0.4-0.3,0.6-0.4s0.5-0.1,0.7-0.1c0.3,0,0.5,0,0.7,0.1s0.4,0.2,0.6,0.4s0.3,0.4,0.4,0.6
		s0.1,0.5,0.1,0.7C90.9,436,90.8,436.2,90.7,436.5z M89.5,435.1c-0.1-0.2-0.3-0.3-0.5-0.3c-0.2,0-0.4,0.1-0.5,0.3
		c-0.1,0.2-0.2,0.4-0.2,0.7c0,0.3,0.1,0.5,0.2,0.7c0.1,0.2,0.3,0.3,0.5,0.3c0.2,0,0.4-0.1,0.5-0.3s0.2-0.4,0.2-0.7
		C89.7,435.5,89.7,435.2,89.5,435.1z"/>
	<path class="st12" d="M99.4,437.5v-0.8c-0.2,0.3-0.4,0.5-0.7,0.7c-0.3,0.2-0.6,0.3-1.1,0.3c-0.3,0-0.7-0.1-1-0.2
		c-0.3-0.1-0.6-0.3-0.8-0.6c-0.2-0.3-0.4-0.6-0.6-0.9c-0.1-0.4-0.2-0.8-0.2-1.3v0c0-0.5,0.1-0.9,0.2-1.3c0.1-0.4,0.3-0.7,0.6-0.9
		c0.2-0.3,0.5-0.4,0.8-0.6c0.3-0.1,0.6-0.2,1-0.2c0.4,0,0.8,0.1,1.1,0.3s0.5,0.4,0.7,0.6v-2.8h1.6v7.8H99.4z M99.4,434.7
		c0-0.2,0-0.5-0.1-0.7c-0.1-0.2-0.2-0.4-0.3-0.5c-0.1-0.1-0.3-0.2-0.4-0.3s-0.3-0.1-0.5-0.1s-0.4,0-0.5,0.1
		c-0.2,0.1-0.3,0.2-0.4,0.3c-0.1,0.1-0.2,0.3-0.3,0.5c-0.1,0.2-0.1,0.4-0.1,0.7v0c0,0.2,0,0.5,0.1,0.7c0.1,0.2,0.2,0.4,0.3,0.5
		c0.1,0.1,0.3,0.2,0.4,0.3c0.2,0.1,0.3,0.1,0.5,0.1s0.4,0,0.5-0.1s0.3-0.2,0.4-0.3c0.1-0.1,0.2-0.3,0.3-0.5
		C99.4,435.1,99.4,434.9,99.4,434.7L99.4,434.7z"/>
	<path class="st12" d="M102.5,431.2v-1.4h1.7v1.4H102.5z M102.6,437.5v-5.7h1.6v5.7H102.6z"/>
	<path class="st12" d="M109.8,436.6c-0.1,0.2-0.3,0.4-0.5,0.6c-0.2,0.1-0.4,0.3-0.7,0.3c-0.3,0.1-0.6,0.1-0.9,0.1
		c-0.4,0-0.8-0.1-1.2-0.2c-0.4-0.1-0.8-0.4-1.2-0.7l0.7-1.1c0.3,0.2,0.6,0.4,0.9,0.5s0.6,0.2,0.9,0.2c0.2,0,0.4,0,0.5-0.1
		c0.1-0.1,0.2-0.2,0.2-0.3v0c0-0.1,0-0.2-0.1-0.2c-0.1-0.1-0.2-0.1-0.3-0.2c-0.1,0-0.2-0.1-0.4-0.1c-0.1,0-0.3-0.1-0.4-0.1
		c-0.2-0.1-0.4-0.1-0.6-0.2c-0.2-0.1-0.4-0.2-0.6-0.3s-0.3-0.3-0.4-0.5c-0.1-0.2-0.2-0.4-0.2-0.7v0c0-0.3,0.1-0.6,0.2-0.8
		c0.1-0.2,0.3-0.4,0.4-0.6c0.2-0.2,0.4-0.3,0.7-0.4c0.3-0.1,0.5-0.1,0.8-0.1c0.4,0,0.7,0.1,1.1,0.2c0.4,0.1,0.7,0.3,1,0.5l-0.6,1.1
		c-0.3-0.2-0.6-0.3-0.8-0.4c-0.3-0.1-0.5-0.1-0.7-0.1c-0.2,0-0.3,0-0.4,0.1c-0.1,0.1-0.1,0.2-0.1,0.3v0c0,0.1,0,0.1,0.1,0.2
		c0.1,0.1,0.1,0.1,0.3,0.2s0.2,0.1,0.4,0.2c0.1,0,0.3,0.1,0.4,0.1c0.2,0.1,0.4,0.1,0.6,0.2s0.4,0.2,0.6,0.3c0.2,0.1,0.3,0.3,0.4,0.5
		s0.2,0.4,0.2,0.7v0C109.9,436.1,109.9,436.4,109.8,436.6z"/>
	<path class="st12" d="M115.2,437.4c-0.4,0.2-0.8,0.3-1.4,0.3c-0.4,0-0.8-0.1-1.2-0.2c-0.4-0.2-0.7-0.4-0.9-0.6
		c-0.3-0.3-0.5-0.6-0.6-0.9s-0.2-0.7-0.2-1.1v0c0-0.4,0.1-0.8,0.2-1.2c0.1-0.4,0.4-0.7,0.6-1c0.3-0.3,0.6-0.5,0.9-0.6
		s0.8-0.2,1.2-0.2c0.5,0,1,0.1,1.3,0.3s0.7,0.4,0.9,0.7l-1,1.1c-0.2-0.2-0.4-0.3-0.6-0.5c-0.2-0.1-0.4-0.2-0.7-0.2
		c-0.2,0-0.4,0-0.6,0.1s-0.3,0.2-0.4,0.3c-0.1,0.1-0.2,0.3-0.3,0.5c-0.1,0.2-0.1,0.4-0.1,0.6v0c0,0.2,0,0.4,0.1,0.6
		c0.1,0.2,0.2,0.4,0.3,0.5s0.3,0.3,0.5,0.3s0.4,0.1,0.6,0.1c0.3,0,0.5-0.1,0.7-0.2c0.2-0.1,0.4-0.3,0.6-0.4l1,1
		C115.9,436.9,115.6,437.2,115.2,437.4z"/>
	<path class="st12" d="M122.9,435.8c-0.2,0.4-0.4,0.7-0.7,0.9c-0.3,0.3-0.6,0.5-1,0.6c-0.4,0.2-0.8,0.2-1.2,0.2
		c-0.4,0-0.9-0.1-1.2-0.2s-0.7-0.4-1-0.6s-0.5-0.6-0.6-0.9s-0.2-0.7-0.2-1.2v0c0-0.4,0.1-0.8,0.2-1.2c0.2-0.4,0.4-0.7,0.7-0.9
		c0.3-0.3,0.6-0.5,1-0.6s0.8-0.2,1.2-0.2c0.4,0,0.9,0.1,1.2,0.2c0.4,0.2,0.7,0.4,1,0.6c0.3,0.3,0.5,0.6,0.6,0.9
		c0.2,0.4,0.2,0.7,0.2,1.2v0C123.1,435.1,123.1,435.5,122.9,435.8z M121.5,434.7c0-0.2,0-0.4-0.1-0.6c-0.1-0.2-0.2-0.4-0.3-0.5
		c-0.1-0.1-0.3-0.3-0.5-0.3c-0.2-0.1-0.4-0.1-0.6-0.1c-0.2,0-0.4,0-0.6,0.1c-0.2,0.1-0.3,0.2-0.5,0.3s-0.2,0.3-0.3,0.5
		c-0.1,0.2-0.1,0.4-0.1,0.6v0c0,0.2,0,0.4,0.1,0.6c0.1,0.2,0.2,0.4,0.3,0.5c0.1,0.1,0.3,0.3,0.5,0.3c0.2,0.1,0.4,0.1,0.6,0.1
		c0.2,0,0.4,0,0.6-0.1c0.2-0.1,0.3-0.2,0.5-0.3s0.2-0.3,0.3-0.5C121.5,435.1,121.5,434.9,121.5,434.7L121.5,434.7z"/>
	<path class="st12" d="M127.9,437.5v-0.8c-0.1,0.1-0.2,0.2-0.3,0.3c-0.1,0.1-0.2,0.2-0.4,0.3c-0.1,0.1-0.3,0.2-0.4,0.2
		c-0.2,0.1-0.3,0.1-0.6,0.1c-0.6,0-1.1-0.2-1.4-0.6c-0.3-0.4-0.5-0.9-0.5-1.6v-3.7h1.6v3.2c0,0.4,0.1,0.7,0.3,0.9
		c0.2,0.2,0.4,0.3,0.7,0.3c0.3,0,0.6-0.1,0.7-0.3c0.2-0.2,0.3-0.5,0.3-0.9v-3.2h1.6v5.7H127.9z"/>
	<path class="st12" d="M134.6,437.5v-3.2c0-0.4-0.1-0.7-0.3-0.9c-0.2-0.2-0.4-0.3-0.7-0.3s-0.6,0.1-0.7,0.3
		c-0.2,0.2-0.3,0.5-0.3,0.9v3.2H131v-5.7h1.6v0.8c0.1-0.1,0.2-0.2,0.3-0.4c0.1-0.1,0.2-0.2,0.4-0.3s0.3-0.2,0.4-0.2
		c0.2,0,0.3-0.1,0.6-0.1c0.6,0,1.1,0.2,1.4,0.6c0.3,0.4,0.5,0.9,0.5,1.6v3.7H134.6z"/>
	<path class="st12" d="M140.3,437.5c-0.2,0.1-0.4,0.1-0.7,0.1c-0.2,0-0.5,0-0.7-0.1c-0.2-0.1-0.4-0.1-0.5-0.3
		c-0.1-0.1-0.3-0.3-0.3-0.5s-0.1-0.5-0.1-0.8v-2.7h-0.7v-1.4h0.7v-1.5h1.6v1.5h1.3v1.4h-1.3v2.4c0,0.4,0.2,0.6,0.5,0.6
		c0.3,0,0.6-0.1,0.8-0.2v1.3C140.7,437.4,140.5,437.5,140.3,437.5z"/>
	<path class="st12" d="M151,435.8c-0.2,0.4-0.4,0.7-0.7,0.9c-0.3,0.3-0.6,0.5-1,0.6c-0.4,0.2-0.8,0.2-1.2,0.2
		c-0.4,0-0.9-0.1-1.2-0.2s-0.7-0.4-1-0.6s-0.5-0.6-0.6-0.9s-0.2-0.7-0.2-1.2v0c0-0.4,0.1-0.8,0.2-1.2c0.2-0.4,0.4-0.7,0.7-0.9
		c0.3-0.3,0.6-0.5,1-0.6s0.8-0.2,1.2-0.2c0.4,0,0.9,0.1,1.2,0.2c0.4,0.2,0.7,0.4,1,0.6c0.3,0.3,0.5,0.6,0.6,0.9
		c0.2,0.4,0.2,0.7,0.2,1.2v0C151.2,435.1,151.1,435.5,151,435.8z M149.6,434.7c0-0.2,0-0.4-0.1-0.6c-0.1-0.2-0.2-0.4-0.3-0.5
		c-0.1-0.1-0.3-0.3-0.5-0.3c-0.2-0.1-0.4-0.1-0.6-0.1c-0.2,0-0.4,0-0.6,0.1c-0.2,0.1-0.3,0.2-0.5,0.3s-0.2,0.3-0.3,0.5
		c-0.1,0.2-0.1,0.4-0.1,0.6v0c0,0.2,0,0.4,0.1,0.6c0.1,0.2,0.2,0.4,0.3,0.5c0.1,0.1,0.3,0.3,0.5,0.3c0.2,0.1,0.4,0.1,0.6,0.1
		c0.2,0,0.4,0,0.6-0.1c0.2-0.1,0.3-0.2,0.5-0.3s0.2-0.3,0.3-0.5C149.6,435.1,149.6,434.9,149.6,434.7L149.6,434.7z"/>
	<path class="st12" d="M156,437.5v-3.2c0-0.4-0.1-0.7-0.3-0.9c-0.2-0.2-0.4-0.3-0.7-0.3s-0.6,0.1-0.7,0.3c-0.2,0.2-0.3,0.5-0.3,0.9
		v3.2h-1.6v-5.7h1.6v0.8c0.1-0.1,0.2-0.2,0.3-0.4c0.1-0.1,0.2-0.2,0.4-0.3s0.3-0.2,0.4-0.2c0.2,0,0.3-0.1,0.6-0.1
		c0.6,0,1.1,0.2,1.4,0.6c0.3,0.4,0.5,0.9,0.5,1.6v3.7H156z"/>
	<path class="st12" d="M169.4,437.5v-3.2c0-0.4-0.1-0.7-0.2-0.9s-0.4-0.3-0.7-0.3c-0.3,0-0.5,0.1-0.7,0.3s-0.3,0.5-0.3,0.9v3.2h-1.6
		v-3.2c0-0.4-0.1-0.7-0.2-0.9s-0.4-0.3-0.7-0.3s-0.5,0.1-0.7,0.3c-0.2,0.2-0.3,0.5-0.3,0.9v3.2h-1.6v-5.7h1.6v0.8
		c0.1-0.1,0.2-0.2,0.3-0.4c0.1-0.1,0.2-0.2,0.4-0.3s0.3-0.2,0.5-0.2c0.2,0,0.4-0.1,0.6-0.1c0.4,0,0.7,0.1,1,0.2
		c0.3,0.2,0.5,0.4,0.6,0.7c0.2-0.3,0.5-0.5,0.8-0.7s0.7-0.2,1-0.2c0.6,0,1.1,0.2,1.4,0.5s0.5,0.9,0.5,1.6v3.7H169.4z"/>
	<path class="st12" d="M175.7,437.7c-0.1,0.3-0.2,0.5-0.3,0.7c-0.1,0.2-0.3,0.4-0.4,0.5c-0.1,0.1-0.3,0.2-0.5,0.3
		c-0.2,0.1-0.4,0.1-0.6,0.1c-0.3,0-0.6,0-0.8-0.1c-0.2-0.1-0.4-0.2-0.7-0.3l0.5-1.2c0.1,0.1,0.2,0.1,0.3,0.2c0.1,0,0.2,0.1,0.3,0.1
		c0.1,0,0.3,0,0.3-0.1s0.2-0.2,0.2-0.3l-2.2-5.8h1.7l1.3,3.9l1.3-3.9h1.7L175.7,437.7z"/>
	<path class="st12" d="M187.6,437.3c-0.5,0.2-1.1,0.3-1.8,0.3c-0.6,0-1.1-0.1-1.6-0.3s-0.9-0.5-1.2-0.8c-0.3-0.3-0.6-0.7-0.8-1.2
		c-0.2-0.5-0.3-1-0.3-1.5v0c0-0.5,0.1-1,0.3-1.5c0.2-0.5,0.5-0.9,0.8-1.2c0.3-0.4,0.8-0.6,1.2-0.8s1-0.3,1.6-0.3
		c0.3,0,0.6,0,0.9,0.1c0.3,0,0.5,0.1,0.8,0.2c0.2,0.1,0.5,0.2,0.7,0.3c0.2,0.1,0.4,0.3,0.6,0.4l-1,1.3c-0.1-0.1-0.3-0.2-0.4-0.3
		s-0.3-0.2-0.4-0.2s-0.3-0.1-0.5-0.1c-0.2,0-0.4-0.1-0.6-0.1c-0.3,0-0.6,0.1-0.8,0.2s-0.5,0.3-0.7,0.5s-0.3,0.5-0.5,0.7
		s-0.2,0.6-0.2,0.9v0c0,0.3,0.1,0.7,0.2,0.9c0.1,0.3,0.3,0.5,0.5,0.8c0.2,0.2,0.4,0.4,0.7,0.5c0.3,0.1,0.6,0.2,0.9,0.2
		c0.6,0,1.1-0.2,1.6-0.5v-1.1h-1.7v-1.4h3.3v3.3C188.6,436.8,188.2,437.1,187.6,437.3z"/>
	<path class="st12" d="M193.8,433.4c-0.5,0-1,0.2-1.3,0.5s-0.5,0.8-0.5,1.5v2.1h-1.6v-5.7h1.6v1.2c0.2-0.4,0.4-0.7,0.7-0.9
		c0.3-0.2,0.7-0.3,1.2-0.3L193.8,433.4L193.8,433.4z"/>
	<path class="st12" d="M200.6,435.8c-0.2,0.4-0.4,0.7-0.7,0.9c-0.3,0.3-0.6,0.5-1,0.6c-0.4,0.2-0.8,0.2-1.2,0.2
		c-0.4,0-0.9-0.1-1.2-0.2s-0.7-0.4-1-0.6s-0.5-0.6-0.6-0.9s-0.2-0.7-0.2-1.2v0c0-0.4,0.1-0.8,0.2-1.2c0.2-0.4,0.4-0.7,0.7-0.9
		c0.3-0.3,0.6-0.5,1-0.6s0.8-0.2,1.2-0.2c0.4,0,0.9,0.1,1.2,0.2c0.4,0.2,0.7,0.4,1,0.6c0.3,0.3,0.5,0.6,0.6,0.9
		c0.2,0.4,0.2,0.7,0.2,1.2v0C200.8,435.1,200.7,435.5,200.6,435.8z M199.2,434.7c0-0.2,0-0.4-0.1-0.6c-0.1-0.2-0.2-0.4-0.3-0.5
		c-0.1-0.1-0.3-0.3-0.5-0.3c-0.2-0.1-0.4-0.1-0.6-0.1c-0.2,0-0.4,0-0.6,0.1c-0.2,0.1-0.3,0.2-0.5,0.3s-0.2,0.3-0.3,0.5
		c-0.1,0.2-0.1,0.4-0.1,0.6v0c0,0.2,0,0.4,0.1,0.6c0.1,0.2,0.2,0.4,0.3,0.5c0.1,0.1,0.3,0.3,0.5,0.3c0.2,0.1,0.4,0.1,0.6,0.1
		c0.2,0,0.4,0,0.6-0.1c0.2-0.1,0.3-0.2,0.5-0.3s0.2-0.3,0.3-0.5C199.2,435.1,199.2,434.9,199.2,434.7L199.2,434.7z"/>
	<path class="st12" d="M206.1,437.4c-0.4,0.2-0.8,0.3-1.4,0.3c-0.4,0-0.8-0.1-1.2-0.2c-0.4-0.2-0.7-0.4-0.9-0.6
		c-0.3-0.3-0.5-0.6-0.6-0.9s-0.2-0.7-0.2-1.1v0c0-0.4,0.1-0.8,0.2-1.2c0.1-0.4,0.4-0.7,0.6-1c0.3-0.3,0.6-0.5,0.9-0.6
		s0.8-0.2,1.2-0.2c0.5,0,1,0.1,1.3,0.3s0.7,0.4,0.9,0.7l-1,1.1c-0.2-0.2-0.4-0.3-0.6-0.5c-0.2-0.1-0.4-0.2-0.7-0.2
		c-0.2,0-0.4,0-0.6,0.1s-0.3,0.2-0.4,0.3c-0.1,0.1-0.2,0.3-0.3,0.5c-0.1,0.2-0.1,0.4-0.1,0.6v0c0,0.2,0,0.4,0.1,0.6
		c0.1,0.2,0.2,0.4,0.3,0.5s0.3,0.3,0.5,0.3s0.4,0.1,0.6,0.1c0.3,0,0.5-0.1,0.7-0.2c0.2-0.1,0.4-0.3,0.6-0.4l1,1
		C206.8,436.9,206.5,437.2,206.1,437.4z"/>
	<path class="st12" d="M213.4,435c0,0.1,0,0.1,0,0.2h-4c0.1,0.4,0.2,0.7,0.5,0.8c0.2,0.2,0.6,0.3,0.9,0.3c0.3,0,0.5,0,0.7-0.1
		s0.4-0.2,0.7-0.4l0.9,0.8c-0.3,0.3-0.6,0.6-1,0.8c-0.4,0.2-0.8,0.3-1.4,0.3c-0.4,0-0.8-0.1-1.2-0.2s-0.7-0.3-1-0.6
		c-0.3-0.3-0.5-0.6-0.6-0.9s-0.2-0.8-0.2-1.2v0c0-0.4,0.1-0.8,0.2-1.2c0.1-0.4,0.3-0.7,0.6-1c0.2-0.3,0.5-0.5,0.9-0.6
		s0.7-0.2,1.1-0.2c0.5,0,0.9,0.1,1.2,0.3c0.3,0.2,0.6,0.4,0.9,0.7c0.2,0.3,0.4,0.6,0.5,1c0.1,0.4,0.2,0.8,0.2,1.2v0
		C213.5,434.9,213.5,435,213.4,435z M211.5,433.3c-0.2-0.2-0.5-0.3-0.8-0.3s-0.6,0.1-0.8,0.3c-0.2,0.2-0.3,0.5-0.4,0.9h2.4
		C211.8,433.9,211.7,433.6,211.5,433.3z"/>
	<path class="st12" d="M218,433.4c-0.5,0-1,0.2-1.3,0.5s-0.5,0.8-0.5,1.5v2.1h-1.6v-5.7h1.6v1.2c0.2-0.4,0.4-0.7,0.7-0.9
		c0.3-0.2,0.7-0.3,1.2-0.3L218,433.4L218,433.4z"/>
	<path class="st12" d="M222.4,437.7c-0.1,0.3-0.2,0.5-0.3,0.7c-0.1,0.2-0.3,0.4-0.4,0.5c-0.1,0.1-0.3,0.2-0.5,0.3
		c-0.2,0.1-0.4,0.1-0.6,0.1c-0.3,0-0.6,0-0.8-0.1c-0.2-0.1-0.4-0.2-0.7-0.3l0.5-1.2c0.1,0.1,0.2,0.1,0.3,0.2c0.1,0,0.2,0.1,0.3,0.1
		c0.1,0,0.3,0,0.3-0.1s0.2-0.2,0.2-0.3l-2.2-5.8h1.7l1.3,3.9l1.3-3.9h1.7L222.4,437.7z"/>
</g>
<text transform="matrix(1 0 0 1 149.9546 646.5723)" class="st12 st343 st344">Great, leaving home for the shop</text>
<text transform="matrix(1 0 0 1 149.1699 505.18)" class="st12 st343 st345">Cool, How did I get This offer</text>
</svg>
