<?xml version="1.0" encoding="utf-8"?>
<!-- Generator: Adobe Illustrator 26.0.1, SVG Export Plug-In . SVG Version: 6.00 Build 0)  -->
<svg version="1.1" id="Layer_1" xmlns="http://www.w3.org/2000/svg" xmlns:xlink="http://www.w3.org/1999/xlink" x="0px" y="0px"
	 viewBox="0 0 674 567" style="enable-background:new 0 0 674 567;" xml:space="preserve">
<style type="text/css">
	.st0{fill:#FFFFFF;}
	.st1{fill:none;stroke:#777777;stroke-width:0.75;stroke-miterlimit:10;}
	.st2{fill:#777777;}
	.st3{fill:#F4F4F4;}
	.st4{fill:none;stroke:#777777;stroke-width:0.6;stroke-miterlimit:10;}
	.st5{clip-path:url(#SVGID_00000065782091642070331350000004413317544909947015_);}
	.st6{fill:#D8D8D8;}
	.st7{fill:#E8E8E8;}
	.st8{fill:url(#SVGID_00000044156636217398867310000017129868538477126547_);}
	.st9{fill:url(#SVGID_00000153664575990073043840000005043189482290003114_);}
	.st10{fill:url(#SVGID_00000081611261463205015710000007727406246811960706_);}
	.st11{fill:url(#SVGID_00000068651477647792453160000004454938845072936359_);}
	.st12{fill:url(#SVGID_00000005250375807798881420000009414982992262426027_);}
	.st13{fill:url(#SVGID_00000168798350036597538050000011221874501512847038_);}
	.st14{fill:url(#SVGID_00000079443821338641831440000016363621583609964465_);}
	.st15{fill:url(#SVGID_00000058559079461902006410000002281621185335141046_);}
	.st16{fill:url(#SVGID_00000183968124183602423580000013697109482371048337_);}
	.st17{fill:url(#SVGID_00000078756035932573297610000018103748884769735325_);}
</style>
<path class="st0" d="M639.3,547l-605.19,1.42c-13.55,0.07-24.6-10.86-24.67-24.41c0,0,0-0.01,0-0.01V75
	c0-13.53,11.89-27.58,25.56-27.58h604.3c14.2,0.08,30.46,16.2,25,28.92L663.62,524C663.62,537.49,652.92,547,639.3,547z"/>
<path class="st1" d="M144,98.23h284.5c5.56,0,10.06,3.69,10.06,8.23v6c0,4.55-4.5,8.23-10.06,8.23H144c-5.55,0-10-3.68-10-8.23v-6
	C134,101.92,138.49,98.23,144,98.23z"/>
<path class="st0" d="M509.12,34.6l-17.65,3.45h-347.2c-5.2-0.02-9.4-4.24-9.38-9.44c0,0,0-0.01,0-0.01c0-0.17,0-0.35,0-0.52
	c0.44-5.04,4.71-8.88,9.77-8.79h346.8l17.65,3.47l0.76,0.14l17.76,3.47c1.27,0.27,2.08,1.51,1.82,2.78
	c-0.19,0.91-0.9,1.63-1.82,1.82l-17.76,3.48L509.12,34.6z"/>
<path class="st2" d="M491.57,39.05h-347.3c-5.75-0.02-10.4-4.7-10.38-10.45c-0.01-0.19-0.01-0.39,0-0.58
	c0.48-5.57,5.19-9.82,10.78-9.73h346.9l36.26,7.1c0.89,0.15,1.67,0.66,2.17,1.41c1.05,1.51,0.68,3.6-0.83,4.65
	c-0.4,0.28-0.86,0.47-1.34,0.55L491.57,39.05z M144.51,20.29c-4.47,0.01-8.2,3.42-8.61,7.87c0,0.13,0,0.29,0,0.45
	c-0.01,4.64,3.74,8.42,8.38,8.44h347.1L527.44,30c0.73-0.15,1.21-0.86,1.06-1.59c-0.03-0.17-0.1-0.34-0.2-0.48
	c-0.2-0.3-0.51-0.5-0.86-0.57l-36.07-7.06H144.51V20.29z"/>
<path class="st2" d="M639.81,548.71H34.18C19.74,548.69,8.03,536.99,8,522.55V73.48c0.03-14.44,11.74-26.14,26.18-26.16h605.63
	c14.44,0.02,26.15,11.72,26.19,26.16v449.07C665.96,536.99,654.25,548.69,639.81,548.71z M9.46,73.48v449.07
	c0.03,13.64,11.08,24.7,24.72,24.73h605.63c13.64-0.04,24.69-11.09,24.73-24.73V73.48c-0.04-13.64-11.09-24.69-24.73-24.72H34.18
	C20.54,48.79,9.49,59.84,9.46,73.48z M639.81,530.54H34.18c-4.42,0-8-3.58-8-8V73.48c0-4.42,3.58-8,8-8h605.63c4.42,0,8,3.58,8,8
	v449.07C647.8,526.96,644.22,530.54,639.81,530.54z M34.18,66.93c-3.61,0.02-6.52,2.94-6.53,6.55v449.07c0,3.61,2.92,6.54,6.53,6.55
	h605.63c3.61-0.01,6.54-2.94,6.55-6.55V73.48c-0.02-3.61-2.94-6.53-6.55-6.55H34.18z"/>
<path class="st2" d="M639.81,548.75L71.4,549H35.87c-12.06,0.78-23.92-7.48-27-19.22C7.24,525,7.94,517,7.8,512
	c-0.13-95.14,0.24-242,0.08-337.49c0.1-12.29-0.11-77.72,0-88.82c0.19-4.55-0.47-13.12,0.59-17.76c2.7-12.07,13.35-20.7,25.72-20.82
	L602.6,47h35.53c13-0.81,25.34,8.59,27.69,21.47c0.76,3.75,0.46,11.61,0.5,15.58c-0.08,130.8-0.19,295.61-0.28,426.31
	c-0.19,4.54,0.46,13.12-0.61,17.73c-2.69,12.01-13.31,20.59-25.62,20.69V548.75z M639.81,548.68c12.28-0.12,22.86-8.69,25.51-20.68
	c1.09-4.74,0.41-12.74,0.59-17.71c0-130.67-0.25-295.54-0.28-426.31c-0.15-3.11,0.33-12.12-0.49-15.45
	c-2.58-12.69-14.06-21.59-27-20.91H602.6L34.19,47.53C22,47.62,11.48,56.11,8.81,68c-0.52,2.9-0.72,5.85-0.6,8.8
	c0.14,17.49-0.14,79.06,0,97.7C8.41,270.24,8,416.68,8.25,512c0.16,4.46-0.52,13.12,1,17.6c3.42,11.7,14.43,19.5,26.6,18.85H71.4
	L639.81,548.68L639.81,548.68z"/>
<path class="st2" d="M9.5,73.48c0.08,104.07,0.18,340.88,0.27,442.31v6.63l0.11,2.18c1.27,14,13.48,23.51,27.39,22.38
	c174.58-0.12,423.55,0.38,597.12,0.11c2.94,0.09,5.87,0,8.8-0.27c5.86-0.81,11.22-3.72,15.09-8.2c3.87-4.46,6.01-10.16,6.05-16.07
	l-0.11-283.08c0.1-18.95,0-152.12-0.12-168c-0.86-11.78-11.11-21.87-23-22.27c-165-0.06-410.83-0.24-575-0.33H48.45
	c-4.13,0.16-13.33-0.3-17.67,0.26C18.7,50.6,9.43,61.52,9.5,73.48z M9.5,73.48C9.19,61.5,18.88,50.39,30.77,49
	c4.77-0.53,12.72-0.16,17.68-0.27h17.7c163.86-0.19,410.28-0.3,575-0.19c12.15,0.44,22.74,10.76,23.59,22.88
	c0.39,15-0.06,149.76,0.1,168.1l-0.11,283.08c-0.04,6.01-2.23,11.8-6.17,16.33c-6.58,7.53-14.66,9-24.19,8.59
	c-173.23,0-422.87-0.1-597.12,0.11c-14.14,1.09-26.71-8.46-28-22.92c-0.15-2.32-0.09-6.48-0.1-8.87
	C9.27,415.44,9.24,176.42,9.5,73.53L9.5,73.48z"/>
<path class="st2" d="M639.81,530.57c-35.06,0.07-578.5,0.24-598.93,0.21h-6.32c-4.57,0.15-8.41-3.43-8.57-8c0-0.46,0-5.53,0-6.33
	V499.6c0.19-130.84,0-291.26,0-421.78V73.6c-0.03-4.55,3.63-8.27,8.18-8.32c35.06-0.07,578.49-0.1,598.92-0.13h6.33
	c0.73-0.02,1.46,0.05,2.17,0.2c2.93,0.67,5.27,2.84,6.16,5.71c0.67,2.11,0.26,6.21,0.37,8.5c-0.06,117.62-0.21,270.43-0.27,388
	c-0.19,10.48,0.11,40.3,0,50.61v4.22c0.02,4.45-3.55,8.09-8,8.14L639.81,530.57z M639.81,530.5c4.42-0.03,7.97-3.64,7.94-8.06
	c0,0,0-0.01,0-0.01v-4.22c-0.14-10.28,0.06-39.84,0-50.61c-0.06-117.61-0.21-270.43-0.27-388v-4.26c0.1-1.37-0.01-2.75-0.33-4.08
	c-0.81-2.65-2.99-4.66-5.69-5.26c-2.78-0.21-5.57-0.27-8.35-0.19C614.78,66,67.23,65.6,34.19,65.7c-2.81,0.02-5.39,1.55-6.77,4
	c-1.46,2.41-0.89,5.37-1,8.15c-0.18,130.41,0,291.05,0,421.78v21.09c-0.1,1.38,0.02,2.77,0.34,4.12c0.83,2.67,3.01,4.69,5.73,5.31
	c1.37,0.2,2.76,0.26,4.15,0.18h4.22c18.22-0.24,566,0.31,598.93,0.2L639.81,530.5z"/>
<path class="st2" d="M34.18,67c-2.85,0.04-5.35,1.92-6.18,4.65c-0.27,1.37-0.36,2.77-0.26,4.16v21c0,123.46,0.24,279.49,0.26,403.22
	v21c0,0.69,0,1.42,0,2.07c0.36,3.51,3.49,6.06,7,5.7c26.41-0.09,564.06,0.18,604.82,0.09c2.8-0.02,5.27-1.87,6.07-4.56
	c0.27-1.35,0.36-2.73,0.26-4.11V516c0-30,0-87-0.06-117.6c-0.3-90.52,0.13-229.06-0.06-319.22V75c0.13-1.36-0.05-2.72-0.52-4
	c-1.15-2.51-3.77-4.01-6.51-3.73C612.6,67.47,75,66.88,34.18,67z M34.18,66.93c43.46,0.18,575.55-0.51,604.83-0.3
	c3.01-0.27,5.86,1.4,7.11,4.15c0.5,1.36,0.7,2.81,0.57,4.25v4.2c0.16,90-0.14,228.87-0.06,319.22c-0.06,30.68,0,87.35-0.06,117.6
	v6.3c0.09,3.78-2.9,6.91-6.68,7c-0.03,0-0.05,0-0.08,0c-43.38-0.18-575.6,0.18-604.83,0.09c-3,0.27-5.83-1.39-7.07-4.13
	c-0.5-1.35-0.69-2.8-0.57-4.24V500c0.17-123.82,0.12-279.67,0.26-403.22v-21c-0.09-1.4,0-2.81,0.28-4.19
	c0.83-2.79,3.39-4.71,6.3-4.72L34.18,66.93z"/>
<path class="st3" d="M653.16,297.35v-29c0-1.9-0.23-4.12,2.62-4c2.51,0.14,2.21,2.26,2.21,4v58.78c0,2.05,0.08,4.63-2.62,4.51
	c-2.25-0.11-2.23-2.57-2.23-4.51C653.16,317.22,653.17,307.29,653.16,297.35z"/>
<path class="st2" d="M653.12,297.35c0-8.45-0.21-17.8-0.27-26.29c0-1.48,0-2.9,0-4.41c-0.02-0.83,0.35-1.62,1-2.14
	c1.08-0.61,2.42-0.58,3.47,0.09c1,0.78,0.9,2.21,0.88,3.28v4.38l-0.08,8.77c-0.12,15.17,0.43,33,0.17,48.24
	c-0.04,0.83-0.4,1.61-1,2.18c-1.05,0.8-2.51,0.76-3.52-0.09c-0.74-0.94-1.1-2.13-1-3.33c0-1.48,0-2.93,0-4.39l0.11-8.77
	c0.1-5.84,0.18-11.68,0.2-17.52L653.12,297.35z M653.19,297.35c0,8.44,0.21,17.79,0.28,26.29c0.08,1.29-0.16,5.2,0.31,6.42
	c0.44,1.02,1.61,1.49,2.63,1.05c0.13-0.06,0.26-0.13,0.37-0.21c0.44-0.47,0.7-1.08,0.73-1.73c0.17-15.14,0.31-33,0.32-48.14
	l-0.07-8.77v-4.38c0-1.32,0-3-1.62-3.17c-0.65-0.12-1.32-0.02-1.9,0.29c-0.5,0.42-0.77,1.05-0.74,1.7c0,1.41,0,2.91,0,4.36
	c-0.05,8.51-0.26,17.83-0.27,26.29L653.19,297.35z"/>
<circle class="st3" cx="658.51" cy="298.01" r="1.95"/>
<path class="st2" d="M658.51,296c3.15,0,2.78,3.74,0,4.14c-1.14,0.11-2.16-0.72-2.27-1.87c-0.11-1.14,0.72-2.16,1.87-2.27
	C658.24,295.99,658.37,295.99,658.51,296z M658.51,296.07c-2.06,0.16-2.11,3.45,0,3.68C660.88,300.03,660.57,296.14,658.51,296.07z"
	/>
<path class="st3" d="M100.23,98.03h16.98c2.2,0,3.99,1.79,3.99,3.99V119c0,2.2-1.79,3.99-3.99,3.99h-16.98
	c-2.2,0-3.99-1.79-3.99-3.99v-16.98C96.24,99.82,98.03,98.03,100.23,98.03z"/>
<path class="st1" d="M510,97c-5.67,0.01-10.25,4.6-10.25,10.27c0,1.79,0.47,3.55,1.37,5.11l-1.37,5.14l5.14-1.38
	c4.91,2.82,11.17,1.12,13.99-3.79s1.12-11.17-3.79-13.99C513.54,97.47,511.79,97,510,97z"/>
<path class="st1" d="M475.73,107.82c2.23-1.93,2.48-5.31,0.55-7.55c-1.93-2.23-5.31-2.48-7.55-0.55s-2.48,5.31-0.55,7.55
	c0.17,0.2,0.35,0.38,0.55,0.55c-4.43,1.53-7.34,5.77-7.19,10.45h21.41c0-0.22,0-0.45,0-0.67
	C482.81,113.16,479.93,109.26,475.73,107.82z"/>
<path class="st4" d="M485.93,103.47c0.53-0.46,0.84-1.12,0.84-1.82c0.02-1.34-1.05-2.45-2.4-2.46s-2.45,1.05-2.46,2.4
	c-0.01,0.73,0.3,1.42,0.86,1.89c-2.01,0.7-3.33,2.62-3.26,4.74h9.71c0.01-0.1,0.01-0.21,0-0.31
	C489.15,105.88,487.84,104.12,485.93,103.47z"/>
<path class="st1" d="M546.75,96.59c-6.44,0-11.66,5.22-11.66,11.66s5.22,11.66,11.66,11.66s11.66-5.22,11.66-11.66c0,0,0,0,0,0
	C558.41,101.81,553.19,96.59,546.75,96.59z"/>
<g>
	<defs>
		<path id="SVGID_1_" d="M546.75,96.27c-6.44,0-11.66,5.22-11.66,11.66s5.22,11.66,11.66,11.66s11.66-5.22,11.66-11.66c0,0,0,0,0,0
			C558.41,101.49,553.19,96.27,546.75,96.27z"/>
	</defs>
	<clipPath id="SVGID_00000158714593287756232280000015815523924416434580_">
		<use xlink:href="#SVGID_1_"  style="overflow:visible;"/>
	</clipPath>
	<g style="clip-path:url(#SVGID_00000158714593287756232280000015815523924416434580_);">
		<path class="st2" d="M537.59,119.59c-0.21-5,3.68-9.23,8.68-9.44s9.23,3.68,9.44,8.68c0,0.06,0,0.13,0.01,0.19
			c0.01,0.19,0.01,0.38,0,0.57H537.59z"/>
		<circle class="st2" cx="546.65" cy="107.35" r="4.53"/>
	</g>
</g>
<path class="st0" d="M366.19,111.91c-2.91,0.01-5.27-2.35-5.28-5.26c-0.01-2.91,2.35-5.27,5.26-5.28c2.91-0.01,5.27,2.35,5.28,5.26
	c0,0,0,0.01,0,0.01l0,0C371.45,109.55,369.1,111.9,366.19,111.91z M366.19,102.34c-2.38-0.01-4.31,1.92-4.32,4.3s1.92,4.31,4.3,4.32
	s4.31-1.92,4.32-4.3c0-0.01,0-0.01,0-0.02l0,0c-0.01-2.37-1.93-4.29-4.3-4.29V102.34z"/>
<path class="st0" d="M367.85,111.21l1.57-1l0,0l3.68,5.47c0.2,0.34,0.11,0.77-0.21,1l-0.33,0.23c-0.34,0.2-0.77,0.11-1-0.21
	l-3.68-5.47L367.85,111.21z"/>
<path class="st2" d="M418,112.24c-2.44,0-4.41-1.97-4.41-4.41s1.97-4.41,4.41-4.41s4.41,1.97,4.41,4.41l0,0l0,0
	C422.4,110.26,420.43,112.23,418,112.24z M418,104.24c-1.99,0-3.61,1.62-3.61,3.61s1.62,3.61,3.61,3.61s3.61-1.62,3.61-3.61
	c0,0,0,0,0,0l0,0c-0.01-1.99-1.62-3.6-3.61-3.6V104.24z"/>
<path class="st2" d="M419.35,111.66l1.32-0.88l0,0l3.08,4.59c0.19,0.28,0.11,0.67-0.17,0.86l-0.28,0.19
	c-0.29,0.19-0.67,0.11-0.87-0.17L419.35,111.66L419.35,111.66z"/>
<path class="st3" d="M86.95,162.5h252.89c8.65,0,15.66,7.01,15.66,15.66v122.68c0,8.65-7.01,15.66-15.66,15.66H86.95
	c-8.65,0-15.66-7.01-15.66-15.66V178.16C71.29,169.51,78.3,162.5,86.95,162.5z"/>
<path class="st3" d="M86.07,333.6h252.89c8.65,0,15.66,7.01,15.66,15.66v122.68c0,8.65-7.01,15.66-15.66,15.66H86.07
	c-8.65,0-15.66-7.01-15.66-15.66V349.26C70.41,340.61,77.42,333.6,86.07,333.6z"/>
<path class="st3" d="M388.16,162.5H585.1c8.65,0,15.66,7.01,15.66,15.66v294.68c0,8.65-7.01,15.66-15.66,15.66H388.16
	c-8.65,0-15.66-7.01-15.66-15.66V178.16C372.5,169.51,379.51,162.5,388.16,162.5z"/>
<path class="st6" d="M452.89,194.5h63.22c1.87,0,3.39,1.52,3.39,3.38v0c0,1.87-1.52,3.38-3.39,3.38h-63.22
	c-1.87,0-3.39-1.52-3.39-3.38v0C449.5,196.02,451.02,194.5,452.89,194.5z"/>
<path class="st7" d="M452.89,207.5h116.22c1.87,0,3.39,1.52,3.39,3.38v0c0,1.87-1.52,3.38-3.39,3.38H452.89
	c-1.87,0-3.39-1.52-3.39-3.38v0C449.5,209.02,451.02,207.5,452.89,207.5z"/>
<linearGradient id="SVGID_00000104681841656355348060000015558141118627512240_" gradientUnits="userSpaceOnUse" x1="435.3735" y1="340.4842" x2="393.6835" y2="387.2842" gradientTransform="matrix(1 0 0 -1 0 568)">
	<stop  offset="0" style="stop-color:#00FFAF"/>
	<stop  offset="0.06" style="stop-color:#00EDAD"/>
	<stop  offset="0.32" style="stop-color:#00A6A7"/>
	<stop  offset="0.55" style="stop-color:#006EA2"/>
	<stop  offset="0.75" style="stop-color:#00469F"/>
	<stop  offset="0.91" style="stop-color:#002D9D"/>
	<stop  offset="1" style="stop-color:#00249C"/>
</linearGradient>
<path style="fill:url(#SVGID_00000104681841656355348060000015558141118627512240_);" d="M415.8,188.84c-9.22,0-16.7,7.48-16.7,16.7
	s7.48,16.7,16.7,16.7c9.22,0,16.7-7.48,16.7-16.7C432.49,196.32,425.02,188.85,415.8,188.84z M401,205.54
	c-0.02-8.2,6.62-14.85,14.81-14.87c8.2-0.02,14.85,6.62,14.87,14.81c0.01,3.48-1.21,6.84-3.43,9.52c-1.08-3.04-3.35-5.5-6.3-6.81
	c0.91-1.14,1.41-2.55,1.41-4c0.03-3.6-2.87-6.54-6.47-6.57c-3.6-0.03-6.54,2.87-6.57,6.47c-0.01,1.49,0.49,2.93,1.41,4.1
	c-3.41,1.55-5.86,4.54-6.42,6.76C402.15,212.29,400.98,208.97,401,205.54z M408,218.12l-0.73-0.48c-0.53-0.38-1.03-0.79-1.5-1.23
	c0.73-3.42,3.25-6.18,6.59-7.22l1.25-0.44l-1-0.88c-2.09-1.8-2.33-4.96-0.53-7.05c1.8-2.09,4.96-2.33,7.05-0.53s2.33,4.96,0.53,7.05
	c-0.16,0.19-0.34,0.37-0.53,0.53l-1,0.88l1.26,0.44c3.31,1.06,5.79,3.84,6.47,7.25C420.97,220.98,413.65,221.67,408,218.12z"/>
<path class="st6" d="M452.89,434.5h63.22c1.87,0,3.39,1.52,3.39,3.39v0c0,1.87-1.52,3.39-3.39,3.39h-63.22
	c-1.87,0-3.39-1.52-3.39-3.39v0C449.5,436.02,451.02,434.5,452.89,434.5z"/>
<path class="st7" d="M452.89,447.5h116.22c1.87,0,3.39,1.52,3.39,3.39v0c0,1.87-1.52,3.39-3.39,3.39H452.89
	c-1.87,0-3.39-1.52-3.39-3.39v0C449.5,449.02,451.02,447.5,452.89,447.5z"/>
<linearGradient id="SVGID_00000033341762172881935650000016323922618026019464_" gradientUnits="userSpaceOnUse" x1="435.3735" y1="100.4842" x2="393.6835" y2="147.2842" gradientTransform="matrix(1 0 0 -1 0 568)">
	<stop  offset="0" style="stop-color:#00FFAF"/>
	<stop  offset="0.06" style="stop-color:#00EDAD"/>
	<stop  offset="0.32" style="stop-color:#00A6A7"/>
	<stop  offset="0.55" style="stop-color:#006EA2"/>
	<stop  offset="0.75" style="stop-color:#00469F"/>
	<stop  offset="0.91" style="stop-color:#002D9D"/>
	<stop  offset="1" style="stop-color:#00249C"/>
</linearGradient>
<path style="fill:url(#SVGID_00000033341762172881935650000016323922618026019464_);" d="M415.8,428.84c-9.22,0-16.7,7.48-16.7,16.7
	s7.48,16.7,16.7,16.7c9.22,0,16.7-7.48,16.7-16.7C432.49,436.32,425.02,428.85,415.8,428.84z M401,445.54
	c-0.02-8.2,6.62-14.85,14.81-14.87s14.85,6.62,14.87,14.81c0.01,3.48-1.21,6.84-3.43,9.52c-1.08-3.04-3.35-5.5-6.3-6.81
	c0.91-1.14,1.41-2.55,1.41-4c0.03-3.6-2.87-6.54-6.47-6.57s-6.54,2.87-6.57,6.47c-0.01,1.49,0.49,2.93,1.41,4.1
	c-3.41,1.55-5.86,4.54-6.42,6.76C402.15,452.29,400.98,448.97,401,445.54z M408,458.12l-0.73-0.48c-0.53-0.38-1.03-0.79-1.5-1.23
	c0.73-3.42,3.25-6.18,6.59-7.22l1.25-0.44l-1-0.88c-2.09-1.8-2.33-4.96-0.53-7.05c1.8-2.09,4.96-2.33,7.05-0.53
	c2.09,1.8,2.33,4.96,0.53,7.05c-0.16,0.19-0.34,0.37-0.53,0.53l-1,0.88l1.26,0.44c3.31,1.06,5.79,3.84,6.47,7.25
	C420.97,460.98,413.65,461.67,408,458.12z"/>
<path class="st6" d="M452.89,374.5h63.22c1.87,0,3.39,1.52,3.39,3.39v0c0,1.87-1.52,3.39-3.39,3.39h-63.22
	c-1.87,0-3.39-1.52-3.39-3.39v0C449.5,376.02,451.02,374.5,452.89,374.5z"/>
<path class="st7" d="M452.89,387.5h116.22c1.87,0,3.39,1.52,3.39,3.39v0c0,1.87-1.52,3.39-3.39,3.39H452.89
	c-1.87,0-3.39-1.52-3.39-3.39v0C449.5,389.02,451.02,387.5,452.89,387.5z"/>
<linearGradient id="SVGID_00000109709227571179429000000014640081574274494635_" gradientUnits="userSpaceOnUse" x1="435.3735" y1="160.4842" x2="393.6835" y2="207.2842" gradientTransform="matrix(1 0 0 -1 0 568)">
	<stop  offset="0" style="stop-color:#00FFAF"/>
	<stop  offset="0.06" style="stop-color:#00EDAD"/>
	<stop  offset="0.32" style="stop-color:#00A6A7"/>
	<stop  offset="0.55" style="stop-color:#006EA2"/>
	<stop  offset="0.75" style="stop-color:#00469F"/>
	<stop  offset="0.91" style="stop-color:#002D9D"/>
	<stop  offset="1" style="stop-color:#00249C"/>
</linearGradient>
<path style="fill:url(#SVGID_00000109709227571179429000000014640081574274494635_);" d="M415.8,368.84c-9.22,0-16.7,7.48-16.7,16.7
	s7.48,16.7,16.7,16.7c9.22,0,16.7-7.48,16.7-16.7C432.49,376.32,425.02,368.85,415.8,368.84z M401,385.54
	c-0.02-8.2,6.62-14.85,14.81-14.87s14.85,6.62,14.87,14.81c0.01,3.48-1.21,6.84-3.43,9.52c-1.08-3.04-3.35-5.5-6.3-6.81
	c0.91-1.14,1.41-2.55,1.41-4c0.03-3.6-2.87-6.54-6.47-6.57s-6.54,2.87-6.57,6.47c-0.01,1.49,0.49,2.93,1.41,4.1
	c-3.41,1.55-5.86,4.54-6.42,6.76C402.15,392.29,400.98,388.97,401,385.54z M408,398.12l-0.73-0.48c-0.53-0.38-1.03-0.79-1.5-1.23
	c0.73-3.42,3.25-6.18,6.59-7.22l1.25-0.44l-1-0.88c-2.09-1.8-2.33-4.96-0.53-7.05c1.8-2.09,4.96-2.33,7.05-0.53
	c2.09,1.8,2.33,4.96,0.53,7.05c-0.16,0.19-0.34,0.37-0.53,0.53l-1,0.88l1.26,0.44c3.31,1.06,5.79,3.84,6.47,7.25
	C420.97,400.98,413.65,401.67,408,398.12z"/>
<path class="st6" d="M452.89,314.5h63.22c1.87,0,3.39,1.52,3.39,3.39v0c0,1.87-1.52,3.39-3.39,3.39h-63.22
	c-1.87,0-3.39-1.52-3.39-3.39v0C449.5,316.02,451.02,314.5,452.89,314.5z"/>
<path class="st7" d="M452.89,327.5h116.22c1.87,0,3.39,1.52,3.39,3.39v0c0,1.87-1.52,3.39-3.39,3.39H452.89
	c-1.87,0-3.39-1.52-3.39-3.39v0C449.5,329.02,451.02,327.5,452.89,327.5z"/>
<linearGradient id="SVGID_00000062162750913029900290000017801112022617531531_" gradientUnits="userSpaceOnUse" x1="435.3735" y1="220.4842" x2="393.6835" y2="267.2842" gradientTransform="matrix(1 0 0 -1 0 568)">
	<stop  offset="0" style="stop-color:#00FFAF"/>
	<stop  offset="0.06" style="stop-color:#00EDAD"/>
	<stop  offset="0.32" style="stop-color:#00A6A7"/>
	<stop  offset="0.55" style="stop-color:#006EA2"/>
	<stop  offset="0.75" style="stop-color:#00469F"/>
	<stop  offset="0.91" style="stop-color:#002D9D"/>
	<stop  offset="1" style="stop-color:#00249C"/>
</linearGradient>
<path style="fill:url(#SVGID_00000062162750913029900290000017801112022617531531_);" d="M415.8,308.84c-9.22,0-16.7,7.48-16.7,16.7
	s7.48,16.7,16.7,16.7c9.22,0,16.7-7.48,16.7-16.7C432.49,316.32,425.02,308.85,415.8,308.84z M401,325.54
	c-0.02-8.2,6.62-14.85,14.81-14.87s14.85,6.62,14.87,14.81c0.01,3.48-1.21,6.84-3.43,9.52c-1.08-3.04-3.35-5.5-6.3-6.81
	c0.91-1.14,1.41-2.55,1.41-4c0.03-3.6-2.87-6.54-6.47-6.57s-6.54,2.87-6.57,6.47c-0.01,1.49,0.49,2.93,1.41,4.1
	c-3.41,1.55-5.86,4.54-6.42,6.76C402.15,332.29,400.98,328.97,401,325.54z M408,338.12l-0.73-0.48c-0.53-0.38-1.03-0.79-1.5-1.23
	c0.73-3.42,3.25-6.18,6.59-7.22l1.25-0.44l-1-0.88c-2.09-1.8-2.33-4.96-0.53-7.05c1.8-2.09,4.96-2.33,7.05-0.53
	c2.09,1.8,2.33,4.96,0.53,7.05c-0.16,0.19-0.34,0.37-0.53,0.53l-1,0.88l1.26,0.44c3.31,1.06,5.79,3.84,6.47,7.25
	C420.97,340.98,413.65,341.67,408,338.12z"/>
<path class="st6" d="M452.89,253.5h63.22c1.87,0,3.39,1.52,3.39,3.39v0c0,1.87-1.52,3.39-3.39,3.39h-63.22
	c-1.87,0-3.39-1.52-3.39-3.39v0C449.5,255.02,451.02,253.5,452.89,253.5z"/>
<path class="st7" d="M452.89,266.5h116.22c1.87,0,3.39,1.52,3.39,3.39v0c0,1.87-1.52,3.39-3.39,3.39H452.89
	c-1.87,0-3.39-1.52-3.39-3.39v0C449.5,268.02,451.02,266.5,452.89,266.5z"/>
<linearGradient id="SVGID_00000141423971269698813460000014580438252440185014_" gradientUnits="userSpaceOnUse" x1="435.3735" y1="281.4842" x2="393.6835" y2="328.2842" gradientTransform="matrix(1 0 0 -1 0 568)">
	<stop  offset="0" style="stop-color:#00FFAF"/>
	<stop  offset="0.06" style="stop-color:#00EDAD"/>
	<stop  offset="0.32" style="stop-color:#00A6A7"/>
	<stop  offset="0.55" style="stop-color:#006EA2"/>
	<stop  offset="0.75" style="stop-color:#00469F"/>
	<stop  offset="0.91" style="stop-color:#002D9D"/>
	<stop  offset="1" style="stop-color:#00249C"/>
</linearGradient>
<path style="fill:url(#SVGID_00000141423971269698813460000014580438252440185014_);" d="M415.8,247.84c-9.22,0-16.7,7.48-16.7,16.7
	c0,9.22,7.48,16.7,16.7,16.7c9.22,0,16.7-7.48,16.7-16.7C432.49,255.32,425.02,247.85,415.8,247.84z M401,264.54
	c-0.02-8.2,6.62-14.85,14.81-14.87s14.85,6.62,14.87,14.81c0.01,3.48-1.21,6.84-3.43,9.52c-1.08-3.04-3.35-5.5-6.3-6.81
	c0.91-1.14,1.41-2.55,1.41-4c0.03-3.6-2.87-6.54-6.47-6.57s-6.54,2.87-6.57,6.47c-0.01,1.49,0.49,2.93,1.41,4.1
	c-3.41,1.55-5.86,4.54-6.42,6.76C402.15,271.29,400.98,267.97,401,264.54z M408,277.12l-0.73-0.48c-0.53-0.38-1.03-0.79-1.5-1.23
	c0.73-3.42,3.25-6.18,6.59-7.22l1.25-0.44l-1-0.88c-2.09-1.8-2.33-4.96-0.53-7.05c1.8-2.09,4.96-2.33,7.05-0.53
	c2.09,1.8,2.33,4.96,0.53,7.05c-0.16,0.19-0.34,0.37-0.53,0.53l-1,0.88l1.26,0.44c3.31,1.06,5.79,3.84,6.47,7.25
	C420.97,279.98,413.65,280.67,408,277.12z"/>
<g>
	
		<linearGradient id="SVGID_00000011748895294675921870000005303975600871337395_" gradientUnits="userSpaceOnUse" x1="270.7906" y1="92.1643" x2="109.1345" y2="222.865" gradientTransform="matrix(1 0 0 -1 0 568)">
		<stop  offset="0" style="stop-color:#00FFAF"/>
		<stop  offset="0.06" style="stop-color:#00EDAD"/>
		<stop  offset="0.32" style="stop-color:#00A6A7"/>
		<stop  offset="0.55" style="stop-color:#006EA2"/>
		<stop  offset="0.75" style="stop-color:#00469F"/>
		<stop  offset="0.91" style="stop-color:#002D9D"/>
		<stop  offset="1" style="stop-color:#00249C"/>
	</linearGradient>
	<path style="fill:url(#SVGID_00000011748895294675921870000005303975600871337395_);" d="M200.64,463.78
		c-2.08-0.36-4.18-0.63-6.25-1.08c-8.8-1.9-16.52-5.9-23.12-12.02c-8.92-8.26-14.2-18.47-15.67-30.5
		c-1.81-14.78,2.25-27.88,12.12-39.07c7.97-9.03,17.93-14.53,29.87-16.35c0.79-0.12,1.58-0.24,2.38-0.3
		c2.05-0.17,3.39,0.96,3.59,2.99c0.13,1.31,0.19,2.63,0.19,3.95c0,13.16,0.04,26.32,0,39.47c-0.01,2.51,0.68,4.71,2.02,6.78
		c7.63,11.83,15.25,23.66,22.87,35.5c0.45,0.71,0.85,1.45,1.34,2.13c0.59,0.81,0.4,1.29-0.42,1.82c-4.78,3.07-9.96,5.07-15.56,6.01
		c-1.49,0.25-2.99,0.45-4.49,0.68C206.56,463.78,203.6,463.78,200.64,463.78z M200.36,390.61c0-2.64,0-5.28,0-7.92
		c0-4.52-0.01-9.04,0.01-13.56c0-0.93-0.19-1.48-1.28-1.26c-0.94,0.19-1.9,0.26-2.84,0.45c-15.08,3.11-26.13,11.61-33.12,25.24
		c-4.59,8.96-5.85,18.55-3.97,28.46c2.77,14.67,10.68,25.76,23.79,32.95c7.71,4.23,16.04,5.95,24.84,5.44
		c6.03-0.35,11.77-1.68,17.14-4.49c0.88-0.46,1.03-0.81,0.46-1.69c-7.51-11.61-14.98-23.26-22.48-34.88
		c-1.7-2.63-2.57-5.46-2.55-8.6C200.38,404.04,200.36,397.33,200.36,390.61z"/>
	
		<linearGradient id="SVGID_00000092416306026021845790000010922740650291739069_" gradientUnits="userSpaceOnUse" x1="287.1662" y1="112.4184" x2="125.5102" y2="243.1189" gradientTransform="matrix(1 0 0 -1 0 568)">
		<stop  offset="0" style="stop-color:#00FFAF"/>
		<stop  offset="0.06" style="stop-color:#00EDAD"/>
		<stop  offset="0.32" style="stop-color:#00A6A7"/>
		<stop  offset="0.55" style="stop-color:#006EA2"/>
		<stop  offset="0.75" style="stop-color:#00469F"/>
		<stop  offset="0.91" style="stop-color:#002D9D"/>
		<stop  offset="1" style="stop-color:#00249C"/>
	</linearGradient>
	<path style="fill:url(#SVGID_00000092416306026021845790000010922740650291739069_);" d="M263.28,416.26
		c-0.32,2.25-0.3,4.53-0.64,6.78c-1.85,12-6.81,22.41-15.7,30.81c-1.89,1.79-4,3.3-6.16,4.76c-0.82,0.55-1.25,0.5-1.79-0.36
		c-4.37-6.84-8.79-13.64-13.18-20.47c-4-6.22-7.98-12.45-12.02-18.65c-0.61-0.93-0.45-1.39,0.4-2.03
		c13.03-9.75,26.04-19.51,39.02-29.31c0.96-0.73,1.39-0.55,2.03,0.36c4.03,5.7,6.29,12.08,7.39,18.93c0.36,2.25,0.36,4.53,0.66,6.78
		C263.28,414.66,263.28,415.46,263.28,416.26z M259.88,415.15c0.03-2.33-0.2-4.64-0.5-6.93c-0.73-5.45-2.35-10.6-5.11-15.37
		c-0.4-0.69-0.69-1.16-1.61-0.47c-11.44,8.6-22.91,17.16-34.38,25.71c-0.67,0.5-0.75,0.91-0.31,1.58c1.05,1.56,2.06,3.14,3.08,4.72
		c6.32,9.76,12.65,19.52,18.95,29.31c0.54,0.84,0.93,0.83,1.66,0.25c2.55-2.01,4.91-4.22,6.97-6.74
		C256.23,437.87,259.62,427.06,259.88,415.15z"/>
	
		<linearGradient id="SVGID_00000057142927377928834200000015056698663190098594_" gradientUnits="userSpaceOnUse" x1="295.8453" y1="123.1529" x2="134.1892" y2="253.8536" gradientTransform="matrix(1 0 0 -1 0 568)">
		<stop  offset="0" style="stop-color:#00FFAF"/>
		<stop  offset="0.06" style="stop-color:#00EDAD"/>
		<stop  offset="0.32" style="stop-color:#00A6A7"/>
		<stop  offset="0.55" style="stop-color:#006EA2"/>
		<stop  offset="0.75" style="stop-color:#00469F"/>
		<stop  offset="0.91" style="stop-color:#002D9D"/>
		<stop  offset="1" style="stop-color:#00249C"/>
	</linearGradient>
	<path style="fill:url(#SVGID_00000057142927377928834200000015056698663190098594_);" d="M214.32,356.5
		c1.68,0.36,3.42,0.26,5.09,0.68c11.68,2.93,21.75,8.53,29.63,17.79c0.67,0.79,1.15,1.73,1.76,2.57c0.71,0.97,0.54,1.58-0.46,2.32
		c-6.66,4.91-13.27,9.9-19.9,14.86c-6.22,4.64-12.44,9.27-18.68,13.89c-0.33,0.25-0.67,0.76-1.11,0.56
		c-0.37-0.18-0.15-0.73-0.21-1.11c-0.29-1.71-0.21-3.43-0.21-5.15c0-14.28,0-28.56,0-42.84c0-2.3,0.3-2.73,2.42-3.56
		C213.2,356.5,213.76,356.5,214.32,356.5z M213.38,381.55c0,6.76,0,13.52,0.01,20.28c0,0.38-0.21,0.91,0.2,1.1
		c0.39,0.18,0.7-0.28,1.01-0.52c9.85-7.39,19.71-14.78,29.55-22.19c0.97-0.73,2.62-1.25,2.65-2.35c0.03-1.13-1.38-2.04-2.26-2.97
		c-5.21-5.5-11.55-9.3-18.48-12.2c-3.56-1.49-7.23-2.6-11.11-2.82c-1.5-0.08-1.56,0.01-1.56,1.51
		C213.38,368.11,213.38,374.83,213.38,381.55z"/>
</g>
<g>
	
		<linearGradient id="SVGID_00000085944925290906649340000004985727284320535958_" gradientUnits="userSpaceOnUse" x1="273.1839" y1="265.7567" x2="137.6681" y2="368.0242" gradientTransform="matrix(1 0 0 -1 0 568)">
		<stop  offset="0" style="stop-color:#00FFAF"/>
		<stop  offset="0.06" style="stop-color:#00EDAD"/>
		<stop  offset="0.32" style="stop-color:#00A6A7"/>
		<stop  offset="0.55" style="stop-color:#006EA2"/>
		<stop  offset="0.75" style="stop-color:#00469F"/>
		<stop  offset="0.91" style="stop-color:#002D9D"/>
		<stop  offset="1" style="stop-color:#00249C"/>
	</linearGradient>
	<path style="fill:url(#SVGID_00000085944925290906649340000004985727284320535958_);" d="M159.58,291.28c1.08,0,2.16-0.02,3.24,0
		c0.75,0.01,1.13-0.3,1.1-1.06c-0.01-0.4,0-0.8,0-1.2c-0.01-14.48-0.01-28.96-0.02-43.43c0-2.13,0-2.13,2.18-2.13
		c5.52,0,11.04,0,16.56,0.01c1.66,0,1.68,0.02,1.68,1.67c-0.01,14.68-0.02,29.36-0.03,44.03c0,2.12,0,2.12,2.08,2.12
		c2.25,0,2.25,0,2.25-2.31c0.01-14.64,0-29.28,0.03-43.91c0.01-4.08,0.14-8.15,0.16-12.23c0.01-0.98,0.36-1.34,1.34-1.33
		c5.8,0.02,11.6,0.03,17.4-0.02c1.18-0.01,1.5,0.42,1.5,1.54c-0.03,9,0,18,0,27c0,9.84,0.01,19.68,0.01,29.52
		c0,1.75,0,1.77,1.71,1.76c3.21-0.02,2.79,0.35,2.79-2.82c0-14.56-0.01-29.12-0.02-43.67c0-1.77,0-1.78,1.81-1.78
		c5.68,0,11.36,0,17.04,0.01c1.47,0,1.59,0.11,1.59,1.56c0,12.6,0.03,25.2-0.05,37.79c-0.02,2.51-0.08,5.03-0.16,7.55
		c-0.03,1.05,0.36,1.41,1.4,1.39c3-0.05,2.6,0.2,2.6-2.55c0.02-24.64,0.03-49.27,0.05-73.91c0-2.05,0-2.05,2.03-2.05
		c5.48,0,10.96-0.01,16.44-0.01c1.72,0,1.73,0.01,1.73,1.75c0.01,24.96,0.02,49.91,0.04,74.87c0,2.06,0,2.06,2.09,2.07
		c0.56,0,1.12,0.02,1.68,0.03c0,0.96,0.37,2.29-0.11,2.77c-0.47,0.48-1.81,0.11-2.77,0.11c-32.76,0-65.53,0-98.29,0.02
		c-0.91,0-1.2-0.21-1.09-1.11C159.65,292.64,159.58,291.95,159.58,291.28z M255.58,253.52c0.01,0,0.01,0,0.02,0
		c0-12.15,0-24.3,0-36.46c0-1.57-0.06-1.62-1.62-1.62c-3.96-0.01-7.92-0.01-11.87-0.01c-1.9,0-1.9,0-1.9,1.94
		c0.01,18.95,0.02,37.9,0.03,56.84c0,5.24,0.02,10.47-0.01,15.71c-0.01,1.05,0.36,1.38,1.4,1.39c4.07,0.01,8.15,0.11,12.22,0.15
		c1.72,0.02,1.73,0,1.73-1.73C255.58,277.66,255.58,265.59,255.58,253.52z M206.57,262.49c0.01,0,0.02,0,0.03,0
		c0-9.19-0.01-18.39,0.02-27.58c0-1.08-0.31-1.47-1.43-1.46c-4.24,0.05-8.47,0.04-12.71-0.01c-1.09-0.01-1.45,0.33-1.45,1.44
		c0.04,18.35,0.06,36.7,0.04,55.05c0,1.06,0.35,1.38,1.39,1.37c4.2-0.04,8.4-0.06,12.59,0.01c1.24,0.02,1.55-0.42,1.54-1.6
		C206.55,280.64,206.57,271.56,206.57,262.49z M216.01,268c-0.01,0-0.02,0-0.02,0c0,7.28,0.02,14.55-0.02,21.83
		c0,1.07,0.31,1.49,1.43,1.48c4.28-0.05,8.56-0.04,12.83,0c1,0.01,1.35-0.37,1.31-1.34c-0.09-2.35-0.17-4.71-0.18-7.07
		c-0.02-12.19-0.03-24.39,0-36.58c0-1.2-0.35-1.59-1.57-1.57c-4.04,0.07-8.08,0.03-12.11,0.03c-1.67,0-1.68,0-1.68,1.64
		C216.01,253.6,216.01,260.8,216.01,268z M166.36,268.47c-0.01,0-0.02,0-0.03,0c0,7.12,0.02,14.23-0.02,21.35
		c-0.01,1.07,0.3,1.49,1.42,1.47c4.24-0.05,8.48-0.05,12.71,0c1.09,0.01,1.46-0.35,1.46-1.45c-0.04-14.19-0.05-28.39-0.04-42.58
		c0-1.06-0.37-1.38-1.4-1.37c-4.2,0.04-8.4,0.06-12.59-0.01c-1.24-0.02-1.55,0.41-1.54,1.6
		C166.39,254.48,166.36,261.47,166.36,268.47z"/>
	
		<linearGradient id="SVGID_00000064351233159013289740000003176343244528612249_" gradientUnits="userSpaceOnUse" x1="293.297" y1="292.4087" x2="157.7811" y2="394.6762" gradientTransform="matrix(1 0 0 -1 0 568)">
		<stop  offset="0" style="stop-color:#00FFAF"/>
		<stop  offset="0.06" style="stop-color:#00EDAD"/>
		<stop  offset="0.32" style="stop-color:#00A6A7"/>
		<stop  offset="0.55" style="stop-color:#006EA2"/>
		<stop  offset="0.75" style="stop-color:#00469F"/>
		<stop  offset="0.91" style="stop-color:#002D9D"/>
		<stop  offset="1" style="stop-color:#00249C"/>
	</linearGradient>
	<path style="fill:url(#SVGID_00000064351233159013289740000003176343244528612249_);" d="M249.58,184.24c2.21,1.2,3,2.83,2.29,4.76
		c-0.51,1.41-1.54,2.23-3.02,2.41c-0.71,0.08-1.15,0.37-1.52,0.97c-7.28,11.81-14.57,23.62-21.87,35.41
		c-0.42,0.67-0.46,1.27-0.27,2.03c0.51,1.98-0.75,3.91-2.74,4.36c-1.95,0.44-3.94-0.74-4.29-2.68c-0.15-0.83-0.56-1.25-1.22-1.61
		c-4.87-2.67-9.74-5.36-14.6-8.04c-1.61-0.89-3.22-1.78-4.81-2.71c-0.53-0.31-0.98-0.4-1.56-0.13c-0.86,0.4-1.8,0.44-2.68,0.07
		c-0.61-0.25-1.03-0.14-1.5,0.3c-5.05,4.66-10.12,9.31-15.18,13.96c-0.35,0.32-0.72,0.64-1.08,0.94c-0.87,0.72-1.54,1.42-1.49,2.77
		c0.06,2.02-1.83,3.52-3.86,3.37c-1.98-0.14-3.52-1.88-3.37-3.82c0.15-2.05,1.98-3.69,4.02-3.4c1.03,0.15,1.71-0.08,2.44-0.77
		c3.39-3.16,6.83-6.27,10.24-9.41c2.24-2.05,4.46-4.13,6.69-6.19c0.42-0.39,0.72-0.79,0.79-1.41c0.2-1.99,1.57-3.32,3.38-3.4
		c1.88-0.07,3.44,1.07,3.77,2.99c0.16,0.91,0.59,1.38,1.34,1.8c6.27,3.45,12.53,6.92,18.78,10.39c0.64,0.35,1.23,0.21,1.91,0.18
		c2.46-0.12,3.24-1.96,4.28-3.65c6.75-10.96,13.52-21.92,20.29-32.86c0.4-0.65,0.57-1.19,0.29-1.99c-0.65-1.84,0.06-3.24,2.16-4.66
		C247.98,184.24,248.78,184.24,249.58,184.24z"/>
</g>
</svg>
