<svg xmlns="http://www.w3.org/2000/svg" xmlns:xlink="http://www.w3.org/1999/xlink" viewBox="0 0 876.09 660.88"><defs><style>.cls-1{isolation:isolate;}.cls-2{fill:url(#linear-gradient);}.cls-3{fill:url(#linear-gradient-2);}.cls-4{fill:url(#linear-gradient-3);}.cls-5{fill:#fefefe;}.cls-6{mix-blend-mode:screen;fill:url(#linear-gradient-4);}.cls-7{font-size:63.69px;}.cls-11,.cls-17,.cls-7{fill:#fff;}.cls-10,.cls-7{font-family:Poppins-SemiBold, Poppins;font-weight:600;}.cls-8,.cls-9{font-family:Poppins-Black, Poppins;font-weight:800;}.cls-8{letter-spacing:0em;}.cls-10{font-size:54.27px;}.cls-12,.cls-16,.cls-19{fill:#000e3f;}.cls-13{fill:#4217a6;}.cls-14{fill:url(#linear-gradient-5);}.cls-15{fill:url(#linear-gradient-6);}.cls-16,.cls-22{opacity:0.25;}.cls-17{opacity:0.5;}.cls-18{fill:url(#linear-gradient-7);}.cls-19{opacity:0.19;}.cls-20{fill:url(#radial-gradient);}.cls-21{fill:url(#linear-gradient-8);}.cls-23{fill:#e2e2e2;}.cls-24{opacity:0.65;}</style><linearGradient id="linear-gradient" x1="1161.6" y1="496.5" x2="256.52" y2="494.08" gradientUnits="userSpaceOnUse"><stop offset="0" stop-color="#00ffaf"/><stop offset="0.06" stop-color="#00edad"/><stop offset="0.32" stop-color="#00a6a7"/><stop offset="0.55" stop-color="#006ea2"/><stop offset="0.75" stop-color="#00469f"/><stop offset="0.91" stop-color="#002d9d"/><stop offset="1" stop-color="#00249c"/></linearGradient><linearGradient id="linear-gradient-2" x1="166.16" y1="453.18" x2="855.01" y2="453.18" xlink:href="#linear-gradient"/><linearGradient id="linear-gradient-3" x1="687.4" y1="182.26" x2="125.4" y2="373.34" gradientUnits="userSpaceOnUse"><stop offset="0" stop-color="#999"/><stop offset="0.09" stop-color="#a7a7a7"/><stop offset="0.36" stop-color="#cdcdcd"/><stop offset="0.61" stop-color="#e9e9e9"/><stop offset="0.83" stop-color="#f9f9f9"/><stop offset="1" stop-color="#fff"/></linearGradient><linearGradient id="linear-gradient-4" x1="646.15" y1="196.28" x2="199.42" y2="348.17" xlink:href="#linear-gradient-3"/><linearGradient id="linear-gradient-5" x1="675.82" y1="133.45" x2="733.92" y2="133.45" xlink:href="#linear-gradient"/><linearGradient id="linear-gradient-6" x1="761.93" y1="60.46" x2="659.51" y2="86.14" xlink:href="#linear-gradient"/><linearGradient id="linear-gradient-7" x1="655.8" y1="65.57" x2="771.37" y2="201.93" xlink:href="#linear-gradient"/><radialGradient id="radial-gradient" cx="765.39" cy="41.71" r="53.4" xlink:href="#linear-gradient"/><linearGradient id="linear-gradient-8" x1="834.54" y1="32.62" x2="757.5" y2="48.22" xlink:href="#linear-gradient"/></defs><g class="cls-1"><g id="Layer_2" data-name="Layer 2"><g id="Layer_1-2" data-name="Layer 1"><polygon class="cls-2" points="782.25 359.19 166.16 442.4 166.16 630.13 782.25 546.92 855.01 443.22 782.25 359.19"/><polygon class="cls-3" points="782.25 359.19 166.16 442.4 166.16 447.61 776.22 365.21 848.99 449.24 780.26 547.18 782.25 546.92 855.01 443.22 782.25 359.19"/><polygon class="cls-4" points="469.11 200.07 103.52 249.45 30.75 353.15 103.52 437.18 469.11 387.8 469.11 200.07"/><path class="cls-5" d="M497.12,198.72A28.14,28.14,0,0,0,487.56,179a27.38,27.38,0,0,0-5.29-3.65l1.27-2.4a30.81,30.81,0,0,1,16.29,25.68Zm-194.41-4.47-.36-2.69,60.26-8.14.36,2.69Z"/><path class="cls-5" d="M27.81,396.72,7.5,373.27a30.77,30.77,0,0,1-6.13-29.21l2.59.8A28.06,28.06,0,0,0,9.55,371.5L29.85,395ZM72.39,245l-2.22-1.56,8.18-11.65a30.66,30.66,0,0,1,12.94-10.56l1.08,2.49a28,28,0,0,0-11.81,9.62ZM152,214.6l-.37-2.68,120.53-16.28.36,2.68Z"/><path class="cls-5" d="M138.12,570.74h-2.71V463.9l-27.78,3.75a30.65,30.65,0,0,1-27.36-10.34L47.75,419.75l2-1.77,32.52,37.56a28,28,0,0,0,25,9.43l30.85-4.17Z"/><path class="cls-5" d="M166.16,660.88q-1.38,0-2.73-.12l.24-2.7a27.72,27.72,0,0,0,6.24-.14l44.5-6,.37,2.69-44.51,6A31.29,31.29,0,0,1,166.16,660.88Z"/><path class="cls-5" d="M846.52,508.85l-2.21-1.56,29.56-42.13,2.22,1.56ZM657.18,347.78l-.36-2.68,102-13.78.36,2.69Z"/><polygon class="cls-6" points="103.52 249.45 98.5 256.59 461.64 207.54 461.64 388.81 469.11 387.8 469.11 200.07 103.52 249.45"/><path d="M597.75,160.49c1.93,3.35-.38,8.3-5.16,11.06s-10.23,2.29-12.16-1.06,3.38-2.3,8.16-5.06S595.82,157.14,597.75,160.49Z"/><text class="cls-7" transform="matrix(1.05, -0.13, -0.07, 1, 222.84, 518.14)">IN TO <tspan class="cls-8" x="181.59" y="0">BRAND</tspan><tspan class="cls-9"><tspan x="0" y="76.43">AMBASSADORS</tspan></tspan></text><text class="cls-10" transform="matrix(1.02, -0.12, 0.03, 1, 102.35, 330.61)">TURN YOUR <tspan class="cls-9"><tspan x="0" y="65.13">CUSTOMERS</tspan></tspan></text><path class="cls-11" d="M717.75,167.45c8-7,13.55-19.29,11.29-28.87-2.43-10.31-13.15-18.6-23.8-13.9-13.57,6-22.32,26.38-14,39.58a24.14,24.14,0,0,0,3.21,4.1c0,31.14-.12,62.26,1.72,93.4.84,14.26,8.63,35.05,27.34,28.12,14.55-5.39,11.8-25.6,10.26-40.71-2-19.78-6.23-39.33-10.56-58.71C720.91,180.09,719.23,172.91,717.75,167.45Z"/><path class="cls-12" d="M719.16,167.89c8.21-7.51,13.35-20,11.09-29.58a22,22,0,0,0-11.18-14.39,16.8,16.8,0,0,0-9.72-1.69,17.5,17.5,0,0,0-4.61,1.31c-7.49,3.33-13.87,11-16.6,19.94-2.42,7.9-1.67,15.51,2.06,21.45a26.94,26.94,0,0,0,3,4c0,1.72,0,3.47,0,5.19,0,28.75,0,58.47,1.72,87.74.55,9.48,4.22,22.51,12.67,28a16.2,16.2,0,0,0,11.25,2.45A23.2,23.2,0,0,0,724,291c14.86-5.5,12.85-24.71,11.24-40.13L735,249c-2-19.54-6.16-39-10.6-58.85C722.23,180.38,720.61,173.36,719.16,167.89Zm13.37,81.4.2,1.89c1.52,14.56,3.42,32.69-9.64,37.53-5.39,2-10.12,1.68-14.13-.91-7.67-5-11-17.2-11.54-26.1-1.73-29.2-1.73-58.89-1.73-87.6,0-1,0-2,0-2.94s0-2.19,0-3.26a18.54,18.54,0,0,1-2.48-2.94c-.34-.43-.62-.87-.93-1.35-3.34-5.32-4-12.2-1.78-19.39a32.57,32.57,0,0,1,6-11.19,25.77,25.77,0,0,1,9.23-7.2,13.82,13.82,0,0,1,4-1.15,14.29,14.29,0,0,1,8.25,1.46,19.35,19.35,0,0,1,9.86,12.73c1.94,8.28-2.42,19.3-9.43,26.28-.66.66-1.32,1.3-2,1.89.23.82.47,1.71.72,2.62,1.32,5.17,2.91,11.86,4.94,21.07C726.43,210.52,730.55,229.9,732.53,249.29Z"/><polygon class="cls-13" points="715.46 118.91 729.74 146.33 716.81 150.75 698.22 118.19 715.46 118.91"/><path class="cls-14" d="M677,127.27l42.17,37.84a3.52,3.52,0,0,0,5.39-.87l8.89-15.38a3.52,3.52,0,0,0-1.14-4.72h0a3.54,3.54,0,0,0-4.07.17l-.81.63a3.52,3.52,0,0,1-5-.66l-11.84-15.6a3.53,3.53,0,0,1,.17-4.46l4.67-5.31a3.53,3.53,0,0,0,.12-4.51l-10.25-12.15a3.53,3.53,0,0,0-5.09-.48L677,122A3.52,3.52,0,0,0,677,127.27Z"/><path class="cls-12" d="M733,143.11a4.73,4.73,0,0,0-3.81-.6L716.9,119a4.78,4.78,0,0,0-.38-5.39l-10.23-12.12A4.68,4.68,0,0,0,703,99.68a4.81,4.81,0,0,0-3.59,1.15L676.21,121a4.78,4.78,0,0,0,0,7.16L718.34,166a4.73,4.73,0,0,0,3.8,1.17l.14,0a4.76,4.76,0,0,0,3.36-2.31l8.87-15.38A4.72,4.72,0,0,0,733,143.11Zm-6,.61-.29.24a2.25,2.25,0,0,1-1.71.45,2.2,2.2,0,0,1-1.51-.87L711.6,127.92a2.29,2.29,0,0,1,.12-2.88l3.47-4Zm5.41,4.53-8.89,15.38a2.25,2.25,0,0,1-1.6,1.11,2.31,2.31,0,0,1-1.9-.55l-42.16-37.85a2.25,2.25,0,0,1,0-3.42l23.22-20.21a2.17,2.17,0,0,1,1.17-.56,1.89,1.89,0,0,1,.53,0,2.32,2.32,0,0,1,1.61.88l10.22,12.12a2.23,2.23,0,0,1,.21,2.49,1.68,1.68,0,0,1-.27.44L712.83,120l-3,3.39a4.75,4.75,0,0,0-.23,6L721.48,145a4.54,4.54,0,0,0,3,1.81l.2,0a4.65,4.65,0,0,0,3.54-1l.82-.61a2.24,2.24,0,0,1,1.33-.47,2.19,2.19,0,0,1,1.32.35A2.3,2.3,0,0,1,732.38,148.25Z"/><path class="cls-15" d="M644.63,120.71a40.85,40.85,0,0,0,4.52,5.77,26,26,0,0,0,6.49,5.1c6.28,3.38,7.08,3.08,57.86-26.28C761.65,77.47,771.61,85.49,773,87.1c-1-1.4-5.61-8.86-11.43-18.31-12-19.5-29.08-47.47-29.5-48.15.32.52,6.94,12.52-42.86,45.2-49,32.16-49.67,32.74-49.48,39.87C639.85,111,642,116.18,644.63,120.71Z"/><path class="cls-16" d="M649.15,126.48a26,26,0,0,0,6.49,5.1c6.28,3.38,7.08,3.08,57.86-26.28C761.65,77.47,771.61,85.49,773,87.1c-1-1.4-5.61-8.86-11.43-18.31C749.67,73.56,724.69,84,706.23,95.12,685.09,107.81,666.25,126.55,649.15,126.48Z"/><path class="cls-17" d="M704.22,66.54a1.25,1.25,0,0,0,1.38.29c10.24-4.39,21.27-13.64,25.44-24.12a1.16,1.16,0,0,0-1.93-1.2C711.37,61.18,702,64.1,704.22,66.54Z"/><path class="cls-12" d="M661.36,134.23c-2.59.34-4.17-.41-6.3-1.55a27.37,27.37,0,0,1-6.81-5.35,42.72,42.72,0,0,1-4.66-5.94l0,0c-3.24-5.52-5-10.76-5.1-15.6-.21-8,.73-8.6,50-40.94C736.89,33.05,731.08,21.45,731,21.29A1.24,1.24,0,0,1,733.1,20v0l1.39,2.27c4.45,7.3,18,29.49,28.1,45.86,6.82,11.08,10.55,17,11.38,18.25a1.23,1.23,0,0,1-.26,1.69,1.25,1.25,0,0,1-1.7-.18c-.34-.41-9.09-9.74-57.9,18.47C678.56,126.93,667.3,133.44,661.36,134.23Zm-15.68-14.18a39.46,39.46,0,0,0,4.37,5.58,24.65,24.65,0,0,0,6.18,4.86c5.6,3,5.82,3.12,56.65-26.26,34.52-20,49.88-21.81,56.59-20.29-1.91-3-4.86-7.81-9-14.5-9.4-15.25-21.8-35.55-27.06-44.16a22,22,0,0,1-3,6.56c-6.05,9.54-19.7,21.32-40.6,35-49.1,32.2-49.09,32.45-48.92,38.8C641.07,110.08,642.66,114.92,645.68,120.05Z"/><path class="cls-18" d="M647.2,98.34l18.61,30.21a5.36,5.36,0,0,0,7.19,1.86l44-24.83A5.35,5.35,0,0,0,719,98.1L698.29,64.54a5.35,5.35,0,0,0-7.55-1.63l-42,28.17A5.36,5.36,0,0,0,647.2,98.34Z"/><path class="cls-19" d="M662.57,123.28l3.24,5.27a5.36,5.36,0,0,0,7.19,1.86l44-24.83A5.35,5.35,0,0,0,719,98.1l-4.67-7.58c-2.78,1.52-5.48,3.06-8.07,4.6C690.47,104.58,676,117.4,662.57,123.28Z"/><path class="cls-12" d="M652.87,93.1c4,9.7,13.4,24.94,20,32.65a1.23,1.23,0,0,0,2.06-1.27,91,91,0,0,0-4.22-8.65c-3.86-7.2-10.52-17.66-15.93-23.92A1.15,1.15,0,0,0,652.87,93.1Z"/><path class="cls-12" d="M664.75,89.29c11,5.74,27.17,5.48,38-.69a1.22,1.22,0,0,0-.84-2.26c-3,.61-6,1.17-9.11,1.58a91.78,91.78,0,0,1-27.35-.79,1.15,1.15,0,0,0-.71,2.16Z"/><path class="cls-12" d="M667.4,102.9c11.05,5.35,27,5.15,37.94-.54a1.22,1.22,0,0,0,.52-1.65,1.2,1.2,0,0,0-1.28-.64c-30.45,4.92-37.39-1.72-37.81,1.65A1.14,1.14,0,0,0,667.4,102.9Z"/><path class="cls-12" d="M671.22,132.29a6.58,6.58,0,0,1-6.46-3.09L646.14,99h0a6.59,6.59,0,0,1,1.94-8.94l42-28.17a6.59,6.59,0,0,1,9.3,2L720,97.45a6.59,6.59,0,0,1-2.39,9.21l-44,24.82A6.64,6.64,0,0,1,671.22,132.29Zm-23-34.6,18.62,30.21a4.11,4.11,0,0,0,5.53,1.43l44-24.83a4,4,0,0,0,2-2.56,4.11,4.11,0,0,0-.48-3.19L697.24,65.19a4.12,4.12,0,0,0-5.81-1.26l-42,28.18A4.11,4.11,0,0,0,648.25,97.69Z"/><path class="cls-20" d="M741.83,60.86c14.81,24,37,37.23,49.48,29.52S802,56.93,787.18,32.91,750.23-4.32,737.71,3.4,727,36.84,741.83,60.86Z"/><path class="cls-21" d="M749.57,56.1a93.2,93.2,0,0,0,5.62,8.14c11,14.21,23.94,21.81,31,17.43,8.37-5.16,5.52-25-6.36-44.25S751.58,6.68,743.2,11.84c-6.56,4-6.23,17.08-.05,31.8A87.94,87.94,0,0,0,749.57,56.1Z"/><path class="cls-12" d="M743.15,43.64a83.89,83.89,0,0,0,4.32,8.88c.26.47.53.94.8,1.41.41.72.84,1.44,1.3,2.17a89.7,89.7,0,0,0,5.63,8.14l12.87-9a3.62,3.62,0,0,0,1-4.87l-2.28-3.69-5.5-8.92a3.62,3.62,0,0,0-4.78-1.3Z"/><g class="cls-22"><path class="cls-12" d="M747.47,52.52c.26.47.53.94.8,1.41.41.72.84,1.44,1.3,2.17a89.7,89.7,0,0,0,5.63,8.14l12.87-9a3.62,3.62,0,0,0,1-4.87l-2.28-3.69A49.11,49.11,0,0,1,747.47,52.52Z"/><path class="cls-12" d="M750.12,19.19c14.27,12,22.52,24,28.34,38.43a114.17,114.17,0,0,1,4.78,15.46,1.21,1.21,0,0,0,2.39-.35c-1.22-23.08-15.35-44.83-34.22-55.41A1.14,1.14,0,0,0,750.12,19.19Z"/></g><path class="cls-12" d="M788.23,32.26c-15.13-24.56-38.1-38-51.17-29.92-6.47,4-9.59,12.43-8.77,23.76.79,11,5.23,23.63,12.49,35.41,12.94,21,31.6,33.86,44.92,32.1A15.76,15.76,0,0,0,792,91.43C805,83.37,803.37,56.83,788.23,32.26Zm2.43,57.06c-11.93,7.34-33.35-5.71-47.77-29.11-7.06-11.45-11.37-23.63-12.13-34.28-.75-10.37,2-18,7.6-21.48a13.69,13.69,0,0,1,5.46-1.9c12.27-1.62,29.89,10.86,42.31,31C800.54,57,802.58,82,790.66,89.32Z"/><path class="cls-12" d="M780.94,36.77c-12.44-20.17-29.3-31.58-38.39-26-7,4.32-7.23,17.4-.55,33.32.57,1.37,1.21,2.75,1.87,4.13.13.28.27.55.4.83.66,1.33,1.35,2.66,2.09,4l0,.06,0,0,.51.9c.09.17.18.33.28.49q.54,1,1.14,1.92c.06.09.11.19.17.29q1.35,2.18,2.78,4.26c1,1.38,1.94,2.72,2.93,4h0c9.95,12.84,21.16,20,28.94,19a9.39,9.39,0,0,0,3.72-1.3c4.49-2.77,6.27-9.18,5-18.06C790.66,56.14,786.77,46.23,780.94,36.77ZM755.48,62.53c-.51-.68-1-1.37-1.52-2.07-.26-.37-.53-.73-.79-1.11-.74-1.07-1.45-2.17-2.15-3.29-.13-.21-.27-.4-.4-.61l-.23-.4c-.46-.74-.9-1.49-1.33-2.23-.16-.28-.32-.56-.47-.84a1.62,1.62,0,0,0-.1-.18c-.62-1.12-1.21-2.25-1.77-3.37l-.44-.89c-.46-.95-.9-1.9-1.32-2.84l-.22-.51,12.34-6.66a2.38,2.38,0,0,1,3.14.86L768,51a2.4,2.4,0,0,1-.66,3.21Zm30.11,18.08c-6.18,3.81-18.08-3-28.6-16.11l11.78-8.26a4.85,4.85,0,0,0,1.35-6.53l-7.79-12.62a4.86,4.86,0,0,0-6.42-1.74l-12.13,6.54c-5.47-13.74-5.49-25.56.07-29a7.23,7.23,0,0,1,2.83-1c8.31-1.09,22.09,9.83,32.15,26.16,5.66,9.18,9.42,18.75,10.6,26.94C790.54,72.74,789.14,78.43,785.59,80.61Z"/><path class="cls-11" d="M731.84,140.7c.11-.15.24-.31.33-.45a5.33,5.33,0,0,0,.29-5.05,4.74,4.74,0,0,0-3.73-2.74c-.15,0-.3,0-.45,0a5.63,5.63,0,0,0-.11-2.88,4.36,4.36,0,0,0-2.54-2.77,5.72,5.72,0,0,0-2.17-.36,4.71,4.71,0,0,0-.5-3.85c-1.33-2-4.12-2.57-7.12-1.4a15.19,15.19,0,0,0-4.51,2.9c-4.11,3.65-4.37,6.92-3.24,8.76a4.45,4.45,0,0,0,3.81,2,10,10,0,0,0-.74,1.79,3.91,3.91,0,0,0,.57,3.43,4.33,4.33,0,0,0,3.21,1.84,6.23,6.23,0,0,0,1,0,4.35,4.35,0,0,0,.53,4.8c.94,1.14,2.66,2.22,5.63,1.38a5.52,5.52,0,0,0-.16.54A3.63,3.63,0,0,0,723.1,152c1.23,1.11,3.09,1.25,5.25.41,2.71-1.06,6-3.81,6.71-6.82a4,4,0,0,0-.85-3.75A3.55,3.55,0,0,0,731.84,140.7Z"/><path class="cls-12" d="M706.88,132.77a5,5,0,0,0,.31.61,5.07,5.07,0,0,0,3.16,2.27c-.08.22-.14.44-.21.67a5,5,0,0,0,.72,4.33,5.46,5.46,0,0,0,3.72,2.23,5,5,0,0,0,1.13,4.42,5.66,5.66,0,0,0,5.17,2,4.44,4.44,0,0,0,1.51,3.46,5.31,5.31,0,0,0,4.9,1.06,8.43,8.43,0,0,0,1.44-.44c.13-.06.26-.1.39-.17a13.64,13.64,0,0,0,6.19-5.45,7.51,7.51,0,0,0,.78-1.94,5.12,5.12,0,0,0-1.09-4.69,4.55,4.55,0,0,0-1.55-1.14,6.31,6.31,0,0,0,0-5.29,5.79,5.79,0,0,0-3.94-3.21,6.21,6.21,0,0,0-.3-2.31,5.46,5.46,0,0,0-3.15-3.43,8.43,8.43,0,0,0-1.31-.35,5.53,5.53,0,0,0-.88-3.44,6,6,0,0,0-6.09-2.41,10.14,10.14,0,0,0-2.28.6,14.44,14.44,0,0,0-2.49,1.29,22.83,22.83,0,0,0-2.33,1.8.44.44,0,0,1-.11.09,13.83,13.83,0,0,0-3.27,4.14A6.25,6.25,0,0,0,706.88,132.77ZM717.34,146a3.21,3.21,0,0,1-.57-3.16,7.35,7.35,0,0,1,1.38-2.47l.11-.14h0a22.38,22.38,0,0,1,3.19-3.12,30.47,30.47,0,0,1,2.87-2.19,10.64,10.64,0,0,1,1.91-1,2.47,2.47,0,0,1,.36-.11,2.64,2.64,0,0,1,.55-.15h0a3.48,3.48,0,0,1,1.43-.09,4.47,4.47,0,0,1,.45.09,4,4,0,0,1,2.26,6,7.91,7.91,0,0,0-2,.34l-.49.17-.21.07a14.72,14.72,0,0,0-6.27,5.05,8.88,8.88,0,0,0-1,1.89A3.79,3.79,0,0,1,717.34,146Zm10.33,5.6c-1.51.53-2.93.53-3.87-.32a2.5,2.5,0,0,1-.79-2.39,5.42,5.42,0,0,1,.74-1.91,6.66,6.66,0,0,1,.78-1.12,12.53,12.53,0,0,1,4.51-3.51h0a1.94,1.94,0,0,1,.3-.13.39.39,0,0,1,.14,0,6.21,6.21,0,0,1,.78-.23h0a3.54,3.54,0,0,1,2,0,2,2,0,0,1,1.13.69,3.17,3.17,0,0,1,.4,3.46h0a11,11,0,0,1-5.63,5.31,1.07,1.07,0,0,1-.22.1ZM715,140.81a3.14,3.14,0,0,1-2.82-3.92c.1-.33.23-.68.38-1a8.47,8.47,0,0,1,.68-1.29c.21-.35.43-.7.68-1a17.63,17.63,0,0,1,5.26-4.73,10.86,10.86,0,0,1,1.58-.76,8.48,8.48,0,0,1,1-.35,4.87,4.87,0,0,1,.52-.12,5.62,5.62,0,0,1,1.91-.06,4.72,4.72,0,0,1,1,.26,3.67,3.67,0,0,1,2.12,3.66,6.64,6.64,0,0,0-1.36.3l-.54.2a13.32,13.32,0,0,0-2.5,1.33c-1.1.73-2.07,1.52-2.83,2.14a25.17,25.17,0,0,0-3.37,3.32,13.69,13.69,0,0,0-1.43,2.1A1.37,1.37,0,0,1,715,140.81Zm-6.32-9.33a3.7,3.7,0,0,1,.12-2.16,10.45,10.45,0,0,1,3.24-4.48,20.63,20.63,0,0,1,1.7-1.34c.21-.14.42-.28.62-.39a11.47,11.47,0,0,1,1.87-1,12.33,12.33,0,0,1,1.2-.37h0c3.28-.75,5.4,1.08,5.15,3.62a10,10,0,0,0-2.4.59l-.21.07a16.53,16.53,0,0,0-2.19,1.09,19.22,19.22,0,0,0-6,5.73c-.18.27-.35.54-.52.82A3,3,0,0,1,708.67,131.48Z"/><path class="cls-11" d="M689.18,159.9a37.06,37.06,0,0,1-.88-18.47c2.12-10.44,10.9-19.67,20.48-23.86,2.9-1.26,8.49-3.15,8.94,1.63.42,4.42-4.15,8.67-7.74,11.32-3.85,2.84-4.39,2.93-3.89,3.78,2.84,4.73,3.63,15.37.67,20.07"/><path class="cls-12" d="M689.34,161.12a1.24,1.24,0,0,1-1.35-.85,38.49,38.49,0,0,1-.91-19.09c2.07-10.16,10.59-20.11,21.2-24.74,3.89-1.7,6.79-2,8.64-.92a4.3,4.3,0,0,1,2,3.56c.47,4.91-4.22,9.47-8.23,12.43-.77.57-1.41,1-1.93,1.4s-1.13.81-1.45,1.07c2.89,5.26,3.68,15.94.47,21.05a1.24,1.24,0,0,1-2.1-1.32c2.74-4.35,1.92-14.43-.68-18.78-1-1.65.11-2.45,2.31-4,.52-.37,1.15-.82,1.91-1.38,4.94-3.65,7.51-7.27,7.24-10.2-.12-1.25-.65-1.56-.83-1.67-1.07-.63-3.4-.24-6.39,1.06-9.9,4.33-17.84,13.56-19.76,23a35.85,35.85,0,0,0,.85,17.84,1.25,1.25,0,0,1-.81,1.56Z"/><path class="cls-11" d="M738.54,274.56c-.85-19.36-4.51-44.82-8.91-67.15-1.67-8.46-3.45-16.47-5.21-23.52a4.41,4.41,0,0,0-3.76-3.34c-6.45-.69-18.73,1.85-22.78,2.8-6,1.4-5.36-.29-4.79,25,0,.79,0,1.58,0,2.38.63,25.15,2.1,53.48,2.1,53.48s-50.79-71.26-81.15-66.52c-6.48,1-6,23.88-5.94,28.75.3,16.41,11.23,30.31,21.78,42.2C662.37,305.17,741.63,346,738.54,274.56Z"/><path class="cls-23" d="M693.14,210.7q9.08-1.29,19.05-2.19c6-.53,11.86-.88,17.44-1.1-1.67-8.46-3.45-16.47-5.21-23.52a4.41,4.41,0,0,0-3.76-3.34c-6.45-.69-18.73,1.85-22.78,2.8-6,1.4-5.36-.29-4.79,25C693.11,209.11,693.12,209.9,693.14,210.7Z"/><path class="cls-12" d="M725.62,183.59a5.66,5.66,0,0,0-4.83-4.27c-6.64-.71-17.63,1.61-24.15,3-5.41,1.18-5.39,1.85-4.95,19.21.31,12,.56,26.71,2.11,58.54-10.59-14.2-52.18-67.34-79.45-63.74l-.45.06c-5.06.8-7.35,10.59-7,30,.32,17.07,11.57,31.15,22.09,43,20.29,22.86,60.75,48.75,86.76,45.32a28.82,28.82,0,0,0,7-1.8c12.19-4.93,17.91-17.87,17-38.45h0C738.6,247.64,732.14,209.68,725.62,183.59Zm11.68,91c.84,19.43-4.37,31.56-15.48,36.06-24.13,9.76-69.24-18.4-91-42.88-10.23-11.52-21.17-25.18-21.47-41.47-.47-25.31,4-27.3,4.89-27.44l.4-.06c28.38-3.74,75.89,61,79.35,65.8,1.78,17.05.47,20,2.75,19.8h.07c2.62-.35-.52,1.89-2.68-82.91-.44-17.17-.46-15.91,4-17,5.61-1.31,16.64-3.38,22.37-2.77a3.2,3.2,0,0,1,2.69,2.41c1.76,7.06,3.56,15.17,5.19,23.46C733.28,232.34,736.52,256.75,737.3,274.61Z"/><path class="cls-11" d="M621.62,197.89c-12.49-2.3-24.83,2.56-36.53,6.38A266.19,266.19,0,0,0,539,223.87c-12.23,6.76-24.34,13.92-34.9,23.15-11.45,10-3.36,23.84,3.37,34.06,7,10.71,11.54,13.59,22,23.06.35.31.68.63,1,.95l1.46,1.37c29,27.85,37.28,61.08,40.35,80.11l113.43-14.91,5.6-.74c-.88-2.61-1.79-5.21-2.7-7.81-6.69-19-14.15-37.64-20.8-56.62-4.86-13.85-4.54-28.71-7-43-2.41-13.91-10.9-30-22.31-38.75"/><path class="cls-23" d="M521,296.66c.93.85,1.89,1.67,2.83,2.5l.49.44c1.72,1.51,3.46,3,5.15,4.54.35.31.68.63,1,.95l1.46,1.37c29,27.85,37.28,61.08,40.35,80.11l113.43-14.91a21.47,21.47,0,0,0-3.74-4.27c-9.71-8.6-23.65-10.1-36.62-10.57s-26.64-.49-37.79-7.12c-10.07-6-16.47-16.41-23.86-25.5a124.13,124.13,0,0,0-51.84-37.49C528.88,289.43,525.13,292.85,521,296.66Z"/><path class="cls-12" d="M689.75,362.7c-3.26-9.26-6.77-18.61-10.16-27.64-3.56-9.48-7.24-19.27-10.64-29-3.1-8.85-4.08-18.34-5-27.52-.52-5-1-10.25-1.94-15.33-2.64-15.21-11.79-31.09-22.77-39.51a1.24,1.24,0,1,0-1.51,2c10.52,8.08,19.3,23.34,21.84,38,.87,5,1.4,10.16,1.92,15.15,1,9.32,2,19,5.16,28.08,3.41,9.73,7.09,19.54,10.65,29,3.39,9,6.89,18.35,10.15,27.59.74,2.12,1.49,4.24,2.21,6.37L573.29,385.18c-5.43-32.2-19.06-59-40.54-79.62l-2.5-2.34c-2-1.86-3.87-3.46-5.53-4.92-6.69-5.88-10.72-9.42-16.26-17.9-7.2-10.93-14-23.35-3.6-32.44,9.91-8.67,21-15.47,34.69-23a262.63,262.63,0,0,1,45.93-19.5l3.64-1.21c10.51-3.51,21.38-7.14,32.27-5.14a1.24,1.24,0,1,0,.45-2.43c-11.51-2.12-22.69,1.61-33.5,5.22l-3.63,1.2a265.25,265.25,0,0,0-46.35,19.7c-13.8,7.61-25.05,14.49-35.13,23.3-12.9,11.28-2.45,27.15,3.16,35.67,5.72,8.75,9.85,12.38,16.69,18.4,1.65,1.45,3.47,3,5.51,4.89l2.46,2.3c21.33,20.51,34.78,47.23,40,79.41a1.23,1.23,0,0,0,1.39,1l119-15.65a1.22,1.22,0,0,0,.89-.57,1.25,1.25,0,0,0,.12-1.05C691.58,367.91,690.67,365.31,689.75,362.7Z"/><path class="cls-12" d="M623.93,271.8a1.24,1.24,0,0,0-1.6.71c-10,26.08-28.08,50.11-53.8,71.41a1.24,1.24,0,0,0-.16,1.74,1.25,1.25,0,0,0,1.12.44,1.23,1.23,0,0,0,.62-.27c26-21.58,44.4-45.95,54.54-72.43A1.24,1.24,0,0,0,623.93,271.8Z"/><path class="cls-12" d="M603.15,322.8a1.24,1.24,0,1,0-2,1.44c8.74,12.18,15.08,26.25,21.2,39.85,1.46,3.24,2.92,6.48,4.41,9.69a1.24,1.24,0,0,0,1.29.71,1.21,1.21,0,0,0,.36-.1,1.24,1.24,0,0,0,.6-1.65c-1.49-3.2-2.94-6.43-4.4-9.66C618.43,349.36,612,335.18,603.15,322.8Z"/><path class="cls-11" d="M538.92,226.15c.53,3.27,8.57,7.21,11.13,8.62q2.26,1.24,4.57,2.37c1.27.62,2.56,1.23,3.85,1.81,8.73,3.94,17.87,7,26.95,10,26.54,9,34.92,19.48,39.31,17.82,3.09-1.19,2.62-7.26,2.68-9.91.22-12.39-4.09-24.27-11.21-34.24-5.72-8-13.54-14.18-19.93-20.86s-11.55-14.16-11.39-24.7c.15-9.18-15.71-12.56-28.37-8.63-4.74,1.46-9,3.94-11.87,7.54-2.41,3-1.58,5.7.18,9.22,4.62,9.27,5.37,20.84,1,30.07C544.58,218.06,538.54,223.83,538.92,226.15Z"/><path d="M558.47,239c8.73,3.94,17.87,7,26.95,10,26.54,9,34.92,19.48,39.31,17.82,3.09-1.19,2.62-7.26,2.68-9.91.22-12.39-4.09-24.27-11.21-34.24-.75-1.06-1.52-2.08-2.33-3.08C606.69,227,591.34,235.87,558.47,239Z"/><path class="cls-23" d="M566.64,199.59a31.55,31.55,0,0,0,29.63,2.19c-6.53-6.79-11.55-14.16-11.39-24.7.15-9.18-15.71-12.56-28.37-8.63C556.14,180.91,555.59,192.81,566.64,199.59Z"/><path class="cls-12" d="M625.9,238.92a62.78,62.78,0,0,0-8.69-17v0c-.78-1.1-1.56-2.12-2.37-3.12a1.3,1.3,0,0,0-.18-.15,128.06,128.06,0,0,0-10.91-11.27c-2.31-2.2-4.5-4.27-6.58-6.44-5.83-6.06-11.21-13.15-11-23.82a9.06,9.06,0,0,0-4-7.53c-5.67-4.25-16.6-5.22-26-2.3-5.37,1.65-9.68,4.4-12.48,7.94-3,3.73-1.67,7.12,0,10.55,4.65,9.32,5,20.43,1,29a26.45,26.45,0,0,1-2.88,4c-2.79,3.5-4.46,5.76-4.17,7.58.53,3.25,5.84,6.34,10.77,9l1,.53c1.5.82,3,1.62,4.63,2.39,1.28.63,2.58,1.24,3.88,1.83,8.25,3.72,16.95,6.65,25.37,9.49l1.7.57a140.44,140.44,0,0,1,29.77,14c4.48,2.69,7.19,4.32,9.48,4a4,4,0,0,0,.89-.23c3.5-1.34,3.48-6.71,3.47-9.92,0-.41,0-.79,0-1.11A54.74,54.74,0,0,0,625.9,238.92Zm-75.26-5.23c-.27-.16-.62-.34-1-.55-2.49-1.33-9.11-4.87-9.49-7.19-.13-.89,2.34-4,3.66-5.63a27.55,27.55,0,0,0,3.19-4.51c4.32-9.23,3.91-21.17-1.07-31.16-1.75-3.52-2.21-5.5-.31-7.9,2.49-3.15,6.38-5.61,11.27-7.11,8.55-2.66,18.77-1.84,23.78,1.91a6.6,6.6,0,0,1,3,5.51c-.18,11.6,5.84,19.44,11.74,25.58,2.11,2.21,4.42,4.4,6.66,6.52a131.9,131.9,0,0,1,10.13,10.33c-7,6.81-21.9,15.18-53.49,18.19-1.18-.53-2.35-1.08-3.52-1.65C553.63,235.28,552.11,234.49,550.64,233.69Zm75.53,23.17c0,.34,0,.74,0,1.17,0,2.4,0,6.87-1.88,7.6-1.36.51-4.09-1.12-8.22-3.61a142.52,142.52,0,0,0-30.25-14.22l-1.7-.58q-2.8-.93-5.63-1.91c-.61-.2-1.22-.42-1.82-.63-1.37-.47-2.74-1-4.1-1.45l-2.17-.79c-1.28-.47-2.55-1-3.83-1.46-.71-.28-1.42-.55-2.13-.84l-1.08-.46c29-3.39,43.31-11.49,50.35-18.22.5.63,1,1.24,1.48,1.9C622.59,233.71,626.38,245.3,626.17,256.86Z"/><path class="cls-11" d="M658.94,405.74c-2.54-.12-5.13-.31-7.74-.54,4.43-.24,8.41-1.14,8.87-3.76,1.1-6.38-12.72-3.15-27.9-6.18-2.88-.58-7.49-1.42-8-4-.85-4.24,12.54-4.64,13.06-8.8.77-6.06-17-4.31-19.86-3.93-10.89,1.4-18.4,5.18-22.61,10.13a75.76,75.76,0,0,0-8.93-2.23c-5.42-1.29-11-2.89-16.56-3.34-34.37-2.72-34.18,26.63-1.54,28.54,3.21.19,26.94-1,26.94-1,6.08,8.74,16.56,13.36,26.55,16,3.89,1,23,5.13,25.6,2,1.58-1.91,0-4-1.76-4.92a24.86,24.86,0,0,0-7.92-2l.43,0h0c5.53.35,16.93.9,21.69-1.2,2.24-1,3-3.27.83-4.8a11.51,11.51,0,0,0-6.05-1.64c5.71-.28,10.11-1.44,9.9-4.63C663.83,407.6,662,405.88,658.94,405.74Z"/><path class="cls-11" d="M499.65,252.38c-14,19.61-30.94,62.73-37,92.72-7.45,36.69-5,48.75,43.79,60.08A331.73,331.73,0,0,0,555,413.09a179.79,179.79,0,0,0,20.67.45c4.93-.17,5.75-.67,7.68-5.2C587,399.78,587,393,587.2,387.07a2.62,2.62,0,0,0-1.9-2.76c-7.58-2.76-15.5-5.36-23.36-7.74-24.69-7.48-48.83-12.91-60.05-15.26,2.09.43,36.91-78,38.09-80.69"/><path class="cls-23" d="M555,413.09a179.79,179.79,0,0,0,20.67.45c4.93-.17,5.75-.67,7.68-5.2C587,399.78,587,393,587.2,387.07a2.62,2.62,0,0,0-1.9-2.76c-7.58-2.76-15.5-5.36-23.36-7.74A245.65,245.65,0,0,1,555,413.09Z"/><path class="cls-12" d="M659.28,404.51a4.25,4.25,0,0,0,2-2.85,4,4,0,0,0-.71-3.28c-1.82-2.25-6.3-2.46-12.53-2.77A101.18,101.18,0,0,1,632.42,394l-.26,0c-2.24-.46-6.43-1.3-6.78-3-.22-1.15,3.11-2.31,5.52-3.15,3.55-1.21,7.2-2.49,7.57-5.25a3.78,3.78,0,0,0-1.13-3.24c-4-4-18.5-2.31-20.13-2.09-10.17,1.3-18,4.73-22.84,9.91a60.23,60.23,0,0,0-6.1-1.52,3.9,3.9,0,0,0-2.53-2.52c-7.19-2.64-15.07-5.24-23.44-7.78-24.45-7.39-47.68-12.63-58.24-14.87,2.28-3.56,7-13.05,18.33-37.85,9.21-20.1,18.17-40.27,18.74-41.55a1.24,1.24,0,0,0-2.28-1c-4.62,10.57-33,74.07-37.31,79.86-1.6-.33-3.63-.85-5.62-1.37-2.27-.59-4.62-1.21-6.38-1.53a1.24,1.24,0,1,0-.45,2.43c1.67.31,4,.91,6.21,1.49s4.61,1.2,6.36,1.53h0a0,0,0,0,1,0,0c9.41,2,34,7.34,59.87,15.19,6.42,1.95,12.53,3.93,18.28,5.94l5,1.81A1.38,1.38,0,0,1,586,387l0,.68,0,.45c-.19,5.58-.4,11.87-3.74,19.68-.38.9-.69,1.6-1,2.17-1.09,2-2.09,2.15-5.58,2.28q-6.2.24-13.06,0c-2.45-.1-4.94-.26-7.48-.45a321.2,321.2,0,0,1-48.4-7.87c-47.14-11-50.37-21.56-42.84-58.62,6.14-30.23,23.34-73.34,36.81-92.26a1.21,1.21,0,0,0-.28-1.71,1.25,1.25,0,0,0-1.74.29c-13.87,19.47-30.92,62.14-37.23,93.2-3.89,19.16-4.88,31.3,1,40.46s18.5,15.2,43.75,21.05c18.35,4.25,34.29,6.85,48.75,7.93a183.44,183.44,0,0,0,20.82.47,13.38,13.38,0,0,0,4.88-.77,4.93,4.93,0,0,0,2-1.59l11.52-.52c5.31,7.27,14.34,12.62,26.82,16,.21,0,19.8,5,25.69,2.4a3.2,3.2,0,0,0,1.2-.83,3.9,3.9,0,0,0,.86-3.23,5.21,5.21,0,0,0-2-2.93c6.27,0,10.6-.51,13.12-1.61a4.62,4.62,0,0,0,2.84-3.46,3.85,3.85,0,0,0-1.78-3.49,2.72,2.72,0,0,0-.42-.27,7.69,7.69,0,0,0,3.75-2.09,4,4,0,0,0,1-3C665,407.14,663,404.81,659.28,404.51Zm3.43,5a1.45,1.45,0,0,1-.39,1.17c-.72.81-2.76,1.83-8.31,2.12a1.06,1.06,0,0,0-.37.09h-.06c-2.12.12-16.57.77-25.79-3.34a1.24,1.24,0,1,0-1,2.26c10.49,4.68,26.58,3.58,27.26,3.53a2,2,0,0,0,.23-.06h0a9.55,9.55,0,0,1,5.06,1.39,1.44,1.44,0,0,1,.77,1.23,2.06,2.06,0,0,1-1.35,1.41h0c-3.18,1.42-10.22,1.78-21,1.11,0,0,0,0,0,0h-.12a30.65,30.65,0,0,1-10.53-2.88,1.24,1.24,0,1,0-1.2,2.16,32.17,32.17,0,0,0,10.89,3.1s0,0,0,0a.7.7,0,0,0,.18.05,23.65,23.65,0,0,1,7.54,1.91,3.18,3.18,0,0,1,1.71,1.89,1.23,1.23,0,0,1-.35,1.13c-1.64,2-16.75-.39-24.33-2.39-12.24-3.25-20.94-8.48-25.83-15.53a1.32,1.32,0,0,0-1.08-.54c-.11,0-5,.26-10.62.52l.46-1.07c3.52-8.24,3.73-14.8,3.93-20.58a42.77,42.77,0,0,1,6,1.56,1.22,1.22,0,0,0,1.35-.36c4.31-5.07,11.86-8.42,21.82-9.7,5.73-.75,15.69-1,18.08,1.36a1.22,1.22,0,0,1,.39,1.18c-.14,1.26-3.47,2.42-5.88,3.25-3.86,1.32-7.81,2.71-7.15,5.94s5.5,4.31,8.7,4.93l.28.07a105.88,105.88,0,0,0,16,1.62c5.14.24,9.59.45,10.69,1.82a1.51,1.51,0,0,1,.21,1.32c-.25,1.49-3,2.46-7.63,2.74h-.1c-.16,0-16.15,1.1-26.07-3.32a1.24,1.24,0,0,0-1.64.62,1.26,1.26,0,0,0,.63,1.64c10.49,4.67,26.58,3.58,27.26,3.53h0c2.94.27,5.34.43,7.6.54S662.64,408.34,662.71,409.53Z"/><path d="M598.6,110.14c-1.29-9.74-3-15.86-11-22.55-8.51-7.12-21.29-9.08-31.15-3.58a25.65,25.65,0,0,0-7.78,6.81c-4.64,4.27,12.9,12.24,22.15,19.91,8.92,7.4,17.65,12.17,23,25.48,3.51,10.52,2.3,20.86-.86,31.24-.76,2.47-2.31,5.75-1.8,8.4,1.08,5.64,11.91,1.34,15-.43,17.9-10.34,13.8-35.16,3-48.92C605,121.24,599.54,117.26,598.6,110.14Z"/><path class="cls-11" d="M604.94,156.2c1.28,13.72-2.4,26.59-15.64,31.56-10.14,3.8-21.25,2.62-30.76-1.09l-15.3-9.17c-23.27-19.5-33.46-56.16-3.42-72.69,12-6.62,26.35-4,37.53,3.06,12.08,7.66,20.34,20.23,24.57,33.74.14.48.3,1,.42,1.46A67.66,67.66,0,0,1,604.94,156.2Z"/><g class="cls-24"><path class="cls-23" d="M574.22,160.56c-3.63-8-19.07-2.79-16.34,6.08,2,6.39,12.51,4.83,15.63-.23A6.07,6.07,0,0,0,574.22,160.56Z"/><path class="cls-23" d="M604.94,156.2c-4.35,2-10.16,1.46-11.56-3.12-1.73-5.58,3.76-9.72,9-10A67.66,67.66,0,0,1,604.94,156.2Z"/></g><path class="cls-12" d="M603.11,141.24c-4.66-14.88-13.57-27.1-25.11-34.41-12.93-8.18-27.42-9.35-38.77-3.1s-17.91,15.74-19.07,27.53c-1.56,16,7.18,34.53,22.27,47.19a1.24,1.24,0,0,0,1.6-1.9c-14.49-12.15-22.89-29.83-21.4-45.05,1.07-10.94,7.22-19.79,17.8-25.6s24.09-4.67,36.25,3c11,7,19.58,18.72,24.06,33,10.44,33.34-6.45,42.57-11.88,44.61-8.9,3.34-19.52,3-29.88-1.07a1.24,1.24,0,0,0-.9,2.31A47.55,47.55,0,0,0,581.41,191a38,38,0,0,0,8.32-2.06C608.4,181.91,608.89,159.69,603.11,141.24Z"/><path d="M580.12,130.26c2.06,3.58,11.29-.34,10.92-4.08C590.51,120.87,577,124.85,580.12,130.26Z"/><path d="M555.82,140.88c2.28,3,11.7-.44,10.77-4.47C565.18,130.33,552.58,136.63,555.82,140.88Z"/><path d="M576.74,141.84a1.24,1.24,0,0,0,.1,1.75c.06,0,5.78,5.1,7.36,6.91a1.35,1.35,0,0,1,.43,1.2c-.11.61-.84,1.93-4.44,3.84a1.24,1.24,0,0,0-.52,1.68,1.25,1.25,0,0,0,1.26.65,1.39,1.39,0,0,0,.42-.14c3.54-1.88,5.36-3.65,5.72-5.58a3.8,3.8,0,0,0-1-3.28c-1.68-1.93-7.34-6.93-7.58-7.14A1.23,1.23,0,0,0,576.74,141.84Z"/><path d="M546.71,165.73,542,164a1.24,1.24,0,1,0-.85,2.33l4.67,1.7a1.35,1.35,0,0,0,.59.07,1.24,1.24,0,0,0,1-.81A1.23,1.23,0,0,0,546.71,165.73Z"/><path d="M592.62,137.69a3.42,3.42,0,1,0-2.06,4.37A3.41,3.41,0,0,0,592.62,137.69Z"/><path d="M565,145a3.42,3.42,0,1,0,4.37,2.06A3.43,3.43,0,0,0,565,145Z"/><path d="M501,112.55c-5.86,13.32-3,28.44-.31,42.2,3.78,19.22-12.21,35.87-4.4,55,3.76,9.21,13,17.29,13.18,28,.09,6.5-8.93,23.33,1.79,26.75,16.42,5.24,63.4-7.72,57.9-24.12-2.91-8.7-19.14-16.35-19.42-27.17-.11-4.49,2.8-8,4-12.17a23.53,23.53,0,0,0-9.61-26.08c-3.8-2.55-9.89-5.75-8.62-11.33,1.32-5.81,8.45-4.69,11.93-8.32,5.63-5.9,2.46-15.17,5.62-22,4-8.58,15.91-9.45,20.79-17,7.53-11.61-5.14-23.66-15.05-28.31C537.14,77.84,510.29,91.52,501,112.55Z"/><path class="cls-23" d="M518.88,105.54c-5.41,3.67-9.1,9.35-11.29,15.39-5.11,14.42.92,23,1.66,32.67,3.14,28.5-18.53,38-.71,58.68,8.37,9.73,10.67,23.49,10.19,36a1,1,0,0,0,2.07.15c1.4-12.16-.16-26.92-7.23-35.85-5.85-7.38-9.83-14-7-23.47,2.45-8.25,6-15.77,6.76-24.49a58.47,58.47,0,0,0,.15-6.62c-.86-17.1-7.58-21.5-3-36.11,3.07-10.23,9.72-14.91,9.6-14.77a1,1,0,0,0-1.15-1.57Z"/><path class="cls-23" d="M575.73,106.86h0a1.05,1.05,0,0,0,2-.68C576.08,96,567.07,86.88,556.81,86.87a1,1,0,0,0-.36,1.91C566.33,92.62,570.52,97.68,575.73,106.86Z"/></g></g></g></svg>