<svg xmlns="http://www.w3.org/2000/svg" xmlns:xlink="http://www.w3.org/1999/xlink" viewBox="0 0 1093.87 540.12">
<defs>
    <style>
        .cls-1 {
            fill: none;
        }
        .cls-2 {
            fill: #700000;
        }
        .cls-3 {
            fill: url(#linear-gradient);
        }
        .cls-4 {
            fill: url(#linear-gradient-2);
        }
        .cls-5 {
            fill: url(#linear-gradient-3);
        }
        .cls-6 {
            fill: url(#linear-gradient-4);
        }
        .cls-7 {
            fill: url(#linear-gradient-5);
        }
        .cls-8 {
            fill: url(#linear-gradient-6);
        }
        .cls-9 {
            fill: url(#linear-gradient-7);
        }
        .cls-10 {
            fill: url(#linear-gradient-8);
        }
        .cls-11 {
            fill: url(#linear-gradient-9);
        }
        .cls-12 {
            clip-path: url(#clip-path);
        }
        .cls-13 {
            fill: url(#linear-gradient-10);
        }
        .cls-14 {
            fill: #fff;
        }
        .cls-15 {
            fill: url(#linear-gradient-11);
        }
        .cls-16 {
            fill: url(#linear-gradient-12);
        }
        .cls-17 {
            fill: url(#linear-gradient-13);
        }
        .cls-18 {
            fill: url(#linear-gradient-14);
        }
        .cls-19,
        .cls-20,
        .cls-21 {
            opacity: 0.7;
        }
        .cls-19 {
            fill: url(#linear-gradient-15);
        }
        .cls-20 {
            fill: url(#linear-gradient-16);
        }
        .cls-21 {
            fill: url(#linear-gradient-17);
        }

        #_share_icon_svg_{
            animation: 1s 1 forwards cubic-bezier(.36,-0.01,.5,1.38) lightSpeedRight,3s Infinite  linear floating;animation-delay: 0s,1s;
        }
        @keyframes floating {
            0% {opacity: 1;transform: translate(0px, 0px);}
            50% {transform: translate(-10px, 10px);}
            100% {opacity: 1;transform: translateY(0px, 0px);}
        }
    </style>
    <linearGradient id="linear-gradient" x1="105.2" y1="334.05" x2="927.05" y2="334.05" gradientUnits="userSpaceOnUse">
        <stop offset="0" stop-color="#ff8f00" />
        <stop offset="1" stop-color="#ff0700" />
    </linearGradient>
    <linearGradient id="linear-gradient-2" x1="790.8" y1="51.98" x2="188.32" y2="185.24" xlink:href="#linear-gradient" />
    <linearGradient id="linear-gradient-3" x1="922.76" y1="457.66" x2="454.53" y2="561.23" xlink:href="#linear-gradient" />
    <linearGradient id="linear-gradient-4" x1="130.09" y1="484.77" x2="155.02" y2="470.39" gradientUnits="userSpaceOnUse">
        <stop offset="0" stop-color="#ff3100" />
        <stop offset="1" stop-color="#850000" />
    </linearGradient>
    <linearGradient id="linear-gradient-5" x1="141.19" y1="365.35" x2="153.17" y2="443.97" gradientUnits="userSpaceOnUse">
        <stop offset="0" stop-color="#f0f3f3" />
        <stop offset="0.07" stop-color="#e9eeee" />
        <stop offset="0.73" stop-color="#a2b9b9" />
        <stop offset="1" stop-color="#829a98" />
    </linearGradient>
    <linearGradient id="linear-gradient-6" x1="54.22" y1="427.22" x2="80.81" y2="427.22" xlink:href="#linear-gradient-4" />
    <linearGradient id="linear-gradient-7" x1="175.21" y1="385.75" x2="254.63" y2="385.75" xlink:href="#linear-gradient-4" />
    <linearGradient id="linear-gradient-8" x1="261.39" y1="377.16" x2="203.19" y2="393.9" gradientUnits="userSpaceOnUse">
        <stop offset="0" stop-color="#ff4c00" />
        <stop offset="1" stop-color="#740000" />
    </linearGradient>
    <linearGradient id="linear-gradient-9" x1="212.33" y1="390.98" x2="272.25" y2="374.68" gradientUnits="userSpaceOnUse">
        <stop offset="0" stop-color="#6a0000" />
        <stop offset="1" stop-color="#d40000" />
    </linearGradient>
    <clipPath id="clip-path"><path class="cls-1" d="M253.1,380.11c26.89,103.64-13.24,114.15-40.64,10.64C185.57,287.09,225.7,276.58,253.1,380.11Z" /></clipPath>
    <linearGradient id="linear-gradient-10" x1="186.36" y1="393.62" x2="244.41" y2="393.62" gradientUnits="userSpaceOnUse">
        <stop offset="0" stop-color="#6d6e71" />
        <stop offset="1" stop-color="#231f20" />
    </linearGradient>
    <linearGradient id="linear-gradient-11" x1="219.9" y1="193.47" x2="255.71" y2="193.47" xlink:href="#linear-gradient" />
    <linearGradient id="linear-gradient-12" x1="5202.7" y1="-6276.09" x2="5238.51" y2="-6276.09" gradientTransform="matrix(0.3, -0.57, 0.57, 0.3, 2050.89, 5205.31)" xlink:href="#linear-gradient" />
    <linearGradient id="linear-gradient-13" y1="457.48" x2="47" y2="457.48" gradientUnits="userSpaceOnUse">
        <stop offset="0" stop-color="#ffc400" />
        <stop offset="1" stop-color="#ff6e00" />
    </linearGradient>
    <linearGradient id="linear-gradient-14" x1="704.29" y1="126.62" x2="883.15" y2="126.62" gradientUnits="userSpaceOnUse">
        <stop offset="0.21" stop-color="#ff8f00" />
        <stop offset="1" stop-color="#ff5c00" />
    </linearGradient>
    <linearGradient id="linear-gradient-15" x1="800.59" y1="112.87" x2="878" y2="112.87" gradientUnits="userSpaceOnUse">
        <stop offset="0" />
        <stop offset="0.5" stop-color="#444" />
        <stop offset="1" stop-color="#212121" />
    </linearGradient>
    <linearGradient id="linear-gradient-16" x1="730.85" y1="92.15" x2="861.74" y2="92.15" xlink:href="#linear-gradient-15" />
    <linearGradient id="linear-gradient-17" x1="789.96" y1="152.86" x2="807.8" y2="152.86" xlink:href="#linear-gradient-15" />
</defs>
<g id="Layer_2" data-name="Layer 2">
    <g id="OBJECTS">
        <path class="cls-2" d="M899,488.52,138.3,476.6c2.72-3.75,202.87-279.12,205.63-282.93l655.9,3.85Zm-752.3-16.1L895.9,484.17l97.9-282.39L346.12,198Z" />
        <polygon
            class="cls-3"
            points="105.2 369.18 180.65 335.36 127.33 283.75 218.18 281.73 212.12 229.24 262.62 265.54 341.33 142.43 319.12 243.37 927.05 127.97 872.58 437.61 430.16 503.78 459.63 534.14 317.1 493.69 319.12 540.12 257.39 483.34 187.9 530.03 217.95 448.89 105.2 369.18"
        />
        <polygon class="cls-4" points="651.45 95.87 383.94 175.99 608.8 58.21 651.45 95.87" />
        <polygon class="cls-5" points="949.39 489.52 611.95 488.66 972.81 445.08 949.39 489.52" />
        <path class="cls-6" d="M108.66,445,148,509.7s5.74,11.78,15.8,7.55,8-10.07,2.11-22.35-23-39.15-20.07-54.27Z" />
        <path class="cls-7" d="M58.76,406.36C48.7,418,56.32,447.23,70.85,452.49c13.5,4.69,96.26-17.52,182.91,21.68-11.53-44-34.71-132.43-46.23-176.38C151.25,374.44,68.23,395.66,58.76,406.36Z" />
        <path class="cls-8" d="M70.11,428a95.92,95.92,0,0,1-3.06-27.27c-16.49,5.52-13.11,27-11.12,31,.24,4.48,7.82,24.84,24.88,21.54A96,96,0,0,1,70.11,428Z" />
        <path class="cls-9" d="M208.4,297.57,176.21,325.4S165.67,400.34,213.05,466l41.58,8Z" />
        <path class="cls-10" d="M259.89,378.32c29.85,116-25.88,130.57-56.75,14.86C173.29,277.21,229,262.63,259.89,378.32Z" />
        <path class="cls-11" d="M253.1,380.11c26.89,103.64-13.24,114.15-40.64,10.64C185.57,287.09,225.7,276.58,253.1,380.11Z" />
        <g class="cls-12"><path class="cls-13" d="M241.46,386.79c15.64,62.42-35.17,75.72-52.15,13.66C173.67,338,224.48,324.73,241.46,386.79Z" /></g>
        <path class="cls-14" d="M76.59,401.42s67.53-28,84.72-49.63l.78,9.52S123.24,387.49,76.59,401.42Z" />
        <polygon class="cls-15" points="219.9 171.65 255.71 160.5 240.78 226.44 219.9 171.65" />
        <polygon class="cls-16" points="49.09 325.81 53.64 302.02 86.64 330.6 49.09 325.81" />
        <path class="cls-17" d="M23.5,481A23.51,23.51,0,1,1,47,457.49,23.53,23.53,0,0,1,23.5,481Zm0-42.71a19.21,19.21,0,1,0,19.2,19.21A19.23,19.23,0,0,0,23.5,438.28Z" />
        <path
            class="cls-14"
            d="M948.86,319.52c-1-36.91,22.14-66.77,53.53-71.75,29.4-4.66,50.29,15.26,51.1,45.28,1,35.92-22.12,67.75-53.51,72.73C970.58,370.44,949.67,349.54,948.86,319.52ZM986.59,17,1093.87,0l-46.32,220.85L976,232.18Z"
        />
        <path
            class="cls-14"
            d="M343.18,364.41c-18.85,3-34.65-4.23-35.22-22.13l18.58-2.94c.49,7.25,6,11.83,15,10.41,8.57-1.36,13.72-5.9,12.58-13.05-2.59-16.38-42.2-5.7-47.05-32.91-3-17.5,9.7-30.45,29.19-33.54s33.19,5.13,34.51,21l-19.36,3.07c-.21-6.36-5.28-10.62-13.73-9.28-8.06,1.28-13,6.2-12,12.82,2.52,15.86,43.08,7,47.39,34.19C375.56,347.69,364,361.11,343.18,364.41Z"
        />
        <path class="cls-14" d="M445.65,307.4l-38.73,6.14-.73,39.95-18.32,2.9,1.73-93.26,18.2-2.89-.68,38.61L446,292.69l.67-38.61,18.2-2.88-1.61,93.24-18.32,2.91Z" />
        <path class="cls-14" d="M537.05,315l-36.26,5.75-6.23,18.71-19.1,3,34.33-98.57L531,240.58l30.9,88.23-19.23,3Zm-17.18-51.23L506,305.43l26.51-4.2Z" />
        <path
            class="cls-14"
            d="M609.88,228.2c21.84-3.46,32.41,7.79,32.22,23.41-.21,11.22-6.37,23.66-21.07,30.12l21,34.36-21.18,3.36-19.12-33.2-8.71,1.38L592.42,324l-18.32,2.91,1.73-93.27ZM609,243.41l-15.2,2.41-.5,27.92,15.2-2.41c10-1.59,14.86-7.95,15-16.37S619,241.82,609,243.41Z"
        />
        <path class="cls-14" d="M711.55,226.61l-34.44,5.46-.43,24.18,30.54-4.84L707,265.84l-30.54,4.84-.4,25.24,34.44-5.46-.31,14.84-52.76,8.36,1.71-93.39,52.63-8.35Z" />
        <path class="cls-14" d="M746.88,250.49l38.73-6.14-.19,8.57-14,2.21-.81,45.73-10.67,1.69.82-45.73-14.08,2.24Z" />
        <path
            class="cls-14"
            d="M817.14,294c-13.54,2.15-23.92-5.59-26-18.68-2.93-18.46,8.11-33.94,26.27-36.81,13.69-2.17,24,5.5,26,18.51C846.41,275.66,835.45,291.13,817.14,294Zm0-10c11.65-1.85,17.58-12.87,15.77-24.29-1.31-8.25-7-12.55-15.35-11.22C806,250.36,800,261.23,801.82,272.73,803.13,281,808.71,285.36,817.11,284Z"
        />
        <path
            class="cls-14"
            d="M473,372.89c20.27-3.21,36.2,4.79,41.81,22.55l-20.92,3.32c-4.08-7.22-11.47-10.18-21.09-8.65-16.25,2.57-27.8,16.26-28.05,34.82-.46,19,10.71,28.94,27.74,26.25,13.9-2.21,23.28-12,26.16-25.73l-31.19,4.94.16-14.15,49.12-7.78-.35,16.3c-4,19.55-20.77,39.54-45,43.37C445,472.31,425.49,455.82,426,427.9S446.71,377.05,473,372.89Z"
        />
        <path
            class="cls-14"
            d="M565,359.49c21.83-3.46,32.41,7.79,32.22,23.41-.22,11.22-6.38,23.66-21.07,30.12l21,34.36L576,450.74l-19.12-33.2-8.71,1.38-.63,36.33-18.33,2.91L531,364.89Zm-.92,15.21-15.21,2.41L548.4,405l15.2-2.41c10-1.59,14.86-7.95,15-16.37S574.11,373.11,564.11,374.7Z"
        />
        <path
            class="cls-14"
            d="M655.19,439.12c-23.26,3.69-41.09-9.6-44.66-32.08-5-31.71,13.94-58.3,45.13-63.25,23.53-3.73,41.2,9.46,44.75,31.81C705.47,407.57,686.64,434.14,655.19,439.12ZM655.13,422c20-3.18,30.2-22.11,27.09-41.73C680,366.05,670.28,358.66,655.85,361c-19.88,3.15-30.11,21.83-27,41.58C631.12,416.7,640.71,424.23,655.13,422Z"
        />
        <path class="cls-14" d="M710.19,336.48l19.5-3.09,14.8,69.86,19.64-75.32,20.27-3.21,16,69.26,17.49-74.58,19.62-3.11-27.07,97.28L789,417l-15.82-63.7-18.88,69.2L733,426Z" />
        <g id="_share_icon_svg_">
            <path d="M730,63.93A91.27,91.27,0,1,1,730,193,91.27,91.27,0,0,1,730,63.93Z" />
            <path class="cls-18" d="M883.15,126.62A89.43,89.43,0,1,1,793.72,37.2,89.43,89.43,0,0,1,883.15,126.62Z" />
            <path
                class="cls-14"
                d="M871.29,67.09l-99.62,61c2.14,6.6,4.25,13.1,6.35,19.6.35,1.08.72,2.16,1,3.26a4.07,4.07,0,1,1-7.74,2.5c-1.93-5.71-4.13-11.35-5.53-17.19-1.23-5.17-3.88-8.06-8.9-10-9.06-3.42-17.84-7.6-26.72-11.5-4-1.78-7-4.56-7.62-9.21s1.63-8.36,5.39-10.81a33.39,33.39,0,0,1,8.74-4q76.38-22.26,152.81-44.34a4.19,4.19,0,0,1,4.56,1,4.12,4.12,0,0,1,.72,4.6q-17.62,46.89-35.22,93.81c-.62,1.66-1.37,3.27-2,4.91-3.58,8.66-9.57,11.85-18.68,9.6a72.83,72.83,0,0,1-9.25-3.4q-6-2.41-11.92-5a2.05,2.05,0,0,0-2.51.38q-14.22,12.24-28.51,24.39a21.83,21.83,0,0,1-1.77,1.44,3.85,3.85,0,0,1-4.47.12,3.71,3.71,0,0,1-1.89-3.86A17.84,17.84,0,0,1,779,172c3.17-11.88,6.32-23.77,9.59-35.62a6.24,6.24,0,0,1,2-2.85q37.51-30.68,75.09-61.28l5.8-4.75ZM878,73.27l-.23-.3-77.18,63c12.56,5.25,24.82,10.43,37.12,15.46a23.57,23.57,0,0,0,6.08,1.32,4.4,4.4,0,0,0,4.89-2.82c1.24-2.84,2.65-5.62,3.75-8.52,5-13.14,9.91-26.32,14.85-39.49Q872.64,87.58,878,73.27Zm-16.26-9.94-.12-.32-.88.24Q801.42,80.43,742.09,97.64a45.84,45.84,0,0,0-8.47,3.24c-1.28.66-2.74,2.37-2.77,3.63,0,1,1.89,2.38,3.22,3,10.17,4.56,20.43,8.93,30.63,13.45a3.24,3.24,0,0,0,3.45-.29q36.48-22.4,73-44.7ZM790,163.05l17.84-15.24-12.36-5.13C793.61,149.48,791.86,156,790,163.05Z"
            />
            <path class="cls-19" d="M878,73.27q-5.37,14.31-10.72,28.62c-4.94,13.17-9.85,26.35-14.85,39.49-1.1,2.9-2.51,5.68-3.75,8.52a4.4,4.4,0,0,1-4.89,2.82,23.57,23.57,0,0,1-6.08-1.32c-12.3-5-24.56-10.21-37.12-15.46l77.18-63Z" />
            <path
                class="cls-20"
                d="M861.74,63.33,841.16,75.94q-36.51,22.34-73,44.7a3.24,3.24,0,0,1-3.45.29c-10.2-4.52-20.46-8.89-30.63-13.45-1.33-.59-3.24-2-3.22-3,0-1.26,1.49-3,2.77-3.63a45.84,45.84,0,0,1,8.47-3.24Q801.4,80.39,860.74,63.25l.88-.24Z"
            />
            <path class="cls-21" d="M790,163.05c1.9-7,3.65-13.57,5.48-20.37l12.36,5.13Z" />
        </g>
    </g>
</g>
</svg>