<?xml version="1.0" encoding="UTF-8"?>
<svg id="Layer_1" data-name="Layer 1" xmlns="http://www.w3.org/2000/svg" xmlns:xlink="http://www.w3.org/1999/xlink" viewBox="0 0 1080 348">
  <defs>
    <style>
      .cls-1 {
        fill: url(#linear-gradient-2);
      }

      .cls-2 {
        fill: url(#linear-gradient-5);
      }

      .cls-3 {
        fill: url(#linear-gradient-3);
      }

      .cls-4 {
        fill: url(#linear-gradient);
      }

      .cls-5 {
        fill: url(#linear-gradient-4);
      }
    </style>
    <linearGradient id="linear-gradient" x1="131.8" y1="115.08" x2="170.15" y2="149.49" gradientTransform="translate(0 -10.26)" gradientUnits="userSpaceOnUse">
      <stop offset="0" stop-color="#00ffaf"/>
      <stop offset=".06" stop-color="#00edad"/>
      <stop offset=".32" stop-color="#00a6a7"/>
      <stop offset=".55" stop-color="#006ea2"/>
      <stop offset=".75" stop-color="#00469f"/>
      <stop offset=".91" stop-color="#002d9d"/>
      <stop offset="1" stop-color="#00249c"/>
    </linearGradient>
    <linearGradient id="linear-gradient-2" x1="124.69" y1="95.12" x2="192.19" y2="155.7" xlink:href="#linear-gradient"/>
    <linearGradient id="linear-gradient-3" x1="168.88" y1="231.01" x2="169.28" y2="231.36" xlink:href="#linear-gradient"/>
    <linearGradient id="linear-gradient-4" x1="163.87" y1="184.87" x2="58.83" y2="268.65" xlink:href="#linear-gradient"/>
    <linearGradient id="linear-gradient-5" x1="97.29" y1="65.75" x2="369.15" y2="309.75" xlink:href="#linear-gradient"/>
  </defs>
  <path d="m329.84,107.98v64.1h-15.46v-38.52l-14.34,38.52h-12.65l-14.34-38.52v38.52h-15.46v-64.1h18.27l17.99,44.42,17.99-44.42c-.28,0,17.99,0,17.99,0Z"/>
  <path d="m449.33,121.2v50.89h-15.46v-7.03c-1.69,2.25-3.94,3.94-6.47,5.62-2.53,1.41-5.62,2.25-9,2.25-3.94,0-7.31-.84-10.12-2.53-2.81-1.69-5.34-4.22-7.03-7.59s-2.25-7.03-2.25-11.81v-29.8h15.46v27.55c0,3.37.84,5.9,2.53,7.87,1.69,1.97,3.94,2.81,7.03,2.81s5.62-.84,7.03-2.81c1.69-1.97,2.53-4.5,2.53-7.87v-27.55h15.74Z"/>
  <path d="m488.97,158.87v13.21h-7.87c-5.62,0-10.12-1.41-13.21-3.94-3.09-2.81-4.78-7.31-4.78-13.49v-20.24h-6.19v-12.93h6.19v-12.37h15.46v12.37h10.12v12.93h-10.12v20.52c0,1.41.56,2.53,1.12,3.37.84.84,1.97.84,3.65.84,0-.28,5.62-.28,5.62-.28Z"/>
  <path d="m542.66,126.54c3.65,3.94,5.34,9,5.34,16.02v29.52h-15.46v-27.83c0-3.37-.84-5.9-2.53-7.87-1.69-1.97-3.94-2.81-7.03-2.81-2.81,0-5.34.84-7.03,2.81s-2.53,4.5-2.53,7.87v27.83h-15.46v-67.47h15.46v23.33c1.69-2.25,3.94-3.94,6.47-5.62,2.53-1.41,5.62-1.97,9.28-1.97,5.62,0,10.4,1.97,13.49,6.19Z"/>
  <path d="m605.36,138.91c-1.69,3.09-4.22,5.62-7.87,7.31-3.65,1.97-7.87,2.81-13.21,2.81h-9.84v23.05h-15.46v-64.1h25.3c5.06,0,9.56.84,12.93,2.53,3.65,1.69,6.19,4.22,7.87,7.31s2.53,6.75,2.53,10.68c.28,3.94-.56,7.31-2.25,10.4Zm-15.46-4.5c1.41-1.41,2.25-3.37,2.25-5.9s-.84-4.5-2.25-5.9-3.65-2.25-6.75-2.25h-8.72v16.02h8.72c2.81.28,5.34-.56,6.75-1.97Z"/>
  <path d="m666.08,121.2v50.89h-15.46v-7.03c-1.69,2.25-3.94,3.94-6.47,5.62-2.53,1.41-5.62,2.25-9,2.25-3.94,0-7.31-.84-10.12-2.53-2.81-1.69-5.34-4.22-7.03-7.59-1.69-3.37-2.25-7.03-2.25-11.81v-29.8h15.46v27.55c0,3.37.84,5.9,2.53,7.87,1.69,1.97,3.94,2.81,7.03,2.81s5.62-.84,7.03-2.81c1.69-1.97,2.53-4.5,2.53-7.87v-27.55h15.74Z"/>
  <path d="m699.26,122.6c2.53-1.41,5.9-2.25,9.28-2.25,4.22,0,8.15.84,11.53,3.09,3.37,2.25,6.19,5.34,8.15,9,1.97,3.94,2.81,8.72,2.81,13.78s-.84,9.84-2.81,13.78c-1.97,3.94-4.78,7.03-8.15,9.28s-7.03,3.37-11.53,3.37c-3.65,0-6.75-.84-9.28-2.25-2.53-1.41-4.78-3.37-6.19-5.62v7.31h-15.46v-67.75h15.46v23.9c1.41-2.25,3.65-4.22,6.19-5.62Zm12.65,14.9c-2.25-2.25-4.78-3.37-7.87-3.37s-5.62,1.12-7.87,3.37-3.37,5.34-3.37,9.28,1.12,7.03,3.37,9.28,4.78,3.37,7.87,3.37,5.62-1.12,7.87-3.37,3.37-5.34,3.37-9.28-1.12-7.31-3.37-9.28Z"/>
  <path d="m754.92,104.33v67.47h-15.46v-67.47h15.46Z"/>
  <path d="m767.58,113.33c-1.69-1.69-2.53-3.65-2.53-5.9s.84-4.5,2.53-5.9c1.69-1.41,3.94-2.25,6.75-2.25,2.53,0,4.78.84,6.75,2.25,1.97,1.69,2.53,3.65,2.53,5.9s-.84,4.22-2.53,5.9-3.94,2.25-6.75,2.25c-3.09,0-5.06-.56-6.75-2.25Zm14.34,7.87v50.89h-15.46v-50.89h15.46Z"/>
  <path d="m793.16,132.72c2.25-3.94,5.34-7.03,9-9,3.65-1.97,8.43-3.09,13.49-3.09,6.47,0,11.81,1.69,16.02,5.06s7.03,8.15,8.43,14.06h-16.87c-1.41-3.94-3.94-5.62-8.15-5.62-2.81,0-5.34,1.12-7.03,3.37s-2.53,5.62-2.53,9.56.84,7.31,2.53,9.56c1.69,2.25,3.94,3.37,7.03,3.37,3.94,0,6.75-1.97,8.15-5.62h16.59c-1.41,5.9-3.94,10.68-8.72,14.06-4.22,3.37-9.56,5.06-16.02,5.06-5.06,0-9.28-.84-13.49-3.09-3.94-2.25-7.03-5.34-9-9-2.25-3.94-3.37-8.72-3.37-13.78.56-5.9,1.97-10.96,3.94-14.9Z"/>
  <path d="m849.67,113.33c-1.69-1.69-2.53-3.65-2.53-5.9s.84-4.5,2.53-5.9c1.69-1.41,3.94-2.25,6.75-2.25,2.53,0,4.78.84,6.75,2.25,1.97,1.69,2.53,3.65,2.53,5.9s-.84,4.22-2.53,5.9-3.94,2.25-6.75,2.25c-3.09,0-5.06-.56-6.75-2.25Zm14.06,7.87v50.89h-15.46v-50.89h15.46Z"/>
  <path d="m903.65,158.87v13.21h-7.87c-5.62,0-10.12-1.41-13.21-3.94-3.09-2.81-4.78-7.31-4.78-13.49v-20.24h-6.19v-12.93h6.19v-12.37h15.46v12.37h10.12v12.93h-9.84v20.52c0,1.41.56,2.53,1.12,3.37.84.84,1.97.84,3.65.84,0-.28,5.34-.28,5.34-.28Z"/>
  <path d="m964.37,121.2l-32.05,75.06h-16.59l11.81-25.86-20.8-49.2h17.43l11.81,31.77,11.81-31.77s16.59,0,16.59,0Z"/>
  <path d="m350.61,169.8c-3.98-2.13-7.11-5.17-9.39-9.12-2.28-3.95-3.42-8.57-3.42-13.86s1.15-9.83,3.47-13.81c2.31-3.98,5.47-7.04,9.48-9.17,4.01-2.13,8.51-3.19,13.5-3.19s9.48,1.06,13.5,3.19c4.01,2.13,7.17,5.18,9.48,9.17,2.31,3.98,3.46,8.59,3.46,13.81s-1.17,9.83-3.51,13.82c-2.34,3.98-5.53,7.04-9.58,9.17-4.04,2.13-8.56,3.19-13.54,3.19s-9.47-1.06-13.45-3.19Zm21.06-13.59c2.1-2.19,3.15-5.32,3.15-9.39s-1.02-7.2-3.05-9.39c-2.04-2.19-4.54-3.28-7.52-3.28s-5.56,1.08-7.57,3.24c-2.01,2.16-3.01,5.3-3.01,9.44s.99,7.2,2.96,9.39c1.97,2.19,4.45,3.28,7.43,3.28s5.52-1.09,7.61-3.28Z"/>
  <g>
    <path d="m282.61,204.98v31.77c0,4.5-1.12,7.87-3.65,10.4-2.81,2.25-6.19,3.37-10.68,3.37-4.22,0-7.87-1.12-10.4-3.65-2.53-2.53-3.65-5.9-3.65-10.68h9.28c0,1.97.56,3.37,1.41,4.5s1.97,1.41,3.65,1.41,2.81-.56,3.65-1.41,1.12-2.25,1.12-3.94v-31.49h9.28s0-.28,0-.28Z"/>
    <path d="m330.12,214.25v35.99h-9.28v-4.5c-1.12,1.41-2.53,2.53-4.5,3.37-1.69.84-3.65,1.12-6.19,1.12-2.81,0-5.34-.56-7.59-1.69-1.97-1.12-3.65-2.81-5.06-5.34s-1.69-5.06-1.69-8.43v-20.8h9.28v19.68c0,2.81.56,5.06,1.97,6.47s3.09,2.25,5.9,2.25c2.25,0,4.5-.84,5.9-2.25s1.97-3.65,1.97-6.47v-19.68h9v.28h.28Z"/>
    <path d="m348.4,249.4c-2.25-1.12-3.94-2.25-5.62-4.5-1.41-1.69-1.97-3.65-2.25-5.9h9.28c.28,1.41.84,2.53,1.97,3.37,1.12.84,2.53,1.41,4.5,1.41,1.69,0,2.81-.28,3.94-1.12.84-.56,1.41-1.41,1.41-2.53s-.56-1.97-1.69-2.53-2.81-1.12-5.62-1.69-4.78-1.12-6.47-1.97c-1.69-.56-3.09-1.69-4.5-3.09s-1.69-3.09-1.69-5.9c0-1.97.56-3.65,1.69-5.34s2.53-2.81,5.06-3.65c2.25-.84,4.78-1.41,7.87-1.41,3.94,0,7.87,1.12,10.4,3.09,2.53,1.97,3.65,5.06,3.94,8.72h-8.72c0-1.41-.56-2.53-1.69-3.37-1.12-.84-2.25-1.12-3.94-1.12s-2.81.28-3.65.84-1.12,1.41-1.12,2.53.56,1.97,1.69,2.53c1.12.56,2.81,1.12,5.62,1.69,2.53.56,4.78,1.12,6.47,1.97,1.69.56,3.09,1.69,4.5,3.09,1.12,1.41,1.69,3.09,1.69,5.62,0,1.97-.56,3.65-1.69,5.62-1.12,1.69-2.53,2.81-5.06,3.65-1.97.84-4.78,1.41-7.59,1.41-3.65,0-6.47-.56-8.72-1.41Z"/>
    <path d="m391.69,221.85v17.43c0,1.12.28,1.97.84,2.53.56.56,1.41.84,2.81.84h3.94v7.87h-5.62c-7.87,0-11.53-3.65-11.53-11.25v-17.43h-3.94v-7.59h3.94v-9h9.28v9h8.15v7.59h-7.87Z"/>
    <path d="m483.63,217.63c2.53,2.53,3.94,6.47,3.94,11.25v20.8h-9.28v-19.4c0-2.53-.56-5.06-1.97-6.47s-3.09-2.25-5.9-2.25-4.5.84-5.9,2.25-1.97,3.37-1.97,6.47v19.68h-9.28v-19.68c0-2.53-.56-5.06-1.97-6.47s-3.09-2.25-5.9-2.25c-2.25,0-4.5.84-5.9,2.25s-1.97,3.37-1.97,6.47v19.68h-9.28v-35.7h9.28v3.94c1.12-1.41,2.53-2.53,4.5-3.37,1.69-.84,3.65-1.12,5.9-1.12,2.81,0,5.34.56,7.59,1.69,1.97,1.12,3.65,2.81,5.06,5.06,1.12-1.97,2.81-3.65,5.06-5.06,2.25-1.12,4.78-1.69,7.31-1.69,4.5,0,7.87,1.41,10.68,3.94Z"/>
    <path d="m499.09,222.41c1.41-2.81,3.37-5.06,5.9-6.47,2.25-1.41,5.34-2.25,8.43-2.25,2.53,0,5.06.56,7.31,1.41,1.97.84,3.37,2.25,4.78,3.94v-5.06h9.28v35.99h-9.28v-4.78c-1.12,1.69-2.53,2.81-4.78,3.94-1.97,1.12-4.5,1.69-7.31,1.69s-5.9-.84-8.43-2.25-4.5-3.65-5.9-6.47-1.97-6.19-1.97-9.84c0-3.94.56-7.03,1.97-9.84Zm25.02,3.94c-.84-1.41-1.97-2.53-3.37-3.37s-2.81-1.12-4.78-1.12-3.09.28-4.78,1.12c-1.41.84-2.53,1.97-3.37,3.37s-1.12,3.37-1.12,5.62c0,1.97.28,3.94,1.12,5.62.84,1.41,1.97,2.81,3.37,3.65s2.81,1.12,4.78,1.12,3.09-.28,4.78-1.12c1.41-.84,2.53-1.97,3.37-3.37s1.12-3.37,1.12-5.62c0-2.53-.28-4.22-1.12-5.9Z"/>
    <path d="m576.96,217.63c2.53,2.53,3.65,6.47,3.65,11.25v20.8h-9.28v-19.4c0-2.81-.56-5.06-1.97-6.47s-3.09-2.25-5.9-2.25c-2.25,0-4.5.84-5.9,2.25s-1.97,3.65-1.97,6.47v19.68h-9.28v-35.7h9.28v4.5c1.12-1.41,2.53-2.53,4.78-3.37,1.69-.84,3.65-1.41,6.19-1.41,4.78-.28,7.87,1.12,10.4,3.65Z"/>
    <path d="m592.71,222.41c1.41-2.81,3.37-5.06,5.9-6.47,2.25-1.41,5.34-2.25,8.43-2.25,2.53,0,5.06.56,7.31,1.41,1.97.84,3.37,2.25,4.78,3.94v-5.06h9.28v35.99h-9.28v-4.78c-1.12,1.69-2.53,2.81-4.78,3.94-1.97,1.12-4.5,1.69-7.31,1.69s-5.9-.84-8.43-2.25c-2.25-1.41-4.5-3.65-5.9-6.47s-1.97-6.19-1.97-9.84c0-3.94.56-7.03,1.97-9.84Zm25.02,3.94c-.84-1.41-1.97-2.53-3.37-3.37s-2.81-1.12-4.78-1.12-3.09.28-4.78,1.12c-1.41.84-2.53,1.97-3.37,3.37s-1.12,3.37-1.12,5.62c0,1.97.28,3.94,1.12,5.62.84,1.41,1.97,2.81,3.37,3.65s2.81,1.12,4.78,1.12,3.09-.28,4.78-1.12c1.41-.84,2.53-1.97,3.37-3.37s1.12-3.37,1.12-5.62c0-2.53-.28-4.22-1.12-5.9Z"/>
    <path d="m661.31,215.1c1.97,1.12,3.37,2.25,4.78,3.94v-5.06h9.28v36.55c0,3.09-.56,6.19-1.97,9-1.41,2.53-3.09,4.78-5.9,6.19-2.53,1.41-5.9,2.25-9.84,2.25-5.06,0-9.28-1.12-12.37-3.37-3.09-2.25-5.06-5.62-5.62-9.84h9c.56,1.69,1.41,2.81,2.81,3.65s3.37,1.41,5.62,1.41c2.53,0,4.78-.84,6.47-2.25s2.25-3.65,2.25-7.31v-5.62c-1.12,1.69-2.53,2.81-4.78,3.94-1.97,1.12-4.5,1.69-7.31,1.69s-5.9-.84-8.43-2.25c-2.25-1.41-4.5-3.65-5.9-6.47s-1.97-6.19-1.97-9.84.56-6.75,1.97-9.84,3.37-5.06,5.9-6.47c2.25-1.41,5.34-2.25,8.43-2.25,3.37.56,5.9,1.12,7.59,1.97Zm3.37,11.25c-.84-1.41-1.97-2.53-3.37-3.37s-2.81-1.12-4.78-1.12-3.09.28-4.78,1.12c-1.41.84-2.53,1.97-3.37,3.37s-1.12,3.37-1.12,5.62c0,1.97.28,3.94,1.12,5.62.84,1.41,1.97,2.81,3.37,3.65s2.81,1.12,4.78,1.12,3.09-.28,4.78-1.12c1.41-.84,2.53-1.97,3.37-3.37s1.12-3.37,1.12-5.62c.28-2.53-.28-4.22-1.12-5.9Z"/>
    <path d="m720.63,235.06h-26.43c.28,2.53,1.12,4.78,2.53,6.19s3.37,1.97,5.9,1.97c3.09,0,5.9-1.41,7.31-4.5h9.84c-1.12,3.37-2.81,6.19-5.9,8.72-2.81,2.25-6.47,3.09-10.96,3.09-3.37,0-6.47-.84-9.28-2.25-2.53-1.41-5.06-3.65-6.47-6.47s-2.25-5.9-2.25-9.84.84-7.31,2.25-9.84c1.41-2.81,3.37-5.06,6.19-6.47,2.53-1.41,5.9-2.25,9.56-2.25,3.37,0,6.47.56,9.28,1.97,2.53,1.41,4.78,3.37,6.19,6.19,1.41,2.53,2.25,5.9,2.25,9.28.28,1.69.28,3.09,0,4.22Zm-9-6.47c0-2.25-.84-3.94-2.53-5.62-1.69-1.41-3.37-1.97-5.9-1.97-2.25,0-3.94.56-5.62,1.97s-2.25,3.09-2.81,5.62h16.87Z"/>
    <path d="m749.86,208.35c-1.12-.84-1.41-2.25-1.41-3.65s.56-2.53,1.41-3.65c1.12-.84,2.25-1.41,3.65-1.41s2.81.56,3.65,1.41c1.12.84,1.41,2.25,1.41,3.65s-.56,2.53-1.41,3.65c-1.12.84-2.25,1.41-3.65,1.41s-2.53-.28-3.65-1.41Zm8.72,5.9v35.99h-9.28v-35.99h9.28Z"/>
    <path d="m781.63,221.85v17.43c0,1.12.28,1.97.84,2.53.56.56,1.41.84,2.81.84h3.94v7.87h-5.62c-7.87,0-11.53-3.65-11.53-11.25v-17.43h-3.94v-7.59h3.94v-9h9.28v9h8.15v7.59h-7.87Z"/>
    <path d="m799.34,249.4c-1.12-.84-1.41-2.25-1.41-3.65s.56-2.53,1.41-3.65c1.12-.84,2.25-1.41,3.94-1.41,1.41,0,2.81.56,3.65,1.41,1.12.84,1.41,2.25,1.41,3.65s-.56,2.53-1.41,3.65c-1.12.84-2.25,1.41-3.65,1.41-1.69,0-3.09-.56-3.94-1.41Z"/>
  </g>
  <g>
    <path d="m967.47,170.4c-1.69-1.69-2.53-3.65-2.53-5.9,0-2.53.84-4.5,2.53-6.19s3.94-2.53,6.75-2.53c2.53,0,4.78.84,6.47,2.53s2.53,3.65,2.53,6.19c0,2.25-.84,4.22-2.53,5.9s-3.94,2.53-6.47,2.53c-2.81-.28-5.06-.84-6.75-2.53Z"/>
    <path d="m993.61,113.89c-1.69-1.69-2.53-3.65-2.53-5.9,0-2.53.84-4.5,2.53-5.9,1.69-1.69,3.94-2.53,6.75-2.53,2.53,0,4.78.84,6.47,2.53,1.69,1.69,2.53,3.65,2.53,5.9s-.84,4.22-2.53,5.9-3.94,2.53-6.47,2.53c-2.81,0-5.06-.84-6.75-2.53Zm14.34,7.87v50.32h-15.46v-50.32h15.46Z"/>
  </g>
  <path d="m1028.08,169.88c-3.98-2.13-7.11-5.17-9.39-9.12-2.28-3.95-3.42-8.57-3.42-13.86s1.15-9.83,3.47-13.81c2.31-3.98,5.47-7.04,9.48-9.17,4.01-2.13,8.51-3.19,13.5-3.19s9.48,1.06,13.5,3.19c4.01,2.13,7.17,5.18,9.48,9.17,2.31,3.98,3.46,8.59,3.46,13.81s-1.17,9.83-3.51,13.82c-2.34,3.98-5.53,7.04-9.58,9.17-4.04,2.13-8.56,3.19-13.54,3.19s-9.47-1.06-13.45-3.19Zm21.06-13.59c2.1-2.19,3.15-5.32,3.15-9.39s-1.02-7.2-3.05-9.39c-2.04-2.19-4.54-3.28-7.52-3.28s-5.56,1.08-7.57,3.24c-2.01,2.16-3.01,5.3-3.01,9.44s.99,7.2,2.96,9.39c1.97,2.19,4.45,3.28,7.43,3.28s5.52-1.09,7.61-3.28Z"/>
  <g id="Layer_2" data-name="Layer 2">
    <g id="Layer_1-2" data-name="Layer 1-2">
      <path class="cls-4" d="m145.03,104.78l-.03-.13c.03.2.07.36.07.46,0-.1-.03-.23-.03-.33Zm-.75-5.38c0,.2.07.39.07.56v-.69l-.07.13Zm-9.74,23.27c.46.72.95,1.41,1.41,2.1.39.56.79,1.11,1.21,1.67-1.02-1.41-1.9-2.72-2.59-3.87l-.03.1Z"/>
      <path class="cls-1" d="m218.27,95.17c-.66-8.03-3.44-15.74-8.06-22.32-2.1-3.08-4.59-5.87-7.41-8.33h-.03c-4.39-3.84-9.51-6.75-15.01-8.65-1.05-.36-2.2-.66-3.25-.95-.16-.07-.33-.13-.49-.13-.95-.23-1.87-.43-2.85-.59s-2.07-.36-3.11-.46c-.2-.07-.36-.1-.56-.1-1.05-.1-2.1-.16-3.15-.16-.16-.07-.33-.1-.49-.07-2.43-.03-4.85.13-7.24.46-1.21.16-2.43.39-3.61.66-1.05.23-2.07.49-3.05.85-.26.03-.52.13-.79.23-1.05.36-2.07.72-3.05,1.11-1.11.43-2.23.95-3.28,1.51-1.02.49-2.03,1.05-3.05,1.64-1.15.69-2.29,1.44-3.34,2.26-.85.62-1.7,1.28-2.56,2-.69.59-1.44,1.25-2.1,1.93-.49.39-.95.85-1.38,1.34-.66.66-1.28,1.34-1.87,2.07-1.21,1.41-2.33,2.88-3.34,4.43-.52.75-.98,1.51-1.41,2.29-.82,1.41-1.54,2.85-2.16,4.33-.07.16-.16.33-.23.49l-30.55,72.91,14.36,8.72,17.9-42.68h0c.36.66.85,1.57,1.51,2.62.69,1.15,1.57,2.46,2.59,3.87.23.3.46.59.72.89.59.75,1.25,1.48,1.9,2.2.59.66,1.21,1.28,1.84,1.93.1.03.13.07.16.13.69.62,1.38,1.28,2.07,1.87,1.41,1.21,2.88,2.29,4.43,3.31,3.15,2.03,6.52,3.67,10.03,4.92,1.93.66,3.87,1.18,5.87,1.54.95.2,1.97.36,2.95.49.98.16,2,.26,3.02.3.98.07,1.97.13,2.98.1,2.13,0,4.29-.13,6.39-.43,1.21-.16,2.43-.39,3.61-.69,1.18-.26,2.36-.56,3.51-.95.89-.26,1.77-.59,2.66-.95.82-.3,1.64-.62,2.36-.95.82-.43,1.64-.79,2.46-1.18s1.57-.85,2.33-1.34,1.51-.92,2.26-1.41,1.44-1.05,2.16-1.54l2.07-1.7c.66-.62,1.34-1.18,1.97-1.84.85-.85,1.7-1.77,2.49-2.66,2.29-2.72,4.29-5.7,5.97-8.85,2.59-5.02,4.2-10.49,4.79-16.13.13-1.41.23-2.82.26-4.2s-.07-2.75-.16-4.13Zm-16.65,6.59c-.3,2.66-.95,5.28-1.93,7.77l-.23.56c-.26.62-.59,1.25-.89,1.84-.36.75-.79,1.44-1.25,2.13-.33.62-.72,1.21-1.18,1.7-1.38,2-3.02,3.77-4.92,5.28-1.05.85-2.2,1.64-3.38,2.29-.62.39-1.28.75-1.97,1.08-.69.36-1.38.69-2.1.92-.59.26-1.21.49-1.84.69-1.64.56-3.31.92-5.02,1.18-.79.1-1.57.2-2.36.23-.66.07-1.34.07-2,0-.43.03-.85.03-1.31-.03-.43,0-.82-.03-1.21-.07-1.02-.07-2-.23-2.95-.49-.07.03-.1,0-.2,0-1.02-.23-2-.56-3.02-.85,0-.07-.1-.03-.13-.07-1.41-.49-2.75-1.08-4.06-1.77-.79-.39-1.57-.85-2.29-1.38-.46-.36-1.02-.66-1.44-1.02-.98-.66-1.87-1.44-2.72-2.29-.46-.39-.89-.82-1.28-1.28-.89-.92-1.7-1.93-2.39-3.02-1.44-2-2.59-4.2-3.44-6.52-.23-.49-.39-1.02-.49-1.57-.26-.59-.43-1.21-.52-1.84l-.03-.2c0-.1-.03-.26-.07-.46-.36-1.51-.59-3.05-.62-4.62v-.07c0-.2-.03-.36-.07-.56v-.07c-.36-3.25.13-6.52,1.38-9.51l.92-2.16c.23-.56.49-1.08.75-1.61.46-1.02,1.02-1.97,1.64-2.85l.07-.13c.39-.52.75-1.08,1.18-1.61.49-.66.98-1.28,1.54-1.87.98-1.15,2.07-2.16,3.25-3.11,4.1-3.34,9.01-5.47,14.26-6.16.43-.07.85-.1,1.28-.16s.92-.07,1.44-.03.92,0,1.41,0c.52-.03,1.05,0,1.57.07.69.03,1.34.13,2,.2.52.07,1.05.13,1.54.23s1.08.2,1.61.36c.62.13,1.25.33,1.87.56.59.13,1.18.36,1.74.62,3.57,1.38,6.79,3.47,9.51,6.16,2.85,2.75,5.02,6.06,6.39,9.77.33.69.59,1.38.75,2.13.3.92.52,1.87.72,2.82.16.82.26,1.61.36,2.46.03.2.07.43.1.62.26,1.93.23,3.84.03,5.7Z"/>
      <path class="cls-3" d="m169.16,220.86h-.33c.13,0,.26.03.39.07l-.07-.07Z"/>
      <path class="cls-5" d="m210.73,245.87c-.07-1.05-.2-2.1-.36-3.15,0-.26-.03-.56-.1-.82-.2-1.11-.43-2.16-.69-3.18-.26-1.18-.59-2.33-1.02-3.47-.36-1.08-.72-2.16-1.18-3.25-.52-1.25-1.08-2.46-1.74-3.64-.49-.95-1.02-1.87-1.61-2.82-.49-.79-1.02-1.61-1.57-2.36-.33-.56-.72-1.05-1.11-1.54-.56-.79-1.18-1.48-1.77-2.16-1.25-1.41-2.56-2.72-3.93-3.97-.66-.62-1.38-1.21-2.1-1.74-1.28-.98-2.59-1.93-3.97-2.79-.16-.1-.33-.2-.49-.3l-54.22-32.85-20.88-12.65-14.33-8.65-.07-.03h0s-17.05-10.42-17.67-10.82c-3.15-2.03-6.49-3.67-10-4.92-1.93-.66-3.87-1.18-5.87-1.54-.98-.2-1.97-.36-2.95-.49-.98-.16-2-.26-3.02-.3-1.02-.07-1.97-.13-3.02-.1-2.13,0-4.26.13-6.39.43-1.25.2-2.43.39-3.61.69-1.18.26-2.36.56-3.51.95-.92.26-1.8.59-2.66.95-.82.3-1.61.62-2.36.98-.82.39-1.64.75-2.46,1.18-.82.43-1.57.85-2.33,1.34-.75.49-1.51.95-2.26,1.41-.75.49-1.44,1.05-2.16,1.57-.72.52-1.34,1.15-2.03,1.7s-1.34,1.18-1.97,1.84c-.85.85-1.67,1.74-2.49,2.66-2.29,2.72-4.29,5.7-5.97,8.85-2.59,5.02-4.2,10.49-4.79,16.1-.13,1.41-.23,2.82-.26,4.23s.07,2.75.16,4.13c1.05,11.83,6.59,22.78,15.51,30.62h.03c4.39,3.84,9.51,6.75,15.01,8.65,1.05.33,2.2.66,3.28.95.16.1.33.13.49.1.95.26,1.87.43,2.85.59s2.07.36,3.11.46c.16.07.36.1.56.1,1.08.1,2.1.16,3.15.16.16.07.33.07.49.07,2.43.03,4.82-.13,7.21-.49,1.21-.16,2.43-.36,3.61-.66,1.05-.2,2.07-.49,3.05-.82.26-.03.52-.13.79-.23,1.05-.36,2.07-.75,3.05-1.15,1.11-.43,2.23-.95,3.28-1.51,1.02-.49,2.03-1.05,3.05-1.64,1.15-.69,2.29-1.44,3.34-2.26.85-.66,1.7-1.31,2.56-2,.72-.59,1.44-1.25,2.1-1.93.49-.39.95-.85,1.38-1.34.69-.66,1.28-1.38,1.87-2.1,1.21-1.41,2.33-2.92,3.34-4.49.52-.75.98-1.51,1.41-2.29.79-1.41,1.51-2.85,2.16-4.33.07-.16.16-.36.23-.49l7.67-18.26-14.13-8.52-.26-.16v.03l-8.52,20.32c-.23.56-.49,1.08-.75,1.61-.46,1.02-1.02,1.97-1.64,2.88l-.07.13c-.39.56-.75,1.08-1.18,1.61-.46.66-.98,1.28-1.54,1.87-.98,1.15-2.07,2.16-3.25,3.11-1.74,1.41-3.61,2.59-5.61,3.57-2.72,1.31-5.67,2.2-8.65,2.59-.43.07-.85.1-1.28.16s-.95.07-1.44.07h-1.41c-.52.03-1.05,0-1.57-.07-.69-.03-1.34-.1-2-.2-.52-.07-1.05-.13-1.57-.26-.49-.1-1.08-.2-1.61-.36-.62-.13-1.25-.33-1.84-.56-.59-.13-1.18-.36-1.74-.62-3.57-1.38-6.79-3.47-9.51-6.16-.79-.75-1.51-1.54-2.16-2.36-1.8-2.23-3.25-4.72-4.23-7.38-.33-.69-.59-1.41-.79-2.13-.3-.95-.49-1.87-.72-2.82-.16-.82-.3-1.64-.39-2.46-.03-.2-.07-.43-.07-.66-.2-1.87-.2-3.77,0-5.67.3-2.66.95-5.28,1.93-7.77l.23-.56c.26-.66.59-1.28.89-1.84.36-.75.79-1.48,1.25-2.13.3-.62.69-1.21,1.18-1.7,1.38-2,3.02-3.77,4.92-5.28,1.05-.85,2.2-1.64,3.38-2.29.62-.39,1.28-.75,1.93-1.08.66-.36,1.38-.69,2.1-.92.59-.26,1.21-.49,1.84-.69,1.64-.56,3.31-.95,5.02-1.15.79-.13,1.57-.2,2.36-.23.66-.07,1.34-.07,2,0,.43-.03.85-.03,1.28.03.43,0,.82.03,1.25.07.98.07,2,.23,2.95.49h.2c1.02.23,2,.56,3.02.85.03.07.1.03.13.07,1.18.39,2.29.85,3.41,1.41l.69.33c.79.39,36.98,22.29,36.98,22.29l42.62,26.03c-.75.3-1.67.72-2.69,1.18l-1.18.56-1.08.52c-.36.16-.72.36-1.08.56-.59.3-1.18.62-1.74,1.02-.82.49-1.64,1.02-2.46,1.54-.72.49-1.44,1.02-2.2,1.54-.07.07-.07.13-.13.13-.72.59-1.48,1.18-2.16,1.77-1.41,1.21-2.72,2.52-3.93,3.9-2.46,2.82-4.59,5.9-6.33,9.21-.92,1.8-1.74,3.67-2.39,5.57-.36.92-.66,1.87-.92,2.85s-.52,1.97-.72,2.92-.43,1.93-.49,2.92c-.33,2.13-.49,4.26-.49,6.39,0,1.21.03,2.46.16,3.67.07,1.21.23,2.39.43,3.61.13.95.33,1.87.52,2.79.2.89.39,1.7.62,2.49.23.82.52,1.74.82,2.59.3.85.62,1.67,1.02,2.49.39.82.69,1.61,1.08,2.43.36.82.82,1.57,1.21,2.36.46.75.92,1.54,1.38,2.29s1.02,1.51,1.51,2.23c.72,1.02,1.51,1.93,2.26,2.88,2.36,2.66,4.98,5.05,7.87,7.15,4.59,3.28,9.77,5.7,15.24,7.11,1.38.33,2.75.62,4.13.85,1.38.23,2.72.36,4.13.43,11.83.72,23.5-3.18,32.58-10.82v-.03c4.43-3.8,8.06-8.39,10.75-13.57.49-1.02.98-2.07,1.44-3.11.1-.13.16-.3.2-.49.39-.92.72-1.8,1.02-2.75.3-.95.66-1.97.92-3.02.1-.16.16-.36.16-.56.23-1.05.46-2.03.62-3.11.1-.13.13-.3.13-.46.39-2.39.59-4.82.59-7.21-.1-1.08-.2-2.33-.26-3.51Zm-16.55,5.25c-.07.46-.07.92-.16,1.41-.07.49-.13.89-.2,1.38-.07.52-.16,1.05-.3,1.54-.13.66-.3,1.28-.46,1.9-.16.52-.43,1.41-.62,1.93-.13.39-.33.82-.49,1.18-.23.59-.52,1.18-.82,1.74-.23.56-.52,1.11-.89,1.64-1.9,3.31-4.43,6.23-7.47,8.52-.85.66-1.74,1.25-2.66,1.8-2.46,1.44-5.15,2.49-7.93,3.11-.72.23-1.48.36-2.23.43-.95.16-1.93.26-2.88.3-.85.03-1.64.03-2.49,0h-.66c-1.87-.1-3.74-.36-5.57-.82-2.59-.69-5.08-1.7-7.41-3.08l-.49-.3c-.59-.36-1.15-.75-1.7-1.15-.69-.46-1.34-.98-1.93-1.54-.59-.39-1.08-.89-1.54-1.41-1.77-1.64-3.28-3.54-4.49-5.64-.69-1.18-1.31-2.39-1.77-3.67-.3-.69-.56-1.38-.79-2.1-.26-.72-.46-1.44-.62-2.2-.2-.62-.33-1.28-.43-1.93-.3-1.7-.46-3.41-.43-5.15,0-.79.07-1.57.13-2.36.03-.69.13-1.34.26-2,.03-.43.1-.85.23-1.28.07-.39.13-.82.23-1.21.23-.98.52-1.93.92-2.85,0-.07,0-.1.07-.2.36-.95.85-1.93,1.28-2.85.07,0,.03-.07.07-.13.69-1.31,1.48-2.59,2.36-3.77.52-.72,1.08-1.41,1.67-2.07.43-.39.82-.85,1.21-1.28.82-.85,1.7-1.64,2.66-2.33.46-.39.95-.75,1.44-1.08,1.05-.75,2.16-1.41,3.34-1.93,2.2-1.11,4.52-1.93,6.95-2.46.52-.16,1.08-.26,1.64-.26.79-.2,1.61-.3,2.43-.26.23,0,.49-.03.75-.07,1.48-.1,2.95-.07,4.43.13h.39c3.34.16,6.59,1.18,9.47,2.92l1.67,1.02c.49.3,1.02.62,1.51,1.02.92.62,1.77,1.31,2.59,2.07l.13.07c.49.46.95.92,1.41,1.41.59.56,1.11,1.15,1.64,1.8.98,1.15,1.84,2.39,2.59,3.67,1.15,1.9,2.07,3.97,2.72,6.06.89,2.88,1.34,5.93,1.28,8.95,0,.52-.03.95-.03,1.38Z"/>
      <path class="cls-2" d="m186.14,135.07c.07.16.13.36.2.52l-.2-.52h0Z"/>
    </g>
  </g>
</svg>