<?xml version="1.0" encoding="utf-8"?>
<!-- Generator: Adobe Illustrator 26.0.1, SVG Export Plug-In . SVG Version: 6.00 Build 0)  -->
<svg version="1.1" id="Layer_1" xmlns="http://www.w3.org/2000/svg" xmlns:xlink="http://www.w3.org/1999/xlink" x="0px" y="0px"
	 viewBox="0 0 400 639" style="enable-background:new 0 0 400 639;" xml:space="preserve">
<style type="text/css">
	.st0{fill:#F4F4F4;}
	.st1{fill:#FFFFFF;}
	.st2{fill:#777777;}
	.st3{fill:url(#Rectangle_394_00000041267149725866247670000006968331583073841295_);}
	.st4{fill:#EFEFEF;}
	.st5{fill:#343434;}
	.st6{fill:url(#SVGID_1_);}
	.st7{fill:url(#SVGID_00000151530960150622792460000015424402938525682595_);}
	.st8{fill:url(#SVGID_00000088131044364707296690000002731166941316914306_);}
	.st9{fill:url(#SVGID_00000124124109014593243480000017589488663027960725_);}
	.st10{fill:url(#SVGID_00000010995321709002221070000002679970170231792575_);}
	.st11{fill:url(#SVGID_00000109011765143611153760000001149537590871914670_);}
	.st12{fill:url(#SVGID_00000099640203773479365840000001217733898125582481_);}
	.st13{fill:url(#SVGID_00000076580686416571906230000016299716120571529628_);}
	.st14{fill:url(#SVGID_00000073679056118923656530000000208571436557923756_);}
	.st15{fill:url(#SVGID_00000033362208384323272840000016082862308956662180_);}
</style>
<rect x="2.38" y="0" class="st0" width="398.98" height="638.68"/>
<g id="Layer_1_00000083081335860778693890000015275435437991964603_">
	<g>
		<path class="st1" d="M316.9,632.3H83c-25.3,0-45.8-20.5-45.8-45.8V52.6C37.2,27.3,57.7,6.8,83,6.8h233.9
			c25.3,0,45.8,20.5,45.8,45.8v533.8C362.7,611.7,342.2,632.3,316.9,632.3z"/>
	</g>
	<g id="Group_1105_00000028311083956056330960000010434182538134346119_" transform="translate(3160.218 1104.131)">
		<g id="Path_2329_00000048496474862307895870000016380690693910759081_">
			<path class="st2" d="M-3121.6-784.5c0,86.6,0,173.1,0,259.7c0,8.3,0.2,16.6,4.2,24.3c9.3,17.8,23.8,27.2,44,27.2
				c75.4,0.1,150.9-0.1,226.3,0.1c22.4,0,39.9-15.1,45.9-34.5c1.6-5.4,2.5-11,2.4-16.7c0-37.3,0-74.7,0-112c0-1.2,0-2.4,0-3.7
				c0.1-0.9-0.3-2.3,1.4-2.2c1.2,0.1,1,1.2,1.1,2c0.1,1,0,2.1,0,3.1c0,38,0.1,76.1,0,114.1c0,12.8-3.4,24.5-12.2,34.5
				c-10.3,11.8-22.9,17.7-38.6,17.7c-75.4-0.1-150.9-0.1-226.3,0c-10.4,0-20.8-1.2-29.3-7.8c-14-10.8-22.4-24.6-21.6-43
				c0.1-1.6,0-3.1,0-4.7c0-173,0-345.9,0-518.9c0-9.7,0.6-19.3,5.5-27.9c8.4-14.7,21.1-23.1,38-25c3-0.3,5.9-0.4,8.9-0.4
				c74.4,0,148.8,0,223.2-0.1c21.9,0,37.7,9.6,47.6,29c3.6,7.1,4.6,14.9,4.6,22.7c0.1,128.8,0.1,257.6,0,386.4c0,0.7,0.1,1.4,0,2.1
				c-0.1,1.1,0.4,2.9-1.4,2.8c-1.7-0.1-1-1.9-1.1-3c-0.1-1.2,0-2.4,0-3.7c0-127.2,0-254.5,0-381.7c0-14.2-3.4-27.2-13.7-37.6
				c-6.4-6.5-14.3-10.2-23.1-12.7c-7.2-2.1-14.4-1.8-21.7-1.8c-71.4,0-142.8,0-214.2,0c-11.7,0-22.6,2.7-31.9,9.8
				c-13.1,10-18.4,23.7-18.3,39.9c0.2,29.8,0.1,59.7,0.1,89.5C-3121.6-899.3-3121.6-841.9-3121.6-784.5z"/>
		</g>
		<g id="Path_2330_00000021815525429029754230000018252960554978955670_">
			<path class="st2" d="M-3107.4-973.5c2.2,1.8,1.1,4.2,1.1,6.4c0.1,147.8,0.1,295.6,0,443.4c0,13.9,4.9,24.8,17.5,31.5
				c5.1,2.7,10.6,3.5,16.2,3.5c74.9,0,149.8,0,224.7,0c20.4,0,33.1-12.9,33.3-33.5c0.1-17.6,0-35.3,0-52.9
				c0-156.5,0-313.1,0.1-469.6c0-13.8-4.6-24.2-16.3-31.6c-4.5-2.8-9.7-4.2-14.9-4.1c-12.9-0.1-25.8-0.1-38.8,0
				c-7.1,0.1-10,2.8-11.3,9.8c-2.2,11.6-8.8,17.3-20.6,17.3c-29.3,0.1-58.7,0.1-88,0c-11.9,0-18.2-5.5-20.5-17.3
				c-1.3-6.7-4.5-9.8-11.4-9.8c-12.9-0.1-25.9-0.4-38.8,0.1c-18.7,0.6-31.2,13.9-31.3,33c-0.1,21.3,0,42.6-0.1,63.9
				c0,2,0.9,4.2-1.1,5.8c-0.9-0.6-1.3-1.7-1.1-2.7c0.1-24.3-0.2-48.5,0.4-72.8c0.5-15.3,12.4-27.9,27.7-29.1
				c15.8-1.3,31.7-1.3,47.5,0.1c5.4,0.4,9.7,4.6,10.2,9.9c1.1,11.6,9.9,16.8,19.9,16.7c28.3-0.3,56.6-0.1,84.9-0.1
				c12.1,0,16.7-3.9,19.2-16.1c1.4-6.6,5.7-10.8,12.9-10.9c15-0.2,30-0.9,45,0.5c16.4,1.6,27.3,15.6,28.8,30.2
				c0.2,2.1,0.2,4.2,0.2,6.3c0,174.2,0,348.3,0.1,522.5c0,14.7-5.5,26-18.4,33.2c-5.1,2.8-10.5,5.3-16.7,4.1
				c-1.2-0.1-2.4-0.1-3.7-0.1c-73.5,0-147-0.1-220.5,0.2c-9.5,0-17.8-1.7-25.1-7.5c-6.5-5.1-10.8-12.5-11.8-20.7
				c-0.4-3.6-0.6-7.3-0.5-11c0-129,0-257.9,0-386.9c0-18.7,0-37.3,0-56C-3108.5-970-3109.4-972.1-3107.4-973.5z"/>
		</g>
		<g id="Path_2331_00000010272141519141391200000013288063799839819965_">
			<path class="st0" d="M-2959.1-511.7c12.7,0,25.4,0,38.1,0c1.8,0,4.6-0.6,4.7,1.9c0.2,2.9-2.5,3.3-4.9,3.3c-26,0-51.9,0-77.9,0
				c-1.9,0-4.3,0.2-4.4-2.5c-0.1-3,2.5-2.8,4.6-2.8C-2985.6-511.7-2972.3-511.7-2959.1-511.7z"/>
		</g>
		<g id="Group_1104_00000176032156776995322310000016199635930002235324_" transform="translate(108.029 20.803)">
			<g id="Path_2332_00000121978861501037855880000011072049743869008303_">
				<path class="st0" d="M-3068.9-1091.3c-9.1,0-18.3,0-27.4,0c-1.8,0-3.9,0.3-3.8-3.4c0.1-3.3,2.1-2.9,3.8-2.9
					c18.5,0,37.1,0,55.6,0c1.9,0,4.4-0.1,4.3,3.4c-0.1,2.9-2.4,2.9-4.3,2.9C-3050.1-1091.3-3059.5-1091.3-3068.9-1091.3z"/>
			</g>
			<g id="Group_1103_00000127736932937229498320000014472270330177888394_">
				<g id="Ellipse_64_00000090980674971753154740000000843756477329928879_">
					<circle class="st0" cx="-3108.1" cy="-1094.4" r="3.8"/>
				</g>
				<g id="Ellipse_65_00000073711383890408148540000002046442160285122194_">
					<circle class="st0" cx="-3118.9" cy="-1094.4" r="3.8"/>
				</g>
				<g id="Ellipse_66_00000111164650075113971900000013150995248706406553_">
					<circle class="st0" cx="-3017.6" cy="-1094.4" r="3.8"/>
				</g>
				<g id="Ellipse_67_00000067958071055570061560000015633994528219960477_">
					<circle class="st0" cx="-3028.4" cy="-1094.4" r="3.8"/>
				</g>
			</g>
		</g>
	</g>
</g>
<linearGradient id="Rectangle_394_00000083780598558613844010000004941974767323701905_" gradientUnits="userSpaceOnUse" x1="77.44" y1="653.605" x2="266.74" y2="653.605" gradientTransform="matrix(1 0 0 1 0 -188)">
	<stop  offset="0" style="stop-color:#00FFAF"/>
	<stop  offset="0.06" style="stop-color:#00EDAD"/>
	<stop  offset="0.32" style="stop-color:#00A6A7"/>
	<stop  offset="0.55" style="stop-color:#006EA2"/>
	<stop  offset="0.75" style="stop-color:#00469F"/>
	<stop  offset="0.91" style="stop-color:#002D9D"/>
	<stop  offset="1" style="stop-color:#00249C"/>
</linearGradient>
<path id="Rectangle_394_00000168075151675445769720000013185903720818123190_" style="fill:url(#Rectangle_394_00000083780598558613844010000004941974767323701905_);" d="
	M87.35,393.03h169.48c5.47,0,9.91,4.43,9.91,9.91v125.33c0,5.47-4.43,9.91-9.91,9.91H87.35c-5.47,0-9.91-4.43-9.91-9.91V402.94
	C77.45,397.47,81.88,393.03,87.35,393.03z"/>
<g id="Rectangle_395_00000024688583120888632800000001461356342693242259_">
	<path class="st4" d="M86.8,392.4H257c5.3,0,9.7,4.3,9.7,9.7v89.7l0,0H77.1l0,0v-89.7C77.1,396.7,81.4,392.4,86.8,392.4z"/>
</g>
<g id="Line_88_00000177452674016445778140000001476362303517628824_">
	<g>
		<rect x="94.4" y="497.8" class="st1" width="153.3" height="3"/>
	</g>
</g>
<g id="Line_89_00000173850513181547694240000013848812343709883547_">
	<g>
		<rect x="94.4" y="507.4" class="st1" width="153.3" height="3"/>
	</g>
</g>
<g id="Line_90_00000097467076641381926370000011033478324014458811_">
	<g>
		<rect x="94.4" y="517" class="st1" width="153.3" height="3"/>
	</g>
</g>
<g id="Line_91_00000145748281405882726910000005237027710639686033_">
	<g>
		<rect x="113.8" y="525.6" class="st1" width="114.6" height="3"/>
	</g>
</g>
<g>
	<path class="st5" d="M134.5,467.2c-2.6,0.3-4.6,1.5-6.2,3.6c-0.3,0.5-0.8,0.5-1.2,0.2c-0.4-0.3-0.4-0.8,0.1-1.2
		C129.3,467.9,131.8,467.1,134.5,467.2z"/>
</g>
<g>
	<path class="st5" d="M153.9,423c-1.4,0-2.5-1.2-2.5-2.6s1.2-2.5,2.6-2.5c1.4,0,2.6,1.2,2.5,2.7C156.5,421.9,155.3,423,153.9,423z"
		/>
</g>
<g>
	<path class="st5" d="M172.4,421.1c-2.2-0.3-3.5-2.4-3.2-4.5c0.5-3.3,4.6-5.1,7.6-3.2c4,2.4,3.9,8.7-0.1,11.1
		c-0.2,0.1-0.4,0.4-0.6,0.1c-0.2-0.4,0.2-0.4,0.4-0.6c3.2-2.3,3.7-6.8,1-9.4c-2.2-2.2-6.2-1.7-7.5,1c-0.7,1.5-0.4,3.8,1.1,4.6
		C171.6,420.3,172,420.6,172.4,421.1z"/>
</g>
<g>
	<path class="st5" d="M134.2,426c-1.2-1.8-2.5-3.4-4.3-4.6c-2.4-1.6-5.1-2.3-8-2.2c-0.7,0-1.2-0.1-1.5-0.7c-0.3-0.5-0.2-1,0.1-1.5
		c0.4-0.5,0.9-0.6,1.5-0.5C127.9,417.3,131.8,420.7,134.2,426z"/>
</g>
<g>
	<path class="st5" d="M197.2,424.8c0.3-2,0.8-3.9,1.9-5.7c1.6-2.5,3.7-4.3,6.4-5.4c1.1-0.4,1.9-0.1,2.1,0.8c0.2,0.9-0.3,1.5-1.4,1.8
		C201.8,417.3,199.3,419.7,197.2,424.8z"/>
</g>
<g>
	<path class="st5" d="M214.8,449.5c4.3-0.2,8,1.3,10.3,5.5c0.5,0.9,1.2,1.1,1.9,0.7s0.7-1.2,0.1-2
		C224.5,449.9,218.6,448,214.8,449.5z"/>
</g>
<g>
	<path class="st5" d="M147.6,422.6c0.6,0,1,0.5,1,1s-0.5,1-1,1s-1-0.5-1-1S147,422.6,147.6,422.6z"/>
</g>
<g>
	<path class="st5" d="M159,470.5c0.5,0,1,0.4,0.9,1c0,0.5-0.4,0.9-1,0.9c-0.5,0-0.9-0.4-0.9-0.9C158,470.9,158.5,470.5,159,470.5z"
		/>
</g>
<g>
	<path class="st5" d="M221.3,416.6c0.9,0,1.6,0.8,1.6,1.7c0,0.9-0.8,1.6-1.6,1.6s-1.6-0.8-1.6-1.6
		C219.7,417.4,220.4,416.6,221.3,416.6z"/>
</g>
<g>
	<path class="st5" d="M155.3,472.1c0.9,0,1.6,0.8,1.6,1.7c0,0.9-0.8,1.6-1.6,1.6s-1.6-0.8-1.6-1.6
		C153.6,472.9,154.4,472.1,155.3,472.1z"/>
</g>
<g>
	<path class="st5" d="M136.2,450.5c0,2.8-2.2,4.9-4.7,4.8c-2.6-0.1-4.3-2.8-3.2-4.9c0.8-1.7,2.7-2.2,4.2-1.2
		c1.3,0.9,1.2,2.9-0.1,3.6c-0.7,0.4-1.7,0.2-2.2-0.4s-0.4-1.4,0.1-1.9c0.1-0.1,0.3-0.4,0.5-0.2c0.3,0.2-0.1,0.3-0.2,0.4
		c-0.4,0.4-0.4,0.9-0.1,1.4c0.3,0.5,1,0.7,1.5,0.5c1-0.3,1.5-1.6,0.9-2.5c-0.7-1.1-2.1-1.4-3.2-0.7c-1.7,1.2-1.6,3.6,0.1,4.8
		c2,1.4,4.8,0.5,5.8-1.9c0.5-1.2,0.5-2.4,0-3.5c-0.1-0.2-0.3-0.4,0-0.5s0.3,0.2,0.4,0.4C136.1,449.2,136.2,449.8,136.2,450.5z"/>
</g>
<g>
	<g>
		<path class="st5" d="M214.9,464c-0.1,0.1-0.3,0.3-0.4,0.4c-1.8,1.5-2.2,3.1-1.3,5.1c0.8,1.7,3.1,2.6,5.1,2.2
			c4-0.9,5.5-6.4,2.6-9.6c-2.6-2.8-6.6-3.3-9.9-1.2c-0.3,0.2-0.6,0.7-0.9,0.2c-0.3-0.4,0.3-0.5,0.5-0.7c4.1-3,10.5-1.1,12.1,3.6
			c1.2,3.5-0.8,7.5-4.2,8.3c-2.1,0.5-3.9-0.1-5.3-1.7c-1-1.3-1.4-2.8-0.7-4.4C213,465,213.8,464.2,214.9,464z"/>
	</g>
	<g>
		<path class="st5" d="M218.7,465.4c0.9,0.7,0.7,1.6,0.3,2.4c-0.4,0.9-1.2,1.5-2.2,1.5c-0.8,0-1.5-0.2-1.9-1.4
			c1.1,0.6,2,1.2,3.1,0.4C218.9,467.6,218.9,466.6,218.7,465.4z"/>
	</g>
</g>
<g>
	
		<linearGradient id="SVGID_1_" gradientUnits="userSpaceOnUse" x1="203.3662" y1="152.0904" x2="115.7739" y2="210.6382" gradientTransform="matrix(1 0 0 -1 0 640)">
		<stop  offset="0" style="stop-color:#00FFAF"/>
		<stop  offset="0.06" style="stop-color:#00EDAD"/>
		<stop  offset="0.32" style="stop-color:#00A6A7"/>
		<stop  offset="0.55" style="stop-color:#006EA2"/>
		<stop  offset="0.75" style="stop-color:#00469F"/>
		<stop  offset="0.91" style="stop-color:#002D9D"/>
		<stop  offset="1" style="stop-color:#00249C"/>
	</linearGradient>
	<path class="st6" d="M119.55,432.67c0.73-1.25,1.76-2.23,3.07-2.93c1.31-0.7,2.8-1.05,4.46-1.05c2.04,0,3.78,0.51,5.24,1.52
		c1.45,1.01,2.42,2.39,2.91,4.14h-4.6c-0.34-0.68-0.83-1.19-1.46-1.54s-1.34-0.53-2.14-0.53c-1.29,0-2.33,0.42-3.13,1.27
		c-0.8,0.85-1.2,1.97-1.2,3.38s0.4,2.54,1.2,3.38c0.8,0.84,1.84,1.27,3.13,1.27c0.8,0,1.51-0.18,2.14-0.53s1.11-0.87,1.46-1.54h4.6
		c-0.49,1.75-1.46,3.13-2.91,4.13s-3.2,1.51-5.24,1.51c-1.66,0-3.15-0.35-4.46-1.05c-1.31-0.7-2.34-1.67-3.07-2.91
		s-1.1-2.66-1.1-4.26C118.45,435.35,118.82,433.92,119.55,432.67z"/>
	
		<linearGradient id="SVGID_00000066517358172826330540000007277496258827066288_" gradientUnits="userSpaceOnUse" x1="209.1785" y1="160.786" x2="121.586" y2="219.3337" gradientTransform="matrix(1 0 0 -1 0 640)">
		<stop  offset="0" style="stop-color:#00FFAF"/>
		<stop  offset="0.06" style="stop-color:#00EDAD"/>
		<stop  offset="0.32" style="stop-color:#00A6A7"/>
		<stop  offset="0.55" style="stop-color:#006EA2"/>
		<stop  offset="0.75" style="stop-color:#00469F"/>
		<stop  offset="0.91" style="stop-color:#002D9D"/>
		<stop  offset="1" style="stop-color:#00249C"/>
	</linearGradient>
	<path style="fill:url(#SVGID_00000066517358172826330540000007277496258827066288_);" d="M141.48,444.15
		c-1.35-0.71-2.41-1.69-3.21-2.96c-0.79-1.27-1.19-2.69-1.19-4.27s0.4-3,1.19-4.26c0.79-1.26,1.86-2.24,3.21-2.95
		c1.34-0.71,2.83-1.06,4.44-1.06s3.09,0.35,4.44,1.06c1.34,0.71,2.41,1.69,3.18,2.95c0.77,1.26,1.16,2.68,1.16,4.26
		c0,1.58-0.39,3.01-1.17,4.27c-0.78,1.27-1.84,2.25-3.18,2.96s-2.81,1.06-4.43,1.06S142.82,444.86,141.48,444.15z M149.21,440.33
		c0.82-0.86,1.24-1.99,1.24-3.41c0-1.43-0.41-2.57-1.24-3.42s-1.92-1.28-3.29-1.28c-1.39,0-2.49,0.42-3.31,1.27
		s-1.24,1.99-1.24,3.43c0,1.43,0.41,2.57,1.24,3.42s1.93,1.28,3.31,1.28C147.29,441.62,148.39,441.19,149.21,440.33z"/>
	
		<linearGradient id="SVGID_00000182527301188495157300000010467806286919419017_" gradientUnits="userSpaceOnUse" x1="215.4431" y1="170.1584" x2="127.8507" y2="228.7062" gradientTransform="matrix(1 0 0 -1 0 640)">
		<stop  offset="0" style="stop-color:#00FFAF"/>
		<stop  offset="0.06" style="stop-color:#00EDAD"/>
		<stop  offset="0.32" style="stop-color:#00A6A7"/>
		<stop  offset="0.55" style="stop-color:#006EA2"/>
		<stop  offset="0.75" style="stop-color:#00469F"/>
		<stop  offset="0.91" style="stop-color:#002D9D"/>
		<stop  offset="1" style="stop-color:#00249C"/>
	</linearGradient>
	<path style="fill:url(#SVGID_00000182527301188495157300000010467806286919419017_);" d="M161.14,428.88v9.67
		c0,0.97,0.25,1.71,0.76,2.23s1.25,0.78,2.23,0.78s1.73-0.26,2.25-0.78s0.78-1.27,0.78-2.23v-9.67h4.18v9.65
		c0,1.44-0.33,2.66-0.98,3.66s-1.53,1.75-2.63,2.26s-2.33,0.76-3.68,0.76s-2.56-0.25-3.63-0.75s-1.91-1.25-2.53-2.26
		s-0.93-2.23-0.93-3.67v-9.65H161.14z"/>
	
		<linearGradient id="SVGID_00000003102014082764287160000016462587023476364221_" gradientUnits="userSpaceOnUse" x1="219.3693" y1="176.0324" x2="131.7769" y2="234.5801" gradientTransform="matrix(1 0 0 -1 0 640)">
		<stop  offset="0" style="stop-color:#00FFAF"/>
		<stop  offset="0.06" style="stop-color:#00EDAD"/>
		<stop  offset="0.32" style="stop-color:#00A6A7"/>
		<stop  offset="0.55" style="stop-color:#006EA2"/>
		<stop  offset="0.75" style="stop-color:#00469F"/>
		<stop  offset="0.91" style="stop-color:#002D9D"/>
		<stop  offset="1" style="stop-color:#00249C"/>
	</linearGradient>
	<path style="fill:url(#SVGID_00000003102014082764287160000016462587023476364221_);" d="M186.67,436.65
		c-0.46,0.78-1.16,1.4-2.1,1.88c-0.95,0.47-2.12,0.71-3.52,0.71h-2.59v5.8h-4.18v-16.16h6.78c1.37,0,2.53,0.22,3.47,0.67
		c0.95,0.45,1.66,1.06,2.13,1.84s0.71,1.68,0.71,2.69C187.36,435.02,187.13,435.88,186.67,436.65z M182.51,435.58
		c0.39-0.35,0.59-0.85,0.59-1.5c0-0.64-0.2-1.14-0.59-1.5c-0.39-0.35-0.99-0.53-1.79-0.53h-2.28v4.05h2.28
		C181.53,436.11,182.12,435.94,182.51,435.58z"/>
	
		<linearGradient id="SVGID_00000163066317732949518400000009608472783278589347_" gradientUnits="userSpaceOnUse" x1="225.1574" y1="184.6917" x2="137.565" y2="243.2395" gradientTransform="matrix(1 0 0 -1 0 640)">
		<stop  offset="0" style="stop-color:#00FFAF"/>
		<stop  offset="0.06" style="stop-color:#00EDAD"/>
		<stop  offset="0.32" style="stop-color:#00A6A7"/>
		<stop  offset="0.55" style="stop-color:#006EA2"/>
		<stop  offset="0.75" style="stop-color:#00469F"/>
		<stop  offset="0.91" style="stop-color:#002D9D"/>
		<stop  offset="1" style="stop-color:#00249C"/>
	</linearGradient>
	<path style="fill:url(#SVGID_00000163066317732949518400000009608472783278589347_);" d="M193.22,444.15
		c-1.34-0.71-2.41-1.69-3.2-2.96s-1.19-2.69-1.19-4.27s0.4-3,1.19-4.26c0.79-1.26,1.86-2.24,3.2-2.95c1.35-0.71,2.83-1.06,4.44-1.06
		s3.09,0.35,4.44,1.06s2.41,1.69,3.18,2.95c0.77,1.26,1.16,2.68,1.16,4.26c0,1.58-0.39,3.01-1.17,4.27
		c-0.78,1.27-1.84,2.25-3.18,2.96s-2.81,1.06-4.43,1.06C196.04,445.21,194.56,444.86,193.22,444.15z M200.95,440.33
		c0.82-0.86,1.24-1.99,1.24-3.41c0-1.43-0.41-2.57-1.24-3.42c-0.82-0.85-1.92-1.28-3.29-1.28c-1.39,0-2.49,0.42-3.31,1.27
		c-0.82,0.84-1.24,1.99-1.24,3.43c0,1.43,0.41,2.57,1.24,3.42c0.82,0.85,1.93,1.28,3.31,1.28
		C199.03,441.62,200.12,441.19,200.95,440.33z"/>
	
		<linearGradient id="SVGID_00000171679037247975626170000014611698285319556522_" gradientUnits="userSpaceOnUse" x1="230.9376" y1="193.3396" x2="143.3453" y2="251.8874" gradientTransform="matrix(1 0 0 -1 0 640)">
		<stop  offset="0" style="stop-color:#00FFAF"/>
		<stop  offset="0.06" style="stop-color:#00EDAD"/>
		<stop  offset="0.32" style="stop-color:#00A6A7"/>
		<stop  offset="0.55" style="stop-color:#006EA2"/>
		<stop  offset="0.75" style="stop-color:#00469F"/>
		<stop  offset="0.91" style="stop-color:#002D9D"/>
		<stop  offset="1" style="stop-color:#00249C"/>
	</linearGradient>
	<path style="fill:url(#SVGID_00000171679037247975626170000014611698285319556522_);" d="M224.12,445.05h-4.18l-7-9.97v9.97h-4.18
		v-16.16h4.18l7,10.02v-10.02h4.18V445.05z"/>
	
		<linearGradient id="SVGID_00000024715274041603907000000013937434422182794389_" gradientUnits="userSpaceOnUse" x1="198.3184" y1="144.5386" x2="110.7261" y2="203.0863" gradientTransform="matrix(1 0 0 -1 0 640)">
		<stop  offset="0" style="stop-color:#00FFAF"/>
		<stop  offset="0.06" style="stop-color:#00EDAD"/>
		<stop  offset="0.32" style="stop-color:#00A6A7"/>
		<stop  offset="0.55" style="stop-color:#006EA2"/>
		<stop  offset="0.75" style="stop-color:#00469F"/>
		<stop  offset="0.91" style="stop-color:#002D9D"/>
		<stop  offset="1" style="stop-color:#00249C"/>
	</linearGradient>
	<path style="fill:url(#SVGID_00000024715274041603907000000013937434422182794389_);" d="M139.11,456.67
		c0.73-1.25,1.76-2.23,3.07-2.93c1.31-0.7,2.8-1.05,4.46-1.05c2.04,0,3.78,0.51,5.24,1.52c1.45,1.01,2.42,2.39,2.91,4.14h-4.6
		c-0.34-0.68-0.83-1.19-1.46-1.54s-1.34-0.53-2.14-0.53c-1.29,0-2.33,0.42-3.13,1.27c-0.8,0.85-1.2,1.97-1.2,3.38s0.4,2.54,1.2,3.38
		s1.84,1.27,3.13,1.27c0.8,0,1.51-0.18,2.14-0.53s1.11-0.87,1.46-1.54h4.6c-0.49,1.75-1.46,3.13-2.91,4.13s-3.2,1.51-5.24,1.51
		c-1.66,0-3.15-0.35-4.46-1.05c-1.31-0.7-2.34-1.67-3.07-2.91c-0.73-1.24-1.1-2.66-1.1-4.26
		C138.01,459.35,138.37,457.92,139.11,456.67z"/>
	
		<linearGradient id="SVGID_00000108987204437000772850000003695633779063970221_" gradientUnits="userSpaceOnUse" x1="204.1307" y1="153.2341" x2="116.5383" y2="211.7819" gradientTransform="matrix(1 0 0 -1 0 640)">
		<stop  offset="0" style="stop-color:#00FFAF"/>
		<stop  offset="0.06" style="stop-color:#00EDAD"/>
		<stop  offset="0.32" style="stop-color:#00A6A7"/>
		<stop  offset="0.55" style="stop-color:#006EA2"/>
		<stop  offset="0.75" style="stop-color:#00469F"/>
		<stop  offset="0.91" style="stop-color:#002D9D"/>
		<stop  offset="1" style="stop-color:#00249C"/>
	</linearGradient>
	<path style="fill:url(#SVGID_00000108987204437000772850000003695633779063970221_);" d="M161.04,468.15
		c-1.35-0.71-2.41-1.69-3.21-2.96c-0.79-1.27-1.19-2.69-1.19-4.27s0.4-3,1.19-4.26c0.79-1.26,1.86-2.24,3.21-2.95
		c1.34-0.71,2.83-1.06,4.44-1.06s3.09,0.35,4.44,1.06c1.34,0.71,2.41,1.69,3.18,2.95c0.77,1.26,1.16,2.68,1.16,4.26
		c0,1.58-0.39,3.01-1.17,4.27c-0.78,1.27-1.84,2.25-3.18,2.96s-2.81,1.06-4.43,1.06S162.38,468.86,161.04,468.15z M168.77,464.33
		c0.82-0.86,1.24-1.99,1.24-3.41c0-1.43-0.41-2.57-1.24-3.42s-1.92-1.28-3.29-1.28c-1.39,0-2.49,0.42-3.31,1.27
		s-1.24,1.99-1.24,3.43c0,1.43,0.41,2.57,1.24,3.42s1.93,1.28,3.31,1.28C166.85,465.62,167.94,465.19,168.77,464.33z"/>
	
		<linearGradient id="SVGID_00000145752900525838236900000003944183727189827976_" gradientUnits="userSpaceOnUse" x1="209.0543" y1="160.6003" x2="121.4619" y2="219.1481" gradientTransform="matrix(1 0 0 -1 0 640)">
		<stop  offset="0" style="stop-color:#00FFAF"/>
		<stop  offset="0.06" style="stop-color:#00EDAD"/>
		<stop  offset="0.32" style="stop-color:#00A6A7"/>
		<stop  offset="0.55" style="stop-color:#006EA2"/>
		<stop  offset="0.75" style="stop-color:#00469F"/>
		<stop  offset="0.91" style="stop-color:#002D9D"/>
		<stop  offset="1" style="stop-color:#00249C"/>
	</linearGradient>
	<path style="fill:url(#SVGID_00000145752900525838236900000003944183727189827976_);" d="M187.76,453.9
		c1.35,0.68,2.4,1.62,3.14,2.84s1.11,2.63,1.11,4.22c0,1.58-0.37,2.99-1.11,4.21c-0.74,1.23-1.79,2.18-3.16,2.86
		s-2.94,1.01-4.73,1.01h-6.43v-16.16h6.43C184.83,452.88,186.41,453.22,187.76,453.9z M186.44,464.42c0.88-0.81,1.32-1.96,1.32-3.45
		s-0.44-2.65-1.32-3.48s-2.11-1.24-3.69-1.24h-1.98v9.39h1.98C184.33,465.64,185.56,465.23,186.44,464.42z"/>
	
		<linearGradient id="SVGID_00000139988112362040425220000014452858121500373127_" gradientUnits="userSpaceOnUse" x1="214.6586" y1="168.9847" x2="127.0662" y2="227.5325" gradientTransform="matrix(1 0 0 -1 0 640)">
		<stop  offset="0" style="stop-color:#00FFAF"/>
		<stop  offset="0.06" style="stop-color:#00EDAD"/>
		<stop  offset="0.32" style="stop-color:#00A6A7"/>
		<stop  offset="0.55" style="stop-color:#006EA2"/>
		<stop  offset="0.75" style="stop-color:#00469F"/>
		<stop  offset="0.91" style="stop-color:#002D9D"/>
		<stop  offset="1" style="stop-color:#00249C"/>
	</linearGradient>
	<path style="fill:url(#SVGID_00000139988112362040425220000014452858121500373127_);" d="M198.55,456.04v3.27h5.6v3.04h-5.6v3.55
		h6.34v3.15h-10.52v-16.16h10.52v3.15L198.55,456.04L198.55,456.04z"/>
</g>
</svg>
