<?xml version="1.0" encoding="UTF-8"?>
<svg id="Layer_1" data-name="Layer 1" xmlns="http://www.w3.org/2000/svg" xmlns:xlink="http://www.w3.org/1999/xlink" viewBox="0 0 1080 1080">
  <defs>
    <style>
      .cls-1 {
        fill: url(#linear-gradient-2);
      }

      .cls-2 {
        fill: #fff;
      }

      .cls-3 {
        fill: url(#linear-gradient-5);
      }

      .cls-4 {
        fill: url(#linear-gradient-3);
      }

      .cls-5 {
        fill: url(#linear-gradient);
      }

      .cls-6 {
        fill: url(#linear-gradient-4);
      }
    </style>
    <linearGradient id="linear-gradient" x1="571.17" y1="277.53" x2="642.9" y2="341.92" gradientTransform="translate(0 -10.26)" gradientUnits="userSpaceOnUse">
      <stop offset="0" stop-color="#00ffaf"/>
      <stop offset=".06" stop-color="#00edad"/>
      <stop offset=".32" stop-color="#00a6a7"/>
      <stop offset=".55" stop-color="#006ea2"/>
      <stop offset=".75" stop-color="#00469f"/>
      <stop offset=".91" stop-color="#002d9d"/>
      <stop offset="1" stop-color="#00249c"/>
    </linearGradient>
    <linearGradient id="linear-gradient-2" x1="557.87" y1="240.21" x2="684.13" y2="353.53" xlink:href="#linear-gradient"/>
    <linearGradient id="linear-gradient-3" x1="640.53" y1="494.4" x2="641.28" y2="495.06" xlink:href="#linear-gradient"/>
    <linearGradient id="linear-gradient-4" x1="631.16" y1="408.09" x2="434.67" y2="564.81" xlink:href="#linear-gradient"/>
    <linearGradient id="linear-gradient-5" x1="506.62" y1="185.27" x2="1015.16" y2="641.7" xlink:href="#linear-gradient"/>
  </defs>
  <g id="Layer_2" data-name="Layer 2">
    <g id="Layer_1-2" data-name="Layer 1-2">
      <path class="cls-5" d="m595.93,267.2l-.06-.25c.06.37.12.67.12.86,0-.18-.06-.43-.06-.61Zm-1.41-10.06c0,.37.12.74.12,1.04v-1.29l-.12.25Zm-18.21,43.54c.86,1.35,1.78,2.64,2.64,3.92.74,1.04,1.47,2.08,2.27,3.13-1.9-2.64-3.56-5.09-4.84-7.24l-.06.18Z"/>
      <path class="cls-1" d="m732.92,249.23c-1.23-15.02-6.44-29.43-15.09-41.76-3.92-5.76-8.59-10.98-13.86-15.58h-.06c-8.22-7.17-17.78-12.63-28.09-16.19-1.96-.67-4.11-1.23-6.07-1.78-.31-.12-.61-.25-.92-.25-1.78-.43-3.5-.8-5.34-1.1s-3.86-.67-5.83-.86c-.37-.12-.67-.18-1.04-.18-1.96-.18-3.92-.31-5.89-.31-.31-.12-.61-.18-.92-.12-4.54-.06-9.08.25-13.55.86-2.27.31-4.54.74-6.75,1.23-1.96.43-3.86.92-5.7,1.59-.49.06-.98.25-1.47.43-1.96.67-3.86,1.35-5.7,2.08-2.08.8-4.17,1.78-6.13,2.82-1.9.92-3.8,1.96-5.7,3.07-2.15,1.29-4.29,2.7-6.25,4.23-1.59,1.17-3.19,2.39-4.78,3.74-1.29,1.1-2.7,2.33-3.92,3.62-.92.74-1.78,1.59-2.58,2.51-1.23,1.23-2.39,2.51-3.5,3.86-2.27,2.64-4.35,5.4-6.25,8.28-.98,1.41-1.84,2.82-2.64,4.29-1.53,2.64-2.88,5.34-4.05,8.09-.12.31-.31.61-.43.92l-57.15,136.38,26.86,16.31,33.48-79.84h0c.67,1.23,1.59,2.94,2.82,4.91,1.29,2.15,2.94,4.6,4.84,7.24.43.55.86,1.1,1.35,1.66,1.1,1.41,2.33,2.76,3.56,4.11,1.1,1.23,2.27,2.39,3.43,3.62.18.06.25.12.31.25,1.29,1.17,2.58,2.39,3.86,3.5,2.64,2.27,5.4,4.29,8.28,6.19,5.89,3.8,12.2,6.87,18.76,9.2,3.62,1.23,7.24,2.21,10.98,2.88,1.78.37,3.68.67,5.52.92,1.84.31,3.74.49,5.64.55,1.84.12,3.68.25,5.58.18,3.99,0,8.03-.25,11.96-.8,2.27-.31,4.54-.74,6.75-1.29,2.21-.49,4.42-1.04,6.56-1.78,1.66-.49,3.31-1.1,4.97-1.78,1.53-.55,3.07-1.17,4.42-1.78,1.53-.8,3.07-1.47,4.6-2.21s2.94-1.59,4.35-2.51c1.41-.92,2.82-1.72,4.23-2.64,1.41-.92,2.7-1.96,4.05-2.88l3.86-3.19c1.23-1.17,2.51-2.21,3.68-3.43,1.59-1.59,3.19-3.31,4.66-4.97,4.29-5.09,8.03-10.67,11.16-16.56,4.84-9.38,7.85-19.62,8.95-30.17.25-2.64.43-5.27.49-7.85s-.12-5.15-.31-7.73Zm-31.15,12.33c-.55,4.97-1.78,9.87-3.62,14.53l-.43,1.04c-.49,1.17-1.1,2.33-1.66,3.43-.67,1.41-1.47,2.7-2.33,3.99-.61,1.17-1.35,2.27-2.21,3.19-2.58,3.74-5.64,7.05-9.2,9.87-1.96,1.59-4.11,3.07-6.32,4.29-1.17.74-2.39,1.41-3.68,2.02-1.29.67-2.58,1.29-3.92,1.72-1.1.49-2.27.92-3.43,1.29-3.07,1.04-6.19,1.72-9.38,2.21-1.47.18-2.94.37-4.42.43-1.23.12-2.51.12-3.74,0-.8.06-1.59.06-2.45-.06-.8,0-1.53-.06-2.27-.12-1.9-.12-3.74-.43-5.52-.92-.12.06-.18,0-.37,0-1.9-.43-3.74-1.04-5.64-1.59,0-.12-.18-.06-.25-.12-2.64-.92-5.15-2.02-7.6-3.31-1.47-.74-2.94-1.59-4.29-2.58-.86-.67-1.9-1.23-2.7-1.9-1.84-1.23-3.5-2.7-5.09-4.29-.86-.74-1.66-1.53-2.39-2.39-1.66-1.72-3.19-3.62-4.48-5.64-2.7-3.74-4.84-7.85-6.44-12.2-.43-.92-.74-1.9-.92-2.94-.49-1.1-.8-2.27-.98-3.43l-.06-.37c0-.18-.06-.49-.12-.86-.67-2.82-1.1-5.7-1.17-8.65v-.12c0-.37-.06-.67-.12-1.04v-.12c-.67-6.07.25-12.2,2.58-17.78l1.72-4.05c.43-1.04.92-2.02,1.41-3,.86-1.9,1.9-3.68,3.07-5.34l.12-.25c.74-.98,1.41-2.02,2.21-3,.92-1.23,1.84-2.39,2.88-3.5,1.84-2.15,3.86-4.05,6.07-5.83,7.67-6.25,16.86-10.24,26.68-11.53.8-.12,1.59-.18,2.39-.31s1.72-.12,2.7-.06,1.72,0,2.64,0c.98-.06,1.96,0,2.94.12,1.29.06,2.51.25,3.74.37.98.12,1.96.25,2.88.43s2.02.37,3,.67c1.17.25,2.33.61,3.5,1.04,1.1.25,2.21.67,3.25,1.17,6.68,2.58,12.69,6.5,17.78,11.53,5.34,5.15,9.38,11.34,11.96,18.27.61,1.29,1.1,2.58,1.41,3.99.55,1.72.98,3.5,1.35,5.27.31,1.53.49,3,.67,4.6.06.37.12.8.18,1.17.49,3.62.43,7.17.06,10.67Z"/>
      <path class="cls-4" d="m641.06,484.34h-.61c.25,0,.49.06.74.12l-.12-.12Z"/>
      <path class="cls-6" d="m718.81,531.13c-.12-1.96-.37-3.92-.67-5.89,0-.49-.06-1.04-.18-1.53-.37-2.08-.8-4.05-1.29-5.95-.49-2.21-1.1-4.35-1.9-6.5-.67-2.02-1.35-4.05-2.21-6.07-.98-2.33-2.02-4.6-3.25-6.81-.92-1.78-1.9-3.5-3-5.27-.92-1.47-1.9-3-2.94-4.42-.61-1.04-1.35-1.96-2.08-2.88-1.04-1.47-2.21-2.76-3.31-4.05-2.33-2.64-4.78-5.09-7.36-7.42-1.23-1.17-2.58-2.27-3.92-3.25-2.39-1.84-4.84-3.62-7.42-5.21-.31-.18-.61-.37-.92-.55l-101.43-61.44-39.06-23.67-26.8-16.19-.12-.06h0s-31.89-19.5-33.05-20.24c-5.89-3.8-12.14-6.87-18.7-9.2-3.62-1.23-7.24-2.21-10.98-2.88-1.84-.37-3.68-.67-5.52-.92-1.84-.31-3.74-.49-5.64-.55-1.9-.12-3.68-.25-5.64-.18-3.99,0-7.97.25-11.96.8-2.33.37-4.54.74-6.75,1.29-2.21.49-4.42,1.04-6.56,1.78-1.72.49-3.37,1.1-4.97,1.78-1.53.55-3,1.17-4.42,1.84-1.53.74-3.07,1.41-4.6,2.21-1.53.8-2.94,1.59-4.35,2.51-1.41.92-2.82,1.78-4.23,2.64-1.41.92-2.7,1.96-4.05,2.94-1.35.98-2.51,2.15-3.8,3.19s-2.51,2.21-3.68,3.43c-1.59,1.59-3.13,3.25-4.66,4.97-4.29,5.09-8.03,10.67-11.16,16.56-4.84,9.38-7.85,19.62-8.95,30.11-.25,2.64-.43,5.27-.49,7.91s.12,5.15.31,7.73c1.96,22.14,12.33,42.62,29.01,57.27h.06c8.22,7.17,17.78,12.63,28.09,16.19,1.96.61,4.11,1.23,6.13,1.78.31.18.61.25.92.18,1.78.49,3.5.8,5.34,1.1s3.86.67,5.83.86c.31.12.67.18,1.04.18,2.02.18,3.92.31,5.89.31.31.12.61.12.92.12,4.54.06,9.01-.25,13.49-.92,2.27-.31,4.54-.67,6.75-1.23,1.96-.37,3.86-.92,5.7-1.53.49-.06.98-.25,1.47-.43,1.96-.67,3.86-1.41,5.7-2.15,2.08-.8,4.17-1.78,6.13-2.82,1.9-.92,3.8-1.96,5.7-3.07,2.15-1.29,4.29-2.7,6.25-4.23,1.59-1.23,3.19-2.45,4.78-3.74,1.35-1.1,2.7-2.33,3.92-3.62.92-.74,1.78-1.59,2.58-2.51,1.29-1.23,2.39-2.58,3.5-3.92,2.27-2.64,4.35-5.46,6.25-8.4.98-1.41,1.84-2.82,2.64-4.29,1.47-2.64,2.82-5.34,4.05-8.09.12-.31.31-.67.43-.92l14.35-34.16-26.43-15.94-.49-.31v.06l-15.94,38.02c-.43,1.04-.92,2.02-1.41,3-.86,1.9-1.9,3.68-3.07,5.4l-.12.25c-.74,1.04-1.41,2.02-2.21,3-.86,1.23-1.84,2.39-2.88,3.5-1.84,2.15-3.86,4.05-6.07,5.83-3.25,2.64-6.75,4.84-10.49,6.68-5.09,2.45-10.61,4.11-16.19,4.84-.8.12-1.59.18-2.39.31s-1.78.12-2.7.12h-2.64c-.98.06-1.96,0-2.94-.12-1.29-.06-2.51-.18-3.74-.37-.98-.12-1.96-.25-2.94-.49-.92-.18-2.02-.37-3-.67-1.17-.25-2.33-.61-3.43-1.04-1.1-.25-2.21-.67-3.25-1.17-6.68-2.58-12.69-6.5-17.78-11.53-1.47-1.41-2.82-2.88-4.05-4.42-3.37-4.17-6.07-8.83-7.91-13.8-.61-1.29-1.1-2.64-1.47-3.99-.55-1.78-.92-3.5-1.35-5.27-.31-1.53-.55-3.07-.74-4.6-.06-.37-.12-.8-.12-1.23-.37-3.5-.37-7.05,0-10.61.55-4.97,1.78-9.87,3.62-14.53l.43-1.04c.49-1.23,1.1-2.39,1.66-3.43.67-1.41,1.47-2.76,2.33-3.99.55-1.17,1.29-2.27,2.21-3.19,2.58-3.74,5.64-7.05,9.2-9.87,1.96-1.59,4.11-3.07,6.32-4.29,1.17-.74,2.39-1.41,3.62-2.02,1.23-.67,2.58-1.29,3.92-1.72,1.1-.49,2.27-.92,3.43-1.29,3.07-1.04,6.19-1.78,9.38-2.15,1.47-.25,2.94-.37,4.42-.43,1.23-.12,2.51-.12,3.74,0,.8-.06,1.59-.06,2.39.06.8,0,1.53.06,2.33.12,1.84.12,3.74.43,5.52.92h.37c1.9.43,3.74,1.04,5.64,1.59.06.12.18.06.25.12,2.21.74,4.29,1.59,6.38,2.64l1.29.61c1.47.74,69.17,41.7,69.17,41.7l79.72,48.69c-1.41.55-3.13,1.35-5.03,2.21l-2.21,1.04-2.02.98c-.67.31-1.35.67-2.02,1.04-1.1.55-2.21,1.17-3.25,1.9-1.53.92-3.07,1.9-4.6,2.88-1.35.92-2.7,1.9-4.11,2.88-.12.12-.12.25-.25.25-1.35,1.1-2.76,2.21-4.05,3.31-2.64,2.27-5.09,4.72-7.36,7.3-4.6,5.27-8.59,11.04-11.84,17.23-1.72,3.37-3.25,6.87-4.48,10.42-.67,1.72-1.23,3.5-1.72,5.34s-.98,3.68-1.35,5.46c-.37,1.78-.8,3.62-.92,5.46-.61,3.99-.92,7.97-.92,11.96,0,2.27.06,4.6.31,6.87.12,2.27.43,4.48.8,6.75.25,1.78.61,3.5.98,5.21.37,1.66.74,3.19,1.17,4.66.43,1.53.98,3.25,1.53,4.84.55,1.59,1.17,3.13,1.9,4.66.74,1.53,1.29,3,2.02,4.54.67,1.53,1.53,2.94,2.27,4.42.86,1.41,1.72,2.88,2.58,4.29s1.9,2.82,2.82,4.17c1.35,1.9,2.82,3.62,4.23,5.4,4.42,4.97,9.32,9.44,14.72,13.37,8.59,6.13,18.27,10.67,28.51,13.31,2.58.61,5.15,1.17,7.73,1.59,2.58.43,5.09.67,7.73.8,22.14,1.35,43.97-5.95,60.95-20.24v-.06c8.28-7.11,15.09-15.7,20.11-25.39.92-1.9,1.84-3.86,2.7-5.83.18-.25.31-.55.37-.92.74-1.72,1.35-3.37,1.9-5.15.55-1.78,1.23-3.68,1.72-5.64.18-.31.31-.67.31-1.04.43-1.96.86-3.8,1.17-5.83.18-.25.25-.55.25-.86.74-4.48,1.1-9.01,1.1-13.49-.18-2.02-.37-4.35-.49-6.56Zm-30.97,9.81c-.12.86-.12,1.72-.31,2.64-.12.92-.25,1.66-.37,2.58-.12.98-.31,1.96-.55,2.88-.25,1.23-.55,2.39-.86,3.56-.31.98-.8,2.64-1.17,3.62-.25.74-.61,1.53-.92,2.21-.43,1.1-.98,2.21-1.53,3.25-.43,1.04-.98,2.08-1.66,3.07-3.56,6.19-8.28,11.65-13.98,15.94-1.59,1.23-3.25,2.33-4.97,3.37-4.6,2.7-9.63,4.66-14.84,5.83-1.35.43-2.76.67-4.17.8-1.78.31-3.62.49-5.4.55-1.59.06-3.07.06-4.66,0h-1.23c-3.5-.18-6.99-.67-10.42-1.53-4.84-1.29-9.5-3.19-13.86-5.76l-.92-.55c-1.1-.67-2.15-1.41-3.19-2.15-1.29-.86-2.51-1.84-3.62-2.88-1.1-.74-2.02-1.66-2.88-2.64-3.31-3.07-6.13-6.62-8.4-10.55-1.29-2.21-2.45-4.48-3.31-6.87-.55-1.29-1.04-2.58-1.47-3.92-.49-1.35-.86-2.7-1.17-4.11-.37-1.17-.61-2.39-.8-3.62-.55-3.19-.86-6.38-.8-9.63,0-1.47.12-2.94.25-4.42.06-1.29.25-2.51.49-3.74.06-.8.18-1.59.43-2.39.12-.74.25-1.53.43-2.27.43-1.84.98-3.62,1.72-5.34,0-.12,0-.18.12-.37.67-1.78,1.59-3.62,2.39-5.34.12,0,.06-.12.12-.25,1.29-2.45,2.76-4.84,4.42-7.05.98-1.35,2.02-2.64,3.13-3.86.8-.74,1.53-1.59,2.27-2.39,1.53-1.59,3.19-3.07,4.97-4.35.86-.74,1.78-1.41,2.7-2.02,1.96-1.41,4.05-2.64,6.25-3.62,4.11-2.08,8.46-3.62,13-4.6.98-.31,2.02-.49,3.07-.49,1.47-.37,3-.55,4.54-.49.43,0,.92-.06,1.41-.12,2.76-.18,5.52-.12,8.28.25h.74c6.25.31,12.33,2.21,17.72,5.46l3.13,1.9c.92.55,1.9,1.17,2.82,1.9,1.72,1.17,3.31,2.45,4.84,3.86l.25.12c.92.86,1.78,1.72,2.64,2.64,1.1,1.04,2.08,2.15,3.07,3.37,1.84,2.15,3.43,4.48,4.84,6.87,2.15,3.56,3.86,7.42,5.09,11.34,1.66,5.4,2.51,11.1,2.39,16.74,0,.98-.06,1.78-.06,2.58Z"/>
      <path class="cls-3" d="m672.82,323.86c.12.31.25.67.37.98l-.37-.98h0Z"/>
    </g>
  </g>
  <g>
    <path class="cls-2" d="m217.74,829.3v41.17c0,5.83-1.46,10.2-4.74,13.48-3.64,2.91-8.02,4.37-13.85,4.37-5.47,0-10.2-1.46-13.48-4.74-3.28-3.28-4.74-7.65-4.74-13.85h12.02c0,2.55.73,4.37,1.82,5.83s2.55,1.82,4.74,1.82,3.64-.73,4.74-1.82,1.46-2.91,1.46-5.1v-40.81h12.02s0-.36,0-.36Z"/>
    <path class="cls-2" d="m279.31,841.33v46.64h-12.02v-5.83c-1.46,1.82-3.28,3.28-5.83,4.37-2.19,1.09-4.74,1.46-8.02,1.46-3.64,0-6.92-.73-9.84-2.19-2.55-1.46-4.74-3.64-6.56-6.92s-2.19-6.56-2.19-10.93v-26.96h12.02v25.5c0,3.64.73,6.56,2.55,8.38s4.01,2.91,7.65,2.91c2.91,0,5.83-1.09,7.65-2.91s2.55-4.74,2.55-8.38v-25.5h11.66v.36h.36Z"/>
    <path class="cls-2" d="m302.99,886.87c-2.91-1.46-5.1-2.91-7.29-5.83-1.82-2.19-2.55-4.74-2.91-7.65h12.02c.36,1.82,1.09,3.28,2.55,4.37,1.46,1.09,3.28,1.82,5.83,1.82,2.19,0,3.64-.36,5.1-1.46,1.09-.73,1.82-1.82,1.82-3.28s-.73-2.55-2.19-3.28-3.64-1.46-7.29-2.19-6.19-1.46-8.38-2.55c-2.19-.73-4.01-2.19-5.83-4.01s-2.19-4.01-2.19-7.65c0-2.55.73-4.74,2.19-6.92s3.28-3.64,6.56-4.74c2.91-1.09,6.19-1.82,10.2-1.82,5.1,0,10.2,1.46,13.48,4.01,3.28,2.55,4.74,6.56,5.1,11.29h-11.29c0-1.82-.73-3.28-2.19-4.37-1.46-1.09-2.91-1.46-5.1-1.46s-3.64.36-4.74,1.09-1.46,1.82-1.46,3.28.73,2.55,2.19,3.28c1.46.73,3.64,1.46,7.29,2.19,3.28.73,6.19,1.46,8.38,2.55,2.19.73,4.01,2.19,5.83,4.01,1.46,1.82,2.19,4.01,2.19,7.29,0,2.55-.73,4.74-2.19,7.29-1.46,2.19-3.28,3.64-6.56,4.74-2.55,1.09-6.19,1.82-9.84,1.82-4.74,0-8.38-.73-11.29-1.82Z"/>
    <path class="cls-2" d="m359.1,851.16v22.59c0,1.46.36,2.55,1.09,3.28.73.73,1.82,1.09,3.64,1.09h5.1v10.2h-7.29c-10.2,0-14.94-4.74-14.94-14.57v-22.59h-5.1v-9.84h5.1v-11.66h12.02v11.66h10.57v9.84h-10.2Z"/>
    <path class="cls-2" d="m478.24,845.7c3.28,3.28,5.1,8.38,5.1,14.57v26.96h-12.02v-25.14c0-3.28-.73-6.56-2.55-8.38-1.82-1.82-4.01-2.91-7.65-2.91s-5.83,1.09-7.65,2.91-2.55,4.37-2.55,8.38v25.5h-12.02v-25.5c0-3.28-.73-6.56-2.55-8.38s-4.01-2.91-7.65-2.91c-2.91,0-5.83,1.09-7.65,2.91-1.82,1.82-2.55,4.37-2.55,8.38v25.5h-12.02v-46.27h12.02v5.1c1.46-1.82,3.28-3.28,5.83-4.37,2.19-1.09,4.74-1.46,7.65-1.46,3.64,0,6.92.73,9.84,2.19,2.55,1.46,4.74,3.64,6.56,6.56,1.46-2.55,3.64-4.74,6.56-6.56,2.91-1.46,6.19-2.19,9.47-2.19,5.83,0,10.2,1.82,13.85,5.1Z"/>
    <path class="cls-2" d="m498.28,851.89c1.82-3.64,4.37-6.56,7.65-8.38,2.91-1.82,6.92-2.91,10.93-2.91,3.28,0,6.56.73,9.47,1.82,2.55,1.09,4.37,2.91,6.19,5.1v-6.56h12.02v46.64h-12.02v-6.19c-1.46,2.19-3.28,3.64-6.19,5.1-2.55,1.46-5.83,2.19-9.47,2.19s-7.65-1.09-10.93-2.91c-3.28-1.82-5.83-4.74-7.65-8.38s-2.55-8.02-2.55-12.75c0-5.1.73-9.11,2.55-12.75Zm32.43,5.1c-1.09-1.82-2.55-3.28-4.37-4.37s-3.64-1.46-6.19-1.46-4.01.36-6.19,1.46c-1.82,1.09-3.28,2.55-4.37,4.37s-1.46,4.37-1.46,7.29c0,2.55.36,5.1,1.46,7.29,1.09,1.82,2.55,3.64,4.37,4.74s3.64,1.46,6.19,1.46,4.01-.36,6.19-1.46c1.82-1.09,3.28-2.55,4.37-4.37s1.46-4.37,1.46-7.29c0-3.28-.36-5.47-1.46-7.65Z"/>
    <path class="cls-2" d="m599.21,845.7c3.28,3.28,4.74,8.38,4.74,14.57v26.96h-12.02v-25.14c0-3.64-.73-6.56-2.55-8.38s-4.01-2.91-7.65-2.91c-2.91,0-5.83,1.09-7.65,2.91-1.82,1.82-2.55,4.74-2.55,8.38v25.5h-12.02v-46.27h12.02v5.83c1.46-1.82,3.28-3.28,6.19-4.37,2.19-1.09,4.74-1.82,8.02-1.82,6.19-.36,10.2,1.46,13.48,4.74Z"/>
    <path class="cls-2" d="m619.61,851.89c1.82-3.64,4.37-6.56,7.65-8.38,2.91-1.82,6.92-2.91,10.93-2.91,3.28,0,6.56.73,9.47,1.82,2.55,1.09,4.37,2.91,6.19,5.1v-6.56h12.02v46.64h-12.02v-6.19c-1.46,2.19-3.28,3.64-6.19,5.1-2.55,1.46-5.83,2.19-9.47,2.19s-7.65-1.09-10.93-2.91c-2.91-1.82-5.83-4.74-7.65-8.38-1.82-3.64-2.55-8.02-2.55-12.75,0-5.1.73-9.11,2.55-12.75Zm32.43,5.1c-1.09-1.82-2.55-3.28-4.37-4.37s-3.64-1.46-6.19-1.46-4.01.36-6.19,1.46c-1.82,1.09-3.28,2.55-4.37,4.37s-1.46,4.37-1.46,7.29c0,2.55.36,5.1,1.46,7.29,1.09,1.82,2.55,3.64,4.37,4.74s3.64,1.46,6.19,1.46,4.01-.36,6.19-1.46c1.82-1.09,3.28-2.55,4.37-4.37s1.46-4.37,1.46-7.29c0-3.28-.36-5.47-1.46-7.65Z"/>
    <path class="cls-2" d="m708.51,842.42c2.55,1.46,4.37,2.91,6.19,5.1v-6.56h12.02v47.36c0,4.01-.73,8.02-2.55,11.66-1.82,3.28-4.01,6.19-7.65,8.02-3.28,1.82-7.65,2.91-12.75,2.91-6.56,0-12.02-1.46-16.03-4.37-4.01-2.91-6.56-7.29-7.29-12.75h11.66c.73,2.19,1.82,3.64,3.64,4.74s4.37,1.82,7.29,1.82c3.28,0,6.19-1.09,8.38-2.91s2.91-4.74,2.91-9.47v-7.29c-1.46,2.19-3.28,3.64-6.19,5.1-2.55,1.46-5.83,2.19-9.47,2.19s-7.65-1.09-10.93-2.91c-2.91-1.82-5.83-4.74-7.65-8.38s-2.55-8.02-2.55-12.75.73-8.74,2.55-12.75,4.37-6.56,7.65-8.38c2.91-1.82,6.92-2.91,10.93-2.91,4.37.73,7.65,1.46,9.84,2.55Zm4.37,14.57c-1.09-1.82-2.55-3.28-4.37-4.37s-3.64-1.46-6.19-1.46-4.01.36-6.19,1.46c-1.82,1.09-3.28,2.55-4.37,4.37s-1.46,4.37-1.46,7.29c0,2.55.36,5.1,1.46,7.29,1.09,1.82,2.55,3.64,4.37,4.74s3.64,1.46,6.19,1.46,4.01-.36,6.19-1.46c1.82-1.09,3.28-2.55,4.37-4.37s1.46-4.37,1.46-7.29c.36-3.28-.36-5.47-1.46-7.65Z"/>
    <path class="cls-2" d="m785.39,868.29h-34.25c.36,3.28,1.46,6.19,3.28,8.02s4.37,2.55,7.65,2.55c4.01,0,7.65-1.82,9.47-5.83h12.75c-1.46,4.37-3.64,8.02-7.65,11.29-3.64,2.91-8.38,4.01-14.21,4.01-4.37,0-8.38-1.09-12.02-2.91-3.28-1.82-6.56-4.74-8.38-8.38-1.82-3.64-2.91-7.65-2.91-12.75s1.09-9.47,2.91-12.75c1.82-3.64,4.37-6.56,8.02-8.38,3.28-1.82,7.65-2.91,12.39-2.91,4.37,0,8.38.73,12.02,2.55,3.28,1.82,6.19,4.37,8.02,8.02,1.82,3.28,2.91,7.65,2.91,12.02.36,2.19.36,4.01,0,5.47Zm-11.66-8.38c0-2.91-1.09-5.1-3.28-7.29-2.19-1.82-4.37-2.55-7.65-2.55-2.91,0-5.1.73-7.29,2.55s-2.91,4.01-3.64,7.29h21.86Z"/>
    <path class="cls-2" d="m823.28,833.67c-1.46-1.09-1.82-2.91-1.82-4.74s.73-3.28,1.82-4.74c1.46-1.09,2.91-1.82,4.74-1.82s3.64.73,4.74,1.82c1.46,1.09,1.82,2.91,1.82,4.74s-.73,3.28-1.82,4.74c-1.46,1.09-2.91,1.82-4.74,1.82s-3.28-.36-4.74-1.82Zm11.29,7.65v46.64h-12.02v-46.64h12.02Z"/>
    <path class="cls-2" d="m864.45,851.16v22.59c0,1.46.36,2.55,1.09,3.28.73.73,1.82,1.09,3.64,1.09h5.1v10.2h-7.29c-10.2,0-14.94-4.74-14.94-14.57v-22.59h-5.1v-9.84h5.1v-11.66h12.02v11.66h10.57v9.84h-10.2Z"/>
    <path class="cls-2" d="m887.4,886.87c-1.46-1.09-1.82-2.91-1.82-4.74s.73-3.28,1.82-4.74c1.46-1.09,2.91-1.82,5.1-1.82,1.82,0,3.64.73,4.74,1.82,1.46,1.09,1.82,2.91,1.82,4.74s-.73,3.28-1.82,4.74c-1.46,1.09-2.91,1.82-4.74,1.82-2.19,0-4.01-.73-5.1-1.82Z"/>
  </g>
  <g>
    <path class="cls-2" d="m108.4,688.6v83.07h-20.04v-49.92l-18.58,49.92h-16.4l-18.58-49.92v49.92H14.76v-83.07h23.68l23.32,57.57,23.32-57.57c-.36,0,23.32,0,23.32,0Z"/>
    <path class="cls-2" d="m263.25,705.73v65.95h-20.04v-9.11c-2.19,2.91-5.1,5.1-8.38,7.29-3.28,1.82-7.29,2.91-11.66,2.91-5.1,0-9.47-1.09-13.12-3.28-3.64-2.19-6.92-5.47-9.11-9.84-2.19-4.37-2.91-9.11-2.91-15.3v-38.62h20.04v35.71c0,4.37,1.09,7.65,3.28,10.2,2.19,2.55,5.1,3.64,9.11,3.64s7.29-1.09,9.11-3.64c2.19-2.55,3.28-5.83,3.28-10.2v-35.71h20.4Z"/>
    <path class="cls-2" d="m314.62,754.55v17.12h-10.2c-7.29,0-13.12-1.82-17.12-5.1-4.01-3.64-6.19-9.47-6.19-17.49v-26.23h-8.02v-16.76h8.02v-16.03h20.04v16.03h13.12v16.76h-13.12v26.6c0,1.82.73,3.28,1.46,4.37,1.09,1.09,2.55,1.09,4.74,1.09,0-.36,7.29-.36,7.29-.36Z"/>
    <path class="cls-2" d="m384.21,712.65c4.74,5.1,6.92,11.66,6.92,20.77v38.26h-20.04v-36.07c0-4.37-1.09-7.65-3.28-10.2-2.19-2.55-5.1-3.64-9.11-3.64-3.64,0-6.92,1.09-9.11,3.64-2.19,2.55-3.28,5.83-3.28,10.2v36.07h-20.04v-87.44h20.04v30.24c2.19-2.91,5.1-5.1,8.38-7.29,3.28-1.82,7.29-2.55,12.02-2.55,7.29,0,13.48,2.55,17.49,8.02Z"/>
    <path class="cls-2" d="m465.46,728.68c-2.19,4.01-5.47,7.29-10.2,9.47-4.74,2.55-10.2,3.64-17.12,3.64h-12.75v29.88h-20.04v-83.07h32.79c6.56,0,12.39,1.09,16.76,3.28,4.74,2.19,8.02,5.47,10.2,9.47s3.28,8.74,3.28,13.85c.36,5.1-.73,9.47-2.91,13.48Zm-20.04-5.83c1.82-1.82,2.91-4.37,2.91-7.65s-1.09-5.83-2.91-7.65-4.74-2.91-8.74-2.91h-11.29v20.77h11.29c3.64.36,6.92-.73,8.74-2.55Z"/>
    <path class="cls-2" d="m544.16,705.73v65.95h-20.04v-9.11c-2.19,2.91-5.1,5.1-8.38,7.29-3.28,1.82-7.29,2.91-11.66,2.91-5.1,0-9.47-1.09-13.12-3.28-3.64-2.19-6.92-5.47-9.11-9.84-2.19-4.37-2.91-9.11-2.91-15.3v-38.62h20.04v35.71c0,4.37,1.09,7.65,3.28,10.2,2.19,2.55,5.1,3.64,9.11,3.64s7.29-1.09,9.11-3.64c2.19-2.55,3.28-5.83,3.28-10.2v-35.71h20.4Z"/>
    <path class="cls-2" d="m587.15,707.55c3.28-1.82,7.65-2.91,12.02-2.91,5.47,0,10.57,1.09,14.94,4.01,4.37,2.91,8.02,6.92,10.57,11.66,2.55,5.1,3.64,11.29,3.64,17.85s-1.09,12.75-3.64,17.85-6.19,9.11-10.57,12.02-9.11,4.37-14.94,4.37c-4.74,0-8.74-1.09-12.02-2.91-3.28-1.82-6.19-4.37-8.02-7.29v9.47h-20.04v-87.81h20.04v30.97c1.82-2.91,4.74-5.47,8.02-7.29Zm16.4,19.31c-2.91-2.91-6.19-4.37-10.2-4.37s-7.29,1.46-10.2,4.37-4.37,6.92-4.37,12.02,1.46,9.11,4.37,12.02,6.19,4.37,10.2,4.37,7.29-1.46,10.2-4.37,4.37-6.92,4.37-12.02-1.46-9.47-4.37-12.02Z"/>
    <path class="cls-2" d="m659.29,683.87v87.44h-20.04v-87.44h20.04Z"/>
    <path class="cls-2" d="m675.69,695.53c-2.19-2.19-3.28-4.74-3.28-7.65s1.09-5.83,3.28-7.65c2.19-1.82,5.1-2.91,8.74-2.91,3.28,0,6.19,1.09,8.74,2.91,2.55,2.19,3.28,4.74,3.28,7.65s-1.09,5.47-3.28,7.65-5.1,2.91-8.74,2.91c-4.01,0-6.56-.73-8.74-2.91Zm18.58,10.2v65.95h-20.04v-65.95h20.04Z"/>
    <path class="cls-2" d="m708.84,720.67c2.91-5.1,6.92-9.11,11.66-11.66,4.74-2.55,10.93-4.01,17.49-4.01,8.38,0,15.3,2.19,20.77,6.56,5.47,4.37,9.11,10.57,10.93,18.22h-21.86c-1.82-5.1-5.1-7.29-10.57-7.29-3.64,0-6.92,1.46-9.11,4.37s-3.28,7.29-3.28,12.39,1.09,9.47,3.28,12.39c2.19,2.91,5.1,4.37,9.11,4.37,5.1,0,8.74-2.55,10.57-7.29h21.5c-1.82,7.65-5.1,13.85-11.29,18.22-5.47,4.37-12.39,6.56-20.77,6.56-6.56,0-12.02-1.09-17.49-4.01-5.1-2.91-9.11-6.92-11.66-11.66-2.91-5.1-4.37-11.29-4.37-17.85.73-7.65,2.55-14.21,5.1-19.31Z"/>
    <path class="cls-2" d="m782.08,695.53c-2.19-2.19-3.28-4.74-3.28-7.65s1.09-5.83,3.28-7.65c2.19-1.82,5.1-2.91,8.74-2.91,3.28,0,6.19,1.09,8.74,2.91,2.55,2.19,3.28,4.74,3.28,7.65s-1.09,5.47-3.28,7.65-5.1,2.91-8.74,2.91c-4.01,0-6.56-.73-8.74-2.91Zm18.22,10.2v65.95h-20.04v-65.95h20.04Z"/>
    <path class="cls-2" d="m852.03,754.55v17.12h-10.2c-7.29,0-13.12-1.82-17.12-5.1-4.01-3.64-6.19-9.47-6.19-17.49v-26.23h-8.02v-16.76h8.02v-16.03h20.04v16.03h13.12v16.76h-12.75v26.6c0,1.82.73,3.28,1.46,4.37,1.09,1.09,2.55,1.09,4.74,1.09,0-.36,6.92-.36,6.92-.36Z"/>
    <path class="cls-2" d="m930.73,705.73l-41.54,97.28h-21.5l15.3-33.52-26.96-63.76h22.59l15.3,41.17,15.3-41.17s21.5,0,21.5,0Z"/>
    <path class="cls-2" d="m135.31,768.71c-5.16-2.76-9.22-6.7-12.17-11.82-2.95-5.12-4.43-11.11-4.43-17.96s1.5-12.74,4.49-17.9c2.99-5.16,7.09-9.12,12.29-11.88,5.2-2.76,11.03-4.14,17.49-4.14s12.29,1.38,17.49,4.14c5.2,2.76,9.3,6.72,12.29,11.88,2.99,5.16,4.49,11.13,4.49,17.9s-1.52,12.75-4.55,17.9c-3.03,5.16-7.17,9.12-12.41,11.88-5.24,2.76-11.09,4.14-17.55,4.14s-12.27-1.38-17.43-4.14Zm27.3-17.61c2.72-2.84,4.08-6.89,4.08-12.17s-1.32-9.34-3.96-12.17c-2.64-2.84-5.89-4.25-9.75-4.25s-7.21,1.4-9.81,4.2c-2.6,2.8-3.9,6.87-3.9,12.23s1.28,9.34,3.84,12.17c2.56,2.84,5.77,4.25,9.63,4.25s7.15-1.42,9.87-4.25Z"/>
    <g>
      <path class="cls-2" d="m934.74,769.49c-2.19-2.19-3.28-4.74-3.28-7.65,0-3.28,1.09-5.83,3.28-8.02s5.1-3.28,8.74-3.28c3.28,0,6.19,1.09,8.38,3.28s3.28,4.74,3.28,8.02c0,2.91-1.09,5.47-3.28,7.65-2.19,2.19-5.1,3.28-8.38,3.28-3.64-.36-6.56-1.09-8.74-3.28Z"/>
      <path class="cls-2" d="m968.62,696.25c-2.19-2.19-3.28-4.74-3.28-7.65,0-3.28,1.09-5.83,3.28-7.65,2.19-2.19,5.1-3.28,8.74-3.28,3.28,0,6.19,1.09,8.38,3.28,2.19,2.19,3.28,4.74,3.28,7.65s-1.09,5.47-3.28,7.65-5.1,3.28-8.38,3.28c-3.64,0-6.56-1.09-8.74-3.28Zm18.58,10.2v65.22h-20.04v-65.22h20.04Z"/>
    </g>
    <path class="cls-2" d="m1013.3,768.82c-5.16-2.76-9.22-6.7-12.17-11.82-2.95-5.12-4.43-11.11-4.43-17.96s1.5-12.74,4.49-17.9c2.99-5.16,7.09-9.12,12.29-11.88,5.2-2.76,11.03-4.14,17.49-4.14s12.29,1.38,17.49,4.14c5.2,2.76,9.3,6.72,12.29,11.88,2.99,5.16,4.49,11.13,4.49,17.9s-1.52,12.75-4.55,17.9c-3.03,5.16-7.17,9.12-12.41,11.88-5.24,2.76-11.09,4.14-17.55,4.14s-12.27-1.38-17.43-4.14Zm27.3-17.61c2.72-2.84,4.08-6.89,4.08-12.17s-1.32-9.34-3.96-12.17c-2.64-2.84-5.89-4.25-9.75-4.25s-7.21,1.4-9.81,4.2c-2.6,2.8-3.9,6.87-3.9,12.23s1.28,9.34,3.84,12.17c2.56,2.84,5.77,4.25,9.63,4.25s7.15-1.42,9.87-4.25Z"/>
  </g>
</svg>