<?xml version="1.0" encoding="utf-8"?>
<!-- Generator: Adobe Illustrator 26.0.1, SVG Export Plug-In . SVG Version: 6.00 Build 0)  -->
<svg version="1.1" id="Layer_1" xmlns="http://www.w3.org/2000/svg" xmlns:xlink="http://www.w3.org/1999/xlink" x="0px" y="0px"
	 viewBox="0 0 567 558" style="enable-background:new 0 0 567 558;" xml:space="preserve">
<style type="text/css">
	.st0{fill:url(#SVGID_1_);}
	.st1{opacity:0.37;clip-path:url(#SVGID_00000040574822953132923410000007025870023526910137_);fill:#A6A6A6;}
	.st2{fill:url(#Rectangle_316_00000023258070753637358580000000266843342894528946_);}
	.st3{fill:none;stroke:#95989A;stroke-width:2;}
	.st4{fill:url(#Ellipse_1_00000111150821968761070970000013920520958675796915_);}
	.st5{fill:url(#Ellipse_9_00000043433505058584803220000009872626695798187431_);}
	.st6{fill:url(#Ellipse_8_00000028307942803602130040000015608796848506137235_);}
	.st7{fill:url(#Ellipse_10_00000164515644541932057450000014378564991700485020_);}
	.st8{fill:url(#Ellipse_3_00000138575721145728027450000018441490104781030580_);}
	.st9{fill:url(#Ellipse_13_00000114042526391907643100000016088070893531564199_);}
	.st10{fill:url(#Ellipse_5_00000033370041981500635410000013344944106302960019_);}
	.st11{fill:url(#Ellipse_14_00000098935146019197019470000006378545996339083651_);}
	.st12{fill:url(#Ellipse_2_00000105389023000210410640000015556997749409122489_);}
	.st13{fill:url(#Ellipse_11_00000115501344480916085950000011906314864198402467_);}
	.st14{fill:url(#Ellipse_7_00000008858167389463430530000003423303425326322819_);}
	.st15{fill:url(#Ellipse_12_00000094601781280339481210000005303167198439027639_);}
	.st16{fill:url(#Ellipse_4_00000158742507230173502540000004083868512503431553_);}
	.st17{fill:url(#Ellipse_15_00000158708223463901344960000000548359434075501210_);}
	.st18{fill:url(#Ellipse_6_00000026162497268086035080000018011073070417722268_);}
	.st19{fill:url(#Ellipse_16_00000144312676679357001760000006779977261457579430_);}
	.st20{opacity:0.11;}
	.st21{clip-path:url(#SVGID_00000084526397145438325940000018243931457338032305_);}
	.st22{fill:url(#Path_1706_00000181806592950555357500000015521333664675249334_);}
	.st23{fill:url(#Path_1707_00000114784021641752037200000003462332497600007554_);}
	.st24{fill:url(#Path_1708_00000131343426694497878800000011922080984244056212_);}
	.st25{fill:url(#Path_1709_00000173136674752206431850000001543835612369760902_);}
	.st26{fill:url(#Path_1711_00000104669432594532887590000001641223353543860924_);}
	.st27{opacity:0.23;enable-background:new    ;}
	.st28{fill:none;stroke:#FFFFFF;stroke-width:8;stroke-linecap:round;stroke-linejoin:round;}
	.st29{fill:url(#SVGID_00000026150884826665457000000002834083217030513577_);}
	.st30{fill:url(#SVGID_00000078008129775916174150000018214652380417990844_);}
	.st31{fill:url(#SVGID_00000133490726834279851280000003928024245352282037_);}
	.st32{fill:url(#SVGID_00000156550922408257541930000017651593820150154921_);}
	.st33{fill:url(#SVGID_00000134938731567816817040000011900555199196459936_);}
	.st34{fill:#FFFFFF;}
	.st35{fill-rule:evenodd;clip-rule:evenodd;fill:#FFFFFF;}
	.st36{fill:url(#ico_facebook_ACTIVE-2_00000084517490537944112440000013920175284754211478_);}
	.st37{enable-background:new    ;}
	.st38{fill:#222222;}
	.st39{fill:url(#bg-6_00000097494918092476164470000003239682812003882391_);}
	.st40{fill:url(#SVGID_00000095327178577828329750000010436938258704891322_);}
	.st41{fill:url(#SVGID_00000121239213183607777450000018124907718287687059_);}
	.st42{fill:url(#SVGID_00000159432389877370155570000005744085705020917641_);}
	.st43{fill:url(#SVGID_00000129176151635707213540000007322166190430739617_);}
	.st44{fill:url(#SVGID_00000109741336170524125560000015230774542452087726_);}
	.st45{display:none;fill:url(#Path_2_00000077302800565217164440000018428074996010438319_);}
	.st46{display:none;fill:url(#Path_2_-_Outline_00000078748581825863967260000018227309991941764504_);}
	.st47{display:none;}
	.st48{display:inline;fill:#CCCCCC;}
	.st49{display:inline;}
	.st50{display:inline;fill:#D9D9D9;}
	.st51{fill:#F5F5F5;}
	.st52{fill:#E6E6E6;}
	.st53{fill:#E0E0E0;}
	.st54{fill:#F0F0F0;}
	.st55{opacity:0.2;enable-background:new    ;}
	.st56{fill:none;}
	.st57{fill:#EBEBEB;}
	.st58{fill:#FAFAFA;}
	.st59{fill:#CACACA;}
	.st60{opacity:0.1;enable-background:new    ;}
	.st61{opacity:0.15;}
	.st62{fill:url(#SVGID_00000147213081853416536090000006481227922214739850_);}
	.st63{opacity:0.2;fill:#FFFFFF;enable-background:new    ;}
	.st64{fill:url(#SVGID_00000147922321392252866540000015908037643971418044_);}
	.st65{fill:url(#SVGID_00000076572067391109990390000005062370818784091574_);}
	.st66{fill:url(#SVGID_00000128476376474626318860000008040309588328244660_);}
	.st67{fill:url(#SVGID_00000031898598080966862970000003099907289745753242_);}
	.st68{opacity:0.4;fill:#FFFFFF;enable-background:new    ;}
	.st69{fill:url(#SVGID_00000021798327110715788110000009358399338492214445_);}
	.st70{fill:url(#SVGID_00000000902165087582886850000013066978132859042464_);}
	.st71{fill:url(#SVGID_00000172424274542035513480000005407810335892697004_);}
	.st72{fill:url(#SVGID_00000126302845706761958000000003530080388050804376_);}
	.st73{fill:url(#SVGID_00000147192366039723478630000007764947995962715826_);}
	.st74{fill:url(#SVGID_00000023962247802267839660000006267839628903216035_);}
	.st75{fill:url(#SVGID_00000113328778054669573720000007785890316107928451_);}
	.st76{fill:url(#SVGID_00000008848054972308100890000008218937995782262443_);}
	.st77{fill:url(#SVGID_00000097475694271423933720000011077193678022207676_);}
	.st78{fill:url(#SVGID_00000131329664702029328400000010517919555615190929_);}
	.st79{fill:url(#SVGID_00000088098744137132761380000010216809180198126003_);}
	.st80{fill:url(#SVGID_00000089570532245545839500000003984124494458868881_);}
	.st81{fill:url(#SVGID_00000076601165558295034510000001243880216413774518_);}
	.st82{fill:url(#SVGID_00000025429875274846505790000002950467727343250341_);}
	.st83{opacity:0.6;}
	.st84{fill:url(#SVGID_00000047024102704897648200000001946190618201513402_);}
	.st85{opacity:0.1;fill:#FFFFFF;enable-background:new    ;}
	.st86{fill:url(#SVGID_00000018222729726107320240000009616672219997628087_);}
	.st87{fill:url(#SVGID_00000008114942234452078120000014145178778210232965_);}
	.st88{opacity:0.4;enable-background:new    ;}
	.st89{fill:#455A64;}
	.st90{fill:url(#SVGID_00000150809595558778876720000017755929936620274055_);}
	.st91{fill:#AD5755;}
	.st92{fill:#37474F;}
	.st93{fill:url(#SVGID_00000163037189510431308720000006853111086638837933_);}
	.st94{fill:url(#SVGID_00000083801281155602253870000017328027517771589021_);}
	.st95{opacity:0.3;enable-background:new    ;}
	.st96{fill:url(#SVGID_00000083784646679378845010000011093131026903580058_);}
	.st97{fill:#263238;}
	.st98{fill:url(#SVGID_00000119805387632022163800000002115234028343480994_);}
	.st99{fill:#E8E8E8;}
	.st100{fill:#D9D9D9;}
	.st101{fill:none;stroke:#202020;}
	.st102{fill:url(#SVGID_00000093170589546012678510000008951844493264004248_);}
	.st103{fill:url(#SVGID_00000049198184299911437810000012400893127882431909_);}
	.st104{fill:url(#SVGID_00000013194961229528091640000013228117372054753960_);}
	.st105{fill:url(#SVGID_00000031203634663173391130000013299091852306679451_);}
	.st106{fill:url(#SVGID_00000106107479938359142170000000299901218412458392_);}
	.st107{fill:url(#SVGID_00000168806943675695138020000016818397009187018670_);}
	.st108{fill:url(#SVGID_00000134245889898586939620000007100822970628660411_);}
	.st109{fill:url(#SVGID_00000044897262464916228380000002190309655993751484_);}
	.st110{fill:url(#SVGID_00000175294916495573212570000017610349456429740190_);}
	.st111{fill:url(#SVGID_00000027573595741543002260000008434357224183343493_);}
	.st112{fill:url(#SVGID_00000145777466649704071170000005401530992134972351_);}
	.st113{fill:url(#SVGID_00000072239558896065595850000001785485150445332138_);}
	.st114{fill:url(#SVGID_00000131331663300223547230000000636314917417795483_);}
	.st115{opacity:0.3;fill:#FFFFFF;enable-background:new    ;}
	.st116{opacity:0.5;}
	.st117{opacity:0.05;fill:#FFFFFF;enable-background:new    ;}
	.st118{fill:url(#SVGID_00000107567908280093378670000013490553268523350685_);}
	.st119{fill:url(#SVGID_00000062902642733356122370000008272180511718236857_);}
	.st120{fill:url(#SVGID_00000114757799892496851190000010013159905887237505_);}
	.st121{fill:url(#SVGID_00000163761804622564573270000002075399441989662127_);}
	.st122{fill:url(#SVGID_00000106837819965044105430000001615428351771032242_);}
	.st123{fill:url(#SVGID_00000072265978985803281530000004564748285240073652_);}
	.st124{fill:url(#SVGID_00000134216874986138293940000002220185664993346179_);}
	.st125{fill:#6E3938;}
	.st126{fill:url(#SVGID_00000153690350414723176850000001376282828902179745_);}
	.st127{fill:#915B5A;}
	.st128{fill:url(#SVGID_00000094597408091548640580000004419178674900112274_);}
	.st129{fill:url(#SVGID_00000098899418750574771760000003954223998106982306_);}
	.st130{fill:url(#SVGID_00000076582362435581241830000003215046495442486659_);}
	.st131{fill:url(#SVGID_00000041998139057839543480000012711225555143076228_);}
	.st132{fill:url(#SVGID_00000080890664510447039470000005220116071587305870_);}
	.st133{fill:url(#SVGID_00000109008241191160403200000005395134544143062967_);}
	.st134{fill:url(#SVGID_00000150086085465321656190000015816104739832296889_);}
	.st135{fill:url(#SVGID_00000121244765134216126480000000530722527734198441_);}
	.st136{fill:url(#SVGID_00000052785797771292189270000001328889371345295260_);}
	.st137{fill:url(#SVGID_00000027577468879736768470000007378053956620470179_);}
	.st138{fill:url(#SVGID_00000167378075656146020830000001186364681275570574_);}
	.st139{fill:url(#SVGID_00000070087608795202124180000000463464492231866811_);}
	.st140{fill:url(#SVGID_00000036238666631936097030000008001437059834284703_);}
	.st141{fill:url(#SVGID_00000059303798840349701620000001974254968159196572_);}
	.st142{fill:url(#SVGID_00000049927788109240840230000003730596336771845776_);}
	.st143{fill:url(#SVGID_00000154416549898407283710000000275455219546645431_);}
	.st144{fill:url(#SVGID_00000026129546818020091010000012155409388762654376_);}
	.st145{fill:url(#SVGID_00000057148396252627435400000012340513486031391386_);}
	.st146{fill:url(#SVGID_00000079481452008533666600000004586065814897838749_);}
	.st147{fill:url(#SVGID_00000059286255807762162340000010515115994281884351_);}
	.st148{fill:url(#SVGID_00000021095005284630448710000017964747490979261832_);}
	.st149{fill:url(#SVGID_00000088824745880457027840000000884058923249243785_);}
	.st150{fill:url(#SVGID_00000070813361998576509530000005203344878252815795_);}
	.st151{opacity:0.4;}
	.st152{fill:#B78876;}
	.st153{fill:#AA6550;}
	.st154{opacity:0.2;}
	.st155{fill:url(#SVGID_00000018222526674195349100000010363497123651933607_);}
	.st156{fill:#FFBE9D;}
	.st157{fill:#EB996E;}
	.st158{fill:url(#SVGID_00000138543603264620267990000001167716630145755061_);}
	.st159{fill:url(#SVGID_00000101095716946381494080000000331721530063180955_);}
	.st160{fill:url(#SVGID_00000172426425536324050780000000742633297236120244_);}
	.st161{fill:url(#SVGID_00000031888695599260305060000006359850783355304116_);}
	.st162{fill:url(#SVGID_00000036973776890356012660000002950873425373766063_);}
	.st163{fill:url(#SVGID_00000107590391520280066560000006781571435108284085_);}
	.st164{fill:url(#SVGID_00000029042559229231044640000018194637591588384679_);}
	.st165{fill:url(#SVGID_00000096027286727968687390000005868969273640603039_);}
	.st166{fill:url(#SVGID_00000100377609174899390380000002241248708026494637_);}
	.st167{fill:url(#SVGID_00000047025567774635138630000001559194595136200583_);}
	.st168{fill:url(#SVGID_00000011721609761782268540000009586708348888996506_);}
	.st169{fill:#0011E5;}
	.st170{fill:url(#SVGID_00000096039184937380956510000016512751069392792470_);}
	.st171{fill:#F4F4F4;}
	.st172{fill:url(#SVGID_00000181048056928213720490000005517019399824232077_);}
	.st173{fill:url(#SVGID_00000106845796083813311720000014162609439126403743_);}
	.st174{fill:#020100;}
	.st175{fill:url(#SVGID_00000123435138054150413110000012449052244589657522_);}
	.st176{fill:url(#SVGID_00000015324952730958523400000005060872141014944431_);}
	.st177{fill:url(#SVGID_00000018916186736251701590000013381298225871765683_);}
	.st178{fill:url(#SVGID_00000172415724380617385080000017123711788911757244_);}
	.st179{fill:url(#SVGID_00000078026200128998739790000016224682507681469086_);}
	.st180{fill:url(#SVGID_00000075875171959942029720000000756232367190633619_);}
	.st181{fill:url(#SVGID_00000070810555865203462220000016789557384712311442_);}
	.st182{fill:url(#SVGID_00000137832948416176315050000010948703130355511453_);}
	.st183{fill:url(#SVGID_00000145049418174775240070000005455036989600123039_);}
	.st184{fill:url(#SVGID_00000120527329319331740000000013083407591843144115_);}
	.st185{fill:url(#SVGID_00000031202210142535785950000012965147626809281161_);}
	.st186{fill:url(#SVGID_00000163764484056460406840000013562829606416085408_);}
	.st187{fill:url(#SVGID_00000164495436346532782710000009697006851785418657_);}
	.st188{fill:url(#SVGID_00000065038513033175340720000014111061776198662821_);}
	.st189{fill:url(#SVGID_00000011744328807513425680000005096094021853832600_);}
	.st190{fill:url(#SVGID_00000166656853562969605910000013991947584467151027_);}
	.st191{fill:url(#SVGID_00000084505638745809467450000017840488559696217534_);}
	.st192{fill:url(#SVGID_00000173158993640517479470000009577292514912898193_);}
	.st193{fill:url(#SVGID_00000110447265670833672410000012695759046654298290_);}
	.st194{fill:url(#SVGID_00000079487604319412844780000015087671792526784651_);}
	.st195{fill:url(#SVGID_00000137094730888877078670000004837205279899378363_);}
	.st196{fill:url(#SVGID_00000091733620870442051150000000205442138180907191_);}
	.st197{fill:url(#SVGID_00000029723871755001011960000000789232362614786968_);}
	.st198{fill:url(#SVGID_00000173142122008649610070000003546499063654821528_);}
	.st199{fill:url(#SVGID_00000088108545745948227110000012247156772421494451_);}
	.st200{fill:#333333;}
	.st201{fill:#161616;}
	.st202{fill:url(#SVGID_00000025435123946319933760000003129034774728064698_);}
	.st203{fill:url(#SVGID_00000183957964597517054420000010367834994751238053_);}
	.st204{fill:url(#SVGID_00000067944509249904555080000004509848096369791643_);}
	.st205{fill:url(#SVGID_00000022522564233129765630000009659265250437824958_);}
	.st206{fill:url(#SVGID_00000014596117145490933000000008523129881162911406_);}
	.st207{opacity:0.15;enable-background:new    ;}
	.st208{fill:url(#SVGID_00000001633376133103857600000015605799078670684039_);}
	.st209{fill:url(#SVGID_00000054233324052826349070000003604060815481824403_);}
	.st210{fill:url(#SVGID_00000131329732943233734220000005222425915464004764_);}
	.st211{fill:url(#SVGID_00000067218848826116486760000017587332348641922945_);}
	.st212{fill:url(#SVGID_00000114761792463071500960000004985025326254253724_);}
	.st213{fill:url(#SVGID_00000080912688782602036430000002751928400837835943_);}
	.st214{fill:url(#SVGID_00000005231618098037944810000009819127052061377455_);}
	.st215{fill:url(#SVGID_00000101076003213197128610000014910310821909370005_);}
	.st216{fill:url(#SVGID_00000023252990875308501850000010366340729447312286_);}
	.st217{fill:url(#SVGID_00000059999687417668258700000000647644763113747608_);}
	.st218{fill:url(#SVGID_00000119803239320679732090000003294485762161911700_);}
	.st219{fill:url(#SVGID_00000127020306013006545980000017095017995825739676_);}
	.st220{fill:url(#SVGID_00000099640400297738085940000012248690249631648444_);}
	.st221{fill:url(#SVGID_00000075853897548623265650000011001349475812802950_);}
	.st222{fill:url(#SVGID_00000041280711610251033180000003414898559350770623_);}
	.st223{fill:url(#SVGID_00000087377720637396729600000007929224790896749728_);}
	.st224{fill:#F28F8F;}
	.st225{fill:url(#SVGID_00000023978954547723398340000015083327509061827473_);}
	.st226{fill:url(#SVGID_00000029024827711368065400000011192084870007605660_);}
	.st227{fill:url(#SVGID_00000000220527086259384870000016786010183450791855_);}
	.st228{fill:url(#SVGID_00000033366348167836944110000016544748458367749272_);}
	.st229{opacity:0.05;enable-background:new    ;}
	.st230{opacity:0.1;}
	.st231{fill:#FFA8A7;}
	.st232{fill:#191919;}
	.st233{fill:url(#SVGID_00000066504241570650872410000005946952784747614895_);}
	.st234{fill:url(#SVGID_00000119796981352634484740000013180530809576720561_);}
	.st235{fill:url(#SVGID_00000091698144227583337450000008670223292878834077_);}
	.st236{fill:url(#SVGID_00000044173307792671424000000006011396794208636041_);}
	.st237{fill:url(#SVGID_00000180336312828809489350000004844920556715699605_);}
	.st238{fill:url(#SVGID_00000062884343490785711070000006604993446888630926_);}
	.st239{fill:url(#SVGID_00000076569966032573974920000003302224078482957498_);}
	.st240{fill:url(#SVGID_00000103234121040304860410000003706543219218669972_);}
	.st241{fill:url(#SVGID_00000002376378404802549920000009487065610882483074_);}
	.st242{fill:url(#SVGID_00000166665008233454034110000001454806727559615648_);}
	.st243{fill:url(#SVGID_00000141448765143814583110000000088044617178030772_);}
	.st244{fill:url(#SVGID_00000108303596828157813500000005731015067842213268_);}
	.st245{fill:url(#SVGID_00000083083431187165028880000014359348709145423257_);}
	.st246{fill:url(#SVGID_00000069400168815248671590000007024312532893603457_);}
	.st247{fill:url(#SVGID_00000149364363596686544230000002559764223376626826_);}
	.st248{fill:url(#SVGID_00000072998098353513921530000010584461392375112850_);}
	.st249{fill:url(#SVGID_00000049193924482853963080000010251087577057522072_);}
	.st250{fill:url(#SVGID_00000018217496435773690530000012438105959509600432_);}
	.st251{fill:url(#SVGID_00000033334105419709385020000014856922572150247581_);}
	.st252{fill:url(#SVGID_00000023252707539096295490000000474833123539157641_);}
	.st253{fill:url(#SVGID_00000129185222115437119970000004917478312298615188_);}
	.st254{fill:url(#SVGID_00000157289763966923806790000003989541004631596446_);}
	.st255{fill:url(#SVGID_00000033371278180526365690000009517917164715412864_);}
	.st256{fill:url(#SVGID_00000051343556179022603870000002355929364896972457_);}
	.st257{fill:url(#SVGID_00000135682563751539359530000017904563575887117714_);}
	.st258{fill:url(#SVGID_00000051347952922456759470000015816821787296056971_);}
	.st259{fill:url(#SVGID_00000050661728290751420780000011731473336264328631_);}
	.st260{opacity:0.6;fill:url(#Path_1235_00000173142811667879281810000001263734120853895819_);}
	.st261{opacity:0.24;}
	.st262{fill:none;stroke:#FFFFFF;stroke-miterlimit:10;enable-background:new    ;}
	.st263{fill:#B1CDEF;}
	.st264{fill:#EAF6FD;}
	.st265{fill:#56C37F;}
	.st266{fill:#3EA2E5;}
	.st267{fill:#EAA549;}
	.st268{fill:#FFD15F;}
	.st269{fill:#DB7937;}
	.st270{fill:#594D7A;}
	.st271{fill:url(#SVGID_00000049929373377043760590000013322969132668066958_);}
	.st272{fill:#FECFBD;}
	.st273{fill:#2D4559;}
	.st274{fill:#40637F;}
	.st275{fill:#50758E;}
	.st276{fill:#2E8CC2;}
	.st277{fill:#F5AC9E;}
	.st278{fill:#FF617C;}
	.st279{fill:#E24D4D;}
	.st280{fill:url(#SVGID_00000119080191587613131790000015401229518726850199_);}
	.st281{fill:url(#SVGID_00000075866289269447497810000015646345470054346140_);}
	.st282{fill:url(#SVGID_00000178163356790833904000000011664095244883535245_);}
	.st283{fill:url(#SVGID_00000181798313704298061440000004893679504583796609_);}
	.st284{fill:#62B7D1;}
	.st285{fill:#576970;}
	.st286{fill:url(#SVGID_00000042726592526705326460000014725868286682875041_);}
	.st287{fill:#294D96;}
	.st288{fill:#286F7F;}
	.st289{fill:#AFAFAF;}
	.st290{fill:#F2F2F2;stroke:#7B8184;stroke-miterlimit:10;}
	.st291{fill:url(#SVGID_00000065056259178034571650000015216242707525607054_);}
	.st292{fill:url(#SVGID_00000143618247979156702830000005577585914748737463_);}
	.st293{fill:url(#SVGID_00000159443509935668768910000016014211534551223201_);}
	.st294{fill:url(#SVGID_00000096044425656927064810000005588248330011401400_);}
	.st295{fill:#B7B7B7;}
	.st296{fill:url(#SVGID_00000162340326449063709250000016739325675940596877_);}
	.st297{fill:url(#SVGID_00000030466575925761534250000008582527926170455683_);}
	.st298{fill:url(#SVGID_00000173142468387016124300000018045183362007671721_);}
	.st299{fill:url(#SVGID_00000155846744592606928780000012102305305542827675_);}
	.st300{fill:url(#SVGID_00000021114497750660174660000006674736697338566294_);}
	.st301{fill:url(#SVGID_00000162348269939309413860000018008273184307286428_);}
	.st302{fill:url(#SVGID_00000078039561667335444800000014044314546130319010_);}
	.st303{fill:url(#SVGID_00000035525039086881604910000017059848324384938130_);}
</style>
<g>
	<!-- <g>
		<path class="st289" d="M552.65,531.74H154.35c-0.27,0-0.49-0.51-0.49-1.14c0-0.63,0.22-1.14,0.49-1.14h398.31
			c0.27,0,0.49,0.51,0.49,1.14C553.14,531.23,552.92,531.74,552.65,531.74z"/>
	</g> -->
	<!-- <g>
		<path class="st289" d="M63.79,533.74H9.92c-0.04,0-0.07-0.51-0.07-1.14c0-0.63,0.03-1.14,0.07-1.14h53.87
			c0.04,0,0.07,0.51,0.07,1.14C63.86,533.23,63.83,533.74,63.79,533.74z"/>
	</g> -->
	<path class="st290" d="M315.43,523.34H137.44c-24.01,0-43.47-19.46-43.47-43.47V98.21c0-24.01,19.46-43.47,43.47-43.47h177.99
		c24.01,0,43.47,19.46,43.47,43.47v381.66C358.9,503.87,339.44,523.34,315.43,523.34z"/>
	<g>
		<linearGradient id="SVGID_1_" gradientUnits="userSpaceOnUse" x1="290.1012" y1="273.9559" x2="137.5738" y2="120.5313">
			<stop  offset="0" style="stop-color:#00FFAF"/>
			<stop  offset="0.06" style="stop-color:#00EDAD"/>
			<stop  offset="0.32" style="stop-color:#00A6A7"/>
			<stop  offset="0.55" style="stop-color:#006EA2"/>
			<stop  offset="0.75" style="stop-color:#00469F"/>
			<stop  offset="0.91" style="stop-color:#002D9D"/>
			<stop  offset="1" style="stop-color:#00249C"/>
		</linearGradient>
		<circle class="st0" cx="230.84" cy="214.35" r="71.31"/>
	</g>
	<g>
		
			<linearGradient id="SVGID_00000135666793674001106670000017888433908076261546_" gradientUnits="userSpaceOnUse" x1="-1071.6984" y1="-563.3723" x2="-1158.8529" y2="-663.4963" gradientTransform="matrix(0.9777 0.2101 -0.2101 0.9777 1313.2604 889.2946)">
			<stop  offset="0" style="stop-color:#00FFAF"/>
			<stop  offset="0.06" style="stop-color:#00EDAD"/>
			<stop  offset="0.32" style="stop-color:#00A6A7"/>
			<stop  offset="0.55" style="stop-color:#006EA2"/>
			<stop  offset="0.75" style="stop-color:#00469F"/>
			<stop  offset="0.91" style="stop-color:#002D9D"/>
			<stop  offset="1" style="stop-color:#00249C"/>
		</linearGradient>
		<path style="fill:url(#SVGID_00000135666793674001106670000017888433908076261546_);" d="M360.27,10.27
			c-19.92-4.28-39.53,8.4-43.81,28.32c-2.42,11.27,0.58,22.43,7.25,30.78l-4.95,10.92c-0.79,1.74,0.91,3.58,2.71,2.93l13-4.7
			c3.14,1.76,6.6,3.09,10.3,3.89c19.92,4.28,39.53-8.4,43.81-28.32C392.86,34.17,380.18,14.55,360.27,10.27z"/>
		<g>
			<path class="st34" d="M340.77,66.78C340.77,66.78,340.77,66.77,340.77,66.78c-1.02-0.22-1.88-0.88-2.35-1.8l-11.5-22.42
				c-0.87-1.7-0.2-3.78,1.5-4.65c1.7-0.87,3.78-0.2,4.65,1.5l9.58,18.67l30.59-24.26c1.49-1.19,3.67-0.93,4.85,0.56
				c1.19,1.49,0.93,3.67-0.56,4.85L343.64,66.1C342.83,66.75,341.78,66.99,340.77,66.78z"/>
		</g>
	</g>
	<g>
		
			<linearGradient id="SVGID_00000117663165209281742190000011975258690279962009_" gradientUnits="userSpaceOnUse" x1="250.1679" y1="561.5792" x2="-60.7188" y2="284.3382">
			<stop  offset="0" style="stop-color:#00FFAF"/>
			<stop  offset="0.06" style="stop-color:#00EDAD"/>
			<stop  offset="0.32" style="stop-color:#00A6A7"/>
			<stop  offset="0.55" style="stop-color:#006EA2"/>
			<stop  offset="0.75" style="stop-color:#00469F"/>
			<stop  offset="0.91" style="stop-color:#002D9D"/>
			<stop  offset="1" style="stop-color:#00249C"/>
		</linearGradient>
		<path style="fill:url(#SVGID_00000117663165209281742190000011975258690279962009_);" d="M190.12,377.41
			c-30.39-3.73-59.06-16.53-86.3-36.85c-27.24,20.32-55.91,33.11-86.3,36.85c-3.56,91.96,25.21,150.95,86.3,171.15
			C164.91,528.36,193.68,469.37,190.12,377.41z"/>
		<g>
			<g>
				<path class="st264" d="M125.64,459.3H82c-1.41,0-2.55-1.14-2.55-2.55v-36.36c0-13.44,10.93-24.37,24.37-24.37
					c13.44,0,24.37,10.93,24.37,24.37v36.36C128.19,458.16,127.05,459.3,125.64,459.3z M84.55,454.2h38.53v-33.81
					c0-10.62-8.64-19.27-19.27-19.27s-19.27,8.64-19.27,19.27V454.2z"/>
			</g>
			<path class="st34" d="M128.75,436.87H78.89c-7.38,0-13.37,5.99-13.37,13.37v4.57c0,21.15,17.15,38.3,38.3,38.3h0
				c21.15,0,38.3-17.15,38.3-38.3v-4.57C142.12,442.85,136.14,436.87,128.75,436.87z"/>
			<path class="st97" d="M109.58,458.51c0-3.17-2.57-5.74-5.74-5.74s-5.74,2.57-5.74,5.74c0,2.27,1.33,4.23,3.25,5.16v6.22
				c0,1.38,1.12,2.49,2.49,2.49c1.38,0,2.49-1.12,2.49-2.49v-6.22C108.25,462.75,109.58,460.79,109.58,458.51z"/>
		</g>
	</g>
	<g>
		<path class="st284" d="M498.64,269.57c-0.02,0-0.03,0-0.05,0c-0.63-0.02-1.11-0.55-1.09-1.18c2.01-51.18-5.27-97.04-22.93-144.32
			c-0.22-0.59,0.08-1.24,0.67-1.46c0.59-0.22,1.24,0.08,1.46,0.67c8.33,22.32,14.23,43.72,18.04,65.45
			c4.49,25.61,6.13,51.7,5.03,79.76C499.75,269.09,499.25,269.57,498.64,269.57z"/>
	</g>
	<path class="st272" d="M500.6,449.24l12.61,11.1c0,0,9.05,6.14,5.6,15.41c-3.45,9.27-13.26,24.14-13.26,24.14l-4.96-5.07
		l-1.51-11.43v-9.49l-11.21-9.05L500.6,449.24z"/>
	<path class="st272" d="M439.33,480.12l-1.29,16.94l1.95,5.37c0,0-1.86,10.78-11.73,11.46c-9.87,0.68-27.46-2.12-27.46-2.12
		l2.57-6.61l9.79-6.09l5.87-2.66l-2.65-16.3H439.33z"/>
	<path class="st92" d="M401.41,234.77c0,0-11.4,52.3-9.46,85.85c1.94,33.55,7.76,75.91,7.76,75.91s4.61,77.61,1.7,88.04
		c0,0,31.04,1.7,45.35-1.21l-16.01-98.22l16.01-92.72c0,0,10.19-0.65,7.28-24.9c-2.91-24.25-10.37-36.71-10.37-36.71L401.41,234.77z
		"/>
	<path class="st285" d="M509.66,440.19c0,0-3.63,6.85-9.18,14.59c-0.22,0.31-0.45,0.62-0.67,0.93c-5.48,7.5-12.68,15.58-20.06,18.92
		l-55.38-67.42c0,0-13.02-13.58-11.4-33.31c1.62-19.73,16.28-94.42,16.28-94.42s-3.88-4.88-3.88-20.16c0-15.28-1-26.49-1-26.49
		l33.99-3.57l1.15-0.12l11.02-1.16c0,0,18.76,47.61,4.85,82.21c-13.91,34.6-25.54,65.97-25.54,65.97s30.72,45.79,42.68,54.1
		C504.48,438.57,509.66,440.19,509.66,440.19z"/>
	<path class="st97" d="M513.21,460.34c0,0,13.47,3.13,14.66,10.35s-13.69,35.73-16.28,41.61c-2.5,5.67-9.7,6.95-11.48,0.65
		c-1.45-5.15-1.02-29.53-1.02-29.53s1.4,16.28,7.98,9.7c6.58-6.57,9.27-18.54,8.41-23.39C514.61,464.87,513.21,460.34,513.21,460.34
		z"/>
	<path class="st97" d="M439.98,502.43c0,0,6.09,14.22,0,18.27s-41.58,1.61-48,1.68c-6.2,0.06-10.33-5.97-5.32-10.19
		c4.09-3.45,26.48-13.11,26.48-13.11s-14.25,7.99-5.55,11.27c8.7,3.28,20.71,0.8,24.78-1.99
		C436.43,505.57,439.98,502.43,439.98,502.43z"/>
	<g>
		<path class="st275" d="M500.48,454.77c-0.22,0.31-0.45,0.62-0.67,0.93c-4.65-4.48-20.38-19.67-35.49-34.51
			c-17.98-17.66-28.79-42.19-28.9-42.44c-0.05-0.12-0.06-0.25-0.03-0.38c0.15-0.53,14.7-52.85,26.78-81.01
			c3.46-8.06,4.45-17.46,4.2-26.52c-0.01-0.41-0.02-0.82-0.04-1.23c-0.27-6.86-1.22-13.48-2.32-19.09
			c-1.76-8.97-4.11-16.67-5.65-21.26l1.15-0.12c1.56,4.65,3.87,12.28,5.6,21.14c1.68,8.58,2.5,16.61,2.44,23.89
			c-0.07,9.12-1.53,17.08-4.35,23.64c-11.68,27.22-25.69,77.13-26.68,80.67c1.02,2.28,11.57,25.2,28.57,41.9
			C480.09,435.1,495.69,450.15,500.48,454.77z"/>
	</g>
	<g>
		<path class="st275" d="M466.94,271.01c-0.06,0-0.12-0.01-0.18-0.03c-6.89-2.33-12.71-9.42-16.84-20.5
			c-3.09-8.31-4.18-16.04-4.19-16.12c-0.04-0.31,0.17-0.6,0.48-0.64c0.31-0.04,0.6,0.17,0.64,0.48c0.01,0.08,1.08,7.7,4.14,15.9
			c2.79,7.49,7.86,17.01,16.13,19.8c0.3,0.1,0.46,0.42,0.36,0.72C467.4,270.86,467.18,271.01,466.94,271.01z"/>
	</g>
	<path class="st97" d="M456.41,76.03c0,0,16.6,20.48,7.55,32.98c-9.05,12.5-25.33,2.16-25.33,2.16L456.41,76.03z"/>
	<g>
		
			<linearGradient id="SVGID_00000060018640764758773390000002141939894237899939_" gradientUnits="userSpaceOnUse" x1="392.1235" y1="210.3105" x2="486.3316" y2="147.0565">
			<stop  offset="0" style="stop-color:#00FFAF"/>
			<stop  offset="0.06" style="stop-color:#00EDAD"/>
			<stop  offset="0.32" style="stop-color:#00A6A7"/>
			<stop  offset="0.55" style="stop-color:#006EA2"/>
			<stop  offset="0.75" style="stop-color:#00469F"/>
			<stop  offset="0.91" style="stop-color:#002D9D"/>
			<stop  offset="1" style="stop-color:#00249C"/>
		</linearGradient>
		<path style="fill:url(#SVGID_00000060018640764758773390000002141939894237899939_);" d="M456.95,119.84
			c0,0,21.23,2.91,26.19,7.22c4.96,4.31,20.48,32.66,20.48,32.66l-30.5,15.84c0,0-5.01,26.46-3.23,34.06
			c1.78,7.6,9.22,22.8,2.91,25.55c-6.31,2.75-12.29,0-12.29,0s-45.11,6-55.46,1.22c0,0-3.56,3.63-7.11-0.9
			c-3.56-4.53,0.49-13.74,4.04-19.89c3.56-6.14,2.91-13.1,2.91-13.1l-4.1-21.45l-6.47,5.07l-22.96-20.59
			c0,0,20.05-33.63,25.65-37.62c5.6-3.99,16.28-6.25,16.28-6.25L456.95,119.84z"/>
		<g>
			<path class="st34" d="M469.8,177.62c-0.07,0-0.15-0.01-0.22-0.04c-0.14-0.06-0.26-0.17-0.31-0.32l-7.11-18.35
				c-0.11-0.29,0.03-0.62,0.32-0.73c0.29-0.11,0.62,0.03,0.73,0.32l6.9,17.79l2.77-1.24c0.28-0.13,0.62,0,0.75,0.29
				c0.13,0.29,0,0.62-0.29,0.75l-3.31,1.48C469.96,177.6,469.88,177.62,469.8,177.62z"/>
		</g>
		<g>
			<path class="st34" d="M400.79,181.63c-0.26,0-0.49-0.18-0.55-0.44l-2.43-10.37c-0.61-2.61-0.61-5.37,0-7.98l4.05-17.26
				c0.07-0.3,0.38-0.49,0.68-0.42c0.3,0.07,0.49,0.38,0.42,0.68l-4.05,17.26c-0.57,2.44-0.57,5.02,0,7.46l2.43,10.37
				c0.07,0.3-0.12,0.61-0.42,0.68C400.88,181.63,400.83,181.63,400.79,181.63z"/>
		</g>
		<g>
			<path class="st34" d="M438.84,225.39c-0.06,0-0.12-0.01-0.18-0.03c-10.57-3.63-17.96-10.73-22.3-16.04
				c-4.7-5.75-6.88-10.58-6.97-10.78c-0.13-0.29,0-0.62,0.29-0.75c0.29-0.13,0.62,0,0.75,0.29c0.02,0.05,2.22,4.91,6.84,10.55
				c4.25,5.19,11.47,12.12,21.77,15.66c0.3,0.1,0.45,0.42,0.35,0.72C439.3,225.25,439.08,225.39,438.84,225.39z"/>
		</g>
		<path class="st272" d="M446.6,94.19l3.34,24.47l7.01,1.19c0,0-12.72,17.68-27.05,16.28c-14.34-1.4-16.6-14.44-16.6-14.44
			l9.92-1.72l3.56-16.92L446.6,94.19z"/>
	</g>
	<path class="st277" d="M333.59,127.66c0,0-5.92-5.19-6.63-10.45l8.8-8.8l1.46,14.48l0.66,4.28L333.59,127.66z"/>
	<path class="st272" d="M391.13,183.27c0,0-15.51,17.39-23.11,19.45c-7.6,2.06-20.37-26.4-24.09-39.33
		c-3.72-12.93-10.35-35.73-10.35-35.73l8.89-5.98l27.65,50.93l4.39-4.23L391.13,183.27z"/>
	<g>
		<path class="st287" d="M328.72,120.54h-31.5c-2.33,0-4.22-1.89-4.22-4.22V99.7c0-2.33,1.89-4.22,4.22-4.22h31.5
			c2.33,0,4.22,1.89,4.22,4.22v16.63C332.94,118.65,331.05,120.54,328.72,120.54z"/>
		<rect x="293" y="100.01" class="st34" width="39.94" height="4.04"/>
	</g>
	<path class="st272" d="M342.48,121.67l-0.52-10.06c-0.08-1.5-0.87-2.88-2.13-3.7l-2.42-1.58c-1.73-1.12-3.9-1.3-5.79-0.46
		l-4.44,1.97c-1.25,0.56-1.08,2.38,0.25,2.7c1.31,0.31,3.03,0.36,5.1-0.36c0,0-2.91,8,1.37,9.22l3.3,6.87L342.48,121.67z"/>
	<g>
		<path class="st277" d="M372.66,177.86c-0.2,0-0.4-0.11-0.5-0.3l-2.53-4.69c-0.15-0.28-0.05-0.62,0.23-0.77
			c0.28-0.15,0.62-0.05,0.77,0.23l2.53,4.69c0.15,0.28,0.05,0.62-0.23,0.77C372.84,177.84,372.75,177.86,372.66,177.86z"/>
	</g>
	<g>
		<g>
			<path class="st264" d="M461.94,273.44c-0.55,0-1.03-0.4-1.12-0.96c-4.34-28.36-6.34-53.85-5.95-75.76
				c0.31-17.57,2.16-32.9,5.48-45.56c5.72-21.79,13.82-28.17,14.16-28.43c0.5-0.38,1.21-0.28,1.59,0.21
				c0.38,0.5,0.29,1.21-0.21,1.59c-0.16,0.13-7.98,6.49-13.45,27.62c-5.09,19.65-9.11,56.43,0.62,120c0.09,0.62-0.33,1.2-0.95,1.29
				C462.06,273.44,462,273.44,461.94,273.44z"/>
		</g>
		<path class="st284" d="M460.46,270.45c0,0-12.97,27.65-4.79,33.95c8.18,6.31,48.01,3.26,52.32-5.82
			c2.11-4.45-8.72-31.34-8.72-31.34S480.35,273.36,460.46,270.45z"/>
		<g>
			<path class="st288" d="M478.99,291.36c-2.07,0-4.26-0.05-6.58-0.16c-5.06-0.23-8.7-3.48-10.53-9.39
				c-1.35-4.37-1.23-8.59-1.22-8.77c0.01-0.31,0.28-0.56,0.58-0.55c0.31,0.01,0.56,0.27,0.55,0.58c0,0.04-0.11,4.24,1.18,8.42
				c1.69,5.47,4.89,8.35,9.49,8.56c15.21,0.7,24.89-0.87,28.77-4.66c1.31-1.28,1.93-2.77,1.89-4.57c-0.01-0.31,0.24-0.57,0.55-0.58
				c0,0,0.01,0,0.01,0c0.31,0,0.56,0.25,0.57,0.55c0.04,2.1-0.71,3.91-2.23,5.4C498.52,289.63,490.78,291.36,478.99,291.36z"/>
		</g>
		<circle class="st34" cx="484.57" cy="285.62" r="2.12"/>
	</g>
	<g>
		<path class="st272" d="M499.35,161.94c0,0,10.87,31.6,10.31,38.63c-0.57,7.03-10.99,21.17-27.24,30.23
			c-16.25,9.06-27.85,12.7-27.85,12.7l-7.1-9.78c0,0,20.37-15.9,27.92-23.87c7.55-7.98,11.1-10.56,11.1-10.56l-11.56-24.65
			L499.35,161.94z"/>
		<path class="st272" d="M447.46,233.72l-20.16,1.67l-16.92,12.07c0,0,0.11,3.13,3.45,1.62s11.64-6.47,11.64-6.47
			s6.04,11.96,11.1,11.64s14.12-4.63,15.41-6.36c1.29-1.72,2.57-4.39,2.57-4.39S452.53,234.53,447.46,233.72z"/>
		<g>
			<path class="st277" d="M486.48,199.85c-0.21,0-0.42-0.12-0.51-0.32c-0.13-0.28-0.01-0.62,0.27-0.76l6.14-2.91
				c0.28-0.13,0.62-0.01,0.76,0.27c0.13,0.28,0.01,0.62-0.27,0.76l-6.14,2.91C486.65,199.83,486.56,199.85,486.48,199.85z"/>
		</g>
	</g>
	<g>
		<path class="st97" d="M452.64,93.84c0,0,7.25-14.03,6.06-22.44c-1.19-8.41-10.59-21.56-22.23-21.45
			c-11.64,0.11-18.65,5.28-23.82,14.77c-5.17,9.49,1.63,29.12,1.63,29.12H452.64z"/>
		<path class="st272" d="M413.29,87.24c0,0,1.29,24.74,17.14,22.31c15.84-2.43,18.59-11.8,18.59-11.8s5.74,0.32,6.63-6.14
			c0.89-6.47-3.07-7.03-4.45-6.22c-1.37,0.81-3.23,3.07-4.53,3.07c-1.29,0-9.09-2.1-12.14-19.8
			C434.54,68.65,417.39,76.79,413.29,87.24z"/>
		<g>
			<path class="st277" d="M426.57,99.27c-1.92,0-3.18-0.46-3.29-0.51c-0.29-0.11-0.44-0.44-0.33-0.73c0.11-0.29,0.44-0.44,0.73-0.33
				l0,0c0.22,0.08,5.51,1.98,11.07-2.89c0.24-0.21,0.59-0.18,0.8,0.05c0.21,0.24,0.18,0.59-0.05,0.8
				C432.16,98.59,428.89,99.27,426.57,99.27z"/>
		</g>
		<g>
			<path class="st277" d="M428.67,110.12c-2.8,0-4.5-0.56-4.58-0.58c-0.3-0.1-0.46-0.42-0.36-0.72c0.1-0.3,0.42-0.46,0.72-0.36l0,0
				c0.1,0.03,9.66,3.04,20.68-5.96c0.24-0.2,0.6-0.16,0.8,0.08c0.2,0.24,0.16,0.6-0.08,0.8c-6.01,4.91-11.58,6.33-15.2,6.66
				C429.93,110.09,429.28,110.12,428.67,110.12z"/>
		</g>
	</g>
	<path class="st295" d="M329.69,411.42h-93.26c-1.47,0-2.66-1.19-2.66-2.66l0,0c0-1.47,1.19-2.66,2.66-2.66h93.26
		c1.47,0,2.66,1.19,2.66,2.66l0,0C332.35,410.23,331.16,411.42,329.69,411.42z"/>
	<path class="st295" d="M303.49,424.85H236.4c-1.41,0-2.55-1.14-2.55-2.55l0,0c0-1.41,1.14-2.55,2.55-2.55h67.09
		c1.41,0,2.55,1.14,2.55,2.55l0,0C306.04,423.71,304.9,424.85,303.49,424.85z"/>
	<path class="st295" d="M329.69,450.18h-93.26c-1.47,0-2.66-1.19-2.66-2.66l0,0c0-1.47,1.19-2.66,2.66-2.66h93.26
		c1.47,0,2.66,1.19,2.66,2.66l0,0C332.35,448.99,331.16,450.18,329.69,450.18z"/>
	<path class="st295" d="M302.85,462.96h-67.09c-1.41,0-2.55-1.14-2.55-2.55v0c0-1.41,1.14-2.55,2.55-2.55h67.09
		c1.41,0,2.55,1.14,2.55,2.55v0C305.39,461.82,304.25,462.96,302.85,462.96z"/>
	<path class="st295" d="M329.95,487.76h-93.26c-1.47,0-2.66-1.19-2.66-2.66l0,0c0-1.47,1.19-2.66,2.66-2.66h93.26
		c1.47,0,2.66,1.19,2.66,2.66l0,0C332.61,486.57,331.42,487.76,329.95,487.76z"/>
	<path class="st295" d="M303.75,501.19h-67.09c-1.41,0-2.55-1.14-2.55-2.55l0,0c0-1.41,1.14-2.55,2.55-2.55h67.09
		c1.41,0,2.55,1.14,2.55,2.55l0,0C306.3,500.05,305.16,501.19,303.75,501.19z"/>
	<g>
		<path class="st34" d="M209.45,239.07c2.92-2.97,5.71-5.79,8.63-8.76c1.43,0.88,2.93,1.87,4.5,2.75c4.35,2.43,8.92,3.87,13.95,2.59
			c0.9-0.23,1.8-0.61,2.59-1.1c4.01-2.49,4.49-7.07,0.54-9.61c-3.58-2.29-7.72-3.71-11.63-5.47c-3.8-1.71-7.82-3.01-11.4-5.09
			c-7.15-4.15-10.13-10.31-8.98-17.31c1.21-7.31,6.44-12.61,14.29-14.46c0.39-0.09,0.79-0.16,1.19-0.25
			c3.32-0.72,3.32-0.72,3.32-4.26c0-1.54,0-3.09,0-4.79c3.88,0,7.61,0,11.52,0c0,2.93,0,5.81,0,8.85
			c6.08,1.29,11.39,3.95,16.45,7.73c-2.61,3.06-5.17,6.07-7.76,9.12c-2.2-1.22-4.24-2.51-6.41-3.53c-3.71-1.74-7.57-2.87-11.75-1.96
			c-2.69,0.58-4.81,1.9-5.47,4.74c-0.68,2.94,0.51,5.39,3,6.71c3.48,1.84,7.21,3.21,10.86,4.73c3.96,1.66,8.24,2.78,11.87,4.98
			c11.75,7.09,11.63,22.27-0.2,29.28c-3.12,1.85-6.78,2.77-10.59,4.28c0,2.03,0,4.63,0,7.32c-3.92,0-7.6,0-11.6,0
			c0-2.12-0.12-4.2,0.04-6.25c0.13-1.67-0.45-2.32-2.08-2.71C218.81,245.28,213.92,242.65,209.45,239.07z"/>
	</g>
	<g>
		
			<linearGradient id="SVGID_00000047759600065930699570000009303383308089601719_" gradientUnits="userSpaceOnUse" x1="346.3819" y1="327.5023" x2="42.2243" y2="29.6252">
			<stop  offset="0" style="stop-color:#00FFAF"/>
			<stop  offset="0.06" style="stop-color:#00EDAD"/>
			<stop  offset="0.32" style="stop-color:#00A6A7"/>
			<stop  offset="0.55" style="stop-color:#006EA2"/>
			<stop  offset="0.75" style="stop-color:#00469F"/>
			<stop  offset="0.91" style="stop-color:#002D9D"/>
			<stop  offset="1" style="stop-color:#00249C"/>
		</linearGradient>
		<path style="fill:url(#SVGID_00000047759600065930699570000009303383308089601719_);" d="M230.84,320.97
			c-14.39,0-28.36-2.82-41.5-8.38c-12.7-5.37-24.1-13.06-33.89-22.85c-9.79-9.79-17.48-21.19-22.85-33.89
			c-5.56-13.15-8.38-27.11-8.38-41.5c0-14.39,2.82-28.36,8.38-41.5c5.37-12.7,13.06-24.1,22.85-33.89
			c9.79-9.79,21.19-17.48,33.89-22.85c13.15-5.56,27.11-8.38,41.5-8.38c14.39,0,28.36,2.82,41.5,8.38
			c12.7,5.37,24.1,13.06,33.89,22.85c9.79,9.79,17.48,21.19,22.85,33.89c5.56,13.15,8.38,27.11,8.38,41.5
			c0,14.39-2.82,28.36-8.38,41.5c-5.37,12.7-13.06,24.1-22.85,33.89c-9.79,9.79-21.19,17.48-33.89,22.85
			C259.2,318.15,245.23,320.97,230.84,320.97z M230.84,110.7c-57.15,0-103.64,46.49-103.64,103.64s46.49,103.64,103.64,103.64
			c57.15,0,103.64-46.49,103.64-103.64S287.99,110.7,230.84,110.7z"/>
	</g>
	<g>
		
			<linearGradient id="SVGID_00000011734687699672949950000002141335149723473316_" gradientUnits="userSpaceOnUse" x1="346.3819" y1="327.5023" x2="42.2243" y2="29.6252">
			<stop  offset="0" style="stop-color:#00FFAF"/>
			<stop  offset="0.06" style="stop-color:#00EDAD"/>
			<stop  offset="0.32" style="stop-color:#00A6A7"/>
			<stop  offset="0.55" style="stop-color:#006EA2"/>
			<stop  offset="0.75" style="stop-color:#00469F"/>
			<stop  offset="0.91" style="stop-color:#002D9D"/>
			<stop  offset="1" style="stop-color:#00249C"/>
		</linearGradient>
		<path style="fill:url(#SVGID_00000011734687699672949950000002141335149723473316_);" d="M230.84,320.97
			c-14.39,0-28.36-2.82-41.5-8.38c-12.7-5.37-24.1-13.06-33.89-22.85c-9.79-9.79-17.48-21.19-22.85-33.89
			c-5.56-13.15-8.38-27.11-8.38-41.5c0-14.39,2.82-28.36,8.38-41.5c5.37-12.7,13.06-24.1,22.85-33.89
			c9.79-9.79,21.19-17.48,33.89-22.85c13.15-5.56,27.11-8.38,41.5-8.38c14.39,0,28.36,2.82,41.5,8.38
			c12.7,5.37,24.1,13.06,33.89,22.85c9.79,9.79,17.48,21.19,22.85,33.89c5.56,13.15,8.38,27.11,8.38,41.5
			c0,14.39-2.82,28.36-8.38,41.5c-5.37,12.7-13.06,24.1-22.85,33.89c-9.79,9.79-21.19,17.48-33.89,22.85
			C259.2,318.15,245.23,320.97,230.84,320.97z M230.84,110.7c-57.15,0-103.64,46.49-103.64,103.64s46.49,103.64,103.64,103.64
			c57.15,0,103.64-46.49,103.64-103.64S287.99,110.7,230.84,110.7z"/>
	</g>
	<g>
		<g>
			<path class="st97" d="M248.2,354.53h-32c-1.03,0-1.87-0.84-1.87-1.87v-26.67c0-9.85,8.02-17.87,17.87-17.87
				c9.86,0,17.87,8.02,17.87,17.87v26.67C250.07,353.69,249.23,354.53,248.2,354.53z M218.06,350.79h28.26v-24.8
				c0-7.79-6.34-14.13-14.13-14.13c-7.79,0-14.13,6.34-14.13,14.13V350.79z"/>
		</g>
		<path class="st97" d="M243.93,338.08h-23.46c-9.04,0-16.36,7.33-16.36,16.36v0c0,13.75,11.14,24.89,24.89,24.89h6.41
			c13.75,0,24.89-11.14,24.89-24.89v0C260.29,345.4,252.96,338.08,243.93,338.08z"/>
		<path class="st34" d="M236.42,353.95c0-2.32-1.88-4.21-4.21-4.21s-4.21,1.88-4.21,4.21c0,1.67,0.97,3.11,2.38,3.79v4.56
			c0,1.01,0.82,1.83,1.83,1.83s1.83-0.82,1.83-1.83v-4.56C235.44,357.06,236.42,355.62,236.42,353.95z"/>
	</g>
</g>
</svg>
