<svg id="Layer_1" data-name="Layer 1" xmlns="http://www.w3.org/2000/svg" xmlns:xlink="http://www.w3.org/1999/xlink" viewBox="0 0 400 400"><defs><style>.cls-1{fill:#f5f5f5;}.cls-2{fill:#e6e6e6;}.cls-3{fill:#333;}.cls-4{fill:#161616;}.cls-5{fill:#e0e0e0;}.cls-6{fill:url(#linear-gradient);}.cls-14,.cls-33,.cls-34,.cls-37,.cls-7{isolation:isolate;}.cls-38,.cls-7{opacity:0.1;}.cls-8{fill:url(#linear-gradient-2);}.cls-9{fill:#263238;}.cls-10,.cls-34{fill:#fff;}.cls-11{fill:url(#linear-gradient-3);}.cls-12{fill:url(#linear-gradient-4);}.cls-13{fill:url(#linear-gradient-5);}.cls-14{opacity:0.15;}.cls-15{fill:url(#linear-gradient-6);}.cls-16{fill:url(#linear-gradient-7);}.cls-17{fill:url(#linear-gradient-8);}.cls-18{fill:url(#linear-gradient-10);}.cls-19{fill:url(#linear-gradient-11);}.cls-20{fill:url(#linear-gradient-12);}.cls-21{fill:url(#linear-gradient-13);}.cls-22{fill:url(#linear-gradient-14);}.cls-23{fill:url(#linear-gradient-15);}.cls-24{fill:url(#linear-gradient-16);}.cls-25{fill:url(#linear-gradient-17);}.cls-26{fill:url(#linear-gradient-18);}.cls-27{fill:url(#linear-gradient-19);}.cls-28{fill:url(#linear-gradient-20);}.cls-29{fill:url(#linear-gradient-21);}.cls-30{fill:#f28f8f;}.cls-31{fill:url(#linear-gradient-22);}.cls-32{fill:url(#linear-gradient-23);}.cls-33{opacity:0.2;}.cls-34{opacity:0.4;}.cls-35{fill:url(#linear-gradient-24);}.cls-36{fill:url(#linear-gradient-25);}.cls-37{opacity:0.05;}.cls-39{fill:#fafafa;}.cls-40{fill:#ffa8a7;}.cls-41{fill:#191919;}.cls-42{fill:url(#linear-gradient-26);}.cls-43{opacity:0.5;}</style><linearGradient id="linear-gradient" x1="35.29" y1="231.42" x2="52.98" y2="231.42" gradientUnits="userSpaceOnUse"><stop offset="0" stop-color="#00ffaf"/><stop offset="0.06" stop-color="#00edad"/><stop offset="0.32" stop-color="#00a6a7"/><stop offset="0.55" stop-color="#006ea2"/><stop offset="0.75" stop-color="#00469f"/><stop offset="0.91" stop-color="#002d9d"/><stop offset="1" stop-color="#00249c"/></linearGradient><linearGradient id="linear-gradient-2" x1="49.55" y1="245.66" x2="58.49" y2="245.66" xlink:href="#linear-gradient"/><linearGradient id="linear-gradient-3" x1="119.49" y1="198.45" x2="127.51" y2="198.45" xlink:href="#linear-gradient"/><linearGradient id="linear-gradient-4" x1="126.25" y1="194.05" x2="146.84" y2="194.05" xlink:href="#linear-gradient"/><linearGradient id="linear-gradient-5" x1="98.08" y1="194.42" x2="120.84" y2="194.42" xlink:href="#linear-gradient"/><linearGradient id="linear-gradient-6" x1="98.1" y1="191.6" x2="120.84" y2="191.6" xlink:href="#linear-gradient"/><linearGradient id="linear-gradient-7" x1="195.3" y1="155.97" x2="216.48" y2="155.97" xlink:href="#linear-gradient"/><linearGradient id="linear-gradient-8" x1="188.34" y1="150.51" x2="196.5" y2="150.51" xlink:href="#linear-gradient"/><linearGradient id="linear-gradient-10" x1="164.83" y1="156.53" x2="188.25" y2="156.53" xlink:href="#linear-gradient"/><linearGradient id="linear-gradient-11" x1="164.84" y1="153.62" x2="188.25" y2="153.62" xlink:href="#linear-gradient"/><linearGradient id="linear-gradient-12" x1="196.9" y1="137.87" x2="213.38" y2="137.87" xlink:href="#linear-gradient"/><linearGradient id="linear-gradient-13" x1="196.9" y1="136.28" x2="213.34" y2="136.28" xlink:href="#linear-gradient"/><linearGradient id="linear-gradient-14" x1="175" y1="135.64" x2="191.05" y2="135.64" xlink:href="#linear-gradient"/><linearGradient id="linear-gradient-15" x1="40.24" y1="151.95" x2="84.7" y2="179.08" xlink:href="#linear-gradient"/><linearGradient id="linear-gradient-16" x1="50.11" y1="135.79" x2="94.56" y2="162.92" xlink:href="#linear-gradient"/><linearGradient id="linear-gradient-17" x1="84.54" y1="79.37" x2="128.99" y2="106.5" xlink:href="#linear-gradient"/><linearGradient id="linear-gradient-18" x1="93.48" y1="64.72" x2="137.94" y2="91.85" xlink:href="#linear-gradient"/><linearGradient id="linear-gradient-19" x1="124.96" y1="13.14" x2="169.42" y2="40.27" xlink:href="#linear-gradient"/><linearGradient id="linear-gradient-20" x1="134.01" y1="-1.69" x2="178.46" y2="25.44" xlink:href="#linear-gradient"/><linearGradient id="linear-gradient-21" x1="142.86" y1="-16.18" x2="187.31" y2="10.95" xlink:href="#linear-gradient"/><linearGradient id="linear-gradient-22" x1="272.99" y1="118.25" x2="288.95" y2="118.25" xlink:href="#linear-gradient"/><linearGradient id="linear-gradient-23" x1="244.44" y1="125.78" x2="284.28" y2="125.78" xlink:href="#linear-gradient"/><linearGradient id="linear-gradient-24" x1="228.63" y1="137.31" x2="257.55" y2="137.31" xlink:href="#linear-gradient"/><linearGradient id="linear-gradient-25" x1="224.54" y1="133.11" x2="235.26" y2="133.11" gradientTransform="translate(332.42 -111.97) rotate(82.63)" xlink:href="#linear-gradient"/><linearGradient id="linear-gradient-26" x1="292.28" y1="97.17" x2="339.75" y2="97.17" xlink:href="#linear-gradient"/></defs><g id="freepik--Floor--inject-235"><path id="freepik--SUELO--inject-235" class="cls-1" d="M62.69,369.89c75.84,36.15,198.8,36.15,274.63,0s75.78-94.73,0-130.89S138.54,202.86,62.7,239-13.14,333.72,62.69,369.89Z"/></g><g id="freepik--Shadows--inject-235"><ellipse id="freepik--Shadow--inject-235" class="cls-2" cx="316.67" cy="283.6" rx="57.29" ry="27.3"/><path id="freepik--shadow--inject-235-2" data-name="freepik--shadow--inject-235" class="cls-2" d="M215.86,247.32c-12.56,6.63-32.93,6.63-45.47,0s-12.56-17.33,0-23.94,32.92-6.63,45.47,0S228.42,240.71,215.86,247.32Z"/><path id="freepik--shadow--inject-235-3" data-name="freepik--shadow--inject-235" class="cls-2" d="M146.59,287.31c-12.56,6.63-32.92,6.63-45.47,0s-12.56-17.33,0-23.95,32.93-6.63,45.47,0S159.15,280.7,146.59,287.31Z"/><path id="freepik--shadow--inject-235-4" data-name="freepik--shadow--inject-235" class="cls-2" d="M77.34,327.26c-12.57,6.63-32.93,6.63-45.47,0s-12.56-17.33,0-23.94,32.93-6.63,45.47,0S89.9,320.69,77.34,327.26Z"/></g><g id="freepik--Plants--inject-235"><g id="freepik--Pot--inject-235"><path d="M84,269.73H25.23l6.08,41.68h0c.46,3,2.71,6,6.75,8.36,9.15,5.28,23.95,5.28,33.09,0,4.35-2.51,6.63-5.77,6.81-9.07Z"/><path class="cls-3" d="M77.68,275.81c-12.75,7.36-33.43,7.36-46.18,0a23.5,23.5,0,0,1-6.1-4.9l1.49,10.19a22.41,22.41,0,0,0,5.68,4.53c12.15,7,31.85,7,44,0a22.32,22.32,0,0,0,5.68-4.55l1.49-10.15A23.61,23.61,0,0,1,77.68,275.81Z"/><path class="cls-3" d="M31.29,311.45h0c.47,3.05,2.71,6,6.76,8.36,6.53,3.79,16,4.83,24.13,3.22-14.68,1.12-24.75-5.3-26.26-11.21s-3.43-34.89-3.43-34.89l1.62-6.56-.46-.64H25.21Z"/><path d="M87,262.24a12.15,12.15,0,0,1-2,4.57,21.53,21.53,0,0,1-7.37,6.54c-12.75,7.36-33.43,7.36-46.18,0a21.63,21.63,0,0,1-7.37-6.54,12.53,12.53,0,0,1-1.95-4.57h0c-1.14-5.53,2-11.3,9.33-15.54,12.75-7.37,33.43-7.37,46.18,0C85.08,250.94,88.15,256.71,87,262.24Z"/><path class="cls-4" d="M85.08,266.81a21.63,21.63,0,0,1-7.37,6.54c-12.75,7.36-33.43,7.36-46.18,0a21.53,21.53,0,0,1-7.37-6.54,12.37,12.37,0,0,1-1.95-4.57h0l1.45,10c.66,4,3.64,7.91,9,11,12.15,7,31.84,7,44,0,5.25-3,8.23-6.89,8.94-10.84l.08-.51L87,262.24A12.25,12.25,0,0,1,85.08,266.81Z"/><path class="cls-3" d="M73.83,248.91c-10.63-6.13-27.86-6.13-38.47,0-6,3.48-8.62,8.17-7.84,12.7.61,3.47,3.22,6.86,7.84,9.52,10.61,6.14,27.84,6.14,38.47,0,4.61-2.66,7.22-6.05,7.83-9.47C82.45,257.08,79.85,252.43,73.83,248.91Z"/><path class="cls-5" d="M29.32,265.81a18.16,18.16,0,0,0,6,5.32c10.61,6.14,27.84,6.14,38.47,0a18.16,18.16,0,0,0,6-5.32c-.09-3.67-2.54-7.33-7.4-10.13-9.87-5.69-25.89-5.69-35.75,0C31.86,258.48,29.4,262.14,29.32,265.81Z"/></g><g id="freepik--Flower--inject-235"><path class="cls-6" d="M53,236.77s.06-6.87-4.73-10.59-10.88-4.17-12.19-3-1.3,10.16,3,14.3S51.5,240.84,53,236.77Z"/><path class="cls-7" d="M53,236.76c-5.79-9-16.9-13.59-16.9-13.59,1.31-1.16,7.33-.78,12.19,3C52.93,229.81,53,236.43,53,236.76Z"/><path class="cls-8" d="M58.19,245.18c-.83-10.28-3.38-16.47-4.32-16.47s.57,7-.89,16.31c-.94,6-2.84,12-3.3,14.5a1.55,1.55,0,0,0-.11.85,2.31,2.31,0,0,0,1.25,1.51,6.78,6.78,0,0,0,6.11,0,2.32,2.32,0,0,0,1.24-1.51,1.15,1.15,0,0,0,0-.37A88.36,88.36,0,0,0,58.19,245.18Z"/><path class="cls-7" d="M58.19,245.18c-.83-10.28-3.38-16.47-4.32-16.47s.57,7-.89,16.31c-.94,6-2.84,12-3.3,14.5a1.55,1.55,0,0,0-.11.85,2.31,2.31,0,0,0,1.25,1.51,6.78,6.78,0,0,0,6.11,0,2.32,2.32,0,0,0,1.24-1.51,1.15,1.15,0,0,0,0-.37A88.36,88.36,0,0,0,58.19,245.18Z"/></g><g id="freepik--Facebook--inject-235"><path class="cls-9" d="M52.87,218.61l-3.79-7.11,3.05-8.78v-5.38l-9.32,5.38v5.37l4,6.94a.57.57,0,0,0,.27.24h0Z"/><path d="M68.5,168.79A6.16,6.16,0,0,0,65.66,164l-2.28-1.31a6.1,6.1,0,0,0-5.58,0l-24.19,14a6.16,6.16,0,0,0-2.84,4.83v28a6.16,6.16,0,0,0,2.84,4.84l2.28,1.31a6.16,6.16,0,0,0,5.58,0l7.16-4.13,4,6.92a.6.6,0,0,0,.82.22.59.59,0,0,0,.26-.32l4.23-12.19,7.78-4.49a6.22,6.22,0,0,0,2.84-4.84Z"/><path class="cls-4" d="M30.82,209.46a6.16,6.16,0,0,0,2.84,4.84l2.27,1.31a6.24,6.24,0,0,0,5.11.23c-1.32.49-2.31-.25-2.31-1.84V186a5.68,5.68,0,0,1,.81-2.75l-7.86-4.54a5.68,5.68,0,0,0-.81,2.75Z"/><path class="cls-3" d="M68.41,168c-.33-1.18-1.41-1.56-2.7-.82l-24.21,14a5.59,5.59,0,0,0-2,2.08l-7.86-4.54a5.78,5.78,0,0,1,2-2.08l24.23-14a6.19,6.19,0,0,1,5.59,0L65.74,164A6.11,6.11,0,0,1,68.41,168Z"/><path class="cls-10" d="M51.47,205.13l3.6-2.07V191l2.51-1.45.26-4.18L55.07,187v-2.29c0-.95.14-1.4.82-1.8l2-1.13V177.6L55.35,179a7.29,7.29,0,0,0-3.88,6.83v3.21l-1.9,1.08v4.07l1.9-1.08Z"/></g><g id="freepik--pot--inject-235-2" data-name="freepik--pot--inject-235"><path d="M153.21,229.74H94.48l6.08,41.68h0c.46,3.05,2.7,6,6.75,8.37,9.13,5.27,23.95,5.27,33.08,0,4.36-2.51,6.63-5.77,6.81-9.07Z"/><path class="cls-3" d="M146.94,235.82c-12.75,7.36-33.43,7.36-46.18,0a24.06,24.06,0,0,1-6.11-4.89l1.48,10.19a22.91,22.91,0,0,0,5.69,4.53c12.15,7,31.84,7,44,0a22.71,22.71,0,0,0,5.68-4.56l1.5-10.15A23.61,23.61,0,0,1,146.94,235.82Z"/><path class="cls-3" d="M100.55,271.46h0c.46,3.05,2.71,6,6.75,8.36,6.53,3.79,16,4.83,24.13,3.22-14.68,1.11-24.75-5.3-26.26-11.21s-3.43-34.9-3.43-34.9l1.62-6.55-.46-.64H94.46Z"/><path d="M156.27,222.26a12.11,12.11,0,0,1-2,4.56,21.67,21.67,0,0,1-7.37,6.55c-12.75,7.36-33.43,7.36-46.18,0a21.85,21.85,0,0,1-7.37-6.55,12.42,12.42,0,0,1-2-4.56h0c-1.13-5.53,2-11.3,9.33-15.55,12.75-7.37,33.43-7.37,46.18,0C154.29,211,157.41,216.73,156.27,222.26Z"/><path class="cls-4" d="M154.31,226.85a21.67,21.67,0,0,1-7.37,6.55c-12.75,7.36-33.43,7.36-46.18,0a21.85,21.85,0,0,1-7.37-6.55,12.49,12.49,0,0,1-2-4.56h0l1.45,10c.67,4,3.65,7.91,9,11,12.16,7,31.85,7,44,0,5.25-3,8.23-6.88,8.95-10.83l.07-.52,1.4-9.58A12.29,12.29,0,0,1,154.31,226.85Z"/><path class="cls-3" d="M143.1,208.93c-10.63-6.14-27.86-6.14-38.48,0-6,3.48-8.62,8.17-7.83,12.69.6,3.48,3.22,6.86,7.83,9.48,10.62,6.14,27.85,6.14,38.48,0,4.6-2.66,7.21-6,7.82-9.48C151.72,217.1,149.11,212.41,143.1,208.93Z"/><path class="cls-5" d="M98.58,225.83a18.23,18.23,0,0,0,6,5.31c10.62,6.14,27.85,6.14,38.48,0a18.37,18.37,0,0,0,6-5.31c-.07-3.68-2.54-7.33-7.39-10.15-9.88-5.68-25.89-5.68-35.75,0C101.12,218.5,98.66,222.12,98.58,225.83Z"/></g><g id="freepik--flower--inject-235-2" data-name="freepik--flower--inject-235"><path class="cls-11" d="M127.47,220.05h0c-3.21-11-1.59-22.16-1.59-29.93,0-7-1.48-15.93-2.46-15.84s0,6.82-1,16C122,194,118.6,210,119.72,220.59h0a2.1,2.1,0,0,0,1.12,1.38,6.12,6.12,0,0,0,5.53,0,2.18,2.18,0,0,0,1.12-1.38A1.23,1.23,0,0,0,127.47,220.05Z"/><path class="cls-7" d="M127.47,220.05h0c-3.21-11-1.59-22.16-1.59-29.93,0-7-1.48-15.93-2.46-15.84s0,6.82-1,16C122,194,118.6,210,119.72,220.59h0a2.1,2.1,0,0,0,1.12,1.38,6.12,6.12,0,0,0,5.53,0,2.18,2.18,0,0,0,1.12-1.38A1.23,1.23,0,0,0,127.47,220.05Z"/><path class="cls-12" d="M126.25,198.49a11.76,11.76,0,0,1,5.69-9.9c6.47-4,14.51,1.34,14.85,2.28s-1.15,5-4.24,7.13S132.89,203.17,126.25,198.49Z"/><path class="cls-7" d="M146.79,190.86a18.6,18.6,0,0,0-20.54,7.62,11.79,11.79,0,0,1,5.69-9.91C138.41,184.62,146.45,189.91,146.79,190.86Z"/><path class="cls-13" d="M120.84,195.81a12.84,12.84,0,0,0-9.88-8.2c-7.72-1.31-12.85,3.47-12.88,5s.72,1.9,3.6,4.16,7,5.31,11.86,4.61A9.36,9.36,0,0,0,120.84,195.81Z"/><path class="cls-14" d="M120.84,195.81a12.84,12.84,0,0,0-9.88-8.2c-7.72-1.31-12.85,3.47-12.88,5C101.33,190.54,114,188.17,120.84,195.81Z"/><path class="cls-15" d="M120.84,195.81c-6.82-7.64-19.51-5.27-22.74-3.21,0-1.52,5.16-6.3,12.88-5A12.83,12.83,0,0,1,120.84,195.81Z"/><path class="cls-7" d="M120.84,195.81c-6.82-7.64-19.51-5.27-22.74-3.21,0-1.52,5.16-6.3,12.88-5A12.83,12.83,0,0,1,120.84,195.81Z"/><g id="freepik--Instagram--inject-235"><path class="cls-9" d="M123,168.64l-4.43-8.32,3.57-10.3v-6.3L111.19,150v6.3l4.69,8.13a.79.79,0,0,0,.32.28h0Z"/><path d="M141.32,110.27a7.29,7.29,0,0,0-3.27-5.68l-2.67-1.53a7.12,7.12,0,0,0-6.54,0l-28.42,16.38a7.23,7.23,0,0,0-3.27,5.69v32.79a7.24,7.24,0,0,0,3.27,5.68l2.66,1.54a7.27,7.27,0,0,0,6.55,0L118,160.3l4.74,8.11a.69.69,0,0,0,.94.26.66.66,0,0,0,.32-.39L128.94,154l9.13-5.27a7.2,7.2,0,0,0,3.26-5.68Z"/><path class="cls-4" d="M97.17,157.92a7.25,7.25,0,0,0,3.28,5.68l2.66,1.54a7.36,7.36,0,0,0,6,.26c-1.54.58-2.72-.29-2.72-2.16v-32.8a6.78,6.78,0,0,1,1-3.22l-9.2-5.31a6.63,6.63,0,0,0-.95,3.22Z"/><path class="cls-3" d="M141.21,109.39c-.39-1.39-1.65-1.83-3.16-.94l-28.42,16.39a6.52,6.52,0,0,0-2.3,2.45L98.13,122a6.57,6.57,0,0,1,2.3-2.44l28.42-16.4a7.27,7.27,0,0,1,6.55,0l2.67,1.54A7.22,7.22,0,0,1,141.21,109.39Z"/><path class="cls-10" d="M124.18,126.17c2.59-1.49,2.9-1.66,3.91-2.18a4.46,4.46,0,0,1,1.8-.6,1.57,1.57,0,0,1,1.12.33,2,2,0,0,1,.72,1.07,6.83,6.83,0,0,1,.33,2.2c.05,1.34.06,1.74.06,5.18s0,3.87-.06,5.25a11.36,11.36,0,0,1-.33,2.6,7.85,7.85,0,0,1-.72,1.89,7.25,7.25,0,0,1-1.12,1.61,8.26,8.26,0,0,1-1.8,1.48c-1,.65-1.32.84-3.91,2.34s-2.89,1.66-3.91,2.18a4.46,4.46,0,0,1-1.8.6,1.57,1.57,0,0,1-1.12-.33,2.15,2.15,0,0,1-.72-1.07,6.81,6.81,0,0,1-.33-2.19c0-1.34-.06-1.75-.06-5.2s0-3.86.06-5.24a11.36,11.36,0,0,1,.33-2.6,9,9,0,0,1,.72-1.89,7.25,7.25,0,0,1,1.12-1.61,8,8,0,0,1,1.8-1.48c1-.66,1.32-.84,3.91-2.34m0-2.32c-2.63,1.51-3,1.72-4,2.38a11.09,11.09,0,0,0-4.07,4.44A12.67,12.67,0,0,0,115,133.6a15.53,15.53,0,0,0-.44,3.4c0,1.4-.06,1.89-.06,5.35s0,3.94.06,5.29a9.36,9.36,0,0,0,.44,2.84,3.3,3.3,0,0,0,1.12,1.64,2.46,2.46,0,0,0,1.71.51,6.12,6.12,0,0,0,2.36-.76c1-.54,1.36-.71,4-2.23s3-1.73,4-2.39a11,11,0,0,0,2.35-2,11.17,11.17,0,0,0,1.71-2.48,12.77,12.77,0,0,0,1.12-2.92,15.71,15.71,0,0,0,.45-3.41c0-1.4.06-1.84.06-5.35s0-3.94-.06-5.29a9.37,9.37,0,0,0-.45-2.84,3.2,3.2,0,0,0-1.12-1.65,2.45,2.45,0,0,0-1.71-.5,5.74,5.74,0,0,0-2.35.75c-1,.54-1.37.71-4,2.24"/><path class="cls-10" d="M124.18,130.13c-2.75,1.58-5,5.84-5,9.47s2.22,5.35,5,3.79,5-5.84,5-9.47-2.22-5.35-5-3.79m0,10.94c-1.78,1-3.23-.07-3.23-2.44a7.74,7.74,0,0,1,3.23-6.17c1.78-1,3.23.06,3.23,2.43a7.76,7.76,0,0,1-3.23,6.18"/><path class="cls-10" d="M130.55,126.21a2.8,2.8,0,0,1-1.17,2.22c-.64.37-1.16,0-1.16-.88a2.74,2.74,0,0,1,1.16-2.21c.64-.38,1.17,0,1.17.87"/></g></g><g id="freepik--pot--inject-235-3" data-name="freepik--pot--inject-235"><path d="M222.48,189.75H163.7l6.07,41.73h0c.47,3.05,2.71,6,6.76,8.35,9.13,5.28,23.94,5.28,33.07,0,4.36-2.51,6.63-5.77,6.81-9.06Z"/><path class="cls-3" d="M216.2,195.84c-12.75,7.36-33.43,7.36-46.18,0a23.71,23.71,0,0,1-6.11-4.9l1.49,10.19a22.46,22.46,0,0,0,5.68,4.53c12.15,7,31.85,7,44,0a22.53,22.53,0,0,0,5.68-4.55L222.25,191A23.6,23.6,0,0,1,216.2,195.84Z"/><path class="cls-3" d="M169.81,231.48h0c.46,3.05,2.71,6,6.75,8.36,6.53,3.79,15.95,4.83,24.13,3.21-14.67,1.12-24.75-5.29-26.26-11.2S171,197,171,197l1.63-6.56-.46-.63H163.7Z"/><path d="M225.53,182.27a12.51,12.51,0,0,1-2,4.56,21.85,21.85,0,0,1-7.37,6.55c-12.75,7.36-33.43,7.36-46.18,0a21.67,21.67,0,0,1-7.37-6.55,12.32,12.32,0,0,1-2-4.56h0c-1.14-5.54,2-11.31,9.33-15.55,12.75-7.37,33.43-7.37,46.18,0C223.55,171,226.66,176.73,225.53,182.27Z"/><path class="cls-4" d="M223.57,186.83a21.85,21.85,0,0,1-7.37,6.55c-12.75,7.36-33.43,7.36-46.18,0a21.67,21.67,0,0,1-7.37-6.55,12.32,12.32,0,0,1-2-4.56h0l1.45,9.95c.66,4,3.64,7.91,9,11,12.15,7,31.84,7,44,0,5.24-3,8.23-6.89,8.94-10.84l.08-.51,1.4-9.58A12.29,12.29,0,0,1,223.57,186.83Z"/><path class="cls-3" d="M212.35,168.94c-10.63-6.14-27.86-6.14-38.48,0-6,3.47-8.62,8.16-7.83,12.69.61,3.48,3.22,6.86,7.83,9.52,10.62,6.14,27.85,6.14,38.48,0,4.6-2.66,7.22-6,7.83-9.47C221,177.1,218.37,172.41,212.35,168.94Z"/><path class="cls-5" d="M167.84,185.84a18.19,18.19,0,0,0,6,5.31c10.62,6.14,27.85,6.14,38.48,0a18.33,18.33,0,0,0,6-5.31c-.08-3.68-2.54-7.34-7.4-10.14-9.87-5.68-25.88-5.68-35.75,0C170.38,178.54,167.92,182.17,167.84,185.84Z"/></g><g id="freepik--flower--inject-235-3" data-name="freepik--flower--inject-235"><path class="cls-16" d="M195.3,160.54a12.1,12.1,0,0,1,5.85-10.19c6.64-4.08,14.93,1.37,15.28,2.34s-1.18,5.17-4.35,7.34S202.13,165.4,195.3,160.54Z"/><path class="cls-7" d="M216.44,152.72a19.11,19.11,0,0,0-21.13,7.82,12.08,12.08,0,0,1,5.84-10.19C207.8,146.34,216.08,151.74,216.44,152.72Z"/><path class="cls-17" d="M196.48,180.09h0c-3.19-10.89-2-23.56-1.17-30.17,1.56-11.75.95-18.22,0-22.25-1.5-6.37-2.84-9.56-3.79-9.26s-.43,3.6.17,9.77c.76,7.78-.34,14.58-1.72,22.94a117.61,117.61,0,0,0-1.2,29.51h0a2.1,2.1,0,0,0,1.12,1.35,6.06,6.06,0,0,0,5.47,0,2.06,2.06,0,0,0,1.11-1.35A1.4,1.4,0,0,0,196.48,180.09Z"/><path class="cls-17" d="M196.48,180.09h0c-3.19-10.89-2-23.56-1.17-30.17,1.56-11.75.95-18.22,0-22.25-1.5-6.37-2.84-9.56-3.79-9.26s-.43,3.6.17,9.77c.76,7.78-.34,14.58-1.72,22.94a117.61,117.61,0,0,0-1.2,29.51h0a2.1,2.1,0,0,0,1.12,1.35,6.06,6.06,0,0,0,5.47,0,2.06,2.06,0,0,0,1.11-1.35A1.4,1.4,0,0,0,196.48,180.09Z"/><path class="cls-18" d="M188.25,158a13.18,13.18,0,0,0-10.16-8.44c-8-1.35-13.26,3.56-13.26,5.12s.74,1.9,3.7,4.28,7.2,5.47,12.2,4.73A9.65,9.65,0,0,0,188.25,158Z"/><path class="cls-14" d="M188.25,158a13.18,13.18,0,0,0-10.16-8.44c-8-1.35-13.26,3.56-13.26,5.12C168.18,152.53,181.23,150.13,188.25,158Z"/><path class="cls-19" d="M188.25,158c-7-7.87-20.07-5.43-23.41-3.31,0-1.57,5.3-6.48,13.26-5.13A13.17,13.17,0,0,1,188.25,158Z"/><path class="cls-7" d="M188.25,158c-7-7.87-20.07-5.43-23.41-3.31,0-1.57,5.3-6.48,13.26-5.13A13.17,13.17,0,0,1,188.25,158Z"/><path class="cls-20" d="M196.9,140a9.49,9.49,0,0,1,6.49-7c5.55-1.69,9.79,1.33,10,2.44s-.06,1.8-2,3.79a11,11,0,0,1-8.19,3.86A7.51,7.51,0,0,1,196.9,140Z"/><path class="cls-14" d="M196.9,140a9.49,9.49,0,0,1,6.49-7c5.55-1.69,9.79,1.33,10,2.44C210.75,134.28,201.19,133.76,196.9,140Z"/><path class="cls-21" d="M196.9,140c4.29-6.28,13.85-5.75,16.44-4.54-.16-1.13-4.4-4.14-10-2.44A9.45,9.45,0,0,0,196.9,140Z"/><path class="cls-7" d="M196.9,140c4.29-6.28,13.85-5.75,16.44-4.54-.16-1.13-4.4-4.14-10-2.44A9.45,9.45,0,0,0,196.9,140Z"/><path class="cls-22" d="M191.05,138.53s-1.39-5.31-5.84-7.2-9.26-1-10,.21,1.17,6.5,5.54,8.46C186.12,142.42,190.66,140,191.05,138.53Z"/><path class="cls-7" d="M191.05,138.53c-6.3-5.68-15.88-7-15.88-7,.78-1.16,5.5-2.12,10-.19C189.56,133.17,191,138.27,191.05,138.53Z"/><g id="freepik--Twitter--inject-235"><path class="cls-9" d="M194,111.29l-4.6-8.63L193.05,92V85.48L181.75,92v6.53l4.85,8.41a.74.74,0,0,0,.34.29h0Z"/><path d="M213,50.88A7.48,7.48,0,0,0,209.57,45l-2.76-1.59a7.42,7.42,0,0,0-6.77,0l-29.37,17a7.47,7.47,0,0,0-3.38,5.86v34a7.49,7.49,0,0,0,3.38,5.87l2.76,1.59a7.48,7.48,0,0,0,6.77,0l8.68-5,4.85,8.4a.72.72,0,0,0,1,.26.71.71,0,0,0,.33-.39l5.08-14.8,9.47-5.44a7.47,7.47,0,0,0,3.4-5.87Z"/><path class="cls-4" d="M167.25,100.21a7.51,7.51,0,0,0,3.38,5.87l2.76,1.59a7.58,7.58,0,0,0,6.2.27c-1.6.61-2.85-.29-2.85-2.22v-34a7,7,0,0,1,.95-3.34l-9.53-5.5a7,7,0,0,0-.95,3.33Z"/><path class="cls-3" d="M212.83,49.91c-.39-1.44-1.7-1.89-3.26-.94l-29.37,17a7,7,0,0,0-2.39,2.53L168.25,63a6.73,6.73,0,0,1,2.38-2.53l29.37-17a7.5,7.5,0,0,1,6.78,0l2.77,1.59A7.5,7.5,0,0,1,212.83,49.91Z"/><path class="cls-1" d="M200.48,80.87a30,30,0,0,0,2.62-12.42,22.79,22.79,0,0,0,2.15-4.2,16.11,16.11,0,0,1-2.48,2.33,11.41,11.41,0,0,0,1.9-4.27,16.78,16.78,0,0,1-2.74,3,2.6,2.6,0,0,0-3.13,0c-2.78,1.6-4.82,6.23-4.19,9.47-3.58,1.83-6.75,1.38-8.87-.87-1.12,3.23-.58,6.29,1.33,6.89a3.07,3.07,0,0,1-1.9.4c0,2.69,1.38,4.35,3.45,3.71a5.35,5.35,0,0,1-1.89,1.22,2.53,2.53,0,0,0,4,1.66,14.86,14.86,0,0,1-6.36,6A8.58,8.58,0,0,0,191,92.58c4.25-2.45,7.52-6.89,9.6-11.7"/></g></g><path class="cls-23" d="M39.14,136.71v16l3-1.75c.59-.34.85-.07.85.95v.48a1.89,1.89,0,0,1-.85,1.89l-11,6.37c-.6.34-.85.07-.85-1v-.48a1.89,1.89,0,0,1,.85-1.9L35,155.14V142.39l-3.88,2.79c-.73.43-.94-1.07-.94-1.89a1.61,1.61,0,0,1,.74-1.23l7.07-5.4C38.43,136.45,39.14,136.37,39.14,136.71Z"/><path class="cls-24" d="M60.37,124.26a1.83,1.83,0,0,1-.22.72l-5.49,11.59,6.22,6a.63.63,0,0,1,.23.46c0,.26-.48.71-1.59,1.35l-1.65.95c-.82.47-1.48.73-1.73.45l-5.34-5.55-.12.09v8.24c0,.6-.51,1.21-1.7,1.9L48,151c-1.19.69-1.71.67-1.71.07V132.87c0-.6.52-1.21,1.71-1.9l.95-.58c1.19-.69,1.7-.67,1.7-.07v7.58h.12l4.91-10.85a3.9,3.9,0,0,1,1.71-1.53l1.33-.77C59.89,124.11,60.37,124,60.37,124.26Z"/><path class="cls-25" d="M108.47,78.87v.77a1.66,1.66,0,0,1-.86,1.63l-5.74,3.31-.28,4.23.74-.43c4.29-2.47,7.13-2.64,7.13,2.25s-3.84,8.58-7.28,10.57c-3.21,1.89-5.57,2.3-5.57,1.16,0-.51.89-2.75,1.54-3.12a11.42,11.42,0,0,0,4-1.36,5.61,5.61,0,0,0,3-4.68c0-2-1-2.61-3.56-1.09l-3.09,1.78c-.83.48-1,.26-1-.53L98,84.61a2,2,0,0,1,1.19-1.83l8.38-4.84C108.21,77.6,108.47,77.88,108.47,78.87Z"/><path class="cls-26" d="M126.76,67.24a2.08,2.08,0,0,1-.23.73l-5.46,11.57,6.23,6a.62.62,0,0,1,.22.47c0,.25-.48.7-1.59,1.34l-1.65,1c-.82.47-1.47.74-1.73.46l-5.34-5.56-.12.1V91.5c0,.6-.51,1.2-1.7,1.89l-1,.58c-1.19.69-1.7.67-1.7.08V75.86c0-.6.51-1.2,1.7-1.89l1-.58c1.19-.68,1.7-.68,1.7-.08v7.58h.12L122.15,70a3.88,3.88,0,0,1,1.71-1.52l1.33-.77C126.31,67.09,126.76,67,126.76,67.24Z"/><path class="cls-27" d="M167.22,24.36v16l3-1.76c.6-.35.86-.06.86.95V40a1.9,1.9,0,0,1-.86,1.9l-11,6.36c-.6.35-.85.07-.85-.94v-.48a1.88,1.88,0,0,1,.85-1.89L163,42.79V30l-3.87,2.84c-.74.43-.94-1.07-.94-1.89a1.6,1.6,0,0,1,.73-1.22L166,24.37C166.54,24.08,167.22,24,167.22,24.36Z"/><path class="cls-28" d="M186.72,22.48c0,6.4-2.53,11.63-6.74,14.06s-6.73.11-6.73-6.28S175.78,18.63,180,16.2,186.72,16.09,186.72,22.48Zm-9.21,5.32c0,4.51.88,6.34,2.47,5.41s2.48-3.78,2.48-8.27-.89-6.34-2.48-5.41S177.51,23.28,177.51,27.8Z"/><path class="cls-29" d="M203.66,3.13a2.08,2.08,0,0,1-.23.73l-5.49,11.57,6.23,6a.62.62,0,0,1,.22.47c0,.25-.48.7-1.59,1.34l-1.65.95c-.82.47-1.47.74-1.73.46l-5.34-5.56-.12.1v8.24c0,.6-.51,1.2-1.7,1.89l-1,.54c-1.2.68-1.71.68-1.71.08V11.75c0-.6.51-1.2,1.71-1.9l1-.57c1.19-.69,1.7-.68,1.7-.08v7.58h.12L199,5.91a3.82,3.82,0,0,1,1.71-1.52l1.33-.77C203.17,3,203.66,2.87,203.66,3.13Z"/></g><g id="freepik--Character--inject-235"><g id="freepik--character--inject-235-2" data-name="freepik--character--inject-235"><path class="cls-30" d="M311.47,100.21c.12,5.13-3.64,10.51-8.79,19.66-3.6,6.39-7.16,10.93-11.81,17.58-1.15,1.64-2,2.91-4.22,6a16,16,0,0,1-3.07,3.6,20.62,20.62,0,0,1-5.13,2.85,13.88,13.88,0,0,1-7.3.76,8.8,8.8,0,0,1-2.84-.94,27.13,27.13,0,0,0,11.46-5c3.7-3,5.07-6.36,4.27-9.37h0l-.51-2h0l.16-.21a2.89,2.89,0,0,1,.21-.28l.4-.58c.13-.19.27-.42.42-.67l.48-.82a29.38,29.38,0,0,0,3.17-8.29c.11-.53.21-1.08.28-1.66.76-1.69,1.53-3.42,2.3-5a80,80,0,0,0,5.57-16.11s-6.12-23-5.16-28.28c1.21-6.63,6.18-7.9,10.55-8.16l2,2.4C306.15,72.55,311.11,83.64,311.47,100.21Z"/><path class="cls-31" d="M283.6,133.42,281,131.27a24.72,24.72,0,0,0,4.16-9.42c1.32-6-.47-13.92-3.4-15.07-3.12-1.21-6.47,1.65-6.51,1.68L273,105.93c.19-.18,4.91-4.29,10-2.3,5.48,2.15,6.88,12.48,5.47,19A27.71,27.71,0,0,1,283.6,133.42Z"/><path class="cls-7" d="M284,125.61a22.33,22.33,0,0,1-3,5.68l2.62,2.14a21.58,21.58,0,0,0,1.68-2.55C285,129.39,284.49,127.57,284,125.61Z"/><path class="cls-7" d="M276.94,103.71A12.84,12.84,0,0,0,273,106l2.24,2.53a9.53,9.53,0,0,1,3.79-1.89A10.28,10.28,0,0,0,276.94,103.71Z"/><path class="cls-32" d="M284.06,135.38h0L277,107.91h0c-.56-2.19-2.46-4.13-5.68-5.38-6.92-2.71-17.24-1.16-23.06,3.48-2.68,2.14-3.91,4.56-3.79,6.81h0l1.34,28.29h0c.13,3.1,2.45,6,6.86,7.68,8.14,3.19,20.3,1.35,27.14-4.1C283.49,141.79,284.85,138.39,284.06,135.38Z"/><path class="cls-7" d="M270.28,114.67c-4.4,3.51-12.2,4.74-17.44,2.64s-5.91-6.56-1.52-10.07,12.2-4.68,17.44-2.63S274.67,111.17,270.28,114.67Z"/><path class="cls-33" d="M254.64,147.73A9.12,9.12,0,0,0,256.53,137s2.66,3.35,1.55,6.71S254.64,147.73,254.64,147.73Z"/><path class="cls-34" d="M271.32,102.56c-6.92-2.71-17.24-1.15-23.06,3.49s-4.91,10.6,2,13.31,17.25,1.15,23.07-3.49S278.25,105.27,271.32,102.56Zm-1,12.11c-4.4,3.51-12.2,4.74-17.44,2.64s-5.91-6.56-1.52-10.07,12.2-4.68,17.44-2.63,5.91,6.56,1.52,10.06Z"/><path class="cls-35" d="M254.4,134.75s-1.58-1.22-8.92-2.4c-2.24-.35-5.69-.7-7-1s-1.75-2-2.88-3.23a7.76,7.76,0,0,0-4.15-2.29l-2.85,14.74a7.87,7.87,0,0,0,5-.5c2.76-1.07,3.79-1.54,4.82-1a15.12,15.12,0,0,1,3.12,2.16c2.95,2.7,7.11,6.14,11.1,7.71C257.79,147.18,259.69,138.25,254.4,134.75Z"/><ellipse class="cls-36" cx="229.9" cy="133.11" rx="7.53" ry="5.31" transform="matrix(0.13, -0.99, 0.99, 0.13, 68.4, 344.04)"/><path class="cls-7" d="M257.54,140.91c0,3.44-1.9,7-4.89,7.94-4-1.57-8.15-5-11.1-7.71a15.93,15.93,0,0,0-3.12-2.16c-1-.5-2.07,0-4.82,1a8.08,8.08,0,0,1-4.9.52,4.57,4.57,0,0,0,4.23-1.67,8.6,8.6,0,0,0,1.9-3.43,12.61,12.61,0,0,0,2.72.61c2.53.38,4.64,2.41,7.58,4.53s6.17,4.59,9,4A3.9,3.9,0,0,0,257.54,140.91Z"/><ellipse class="cls-37" cx="230.62" cy="133.11" rx="7.53" ry="5.31" transform="translate(69.02 344.74) rotate(-82.63)"/><g class="cls-38"><path d="M231,129.29a1.39,1.39,0,0,0,.19-1.5.61.61,0,0,0-.8-.33.63.63,0,0,0-.26.2,1.4,1.4,0,0,0-.2,1.49.62.62,0,0,0,.81.33A.7.7,0,0,0,231,129.29Z"/><path d="M230.49,132.39a1.38,1.38,0,0,0,.19-1.49.6.6,0,0,0-.79-.34.63.63,0,0,0-.26.2,1.4,1.4,0,0,0-.2,1.5.61.61,0,0,0,.78.35A.56.56,0,0,0,230.49,132.39Z"/><path d="M230,135.48a1.43,1.43,0,0,0,.19-1.51.6.6,0,0,0-.79-.33.52.52,0,0,0-.26.2,1.37,1.37,0,0,0-.2,1.5.61.61,0,0,0,.8.34A.63.63,0,0,0,230,135.48Z"/><path d="M229.6,138.56a1.43,1.43,0,0,0,.19-1.51.6.6,0,0,0-.79-.33.63.63,0,0,0-.26.2,1.39,1.39,0,0,0-.2,1.5.61.61,0,0,0,1.06.14Z"/><path d="M233.09,131.11a1.42,1.42,0,0,0,.19-1.49.62.62,0,0,0-.81-.34.6.6,0,0,0-.25.19A1.4,1.4,0,0,0,232,131a.6.6,0,0,0,.8.34A.63.63,0,0,0,233.09,131.11Z"/><path d="M228.39,130.56a1.4,1.4,0,0,0,.2-1.49.61.61,0,0,0-.8-.34.52.52,0,0,0-.26.2,1.36,1.36,0,0,0-.19,1.49.61.61,0,0,0,.78.35A.56.56,0,0,0,228.39,130.56Z"/><path d="M232.57,134.22a1.39,1.39,0,0,0,.19-1.5.62.62,0,0,0-.8-.34.73.73,0,0,0-.26.2,1.41,1.41,0,0,0-.2,1.5.62.62,0,0,0,1.07.14Z"/><path d="M227.88,133.67a1.43,1.43,0,0,0,.19-1.5.64.64,0,0,0-.81-.34.62.62,0,0,0-.25.2,1.39,1.39,0,0,0-.19,1.5.61.61,0,0,0,.8.34A.63.63,0,0,0,227.88,133.67Z"/><path d="M232.05,137.33a1.43,1.43,0,0,0,.19-1.51.61.61,0,0,0-.8-.33.63.63,0,0,0-.26.2,1.43,1.43,0,0,0-.19,1.5.63.63,0,0,0,.8.34A.59.59,0,0,0,232.05,137.33Z"/><path d="M227.36,136.78a1.41,1.41,0,0,0,.19-1.51.61.61,0,0,0-.8-.33.63.63,0,0,0-.26.2,1.41,1.41,0,0,0-.2,1.5.64.64,0,0,0,.81.34A.73.73,0,0,0,227.36,136.78Z"/></g><path class="cls-39" d="M227.17,133.32h0a10.18,10.18,0,0,0-1.35-.07.51.51,0,0,1-.48-.47.45.45,0,0,1,.45-.47h0a9.12,9.12,0,0,1,1.48.07.49.49,0,0,1,.45.5.48.48,0,0,1-.51.45Z"/><path class="cls-39" d="M207.75,173.12h-.11a.45.45,0,0,1-.35-.55h0l.66-2.85a.48.48,0,0,1,.56-.36h0a.48.48,0,0,1,.36.57l-.66,2.84A.45.45,0,0,1,207.75,173.12Zm1.76-7.57h-.11a.47.47,0,0,1-.35-.57l.65-2.84a.48.48,0,0,1,.93.21h0L210,165.2a.46.46,0,0,1-.45.38Zm1.74-7.58h-.1a.47.47,0,0,1-.36-.55v0l.65-2.84a.49.49,0,0,1,.58-.37.48.48,0,0,1,.37.58h0l-.66,2.84a.45.45,0,0,1-.49.43h0Zm1.75-7.58h-.11a.47.47,0,0,1-.35-.57L213,148c.08-.36.17-.71.25-1a.5.5,0,0,1,.6-.36.49.49,0,0,1,.35.6c-.08.33-.17.68-.25,1l-.41,1.78a.47.47,0,0,1-.48.47h0Zm2.1-7.44a.48.48,0,0,1-.17,0,.47.47,0,0,1-.28-.61,27.29,27.29,0,0,1,1.2-2.7.47.47,0,0,1,.85.42h0a27.55,27.55,0,0,0-1.15,2.61.49.49,0,0,1-.44.4Zm3.87-6.63a.48.48,0,0,1-.32-.13.47.47,0,0,1,0-.66h0a11.75,11.75,0,0,1,2.32-1.9.49.49,0,0,1,.65.15.48.48,0,0,1-.15.66h0a10.55,10.55,0,0,0-2.12,1.77.5.5,0,0,1-.37.24Z"/><path class="cls-39" d="M206.33,179.22h-.11a.47.47,0,0,1-.35-.56h0l.32-1.38a.5.5,0,0,1,.58-.37.49.49,0,0,1,.37.58h0l-.32,1.38A.49.49,0,0,1,206.33,179.22Z"/><path class="cls-39" d="M232.38,134h-.06a10.19,10.19,0,0,0-1.35-.08.48.48,0,1,1,0-1h0a12.07,12.07,0,0,1,1.47.08.48.48,0,0,1,.45.5.49.49,0,0,1-.5.45Z"/><path class="cls-39" d="M213,173.74h-.12a.47.47,0,0,1-.35-.57l.66-2.84a.47.47,0,0,1,.57-.37.48.48,0,0,1,.37.58h0l-.66,2.84A.46.46,0,0,1,213,173.74Zm1.75-7.58h-.11a.47.47,0,0,1-.35-.57l.65-2.84a.45.45,0,0,1,.55-.35h0a.49.49,0,0,1,.36.57h0l-.67,2.84a.47.47,0,0,1-.47.42Zm1.74-7.58h-.1A.47.47,0,0,1,216,158h0l.65-2.85a.47.47,0,0,1,.92.22l-.65,2.84a.47.47,0,0,1-.49.42Zm1.76-7.57h-.12a.48.48,0,0,1-.35-.57l.41-1.78c.09-.36.17-.71.25-1a.49.49,0,1,1,.95.23c-.08.33-.17.67-.24,1l-.42,1.79a.47.47,0,0,1-.45.47h-.05Zm2.09-7.43h-.17a.48.48,0,0,1-.28-.61,27.06,27.06,0,0,1,1.2-2.7.47.47,0,0,1,.63-.2.46.46,0,0,1,.22.61v0c-.43.85-.81,1.72-1.15,2.6a.48.48,0,0,1-.46.4Zm3.87-6.63a.47.47,0,0,1-.48-.45.5.5,0,0,1,.14-.35,11.36,11.36,0,0,1,2.32-1.89.48.48,0,0,1,.65.13v0a.48.48,0,0,1-.16.65,10.34,10.34,0,0,0-2.13,1.77.45.45,0,0,1-.37.23Z"/><path class="cls-39" d="M211.51,179.83h-.11a.45.45,0,0,1-.35-.55v0l.33-1.38a.47.47,0,0,1,.58-.36.48.48,0,0,1,.36.58h0l-.31,1.39A.46.46,0,0,1,211.51,179.83Z"/><path class="cls-39" d="M230.26,137.36a.5.5,0,0,1-.43-.28.47.47,0,0,1,.22-.62h0a4.09,4.09,0,0,1,1.57-.43.48.48,0,0,1,.46.48.49.49,0,0,1-.47.47,3.42,3.42,0,0,0-1.16.33A.46.46,0,0,1,230.26,137.36Z"/><path class="cls-39" d="M216.64,176.36h-.1a.47.47,0,0,1-.36-.55h0l.59-2.57a.48.48,0,0,1,.56-.36h0a.47.47,0,0,1,.35.57l-.59,2.56A.47.47,0,0,1,216.64,176.36Zm1.6-6.84h-.11a.47.47,0,0,1-.35-.56l.6-2.57a.47.47,0,0,1,.92.2v0l-.59,2.56a.47.47,0,0,1-.46.35Zm1.59-6.84h-.11a.49.49,0,0,1-.35-.57l.6-2.57a.47.47,0,0,1,.56-.36h0a.48.48,0,0,1,.35.57l-.6,2.57A.48.48,0,0,1,219.83,162.68Zm1.59-6.85h-.11a.49.49,0,0,1-.36-.57h0l.6-2.57a.48.48,0,0,1,.56-.36h0a.46.46,0,0,1,.35.55v0l-.59,2.57a.48.48,0,0,1-.46.34Zm1.64-6.83h-.13a.47.47,0,0,1-.33-.58h0c.26-.88.52-1.73.81-2.54a.46.46,0,0,1,.62-.23.47.47,0,0,1,.27.54c-.28.79-.54,1.62-.78,2.5a.5.5,0,0,1-.46.32Zm2.53-6.54a.43.43,0,0,1-.22-.06.47.47,0,0,1-.19-.64h0a17.49,17.49,0,0,1,1.44-2.28.47.47,0,0,1,.66-.1.48.48,0,0,1,.1.66h0a18,18,0,0,0-1.36,2.17.47.47,0,0,1-.42.24Z"/><path class="cls-39" d="M215.33,182h-.11a.49.49,0,0,1-.36-.57l.32-1.38a.48.48,0,0,1,.56-.36h0a.46.46,0,0,1,.36.56h0l-.32,1.37A.48.48,0,0,1,215.33,182Z"/><path class="cls-9" d="M348.72,72.75h0a16.2,16.2,0,0,1-16.2-16.2h0V21.2h0a16.22,16.22,0,0,1,16.2,16.2Z"/><path class="cls-40" d="M333.26,64c4,.2,6.88,1,9.57,8.73s8.31,37.69,6.43,40.82l-12.75-7.83-2.92-13.88C326.54,85.79,327,66.21,333.26,64Z"/><polygon class="cls-40" points="359.03 276.24 349.48 279.08 345.35 265.16 355.11 261.82 359.03 276.24"/><path d="M348.07,274.37l-.4-1.38c-.8.68-1,9.13-3.27,14-2.44,5.33-5,9.12-6.12,11.51-1.45,3.21,4.22,4.9,10.48,1.81,3.1-1.53,8.09-5.54,8.87-8.1s.52-5.9,1.21-7.81,2.85-4.45,2.93-6.44c0-1.1-1-3.16-2-4.86s-2-3.27-2.51-2.94l.31,1a10,10,0,0,1-4,3.9C352.06,275.84,348.59,276,348.07,274.37Z"/><path d="M335.36,117.47c5.76,7.39,6.79,15,5.54,36.63s-1.65,39.68-1.33,40.9,7.09,9.9,9.29,17.8S357,265.5,357,265.5s-3.36,4.93-10.87,4.93c0,0-24-65.47-25.65-70.33S308.63,144,308.63,144l1.55-28.9Z"/><rect class="cls-40" x="285.99" y="260.15" width="14.51" height="9.97" transform="translate(24.25 554.83) rotate(-89.24)"/><path d="M291.36,142.33c.87-10,3.06-27.25,3.06-27.25l25.51-1.5c4.14,6.44,2.34,17.15,1.21,26.83l-14.63,57.08c.29,2.74,2.84,8.52,0,23.24-3.15,16.42-7.81,40-7.81,40s-7.26,3.67-10.85-.32c0,0-1.9-53.39-.58-67.6C288.74,177.43,290.76,149.18,291.36,142.33Z"/><path d="M288.26,267.38V266c-.95.39-3.72,8.39-7.3,12.38-3.89,4.4-7.49,7.24-9.27,9.14-2.34,2.62,2.56,5.93,9.47,4.84,3.42-.54,9.36-2.84,10.87-5.09s2.26-5.48,3.49-7.1,4-3.4,4.74-5.29c.37-1,0-3.31-.51-5.24-.43-1.77-.94-3.71-1.51-3.55v1.08a9.84,9.84,0,0,1-5,2.54C291.58,270,288.24,269.12,288.26,267.38Z"/><path class="cls-41" d="M313.07,166.56l-4.16-20.95a45.13,45.13,0,0,1-10.42-5.32,31.28,31.28,0,0,0,7.29,6.72Z"/><path class="cls-42" d="M296,98.86c-.62,5.82-3,27.36-3,27.36,19.23,10.25,43.09,3.45,46.74-.77-3.31-10.89-6.87-17-9.59-20l3.47-13.61S325.05,79.54,333.3,64l-10.2-.83-15-.44c-3.58.2-6.13.54-6.13.54-2.29,2.15-5.91,8.05-8.26,14.05C292.22,81.21,290.63,87.4,296,98.86Z"/><path class="cls-9" d="M310.29,53.83h8A18.85,18.85,0,0,0,337.12,35h0a22.83,22.83,0,0,0-22.81-22.85h0A22.85,22.85,0,0,0,291.47,35h0A18.85,18.85,0,0,0,310.29,53.83Z"/><path class="cls-40" d="M299.59,22.07c-2.41,1.43-5.39,7.51-5.09,20.23.24,10.78,3.74,13.45,5.49,14.21s5.15.29,8.43-.25v6.47S303.88,68,304.16,71s6.57,3.67,10.83.77,7.84-8.53,7.84-8.53l-.08-14.88s1.9,1.9,5.22-1c2.71-2.36,3.63-6.36,1.52-8.52a4.73,4.73,0,0,0-6.69.26,4.57,4.57,0,0,0-.83,1.24s-5.25.19-12.24-3.65A19.68,19.68,0,0,1,299.59,22.07Z"/><path class="cls-9" d="M306.54,39.59a1.37,1.37,0,0,0,1.25,1.47h0a1.41,1.41,0,1,0-1.28-1.54Z"/><g class="cls-43"><path class="cls-30" d="M306.17,48.77l-3.15.95a1.62,1.62,0,0,0,2,1.14l.06,0A1.72,1.72,0,0,0,306.17,48.77Z"/></g><path class="cls-9" d="M295.42,35.42l2.73-1.89A1.58,1.58,0,0,0,296,33l-.07,0A1.75,1.75,0,0,0,295.42,35.42Z"/><path class="cls-9" d="M296.05,38.6a1.38,1.38,0,0,0,1.26,1.48h0a1.4,1.4,0,0,0,1.43-1.34,1.36,1.36,0,0,0-2.71-.14Z"/><g class="cls-43"><polygon class="cls-30" points="302.44 37.83 302.23 45.99 297.94 44.67 302.44 37.83"/></g><g class="cls-43"><path class="cls-30" d="M308.42,56.27c3.47-.45,10.61-2.51,11.72-5.33a7.29,7.29,0,0,1-2.5,3.6c-2.13,1.83-9.22,3.89-9.22,3.89Z"/></g><path class="cls-9" d="M317.59,13.35l.52-6a2.92,2.92,0,0,0-3.29,2.47c0,.05,0,.11,0,.16A3.16,3.16,0,0,0,317.59,13.35Z"/><path class="cls-9" d="M317.91,14l4.85-3.56a2.93,2.93,0,0,0-4-.84l-.11.09A3.16,3.16,0,0,0,317.91,14Z"/><path class="cls-40" d="M336.55,105.74s-28.13,7.26-33.16,7.83c-4.22.47-7.45.35-10.52-1.89s-5.2-2.32-5.2-2.32a27,27,0,0,1,1.07,5.69c-1.32,1.54-3.25.3-3.25.3a16.9,16.9,0,0,0-.48-3c-3.49,1.3-5.33,2.9-4.74,5.19.47,1.77,1.42,8.15,7,9.06,4.52.75,12.86-2,18.53-3.45s36.47-4.74,43.51-9.56a9.15,9.15,0,0,0-9.71-8.56,8.85,8.85,0,0,0-3,.73Z"/></g></g></svg>