<svg xmlns="http://www.w3.org/2000/svg" viewBox="0 0 560.41 467.42"><defs><style>.cls-1{fill:#86593e;}.cls-2{fill:#b58e67;}.cls-3{fill:#ffad76;}.cls-4{fill:#7c6132;}.cls-23,.cls-5{fill:#fff;}.cls-6{fill:#c15700;}.cls-7{fill:#c6954e;}.cls-8{fill:#5f281c;}.cls-9{fill:#ff7c00;}.cls-10{fill:#f4c478;}.cls-11{fill:#422e2d;}.cls-12,.cls-20,.cls-24{fill:none;}.cls-12{stroke:#422e2d;}.cls-12,.cls-23,.cls-24{stroke-miterlimit:10;}.cls-13{fill:#9a2532;}.cls-14{fill:#b14330;}.cls-15{fill:#7f7f7f;}.cls-16{fill:#ccc;}.cls-17{fill:#f1eadf;}.cls-18{fill:#b7c9b9;}.cls-19{fill:#e3e3e3;}.cls-20{stroke:#f3f5f4;stroke-linecap:round;stroke-linejoin:round;}.cls-21{fill:#b1432d;}.cls-22{fill:#e8dfcf;}.cls-23,.cls-24{stroke:#231f20;}</style></defs><g id="Layer_2" data-name="Layer 2"><g id="Layer_1-2" data-name="Layer 1"><g id="Group_1046" data-name="Group 1046"><g id="Group_1008" data-name="Group 1008"><rect id="Rectangle_355" data-name="Rectangle 355" class="cls-1" x="347.49" y="391.01" width="88.09" height="12.93"/><path id="Path_2178" data-name="Path 2178" class="cls-2" d="M313.82,467.41h11l51.67-143.94h-11Z"/><path id="Path_2179" data-name="Path 2179" class="cls-2" d="M402.3,467.41h-11L378.41,323.48h11Z"/><path id="Path_2180" data-name="Path 2180" class="cls-2" d="M466.88,467.41h-11L404.25,323.47h11Z"/></g><g id="Group_1009" data-name="Group 1009"><path id="Rectangle_356" data-name="Rectangle 356" class="cls-3" d="M453,324.77H353.39v-97.7a5.42,5.42,0,0,1,5.42-5.42h95.47a2.23,2.23,0,0,1,2.23,2.24h0v97.33A3.55,3.55,0,0,1,453,324.77Z"/><path id="Rectangle_357" data-name="Rectangle 357" class="cls-3" d="M411.63,338.5H322.68a4.37,4.37,0,0,1-4.37-4.36v-5a4.37,4.37,0,0,1,4.37-4.36h88.95V338.5Z"/><path id="Path_2181" data-name="Path 2181" class="cls-4" d="M449.1,310V227.47a5.82,5.82,0,0,1,5.81-5.82h0a5.82,5.82,0,0,1,5.81,5.82V311.1a27.4,27.4,0,0,1-27.4,27.4H413.19a6.86,6.86,0,0,1-6.86-6.87h0a6.86,6.86,0,0,1,6.86-6.86h21.15A14.75,14.75,0,0,0,449.1,310Z"/></g><path id="Path_2182" data-name="Path 2182" class="cls-5" d="M355.86,323.48h46.32a32,32,0,0,0,30.48-41.74L425,257.81l-67.94-8.21Z"/><g id="Group_1013" data-name="Group 1013"><path id="Path_2183" data-name="Path 2183" class="cls-6" d="M348.94,160.34l-19.52,69.57H349l20.54-34.79Z"/><g id="Group_1012" data-name="Group 1012"><path id="Path_2184" data-name="Path 2184" class="cls-7" d="M330.31,226.71l-50.08,9.69,1.36,4.17s44.44,10.6,67.35-10.66Z"/><g id="Group_1011" data-name="Group 1011"><g id="Group_1010" data-name="Group 1010"><path id="Path_2185" data-name="Path 2185" class="cls-7" d="M280.23,236.4l-21.55-2,6,5.38a13.35,13.35,0,0,0,16.94.75h0Z"/></g><path id="Path_2186" data-name="Path 2186" class="cls-8" d="M258.68,234.44l-3.91,8.8s5.68,1.29,5.58-7.3Z"/><path id="Path_2187" data-name="Path 2187" class="cls-8" d="M263.45,235.58l-3.55,9.3S266.46,245.61,263.45,235.58Z"/><path id="Path_2188" data-name="Path 2188" class="cls-8" d="M258.68,234.44l-7.32,5.8s4.94,2.61,7.83-4.65Z"/></g></g></g><rect id="Rectangle_358" data-name="Rectangle 358" class="cls-5" x="269.1" y="240.69" width="90.98" height="6.46"/><g id="Group_1019" data-name="Group 1019"><g id="Group_1014" data-name="Group 1014"><path id="Path_2189" data-name="Path 2189" class="cls-9" d="M348.94,160.34l21.61-8.72h25.51l32.61,9.7-14.66,62,13.38,33.44H364.22l4.85-35-.2-.62a13.92,13.92,0,0,0-7.08-8c-5.65-2.84-8.92-6.68-9.39-10.75a21.54,21.54,0,0,1,.37-6.1A60.09,60.09,0,0,0,351,166.5Z"/><path id="Path_2190" data-name="Path 2190" class="cls-6" d="M360.64,215A15.22,15.22,0,0,1,353,204.76s7.75,7,34.6,4.46c31-2.89,11.66,20,22.72,47.5H364.22l4.85-35-.2-.62C367.71,217.59,364,216.67,360.64,215Z"/><path id="Path_2191" data-name="Path 2191" class="cls-10" d="M374.48,168.69l21.58-17.07-11.43-23.15h-19.4Z"/><path id="Path_2192" data-name="Path 2192" class="cls-8" d="M370,149l10.56-13.17-15.28-7.35Z"/><path id="Path_2193" data-name="Path 2193" class="cls-11" d="M385.71,81s-5.06-4.17-11.4-4.17c-5.53,0-19.74,5.84-25,19.19s-7.28,24.64-2,39.77l23.33-7.27Z"/><path id="Path_2194" data-name="Path 2194" class="cls-10" d="M349.7,113.28c-1.06,12,2.9,26.77,14.93,27.84s30-13.25,31.05-25.28,2.1-32-14.21-33.46C357.76,80.28,350.77,101.25,349.7,113.28Z"/><path id="Path_2195" data-name="Path 2195" class="cls-12" d="M359.2,104.87s-3.35-1.75-6.06.6"/><path id="Path_2196" data-name="Path 2196" class="cls-11" d="M397.2,115.23s-28.31-.32-34.55-25c0,0-4.31.74-10.25,7.41,0,0,2.85-14.6,26.44-14.6C402.9,83,397.2,115.23,397.2,115.23Z"/><path id="Path_2197" data-name="Path 2197" class="cls-12" d="M363.09,88.35s-4.67,19.24,25.54,25.65"/><path id="Path_2198" data-name="Path 2198" class="cls-11" d="M385.71,110.75s4.65,14.72-2.35,28.69c0,0,23,3,38.17-14,.37-15.33-7.29-30.2-16.92-40.1-8.05-8.27-30.94-11-36.74,4.84C367.87,90.2,383.65,89.74,385.71,110.75Z"/><path id="Path_2199" data-name="Path 2199" class="cls-12" d="M345,136.78s-10.72-30,12.7-50.16"/><path id="Path_2200" data-name="Path 2200" class="cls-12" d="M423.89,123.25s-2.35-46.47-42.23-43.06"/><path id="Path_2201" data-name="Path 2201" class="cls-5" d="M357.27,125.47a92.27,92.27,0,0,0,13.91,0s-4.23,5.19-10.49,4.66C359.25,130,357.27,125.47,357.27,125.47Z"/><ellipse id="Ellipse_40" data-name="Ellipse 40" class="cls-11" cx="371.18" cy="114.06" rx="1.69" ry="3.06"/><ellipse id="Ellipse_41" data-name="Ellipse 41" class="cls-11" cx="356.04" cy="112.17" rx="1.69" ry="3.06"/><path id="Path_2202" data-name="Path 2202" class="cls-13" d="M361.39,114.06a6.73,6.73,0,0,1-7.32,4.74S361.7,128.58,361.39,114.06Z"/><ellipse id="Ellipse_42" data-name="Ellipse 42" class="cls-14" cx="392.18" cy="120.49" rx="9.01" ry="7" transform="translate(140.76 444.7) rotate(-69.29)"/></g><g id="Group_1018" data-name="Group 1018"><g id="Group_1015" data-name="Group 1015"><rect id="Rectangle_359" data-name="Rectangle 359" class="cls-15" x="392.92" y="95.73" width="3.41" height="18.27"/><rect id="Rectangle_360" data-name="Rectangle 360" class="cls-16" x="395.19" y="95.73" width="3.41" height="18.27"/><path id="Path_2203" data-name="Path 2203" class="cls-15" d="M391,99.85V91a11.49,11.49,0,0,0-5.47-9.5c-1.69-1-6.48-4-6.48-4s8.31,0,12,1.43l1,.37a10.11,10.11,0,0,1,6.48,9.43V99.86Z"/><path id="Path_2204" data-name="Path 2204" class="cls-16" d="M393.24,99.85V91a10.09,10.09,0,0,0-5.47-9L379,77.5l2.68-.22a26.17,26.17,0,0,1,11.59,1.65l1,.37a10.11,10.11,0,0,1,6.48,9.44V99.85Z"/></g><g id="Group_1016" data-name="Group 1016"><circle id="Ellipse_43" data-name="Ellipse 43" class="cls-16" cx="395.37" cy="118.22" r="9.66"/><circle id="Ellipse_44" data-name="Ellipse 44" class="cls-17" cx="397.28" cy="118.22" r="9.66"/><circle id="Ellipse_45" data-name="Ellipse 45" class="cls-15" cx="397.28" cy="118.22" r="6.06"/><circle id="Ellipse_46" data-name="Ellipse 46" class="cls-17" cx="397.28" cy="118.22" r="2.75"/></g><g id="Group_1017" data-name="Group 1017"><path id="Path_2205" data-name="Path 2205" class="cls-17" d="M362.92,137.56l23-2.65,12-16.22-1.26-.94-11.6,15.68L362.74,136Z"/></g><rect id="Rectangle_361" data-name="Rectangle 361" class="cls-15" x="361.4" y="134.11" width="7.67" height="4.24" rx="0.64"/></g></g><path id="Path_2206" data-name="Path 2206" class="cls-6" d="M412.37,198.63l4.4,13,2.62-9Z"/><path id="Path_2207" data-name="Path 2207" class="cls-9" d="M428.67,161.32l27.83,69.42h-23l-21.14-32.11Z"/><path id="Path_2208" data-name="Path 2208" class="cls-18" d="M306.09,247.16H326a10,10,0,1,0-19.94,0Z"/><g id="Group_1022" data-name="Group 1022"><path id="Path_2209" data-name="Path 2209" class="cls-10" d="M430.23,225.75,333.45,236.4l1.36,4.17s75.53,25.8,121.7-9.83Z"/><g id="Group_1021" data-name="Group 1021"><g id="Group_1020" data-name="Group 1020"><path id="Path_2210" data-name="Path 2210" class="cls-10" d="M333.45,236.4l-21.54-2,6,5.38a13.35,13.35,0,0,0,16.94.75h0Z"/></g><path id="Path_2211" data-name="Path 2211" class="cls-10" d="M311.91,234.44l-3.91,8.8s5.68,1.29,5.58-7.3Z"/><path id="Path_2212" data-name="Path 2212" class="cls-10" d="M316.67,235.59l-3.55,9.29S319.68,245.61,316.67,235.59Z"/><path id="Path_2213" data-name="Path 2213" class="cls-10" d="M311.9,234.44l-7.32,5.8s4.94,2.61,7.83-4.65Z"/></g></g><g id="Group_1038" data-name="Group 1038"><path id="Path_2214" data-name="Path 2214" class="cls-15" d="M222.25,218.94H310.9a9.66,9.66,0,0,0,9.67-9.66c0-.18,0-.36,0-.54l-3.46-57.58a9.66,9.66,0,0,0-9.65-9.12H218.79a9.67,9.67,0,0,0-9.67,9.67c0,.18,0,.36,0,.54l3.46,57.57A9.66,9.66,0,0,0,222.25,218.94Z"/><path id="Path_2215" data-name="Path 2215" class="cls-16" d="M216.7,218.94h88.65a9.66,9.66,0,0,0,9.67-9.66c0-.18,0-.36,0-.54l-3.46-57.58a9.66,9.66,0,0,0-9.65-9.12H213.24a9.67,9.67,0,0,0-9.67,9.66c0,.19,0,.37,0,.55l3.46,57.57A9.66,9.66,0,0,0,216.7,218.94Z"/><g id="Group_1025" data-name="Group 1025"><g id="Group_1024" data-name="Group 1024"><path id="Path_2216" data-name="Path 2216" class="cls-15" d="M236.25,238.39a7,7,0,0,0,4.93,8.62,6.77,6.77,0,0,0,1.85.25h49.6v-4.85h-27a2.19,2.19,0,0,1-2.19-2.19,2.25,2.25,0,0,1,.08-.58l11.61-42.46H247.48Zm7.1-12.64A6.26,6.26,0,1,1,249.6,232a6.24,6.24,0,0,1-6.25-6.26Z"/><g id="Group_1023" data-name="Group 1023"><path id="Path_2217" data-name="Path 2217" class="cls-15" d="M252.46,180.52H268.3a6.84,6.84,0,0,1,6.84,6.84v9.82H245.62v-9.82a6.84,6.84,0,0,1,6.84-6.84Z"/><path id="Path_2218" data-name="Path 2218" class="cls-19" d="M247.91,180.52h15.84a6.84,6.84,0,0,1,6.84,6.84v9.82H241.07v-9.82a6.84,6.84,0,0,1,6.84-6.84Z"/><path id="Path_2219" data-name="Path 2219" class="cls-19" d="M236.93,247.26h25.56a4.48,4.48,0,0,1-4.14-4.78,4,4,0,0,1,.15-.84l10.44-38.35h0l1.67-6.11H241L229.86,238a7.34,7.34,0,0,0,7.07,9.26Zm4.14-21.51a6.26,6.26,0,1,1,6.26,6.26,6.25,6.25,0,0,1-6.26-6.26Z"/><path id="Path_2220" data-name="Path 2220" class="cls-16" d="M247.91,180.52h15.84a6.84,6.84,0,0,1,6.84,6.84v9.82H241.07v-9.82a6.84,6.84,0,0,1,6.84-6.84Z"/></g></g><path id="Path_2221" data-name="Path 2221" class="cls-16" d="M237.93,247.26H263.5a4.46,4.46,0,0,1-4.14-4.77,4.71,4.71,0,0,1,.14-.85L270,203.29h0l1.67-6.11H242L230.86,238a7.34,7.34,0,0,0,7.07,9.26Zm4.15-21.51a6.26,6.26,0,1,1,6.25,6.26,6.25,6.25,0,0,1-6.25-6.26h0Z"/><path id="Path_2222" data-name="Path 2222" class="cls-20" d="M229.86,238,241,197.18h.09v-9.81a6.85,6.85,0,0,1,6.84-6.85h15.84"/><path id="Path_2223" data-name="Path 2223" class="cls-20" d="M241,197.18,229.86,238a7.32,7.32,0,0,0,5.15,9,6.89,6.89,0,0,0,1.92.26"/></g><g id="Group_1031" data-name="Group 1031"><g id="Group_1026" data-name="Group 1026"><path id="Path_2224" data-name="Path 2224" class="cls-5" d="M303.2,193.39h0a.71.71,0,0,0,.66-.74l-1.91-34a.69.69,0,0,0-.72-.66h0a.7.7,0,0,0-.66.73l1.91,34A.71.71,0,0,0,303.2,193.39Z"/></g><g id="Group_1027" data-name="Group 1027"><path id="Path_2225" data-name="Path 2225" class="cls-5" d="M298.67,193.39h0a.71.71,0,0,0,.65-.74l-1.9-34a.7.7,0,0,0-.72-.66h0a.7.7,0,0,0-.65.73l1.91,34A.7.7,0,0,0,298.67,193.39Z"/></g><g id="Group_1028" data-name="Group 1028"><path id="Path_2226" data-name="Path 2226" class="cls-5" d="M294.13,193.39h0a.72.72,0,0,0,.66-.74l-1.91-34a.69.69,0,0,0-.71-.66h0a.7.7,0,0,0-.66.73l1.91,34A.71.71,0,0,0,294.13,193.39Z"/></g><g id="Group_1029" data-name="Group 1029"><path id="Path_2227" data-name="Path 2227" class="cls-5" d="M289.6,193.39h0a.71.71,0,0,0,.65-.74l-1.91-34a.7.7,0,0,0-.66-.74.71.71,0,0,0-.74.66.76.76,0,0,0,0,.15l1.91,34A.72.72,0,0,0,289.6,193.39Z"/></g><g id="Group_1030" data-name="Group 1030"><path id="Path_2228" data-name="Path 2228" class="cls-5" d="M285.06,193.39h0a.72.72,0,0,0,.66-.74l-1.91-34a.69.69,0,0,0-.72-.66h0a.7.7,0,0,0-.65.73l1.91,34A.7.7,0,0,0,285.06,193.39Z"/></g></g><g id="Group_1037" data-name="Group 1037"><g id="Group_1032" data-name="Group 1032"><path id="Path_2229" data-name="Path 2229" class="cls-5" d="M232.43,193.39h0a.72.72,0,0,0,.66-.74l-1.91-34a.7.7,0,1,0-1.39-.08.85.85,0,0,0,0,.16l1.91,34A.72.72,0,0,0,232.43,193.39Z"/></g><g id="Group_1033" data-name="Group 1033"><path id="Path_2230" data-name="Path 2230" class="cls-5" d="M227.9,193.39h0a.71.71,0,0,0,.65-.74l-1.91-34A.69.69,0,0,0,226,158h0a.71.71,0,0,0-.66.73l1.91,34A.72.72,0,0,0,227.9,193.39Z"/></g><g id="Group_1034" data-name="Group 1034"><path id="Path_2231" data-name="Path 2231" class="cls-5" d="M223.36,193.39h0a.71.71,0,0,0,.66-.73h0l-1.9-34a.69.69,0,0,0-.72-.66h0a.7.7,0,0,0-.65.73l1.9,34A.72.72,0,0,0,223.36,193.39Z"/></g><g id="Group_1035" data-name="Group 1035"><path id="Path_2232" data-name="Path 2232" class="cls-5" d="M218.83,193.39h0a.71.71,0,0,0,.65-.74l-1.91-34a.68.68,0,0,0-.71-.66h0a.7.7,0,0,0-.66.73l1.91,34A.71.71,0,0,0,218.83,193.39Z"/></g><g id="Group_1036" data-name="Group 1036"><path id="Path_2233" data-name="Path 2233" class="cls-5" d="M214.29,193.39h0a.71.71,0,0,0,.65-.74l-1.9-34a.7.7,0,1,0-1.4-.08.38.38,0,0,0,0,.15l1.91,34A.7.7,0,0,0,214.29,193.39Z"/></g></g></g><path id="Path_2234" data-name="Path 2234" class="cls-5" d="M312,274.12h31L358.25,439.6h-4.78c-36-96.15-46.27-139.41-49.23-156.26a7.87,7.87,0,0,1,7.75-9.22Z"/><path id="Path_2235" data-name="Path 2235" class="cls-16" d="M357.67,433.29s-34.31-88.43-25.48-148.2c.56-3.8,10.78-11,10.78-11Z"/><path id="Path_2236" data-name="Path 2236" class="cls-5" d="M342,274.12h26.3l61.77,159.17-3.87,6.3c-44.51-68.41-85.15-129.13-93.57-152A10,10,0,0,1,342,274.12Z"/><path id="Path_2237" data-name="Path 2237" class="cls-16" d="M378.41,301.73c15,3.69,30.87-1.54,34-11,3.51-10.69-5.43-16.65-5.43-16.65l6.59-17.7L425,257.8l7.64,23.94a32,32,0,0,1-30.47,41.74H387.44l42.62,109.81C366.14,331.59,378.41,301.73,378.41,301.73Z"/><path id="Path_2238" data-name="Path 2238" class="cls-15" d="M425.75,260.12H357l-.3,14h73.56Z"/><g id="Group_1039" data-name="Group 1039"><path id="Path_2239" data-name="Path 2239" class="cls-21" d="M353.47,439.6v19.72l-12.35,1.34h16.12l1-12.06,5.7-7.47-6.28-7.84Z"/><path id="Path_2240" data-name="Path 2240" class="cls-22" d="M341.12,460.66l1.92,6.76h12.74a4,4,0,0,0,4-4h0v-13.3l6.52-8.48-8.6-8.38-.42,27.37Z"/><path id="Path_2241" data-name="Path 2241" class="cls-22" d="M366.28,441.68v25.74l-4.49-22.89Z"/></g><g id="Group_1040" data-name="Group 1040"><path id="Path_2242" data-name="Path 2242" class="cls-21" d="M425.85,439.6v19.72l-12.35,1.34h16.13l1-12.06,5.69-7.47-6.27-7.84Z"/><path id="Path_2243" data-name="Path 2243" class="cls-22" d="M413.5,460.66l1.93,6.76h12.74a4,4,0,0,0,4-4v-13.3l6.52-8.48-8.6-8.38-.43,27.37Z"/><path id="Path_2244" data-name="Path 2244" class="cls-22" d="M438.66,441.68v25.74l-4.48-22.89Z"/></g><g id="Group_1045" data-name="Group 1045"><g id="Group_1043" data-name="Group 1043"><g id="Group_1041" data-name="Group 1041"><path id="Rectangle_362" data-name="Rectangle 362" class="cls-5" d="M486.14,467.42h-48.7a7.34,7.34,0,0,1-7.34-7.34v-200h63.38v200A7.34,7.34,0,0,1,486.14,467.42Z"/><path id="Rectangle_363" data-name="Rectangle 363" class="cls-16" d="M495.18,467.42h-48.7a7.34,7.34,0,0,1-7.34-7.34v-200h63.38v200A7.34,7.34,0,0,1,495.18,467.42Z"/></g><g id="Group_1042" data-name="Group 1042"><path id="Rectangle_364" data-name="Rectangle 364" class="cls-5" d="M240.64,467.42h-48.7a7.34,7.34,0,0,1-7.34-7.34v-200H248v200A7.34,7.34,0,0,1,240.64,467.42Z"/><path id="Rectangle_365" data-name="Rectangle 365" class="cls-16" d="M249.68,467.42H201a7.34,7.34,0,0,1-7.34-7.34v-200H257v200A7.34,7.34,0,0,1,249.68,467.42Z"/></g></g><g id="Group_1044" data-name="Group 1044"><rect id="Rectangle_366" data-name="Rectangle 366" class="cls-16" x="192.58" y="247.16" width="336.13" height="19.96" rx="4.65"/><rect id="Rectangle_367" data-name="Rectangle 367" class="cls-5" x="144.13" y="247.16" width="238.97" height="19.96" rx="4.65"/></g><rect id="Rectangle_368" data-name="Rectangle 368" class="cls-15" x="439.14" y="267.12" width="63.38" height="11.67"/><rect id="Rectangle_369" data-name="Rectangle 369" class="cls-15" x="193.65" y="267.12" width="63.38" height="11.67"/></g></g><g id="Group_1048" data-name="Group 1048"><path id="Path_2245" data-name="Path 2245" class="cls-23" d="M172.53,55.11l16.18-13H291.15A12.35,12.35,0,0,0,303.5,29.8v-17A12.35,12.35,0,0,0,291.15.5H184.89a12.35,12.35,0,0,0-12.36,12.35h0Z"/><g id="Group_1047" data-name="Group 1047"><line id="Line_65" data-name="Line 65" class="cls-24" x1="288.88" y1="10.8" x2="217.15" y2="10.8"/><line id="Line_66" data-name="Line 66" class="cls-24" x1="288.88" y1="20.33" x2="217.15" y2="20.33"/><line id="Line_67" data-name="Line 67" class="cls-24" x1="288.88" y1="29.86" x2="217.15" y2="29.86"/></g></g><g id="Group_1050" data-name="Group 1050"><path id="Path_2246" data-name="Path 2246" class="cls-23" d="M331.58,113l-16.18-13H213a12.37,12.37,0,0,1-12.35-12.36h0V70.79A12.35,12.35,0,0,1,213,58.43H319.23a12.35,12.35,0,0,1,12.35,12.36h0Z"/><g id="Group_1049" data-name="Group 1049"><line id="Line_68" data-name="Line 68" class="cls-24" x1="215.23" y1="68.73" x2="286.97" y2="68.73"/><line id="Line_69" data-name="Line 69" class="cls-24" x1="215.23" y1="78.26" x2="286.97" y2="78.26"/><line id="Line_70" data-name="Line 70" class="cls-24" x1="215.23" y1="87.79" x2="286.97" y2="87.79"/></g></g><g id="Group_1052" data-name="Group 1052"><rect id="Rectangle_370" data-name="Rectangle 370" class="cls-23" x="0.5" y="230.55" width="110.96" height="38.09" rx="6.39"/><g id="Group_1051" data-name="Group 1051"><line id="Line_71" data-name="Line 71" class="cls-24" x1="20.11" y1="240.07" x2="91.85" y2="240.07"/><line id="Line_72" data-name="Line 72" class="cls-24" x1="20.11" y1="249.6" x2="91.85" y2="249.6"/><line id="Line_73" data-name="Line 73" class="cls-24" x1="20.11" y1="259.13" x2="91.85" y2="259.13"/></g></g><g id="Group_1054" data-name="Group 1054"><rect id="Rectangle_371" data-name="Rectangle 371" class="cls-23" x="448.95" y="108.45" width="110.96" height="38.09" rx="6.39"/><g id="Group_1053" data-name="Group 1053"><line id="Line_74" data-name="Line 74" class="cls-24" x1="468.56" y1="117.97" x2="540.3" y2="117.97"/><line id="Line_75" data-name="Line 75" class="cls-24" x1="468.56" y1="127.5" x2="540.3" y2="127.5"/><line id="Line_76" data-name="Line 76" class="cls-24" x1="468.56" y1="137.02" x2="540.3" y2="137.02"/></g></g></g></g></svg>