<?xml version="1.0" encoding="utf-8"?>
<!-- Generator: Adobe Illustrator 26.0.3, SVG Export Plug-In . SVG Version: 6.00 Build 0)  -->
<svg version="1.1" id="Layer_1" xmlns="http://www.w3.org/2000/svg" xmlns:xlink="http://www.w3.org/1999/xlink" x="0px" y="0px"
	 viewBox="0 0 630 420" style="enable-background:new 0 0 630 420;" xml:space="preserve">
<style type="text/css">
	.st0{fill:#263238;}
	.st1{fill:#4B5FB5;}
	.st2{fill:#EBEBEB;}
	.st3{fill:#455A64;}
	.st4{fill:#FFFFFF;stroke:#000000;stroke-width:0.25;stroke-miterlimit:10;}
	.st5{fill:#F5F5F5;}
	.st6{fill:#A1AFB2;}
	.st7{fill:url(#SVGID_1_);}
	.st8{fill:#FAFAFA;}
	.st9{fill:url(#SVGID_00000137123807480880731600000004464257677052017283_);}
	.st10{opacity:0.2;}
	.st11{fill:#FFBE9D;}
	.st12{fill:url(#SVGID_00000108274362754989334840000018337747355729645221_);}
	.st13{fill:#EB996E;}
	.st14{fill:url(#SVGID_00000152982527522281047570000005382630037791105667_);}
	.st15{fill:#FF725E;}
	.st16{fill:url(#SVGID_00000183232813911096523870000000688544443125499793_);}
	.st17{fill:url(#SVGID_00000126311654314944756750000017152755006405937808_);}
	.st18{fill:url(#SVGID_00000147942429246658853770000018109557605177832605_);}
	.st19{fill:url(#SVGID_00000150099623197269473450000007576012828071189919_);}
	.st20{fill:url(#SVGID_00000077281803135404749300000016206280432068881840_);}
	.st21{fill:url(#SVGID_00000101804291085235266110000015397396245182569647_);}
	.st22{fill:url(#SVGID_00000098189349744843238660000008440945394519738546_);}
	.st23{fill:url(#SVGID_00000041281986662674259390000015225003440685028753_);}
	.st24{fill:url(#SVGID_00000165934078685779469580000017088760759815444887_);}
	.st25{fill:url(#SVGID_00000025435151936878525440000010117665696185147829_);}
</style>
<g>
	<g>
		<path class="st0" d="M519.8,380.8l-6-6.1l-5.7,5.8v-17.4h11.7L519.8,380.8z M513.8,373.9l0.2,0.2l5.3,5.4v-15.9h-10.7v15.5
			L513.8,373.9z"/>
		<path class="st0" d="M367.5,378.9l-2.8-1.3c-3.5,1.7-7.8,0.1-9.4-3.5c-1.6-3.6-0.1-7.8,3.4-9.5c3.5-1.7,7.8-0.1,9.4,3.5
			c1.2,2.7,0.7,5.8-1.3,7.9L367.5,378.9z M360.9,363.6c-4,0-7.2,3.3-7.2,7.4s3.3,7.3,7.3,7.3c1.2-0.1,2.4-0.5,3.5-1.1l0.1-0.1
			l2.1,0.9l-0.5-2l0.1-0.1c2.7-3,2.5-7.6-0.5-10.3C364.5,364.3,362.7,363.6,360.9,363.6L360.9,363.6z"/>
		<path class="st0" d="M385.5,377.7l-3.2-7.9l-6-5.5l14.6-0.1L385.5,377.7z M377.6,364.8l5.1,4.8l2.8,6.7l4.6-11.6L377.6,364.8z"/>
		<polygon class="st0" points="382.6,369.4 390.6,364.1 390.9,364.6 382.9,369.8 		"/>
		<path class="st1" d="M344.5,366c-0.5-2.5-2.9-4.1-5.3-3.6c-1.9,0.4-3.4,1.9-3.6,3.9c-0.4-2.5-2.7-4.2-5.1-3.8
			c-1.9,0.3-3.4,1.8-3.8,3.7c-0.2,1.6,0.2,3.2,1.1,4.4c0.9,1.3,2,2.4,3.2,3.4c1.6,1.4,3.1,2.8,4.8,4.3c1.6-1.5,3-2.9,4.6-4.3
			c1.2-1,2.2-2.2,3.1-3.4C344.3,369.1,344.7,367.6,344.5,366z"/>
		<ellipse class="st2" cx="343.1" cy="109.3" rx="9.9" ry="10"/>
		<path class="st3" d="M516,323.4c0,0.2-41.6,0.4-92.9,0.4s-92.9-0.2-92.9-0.4s41.6-0.4,92.9-0.4C474.5,323,516,323.2,516,323.4z"/>
		<path class="st3" d="M516,307.8c0,0.2-41.6,0.4-92.9,0.4s-92.9-0.2-92.9-0.4c0-0.2,41.6-0.4,92.9-0.4
			C474.5,307.4,516,307.6,516,307.8z"/>
		<path class="st3" d="M431.4,339.2c0,0.2-22.6,0.4-50.5,0.4s-50.5-0.2-50.5-0.4c0-0.2,22.6-0.4,50.5-0.4
			C408.8,338.8,431.4,339,431.4,339.2z"/>
		<rect x="319.4" y="129.1" class="st4" width="219.8" height="135.6"/>
		<path class="st0" d="M538.5,390.7c0-2.9-0.1-125.4-0.3-306.7l0.3,0.3H318.8l0,0l0.4-0.4c0,114.7,0,220.9,0,306.7l-0.3-0.3
			L538.5,390.7L318.9,391h-0.3v-0.3c0-85.9,0-192-0.1-306.7v-0.4h0.4h219.7h0.3V84c-0.1,90.8-0.1,167.5-0.2,221.5
			c0,27-0.1,48.3-0.1,62.9c0,7.3,0,12.9,0,16.6c0,1.9,0,3.3,0,4.3S538.5,390.7,538.5,390.7z"/>
	</g>
	<rect x="354.1" y="190.6" class="st5" width="49" height="63"/>
	<rect x="411.1" y="190.6" class="st5" width="49" height="63"/>
	<rect x="472.1" y="190.6" class="st5" width="49" height="63"/>
	<path class="st6" d="M349.8,34.7c0,0-127.3-74.5-250.5,4.3S8.5,279.4,8.5,279.4s19.9-20.8,56.4-14.1c0,0-0.7-49.9,53.3-45.3
		c0,0,27.1-62.9,85.7-45.7c0,0,10.9-56.3,81.7-49.1C285.7,125.2,301.3,61,349.8,34.7z"/>
	<path class="st0" d="M112.5,253.1c-1.1-10.4,4.6-20.4,14.1-24.7c6.8-2.9,15.5-2.9,20.1-8.7c5.1-6.4,2.5-16.4,7-23.3
		c5.2-7.8,17.5-8.3,22.5-16.2c3.7-6,1.9-14.1,5.3-20.3c3.5-6.5,11.6-9,16.3-14.6c5.3-6.2,6.6-16.2,14-19.6c4.2-1.9,9.3-1,13.4,1.4
		s7.2,5.9,10.2,9.4l37,42.2c1.1,1.1,2,2.4,2.5,3.9c1.2,4.1-2.5,7.9-5.4,11c-7.4,7.8-11.9,17.9-12.9,28.6c-0.6,6.6-0.2,14.4-5.4,18.7
		c-4,3.3-10.2,3.2-13.7,7c-5,5.5-0.9,14.4-2.3,21.7c-1.2,6.9-7.2,11.9-13.5,15s-13.1,5-18.9,8.9c-5.8,3.9-10.4,10.7-9,17.5
		c-12.5-6-23.9-13.9-34-23.5c3-4.3,5.9-8.6,8.9-13l-15.8,9.9c-2.1-3.7-6.2-5.6-9.7-8s-6.6-6.6-5.2-10.6c1.7-4.8,9.1-6.3,9.7-11.4
		c-6.9,1.6-13.1,5.5-17.5,11.1C123.3,262.5,116.2,259.7,112.5,253.1"/>
	
		<linearGradient id="SVGID_1_" gradientUnits="userSpaceOnUse" x1="192.4876" y1="191.4875" x2="85.4839" y2="96.5137" gradientTransform="matrix(1 0 0 -1 0 419.2)">
		<stop  offset="6.000000e-02" style="stop-color:#00EDAD"/>
		<stop  offset="0.131" style="stop-color:#00E8AD"/>
		<stop  offset="0.2151" style="stop-color:#00DAAB"/>
		<stop  offset="0.3055" style="stop-color:#00C2A9"/>
		<stop  offset="0.3868" style="stop-color:#00A6A7"/>
		<stop  offset="0.55" style="stop-color:#006EA2"/>
		<stop  offset="0.75" style="stop-color:#00469F"/>
		<stop  offset="0.91" style="stop-color:#002D9D"/>
	</linearGradient>
	<path class="st7" d="M220.5,227.4c-12.3-9.7-23-6.5-34.6-3.6s-21,13.9-29.4,22.4s-15.7,18.1-24.7,26s-20.1,14.2-32.1,14.3
		c-8.8,0.1-17.6-3.1-26.3-1.9c-8.8,1.3-16.3,6.9-20.1,15l10,24.6c4.1-10.3,16.6-14.5,27.7-14.8s22.3,2.2,33.2,0
		c13-2.7,23.7-12,32.8-21.7s17.4-20.5,28.4-28c11.1-7.4,26-11,37.8-4.8"/>
	<path class="st8" d="M75,313.2c-0.7-1.2-1.3-2.4-1.7-3.7c-1-2.3-2.2-5.6-3.3-9.3c-1.2-3.7-2-7-2.6-9.5c-0.3-1.3-0.6-2.7-0.7-4
		c0.5,1.3,0.9,2.6,1.2,3.9c0.7,2.5,1.6,5.8,2.8,9.4c1.2,3.7,2.3,6.9,3.1,9.3C74.2,310.5,74.7,311.8,75,313.2z"/>
	<path class="st8" d="M95.6,309c-0.6-1-1.1-2.2-1.4-3.3c-0.8-2.1-1.8-5-2.7-8.2s-1.6-6.2-2-8.4c-0.3-1.2-0.5-2.4-0.5-3.5
		c0.4,1.1,0.7,2.3,1,3.4c0.5,2.1,1.2,5.1,2.2,8.3c0.9,3.2,1.8,6.1,2.5,8.3C95,306.7,95.3,307.8,95.6,309z"/>
	<path class="st8" d="M117.7,310.8c-0.2,0.1-2.4-5.5-5-12.4c-2.6-6.9-4.6-12.5-4.4-12.6s2.4,5.5,5,12.4
		C114.9,302.3,116.4,306.5,117.7,310.8z"/>
	<path class="st8" d="M134,304.3c-0.7-1.2-1.2-2.5-1.6-3.8c-0.9-2.4-2.1-5.7-3.3-9.4c-1.2-3.7-2.2-7.1-2.9-9.6
		c-0.4-1.3-0.7-2.7-0.9-4c0.6,1.3,1,2.6,1.4,3.9c0.8,2.6,1.9,5.9,3,9.5c1.2,3.6,2.3,6.9,3.1,9.5C133.3,301.6,133.7,302.9,134,304.3z
		"/>
	<path class="st8" d="M148.5,294.8c-0.2,0.1-2.5-6.4-5.2-14.4c-2.7-8-4.7-14.6-4.6-14.7s2.5,6.4,5.2,14.4
		C146.6,288.2,148.7,294.8,148.5,294.8z"/>
	<path class="st8" d="M157.1,266c-1.3-2.3-2.4-4.6-3.3-7.1c-1.1-2.4-2-4.8-2.7-7.3c1.3,2.3,2.4,4.6,3.3,7.1
		C155.5,261,156.4,263.5,157.1,266z"/>
	<path class="st8" d="M170.9,247.4c-2.2-3.1-4-6.5-5.4-10.1C167.7,240.5,169.5,243.9,170.9,247.4z"/>
	<path class="st8" d="M190,235.9c-1-1.8-1.8-3.7-2.5-5.6c-0.9-1.9-1.6-3.8-2.2-5.7c1.2,1.7,2.1,3.5,2.8,5.5
		C189,231.9,189.6,233.9,190,235.9z"/>
	<path class="st8" d="M207.9,231.2c-0.4-1.7-0.5-3.4-0.3-5.1c0-1.7,0.3-3.4,0.9-5c0,1.7-0.1,3.4-0.3,5.1
		C208.2,227.9,208.1,229.6,207.9,231.2z"/>
	
		<linearGradient id="SVGID_00000115494875351549331660000013281836292995750815_" gradientUnits="userSpaceOnUse" x1="338.9078" y1="15.834" x2="125.6594" y2="231.3754" gradientTransform="matrix(1 0 0 -1 0 419.2)">
		<stop  offset="0" style="stop-color:#00FFAF"/>
		<stop  offset="6.000000e-02" style="stop-color:#00EDAD"/>
		<stop  offset="0.32" style="stop-color:#00A6A7"/>
		<stop  offset="0.55" style="stop-color:#006EA2"/>
		<stop  offset="0.75" style="stop-color:#00469F"/>
		<stop  offset="0.91" style="stop-color:#002D9D"/>
		<stop  offset="1" style="stop-color:#00249C"/>
	</linearGradient>
	<path style="fill:url(#SVGID_00000115494875351549331660000013281836292995750815_);" d="M193.3,349.2l-18.6-104.8
		c10.3-8.6,23.2-13.3,36.6-13.4l61.3,0.5c3.2,0.3,6.4,1,9.5,1.9c7.5,0.5,21.6,3.4,32.2,20.8c11.2,18.5,27.6,56.7,27.6,56.7l3.4-42.7
		l27.3-8.3c22.7,60.5,8.1,106.2-17,110c-20.9,3.1-41-22.2-41-22.2l-10.1-17.5l-2.3,11.5l-6,28.5l21.9,48.9c-7.7,0-12.8,0.3-22.2,0
		H179c0.9-8.8,12.1-20,12.1-20C199.1,385.6,197.1,364.9,193.3,349.2"/>
	<path class="st8" d="M305.1,406.3c-0.2-0.2-0.5-0.4-0.7-0.6c-0.6-0.6-1.3-1.1-2-1.6c-2.6-1.8-5.5-3.1-8.5-4
		c-4.5-1.2-9.2-1.7-13.9-1.5c-5.7,0.4-11.4,1.2-17,2.3c-5.6,1.2-11.4,1.8-17.2,2c-4.7,0-9.4-0.9-13.9-2.5c-3-1.1-5.8-2.8-8.1-4.9
		c-0.6-0.6-1.2-1.2-1.8-1.9c-0.2-0.2-0.4-0.5-0.6-0.7c0.2,0.2,0.4,0.4,0.6,0.6c0.6,0.6,1.2,1.2,1.9,1.8c2.4,2,5.2,3.6,8.1,4.7
		c4.4,1.5,9.1,2.3,13.7,2.3c5.7-0.1,11.4-0.8,17.1-1.9c5.6-1.1,11.4-1.9,17.1-2.3c4.7-0.2,9.5,0.3,14,1.6c3.1,0.9,6,2.3,8.5,4.2
		c0.7,0.5,1.4,1.1,2,1.7C304.7,405.8,305,406,305.1,406.3z"/>
	<path class="st0" d="M342.6,330.2c-0.4,0-0.9-4.6-1-10.3s0-10.3,0.4-10.3s0.9,4.6,1,10.3S343,330.1,342.6,330.2z"/>
	<g class="st10">
		<path d="M187.6,403.1c-0.4,0.1-2.9,3.7-2.3,5.4c0.8,1.5,2.5,2.5,4.2,2.5c1.7,0,3.5-0.4,5.1-1l58.6-20l26.8-9.1
			c3.1-1,6.6-2.6,7.2-5.8c0.1-1,0.2-2,0.4-3c0.7-1.5,2-2.6,3.6-3c1.6-0.4,3.1-1,4.5-1.9c1.2-1,2.2-4.1,1.4-5.5
			c0.1,0.2-9.7,1.4-14.6,3.9c0.3,2,1.6,7,1.6,7s-5.2,1.4-7.1,2.2C246,387.2,218.6,392.5,187.6,403.1"/>
	</g>
	<polygon class="st3" points="345.2,185.3 303.4,253.1 336.3,262.3 372.9,205.9 	"/>
	<path class="st11" d="M342.6,243.1l1.4,9.9l5.8,7.5l0.6,6.2l21-6.4l-8.5-29.9c0,0,1.4-8.7,0.8-12.3l-5.8,7.7l-1.6-12.5l-11.8-9.5
		c-1.3-0.9-3.1-0.7-4,0.6c0,0,0,0,0,0l0,0c-0.8,1.1-0.7,2.8,0.3,3.7l9.5,8.4l0.6,10.4l-6.9-6.4c-0.7-0.6-1.5-1.1-2.4-1.2l-9.5-1.9
		c-1.4-0.3-2.7,0.6-2.9,2c0,0.1,0,0.2,0,0.2l0,0c-0.1,1.2,0.6,2.3,1.8,2.6l8.7,2.7l8.8,8.9l-8.6-3.3l-11.7,1.6c-1.1,0.2-2,1.1-2,2.2
		l0,0c0,1.2,1,2.3,2.3,2.3c0,0,0.1,0,0.1,0l7.4-0.4l4.4,1.4l-10,2.7c-0.9,0.2-1.5,1.1-1.5,2.1l0,0c0.1,1.1,1,1.9,2.1,1.9
		L342.6,243.1z"/>
	<path class="st0" d="M303.4,253.1c0,0-2.8-3.8-2.6-4.5c0.2-0.6,39.9-65.9,39.9-65.9l4.6,2.5L303.4,253.1z"/>
	<path class="st0" d="M355.7,202.4c0.6-0.6,1.5-0.6,2.1-0.1s0.6,1.5,0.1,2.1c-0.6,0.6-1.5,0.6-2.1,0.1
		C355.2,203.9,355.1,203.1,355.7,202.4"/>
	
		<linearGradient id="SVGID_00000034780983172986947460000006514517576075084438_" gradientUnits="userSpaceOnUse" x1="261.416" y1="45.9284" x2="95.4033" y2="141.7756" gradientTransform="matrix(1 0 0 -1 0 419.2)">
		<stop  offset="0" style="stop-color:#00FFAF"/>
		<stop  offset="6.000000e-02" style="stop-color:#00EDAD"/>
		<stop  offset="0.131" style="stop-color:#00E8AD"/>
		<stop  offset="0.2151" style="stop-color:#00DAAB"/>
		<stop  offset="0.3055" style="stop-color:#00C2A9"/>
		<stop  offset="0.3868" style="stop-color:#00A6A7"/>
		<stop  offset="0.55" style="stop-color:#006EA2"/>
		<stop  offset="0.75" style="stop-color:#00469F"/>
		<stop  offset="0.91" style="stop-color:#002D9D"/>
		<stop  offset="1" style="stop-color:#00249C"/>
	</linearGradient>
	<path style="fill:url(#SVGID_00000034780983172986947460000006514517576075084438_);" d="M186.4,237.3c0,0-31.2,9.5-38,56.1
		c-2.4,16.1-5.2,53.3-6.2,80.9c-0.6,18.1,6.1,28.3,17,32.1c5.8,1.9,12,1.9,17.8,0l106.8-33.2l-9.3-44.7l-80.3,21.6l2-33.1
		L186.4,237.3z"/>
	<path class="st0" d="M179.6,367c0.4-2,1.1-3.9,2.1-5.6c3.1-4.9,7.3-8.9,12.4-11.6l0,0l0,0l79.4-20l0.7-0.2l0.2,0.7
		c2.1,9.1,4.4,18.6,6.7,28.5l3.2,13.7l0.1,0.6l-0.6,0.2c-32.1,10.5-60.7,19.6-81.3,25.9c-10.3,3.1-18.7,5.5-24.4,7.1l-6.6,1.7
		l-1.7,0.4c-0.2,0.1-0.4,0.1-0.6,0.1c0,0,0.2-0.1,0.6-0.2l1.7-0.5l6.6-2l24.3-7.5c20.6-6.5,49.1-15.7,81.2-26.3l-0.5,0.8l-3.2-13.7
		l-6.7-28.3l0.8,0.5l-79.5,19.4h0.1c-5,2.6-9.2,6.4-12.4,11.1C181.1,363.4,180.3,365.1,179.6,367z"/>
	<path class="st0" d="M194.2,309.6c0.4,0,0.4,9.3,0,20.6s-1,20.6-1.4,20.6c-0.4,0-0.4-9.3,0-20.6
		C193.2,318.8,193.8,309.6,194.2,309.6z"/>
	<path class="st8" d="M330.5,286.2c-0.7-0.1-1.4-0.1-2-0.2c-2,0.1-3.9,0.6-5.6,1.5c-2.7,1.5-5.2,3.4-7.3,5.7c-1.3,1.2-2.7,2.7-4.3,4
		c-1.7,1.5-3.6,2.6-5.6,3.5c-4.3,1.8-9.6,1.8-15,0.9s-10.8-2.8-16.8-3.9c-3-0.6-6.1-0.8-9.2-0.6c-3.2,0.3-6.3,1.3-9.1,2.8
		c-5.8,3.1-10.7,8-16.5,12c-2.9,2-6,3.6-9.3,4.6c-3.3,1-6.7,1.4-10.1,1.2c-3.3-0.1-6.5-0.8-9.6-2c-2.9-1.2-5.7-2.7-8.2-4.5
		c-5-3.5-9.2-7.5-13.6-10.5c-4-3-8.6-5-13.5-5.9c-7.2-1.2-14.5,0.1-20.8,3.7c-2.3,1.3-4.4,3-6.3,4.8c0,0,0.1-0.1,0.4-0.4l1.1-1.1
		c0.5-0.5,1.1-1,1.9-1.6c0.9-0.7,1.9-1.3,2.8-1.9c2.7-1.6,5.6-2.8,8.7-3.5c4.1-1,8.2-1.1,12.4-0.5c2.4,0.4,4.7,1.1,6.9,2.1
		c2.4,1.1,4.7,2.4,6.8,3.9c4.5,3.1,8.7,7,13.7,10.4c2.5,1.8,5.2,3.3,8.1,4.4c3,1.2,6.2,1.8,9.4,1.9c3.3,0.1,6.6-0.3,9.8-1.2
		c3.3-1,6.4-2.6,9.2-4.5c5.7-3.9,10.6-8.9,16.5-12c2.9-1.6,6.1-2.6,9.3-2.9c3.1-0.2,6.3,0,9.3,0.6c6,1.1,11.4,3.1,16.7,4
		c5.3,0.9,10.4,0.9,14.7-0.8s7.2-4.8,9.8-7.3c2.2-2.3,4.7-4.2,7.5-5.6c1.8-0.9,3.7-1.4,5.7-1.4C329.1,285.9,329.8,286,330.5,286.2z"
		/>
	<path class="st8" d="M314.4,256.2c-0.1,0.1-0.2,0.2-0.3,0.4c-0.2,0.2-0.4,0.6-0.8,1c-1.1,1.2-2.4,2.3-3.7,3.2
		c-5,3.4-11.2,4.7-17.2,3.7c-3.7-0.6-7.7-1.9-12.1-2.5c-4.7-0.6-9.4,0.3-13.5,2.6c-4.4,2.4-8.4,5.8-12.8,9c-2.2,1.7-4.6,3.1-7.1,4.4
		c-2.6,1.3-5.3,2.2-8.1,2.8c-5.5,1.3-11.3,1.2-16.8-0.2c-5.1-1.4-9.9-3.5-14.4-6.2c-4.3-2.5-8.3-5.2-12-7.5
		c-3.5-2.2-7.1-4.1-10.9-5.7c-5.5-2.4-11.5-3.2-17.5-2.5c-1.6,0.3-3.2,0.7-4.7,1.2c-0.5,0.2-0.9,0.4-1.2,0.5
		c-0.1,0.1-0.3,0.1-0.4,0.1c0.1-0.1,0.2-0.2,0.4-0.2c0.3-0.1,0.6-0.3,1.2-0.5c1.5-0.6,3.1-1.1,4.7-1.3c6-0.8,12.1,0,17.6,2.4
		c3.8,1.6,7.5,3.5,11,5.7c3.8,2.3,7.8,5,12.1,7.5c4.4,2.7,9.2,4.8,14.3,6.1c5.4,1.3,11.1,1.4,16.5,0.1c2.8-0.6,5.4-1.5,8-2.8
		c2.4-1.2,4.8-2.7,7-4.4c4.4-3.2,8.4-6.6,12.9-9c2.2-1.2,4.5-2,6.9-2.5c1.2-0.2,2.3-0.3,3.5-0.4c1.1,0,2.3,0.1,3.4,0.2
		c4.4,0.6,8.4,2,12.1,2.6c3.3,0.6,6.7,0.5,10-0.4c2.5-0.6,4.8-1.7,7-3.1c1.4-0.9,2.6-1.9,3.7-3c0.4-0.4,0.7-0.7,0.9-0.9
		S314.4,256.2,314.4,256.2z"/>
	<path class="st8" d="M192.9,342.9c0,0.1-2.8-1.2-7.5-2.4l-1.9-0.5c-0.6-0.1-1.3-0.2-2-0.4c-1.5-0.3-3-0.4-4.5-0.5
		c-7-0.5-14,0.6-20.5,3c-1.5,0.6-2.9,1.1-4.2,1.8c-0.6,0.3-1.2,0.6-1.9,0.9l-1.6,1c-4.2,2.5-6.4,4.6-6.5,4.5c0.5-0.5,1-1,1.6-1.5
		c0.6-0.6,1.3-1.1,1.9-1.6c0.9-0.7,1.8-1.3,2.7-1.9l1.6-1c0.6-0.4,1.2-0.6,1.9-1c1.4-0.7,2.8-1.4,4.2-1.9c3.3-1.2,6.7-2.2,10.2-2.7
		c3.5-0.5,7-0.6,10.6-0.4c1.6,0.2,3.2,0.3,4.6,0.6c0.7,0.1,1.4,0.2,2.1,0.4l1.9,0.5c1.1,0.3,2.1,0.6,3.2,1c0.8,0.3,1.6,0.6,2.3,0.9
		C191.7,342.2,192.3,342.5,192.9,342.9z"/>
	<path class="st8" d="M222.2,343.8c-0.6,0.6-1.2,1.2-1.7,1.9c-1.2,1.9-2,4.1-2.2,6.4c-0.4,2.9,0.1,6.4,0,10.2c0,2.1-0.4,4.1-1,6.1
		c-0.8,2.1-1.9,4-3.4,5.7c-2.9,3.5-6.3,6.1-9.1,8.7c-2.6,2.2-4.7,4.9-6.2,8c-1,2-1.5,4.3-1.5,6.6c0.1,1.6,0.4,2.5,0.3,2.5
		c-0.1-0.2-0.2-0.4-0.2-0.6c-0.2-0.6-0.3-1.2-0.4-1.9c-0.1-2.4,0.3-4.7,1.3-6.8c1.5-3.1,3.6-5.9,6.2-8.2c2.8-2.7,6.2-5.3,9-8.7
		c1.4-1.6,2.5-3.5,3.3-5.5c0.7-1.9,1-3.9,1.1-5.9c0.1-3.8-0.4-7.4,0.1-10.3c0.2-2.3,1.1-4.6,2.4-6.5
		C220.8,344.8,221.4,344.2,222.2,343.8z"/>
	<path class="st8" d="M270.9,376c0,0-0.1-0.6-0.2-1.8c-0.2-1.6-0.8-3.1-1.6-4.4c-1.3-2-2.7-3.9-4.3-5.6c-1.8-2-3.8-4.1-5.7-6.7
		c-3.1-4.4-5.1-9.4-5.7-14.8c-0.2-1.6-0.4-3.2-0.4-4.8c-0.1-0.6-0.1-1.2,0-1.8c0.1,0.6,0.2,1.2,0.2,1.8c0.1,1.1,0.3,2.8,0.6,4.8
		c0.7,5.2,2.7,10.2,5.8,14.4c1.8,2.5,3.9,4.6,5.6,6.7c1.6,1.8,3,3.8,4.2,5.8c0.8,1.4,1.3,3,1.5,4.6c0,0.4,0,0.9,0,1.3
		C270.9,375.9,270.9,376,270.9,376z"/>
	<path class="st8" d="M339.9,317.9c0,0.4-0.1,0.8-0.3,1.2c-0.1,0.5-0.3,0.9-0.5,1.3c-0.2,0.5-0.4,1.1-0.8,1.7
		c-0.7,1.5-1.5,2.9-2.5,4.2c-1.2,1.6-2.6,3.1-4,4.4c-1.5,1.3-3.1,2.5-4.9,3.5c-1.4,0.8-2.9,1.5-4.5,2c-1,0.4-2.1,0.7-3.2,0.9
		c-0.4,0.1-0.8,0.2-1.2,0.1c0-0.1,1.7-0.4,4.2-1.4c1.5-0.6,2.9-1.3,4.3-2.1c1.7-1,3.3-2.2,4.8-3.4c1.5-1.3,2.8-2.7,4-4.3
		c1-1.3,1.9-2.6,2.6-4C339.3,319.5,339.8,317.9,339.9,317.9z"/>
	<path class="st8" d="M384.2,320.1c-0.1,0.1-1.6-2.2-4.7-5.2c-1.8-1.8-3.8-3.3-5.9-4.7c-2.6-1.7-5.3-3.1-8.2-4.2
		c-4.1-1.6-8.4-2.5-12.8-2.7c-2.9-0.1-5.7,0-8.6,0.5h-0.3l0.2-0.2c0.4-0.6,0.8-1.1,1.2-1.6c-0.3,0.6-0.6,1.2-1,1.8l-0.1-0.2
		c2.8-0.6,5.7-0.8,8.6-0.8c4.4,0.2,8.8,1.1,13,2.7c2.9,1.1,5.7,2.6,8.3,4.3c2.1,1.4,4.1,3.1,5.9,4.9c0.7,0.7,1.4,1.4,2,2.2l0.8,0.9
		l0.6,0.8C383.6,319,383.9,319.6,384.2,320.1z"/>
	<path class="st0" d="M282.7,120.8c-0.4,5,3,9.5,6.3,13.3c3.4,3.8,7.1,7.7,7.8,12.7c1.2,8.9-7.4,17.1-5.6,25.9
		c1,4.7,4.8,8.5,5.5,13.2s-1.8,9.1-4.9,12.6s-6.8,6.4-9.5,10.2c-2.8,4-4.4,8.7-6.5,13.1c-2,4.4-4.8,8.9-9.1,11.2
		c-6.5,3.5-15.5,1.9-20.5,7.3c-4.8,5.2-3.3,14.8-9.2,18.8"/>
	<path class="st0" d="M205.3,128.4c-0.1-4.6,4.1-8.1,8.3-9.8c4.2-1.7,9-2.3,12.8-4.8c3.4-2.3,5.6-5.8,8.4-8.7
		c10.9-11.1,28.7-11.2,39.8-0.3c3.7,3.6,6.3,8.2,7.5,13.2c1.6,6.5,0.5,14.2-4.6,18.5c-6,5-14.8,3.9-22.4,2.4
		c-7.7-1.6-16.2-3.1-22.6,1.4c-3.8,2.7-6,7.1-8.4,11.2c-2.4,4.1-5.3,8.2-9.7,9.7s-10.5-1.1-10.6-5.8"/>
	<path class="st11" d="M223.3,129.4c-3.9,0.4-6.9,3.8-6.8,7.8l0,0l4.6,103.2c0.2,12.2,17.8,13.1,30.8,12.8v-1.2
		c13.2-0.3,13.9,0.4,14-11.1c0.3-19.4,0.2-26.6,0.3-26.5s16.6-2.8,20-24.5c1.7-10.8,1.1-28.5,0.2-43c-0.9-13-9.5-29-22.5-27.6
		L223.3,129.4z"/>
	<path class="st0" d="M282.2,159.1c0,1.5-1.2,2.8-2.7,2.8c-1.5,0.1-2.7-1-2.9-2.4c0,0,0,0,0-0.1c0-1.5,1.2-2.8,2.7-2.8
		C280.8,156.5,282.1,157.6,282.2,159.1C282.2,159,282.2,159.1,282.2,159.1z"/>
	<path class="st0" d="M282.5,155.9c-0.4,0.4-2.5-1.2-5.5-1.2s-5.2,1.5-5.5,1.2c-0.2-0.2,0.2-0.8,1.1-1.5c1.3-0.9,2.8-1.4,4.4-1.4
		c1.6,0,3.1,0.5,4.3,1.4C282.3,155.1,282.7,155.7,282.5,155.9z"/>
	<path class="st0" d="M252.4,159.9c0,1.5-1.2,2.8-2.7,2.8c-1.5,0.1-2.8-1-2.9-2.4c0,0,0,0,0-0.1c0-1.5,1.2-2.8,2.7-2.8
		C251,157.2,252.3,158.4,252.4,159.9C252.4,159.8,252.4,159.8,252.4,159.9z"/>
	<path class="st0" d="M253,156.5c-0.4,0.4-2.5-1.2-5.5-1.2c-3,0.1-5.2,1.5-5.5,1.1c-0.2-0.2,0.2-0.8,1.1-1.5
		c1.3-0.9,2.8-1.4,4.4-1.4c1.6,0,3.1,0.5,4.3,1.4C252.9,155.7,253.2,156.3,253,156.5z"/>
	<path class="st0" d="M264,178.7c0-0.2,1.9-0.5,4.9-0.9c0.8-0.1,1.5-0.2,1.6-0.8c0.1-0.8-0.1-1.6-0.5-2.3l-2.3-5.8
		c-3.2-8.3-5.5-15.1-5.1-15.2c0.3-0.1,3.2,6.5,6.3,14.8l2.2,5.9c0.5,0.9,0.6,2,0.4,3c-0.2,0.6-0.7,1-1.2,1.1
		c-0.4,0.1-0.8,0.2-1.2,0.2C265.9,178.9,264,178.9,264,178.7z"/>
	<path class="st13" d="M266.1,214.2c-10.2,0.2-20.3-2.5-29.1-7.7c0,0,7.1,15,28.8,12.8L266.1,214.2z"/>
	<path class="st13" d="M262.7,185.9c-1.2-1.5-3-2.2-4.9-2c-1.3,0.1-2.6,0.8-3.4,1.8c-0.8,1-0.9,2.4-0.2,3.6c1,1.1,2.5,1.5,3.9,1
		c1.4-0.5,2.7-1.3,3.8-2.3c0.3-0.2,0.6-0.5,0.9-0.9c0.2-0.3,0.2-0.8,0-1.1"/>
	<path class="st0" d="M255.1,180.8c0.5,0,0.5,3.2,3.3,5.5s6.2,1.9,6.2,2.4c0,0.2-0.8,0.6-2.2,0.7c-1.9,0-3.8-0.6-5.2-1.8
		c-1.4-1.2-2.3-2.8-2.5-4.6C254.6,181.6,254.9,180.8,255.1,180.8z"/>
	<path class="st0" d="M254.4,151.2c-0.3,0.8-3.3,0.4-6.8,0.9s-6.4,1.4-6.8,0.7c-0.2-0.4,0.3-1.1,1.4-1.9c1.5-1,3.2-1.6,5.1-1.8
		c1.8-0.2,3.6,0,5.3,0.6C253.9,150.2,254.5,150.9,254.4,151.2z"/>
	<path class="st0" d="M281.4,147.2c-0.5,0.7-2.6,0-5.1,0c-2.5,0-4.6,0.5-5.1-0.2c-0.2-0.4,0.1-1,1-1.7c2.5-1.6,5.8-1.5,8.2,0.2
		C281.3,146.2,281.6,146.9,281.4,147.2z"/>
	
		<linearGradient id="SVGID_00000059298215946425689500000011162021251002288283_" gradientUnits="userSpaceOnUse" x1="208.074" y1="186.983" x2="273.292" y2="186.983" gradientTransform="matrix(1 0 0 -1 0 419.2)">
		<stop  offset="6.000000e-02" style="stop-color:#00EDAD"/>
		<stop  offset="0.131" style="stop-color:#00E8AD"/>
		<stop  offset="0.2151" style="stop-color:#00DAAB"/>
		<stop  offset="0.3055" style="stop-color:#00C2A9"/>
		<stop  offset="0.3868" style="stop-color:#00A6A7"/>
		<stop  offset="0.55" style="stop-color:#006EA2"/>
		<stop  offset="0.75" style="stop-color:#00469F"/>
		<stop  offset="0.91" style="stop-color:#002D9D"/>
	</linearGradient>
	<path style="fill:url(#SVGID_00000059298215946425689500000011162021251002288283_);" d="M208.4,233.3c-0.1-5.5-0.3-11.1,1.9-16.1
		c2.2-5,7.3-9.3,13.1-9c4.1,0.2,7.7,2.6,11.4,4.3c6.3,2.9,13.2,3.8,20.1,2.8c2.8-0.6,5.6-1,8.5-1.2c2.9-0.1,6,0.7,7.9,2.8
		c2.3,2.5,2.1,6.1,1.9,9.4c-0.2,5.1-1,10.1-2.4,15c-1.5,5-4.8,9.3-9.2,12c-6.4,3.7-14.6,3.1-22.2,2.1c-7.1-0.9-14.4-2.1-20.5-5.5
		c-6.2-3.5-11.1-9.8-10.7-16.4"/>
	<path class="st8" d="M222.9,251.5c-0.1,0-0.3-0.1-0.4-0.2c-0.4-0.2-0.7-0.6-1-0.9c-0.9-1.4-1.4-3-1.5-4.6c-0.7-5.2-1-10.5-1.1-15.8
		c0-2.9,0.1-5.8,0.5-8.7c0.2-2.4,0.9-4.7,2.1-6.9c0.8-1.4,1.9-2.6,3.3-3.5c0.4-0.2,0.8-0.4,1.2-0.6c0.1-0.1,0.3-0.1,0.4-0.1
		c0,0.1-0.6,0.3-1.5,0.9c-1.3,0.9-2.3,2.2-3,3.6c-1.9,3.5-2.3,9.3-2.3,15.4s0.6,11.8,0.9,15.8c0,1.6,0.5,3.1,1.2,4.5
		C222.1,250.7,222.5,251.1,222.9,251.5z"/>
	<path class="st8" d="M237.6,255.7c0-0.5,0-1.1,0.1-1.6c0.1-1.1,0.3-2.6,0.5-4.3c0.4-3.6,1-8.7,1.6-14.3c0.6-5.5,1-10.6,1.3-14.3
		c0.1-1.7,0.3-3.2,0.4-4.3c0-0.5,0.1-1.1,0.2-1.6c0.1,0.5,0.1,1.1,0,1.6c0,1-0.1,2.5-0.2,4.4c-0.2,3.7-0.6,8.7-1.1,14.3
		s-1.2,10.6-1.7,14.3c-0.3,1.8-0.5,3.3-0.7,4.3C237.9,254.6,237.8,255.1,237.6,255.7z"/>
	<path class="st8" d="M259.2,215.6c0.1,0,0.3,0,0.5,0c0.4,0.1,0.8,0.3,1.2,0.7c1.1,1.2,1.7,2.8,1.8,4.4c0.3,2.4,0.4,4.8,0.2,7.1
		c-0.2,2.7-0.6,5.6-1,8.6c-0.4,2.9-1,5.8-1.8,8.5c-0.7,2.3-1.7,4.5-3,6.5c-0.9,1.4-1.9,2.6-3.1,3.6c-0.3,0.3-0.7,0.6-1,0.8
		c-0.1,0.1-0.3,0.2-0.4,0.2c1.6-1.4,3-3.1,4.2-4.9c1.2-2,2.2-4.1,2.8-6.4c0.8-2.8,1.4-5.6,1.7-8.5c0.4-3,0.8-5.9,1-8.6
		c0.2-2.3,0.2-4.7,0-7c0-1.6-0.6-3.1-1.5-4.3C260.3,216,259.8,215.8,259.2,215.6z"/>
	<path class="st0" d="M266.6,214.4c-4.5,1.9-4.5,9.3-7.9,12.9c-4.5,4.6-12.6,1.4-18.5,4.1c-7.8,3.6-7.7,15.2-14.2,20.7
		c-4,3.4-10.1,4-13.3,8.2c-3.2,4.2-1.2,11.6,3.9,13.6l4.8-3.1c-1.4,2.2-0.7,5.3,1,7.3c1.8,1.9,4,3.5,6.4,4.5
		c2.9-0.3,4.6-3.6,5.2-6.5s1.1-6.1,3.4-8c2.8-2.2,7-1.4,10.1-3.1c6.1-3.5,3.5-14,8.9-18.5c3.4-2.8,8.6-2,12.7-3.7
		c5.9-2.5,8.3-9.6,8.9-16.1c0.6-6.4,0.3-13.2,3.5-18.8"/>
	<path class="st0" d="M208.1,200.9c10.4,2.1,20.6-4.6,22.7-15.1c0.4-2.1,0.5-4.2,0.2-6.2c-0.7-5.3-3.6-10.8-1.7-15.8
		c2.5-6.7,11.8-8.7,14.3-15.4c1.4-3.9,0.1-8.4,1.8-12.2c1.6-3.6,5.3-5.6,9-6.9c3.6-1.3,7.6-2.2,10.6-4.6c3.1-2.4,5-6.9,3-10.2
		c-16.2,1.9-32.2,5.8-47.5,11.5c-3.5,1.3-7.3,2.9-9.4,6.1c-2.2,3.3-2.1,7.6-1.9,11.6l2.7,58.5"/>
	<path class="st0" d="M196.4,218.9c-0.1-0.5-0.1-1-0.1-1.5c0.1-1.4,0.4-2.8,0.9-4.1c0.9-2.1,2.1-3.9,3.7-5.5
		c2.1-2.1,4.5-3.8,7.1-5.2c2.8-1.6,6.1-3,9.4-5c3.5-1.9,6.5-4.7,8.6-8.1c1.1-1.9,1.7-4,1.7-6.1c-0.1-2.3-0.4-4.5-1-6.7
		c-0.6-2.3-0.8-4.8-0.5-7.2c0.2-1.2,0.8-2.4,1.6-3.4c0.8-1,1.8-1.9,2.9-2.5c2.2-1.2,4.5-2,6.7-3c2.2-0.9,4-2.4,5.2-4.3
		c1-2,1.6-4.2,1.6-6.5c0.1-2.2,0-4.4,0-6.6c0-2.1,0.3-4.2,1-6.2c0.2-0.5,0.4-1,0.6-1.4c0.2-0.4,0.5-0.9,0.8-1.2
		c0.6-0.8,1.3-1.4,2.1-2c3.2-2.3,6.8-3,10-3.7c2.9-0.5,5.6-1.6,8.1-3.1c1.8-1.2,3.2-3,3.9-5.1c0.4-1.3,0.5-2.7,0.1-4.1
		c-0.2-0.4-0.4-0.9-0.6-1.3c0.3,0.4,0.5,0.8,0.7,1.2c0.4,1.3,0.4,2.8,0,4.2c-0.6,2.2-2,4-3.9,5.3c-2.5,1.5-5.3,2.6-8.2,3.2
		c-3.1,0.8-6.7,1.6-9.7,3.7c-0.8,0.6-1.4,1.2-2,2c-0.3,0.4-0.5,0.8-0.8,1.2c-0.2,0.4-0.4,0.9-0.6,1.4c-0.6,2-0.9,4-0.9,6.1
		c0,2.1,0.1,4.3,0,6.6c0,2.4-0.5,4.7-1.6,6.8c-1.3,2.1-3.2,3.7-5.5,4.6c-2.2,1-4.5,1.8-6.6,3c-1,0.6-2,1.4-2.7,2.3
		c-0.7,0.9-1.2,2-1.4,3.2c-0.3,2.3-0.1,4.7,0.4,6.9c0.6,2.2,0.9,4.5,1,6.9c0,2.3-0.6,4.5-1.8,6.4c-2.2,3.5-5.3,6.4-8.9,8.3
		c-3.3,1.9-6.6,3.3-9.4,4.9c-2.6,1.3-4.9,3-7,5c-1.6,1.5-2.8,3.4-3.7,5.4c-0.6,1.3-0.9,2.6-1,4C196.4,218.4,196.4,218.9,196.4,218.9
		z"/>
	<path class="st0" d="M259.7,233.8c1.4,0.2,2.8,0.3,4.2,0.3c3.9-0.1,7.6-1.4,10.8-3.7c2.2-1.5,4-3.5,5.4-5.8
		c1.4-2.7,2.4-5.7,2.7-8.7c0.6-3.2,1.1-6.7,2.9-9.9c1.8-3.2,5.1-5.3,7.8-7.8c2.8-2.4,4.5-5.7,5-9.3c0.2-1.7,0.2-3.4-0.1-5.1
		c-0.3-1.6-0.9-3.2-1.8-4.6c-1.6-2.8-3.6-5.3-4.5-8.1c-0.9-2.6-1.1-5.4-0.9-8.1c0.5-3.9,1.5-7.7,3.1-11.3c0.5-1.2,1-2.3,1.2-2.9
		c0.1-0.4,0.3-0.7,0.5-1c-0.1,0.4-0.2,0.7-0.4,1.1l-1.1,3c-1.4,3.6-2.4,7.4-2.8,11.2c-0.2,2.7,0.1,5.3,0.9,7.9
		c0.9,2.7,2.9,5.1,4.5,8c0.9,1.5,1.5,3.1,1.8,4.8c0.3,1.8,0.4,3.6,0.1,5.3c-0.3,1.8-0.8,3.6-1.7,5.2c-0.9,1.7-2.1,3.2-3.5,4.4
		c-2.8,2.5-6,4.6-7.7,7.6c-1.7,3.1-2.2,6.5-2.8,9.7c-0.4,3.1-1.4,6.1-2.9,8.9c-1.4,2.4-3.3,4.4-5.6,5.9c-3.2,2.3-7.1,3.5-11.1,3.5
		c-0.6,0-1.2,0-1.9-0.1c-0.5,0-0.9-0.1-1.3-0.2C260.5,234,260.1,233.9,259.7,233.8z"/>
	<path class="st3" d="M334.9,366.5c-10.3,0-19.9-5.4-25.2-14.2L155.2,99.7c-0.7-1.3-0.2-3,1.1-3.7c1.2-0.6,2.7-0.3,3.5,0.8
		l154.5,252.5c6.9,11.4,21.8,15.1,33.3,8.1c11.4-6.9,15.1-21.8,8.1-33.3c-0.1-0.2-0.2-0.4-0.4-0.6l-4.7-7.3
		c-0.9-1.2-0.6-2.9,0.6-3.8s2.9-0.6,3.8,0.6c0.1,0.1,0.1,0.2,0.2,0.3l4.7,7.3c8.9,13.8,4.8,32.1-9,41c-0.4,0.3-0.8,0.5-1.2,0.7
		C345.3,365,340.1,366.4,334.9,366.5z"/>
	<path class="st3" d="M349.5,35c0,0-54.2,3.3-80.6,57c0,0-59.8-4.9-78.1,44c0,0-69.2-7.9-84,55.9c0,0-55.4-2-58.6,48.4
		c0,0-37.4,1.4-39.9,39.4c0,0-31.4-154.8,84.2-236C214.7-42.3,349.5,35,349.5,35z"/>
	<path class="st11" d="M282.5,365.6l-6.5-28.9l7-2.9c3.4-2.6,6.5-5.4,9.4-8.6c1.5-1.6,2.7-3.4,3.6-5.5c1.2-2.5,2-5,2.5-7.7
		c0.2-2.5,3.3-3.5,4.5-1.5c1.2,1.9,0.9,8.8-3,15.9c-2.6,4.8,1.9,4.1,6.4,2.7c3.4-1,7,0.6,8.4,3.9l4.2,9.5c2.5,5.8-0.1,12.5-5.9,15.1
		c-0.2,0.1-0.4,0.2-0.6,0.3l-3.5,1.2l0,0L282.5,365.6"/>
	<path class="st6" d="M293.5,13c0,0.1-0.7,0.1-1.9,0.3c-1.5,0.3-2.9,0.8-4.2,1.6c-1.3,0.8-2.4,1.8-3.3,3c-0.3,0.5-0.7,1-1.1,1.5
		c0.1-0.6,0.4-1.2,0.8-1.8c0.9-1.3,2-2.4,3.4-3.2c1.3-0.8,2.8-1.4,4.4-1.5C292.2,12.8,292.9,12.9,293.5,13z"/>
	<path class="st6" d="M333.5,28c-0.7,0-1.5,0-2.2-0.1c-1.8,0-3.5,0.3-5.2,0.9c-1.6,0.6-3.2,1.5-4.5,2.6c-0.5,0.5-1.1,1-1.6,1.5
		c0.3-0.7,0.8-1.3,1.4-1.8c2.6-2.6,6.3-3.9,10-3.6C332,27.5,332.8,27.7,333.5,28z"/>
	<path class="st6" d="M49.6,105c-0.7-0.3-1.3-0.6-1.9-1c-1.5-0.7-3.2-1.1-4.9-1c-1.7,0.1-3.4,0.5-4.9,1.2c-0.6,0.3-1.3,0.7-2,0.9
		c0.5-0.5,1.1-1,1.8-1.2c1.6-0.9,3.3-1.4,5.1-1.6c1.8-0.1,3.6,0.3,5.2,1.2C48.6,103.9,49.2,104.4,49.6,105z"/>
	<g>
		<path class="st6" d="M212.2,46c0,0.1-1.1-0.3-3-0.8c-2.7-0.7-5.5-1.1-8.4-1.1c-9.3-0.1-18.5,2.6-26.2,7.9
			c-2.2,1.5-4.3,3.1-6.2,4.9c-1.8,1.7-3.5,3.5-5.1,5.4c-2.7,3.2-5,6.7-7,10.4c-1.4,2.5-2.6,5-3.7,7.6c-0.4,0.9-0.7,1.6-0.9,2.1
			c-0.1,0.2-0.2,0.5-0.4,0.7c0.1-0.3,0.1-0.5,0.2-0.8c0.2-0.5,0.4-1.2,0.8-2.2c1-2.7,2.2-5.2,3.5-7.7c1.9-3.7,4.3-7.3,6.9-10.5
			c1.6-1.9,3.3-3.8,5.1-5.5c1.9-1.8,4-3.5,6.2-5c7.8-5.3,17.1-8.1,26.6-7.8c2.9,0.1,5.7,0.5,8.4,1.3c1,0.2,1.7,0.6,2.2,0.7
			C211.7,45.8,211.9,45.9,212.2,46z"/>
		<path class="st6" d="M275,17.2c0,0-1-0.3-2.8-0.9c-6.2-1.9-12.8-2.4-19.3-1.6c-9.5,1.2-18.4,5.5-25.1,12.3
			c-4.6,4.6-8.2,10.1-10.6,16.2c-0.7,1.7-1,2.7-1,2.7c0-0.2,0.1-0.5,0.2-0.7c0.1-0.5,0.3-1.2,0.6-2.1c0.9-2.5,1.9-4.9,3.3-7.2
			c4.4-7.6,10.9-13.8,18.8-17.8c4.4-2.1,9-3.5,13.8-4.1c3.9-0.5,7.8-0.5,11.7,0.1c2.6,0.4,5.2,1,7.7,1.8c0.9,0.3,1.6,0.6,2,0.8
			C274.5,17,274.8,17.1,275,17.2z"/>
		<path class="st6" d="M259,79.3c-0.3,0-0.6-0.1-1-0.1c-0.6-0.1-1.6-0.3-2.8-0.4c-3.4-0.5-6.8-0.8-10.2-0.8
			c-5.1,0-10.1,0.5-15.1,1.7c-2.9,0.6-5.8,1.5-8.6,2.5c-3,1.1-5.9,2.4-8.7,3.9c-5.5,2.9-10.6,6.5-15.2,10.6
			c-6.4,5.7-11.3,12.7-14.5,20.6c-0.5,1.1-0.8,2-1,2.6c-0.1,0.3-0.2,0.6-0.4,0.9c0.1-0.3,0.1-0.6,0.3-0.9c0.2-0.6,0.4-1.5,0.9-2.6
			c1.2-3.2,2.7-6.3,4.5-9.2c2.7-4.3,6-8.3,9.8-11.7c4.7-4.2,9.8-7.8,15.3-10.7c2.8-1.6,5.8-2.9,8.8-4c2.9-1,5.8-1.9,8.7-2.5
			c5-1.1,10.1-1.6,15.2-1.5c3.4,0,6.9,0.4,10.2,1c1.3,0.2,2.1,0.4,2.7,0.6C258.4,79.1,258.7,79.2,259,79.3z"/>
		<path class="st6" d="M316.9,32.2c-0.3,0-0.6,0-0.8,0c-0.5,0-1.4,0-2.4,0.1c-2.9,0.1-5.9,0.5-8.7,1c-19.4,3.5-35.6,16.8-43,35
			c-1.1,2.7-2,5.5-2.7,8.3c-0.3,1-0.4,1.8-0.5,2.3c0,0.3-0.1,0.6-0.2,0.8c0-0.3,0-0.6,0.1-0.8c0.1-0.5,0.2-1.3,0.4-2.4
			c0.6-2.9,1.5-5.7,2.6-8.5c7.2-18.6,23.7-32,43.4-35.3c2.9-0.5,5.9-0.8,8.8-0.8c1,0,1.9,0,2.4,0C316.3,32.1,316.6,32.1,316.9,32.2z
			"/>
		<g>
			<path class="st6" d="M40.4,160.3c0,0.1-2.1,0.1-5.4,0.6c-2,0.3-3.9,0.8-5.8,1.4c-2.3,0.8-4.5,1.7-6.6,2.9c-2.1,1.2-4.1,2.5-5.9,4
				c-1.5,1.2-3,2.6-4.3,4.1c-2.3,2.5-3.4,4.3-3.5,4.2c0.2-0.4,0.4-0.9,0.7-1.2c0.3-0.5,0.6-1,1-1.4c0.4-0.6,0.9-1.2,1.4-1.8
				c1.3-1.5,2.7-2.9,4.3-4.2c1.9-1.6,3.9-2.9,6.1-4.1c2.2-1.2,4.4-2.1,6.8-2.9c1.9-0.6,3.9-1,5.9-1.2c0.8-0.1,1.6-0.2,2.3-0.2
				c0.6,0,1.2,0,1.7,0C39.5,160.2,39.9,160.2,40.4,160.3z"/>
			<path class="st6" d="M89.2,133.7c-0.8-0.2-1.7-0.5-2.5-0.8c-5.6-1.8-11.5-2.4-17.2-1.5c-8.5,1.2-16.2,5.6-21.7,12.2
				c-3.8,4.5-6.4,9.8-7.7,15.5c-0.4,1.6-0.5,2.5-0.6,2.5c0-0.2,0-0.4,0-0.7c0.1-0.4,0.1-1.1,0.3-1.9c0.4-2.3,1.1-4.6,2.1-6.8
				c4.7-11.6,15.2-19.8,27.5-21.4c3.5-0.5,7.1-0.5,10.5,0c2.3,0.4,4.7,1,6.9,1.8c0.8,0.3,1.4,0.6,1.8,0.8
				C88.8,133.5,89,133.6,89.2,133.7z"/>
			<path class="st6" d="M152.1,83.1c0,0.1-1.2-0.3-3.5-0.8c-3.2-0.6-6.5-0.7-9.8-0.4c-2.2,0.2-4.5,0.6-6.7,1.1
				c-2.5,0.6-5,1.5-7.3,2.5c-2.6,1.1-5.1,2.5-7.5,4.1c-2.6,1.7-5,3.6-7.2,5.7c-4.2,4.2-7.9,8.9-10.9,14c-2.5,4.2-4.8,8.5-6.9,12.9
				c-1.8,3.7-3.1,6.9-4.1,9l-1.1,2.5c-0.1,0.3-0.2,0.6-0.4,0.8c0.1-0.3,0.2-0.6,0.3-0.9l1-2.5c0.9-2.2,2.2-5.3,3.9-9.1
				c2-4.5,4.3-8.8,6.8-13c3.1-5.2,6.7-9.9,10.9-14.2c2.2-2.2,4.7-4.1,7.3-5.8c2.4-1.6,5-2.9,7.7-4.1c2.4-1,4.9-1.9,7.5-2.5
				c2.2-0.5,4.5-0.9,6.8-1.1c3.3-0.3,6.6-0.1,9.9,0.6c0.9,0.2,1.7,0.4,2.6,0.7C151.6,82.9,151.9,83,152.1,83.1z"/>
			<path class="st6" d="M43.1,211.6c0,0.1-2.7-0.2-7,0.4l-1.7,0.2c-0.6,0.1-1.2,0.2-1.8,0.4c-1.3,0.3-2.6,0.6-3.9,1.1
				c-2.9,1-5.7,2.3-8.3,3.9c-2.6,1.6-5,3.5-7.2,5.7c-1,1-1.9,2-2.7,3c-0.4,0.5-0.8,0.9-1.1,1.4l-1,1.4c-2.4,3.6-3.3,6.1-3.5,6
				c0.2-0.6,0.4-1.2,0.7-1.8c0.3-0.7,0.6-1.4,1-2c0.4-0.9,0.9-1.7,1.5-2.5l0.9-1.4c0.3-0.5,0.7-1,1.1-1.5c0.9-1.1,1.8-2.1,2.7-3.1
				c2.2-2.2,4.7-4.1,7.3-5.8c2.7-1.6,5.5-2.9,8.5-3.9c1.3-0.4,2.6-0.8,4-1c0.6-0.1,1.2-0.3,1.8-0.3l1.7-0.2c1-0.1,1.9-0.2,2.9-0.2
				c0.7-0.1,1.5-0.1,2.2,0C41.9,211.4,42.5,211.5,43.1,211.6z"/>
			<path class="st6" d="M100.6,175.1c-0.3,0-0.5,0-0.8-0.1c-0.5-0.1-1.2-0.3-2.2-0.4c-6.8-1-13.8-0.6-20.5,1.1
				c-13.9,3.7-25.6,13.2-31.9,26.2c-1.2,2.5-2.3,5.1-3.1,7.7c-0.3,0.9-0.5,1.7-0.6,2.2c0,0.3-0.1,0.5-0.2,0.8c0-0.3,0.1-0.5,0.1-0.8
				c0.1-0.5,0.2-1.2,0.5-2.2c0.7-2.7,1.7-5.3,2.9-7.9c4-8.4,10.3-15.6,18.1-20.6c7.9-4.9,17.1-7.5,26.4-7.5c2.8,0,5.6,0.2,8.4,0.8
				c1,0.2,1.7,0.4,2.2,0.5C100.1,174.9,100.4,175,100.6,175.1z"/>
			<path class="st6" d="M180.6,120.5c-0.4,0-0.8-0.1-1.1-0.2c-0.7-0.1-1.8-0.3-3.1-0.5c-3.9-0.6-7.8-0.7-11.7-0.5
				c-2.7,0.2-5.4,0.5-8,1.1c-3,0.7-6,1.6-8.8,2.7c-6.6,2.7-12.8,6-18.7,10c-3,2.1-5.9,4.3-8.7,6.8c-2.5,2.3-4.9,4.8-7.1,7.4
				c-3.7,4.4-7,9.2-9.7,14.4c-1.8,3.5-3.3,7.1-4.6,10.7c-0.5,1.2-0.8,2.4-1,3c-0.1,0.4-0.2,0.7-0.4,1.1c0,0,0.1-0.4,0.2-1.1
				c0.2-0.7,0.4-1.8,0.9-3.1c1.2-3.7,2.7-7.4,4.5-10.9c2.6-5.2,5.9-10.1,9.6-14.5c4.6-5.5,9.9-10.3,15.9-14.3
				c5.9-4,12.3-7.3,18.9-10c2.9-1.1,5.9-2,9-2.6c2.7-0.6,5.4-0.9,8.1-1c3.9-0.2,7.9,0.1,11.7,0.7c1.4,0.2,2.4,0.5,3.1,0.6
				C179.9,120.3,180.3,120.4,180.6,120.5z"/>
			<path class="st6" d="M83.7,91.7c-1.9-0.8-3.9-1.4-6-1.9c-10.2-2.2-20.6,2.1-26.2,10.9c-1.1,1.8-2,3.7-2.9,5.6
				c0.1-0.6,0.2-1.1,0.5-1.6c0.5-1.5,1.2-2.9,2-4.2c5.5-9.1,16.3-13.6,26.6-11.1c1.5,0.3,3,0.9,4.4,1.5
				C82.7,91.1,83.2,91.3,83.7,91.7z"/>
			<path class="st6" d="M125.8,58.1c-0.8,0.1-1.6,0.2-2.3,0.2c-2.1,0.2-4.2,0.5-6.2,1c-3.1,0.7-6.1,1.6-9,2.7
				C96,66.8,86.5,76.7,82.1,89c-0.2,0.8-0.5,1.5-0.8,2.2c0-0.2,0.1-0.4,0.1-0.6c0.1-0.4,0.2-1,0.5-1.7c0.6-2,1.4-4,2.4-5.9
				c3.1-6.4,7.8-11.9,13.5-16.1c3.2-2.3,6.6-4.1,10.3-5.5c3-1.2,6-2,9.1-2.6c2.1-0.4,4.2-0.7,6.4-0.8c0.8,0,1.3,0,1.7,0
				C125.4,58.1,125.6,58.1,125.8,58.1z"/>
		</g>
		<path class="st6" d="M159.2,27.7c0,0.1-2.7,0.5-6.7,1.9c-1.1,0.4-2.2,0.8-3.3,1.3c-1.2,0.5-2.4,1.1-3.6,1.8
			c-2.7,1.6-5.2,3.4-7.5,5.4c-2.3,2.1-4.3,4.4-6.1,6.9c-0.8,1.1-1.5,2.2-2.2,3.4c-0.3,0.5-0.6,1.1-0.9,1.6c-0.3,0.5-0.5,1-0.7,1.5
			c-1.8,3.9-2.3,6.6-2.5,6.5c0.1-0.6,0.2-1.2,0.4-1.8c0.2-0.7,0.4-1.4,0.6-2.1c0.3-0.9,0.7-1.8,1.1-2.7l0.7-1.6
			c0.2-0.5,0.6-1.1,0.9-1.6c0.6-1.2,1.4-2.4,2.1-3.5c1.8-2.6,3.9-4.9,6.2-7.1c2.3-2.1,4.9-3.9,7.6-5.5c1.2-0.7,2.5-1.3,3.7-1.8
			c1.1-0.5,2.2-0.9,3.3-1.2c1-0.4,2-0.6,2.8-0.8c0.7-0.2,1.4-0.3,2.2-0.4C158,27.8,158.6,27.7,159.2,27.7z"/>
		<path class="st6" d="M173.3,12.8c0,0.1-1,0.5-2.5,1.2c-2,1.1-3.8,2.4-5.4,4c-1.6,1.6-2.8,3.5-3.8,5.5c-0.8,1.6-1.1,2.6-1.2,2.6
			c0.1-1,0.3-1.9,0.8-2.8c1.8-4.3,5.1-7.8,9.4-9.8C171.5,13.2,172.4,12.9,173.3,12.8z"/>
	</g>
	<g>
		<path class="st6" d="M91.2,44.4c-0.5,0.5-1,1-1.6,1.5c-1.1,0.9-2.6,2.3-4.5,4.2c-5.4,5.2-10.3,11-14.6,17.1
			c-10.4,14.4-18.3,30.4-23.6,47.4c-2,6.8-3.5,13.7-4.5,20.6c-3.7,28.9-1.5,55.4,0.5,74.3c1,9.5,2,17.1,2.7,22.4
			c0.3,2.5,0.6,4.6,0.8,6.1c0.1,0.7,0.2,1.4,0.2,2.1c-0.2-0.7-0.4-1.4-0.5-2.1c-0.3-1.5-0.6-3.5-1-6.1c-0.9-5.3-2-12.9-3.2-22.4
			c-2.2-18.9-4.5-45.5-0.9-74.6c1-7.1,2.5-14,4.6-20.9c2-6.3,4.3-12.5,7.1-18.6c4.7-10.2,10.4-19.9,17-29
			c4.5-6.1,9.5-11.8,15.1-16.9c1.5-1.4,3.1-2.7,4.7-4C90,45.2,90.6,44.8,91.2,44.4z"/>
		<path class="st6" d="M91.2,44.4c0.1,0.1-1.3,1.7-3.1,5.1c-2.5,4.8-4.1,10-4.7,15.4c-1,8-1.1,16.1-0.3,24.2
			c0.6,9.1,1.5,19.1,2.9,29.6c2.4,17.8,6.4,35.4,11.9,52.6c2.1,6.6,4,11.8,5.4,15.5c0.6,1.7,1.1,3.1,1.6,4.2c0.2,0.5,0.4,1,0.4,1.5
			c-0.3-0.4-0.5-0.9-0.7-1.4c-0.5-1.1-1.1-2.4-1.8-4.1c-1.5-3.6-3.6-8.7-5.8-15.4c-5.8-17.1-9.9-34.8-12.3-52.7
			c-1.5-10.5-2.3-20.5-2.8-29.7c-0.7-8.1-0.5-16.3,0.7-24.4c0.8-5.5,2.5-10.8,5.2-15.6c0.8-1.3,1.6-2.5,2.6-3.6
			C90.5,45.2,90.9,44.8,91.2,44.4z"/>
		<path class="st6" d="M96.2,41c0.5-0.4,1.1-0.7,1.7-1c1.2-0.6,2.8-1.6,5.1-2.6c6.3-3.1,12.9-5.6,19.6-7.6c10-2.9,20.5-4.1,31-3.6
			c11.8,0.6,24.6,3.5,37.4,8c25.8,9,46.2,23.7,59.3,35.4c5.3,4.7,10.3,9.6,15,14.8c1.7,1.8,2.9,3.3,3.7,4.3c0.5,0.5,0.9,1,1.2,1.6
			c-0.5-0.4-1-0.9-1.4-1.4c-0.9-0.9-2.2-2.4-3.9-4.1c-3.4-3.6-8.5-8.6-15.2-14.4c-13.3-11.5-33.6-25.9-59.1-34.9
			c-12.7-4.4-25.3-7.4-37-8c-10.3-0.6-20.7,0.5-30.6,3.3c-6.7,1.9-13.3,4.3-19.7,7.1c-2.3,1-4,1.9-5.2,2.4
			C97.5,40.6,96.8,40.8,96.2,41z"/>
		<path class="st6" d="M332.2,37.5c-0.2,0-0.4-0.1-0.6-0.2l-1.7-0.8l-6.5-3l-4.7-2.2L313,29c-4.1-1.6-8.7-3.6-14-5.2l-8.2-2.8
			c-2.9-0.9-6-1.6-9.1-2.5c-6.2-1.9-13.1-3.1-20.3-4.6c-15.6-2.8-31.5-4.3-47.4-4.5c-15.9,0.1-31.8,1.5-47.4,4.4
			c-7.1,1.6-14,2.9-20.2,5c-3.1,1-6.2,1.8-9,2.7l-8.1,3.1c-4.7,1.7-9.3,3.7-13.7,6c-2,1-3.8,1.8-5.5,2.6l-4.5,2.5l-6.2,3.5l-1.7,0.9
			c-0.2,0.1-0.4,0.2-0.6,0.3c0,0,0.2-0.2,0.5-0.4l1.6-1l6.1-3.7l4.4-2.7c1.7-0.9,3.5-1.8,5.5-2.7c4.4-2.3,9-4.4,13.7-6.2l8.1-3.2
			c2.9-1,5.9-1.9,9-2.8c6.2-2.1,13.1-3.4,20.3-5.1C182,9.5,198,8,214,7.9c16,0.2,31.9,1.7,47.6,4.6c7.2,1.6,14.1,2.8,20.3,4.8
			c3.1,0.9,6.2,1.7,9.1,2.6l8.3,2.9c5.3,1.7,9.9,3.7,14,5.5l5.7,2.4l4.6,2.3l6.4,3.3l1.6,0.9C332.1,37.4,332.3,37.5,332.2,37.5z"/>
		<path class="st6" d="M96.2,41c0.4,0.1,0.8,0.2,1.2,0.4c0.8,0.3,2.1,0.8,3.6,1.5c4.4,2,8.7,4.2,12.9,6.6
			c6.2,3.6,12.1,7.8,17.5,12.4c6.6,5.7,12.9,11.8,18.7,18.4c10.5,11.9,20.3,24.5,29.3,37.6c3.5,5,6.2,9.1,8.1,11.9l2.1,3.3
			c0.3,0.4,0.5,0.8,0.7,1.2c-0.3-0.3-0.6-0.6-0.9-1l-2.4-3.1l-8.4-11.7c-9.2-12.9-19.1-25.3-29.5-37.2c-5.8-6.5-12-12.6-18.5-18.3
			c-5.4-4.6-11.1-8.8-17.2-12.5c-5.2-3.2-9.6-5.4-12.6-6.9C99.3,42.8,97.7,41.9,96.2,41z"/>
	</g>
	<g id="freepik--Floor--inject-38_00000165929240156420693260000014369565790499963050_">
		<path class="st0" d="M604.1,419.3c0,0.2-135.8,0.3-289.5,0.3s-278.3-0.1-278.3-0.3s124.5-0.3,278.3-0.3S604.1,419.1,604.1,419.3z"
			/>
	</g>
	<g id="freepik--Plant--inject-38_00000107563662278307850510000017052482004391276956_">
		<path class="st15" d="M573.3,344.1c-3.7,5.3-10.8,3.5-14.1,0.3s-4.7-7.9-6-12.3c-2.9-10.1-5.9-20.7-3.7-31c0.5-3.1,1.9-6,4-8.4
			c2.1-2.4,5.4-3.5,8.5-2.8c3.6,1,5.8,4.5,7.5,7.9c4.8,9.9,7.3,20.8,7.3,31.8C577.2,334.5,576,339.7,573.3,344.1"/>
		<g>
			
				<linearGradient id="SVGID_00000169524408941067050140000016113208459744507035_" gradientUnits="userSpaceOnUse" x1="562.3938" y1="65.3973" x2="564.2282" y2="206.1871" gradientTransform="matrix(1 0 0 -1 0 419.2)">
				<stop  offset="0" style="stop-color:#00FFAF"/>
				<stop  offset="6.000000e-02" style="stop-color:#00EDAD"/>
				<stop  offset="0.32" style="stop-color:#00A6A7"/>
				<stop  offset="0.55" style="stop-color:#006EA2"/>
				<stop  offset="0.75" style="stop-color:#00469F"/>
				<stop  offset="0.91" style="stop-color:#002D9D"/>
				<stop  offset="1" style="stop-color:#00249C"/>
			</linearGradient>
			<path style="fill:url(#SVGID_00000169524408941067050140000016113208459744507035_);" d="M573.3,344.1
				c-3.7,5.3-10.8,3.5-14.1,0.3s-4.7-7.9-6-12.3c-2.9-10.1-5.9-20.7-3.7-31c0.5-3.1,1.9-6,4-8.4c2.1-2.4,5.4-3.5,8.5-2.8
				c3.6,1,5.8,4.5,7.5,7.9c4.8,9.9,7.3,20.8,7.3,31.8C577.2,334.5,576,339.7,573.3,344.1"/>
		</g>
		
			<linearGradient id="SVGID_00000171718843893357519500000001695928292034827677_" gradientUnits="userSpaceOnUse" x1="547.7864" y1="65.5876" x2="549.6208" y2="206.3774" gradientTransform="matrix(1 0 0 -1 0 419.2)">
			<stop  offset="0" style="stop-color:#00FFAF"/>
			<stop  offset="6.000000e-02" style="stop-color:#00EDAD"/>
			<stop  offset="0.32" style="stop-color:#00A6A7"/>
			<stop  offset="0.55" style="stop-color:#006EA2"/>
			<stop  offset="0.75" style="stop-color:#00469F"/>
			<stop  offset="0.91" style="stop-color:#002D9D"/>
			<stop  offset="1" style="stop-color:#00249C"/>
		</linearGradient>
		<path style="fill:url(#SVGID_00000171718843893357519500000001695928292034827677_);" d="M559.6,370.7c-6.2-2.9-13.1-3.7-19.8-2.4
			c-3.6,0.3-7.1,1.8-9.8,4.3c-2.4,2.7-2.9,7.4-0.1,9.8c1.8,1.2,4,1.8,6.2,1.6c5.2,0,11-1,15.2,2.1c2.4,1.8,4,4.8,6.8,5.7
			c2.9,0.7,5.9-0.7,7.4-3.3c1.4-2.6,1.7-5.7,0.9-8.5C565.6,375.9,563.1,372.5,559.6,370.7z"/>
		
			<linearGradient id="SVGID_00000178180337772034496290000016553736786255839922_" gradientUnits="userSpaceOnUse" x1="602.2672" y1="64.8778" x2="604.1016" y2="205.6676" gradientTransform="matrix(1 0 0 -1 0 419.2)">
			<stop  offset="0" style="stop-color:#00FFAF"/>
			<stop  offset="6.000000e-02" style="stop-color:#00EDAD"/>
			<stop  offset="0.32" style="stop-color:#00A6A7"/>
			<stop  offset="0.55" style="stop-color:#006EA2"/>
			<stop  offset="0.75" style="stop-color:#00469F"/>
			<stop  offset="0.91" style="stop-color:#002D9D"/>
			<stop  offset="1" style="stop-color:#00249C"/>
		</linearGradient>
		<path style="fill:url(#SVGID_00000178180337772034496290000016553736786255839922_);" d="M583.4,351.6c-3.8-5-5-11.6-3-17.6
			c2-5.9,5.6-11.1,10.4-15.1c5.4-4.9,11.8-8.6,18.6-11c2.7-1.1,5.5-1.6,8.4-1.4c2.9,0.2,5.5,1.8,7,4.3c2,3.7,0,8.3-2,12
			c-3.6,6.5-7.7,12.8-12.2,18.6c-3.7,4.7-7.9,9.4-13.5,11.5s-11.4,1.9-14.4-2"/>
		<path class="st0" d="M573.6,423.2c-0.2-0.8-0.3-1.6-0.3-2.4l-0.6-6.4c-0.3-3.2-0.8-6.4-1.5-9.6c-0.9-3.8-2-7.6-3.5-11.3
			c-1.4-3.6-3.4-7.1-5.8-10.2c-2-2.5-4.4-4.6-7.3-6c-1.9-1-4-1.6-6.1-1.9c-0.8,0-1.6-0.1-2.4-0.3c0.8-0.1,1.6-0.1,2.4,0
			c2.2,0.2,4.4,0.7,6.4,1.7c3,1.4,5.6,3.5,7.7,6.1c2.5,3.2,4.5,6.7,6,10.4c1.5,3.7,2.6,7.5,3.4,11.5c0.6,3.2,1,6.4,1.3,9.7
			c0.2,2.8,0.3,5,0.3,6.5C573.7,421.7,573.7,422.4,573.6,423.2z"/>
		<path class="st0" d="M573.1,418.3c0-0.4,0-0.7,0-1.1c0-0.8,0-1.9,0-3.2c0-2.8,0-6.7-0.2-11.6c-0.2-9.8-1.1-23.4-2.7-38.3
			s-3.8-28.3-5.8-37.9c-0.5-2.4-0.9-4.6-1.4-6.4s-0.8-3.5-1.1-4.9c-0.3-1.3-0.6-2.3-0.8-3.1c-0.1-0.4-0.2-0.7-0.2-1.1
			c0.2,0.3,0.3,0.7,0.4,1c0.3,0.8,0.6,1.8,0.9,3s0.8,3,1.3,4.9s1,4,1.5,6.4c2.7,12.5,4.7,25.2,6.1,37.9c1.6,15,2.4,28.5,2.4,38.4
			c0,4.9,0,8.9-0.2,11.6c0,1.3-0.2,2.3-0.2,3.2C573.3,417.5,573.2,417.9,573.1,418.3z"/>
		<path class="st0" d="M573.1,392c-0.1-1.1-0.1-2.2,0-3.3c0.1-2.1,0.4-5.2,1-9c0.7-4.4,1.7-8.8,2.9-13c1.5-5.3,3.3-10.4,5.5-15.5
			c3.8-9.2,9.2-17.7,16-25c1.2-1.2,2.4-2.4,3.8-3.5c0.6-0.5,1.1-1,1.6-1.4c0.5-0.4,1-0.7,1.5-1c0.9-0.7,1.8-1.3,2.8-1.8
			c-3.2,2.5-6.3,5.2-9.1,8.1c-6.6,7.3-11.9,15.8-15.6,24.9c-2.2,5-4,10.1-5.5,15.3c-1.2,4.3-2.3,8.6-3.1,12.9
			c-0.7,3.7-1.1,6.8-1.3,8.9C573.4,389.9,573.3,391,573.1,392z"/>
	</g>
	<g>
		
			<linearGradient id="SVGID_00000039854831068737548980000008022660539782133948_" gradientUnits="userSpaceOnUse" x1="445.915" y1="192.006" x2="425.9659" y2="218.1462" gradientTransform="matrix(1 0 0 -1 0 419.2)">
			<stop  offset="0" style="stop-color:#00FFAF"/>
			<stop  offset="6.000000e-02" style="stop-color:#00EDAD"/>
			<stop  offset="0.32" style="stop-color:#00A6A7"/>
			<stop  offset="0.55" style="stop-color:#006EA2"/>
			<stop  offset="0.75" style="stop-color:#00469F"/>
			<stop  offset="0.91" style="stop-color:#002D9D"/>
			<stop  offset="1" style="stop-color:#00249C"/>
		</linearGradient>
		<path style="fill:url(#SVGID_00000039854831068737548980000008022660539782133948_);" d="M434.4,197.6c4.1-0.1,7.9,0.7,11.2,3.2
			c7.7,5.7,6.8,17.8-1.8,22c-4.2,2-5.7,5.3-6,9.5c-0.2,3.1-1.2,4.6-3.4,4.5c-2.2-0.1-3.4-1.8-3.1-4.9c0.5-6.7,3.1-12,9.5-14.9
			c4.4-2,4.7-7.9,1-11c-2.9-2.4-11.7-2.5-14.5,0c-1.5,1.3-2.4,2.8-2.6,4.7c-0.2,2.2-1.5,3.4-3.5,3.2c-1.8-0.1-3-1.5-2.9-3.6
			c0.1-5.6,4.5-10.7,10.7-12.1C430.7,197.9,432.6,197.9,434.4,197.6z"/>
		
			<linearGradient id="SVGID_00000074405417328799891410000009393648297719368874_" gradientUnits="userSpaceOnUse" x1="429.2906" y1="179.3189" x2="409.3415" y2="205.4591" gradientTransform="matrix(1 0 0 -1 0 419.2)">
			<stop  offset="0" style="stop-color:#00FFAF"/>
			<stop  offset="6.000000e-02" style="stop-color:#00EDAD"/>
			<stop  offset="0.32" style="stop-color:#00A6A7"/>
			<stop  offset="0.55" style="stop-color:#006EA2"/>
			<stop  offset="0.75" style="stop-color:#00469F"/>
			<stop  offset="0.91" style="stop-color:#002D9D"/>
			<stop  offset="1" style="stop-color:#00249C"/>
		</linearGradient>
		<path style="fill:url(#SVGID_00000074405417328799891410000009393648297719368874_);" d="M434.5,243.5c1.8,0,3.2,1.4,3.2,3.2
			c0,1.8-1.5,3.3-3.3,3.2c-1.8-0.1-3.2-1.5-3.1-3.3C431.3,244.9,432.7,243.5,434.5,243.5z"/>
	</g>
	<rect x="359.1" y="103.7" class="st2" width="59" height="3"/>
	<rect x="359.1" y="109.7" class="st2" width="36.1" height="3"/>
</g>
<g>
	<g>
		
			<linearGradient id="SVGID_00000101101629836997830160000011504858613026049177_" gradientUnits="userSpaceOnUse" x1="372.5871" y1="272.916" x2="379.0755" y2="267.092" gradientTransform="matrix(1 0 0 -1 0 420.4)">
			<stop  offset="0" style="stop-color:#00FFAF"/>
			<stop  offset="6.000000e-02" style="stop-color:#00EDAD"/>
			<stop  offset="0.32" style="stop-color:#00A6A7"/>
			<stop  offset="0.55" style="stop-color:#006EA2"/>
			<stop  offset="0.75" style="stop-color:#00469F"/>
			<stop  offset="0.91" style="stop-color:#002D9D"/>
			<stop  offset="1" style="stop-color:#00249C"/>
		</linearGradient>
		<path style="fill:url(#SVGID_00000101101629836997830160000011504858613026049177_);" d="M374.8,147.5L374.8,147.5
			C374.8,147.5,374.8,147.5,374.8,147.5C374.8,147.5,374.8,147.5,374.8,147.5z M374.7,146.6C374.7,146.6,374.7,146.6,374.7,146.6
			C374.7,146.6,374.7,146.6,374.7,146.6L374.7,146.6z M373.1,150.5c0.1,0.1,0.2,0.2,0.2,0.4s0.1,0.2,0.2,0.3
			C373.3,150.9,373.2,150.7,373.1,150.5L373.1,150.5z"/>
		
			<linearGradient id="SVGID_00000139271051852399896830000016865375673909446293_" gradientUnits="userSpaceOnUse" x1="371.3708" y1="276.2879" x2="382.7936" y2="266.035" gradientTransform="matrix(1 0 0 -1 0 420.4)">
			<stop  offset="0" style="stop-color:#00FFAF"/>
			<stop  offset="6.000000e-02" style="stop-color:#00EDAD"/>
			<stop  offset="0.32" style="stop-color:#00A6A7"/>
			<stop  offset="0.55" style="stop-color:#006EA2"/>
			<stop  offset="0.75" style="stop-color:#00469F"/>
			<stop  offset="0.91" style="stop-color:#002D9D"/>
			<stop  offset="1" style="stop-color:#00249C"/>
		</linearGradient>
		<path style="fill:url(#SVGID_00000139271051852399896830000016865375673909446293_);" d="M387.2,145.8c-0.1-1.4-0.6-2.7-1.4-3.8
			c-0.4-0.5-0.8-1-1.3-1.4l0,0c-0.7-0.6-1.6-1.2-2.5-1.5l-0.6-0.2c0,0-0.1,0-0.1,0c-0.2,0-0.3-0.1-0.5-0.1c-0.2,0-0.4-0.1-0.5-0.1
			c0,0-0.1,0-0.1,0c-0.2,0-0.4,0-0.5,0c0,0-0.1,0-0.1,0c-0.4,0-0.8,0-1.2,0.1c-0.2,0-0.4,0.1-0.6,0.1c-0.2,0-0.4,0.1-0.5,0.1
			c0,0-0.1,0-0.1,0c-0.2,0.1-0.4,0.1-0.5,0.2c-0.1,0.1-0.4,0.2-0.6,0.3s-0.3,0.2-0.5,0.3c-0.2,0.1-0.4,0.2-0.6,0.4
			c-0.2,0.1-0.3,0.2-0.4,0.3c-0.1,0.1-0.2,0.2-0.4,0.3c-0.1,0.1-0.2,0.1-0.2,0.2c-0.1,0.1-0.2,0.2-0.3,0.4c-0.2,0.2-0.4,0.5-0.6,0.8
			c-0.1,0.1-0.2,0.3-0.2,0.4c-0.1,0.2-0.3,0.5-0.4,0.7c0,0,0,0.1,0,0.1l-5.2,12.3l2.4,1.5l3-7.2l0,0c0.1,0.1,0.1,0.3,0.3,0.4
			c0.1,0.2,0.3,0.4,0.4,0.7c0,0.1,0.1,0.1,0.1,0.2c0.1,0.1,0.2,0.3,0.3,0.4c0.1,0.1,0.2,0.2,0.3,0.3c0,0,0,0,0,0
			c0.1,0.1,0.2,0.2,0.4,0.3c0.2,0.2,0.5,0.4,0.7,0.6c0.5,0.3,1.1,0.6,1.7,0.8c0.3,0.1,0.7,0.2,1,0.3c0.2,0,0.3,0.1,0.5,0.1
			c0.2,0,0.3,0,0.5,0.1c0.2,0,0.3,0,0.5,0c0.4,0,0.7,0,1.1-0.1c0.2,0,0.4-0.1,0.6-0.1c0.2,0,0.4-0.1,0.6-0.2c0.2,0,0.3-0.1,0.4-0.2
			c0.1-0.1,0.3-0.1,0.4-0.2l0.4-0.2c0.1-0.1,0.3-0.1,0.4-0.2c0.1-0.1,0.3-0.2,0.4-0.2l0.4-0.3l0.4-0.3c0.1-0.1,0.2-0.2,0.3-0.3
			c0.1-0.1,0.3-0.3,0.4-0.5c0.4-0.5,0.7-1,1-1.5c0.4-0.9,0.7-1.8,0.8-2.7c0-0.2,0-0.5,0-0.7C387.3,146.3,387.2,146.1,387.2,145.8z
			 M384.4,147c-0.1,0.5-0.2,0.9-0.3,1.3l0,0.1c0,0.1-0.1,0.2-0.1,0.3c-0.1,0.1-0.1,0.3-0.2,0.4c-0.1,0.1-0.1,0.2-0.2,0.3
			c-0.2,0.3-0.5,0.6-0.8,0.9c-0.2,0.1-0.4,0.3-0.6,0.4c-0.1,0.1-0.2,0.1-0.3,0.2c-0.1,0.1-0.2,0.1-0.4,0.2c-0.1,0-0.2,0.1-0.3,0.1
			c-0.3,0.1-0.6,0.2-0.8,0.2c-0.1,0-0.3,0-0.4,0c-0.1,0-0.2,0-0.3,0c-0.1,0-0.1,0-0.2,0c-0.1,0-0.1,0-0.2,0c-0.2,0-0.3,0-0.5-0.1
			c0,0,0,0,0,0c-0.2,0-0.3-0.1-0.5-0.1c0,0,0,0,0,0c-0.2-0.1-0.5-0.2-0.7-0.3c-0.1-0.1-0.3-0.1-0.4-0.2c-0.1-0.1-0.2-0.1-0.2-0.2
			c-0.2-0.1-0.3-0.2-0.5-0.4c-0.1-0.1-0.1-0.1-0.2-0.2c-0.2-0.2-0.3-0.3-0.4-0.5c-0.2-0.3-0.4-0.7-0.6-1.1c0-0.1-0.1-0.2-0.1-0.3
			c0-0.1-0.1-0.2-0.1-0.3c0,0,0,0,0,0c0,0,0,0,0-0.1c-0.1-0.3-0.1-0.5-0.1-0.8l0,0c0,0,0-0.1,0-0.1l0,0c-0.1-0.5,0-1.1,0.2-1.6
			l0.2-0.4c0-0.1,0.1-0.2,0.1-0.3c0.1-0.2,0.2-0.3,0.3-0.5v0c0.1-0.1,0.1-0.2,0.2-0.3c0.1-0.1,0.2-0.2,0.3-0.3
			c0.2-0.2,0.4-0.4,0.6-0.5c0.3-0.2,0.6-0.4,0.9-0.6c0.5-0.2,1-0.4,1.5-0.4c0.1,0,0.1,0,0.2,0c0.1,0,0.2,0,0.2,0h0.2
			c0.1,0,0.2,0,0.3,0c0.1,0,0.2,0,0.3,0c0.1,0,0.2,0,0.3,0c0.1,0,0.2,0,0.3,0.1c0.1,0,0.2,0.1,0.3,0.1c0.1,0,0.2,0.1,0.3,0.1
			c0.6,0.2,1.2,0.6,1.6,1c0.1,0.1,0.3,0.3,0.4,0.4c0.3,0.4,0.5,0.8,0.7,1.3c0.1,0.1,0.1,0.2,0.1,0.4c0,0.2,0.1,0.3,0.1,0.5
			c0,0.1,0,0.3,0.1,0.4c0,0,0,0.1,0,0.1C384.4,146.3,384.4,146.7,384.4,147L384.4,147z"/>
		
			<linearGradient id="SVGID_00000091007714092756310370000011112367373097409704_" gradientUnits="userSpaceOnUse" x1="378.8683" y1="253.3073" x2="378.9348" y2="253.2483" gradientTransform="matrix(1 0 0 -1 0 420.4)">
			<stop  offset="0" style="stop-color:#00FFAF"/>
			<stop  offset="6.000000e-02" style="stop-color:#00EDAD"/>
			<stop  offset="0.32" style="stop-color:#00A6A7"/>
			<stop  offset="0.55" style="stop-color:#006EA2"/>
			<stop  offset="0.75" style="stop-color:#00469F"/>
			<stop  offset="0.91" style="stop-color:#002D9D"/>
			<stop  offset="1" style="stop-color:#00249C"/>
		</linearGradient>
		<path style="fill:url(#SVGID_00000091007714092756310370000011112367373097409704_);" d="M378.9,167.1L378.9,167.1L378.9,167.1
			L378.9,167.1z"/>
		
			<linearGradient id="SVGID_00000080171354146406803230000000704825388319121068_" gradientUnits="userSpaceOnUse" x1="378.0259" y1="261.1286" x2="360.2336" y2="246.9384" gradientTransform="matrix(1 0 0 -1 0 420.4)">
			<stop  offset="0" style="stop-color:#00FFAF"/>
			<stop  offset="5.999967e-02" style="stop-color:#00EDAD"/>
			<stop  offset="0.3245" style="stop-color:#00A6A7"/>
			<stop  offset="0.55" style="stop-color:#006EA2"/>
			<stop  offset="0.75" style="stop-color:#00469F"/>
			<stop  offset="0.91" style="stop-color:#002D9D"/>
			<stop  offset="1" style="stop-color:#00249C"/>
		</linearGradient>
		<path style="fill:url(#SVGID_00000080171354146406803230000000704825388319121068_);" d="M385.9,171.3c0-0.2,0-0.4-0.1-0.5
			c0,0,0-0.1,0-0.1c0-0.2-0.1-0.4-0.1-0.5c0-0.2-0.1-0.4-0.2-0.6c-0.1-0.2-0.1-0.4-0.2-0.5c-0.1-0.2-0.2-0.4-0.3-0.6
			c-0.1-0.2-0.2-0.3-0.3-0.5c-0.1-0.1-0.2-0.3-0.3-0.4c-0.1-0.1-0.1-0.2-0.2-0.3c-0.1-0.1-0.2-0.2-0.3-0.4c-0.2-0.2-0.4-0.5-0.7-0.7
			c-0.1-0.1-0.2-0.2-0.4-0.3c-0.2-0.2-0.4-0.3-0.7-0.5l-0.1-0.1l-9.2-5.6l-3.5-2.1l-2.4-1.5l0,0c0,0-2.9-1.8-3-1.8
			c-0.5-0.3-1.1-0.6-1.7-0.8c-0.3-0.1-0.7-0.2-1-0.3c-0.2,0-0.3-0.1-0.5-0.1c-0.2,0-0.3,0-0.5,0c-0.2,0-0.3,0-0.5,0
			c-0.4,0-0.7,0-1.1,0.1c-0.2,0-0.4,0.1-0.6,0.1c-0.2,0-0.4,0.1-0.6,0.2c-0.2,0-0.3,0.1-0.5,0.2c-0.1,0.1-0.3,0.1-0.4,0.2l-0.4,0.2
			c-0.1,0.1-0.3,0.1-0.4,0.2c-0.1,0.1-0.3,0.2-0.4,0.2c-0.1,0.1-0.2,0.2-0.4,0.3l-0.4,0.3c-0.1,0.1-0.2,0.2-0.3,0.3
			s-0.3,0.3-0.4,0.5c-0.4,0.5-0.7,1-1,1.5c-0.4,0.9-0.7,1.8-0.8,2.7c0,0.2,0,0.5,0,0.7c0,0.2,0,0.5,0,0.7c0.2,2,1.1,3.8,2.6,5.2l0,0
			c0.7,0.7,1.6,1.2,2.5,1.5c0.2,0.1,0.4,0.1,0.5,0.2c0,0,0.1,0,0.1,0c0.2,0,0.3,0.1,0.5,0.1c0.2,0,0.4,0.1,0.5,0.1c0,0,0.1,0,0.1,0
			c0.2,0,0.4,0,0.5,0c0,0,0.1,0,0.1,0c0.4,0,0.8,0,1.2-0.1c0.2,0,0.4-0.1,0.6-0.1c0.2,0,0.3-0.1,0.5-0.1c0,0,0.1,0,0.1,0
			c0.2-0.1,0.4-0.1,0.5-0.2c0.2-0.1,0.4-0.2,0.6-0.3c0.2-0.1,0.3-0.2,0.5-0.3c0.2-0.1,0.4-0.2,0.6-0.4c0.1-0.1,0.3-0.2,0.4-0.3
			c0.1-0.1,0.2-0.2,0.4-0.3c0.1-0.1,0.2-0.1,0.2-0.2c0.1-0.1,0.2-0.2,0.3-0.4c0.2-0.2,0.4-0.5,0.6-0.7c0.1-0.1,0.2-0.3,0.2-0.4
			c0.1-0.2,0.3-0.5,0.4-0.7c0,0,0-0.1,0-0.1l1.3-3.1l-2.4-1.4l0,0l0,0l-1.4,3.4c0,0.1-0.1,0.2-0.1,0.3c-0.1,0.2-0.2,0.3-0.3,0.5l0,0
			c-0.1,0.1-0.1,0.2-0.2,0.3c-0.1,0.1-0.2,0.2-0.3,0.3c-0.2,0.2-0.4,0.4-0.5,0.5c-0.3,0.2-0.6,0.4-0.9,0.6c-0.5,0.2-1,0.4-1.5,0.4
			l-0.2,0c-0.1,0-0.2,0-0.2,0h-0.2c-0.1,0-0.2,0-0.3,0c-0.1,0-0.2,0-0.3,0s-0.2,0-0.3,0c-0.1,0-0.2,0-0.3-0.1
			c-0.1,0-0.2-0.1-0.3-0.1c-0.1,0-0.2-0.1-0.3-0.1c-0.6-0.2-1.2-0.6-1.6-1c-0.1-0.1-0.3-0.3-0.4-0.4c-0.3-0.4-0.5-0.8-0.7-1.3
			c-0.1-0.1-0.1-0.2-0.1-0.4c0-0.2-0.1-0.3-0.1-0.5c0-0.1,0-0.3-0.1-0.4c0,0,0-0.1,0-0.1c0-0.3,0-0.6,0-1c0-0.5,0.2-0.9,0.3-1.3
			l0-0.1c0-0.1,0.1-0.2,0.1-0.3c0.1-0.1,0.1-0.3,0.2-0.4c0.1-0.1,0.1-0.2,0.2-0.3c0.2-0.3,0.5-0.6,0.8-0.9c0.2-0.1,0.4-0.3,0.6-0.4
			c0.1-0.1,0.2-0.1,0.3-0.2c0.1-0.1,0.2-0.1,0.4-0.2c0.1,0,0.2-0.1,0.3-0.1c0.3-0.1,0.6-0.2,0.8-0.2c0.1,0,0.3,0,0.4,0
			c0.1,0,0.2,0,0.3,0c0.1,0,0.1,0,0.2,0c0.1,0,0.1,0,0.2,0c0.2,0,0.3,0,0.5,0.1c0,0,0,0,0,0c0.2,0,0.3,0.1,0.5,0.1c0,0,0,0,0,0
			c0.2,0.1,0.4,0.1,0.6,0.2l0.1,0.1c0.1,0.1,6.3,3.8,6.3,3.8l7.2,4.5l-0.5,0.2L375,165l-0.2,0.1l-0.2,0.1c-0.1,0.1-0.2,0.1-0.3,0.2
			c-0.1,0.1-0.3,0.2-0.4,0.3s-0.2,0.2-0.4,0.3c0,0,0,0,0,0c-0.1,0.1-0.2,0.2-0.4,0.3c-0.2,0.2-0.5,0.4-0.7,0.7
			c-0.4,0.5-0.8,1-1.1,1.6c-0.2,0.3-0.3,0.6-0.4,0.9c-0.1,0.2-0.1,0.3-0.2,0.5c0,0.2-0.1,0.3-0.1,0.5c0,0.2-0.1,0.3-0.1,0.5
			c-0.1,0.4-0.1,0.7-0.1,1.1c0,0.2,0,0.4,0,0.6c0,0.2,0,0.4,0.1,0.6c0,0.2,0.1,0.3,0.1,0.5c0,0.2,0.1,0.3,0.1,0.4
			c0,0.1,0.1,0.3,0.1,0.4c0,0.1,0.1,0.3,0.2,0.4c0.1,0.1,0.1,0.3,0.2,0.4l0.2,0.4l0.2,0.4c0.1,0.1,0.2,0.3,0.3,0.4s0.3,0.3,0.4,0.5
			c0.4,0.5,0.8,0.9,1.3,1.2c0.8,0.6,1.7,1,2.6,1.2c0.2,0.1,0.5,0.1,0.7,0.1c0.2,0,0.5,0.1,0.7,0.1c1.4,0.1,2.7-0.2,3.9-0.8
			c0.6-0.3,1.1-0.6,1.6-1l0,0c0.7-0.6,1.4-1.4,1.8-2.3c0.1-0.2,0.2-0.4,0.2-0.5c0,0,0-0.1,0-0.1c0.1-0.2,0.1-0.3,0.2-0.5
			s0.1-0.3,0.2-0.5c0,0,0-0.1,0-0.1c0-0.2,0.1-0.3,0.1-0.5c0,0,0-0.1,0-0.1c0.1-0.4,0.1-0.8,0.1-1.2
			C386,171.7,386,171.5,385.9,171.3z M383.1,172.2c0,0.1,0,0.2,0,0.2c0,0.1,0,0.2,0,0.2c0,0.1,0,0.2,0,0.3c0,0.1-0.1,0.2-0.1,0.3
			c0,0.1-0.1,0.2-0.1,0.3c0,0.1-0.1,0.1-0.1,0.2c0,0.1-0.1,0.2-0.1,0.3c0,0.1-0.1,0.2-0.1,0.3c-0.3,0.6-0.7,1.1-1.3,1.4
			c-0.1,0.1-0.3,0.2-0.5,0.3c-0.4,0.2-0.9,0.4-1.3,0.5c-0.1,0-0.2,0.1-0.4,0.1c-0.2,0-0.3,0-0.5,0.1c-0.1,0-0.3,0-0.4,0
			c0,0-0.1,0-0.1,0c-0.3,0-0.6-0.1-0.9-0.1c-0.4-0.1-0.9-0.3-1.3-0.5l-0.1-0.1c-0.1-0.1-0.2-0.1-0.3-0.2c-0.1-0.1-0.2-0.2-0.3-0.3
			c-0.1-0.1-0.2-0.1-0.3-0.2c-0.3-0.3-0.6-0.6-0.8-1c-0.1-0.2-0.2-0.4-0.3-0.6c-0.1-0.1-0.1-0.2-0.1-0.4c0-0.1-0.1-0.2-0.1-0.4
			c0-0.1-0.1-0.2-0.1-0.3c-0.1-0.3-0.1-0.6-0.1-0.9c0-0.1,0-0.3,0-0.4c0-0.1,0-0.2,0-0.3c0-0.1,0-0.1,0-0.2c0-0.1,0-0.1,0-0.2
			c0-0.2,0.1-0.3,0.2-0.5c0,0,0,0,0,0c0.1-0.2,0.1-0.3,0.2-0.5c0,0,0,0,0,0c0.1-0.2,0.2-0.4,0.4-0.6c0.1-0.1,0.2-0.2,0.3-0.4
			c0.1-0.1,0.1-0.1,0.2-0.2c0.1-0.1,0.3-0.3,0.5-0.4c0.1-0.1,0.2-0.1,0.2-0.2c0.2-0.1,0.4-0.2,0.6-0.3c0.4-0.2,0.8-0.3,1.2-0.4
			c0.1,0,0.2,0,0.3,0c0.1,0,0.3,0,0.4,0h0.1c0.2,0,0.5,0,0.7,0h0.1c0.6,0,1.1,0.2,1.6,0.5l0.3,0.2c0.1,0.1,0.2,0.1,0.3,0.2
			c0.2,0.1,0.3,0.2,0.4,0.3h0c0.1,0.1,0.2,0.2,0.2,0.2c0.1,0.1,0.2,0.2,0.3,0.3c0.2,0.2,0.3,0.4,0.4,0.6c0.2,0.3,0.3,0.7,0.5,1
			c0.2,0.5,0.2,1,0.2,1.5C383.1,172.1,383.1,172.2,383.1,172.2z"/>
		
			<linearGradient id="SVGID_00000074438054141754925770000011408198973749728388_" gradientUnits="userSpaceOnUse" x1="366.7549" y1="281.2645" x2="412.7492" y2="239.9834" gradientTransform="matrix(1 0 0 -1 0 420.4)">
			<stop  offset="0" style="stop-color:#00FFAF"/>
			<stop  offset="6.000000e-02" style="stop-color:#00EDAD"/>
			<stop  offset="0.32" style="stop-color:#00A6A7"/>
			<stop  offset="0.55" style="stop-color:#006EA2"/>
			<stop  offset="0.75" style="stop-color:#00469F"/>
			<stop  offset="0.91" style="stop-color:#002D9D"/>
			<stop  offset="1" style="stop-color:#00249C"/>
		</linearGradient>
		<path style="fill:url(#SVGID_00000074438054141754925770000011408198973749728388_);" d="M381.8,152.6
			C381.8,152.6,381.8,152.7,381.8,152.6L381.8,152.6L381.8,152.6z"/>
	</g>
	<path d="M405.6,162.4c-4.3,0-8.5-3.2-8.5-8.3c0-5.1,4.1-8.2,8.5-8.2s8.5,3.2,8.5,8.2C414.1,159.1,410,162.4,405.6,162.4z
		 M405.6,149.3c-2.7,0.2-4.7,2.5-4.6,5.2c0.2,2.5,2.1,4.4,4.6,4.6c2.7-0.2,4.7-2.5,4.6-5.2C410,151.4,408.1,149.4,405.6,149.3z"/>
	<path d="M422.1,155.8h-2.3v6.2h-3.7v-15.8h6c2.7,0,5.1,1.8,5.1,4.8S424.9,155.8,422.1,155.8z M421.6,149.3h-1.8v3.5h1.8
		c1,0,1.9-0.5,1.9-1.8C423.5,149.9,422.6,149.3,421.6,149.3L421.6,149.3z"/>
	<path d="M429.2,162v-15.8h9v3.1h-5.3v3.1h4.4v3.2h-4.4v3.2h6v3.1H429.2z"/>
	<path d="M453.2,162.2l-6.2-6.8c-1-1.1-2.1-2.4-3-3.5l0,0c0,1.1,0.1,2.3,0.1,3.3v6.7h-3.7v-15.7h3.1l5.4,5.9c0.8,0.8,1.9,2.1,2.6,3
		h0c0-1-0.1-1.9-0.1-2.9v-6h3.7v15.9H453.2z"/>
	<path d="M457.2,162v-15.8h3.8v12.6h5.9v3.1L457.2,162z"/>
	<path d="M468.6,162v-15.8h3.8V162H468.6z"/>
	<path d="M488.1,162.2l-6.2-6.8c-1-1.1-2.1-2.4-3-3.5l0,0c0,1.1,0.1,2.3,0.1,3.3v6.7h-3.7v-15.7h3.1l5.4,5.9c0.8,0.8,1.9,2.1,2.6,3
		h0c0-1-0.1-1.9-0.1-2.9v-6h3.7v15.9H488.1z"/>
	<path d="M501,162l-4.6-6.4l0,0v6.4h-3.9v-15.8h3.8v6.7l0,0l4.8-6.7h4.1l-5.5,7.8l5.8,8H501z"/>
	<path d="M397.4,167.4h3.8v0.7h-1.5v4.7h-0.9v-4.7h-1.5V167.4z"/>
	<path d="M402.1,167.1h0.9v2c0.3-0.4,0.8-0.6,1.3-0.6c1,0,1.7,0.6,1.7,1.8v2.5h-0.9v-2.4c0-0.8-0.4-1.2-1.1-1.2
		c-0.6,0-1.1,0.4-1.1,1c0,0.1,0,0.1,0,0.2v2.4h-0.9V167.1z"/>
	<path d="M409,172.9c-1.2,0-2.1-0.9-2.2-2c0-0.1,0-0.1,0-0.2c-0.1-1.1,0.8-2.1,1.9-2.2c0.1,0,0.2,0,0.3,0c1.1,0,2.1,0.8,2.1,1.9
		c0,0.1,0,0.1,0,0.2c0,0.1,0,0.3,0,0.4h-3.3c0,0.7,0.6,1.2,1.2,1.1c0,0,0,0,0,0c0.4,0,0.8-0.2,1-0.6h1
		C410.7,172.4,409.9,173,409,172.9z M407.8,170.3h2.4c0-0.6-0.5-1.1-1.1-1.1c0,0,0,0-0.1,0C408.4,169.2,407.9,169.7,407.8,170.3z"/>
	<path d="M420.2,170.4c0-0.8-0.4-1.2-1.1-1.2c-0.6,0-1.1,0.4-1.1,1c0,0.1,0,0.1,0,0.2v2.4h-0.9v-2.4c0-0.8-0.4-1.2-1.1-1.2
		c-0.6,0-1.1,0.4-1.1,1c0,0.1,0,0.1,0,0.2v2.4h-0.9v-4.3h0.9v0.5c0.3-0.4,0.8-0.6,1.3-0.6c0.6,0,1.2,0.3,1.6,0.9
		c0.5-0.8,1.6-1.1,2.4-0.6c0.5,0.3,0.9,0.9,0.9,1.6v2.5h-0.9V170.4z"/>
	<path d="M424.1,172.9c-1.2,0-2.1-0.9-2.2-2c0-0.1,0-0.1,0-0.2c0-1.2,1-2.2,2.2-2.2s2.2,1,2.2,2.2c0,1.2-0.9,2.2-2.1,2.2
		C424.2,172.9,424.1,172.9,424.1,172.9z M424.1,172.1c0.7,0,1.3-0.6,1.3-1.3c0,0,0-0.1,0-0.1c0.1-0.7-0.4-1.4-1.1-1.4
		c-0.1,0-0.1,0-0.2,0c-0.7,0-1.3,0.5-1.3,1.5S423.4,172.1,424.1,172.1z"/>
	<path d="M431.1,172.9h-0.9v-0.5c-0.3,0.4-0.8,0.6-1.3,0.6c-0.9,0-1.7-0.7-1.8-1.6c0-0.1,0-0.2,0-0.2v-2.5h0.9v2.4
		c0,0.8,0.4,1.2,1.1,1.2c0.6,0,1.1-0.4,1.1-1c0-0.1,0-0.1,0-0.2v-2.4h0.9V172.9z"/>
	<path d="M432.4,169.3h-0.5v-0.7h0.5v-1.1h0.9v1.1h1v0.7h-1v2.4c0,0.3,0.1,0.5,0.5,0.5h0.5v0.7h-0.7c-0.8,0-1.2-0.3-1.2-1.2V169.3z"
		/>
	<path d="M435.2,167.1h0.9v2c0.3-0.4,0.8-0.6,1.3-0.6c1,0,1.7,0.6,1.7,1.8v2.5h-0.9v-2.4c0-0.8-0.4-1.2-1.1-1.2
		c-0.6,0-1.1,0.4-1.1,1c0,0.1,0,0.1,0,0.2v2.4h-0.9V167.1z"/>
	<path d="M444.7,168.5c1.1,0,2,0.9,2,2.1c0,0,0,0.1,0,0.1c0,1.3-0.9,2.2-2,2.2c-0.6,0-1.1-0.2-1.5-0.7v2.7h-0.9v-6.4h0.9v0.6
		C443.6,168.7,444.1,168.5,444.7,168.5z M444.5,169.2c-0.8,0-1.5,0.7-1.5,1.5c0,0.8,0.7,1.5,1.5,1.5c0.7,0,1.3-0.6,1.3-1.4
		c0,0,0,0,0-0.1c0.1-0.7-0.5-1.4-1.2-1.4C444.6,169.2,444.5,169.2,444.5,169.2z"/>
	<path d="M451.5,172.9h-0.9v-0.5c-0.3,0.4-0.8,0.6-1.3,0.6c-0.9,0.1-1.7-0.7-1.8-1.6c0-0.1,0-0.2,0-0.3v-2.5h0.9v2.4
		c0,0.8,0.4,1.2,1.1,1.2c0.6,0,1.1-0.4,1.1-1c0-0.1,0-0.1,0-0.2v-2.4h0.9L451.5,172.9z"/>
	<path d="M455.1,168.5c1.1,0,2,0.9,2,2.1c0,0.1,0,0.1,0,0.2c0,1.3-0.9,2.2-2,2.2c-0.6,0-1.1-0.2-1.5-0.7v0.6h-0.9V167h0.9v2.1
		C454,168.7,454.5,168.4,455.1,168.5z M454.9,169.2c-0.8,0-1.5,0.7-1.5,1.5c0,0.8,0.7,1.5,1.5,1.5c0.7,0,1.3-0.6,1.3-1.4
		c0,0,0,0,0-0.1c0.1-0.7-0.5-1.4-1.2-1.4C455,169.2,454.9,169.2,454.9,169.2z"/>
	<path d="M458,167.1h0.9v5.8H458V167.1z"/>
	<path d="M460,167.4c0-0.3,0.3-0.6,0.6-0.6c0.3,0,0.6,0.3,0.6,0.6c0,0,0,0,0,0c0,0.3-0.3,0.6-0.6,0.6C460.2,168,460,167.7,460,167.4
		C460,167.4,460,167.4,460,167.4z M460.1,168.5h0.9v4.3h-0.9V168.5z"/>
	<path d="M464,168.5c0.9-0.1,1.8,0.5,2,1.5h-1c-0.1-0.4-0.6-0.7-1-0.7c-0.7,0-1.2,0.5-1.2,1.5s0.5,1.5,1.2,1.5c0.5,0,0.9-0.2,1-0.7
		h1c-0.2,0.9-1.1,1.5-2,1.5c-1.2-0.1-2.2-1.1-2.1-2.3C461.9,169.5,462.8,168.5,464,168.5L464,168.5z"/>
	<path d="M466.7,167.4c0-0.3,0.3-0.6,0.6-0.6c0.3,0,0.6,0.3,0.6,0.6c0,0.3-0.3,0.6-0.6,0.6C467,168,466.7,167.7,466.7,167.4
		C466.7,167.4,466.7,167.4,466.7,167.4z M466.8,168.5h0.9v4.3h-0.9V168.5z"/>
	<path d="M469.1,169.3h-0.5v-0.7h0.5v-1.1h0.9v1.1h1v0.7h-1v2.4c0,0.3,0.1,0.5,0.5,0.5h0.5v0.7h-0.7c-0.8,0-1.2-0.3-1.2-1.2
		L469.1,169.3z"/>
	<path d="M474.8,168.5h0.9l-2.7,6.3h-0.9l0.9-2.1l-1.7-4.2h1l1.2,3.3L474.8,168.5z"/>
	<path d="M484.5,170.4c0-0.8-0.4-1.2-1.1-1.2s-1.1,0.4-1.1,1.2v2.4h-0.9v-2.4c0-0.8-0.4-1.2-1.1-1.2c-0.6,0-1.1,0.4-1.1,1
		c0,0.1,0,0.1,0,0.2v2.4h-0.9v-4.3h0.9v0.5c0.3-0.4,0.8-0.6,1.3-0.6c0.6,0,1.2,0.3,1.6,0.9c0.5-0.8,1.6-1.1,2.4-0.6
		c0.5,0.3,0.9,0.9,0.9,1.6v2.5h-0.9V170.4z"/>
	<path d="M488.4,172.9c-1.2,0-2.1-0.9-2.2-2c0-0.1,0-0.1,0-0.2c-0.1-1.1,0.8-2.1,1.9-2.2c0.1,0,0.2,0,0.3,0c1.1,0,2.1,0.8,2.1,1.9
		c0,0.1,0,0.1,0,0.2c0,0.1,0,0.3,0,0.4h-3.3c0,0.7,0.6,1.2,1.2,1.1c0.4,0,0.8-0.2,1-0.6h1C490.1,172.4,489.3,173,488.4,172.9z
		 M487.2,170.3h2.4c0-0.6-0.5-1.1-1.1-1.1c0,0,0,0-0.1,0C487.8,169.2,487.2,169.7,487.2,170.3z"/>
	<path d="M493.1,168.5c0.6,0,1.1,0.2,1.5,0.7v-2.1h0.9v5.8h-0.9v-0.6c-0.4,0.5-0.9,0.7-1.5,0.7c-1.2,0-2.1-1-2-2.1c0,0,0-0.1,0-0.1
		c-0.1-1.1,0.7-2.1,1.9-2.2C493,168.5,493.1,168.5,493.1,168.5z M493.3,169.2c-0.7,0-1.3,0.6-1.3,1.3c0,0,0,0.1,0,0.1
		c-0.1,0.7,0.5,1.4,1.3,1.5c0,0,0,0,0.1,0c0.8,0,1.5-0.7,1.5-1.5C494.8,169.9,494.1,169.2,493.3,169.2z"/>
	<path d="M496.6,167.4c0-0.3,0.3-0.6,0.6-0.6s0.6,0.3,0.6,0.6c0,0.3-0.3,0.6-0.6,0.6l0,0C496.8,168,496.6,167.7,496.6,167.4
		C496.6,167.4,496.6,167.4,496.6,167.4z M496.7,168.5h0.9v4.3h-0.9V168.5z"/>
	<path d="M500.5,168.5c0.6,0,1.1,0.2,1.5,0.7v-0.6h0.9v4.3H502v-0.6c-0.4,0.5-0.9,0.7-1.5,0.7c-1.1,0-2-0.9-2-2.2
		c-0.1-1.1,0.8-2.1,1.9-2.2C500.4,168.5,500.5,168.5,500.5,168.5z M500.7,169.2c-0.7,0-1.3,0.6-1.3,1.3c0,0,0,0.1,0,0.1
		c-0.1,0.7,0.5,1.4,1.3,1.5c0,0,0,0,0.1,0c0.8,0,1.5-0.7,1.5-1.5C502.2,169.9,501.5,169.2,500.7,169.2z"/>
	<!-- <path d="M504.8,172.9c-0.3,0-0.6-0.3-0.6-0.6s0.3-0.6,0.6-0.6c0.3,0,0.6,0.3,0.6,0.6c0,0,0,0,0,0
		C505.3,172.6,505.1,172.9,504.8,172.9C504.8,172.9,504.8,172.9,504.8,172.9z M504.3,167.4h1l-0.1,3.8h-0.7L504.3,167.4z"/> -->
</g>
</svg>
