<svg xmlns="http://www.w3.org/2000/svg" xmlns:xlink="http://www.w3.org/1999/xlink" viewBox="0 0 708.39 817.27"><defs><style>.cls-1{fill:none;}.cls-2{fill:#e5e5e5;}.cls-3{fill:rgb(0,255,175);}.cls-4{clip-path:url(#clip-path);}.cls-5{fill:#fff;}.cls-6{clip-path:url(#clip-path-2);}.cls-7{clip-path:url(#clip-path-3);}.cls-8{clip-path:url(#clip-path-4);}.cls-9{fill:#3a3a3a;}.cls-10{fill:#3a3535;}.cls-11{fill:#282525;}.cls-12{isolation:isolate;opacity:0.3;}.cls-13{fill:#f5e2d3;}.cls-14{fill:#d69480;}.cls-15{fill:#111f23;}.cls-16{fill:#1a2e35;}.cls-17{fill:rgb(0,36,156);}.cls-18{fill:rgb(25,34,61);}.cls-19{fill:#1d1634;}.cls-20{fill:#b77e70;}.cls-21{fill:#eb9e94;}</style><clipPath id="clip-path"><line class="cls-1" x1="481.67" y1="82.54" x2="579.15" y2="82.54"/></clipPath><clipPath id="clip-path-2"><line class="cls-1" x1="437.35" y1="102.84" x2="579.15" y2="102.84"/></clipPath><clipPath id="clip-path-3"><line class="cls-1" x1="437.35" y1="123.14" x2="579.15" y2="123.14"/></clipPath><clipPath id="clip-path-4"><line class="cls-1" x1="437.35" y1="143.45" x2="523.29" y2="143.45"/></clipPath></defs><g id="Layer_2" data-name="Layer 2"><g id="Layer_1-2" data-name="Layer 1"><g id="Group_404" data-name="Group 404"><rect id="Rectangle_307" data-name="Rectangle 307" class="cls-2" x="260.29" y="213.84" width="108.62" height="205.22"/><rect id="Rectangle_308" data-name="Rectangle 308" class="cls-2" x="260.29" width="108.62" height="205.22"/><rect id="Rectangle_309" data-name="Rectangle 309" class="cls-2" x="377.53" y="213.84" width="108.62" height="205.22"/><rect id="Rectangle_310" data-name="Rectangle 310" class="cls-2" x="377.53" width="108.62" height="205.22"/><rect id="Rectangle_311" data-name="Rectangle 311" class="cls-2" x="494.78" y="213.84" width="108.62" height="205.22"/><rect id="Rectangle_312" data-name="Rectangle 312" class="cls-2" x="494.78" width="108.62" height="205.22"/></g><g id="Group_421" data-name="Group 421"><path id="Path_1441" data-name="Path 1441" d="M428.32,53.94H591.07A19.22,19.22,0,0,1,610.3,73.16h0v76.49a19.23,19.23,0,0,1-19.23,19.22H472.19l-21.92,20v-20H428.32a19.23,19.23,0,0,1-19.23-19.22h0V73.16A19.23,19.23,0,0,1,428.32,53.94Z"/><g id="Group_420" data-name="Group 420"><path id="Path_1442" data-name="Path 1442" class="cls-3" d="M544.26,143.41a4.23,4.23,0,0,1-4.23,4.23h0a4.23,4.23,0,0,1-4.23-4.22h0a4.23,4.23,0,0,1,4.23-4.24h0A4.23,4.23,0,0,1,544.26,143.41Z"/><path id="Path_1443" data-name="Path 1443" class="cls-3" d="M561.81,143.41a4.23,4.23,0,0,1-4.23,4.23h0a4.22,4.22,0,0,1-4.23-4.22h0a4.23,4.23,0,0,1,4.23-4.24h0A4.24,4.24,0,0,1,561.81,143.41Z"/><path id="Path_1444" data-name="Path 1444" class="cls-3" d="M579.36,143.41a4.23,4.23,0,0,1-4.23,4.23h0a4.22,4.22,0,0,1-4.23-4.22h0a4.23,4.23,0,0,1,4.23-4.24h0a4.23,4.23,0,0,1,4.23,4.23Z"/><g id="Group_410" data-name="Group 410"><g id="Group_409" data-name="Group 409"><line id="Line_51-2" data-name="Line 51-2" class="cls-1" x1="481.67" y1="82.54" x2="579.15" y2="82.54"/></g><path id="Path_1495" data-name="Path 1495" class="cls-5" d="M579.15,86.79H481.67a4.25,4.25,0,0,1,0-8.5h97.49a4.24,4.24,0,0,1,4.25,4.24h0a4.26,4.26,0,0,1-4.25,4.26Z"/></g><g id="Group_413" data-name="Group 413"><g id="Group_412" data-name="Group 412"><line id="Line_53" data-name="Line 53" class="cls-1" x1="437.35" y1="102.84" x2="579.15" y2="102.84"/></g><path id="Path_1546" data-name="Path 1546" class="cls-5" d="M579.15,107.09H437.35a4.25,4.25,0,0,1,0-8.5h141.8a4.26,4.26,0,0,1,4.26,4.24h0a4.25,4.25,0,0,1-4.25,4.25Z"/></g><g id="Group_416" data-name="Group 416"><g id="Group_415" data-name="Group 415"><line id="Line_55" data-name="Line 55" class="cls-1" x1="437.35" y1="123.14" x2="579.15" y2="123.14"/></g><path id="Path_1597" data-name="Path 1597" class="cls-5" d="M579.15,127.39H437.35a4.25,4.25,0,0,1,0-8.5h141.8a4.26,4.26,0,0,1,4.26,4.25h0a4.25,4.25,0,0,1-4.25,4.25Z"/></g><g id="Group_419" data-name="Group 419"><g id="Group_418" data-name="Group 418"><line id="Line_57" data-name="Line 57" class="cls-1" x1="437.35" y1="143.45" x2="523.29" y2="143.45"/></g><path id="Path_1648" data-name="Path 1648" class="cls-5" d="M523.29,147.7H437.35a4.25,4.25,0,0,1-4.25-4.25h0a4.25,4.25,0,0,1,4.25-4.25h85.94a4.26,4.26,0,0,1,4.26,4.25h0a4.25,4.25,0,0,1-4.25,4.25h0Z"/></g></g></g><g id="Group_443" data-name="Group 443"><rect id="Rectangle_313" data-name="Rectangle 313" class="cls-3" x="568.47" y="201.75" width="49.86" height="32.76" rx="7.82"/><path id="Path_1705" data-name="Path 1705" class="cls-5" d="M603.5,218l12.16-12.15a1.06,1.06,0,0,0,0-1.51,1.07,1.07,0,0,0-1.52,0h0L601.42,217a1.16,1.16,0,0,0-.21.16,1.06,1.06,0,0,0-.16.21l-5.29,5.29a3.33,3.33,0,0,1-4.71,0l-18.39-18.38a1.06,1.06,0,0,0-1.51,0h0a1.06,1.06,0,0,0,0,1.51L583.3,218l-12.15,12.16a1.07,1.07,0,0,0,1.51,1.51l12.15-12.15,4.73,4.72a5.47,5.47,0,0,0,7.73,0L602,219.5l12.15,12.15a1.08,1.08,0,0,0,1.56-1.48l0,0Z"/></g><g id="Group_422" data-name="Group 422"><path id="Path_1649" data-name="Path 1649" class="cls-2" d="M139.82,344.91l-17.1-90.13a2.51,2.51,0,0,0-2.49-2.07H37.82a2.54,2.54,0,0,0-2.5,2.07L18.24,344.91a2.54,2.54,0,0,0,2,3,2.4,2.4,0,0,0,.46.05H137.32a2.54,2.54,0,0,0,2.54-2.54,2.61,2.61,0,0,0-.05-.48Z"/><path id="Path_1650" data-name="Path 1650" class="cls-9" d="M83.82,372.61c-1-9.92,5.3-19.18,7.14-21.63a.39.39,0,0,0-.08-.55.4.4,0,0,0-.23-.08H67.41a.4.4,0,0,0-.4.39h0a.41.41,0,0,0,.08.24c1.84,2.45,8.19,11.7,7.14,21.63-2.13,20-18.93,37.8-18.93,54,0,7.55,4,19.35,5.29,23.4a1.6,1.6,0,0,0,1.52,1.11H95.94A1.59,1.59,0,0,0,97.45,450c1.28-4.05,5.3-15.85,5.3-23.4C102.75,410.41,86,392.65,83.82,372.61Z"/><path id="Path_1651" data-name="Path 1651" class="cls-10" d="M135.79,411.29a10.39,10.39,0,0,0-7.6-5.35,12.51,12.51,0,0,0-5.77.22c0-2,.06-4,0-6.07a.56.56,0,0,0-.56-.56h-42a.56.56,0,0,0-.56.56c-.33,21.46,4.17,43.05,8,50.46a1.11,1.11,0,0,0,1,.6h25.23a1.1,1.1,0,0,0,1-.6,50.42,50.42,0,0,0,3.38-9.77c5.3-1.92,14.23-7.51,18.25-16.89A15.34,15.34,0,0,0,135.79,411.29Zm-3.48,11c-2.86,6.69-8.87,11.28-13.31,13.54a166.63,166.63,0,0,0,3.24-25.18,7.92,7.92,0,0,1,5.22-.64,6.32,6.32,0,0,1,4.71,3.25,11.14,11.14,0,0,1,.14,9Z"/></g><g id="Group_423" data-name="Group 423"><path id="Path_1652" data-name="Path 1652" class="cls-10" d="M635.28,394.32c-6.23-9.3-1.54-25.79,13.39-33.39,3.51-1.79,8.25-5.2,9.83-9.92.45-1.37,0-2.58.4-2.56s.56,3,.6,3.76a53.25,53.25,0,0,1-1.66,14c-1.9,9.55,1.2,22.14-7.47,30.68C644.12,403,638.38,398.94,635.28,394.32Z"/><path id="Path_1653" data-name="Path 1653" class="cls-10" d="M621.91,357c.33,0-.4.46-.06,1.53a8.7,8.7,0,0,0,2.5,3.26c2.75,3,3.36,6.87,3.16,10.82-.14,2.89-2.34,7.07-4.4,5.62-9.88-6.93-3.05-16.78-2.24-18.51C621.84,357.57,621.49,356.92,621.91,357Z"/><path id="Path_1654" data-name="Path 1654" d="M630.92,409.52c4.64-4.58-1.48-30.39-22.41-43.12-2.16-1.32-5.7-3.81-6.37-3.3-.33.26,1.94.67,1.26,2.86-7.54,24.05,17.71,24.05,19,39.42C622.79,409.92,628.31,412.1,630.92,409.52Z"/><path id="Path_1655" data-name="Path 1655" d="M682.6,368.86c-1.38,1.28-5.62.78-9.59,2.52-3.71,1.62-5.3,5.31-6.94,10.61-2.82,9.11-10.84,23-22.08,23.12-18.18.16-1.73-20.5,14.53-31.68,7-4.82,16.67-4.91,21-5C682.09,368.43,683.24,368.26,682.6,368.86Z"/><path id="Path_1656" data-name="Path 1656" d="M633.78,348.6c1.38-.67-.47,4.83,6.47,11.88,14.79,15,11.74,45.39-3.76,46.92-6.17.61-29.07-23.91-4.36-52.63C635,351.38,633.26,348.85,633.78,348.6Z"/><path id="Path_1657" data-name="Path 1657" class="cls-10" d="M650.32,371.5c.09-1.06,3.78,9.83,4.21,15.15,1,11.55-.54,17.9-5,22.71-5.22,5.6-14.08,7.89-19.33,2.86-4.71-4.5-5-12.49-.91-18.05,2.9-4,3.89-4.13,11.88-12.63C646.09,376.28,649.91,376.39,650.32,371.5Z"/><path id="Path_1658" data-name="Path 1658" class="cls-11" d="M660.93,407.54a2.79,2.79,0,0,0-2.8-2.57H618.69a2.79,2.79,0,0,0-2.8,2.57l-1.75,19.77v2.83c0,10.76,8.72,20.47,19.49,20.47h9.56c10.76,0,19.49-9.71,19.49-20.47v-2.83Z"/></g><ellipse id="Ellipse_52" data-name="Ellipse 52" class="cls-12" cx="93.37" cy="762.63" rx="60.62" ry="17.13"/><ellipse id="Ellipse_53" data-name="Ellipse 53" class="cls-12" cx="639.12" cy="768.86" rx="38.57" ry="10.9"/><ellipse id="Ellipse_54" data-name="Ellipse 54" class="cls-12" cx="346.11" cy="752.61" rx="252.08" ry="54.65"/><g id="Group_405" data-name="Group 405"><path id="Path_1433" data-name="Path 1433" class="cls-13" d="M388.58,701.19l-92.77,12-93.13-13.57L197.59,702l-4,8.57,102.25,24.29L398.06,710.6l-4-7.4Z"/><path id="Path_1434" data-name="Path 1434" d="M394,703.18l-98.21,13L197.62,702l-4,8.55,102.24,24.34,102.24-24.34Z"/><path id="Path_1435" data-name="Path 1435" class="cls-13" d="M404.05,752.4l-96.93-39.72a28.59,28.59,0,0,0-22.62,0L187,752.39l-1.87,19.26,5.69,1.65,99.13-35.79a17.48,17.48,0,0,1,11.81,0l99.06,35.72,5.76-1.58Z"/><path id="Path_1436" data-name="Path 1436" class="cls-11" d="M398.81,755l-92.24-37.79a27.21,27.21,0,0,0-21.53,0L192.24,755l-1.78,18.32,99.74-35.85a16.56,16.56,0,0,1,11.24,0l99.75,35.85Z"/><path id="Path_1437" data-name="Path 1437" d="M295.83,720.45h0a11,11,0,0,1-11-11h0V589.27a4.74,4.74,0,0,1,4.74-4.74h12.57a4.74,4.74,0,0,1,4.74,4.74V709.42a11,11,0,0,1-11,11h0Z"/></g><g id="Group_407" data-name="Group 407"><g id="Group_406" data-name="Group 406"><path id="Path_1438" data-name="Path 1438" d="M121.75,449.18c2.26-11.52,7.58-15.85,10.06-17.61,10.35-7.35,24.46-2.72,28.16-1.51,17.79,5.84,27.29,21.58,29.67,25.65,8.09,13.84,7.62,22.34,19.17,39.23,3.95,5.77,6.63,4.76,7,4.53,2.89-1.64-4.55-20.37-6-23.14-14.22-26.39-29.34-42.89-46.82-77.46a41.82,41.82,0,0,1-4.56-26.15,34.35,34.35,0,0,1,10.06-19.12c17.41-15.07,53.53-23.9,92-27.11a366.71,366.71,0,0,1,70.59,0c38.5,3.26,74.64,12,92,27.11a34.23,34.23,0,0,1,10.06,19.12,41.75,41.75,0,0,1-4.56,26.15c-17.48,34.57-32.6,51.07-46.82,77.46-1.49,2.77-8.92,21.5-6,23.14.4.23,3.08,1.24,7-4.53C394.38,478,393.9,469.55,402,455.71c2.38-4.07,11.88-19.81,29.68-25.65,3.7-1.21,17.81-5.84,28.16,1.51,2.48,1.76,7.79,6.09,10.06,17.61,3.77,19.19-15.27,63.85-31.69,88-10.85,16-16.49,24.11-27.16,32.19A96.35,96.35,0,0,1,358.22,589c-22.31,1.43-102.52,1.43-124.84,0a96.35,96.35,0,0,1-52.82-19.62c-10.67-8.08-16.31-16.23-27.16-32.19C137,513,118,468.37,121.75,449.18Z"/><path id="Path_1439" data-name="Path 1439" class="cls-11" d="M461.14,448.46c2.33,15.67-21.23,69.57-50.72,86.95-12.57,7.41-22.32,12.41-41.54,14-59.37,4.93-95.73,7.66-155.54-1-20.26-2.92-30.93-6.14-41.06-14-25.6-19.9-34.66-46.57-37.68-55.06s-11.62-38,1-46.91c15.46-10.88,38.13,6.79,41.86,10.46,10.58,10.42,16.2,23.71,18.19,29,3,7.86,7.57,23.4,19.45,29.93C233.85,512.23,334,531.1,377.46,501c8.14-5.64,13.79-21.51,13.79-21.51,2.18-4.67,6.77-19.05,13.81-29,0,0,9.95-15.57,28.68-20.08C452,426,459.29,436.05,461.14,448.46Z"/></g></g><g id="Group_427" data-name="Group 427"><path id="Path_1660" data-name="Path 1660" class="cls-14" d="M416.48,733.56c1.61,4.3,1.49,7.24,1.6,16.79.09,8.15.23,10.48.8,13.59a17.25,17.25,0,0,0,3.2,8,18.28,18.28,0,0,0,4.8,4c4.57,3.29,4.9,6.62,9.59,14.39,3.46,5.72,5.41,8.95,8.8,12,4.85,4.36,9.8,5.77,17.59,8a85.06,85.06,0,0,0,23.2,3.2c13.9,0,18.26-3.22,20-4.79a9.76,9.76,0,0,0,3.2-4.8c1.08-4.46-2.27-8.71-5.6-12.8-7.7-9.44-11.55-14.16-14.4-16.79a226.47,226.47,0,0,1-24.79-28c-13.91-18.73-12.4-26.32-20.79-28.79-11.51-3.38-28.3,6.78-28,13.59C415.71,731.89,415.92,732.07,416.48,733.56Z"/><path id="Path_1661" data-name="Path 1661" class="cls-15" d="M292.36,463.16c5.24-6.11,15.73-1.36,37.37-1.92,8.53-.22,18.15-2.06,37.38-5.74,16-3.06,18.12-4.19,47.91-10.54a193.72,193.72,0,0,1,37.38-4.8c12.61-.31,18,.89,23,3.84,10.08,6,13.52,16.44,14.37,19.16s3.68,11.74,0,21.09c-2.72,6.93-7.73,10.8-12.46,14.37-23.09,17.43-34.64,26.14-46.95,31.62-9.19,4.1-19.21,8.55-31.63,10.55-41.91,6.7-89.61-18.22-104.45-52.71C292.58,484.13,286.49,470,292.36,463.16Z"/><path id="Path_1662" data-name="Path 1662" class="cls-16" d="M174.39,478.12c-2.36,11.61,1.69,21.57,4.42,28.28,1.42,3.5,5.59,13.48,14.14,21.21s17.58,9.64,44.19,13.26c31,4.22,46.53,6.33,64.52,7.07a440.09,440.09,0,0,0,44.19,0c1.11-.07,4.68-.3,6.19,1.77,1.81,2.48,0,7.95-1.06,11.95-2.49,9.49-.13,19.35,3.71,34.89,5,20.35,2.28,14.94,10.6,39.77,10.53,31.41,16.8,56.57,16.8,56.57,6.83,27.46,7.14,36.71,15.91,41.54,7.76,4.27,16.95,2,35.35-2.65,10.69-2.69,19.09-7.32,20.33-11.49a10.25,10.25,0,0,0-.89-7.07c-7.93-17.74-33.45-168.84-38-189.14-3.44-15.35-7.46-20.46-8.84-22.1-7.06-8.4-15.74-10.51-32.7-15.91-12.78-4.07-25.11-9.57-38-13.25-21.95-6.28-29.2-6.87-62.75-18.2-15.89-5.37-25-8.25-38-8.84-9.11-.42-18.47-.75-29.17,3.53C201.8,450.72,178.78,456.47,174.39,478.12Z"/><path id="Path_1663" data-name="Path 1663" class="cls-16" d="M378.15,498.78a74.41,74.41,0,0,1,12.08-12.87,87.71,87.71,0,0,1,31-17,72.2,72.2,0,0,1,17.37-3.13c-5.62,1.73-11.11,3.57-16.46,5.74a151.42,151.42,0,0,0-30.2,16.53C387.21,491.41,382.67,495,378.15,498.78Z"/><g id="Group_424" data-name="Group 424"><path id="Path_1664" data-name="Path 1664" d="M416.33,741.5c-2.43.21-9.7,22.2-5.26,30.3,1.55,2.84,23.25,20.88,33.53,28.68a90,90,0,0,0,14.66,9,64.51,64.51,0,0,0,29.67,7.77A50.41,50.41,0,0,0,510.58,812a13.47,13.47,0,0,0,5.57-4.65c2.8-4.18-.64-12-1.38-13.45-3.29-6.48-7.87-8.17-16.77-14.34-14.52-10-22.23-21-30.53-33.55-2.3-3.49-.84-5.46-3-6.94-3.6-2.45-14.43,4-24.28,12.23-2.78,2.33-6.63,4.77-12.06,2.55C419.76,750.39,419.2,741.25,416.33,741.5Z"/><path id="Path_1665" data-name="Path 1665" class="cls-16" d="M412.31,761.61c3.88,3,7.88,5.83,11.87,8.67l12,8.47,12,8.47c4,2.83,8,5.68,12,8.44,1,.69,2,1.4,3,2a16.73,16.73,0,0,0,1.46.89c.5.28,1,.54,1.56.8a57.75,57.75,0,0,0,20.64,5.3,43.61,43.61,0,0,0,14.2-1.51c.59-.14,1.16-.34,1.73-.52s1.13-.37,1.69-.6c1.12-.45,2.21-1,3.31-1.5s2.17-1.11,3.22-1.73a19.39,19.39,0,0,0,3-2,30.25,30.25,0,0,1-5.81,4.57c-1,.67-2.11,1.29-3.22,1.87a18.83,18.83,0,0,1-1.71.79c-.57.24-1.14.5-1.73.7a41.94,41.94,0,0,1-14.79,2.56,54,54,0,0,1-22-5c-.58-.27-1.15-.55-1.72-.85s-1.15-.64-1.69-1c-1.09-.7-2.08-1.38-3.11-2.08q-6-4.26-12-8.63c-3.92-3-7.86-5.88-11.7-8.94s-7.69-6.11-11.46-9.27A144.15,144.15,0,0,1,412.31,761.61Z"/><path id="Path_1666" data-name="Path 1666" class="cls-16" d="M453.61,763.05a50,50,0,0,1,4.79-2.42l4.64-2.12c1.53-.7,3-1.4,4.57-2.14a33.39,33.39,0,0,0,4.56-2.55,7,7,0,0,1-1.18,2.61,13.44,13.44,0,0,1-1.89,2.1,18.17,18.17,0,0,1-4.68,3,20.25,20.25,0,0,1-5.28,1.59A15.34,15.34,0,0,1,453.61,763.05Z"/><path id="Path_1667" data-name="Path 1667" class="cls-16" d="M458.56,769a51.32,51.32,0,0,1,4.8-2.42l4.64-2.12c1.53-.7,3.05-1.4,4.57-2.14a34,34,0,0,0,4.56-2.55,6.9,6.9,0,0,1-1.18,2.6,12.23,12.23,0,0,1-1.9,2.1,18.15,18.15,0,0,1-4.67,3,20.37,20.37,0,0,1-5.28,1.59A15.63,15.63,0,0,1,458.56,769Z"/><path id="Path_1668" data-name="Path 1668" class="cls-16" d="M463.52,774.89a50,50,0,0,1,4.79-2.42l4.64-2.12c1.53-.7,3.06-1.4,4.57-2.14a33.39,33.39,0,0,0,4.56-2.55,6.9,6.9,0,0,1-1.18,2.6,12.18,12.18,0,0,1-1.89,2.1,18.15,18.15,0,0,1-4.67,3,20.32,20.32,0,0,1-5.29,1.59A15.57,15.57,0,0,1,463.52,774.89Z"/><path id="Path_1669" data-name="Path 1669" class="cls-16" d="M468.47,780.82q2.34-1.34,4.8-2.43l4.64-2.11c1.53-.7,3-1.4,4.57-2.14a34.49,34.49,0,0,0,4.56-2.55,7,7,0,0,1-1.18,2.6,13,13,0,0,1-1.89,2.1,18.2,18.2,0,0,1-4.68,3A20.64,20.64,0,0,1,474,780.9,15.87,15.87,0,0,1,468.47,780.82Z"/><path id="Path_1670" data-name="Path 1670" class="cls-16" d="M448.65,757.14a47.82,47.82,0,0,1,4.79-2.43l4.65-2.11c1.53-.71,3.05-1.41,4.56-2.15a34.54,34.54,0,0,0,4.57-2.54,7.3,7.3,0,0,1-1.18,2.6,13.07,13.07,0,0,1-1.9,2.1,17.86,17.86,0,0,1-4.67,3,20,20,0,0,1-5.28,1.59A15.63,15.63,0,0,1,448.65,757.14Z"/></g><g id="Group_426" data-name="Group 426"><path id="Path_1671" data-name="Path 1671" d="M316.33,541.19a55.85,55.85,0,0,1-13-1.33c-6-1.45-14.59-5-21.37,1.35-8.49,8-5.06,21.22-2.12,26.79a17.75,17.75,0,0,0,5.67,6.17c3.53,2.49,6.14,2.47,11.33,3.72,7.66,1.83,24.95,12.08,30.18,14.54a49.29,49.29,0,0,0,23.7,5c4.72-.24,14.33-.74,23-7.71,2.9-2.34,10.54-8.48,11.47-18.75.83-9.19-4.23-15.94-5.83-18.08-6.78-9.08-16.81-11.51-20.58-12.42-7.45-1.8-14.67-1.14-29.12.17A103.93,103.93,0,0,1,316.33,541.19Z"/><path id="Path_1672" data-name="Path 1672" class="cls-16" d="M316,547.75a46.22,46.22,0,0,1-12.63-3.93c-11.68-5.75-19.09-.52-19.88.26-5.16,5.09-5.77,13.27-3.61,19.29.62,1.75,2.94,7.4,8.4,9.89,2.79,1.27,12.83,2.62,25.7,9.23,8.94,4.58,13.35,7,17.95,8a44.83,44.83,0,0,0,18.49.19c6.57-1.3,14.22-2.82,19.34-9.6.82-1.1,6.2-8.47,4-17.25-2-7.79-8.68-11.65-12.43-13.81-10.33-5.94-21.55-5-25.75-4.61C325.9,546.28,324.39,549,316,547.75Z"/><g id="Group_425" data-name="Group 425"><path id="Path_1673" data-name="Path 1673" d="M361.27,550.06a33.79,33.79,0,0,0-6.73-3.28,38.2,38.2,0,0,0-7.31-1.77,46.21,46.21,0,0,0-7.53-.44,65,65,0,0,0-7.5.62c-2.49.38-4.94,1.06-7.32,1.66a21.68,21.68,0,0,1-3.57.62,26,26,0,0,1-3.64,0,46,46,0,0,1-7.26-1.28,49,49,0,0,1-7.05-2.34,41.57,41.57,0,0,0,14.21,4.63,21.16,21.16,0,0,0,7.6-.41c1.23-.28,2.42-.6,3.62-.88s2.4-.5,3.61-.7a60.88,60.88,0,0,1,14.71-.46A40.76,40.76,0,0,1,361.27,550.06Z"/><path id="Path_1674" data-name="Path 1674" d="M279.87,563.37a19.48,19.48,0,0,0,2.88,5.63,15,15,0,0,0,4.78,4.24,7.86,7.86,0,0,0,1.48.66c.51.19,1,.33,1.53.49l3,.86c2,.57,4,1.18,6,1.85a105.7,105.7,0,0,1,11.64,4.71c3.76,1.84,7.46,3.88,11.25,5.75a62.12,62.12,0,0,0,5.86,2.55,31.25,31.25,0,0,0,6.24,1.53,45.58,45.58,0,0,0,6.38.5,40,40,0,0,0,6.38-.42c2.12-.29,4.18-.77,6.24-1.24a44.68,44.68,0,0,0,6.11-1.82,21.46,21.46,0,0,0,10-7.55,20.7,20.7,0,0,1-4.63,4.23,24.51,24.51,0,0,1-5.62,2.72,45.07,45.07,0,0,1-6.06,1.61c-2.06.41-4.12.82-6.19,1.05a47.11,47.11,0,0,1-12.44-.25,30.89,30.89,0,0,1-6-1.53,59.48,59.48,0,0,1-5.71-2.55c-3.79-1.82-7.49-3.82-11.32-5.66a87.65,87.65,0,0,0-11.85-4.58c-2-.62-4.06-1.18-6.12-1.7l-3.06-.77a13.42,13.42,0,0,1-7.7-4.89A20.74,20.74,0,0,1,279.87,563.37Z"/></g></g></g><g id="Group_432" data-name="Group 432"><path id="Path_1675" data-name="Path 1675" class="cls-17" d="M410.25,411c-.47-6.5-30.82-17.55-44.2-17.55-7.14,0-8.45-66.3-21.46-101.17-6.63-17.76-16.06-32.67-33.19-21.11-15.55,10.49-10.5,41.33-6.66,62.39,4.77,26.09,13.2,67.19,23,79.39,5.2,6.5,19.16,13.51,43.55,16.9C394.65,433.14,410.9,420.14,410.25,411Z"/><path id="Path_1676" data-name="Path 1676" class="cls-17" d="M262.48,255.18a92.13,92.13,0,0,0-29.15,7.29c-49.2,21.85-48,62.64-49.2,75.61-2.13,23.74-3.67,46.46-2.73,58.3a76,76,0,0,1,0,13.66c-.86,9.39-3.15,14.51-4.55,20-2.27,9-6.42,37.39.91,42.81,8.82,6.53,15.54-11.84,44.64-15.48,17.15-2.16,23.54,2.2,57.44,7.28,28.68,4.3,34.86-41.32,36.38-59.75,1.43-17.27,6-33.83,6.38-53.21.91-42.82,12.19-53.79,9.11-59.21-1.69-3-23.84-14-34.62-23.69C294.93,266.88,282.86,253.3,262.48,255.18Z"/><path id="Path_1677" data-name="Path 1677" class="cls-18" d="M320.78,365.41a98.9,98.9,0,0,1-.35-13.66c0-2.28.28-4.55.45-6.83s.53-4.54.89-6.79c.19-1.13.39-2.26.62-3.38s.42-2.24.71-3.36.53-2.22.84-3.32l.44-1.66.52-1.64A119.31,119.31,0,0,1,329.81,312c-.31,2.27-.88,4.49-1.36,6.7s-1,4.41-1.49,6.6-.95,4.4-1.34,6.61c-.21,1.1-.42,2.2-.61,3.31s-.38,2.21-.55,3.32c-.75,4.43-1.35,8.89-1.92,13.36S321.48,360.9,320.78,365.41Z"/><path id="Path_1678" data-name="Path 1678" class="cls-14" d="M255.19,260.65c0-6.92,4.1-8.66,10-23.68a142.23,142.23,0,0,0,10-51c0-1.71,4.17-.35,10,4.56a57.72,57.72,0,0,1,20,32.79c4.67,22.78-2.93,54.84-20,57.39C272.75,282.55,255.24,271.47,255.19,260.65Z"/><path id="Path_1679" data-name="Path 1679" class="cls-14" d="M286.5,232.41s-3,2.83-5.4.91c-4.13-3.27-4.4-11.1-4.47-12.75-.1-2.2-.18-8.38,3.57-10.93,5.37-3.64,6.24,2.79,7.15,2.73s1.91-1.94,1.79-3.64c-.17-2.49-2.62-3.68-4.47-5.46-4.41-4.24-5.09-11.44-4.47-15.49,1.15-7.59,8-11.95,10.73-13.67,13.07-8.29,28.55-3.05,32.18-1.82,4.14,1.4,13.94,4.72,20.57,14.57a46.15,46.15,0,0,1,8.07,21.86c.57,6.86-.51,15.84-4.5,20.95-.64.82-4.17,7.59-4.47,10A35.25,35.25,0,0,1,341,250.62a61.64,61.64,0,0,1-13.41,22.78c-5.23,5.4-8.1,6.16-9.83,6.37A14.13,14.13,0,0,1,309.7,278c-4-2-22.8-14.12-24.14-31A83.55,83.55,0,0,1,286.5,232.41Z"/><path id="Path_1680" data-name="Path 1680" d="M353.56,188.94a66.74,66.74,0,0,0-20-19.39C317.38,160,298,158,294.36,163.17a9.88,9.88,0,0,1-3.64,3.65c-2.55,1.35-4.68.75-6.38.91-6,.58-12.08,11.53-11.84,21.85a28.29,28.29,0,0,0,15.47,25,5.76,5.76,0,0,1,2.63,7.21,93.93,93.93,0,0,1-9,17c-7.37,11.29,7.62,35.15,10.93,39.17a43,43,0,0,0,16.39,11.84c4.55,1.82,8.18,2.71,10.93.91,9.79-6.39,12.48-21,12.36-23a.57.57,0,0,1,.11-.38c1-1.37,2.1-2.9,3.16-4.58a.69.69,0,0,0,.05-.61,10.05,10.05,0,0,0-4.75-5.14c-6.07-3.21-13.83-1.53-18.72,1.9a6.8,6.8,0,0,1-8.82-1c-5.39-6.12-9-15.2-8-28.23,1.37-17.77,10.48-27.79,16.39-29.16.9-.2,1.14.61,2.73,1.83a34.49,34.49,0,0,0,11.85,5.46c1.37.42,18.55,4.3,25.5-.91,3.65-2.73,4.87,2.12,5.47,1.82C358.11,208.28,360,198.7,353.56,188.94Zm-41.47,74.91c2.67-.55,6.41.28,10.51-.47s4.09-2.05,5.46-.91c.44.36,1.37,2.27,2.74,3.64.31.32.64.54.87.81a.59.59,0,0,1,0,.85h0l-.1.07c-1.69,1.11-7.57,3.28-16.23-.82-.63-.3-2.27-1.33-3.41-2a.63.63,0,0,1-.2-.87.6.6,0,0,1,.4-.28Z"/><path id="Path_1681" data-name="Path 1681" class="cls-19" d="M334.39,233.49a6.84,6.84,0,0,1-3.44-.37A9.72,9.72,0,0,1,328,231.3c-.39-.37-.69-.52-1-.8-.14-.13-.33-.23-.48-.35a3.59,3.59,0,0,0-.5-.37,8,8,0,0,0-2.38-1.15,16.74,16.74,0,0,0-2.82-.55c-1-.14-2-.21-3-.28l-3.1-.21a15.68,15.68,0,0,1-3.12-.47l.06-.36a48.06,48.06,0,0,0,6.09-.78,24.1,24.1,0,0,1,6.46-.21,14.07,14.07,0,0,1,3.45.8,8,8,0,0,1,1.64.92,8.6,8.6,0,0,1,1.29,1.27c.64.83,1.09,1.5,1.71,2.21s1.35,1.37,2.16,2.17Z"/><path id="Path_1682" data-name="Path 1682" class="cls-19" d="M329,236.05a7.69,7.69,0,0,0-3.65-.47,35.91,35.91,0,0,1-3.88.23,8.83,8.83,0,0,1-4.21-1.12,6.84,6.84,0,0,1-2.84-3.2A27.73,27.73,0,0,0,318,232.7a17.83,17.83,0,0,0,3.49.37,20,20,0,0,1,4,.38,5.07,5.07,0,0,1,1.06.35,4.44,4.44,0,0,1,1,.55,5.36,5.36,0,0,1,.82.76A5,5,0,0,1,329,236.05Z"/><g id="Group_430" data-name="Group 430"><path id="Path_1683" data-name="Path 1683" class="cls-14" d="M284.48,420c3-2.88,7.26-2.65,9.85-2.28,16,2.29,19.44,2.24,24.41.39,2.55-.95,10.6-4.47,15-4.14,9.56.71,46.66,17.42,47,21.94,0,0,.28,3.59-1.22,4.23-.58.25-.58.23-.62.26-.86.66.9,2.12-.44,3.69-.54.64-1.41.81-2.84.95-2.93.3-5.24-.52-7.32-.15-1.52.27-1.73.89-3.52,1.74a8.63,8.63,0,0,1-5.74,1.18c-1.12-.07-2.38.07-10.56-4.28-8.39-4.45-22.47-7-22.41-6.27s15.7,4.61,19.56,7.23a2.46,2.46,0,0,1,.9,2.12c-.2,1.37-1.35,1.48-2.79,1.72-4.15.68-14.08-2.07-24.42-4a55,55,0,0,0-16.14-.92c-6.75.66-8.74.53-13.07,1C279.64,445.63,270.62,433.19,284.48,420Z"/><g id="Group_428" data-name="Group 428"><path id="Path_1684" data-name="Path 1684" class="cls-20" d="M367.57,444.52a1.06,1.06,0,0,0,.52-1.94A72.42,72.42,0,0,0,358,436.72a175,175,0,0,0-22.73-8.51,1.06,1.06,0,1,0-.63,2h0a172.18,172.18,0,0,1,22.42,8.39,69.3,69.3,0,0,1,9.83,5.71A1,1,0,0,0,367.57,444.52Z"/></g><g id="Group_429" data-name="Group 429"><path id="Path_1685" data-name="Path 1685" class="cls-20" d="M375.38,441.48a1.07,1.07,0,0,0,.59-1.9h0a71.83,71.83,0,0,0-9.59-6.64,174.45,174.45,0,0,0-22-10.28,1.06,1.06,0,0,0-1.38.58h0a1.07,1.07,0,0,0,.59,1.39h0a173.22,173.22,0,0,1,21.7,10.13,71.36,71.36,0,0,1,9.34,6.48A1.1,1.1,0,0,0,375.38,441.48Z"/></g></g><path id="Path_1686" data-name="Path 1686" class="cls-17" d="M300.08,414.07c-15.93-1.08-26.18-6.21-43.18-12.37a74.73,74.73,0,0,0-14.17-3.28,16.26,16.26,0,0,1-.07-5.21c.52-5.61,2.05-17.43,1.79-29.08a232.17,232.17,0,0,1,3.94-31.76c.65-2.7,1.32-15.57-1.66-27.36-1-3.86-4.7-18.71-18.47-20.95-18.9-3.07-27.22,10.23-30.19,15-6.52,10.52-8,20.62-9.33,35.27,0,0-4.28,30.1,7.44,79.12,3.46,14.45,9.81,24.66,13,26.71l.29.17.06-.17c7.4,5.14,29.84,1.93,63.51,4.49,13.15,1,24.35,4.3,23.36-1.07-3.12-17,3.38-28,7.82-26.66.73.22.42.6.76.6.65,0,.64-.17.65-.65C305.64,415.12,304.16,414.35,300.08,414.07Z"/><g id="Group_431" data-name="Group 431"><path id="Path_1687" data-name="Path 1687" class="cls-18" d="M300.73,414.07a71.8,71.8,0,0,1-7.48-.41c-1.25-.11-2.48-.32-3.73-.49s-2.47-.42-3.7-.71a127.87,127.87,0,0,1-14.45-4.13c-4.71-1.62-9.38-3.3-14.08-4.89a62.22,62.22,0,0,0-7-1.91q-3.54-.76-7.16-1.19l-1.32-.15-.31-1.28a13.43,13.43,0,0,1-.3-3.46c0-1.05.11-2.09.2-3.07l.57-5.85c.36-3.88.69-7.75.92-11.62.09-1.93.19-3.87.23-5.8,0-1,0-1.93,0-2.89V364l0-.81c.09-2.06.3-4,.5-6s.45-3.93.69-5.87c.48-3.91,1.11-7.8,1.79-11.68.36-1.94.7-3.88,1.17-5.83.1-.48.24-1,.36-1.46l.1-.36.07-.3c0-.2.08-.44.12-.66.16-.91.27-1.87.36-2.82a93.72,93.72,0,0,0,.25-11.61A85.84,85.84,0,0,0,247.39,305a67.8,67.8,0,0,1,2.54,11.53,79.68,79.68,0,0,1,.7,11.86c0,1-.06,2-.17,3,0,.26-.05.51-.1.79l-.14.78c-.08.47-.18.93-.25,1.4-.32,1.89-.59,3.82-.84,5.74-.5,3.86-.87,7.74-1.26,11.62-.19,1.94-.37,3.88-.51,5.81s-.29,3.9-.32,5.75v1.39l0,1.48c0,1,0,2,0,3,0,2-.09,4-.18,5.94s-.23,3.95-.39,5.92-.36,3.92-.56,5.89l-.62,5.83c-.1,1-.18,1.88-.21,2.79a10,10,0,0,0,.14,2.38l-1.64-1.43q3.8.56,7.52,1.48a69.59,69.59,0,0,1,7.33,2.24c4.66,1.81,9.26,3.73,13.85,5.59s9.19,3.67,13.91,5.12A93.22,93.22,0,0,0,300.73,414.07Z"/><path id="Path_1688" data-name="Path 1688" class="cls-18" d="M189.38,334.35c-.09,4.61,0,9.19.25,13.76s.56,9.13.93,13.68.88,9.08,1.5,13.6,1.21,9.05,1.95,13.55l1.12,6.75,1.24,6.74.29,1.68.34,1.68.68,3.36c.46,2.24.89,4.48,1.4,6.67s1.13,4.37,1.82,6.53,1.42,4.3,2.3,6.39a61.45,61.45,0,0,0,2.87,6.16c.27.5.55,1,.84,1.48s.61,1,.92,1.43a10.49,10.49,0,0,0,2.27,2.52h0l.08-.17-.05.18v0h0a10,10,0,0,1-2.74-2.15c-.39-.43-.79-.86-1.15-1.32s-.74-.91-1.08-1.38a53.44,53.44,0,0,1-3.72-5.92c-1.11-2-2.08-4.18-3-6.33s-1.65-4.38-2.37-6.6c-.33-1.12-.68-2.25-1-3.36l-.83-3.37-.83-3.36-.42-1.68-.37-1.69-1.42-6.79L190,389.58c-.68-4.58-1.32-9.16-1.75-13.76-.24-2.3-.37-4.62-.54-6.92s-.22-4.62-.3-6.93c-.05-1.16,0-2.31-.05-3.47s0-2.31,0-3.47c.07-2.31.11-4.62.27-6.93A97.88,97.88,0,0,1,189.38,334.35Z"/></g></g><g id="Group_434" data-name="Group 434"><g id="Group_433" data-name="Group 433"><path id="Path_1689" data-name="Path 1689" d="M652.67,768.65h-5.39a2.66,2.66,0,0,1-2.58-1.92L570.26,456.6a4.33,4.33,0,0,1,3-5.3,4,4,0,0,1,1.19-.15H585.7a4.38,4.38,0,0,1,4.26,3.27l65.3,311a2.63,2.63,0,0,1-1.93,3.18A2.47,2.47,0,0,1,652.67,768.65Z"/><path id="Path_1690" data-name="Path 1690" d="M55.73,768.65h5.38a2.68,2.68,0,0,0,2.58-1.92L138.12,456.6a4.32,4.32,0,0,0-3-5.3,4,4,0,0,0-1.19-.15H122.69a4.38,4.38,0,0,0-4.26,3.27l-65.31,311a2.64,2.64,0,0,0,1.94,3.18,2.47,2.47,0,0,0,.66.07Z"/></g><path id="Path_1691" data-name="Path 1691" d="M697.46,472.84H10.93A10.93,10.93,0,0,1,0,461.91H0A10.93,10.93,0,0,1,10.93,451H697.46a10.93,10.93,0,0,1,10.93,10.93h0A10.93,10.93,0,0,1,697.46,472.84Z"/></g><path id="Path_1692" data-name="Path 1692" class="cls-11" d="M279.39,452.26H451v-8.08H283.24c-1.18,0-5.27,5.42-5.27,5.42a1.63,1.63,0,0,0,1.38,2.66Z"/><path id="Path_1693" data-name="Path 1693" class="cls-5" d="M380.68,451.33h136A12.8,12.8,0,0,0,529,442L561.1,327.86a6,6,0,0,0-5.73-7.57H417.85a12.92,12.92,0,0,0-12.44,9.42l-31.64,112.5a7.18,7.18,0,0,0,5,8.86,7.57,7.57,0,0,0,1.95.26Z"/><path id="Path_1694" data-name="Path 1694" d="M380.71,452.26H517.15A12.67,12.67,0,0,0,529.34,443l31.91-113.44a4.21,4.21,0,0,0-2.91-5.18,4.36,4.36,0,0,0-1.14-.16H420.78a12.67,12.67,0,0,0-12.18,9.24L376.69,446.92a4.21,4.21,0,0,0,4,5.34Z"/><g id="Group_436" data-name="Group 436"><path id="Path_1695" data-name="Path 1695" d="M227.15,54.7H183a3.52,3.52,0,0,0-3.52,3.51h0V84.45A3.52,3.52,0,0,0,183,88h12.75l13.9,9.58,0-9.58h17.52a3.51,3.51,0,0,0,3.51-3.52h0V58.21A3.51,3.51,0,0,0,227.15,54.7Z"/><path id="Path_1696" data-name="Path 1696" class="cls-5" d="M201.63,65h-7.38a5.68,5.68,0,0,0-5.68,5.68h0A5.69,5.69,0,0,0,191,75.33v4.22l3.2-3.2h7.44a5.69,5.69,0,0,0,5.68-5.67h0A5.69,5.69,0,0,0,201.63,65Z"/><g id="Group_435" data-name="Group 435"><path id="Path_1697" data-name="Path 1697" class="cls-5" d="M218.17,76.4a1,1,0,0,1-1-1.05V68.11l-1.85,1.32a1,1,0,0,1-1.46-.23h0a1,1,0,0,1,.24-1.46h0l3.5-2.52a1.05,1.05,0,0,1,1.47.23,1.07,1.07,0,0,1,.2.62v9.29A1.06,1.06,0,0,1,218.17,76.4Z"/></g></g><g id="Group_438" data-name="Group 438"><path id="Path_1698" data-name="Path 1698" class="cls-3" d="M150.65,95.89H111.11a3.48,3.48,0,0,0-3.49,3.48h0v26a3.49,3.49,0,0,0,3.49,3.49h12.65l7.07,9.86,6.66-9.86h13.16a3.49,3.49,0,0,0,3.49-3.49v-26a3.48,3.48,0,0,0-3.49-3.48Z"/><path id="Path_1699" data-name="Path 1699" class="cls-13" d="M123.62,105.78c-5.19,0-9.39,2.86-9.39,6.39a6.09,6.09,0,0,0,3.91,5.18v4.08l3.08-3.08a13.7,13.7,0,0,0,2.39.21c5.19,0,9.39-2.86,9.39-6.39S128.8,105.78,123.62,105.78Z"/><path id="Path_1700" data-name="Path 1700" class="cls-5" d="M138.15,103.27c5.18,0,9.39,2.86,9.39,6.39a6.13,6.13,0,0,1-3.92,5.18v4.08l-3.08-3.08a13.7,13.7,0,0,1-2.39.21c-5.18,0-9.39-2.86-9.39-6.39S133,103.27,138.15,103.27Z"/><g id="Group_437" data-name="Group 437"><path id="Path_1701" data-name="Path 1701" class="cls-21" d="M128.76,109.64c0-3.52,4.2-6.38,9.39-6.38a12.16,12.16,0,0,1,6,1.47,11.84,11.84,0,0,0-6.69-1.9c-5.18,0-9.38,2.85-9.38,6.38a5.88,5.88,0,0,0,3.4,4.92A5.57,5.57,0,0,1,128.76,109.64Z"/></g></g><g id="Group_442" data-name="Group 442"><path id="Path_1702" data-name="Path 1702" class="cls-11" d="M206.76,138.14H166.52a4.62,4.62,0,0,0-4.62,4.62h0v25.83a4.62,4.62,0,0,0,4.62,4.62h3.7a.91.91,0,0,1,.74.38v9a.9.9,0,0,0,1.26.21,1,1,0,0,0,.23-.23l12.59-9a.91.91,0,0,1,.75-.4h21a4.62,4.62,0,0,0,4.61-4.61V142.76a4.6,4.6,0,0,0-4.6-4.62h0Z"/><g id="Group_441" data-name="Group 441"><g id="Group_440" data-name="Group 440"><g id="Group_439" data-name="Group 439"><path id="Path_1703" data-name="Path 1703" class="cls-3" d="M198.64,161.34a1.16,1.16,0,0,1-1.16-1.16v-8l-2,1.46a1.15,1.15,0,0,1-1.62-.26h0a1.15,1.15,0,0,1,.26-1.62L198,149a1.15,1.15,0,0,1,1.62.26,1.2,1.2,0,0,1,.22.68v10.28a1.16,1.16,0,0,1-1.16,1.16Z"/></g><path id="Path_1704" data-name="Path 1704" class="cls-3" d="M189.19,152.07a4.49,4.49,0,0,0-4.08-4.57h-.41a4.8,4.8,0,0,0-4.11,2.43.2.2,0,0,1-.28.09h0a.28.28,0,0,1-.1-.09,4.79,4.79,0,0,0-4.1-2.43h-.4a4.5,4.5,0,0,0-4.09,4.57c0,6.16,6.74,9.9,8.56,10.79h.45C182.46,162,189.19,158.24,189.19,152.07Z"/></g></g></g></g></g></svg>