<?xml version="1.0" encoding="UTF-8"?>
<svg id="Layer_1" data-name="Layer 1" xmlns="http://www.w3.org/2000/svg" viewBox="0 0 300 300">
  <defs>
    <style>
      .cls-1 {
        fill: #fff;
      }

      .cls-2 {
        fill: #fafafa;
      }

      .cls-3 {
        fill: #607d8b;
      }

      .cls-4 {
        fill: #4caf50;
      }

      .cls-5 {
        fill: #465b65;
      }
    </style>
  </defs>
  <circle class="cls-1" cx="150" cy="150" r="145.5"/>
  <g>
    <path class="cls-4" d="m69,142.95c.79-2.09,1.38-4.28,2.65-6.15,3.66-5.41,8.88-7.86,15.31-7.91,3.38-.02,6.76,0,10.14,0,.62,0,1.23.02,1.73-.43.39.48.93.33,1.42.33,2.69,0,5.39,0,8.08,0,.56.03,1.12.09,1.68.09,25.18.02,50.37.04,75.55.06.56,0,1.13.03,1.69.05,3.23-.43,6.47-.05,9.7-.22,3.85.04,7.7.07,11.55.12,4.25.05,8.26.99,11.63,3.68,3.76,3.01,6.1,6.87,6.35,11.8.71,14.05.29,28.11.25,42.16-.03,9.16-4.87,15.28-14.09,17.67-1.35.35-2.86.15-4.3.15-39.8,0-79.61-.03-119.41.07-3.66,0-7.14-.11-10.43-1.84-4.87-2.56-7.98-6.46-9.18-11.85-.05-.25-.01-.52-.32-.62v-47.15Zm59.62,27.09c1.76,0,3.06.26,4.21-.04,6.44-1.71,11.19-5.62,11.42-13.39.13-4.41-1.52-8.03-4.97-10.86-2.82-2.32-6.15-2.94-9.62-3.07-2.67-.1-5.35.1-8.01-.05-2.8-.16-4.7,1.1-4.66,4.65.13,12.53.04,25.06.06,37.59,0,1.08-.34,2.14.03,3.25.47,1.41,2.03,2.71,3.38,2.61,1.56-.11,2.73-1.28,3.11-2.79.53-2.08.21-4.17.28-6.25.07-2.06.01-4.13.01-6.49,4.73,4.63,9.19,9,13.66,13.38.48.47.92.98,1.44,1.39,1.04.82,2.17,1.04,3.36.31,2.37-1.44,2.66-3.89.65-5.92-3.98-4.01-7.98-8-11.98-11.99-.68-.68-1.37-1.34-2.38-2.33Zm56.98-3.06c0,6.67,0,13.35,0,20.02,0,1.87,1.42,3.62,3.11,3.63,6.93.05,13.86.09,20.79.02,2.49-.02,4.22-2.85,3.11-4.88-.78-1.43-2.12-1.93-3.69-1.94-5.03-.01-10.06-.06-15.09-.03-.98,0-1.34-.26-1.33-1.29.05-3.75.05-7.5,0-11.24-.01-.93.23-1.24,1.2-1.22,2.87.06,5.75.05,8.62.01,3.23-.05,4.65-2.83,3.18-5.29-.77-1.28-2.12-1.48-3.44-1.51-2.62-.06-5.24-.09-7.85.01-1.31.05-1.78-.24-1.73-1.66.11-3.44.11-6.88,0-10.32-.05-1.47.33-1.9,1.84-1.87,4.93.1,9.86.02,14.78.05,1.58,0,2.84-.52,3.48-1.98,1.14-2.64-.53-4.83-3.67-4.84-6.37-.03-12.73-.02-19.1,0-2.92,0-4.19,1.2-4.2,4.16-.04,6.72-.01,13.45-.02,20.17Zm-34.29-.38c0,6.78.06,13.55-.04,20.33-.03,2.12,1.85,3.85,3.85,3.78,2.56-.09,5.13-.02,7.7-.02,4,0,8.01.03,12.01-.01,2.78-.03,4.29-2.02,3.57-4.59-.39-1.41-1.73-2.23-3.75-2.24-5.03-.03-10.06-.06-15.09-.04-1.04,0-1.44-.25-1.42-1.37.06-3.7.05-7.39,0-11.09-.01-.99.25-1.33,1.29-1.3,2.87.07,5.75.04,8.62.02,1.8-.02,3.27-1.05,3.6-2.44.59-2.5-.93-4.33-3.73-4.37-2.77-.04-5.55-.06-8.32.02-1.14.03-1.51-.26-1.48-1.44.08-3.54.1-7.09,0-10.63-.04-1.43.38-1.8,1.78-1.77,5.03.09,10.06.05,15.09.02,1.31,0,2.43-.44,3.16-1.71.75-1.3.6-2.51-.15-3.67-.85-1.32-2.31-1.4-3.66-1.41-6.31-.05-12.63.05-18.94-.06-2.39-.04-4.19,1.61-4.14,4.12.12,6.62.04,13.24.04,19.87Zm-54.91-23.95c-3.24,0-6.47-.02-9.71,0-2.65.02-3.89,1.14-3.92,3.73-.07,6.98-.09,13.97-.09,20.95,0,6.61.23,13.21-.07,19.82-.07,1.48,1.56,3.41,3,3.58,1.53.17,3.48-1.11,3.69-2.57.15-1.05.33-2.1.32-3.18-.05-4.52.01-9.04-.05-13.56-.01-1.09.3-1.39,1.37-1.36,2.87.07,5.75.02,8.63.02,2.69,0,4.34-2.58,3.26-4.96-.7-1.54-2.12-1.82-3.57-1.85-2.82-.06-5.65-.05-8.47,0-.95.02-1.23-.28-1.21-1.22.05-3.59.1-7.19-.02-10.78-.05-1.52.41-1.86,1.87-1.83,4.98.1,9.96.06,14.95.02,2.43-.02,3.83-1.59,3.6-3.92-.16-1.68-1.71-2.86-3.88-2.88-3.24-.03-6.47,0-9.71,0Z"/>
    <path class="cls-3" d="m130.63,97c.31-6.67,5.58-13.7,12.46-15.38,5.89-1.44,11.26-.44,15.97,3.46,2.84,2.35,4.5,5.45,5.47,8.97.27.97.61,1.93.65,2.95-.45,2.69-.55,5.45-1.3,8.09-1.11.44-1.14,1.66-1.72,2.47-4.53,6.35-11.77,8.98-19.14,6.97-3.35-.91-6.25-2.73-8.42-5.61-.91-1.21-1.47-2.7-2.74-3.64.03-.57-.03-1.1-.19-1.66-.63-2.16-1.24-4.33-1.04-6.63Z"/>
    <path class="cls-5" d="m130.63,97c-.2,2.29.41,4.47,1.04,6.63.16.56.22,1.1.19,1.66-7.84,7.83-15.68,15.66-23.53,23.5-2.69,0-5.39.01-8.08,0-.49,0-1.03.15-1.42-.33,3.87-3.9,7.73-7.81,11.6-11.69,6.28-6.29,12.56-12.57,18.85-18.84.38-.38.66-.95,1.34-.92Z"/>
    <path class="cls-5" d="m163.89,105.09c.75-2.65.85-5.4,1.3-8.09,2.66,2.63,5.33,5.25,7.98,7.89,7.59,7.58,15.17,15.16,22.75,22.75.36.36.69.75,1.03,1.13-3.23.17-6.47-.21-9.7.22.12-.72-.52-.95-.89-1.31-7.48-7.54-14.98-15.06-22.48-22.58Z"/>
    <path class="cls-2" d="m128.62,170.03c1.01.99,1.7,1.65,2.38,2.33,4,3.99,8,7.98,11.98,11.99,2.01,2.03,1.72,4.48-.65,5.92-1.19.72-2.32.51-3.36-.31-.52-.41-.96-.92-1.44-1.39-4.47-4.37-8.93-8.75-13.66-13.38,0,2.36.05,4.42-.01,6.49-.07,2.08.25,4.17-.28,6.25-.38,1.5-1.55,2.68-3.11,2.79-1.35.09-2.91-1.2-3.38-2.61-.37-1.11-.03-2.17-.03-3.25-.02-12.53.07-25.06-.06-37.59-.04-3.55,1.86-4.82,4.66-4.65,2.66.15,5.34-.05,8.01.05,3.47.14,6.79.76,9.62,3.07,3.45,2.83,5.1,6.45,4.97,10.86-.22,7.78-4.97,11.68-11.42,13.39-1.15.3-2.45.04-4.21.04Zm-4.75-13.68c0,1.95.03,3.9-.01,5.84-.02.79.23,1.09,1.05,1.06,1.69-.05,3.38-.05,5.08,0,2.01.05,3.78-.51,5.3-1.85,1.98-1.75,2.54-4.05,2.06-6.48-.48-2.45-1.99-4.15-4.53-4.94-2.72-.84-5.47-.36-8.2-.51-.81-.04-.73.53-.73,1.04,0,1.95,0,3.9,0,5.85Z"/>
    <path class="cls-2" d="m185.6,166.98c0-6.72-.03-13.45.01-20.17.02-2.96,1.29-4.15,4.2-4.16,6.37,0,12.73-.02,19.1,0,3.15.01,4.81,2.2,3.67,4.84-.63,1.47-1.9,1.99-3.48,1.98-4.93-.03-9.86.06-14.78-.05-1.51-.03-1.89.4-1.84,1.87.11,3.44.11,6.88,0,10.32-.05,1.42.42,1.71,1.73,1.66,2.61-.1,5.24-.07,7.85-.01,1.32.03,2.67.23,3.44,1.51,1.46,2.45.04,5.24-3.18,5.29-2.87.04-5.75.05-8.62-.01-.97-.02-1.21.3-1.2,1.22.05,3.75.05,7.5,0,11.24-.01,1.03.34,1.29,1.33,1.29,5.03-.03,10.06.02,15.09.03,1.58,0,2.91.5,3.69,1.94,1.11,2.03-.62,4.86-3.11,4.88-6.93.07-13.86.03-20.79-.02-1.69-.01-3.11-1.76-3.11-3.63,0-6.67,0-13.35,0-20.02Z"/>
    <path class="cls-2" d="m151.31,166.59c0-6.62.08-13.25-.04-19.87-.04-2.52,1.75-4.17,4.14-4.12,6.31.12,12.63.01,18.94.06,1.35.01,2.81.09,3.66,1.41.75,1.16.9,2.37.15,3.67-.73,1.26-1.84,1.7-3.16,1.71-5.03.03-10.06.07-15.09-.02-1.41-.02-1.83.34-1.78,1.77.11,3.54.08,7.08,0,10.63-.03,1.18.34,1.48,1.48,1.44,2.77-.08,5.54-.06,8.32-.02,2.79.04,4.32,1.86,3.73,4.37-.33,1.39-1.8,2.42-3.6,2.44-2.87.03-5.75.06-8.62-.02-1.04-.03-1.3.31-1.29,1.3.05,3.7.06,7.39,0,11.09-.02,1.11.38,1.37,1.42,1.37,5.03-.03,10.06,0,15.09.04,2.02.01,3.36.84,3.75,2.24.72,2.57-.78,4.56-3.57,4.59-4,.05-8.01.01-12.01.01-2.57,0-5.14-.07-7.7.02-2,.07-3.88-1.66-3.85-3.78.1-6.78.04-13.55.03-20.33Z"/>
    <path class="cls-2" d="m96.4,142.64c3.24,0,6.47-.02,9.71,0,2.17.02,3.72,1.21,3.88,2.88.23,2.33-1.17,3.9-3.6,3.92-4.98.04-9.97.07-14.95-.02-1.47-.03-1.93.31-1.87,1.83.12,3.59.07,7.19.02,10.78-.01.94.26,1.24,1.21,1.22,2.82-.06,5.65-.06,8.47,0,1.45.03,2.87.31,3.57,1.85,1.08,2.38-.57,4.96-3.26,4.96-2.88,0-5.75.05-8.63-.02-1.07-.03-1.39.27-1.37,1.36.06,4.52,0,9.04.05,13.56.01,1.09-.17,2.13-.32,3.18-.2,1.45-2.15,2.74-3.69,2.57-1.44-.16-3.07-2.09-3-3.58.29-6.61.07-13.21.07-19.82,0-6.98.01-13.97.09-20.95.03-2.58,1.27-3.71,3.92-3.73,3.24-.02,6.47,0,9.71,0Z"/>
    <path class="cls-4" d="m123.87,156.36c0-1.95,0-3.9,0-5.85,0-.51-.08-1.08.73-1.04,2.73.15,5.48-.32,8.2.51,2.54.78,4.04,2.48,4.53,4.94.48,2.44-.07,4.73-2.06,6.48-1.52,1.34-3.29,1.9-5.3,1.85-1.69-.04-3.39-.05-5.08,0-.82.03-1.06-.27-1.05-1.06.04-1.95.01-3.9.01-5.84Z"/>
  </g>
</svg>