<svg id="Group_63" data-name="Group 63" xmlns="http://www.w3.org/2000/svg" xmlns:xlink="http://www.w3.org/1999/xlink" width="639.854" height="983" viewBox="0 0 639.854 983">
  <defs>
    <clipPath id="clip-path">
      <rect id="Rectangle_40" data-name="Rectangle 40" width="639.854" height="983" fill="none"/>
    </clipPath>
    <clipPath id="clip-path-3">
      <rect id="Rectangle_30" data-name="Rectangle 30" width="341.323" height="330.419" fill="none"/>
    </clipPath>
    <clipPath id="clip-path-4">
      <rect id="Rectangle_31" data-name="Rectangle 31" width="188.751" height="296.183" fill="none"/>
    </clipPath>
    <clipPath id="clip-path-5">
      <rect id="Rectangle_32" data-name="Rectangle 32" width="27.179" height="27.177" fill="none"/>
    </clipPath>
    <clipPath id="clip-path-6">
      <rect id="Rectangle_33" data-name="Rectangle 33" width="217.127" height="286.098" fill="none"/>
    </clipPath>
    <clipPath id="clip-path-7">
      <rect id="Rectangle_34" data-name="Rectangle 34" width="97.173" height="118.351" fill="none"/>
    </clipPath>
    <clipPath id="clip-path-8">
      <rect id="Rectangle_35" data-name="Rectangle 35" width="5.923" height="5.844" fill="none"/>
    </clipPath>
    <clipPath id="clip-path-9">
      <rect id="Rectangle_36" data-name="Rectangle 36" width="32.877" height="73.272" fill="none"/>
    </clipPath>
    <clipPath id="clip-path-10">
      <rect id="Rectangle_37" data-name="Rectangle 37" width="22.209" height="60.435" fill="none"/>
    </clipPath>
    <clipPath id="clip-path-11">
      <rect id="Rectangle_38" data-name="Rectangle 38" width="6.254" height="6.41" fill="none"/>
    </clipPath>
  </defs>
  <g id="Group_62" data-name="Group 62" clip-path="url(#clip-path)">
    <g id="Group_61" data-name="Group 61">
      <g id="Group_60" data-name="Group 60" clip-path="url(#clip-path)">
        <g id="Group_35" data-name="Group 35" transform="translate(139.814 341.72)" opacity="0.21">
          <g id="Group_34" data-name="Group 34">
            <g id="Group_33" data-name="Group 33" clip-path="url(#clip-path-3)">
              <path id="Path_177" data-name="Path 177" d="M359.1,447c5.173-38.945-22.216-71.1-56.447-90.411S228.707,330.742,190.9,320.057c-35.657-10.129-71.12-24.923-97.518-50.935S51.124,204.021,60.6,168.2c2.417-8.993,6.648-18.034,14.384-23.231s19.508-5.052,25.286,2.248c12.28,15.568-11.652,43.513,3.336,56.422,3.433,3,8.171,4.085,11.724,6.914,9.452,7.567,6.406,22.24,7.736,34.279,2.635,23.811,24.972,40.347,46.9,49.992,29.372,12.909,61.185,18.977,92.321,26.591s62.587,17.309,88.525,36.261,48.493,48.348,48.348,80.476c0,8.969-1.185,19.992-6.817,26.954s-12.788,8.437-20.911,4.617-13.779-9.67-12.28-22.675" transform="translate(-57.836 -141.357)" fill="#1a5993"/>
            </g>
          </g>
        </g>
        <g id="Group_38" data-name="Group 38" transform="translate(275.391 41.526)" opacity="0.21">
          <g id="Group_37" data-name="Group 37">
            <g id="Group_36" data-name="Group 36" clip-path="url(#clip-path-4)">
              <path id="Path_178" data-name="Path 178" d="M114.017,313.36c-1.233-14.5,9.525-27,21.757-33.72s26.253-9.479,38.848-15.45c31.305-14.84,51.2-49.772,52.675-85.574s-14.069-71.63-38.34-97.932c-9.887-10.683-22.023-21.9-22.168-36.479-.145-15.227,14.5-27.218,29.347-27.024s28.332,10.081,37.156,22.479,13.683,27.123,18.445,41.628c-3.384-6.089,3.554-13.608,10.274-12.955s12.087,6.234,16.124,11.8a125.938,125.938,0,0,1,24.174,84.247,118.694,118.694,0,0,1-37.47,77.212c-23.86,21.757-55.407,31.934-86.011,41.6l-63.844,20.135" transform="translate(-113.92 -17.177)" fill="#1a5993"/>
            </g>
          </g>
        </g>
        <path id="Path_179" data-name="Path 179" d="M111.54,14.822a13.587,13.587,0,1,0,2.224-.7" transform="translate(146.18 19.551)" fill="#5e91ff"/>
        <g id="Group_41" data-name="Group 41" transform="translate(249.312 33.346)" opacity="0.8">
          <g id="Group_40" data-name="Group 40">
            <g id="Group_39" data-name="Group 39" clip-path="url(#clip-path-5)">
              <path id="Path_180" data-name="Path 180" d="M111.54,14.822a13.587,13.587,0,1,0,2.224-.7" transform="translate(-103.132 -13.795)" fill="#fff"/>
            </g>
          </g>
        </g>
        <g id="Group_44" data-name="Group 44" transform="translate(291.049 691.335)" opacity="0.21">
          <g id="Group_43" data-name="Group 43">
            <g id="Group_42" data-name="Group 42" clip-path="url(#clip-path-6)">
              <path id="Path_181" data-name="Path 181" d="M165.8,560.5c-7.832-16.221-.991-36.455,11.483-49.46s29.492-20.427,45.931-27.679c36.406-16.052,74.94-35.149,93.433-70.347,6.237-11.869,9.79-24.923,13.3-37.881,6.793-25.044,13.175-53.5-.483-75.568-3.94-6.358-9.839-12.087-17.188-13.3-8.388-1.5-16.922,3.119-22.143,9.863a48.9,48.9,0,0,0-8.437,23.763c-2.031,16.027-.338,32.345-2.031,48.348s-7.518,33.094-20.669,42.232c-16.124,11.241-39.114,8.727-54.754,20.6-12.643,9.67-17.454,26.2-27.317,38.678-8.316,10.419-19.944,17.526-30.58,25.552s-20.935,17.792-24.561,30.628a36.261,36.261,0,0,0,50.5,42.619" transform="translate(-120.397 -285.981)" fill="#1a5993"/>
            </g>
          </g>
        </g>
        <g id="Group_47" data-name="Group 47" transform="translate(75.234 27.928)" opacity="0.21">
          <g id="Group_46" data-name="Group 46">
            <g id="Group_45" data-name="Group 45" clip-path="url(#clip-path-7)">
              <path id="Path_182" data-name="Path 182" d="M53.883,125.5C31.534,108.908,23.3,81.857,39.888,59.508A50.436,50.436,0,0,1,51.762,48.047c7.446-5.1,16.245-8.243,22.869-14.5C80.505,28.08,84.3,20.513,90.9,15.92a23.69,23.69,0,0,1,35.971,27.413c-3.022,8.485-10.637,14.7-13.828,23.11-3.433,9.089-1.209,19.339-2.417,28.864a39.858,39.858,0,0,1-53.376,32.1" transform="translate(-31.122 -11.554)" fill="#1a5993"/>
            </g>
          </g>
        </g>
        <path id="Path_183" data-name="Path 183" d="M97.188,239.38l60.8-9.015-29.009-41.1-15.568.919A27.779,27.779,0,0,0,87.736,223.21Z" transform="translate(123.642 268.273)" fill="#5e91ff"/>
        <path id="Path_184" data-name="Path 184" d="M97.188,239.38l60.8-9.015-29.009-41.1-15.568.919A27.779,27.779,0,0,0,87.736,223.21Z" transform="translate(123.642 268.273)" fill="#164a70"/>
        <path id="Path_185" data-name="Path 185" d="M236.478,334.071c.629,1.741,1.305,3.8,2.006,6.264a19.815,19.815,0,0,1,.653,6.527,30.25,30.25,0,0,1-1.378,8.023c-.991,2.417,1.33,4.644,3.288,3.484s4.835-7.448,4.835-15.52,8.074,1.6,11.144,5.076,13.078,13.8,14.891,13.707c2.659-.145,3-3.022-.145-6.43s-11.87-14.263-9.96-15.81S279.1,355.806,279.1,355.806s2.659,4.376,4.835,2.683c4.11-3.073-13.658-20.937-15.4-22.579-1.185-1.16.822-2.9,2.055-1.6s14.94,18.251,19.146,15.157c3.215-2.417-14.5-14.819-15.375-19.9s12.474,10.8,15.447,8.437c1.136-.894,1.837-1.716-7.252-9.67-4.351-3.916-20.935-15.52-20.935-15.52l-49.9-142.845L173.19,192.048Z" transform="translate(245.481 240.931)" fill="#ffbe9d"/>
        <path id="Path_186" data-name="Path 186" d="M149.976,179.542,94.231,113.015a38.826,38.826,0,0,0-2.732-6.648A20.91,20.91,0,0,0,78.348,95.392c-3.529-.774-7.591-.387-10.371-2.707-1.233-1.039-2.055-2.417-3.36-3.481s-3.457-1.16-4.3.218a3.8,3.8,0,0,0,.242,3.336,31.011,31.011,0,0,0,9.67,12.474c-5.222,1.6-12.691,4.013-12.691,4.013S45.762,96.456,39.718,96.48s4.835,11.434,4.835,11.434-9.67-8.944-12.667-6.43,4.69,9.162,4.69,9.162a12.814,12.814,0,0,0-7.857-2.2c-2.732.459-5.077,3.674-3.6,6.019a6.272,6.272,0,0,0,2.417,1.958l14.843,8.268a17.965,17.965,0,0,0,7.929,2.9c7.542.242,13.272-4.424,20.79-4.23,0,0,42.039,88.5,46.293,93.07s96.7,10.782,96.7,10.782l53.449-46.052Z" transform="translate(34.955 125.293)" fill="#ffbe9d"/>
        <path id="Path_187" data-name="Path 187" d="M154.639,325.529l56.93,24.778-30.459,71c-6.624-3.312-4.448-45.931-4.448-45.931L139.53,360.992Z" transform="translate(197.771 461.407)" fill="#1a5993"/>
        <g id="Group_50" data-name="Group 50" transform="translate(380.154 812.419)" opacity="0.6">
          <g id="Group_49" data-name="Group 49">
            <g id="Group_48" data-name="Group 48" clip-path="url(#clip-path-8)">
              <path id="Path_188" data-name="Path 188" d="M157.845,337.205a3.167,3.167,0,0,1,4.182-.6,3.046,3.046,0,0,1,.6,4.134,3.312,3.312,0,0,1-4.4.6,3.143,3.143,0,0,1-.169-4.376" transform="translate(-157.257 -336.069)" fill="#fff"/>
            </g>
          </g>
        </g>
        <g id="Group_53" data-name="Group 53" transform="translate(376.463 809.443)" opacity="0.6" style="mix-blend-mode: normal;isolation: isolate">
          <g id="Group_52" data-name="Group 52">
            <g id="Group_51" data-name="Group 51" clip-path="url(#clip-path-9)">
              <path id="Path_189" data-name="Path 189" d="M188.607,337.111l-5.85-2.272-27.027,68.92s0,3.771,2.417,4.351Z" transform="translate(-155.73 -334.84)" fill="#fff"/>
            </g>
          </g>
        </g>
        <path id="Path_190" data-name="Path 190" d="M154.576,349.488c.363.121,1.257-1.547,3.118-2.756s3.674-1.523,3.674-1.886-2.224-.725-4.424.8-2.707,3.771-2.369,3.844" transform="translate(218.962 488.337)" fill="#263238"/>
        <path id="Path_191" data-name="Path 191" d="M154.5,352c.314.242,1.547-1.015,3.529-1.571s3.65-.218,3.8-.556-1.741-1.426-4.182-.7-3.457,2.683-3.143,2.828" transform="translate(218.914 494.575)" fill="#263238"/>
        <path id="Path_192" data-name="Path 192" d="M161.59,354.392c.218-.29-1.33-1.523-3.6-1.451s-3.723,1.378-3.505,1.644,1.668-.29,3.554-.314,3.36.508,3.554.121" transform="translate(218.934 500.258)" fill="#263238"/>
        <path id="Path_193" data-name="Path 193" d="M151.376,349.074c.387,0,.58-1.813,1.571-3.7s2.248-3.167,2.031-3.481-2.1.629-3.215,2.877-.725,4.351-.387,4.3" transform="translate(214.064 484.521)" fill="#263238"/>
        <path id="Path_194" data-name="Path 194" d="M149.408,350c.145,0,.943-1.209,1.5-3.554a16.65,16.65,0,0,0,.459-4.206,18.373,18.373,0,0,0-.193-2.417,4.714,4.714,0,0,0-.387-1.426,1.618,1.618,0,0,0-1.765-.943,2,2,0,0,0-1.45,1.16,5.22,5.22,0,0,0-.387,1.426,13.576,13.576,0,0,0,.556,6.745c.8,2.3,1.861,3.409,1.982,3.312s-.556-1.378-1.112-3.578a15.73,15.73,0,0,1-.169-6.358c.121-.822.387-1.475.822-1.523s.193,0,.363.242a4.9,4.9,0,0,1,.266,1.064,19.821,19.821,0,0,1,.266,2.417,20.563,20.563,0,0,1-.169,3.989,27.376,27.376,0,0,0-.58,3.65" transform="translate(208.344 478.275)" fill="#263238"/>
        <path id="Path_195" data-name="Path 195" d="M155.572,344.69a7.61,7.61,0,0,0-3.022-2.417,12.338,12.338,0,0,0-4.11-1.185,11.239,11.239,0,0,0-2.417,0,3.263,3.263,0,0,0-2.78,1.5,1.834,1.834,0,0,0,.363,1.91,5.533,5.533,0,0,0,1.16.919,8.744,8.744,0,0,0,2.417,1.039,8.933,8.933,0,0,0,4.3,0c2.417-.6,3.481-1.861,3.384-1.934a32.377,32.377,0,0,1-3.554,1.015,8.842,8.842,0,0,1-3.82-.29,8.2,8.2,0,0,1-2.031-.967c-.7-.435-1.185-.967-.991-1.209a2.153,2.153,0,0,1,1.692-.749,12.634,12.634,0,0,1,2.417,0,13.959,13.959,0,0,1,3.844.822c1.837.774,3.022,1.692,3.143,1.547" transform="translate(202.857 483.369)" fill="#263238"/>
        <path id="Path_196" data-name="Path 196" d="M127.64,373.127l23.546,49.339L158.559,467a5.583,5.583,0,0,0,6.418,4.6q.2-.033.4-.08a5.538,5.538,0,0,0,3.892-3.336c4.327-10.709,20.064-50.234,18.131-53.739C185.174,410.379,166,360.75,166,360.75Z" transform="translate(180.918 511.33)" fill="#1a5993"/>
        <g id="Group_56" data-name="Group 56" transform="translate(346.294 922.288)" opacity="0.6" style="mix-blend-mode: normal;isolation: isolate">
          <g id="Group_55" data-name="Group 55">
            <g id="Group_54" data-name="Group 54" clip-path="url(#clip-path-10)">
              <path id="Path_197" data-name="Path 197" d="M143.25,441.955l20.5-60.435.967,2.1a8.436,8.436,0,0,1,.411,5.8c-1.5,5.149-5.923,19.339-17.84,49.122a5.565,5.565,0,0,1-4.037,3.409" transform="translate(-143.25 -381.519)" fill="#fff"/>
            </g>
          </g>
        </g>
        <g id="Group_59" data-name="Group 59" transform="translate(348.897 909.284)" opacity="0.6">
          <g id="Group_58" data-name="Group 58">
            <g id="Group_57" data-name="Group 57" clip-path="url(#clip-path-11)">
              <path id="Path_198" data-name="Path 198" d="M144.769,377.662a3.362,3.362,0,0,0,.967,4.4,3.263,3.263,0,0,0,4.4-.919,3.6,3.6,0,0,0-1.064-4.665,3.361,3.361,0,0,0-4.448,1.475" transform="translate(-144.326 -376.139)" fill="#fff"/>
            </g>
          </g>
        </g>
        <path id="Path_199" data-name="Path 199" d="M151.153,397.223a12.091,12.091,0,0,0-12.353-.435,3.905,3.905,0,0,1,1.45-1.45,8.65,8.65,0,0,1,4.835-1.233,8.779,8.779,0,0,1,4.714,1.547c1.064.774,1.45,1.475,1.354,1.571" transform="translate(196.736 558.596)" fill="#263238"/>
        <path id="Path_200" data-name="Path 200" d="M149.91,399.706a41.446,41.446,0,0,0-5.367-.145,46.53,46.53,0,0,0-5.149,1.547c-.266-.193,1.668-2.417,4.98-2.756a6.187,6.187,0,0,1,5.536,1.354" transform="translate(197.544 564.378)" fill="#263238"/>
        <path id="Path_201" data-name="Path 201" d="M154.688,391.808a54.469,54.469,0,0,0-8.268-.8,51.326,51.326,0,0,0-8.171,1.6A15.255,15.255,0,0,1,154.688,391.808Z" transform="translate(195.957 552.48)" fill="#263238"/>
        <path id="Path_202" data-name="Path 202" d="M150.377,384.355c0,.363-3.264.435-6.914,1.934s-6.092,3.6-6.334,3.336a10.868,10.868,0,0,1,5.9-4.472,10.745,10.745,0,0,1,7.349-.8" transform="translate(194.369 544.341)" fill="#263238"/>
        <path id="Path_203" data-name="Path 203" d="M147.6,378.4a27.819,27.819,0,0,0-7.252,1.837,26.826,26.826,0,0,0-5.85,4.617c-.121,0,.121-.943.991-2.1a11.8,11.8,0,0,1,4.351-3.6,11.934,11.934,0,0,1,5.488-1.257c1.45.048,2.3.387,2.272.508" transform="translate(190.596 535.624)" fill="#263238"/>
        <path id="Path_204" data-name="Path 204" d="M142.813,384.793a5.654,5.654,0,0,1-.919-1.862,14.61,14.61,0,0,1-.7-5.608,6.358,6.358,0,0,1,1.233-3.892,2.249,2.249,0,0,1,2.417-.6,3.772,3.772,0,0,1,1.813,1.91,7.905,7.905,0,0,1-3.336,9.525,9.21,9.21,0,0,1-10.2-.677,3.167,3.167,0,0,1-1.209-2.417,2.2,2.2,0,0,1,1.62-2.006,7.961,7.961,0,0,1,4.061.242,15.618,15.618,0,0,1,5.149,2.417c1.088.749,1.571,1.305,1.523,1.378a24.217,24.217,0,0,0-6.865-2.9,7.083,7.083,0,0,0-3.554-.121,1.183,1.183,0,0,0-.894,1.088,2.27,2.27,0,0,0,.894,1.5,8.191,8.191,0,0,0,8.848.508,6.864,6.864,0,0,0,3.046-8.147,2.535,2.535,0,0,0-1.209-1.378,1.182,1.182,0,0,0-1.378.29,5.614,5.614,0,0,0-1.112,3.288,21.414,21.414,0,0,0,.774,7.47" transform="translate(186.97 528.262)" fill="#263238"/>
        <path id="Path_205" data-name="Path 205" d="M294.533,505.083l-64.569-43.513,21.37-209.807-61.16-35.705L134.259,203.1s-23.352,48.59-33.844,79.774c-22.1,66.164-37.591,89.879-34.037,137.792,1.112,15.181,57.148,53.183,92.538,74.239a115.058,115.058,0,0,0,1.886,12.546c12.087,54.679,49.025,127.4,49.025,127.4l56.084-26.084-18.082-62.009,18.856,11ZM155.749,369.708l7.542-33.626c-1.6,21.394-3.046,43.707-4.085,65.1a66.807,66.807,0,0,1-3.457-31.4Z" transform="translate(93.365 287.876)" fill="#263238"/>
        <path id="Path_206" data-name="Path 206" d="M157.4,599.541a5.273,5.273,0,0,1-.435-.894l-1.185-2.635-4.327-10.226c-3.723-8.92-9.065-21.757-15.471-37.832s-14-35.125-21.757-56.64c-1.91-5.391-3.771-10.927-5.536-16.656-.774-2.9-1.765-5.753-2.272-8.823-.145-.749-.314-1.523-.435-2.272l-.266-2.3-.508-4.593q-1.015-9.283-1.62-18.9c-.193-3.191-.363-6.43-.508-9.67a83.916,83.916,0,0,1,0-9.863c.967-26.35,3.167-51.346,5-74.094s3.6-43.2,5.052-60.435,2.417-31.112,2.9-40.757c.314-4.835.483-8.558.58-11.072l.169-2.9a3.6,3.6,0,0,1,0-.967,5.869,5.869,0,0,1,0,.967v2.9c0,2.538-.121,6.285-.338,11.1-.411,9.67-1.257,23.594-2.538,40.806s-3,37.687-4.835,60.435-3.94,47.744-4.835,74.021c-.193,3.288,0,6.527,0,9.79s.29,6.455.508,9.67q.58,9.671,1.571,18.832l.508,4.617.266,2.272c.121.749.29,1.475.435,2.224.483,2.949,1.45,5.826,2.224,8.7,1.716,5.681,3.578,11.217,5.463,16.608,7.591,21.491,15.109,40.612,21.394,56.688s11.531,29.009,15.133,37.953c1.765,4.448,3.167,7.9,4.134,10.322.435,1.136.8,2.031,1.039,2.683a3.466,3.466,0,0,0,.483.943" transform="translate(145.893 323.183)" fill="#455a64"/>
        <path id="Path_207" data-name="Path 207" d="M111.675,252.057a9.929,9.929,0,0,1-1.45-1.185,15.221,15.221,0,0,1-2.732-4.4,46.967,46.967,0,0,1-2.756-16.632,140.8,140.8,0,0,1,.8-16.922,38.512,38.512,0,0,1,.967-6.89,40.828,40.828,0,0,1,0,6.962c-.218,4.279-.556,10.2-.459,16.728a54.031,54.031,0,0,0,2.417,16.366,18.714,18.714,0,0,0,2.3,4.376,9.321,9.321,0,0,1,.919,1.6" transform="translate(148.438 292.029)" fill="#455a64"/>
        <path id="Path_208" data-name="Path 208" d="M109.7,204.42a14.082,14.082,0,0,1,.483,5.85,27.076,27.076,0,0,1-15.447,22.675,14.3,14.3,0,0,1-5.633,1.692c0-.193,2.1-.774,5.246-2.417a28.618,28.618,0,0,0,14.988-21.974c.411-3.578.145-5.826.363-5.826" transform="translate(126.291 289.747)" fill="#455a64"/>
        <path id="Path_209" data-name="Path 209" d="M148,254.88v.628a9.651,9.651,0,0,1-.145,1.861q-.29,2.611-.725,7.252c-.7,6.309-1.668,15.278-2.877,26.3-2.417,22.313-6,52.941-9.815,86.809a157.983,157.983,0,0,0,3.167,47.62,164.323,164.323,0,0,0,5.826,20.067c2.176,6.186,4.182,11.964,6.044,17.26,3.65,10.492,6.6,19.025,8.679,25.018.967,2.9,1.74,5.173,2.417,6.817l.58,1.791a1.906,1.906,0,0,1,.145.6,1.339,1.339,0,0,0-.266-.583,9.971,9.971,0,0,1-.677-1.738c-.629-1.622-1.45-3.87-2.417-6.745l-9.041-24.875c-1.886-5.27-3.965-11.047-6.189-17.212a163.265,163.265,0,0,1-5.971-20.185,156.935,156.935,0,0,1-3.312-47.961c3.771-33.965,7.542-64.569,10.177-86.785,1.378-11.023,2.417-19.992,3.263-26.277.387-3.046.7-5.415.943-7.252a10.369,10.369,0,0,1,.266-1.837,2.134,2.134,0,0,1-.073-.58" transform="translate(188.312 361.269)" fill="#455a64"/>
        <path id="Path_210" data-name="Path 210" d="M94.16,217.79l9.911-25.31,22.6,33.7L96.529,218.66" transform="translate(133.463 272.822)" fill="#ffbe9d"/>
        <path id="Path_211" data-name="Path 211" d="M342.319,240.97,315.51,180.849c-3.215-9.67-9.234-11.168-14.263-16.777l-67.18-37.881c-48.977-20.064-75.641,47.188-75.641,47.188l-44.5,101.531c-52.337,17.333-15.278,57.534-15.278,57.534s-14.239-24.754-.218-33.674c14.65-9.355,30.894,15.278,46.511,38.678,18.445,27.607,78.348,45.544,78.348,45.544,7.01-7.4,5.052-33.239,10.54-47.115,1.741-4.375,43.223-100.467,43.223-100.467l16.076,38.944s20.6-24.174,30.6-27.994a113.963,113.963,0,0,1,18.59-5.391" transform="translate(121.775 173.567)" fill="#1a5993"/>
        <path id="Path_212" data-name="Path 212" d="M176.181,194.324a10.04,10.04,0,0,1-2.031,1.426,39.185,39.185,0,0,1-6.116,2.877,43.732,43.732,0,0,1-42.45-6.551,37.618,37.618,0,0,1-4.956-4.593,7.885,7.885,0,0,1-1.5-1.958c.169-.169,2.417,2.562,6.962,5.874a45.419,45.419,0,0,0,41.652,6.43c5.367-1.789,8.437-3.7,8.437-3.505" transform="translate(168.856 262.953)" fill="#263238"/>
        <path id="Path_213" data-name="Path 213" d="M97.127,189.3h0l41.459,3.919,66.334-70.1L165.9,121.76,96.45,128.625a180.166,180.166,0,0,1,.677,60.675" transform="translate(136.709 172.584)" fill="#1a5993"/>
        <path id="Path_214" data-name="Path 214" d="M153.1,134.44a4.354,4.354,0,0,1-.508,1.281l-1.668,3.578c-1.5,3.239-3.6,7.712-6.14,13.127-5.149,11.12-12.087,26.591-19.339,43.755s-14.166,32.708-19.339,43.852c-2.538,5.584-4.641,10.056-6.14,13.151L98.2,256.712a5.856,5.856,0,0,1-.7,1.209,8.145,8.145,0,0,1,.483-1.305l1.547-3.626,5.8-13.3c4.835-11.386,11.579-26.882,18.928-44s14.5-32.587,19.75-43.634c2.683-5.512,4.835-9.936,6.5-12.981.774-1.4,1.378-2.562,1.861-3.481a6.48,6.48,0,0,1,.725-1.16" transform="translate(138.197 190.556)" fill="#263238"/>
        <path id="Path_215" data-name="Path 215" d="M185.778,142.869c.121.218-2.417,1.547-5.971,4.545a43.059,43.059,0,0,0-5.584,5.778,47.369,47.369,0,0,0-5.27,8.34,49.34,49.34,0,0,0-3.288,9.283,42.307,42.307,0,0,0-1.064,8c-.169,4.593.363,7.446.121,7.47a7.024,7.024,0,0,1-.483-1.958,14.3,14.3,0,0,1-.338-2.417,25.126,25.126,0,0,1-.169-3.191,37.866,37.866,0,0,1,.846-8.219,41.214,41.214,0,0,1,8.751-18.179,39.163,39.163,0,0,1,5.923-5.729,22.765,22.765,0,0,1,2.587-1.837,14.716,14.716,0,0,1,2.055-1.233,6.283,6.283,0,0,1,1.886-.653" transform="translate(232.071 202.504)" fill="#263238"/>
        <path id="Path_216" data-name="Path 216" d="M229.524,141.295l-38.9,72.718a25.6,25.6,0,0,1-45.894-22.629q.334-.732.713-1.448l6.7-12.619s-16.922-10.951-8.993-29.226c7.059-16.3,32.973-62.321,38.461-72.041l32.78,14.676a36.815,36.815,0,0,1,15.621,49.666c-.16.307-.322.6-.488.9" transform="translate(199.904 107.792)" fill="#ffbe9d"/>
        <path id="Path_217" data-name="Path 217" d="M146.891,117.829A46.358,46.358,0,0,0,173.6,121.7s-11.458,10.562-28.864.822Z" transform="translate(205.156 167.012)" fill="#eb996e"/>
        <path id="Path_218" data-name="Path 218" d="M150.953,94.639a2.852,2.852,0,0,0,1.33,3.747,2.732,2.732,0,0,0,3.7-1.1l.019-.036a2.852,2.852,0,0,0-1.33-3.747,2.732,2.732,0,0,0-3.7,1.1l-.019.036" transform="translate(213.592 132.063)" fill="#263238"/>
        <path id="Path_219" data-name="Path 219" d="M150.866,93.5c.169.486,2.78,0,5.584,1.163s4.206,3.554,4.666,3.36.145-.846-.435-1.886a7.921,7.921,0,0,0-3.554-3.118,7.582,7.582,0,0,0-4.641-.508c-1.136.266-1.716.677-1.62.989" transform="translate(213.824 130.904)" fill="#263238"/>
        <path id="Path_220" data-name="Path 220" d="M161.767,99.965a2.828,2.828,0,0,0,1.33,3.747,2.731,2.731,0,0,0,3.7-1.114l.024-.046a2.852,2.852,0,0,0-1.33-3.723,2.705,2.705,0,0,0-3.679,1.056l-.044.08" transform="translate(228.91 139.6)" fill="#263238"/>
        <path id="Path_221" data-name="Path 221" d="M162.126,98.782c.169.483,2.78,0,5.584,1.16s4.206,3.578,4.666,3.384.169-.846-.435-1.91a7.893,7.893,0,0,0-3.554-3.094,7.424,7.424,0,0,0-4.641-.508c-1.136.266-1.716.749-1.62.967" transform="translate(229.784 138.411)" fill="#263238"/>
        <path id="Path_222" data-name="Path 222" d="M157.889,118.118a21.062,21.062,0,0,0-4.158-2.828c-.677-.411-1.305-.846-1.209-1.378a4.736,4.736,0,0,1,1.426-1.91l4.545-4.5a103.212,103.212,0,0,0,11.1-12.087A100.69,100.69,0,0,0,157.5,106.563l-4.472,4.569a4.509,4.509,0,0,0-1.62,2.635,2.056,2.056,0,0,0,.7,1.571,5.489,5.489,0,0,0,1.136.7,18.449,18.449,0,0,0,4.641,2.079" transform="translate(214.61 135.248)" fill="#263238"/>
        <path id="Path_223" data-name="Path 223" d="M164.311,107.137c-.435-.218-1.789,2.8-5.342,3.8s-6.648-.774-6.865-.363.459.894,1.813,1.547a8.191,8.191,0,0,0,5.633.483,7.1,7.1,0,0,0,4.3-3.263c.677-1.209.677-2.1.459-2.2" transform="translate(215.536 151.84)" fill="#263238"/>
        <path id="Path_224" data-name="Path 224" d="M163.85,93.885c0,.894,2.877,1.765,5.971,3.626s5.367,3.94,6.092,3.457c.338-.242.193-1.16-.532-2.417a12.286,12.286,0,0,0-9.21-5.391c-1.4,0-2.3.314-2.321.725" transform="translate(232.242 132.046)" fill="#263238"/>
        <path id="Path_225" data-name="Path 225" d="M152.789,90.506c.218.873,2.417,1.064,4.835,2.055s4.085,2.417,4.835,1.886.338-1.013-.266-1.98a6.936,6.936,0,0,0-3.36-2.756,7.11,7.11,0,0,0-4.351-.413c-1.209.2-1.813.728-1.692,1.209" transform="translate(216.543 126.333)" fill="#263238"/>
        <path id="Path_226" data-name="Path 226" d="M177.7,107.549c.387,0,14.142,1.888,8.2,14.144s-16.922,3.747-16.922,3.382,8.727-17.526,8.727-17.526" transform="translate(239.499 152.441)" fill="#ffbe9d"/>
        <path id="Path_227" data-name="Path 227" d="M171.5,118.751s.145.242.411.6a2.421,2.421,0,0,0,1.6.8,5.9,5.9,0,0,0,4.835-3.554,7.916,7.916,0,0,0,.894-3.336,2.76,2.76,0,0,0-.822-2.417,1.211,1.211,0,0,0-1.547,0c-.314.266-.363.532-.435.532s-.169-.338.169-.8a1.558,1.558,0,0,1,.87-.532,1.815,1.815,0,0,1,1.33.266,3.362,3.362,0,0,1,1.305,2.973,8.1,8.1,0,0,1-.919,3.771,6.189,6.189,0,0,1-5.681,3.8,2.735,2.735,0,0,1-1.813-1.281c-.314-.508-.242-.822-.193-.822" transform="translate(243.018 155.939)" fill="#eb996e"/>
        <path id="Path_228" data-name="Path 228" d="M198.269,150.239a7.263,7.263,0,0,0-7.252.413c-1.6,1.4-2.683,3.336-4.279,4.835a4.834,4.834,0,0,1-5.85.919,4.181,4.181,0,0,1-1.305-3.989,11.559,11.559,0,0,1,1.765-4.037c3.312-5.466,7.107-10.685,9.96-16.417a32.6,32.6,0,0,0,3.892-18.539A17.888,17.888,0,0,0,184.321,98.75c-3.989-1.4-8.437-.991-12.522-2.151a16.7,16.7,0,0,1-10.733-9.863,28.931,28.931,0,0,0-1.6-2.756c.145-.293,1.6-2.756,3.022-3.242,10.782-3.648,25.359.532,34.279,7.566a39.63,39.63,0,0,1,15.278,29.686c.121,11.364-7.035,23.886-13.683,32.347" transform="translate(226.034 112.531)" fill="#263238"/>
        <path id="Path_229" data-name="Path 229" d="M204.929,156.957c3.408-5.8,8.92-9.984,13.126-15.205s7.252-12.595,4.11-18.59c-1.015-2.055-2.659-3.771-3.505-5.9a29.227,29.227,0,0,1-1.209-6.793,23.6,23.6,0,0,0-11.7-16.922c-4.3-2.417-9.259-3.384-13.634-5.681-6.89-3.626-11.942-10.347-19.339-13.223a9.184,9.184,0,0,0-7.518-.242,4.544,4.544,0,0,0-2.1,6.075,4.094,4.094,0,0,0,.237.428,3.939,3.939,0,0,0-4.8-2.836,3.827,3.827,0,0,0-.643.225,5.945,5.945,0,0,0-3.07,5.826,12.917,12.917,0,0,0,2.635,6.382,32.732,32.732,0,0,0,18.614,12.836l16.7-1.305,13.683,10.129,10.1,16.124-18.348,23.836Z" transform="translate(219.496 104.483)" fill="#263238"/>
        <path id="Path_230" data-name="Path 230" d="M232.944,42.056a29.69,29.69,0,0,0-54.537,5.108,29.362,29.362,0,0,0-.537,15.271l-8.507,13.39,16.238.682A29.748,29.748,0,0,0,198.1,84.1l.012,0a29.637,29.637,0,0,0,37.011-19.535,29.265,29.265,0,0,0-2.178-22.508m-33.37,37.276-.01,0a24.712,24.712,0,0,1-11-6.948l-.7-.771-9.631-.406,5.033-7.929-.288-1.059a24.362,24.362,0,0,1,.222-13.586,24.678,24.678,0,0,1,45.326-4.25,24.33,24.33,0,0,1,1.813,18.711,24.631,24.631,0,0,1-30.764,16.24m18.309-13.61c-.6-.571-3.561-3.343-4.139-3.778s-1.013-.7-1.7-.138-2.533,1.736-3.092,2.079-.989.276-1.588-.295a20.2,20.2,0,0,1-4.629-5.243,22.278,22.278,0,0,1-2.439-6.1c-.2-.834.29-1.1.752-1.344.416-.218.96-.607,1.443-.911a4.922,4.922,0,0,0,1.073-.955,1.354,1.354,0,0,0,.319-1.255c-.072-.406-.425-4.313-.583-5.9-.152-1.554-.793-1.545-1.223-1.7-.406-.15-.878-.295-1.351-.44a2.727,2.727,0,0,0-2.161.3,8.274,8.274,0,0,0-4.284,5.125c-1.064,3.471.45,7.6.658,8.181s2.669,9.126,8.843,14.357a43.061,43.061,0,0,0,3.583,2.729,10.2,10.2,0,0,0,4.378,1.651c1.424.218,4.714-.421,5.811-1.888a6.106,6.106,0,0,0,1.441-3.227c-.085-.358-.5-.677-1.107-1.25" transform="translate(240.058 37.317)" fill="#1a5993" fill-rule="evenodd"/>
        <path id="Path_231" data-name="Path 231" d="M26.364,187.58a15.747,15.747,0,1,0-22.245-1.013,15.747,15.747,0,0,0,22.245,1.013M8.669,168.2a10.5,10.5,0,1,1-.677,14.831A10.493,10.493,0,0,1,8.669,168.2Z" transform="translate(0 227.073)" fill="#1a5993"/>
        <path id="Path_232" data-name="Path 232" d="M23.239,165.059l-5.309-5.814-3.878,3.539,5.311,5.814-5.816,5.311,3.539,3.875,5.816-5.309,5.309,5.814,3.878-3.539-5.311-5.816,5.816-5.309-3.542-3.875Z" transform="translate(19.203 225.716)" fill="#1a5993"/>
        <path id="Path_233" data-name="Path 233" d="M26.3,171.086,10.627,185.4a13.025,13.025,0,0,0-.834,18.38l8.925,9.774,3.878-3.539-8.925-9.774a7.766,7.766,0,0,1,.5-10.963l15.67-14.311a7.769,7.769,0,0,1,10.965.5l8.925,9.774,3.875-3.542-8.925-9.774a13.025,13.025,0,0,0-18.38-.834" transform="translate(9.066 237.684)" fill="#1a5993"/>
        <path id="Path_234" data-name="Path 234" d="M21.7,62.708m-.116,6.184a2.817,2.817,0,0,0,.7.338c.247.07.416.186.539.22q-.809-.334-1.243-.556Z" transform="translate(30.592 88.883)" fill="#1a5993"/>
        <path id="Path_235" data-name="Path 235" d="M43.31,60.91a13.618,13.618,0,0,0-5.268-4.658,14.215,14.215,0,0,0-3.1-1.1,13.476,13.476,0,0,0-5.122-.077c-.363.094-.645.147-1.008.242l-.157.089c-.283.051-.522.184-.8.234a3.066,3.066,0,0,0-.839.36l-.16.087c-.319.176-.6.227-.839.36l-.16.087a8.836,8.836,0,0,0-1.82,1.211c-.276.256-.592.43-.865.684-.193.213-.467.467-.662.677a.342.342,0,0,0-.2.213,3.884,3.884,0,0,0-.619.757,4.839,4.839,0,0,0-.655.88c-.152.29-.425.546-.578.836a6.947,6.947,0,0,0-.525,1.119,4.56,4.56,0,0,0-.329.907,3.914,3.914,0,0,0-.293.783,1.361,1.361,0,0,0-.143.493,3.987,3.987,0,0,0-.172.82c-.1.573-.16,1.023-.215,1.675a5.082,5.082,0,0,0-.048.856,8.468,8.468,0,0,0,.058,1.421l.116-.169,2.444,23.231,4.965.167L24.837,79.5a8.068,8.068,0,0,0,.747.418c.293.15.749.416,1.206.682l.293.152c.247.07.537.22.783.292l.74.213.819.172c.573.1,1.023.162,1.6.261a11.463,11.463,0,0,0,3.326-.176,11.9,11.9,0,0,0,1.728-.435c.283-.053.522-.184.885-.28a3.135,3.135,0,0,0,.839-.358l.8-.44a13.485,13.485,0,0,0,1.625-1c.276-.256.592-.43.865-.684s.549-.51.742-.723l.585-.633c.193-.21.309-.377.5-.59l.462-.67c.193-.21.266-.457.459-.67a3.2,3.2,0,0,0,.418-.747l.336-.7.338-.706.213-.74a6.421,6.421,0,0,0,.242-1.066,16.253,16.253,0,0,0,.239-3.138,14.113,14.113,0,0,0-1.081-4.8c-.22-.4-.317-.759-.534-1.156a6,6,0,0,1-.7-1.073m-3.329,4.117A9.251,9.251,0,0,1,40.6,67.28l.007.2.024.609a2.257,2.257,0,0,1-.012.732,1.918,1.918,0,0,1-.053.653,7.819,7.819,0,0,1-.527,2.052,9.834,9.834,0,0,1-.525,1.119,1.938,1.938,0,0,0-.3.583,4.518,4.518,0,0,1-.815.967,8.581,8.581,0,0,1-1.1,1.02c-.239.131-.353.3-.592.43l-1.194.658a3.254,3.254,0,0,1-.885.28l-.08.044-.846.155a4.669,4.669,0,0,1-1.3.094c-.283.051-.529-.019-.812.031-.2.01-.326-.027-.529-.019A5.725,5.725,0,0,1,30,76.65l-.5-.143a7.843,7.843,0,0,1-1.073-.445,7.618,7.618,0,0,1-1.8-1.187c-.167-.114-.21-.193-.377-.309s-.256-.273-.423-.389l-.176-.317a7.169,7.169,0,0,1-.817-1.1l-.087-.16a5.878,5.878,0,0,1-1.039-2.64l-.065-.689a1.562,1.562,0,0,0-.06-.483c.027-.326-.024-.609,0-.936a2.007,2.007,0,0,1,.1-.573c.07-.247.063-.45.133-.7a4.749,4.749,0,0,1,.438-1.276,16.771,16.771,0,0,1,.907-1.743A8.171,8.171,0,0,1,27.049,61.7l.276-.256,1.032-.568a1.738,1.738,0,0,1,.6-.227l.442-.14a3.884,3.884,0,0,1,.44-.14,1.337,1.337,0,0,1,.566-.1c.2-.007.363-.094.563-.1a7.186,7.186,0,0,1,3.343.232,5.2,5.2,0,0,1,.907.329,8.6,8.6,0,0,1,2.166,1.3,1.658,1.658,0,0,1,.467.469,2.629,2.629,0,0,1,.554.626,2,2,0,0,1,.43.592l.087.16a2.082,2.082,0,0,1,1.061,1.172Z" transform="translate(26.548 77.774)" fill="#1a5993"/>
        <path id="Path_236" data-name="Path 236" d="M73.3,78.38c-.133-.239-.387-.513-.52-.752l-.131-.237c-.256-.276-.387-.512-.6-.708s-.51-.549-.72-.745a4.5,4.5,0,0,0-.8-.7l-1-.689c-.29-.15-.5-.346-.79-.5s-.459-.266-.749-.418a1.556,1.556,0,0,0-.537-.22,3.977,3.977,0,0,0-.783-.295,7.4,7.4,0,0,0-1.605-.464,4.079,4.079,0,0,0-.819-.169,12.841,12.841,0,0,0-1.426-.145l-.2.007L44.05,71.6l-7.2-.28-4.965-.167s-5.944-.247-6.191-.319A11.466,11.466,0,0,0,22.366,71a12.227,12.227,0,0,0-1.728.438c-.283.051-.522.184-.885.278a3.066,3.066,0,0,0-.839.36l-.8.438a13.509,13.509,0,0,0-1.624,1c-.073.247-.389.423-.665.677s-.546.51-.742.723l-.585.633c-.193.21-.309.377-.5.59l-.462.67c-.193.21-.266.457-.459.67a3.978,3.978,0,0,1-.295.783,3.833,3.833,0,0,0-.336.7l-.338.7a3.025,3.025,0,0,1-.213.74c-.073.247-.135.7-.242,1.069a10.149,10.149,0,0,0-.239,3.138,14.259,14.259,0,0,0,1.008,4.837c.22.4.314.759.534,1.156a4.8,4.8,0,0,0,.645.994,13,13,0,0,0,5.226,4.583,14.034,14.034,0,0,0,3.094,1.1,12.119,12.119,0,0,0,5.122.08c.283-.053.643-.147,1.006-.244l.16-.087c.283-.053.52-.184.8-.237a3.071,3.071,0,0,0,.839-.358l.16-.087c.239-.133.6-.227.841-.36l.157-.087a8.846,8.846,0,0,0,1.82-1.214,4.385,4.385,0,0,0,.865-.684,3.283,3.283,0,0,0,.708-.6.334.334,0,0,0,.193-.21,3.825,3.825,0,0,0,.621-.759,9.37,9.37,0,0,0,.619-.757c.15-.29.425-.546.575-.836a6.815,6.815,0,0,0,.525-1.117,5.216,5.216,0,0,0,.375-.829c.07-.247.22-.537.293-.783a1.361,1.361,0,0,0,.143-.493,3.949,3.949,0,0,0,.169-.82,7.542,7.542,0,0,0,.218-1.675,4.827,4.827,0,0,0,.046-.856,8.428,8.428,0,0,0-.056-1.419l-.01-.2-.6-5.79-4.888-.213-.123-.034.667,6.476a1.562,1.562,0,0,0,.06.483,3.672,3.672,0,0,1,0,.936.907.907,0,0,1-.1.573c-.073.247-.063.45-.135.7a4.743,4.743,0,0,1-.435,1.276,7.918,7.918,0,0,1-2.78,3.609l-.276.254-1.192.658-.6.227a.806.806,0,0,1-.442.14c-.16.087-.283.053-.44.14a1.337,1.337,0,0,1-.566.1,1.319,1.319,0,0,1-.563.1,7.218,7.218,0,0,1-3.343-.232,7.7,7.7,0,0,1-3.073-1.624c-.167-.116-.38-.309-.546-.425a2.635,2.635,0,0,1-.554-.626,2,2,0,0,1-.43-.592l-.087-.16a4.936,4.936,0,0,1-.79-1.431,10.023,10.023,0,0,1-.662-2.33l-.01-.2-.024-.609c-.007-.2.019-.529.012-.732.007.2.08-.044.116-.167A7.651,7.651,0,0,1,16.84,81.1a9.567,9.567,0,0,1,.522-1.117c.116-.169.189-.416.3-.583a4.416,4.416,0,0,1,.425-.546,1.3,1.3,0,0,1,.389-.421,8.411,8.411,0,0,1,1.1-1.02c.239-.133.353-.3.592-.43l1.194-.66a4.027,4.027,0,0,1,.882-.278l.08-.044c.283-.053.643-.147.926-.2a4.752,4.752,0,0,1,1.1-.085l.2-.01c.283-.051,12.7.464,12.7.464l14.78.67-.539.713c-.036.123-.2.21-.23.336l-.232.334-.15.29-.346.5c-.152.29-.266.457-.418.747a3.854,3.854,0,0,0-.336.706c-.073.247-.222.537-.295.783a7.24,7.24,0,0,0-.462,1.6,12.471,12.471,0,0,0-.324,3.181c.024.609.128,1.172.155,1.782l.155.848a2.669,2.669,0,0,0,.237.8c.051.283.184.522.278.885a13.777,13.777,0,0,0,.761,1.757,4.489,4.489,0,0,0,.6.907c.176.319.43.592.607.909a2.64,2.64,0,0,0,.554.629c.21.193.3.353.51.546l.59.505c.21.2.377.309.59.505a2.689,2.689,0,0,0,.667.459,2.668,2.668,0,0,1,.67.462l.67.459a5.16,5.16,0,0,1,.749.418,5.994,5.994,0,0,0,1.03.365,10.261,10.261,0,0,0,3.077.687,13.788,13.788,0,0,0,4.982-.363c.363-.1.805-.237,1.165-.331a5.294,5.294,0,0,0,1.078-.491,13.089,13.089,0,0,0,5.391-4.518,11.041,11.041,0,0,0,1.508-2.906,13.709,13.709,0,0,0,.853-5.035c.029-.326-.068-.689-.041-1.013a.323.323,0,0,0-.007-.2l-.157-.849c-.051-.283-.1-.566-.2-.928-.046-.08.034-.123-.01-.2a3.346,3.346,0,0,0-.278-.882l-.089-.16a17.961,17.961,0,0,0-.892-2,1.338,1.338,0,0,1-.6-.708M69.754,82.1l.22.4c.087.16.131.239.094.363a.806.806,0,0,1,.14.442,1.284,1.284,0,0,1,.1.563c.007.2.14.442.1.566a.705.705,0,0,1,.017.406l.024.609a1.947,1.947,0,0,1-.022.529,8.591,8.591,0,0,1-.761,3.324l-.452.87a7.509,7.509,0,0,1-1.629,1.936c.044.08-.2.213-.309.38a2.487,2.487,0,0,1-.67.467l-.8.44a5.2,5.2,0,0,1-1.564.551,9.228,9.228,0,0,1-2.345.256l-.2.007a1.913,1.913,0,0,1-.573-.1c-.249-.07-.452-.063-.7-.133a1.087,1.087,0,0,1-.616-.179,5.967,5.967,0,0,1-1.982-.774l-1-.689c-.167-.116-.377-.309-.544-.425a1.657,1.657,0,0,1-.467-.469,1.135,1.135,0,0,1-.343-.433,8.751,8.751,0,0,1-.824-1.308l-.351-.636a1.122,1.122,0,0,1-.184-.52c-.065-.242-.128-.483-.193-.725l-.155-.846-.044-.08c-.053-.283-.024-.609-.077-.892a7.585,7.585,0,0,1,.111-1.3,1.659,1.659,0,0,0,.092-.776L54,83.427a6.547,6.547,0,0,1,.365-1.032,1.536,1.536,0,0,0,.22-.537,3.6,3.6,0,0,1,.612-.96,8.175,8.175,0,0,1,1.479-1.644.8.8,0,0,1,.353-.3,1.77,1.77,0,0,1,.592-.43l1.351-.745a5.712,5.712,0,0,1,2.824-.52l.529.019c.2-.01.326.027.529.019a2.44,2.44,0,0,1,.943.205,2.13,2.13,0,0,1,.616.179,2.462,2.462,0,0,1,.66.256,7.433,7.433,0,0,1,1.16.6,8.579,8.579,0,0,1,3.181,3.324.365.365,0,0,1,.336.232Z" transform="translate(16.134 100.325)" fill="#1a5993"/>
        <path id="Path_237" data-name="Path 237" d="M27.835,63.534,28,63.65Z" transform="translate(39.454 90.054)" fill="#1a5993"/>
        <path id="Path_238" data-name="Path 238" d="M298.377,137.417l29.483,55.963a12.85,12.85,0,0,1-5.379,17.357l-55.088,29.021a12.85,12.85,0,0,1-17.357-5.379l-29.483-55.963a12.85,12.85,0,0,1,5.379-17.357l55.088-29.021a12.85,12.85,0,0,1,17.357,5.379" transform="translate(310.512 185.049)" fill="#fff"/>
        <path id="Path_239" data-name="Path 239" d="M253.146,178.94c-1.927.189-3.106-.585-3.433-2.265a2.348,2.348,0,0,1,.977-2.495,6.577,6.577,0,0,1,.892-.539q4.5-2.368,8.993-4.743a2.513,2.513,0,0,0,1.566-2.964,5.3,5.3,0,0,0-.471-1.119c-1.591-3.036-3.2-6.063-4.784-9.1a2.593,2.593,0,0,1,.7-3.6,2.54,2.54,0,0,1,.7-.334,2.587,2.587,0,0,1,3.041.759l5.8,11.009a2.168,2.168,0,0,0,.053.334,7.806,7.806,0,0,1-2.127,8.456c-.285.28-.6.534-.9.8Z" transform="translate(353.855 214.839)" fill="#1a5993"/>
        <path id="Path_240" data-name="Path 240" d="M248.093,179.463c-.392.094-.776.205-1.17.293a7.905,7.905,0,0,1-8.8-4.006c-1.724-3.208-3.406-6.438-5.1-9.665a2.7,2.7,0,1,1,4.687-2.7c.029.051.056.1.082.155,1.221,2.268,2.408,4.557,3.609,6.836.452.858.892,1.721,1.354,2.572a2.564,2.564,0,0,0,3.319,1.45,2.6,2.6,0,0,0,.529-.285c3.041-1.586,6.068-3.2,9.106-4.786a5.256,5.256,0,0,1,1.124-.467A2.459,2.459,0,0,1,259.6,170.1a2.554,2.554,0,0,1-.16,3.174c-.114.128-.225.261-.338.392Z" transform="translate(329.781 229.661)" fill="#1a5993"/>
        <path id="Path_241" data-name="Path 241" d="M266.584,152.976c.2,1.922-.58,3.1-2.27,3.43a2.355,2.355,0,0,1-2.461-.938,5.784,5.784,0,0,1-.544-.892q-2.375-4.493-4.745-9c-.716-1.356-1.712-1.9-2.944-1.612a4.855,4.855,0,0,0-1.122.469c-2.969,1.554-5.93,3.123-8.9,4.678a5.2,5.2,0,0,1-1.177.481,2.585,2.585,0,0,1-3.029-1.828,2.508,2.508,0,0,1,1.252-3.2c2.681-1.438,5.364-2.869,8.074-4.252a16.7,16.7,0,0,1,3.66-1.581,7.607,7.607,0,0,1,8.161,3,2.236,2.236,0,0,0,.244.234Z" transform="translate(339.056 196.288)" fill="#1a5993"/>
        <path id="Path_242" data-name="Path 242" d="M245.652,146.622c1.542-.812,3.082-1.629,4.627-2.437a2.584,2.584,0,0,1,3.59.7,2.669,2.669,0,0,1,.261.493q2.477,4.67,4.929,9.355a2.582,2.582,0,0,1-.725,3.575,2.632,2.632,0,0,1-.454.239q-4.692,2.5-9.409,4.958a2.571,2.571,0,0,1-3.556-.752,2.447,2.447,0,0,1-.22-.416q-2.516-4.718-4.985-9.462a2.569,2.569,0,0,1,.788-3.546,2.532,2.532,0,0,1,.418-.215c1.569-.836,3.152-1.663,4.731-2.492m.152,6.1,2.483,4.712L253,154.947l-2.478-4.707Z" transform="translate(339.197 203.74)" fill="#1a5993"/>
        <path id="Path_243" data-name="Path 243" d="M257.344,168.96l-4.576,2.41a2.619,2.619,0,0,1-3.648-.633,2.655,2.655,0,0,1-.3-.554q-2.451-4.62-4.876-9.256a2.616,2.616,0,0,1,.67-3.638,2.579,2.579,0,0,1,.561-.293q4.6-2.437,9.205-4.849a2.62,2.62,0,0,1,3.65.633,2.663,2.663,0,0,1,.319.609q2.415,4.573,4.82,9.152c.921,1.748.5,3.08-1.25,4.01q-2.292,1.2-4.579,2.41m-7.368-8.313,2.483,4.712,4.711-2.483-2.48-4.712Z" transform="translate(345.117 214.976)" fill="#1a5993"/>
        <path id="Path_244" data-name="Path 244" d="M234.288,161.813c-.812-1.542-1.629-3.082-2.437-4.627a2.612,2.612,0,0,1,.645-3.633,2.556,2.556,0,0,1,.568-.3q4.623-2.444,9.254-4.876a2.6,2.6,0,0,1,3.616.67,2.562,2.562,0,0,1,.28.527q2.466,4.645,4.9,9.307a2.594,2.594,0,0,1-.7,3.6,2.484,2.484,0,0,1-.488.259q-4.645,2.466-9.307,4.9a2.606,2.606,0,0,1-3.621-.682,2.75,2.75,0,0,1-.276-.52c-.819-1.54-1.624-3.087-2.437-4.629m10.789-2.676-2.49-4.726-4.7,2.475,2.49,4.728Z" transform="translate(327.962 209.661)" fill="#1a5993"/>
        <path id="Path_245" data-name="Path 245" d="M229.563,166.032q-1.208-2.288-2.413-4.579a7.969,7.969,0,0,1,3.022-10.857c.133-.075.268-.145.4-.213q4.725-2.509,9.467-4.985a2.638,2.638,0,0,1,4,1.9,2.368,2.368,0,0,1-1.02,2.584,7.326,7.326,0,0,1-.849.505q-4.5,2.371-9,4.75a2.516,2.516,0,0,0-1.545,2.978,5.577,5.577,0,0,0,.479,1.119q2.35,4.478,4.716,8.949a3.111,3.111,0,0,1,.459,2,2.858,2.858,0,0,1-2.4,2.236,2.485,2.485,0,0,1-2.664-1.351c-.9-1.67-1.777-3.358-2.662-5.038Z" transform="translate(320.504 205.536)" fill="#1a5993"/>
        <path id="Path_246" data-name="Path 246" d="M238.331,166.54c-.624-1.182-1.259-2.359-1.869-3.549a2.675,2.675,0,0,1,2.106-4.027,2.372,2.372,0,0,1,2.27.887,4.054,4.054,0,0,1,.483.723c1.214,2.294,2.437,4.583,3.629,6.89a2.656,2.656,0,0,1-1.825,4.09,2.5,2.5,0,0,1-2.862-1.373c-.662-1.2-1.286-2.43-1.929-3.648Z" transform="translate(334.636 225.271)" fill="#1a5993"/>
        <path id="Path_247" data-name="Path 247" d="M243.785,161.683a17.822,17.822,0,0,1-1.854.817,2.47,2.47,0,0,1-3.053-1.453,2.389,2.389,0,0,1,.677-3.21,20.957,20.957,0,0,1,3.2-1.745,2.5,2.5,0,0,1,3.324,1.189c.022.051.046.1.065.152a2.553,2.553,0,0,1-.989,3.471l-.06.031c-.433.261-.892.469-1.337.7l.022.041" transform="translate(338.09 220.905)" fill="#1a5993"/>
        <path id="Path_248" data-name="Path 248" d="M242.029,164.059a18.357,18.357,0,0,1-.817-1.854,2.481,2.481,0,0,1,1.417-3.027,2.408,2.408,0,0,1,3.225.629,21.082,21.082,0,0,1,1.777,3.251,2.49,2.49,0,0,1-1.192,3.312c-.053.024-.109.048-.164.07a2.557,2.557,0,0,1-3.469-1.013l-.027-.051c-.256-.433-.469-.89-.7-1.334l-.039.019" transform="translate(341.737 225.102)" fill="#1a5993"/>
        <path id="Path_249" data-name="Path 249" d="M128.817,47.364A29.814,29.814,0,1,0,85.746,52.82L99.114,63.853a12.412,12.412,0,0,0,17.463-1.663ZM112.751,59.03a7.441,7.441,0,0,1-10.477,1l0,0L88.906,48.993a24.936,24.936,0,0,1-9.034-18.205,24.575,24.575,0,0,1,7.593-18.851,24.918,24.918,0,0,1,30.4-3.082,26.412,26.412,0,0,1,2.618,1.9,24.649,24.649,0,0,1,8.579,14.478,24.906,24.906,0,0,1-4.226,19.156Z" transform="translate(106.16 0.001)" fill="#1a5993"/>
        <path id="Path_250" data-name="Path 250" d="M86.4,10.185l8.342,6.885a2.7,2.7,0,0,0,3.442-4.17L89.844,6.015a2.7,2.7,0,1,0-3.442,4.17" transform="translate(121.073 7.648)" fill="#1a5993"/>
        <path id="Path_251" data-name="Path 251" d="M103.748,22.769,87.065,9a2.7,2.7,0,1,0-3.442,4.172l16.683,13.77a2.7,2.7,0,1,0,3.442-4.17" transform="translate(117.133 11.875)" fill="#1a5993"/>
        <path id="Path_252" data-name="Path 252" d="M101.158,25.907,84.475,12.135a2.7,2.7,0,1,0-3.442,4.172l16.683,13.77a2.7,2.7,0,1,0,3.442-4.17" transform="translate(113.462 16.323)" fill="#1a5993"/>
      </g>
    </g>
  </g>
</svg>
