<?xml version="1.0" encoding="UTF-8"?>
<svg id="Layer_1" data-name="Layer 1" xmlns="http://www.w3.org/2000/svg" viewBox="0 0 300 300">
  <defs>
    <style>
      .cls-1 {
        fill: #fff;
      }

      .cls-2 {
        fill: #166da2;
      }
    </style>
  </defs>
  <circle class="cls-1" cx="150" cy="150" r="145.5"/>
  <g>
    <g>
      <path class="cls-2" d="m160.08,81.16c3.17,1.08,3.79,3.98,4.71,6.65.25.74-.34.75-.84.76-1.74.05-3.5-.17-5.23.12-6.99,1.19-11.28,6.23-11.38,13.38-.04,2.75-.04,5.5,0,8.25.01.95-.32,1.31-1.29,1.31-11.62-.02-23.23-.02-34.85,0-.79,0-1.19-.33-1.43-1.04-.63-1.81-1.33-3.6-1.96-5.42-1.14-3.31.22-6.12,3.51-7.32,14.64-5.33,29.29-10.65,43.93-15.98.57-.21,1.12-.48,1.68-.72,1.05,0,2.1,0,3.14,0Z"/>
      <path class="cls-2" d="m226.63,176.53c-.97,2.13-2.69,2.92-4.96,2.91-8.12-.03-16.23,0-24.35-.02-6.5-.02-11.27-3.76-12.52-9.73-1.47-6.97,3.97-14.04,11.11-14.15,8.9-.14,17.8-.04,26.71-.04,1.93,0,3.14,1.09,4.01,2.69v18.34Zm-30.16-12.81c-2.1.01-3.75,1.63-3.78,3.71-.02,1.96,1.77,3.76,3.77,3.78,1.99.02,3.81-1.73,3.84-3.71.04-2.1-1.68-3.79-3.84-3.78Z"/>
      <path class="cls-2" d="m153.66,215.4c-16.85,0-33.71,0-50.56,0-5.33,0-9.51-3.4-10.55-8.58-.17-.85-.16-1.74-.16-2.61,0-24.58.07-49.17-.07-73.75-.03-5.18,3.48-11.29,11.26-11.33.22,0,.44,0,.65,0,32.97,0,65.93,0,98.9,0,4.03,0,7.49,1.17,9.89,4.59,1.21,1.72,1.9,3.62,1.9,5.75,0,5.68-.03,11.35.02,17.03.01,1.17-.43,1.51-1.53,1.5-5.55-.03-11.09.1-16.64-.04-9.03-.24-17.54,6.28-19.46,15.81-2.15,10.68,5.59,21.6,16.43,22.94,4.13.51,8.28.14,12.43.23,2.49.05,4.98.04,7.47,0,.96-.01,1.3.34,1.3,1.3-.03,5.76.04,11.53-.04,17.29-.07,5.27-4.8,9.85-10.16,9.86-11.83.04-23.67.02-35.5.02-5.2,0-10.39,0-15.59,0Z"/>
      <path class="cls-2" d="m177.98,111.63c-7.11,0-14.22-.02-21.33.02-1.22,0-1.7-.32-1.66-1.61.08-2.83,0-5.67.03-8.51.02-2.84,1.79-4.85,4.61-5.3.51-.08,1.04-.14,1.56-.15,11.21,0,22.42,0,33.63,0,.61,0,1.22.07,1.82.18,2.56.44,4.36,2.5,4.39,5.1.04,2.88-.04,5.76.04,8.64.03,1.25-.36,1.66-1.63,1.65-7.15-.05-14.31-.02-21.46-.02Z"/>
    </g>
    <path class="cls-1" d="m157.61,136.38c.74.48.93,1.18.92,2.01-.02,1.22,0,2.44,0,3.66,0,1.46-.56,2.03-2.02,2.04-3.09.01-6.18,0-9.27,0-.22,0-.52-.13-.63.11-.09.18.16.37.27.53,1.03,1.51,1.76,3.16,2.17,4.94.16.68.47.85,1.12.84,2.1-.04,4.21-.02,6.31,0,.35,0,.72.03,1.06.12.63.18.99.64,1.04,1.29.12,1.64.13,3.28,0,4.91-.08,1.01-.61,1.42-1.64,1.43-2.27.01-4.54.02-6.81,0-.51,0-.73.15-.83.68-.63,3.34-2.05,6.3-4.42,8.77-2.1,2.2-4.62,3.75-7.46,4.82-2.05.77-4.18,1.22-6.46,1.55.76.85,1.45,1.63,2.15,2.39,6.01,6.59,11.69,13.46,17.35,20.35.48.58.96,1.17,1.44,1.76.4.49.46,1.02.19,1.59-.28.6-.74.88-1.4.88-2.97,0-5.93,0-8.9,0-.57,0-.99-.25-1.35-.68-4.28-5.11-8.58-10.2-12.96-15.22-3.1-3.55-6.24-7.05-9.46-10.5-.54-.58-.79-1.21-.78-1.99.02-1.54,0-3.07,0-4.61,0-1.62.55-2.16,2.15-2.17,2.37-.02,4.75.09,7.12-.12,3.12-.27,6.11-.92,8.68-2.86,1.36-1.03,2.33-2.35,2.9-3.97.22-.63.2-.67-.48-.67-6.1,0-12.2,0-18.3,0-.38,0-.76.05-1.12-.11-.47-.21-.8-.56-.85-1.09-.17-1.72-.16-3.44-.02-5.16.07-.82.52-1.2,1.35-1.33.31-.05.63-.06.94-.06,5.64,0,11.27,0,16.91,0,.15,0,.29,0,.44,0,.49.02.62-.13.32-.57-.71-1.07-1.62-1.92-2.75-2.55-1.99-1.11-4.15-1.57-6.39-1.76-2.92-.24-5.84-.09-8.76-.12-1.56-.02-2.13-.57-2.14-2.13,0-1.68,0-3.36,0-5.05,0-.82.19-1.55,1.02-1.94h39.37Z"/>
  </g>
</svg>