<svg id="Layer_1" data-name="Layer 1" xmlns="http://www.w3.org/2000/svg" xmlns:xlink="http://www.w3.org/1999/xlink" viewBox="0 0 400 216"><defs><style>.cls-1{fill:#f5f5f5;}.cls-2{fill:#e0e0e0;}.cls-3{fill:#ebebeb;}.cls-4{fill:#fff;}.cls-5{fill:url(#linear-gradient);}.cls-6{opacity:0.4;}.cls-7{fill:#b78876;}.cls-8{fill:#aa6550;}.cls-9{fill:#263238;}.cls-10{fill:#455a64;}.cls-11{fill:#fafafa;}.cls-12{opacity:0.2;}.cls-13{fill:url(#linear-gradient-2);}.cls-14{fill:#ffbe9d;}.cls-15{fill:#eb996e;}</style><linearGradient id="linear-gradient" x1="385.71" y1="146.93" x2="253.58" y2="146.93" gradientUnits="userSpaceOnUse"><stop offset="0" stop-color="#00ffaf"/><stop offset="0.06" stop-color="#00edad"/><stop offset="0.32" stop-color="#00a6a7"/><stop offset="0.55" stop-color="#006ea2"/><stop offset="0.75" stop-color="#00469f"/><stop offset="0.91" stop-color="#002d9d"/><stop offset="1" stop-color="#00249c"/></linearGradient><linearGradient id="linear-gradient-2" x1="28.09" y1="100.06" x2="193.98" y2="100.06" xlink:href="#linear-gradient"/></defs><g id="freepik--background-complete--inject-179"><path class="cls-1" d="M392.1,43.63s-4.69-2.86-9.87,8.29a142.79,142.79,0,0,0-7.07,17.53s-1.39,2.35-3,.9-3.92-5.6-6.59-4.75-3.55,4-2.85,8.56,1.84,14.52,1.95,15.42S364.29,91.83,363,91s-8.67-8.47-12.1-4.75.56,16,1,17.38.16,1.94-.47,2.31-2.89-2.45-5.05-4.55-5.1-4.13-6.9-1.82-2.06,11.68,7.37,26.52l4.82,6.59,8.17-.75c17.37-2.67,24.24-9,24.8-11.9s-2.89-3.73-5.9-4-6.62-.12-6.76-.83.13-1.3,1.43-1.88,13.19-5.66,13.74-10.7-10.08-5.55-11.52-6-.75-1.65,0-2.16,9-6.22,12.89-8.68,5.64-5.11,4.52-7.77-5.76-1.55-7.91-1.83-1.31-2.87-1.31-2.87a139.83,139.83,0,0,0,8.55-16.85c5-11.25-.4-12.89-.4-12.89"/><path class="cls-2" d="M387.45,53.6a1.31,1.31,0,0,1-.09.24l-.29.7-1.16,2.67c-1,2.31-2.48,5.65-4.33,9.77-3.69,8.24-8.88,19.57-14.65,32.07s-11,23.83-14.74,32.05l-4.41,9.74-1.2,2.64c-.14.29-.25.52-.32.69a1.27,1.27,0,0,1-.12.23q0-.14.09-.24c.08-.17.17-.4.29-.7.27-.62.67-1.52,1.16-2.67,1-2.31,2.49-5.65,4.33-9.77,3.69-8.23,8.88-19.57,14.65-32.07s11-23.83,14.73-32l4.41-9.73,1.2-2.65c.14-.29.24-.52.32-.69S387.45,53.6,387.45,53.6Z"/><path class="cls-2" d="M368.55,71.57a2.13,2.13,0,0,1,.23.56c.13.35.31.87.52,1.51.42,1.3.95,3.09,1.5,5.09l1.38,5.11.43,1.55a2.08,2.08,0,0,1,.13.56,2.45,2.45,0,0,1-.23-.56c-.14-.36-.31-.88-.52-1.53-.4-1.29-.91-3.1-1.46-5.09l-1.42-5.1-.43-1.54A2.83,2.83,0,0,1,368.55,71.57Z"/><path class="cls-2" d="M373.49,86.06c0-.07,3.64-1.33,8.17-2.8s8.23-2.63,8.26-2.55-3.64,1.33-8.17,2.8S373.52,86.14,373.49,86.06Z"/><path class="cls-2" d="M363.76,104.86a3,3,0,0,1,.6,0l1.64,0c1.38-.06,3.29-.13,5.39-.29s4-.35,5.38-.51l1.63-.19a3,3,0,0,1,.6,0,2.7,2.7,0,0,1-.56.14c-.38.07-.93.17-1.62.27-1.36.21-3.27.44-5.38.6s-4,.2-5.41.2c-.69,0-1.25,0-1.64,0A2.25,2.25,0,0,1,363.76,104.86Z"/><path class="cls-2" d="M356.41,92.73a2.36,2.36,0,0,1,.33.45c.2.29.5.72.84,1.26.7,1.07,1.65,2.56,2.68,4.21s2,3.16,2.61,4.26l.77,1.31a2.34,2.34,0,0,1,.25.5,1.79,1.79,0,0,1-.34-.44q-.32-.45-.84-1.26c-.7-1.07-1.65-2.56-2.68-4.22s-2-3.16-2.62-4.26c-.32-.56-.56-1-.76-1.31A2.1,2.1,0,0,1,356.41,92.73Z"/><path class="cls-2" d="M345.7,108.24a3,3,0,0,1,.43.56l1.08,1.61c.9,1.37,2.13,3.27,3.48,5.38s2.55,4,3.41,5.42l1,1.68a3.78,3.78,0,0,1,.33.63A3.33,3.33,0,0,1,355,123l-1.08-1.62c-.9-1.37-2.13-3.27-3.48-5.38s-2.54-4-3.4-5.42c-.41-.66-.74-1.22-1-1.68A4.19,4.19,0,0,1,345.7,108.24Z"/><path class="cls-2" d="M355.31,123.08a4.78,4.78,0,0,1,.76-.09l2.07-.14c1.75-.13,4.17-.31,6.83-.56s5-.56,6.81-.81l2.06-.27a4.88,4.88,0,0,1,.76-.07,3.8,3.8,0,0,1-.74.18c-.48.09-1.18.22-2.05.36-1.73.28-4.14.62-6.81.89s-5.09.42-6.85.49c-.88,0-1.58.06-2.08.06A3.92,3.92,0,0,1,355.31,123.08Z"/><path class="cls-3" d="M58.35,98.84c13.08-8.73,16.25-25.22,16-40.13,0-2.48.27-5.1-.9-7.28s-3.92-3.73-6.2-2.72c-1.88.84-2.73,3-3.8,4.74a14.7,14.7,0,0,1-6,5.47c-1.62.8-3.61,1.27-5.17.38-2.16-1.21-2.37-4.17-2.31-6.64l.3-13.81a22.69,22.69,0,0,0-.65-7.36,7.68,7.68,0,0,0-4.79-5.25c-2.37-.69-5.34.62-5.88,3a20.91,20.91,0,0,0-.12,3.07,2.55,2.55,0,0,1-1.58,2.43,3.08,3.08,0,0,1-2.73-1.18,32.92,32.92,0,0,1-5.83-9,46.43,46.43,0,0,0-5.43-9.27c-2.3-2.75-5.52-5-9.1-5.22S6.73,12,5.75,15.48s1,7,3.24,9.88A55.52,55.52,0,0,0,20.46,36.44a4.5,4.5,0,0,1,1.92,2.09c.52,1.68-1.09,3.27-2.75,3.79-1.87.56-3.92.37-5.85.56s-4.08,1-4.85,2.8c-1.06,2.51,1,5.19,3.12,7a48,48,0,0,0,14,8.28,16.08,16.08,0,0,1,5.22,2.6c1.46,1.3,2.33,3.53,1.41,5.26S29.45,71,27.53,70.65s-3.64-1.44-5.46-2.15c-3.43-1.33-7.85-1.17-10.12,1.74a7.71,7.71,0,0,0-.95,6.9,17.85,17.85,0,0,0,3.7,6.16A48.13,48.13,0,0,0,35,97.87c7.94,2.86,15.32,3.7,23.29,1"/><path class="cls-2" d="M57.35,99.12c-2.1-7.54-7.85-25.27-11.3-33.62l-2.56-6.17c-.84-2-1.68-4-2.63-5.93a110.55,110.55,0,0,0-6-10.65c-2.09-3.31-4.2-6.37-6.16-9.22s-3.93-5.46-5.76-7.78a89,89,0,0,0-9.53-10.26c-1.22-1.12-2.19-2-2.86-2.52l-.79-.68-.27-.21.24.23.74.67c.65.56,1.6,1.43,2.8,2.57a94,94,0,0,1,9.42,10.32c1.83,2.32,3.72,4.94,5.71,7.79s4.07,5.91,6.16,9.22a111.34,111.34,0,0,1,6,10.64c.93,1.91,1.77,3.93,2.62,5.93s1.68,4.08,2.56,6.16C49.13,74,54.89,91.67,57,99.19"/><path class="cls-2" d="M40.75,53.36A5.6,5.6,0,0,0,41,52.3c.14-.68.31-1.68.5-2.9.38-2.46.8-5.86,1.26-9.62s.93-7.15,1.37-9.6c.21-1.22.39-2.21.56-2.88a7.69,7.69,0,0,0,.17-1.07,5.31,5.31,0,0,0-.31,1c-.19.67-.41,1.68-.66,2.88-.54,2.43-1.05,5.83-1.5,9.61s-.85,7.1-1.15,9.63c-.15,1.18-.28,2.16-.38,2.92A5.36,5.36,0,0,0,40.75,53.36Z"/><path class="cls-2" d="M8.66,46.94A1.61,1.61,0,0,0,9,47l.95.09c.83.08,2,.2,3.49.38,2.94.35,7,1,11.43,1.87s8.41,1.9,11.27,2.7c1.43.39,2.58.74,3.36,1l.92.27a1.14,1.14,0,0,0,.33.08,1,1,0,0,0-.31-.14l-.89-.34c-.78-.28-1.93-.67-3.37-1.12-2.84-.87-6.82-1.91-11.26-2.8a113.79,113.79,0,0,0-11.45-1.75C12,47.06,10.78,47,10,47H9A1.22,1.22,0,0,0,8.66,46.94Z"/><path class="cls-2" d="M54.22,88.86a1.87,1.87,0,0,0,.22-.39L55,87.35c.48-1,1.12-2.45,2-4.26,1.6-3.62,3.66-8.68,5.86-14.3S67,58.08,68.56,54.43l1.83-4.3c.21-.48.37-.87.5-1.17a2.41,2.41,0,0,0,.16-.42,1.11,1.11,0,0,0-.22.38L70.27,50c-.49,1-1.15,2.46-2,4.26-1.6,3.62-3.66,8.69-5.86,14.31S58.24,79.3,56.7,82.94l-1.84,4.31-.49,1.17A1.76,1.76,0,0,0,54.22,88.86Z"/><path class="cls-2" d="M11.66,74.62a2.26,2.26,0,0,0,.43.17l1.23.42,4.57,1.53c3.85,1.29,9.14,3.13,15,5.18S44,85.78,47.92,87c1.93.61,3.5,1.09,4.59,1.4l1.26.36a2.42,2.42,0,0,0,.45.1,3.25,3.25,0,0,0-.43-.18l-1.23-.42L48,86.75c-3.85-1.29-9.14-3.13-15-5.18s-11.16-3.86-15-5.08c-1.94-.61-3.51-1.1-4.6-1.41l-1.26-.36A2.11,2.11,0,0,0,11.66,74.62Z"/><path class="cls-1" d="M273.55,12.49H344.2l-13.82,9.83v8.2A15.27,15.27,0,0,1,315,45.69H270.64a15.28,15.28,0,0,1-15.4-15.17h0a18.17,18.17,0,0,1,18.3-18Z"/><path class="cls-2" d="M318.46,23.46c0,.08-11.77.15-26.34.15s-26.34-.07-26.34-.15,11.77-.14,26.34-.14S318.46,23.38,318.46,23.46Z"/><path class="cls-2" d="M318.46,28.92c0,.08-11.77.15-26.34.15s-26.34-.07-26.34-.15,11.77-.15,26.34-.15S318.46,28.84,318.46,28.92Z"/><path class="cls-1" d="M166.35,180.66H82.74l13.62,9.85v19.34a4,4,0,0,0,4,4h65.95a4,4,0,0,0,4-4h0V184.69A4,4,0,0,0,166.35,180.66Z"/><path class="cls-2" d="M162.86,194.32c0,.09-12.61.15-28.16.15s-28.16-.06-28.16-.15,12.6-.14,28.16-.14S162.86,194.24,162.86,194.32Z"/><path class="cls-2" d="M162.86,201.75c0,.08-12.61.14-28.16.14s-28.16-.06-28.16-.14,12.6-.15,28.16-.15S162.86,201.67,162.86,201.75Z"/></g><g id="freepik--character-2--inject-179"><rect class="cls-4" x="217.47" y="85.37" width="141.33" height="123.12" rx="21.74"/><rect class="cls-5" x="217.47" y="85.37" width="141.33" height="123.12" rx="21.74"/><polygon class="cls-4" points="358.76 128.29 379.93 128.29 358.28 149.94 358.76 128.29"/><g class="cls-6"><polygon points="358.76 128.29 379.93 128.29 358.28 149.94 358.76 128.29"/></g><path class="cls-7" d="M214.08,141.6l-8.87-10.09c-2.4-2.4-3.22-3.55-2.74-4,.64-.56.37-.38,5.35,3.36,0,0-7.06-5.4-4.61-5.43a9.59,9.59,0,0,1,2.91,1.54c-1.75-1.49-2.24-2.49-1.9-3,.56-.83,4.89,2.17,6.88,3.61a46.77,46.77,0,0,1-5.27-4.3c-.75-1,.77-.92,2-.5s9,4.37,11.3,5.38a1.45,1.45,0,0,0,2-.5,2.12,2.12,0,0,0,.11-.21c.83-3.51,3.36-5.79,4.32-6.09a1.11,1.11,0,0,1,1,1.84,13.24,13.24,0,0,0-1.49,3.35,8.75,8.75,0,0,0-.45,2.87c0,1.12.08,2.09.15,2.91l8.11,11.12-13.56,7.85Z"/><path class="cls-8" d="M210.91,132.47a16.37,16.37,0,0,1-3.52-2.42,15.89,15.89,0,0,1-3.16-2.87,31.64,31.64,0,0,1,6.68,5.29Z"/><path class="cls-8" d="M212.63,130.7a18.71,18.71,0,0,1-3.9-2.37,19.14,19.14,0,0,1-3.57-2.83,18.47,18.47,0,0,1,3.89,2.36A18.76,18.76,0,0,1,212.63,130.7Z"/><path class="cls-8" d="M213.88,128.82a17,17,0,0,1-3.72-2.18,16.25,16.25,0,0,1-3.41-2.66,17,17,0,0,1,3.72,2.18A16.3,16.3,0,0,1,213.88,128.82Z"/><path class="cls-7" d="M225.55,133.9l32.32,41-7.4,17.23s-8.87-2-11.56-5.69-24.83-44.84-24.83-44.84Z"/><path class="cls-9" d="M307.61,76.56c2.32,2,2.32,5.57,2.05,8.64s-.48,6.55,1.65,8.78c1.75,1.84,4.93,2.64,5.33,5.15a2.88,2.88,0,0,1-2.39,3.31,2.91,2.91,0,0,1-2.38-.69,5,5,0,0,1-1.5,5.65c-1.72,1.19-4.59.45-5.12-1.57a2.54,2.54,0,0,1-4.92,1.27c0-.12-.05-.24-.07-.36"/><path class="cls-9" d="M274.3,97.25a3.07,3.07,0,0,1-5.66-2.36h0c.53-1.16,1.79-2,1.92-3.28.14-1.54-1.43-2.65-2.81-3.32s-3-1.55-3.18-3.09,1.19-2.66,2.3-3.65,2.24-2.55,1.53-3.88c-.35-.68-1.08-1.07-1.56-1.68a3.33,3.33,0,0,1,.84-4.48,6.21,6.21,0,0,1,4.86-.89,43.86,43.86,0,0,1,4.86,1.48A20.34,20.34,0,0,0,293.57,70"/><path class="cls-7" d="M284.22,133.39a11.26,11.26,0,0,0,13.23-8.63L305.4,88.3a16.18,16.18,0,0,0-12-19.46l-.44-.1-.83-.12a16.28,16.28,0,0,0-18.24,12.47c-1.78,7.69-3.63,16.22-4.19,20.4-1.16,8.67,7.28,11.29,7.28,11.29l-1.51,7.28a11.25,11.25,0,0,0,8.73,13.31h.06Z"/><path class="cls-9" d="M275.4,86.83a1.26,1.26,0,0,0,1,1.42,1.2,1.2,0,0,0,1.43-.9v0a1.25,1.25,0,0,0-1-1.43,1.19,1.19,0,0,0-1.43.9Z"/><path class="cls-9" d="M275.08,85.59c.13.19,1.17-.37,2.5-.17s2.21,1,2.37.86,0-.37-.4-.74a3.37,3.37,0,0,0-1.88-.89,3.26,3.26,0,0,0-2,.33C275.2,85.24,275,85.51,275.08,85.59Z"/><path class="cls-9" d="M288.4,89a1.24,1.24,0,0,0,1,1.42,1.2,1.2,0,0,0,1.43-.9v0a1.24,1.24,0,0,0-1-1.42,1.19,1.19,0,0,0-1.42.89Z"/><path class="cls-9" d="M288.12,87.76c.13.18,1.17-.38,2.49-.18s2.21,1,2.38.87,0-.38-.41-.75a3.51,3.51,0,0,0-1.88-.89,3.26,3.26,0,0,0-2,.34C288.25,87.39,288.05,87.67,288.12,87.76Z"/><path class="cls-9" d="M281.85,96.91a9.38,9.38,0,0,0-2.1-.7c-.34-.09-.65-.2-.67-.44a1.68,1.68,0,0,1,.37-1c.44-.78.91-1.59,1.38-2.44a47,47,0,0,0,3.25-6.44,48.41,48.41,0,0,0-3.76,6.17L279,94.54a2.08,2.08,0,0,0-.37,1.32.88.88,0,0,0,.49.56,2.58,2.58,0,0,0,.56.16A9,9,0,0,0,281.85,96.91Z"/><path class="cls-9" d="M288.53,82.49c.08.39,1.44.41,3,.82s2.73,1,3,.74c.11-.14-.06-.52-.51-.94a5.34,5.34,0,0,0-4.54-1.18C288.81,82.07,288.51,82.34,288.53,82.49Z"/><path class="cls-9" d="M276.14,81.82c.19.33,1.12.15,2.24.3s2,.5,2.24.22,0-.47-.35-.82a3.3,3.3,0,0,0-3.64-.41C276.23,81.36,276.05,81.65,276.14,81.82Z"/><path class="cls-9" d="M297.4,77.43l0,0a6.85,6.85,0,0,1,1.89,4.77v.18c0,2.52-.46,5-.45,7.54a11.41,11.41,0,0,0,2.06,7.11c.65.81,1.9,1.48,2.64.75a2.15,2.15,0,0,0,.47-1.08c1.34-5.89,3.74-10.94,4.64-17.17a5.34,5.34,0,0,0-1.56-4.6c-1.16-1.12-2.61-2.33-4.16-1.85s-3.83,2.91-5.12,3.92"/><path class="cls-7" d="M301.91,91.79c.15-.05,6.2-.89,5.14,5s-6.72,3.61-6.72,3.44S301.91,91.79,301.91,91.79Z"/><path class="cls-8" d="M302.52,98.32a1.93,1.93,0,0,0,.25.2,1,1,0,0,0,.77.15,2.56,2.56,0,0,0,1.58-2.06,3.54,3.54,0,0,0,0-1.52,1.24,1.24,0,0,0-.63-.93.53.53,0,0,0-.66.18c-.11.14-.09.27-.12.27s-.11-.12,0-.35a.63.63,0,0,1,.29-.33.83.83,0,0,1,.6-.05,1.51,1.51,0,0,1,.91,1.12,3.67,3.67,0,0,1,.06,1.68A2.71,2.71,0,0,1,303.62,99a1.12,1.12,0,0,1-.92-.32C302.51,98.46,302.5,98.33,302.52,98.32Z"/><path class="cls-9" d="M303,74.08c1.81-2.16-1.68-6.14-4.48-7.49s-6.84-.49-9.89,0c-1.92.34-3.87.92-5.79.56a13.16,13.16,0,0,1-3.61-1.51,9.76,9.76,0,0,0-3.66-1.28,3.6,3.6,0,0,0-3.4,1.52,2.26,2.26,0,0,0,1.05,3.24,2.93,2.93,0,1,0-3.55,4.67,2.85,2.85,0,0,0,2,.59c-.75-.76-2.2.11-2.25,1.18a3.1,3.1,0,0,0,1.69,2.53c2.3,1.45,5.22,1.52,7.9,1s5.25-1.48,7.92-2,7.14-1.59,9.55-.32c1.77.93,2.75,3.36,3.88,3a3.66,3.66,0,0,0,2.24-2.39,10.58,10.58,0,0,0,.37-3.36"/><path class="cls-10" d="M314.55,101.4a.87.87,0,0,0,.31-.14,1.71,1.71,0,0,0,.64-.72,2.59,2.59,0,0,0,.19-1.53,3.08,3.08,0,0,0-1.06-1.73,7.49,7.49,0,0,0-2.12-1.23,14.18,14.18,0,0,1-2.48-1.2,5,5,0,0,1-1.8-2.34,8.24,8.24,0,0,1-.52-3.18c.05-2.25.68-4.35.83-6.33a8.36,8.36,0,0,0-.94-5.11,4.76,4.76,0,0,0-2.81-2.1,3,3,0,0,0-1-.1,1.27,1.27,0,0,0-.34,0,5,5,0,0,1,1.27.16,4.71,4.71,0,0,1,2.64,2.1,8,8,0,0,1,.85,5c-.19,1.94-.79,4-.86,6.34a8.26,8.26,0,0,0,.56,3.3,5.29,5.29,0,0,0,1.92,2.46,15.1,15.1,0,0,0,2.54,1.2,7.59,7.59,0,0,1,2.08,1.16,2.94,2.94,0,0,1,1,1.6,2.44,2.44,0,0,1-.13,1.44A2,2,0,0,1,314.55,101.4Z"/><path class="cls-10" d="M273.05,69a.94.94,0,0,0-.26-.14,1.27,1.27,0,0,0-.32-.13,2.81,2.81,0,0,0-.48-.12,3.52,3.52,0,0,0-3,.91h0a4.69,4.69,0,0,0-1,3.51,5.81,5.81,0,0,0,2.16,4,9,9,0,0,0,4.9,2,20,20,0,0,0,5.82-.35,26.43,26.43,0,0,0,8.57-3.32A26.34,26.34,0,0,1,293,73.52a9.25,9.25,0,0,1,3.36-.69A10.07,10.07,0,0,1,301.16,74a15.8,15.8,0,0,1,1.56,1,6.88,6.88,0,0,0-1.51-1.12,9.84,9.84,0,0,0-4.89-1.25,9.5,9.5,0,0,0-3.45.67,25.14,25.14,0,0,0-3.58,1.83,26.32,26.32,0,0,1-8.5,3.25,19.7,19.7,0,0,1-5.73.37,8.88,8.88,0,0,1-4.76-1.88A5.63,5.63,0,0,1,268.19,73a4.55,4.55,0,0,1,1-3.36h0a3.47,3.47,0,0,1,2.84-.94A5.69,5.69,0,0,1,273.05,69Z"/><path class="cls-10" d="M276.33,64.12a3.37,3.37,0,0,0,.21,1.33,5.54,5.54,0,0,0,2.32,2.8,7.08,7.08,0,0,0,2.34,1,9.54,9.54,0,0,0,2.92.15,38,38,0,0,0,6.47-1.44,13.09,13.09,0,0,1,6.46-.37,8.44,8.44,0,0,1,4.4,2.86,8.76,8.76,0,0,1,1.68,3.16c.22.82.25,1.3.29,1.3a2,2,0,0,0,0-.35,6.46,6.46,0,0,0-.16-1,8.53,8.53,0,0,0-1.63-3.27,8.62,8.62,0,0,0-4.49-3,13,13,0,0,0-6.6.35,40,40,0,0,1-6.42,1.46,9.65,9.65,0,0,1-2.84-.12,6.78,6.78,0,0,1-2.29-.91,5.6,5.6,0,0,1-2.32-2.65A8.28,8.28,0,0,1,276.33,64.12Z"/><path class="cls-8" d="M279.19,101.31a6.62,6.62,0,0,0,.46,1.69,2.09,2.09,0,0,0,1.26,1.12,1.87,1.87,0,0,0,1.68-.51,3,3,0,0,0,.79-1.65c.09-.56,0-1.26-.56-1.44a1.35,1.35,0,0,0-.69,0l-3.11.56"/><path class="cls-9" d="M279.74,103.67a4.25,4.25,0,0,0,1.54.29,2.2,2.2,0,0,0,1.45-.66,2.33,2.33,0,0,0,.62-1.81,2.13,2.13,0,0,0-.11-.5c-.07-.15-.05-.14-.18-.15a1.76,1.76,0,0,0-.5,0l-.52,0-1.79.11a5.26,5.26,0,0,1-1.68,0,5.64,5.64,0,0,1,1.63-.34l1.78-.22.51-.06.56-.05a.76.76,0,0,1,.41.15.71.71,0,0,1,.23.34,2.23,2.23,0,0,1,.15.63,2.78,2.78,0,0,1-.8,2.2,2.55,2.55,0,0,1-1.78.69A2.39,2.39,0,0,1,280,104C279.85,103.83,279.72,103.69,279.74,103.67Z"/><path class="cls-8" d="M277,112.78s5.65,2.14,11.14.56c0,0-4.14,3.48-11.71,2.14Z"/><path class="cls-11" d="M285.58,193.13a5.77,5.77,0,0,1-.78-.6l-.9-.69c-.34-.26-.76-.56-1.23-.87s-1-.64-1.55-1-1.19-.66-1.84-1a28.78,28.78,0,0,0-9.15-2.73c-.73-.08-1.43-.17-2.09-.19s-1.26,0-1.82,0-1.06,0-1.5.06-.83,0-1.13.08a6.24,6.24,0,0,1-1,.07,8.1,8.1,0,0,1,1-.18,10.71,10.71,0,0,1,1.12-.14c.45,0,.95-.09,1.52-.09s1.17,0,1.84,0,1.36.09,2.1.15a30.44,30.44,0,0,1,4.74,1,29.38,29.38,0,0,1,4.49,1.79c.65.34,1.29.66,1.84,1s1.08.68,1.54,1,.87.64,1.22.9.64.53.87.74A5.87,5.87,0,0,1,285.58,193.13Z"/><path class="cls-4" d="M252.64,164.34l4.59-19.91c1.76-7.49,3.85-14.68,7.35-15.54v2.32l-1.5,56.89s-9.37,10.65-21.3,4.74C238.05,191,231.24,178,231.24,178s-15.84-28.27-15.18-29.56S226.4,134.64,227.38,134Z"/><path class="cls-4" d="M299.93,123.26c9.13,1.74,19.42,7.07,24.15,20.73,1.73,5,14.31,41.76,14.31,41.76l-21.45-.45-3.47-7.57,1.69,12.3,1.45,17.55-54.16.91.38-26.43.52-52.57s.6-.8,9.95-6C279.09,120.34,299.93,123.26,299.93,123.26Z"/><g class="cls-12"><path d="M305.33,158.42c.89,11.1,1.91,14.53,2.8,25.62a9.92,9.92,0,0,0,.56,3.09,3.4,3.4,0,0,0,2.25,2c1.58.32,3.63,1.46,4.07-.08l-1.5-10.69a20.37,20.37,0,0,0-1.48-4.51c-3.32-7.38-4.55-7.82-6.72-15.47"/></g><path class="cls-4" d="M273.29,129.23l.18-1.15L275.2,117a1.29,1.29,0,0,1,1.38-1.09l21.33,1.79a2.45,2.45,0,0,1,2.24,2.62l-.48,6.43L293,135.44l-9.59,1.5"/><path class="cls-9" d="M262.58,150.05c.08,0,.15,8.68.15,19.38s-.07,19.37-.15,19.37-.15-8.67-.15-19.37S262.5,150.05,262.58,150.05Z"/><path class="cls-9" d="M317.4,187.09s0,0-.07-.13a1.7,1.7,0,0,1-.18-.38l-.65-1.47-2.34-5.44-7.61-18c-1.48-3.52-2.89-6.87-4.17-9.93a18.91,18.91,0,0,1-1.38-4.48,25.49,25.49,0,0,1-.37-4.09,16.44,16.44,0,0,1,.86-5.86l.17-.46.2-.4a3.84,3.84,0,0,1,.33-.59l.24-.35.09-.11a11.62,11.62,0,0,0-.93,1.95,17.11,17.11,0,0,0-.75,5.82,21.41,21.41,0,0,0,1.79,8.49l4.19,9.91,7.53,18,2.25,5.48.6,1.5.15.39Z"/><path class="cls-11" d="M306.58,125.21a6.64,6.64,0,0,1-.63.56,9.94,9.94,0,0,1-2,1.2,15.55,15.55,0,0,1-3.6,1,45.2,45.2,0,0,1-4.93.48c-1.84.08-3.85,0-6,.09a27.19,27.19,0,0,0-6.78.83,12.49,12.49,0,0,0-6.38,3.76,8.82,8.82,0,0,0-1.77,3.49,7.48,7.48,0,0,0,.07,4,6.23,6.23,0,0,0,.93,1.79,4.68,4.68,0,0,0,1.52,1.28,3.21,3.21,0,0,0,1.87.39,2.54,2.54,0,0,0,1.65-.84,4.53,4.53,0,0,0,.83-3.54,6.28,6.28,0,0,0-.56-1.75,8.41,8.41,0,0,0-1-1.51,10.48,10.48,0,0,0-5.75-3.4,12.07,12.07,0,0,0-5.88.07,16,16,0,0,0-4.48,1.92,21.69,21.69,0,0,0-3,2.24c-.77.67-1.31,1.26-1.68,1.64l-.42.44a.54.54,0,0,1-.15.15,17.71,17.71,0,0,1,2.19-2.31,20,20,0,0,1,3-2.28,16,16,0,0,1,4.54-2,12.23,12.23,0,0,1,6-.1,10.72,10.72,0,0,1,5.9,3.46,8.08,8.08,0,0,1,1,1.52,5.9,5.9,0,0,1,.57,1.83,6.14,6.14,0,0,1,0,2,3.89,3.89,0,0,1-.86,1.82,2.8,2.8,0,0,1-1.82.93,3.52,3.52,0,0,1-2-.42,4.89,4.89,0,0,1-1.61-1.35,6.69,6.69,0,0,1-1-1.89,7.83,7.83,0,0,1-.07-4.16,8.92,8.92,0,0,1,1.84-3.61,12.78,12.78,0,0,1,6.52-3.84,27.79,27.79,0,0,1,6.86-.8c2.15,0,4.16,0,6-.05a47.62,47.62,0,0,0,4.91-.44,16,16,0,0,0,3.59-1,10.21,10.21,0,0,0,2.05-1.12c.22-.15.38-.29.49-.37A1.29,1.29,0,0,1,306.58,125.21Z"/><path class="cls-11" d="M325.11,148.54l-.24,0c-.16,0-.39,0-.69,0a21.54,21.54,0,0,1-2.54-.06c-1.07-.08-2.34-.24-3.74-.44s-2.93-.4-4.56-.49a17.66,17.66,0,0,0-4.53.34,11.69,11.69,0,0,0-3.47,1.32,9.93,9.93,0,0,0-2.55,2.24,1.13,1.13,0,0,1,.12-.21,5.23,5.23,0,0,1,.4-.56,7.94,7.94,0,0,1,1.93-1.68,11.32,11.32,0,0,1,3.5-1.4,17.5,17.5,0,0,1,4.62-.37c1.64.09,3.18.31,4.58.52s2.66.39,3.72.49,1.93.15,2.52.15A7.26,7.26,0,0,1,325.11,148.54Z"/><path class="cls-11" d="M311.64,173.66a11.53,11.53,0,0,0-3.21-.27,17,17,0,0,0-3.74.67c-1.43.38-3,.95-4.82,1.5a19.76,19.76,0,0,1-6,1.05,17.39,17.39,0,0,1-6.89-1.43,17.09,17.09,0,0,1-6.27-4.56,13.12,13.12,0,0,1-2.25-3.49,8,8,0,0,1-.64-4.21,6.08,6.08,0,0,1,2-3.74,4.27,4.27,0,0,1,1.89-1,4.43,4.43,0,0,1,3.88,1,3.32,3.32,0,0,1,1,1.74,3.4,3.4,0,0,1-.15,2,4.77,4.77,0,0,1-1,1.61,8.25,8.25,0,0,1-3.08,1.95,8.71,8.71,0,0,1-1.68.47l-.83.15-.84.1a18.21,18.21,0,0,1-6.11-.43,18.75,18.75,0,0,1-4.73-1.82,16.89,16.89,0,0,1-3.14-2.17l-.56-.49-.46-.46a9.87,9.87,0,0,1-.7-.75l-.4-.49a.61.61,0,0,1-.12-.16l.15.15.42.46a9.76,9.76,0,0,0,.71.73l.47.45.56.48a18,18,0,0,0,3.14,2.11,19.24,19.24,0,0,0,4.69,1.76,18.11,18.11,0,0,0,6.05.39l.82-.1.83-.16a8.5,8.5,0,0,0,1.64-.46,8,8,0,0,0,3-1.9,4.51,4.51,0,0,0,1-1.52,3.19,3.19,0,0,0,.14-1.81,3.52,3.52,0,0,0-2.62-2.51,3.94,3.94,0,0,0-3.7.85,5.76,5.76,0,0,0-1.89,3.57,7.72,7.72,0,0,0,.62,4.05,12.67,12.67,0,0,0,2.17,3.41,17,17,0,0,0,6.17,4.49,17.13,17.13,0,0,0,6.77,1.43,19.35,19.35,0,0,0,6-1c1.79-.56,3.36-1.08,4.84-1.46a17.78,17.78,0,0,1,3.77-.62,10.75,10.75,0,0,1,1.39,0c.4.06.74.09,1,.15l.61.15Z"/><path class="cls-11" d="M262.4,167.68c-.06,0-.31-.56-.86-1.5a14.62,14.62,0,0,0-6-5.58c-.95-.48-1.58-.69-1.56-.74a1.47,1.47,0,0,1,.46.11,9.37,9.37,0,0,1,1.19.44,13.15,13.15,0,0,1,3.5,2.34,13,13,0,0,1,2.57,3.33,10.16,10.16,0,0,1,.56,1.15A1.88,1.88,0,0,1,262.4,167.68Z"/><path class="cls-11" d="M240.65,191.67a.58.58,0,0,1-.09-.14c-.05-.09-.13-.25-.23-.42-.2-.37-.49-.92-.85-1.64a38.94,38.94,0,0,1-2.57-6.32,20.88,20.88,0,0,1-.8-4.64,14.55,14.55,0,0,1,.11-2.64,16.09,16.09,0,0,1,.66-2.72,11.73,11.73,0,0,1,3.29-5,8.07,8.07,0,0,1,6-2.11,4.47,4.47,0,0,1,2.95,1.44,3.64,3.64,0,0,1,.83,3.07,2.69,2.69,0,0,1-.8,1.38,3.07,3.07,0,0,1-1.36.74,4,4,0,0,1-2.93-.35,6.7,6.7,0,0,1-2.14-1.82,10.08,10.08,0,0,1-1.35-2.28,10,10,0,0,1-.73-4.64,9.78,9.78,0,0,1,2.88-6.08,9,9,0,0,1,1.44-1.17c.17-.12.32-.19.41-.25l.15-.07-.53.37a9.36,9.36,0,0,0-1.39,1.2,9.76,9.76,0,0,0-1.69,2.34,9.44,9.44,0,0,0-1,3.67,9.81,9.81,0,0,0,.76,4.54,9.51,9.51,0,0,0,1.32,2.21,6.54,6.54,0,0,0,2.06,1.75,3.78,3.78,0,0,0,2.74.32,2.61,2.61,0,0,0,2-1.93,3.36,3.36,0,0,0-.77-2.8,4.1,4.1,0,0,0-2.76-1.33,7.79,7.79,0,0,0-5.76,2,11.69,11.69,0,0,0-3.22,4.85,15.35,15.35,0,0,0-.67,2.67,15.94,15.94,0,0,0-.12,2.59,20.58,20.58,0,0,0,.77,4.6,41.14,41.14,0,0,0,2.46,6.32l.8,1.68.21.44C240.68,191.66,240.65,191.67,240.65,191.67Z"/><path class="cls-11" d="M233.73,142.19a1.16,1.16,0,0,1,.05.23,5.4,5.4,0,0,1,.08.69,13.16,13.16,0,0,1,0,2.51,16,16,0,0,1-9,13.14,15.18,15.18,0,0,1-2.35.9c-.28.09-.51.13-.66.17a.72.72,0,0,1-.24,0,8.14,8.14,0,0,1,.87-.31,17.72,17.72,0,0,0,2.29-1,16.4,16.4,0,0,0,8.92-13,18.85,18.85,0,0,0,.1-2.49A7,7,0,0,1,233.73,142.19Z"/><path class="cls-11" d="M330,166.5a8.27,8.27,0,0,0-2.16,2c-.56.72-1.12,1.68-1.75,2.69a20.55,20.55,0,0,1-2.4,3.16,20.11,20.11,0,0,1-5.74,4.33,17.8,17.8,0,0,1-2,.85,4.25,4.25,0,0,1-.77.23,3.2,3.2,0,0,1,.73-.33c.47-.21,1.15-.5,1.95-.94a21.5,21.5,0,0,0,5.61-4.33,21.17,21.17,0,0,0,2.38-3.11,28.68,28.68,0,0,1,1.82-2.68,7.12,7.12,0,0,1,1.61-1.49,3.25,3.25,0,0,1,.52-.28C330,166.51,330,166.48,330,166.5Z"/><path class="cls-9" d="M299.73,123.93a1.25,1.25,0,0,1-.26.07l-.75.13c-.65.11-1.59.25-2.75.4-2.33.32-5.56.69-9.14,1a47.16,47.16,0,0,1-5,.18,14.21,14.21,0,0,1-4.09-.7,9,9,0,0,1-2.49-1.26,7,7,0,0,1-.6-.48,1.56,1.56,0,0,1-.18-.19s.3.22.84.56a10.25,10.25,0,0,0,2.49,1.15,14.56,14.56,0,0,0,4,.63,49.84,49.84,0,0,0,5-.2c3.57-.27,6.8-.6,9.13-.86l2.76-.31A6.73,6.73,0,0,1,299.73,123.93Z"/><path class="cls-7" d="M338.13,189.72a15.06,15.06,0,0,1-11.9,17.66,14.69,14.69,0,0,1-2.73.27l-42.45-.47,1.12-13.74L318.52,188"/><path class="cls-7" d="M284.77,194a38.62,38.62,0,0,1-4.84-2.06,15.83,15.83,0,0,0-7.46-1.44l-10.12.51A4.8,4.8,0,0,0,264,193.3c1.06.56,7.41.74,7.41.74l-.32.33a7.29,7.29,0,0,1-5.05,2.2h-1a9,9,0,0,1-2.11-.41l-2.49-1c-.76-.34-1.56-.28-1.89.48s-.08,1.63,2,2.67c1.14.56,5.42,2.06,5.42,2.06a9.07,9.07,0,0,0,.25,1.8c.18.62,1.86,1.25,1.86,1.25a21,21,0,0,0,1.49,2.66,15.13,15.13,0,0,0,3.33,1.16,14.43,14.43,0,0,0,8-.06l3.86-1.16V194.24"/><path class="cls-8" d="M270.93,201.72a11.51,11.51,0,0,1-5.11-1.35c0-.06,1.12.36,2.54.73S270.93,201.64,270.93,201.72Z"/><path class="cls-8" d="M270.57,204.08a3.74,3.74,0,0,1-2.7-.74,10.76,10.76,0,0,1,1.34.39A9.37,9.37,0,0,1,270.57,204.08Z"/><path class="cls-8" d="M272.42,193.12a5.18,5.18,0,0,1-.78.84,12.51,12.51,0,0,1-2.21,1.68,8.92,8.92,0,0,1-2.58,1,3.92,3.92,0,0,1-1.13.12,14.71,14.71,0,0,0,3.6-1.34,17.27,17.27,0,0,0,2.22-1.59A6.07,6.07,0,0,1,272.42,193.12Z"/><path class="cls-4" d="M285.8,192.19l-1,15.55h40a14.92,14.92,0,0,0,7.7-2.14h0a14.94,14.94,0,0,0,7-15.69,46.22,46.22,0,0,0-2.58-8.62l-20.11,3.31.64,2.5Z"/><path class="cls-9" d="M326.66,185.79a3,3,0,0,1-.41.09l-1.17.21-4.32.72-14.21,2.24-14.23,2.18-4.32.63-1.17.16-.42,0a1.87,1.87,0,0,1,.41-.09l1.17-.21,4.3-.72,14.21-2.25,14.26-2.19,4.32-.63,1.17-.16A1.88,1.88,0,0,1,326.66,185.79Z"/><path class="cls-11" d="M306.19,207.75c-.07,0,.24-1.12.28-2.95a12.29,12.29,0,0,0-.06-1.49,13.77,13.77,0,0,0-.25-1.69,15.65,15.65,0,0,0-1.3-3.68,16.25,16.25,0,0,0-2.19-3.25l-.56-.66c-.19-.21-.39-.4-.58-.59-.38-.39-.78-.69-1.12-1-1.43-1.12-2.45-1.68-2.41-1.73a5.26,5.26,0,0,1,.71.36,7.12,7.12,0,0,1,.8.49,11.6,11.6,0,0,1,1,.72,12,12,0,0,1,1.16,1c.19.19.41.37.61.56l.61.66a16.33,16.33,0,0,1,2.24,3.29,15.16,15.16,0,0,1,1.3,3.77,12.32,12.32,0,0,1,.23,3.24,8.67,8.67,0,0,1-.12,1.25,6,6,0,0,1-.16.93A5.28,5.28,0,0,1,306.19,207.75Z"/><path class="cls-11" d="M330.54,206.58a8.92,8.92,0,0,1-1.86-.22,9.43,9.43,0,0,1-2.07-.73,8.35,8.35,0,0,1-2.34-1.74,7.52,7.52,0,0,1-1.72-3.08,8.17,8.17,0,0,1-.3-2,7.74,7.74,0,0,1,.17-2.09,6.11,6.11,0,0,1,.83-2.05,4.71,4.71,0,0,1,1.68-1.61,4.2,4.2,0,0,1,2.35-.56,3.17,3.17,0,0,1,2.19,1.12,3.09,3.09,0,0,1,.74,2.36,2.82,2.82,0,0,1-1.38,2,6.58,6.58,0,0,1-4.42.6,9.21,9.21,0,0,1-7.79-8.83,6.45,6.45,0,0,1,.16-1.86,14.34,14.34,0,0,0,0,1.85,9.58,9.58,0,0,0,1.6,4.72,9.14,9.14,0,0,0,6.12,3.89,6.36,6.36,0,0,0,4.22-.56,2.54,2.54,0,0,0,1.25-1.77,2.92,2.92,0,0,0-2.67-3.16h0a4,4,0,0,0-2.19.5,5.09,5.09,0,0,0-2.38,3.47,7.25,7.25,0,0,0-.17,2,8.14,8.14,0,0,0,.27,1.9,7.28,7.28,0,0,0,1.64,3,8.4,8.4,0,0,0,2.24,1.73,9.94,9.94,0,0,0,2,.76C329.87,206.53,330.54,206.54,330.54,206.58Z"/></g><g id="freepik--character-1--inject-179"><path class="cls-13" d="M171.91,37.21H71.76A22.07,22.07,0,0,0,49.69,59.28h0V95H28.09l21.6,21.61v24.26a22.07,22.07,0,0,0,22.07,22.07H171.91A22.07,22.07,0,0,0,194,140.84h0V59.28a22.07,22.07,0,0,0-22.07-22.07Z"/><path class="cls-9" d="M131,41c-.64,1.64.45,3.43,1.68,4.7s2.69,2.46,3.08,4.18c.32,1.44-.21,2.94-.08,4.4s.94,2.86,1.4,4.29a14.06,14.06,0,0,1-.25,8.07,14.83,14.83,0,0,1-3,5.95,8,8,0,0,1-5.88,2.8,2.3,2.3,0,0,1-1.73-.63,2.74,2.74,0,0,1-.5-1.54,149.49,149.49,0,0,1,0-34"/><path class="cls-9" d="M129.81,77.35a9,9,0,0,1,9,9.32,10.39,10.39,0,0,1,7.46,11.62c-.32,1.65-1.05,3.22-1.16,4.89-.11,1.83.57,3.6.9,5.4a17.05,17.05,0,0,1-1,9.73c-.77,1.85-2.2,3.77-4.21,3.83a4.14,4.14,0,0,1-3.36-2,10.53,10.53,0,0,1-1.36-3.83c-.87-4.38-1.12-8.88-2.33-13.18s-3.56-8.54-7.45-10.72c-2.14-1.21-4.72-1.78-6.43-3.56a7,7,0,0,1-1.26-7.23,9.24,9.24,0,0,1,5.49-5.13"/><path class="cls-9" d="M96.06,45c0-2.09,1.87-3.69,3.81-4.48s4.1-1.06,5.82-2.25c1.54-1,2.56-2.64,3.86-3.92a12.83,12.83,0,0,1,18.14-.13,13,13,0,0,1,3.44,6c.74,3,.23,6.47-2.11,8.44-2.71,2.29-6.72,1.78-10.21,1.07s-7.42-1.42-10.32.63c-1.75,1.23-2.76,3.23-3.83,5.09s-2.41,3.74-4.43,4.44-4.78-.51-4.86-2.64"/><path class="cls-14" d="M104.28,45.43A3.48,3.48,0,0,0,101.17,49h0l2.08,47.08c.09,5.56,8.21,8.68,14.17,8.54h0c6-.14,6.2-3.09,6.28-8.38.12-8.83.11-12.15.12-12.1s7.59-1.28,9.14-11.21c.77-4.93.51-13,.08-19.62-.39-5.94-4.35-13.23-10.27-12.59Z"/><path class="cls-9" d="M131.33,59.53a1.28,1.28,0,0,1-1.22,1.28,1.2,1.2,0,0,1-1.31-1.1v0A1.27,1.27,0,0,1,130,58.41a1.21,1.21,0,0,1,1.31,1.1Z"/><path class="cls-9" d="M131.29,57.51c-.15.17-1.12-.56-2.48-.56s-2.38.69-2.53.53.09-.38.53-.7a3.44,3.44,0,0,1,2-.62,3.39,3.39,0,0,1,2,.63C131.23,57.12,131.37,57.44,131.29,57.51Z"/><path class="cls-9" d="M118.18,59.53A1.27,1.27,0,0,1,117,60.81a1.22,1.22,0,0,1-1.31-1.1v0a1.26,1.26,0,0,1,1.22-1.28,1.2,1.2,0,0,1,1.31,1.1Z"/><path class="cls-9" d="M117.88,57.8c-.16.16-1.12-.57-2.49-.57s-2.37.7-2.52.53.09-.37.52-.69a3.47,3.47,0,0,1,2-.63,3.37,3.37,0,0,1,2,.64C117.78,57.42,117.93,57.72,117.88,57.8Z"/><path class="cls-9" d="M122.84,67.93a8.92,8.92,0,0,1,2.24-.41c.35,0,.68-.11.74-.34a1.88,1.88,0,0,0-.24-1l-1-2.66c-1.44-3.78-2.49-6.89-2.33-6.95s1.44,3,2.89,6.73l1,2.67a2,2,0,0,1,.19,1.37.9.9,0,0,1-.56.52,2.15,2.15,0,0,1-.56.07A8.5,8.5,0,0,1,122.84,67.93Z"/><path class="cls-15" d="M123.82,84.11a25.23,25.23,0,0,1-13.29-3.51s3.24,6.8,13.16,5.85Z"/><path class="cls-15" d="M122.26,71.22a2.43,2.43,0,0,0-2.24-.9,2.2,2.2,0,0,0-1.55.83,1.43,1.43,0,0,0-.1,1.63,1.63,1.63,0,0,0,1.79.45,5.21,5.21,0,0,0,1.75-1,1.65,1.65,0,0,0,.39-.4.47.47,0,0,0,0-.51"/><path class="cls-9" d="M118.81,68.89c.23,0,.23,1.48,1.5,2.52s2.86.89,2.87,1.12-.35.3-1,.31a3.64,3.64,0,0,1-2.39-.82,3.18,3.18,0,0,1-1.16-2.12C118.54,69.25,118.71,68.89,118.81,68.89Z"/><path class="cls-9" d="M118.44,55.4c-.14.37-1.51.2-3.11.39s-2.9.64-3.11.31c-.1-.16.12-.51.65-.87a5.44,5.44,0,0,1,4.74-.56C118.22,54.93,118.52,55.22,118.44,55.4Z"/><path class="cls-9" d="M130.77,53.55c-.24.31-1.19,0-2.32,0s-2.09.22-2.31-.11c-.1-.16,0-.46.47-.76a3.37,3.37,0,0,1,3.73.1C130.77,53.08,130.88,53.4,130.77,53.55Z"/><path class="cls-9" d="M97.36,78a8.78,8.78,0,0,0,10.36-6.87,9,9,0,0,0,.11-2.83c-.31-2.44-1.62-4.91-.78-7.22,1.13-3,5.39-4,6.52-7,.66-1.77.07-3.83.81-5.56s2.42-2.57,4.09-3.17a17.12,17.12,0,0,0,4.85-2.11c1.41-1.09,2.27-3.14,1.37-4.67A93.81,93.81,0,0,0,103,43.85a8.39,8.39,0,0,0-4.28,2.76c-1,1.53-1,3.49-.87,5.32.41,8.9-1,17.23-.53,26.13"/><path class="cls-10" d="M95,75.24a.43.43,0,0,1-.16,0,2,2,0,0,1-.46-.22,3.36,3.36,0,0,1-1.23-1.46,4.94,4.94,0,0,1-.33-3,9.61,9.61,0,0,1,1.8-3.6,26.4,26.4,0,0,0,2.73-4A6.18,6.18,0,0,0,98,60.34a8.43,8.43,0,0,0-.56-2.76,8.51,8.51,0,0,1-.59-3,6.7,6.7,0,0,1,3.23-5.41,7.77,7.77,0,0,1,3.26-.94,13.41,13.41,0,0,0,3.27-.56,4.23,4.23,0,0,0,2.3-2.06A16.13,16.13,0,0,0,110,42.69a15.44,15.44,0,0,1,1.12-2.8,10.61,10.61,0,0,1,3.71-4.18,8.07,8.07,0,0,1,4.71-1.22,6.06,6.06,0,0,1,3.7,1.52,5.78,5.78,0,0,1,1.65,2.54,4.61,4.61,0,0,1,.23,1.91,2.94,2.94,0,0,1-.11.66,5.93,5.93,0,0,0,.06-.67,5.13,5.13,0,0,0-.28-1.86,5.81,5.81,0,0,0-5.27-3.89A7.82,7.82,0,0,0,115,35.92,10.48,10.48,0,0,0,111.35,40a15.88,15.88,0,0,0-1.08,2.8,15.76,15.76,0,0,1-1.13,3,5,5,0,0,1-1,1.32,4.21,4.21,0,0,1-1.44.88,13.87,13.87,0,0,1-3.37.6,7.28,7.28,0,0,0-3.15.89,6.46,6.46,0,0,0-3.09,5.17,8,8,0,0,0,.57,2.9,8.67,8.67,0,0,1,.58,2.85,6.28,6.28,0,0,1-.69,2.65,27.45,27.45,0,0,1-2.78,4A9.53,9.53,0,0,0,93,70.58a4.82,4.82,0,0,0,.26,2.93A3.36,3.36,0,0,0,94.4,75C94.77,75.16,95,75.22,95,75.24Z"/><path class="cls-10" d="M123.8,32a1,1,0,0,1,.39.11,4.18,4.18,0,0,1,.93.56,4.81,4.81,0,0,1,1,6.57,4.26,4.26,0,0,1-.72.81c-.21.17-.33.24-.34.22a12.15,12.15,0,0,0,.89-1.12,4.82,4.82,0,0,0-.94-6.29A12.38,12.38,0,0,0,123.8,32Z"/><path class="cls-10" d="M145.76,100.05A7.88,7.88,0,0,0,146,99a4.78,4.78,0,0,0-.48-2.85,6.6,6.6,0,0,0-3.13-2.91,13.12,13.12,0,0,0-2.44-.87c-.87-.23-1.8-.41-2.72-.71a6.36,6.36,0,0,1-2.51-1.37,4.22,4.22,0,0,1-1.18-2.38c-.15-.83-.2-1.62-.39-2.33a4.48,4.48,0,0,0-.9-1.78,5.16,5.16,0,0,0-2.4-1.63c-.66-.2-1.06-.2-1.06-.24a1.31,1.31,0,0,1,.28,0,4.52,4.52,0,0,1,.82.13,5.06,5.06,0,0,1,2.52,1.61,4.7,4.7,0,0,1,1,1.86c.2.73.26,1.53.42,2.34A3.84,3.84,0,0,0,135,90.1a6,6,0,0,0,2.39,1.29c.91.3,1.83.49,2.71.72a12.12,12.12,0,0,1,2.47.88,6.69,6.69,0,0,1,3.19,3.07,4.87,4.87,0,0,1,.42,3,3.57,3.57,0,0,1-.26.78A1.19,1.19,0,0,1,145.76,100.05Z"/><path class="cls-9" d="M102.65,82.49c-5.05-1.34-9.36-6.26-11.12-11.15s-1.76-10.23-1.31-15.41c.33-3.75,1-7.72,3.48-10.54,3.75-4.26,7.84-6.44,13.49-6.26"/><path class="cls-1" d="M132,93.42l-4.68-1.17a2.68,2.68,0,0,0,.93-3.27,4.28,4.28,0,0,0-3.57-2.65L103.3,83.92A1.68,1.68,0,0,0,101.52,85q-1.42,3.6-.1,5.94h-.1l-4.11.82-7,61.5,45.67-2.14Z"/><path class="cls-9" d="M125.25,92.48a5,5,0,0,1-.86.17c-.56.09-1.36.18-2.36.29a55.38,55.38,0,0,1-15.63-.78c-1-.2-1.78-.38-2.32-.52a4.78,4.78,0,0,1-.84-.25,5,5,0,0,1,.86.14c.56.11,1.35.26,2.34.42a64.46,64.46,0,0,0,15.57.78c1-.07,1.81-.14,2.37-.2A6.35,6.35,0,0,1,125.25,92.48Z"/><path class="cls-2" d="M104.6,102.26a16.61,16.61,0,0,1,1.6-2.66,16.08,16.08,0,0,1,1.85-2.49,16.29,16.29,0,0,1-1.61,2.65A15.93,15.93,0,0,1,104.6,102.26Z"/><path class="cls-2" d="M119.32,103.3a32.67,32.67,0,0,1-3.83-4.77,15.84,15.84,0,0,1,2,2.3A15.61,15.61,0,0,1,119.32,103.3Z"/><path class="cls-2" d="M112.48,111.12a16.91,16.91,0,0,1-.68-3.06,15.58,15.58,0,0,1-.4-3.11,17.61,17.61,0,0,1,.69,3.06A17.07,17.07,0,0,1,112.48,111.12Z"/><path class="cls-2" d="M123.72,111.6a25,25,0,0,1-2.59,2.76,24.21,24.21,0,0,1-2.8,2.55,24.17,24.17,0,0,1,2.59-2.76A26,26,0,0,1,123.72,111.6Z"/><path class="cls-2" d="M108.65,122.08a13.08,13.08,0,0,1-4.86-5.15c.08-.05.94,1.29,2.29,2.71S108.71,122,108.65,122.08Z"/><path class="cls-2" d="M113.49,130.17c0,.09-1.27.5-2.75,1.29s-2.56,1.62-2.62,1.54a8.21,8.21,0,0,1,2.48-1.81A8.06,8.06,0,0,1,113.49,130.17Z"/><path class="cls-2" d="M121.37,130.69a4.77,4.77,0,0,1-.89-1c-.52-.61-1.21-1.49-1.93-2.49s-1.32-1.94-1.74-2.64a5.29,5.29,0,0,1-.61-1.15,7.3,7.3,0,0,1,.79,1l1.81,2.58,1.84,2.54A7.06,7.06,0,0,1,121.37,130.69Z"/><path class="cls-2" d="M122.16,137.6a16.23,16.23,0,0,1-3.36.78,16,16,0,0,1-3.45.34,26.06,26.06,0,0,1,3.4-.62A28,28,0,0,1,122.16,137.6Z"/><path class="cls-2" d="M109.41,91.61s.23-.33.46-.93a4.89,4.89,0,0,0,.24-2.43,9.55,9.55,0,0,0-.72-2.39,5.18,5.18,0,0,1-.38-1,3.48,3.48,0,0,1,.56.9,7.49,7.49,0,0,1,.82,2.44,4.52,4.52,0,0,1-.34,2.56A1.78,1.78,0,0,1,109.41,91.61Z"/><path class="cls-2" d="M117.94,87a5.08,5.08,0,0,1,.9,3.85c-.08,0-.09-.89-.35-2S117.88,87.05,117.94,87Z"/><path class="cls-14" d="M156.41,130.83l21.24-37.31,2.57-6.47s6.62-14.24,7.08-15.7c.53-1.68,1.47-1.81,2.07-1.58.95.38,1.25,1.78.83,3.23-.14.5-2.72,8.32-2.72,8.32a20.5,20.5,0,0,1,2.2-1.63c1.63-1.12,4.62-1.06,7.39-.08s3.45,1.51,3.12,2.6a1.46,1.46,0,0,1-.89.88,2.79,2.79,0,0,1-2.05,0c-4.45-1.51-6.42.5-6.42.5l-.33.84s3.36-1.07,5.25.45a2.79,2.79,0,0,1,.69.8,3.67,3.67,0,0,1,1.36,6.2,1.52,1.52,0,0,1-1.68.43,1.88,1.88,0,0,1-.63-.74,3.25,3.25,0,0,0-.31-.42l-1.27,2.24s-3.12,4.88-4.24,7.16l-14.63,39a10.31,10.31,0,0,1-13.27,6l-.18-.07h0a10.32,10.32,0,0,1-5.81-13.39A10.51,10.51,0,0,1,156.41,130.83Z"/><path class="cls-14" d="M179.12,93.39a2.13,2.13,0,0,0,2.46-.43c.67-.58,1.12-1.38,1.77-2,1.89-1.89,5-2.07,6.85-4,.26-.28.48-.7.26-1s-.62-.24-1-.18l-8.69,1.72"/><path class="cls-15" d="M180.81,87.44a4.09,4.09,0,0,1,.92-.28c.6-.15,1.47-.34,2.55-.56l3.79-.8,1.12-.23a1.75,1.75,0,0,1,1.33.05.77.77,0,0,1,.28.79,1.65,1.65,0,0,1-.34.64,5.75,5.75,0,0,1-1,.86,34.74,34.74,0,0,1-4.3,2.08,6.33,6.33,0,0,0-1.65,1.12c-.44.43-.8.92-1.17,1.34a3.13,3.13,0,0,1-2.3,1.3c-.67,0-.94-.33-.92-.34a2.55,2.55,0,0,0,.91.14,3.06,3.06,0,0,0,2-1.33,17.25,17.25,0,0,1,1.15-1.41A6.67,6.67,0,0,1,185,89.57a35.74,35.74,0,0,0,4.22-2.08,5,5,0,0,0,.88-.78c.25-.27.33-.6.16-.7a1.82,1.82,0,0,0-.95,0l-1.12.21-3.81.7c-1.09.19-2,.34-2.58.43A3.09,3.09,0,0,1,180.81,87.44Z"/><path class="cls-15" d="M190.38,84.48a3.69,3.69,0,0,1,1-1.34,2.78,2.78,0,0,1,1.68-.56,7.11,7.11,0,0,1,2.24.37,11.07,11.07,0,0,0,2.28.51,3.53,3.53,0,0,0,1.9-.29,1.46,1.46,0,0,0,.82-1,.94.94,0,0,0,0-.47s0,.16-.12.44a1.34,1.34,0,0,1-.79.84,3.61,3.61,0,0,1-1.78.21,12.78,12.78,0,0,1-2.21-.56,7,7,0,0,0-2.32-.36,2.93,2.93,0,0,0-1.81.67,2.6,2.6,0,0,0-.76,1.06C190.37,84.31,190.36,84.48,190.38,84.48Z"/><path class="cls-15" d="M190.35,72.44a9.41,9.41,0,0,0-.52,1.55c-.33,1.08-.73,2.36-1.16,3.77s-.87,2.68-1.22,3.75a8.57,8.57,0,0,0-.46,1.57,9.1,9.1,0,0,0,.68-1.49c.37-1,.84-2.25,1.31-3.73s.84-2.8,1.07-3.81A7.26,7.26,0,0,0,190.35,72.44Z"/><path class="cls-15" d="M191.58,86.83a2.26,2.26,0,0,0,.52,0,1.5,1.5,0,0,1,1.22.32.85.85,0,0,1,.2.79,4.92,4.92,0,0,1-.4,1,1.82,1.82,0,0,0-.21,1.29,1.56,1.56,0,0,0,1,1,1.73,1.73,0,0,0,1.39-.14,2.13,2.13,0,0,0,.93-.9,7.15,7.15,0,0,0,.61-2,3.72,3.72,0,0,0,0-1.41.88.88,0,0,0-.19-.49,4.33,4.33,0,0,0,.07.5,4.52,4.52,0,0,1-.12,1.37A7.7,7.7,0,0,1,196,90a1.75,1.75,0,0,1-1.95.88,1.24,1.24,0,0,1-.79-.79,1.55,1.55,0,0,1,.17-1.07,4.17,4.17,0,0,0,.39-1.07,1,1,0,0,0-.31-1,1.59,1.59,0,0,0-1.4-.29A1.37,1.37,0,0,0,191.58,86.83Z"/><path class="cls-15" d="M195.25,90.75a.77.77,0,0,0-.1.46,1.39,1.39,0,0,0,.65,1.09,1.88,1.88,0,0,0,1.89,0,3.09,3.09,0,0,0,1.42-1.81,3.65,3.65,0,0,0,0-2.31,3.45,3.45,0,0,0-1-1.57A3.25,3.25,0,0,0,197,86a1.06,1.06,0,0,0-.46-.1,5.83,5.83,0,0,1,1.38.92,3.52,3.52,0,0,1,.89,3.61A2.9,2.9,0,0,1,197.54,92a1.65,1.65,0,0,1-1.61,0,1.32,1.32,0,0,1-.65-.91C195.22,90.92,195.28,90.75,195.25,90.75Z"/><path class="cls-15" d="M188.17,94.27a1.33,1.33,0,0,0-.75-.23,3.11,3.11,0,0,0-1.95.46l.24.17a8.63,8.63,0,0,0,.16-1.12,7,7,0,0,0-.56-3.79,16.91,16.91,0,0,1,.24,3.76,9.79,9.79,0,0,1-.14,1.07l-.07.36.31-.2a3.19,3.19,0,0,1,1.77-.53C187.88,94.23,188.16,94.31,188.17,94.27Z"/><path class="cls-15" d="M192.6,81c-.09,0,0,.67.62,1.18s1.26.56,1.26.47-.53-.26-1-.71S192.69,80.94,192.6,81Z"/><path class="cls-4" d="M126.28,161.79l22.23.22-3.73-16.13,1.25,3a15.29,15.29,0,0,0,14.16,9.5h0c7,0,11.89-5.22,14.86-11.59C182,131.94,188.7,108,188.7,108l-13.55-11.9c-9.81,18.55-19,34.66-19,34.66s-2.66-8.09-4.72-15.31-2-11-5.2-14.6c-4.86-5.54-11.77-6.91-18.2-8.57l-.24,30-1.49,39.59"/><path class="cls-4" d="M100.86,139.51l40.46,7.85,2,15.54h-62a12.21,12.21,0,0,1-12.37-12.06,10.39,10.39,0,0,1,0-1.12c.89-11.33,1.86-25.29,2.6-31.19a40.38,40.38,0,0,1,4.57-13.45c3.14-5.9,13.58-13.45,22.73-13.84l1.73,38.54"/><g class="cls-6"><path d="M126.28,161.79l22.23.22-3.73-16.13,1.25,3a15.29,15.29,0,0,0,14.16,9.5h0c7,0,11.89-5.22,14.86-11.59C182,131.94,188.7,108,188.7,108l-13.55-11.9c-9.81,18.55-19,34.66-19,34.66s-2.66-8.09-4.72-15.31-2-11-5.2-14.6c-4.86-5.54-11.77-6.91-18.2-8.57l-.24,30-1.49,39.59"/><path d="M100.86,139.51l36.49,6.69a3.84,3.84,0,0,1,3.05,3l2.89,13.77h-62a12.22,12.22,0,0,1-12.37-12.07,10.57,10.57,0,0,1,0-1.12c.89-11.33,1.86-25.28,2.6-31.18a40.43,40.43,0,0,1,4.57-13.46c3.14-5.89,13.58-13.45,22.73-13.84l1.73,38.54"/></g><path class="cls-9" d="M93.15,138.35a1.15,1.15,0,0,1,0-.37v-5c0-3.29-.06-7.84-.31-12.85-.13-2.51-.3-4.9-.47-7.06a28.7,28.7,0,0,0-.81-5.69A8.19,8.19,0,0,0,89.78,104a13.63,13.63,0,0,0-1-1,4.22,4.22,0,0,1,1.15.86,7.8,7.8,0,0,1,1.9,3.4,28.66,28.66,0,0,1,.88,5.75c.19,2.17.35,4.56.48,7.07.26,5,.29,9.57.23,12.89,0,1.64-.07,3-.11,3.92L93.19,138A1.12,1.12,0,0,1,93.15,138.35Z"/><path class="cls-9" d="M140.54,148.48a6.09,6.09,0,0,0-1.48-1.2,9.5,9.5,0,0,0-2.07-.82c-.83-.24-1.81-.43-2.89-.65-4.33-.88-10.3-2.11-16.91-3.36s-12.64-2.24-17-2.94L95,138.69l-1.4-.23a2.68,2.68,0,0,1-.49-.11,4.07,4.07,0,0,1,.49.05l1.41.18c1.23.16,3,.41,5.18.73,4.36.65,10.39,1.62,17,2.86s12.59,2.49,16.9,3.42c1.08.24,2.06.44,2.9.7a8.84,8.84,0,0,1,2.08.88,4.44,4.44,0,0,1,1.12.9,3.11,3.11,0,0,1,.23.28Z"/><path class="cls-9" d="M93.27,138.35c0,.06-.74.23-1.9.7a17.77,17.77,0,0,0-2,1,18.26,18.26,0,0,0-2.18,1.54,17.37,17.37,0,0,0-1.86,1.88,16.89,16.89,0,0,0-1.29,1.76c-.66,1.06-1,1.78-1,1.76a1.87,1.87,0,0,1,.17-.52,10.42,10.42,0,0,1,.66-1.34,16.49,16.49,0,0,1,1.26-1.83,14.48,14.48,0,0,1,4.15-3.48,13.55,13.55,0,0,1,2-.93,11.88,11.88,0,0,1,1.44-.42A2.17,2.17,0,0,1,93.27,138.35Z"/><path class="cls-9" d="M145.52,148c0-.13-.06-.26-.08-.39-.05-.28-.11-.65-.18-1.12-.16-1-.36-2.37-.6-4.11-.47-3.47-1-8.27-1.52-13.6s-.77-10.15-.93-13.66c-.08-1.75-.12-3.16-.14-4.14v-1.13a1.27,1.27,0,0,1,0-.39,1.72,1.72,0,0,1,0,.39l.07,1.13c.07,1,.14,2.41.24,4.13.21,3.5.54,8.32,1,13.64s1,10.13,1.44,13.61c.21,1.71.38,3.11.51,4.11.05.47.09.84.13,1.13A1.33,1.33,0,0,1,145.52,148Z"/><path class="cls-9" d="M158.94,142a3.1,3.1,0,0,1-.32-.37,9.5,9.5,0,0,1-.75-1.12,14.74,14.74,0,0,1-2-8.49,9.89,9.89,0,0,1,.18-1.33,2.11,2.11,0,0,1,.12-.48s-.05.7-.09,1.82a16.68,16.68,0,0,0,2,8.41C158.58,141.41,159,142,158.94,142Z"/><path class="cls-11" d="M93,117.53a.84.84,0,0,1-.21,0,3.15,3.15,0,0,1-.61.06,8.84,8.84,0,0,1-2.24-.17,16,16,0,0,1-3.19-1c-1.16-.48-2.4-1.12-3.68-1.75a28.28,28.28,0,0,0-3.74-1.54,13,13,0,0,0-3.22-.64,10.55,10.55,0,0,0-3,.35.72.72,0,0,1,.2-.09,3.73,3.73,0,0,1,.56-.2,7.68,7.68,0,0,1,2.24-.26,12.6,12.6,0,0,1,3.29.56,25.47,25.47,0,0,1,3.78,1.56c1.3.64,2.52,1.27,3.66,1.76a18.24,18.24,0,0,0,3.13,1A14.1,14.1,0,0,0,93,117.53Z"/><path class="cls-11" d="M99.94,116.17a20.49,20.49,0,0,1-3.29.7,19.05,19.05,0,0,1-3.37.42,20.61,20.61,0,0,1,3.3-.7A18.17,18.17,0,0,1,99.94,116.17Z"/><path class="cls-11" d="M92.73,128.19a3.92,3.92,0,0,1-.81.36c-.53.2-1.31.48-2.28.8a58.69,58.69,0,0,1-7.74,1.91c-1.54.27-3,.47-4.36.6a17.33,17.33,0,0,1-3.6.1,6.18,6.18,0,0,1-2.33-.67,3.33,3.33,0,0,1-.56-.36.8.8,0,0,1-.17-.15,8,8,0,0,0,.78.41,6.27,6.27,0,0,0,2.3.56,19.19,19.19,0,0,0,3.55-.15c1.34-.16,2.8-.36,4.33-.63a70.52,70.52,0,0,0,7.73-1.82c1-.29,1.76-.56,2.31-.71A6.36,6.36,0,0,1,92.73,128.19Z"/><path class="cls-11" d="M99.76,131.15a16.5,16.5,0,0,1-3.06.19,15.54,15.54,0,0,1-3-.09,16.4,16.4,0,0,1,3-.2A16.49,16.49,0,0,1,99.76,131.15Z"/><path class="cls-11" d="M70.92,156.68a.8.8,0,0,1,.06-.3c0-.23.13-.5.22-.84l.17-.61c.07-.22.17-.45.26-.7a17.44,17.44,0,0,1,.69-1.68l.46-1c.16-.33.37-.66.56-1a24.17,24.17,0,0,1,1.38-2.13,25.5,25.5,0,0,1,8.72-7.6c.75-.39,1.52-.75,2.31-1.07.38-.14.72-.3,1.08-.41l1-.32a13.5,13.5,0,0,1,1.77-.45l.73-.16.63-.09.86-.1a.76.76,0,0,1,.3,0,1.37,1.37,0,0,1-.29.07l-.85.16-.62.11-.72.18c-.52.14-1.12.26-1.75.49l-1,.34c-.35.12-.7.28-1.06.42-.78.33-1.54.69-2.28,1.09a28.51,28.51,0,0,0-4.73,3.28,29.15,29.15,0,0,0-3.93,4.23c-.5.73-1,1.41-1.38,2.1-.2.35-.41.67-.56,1l-.47.94a15.31,15.31,0,0,0-.73,1.68c-.1.25-.2.48-.28.69l-.19.59-.28.83A.94.94,0,0,1,70.92,156.68Z"/><path class="cls-11" d="M99,139.46a10.45,10.45,0,0,0-2.3,2.9,13.85,13.85,0,0,0-1.28,3.8,39,39,0,0,0-.56,4.93,36,36,0,0,1-.56,5,13.85,13.85,0,0,1-1.41,3.84,8.78,8.78,0,0,1-1.68,2.16,5.2,5.2,0,0,1-.59.46c-.14.1-.22.15-.23.13a9.79,9.79,0,0,0,2.35-2.85A14.22,14.22,0,0,0,94.08,156a35.6,35.6,0,0,0,.56-4.93,36,36,0,0,1,.56-5,13.51,13.51,0,0,1,1.37-3.85,8.7,8.7,0,0,1,1.68-2.18,6.44,6.44,0,0,1,.56-.48Z"/><path class="cls-11" d="M108.59,163c-.08,0,0-4.83.21-10.79s.42-10.77.5-10.77,0,4.83-.21,10.79S108.67,163,108.59,163Z"/><path class="cls-11" d="M123.8,162.17a4.5,4.5,0,0,1-.25-.7c-.09-.28-.16-.56-.23-.84s-.17-.71-.23-1.12a20.06,20.06,0,0,1-.3-3,21.26,21.26,0,0,1,1.12-7.25,19.42,19.42,0,0,1,1.19-2.77c.18-.39.39-.71.56-1a7,7,0,0,1,.47-.73,3.12,3.12,0,0,1,.44-.59c.05,0-.56.89-1.3,2.42a22.77,22.77,0,0,0-1.12,2.76,22.35,22.35,0,0,0-1.12,7.17,24.42,24.42,0,0,0,.23,3C123.54,161.14,123.86,162.15,123.8,162.17Z"/><path class="cls-11" d="M98,100.23s-.89-.34-2.34-.82a26.68,26.68,0,0,0-11.77-1c-1.52.21-2.44.44-2.45.39a2.72,2.72,0,0,1,.63-.2,15.71,15.71,0,0,1,1.78-.39,23.82,23.82,0,0,1,11.87,1,16.62,16.62,0,0,1,1.69.69A2.59,2.59,0,0,1,98,100.23Z"/><path class="cls-11" d="M142.25,123.82a16,16,0,0,1-2.08,0c-1.29,0-3.06-.11-5-.16s-3.73-.07-5-.08a15.92,15.92,0,0,1-2.07-.08,2.6,2.6,0,0,1,.56-.06c.35,0,.88-.05,1.52-.07,1.28,0,3,0,5,0s3.73.15,5,.26c.64,0,1.16.09,1.51.14A2.35,2.35,0,0,1,142.25,123.82Z"/><path class="cls-11" d="M153.31,121.69s-.7.29-1.8.83a17.59,17.59,0,0,0-7,6.25c-.66,1-1,1.7-1,1.68a1.82,1.82,0,0,1,.18-.51,10.58,10.58,0,0,1,.68-1.29,15.38,15.38,0,0,1,3.06-3.71,15.75,15.75,0,0,1,4-2.61,10.6,10.6,0,0,1,1.36-.52A2.31,2.31,0,0,1,153.31,121.69Z"/><path class="cls-11" d="M147.85,103.73a8.33,8.33,0,0,0-2.85.4,18,18,0,0,0-2.87,1.28,23.15,23.15,0,0,1-3.56,1.59,14.41,14.41,0,0,1-7,.46,13.78,13.78,0,0,1-2.07-.56,3.86,3.86,0,0,1-.72-.32,26.33,26.33,0,0,0,2.8.68,15.08,15.08,0,0,0,6.9-.54,25.77,25.77,0,0,0,3.53-1.56,18.34,18.34,0,0,1,2.93-1.23,6.7,6.7,0,0,1,2.13-.31,5.32,5.32,0,0,1,.56.06C147.78,103.7,147.86,103.72,147.85,103.73Z"/><path class="cls-11" d="M145.05,141.29a3,3,0,0,1-.65.31,8,8,0,0,1-.79.3c-.31.1-.66.23-1.06.33a21.58,21.58,0,0,1-10,.38,21.21,21.21,0,0,1-2.81-.76c-.39-.13-.73-.28-1-.4s-.56-.24-.77-.34a3.5,3.5,0,0,1-.63-.35s.94.4,2.51.89a24.91,24.91,0,0,0,2.8.7,23.35,23.35,0,0,0,7,.21,24.91,24.91,0,0,0,2.84-.53C144.09,141.63,145,141.24,145.05,141.29Z"/><path class="cls-11" d="M157.93,157.88a1.24,1.24,0,0,1-.22-.18,7.24,7.24,0,0,1-.56-.56,13.37,13.37,0,0,1-1.77-2.38,19.27,19.27,0,0,1-2.5-9.38,38.1,38.1,0,0,1,1.27-9.68c.31-1.21.57-2.19.77-2.85.1-.31.18-.57.24-.77s.09-.27.1-.27a.87.87,0,0,1,0,.28q-.06.32-.18.78c-.16.73-.39,1.68-.67,2.88a40,40,0,0,0-1.17,9.62,19.75,19.75,0,0,0,2.35,9.27,14.91,14.91,0,0,0,1.69,2.41C157.67,157.58,158,157.86,157.93,157.88Z"/><path class="cls-11" d="M178.33,138.85a11,11,0,0,0-3-1.68,23.58,23.58,0,0,0-3.58-.94,38.4,38.4,0,0,1-4.49-1,18.27,18.27,0,0,1-7.1-4.27,15.78,15.78,0,0,1-1.68-1.88c-.19-.24-.31-.44-.4-.56a.66.66,0,0,1-.12-.21,7.92,7.92,0,0,1,.61.69,19.76,19.76,0,0,0,1.73,1.81,18.92,18.92,0,0,0,7,4.14,41.35,41.35,0,0,0,4.43,1.05,22.73,22.73,0,0,1,3.61,1,8.86,8.86,0,0,1,2.21,1.23,4.41,4.41,0,0,1,.51.46C178.28,138.78,178.34,138.84,178.33,138.85Z"/><path class="cls-11" d="M184.74,120.15a3.79,3.79,0,0,1-.6-.53c-.19-.17-.41-.38-.69-.62s-.56-.51-.94-.78a25.7,25.7,0,0,0-9.75-4.91,28.07,28.07,0,0,0-3.14-.61c-.45-.07-.85-.1-1.21-.13s-.68-.06-.93-.07a5.29,5.29,0,0,1-.79-.08,4.19,4.19,0,0,1,.79,0h.94a9.5,9.5,0,0,1,1.23.09,26,26,0,0,1,3.17.56,27.4,27.4,0,0,1,3.74,1.26,25.83,25.83,0,0,1,3.49,1.84,24,24,0,0,1,2.59,1.91,9.67,9.67,0,0,1,.92.83q.34.31.66.66A3.88,3.88,0,0,1,184.74,120.15Z"/><path class="cls-11" d="M135.7,94.42a4.21,4.21,0,0,1-1.07.51,18.46,18.46,0,0,1-2.71.84,19.12,19.12,0,0,1-2.81.45,3.82,3.82,0,0,1-1.17,0c0-.09,1.77-.24,3.92-.75S135.67,94.34,135.7,94.42Z"/><path class="cls-14" d="M155.58,173.35a1.57,1.57,0,0,1-1.06,1.94,1.63,1.63,0,0,1-.66,0h0a1.52,1.52,0,0,1-1.27-1.12l-.48-1.76h.07a1.63,1.63,0,0,1-1.29,1.91,1.57,1.57,0,0,1-.53,0h0c-.73,0-1.37-1.07-1.58-1.63h0a3.05,3.05,0,0,1-2.85-1.37l-3.29-5.13-6.09-4.46,3.69-13.16,13.11,8.48c.51.41.59.56,1.41,1.33l8.46,7.78a3.07,3.07,0,0,1-3.1,0c-1.34-.53-7.18-4.48-7.18-4.48l2.64,11.57"/><path class="cls-15" d="M144.36,162.53a2.14,2.14,0,0,1,.39.23l.44.3a2.8,2.8,0,0,1,.56.47,2.63,2.63,0,0,1,.45.76c.1.29.2.6.32.92l.71,2.1c.5,1.51.94,2.86,1.24,3.85a9.22,9.22,0,0,1,.43,1.62,9.83,9.83,0,0,1-.62-1.55c-.36-1-.83-2.33-1.33-3.82-.24-.75-.47-1.46-.69-2.11l-.29-.93a2.31,2.31,0,0,0-.38-.71,2.67,2.67,0,0,0-.48-.47l-.4-.34C144.46,162.66,144.35,162.54,144.36,162.53Z"/><path class="cls-15" d="M152.25,172.76a2.73,2.73,0,0,1-.19-.57l-.42-1.5c-.35-1.26-.83-3-1.44-4.93a17.71,17.71,0,0,0-2-4.67,4.19,4.19,0,0,0-1.07-1.07c-.31-.19-.5-.24-.5-.28a.4.4,0,0,1,.15,0,2.86,2.86,0,0,1,.41.15,3.82,3.82,0,0,1,1.18,1.05,16.18,16.18,0,0,1,2.12,4.7c.62,1.9,1.07,3.69,1.37,5,.15.64.26,1.16.34,1.53A2.32,2.32,0,0,1,152.25,172.76Z"/><path class="cls-15" d="M155.63,173.55a2.78,2.78,0,0,1-.23-.59c-.14-.45-.31-1-.52-1.63-.42-1.39-1-3.3-1.6-5.42s-1.12-4-1.54-5.44a2.65,2.65,0,0,0-.9-1.37,3.29,3.29,0,0,0-.56-.29h.17a1.34,1.34,0,0,1,.44.19,2.62,2.62,0,0,1,1,1.39c.46,1.39,1,3.3,1.62,5.42s1.15,4.05,1.53,5.45c.17.65.31,1.2.42,1.68A2.57,2.57,0,0,1,155.63,173.55Z"/></g><g id="freepik--speech-bubble--inject-179"><path class="cls-10" d="M235.27,52a2,2,0,1,0,2-2A2,2,0,0,0,235.27,52Z"/><circle class="cls-10" cx="229.38" cy="52.02" r="1.96"/><path class="cls-10" d="M219.59,51a2,2,0,1,0,2.68-.72h0a2,2,0,0,0-2.67.71Z"/><path class="cls-10" d="M229.26,29.1a2.54,2.54,0,0,0-.39,0l-1.17,0a6.56,6.56,0,0,0-.86,0l-1,.15-1.2.17-1.34.33a21.58,21.58,0,0,0-6.5,2.81,23,23,0,0,0-10.53,17.23,23.66,23.66,0,0,0-.06,3.15c0,.53,0,1.07.1,1.6s.17,1.08.24,1.62a23.09,23.09,0,0,0,2.19,6.4,25.07,25.07,0,0,0,4.17,5.75,24.4,24.4,0,0,0,6,4.32,22,22,0,0,0,7.34,2.24,14.26,14.26,0,0,0,2,.16,18.45,18.45,0,0,0,2,0,22.82,22.82,0,0,0,4-.5A23.19,23.19,0,0,0,242,71.32l-.24,0,8,3.22.48.19-.14-.49-2.36-8.59,0,.21A23.07,23.07,0,0,0,252,56.08a20.78,20.78,0,0,0,.31-5,16.38,16.38,0,0,0-.23-2.42l-.18-1.18c-.07-.38-.19-.76-.28-1.12a23,23,0,0,0-9-13.06,21.55,21.55,0,0,0-5.33-2.8L236.15,30,235,29.73l-1-.25c-.33-.07-.66-.1-1-.15-.61-.07-1.12-.18-1.61-.2l-1.18,0h-.72a1,1,0,0,0-.25,0,.72.72,0,0,0,.25,0l.72.06,1.17.08c.46,0,1,.15,1.59.24a22.85,22.85,0,0,1,18.26,17c.09.37.21.74.27,1.12s.12.77.18,1.16a15.69,15.69,0,0,1,.21,2.37,20.91,20.91,0,0,1-.32,4.93,22.79,22.79,0,0,1-4.26,9.58l-.07.1,0,.11q1.13,4.17,2.34,8.59l.35-.3-8-3.23-.13-.05-.12.07a22.54,22.54,0,0,1-11.57,3.73,17.94,17.94,0,0,1-1.94,0,15.22,15.22,0,0,1-1.91-.16,21.7,21.7,0,0,1-7.17-2.19,23.9,23.9,0,0,1-5.9-4.22,24.29,24.29,0,0,1-4.1-5.61A22.78,22.78,0,0,1,207,56.17c-.09-.56-.17-1.06-.25-1.59s-.07-1-.1-1.57a22.39,22.39,0,0,1,10.3-20.12,22,22,0,0,1,6.4-2.88l1.32-.35,1.19-.2,1-.16c.31,0,.6-.05.85-.07l1.16-.08A1.58,1.58,0,0,0,229.26,29.1Z"/></g></svg>