<svg id="Layer_1" data-name="Layer 1" xmlns="http://www.w3.org/2000/svg" xmlns:xlink="http://www.w3.org/1999/xlink" viewBox="0 0 478 478"><defs><style>.cls-1{fill:none;}.cls-2{fill:#ccc;}.cls-3{fill:#f0f0f0;}.cls-4{fill:#e0e0e0;}.cls-5{clip-path:url(#clip-path);}.cls-6{fill:url(#linear-gradient);}.cls-7{clip-path:url(#clip-path-3);}.cls-8{fill:url(#linear-gradient-3);}.cls-9{clip-path:url(#clip-path-4);}.cls-10{fill:url(#linear-gradient-4);}.cls-102,.cls-11,.cls-13,.cls-32,.cls-37,.cls-40,.cls-79{isolation:isolate;}.cls-11{opacity:0.3;}.cls-12{clip-path:url(#clip-path-5);}.cls-13,.cls-61{opacity:0.5;}.cls-14{clip-path:url(#clip-path-6);}.cls-15{clip-path:url(#clip-path-7);}.cls-16{fill:url(#linear-gradient-5);}.cls-17{clip-path:url(#clip-path-8);}.cls-18{clip-path:url(#clip-path-9);}.cls-19{fill:url(#linear-gradient-6);}.cls-20{clip-path:url(#clip-path-10);}.cls-21{fill:url(#linear-gradient-7);}.cls-22{clip-path:url(#clip-path-11);}.cls-23{clip-path:url(#clip-path-12);}.cls-24{fill:url(#linear-gradient-8);}.cls-25{clip-path:url(#clip-path-13);}.cls-26{clip-path:url(#clip-path-14);}.cls-27{fill:url(#linear-gradient-9);}.cls-28{clip-path:url(#clip-path-15);}.cls-29{clip-path:url(#clip-path-16);}.cls-30{fill:url(#linear-gradient-10);}.cls-31{fill:#263238;}.cls-32{opacity:0.7;}.cls-33{clip-path:url(#clip-path-17);}.cls-34{clip-path:url(#clip-path-18);}.cls-35{clip-path:url(#clip-path-19);}.cls-36{fill:url(#linear-gradient-11);}.cls-37{opacity:0.4;}.cls-38{clip-path:url(#clip-path-20);}.cls-39{fill:#fff;}.cls-40{opacity:0.1;}.cls-41{clip-path:url(#clip-path-21);}.cls-42{clip-path:url(#clip-path-22);}.cls-43{fill:url(#linear-gradient-12);}.cls-44{fill:#fafafa;}.cls-45{clip-path:url(#clip-path-23);}.cls-46{fill:url(#linear-gradient-13);}.cls-47{clip-path:url(#clip-path-24);}.cls-48{fill:url(#linear-gradient-14);}.cls-49{clip-path:url(#clip-path-25);}.cls-50{fill:url(#linear-gradient-15);}.cls-51{clip-path:url(#clip-path-26);}.cls-52{fill:url(#linear-gradient-16);}.cls-53{clip-path:url(#clip-path-27);}.cls-54{fill:url(#linear-gradient-17);}.cls-55{fill:#e6e6e6;}.cls-56{clip-path:url(#clip-path-28);}.cls-57{fill:#455a64;}.cls-58{clip-path:url(#clip-path-29);}.cls-59{clip-path:url(#clip-path-30);}.cls-60{clip-path:url(#clip-path-31);}.cls-62{clip-path:url(#clip-path-32);}.cls-63{fill:#070707;}.cls-64{fill:#00249c;}.cls-65{clip-path:url(#clip-path-33);}.cls-66{fill:url(#linear-gradient-18);}.cls-67{clip-path:url(#clip-path-34);}.cls-68{clip-path:url(#clip-path-35);}.cls-69{fill:url(#linear-gradient-19);}.cls-70{fill:#f5f5f5;}.cls-71{fill:#ebebeb;}.cls-72{clip-path:url(#clip-path-36);}.cls-73{fill:url(#linear-gradient-20);}.cls-74{fill:url(#linear-gradient-21);}.cls-75{clip-path:url(#clip-path-38);}.cls-76{fill:url(#linear-gradient-22);}.cls-77{clip-path:url(#clip-path-39);}.cls-78{fill:url(#linear-gradient-23);}.cls-79{opacity:0.2;}.cls-80{clip-path:url(#clip-path-40);}.cls-81{clip-path:url(#clip-path-41);}.cls-82{clip-path:url(#clip-path-42);}.cls-83{clip-path:url(#clip-path-43);}.cls-84{clip-path:url(#clip-path-44);}.cls-85{fill:url(#linear-gradient-24);}.cls-86{clip-path:url(#clip-path-45);}.cls-87{clip-path:url(#clip-path-46);}.cls-88{fill:url(#linear-gradient-25);}.cls-89{fill:#ffa8a7;}.cls-90{clip-path:url(#clip-path-47);}.cls-91{fill:url(#linear-gradient-26);}.cls-92{clip-path:url(#clip-path-48);}.cls-93{fill:url(#linear-gradient-27);}.cls-94{fill:#f28f8f;}.cls-95{clip-path:url(#clip-path-49);}.cls-96{clip-path:url(#clip-path-50);}.cls-97{fill:#b16668;}.cls-98{fill:#9a4a4d;}.cls-99{clip-path:url(#clip-path-51);}.cls-100{fill:url(#linear-gradient-28);}.cls-101{fill:#37474f;}.cls-102{opacity:0.15;}.cls-103{clip-path:url(#clip-path-52);}</style><clipPath id="clip-path"><path class="cls-1" d="M148.41,277.16v43.07a7.7,7.7,0,0,0,3.48,6L182.73,344c7.19,4.19,18.87,4.19,26.07,0l34.94-20.2c3.6-2.08,5.4-4.8,5.4-7.53v-4.86L212.89,291a7.67,7.67,0,0,1-3.48-6V241.9Z"/></clipPath><linearGradient id="linear-gradient" x1="-2803.64" y1="12709.67" x2="-2802.64" y2="12709.67" gradientTransform="matrix(100.73, 0, 0, -100.73, 282558.8, 1280540.46)" gradientUnits="userSpaceOnUse"><stop offset="0" stop-color="#00ffaf"/><stop offset="0.06" stop-color="#00edad"/><stop offset="0.32" stop-color="#00a6a7"/><stop offset="0.55" stop-color="#006ea2"/><stop offset="0.75" stop-color="#00469f"/><stop offset="0.91" stop-color="#002d9d"/><stop offset="1" stop-color="#00249c"/></linearGradient><clipPath id="clip-path-3"><path class="cls-1" d="M148.4,277.16v43.09a7.68,7.68,0,0,0,3.47,6l11.19,6.45v-4.84l-7-4.06a7.65,7.65,0,0,1-3.48-6V284.15l8.16-4.72c-.24-3-.51-6-.75-9Z"/></clipPath><linearGradient id="linear-gradient-3" x1="-2654.73" y1="12722.47" x2="-2653.73" y2="12722.47" gradientTransform="matrix(14.66, 0, 0, -14.66, 39066.79, 186813.09)" xlink:href="#linear-gradient"/><clipPath id="clip-path-4"><path class="cls-1" d="M152.69,284.15l-.08,33.66a7.69,7.69,0,0,0,3.48,6l26.62,15.34c7.2,4.15,18.88,4.16,26.09,0l35-20.2c7.21-4.16,7.21-10.9,0-15.06l-26.63-15.34a7.67,7.67,0,0,1-3.48-6V248.89Z"/></clipPath><linearGradient id="linear-gradient-4" x1="-2802.55" y1="12709.77" x2="-2801.55" y2="12709.77" gradientTransform="matrix(96.6, 0, 0, -96.6, 270872.16, 1228027.78)" xlink:href="#linear-gradient"/><clipPath id="clip-path-5"><rect class="cls-1" x="149.96" y="248.87" width="96.6" height="93.4"/></clipPath><clipPath id="clip-path-6"><rect class="cls-1" x="149.99" y="248.87" width="71.56" height="78.9"/></clipPath><clipPath id="clip-path-7"><path class="cls-1" d="M243.75,319l-35,20.21a26.36,26.36,0,0,1-12.45,3.09v4.84A26.36,26.36,0,0,0,208.75,344l35-20.19c3.59-2.09,5.4-4.8,5.4-7.53v-4.86c0,2.74-1.81,5.47-5.4,7.53"/></clipPath><linearGradient id="linear-gradient-5" x1="-2780.66" y1="12711.65" x2="-2779.66" y2="12711.65" gradientTransform="matrix(52.85, 0, 0, -52.85, 147154.16, 672140.05)" xlink:href="#linear-gradient"/><clipPath id="clip-path-8"><rect class="cls-1" x="193.65" y="311.47" width="52.85" height="35.6"/></clipPath><clipPath id="clip-path-9"><path class="cls-1" d="M290.9,17.59,54.9,153.83a9.58,9.58,0,0,0-4.34,7.52V352.27a9.34,9.34,0,0,0,4.07,7.37,9.37,9.37,0,0,0,8.43-.15l236-136.25a9.62,9.62,0,0,0,4.35-7.53V24.79a9.29,9.29,0,0,0-4.09-7.36,9.29,9.29,0,0,0-8.42.16"/></clipPath><linearGradient id="linear-gradient-6" x1="-2818.9" y1="12708.37" x2="-2817.9" y2="12708.37" gradientTransform="matrix(252.85, 0, 0, -252.85, 712808.51, 3213499.71)" xlink:href="#linear-gradient"/><clipPath id="clip-path-10"><path class="cls-1" d="M299.06,22.28l-236,136.25a9.58,9.58,0,0,0-4.35,7.53V357c0,2.77,1.95,3.9,4.35,2.51l236-136.25a9.62,9.62,0,0,0,4.35-7.53V24.79c0-2-1-3.11-2.41-3.11a3.9,3.9,0,0,0-1.94.6"/></clipPath><linearGradient id="linear-gradient-7" x1="-2818.56" y1="12708.4" x2="-2817.56" y2="12708.4" gradientTransform="matrix(244.7, 0, 0, -244.7, 689760.28, 3109935.81)" xlink:href="#linear-gradient"/><clipPath id="clip-path-11"><rect class="cls-1" x="56.06" y="21.67" width="244.7" height="338.4"/></clipPath><clipPath id="clip-path-12"><path class="cls-1" d="M50.55,356.88a9.34,9.34,0,0,0,4.08,7.39,9.38,9.38,0,0,0,7.79.16c-2.11.86-3.72-.29-3.72-2.82V344.23l-8.15-4.72Z"/></clipPath><linearGradient id="linear-gradient-8" x1="-2613.77" y1="12725.98" x2="-2612.77" y2="12725.98" gradientTransform="matrix(11.87, 0, 0, -11.87, 31076.02, 151409.94)" xlink:href="#linear-gradient"/><clipPath id="clip-path-13"><rect class="cls-1" x="47.9" y="339.47" width="11.87" height="25.7"/></clipPath><clipPath id="clip-path-14"><path class="cls-1" d="M58.7,344.23v17.38c0,2.77,2,3.89,4.35,2.51l236-136.25a9.62,9.62,0,0,0,4.35-7.53V202.92Z"/></clipPath><linearGradient id="linear-gradient-9" x1="-2818.56" y1="12708.4" x2="-2817.56" y2="12708.4" gradientTransform="matrix(244.7, 0, 0, -244.7, 689760.27, 3110028.74)" xlink:href="#linear-gradient"/><clipPath id="clip-path-15"><rect class="cls-1" x="56.06" y="202.87" width="244.7" height="161.8"/></clipPath><clipPath id="clip-path-16"><path class="cls-1" d="M292.63,35.43,69.46,164.25a5.75,5.75,0,0,0-2.6,4.51V322.43c0,1.65,1.17,2.33,2.62,1.5L292.63,195.09a5.78,5.78,0,0,0,2.61-4.52V36.93c0-1.18-.59-1.86-1.44-1.86a2.38,2.38,0,0,0-1.17.36"/></clipPath><linearGradient id="linear-gradient-10" x1="-2817.81" y1="12708.46" x2="-2816.81" y2="12708.46" gradientTransform="matrix(228.38, 0, 0, -228.38, 643599.04, 2902537.73)" xlink:href="#linear-gradient"/><clipPath id="clip-path-17"><rect class="cls-1" x="47.9" y="157.07" width="9.44" height="187.2"/></clipPath><clipPath id="clip-path-18"><rect class="cls-1" x="49.18" y="16.47" width="251.53" height="145.3"/></clipPath><clipPath id="clip-path-19"><path class="cls-1" d="M307.35,45.6,85.26,173.85a4.79,4.79,0,0,0-2.17,3.75v16.91a4,4,0,0,0,6.19,3.59L311.41,69.84a4.77,4.77,0,0,0,2.16-3.75V49.19a4.11,4.11,0,0,0-.62-2.32,4.07,4.07,0,0,0-3.44-1.9,4,4,0,0,0-2.16.63"/></clipPath><linearGradient id="linear-gradient-11" x1="-2817.92" y1="12708.45" x2="-2816.92" y2="12708.45" gradientTransform="matrix(230.48, 0, 0, -230.48, 649564.52, 2929203.11)" xlink:href="#linear-gradient"/><clipPath id="clip-path-20"><rect class="cls-1" x="81.04" y="44.97" width="229.86" height="132.8"/></clipPath><clipPath id="clip-path-21"><rect class="cls-1" x="80.4" y="175.47" width="4.7" height="30.1"/></clipPath><clipPath id="clip-path-22"><path class="cls-1" d="M311.41,47.94,89.24,176.2A4.8,4.8,0,0,0,87.08,180v11.58l6-3.44a4.81,4.81,0,0,0,2.16-3.75V180a4.76,4.76,0,0,1,2.17-3.75l52.53-30.33c1.17-.69,2.17-.13,2.17,1.25v4.38c0,1.38,1,1.94,2.16,1.25l159.3-92V49.19c0-1-.49-1.55-1.2-1.55a1.94,1.94,0,0,0-1,.3"/></clipPath><linearGradient id="linear-gradient-12" x1="-2817.72" y1="12708.47" x2="-2816.72" y2="12708.47" gradientTransform="matrix(226.49, 0, 0, -226.49, 638272.54, 2878460.86)" xlink:href="#linear-gradient"/><clipPath id="clip-path-23"><path class="cls-1" d="M131,263.15l-1,.56a1.93,1.93,0,0,0-.87,1.5v1.13c0,.55.39.77.87.5l1-.57a1.88,1.88,0,0,0,.87-1.5v-1.12c0-.4-.2-.62-.48-.62a.7.7,0,0,0-.39.12"/></clipPath><linearGradient id="linear-gradient-13" x1="-1896.6" y1="12787.59" x2="-1895.6" y2="12787.59" gradientTransform="matrix(2.74, 0, 0, -2.74, 5325.76, 35302.94)" xlink:href="#linear-gradient"/><clipPath id="clip-path-24"><path class="cls-1" d="M131,269.37l-1,.56a1.93,1.93,0,0,0-.87,1.5v1.13c0,.55.39.77.87.5l1-.57a1.92,1.92,0,0,0,.87-1.5v-1.12c0-.4-.2-.62-.48-.62a.79.79,0,0,0-.39.12"/></clipPath><linearGradient id="linear-gradient-14" x1="-1896.6" y1="12787.59" x2="-1895.6" y2="12787.59" gradientTransform="matrix(2.74, 0, 0, -2.74, 5325.76, 35309.16)" xlink:href="#linear-gradient"/><clipPath id="clip-path-25"><path class="cls-1" d="M131,275.65l-1,.57a1.89,1.89,0,0,0-.87,1.5v1.12c0,.56.39.78.87.5l1-.56a1.92,1.92,0,0,0,.87-1.5v-1.13c0-.4-.2-.62-.48-.62a.79.79,0,0,0-.39.12"/></clipPath><linearGradient id="linear-gradient-15" x1="-1896.6" y1="12787.59" x2="-1895.6" y2="12787.59" gradientTransform="matrix(2.74, 0, 0, -2.74, 5325.76, 35315.45)" xlink:href="#linear-gradient"/><clipPath id="clip-path-26"><path class="cls-1" d="M131,281.93l-1,.56a1.88,1.88,0,0,0-.87,1.47v1.13c0,.55.39.78.87.5l1-.56a1.92,1.92,0,0,0,.87-1.5v-1.1c0-.39-.2-.62-.48-.62a.7.7,0,0,0-.39.12"/></clipPath><linearGradient id="linear-gradient-16" x1="-1896.6" y1="12787.59" x2="-1895.6" y2="12787.59" gradientTransform="matrix(2.74, 0, 0, -2.74, 5325.76, 35321.71)" xlink:href="#linear-gradient"/><clipPath id="clip-path-27"><path class="cls-1" d="M130.84,297.6l-1,.56a1.91,1.91,0,0,0-.87,1.5v1.13c0,.55.39.78.87.5l1-.56a1.91,1.91,0,0,0,.86-1.5V298.1c0-.39-.2-.62-.48-.62a.7.7,0,0,0-.38.12"/></clipPath><linearGradient id="linear-gradient-17" x1="-1893.19" y1="12787.88" x2="-1892.19" y2="12787.88" gradientTransform="matrix(2.73, 0, 0, -2.73, 5297.36, 35210.39)" xlink:href="#linear-gradient"/><clipPath id="clip-path-28"><rect class="cls-1" x="90.01" y="191.37" width="4.67" height="5.8"/></clipPath><clipPath id="clip-path-29"><rect class="cls-1" x="96.97" y="186.97" width="4.61" height="5.8"/></clipPath><clipPath id="clip-path-30"><rect class="cls-1" x="104.6" y="180.97" width="3.99" height="8.4"/></clipPath><clipPath id="clip-path-31"><rect class="cls-1" x="142.48" y="149.27" width="3.79" height="7.6"/></clipPath><clipPath id="clip-path-32"><rect class="cls-1" x="300.54" y="65.87" width="7.59" height="12.1"/></clipPath><clipPath id="clip-path-33"><path class="cls-1" d="M274.84,116,125.84,202a4.76,4.76,0,0,0-2.17,3.75v41.9c0,1.38,1,1.94,2.17,1.25l149-86.06a4.81,4.81,0,0,0,2.16-3.75V117.2c0-1-.51-1.55-1.21-1.55a1.88,1.88,0,0,0-1,.3"/></clipPath><linearGradient id="linear-gradient-18" x1="-2812.34" y1="12708.93" x2="-2811.34" y2="12708.93" gradientTransform="matrix(153.33, 0, 0, -153.33, 431339.44, 1948842.75)" xlink:href="#linear-gradient"/><clipPath id="clip-path-34"><rect class="cls-1" x="120.02" y="115.67" width="153.33" height="133.5"/></clipPath><clipPath id="clip-path-35"><path class="cls-1" d="M135.86,211.85c-4.49,2.6-8.13,8.9-8.13,14.08s3.64,7.28,8.13,4.69,8.13-8.89,8.12-14.08c0-3.68-1.83-5.81-4.5-5.81a7.28,7.28,0,0,0-3.62,1.12"/></clipPath><linearGradient id="linear-gradient-19" x1="-2671.78" y1="12720.96" x2="-2670.78" y2="12720.96" gradientTransform="matrix(16.25, 0, 0, -16.25, 43544.28, 206937.9)" xlink:href="#linear-gradient"/><clipPath id="clip-path-36"><path class="cls-1" d="M114.48,300.57c-7.7,3.14-6.11,14.17,2.06,29,6.45,11.79,6.47,38.91,1.94,59.75l13.29-7.66S140,357.38,137.93,335c-2.32-24.49-12.79-35-20.51-35a7.59,7.59,0,0,0-2.94.57"/></clipPath><linearGradient id="linear-gradient-20" x1="-2740.26" y1="12715.13" x2="-2739.26" y2="12715.13" gradientTransform="matrix(28.79, 0, 0, -28.79, 78997.91, 366396.4)" xlink:href="#linear-gradient"/><linearGradient id="linear-gradient-21" x1="-2937.3" y1="12691.73" x2="-2936.3" y2="12691.73" gradientTransform="matrix(0, -23.43, -23.43, 0, 297477.15, -68449.66)" xlink:href="#linear-gradient"/><clipPath id="clip-path-38"><path class="cls-1" d="M82.54,331.54c-1.72,1.57-1.82,4.3-1.06,6.5s2.23,4.07,3.34,6.12a8.22,8.22,0,0,1,1.06,3,7.68,7.68,0,0,1-1.58,4.88c-1.36,2-3.14,3.69-4.64,5.59a11,11,0,0,0-2.77,6.58c0,3.14,2.41,5.45,4.74,7.19,2.11,1.56,4.42,3.39,4.76,6a9.85,9.85,0,0,1-.56,3.84c-.37,1.28-.73,2.55-1.1,3.82a30.79,30.79,0,0,0-.94,3.93,12.28,12.28,0,0,0,1.1,7.4,13.25,13.25,0,0,0,4.37,5c1.08.73,3.92,2.46,5.3,1.67l24.17-13.94a57.87,57.87,0,0,0,4.42-7.26,23,23,0,0,0,2-8.07,7.77,7.77,0,0,0-.93-4.77c-2-3.32-5.54-4.68-6.75-8.32-1.36-4.12,2.25-8.91.3-12.79-1-2-3.15-3.06-5.28-3.62s-4.41-.74-6.41-1.56c-5.29-2.14-8.13-8-13.13-10.82a12.3,12.3,0,0,0-5-1.77c-.31,0-.63,0-1,0a6.46,6.46,0,0,0-4.46,1.39"/></clipPath><linearGradient id="linear-gradient-22" x1="-2776.13" y1="12712.04" x2="-2775.13" y2="12712.04" gradientTransform="matrix(48.32, 0, 0, -48.32, 134219.84, 614614.59)" xlink:href="#linear-gradient"/><clipPath id="clip-path-39"><path class="cls-1" d="M181.48,234.89c-4,1.69-4.39,5.15-.95,7.75A15,15,0,0,0,194,244.27c4-1.68,4.4-5.15,1-7.74a14.91,14.91,0,0,0-13.47-1.64"/></clipPath><linearGradient id="linear-gradient-23" x1="-2694.94" y1="12719" x2="-2693.94" y2="12719" gradientTransform="matrix(19.06, 0, 0, -19.06, 51536.85, 242631.18)" xlink:href="#linear-gradient"/><clipPath id="clip-path-40"><rect class="cls-1" x="192.53" y="201.17" width="95.5" height="57.2"/></clipPath><clipPath id="clip-path-41"><rect class="cls-1" x="197.83" y="210.07" width="95.23" height="57.6"/></clipPath><clipPath id="clip-path-42"><rect class="cls-1" x="201.76" y="219.67" width="94.93" height="58.1"/></clipPath><clipPath id="clip-path-43"><rect class="cls-1" x="204.02" y="252.07" width="56.97" height="36.6"/></clipPath><clipPath id="clip-path-44"><path class="cls-1" d="M300.15,249.72l-86,49.68a7.91,7.91,0,0,0-3.58,7.45L214,329.64q2.73,18.6,10.88,31.09a5.54,5.54,0,0,0,7.25,1.56L318,312.69l.39-.25a4.56,4.56,0,0,0,1.07-6.34A71.67,71.67,0,0,1,308.66,275l-3.43-22.8c-.29-1.93-1.52-3-3.05-3a4,4,0,0,0-2,.6"/></clipPath><linearGradient id="linear-gradient-24" x1="-2805.73" y1="12709.5" x2="-2804.73" y2="12709.5" gradientTransform="matrix(109.79, 0, 0, -109.79, 308257.38, 1395707.63)" xlink:href="#linear-gradient"/><clipPath id="clip-path-45"><rect class="cls-1" x="207.88" y="249.07" width="109.79" height="114"/></clipPath><clipPath id="clip-path-46"><path class="cls-1" d="M273.18,309.43,286,319.76l-44.84-23.6-22.93,52.13a62.88,62.88,0,0,0,5.62,10.95,5.53,5.53,0,0,0,7.25,1.55L317,311.19a4.54,4.54,0,0,0,1.7-6.21,3,3,0,0,0-.24-.38,66.23,66.23,0,0,1-6.82-13.91L285,283.17Z"/></clipPath><linearGradient id="linear-gradient-25" x1="-2803.72" y1="12709.67" x2="-2802.72" y2="12709.67" gradientTransform="matrix(101.06, 0, 0, -101.06, 283565.96, 1284778.57)" xlink:href="#linear-gradient"/><clipPath id="clip-path-47"><path class="cls-1" d="M411.77,162.15v7.95l-.46,159.25A17.79,17.79,0,0,0,423,334.87c6.73.7,13.64-1.52,16.1-5.21l.45-159.15V162c-.33,5.43-27.6,5.47-27.82.11m0,0v0"/></clipPath><linearGradient id="linear-gradient-26" x1="-2738.66" y1="12715.25" x2="-2737.66" y2="12715.25" gradientTransform="matrix(28.28, 0, 0, -28.28, 77860.75, 359836.5)" xlink:href="#linear-gradient"/><clipPath id="clip-path-48"><path class="cls-1" d="M411.71,169.92v0m0,0V178c-.2,5.52,27.62,5.45,27.82-.07v-8.21c-.2,5.48-27.68,5.58-27.82.17"/></clipPath><linearGradient id="linear-gradient-27" x1="-2737.17" y1="12715.37" x2="-2736.17" y2="12715.37" gradientTransform="matrix(27.82, 0, 0, -27.82, 76562.78, 353931.86)" xlink:href="#linear-gradient"/><clipPath id="clip-path-49"><rect class="cls-1" x="409.25" y="119.77" width="27.82" height="14.3"/></clipPath><clipPath id="clip-path-50"><rect class="cls-1" x="423.62" y="127.27" width="13.44" height="239.9"/></clipPath><clipPath id="clip-path-51"><path class="cls-1" d="M359.61,266.35c-.4,18.15.8,55.68,1.06,60.57.36,6.86.38,14,1.54,25.13S366.69,389,366.69,389a10.32,10.32,0,0,0,9.69,0s3.77-31.11,3.62-39a107.63,107.63,0,0,0-1.64-17.1l3.41-35.22s1.34,10.89,1.7,17.75,1.3,11.05,3,23.82c1.47,11.07,5.2,34.45,5.2,34.45a8.78,8.78,0,0,0,9.21-.37s3.51-29,2.38-38.57-2-15.11-2-15.11.2-13.38,1-25.85c.85-13.48.66-30.45,1-33.81a136.15,136.15,0,0,0-24.43-2.72c-9.89,0-19.06,1.94-19.22,9.08"/></clipPath><linearGradient id="linear-gradient-28" x1="-2770.88" y1="12712.49" x2="-2769.88" y2="12712.49" gradientTransform="matrix(43.96, 0, 0, -43.96, 122153.56, 559101.89)" xlink:href="#linear-gradient"/><clipPath id="clip-path-52"><rect class="cls-1" x="379.12" y="281.27" width="16.47" height="32"/></clipPath></defs><path class="cls-2" d="M28.52,4.57a3.1,3.1,0,1,1-3.09,3.1,3.1,3.1,0,0,1,3.09-3.1"/><path class="cls-2" d="M28.52,78.85a3.1,3.1,0,1,1-3.09,3.09,3.09,3.09,0,0,1,3.09-3.09"/><path class="cls-2" d="M28.52,41.71a3.1,3.1,0,1,1-3.09,3.1,3.1,3.1,0,0,1,3.09-3.1"/><path class="cls-2" d="M28.52,116a3.1,3.1,0,1,1-3.09,3.1,3.1,3.1,0,0,1,3.09-3.1"/><path class="cls-2" d="M102.8,4.57a3.1,3.1,0,1,1-3.1,3.1,3.1,3.1,0,0,1,3.1-3.1"/><path class="cls-2" d="M102.8,78.85a3.1,3.1,0,1,1-3.1,3.09,3.09,3.09,0,0,1,3.1-3.09"/><path class="cls-2" d="M102.8,41.71a3.1,3.1,0,1,1-3.1,3.1,3.1,3.1,0,0,1,3.1-3.1"/><path class="cls-2" d="M102.8,116a3.1,3.1,0,1,1-3.1,3.1,3.1,3.1,0,0,1,3.1-3.1"/><path class="cls-2" d="M65.66,4.57a3.1,3.1,0,1,1-3.1,3.1,3.09,3.09,0,0,1,3.1-3.1"/><path class="cls-2" d="M65.66,78.85a3.1,3.1,0,1,1-3.1,3.09,3.09,3.09,0,0,1,3.1-3.09"/><path class="cls-2" d="M65.66,41.71a3.1,3.1,0,1,1-3.1,3.1,3.09,3.09,0,0,1,3.1-3.1"/><path class="cls-2" d="M65.66,116a3.1,3.1,0,1,1-3.1,3.1,3.09,3.09,0,0,1,3.1-3.1"/><path class="cls-2" d="M139.93,4.57a3.1,3.1,0,1,1-3.09,3.1,3.1,3.1,0,0,1,3.09-3.1"/><path class="cls-2" d="M139.93,78.85a3.1,3.1,0,1,1-3.09,3.09,3.09,3.09,0,0,1,3.09-3.09"/><path class="cls-2" d="M139.93,41.71a3.1,3.1,0,1,1-3.09,3.1,3.1,3.1,0,0,1,3.09-3.1"/><path class="cls-2" d="M139.93,116a3.1,3.1,0,1,1-3.09,3.1,3.1,3.1,0,0,1,3.09-3.1"/><path class="cls-3" d="M239,201.37c130.12,0,235.61,60.9,235.61,136s-105.49,136-235.61,136S3.39,412.52,3.39,337.4s105.49-136,235.61-136"/><path class="cls-4" d="M60.07,385.84,19.43,362.43c-2.29-1.33-2.29-3.47,0-4.79l236.4-136.53a9.13,9.13,0,0,1,8.3,0l40.64,23.46c2.29,1.32,2.29,3.47,0,4.79L68.37,385.84a9.19,9.19,0,0,1-8.3,0"/><polygon class="cls-4" points="234.76 395.55 137.15 339.2 259.13 268.91 356.62 325.19 234.76 395.55"/><path class="cls-4" d="M369.52,367.4c25.48,0,46.14,11.92,46.14,26.64S395,420.68,369.52,420.68,323.38,408.75,323.38,394,344,367.4,369.52,367.4"/><path class="cls-4" d="M431.43,362c5,2.89,5,7.57,0,10.46s-13.11,2.88-18.11,0-5-7.57,0-10.46,13.11-2.89,18.11,0"/><g class="cls-5"><rect class="cls-6" x="148.41" y="241.9" width="100.73" height="106.28"/></g><g class="cls-5"><rect class="cls-6" x="148.41" y="241.9" width="100.73" height="106.28"/></g><g class="cls-7"><rect class="cls-8" x="148.4" y="270.43" width="14.66" height="62.27"/></g><g class="cls-9"><rect class="cls-10" x="152.61" y="248.89" width="98.4" height="94.42"/></g><g class="cls-11"><g class="cls-12"><path d="M150,317.81a7.67,7.67,0,0,0,3.48,6l26.62,15.34c7.2,4.15,18.88,4.16,26.09,0l35-20.2c7.21-4.16,7.21-10.9,0-15.06l-26.63-15.34a7.67,7.67,0,0,1-3.48-6V248.89l-61,35.26Z"/></g></g><g class="cls-13"><g class="cls-14"><path d="M221.55,292.66h0l-7.08-4.09a7.69,7.69,0,0,1-3.48-6V248.89l-61,35.26v33.66a7.69,7.69,0,0,0,3.48,6l7,4Z"/></g></g><g class="cls-15"><rect class="cls-16" x="196.3" y="311.43" width="52.85" height="35.68"/></g><g class="cls-13"><g class="cls-17"><path d="M246.5,311.43v4.86c0,2.73-1.81,5.44-5.4,7.53L206.1,344a26.36,26.36,0,0,1-12.45,3.09v-4.84a26.36,26.36,0,0,0,12.45-3.09l35-20.21c3.59-2.06,5.4-4.79,5.4-7.53"/></g></g><g class="cls-18"><rect class="cls-19" x="50.56" y="16.5" width="252.85" height="344.43"/></g><g class="cls-20"><rect class="cls-21" x="58.71" y="21.68" width="244.7" height="339.19"/></g><g class="cls-13"><g class="cls-22"><path d="M60.41,359.48l236-136.25a9.62,9.62,0,0,0,4.35-7.53V24.79c0-2.77-1.95-3.9-4.35-2.51l-236,136.25a9.61,9.61,0,0,0-4.35,7.53V357c0,2.77,1.95,3.9,4.35,2.51"/></g></g><g class="cls-23"><rect class="cls-24" x="50.55" y="339.51" width="11.87" height="26"/></g><g class="cls-13"><g class="cls-25"><path d="M59.77,364.43a9.38,9.38,0,0,1-7.79-.16,9.32,9.32,0,0,1-4.08-7.39V339.51l8.15,4.72v17.38c0,2.53,1.61,3.68,3.72,2.82"/></g></g><g class="cls-26"><rect class="cls-27" x="58.7" y="202.92" width="244.7" height="162.58"/></g><g class="cls-11"><g class="cls-28"><path d="M56.06,344.19v17.42c0,2.77,2,3.89,4.35,2.51l236-136.25a9.62,9.62,0,0,0,4.35-7.53V202.92Z"/></g></g><g class="cls-29"><rect class="cls-30" x="66.86" y="35.07" width="228.38" height="289.69"/></g><path class="cls-31" d="M64.21,322.43V168.76a5.73,5.73,0,0,1,2.6-4.51L290,35.43c1.44-.83,2.61-.16,2.61,1.5V190.57a5.79,5.79,0,0,1-2.61,4.52L66.83,323.93c-1.45.83-2.62.15-2.62-1.5"/><g class="cls-32"><g class="cls-33"><path d="M57.34,161.76a9.25,9.25,0,0,0-1.29,4.29V344.23l-8.15-4.72V161.35a8.77,8.77,0,0,1,1.28-4.29Z"/></g></g><g class="cls-11"><g class="cls-34"><path d="M300.71,24.07c-.31-2.24-2.12-3.05-4.31-1.8l-236,136.26a8.89,8.89,0,0,0-3.07,3.23l-8.16-4.71a9,9,0,0,1,3.08-3.23l236-136.24a9.28,9.28,0,0,1,8.43-.16,9.34,9.34,0,0,1,4,6.65"/></g></g><g class="cls-35"><rect class="cls-36" x="83.09" y="44.97" width="230.51" height="153.85"/></g><g class="cls-37"><g class="cls-38"><path class="cls-39" d="M310.9,48.84c-.15-1.12-1.06-1.53-2.14-.9L86.63,176.2a4.57,4.57,0,0,0-1.53,1.62L81,175.43a4.49,4.49,0,0,1,1.53-1.62L304.7,45.6a4,4,0,0,1,5.54,1.13,4.07,4.07,0,0,1,.66,2.11"/></g></g><path class="cls-3" d="M86.63,335.67a3.64,3.64,0,0,1-1.7.52,4.3,4.3,0,0,1-2.49-.44,4.63,4.63,0,0,1-2-3.67V203.25l4.07,2.35V334.43c0,1,.49,1.55,1.2,1.55a2.14,2.14,0,0,0,.92-.31"/><g class="cls-40"><g class="cls-41"><path d="M85.1,177.82a4.3,4.3,0,0,0-.63,2.13V205.6l-4.07-2.35V177.34a4.51,4.51,0,0,1,.09-.53,4.6,4.6,0,0,1,.54-1.34Z"/></g></g><g class="cls-42"><rect class="cls-43" x="87.08" y="47.64" width="226.49" height="143.89"/></g><path class="cls-44" d="M310.92,203.66a4.8,4.8,0,0,1-2.16,3.76L86.63,335.67c-1.19.69-2.16.13-2.16-1.25V191.52l6-3.44c1.19-.69,3.13-11.19,4.33-11.88l51.65-29.83c1.2-.69,4,7.07,5.21,6.38l159.3-92v142.9Z"/><path class="cls-4" d="M309.92,62.49V203.66a3.82,3.82,0,0,1-1.66,2.89L86.13,334.81a1.1,1.1,0,0,1-.46.16c-.2,0-.2-.52-.2-.55V192.09l5.46-3.15c.87-.5,1.41-2.18,2.62-6.51A31.76,31.76,0,0,1,95.34,177l51.19-29.59a23.16,23.16,0,0,1,1.63,2.6c1.39,2.45,2.17,3.73,3.3,3.73a1.39,1.39,0,0,0,.66-.18l157.8-91.12m-163,84.75h0M95.38,177h0M310.92,60.76l-159.3,92a.43.43,0,0,1-.16,0c-1.21,0-3.67-6.46-4.89-6.46a.22.22,0,0,0-.16,0L94.76,176.13c-1.2.69-3.14,11.19-4.33,11.88l-6,3.44v143c0,1,.49,1.55,1.2,1.55a2,2,0,0,0,1-.3L308.76,207.43a4.8,4.8,0,0,0,2.16-3.76Z"/><path class="cls-3" d="M122.47,254l29.6-17.09c.8-.46,1.44-.09,1.44.83v49.85a3.2,3.2,0,0,1-1.44,2.5l-29.6,17.09c-.8.46-1.44.08-1.44-.84V256.5a3.16,3.16,0,0,1,1.44-2.5"/><path class="cls-4" d="M127.88,257.12l18.78-10.84c.79-.46,1.44-.13,1.44.73a3.12,3.12,0,0,1-1.44,2.4l-18.78,10.84c-.79.46-1.44.13-1.44-.73a3.09,3.09,0,0,1,1.44-2.4"/><g class="cls-45"><rect class="cls-46" x="129.09" y="263.03" width="2.74" height="4.08"/></g><path class="cls-4" d="M131.83,262.65c0,.86.65,1.19,1.45.73l13.36-7.72a3.1,3.1,0,0,0,1.44-2.39c0-.87-.65-1.19-1.44-.73l-13.36,7.71a3.07,3.07,0,0,0-1.45,2.4"/><g class="cls-47"><rect class="cls-48" x="129.09" y="269.25" width="2.74" height="4.08"/></g><path class="cls-4" d="M131.83,268.91c0,.86.65,1.19,1.45.73l13.36-7.72a3.1,3.1,0,0,0,1.44-2.39c0-.87-.65-1.19-1.44-.73l-13.36,7.71a3.07,3.07,0,0,0-1.45,2.4"/><g class="cls-49"><rect class="cls-50" x="129.09" y="275.53" width="2.74" height="4.09"/></g><path class="cls-4" d="M131.83,275.15c0,.87.65,1.19,1.45.73l13.36-7.71a3.1,3.1,0,0,0,1.44-2.39c0-.87-.65-1.19-1.44-.73l-13.36,7.71a3.1,3.1,0,0,0-1.45,2.39"/><g class="cls-51"><rect class="cls-52" x="129.09" y="281.81" width="2.74" height="4.06"/></g><path class="cls-4" d="M131.83,281.43c0,.86.65,1.19,1.45.73l13.38-7.73a3.12,3.12,0,0,0,1.44-2.4c0-.86-.65-1.19-1.44-.73L133.3,279a3.09,3.09,0,0,0-1.47,2.42"/><path class="cls-4" d="M127.77,291.58l18.77-10.84c.8-.46,1.45-.14,1.45.73a3.07,3.07,0,0,1-1.45,2.39L127.77,294.7c-.8.46-1.45.14-1.44-.73a3.09,3.09,0,0,1,1.44-2.39"/><g class="cls-53"><rect class="cls-54" x="128.97" y="297.48" width="2.73" height="4.09"/></g><path class="cls-4" d="M131.74,297.1c0,.86.65,1.19,1.44.73l13.36-7.71a3.11,3.11,0,0,0,1.45-2.4c0-.86-.65-1.19-1.45-.73l-13.36,7.71a3.11,3.11,0,0,0-1.44,2.4"/><path class="cls-39" d="M300.77,56.43c1.51-.87,2.73-.16,2.73,1.58a6,6,0,0,1-2.73,4.72c-1.5.86-2.72.16-2.72-1.58a6,6,0,0,1,2.72-4.72"/><path class="cls-39" d="M291,62.1c1.51-.87,2.73-.17,2.73,1.57A6,6,0,0,1,291,68.43c-1.5.87-2.72.16-2.72-1.57A6,6,0,0,1,291,62.1"/><path class="cls-39" d="M279.24,69.79C280.3,68,282,67,283.08,67.57s1.06,2.6,0,4.45-2.78,2.83-3.85,2.22-1.06-2.6,0-4.45"/><path class="cls-55" d="M310.92,60.76V74.84L84.47,205.6V191.52l4.45-2.58c1.19-.69,1.59-1.74,2.16-3.75L92.59,180c.48-1.82,1-3.06,2.17-3.75l51.65-29.83c1.2-.69,2.14-.76,3,.75l1.85,3.36c.68,1.17,1,1.86,2.21,1.17Z"/><polygon class="cls-4" points="84.47 191.52 84.47 205.6 80.4 203.25 80.4 189.18 84.47 191.52"/><g class="cls-13"><g class="cls-56"><path class="cls-57" d="M94.4,192.53l-3.4,2L92.3,192a.66.66,0,0,0,0-.61c-.1-.12-.28,0-.39.19l-1.84,3.54a.2.2,0,0,1,0,.13.54.54,0,0,0,0,.18.43.43,0,0,0,0,.16.35.35,0,0,0,0,.08l1.84,1.41a.15.15,0,0,0,.18,0,.53.53,0,0,0,.21-.26.55.55,0,0,0,0-.58l-1.3-1,3.4-2a.71.71,0,0,0,.28-.58c0-.14-.13-.27-.28-.17"/></g></g><g class="cls-13"><g class="cls-58"><path class="cls-57" d="M97.24,190.89l3.4-2-1.3-1c-.11-.08-.12-.34,0-.58s.27-.34.38-.26l1.85,1.42a.08.08,0,0,1,0,.07.38.38,0,0,1,0,.15.6.6,0,0,1,0,.19V189l-1.85,3.55a.52.52,0,0,1-.18.21.15.15,0,0,1-.2,0h0a.66.66,0,0,1,0-.61l1.3-2.49-3.4,2c-.15.09-.27,0-.27-.26a.71.71,0,0,1,.27-.52"/></g></g><g class="cls-13"><g class="cls-59"><path class="cls-57" d="M108.39,181.1c0-.2-.2-.17-.29.05l-.46,1.14c-.8-.09-1.76.69-2.41,2.06-.84,1.78-.84,3.89,0,4.7a1.21,1.21,0,0,0,1.53.09,4.15,4.15,0,0,0,1.52-1.85.59.59,0,0,0,0-.6c-.1-.1-.28,0-.38.23-.63,1.33-1.65,1.92-2.28,1.31s-.63-2.18,0-3.51c.44-.94,1.09-1.5,1.65-1.54l-.35.86c-.09.22,0,.43.13.34l1.39-.91a.44.44,0,0,0,.15-.38Z"/></g></g><g class="cls-13"><g class="cls-60"><path class="cls-57" d="M144.92,152.8l1.24-2.62a.8.8,0,0,0,0-.82c-.15-.14-.38,0-.53.31l-1.24,2.62-1.24-1.19c-.14-.14-.38,0-.53.3a.85.85,0,0,0,0,.82l1.21,1.21-1.24,2.63a.83.83,0,0,0,0,.81.22.22,0,0,0,.27,0,.9.9,0,0,0,.26-.32l1.24-2.63,1.24,1.2a.22.22,0,0,0,.27,0,.68.68,0,0,0,.26-.32.8.8,0,0,0,0-.82Z"/></g></g><path class="cls-44" d="M112.9,184.33V180a4.76,4.76,0,0,1,2.17-3.75L296.58,71.43c1.19-.69,2.16-.13,2.16,1.25v4.38a4.78,4.78,0,0,1-2.16,3.75L115.07,185.58c-1.24.69-2.17.13-2.17-1.25"/><path class="cls-4" d="M293.63,81.16a.61.61,0,0,1-.19,0,.6.6,0,0,1-.33-.65l.21-1.78-.83-.6a.59.59,0,0,1-.23-.49,1,1,0,0,1,.36-.75l1.27-1a.24.24,0,0,0,.05-.1l.57-1.87a.8.8,0,0,1,.64-.6.49.49,0,0,1,.5.3l.48,1,1.07-.41a.51.51,0,0,1,.58.13.82.82,0,0,1,0,.88l-.92,1.72v.11l.21,1.56a1,1,0,0,1-.24.82.63.63,0,0,1-.5.2l-1-.13-1.12,1.43a.64.64,0,0,1-.58.23M293,77.54l.83.6a.62.62,0,0,1,.22.6l-.14,1.18.75-1a.64.64,0,0,1,.57-.28l1,.13a.24.24,0,0,0,0-.12L296,77.14a1,1,0,0,1,.11-.56l.81-1.51-.83.32a.52.52,0,0,1-.66-.27l-.37-.79L294.58,76a1,1,0,0,1-.31.47l-1.28,1,0,.08"/><g class="cls-61"><g class="cls-62"><path class="cls-57" d="M301.29,70.91a.75.75,0,0,1-.37-1.4L307,66a.75.75,0,0,1,1,.27.76.76,0,0,1-.28,1l-6.09,3.52a.86.86,0,0,1-.38.1"/><path class="cls-57" d="M301.29,74.43a.75.75,0,0,1-.37-1.4L307,69.51a.75.75,0,0,1,1,.27.76.76,0,0,1-.28,1l-6.09,3.52a1,1,0,0,1-.38.1"/><path class="cls-57" d="M301.29,78a.75.75,0,0,1-.37-1.4L307,73a.73.73,0,0,1,1,.27.76.76,0,0,1-.27,1l-6.09,3.51a.93.93,0,0,1-.36.14"/></g></g><polygon class="cls-63" points="84.47 205.6 84.46 219.66 310.9 88.93 310.92 74.84 84.47 205.6"/><path class="cls-44" d="M109.83,196.63v2.72c0,.56.39.78.87.5l34-19.65v-4.77l-34,19.65a1.93,1.93,0,0,0-.87,1.55"/><path class="cls-64" d="M149.33,172.8c.49-.28.88-.05.88.51V176a1.93,1.93,0,0,1-.88,1.51l-4.6,2.66v-4.77Z"/><path class="cls-44" d="M149,176.53l-.51-.16a3,3,0,0,0,.08-.66,1.18,1.18,0,0,0-.47-1.09.7.7,0,0,0-.74,0,2.62,2.62,0,0,0-1,2.13,1.21,1.21,0,0,0,.47,1.1.63.63,0,0,0,.33.09.86.86,0,0,0,.42-.13,2.19,2.19,0,0,0,.83-1.11l.51.16H149a.21.21,0,0,0,.18-.13.19.19,0,0,0-.16-.2m-1.64,1a.35.35,0,0,1-.37,0,.9.9,0,0,1-.28-.77,2.28,2.28,0,0,1,.84-1.8.39.39,0,0,1,.23-.07h.13a.88.88,0,0,1,.28.77,2.29,2.29,0,0,1-.83,1.85Z"/><path class="cls-44" d="M103.9,199.06l-2.32,1.37a1.93,1.93,0,0,0-.87,1.5v2.69c0,.56.39.78.87.5l2.32-1.34a1.91,1.91,0,0,0,.87-1.5v-2.69c0-.58-.39-.81-.87-.53"/><path class="cls-64" d="M184.53,151.36a6.86,6.86,0,0,0-3.1,5.38c0,2,1.39,2.78,3.1,1.79a6.89,6.89,0,0,0,3.1-5.38c0-2-1.39-2.78-3.1-1.79"/><path class="cls-39" d="M184.17,154.52a.55.55,0,0,1-.28-.07.7.7,0,0,1-.3-.62,1.78,1.78,0,0,1,.82-1.42.65.65,0,0,1,1,.62,1.81,1.81,0,0,1-.82,1.42,1,1,0,0,1-.41.07"/><path class="cls-39" d="M185.76,154.73a1.06,1.06,0,0,0-1.1.08l-.45.26a3,3,0,0,0-1.39,2.42v.32a1.77,1.77,0,0,0,1.71-.18,5.08,5.08,0,0,0,1.71-1.8v-.08a1.1,1.1,0,0,0-.48-1"/><path class="cls-4" d="M191.63,149l21.25-12.28c.86-.49,1.56-.12,1.56.85a3.39,3.39,0,0,1-1.56,2.64l-21.25,12.26c-.86.5-1.56.12-1.56-.84a3.36,3.36,0,0,1,1.56-2.63"/><path class="cls-4" d="M224.07,130.25l13.19-7.68c.86-.5,1.55-.12,1.56.84a3.41,3.41,0,0,1-1.56,2.64l-13.19,7.69c-.86.49-1.56.12-1.56-.85a3.39,3.39,0,0,1,1.56-2.64"/><path class="cls-4" d="M248.47,116.23l9.1-5.28c.86-.5,1.56-.12,1.56.84a3.39,3.39,0,0,1-1.56,2.64l-9.1,5.29c-.86.49-1.56.12-1.56-.84a3.41,3.41,0,0,1,1.56-2.65"/><path class="cls-31" d="M218.51,138a.38.38,0,0,1-.38-.38v-4.69a.39.39,0,0,1,.44-.32.39.39,0,0,1,.31.32v4.69a.38.38,0,0,1-.37.38"/><path class="cls-31" d="M242.88,123.89a.38.38,0,0,1-.38-.38v-4.69a.39.39,0,0,1,.44-.32.39.39,0,0,1,.31.32v4.69a.38.38,0,0,1-.37.38"/><path class="cls-31" d="M263.19,112.16a.38.38,0,0,1-.38-.37V107.1a.38.38,0,0,1,.75-.13.29.29,0,0,1,0,.13v4.69a.38.38,0,0,1-.37.37"/><path class="cls-64" d="M271,104.93v-.86c0-1-.6-1.44-1.34-1a3.21,3.21,0,0,0-1.33,2.55v.81a3.12,3.12,0,0,1-.45,1.51.77.77,0,0,0-.11.39c0,.25.15.36.33.26l3.13-1.8a.85.85,0,0,0,.33-.65.31.31,0,0,0-.1-.26.92.92,0,0,1-.46-.95"/><path class="cls-64" d="M270.31,107.53a1.55,1.55,0,0,1-.65,1.23c-.35.2-.64,0-.64-.49Z"/><path class="cls-64" d="M276.71,101.15a.68.68,0,0,1-.31-.08.79.79,0,0,1-.34-.7,2,2,0,0,1,.92-1.6.78.78,0,0,1,.78-.06.77.77,0,0,1,.34.7,2,2,0,0,1-.92,1.6,1.07,1.07,0,0,1-.47.14"/><path class="cls-64" d="M278.5,101.43a1.19,1.19,0,0,0-1.23.1l-.51.29a3.44,3.44,0,0,0-1.57,2.73v.36a2,2,0,0,0,1.93-.2,5.77,5.77,0,0,0,1.93-2v-.09a1.27,1.27,0,0,0-.55-1.19"/><path class="cls-64" d="M279.19,98.83a.65.65,0,0,1-.31-.08.74.74,0,0,1-.34-.7,2,2,0,0,1,.92-1.6.69.69,0,0,1,1,.11.7.7,0,0,1,.14.54,2,2,0,0,1-.92,1.59,1.07,1.07,0,0,1-.46.14"/><path class="cls-64" d="M281,99.07a1.2,1.2,0,0,0-1.24.09l-.5.3A3.2,3.2,0,0,0,278,101a1.11,1.11,0,0,1,1.09,0,1.27,1.27,0,0,1,.55,1.16v.22a5.55,5.55,0,0,0,1.94-2v-.09a1.26,1.26,0,0,0-.55-1.2"/><path class="cls-64" d="M287.16,92.67a5.63,5.63,0,0,0-2.55,4.42,1.94,1.94,0,0,0,.57,1.51l-.32,1.51c0,.19.09.27.21.13l1.15-1.34a2.85,2.85,0,0,0,.94-.33,5.65,5.65,0,0,0,2.54-4.42c0-1.63-1.14-2.29-2.54-1.48"/><path class="cls-64" d="M299.39,85.55a1.33,1.33,0,0,1,.63-.22.76.76,0,0,1,.51.09.84.84,0,0,1,.34.4,1.47,1.47,0,0,1,.13.69,2.62,2.62,0,0,1-.07.62c-.05.19-.11.37-.18.56s-.16.34-.25.5l-.25.46a4.81,4.81,0,0,0-.22.46,2.15,2.15,0,0,0-.14.45,1.6,1.6,0,0,1-.05.21.28.28,0,0,1-.11.13l-.72.42a.09.09,0,0,1-.12,0,.21.21,0,0,1-.05-.15,2.25,2.25,0,0,1,.08-.58,5.31,5.31,0,0,1,.2-.56c.08-.17.17-.35.26-.51l.26-.47a4,4,0,0,0,.2-.42,1.09,1.09,0,0,0,.08-.39c0-.18,0-.29-.13-.34s-.22,0-.4.08a1,1,0,0,0-.39.35,1.56,1.56,0,0,0-.17.37,1.35,1.35,0,0,1-.09.32.42.42,0,0,1-.15.22l-.73.42a.09.09,0,0,1-.1,0,.24.24,0,0,1,0-.12,3.09,3.09,0,0,1,.11-.75,4.31,4.31,0,0,1,.33-.84,4.69,4.69,0,0,1,.52-.79,2.3,2.3,0,0,1,.67-.61m.52,6a.46.46,0,0,1-.05.2.36.36,0,0,1-.11.14l-.76.43a.08.08,0,0,1-.11,0,.21.21,0,0,1-.05-.15v-.93a.46.46,0,0,1,.05-.2.26.26,0,0,1,.11-.14l.76-.44a.08.08,0,0,1,.11,0,.2.2,0,0,1,.05.15Z"/><g class="cls-65"><rect class="cls-66" x="123.67" y="115.65" width="153.33" height="133.93"/></g><g class="cls-32"><g class="cls-67"><path class="cls-39" d="M120,205.75v41.9c0,1.38,1,1.94,2.17,1.25l149-86.06a4.78,4.78,0,0,0,2.16-3.75V117.2c0-1.38-1-1.94-2.16-1.25L122.19,202a4.76,4.76,0,0,0-2.17,3.75"/></g></g><g class="cls-68"><rect class="cls-69" x="127.73" y="210.73" width="16.26" height="22.47"/></g><path class="cls-39" d="M197.44,314.33a1.39,1.39,0,0,1-.72-.19,1.77,1.77,0,0,1-.78-1.63,4.63,4.63,0,0,1,2.13-3.7,1.59,1.59,0,0,1,2.25.23,1.63,1.63,0,0,1,.34,1.26,4.67,4.67,0,0,1-2.14,3.7,2.31,2.31,0,0,1-1.08.33"/><path class="cls-39" d="M201.6,314.87a2.78,2.78,0,0,0-2.86.22l-1.18.68a8,8,0,0,0-3.66,6.33v.84c1.16.64,2.74.53,4.49-.48a13.11,13.11,0,0,0,4.48-4.7v-.2a3,3,0,0,0-1.27-2.69"/><path class="cls-57" d="M212.13,304.35l17.21-9.93c.86-.5,1.56-.18,1.56.7a3.32,3.32,0,0,1-1.56,2.5l-17.21,9.93c-.86.5-1.56.19-1.56-.7a3.25,3.25,0,0,1,1.56-2.5"/><path class="cls-57" d="M211.49,311l10.12-5.84c.5-.3.91-.11.91.41a2,2,0,0,1-.91,1.47l-10.12,5.84c-.51.29-.92.11-.92-.41a1.88,1.88,0,0,1,.92-1.47"/><path class="cls-70" d="M188.37,343.16l149-86a4.84,4.84,0,0,0,2.16-3.75v-6.87L186.2,335v6.88c0,1.38,1,1.94,2.17,1.25"/><path class="cls-71" d="M226.82,318.93a.36.36,0,0,1-.37-.35v-4.71a.36.36,0,0,1,.36-.38h0a.38.38,0,0,1,.38.38v4.69a.38.38,0,0,1-.37.37Z"/><path class="cls-4" d="M208.65,325.11l13.18-7.69c.86-.49,1.56-.12,1.56.85a3.42,3.42,0,0,1-1.56,2.64l-13.18,7.73c-.86.5-1.56.12-1.56-.84a3.36,3.36,0,0,1,1.56-2.69"/><path class="cls-71" d="M250.63,305.1a.37.37,0,0,1-.37-.37h0V300a.36.36,0,0,1,.37-.37.38.38,0,0,1,.38.37v4.69A.38.38,0,0,1,250.63,305.1Z"/><path class="cls-4" d="M232.46,311.27l13.18-7.63c.86-.5,1.56-.12,1.56.84a3.39,3.39,0,0,1-1.56,2.64l-13.18,7.69c-.86.5-1.56.12-1.56-.84a3.38,3.38,0,0,1,1.56-2.7"/><path class="cls-71" d="M274.44,291.26a.38.38,0,0,1-.38-.37V286.2a.38.38,0,0,1,.38-.38.37.37,0,0,1,.37.37h0v4.69a.38.38,0,0,1-.37.37"/><path class="cls-4" d="M256.27,297.44l13.18-7.69c.86-.49,1.56-.12,1.56.85a3.42,3.42,0,0,1-1.56,2.64l-13.18,7.68c-.86.5-1.56.12-1.56-.84a3.39,3.39,0,0,1,1.56-2.64"/><path class="cls-71" d="M298.25,277.43a.38.38,0,0,1-.38-.38v-4.69a.36.36,0,0,1,.37-.37h0a.36.36,0,0,1,.37.35v4.71a.38.38,0,0,1-.36.38Z"/><path class="cls-4" d="M280.08,283.64,293.26,276c.86-.5,1.56-.12,1.56.84a3.39,3.39,0,0,1-1.56,2.64l-13.18,7.69c-.87.5-1.56.12-1.56-.84a3.34,3.34,0,0,1,1.56-2.65"/><path class="cls-4" d="M303.88,269.77l13.19-7.69c.86-.49,1.56-.12,1.56.85a3.42,3.42,0,0,1-1.56,2.64l-13.19,7.68c-.86.5-1.55.12-1.55-.84a3.35,3.35,0,0,1,1.55-2.64"/><g class="cls-72"><rect class="cls-73" x="106.78" y="300" width="33.24" height="89.32"/></g><g class="cls-72"><rect class="cls-74" x="77.84" y="325.45" width="91.11" height="38.43" transform="translate(-227.91 447.61) rotate(-86.63)"/></g><path class="cls-39" d="M122.18,386.27a.6.6,0,0,0,.57-.41c8.56-26.21,8.92-63-7.28-79.61a.59.59,0,0,0-.85,0,.6.6,0,0,0,0,.85c15.29,15.66,15.56,52.16,7,78.39a.6.6,0,0,0,.38.75h0l.18,0"/><g class="cls-75"><rect class="cls-76" x="76.88" y="330.16" width="48.48" height="73.74"/></g><path class="cls-39" d="M106.17,395.43a.55.55,0,0,0,.53-.48c2.57-20.36-7.15-47.83-21.67-61.22a.54.54,0,0,0-.76.09.56.56,0,0,0,0,.7c14.29,13.19,23.86,40.24,21.33,60.3a.55.55,0,0,0,.47.6Z"/><path class="cls-39" d="M103.68,369.35a.53.53,0,0,0,.43-.22.54.54,0,0,0-.1-.75c-8-6-20.26-5-20.77-4.92a.53.53,0,0,0-.49.58h0a.56.56,0,0,0,.58.49c.13,0,12.35-1.06,20,4.7a.61.61,0,0,0,.35.11"/><path class="cls-39" d="M102.48,364.35a.53.53,0,0,0,.53-.51,21.55,21.55,0,0,1,7.48-15,.54.54,0,0,0,.1-.76h0a.55.55,0,0,0-.76-.09,22.44,22.44,0,0,0-7.89,15.82.55.55,0,0,0,.51.56Z"/><path class="cls-71" d="M234.76,386.17a68.21,68.21,0,0,1-33.32-48.88l-7.09-47.07a68.13,68.13,0,0,0-27.52-45.12l-9.25-6.67v5.28l5,3.62a68.16,68.16,0,0,1,27.5,45l7.23,47.4a68.19,68.19,0,0,0,33.3,48.76l4.13,2.38v-4.69Z"/><path class="cls-44" d="M315.17,271.62l-7.09-47.07a68.12,68.12,0,0,0-27.51-45.12l-9.25-6.68L157.58,238.43l9.25,6.68a68.13,68.13,0,0,1,27.52,45.12l7.09,47.07a68.21,68.21,0,0,0,33.32,48.88L348.5,320.51a68.17,68.17,0,0,1-33.33-48.89"/><path class="cls-4" d="M271.26,173.94l8.72,6.3A67.57,67.57,0,0,1,307.1,224.7l7.08,47.07a68.82,68.82,0,0,0,32.34,48.72L234.76,385a66.87,66.87,0,0,1-32.34-47.87l-7.08-47.07a69.61,69.61,0,0,0-27.92-45.79l-8-5.77Zm.06-1.19L157.58,238.43l9.25,6.68a68.13,68.13,0,0,1,27.52,45.12l7.09,47.07a68.18,68.18,0,0,0,33.32,48.88L348.5,320.51a68.17,68.17,0,0,1-33.33-48.88l-7.09-47.07a68.16,68.16,0,0,0-27.51-45.13Z"/><polygon class="cls-70" points="234.76 386.17 348.5 320.5 348.5 325.19 234.76 390.86 234.76 386.17"/><g class="cls-77"><rect class="cls-78" x="177.09" y="233.98" width="21.26" height="11.92"/></g><path class="cls-39" d="M183.13,239.1a5.57,5.57,0,0,1-1,0,4.38,4.38,0,0,1-2.07-.74c-.92-.69-.82-1.59.25-2a4.34,4.34,0,0,1,2.2-.23,4.44,4.44,0,0,1,2.07.75c.92.69.81,1.59-.25,2a3.75,3.75,0,0,1-1.2.22"/><path class="cls-39" d="M188.76,239a6.88,6.88,0,0,0-3.48.36l-1,.44c-1.81.78-2,2.31-.42,3.49l.56.42a12.86,12.86,0,0,0,5.65-.45c1.72-.66,2.77-1.42,2.92-2.51l-.77-.51a7.31,7.31,0,0,0-3.46-1.24"/><path class="cls-57" d="M197.3,227.51l33.4-19.29a4.07,4.07,0,0,1,4.19.22l.3.24a1.62,1.62,0,0,1,.49,2.23,1.55,1.55,0,0,1-.72.62l-33.37,19.33a3.91,3.91,0,0,1-4.08-.36c-.12-.09-.24-.18-.35-.28a1.5,1.5,0,0,1-.61-2,1.46,1.46,0,0,1,.75-.68"/><path class="cls-57" d="M204.64,235.29l16.72-9.65a.9.9,0,0,0,.41-1.19.89.89,0,0,0-.24-.3l-.3-.29a1.72,1.72,0,0,0-2-.23l-16.63,9.72a.9.9,0,0,0-.4,1.2.76.76,0,0,0,.23.3l.21.2a1.77,1.77,0,0,0,2,.24"/><g class="cls-79"><g class="cls-80"><path d="M193.71,253.62l90.12-52.05a2.78,2.78,0,0,1,3.61.79l.19.27a2.32,2.32,0,0,1-.63,3.23l-.17.11-90.17,52.09a2.68,2.68,0,0,1-3.52-.85l-.19-.29a2.28,2.28,0,0,1,.54-3.17l.22-.13"/></g></g><g class="cls-79"><g class="cls-81"><path d="M199.18,262.5l90.22-52.07a2.32,2.32,0,0,1,3.18.8,1.28,1.28,0,0,1,.11.2l.14.29a2.82,2.82,0,0,1-1.14,3.53l-90.24,52.14a2.22,2.22,0,0,1-3-.75,2,2,0,0,1-.13-.25l-.16-.32a2.72,2.72,0,0,1,1.06-3.57"/></g></g><g class="cls-79"><g class="cls-82"><path d="M203.24,272.15,293.54,220a1.92,1.92,0,0,1,2.67.55,1.78,1.78,0,0,1,.26.58l.12.45a3.38,3.38,0,0,1-1.5,3.66l-90.26,52.17a1.83,1.83,0,0,1-2.54-.51,2,2,0,0,1-.27-.66,1.74,1.74,0,0,0-.14-.48,3.3,3.3,0,0,1,1.36-3.63"/></g></g><g class="cls-79"><g class="cls-83"><path d="M205.83,282.67l52.49-30.31a1.6,1.6,0,0,1,2.23.32,1.63,1.63,0,0,1,.31.91l.11.7a3.93,3.93,0,0,1-1.79,3.72l-52.49,30.34a1.58,1.58,0,0,1-2.22-.33,1.53,1.53,0,0,1-.32-.89,4.72,4.72,0,0,0-.11-.74,4,4,0,0,1,1.79-3.72"/></g></g><g class="cls-84"><rect class="cls-85" x="210.27" y="249.12" width="110.67" height="114.58"/></g><g class="cls-32"><g class="cls-86"><path class="cls-39" d="M315.37,312.69l-85.89,49.6a5.54,5.54,0,0,1-7.25-1.56q-8.14-12.48-10.88-31.09l-3.43-22.79a7.91,7.91,0,0,1,3.58-7.45l86-49.68c2.39-1.38,4.67-.28,5.08,2.45L306,275a71.8,71.8,0,0,0,10.82,31.13,4.55,4.55,0,0,1-1.07,6.34l-.39.25"/></g></g><g class="cls-87"><rect class="cls-88" x="218.26" y="283.17" width="101.71" height="79.04"/></g><path class="cls-44" d="M264.5,277.6c3.16-1.82,6.17-.31,6.73,3.38a10.57,10.57,0,0,1-4.72,10c-3.16,1.83-6.17.31-6.72-3.38a10.55,10.55,0,0,1,4.71-10"/><path class="cls-64" d="M290.58,340.58a6.17,6.17,0,0,1-.86,0A3.78,3.78,0,0,1,288,340c-.76-.57-.67-1.32.21-1.7a3.56,3.56,0,0,1,1.83-.19,3.77,3.77,0,0,1,1.74.62c.76.58.67,1.33-.21,1.71a2.93,2.93,0,0,1-1,.19"/><path class="cls-64" d="M295.29,340.51a5.77,5.77,0,0,0-2.91.3l-.87.36c-1.51.65-1.67,1.93-.35,2.92l.46.35a10.67,10.67,0,0,0,4.73-.38c1.43-.55,2.31-1.19,2.44-2.1l-.65-.42a5.9,5.9,0,0,0-2.85-1"/><path class="cls-64" d="M296.94,336.74l-3.22.16-.87.75a.3.3,0,0,0,0,.43l0,.05.87.69,3.27-.13Zm-3.44,1.36a.23.23,0,0,1-.23-.23h0a.24.24,0,0,1,.47,0h0A.24.24,0,0,1,293.5,338.1Z"/><path class="cls-64" d="M313.61,331c0,.49-.63.9-1,1.1a6.25,6.25,0,0,1-2.26.73c-.76-.89.7-2.44,3.26-1.83"/><path class="cls-64" d="M313.73,327.89c-2.36-1.95-6.06-2.67-8.66-1.18s-3.11,4.64-.72,6.59,6.66,2,9.24.49,2.51-4,.14-5.9m-3.9-.46a1.17,1.17,0,0,1,1.34.21.59.59,0,0,1,.08.84.62.62,0,0,1-.2.16,1.24,1.24,0,0,1-1.39-.15.65.65,0,0,1,0-.92.52.52,0,0,1,.19-.14m-4.74,3.64a.66.66,0,0,1,0-.92.62.62,0,0,1,.21-.15,1.16,1.16,0,0,1,1.33.21.59.59,0,0,1,.08.84.49.49,0,0,1-.19.16,1.23,1.23,0,0,1-1.44-.1Zm7.84,1.46a7.84,7.84,0,0,1-6.76.2l6.72-3.79a2.78,2.78,0,0,1,1.26,2.1,2.16,2.16,0,0,1-1.27,1.53Z"/><path class="cls-64" d="M327.83,319.1a4,4,0,0,0-.89-1,5.62,5.62,0,0,0-6.06-.83,2.7,2.7,0,0,0-1.33,3.58,2.77,2.77,0,0,0,.83,1,5.16,5.16,0,0,0,.67.44c3,1.71,8.45,1.92,8.45,1.92a9.53,9.53,0,0,0-1.67-5.14M325.22,321a3,3,0,0,1-3.09-.16,1.3,1.3,0,0,1,.24-2.21,2.7,2.7,0,0,1,2.9.4c.8.65.83,1.47,0,2Z"/><path class="cls-89" d="M436.48,329.66l-12.86,37.53a1.21,1.21,0,0,1-2.29,0l-12.69-37.83Z"/><path class="cls-31" d="M421.33,367.18a1.21,1.21,0,0,0,2.29,0l2.51-7.33a6.69,6.69,0,0,1-6.95-.39l-.56-.38Z"/><g class="cls-90"><rect class="cls-91" x="411.31" y="162.01" width="28.28" height="173.56"/></g><path class="cls-71" d="M409,176v8.2c-.08,2.38,5,3.92,10.83,4.45,7.76.74,16.9-1.36,17-4.51v-8.21c-.12,3.15-9.26,5.26-17,4.52-5.6-.52-10.5-2-10.78-4.19a.47.47,0,0,1,0-.26"/><g class="cls-92"><rect class="cls-93" x="411.51" y="169.75" width="28.02" height="13.8"/></g><path class="cls-71" d="M409.12,162v8.1c-.24,5.42,26.61,5.58,27.82.4a1.18,1.18,0,0,0,.05-.31V162c-.38,5.48-28.11,5.47-27.87,0"/><path class="cls-94" d="M437.06,127.29v-.35c0-4-6.22-7.16-13.9-7.16s-13.91,3.21-13.91,7.16v3.73L409.12,162c-.1,2.35,4.9,3.9,10.7,4.46,7.76.76,16.94-1.29,17.11-4.43l.12-34.5a1.18,1.18,0,0,0,0-.25"/><g class="cls-79"><g class="cls-95"><path class="cls-39" d="M423.16,119.78c7.68,0,13.91,3.2,13.91,7.16s-6.23,7.16-13.91,7.16-13.91-3.21-13.91-7.16,6.23-7.16,13.91-7.16"/></g></g><g class="cls-40"><g class="cls-96"><path d="M436.91,170.51l.15-43.22c-.18,3.38-6,6.58-12.25,6.81L424.36,335l-.74,32.19,12.86-37.53Z"/></g></g><path class="cls-97" d="M391.92,204c5.29-.77,11.81,3.21,16.35,9.59s20.36,21.91,22.1,26.85c1.26,3.6.52,10.37-6.93,7.19-7.21-3.07-30.2-25.62-30.2-25.62Z"/><path class="cls-63" d="M389.39,204a25.77,25.77,0,0,1,5.18-.58c1.83.12,5.94,1.21,10.17,5.33S420,226.17,420,226.17s.49,3.74-3.19,7.91-7.12,4.17-7.12,4.17l-16.31-13.51Z"/><path class="cls-97" d="M425.23,233.1l11.6-16.84V203.89s2.56.86,3.58,4.85,2.29,8.63,1.78,12-8.54,23.95-12.87,26.85-4.09-14.49-4.09-14.49"/><polygon class="cls-97" points="373.02 198.4 375.28 212.64 389.39 211.88 387.37 195.34 373.02 198.4"/><path class="cls-98" d="M363.53,180.94s-3.36,5.1-3,5.6,2.86,1,2.86,1Z"/><path class="cls-97" d="M372.83,166.82c-6.8,1.44-8.77,4.43-9.41,15.24-.67,11.3.48,14.85,2,16.37,1,1,6.57,1.21,9.38.44,3.51-1,11.46-3.79,15.18-9.47,4.37-6.68,5.52-15.75.84-19.46-6.59-5.24-15.18-3.7-18-3.12"/><path class="cls-98" d="M373.15,199.18a27.57,27.57,0,0,0,3.58-.9,6.37,6.37,0,0,1-3.41,2Z"/><path class="cls-31" d="M363,170.25a13.47,13.47,0,0,0,3,1.21c1.66.48,1.41,1.1,1.64,2.62a6.19,6.19,0,0,0,1.87,3.59c.65.59,1.13.64,1.35,1.54a12.18,12.18,0,0,1,0,2.83c0,1.88,1.22,3.3,1.8.79,0,0,1.08-4.18,4.6-3.65s3.83,4.49,2.15,7.6c-1,1.9-3.76,1.4-3.76,1.4a12.26,12.26,0,0,0,3.68,9.47s3.5,2.6,9-.1a71.25,71.25,0,0,0,6.26-9.51c2.44-4.24,4.55-9.46,3.72-14.45a9.34,9.34,0,0,0-2.37-5,3.43,3.43,0,0,1-1.14-2.5,4.82,4.82,0,0,0-1.7-2.87,4.94,4.94,0,0,0-5-.67,4.14,4.14,0,0,0-3.16-3.7,7.56,7.56,0,0,0-5.07.7,5.6,5.6,0,0,0-9.4-.59,3,3,0,0,0-2.36-1.36,7.09,7.09,0,0,0-2.77.44,10,10,0,0,0-2.16.92,6.89,6.89,0,0,0-3.08,7.47,6,6,0,0,0,2.9,3.82"/><path class="cls-31" d="M394.9,169.12l4.07-2.4a2.36,2.36,0,1,0-4.07,2.4"/><path class="cls-31" d="M398.7,380.51l.09.91a15.74,15.74,0,0,1,.09,3.63,3.21,3.21,0,0,1-1.12,2.43,10.34,10.34,0,0,1-2.65,1,9.37,9.37,0,0,1-6.17-.61c-1.6-.77-2.85-2-4.58-2.47a33.56,33.56,0,0,0-5.44-.9,13.11,13.11,0,0,1-2.41-.44,10.77,10.77,0,0,1-1.73-.78,17.1,17.1,0,0,1-5.13-3.75,8,8,0,0,1-1.84-3.66c-.16-.81-.48-3.12.85-3.06,6.55.29,13,1.7,19.58,1.62a9.11,9.11,0,0,1,1.28,0,5.57,5.57,0,0,1,2.2,1,2.3,2.3,0,0,0,2,.49,9.89,9.89,0,0,1,3.39.05,1.58,1.58,0,0,1,1.17.8,1.34,1.34,0,0,1,.1.49c.11,1.17.22,2.17.32,3.25"/><path class="cls-97" d="M398,372.67l-.34,4.93c-.32,1.88-6.72,3-8-.29l-.63-5.6Z"/><path class="cls-31" d="M373.66,392.19s.78,2.56,1.19,4.8c.32,1.78.77,4.76.12,6.08s-3.09,2.12-6.85,2c-2.43-.08-6.25,1.49-8.88,2.88s-8.29,1.9-11.12,1.51c-3.33-.47-6.74-2.49-7.25-3.88s.24-2.82,8.18-6c.07,0,11-3.32,14.92-7.43Z"/><path class="cls-97" d="M373.73,389s-.06,2.17-.07,3.42-1.53,3.06-5.33,2.84c-2.67-.16-4.51-.92-4.36-3.11L364,389Z"/><g class="cls-99"><rect class="cls-100" x="359.21" y="257.27" width="45.18" height="133.34"/></g><path class="cls-101" d="M400.61,334.76c-1.13-9.6-2-15.11-2-15.11s.2-13.38,1-25.85c.85-13.48.66-30.45,1-33.81,0,0-43.29-9.24-43.65,6.37-.4,18.14.8,55.67,1.06,60.56.36,6.86.38,14,1.54,25.13S364,389,364,389a10.32,10.32,0,0,0,9.69,0s3.77-31.11,3.62-39a107.63,107.63,0,0,0-1.64-17.1l3.41-35.22s1.34,10.89,1.7,17.75,1.3,11.05,3,23.82c1.47,11.07,5.2,34.45,5.2,34.45a8.78,8.78,0,0,0,9.21-.37s3.51-29,2.38-38.57"/><g class="cls-102"><g class="cls-103"><path d="M395.59,281.31s-3,4.95-12.1,8.57l-2.54,8.5-.27,14.94c-.35-4.81-.88-10.07-1.56-15.64l1-8.76s10.08-3,15.47-7.61"/></g></g><path class="cls-63" d="M402.28,213.2c-1.74-6.19-5.83-8.92-10.36-9.21-1.15-.07-3.49,0-3.49,0,.32,2.63-7.76,4.48-14,3-1.9.49-5,1.2-6.61,1.73-4.51,1.5-9.93,7.14-10.63,21.87,0,0-.72,31.65-.5,40.85,11.15,4.7,21.92,5.29,28.41,4,13.53-2.63,15.75-8.43,15.75-8.43s-.12-8-.63-20.87c2.26-18.2,2.81-30.26,2.06-32.94"/><path class="cls-97" d="M349.53,265.66a8.38,8.38,0,0,1,4,7c.19,2.88.19,6,1.54,8.61.22.43,1.4,1.4,1.86,1.26v-3.68c.75-1,2.8-2.72,3.33-3.81.88-1.82-.15-4,.38-6a8.91,8.91,0,0,0,.68-2.42,6.75,6.75,0,0,0-2.25-5.54,70.9,70.9,0,0,1-5.55-5.41c-2.32-2.33-5.54-5.76-7.86-8.1l15.57-14.93a22.31,22.31,0,0,0,4.44-5.91c2.55-4.9,6-13.49,2.15-18-5.55,0-8.7.85-14.37,7.46-4.89,5.7-20.5,24.4-22.51,27.57s-3.16,5.34.69,8.86a119.1,119.1,0,0,0,9.82,7.51c2.63,1.89,5.5,3.66,8.13,5.53"/><path class="cls-98" d="M345.62,247.62a17.78,17.78,0,0,1-4.77,3.28,14.47,14.47,0,0,0,5.85-2.18Z"/><path class="cls-63" d="M369.52,208.23a27.07,27.07,0,0,0-6.72.51c-3.37.73-5.64,2.44-11.48,9s-9.94,12-9.94,12-1.68,3.72,3,7.94,8.9,3.49,8.9,3.49l13.12-12.76s9.36-9.79,3.12-20.23"/></svg>