<svg xmlns="http://www.w3.org/2000/svg" xmlns:xlink="http://www.w3.org/1999/xlink" viewBox="0 0 476.23 365.85"><defs><style>.cls-1{fill:#ebebeb;}.cls-2{fill:#f5f5f5;}.cls-3{fill:#f0f0f0;}.cls-4{fill:#fafafa;}.cls-15,.cls-5{fill:#fff;}.cls-6{opacity:0.7;}.cls-7{fill:#e5e5e5;}.cls-8{fill:#dfd8cc;}.cls-13,.cls-15,.cls-16,.cls-22,.cls-25,.cls-8{isolation:isolate;}.cls-15,.cls-8{opacity:0.8;}.cls-9{fill:#e6e6e6;}.cls-10{fill:url(#linear-gradient);}.cls-11{fill:url(#linear-gradient-2);}.cls-12{fill:#efefef;}.cls-13,.cls-30{fill:#407bff;}.cls-13,.cls-16,.cls-25{opacity:0.2;}.cls-14{fill:url(#linear-gradient-3);}.cls-17{fill:#263238;}.cls-18{fill:url(#linear-gradient-4);}.cls-19{fill:url(#linear-gradient-5);}.cls-20{fill:url(#linear-gradient-6);}.cls-21{fill:url(#linear-gradient-7);}.cls-22{opacity:0.1;}.cls-23{fill:#fff3dc;}.cls-24{fill:#ffa8a7;}.cls-25{fill:#f8fdff;}.cls-26{fill:#455a64;}.cls-27{fill:#f28f8f;}.cls-28{fill:#ffb573;}.cls-29{fill:#020202;}</style><linearGradient id="linear-gradient" x1="100.95" y1="235.48" x2="101.97" y2="277.86" gradientUnits="userSpaceOnUse"><stop offset="0" stop-color="#00ffaf"/><stop offset="0.06" stop-color="#00edad"/><stop offset="0.32" stop-color="#00a6a7"/><stop offset="0.55" stop-color="#006ea2"/><stop offset="0.75" stop-color="#00469f"/><stop offset="0.91" stop-color="#002d9d"/><stop offset="1" stop-color="#00249c"/></linearGradient><linearGradient id="linear-gradient-2" x1="101.17" y1="275.11" x2="101.68" y2="310.86" xlink:href="#linear-gradient"/><linearGradient id="linear-gradient-3" x1="63.02" y1="118.68" x2="229.51" y2="118.68" xlink:href="#linear-gradient"/><linearGradient id="linear-gradient-4" x1="191.34" y1="280.27" x2="216.98" y2="280.27" gradientTransform="translate(264.66 -61.16) rotate(46.12)" xlink:href="#linear-gradient"/><linearGradient id="linear-gradient-5" x1="226.63" y1="300.55" x2="252.32" y2="300.55" xlink:href="#linear-gradient"/><linearGradient id="linear-gradient-6" x1="223.51" y1="260.04" x2="249.14" y2="260.04" gradientTransform="translate(259.95 -90.55) rotate(46.12)" xlink:href="#linear-gradient"/><linearGradient id="linear-gradient-7" x1="202.74" y1="280.91" x2="240.11" y2="280.91" xlink:href="#linear-gradient"/></defs><g id="Layer_2" data-name="Layer 2"><g id="Layer_1-2" data-name="Layer 1"><rect class="cls-1" y="322.83" width="476.23" height="0.24"/><rect class="cls-1" x="396.97" y="334.05" width="31.55" height="0.24"/><rect class="cls-1" x="335.67" y="336.64" width="8.28" height="0.24"/><rect class="cls-1" x="226.91" y="326.92" width="139.57" height="0.24"/><rect class="cls-1" x="69.93" y="326.81" width="32.69" height="0.24"/><rect class="cls-1" x="125.22" y="330.83" width="42.1" height="0.24"/><path class="cls-1" d="M226.69,280.36H35.26a5.66,5.66,0,0,1-5.66-5.67V5.61A5.66,5.66,0,0,1,35.26,0H226.69a5.67,5.67,0,0,1,5.65,5.66v269A5.67,5.67,0,0,1,226.69,280.36ZM35.26.2a5.41,5.41,0,0,0-5.41,5.41V274.69a5.42,5.42,0,0,0,5.41,5.42H226.69a5.41,5.41,0,0,0,5.4-5.42V5.61A5.41,5.41,0,0,0,226.69.2Z"/><path class="cls-1" d="M439.69,280.36H248.26a5.68,5.68,0,0,1-5.66-5.67V5.61A5.68,5.68,0,0,1,248.26,0H439.69a5.65,5.65,0,0,1,5.64,5.61V274.69A5.67,5.67,0,0,1,439.69,280.36ZM248.26.2a5.42,5.42,0,0,0-5.41,5.41V274.69a5.44,5.44,0,0,0,5.41,5.42H439.69a5.44,5.44,0,0,0,5.42-5.42V5.61A5.42,5.42,0,0,0,439.69.2Z"/><rect class="cls-1" x="162.33" y="38" width="244.94" height="169.33"/><rect class="cls-2" x="164.63" y="38" width="247.57" height="169.33"/><rect class="cls-1" x="162.33" y="207.32" width="230.43" height="9.17"/><rect class="cls-3" x="186.56" y="207.32" width="232.9" height="9.17"/><rect class="cls-4" x="171.54" y="44.92" width="233.75" height="155.5"/><polygon class="cls-5" points="214.44 200.41 273.45 44.92 301.32 44.92 242.3 200.41 214.44 200.41"/><path class="cls-3" d="M174.75,161.91a.5.5,0,0,1-.5-.5h0v-112a.5.5,0,0,1,.61-.34.49.49,0,0,1,.34.34v112A.49.49,0,0,1,174.75,161.91Z"/><polygon class="cls-5" points="248.28 200.41 307.3 44.92 318.16 44.92 259.14 200.41 248.28 200.41"/><polygon class="cls-5" points="315.77 200.41 374.79 44.92 385.65 44.92 326.64 200.41 315.77 200.41"/><rect class="cls-1" x="404.42" y="44.92" width="0.88" height="155.5"/><g class="cls-6"><polygon class="cls-7" points="413.84 51.18 168.9 51.18 168.26 47.6 413.2 47.6 413.84 51.18"/><polygon class="cls-7" points="413.84 55.03 168.9 55.03 168.26 51.45 413.2 51.45 413.84 55.03"/><polygon class="cls-7" points="413.84 58.88 168.9 58.88 168.26 55.3 413.2 55.3 413.84 58.88"/><polygon class="cls-7" points="413.84 62.73 168.9 62.73 168.26 59.15 413.2 59.15 413.84 62.73"/><polygon class="cls-7" points="413.84 66.58 168.9 66.58 168.26 62.99 413.2 62.99 413.84 66.58"/><polygon class="cls-7" points="413.84 70.43 168.9 70.43 168.26 66.84 413.2 66.84 413.84 70.43"/><polygon class="cls-7" points="413.84 74.28 168.9 74.28 168.26 70.7 413.2 70.7 413.84 74.28"/><polygon class="cls-7" points="413.84 78.13 168.9 78.13 168.26 74.55 413.2 74.55 413.84 78.13"/><polygon class="cls-7" points="413.84 81.98 168.9 81.98 168.26 78.4 413.2 78.4 413.84 81.98"/><polygon class="cls-7" points="413.84 85.83 168.9 85.83 168.26 82.24 413.2 82.24 413.84 85.83"/><polygon class="cls-7" points="413.84 89.67 168.9 89.67 168.26 86.09 413.2 86.09 413.84 89.67"/><polygon class="cls-7" points="413.84 93.53 168.9 93.53 168.26 89.94 413.2 89.94 413.84 93.53"/><polygon class="cls-7" points="413.84 97.38 168.9 97.38 168.26 93.8 413.2 93.8 413.84 97.38"/><polygon class="cls-7" points="413.84 101.23 168.9 101.23 168.26 97.64 413.2 97.64 413.84 101.23"/><polygon class="cls-7" points="413.84 105.07 168.9 105.07 168.26 101.49 413.2 101.49 413.84 105.07"/><polygon class="cls-7" points="413.84 108.92 168.9 108.92 168.26 105.34 413.2 105.34 413.84 108.92"/><polygon class="cls-7" points="413.84 112.77 168.9 112.77 168.26 109.19 413.2 109.19 413.84 112.77"/><polygon class="cls-7" points="413.84 116.63 168.9 116.63 168.26 113.04 413.2 113.04 413.84 116.63"/><polygon class="cls-7" points="413.84 120.47 168.9 120.47 168.26 116.89 413.2 116.89 413.84 120.47"/><polygon class="cls-7" points="413.84 124.32 168.9 124.32 168.26 120.74 413.2 120.74 413.84 124.32"/><polygon class="cls-7" points="413.84 128.17 168.9 128.17 168.26 124.59 413.2 124.59 413.84 128.17"/><polygon class="cls-7" points="413.84 132.02 168.9 132.02 168.26 128.44 413.2 128.44 413.84 132.02"/><polygon class="cls-7" points="413.84 135.87 168.9 135.87 168.26 132.29 413.2 132.29 413.84 135.87"/><polygon class="cls-7" points="413.84 139.72 168.9 139.72 168.26 136.13 413.2 136.13 413.84 139.72"/></g><path class="cls-8" d="M61.45,210.24c0,10.61,10.78,19.23,24.08,19.23s24.08-8.58,24.08-19.23Z"/><rect class="cls-8" x="49.97" y="229.47" width="17.24" height="87.81"/><rect class="cls-8" x="50.28" y="317.27" width="85.04" height="5.56"/><rect class="cls-9" x="67.21" y="229.47" width="74.42" height="87.81"/><rect class="cls-10" x="70.99" y="240.27" width="60.85" height="28.79"/><rect class="cls-11" x="70.99" y="277.67" width="60.85" height="28.79"/><rect class="cls-2" x="92.9" y="252.7" width="17.03" height="3.95" rx="1.58"/><rect class="cls-2" x="92.9" y="290.09" width="17.03" height="3.95" rx="1.58"/><rect class="cls-3" x="227.36" y="250.71" width="14.17" height="67.83"/><rect class="cls-3" x="230.09" y="318.54" width="156.13" height="4.3"/><rect class="cls-12" x="241.53" y="250.7" width="147.4" height="67.83"/><rect class="cls-5" x="247.11" y="259.05" width="136.26" height="22.25"/><rect class="cls-5" x="247.11" y="287.94" width="136.26" height="22.25"/><rect class="cls-2" x="265.12" y="268.65" width="100.24" height="3.05" rx="1.26"/><rect class="cls-2" x="265.12" y="297.54" width="100.24" height="3.05" rx="1.26"/><rect class="cls-9" x="56.96" y="48.68" width="66.55" height="135.45"/><rect class="cls-7" x="58.4" y="48.68" width="70.44" height="135.45"/><rect class="cls-5" x="68.64" y="58.93" width="49.95" height="114.95"/><circle class="cls-2" cx="207.18" cy="293.16" r="29.68"/><g id="freepik--Shadow--inject-251"><ellipse id="freepik--path--inject-251" class="cls-9" cx="238.11" cy="355.07" rx="184.67" ry="10.78"/></g><polygon class="cls-13" points="238.5 186.13 84.14 204.17 54.04 51.23 208.39 33.19 238.5 186.13"/><polygon class="cls-14" points="229.51 179.57 90.19 195.85 63.02 57.79 202.35 41.51 229.51 179.57"/><ellipse class="cls-15" cx="108.57" cy="89.2" rx="18.67" ry="20.18" transform="translate(-28.13 121.7) rotate(-52.78)"/><polygon class="cls-16" points="229.51 179.57 166.07 133.16 145.75 161.11 125.96 146.63 90.19 195.85 123.4 191.88 123.1 192.29 229.51 179.57"/><rect class="cls-17" x="140.82" y="230.2" width="0.95" height="13.37" transform="translate(-18.03 11.73) rotate(-4.47)"/><rect class="cls-17" x="141.95" y="248.45" width="0.95" height="5.91" transform="translate(-19.16 11.86) rotate(-4.47)"/><path class="cls-17" d="M166.92,350.27H276.54a12.73,12.73,0,0,0,12.89-12.57,12,12,0,0,0-.05-1.34L268.87,73.86a15.36,15.36,0,0,0-15-13.91H144.24a12.72,12.72,0,0,0-12.86,12.57c0,.45,0,.9.06,1.34l20.48,262.5A15.35,15.35,0,0,0,166.92,350.27Z"/><path class="cls-17" d="M137.65,144.19h2.11a2.26,2.26,0,0,0,2.3-2.24,1.93,1.93,0,0,0,0-.24l-2.36-30.32A2.76,2.76,0,0,0,137,108.9h-2.11a2.28,2.28,0,0,0-2.3,2.24,2.09,2.09,0,0,0,0,.25L135,141.71A2.74,2.74,0,0,0,137.65,144.19Z"/><path class="cls-17" d="M139.38,174.28h3.35a1.7,1.7,0,0,0,1.73-1.67,1.93,1.93,0,0,0,0-.24l-1.26-16.19a2.05,2.05,0,0,0-2-1.9h-3.35a1.69,1.69,0,0,0-1.73,1.67.87.87,0,0,0,0,.23l1.26,16.19A2.08,2.08,0,0,0,139.38,174.28Z"/><path class="cls-17" d="M171.69,350.27H281.31a12.7,12.7,0,0,0,12.88-12.54,12.55,12.55,0,0,0-.05-1.37L273.63,73.86a15.33,15.33,0,0,0-15-13.91H149a12.7,12.7,0,0,0-12.86,12.56,12.18,12.18,0,0,0,0,1.35l20.48,262.5A15.36,15.36,0,0,0,171.69,350.27Z"/><path class="cls-16" d="M219.27,337a6.81,6.81,0,0,0,6.66,6.2,5.65,5.65,0,0,0,5.74-5.55,4.66,4.66,0,0,0,0-.65,6.82,6.82,0,0,0-6.67-6.19,5.64,5.64,0,0,0-5.74,5.55A4.57,4.57,0,0,0,219.27,337Z"/><polygon class="cls-8" points="155.83 325.44 293.29 325.44 273.79 75.98 136.34 75.98 155.83 325.44"/><path class="cls-16" d="M220.17,67.34a2.4,2.4,0,0,0-2.36-2.19,2,2,0,0,0-2,2,1.48,1.48,0,0,0,0,.21,2.41,2.41,0,0,0,2.37,2.19,2,2,0,0,0,2-2A1.55,1.55,0,0,0,220.17,67.34Z"/><path class="cls-16" d="M210.24,65.15H192a2,2,0,0,0-2,2,1.48,1.48,0,0,0,0,.21h0a2.43,2.43,0,0,0,2.36,2.19h18.21a2,2,0,0,0,2-2c0-.07,0-.14,0-.2h0A2.41,2.41,0,0,0,210.24,65.15Z"/><ellipse class="cls-18" cx="204.16" cy="280.27" rx="12.29" ry="13.29" transform="translate(-139.37 233.16) rotate(-46.12)"/><path class="cls-19" d="M252.27,300.55a11.62,11.62,0,0,1-11.78,12.78,14.08,14.08,0,0,1-13.81-12.78,11.62,11.62,0,0,1,11.79-12.78A14.06,14.06,0,0,1,252.27,300.55Z"/><ellipse class="cls-20" cx="236.33" cy="260.04" rx="12.29" ry="13.29" transform="translate(-114.92 250.14) rotate(-46.12)"/><path class="cls-21" d="M238.74,302.64a1.5,1.5,0,0,1-.74-.23l-34.51-21.62a1.56,1.56,0,0,1-.74-1.26,1.29,1.29,0,0,1,.63-1.21l32.94-19a1.5,1.5,0,0,1,2,.57,1.38,1.38,0,0,1-.35,1.91l-.06,0-30.94,17.86L239.37,300a1.5,1.5,0,0,1,.57,2A1.32,1.32,0,0,1,238.74,302.64Z"/><polygon class="cls-22" points="286.16 234.18 157.16 234.18 146.56 98.62 275.56 98.62 286.16 234.18"/><polygon class="cls-5" points="300.2 226.07 164.62 226.07 154.03 90.51 289.6 90.51 300.2 226.07"/><polygon class="cls-23" points="293.08 219.48 170.71 219.48 161.15 97.11 283.52 97.11 293.08 219.48"/><ellipse class="cls-15" cx="200.02" cy="129.22" rx="16.29" ry="17.61" transform="translate(-31.77 183.83) rotate(-46.12)"/><polygon class="cls-16" points="293.08 219.48 242.8 172.85 222.38 195 206.68 180.45 170.71 219.48 199.88 219.41 199.59 219.73 293.08 219.48"/><path class="cls-24" d="M360.51,127.5c.42.95.74,1.78,1.05,2.66s.62,1.73.91,2.59c.58,1.73,1.07,3.47,1.55,5.21q1.39,5.23,2.32,10.54l.23,1.33.06.32.07.42a10.38,10.38,0,0,1,.09,1.11,10,10,0,0,1-.67,3.81,18.33,18.33,0,0,1-3.24,5.42,37.24,37.24,0,0,1-8.52,7.36l-2.55-3.14a55.64,55.64,0,0,0,6-7.88,14,14,0,0,0,1.68-3.81,3.37,3.37,0,0,0,.06-1.34l-.51-2c-.86-3.34-1.77-6.67-2.78-9.9-.5-1.63-1-3.25-1.55-4.86-.27-.8-.55-1.6-.83-2.38l-.83-2.25Z"/><path class="cls-24" d="M355.27,167.06l2.45,5.29-3.41,2s-6.62-9.67-1.62-10Z"/><path class="cls-5" d="M341.66,347.39a9.32,9.32,0,0,0,2.1-.29.19.19,0,0,0,.14-.15.18.18,0,0,0-.08-.19c-.28-.18-2.7-1.74-3.62-1.32a.63.63,0,0,0-.38.53,1.06,1.06,0,0,0,.31,1A2.25,2.25,0,0,0,341.66,347.39Zm1.57-.55c-1.39.27-2.44.23-2.86-.15a.72.72,0,0,1-.2-.67.28.28,0,0,1,.16-.24C340.84,345.56,342.24,346.27,343.23,346.84Z"/><path class="cls-25" d="M343.71,347.1h.1a.17.17,0,0,0,.09-.16c0-.1,0-2.4-.87-3.16a1,1,0,0,0-.8-.26.65.65,0,0,0-.64.53c-.18.95,1.27,2.62,2,3.05Zm-1.35-3.23a.71.71,0,0,1,.42.17,4.24,4.24,0,0,1,.73,2.51c-.75-.61-1.65-1.9-1.55-2.45,0-.08.07-.2.32-.23Z"/><path class="cls-24" d="M343,99.65c-.95,4.76-2.86,14.28.43,17.47,0,0-1.3,4.77-10.1,4.77-9.67,0-4.62-4.77-4.62-4.77,5.28-1.25,5.14-5.17,4.22-8.86Z"/><path class="cls-26" d="M328.18,118.68c-1.31.19-.1-2.8.45-3.11,1.24-.74,17.14-2.24,17-.56a4.43,4.43,0,0,1-1.24,2.64C343.64,118.15,339.62,116.84,328.18,118.68Z"/><path class="cls-17" d="M323.84,89.49a.37.37,0,0,1-.31-.15A3,3,0,0,0,321.14,88a.38.38,0,1,1-.12-.76h.12a3.76,3.76,0,0,1,3,1.62.38.38,0,0,1-.09.53h0A.36.36,0,0,1,323.84,89.49Z"/><path class="cls-27" d="M321.68,94a17.12,17.12,0,0,1-2.13,4.2,2.81,2.81,0,0,0,2.31.33Z"/><path class="cls-17" d="M322.22,92.91c0,.65-.3,1.18-.72,1.19s-.78-.48-.81-1.13.3-1.17.72-1.19S322.19,92.27,322.22,92.91Z"/><path class="cls-17" d="M321.6,91.81,320,91.43S320.87,92.6,321.6,91.81Z"/><polygon class="cls-28" points="352.99 346.92 345.02 346.92 345.64 328.44 353.62 328.44 352.99 346.92"/><polygon class="cls-16" points="353.62 328.44 345.64 328.44 345.32 337.97 353.31 337.97 353.62 328.44"/><path class="cls-17" d="M344.38,346h9a.62.62,0,0,1,.64.54l1,7.09a1.28,1.28,0,0,1-1.11,1.41h-.17c-3.12-.05-4.63-.24-8.57-.24-2.42,0-6,.26-9.31.26s-3.53-3.32-2.14-3.61c6.25-1.36,7.24-3.2,9.35-5A2.15,2.15,0,0,1,344.38,346Z"/><path class="cls-24" d="M318.42,130.06c-1.58,4-3.29,7.77-5.2,11.56a99.12,99.12,0,0,1-6.4,11.14c-.64,1-1.28,1.81-2,2.71-.38.46-.69.87-1.12,1.35a11.53,11.53,0,0,1-1.67,1.53,11.67,11.67,0,0,1-3.91,1.91,14,14,0,0,1-3.91.51,22,22,0,0,1-6.95-1.19,26.74,26.74,0,0,1-3.11-1.22,25.64,25.64,0,0,1-3-1.55l1.72-3.7c3.64.95,7.71,1.63,11,1.17a6.63,6.63,0,0,0,3.71-1.58,4.08,4.08,0,0,0,.54-.63l.78-1.09c.53-.75,1-1.57,1.54-2.39,1-1.66,1.95-3.39,2.85-5.16s1.82-3.56,2.68-5.39c1.69-3.64,3.37-7.38,4.92-11Z"/><path class="cls-29" d="M315.26,119.17c-4,1-8.84,11.85-8.84,11.85l9.43,12.1s9.76-13.81,8.45-18C322.93,120.71,320,118,315.26,119.17Z"/><path class="cls-24" d="M284.67,153.68l-5.93-1.91L277.43,158s5.81,1.14,8.11-1.4Z"/><polygon class="cls-24" points="273.23 152.53 273.23 156.97 277.43 158.03 278.73 151.82 273.23 152.53"/><path class="cls-24" d="M343.74,89.85c-.17,7.92-.07,11.27-3.9,15.48-5.77,6.34-15.45,4.39-17.64-3.42-2-7-1.36-18.79,6.25-22.24a10.79,10.79,0,0,1,15.29,10.18Z"/><path class="cls-17" d="M354.63,107.63c-2.47-3.24-2-6.78-1.54-10.54.53-4.23,1.12-9-2.51-13.93a1.19,1.19,0,0,1-.09-.15c-9.06-12.82-26.4-6.74-27.72,0-.95,4.83.27,3.31,2.6,8.31s-.05,15.75-.95,19.55c3.88,2.63,25.32,3.08,28.68-2.17-2-3.17-1.63-6.34-1-9.67-.31,3.16-.25,6.17,1.91,9a.38.38,0,0,0,.28.14.37.37,0,0,0,.3-.57Z"/><path class="cls-24" d="M328.6,93.52a6.52,6.52,0,0,1-1.81,4c-1.41,1.46-2.86.62-3.12-1.1-.22-1.55.25-4.18,2-5S328.68,91.76,328.6,93.52Z"/><path class="cls-26" d="M327.65,167.32s4.62,54.75,9.42,85.61c3.88,24.93,6.95,83.2,6.95,83.2H354.9s5.18-56.27,3.21-81c-5-62.37,3.76-73.42-6.62-87.88Z"/><path class="cls-16" d="M339.8,196.87c-.46,16.38-3.54,26.53-6,32-1.28-10.69-2.45-21.84-3.43-31.68C333.73,186,340.15,184.54,339.8,196.87Z"/><path class="cls-25" d="M359.65,315.09a.21.21,0,0,0-.21-.19.19.19,0,0,0-.1,0c-.32.24-3.17,2.39-3.11,3.5a.59.59,0,0,0,.3.51,1.05,1.05,0,0,0,1,.09c1.07-.42,1.79-2.62,2.12-3.9A.08.08,0,0,0,359.65,315.09Zm-3,3.29c0-.63,1.42-1.91,2.52-2.8-.5,1.71-1.15,2.85-1.75,3.11a.67.67,0,0,1-.64-.07.23.23,0,0,1-.13-.2Z"/><path class="cls-25" d="M359.65,315.09h0a.17.17,0,0,0-.13-.14c-.08,0-2.09-.81-3.28-.28a1.4,1.4,0,0,0-.75.8.68.68,0,0,0,.17.88c.75.52,3.12-.42,3.92-1.09A.16.16,0,0,0,359.65,315.09Zm-3.86.7a1,1,0,0,1,.61-.8,4.32,4.32,0,0,1,2.66.15c-.95.62-2.74,1.18-3.18.86a.2.2,0,0,1-.09-.21Z"/><polygon class="cls-28" points="364.85 307.99 360.31 314.56 354.01 310.48 345.76 305.14 344.8 304.52 349.32 297.95 350.41 298.64 358.4 303.81 364.85 307.99"/><polygon class="cls-16" points="358.4 303.81 354.01 310.48 345.76 305.14 350.41 298.64 358.4 303.81"/><path class="cls-26" d="M319.07,167.32s-11.93,54.42-11.93,82.43c0,25.31,42.86,60.16,42.86,60.16l6-9.11s-29.32-40.08-27.62-48.19c4.94-23.54,13.18-74.29,13.08-85.29Z"/><path class="cls-17" d="M358.86,314.21l3.91-8.06a.64.64,0,0,1,.77-.34l6.82,2.19a1.28,1.28,0,0,1,.78,1.64.69.69,0,0,1-.05.13c-1.42,2.78-2.24,4.05-4,7.62-1.05,2.18-3,6.81-4.48,9.82s-4.53,1.72-4.18.34c1.52-6.22,1-9.24.25-11.91A2.08,2.08,0,0,1,358.86,314.21Z"/><polygon class="cls-17" points="350.47 312.01 358.52 300.75 354.57 297.1 345.93 309.16 350.47 312.01"/><polygon class="cls-17" points="342.49 336.34 356.35 336.34 357.09 331.48 342.42 330.99 342.49 336.34"/><path class="cls-29" d="M364.06,131.59l-8,6.38-4.81,3.81s-.51-1.34-1.12-3.26c-1.16-3.72-2.67-9.61-1.63-12.31,1.65-4.29,4.77-8.15,8.71-7.3C360.51,119.67,364.06,131.59,364.06,131.59Z"/><path class="cls-16" d="M356.05,138l-4.81,3.81s-.51-1.34-1.12-3.26L353,124.37Z"/><path class="cls-29" d="M315.26,119.17s-3.81,1.33,3.81,48.15h32.39c-.55-13.18-.57-21.32,5.71-48.39a96.38,96.38,0,0,0-13.75-1.81,103.31,103.31,0,0,0-14.72,0C322.41,117.68,315.26,119.17,315.26,119.17Z"/><path class="cls-30" d="M351.94,165.42l1.46,2.86c.11.23-.15.46-.52.46h-34c-.28,0-.53-.15-.55-.34l-.29-2.85c0-.2.23-.38.56-.38h32.85A.58.58,0,0,1,351.94,165.42Z"/><path class="cls-17" d="M351.94,165.42l1.46,2.86c.11.23-.15.46-.52.46h-34c-.28,0-.53-.15-.55-.34l-.29-2.85c0-.2.23-.38.56-.38h32.85A.58.58,0,0,1,351.94,165.42Z"/><path class="cls-26" d="M347.53,169.11h.89c.17,0,.3-.1.29-.2l-.42-3.81c0-.12-.16-.2-.33-.2h-.88c-.18,0-.31.08-.3.2l.42,3.81A.35.35,0,0,0,347.53,169.11Z"/><path class="cls-26" d="M326.24,169.11h.87c.18,0,.32-.1.3-.2L327,165.1c0-.12-.16-.2-.35-.2h-.91c-.17,0-.3.08-.29.2l.4,3.81A.53.53,0,0,0,326.24,169.11Z"/></g></g></svg>