<svg xmlns="http://www.w3.org/2000/svg" viewBox="0 0 190.62 330.05"><defs><style>.cls-1{fill:#fdffff;}.cls-2{fill:#606060;}.cls-3{fill:none;stroke:#fdffff;stroke-linecap:round;stroke-miterlimit:10;stroke-width:0.5px;}</style></defs><g id="Layer_2" data-name="Layer 2"><g id="Layer_1-2" data-name="Layer 1"><path d="M190.51,43c-.81-16.8-14.78-31-31.63-31.14-29-.21-58.14-.17-87.19-.1a42.41,42.41,0,1,0-49.6,67.91,42.73,42.73,0,0,1-6-3.64q.09,109.28,0,218.57c0,1.45,0,2.89.11,4.34.52,9.31,4.67,16.77,11.54,22.93,5.11,4.57,11.26,6.75,17.79,8.2h115c2.21-.56,4.42-1,6.58-1.68,14.32-4.45,23.31-17.17,23.33-33q.08-124.15.15-248.31C190.62,45.67,190.58,44.34,190.51,43ZM89.26,31.63q14.44,0,28.88,0c3.84,0,6.16,2,6.07,5.11s-2.33,4.78-6,4.82c-4.87,0-9.73,0-14.6,0s-9.51,0-14.27,0a7,7,0,0,1-4.52-1.4,4.49,4.49,0,0,1-1.51-3.71A4.82,4.82,0,0,1,84,33.93C84.89,32.46,86.7,31.64,89.26,31.63ZM18.12,65.27l3.22-11.72A22.7,22.7,0,1,1,63.83,42.22,22.87,22.87,0,0,1,41,64.87h0a22.59,22.59,0,0,1-10.82-2.75Zm84.57,254.85a14.86,14.86,0,0,1-.12-29.72,15.13,15.13,0,0,1,15,15A15,15,0,0,1,102.69,320.12Zm72.34-40H33.76V83.94A41.71,41.71,0,0,1,22.2,79.71,41.89,41.89,0,0,0,33.76,83.4v.54a41.75,41.75,0,0,0,8.65.89,42.4,42.4,0,0,0,39-25.76H175Z"/><path d="M22.2,79.71A41.89,41.89,0,0,0,33.76,83.4v.54A41.71,41.71,0,0,1,22.2,79.71Z"/><path d="M57,26.2a22.75,22.75,0,0,1,6.85,16A22.87,22.87,0,0,1,41,64.87h0a22.59,22.59,0,0,1-10.82-2.75l-12,3.15,3.22-11.72A22.66,22.66,0,0,1,57,26.2Z"/><path d="M84.77,40.16a4.49,4.49,0,0,1-1.51-3.71A4.82,4.82,0,0,1,84,33.93,41.45,41.45,0,0,1,84.77,40.16Z"/><path d="M22.2,79.71a41.71,41.71,0,0,0,11.56,4.23V83.4A41.89,41.89,0,0,1,22.2,79.71Z"/><path class="cls-1" d="M53.8,46.19c-.14-.26-.51-.4-1.08-.67s-3.33-1.66-3.85-1.83S48,43.4,47.59,44s-1.47,1.84-1.8,2.23-.66.43-1.22.15c-3.33-1.67-5.52-3-7.7-6.74-.59-1,.57-.93,1.65-3.09a1.06,1.06,0,0,0,0-1c-.15-.27-1.28-3.06-1.76-4.2s-.92-.95-1.26-1-.71,0-1.08,0a2,2,0,0,0-1.51.69,6.41,6.41,0,0,0-2,4.74c0,2.78,2,5.47,2.3,5.86s4,6.08,9.69,8.54c3.58,1.56,5,1.69,6.79,1.41,1.09-.15,3.34-1.36,3.81-2.69A4.57,4.57,0,0,0,53.8,46.19Zm0,0c-.14-.26-.51-.4-1.08-.67s-3.33-1.66-3.85-1.83S48,43.4,47.59,44s-1.47,1.84-1.8,2.23-.66.43-1.22.15c-3.33-1.67-5.52-3-7.7-6.74-.59-1,.57-.93,1.65-3.09a1.06,1.06,0,0,0,0-1c-.15-.27-1.28-3.06-1.76-4.2s-.92-.95-1.26-1-.71,0-1.08,0a2,2,0,0,0-1.51.69,6.41,6.41,0,0,0-2,4.74c0,2.78,2,5.47,2.3,5.86s4,6.08,9.69,8.54c3.58,1.56,5,1.69,6.79,1.41,1.09-.15,3.34-1.36,3.81-2.69A4.57,4.57,0,0,0,53.8,46.19Zm4.62-21.42a22.45,22.45,0,0,0-16-6.64,22.67,22.67,0,0,0-19.63,34L19.56,63.83l12-3.15a22.59,22.59,0,0,0,10.82,2.75h0A22.87,22.87,0,0,0,65.27,40.78,22.71,22.71,0,0,0,58.42,24.77Zm-16,34.85A18.84,18.84,0,0,1,32.81,57l-.68-.4L25,58.45l1.9-7-.45-.7A18.83,18.83,0,0,1,55.72,27.47a18.94,18.94,0,0,1,5.73,13.31A19,19,0,0,1,42.41,59.62Zm10.31-14.1c-.56-.29-3.33-1.66-3.85-1.83S48,43.4,47.59,44s-1.47,1.84-1.8,2.23-.66.43-1.22.15c-3.33-1.67-5.52-3-7.7-6.74-.59-1,.57-.93,1.65-3.09a1.06,1.06,0,0,0,0-1c-.15-.27-1.28-3.06-1.76-4.2s-.92-.95-1.26-1-.71,0-1.08,0a2,2,0,0,0-1.51.69,6.41,6.41,0,0,0-2,4.74c0,2.78,2,5.47,2.3,5.86s4,6.08,9.69,8.54c3.58,1.56,5,1.69,6.79,1.41,1.09-.15,3.34-1.36,3.81-2.69a4.57,4.57,0,0,0,.33-2.69C53.66,45.93,53.29,45.79,52.72,45.52Z"/><rect class="cls-2" x="63.76" y="106.17" width="98.17" height="47.13" rx="3.47"/><rect class="cls-2" x="50.99" y="186.76" width="110.8" height="52.01" rx="3.47"/><polygon class="cls-2" points="41.49 224.61 60.49 233.82 58.96 212.76 41.49 224.61"/><polygon class="cls-2" points="171.43 141.59 152.43 150.79 153.96 129.73 171.43 141.59"/><line class="cls-3" x1="75.68" y1="123.61" x2="149.87" y2="123.61"/><line class="cls-3" x1="75.68" y1="135.72" x2="149.87" y2="135.72"/><line class="cls-3" x1="65.62" y1="201.5" x2="154.62" y2="201.5"/><line class="cls-3" x1="65.62" y1="213.62" x2="154.62" y2="213.62"/><line class="cls-3" x1="65.62" y1="226.35" x2="154.62" y2="226.35"/></g></g></svg>