<svg id="Layer_1" data-name="Layer 1" xmlns="http://www.w3.org/2000/svg" xmlns:xlink="http://www.w3.org/1999/xlink" viewBox="0 0 478 478"><defs><style>.cls-1{fill:#f5f5f5;}.cls-2{fill:#e0e0e0;}.cls-3{fill:url(#linear-gradient);}.cls-11,.cls-24,.cls-30,.cls-35,.cls-37,.cls-4,.cls-40,.cls-48,.cls-53,.cls-60,.cls-61{isolation:isolate;}.cls-4{opacity:0.3;}.cls-11,.cls-24,.cls-40,.cls-5{fill:#fff;}.cls-6{fill:url(#linear-gradient-2);}.cls-7{fill:#263238;}.cls-8{fill:#37474f;}.cls-9{fill:#455a64;}.cls-10{fill:url(#linear-gradient-3);}.cls-11,.cls-37{opacity:0.4;}.cls-12{fill:#f0f0f0;}.cls-13{fill:url(#linear-gradient-4);}.cls-14{fill:url(#linear-gradient-5);}.cls-15{fill:url(#linear-gradient-6);}.cls-16{fill:url(#linear-gradient-7);}.cls-17{fill:url(#linear-gradient-8);}.cls-18{fill:url(#linear-gradient-9);}.cls-19{fill:url(#linear-gradient-10);}.cls-20{fill:url(#linear-gradient-11);}.cls-21{fill:url(#linear-gradient-12);}.cls-22,.cls-24{opacity:0.7;}.cls-23{fill:url(#linear-gradient-13);}.cls-25,.cls-48,.cls-53,.cls-61{fill:#fafafa;}.cls-26{fill:#e6e6e6;}.cls-27{fill:url(#linear-gradient-14);}.cls-28{fill:url(#linear-gradient-15);}.cls-29{fill:url(#linear-gradient-16);}.cls-30{opacity:0.6;}.cls-31{fill:url(#linear-gradient-17);}.cls-32{fill:url(#linear-gradient-18);}.cls-33{fill:url(#linear-gradient-19);}.cls-34{fill:url(#linear-gradient-20);}.cls-35,.cls-40{opacity:0.2;}.cls-36{fill:url(#linear-gradient-21);}.cls-38{fill:url(#linear-gradient-22);}.cls-39{fill:url(#linear-gradient-23);}.cls-41{fill:url(#linear-gradient-24);}.cls-42{fill:url(#linear-gradient-25);}.cls-43{fill:url(#linear-gradient-26);}.cls-44{opacity:0.5;}.cls-45{fill:url(#linear-gradient-27);}.cls-46{fill:url(#linear-gradient-28);}.cls-47{fill:url(#linear-gradient-29);}.cls-48{font-size:43.34px;}.cls-48,.cls-53,.cls-61{font-family:Montserrat-Bold, Montserrat;font-weight:700;}.cls-49{fill:url(#linear-gradient-30);}.cls-50{fill:url(#linear-gradient-31);}.cls-51{fill:url(#linear-gradient-32);}.cls-52{fill:url(#linear-gradient-33);}.cls-53{font-size:18.52px;}.cls-54{letter-spacing:-0.01em;}.cls-55{letter-spacing:0.01em;}.cls-56{fill:url(#linear-gradient-34);}.cls-57{fill:url(#linear-gradient-35);}.cls-58{fill:url(#linear-gradient-36);}.cls-59{fill:url(#linear-gradient-37);}.cls-61{font-size:23.75px;}.cls-62{fill:url(#linear-gradient-38);}.cls-63{fill:url(#linear-gradient-39);}.cls-64{fill:url(#linear-gradient-40);}.cls-65{fill:url(#linear-gradient-41);}.cls-66{fill:url(#linear-gradient-42);}.cls-67{fill:url(#linear-gradient-43);}.cls-68{fill:url(#linear-gradient-44);}.cls-69{fill:url(#linear-gradient-45);}.cls-70{fill:url(#linear-gradient-46);}.cls-71{fill:url(#linear-gradient-47);}.cls-72{fill:url(#linear-gradient-48);}.cls-73{fill:#ebebeb;}.cls-74{fill:#ffa8a7;}.cls-75{fill:url(#linear-gradient-49);}.cls-76{fill:url(#linear-gradient-50);}.cls-77{fill:#f28f8f;}.cls-78{fill:url(#linear-gradient-51);}.cls-79{fill:url(#linear-gradient-52);}.cls-80{fill:url(#linear-gradient-53);}.cls-81{fill:url(#linear-gradient-54);}.cls-82{fill:url(#linear-gradient-55);}.cls-83{fill:url(#linear-gradient-56);}.cls-84{fill:url(#linear-gradient-57);}</style><linearGradient id="linear-gradient" x1="-6196.21" y1="365.16" x2="-6178.93" y2="365.16" gradientTransform="matrix(-1, 0, 0, 1, -5876.31, 0)" gradientUnits="userSpaceOnUse"><stop offset="0" stop-color="#00ffaf"/><stop offset="0.06" stop-color="#00edad"/><stop offset="0.32" stop-color="#00a6a7"/><stop offset="0.55" stop-color="#006ea2"/><stop offset="0.75" stop-color="#00469f"/><stop offset="0.91" stop-color="#002d9d"/><stop offset="1" stop-color="#00249c"/></linearGradient><linearGradient id="linear-gradient-2" x1="-6214.55" y1="377.87" x2="-6185.78" y2="377.87" xlink:href="#linear-gradient"/><linearGradient id="linear-gradient-3" x1="-6269.18" y1="192.5" x2="-6086.36" y2="192.5" xlink:href="#linear-gradient"/><linearGradient id="linear-gradient-4" x1="-6170.68" y1="171.33" x2="-6074.3" y2="171.33" xlink:href="#linear-gradient"/><linearGradient id="linear-gradient-5" x1="-6171.07" y1="244.5" x2="-6153.8" y2="244.5" xlink:href="#linear-gradient"/><linearGradient id="linear-gradient-6" x1="-6145.29" y1="229.71" x2="-6128.02" y2="229.71" xlink:href="#linear-gradient"/><linearGradient id="linear-gradient-7" x1="-6118.76" y1="214.37" x2="-6101.49" y2="214.37" xlink:href="#linear-gradient"/><linearGradient id="linear-gradient-8" x1="-6092.22" y1="199.04" x2="-6074.95" y2="199.04" xlink:href="#linear-gradient"/><linearGradient id="linear-gradient-9" x1="-6171.07" y1="273.61" x2="-6153.8" y2="273.61" xlink:href="#linear-gradient"/><linearGradient id="linear-gradient-10" x1="-6145.29" y1="258.83" x2="-6128.02" y2="258.83" xlink:href="#linear-gradient"/><linearGradient id="linear-gradient-11" x1="-6118.76" y1="243.48" x2="-6101.49" y2="243.48" xlink:href="#linear-gradient"/><linearGradient id="linear-gradient-12" x1="-6092.22" y1="228.16" x2="-6074.95" y2="228.16" xlink:href="#linear-gradient"/><linearGradient id="linear-gradient-13" x1="-6247.35" y1="251.25" x2="-6187.09" y2="251.25" xlink:href="#linear-gradient"/><linearGradient id="linear-gradient-14" x1="-5937.94" y1="173.23" x2="-5909.39" y2="173.23" xlink:href="#linear-gradient"/><linearGradient id="linear-gradient-15" x1="-5925.7" y1="177.15" x2="-5906.25" y2="177.15" gradientTransform="matrix(-0.87, -0.5, -0.5, 0.87, -4995.14, -2934.26)" xlink:href="#linear-gradient"/><linearGradient id="linear-gradient-16" x1="-5920.91" y1="177.15" x2="-5911.05" y2="177.15" xlink:href="#linear-gradient"/><linearGradient id="linear-gradient-17" x1="-5983.28" y1="165.13" x2="-5963.52" y2="165.13" xlink:href="#linear-gradient"/><linearGradient id="linear-gradient-18" x1="-5974.86" y1="167.86" x2="-5961.37" y2="167.86" xlink:href="#linear-gradient"/><linearGradient id="linear-gradient-19" x1="-5971.5" y1="167.85" x2="-5964.68" y2="167.85" xlink:href="#linear-gradient"/><linearGradient id="linear-gradient-20" x1="-6018.15" y1="244.63" x2="-5931.55" y2="244.63" xlink:href="#linear-gradient"/><linearGradient id="linear-gradient-21" x1="-5985.96" y1="291.6" x2="-5931.55" y2="291.6" xlink:href="#linear-gradient"/><linearGradient id="linear-gradient-22" x1="-6035.14" y1="319.21" x2="-5985.92" y2="319.21" xlink:href="#linear-gradient"/><linearGradient id="linear-gradient-23" x1="-6035.14" y1="280.91" x2="-5968.93" y2="280.91" xlink:href="#linear-gradient"/><linearGradient id="linear-gradient-24" x1="-5976.53" y1="346.05" x2="-5965.06" y2="346.05" xlink:href="#linear-gradient"/><linearGradient id="linear-gradient-25" x1="-5929.96" y1="320.11" x2="-5918.4" y2="320.11" gradientTransform="matrix(-0.95, -0.3, -0.3, 0.95, -5504.4, -1770.5)" xlink:href="#linear-gradient"/><linearGradient id="linear-gradient-26" x1="-5994.93" y1="274.19" x2="-5944.32" y2="274.19" xlink:href="#linear-gradient"/><linearGradient id="linear-gradient-27" x1="-6084.88" y1="219.81" x2="-6081.09" y2="219.81" xlink:href="#linear-gradient"/><linearGradient id="linear-gradient-28" x1="-6084.31" y1="162.22" x2="-6001.11" y2="162.22" xlink:href="#linear-gradient"/><linearGradient id="linear-gradient-29" x1="-6082.07" y1="197.09" x2="-6000.65" y2="197.09" xlink:href="#linear-gradient"/><linearGradient id="linear-gradient-30" x1="-6082.24" y1="197.19" x2="-6000.34" y2="197.19" xlink:href="#linear-gradient"/><linearGradient id="linear-gradient-31" x1="-6065.24" y1="137.89" x2="-6063.18" y2="137.89" xlink:href="#linear-gradient"/><linearGradient id="linear-gradient-32" x1="-6064.93" y1="106.2" x2="-6019.2" y2="106.2" xlink:href="#linear-gradient"/><linearGradient id="linear-gradient-33" x1="-6063.7" y1="125.37" x2="-6018.93" y2="125.37" xlink:href="#linear-gradient"/><linearGradient id="linear-gradient-34" x1="-6063.8" y1="125.42" x2="-6018.75" y2="125.42" xlink:href="#linear-gradient"/><linearGradient id="linear-gradient-35" x1="-6065.23" y1="82.81" x2="-6063.15" y2="82.81" xlink:href="#linear-gradient"/><linearGradient id="linear-gradient-36" x1="-6064.93" y1="51.27" x2="-6019.35" y2="51.27" xlink:href="#linear-gradient"/><linearGradient id="linear-gradient-37" x1="-6063.71" y1="70.35" x2="-6019.1" y2="70.35" xlink:href="#linear-gradient"/><linearGradient id="linear-gradient-38" x1="-6063.8" y1="70.42" x2="-6018.93" y2="70.42" xlink:href="#linear-gradient"/><linearGradient id="linear-gradient-39" x1="-6193.59" y1="72.7" x2="-6142.64" y2="72.7" xlink:href="#linear-gradient"/><linearGradient id="linear-gradient-40" x1="-6187.94" y1="74.12" x2="-6142.64" y2="74.12" xlink:href="#linear-gradient"/><linearGradient id="linear-gradient-41" x1="-6338.35" y1="163.8" x2="-6250.09" y2="163.8" xlink:href="#linear-gradient"/><linearGradient id="linear-gradient-42" x1="-6328.51" y1="166.19" x2="-6250.07" y2="166.19" xlink:href="#linear-gradient"/><linearGradient id="linear-gradient-43" x1="-6273.06" y1="55.43" x2="-6200.2" y2="55.43" xlink:href="#linear-gradient"/><linearGradient id="linear-gradient-44" x1="-6264.9" y1="57.37" x2="-6200.21" y2="57.37" xlink:href="#linear-gradient"/><linearGradient id="linear-gradient-45" x1="-6082.86" y1="343.67" x2="-6049.98" y2="343.67" xlink:href="#linear-gradient"/><linearGradient id="linear-gradient-46" x1="-6078.69" y1="345.08" x2="-6047.29" y2="345.08" xlink:href="#linear-gradient"/><linearGradient id="linear-gradient-47" x1="-6056.42" y1="385.32" x2="-6051.54" y2="385.32" xlink:href="#linear-gradient"/><linearGradient id="linear-gradient-48" x1="-6068.33" y1="412.11" x2="-6056.79" y2="412.11" xlink:href="#linear-gradient"/><linearGradient id="linear-gradient-49" x1="-6080.5" y1="330.39" x2="-6066.2" y2="330.39" xlink:href="#linear-gradient"/><linearGradient id="linear-gradient-50" x1="-6105.21" y1="342.5" x2="-6076.47" y2="342.5" xlink:href="#linear-gradient"/><linearGradient id="linear-gradient-51" x1="-6096.69" y1="320.47" x2="-6084.26" y2="320.47" xlink:href="#linear-gradient"/><linearGradient id="linear-gradient-52" x1="-6132.74" y1="342.1" x2="-6122.14" y2="342.1" xlink:href="#linear-gradient"/><linearGradient id="linear-gradient-53" x1="-6130.33" y1="343.67" x2="-6119.73" y2="343.67" xlink:href="#linear-gradient"/><linearGradient id="linear-gradient-54" x1="-6127.95" y1="345.24" x2="-6117.36" y2="345.24" xlink:href="#linear-gradient"/><linearGradient id="linear-gradient-55" x1="-6125.49" y1="346.81" x2="-6114.91" y2="346.81" xlink:href="#linear-gradient"/><linearGradient id="linear-gradient-56" x1="-6123.09" y1="348.38" x2="-6112.49" y2="348.38" xlink:href="#linear-gradient"/><linearGradient id="linear-gradient-57" x1="-6110.35" y1="334.34" x2="-6097.19" y2="334.34" xlink:href="#linear-gradient"/></defs><g id="freepik--Floor--inject-88"><ellipse class="cls-1" cx="239" cy="334.47" rx="233.96" ry="135.07"/></g><g id="freepik--Shadows--inject-88"><ellipse class="cls-2" cx="216.54" cy="434.53" rx="28.51" ry="16.47"/><path class="cls-2" d="M201.26,410.12c7.3,4.26,7.31,11.11,0,15.33s-19.17,4.26-26.48,0-7.32-11.11,0-15.33S194,405.86,201.26,410.12Z"/><path class="cls-2" d="M406.29,347c2.74,2.76,3.82,8.33,1,11.07l-45.18,26.57a21.68,21.68,0,0,1-21.62,0L156.37,278.38a7,7,0,0,1,0-12.21l45.18-26.58a21.61,21.61,0,0,1,21.61,0L407.34,345.88C406.26,347,406.28,347,406.29,347Z"/><path class="cls-2" d="M169.84,326.58a8.54,8.54,0,0,1-3.12,11.66l-54.66,32.08a26.16,26.16,0,0,1-26.15,0l-58.8-34.18a8.53,8.53,0,0,1,0-14.77l54.66-32.09a26.16,26.16,0,0,1,26.15,0l58.8,34.18A8.56,8.56,0,0,1,169.84,326.58Z"/></g><g id="freepik--Plant--inject-88"><path class="cls-3" d="M302.64,365.52c-.46-22.21,10.61-30.44,15.33-26.3s-.63,13.13-1.34,14.59A27.55,27.55,0,0,0,313,363.4c-2.45,14.42,2,28.73,2,28.73L306.17,387A86.2,86.2,0,0,1,302.64,365.52Z"/><path class="cls-4" d="M302.64,365.52c-.46-22.21,10.61-30.44,15.33-26.3s-.63,13.13-1.34,14.59A27.55,27.55,0,0,0,313,363.4c-2.45,14.42,2,28.73,2,28.73L306.17,387A86.2,86.2,0,0,1,302.64,365.52Z"/><path class="cls-5" d="M309.92,389.53c0-.1-3.39-9.35-3.22-24.41s8.09-23.1,8.18-23.18a.4.4,0,0,1,.57,0,.42.42,0,0,1,0,.57c-.08.08-7.77,7.8-7.94,22.62s3.17,24,3.17,24.12a.41.41,0,0,1-.24.52h-.14A.4.4,0,0,1,309.92,389.53Z"/><path class="cls-6" d="M314.1,374.67c.9-1.65-.06-2.93-.22-6.63s4.29-3.7,6.48-4.3,4-2.28,6.29-4.69,5.67-3.54,7.72-2.64c3.4,1.5,1.11,4.68-.59,8s.76,5.57,1.58,6.65,2.67,2.26,2.86,5-.69,2.93-4.09,5.71-.67,4.29-.16,10.6-6.22,7.32-6.22,7.32L313.07,391C305.22,379.43,312.44,377.76,314.1,374.67Z"/><path class="cls-5" d="M319,394.92a.38.38,0,0,1-.41-.36c0-.22-1.63-22.12,13.6-36.5v0a.39.39,0,0,1,.55,0,.4.4,0,0,1,0,.57c-14.93,14.11-13.36,35.64-13.36,35.86h0a.39.39,0,0,1-.36.42h0Z"/><path class="cls-5" d="M321.67,376.15a.41.41,0,0,1-.43-.37,12.46,12.46,0,0,0-4.46-8.74.4.4,0,0,1-.09-.56.41.41,0,0,1,.57-.09,13.08,13.08,0,0,1,4.79,9.33h0a.4.4,0,0,1-.37.43h0Z"/><path class="cls-5" d="M320.29,379.76a.43.43,0,0,1,0-.58c.17-.14,4-4.29,12.85-3.06h0a.4.4,0,1,1-.1.79c-8.41-1.14-12.14,2.85-12.14,2.85a.43.43,0,0,1-.3.13A.44.44,0,0,1,320.29,379.76Z"/></g><g id="freepik--Device--inject-88"><path class="cls-7" d="M242.79,317.92a4.9,4.9,0,0,1,1.81-6.68l23-13.29a13.08,13.08,0,0,0,6.53-11.32V229.57l45.44,25.86v55.91A15.15,15.15,0,0,1,312,324.45l-2.2,1.28L290.35,337a15.57,15.57,0,0,1-15.46,0l-30.27-17.23A4.92,4.92,0,0,1,242.79,317.92Z"/><path class="cls-8" d="M281.37,302.18H260.31l-15.69,9.07a4.89,4.89,0,0,0,0,8.49L274.89,337a15.45,15.45,0,0,0,6.48,2Z"/><path class="cls-8" d="M245.19,315.48h-3.06v-2.83a5.8,5.8,0,0,1,2.16-4.51l.84-.66Z"/><path class="cls-9" d="M314.63,258.92v51.34a12.64,12.64,0,0,1-6.41,10.92L289.4,332.29a15,15,0,0,1-15,0l-27.13-15.45-2.18-1.24a4.77,4.77,0,0,1-1.7-1.7,4.72,4.72,0,0,1,1.7-6.47l19.16-11.25a12.68,12.68,0,0,0,6.32-11V233.89Z"/><path class="cls-7" d="M264.89,295.78l43.34,25.44a12.65,12.65,0,0,0,6.33-11V258.92l-43.95-25v51.34A12.65,12.65,0,0,1,264.89,295.78Z"/><path class="cls-7" d="M406.22,327.18v10.46a5.12,5.12,0,0,1-.24,1.45,8.25,8.25,0,0,1-3.83,5.26l-.33.2a14.93,14.93,0,0,1-7.65,2.11V339l-4.2-2.44Z"/><path class="cls-8" d="M203.43,61.65h7.31V225.08a14.62,14.62,0,0,0,7.32,12.67l171.86,98.8,16.24-9.37V169.56a14.63,14.63,0,0,0-7.31-12.67L218,52.86a4.73,4.73,0,0,0-2.46-.66h0a15,15,0,0,0-7.63,2.11l-.33.2A8.32,8.32,0,0,0,203.43,61.65Z"/><path class="cls-7" d="M383.88,175.86V333.05l6.09,3.5,16.25-9.37V169.56a14.67,14.67,0,0,0-1.57-6.56Z"/><path class="cls-8" d="M203.53,218.56V229.3A14.63,14.63,0,0,0,210.84,242l180.9,104a4.8,4.8,0,0,0,7.16-4.15V331.4Z"/><path class="cls-9" d="M203.47,218.56,398.85,331.4V173.78a14.66,14.66,0,0,0-7.32-12.67l-180.9-104a4.71,4.71,0,0,0-2.34-.62,4.79,4.79,0,0,0-4.82,4.77"/><path class="cls-10" d="M210.06,72.7V207a12.91,12.91,0,0,0,6.46,11.24l170,97.75.43.22a4.25,4.25,0,0,0,5.58-2.2h0a4.3,4.3,0,0,0,.35-1.69V178a13,13,0,0,0-6.47-11.25L216.34,69a5.43,5.43,0,0,0-2.38-.55h0A4.22,4.22,0,0,0,210.06,72.7Z"/><path class="cls-11" d="M210.06,72.7V207a12.91,12.91,0,0,0,6.46,11.24l170,97.75.43.22a4.25,4.25,0,0,0,5.58-2.2h0a4.3,4.3,0,0,0,.35-1.69V178a13,13,0,0,0-6.47-11.25L216.34,69a5.43,5.43,0,0,0-2.38-.55h0A4.22,4.22,0,0,0,210.06,72.7Z"/></g><g id="freepik--Screen--inject-88"><path class="cls-2" d="M376.06,180.89l-7.56,3.81.83,154.93v5.11l5.77-3.17h0c1.36-.54,2.25-2.16,2.25-4.58V186.29A13.14,13.14,0,0,0,376.06,180.89Z"/><path class="cls-12" d="M371.87,175.91,191.22,71.76a3.5,3.5,0,0,0-3.61-.26h0l-.16.1-6,3.39,4.35,2.53L368.5,184.68l7.56-3.81A11.13,11.13,0,0,0,371.87,175.91Z"/><path class="cls-5" d="M369.4,183.94a10.87,10.87,0,0,0-4-4.68L185.78,75.77a3.56,3.56,0,0,0-3.24-.43,2,2,0,0,0-.55.31c-1,.72-1.61,2.15-1.61,4.2v149.7c0,4,2.42,8.59,5.4,10.32L365.45,343.36a3.56,3.56,0,0,0,3.33.39l.34-.2c1.06-.69,1.72-2.22,1.72-4.27V189.57A13,13,0,0,0,369.4,183.94Z"/><path class="cls-13" d="M198,164.71v-43.8a4.18,4.18,0,0,1,.54-2,4.1,4.1,0,0,1,5.59-1.49l83.58,48.26a13.33,13.33,0,0,1,6.66,11.55V223a2.77,2.77,0,0,1-.38,1.44,2.84,2.84,0,0,1-3.89,1L204.56,176A13.08,13.08,0,0,1,198,164.71Z"/><path class="cls-14" d="M277.49,245V234c0-2.47,1.5-3.61,3.35-2.53l10.57,6.13a8.06,8.06,0,0,1,3.35,6.42v11c0,2.47-1.5,3.6-3.35,2.53l-10.57-6.13A8,8,0,0,1,277.49,245Z"/><path class="cls-15" d="M251.71,230.19v-11c0-2.47,1.51-3.55,3.36-2.53l10.56,6.13A8,8,0,0,1,269,229.2v11c0,2.47-1.51,3.55-3.36,2.53l-10.56-6.13A8,8,0,0,1,251.71,230.19Z"/><path class="cls-16" d="M225.18,214.86v-11c0-2.47,1.5-3.56,3.35-2.54l10.57,6.13a8,8,0,0,1,3.35,6.41v11c0,2.47-1.5,3.55-3.35,2.53l-10.57-6.13A8,8,0,0,1,225.18,214.86Z"/><path class="cls-17" d="M198.64,199.53v-11c0-2.46,1.5-3.56,3.35-2.53l10.57,6.13a8,8,0,0,1,3.35,6.41v11c0,2.46-1.5,3.55-3.35,2.53L202,206A8,8,0,0,1,198.64,199.53Z"/><path class="cls-18" d="M277.49,274.11v-11c0-2.46,1.5-3.61,3.35-2.54l10.57,6.14a8,8,0,0,1,3.35,6.41v11c0,2.47-1.5,3.56-3.35,2.54l-10.57-6.13A8.09,8.09,0,0,1,277.49,274.11Z"/><path class="cls-19" d="M251.71,259.34v-11c0-2.46,1.51-3.56,3.36-2.53l10.56,6.13a8,8,0,0,1,3.36,6.41v11c0,2.47-1.51,3.61-3.36,2.54l-10.56-6.13A8.05,8.05,0,0,1,251.71,259.34Z"/><path class="cls-20" d="M225.18,244V233c0-2.47,1.5-3.61,3.35-2.53l10.57,6.13a8,8,0,0,1,3.35,6.41v11c0,2.47-1.5,3.56-3.35,2.54l-10.57-6.13A8.09,8.09,0,0,1,225.18,244Z"/><path class="cls-21" d="M198.64,228.64v-11c0-2.47,1.5-3.61,3.35-2.54l10.57,6.14a8,8,0,0,1,3.35,6.41v11c0,2.48-1.5,3.61-3.35,2.54L202,235.08A8,8,0,0,1,198.64,228.64Z"/><g class="cls-22"><path class="cls-5" d="M198,164.71v-43.8a4.18,4.18,0,0,1,.54-2,4.1,4.1,0,0,1,5.59-1.49l83.58,48.26a13.33,13.33,0,0,1,6.66,11.55V223a2.77,2.77,0,0,1-.38,1.44,2.84,2.84,0,0,1-3.89,1L204.56,176A13.08,13.08,0,0,1,198,164.71Z"/><path class="cls-5" d="M277.49,245V234c0-2.47,1.5-3.61,3.35-2.53l10.57,6.13a8.06,8.06,0,0,1,3.35,6.42v11c0,2.47-1.5,3.6-3.35,2.53l-10.57-6.13A8,8,0,0,1,277.49,245Z"/><path class="cls-5" d="M251.71,230.19v-11c0-2.47,1.51-3.55,3.36-2.53l10.56,6.13A8,8,0,0,1,269,229.2v11c0,2.47-1.51,3.55-3.36,2.53l-10.56-6.13A8,8,0,0,1,251.71,230.19Z"/><path class="cls-5" d="M225.18,214.86v-11c0-2.47,1.5-3.56,3.35-2.54l10.57,6.13a8,8,0,0,1,3.35,6.41v11c0,2.47-1.5,3.55-3.35,2.53l-10.57-6.13A8,8,0,0,1,225.18,214.86Z"/><path class="cls-5" d="M198.64,199.53v-11c0-2.46,1.5-3.56,3.35-2.53l10.57,6.13a8,8,0,0,1,3.35,6.41v11c0,2.46-1.5,3.55-3.35,2.53L202,206A8,8,0,0,1,198.64,199.53Z"/><path class="cls-5" d="M277.49,274.11v-11c0-2.46,1.5-3.61,3.35-2.54l10.57,6.14a8,8,0,0,1,3.35,6.41v11c0,2.47-1.5,3.56-3.35,2.54l-10.57-6.13A8.09,8.09,0,0,1,277.49,274.11Z"/><path class="cls-5" d="M251.71,259.34v-11c0-2.46,1.51-3.56,3.36-2.53l10.56,6.13a8,8,0,0,1,3.36,6.41v11c0,2.47-1.51,3.61-3.36,2.54l-10.56-6.13A8.05,8.05,0,0,1,251.71,259.34Z"/><path class="cls-5" d="M225.18,244V233c0-2.47,1.5-3.61,3.35-2.53l10.57,6.13a8,8,0,0,1,3.35,6.41v11c0,2.47-1.5,3.56-3.35,2.54l-10.57-6.13A8.09,8.09,0,0,1,225.18,244Z"/><path class="cls-5" d="M198.64,228.64v-11c0-2.47,1.5-3.61,3.35-2.54l10.57,6.14a8,8,0,0,1,3.35,6.41v11c0,2.48-1.5,3.61-3.35,2.54L202,235.08A8,8,0,0,1,198.64,228.64Z"/></g><path class="cls-23" d="M310.82,158.26,371.05,193V340.69a3.61,3.61,0,0,1-.48,1.79,3.54,3.54,0,0,1-4.84,1.28l-54.94-31.7Z"/><path class="cls-24" d="M310.82,158.26,371.05,193V340.69a3.61,3.61,0,0,1-.48,1.79,3.54,3.54,0,0,1-4.84,1.28l-54.94-31.7Z"/><path class="cls-25" d="M358.56,200.37a9.17,9.17,0,0,1,4.15,7.15c0,2.65-1.86,3.72-4.15,2.39a9.18,9.18,0,0,1-4.16-7.15C354.4,200.16,356.26,199,358.56,200.37Z"/><path class="cls-25" d="M358.56,216.23a9.21,9.21,0,0,1,4.15,7.2c0,2.65-1.86,3.72-4.15,2.4a9.21,9.21,0,0,1-4.16-7.16C354.4,216,356.26,215,358.56,216.23Z"/><path class="cls-25" d="M358.56,232.18a9.2,9.2,0,0,1,4.15,7.16c0,2.65-1.86,3.73-4.15,2.4a9.2,9.2,0,0,1-4.16-7.16C354.4,231.94,356.26,230.82,358.56,232.18Z"/><path class="cls-25" d="M358.56,248.1a9.17,9.17,0,0,1,4.15,7.15c0,2.65-1.86,3.73-4.15,2.4a9.18,9.18,0,0,1-4.16-7.15C354.4,247.84,356.26,246.77,358.56,248.1Z"/><path class="cls-25" d="M344.39,198.72l-24.34-14.05a1.51,1.51,0,0,1,1.5-2.61l24.35,14.06a1.48,1.48,0,0,1,.76,1.32,1.51,1.51,0,0,1-1.52,1.49A1.66,1.66,0,0,1,344.39,198.72Z"/><path class="cls-25" d="M344.4,214.62l-24.34-14.06h0a1.5,1.5,0,0,1,1.5-2.59L345.9,212a1.5,1.5,0,1,1-1.5,2.59Z"/><path class="cls-25" d="M344.4,230.54l-24.34-14.07h0a1.49,1.49,0,0,1-.54-2,1.51,1.51,0,0,1,2-.55l24.35,14.06a1.5,1.5,0,0,1-1.5,2.6Z"/><path class="cls-25" d="M344.4,246.45l-24.34-14h0a1.49,1.49,0,0,1-.54-2,1.51,1.51,0,0,1,2-.55l24.35,14a1.5,1.5,0,0,1-.76,2.81A1.37,1.37,0,0,1,344.4,246.45Z"/><path class="cls-25" d="M357.83,283.77,320.08,262l-.16-.1a1.5,1.5,0,1,1,1.66-2.5l37.75,21.79a1.5,1.5,0,0,1-.75,2.81A1.53,1.53,0,0,1,357.83,283.77Z"/><path class="cls-25" d="M357.84,297l-37.75-21.8h0a1.5,1.5,0,0,1,1.5-2.59l37.75,21.8a1.49,1.49,0,0,1,.77,1.32,1.51,1.51,0,0,1-1.52,1.49A1.49,1.49,0,0,1,357.84,297Z"/><path class="cls-25" d="M357.84,310.33l-37.75-21.8h0a1.49,1.49,0,0,1-.54-2,1.51,1.51,0,0,1,2-.55l37.75,21.8a1.5,1.5,0,1,1-1.49,2.6Z"/><path class="cls-25" d="M357.83,323.56l-37.75-21.8h0a1.5,1.5,0,0,1,1.5-2.6L359.33,321a1.5,1.5,0,0,1-.75,2.81A1.54,1.54,0,0,1,357.83,323.56Z"/><path class="cls-25" d="M370.59,277.25l-58.47-33.72a.52.52,0,0,1-.19-.69v0a.5.5,0,0,1,.68-.16l58.48,33.73a.49.49,0,0,1,.17.68.47.47,0,0,1-.43.25A.55.55,0,0,1,370.59,277.25Z"/><path class="cls-26" d="M371,189.57v6.2L180,85.69V77.78a3.18,3.18,0,0,1,.44-1.62A3.21,3.21,0,0,1,184.78,75L366.61,180.28C369.34,181.88,371,186.41,371,189.57Z"/><path class="cls-12" d="M182.92,75.41a3.54,3.54,0,0,1,1.71.53L365.32,180.06a10,10,0,0,1,3.66,4.31,12.27,12.27,0,0,1,1.32,5.28v150.6c0,1.68-.47,3-1.3,3.53l-.28.15a2,2,0,0,1-.79.17,3.54,3.54,0,0,1-1.7-.53L185.54,239.45c-2.71-1.55-5-5.95-5-9.59V79.26a4.28,4.28,0,0,1,1.26-3.49.94.94,0,0,1,.33-.2,1.91,1.91,0,0,1,.78-.16m0-.91a2.77,2.77,0,0,0-1.1.22,2.35,2.35,0,0,0-.56.31c-1,.74-1.62,2.18-1.62,4.23v150.6c0,4,2.43,8.65,5.44,10.39L365.73,344.36a4.48,4.48,0,0,0,2.16.66,2.8,2.8,0,0,0,1.2-.27l.34-.19c1.08-.71,1.74-2.21,1.74-4.31V189.65a13.17,13.17,0,0,0-1.41-5.68,10.94,10.94,0,0,0-4-4.7L185.08,75.15a4.47,4.47,0,0,0-2.16-.65Z"/></g><g id="freepik--Crane--inject-88"><polygon class="cls-8" points="116.17 199.26 102.19 170.18 94.43 171.21 110.97 206.04 131.99 213.62 131.99 208.87 116.17 199.26"/><polygon class="cls-9" points="131.99 213.62 126.79 216.32 126.79 211.57 131.99 208.87 131.99 213.62"/><polygon class="cls-7" points="110.97 201.96 96.98 172.87 93.45 172.91 108.88 206.04 126.79 216.32 126.79 211.57 110.97 201.96"/><polygon class="cls-8" points="69.88 249.04 45.03 184.31 55.25 180.26 85.73 241.48 69.88 249.04"/><path class="cls-27" d="M33.08,165.12l13.71,23.8,11.48-6.69h0c2.06-.87,3.37-3.15,3.37-6.54,0-6.2-4.36-13.76-9.72-16.83-2.69-1.55-5.13-1.69-6.89-.67h0Z"/><ellipse class="cls-28" cx="39.67" cy="177.15" rx="7.94" ry="13.75" transform="translate(-83.26 43.57) rotate(-30)"/><ellipse class="cls-4" cx="39.67" cy="177.15" rx="7.94" ry="13.75" transform="translate(-83.26 43.57) rotate(-30)"/><path class="cls-29" d="M39.67,171.45A10.9,10.9,0,0,1,44.61,180c0,3.15-2.21,4.42-4.94,2.85a10.92,10.92,0,0,1-4.92-8.55C34.75,171.16,37,169.88,39.67,171.45Z"/><path class="cls-30" d="M39.67,171.45A10.9,10.9,0,0,1,44.61,180c0,3.15-2.21,4.42-4.94,2.85a10.92,10.92,0,0,1-4.92-8.55C34.75,171.16,37,169.88,39.67,171.45Z"/><path class="cls-8" d="M91.83,163.91l-38.4,5a4.6,4.6,0,0,0-3.24,4.32c0,3.39,3.6,3.94,3.6,3.94s38.48-7.68,38.83-8.26Z"/><path class="cls-31" d="M87.22,159.52,96.69,176l8-4.61h0c1.42-.6,2.33-2.18,2.33-4.52a14.84,14.84,0,0,0-6.72-11.64c-1.86-1.07-3.55-1.17-4.76-.47h0Z"/><path class="cls-32" d="M91.83,160.09a14.87,14.87,0,0,1,6.72,11.67c0,4.28-3,6-6.72,3.87A14.82,14.82,0,0,1,85.06,164C85.06,159.68,88.08,157.94,91.83,160.09Z"/><path class="cls-4" d="M91.83,160.09a14.87,14.87,0,0,1,6.72,11.67c0,4.28-3,6-6.72,3.87A14.82,14.82,0,0,1,85.06,164C85.06,159.68,88.08,157.94,91.83,160.09Z"/><path class="cls-33" d="M91.79,163.91a7.55,7.55,0,0,1,3.41,5.91c0,2.18-1.53,3.05-3.41,2a7.57,7.57,0,0,1-3.42-5.91C88.37,163.71,89.9,162.82,91.79,163.91Z"/><path class="cls-30" d="M91.79,163.91a7.55,7.55,0,0,1,3.41,5.91c0,2.18-1.53,3.05-3.41,2a7.57,7.57,0,0,1-3.42-5.91C88.37,163.71,89.9,162.82,91.79,163.91Z"/><ellipse class="cls-8" cx="151.94" cy="312.51" rx="14.87" ry="25.77" transform="translate(-87.12 60.32) rotate(-17.54)"/><polygon class="cls-8" points="130.47 295.97 128.99 296.97 148.24 344.4 161.05 336.5 130.47 295.97"/><ellipse class="cls-7" cx="138.85" cy="320.55" rx="14.87" ry="25.77" transform="translate(-90.15 56.75) rotate(-17.54)"/><ellipse class="cls-8" cx="62.41" cy="311.92" rx="14.87" ry="24.92" transform="translate(-91.1 33.31) rotate(-17.54)"/><polygon class="cls-8" points="53.45 288.75 40.21 295.06 58.38 343.22 71.94 334.81 53.45 288.75"/><polygon class="cls-34" points="103.95 219.82 55.25 247.69 92.62 269.44 141.84 241.48 103.95 219.82"/><polygon class="cls-35" points="103.95 219.82 116.84 227.18 118.62 228.21 141.85 241.48 92.62 269.44 69.92 256.23 68.02 255.12 68.01 255.12 55.25 247.69 103.95 219.82"/><path class="cls-36" d="M68.06,255.12h0l1.9,1.11,22.7,13.21,17,50.89v15.18a34.78,34.78,0,0,0-8-11.73c-8.09-7.4-16.51-5.29-19.57,4.52l-12.27-7.1-1.78-1-12.76-7.41V247.69Z"/><path class="cls-37" d="M68.06,255.12h0l1.9,1.11,22.7,13.21,17,50.89v15.18a34.78,34.78,0,0,0-8-11.73c-8.09-7.4-16.51-5.29-19.57,4.52l-12.27-7.1-1.78-1-12.76-7.41V247.69Z"/><polygon class="cls-38" points="158.83 307.56 149.26 312.95 149.26 329.13 119.78 346.04 119.78 329.97 109.61 335.52 109.61 320.33 158.83 292.38 158.83 307.56"/><polygon class="cls-39" points="92.62 269.44 109.61 320.33 158.83 292.38 141.84 241.48 92.62 269.44"/><polygon class="cls-40" points="92.62 269.44 109.61 320.33 158.83 292.38 141.84 241.48 92.62 269.44"/><path class="cls-8" d="M90.94,336.63c2.2,8.71,7.46,17.34,14,22.05,9.44,6.76,18,2.86,19.15-8.7.62-6.31-1.12-13.6-4.36-20l-10.16,5.56Z"/><polygon class="cls-8" points="87.21 320.73 85.73 321.74 104.99 369.17 118.54 360.75 87.21 320.73"/><ellipse class="cls-8" cx="97.03" cy="344.34" rx="14.87" ry="25.77" transform="translate(-99.26 45.25) rotate(-17.54)"/><ellipse class="cls-9" cx="95.59" cy="345.33" rx="14.87" ry="25.77" transform="translate(-99.63 44.87) rotate(-17.54)"/><ellipse class="cls-7" cx="94.53" cy="346.05" rx="6.71" ry="11.63" transform="translate(-99.89 44.58) rotate(-17.54)"/><path class="cls-41" d="M95.81,338.14a17.71,17.71,0,0,1,4.31,13.63c-.73,4.37-3.88,5.36-6.94,2.2a17.73,17.73,0,0,1-4.32-13.63C89.6,336,92.71,335,95.81,338.14Z"/><path class="cls-7" d="M95.09,340.7A12.71,12.71,0,0,1,98,349.9c-.42,2.93-2.36,3.55-4.41,1.39a12.69,12.69,0,0,1-2.9-9.2C91.1,339.16,93.07,338.55,95.09,340.7Z"/><ellipse class="cls-8" cx="50.44" cy="318.4" rx="14.87" ry="25.77" transform="translate(-93.61 30) rotate(-17.54)"/><ellipse class="cls-9" cx="49.01" cy="319.38" rx="14.87" ry="25.77" transform="translate(-93.97 29.62) rotate(-17.54)"/><path class="cls-7" d="M50,310.81c3.88,3.54,6.1,10.57,5,15.69s-5.18,6.39-9.05,2.86a18.21,18.21,0,0,1-5-15.69C42.07,308.55,46.12,307.26,50,310.81Z"/><ellipse class="cls-42" cx="47.87" cy="320.11" rx="5.15" ry="10.11" transform="translate(-94.25 29.31) rotate(-17.54)"/><path class="cls-7" d="M48.48,314.74a12.61,12.61,0,0,1,2.91,9.2c-.4,2.92-2.35,3.55-4.39,1.39a12.61,12.61,0,0,1-2.91-9.2C44.5,313.21,46.47,312.59,48.48,314.74Z"/><polygon class="cls-8" points="112.38 262.98 116.17 260.82 123.91 256.43 133.46 250.99 139.31 247.67 153.63 290.58 118.97 310.27 112.13 314.14 110.78 310.07 106.93 298.54 105.05 292.9 97.82 271.25 112.38 262.98"/><path class="cls-43" d="M68,255.13l48.82-27.94,1.78,1a.88.88,0,0,1-.35.34L69.92,256.23v64.49a.81.81,0,0,1-.13.48l-1.78-1V255.12Z"/><g class="cls-44"><path d="M68,255.13l48.82-27.94,1.78,1a.88.88,0,0,1-.35.34L69.92,256.23v64.49a.81.81,0,0,1-.13.48l-1.78-1V255.12Z"/></g><polygon class="cls-9" points="123.91 256.43 133.46 250.99 118.97 310.27 112.13 314.14 110.78 310.07 123.91 256.43"/><polygon class="cls-9" points="112.38 262.98 116.17 260.82 106.93 298.54 105.05 292.9 112.38 262.98"/><polygon class="cls-8" points="73.02 262.7 90.18 272.69 105.05 317.24 73.02 298.17 73.02 262.7"/><polygon class="cls-8" points="58.28 254.06 64.66 257.75 64.66 293.29 58.28 289.61 58.28 254.06"/><path class="cls-45" d="M208,184.78l-3.23,1.64.35,66.22v2.2l2.46-1.36h0a1.94,1.94,0,0,0,1-2V187.13A5.65,5.65,0,0,0,208,184.78Z"/><path class="cls-46" d="M206.23,182.76,129,138.26a1.45,1.45,0,0,0-1.54-.11h-.08l-2.56,1.45,1.86,1.08,78.1,45.79,3.23-1.64A4.87,4.87,0,0,0,206.23,182.76Z"/><path class="cls-40" d="M206.23,182.76,129,138.26a1.45,1.45,0,0,0-1.54-.11h-.08l-2.56,1.45,1.86,1.08,78.1,45.79,3.23-1.64A4.87,4.87,0,0,0,206.23,182.76Z"/><path class="cls-47" d="M205.15,186.17a4.65,4.65,0,0,0-1.71-2l-76.77-44.24a1.59,1.59,0,0,0-1.39-.18.92.92,0,0,0-.24.13,2.15,2.15,0,0,0-.68,1.8v64a5.53,5.53,0,0,0,2.31,4.41l76.77,44.24a1.5,1.5,0,0,0,1.42.16l.16-.08a2.11,2.11,0,0,0,.73-1.83v-64A5.47,5.47,0,0,0,205.15,186.17Z"/><path class="cls-35" d="M205.15,186.17a4.65,4.65,0,0,0-1.71-2l-76.77-44.24a1.59,1.59,0,0,0-1.39-.18.92.92,0,0,0-.24.13,2.15,2.15,0,0,0-.68,1.8v64a5.53,5.53,0,0,0,2.31,4.41l76.77,44.24a1.5,1.5,0,0,0,1.42.16l.16-.08a2.11,2.11,0,0,0,.73-1.83v-64A5.47,5.47,0,0,0,205.15,186.17Z"/><text class="cls-48" transform="matrix(-0.87, -0.5, 0, 1, 191.88, 230.01)">&lt;/&gt;</text><path class="cls-49" d="M125.44,139.74a1.56,1.56,0,0,1,.73.22l77.24,44.47a4.44,4.44,0,0,1,1.57,1.84,5.42,5.42,0,0,1,.56,2.26v64.39a1.74,1.74,0,0,1-.56,1.51l-.13.06a.89.89,0,0,1-.32.08,1.58,1.58,0,0,1-.73-.24l-77.24-44.47a5.19,5.19,0,0,1-2.13-4.09V141.38a1.84,1.84,0,0,1,.53-1.49.44.44,0,0,1,.15-.08.78.78,0,0,1,.33-.07m0-.36a1.27,1.27,0,0,0-.47.09,1.09,1.09,0,0,0-.23.14,2.17,2.17,0,0,0-.7,1.81V205.8a5.58,5.58,0,0,0,2.32,4.44l77.25,44.5a1.85,1.85,0,0,0,.92.29,1.16,1.16,0,0,0,.51-.12l.15-.08a2.15,2.15,0,0,0,.74-1.84V188.6a5.52,5.52,0,0,0-.61-2.42,4.48,4.48,0,0,0-1.71-2l-77.25-44.51a1.87,1.87,0,0,0-.92-.28Z"/><polygon class="cls-9" points="115.44 133.87 97.1 161.02 101.43 158.69 119.27 136.05 115.44 133.87"/><polygon class="cls-7" points="113.84 132.97 95.14 159.05 97.1 161.02 114.74 136.99 131.05 146.28 131.05 142.73 113.84 132.97"/><polygon class="cls-8" points="131.05 142.73 136.99 139.3 119.78 129.37 113.84 132.97 131.05 142.73"/><polygon class="cls-9" points="131.05 142.73 131.05 146.28 136.99 142.73 136.99 139.3 131.05 142.73"/><path class="cls-9" d="M126,333.58a1.45,1.45,0,0,1-.72-1.26V320.5a4,4,0,0,1,2-3.45l16-9.2a1.46,1.46,0,0,1,1.46,0,1.43,1.43,0,0,1,.72,1.26V321a4,4,0,0,1-2,3.44l-16,9.2a1.39,1.39,0,0,1-.72.2A1.41,1.41,0,0,1,126,333.58Zm17-9.89a3.13,3.13,0,0,0,1.55-2.7V309.16a.58.58,0,0,0-.87-.51l-16,9.2a3.06,3.06,0,0,0-1.55,2.69v11.82a.53.53,0,0,0,.07.28.59.59,0,0,0,.81.23Z"/><rect class="cls-9" x="124.24" y="315.4" width="22.28" height="0.87" transform="translate(-139.78 110) rotate(-30)"/><rect class="cls-9" x="124.24" y="318.69" width="22.28" height="0.87" transform="translate(-141.43 110.44) rotate(-30)"/><rect class="cls-9" x="124.24" y="321.95" width="22.28" height="0.87" transform="translate(-143.05 110.88) rotate(-30)"/><rect class="cls-9" x="124.23" y="325.23" width="22.28" height="0.87" transform="translate(-144.69 111.32) rotate(-30)"/><polygon class="cls-5" points="151.98 302.5 158.83 298.54 158.83 302.59 151.98 306.55 151.98 302.5"/><polygon class="cls-5" points="109.61 326.32 116.46 322.38 116.46 326.42 109.61 330.37 109.61 326.32"/><path class="cls-50" d="M188.65,118.63l-1.77.89L187,156v1.2l1.35-.74h0a1.08,1.08,0,0,0,.53-1.08V119.9A2.79,2.79,0,0,0,188.65,118.63Z"/><path class="cls-51" d="M187.63,117.55,145.16,93a.84.84,0,0,0-.85-.06h0l-1.41.8,1,.59,42.93,25.17,1.77-.89A2.64,2.64,0,0,0,187.63,117.55Z"/><path class="cls-40" d="M187.63,117.55,145.16,93a.84.84,0,0,0-.85-.06h0l-1.41.8,1,.59,42.93,25.17,1.77-.89A2.64,2.64,0,0,0,187.63,117.55Z"/><path class="cls-52" d="M187.06,119.32a2.49,2.49,0,0,0-.94-1.09L143.9,93.89a.84.84,0,0,0-.77-.09.37.37,0,0,0-.12.07,1.16,1.16,0,0,0-.38,1v35.2a3.06,3.06,0,0,0,1.27,2.43l42.22,24.33a.85.85,0,0,0,.79.09l.08-.05a1.19,1.19,0,0,0,.4-1V120.68A3.21,3.21,0,0,0,187.06,119.32Z"/><path class="cls-35" d="M187.06,119.32a2.49,2.49,0,0,0-.94-1.09L143.9,93.89a.84.84,0,0,0-.77-.09.37.37,0,0,0-.12.07,1.16,1.16,0,0,0-.38,1v35.2a3.06,3.06,0,0,0,1.27,2.43l42.22,24.33a.85.85,0,0,0,.79.09l.08-.05a1.19,1.19,0,0,0,.4-1V120.68A3.21,3.21,0,0,0,187.06,119.32Z"/><text class="cls-53" transform="matrix(0.8, 0.37, -0.13, 0.99, 151.54, 129.38)"><tspan class="cls-54">C</tspan><tspan class="cls-55" x="13.46" y="0">+</tspan><tspan x="24.66" y="0">+</tspan></text><path class="cls-56" d="M143.22,93.83a.78.78,0,0,1,.4.12l42.48,24.48a2.31,2.31,0,0,1,.86,1,2.72,2.72,0,0,1,.31,1.25v35.46a1,1,0,0,1-.31.84h-.25a.81.81,0,0,1-.4-.12l-42.47-24.53a2.89,2.89,0,0,1-1.17-2.26V94.7a1,1,0,0,1,.29-.83H143a.54.54,0,0,1,.18,0m0-.22a.53.53,0,0,0-.25,0,.35.35,0,0,0-.13.08,1.15,1.15,0,0,0-.38,1v35.34a3,3,0,0,0,1.28,2.44l42.47,24.53a1,1,0,0,0,.5.16.59.59,0,0,0,.29-.07h.08a1.16,1.16,0,0,0,.41-1V120.74a3.13,3.13,0,0,0-.34-1.34,2.58,2.58,0,0,0-.94-1.1L143.74,93.77a1.06,1.06,0,0,0-.52-.16Z"/><path class="cls-57" d="M188.61,63.62l-1.76.89.19,36.28V102l1.35-.75h0c.33-.07.53-.46.53-1V64.94A2.88,2.88,0,0,0,188.61,63.62Z"/><path class="cls-58" d="M187.61,62.52,145.3,38.15a.77.77,0,0,0-.85-.06h0l-1.41.79,1,.6,42.8,25.08,1.76-.89A2.67,2.67,0,0,0,187.61,62.52Z"/><path class="cls-40" d="M187.61,62.52,145.3,38.15a.77.77,0,0,0-.85-.06h0l-1.41.79,1,.6,42.8,25.08,1.76-.89A2.67,2.67,0,0,0,187.61,62.52Z"/><path class="cls-59" d="M187.07,64.38a2.68,2.68,0,0,0-.94-1.09L144.06,39a.78.78,0,0,0-.75-.1l-.13.07a1.17,1.17,0,0,0-.37,1V75.1a3.06,3.06,0,0,0,1.25,2.42l42.07,24.17a.83.83,0,0,0,.78.09H187a1.16,1.16,0,0,0,.41-1V65.7A3,3,0,0,0,187.07,64.38Z"/><path class="cls-35" d="M187.07,64.38a2.68,2.68,0,0,0-.94-1.09L144.06,39a.78.78,0,0,0-.75-.1l-.13.07a1.17,1.17,0,0,0-.37,1V75.1a3.06,3.06,0,0,0,1.25,2.42l42.07,24.17a.83.83,0,0,0,.78.09H187a1.16,1.16,0,0,0,.41-1V65.7A3,3,0,0,0,187.07,64.38Z"/><g class="cls-60"><text class="cls-61" transform="matrix(-0.87, -0.5, 0, 1, 177.64, 85.23)">{}</text></g><path class="cls-62" d="M143.4,39a.72.72,0,0,1,.4.12l42.31,24.37a2.39,2.39,0,0,1,.86,1,2.76,2.76,0,0,1,.3,1.23V101a1,1,0,0,1-.3.83h-.07a.28.28,0,0,1-.18,0,.81.81,0,0,1-.4-.12L144,77.3a2.82,2.82,0,0,1-1.16-2.25V39.79a1,1,0,0,1,.28-.81h.27m0-.25a.58.58,0,0,0-.26.05l-.13.07a1.2,1.2,0,0,0-.38,1V75.14a3.09,3.09,0,0,0,1.27,2.43L186.22,102a1,1,0,0,0,.5.16.67.67,0,0,0,.28-.06h.08a1.16,1.16,0,0,0,.41-1V65.72a3.11,3.11,0,0,0-.33-1.33,2.63,2.63,0,0,0-.94-1.1L143.9,38.91a.9.9,0,0,0-.5-.16Z"/></g><g id="freepik--Gears--inject-88"><path class="cls-63" d="M272.45,69.64a1.24,1.24,0,0,1,0,.47l-3.7,1.81h-.11a1.44,1.44,0,0,0-.63,1.75l2.67,7.16a1.75,1.75,0,0,0,1.76,1.06h2.94A3.13,3.13,0,0,1,278,83.31l2.21,3.43a3.44,3.44,0,0,1,.52,2.34L280,93.91a2.44,2.44,0,0,0,.76,2.12l4.84,4.42a1,1,0,0,0,1,.17h0l5.55-2.72h0a.94.94,0,0,0,.57-.58l.14-.39a3.13,3.13,0,0,1,1.31,1.43l2.69,6a2,2,0,0,0,2,1.15l3.16-.4a1,1,0,0,0,.56-.22h0l5.47-2.66h0a1.2,1.2,0,0,0,.71-1h0a1.09,1.09,0,0,0,0-.36l-1.54-5.29,1.83,1.5a.76.76,0,0,0,.86.08h0l5.62-2.75h0a.76.76,0,0,0,.44-.53l1.14-5.31a2.64,2.64,0,0,0,0-1.31,2.51,2.51,0,0,0-.63-1L312.48,82a2.9,2.9,0,0,1-.6-.94,2.25,2.25,0,0,1-.2-.76l-.45-4.17a1.23,1.23,0,0,1,0-.54l4-2h0a1.15,1.15,0,0,0,.52-1.4l-2.72-7.44a2.18,2.18,0,0,0-1.44-1.32,2.1,2.1,0,0,0-.56-.07H308a2.27,2.27,0,0,1-1.31-.42,2.15,2.15,0,0,1-.58-.62l-2.71-4.21a2.23,2.23,0,0,1-.37-1.59l.69-4.37a3.06,3.06,0,0,0-.1-1.31,2.91,2.91,0,0,0-.72-1.19l-4.75-4.81a1,1,0,0,0-1-.21h0l-.17.08-5.55,2.71h0a1,1,0,0,0-.5.53l-.19.5A3.2,3.2,0,0,1,289.47,47l-2.69-6.13a1.43,1.43,0,0,0-.41-.56h0a1.67,1.67,0,0,0-1.38-.45l-3.64.47a1.24,1.24,0,0,0-.45.14h0l-5.6,2.79h0a1.27,1.27,0,0,0-.64,1.53l1.68,5.11-1.62-1.39a1,1,0,0,0-1-.15l-.13.07-5.65,2.76h0a1,1,0,0,0-.51.67l-1,4.87a2.53,2.53,0,0,0,.7,2.32l4,4a4.38,4.38,0,0,1,1.25,2.75Zm26.21,11.28a9.88,9.88,0,0,1-1.13,3.94,10.38,10.38,0,0,1-3.89-1.79c-5.32-3.77-9.13-12.07-8.53-18.55a10.26,10.26,0,0,1,1-3.88,9.66,9.66,0,0,1,4,1.74C295.38,66.14,299.19,74.45,298.66,80.92Z"/><path class="cls-4" d="M272.45,69.64a1.24,1.24,0,0,1,0,.47l-3.7,1.81h-.11a1.44,1.44,0,0,0-.63,1.75l2.67,7.16a1.75,1.75,0,0,0,1.76,1.06h2.94A3.13,3.13,0,0,1,278,83.31l2.21,3.43a3.44,3.44,0,0,1,.52,2.34L280,93.91a2.44,2.44,0,0,0,.76,2.12l4.84,4.42a1,1,0,0,0,1,.17h0l5.55-2.72h0a.94.94,0,0,0,.57-.58l.14-.39a3.13,3.13,0,0,1,1.31,1.43l2.69,6a2,2,0,0,0,2,1.15l3.16-.4a1,1,0,0,0,.56-.22h0l5.47-2.66h0a1.2,1.2,0,0,0,.71-1h0a1.09,1.09,0,0,0,0-.36l-1.54-5.29,1.83,1.5a.76.76,0,0,0,.86.08h0l5.62-2.75h0a.76.76,0,0,0,.44-.53l1.14-5.31a2.64,2.64,0,0,0,0-1.31,2.51,2.51,0,0,0-.63-1L312.48,82a2.9,2.9,0,0,1-.6-.94,2.25,2.25,0,0,1-.2-.76l-.45-4.17a1.23,1.23,0,0,1,0-.54l4-2h0a1.15,1.15,0,0,0,.52-1.4l-2.72-7.44a2.18,2.18,0,0,0-1.44-1.32,2.1,2.1,0,0,0-.56-.07H308a2.27,2.27,0,0,1-1.31-.42,2.15,2.15,0,0,1-.58-.62l-2.71-4.21a2.23,2.23,0,0,1-.37-1.59l.69-4.37a3.06,3.06,0,0,0-.1-1.31,2.91,2.91,0,0,0-.72-1.19l-4.75-4.81a1,1,0,0,0-1-.21h0l-.17.08-5.55,2.71h0a1,1,0,0,0-.5.53l-.19.5A3.2,3.2,0,0,1,289.47,47l-2.69-6.13a1.43,1.43,0,0,0-.41-.56h0a1.67,1.67,0,0,0-1.38-.45l-3.64.47a1.24,1.24,0,0,0-.45.14h0l-5.6,2.79h0a1.27,1.27,0,0,0-.64,1.53l1.68,5.11-1.62-1.39a1,1,0,0,0-1-.15l-.13.07-5.65,2.76h0a1,1,0,0,0-.51.67l-1,4.87a2.53,2.53,0,0,0,.7,2.32l4,4a4.38,4.38,0,0,1,1.25,2.75Zm26.21,11.28a9.88,9.88,0,0,1-1.13,3.94,10.38,10.38,0,0,1-3.89-1.79c-5.32-3.77-9.13-12.07-8.53-18.55a10.26,10.26,0,0,1,1-3.88,9.66,9.66,0,0,1,4,1.74C295.38,66.14,299.19,74.45,298.66,80.92Z"/><path class="cls-35" d="M311.9,81a2.77,2.77,0,0,0,.61.94l4.08,4.26a2.51,2.51,0,0,1,.63,1l-5.66,2.91L305.43,84Z"/><path class="cls-35" d="M306.64,62.89a2.27,2.27,0,0,0,1.31.42H311a2,2,0,0,1,.55.07l-5.16,3h-5.3l-.12-.7Z"/><path class="cls-35" d="M297,44.73l.17-.08h0a1,1,0,0,1,1,.21l4.75,4.81a2.91,2.91,0,0,1,.72,1.19h0L298,53.93l-4.23-4.17h0l-2.39-2.35Z"/><path class="cls-35" d="M280.93,40.48h0a1.24,1.24,0,0,1,.45-.14l3.63-.46a1.67,1.67,0,0,1,1.38.45h0l-5.54,2.92h-5.57Z"/><path class="cls-64" d="M272.3,65.9l.25,3.67a1.48,1.48,0,0,1-1.09,1.53l-2.43.65-.13,0a1.47,1.47,0,0,0-.89,1.88l2.67,7.16A1.74,1.74,0,0,0,272.36,82h2.94a3.13,3.13,0,0,1,2.61,1.42l2.21,3.43a3.44,3.44,0,0,1,.52,2.34L280,94a2.41,2.41,0,0,0,.76,2.12l4.83,4.42a.9.9,0,0,0,.34.2,1,1,0,0,0,1.21-.58l1.25-3.59c0-.07.05-.13.08-.19a1.48,1.48,0,0,1,2-.65l2.35,1.12a3.08,3.08,0,0,1,1.52,1.56l2.69,6a2,2,0,0,0,2,1.15l3.16-.4a.78.78,0,0,0,.22,0,1.2,1.2,0,0,0,.8-1.49l-1.79-6.22a2.43,2.43,0,0,1,.44-2.22l1-1.26h0a1.56,1.56,0,0,1,2.21-.2l4.09,3.34a.84.84,0,0,0,.33.16.77.77,0,0,0,.91-.59l1.18-5.29A2.61,2.61,0,0,0,310.9,89l-4.09-4.26A3,3,0,0,1,306,83l-.44-4.17a1.46,1.46,0,0,1,1-1.58l2.82-.85h0a1.16,1.16,0,0,0,.71-1.49l-2.72-7.43a2.14,2.14,0,0,0-2.05-1.4h-3.06a2.28,2.28,0,0,1-1.91-1l-2.69-4.22a2.25,2.25,0,0,1-.34-1.56l.68-4.37a3,3,0,0,0-.8-2.5l-4.81-4.75a1,1,0,0,0-.35-.23,1,1,0,0,0-1.22.56l-1.5,3.89,0,0a1.15,1.15,0,0,1-1.5.61l-2.41-1a3.15,3.15,0,0,1-1.67-1.66l-2.69-6.13a1.71,1.71,0,0,0-1.79-1l-3.62.45a.8.8,0,0,0-.21.05,1.27,1.27,0,0,0-.81,1.61l1.81,5.63a2.94,2.94,0,0,1-.68,3l-1.18,1.23a1.1,1.1,0,0,1-1.5.09L269,51.31a1,1,0,0,0-.37-.17,1,1,0,0,0-1.24.74l-1,4.87a2.53,2.53,0,0,0,.7,2.32l4,4A4.38,4.38,0,0,1,272.3,65.9Zm7.06,1.41c.6-6.48,5.41-8.69,10.71-4.93s9.12,12.06,8.51,18.54-5.39,8.69-10.7,4.93S278.76,73.79,279.36,67.31Z"/><path class="cls-65" d="M384.6,158.3a2.58,2.58,0,0,1-.08.83l-6.42,3.12-.18.1h-.07a2.54,2.54,0,0,0-1.1,3.06l4.65,12.35a3.06,3.06,0,0,0,2.86,2h5.11a5.38,5.38,0,0,1,4.51,2.46l3.83,5.92a6,6,0,0,1,.9,4.09l-1.19,8.38a4.23,4.23,0,0,0,1.27,3.61l8.38,7.67a1.63,1.63,0,0,0,1.81.27h0l9.63-4.72h0a1.62,1.62,0,0,0,1-1l.24-.69a5.46,5.46,0,0,1,2.27,2.48l4.66,10.4a3.45,3.45,0,0,0,3.57,2l5.48-.69a2,2,0,0,0,1-.4h0l9.48-4.6h0a2.12,2.12,0,0,0,1.21-1.85h0a1.64,1.64,0,0,0-.09-.62l-2.64-9.2,3.15,2.61a1.37,1.37,0,0,0,1.5.13h0l9.74-4.76h0a1.34,1.34,0,0,0,.77-.93l2.05-9.2a4.53,4.53,0,0,0-1.16-4.09l-7.15-7.38a4.91,4.91,0,0,1-1-1.55,5.21,5.21,0,0,1-.36-1.34l-.78-7.23a2.5,2.5,0,0,1,.07-.94l7-3.41h0a2,2,0,0,0,.9-2.42l-4.72-12.89a3.66,3.66,0,0,0-2.5-2.28,3.07,3.07,0,0,0-.95-.13h-5.32a3.83,3.83,0,0,1-2.26-.73,3.59,3.59,0,0,1-1-1.07L438,138.42a3.92,3.92,0,0,1-.57-2.69l1.18-7.58a5.23,5.23,0,0,0-.16-2.26,5.13,5.13,0,0,0-1.25-2l-8.23-8.33a1.64,1.64,0,0,0-1.78-.37h0l-.31.14-9.61,4.7h0a1.76,1.76,0,0,0-.87.91l-.32.87a5.39,5.39,0,0,1-2.14-2.46l-4.66-10.62a2.78,2.78,0,0,0-.7-1h0a3,3,0,0,0-2.4-.77l-6.28.8a2.16,2.16,0,0,0-.78.25h0l-9.77,4.79h0a2.19,2.19,0,0,0-1.12,2.65l2.91,8.86-2.85-2.36a1.7,1.7,0,0,0-1.73-.26l-.23.12-9.79,4.77h0a1.71,1.71,0,0,0-.89,1.17l-1.75,8.42a4.5,4.5,0,0,0,1.19,4l6.91,7a7.48,7.48,0,0,1,2.16,4.76Zm30.28-12.42c9.2,6.52,15.81,20.9,14.77,32.05a17.12,17.12,0,0,1-1.95,6.81,17.62,17.62,0,0,1-6.75-3.07c-9.19-6.57-15.79-20.88-14.76-32.12a17.61,17.61,0,0,1,1.85-6.73,16.71,16.71,0,0,1,6.85,3.06Z"/><path class="cls-4" d="M384.6,158.3a2.58,2.58,0,0,1-.08.83l-6.42,3.12-.18.1h-.07a2.54,2.54,0,0,0-1.1,3.06l4.65,12.35a3.06,3.06,0,0,0,2.86,2h5.11a5.38,5.38,0,0,1,4.51,2.46l3.83,5.92a6,6,0,0,1,.9,4.09l-1.19,8.38a4.23,4.23,0,0,0,1.27,3.61l8.38,7.67a1.63,1.63,0,0,0,1.81.27h0l9.63-4.72h0a1.62,1.62,0,0,0,1-1l.24-.69a5.46,5.46,0,0,1,2.27,2.48l4.66,10.4a3.45,3.45,0,0,0,3.57,2l5.48-.69a2,2,0,0,0,1-.4h0l9.48-4.6h0a2.12,2.12,0,0,0,1.21-1.85h0a1.64,1.64,0,0,0-.09-.62l-2.64-9.2,3.15,2.61a1.37,1.37,0,0,0,1.5.13h0l9.74-4.76h0a1.34,1.34,0,0,0,.77-.93l2.05-9.2a4.53,4.53,0,0,0-1.16-4.09l-7.15-7.38a4.91,4.91,0,0,1-1-1.55,5.21,5.21,0,0,1-.36-1.34l-.78-7.23a2.5,2.5,0,0,1,.07-.94l7-3.41h0a2,2,0,0,0,.9-2.42l-4.72-12.89a3.66,3.66,0,0,0-2.5-2.28,3.07,3.07,0,0,0-.95-.13h-5.32a3.83,3.83,0,0,1-2.26-.73,3.59,3.59,0,0,1-1-1.07L438,138.42a3.92,3.92,0,0,1-.57-2.69l1.18-7.58a5.23,5.23,0,0,0-.16-2.26,5.13,5.13,0,0,0-1.25-2l-8.23-8.33a1.64,1.64,0,0,0-1.78-.37h0l-.31.14-9.61,4.7h0a1.76,1.76,0,0,0-.87.91l-.32.87a5.39,5.39,0,0,1-2.14-2.46l-4.66-10.62a2.78,2.78,0,0,0-.7-1h0a3,3,0,0,0-2.4-.77l-6.28.8a2.16,2.16,0,0,0-.78.25h0l-9.77,4.79h0a2.19,2.19,0,0,0-1.12,2.65l2.91,8.86-2.85-2.36a1.7,1.7,0,0,0-1.73-.26l-.23.12-9.79,4.77h0a1.71,1.71,0,0,0-.89,1.17l-1.75,8.42a4.5,4.5,0,0,0,1.19,4l6.91,7a7.48,7.48,0,0,1,2.16,4.76Zm30.28-12.42c9.2,6.52,15.81,20.9,14.77,32.05a17.12,17.12,0,0,1-1.95,6.81,17.62,17.62,0,0,1-6.75-3.07c-9.19-6.57-15.79-20.88-14.76-32.12a17.61,17.61,0,0,1,1.85-6.73,16.71,16.71,0,0,1,6.85,3.06Z"/><path class="cls-35" d="M452.61,178.11a4.85,4.85,0,0,0,1,1.61l7.15,7.38a4.44,4.44,0,0,1,1,1.82L452.07,194l-10.58-10.79Z"/><path class="cls-35" d="M443.67,146.8a3.83,3.83,0,0,0,2.26.73h5.35a3.07,3.07,0,0,1,1,.13l-9,5.11H434l-.21-1.21Z"/><path class="cls-35" d="M426.76,115.28l.31-.14h0a1.62,1.62,0,0,1,1.77.37l8.24,8.33a5.13,5.13,0,0,1,1.25,2h0l-9.7,5.36L421.3,124h0l-4.09-4.09Z"/><path class="cls-35" d="M399.06,107.9h0a2.1,2.1,0,0,1,.78-.25l6.28-.8a3,3,0,0,1,2.4.77h0l-9.61,5.11h-9.67Z"/><path class="cls-66" d="M384.12,151.93l.46,6.35a2.57,2.57,0,0,1-1.9,2.67l-4.21,1.13-.21.07a2.54,2.54,0,0,0-1.51,3.26l4.65,12.35a3.06,3.06,0,0,0,2.86,2h5.11a5.38,5.38,0,0,1,4.51,2.46l3.83,5.92a6,6,0,0,1,.9,4.09l-1.19,8.38a4.22,4.22,0,0,0,1.27,3.64l8.38,7.67a1.84,1.84,0,0,0,.57.34,1.66,1.66,0,0,0,2.11-1l2.16-6.22a1.19,1.19,0,0,1,.11-.26,2.51,2.51,0,0,1,3.36-1.18l4.09,1.94a5.44,5.44,0,0,1,2.64,2.69l4.66,10.4a3.45,3.45,0,0,0,3.58,2l5.47-.69a1.8,1.8,0,0,0,.32-.06,2.11,2.11,0,0,0,1.44-2.61l-3.14-10.78a4.23,4.23,0,0,1,.79-3.83l1.79-2.19h0a2.73,2.73,0,0,1,3.85-.37l7,5.84a1.39,1.39,0,0,0,.56.27,1.34,1.34,0,0,0,1.6-1l2.05-9.2a4.45,4.45,0,0,0-1.17-4.08l-7.15-7.38a4.88,4.88,0,0,1-1.39-3l-.77-7.22a2.53,2.53,0,0,1,1.79-2.72l4.83-1.49h0a2,2,0,0,0,1.28-2.59l-4.72-12.86a3.7,3.7,0,0,0-3.46-2.42h-5.28a3.86,3.86,0,0,1-3.29-1.8l-4.68-7.31a3.84,3.84,0,0,1-.57-2.68l1.17-7.59a5,5,0,0,0-1.4-4.32l-8.21-8.35a1.56,1.56,0,0,0-.57-.37,1.66,1.66,0,0,0-2.16.94l-2.6,6.76a.89.89,0,0,1-.08.17,2,2,0,0,1-2.65.91l-4.18-1.77A5.55,5.55,0,0,1,404,124l-4.65-10.61a3,3,0,0,0-3.07-1.76l-6.29.79a2,2,0,0,0-.41.1,2.19,2.19,0,0,0-1.4,2.78l3.23,9.81a5.13,5.13,0,0,1-1.17,5.12l-2,2.14a1.92,1.92,0,0,1-2.6.15l-7.15-5.89a1.69,1.69,0,0,0-.78-.36,1.71,1.71,0,0,0-2,1.38l-1.75,8.42a4.5,4.5,0,0,0,1.19,4l6.91,7A7.48,7.48,0,0,1,384.12,151.93Zm12.21,2.48c1.06-11.23,9.35-15.1,18.55-8.53s15.8,20.9,14.76,32.12-9.34,15.05-18.54,8.53S395.28,165.63,396.33,154.41Z"/><path class="cls-67" d="M333,50.76a2.69,2.69,0,0,1-.06.69L327.65,54l-.15.08h-.05a2,2,0,0,0-.9,2.53l3.81,10.28a2.49,2.49,0,0,0,2.36,1.64h4.2a4.44,4.44,0,0,1,3.72,2l3.16,4.88a4.86,4.86,0,0,1,.74,3.36l-1,6.91a3.4,3.4,0,0,0,1.09,3.06l6.9,6.33a1.38,1.38,0,0,0,1.49.22h0l7.93-3.88h0a1.37,1.37,0,0,0,.82-.83l.2-.56a4.48,4.48,0,0,1,1.86,2l3.85,8.58a2.83,2.83,0,0,0,3,1.65l4.52-.56a1.71,1.71,0,0,0,.8-.33h0l7.81-3.8h0a1.71,1.71,0,0,0,1-1.52h0a1.75,1.75,0,0,0-.07-.51l-2.19-7.55,2.61,2.14a1.1,1.1,0,0,0,1.24.11h0l8-3.93h0a1.09,1.09,0,0,0,.63-.77l1.67-7.56a3.6,3.6,0,0,0-.07-1.87,3.68,3.68,0,0,0-.88-1.5l-5.91-6.14a4.12,4.12,0,0,1-.86-1.32,3.85,3.85,0,0,1-.28-1.11l-.66-6a2.48,2.48,0,0,1,.06-.77l5.76-2.81h0a1.65,1.65,0,0,0,.73-2.05l-4-10.58a3.08,3.08,0,0,0-2-1.88,2.93,2.93,0,0,0-.78-.1h-4.41a3.23,3.23,0,0,1-1.87-.6,3,3,0,0,1-.83-.88l-3.86-6a3.17,3.17,0,0,1-.47-2.22l1-6.25a4.32,4.32,0,0,0-.13-1.86,4.23,4.23,0,0,0-1-1.7l-6.8-6.87a1.32,1.32,0,0,0-1.46-.3h0l-.26.13-7.93,3.86h0A1.28,1.28,0,0,0,359,20l-.28.71a4.43,4.43,0,0,1-1.76-2l-3.84-8.75a2.32,2.32,0,0,0-.58-.81h0a2.45,2.45,0,0,0-2-.63l-5.19.65a1.85,1.85,0,0,0-.64.21h0l-8.06,3.94h0a1.81,1.81,0,0,0-.93,2.19l2.4,7.29-2.35-1.93a1.41,1.41,0,0,0-1.42-.22l-.2.09-8.07,4h0a1.38,1.38,0,0,0-.73,1L324,32.57a3.65,3.65,0,0,0,1,3.32l5.7,5.75a6.15,6.15,0,0,1,1.78,3.93ZM370,67.1a13.84,13.84,0,0,1-1.61,5.62,14.33,14.33,0,0,1-5.56-2.56c-7.58-5.38-13-17.28-12.17-26.48a14.91,14.91,0,0,1,1.52-5.55,13.86,13.86,0,0,1,5.66,2.49C365.42,46,370.84,57.85,370,67.1Z"/><path class="cls-4" d="M333,50.76a2.69,2.69,0,0,1-.06.69L327.65,54l-.15.08h-.05a2,2,0,0,0-.9,2.53l3.81,10.28a2.49,2.49,0,0,0,2.36,1.64h4.2a4.44,4.44,0,0,1,3.72,2l3.16,4.88a4.86,4.86,0,0,1,.74,3.36l-1,6.91a3.4,3.4,0,0,0,1.09,3.06l6.9,6.33a1.38,1.38,0,0,0,1.49.22h0l7.93-3.88h0a1.37,1.37,0,0,0,.82-.83l.2-.56a4.48,4.48,0,0,1,1.86,2l3.85,8.58a2.83,2.83,0,0,0,3,1.65l4.52-.56a1.71,1.71,0,0,0,.8-.33h0l7.81-3.8h0a1.71,1.71,0,0,0,1-1.52h0a1.75,1.75,0,0,0-.07-.51l-2.19-7.55,2.61,2.14a1.1,1.1,0,0,0,1.24.11h0l8-3.93h0a1.09,1.09,0,0,0,.63-.77l1.67-7.56a3.6,3.6,0,0,0-.07-1.87,3.68,3.68,0,0,0-.88-1.5l-5.91-6.14a4.12,4.12,0,0,1-.86-1.32,3.85,3.85,0,0,1-.28-1.11l-.66-6a2.48,2.48,0,0,1,.06-.77l5.76-2.81h0a1.65,1.65,0,0,0,.73-2.05l-4-10.58a3.08,3.08,0,0,0-2-1.88,2.93,2.93,0,0,0-.78-.1h-4.41a3.23,3.23,0,0,1-1.87-.6,3,3,0,0,1-.83-.88l-3.86-6a3.17,3.17,0,0,1-.47-2.22l1-6.25a4.32,4.32,0,0,0-.13-1.86,4.23,4.23,0,0,0-1-1.7l-6.8-6.87a1.32,1.32,0,0,0-1.46-.3h0l-.26.13-7.93,3.86h0A1.28,1.28,0,0,0,359,20l-.28.71a4.43,4.43,0,0,1-1.76-2l-3.84-8.75a2.32,2.32,0,0,0-.58-.81h0a2.45,2.45,0,0,0-2-.63l-5.19.65a1.85,1.85,0,0,0-.64.21h0l-8.06,3.94h0a1.81,1.81,0,0,0-.93,2.19l2.4,7.29-2.35-1.93a1.41,1.41,0,0,0-1.42-.22l-.2.09-8.07,4h0a1.38,1.38,0,0,0-.73,1L324,32.57a3.65,3.65,0,0,0,1,3.32l5.7,5.75a6.15,6.15,0,0,1,1.78,3.93ZM370,67.1a13.84,13.84,0,0,1-1.61,5.62,14.33,14.33,0,0,1-5.56-2.56c-7.58-5.38-13-17.28-12.17-26.48a14.91,14.91,0,0,1,1.52-5.55,13.86,13.86,0,0,1,5.66,2.49C365.42,46,370.84,57.85,370,67.1Z"/><path class="cls-35" d="M388.91,67.13a4.06,4.06,0,0,0,.86,1.33l5.91,6.13a3.72,3.72,0,0,1,.88,1.51l-8.07,4.16-8.73-8.87Z"/><path class="cls-35" d="M381.54,41.38a3.23,3.23,0,0,0,1.87.6h4.41a3.06,3.06,0,0,1,.79.1l-7.45,4.26h-7.58l-.17-1Z"/><path class="cls-35" d="M367.66,15.42l.26-.13h0a1.32,1.32,0,0,1,1.46.3l6.8,6.87a4.23,4.23,0,0,1,1,1.7h0l-8,4.41-6-5.95h0l-3.42-3.36Z"/><path class="cls-35" d="M344.78,9.34h0a1.85,1.85,0,0,1,.64-.21l5.19-.65a2.45,2.45,0,0,1,2,.63h0l-7.92,4.18h-8Z"/><path class="cls-68" d="M332.51,45.45l.37,5.23a2.13,2.13,0,0,1-1.56,2.21l-3.47.93a1.31,1.31,0,0,0-.28.09,2,2,0,0,0-1.13,2.66l3.81,10.28a2.5,2.5,0,0,0,2.36,1.64h4.2a4.44,4.44,0,0,1,3.72,2.05l3.16,4.88a4.84,4.84,0,0,1,.73,3.35l-1,6.91a3.43,3.43,0,0,0,1.08,3.07l6.9,6.33a1.49,1.49,0,0,0,.49.28,1.35,1.35,0,0,0,1.72-.85l1.79-5.11a1.69,1.69,0,0,1,.12-.28,2,2,0,0,1,2.74-.91l3.36,1.59A4.45,4.45,0,0,1,363.77,92l3.85,8.58a2.83,2.83,0,0,0,2.95,1.65l4.51-.56a1.31,1.31,0,0,0,.27-.06,1.73,1.73,0,0,0,1.18-2.14L374,90.61a3.46,3.46,0,0,1,.64-3.16l1.48-1.8h0a2.24,2.24,0,0,1,3.16-.3l5.81,4.78a1,1,0,0,0,.46.22,1.1,1.1,0,0,0,1.32-.83l1.66-7.57a3.71,3.71,0,0,0-.95-3.37l-5.9-6.08a4.1,4.1,0,0,1-1.15-2.43l-.65-6a2.09,2.09,0,0,1,1.48-2.24l4.09-1.23h.05a1.66,1.66,0,0,0,1-2.13l-3.88-10.61A3.07,3.07,0,0,0,379.7,46h-4.4a3.24,3.24,0,0,1-2.71-1.48l-3.86-6a3.16,3.16,0,0,1-.46-2.22l1-6.26a4.15,4.15,0,0,0-1.16-3.56l-6.78-6.88A1.38,1.38,0,0,0,359,20l-2.16,5.57v0a1.64,1.64,0,0,1-2.14.88L351.28,25a4.61,4.61,0,0,1-2.4-2.36l-3.83-8.76a2.43,2.43,0,0,0-2.56-1.44l-5.18.65a1.73,1.73,0,0,0-.31.07,1.82,1.82,0,0,0-1.18,2.28l2.67,8.09a4.2,4.2,0,0,1-1,4.22l-1.69,1.76a1.6,1.6,0,0,1-2.15.13l-5.92-4.87a1.56,1.56,0,0,0-.61-.29,1.42,1.42,0,0,0-1.68,1.11L324,32.57a3.65,3.65,0,0,0,1,3.32l5.7,5.75A6.2,6.2,0,0,1,332.51,45.45Zm10,2.2c.9-9.26,7.75-12.4,15.33-7S370.94,57.84,370,67.1s-7.75,12.41-15.33,7S341.64,56.91,342.54,47.65Z"/></g><g id="freepik--Character--inject-88"><path class="cls-69" d="M175.21,270.94a12,12,0,0,0-.08,1.72c0,7.15,3.69,15.53,9,21.46l.11,88.7a8,8,0,0,0-5.11,1.53h0L175.21,387l1.55.24a14.34,14.34,0,0,0-1.5,6.75c0,7.25,3.73,15.62,9.07,21.56l3.5,8.82,4.16-2.79L189,414l-4.39-11.07,4-5.83L195,400.5l1.5.81,4,10.41-.8,11.56,4.16-2.79h0c1.66-1.9,2.68-4.81,2.68-8.56,0-7.15-3.62-15.38-8.84-21.3l-.11-87.08,1.12-.76,3.3-2.18.42-.28c2.46-1.76,3.95-5.11,3.95-9.72,0-9.95-7-22-15.64-27-.36-.21-.73-.4-1.09-.58l-4.15,2.79,9.36,19L193,287.45l-7.84-4.24-7.35-19.14h0l-4.15,2.78Z"/><path class="cls-70" d="M171.18,396.73c0,10,7,22,15.63,27,.37.22.73.4,1.09.59l-7.41-18.57,4-5.85,7.82,4.25,7.35,19.14c1.66-1.91,2.68-4.81,2.68-8.56,0-7.14-3.62-15.38-8.84-21.31l-.11-88.86c5.22.1,8.8-4,8.8-11.15,0-9.95-7-22-15.65-27-.36-.21-.73-.4-1.08-.58l7.38,18.59-4,5.85L181,286l-7.35-19.15c-1.66,1.91-2.69,4.81-2.69,8.57,0,7.2,3.69,15.52,9,21.46l.11,88.7C174.8,385.42,171.14,389.53,171.18,396.73Z"/><path class="cls-71" d="M180.11,385.58v-1.87a7.52,7.52,0,0,0-1,.61h0l-3.91,2.61h0A8,8,0,0,1,180.11,385.58Z"/><path class="cls-37" d="M180.11,385.58v-1.87a7.52,7.52,0,0,0-1,.61h0l-3.91,2.61h0A8,8,0,0,1,180.11,385.58Z"/><polygon class="cls-72" points="184.37 415.51 187.87 424.33 192.03 421.54 189.04 414.01 184.65 402.94 186.15 400.77 184.53 399.89 180.49 405.74 184.37 415.51 184.37 415.51"/><path class="cls-35" d="M202.43,300.29c2.46-1.76,3.95-5.11,3.95-9.72,0-9.95-7-22-15.64-27-.36-.22-.73-.4-1.09-.58l-4.15,2.79h0c.35.18.72.37,1.08.58,8.63,5,15.65,17.06,15.65,27,0,4.37-1.34,7.6-3.58,9.43h.06l3.3-2.18Z"/><polygon class="cls-35" points="173.67 266.85 181.02 285.99 185.17 283.2 177.82 264.06 173.67 266.85"/><polygon class="cls-37" points="191.37 286.58 188.84 290.24 181.02 285.99 185.17 283.2 191.37 286.58"/><path class="cls-37" d="M193.54,393.39l4.16-2.78-.11-87.08h.07a8,8,0,0,1-4.23,1Z"/><path class="cls-35" d="M197.7,390.63l-4.16,2.78c5.22,5.93,8.84,14.15,8.84,21.31,0,3.75-1,6.65-2.68,8.56l4.16-2.79h0c1.66-1.9,2.68-4.81,2.68-8.56C206.53,404.78,202.92,396.55,197.7,390.63Z"/><polygon class="cls-37" points="186.15 400.77 184.53 399.89 180.49 405.74 184.65 402.94 186.15 400.77"/><polygon class="cls-35" points="184.65 402.94 180.49 405.74 187.87 424.33 192.03 421.54 184.65 402.94"/><path class="cls-8" d="M202.87,428.78A35.86,35.86,0,0,0,202,433c-.15,1.56.17,2.91,2.55,3.23s3.75-1.47,5.33-3.85,4-3.73,4.65-5c2.18-4.47-.41-7.06-1.91-6.9s-5.37,3.48-5.37,3.48Z"/><path class="cls-7" d="M202,434.07c.12,1.08.73,1.93,2.56,2.18,2.38.33,3.75-1.47,5.33-3.85s4-3.73,4.65-5a8.07,8.07,0,0,0,.8-2.58,9.85,9.85,0,0,1-.61,1.59c-.64,1.27-3.21,2.66-4.81,5.11s-3,4.3-5.5,4A2.76,2.76,0,0,1,202,434.07Z"/><path class="cls-73" d="M209,428.1a5.42,5.42,0,0,0-3.14-2.49l-.12,0a.39.39,0,0,1-.21-.5.39.39,0,0,1,.5-.2,6,6,0,0,1,3.64,2.85.39.39,0,0,1-.16.51.28.28,0,0,1-.18,0A.39.39,0,0,1,209,428.1Z"/><path class="cls-73" d="M210.43,426.72a5.34,5.34,0,0,0-3.13-2.48.37.37,0,0,1-.29-.45.39.39,0,0,1,.45-.28,6.08,6.08,0,0,1,3.64,2.85v0a.36.36,0,0,1-.16.49.41.41,0,0,1-.18.05A.4.4,0,0,1,210.43,426.72Z"/><path class="cls-73" d="M212.09,425.43A5.35,5.35,0,0,0,209,423l-.06,0a.38.38,0,0,1-.25-.47.39.39,0,0,1,.48-.25,6,6,0,0,1,3.63,2.85.38.38,0,0,1-.15.51.25.25,0,0,1-.17,0A.38.38,0,0,1,212.09,425.43Z"/><path class="cls-8" d="M219.42,437.84s-.41,1.53-.91,3.57c-.4,1.63-.57,3.11,1.64,4.42s4.3.11,6.85-1.6,5.52-2,6.64-3c4-3.5,2.49-7.13.94-7.59s-6.72,1.21-6.72,1.21Z"/><path class="cls-7" d="M218.53,442.65c-.33,1.16-.08,2.18,1.62,3.2,2.22,1.31,4.3.11,6.85-1.6s5.52-2,6.64-3a8.44,8.44,0,0,0,1.85-2.23,9.91,9.91,0,0,1-1.26,1.33c-1.16,1-4.25,1.3-6.85,3.07s-4.77,3-7.06,1.65A2.93,2.93,0,0,1,218.53,442.65Z"/><path class="cls-73" d="M228.69,439.31a5.78,5.78,0,0,0-2.1-3.76h0a.37.37,0,0,1-.08-.51.38.38,0,0,1,.53-.09,6.41,6.41,0,0,1,2.4,4.3h0a.38.38,0,0,1-.34.4h0A.39.39,0,0,1,228.69,439.31Z"/><path class="cls-73" d="M226.91,440.35a.39.39,0,0,1-.43-.35,5.73,5.73,0,0,0-2-3.75.38.38,0,0,1-.09-.53h0a.38.38,0,0,1,.52-.07,6.48,6.48,0,0,1,2.41,4.29.37.37,0,0,1-.34.41h0Z"/><path class="cls-73" d="M231.06,438.92a.38.38,0,0,1-.41-.34,5.71,5.71,0,0,0-2.1-3.75.39.39,0,0,1-.09-.52h0a.37.37,0,0,1,.52-.09,6.49,6.49,0,0,1,2.42,4.29.39.39,0,0,1-.34.41h0Z"/><path class="cls-74" d="M197,339.13a110.07,110.07,0,0,1-9.19,7.36c-3.12,1.95-7.66-7.05-8.8-9.29s-2.17-2.94-2.17-6.8,3.07-7.68,3.07-7.68v7.42l7.15,7.06,4.09-4.3Z"/><path class="cls-75" d="M203.48,334.62,196,341a8.19,8.19,0,0,1-6.13-7.85s5.36-6,8.55-9.71,5.75-3.73,5.75-3.73Z"/><path d="M203.48,334.62,196,341a8.19,8.19,0,0,1-6.13-7.85s5.36-6,8.55-9.71,5.75-3.73,5.75-3.73Z"/><path class="cls-9" d="M208.34,425s2.91-23.29,3.68-31,2.52-31,2.52-31l-14.36-3.06c-.56,3.65.11,20.23,1.13,30.45a11.61,11.61,0,0,1-.17,3.38,48.69,48.69,0,0,0-.41,14.31c.42,3.76,1.44,11.83,1.9,16.94A5.19,5.19,0,0,0,208.34,425Z"/><path class="cls-74" d="M207.84,429.36l.51-4.32a5.19,5.19,0,0,1-5.72-.06c.15,1.64.24,3,.24,3.8a2.7,2.7,0,0,0,1.82,1.47A3.7,3.7,0,0,0,207.84,429.36Z"/><path class="cls-9" d="M225.88,433.78h0l3.68-34.18a9.58,9.58,0,0,0,.05-1.42l-1.14-36.68-17.37.26,6.3,35a12,12,0,0,1,0,4.22,37.94,37.94,0,0,0-.49,7.82c.15,2.36,1.28,17.43,1.86,25.2C222.24,436.8,225.88,433.78,225.88,433.78Z"/><path class="cls-74" d="M225.22,438.89l.55-5.11h0s-3.58,3-7.05.22l.36,4.63a3.27,3.27,0,0,0,2.55,1.79C224.46,440.68,225.22,438.89,225.22,438.89Z"/><path class="cls-76" d="M208,320.06l-3.78-.31c-4.25,2.7-4,7.15-4,12.58s1.13,16.44,1.13,16.44l-1.11,11.11c1.7,2.77,6.19,5.36,13.09,5.36,12.27,0,15.42-2.5,15.42-2.5l.21-18.47-4.4-20.79-4.09-1.4Z"/><path d="M208,320.06l-3.78-.31c-4.25,2.7-4,7.15-4,12.58s1.13,16.44,1.13,16.44l-1.11,11.11c1.7,2.77,6.19,5.36,13.09,5.36,12.27,0,15.42-2.5,15.42-2.5l.21-18.47-4.4-20.79-4.09-1.4Z"/><path class="cls-77" d="M224.2,309.73l2.43-.81.07,0a.47.47,0,0,0,.2-.62l-2.05-4.08Z"/><path class="cls-74" d="M211.4,297.38v18.49s7.92,1,10.61,1.19,3.07-3.15,3.07-8.44c0-9.57-3.07-11.24-3.07-11.24Z"/><path class="cls-77" d="M222.47,317.06a21.58,21.58,0,0,1-4.7-1.42v1c1.68.2,3.27.37,4.24.44A1.75,1.75,0,0,0,222.47,317.06Z"/><polygon class="cls-74" points="210 312.83 210 321.31 218.24 321.31 218.24 315.27 210 312.83"/><path class="cls-78" d="M220.39,322a18.48,18.48,0,0,1-7.62,1.08,6.07,6.07,0,0,1-4.82-3.06c1.27-2.33,2-2.28,2-2.28s.52,1.45,2.91,1.87a12.74,12.74,0,0,0,5.34-.64C219.25,318.72,220.39,322,220.39,322Z"/><path d="M220.39,322a18.48,18.48,0,0,1-7.62,1.08,6.07,6.07,0,0,1-4.82-3.06c1.27-2.33,2-2.28,2-2.28s.52,1.45,2.91,1.87a12.74,12.74,0,0,0,5.34-.64C219.25,318.72,220.39,322,220.39,322Z"/><path class="cls-8" d="M244.43,359.53a1.39,1.39,0,0,1-1.47.07l-14.84-8.18a.92.92,0,0,1-.33-.32.94.94,0,0,1,.33-1.29l18-11.31a1.2,1.2,0,0,1,1.24,0L261.77,347a.65.65,0,0,1,.17.16.53.53,0,0,1-.17.71l-3.28,2Z"/><path class="cls-2" d="M244.43,358.75a1.37,1.37,0,0,1-1.47.08l-14.84-8.17a.87.87,0,0,1-.33-.33.94.94,0,0,1,.33-1.29l18-11.32a1.2,1.2,0,0,1,1.24,0l14.43,8.46a.55.55,0,0,1,.17.17.52.52,0,0,1-.17.7l-3.28,2Z"/><polygon class="cls-2" points="259.73 346.56 262.01 346.56 262.01 345.22 259.73 346.56"/><path class="cls-5" d="M244.43,357.45a1.37,1.37,0,0,1-1.47.08l-14.84-8.18a.87.87,0,0,1-.33-.33.94.94,0,0,1,.33-1.29l18-11.32a1.2,1.2,0,0,1,1.24,0l14.43,8.46a.55.55,0,0,1,.17.17.5.5,0,0,1-.17.69l-3.28,2.1Z"/><path class="cls-79" d="M255.86,345.29,246,339.55a.39.39,0,0,1-.13-.52.37.37,0,0,1,.51-.14l9.84,5.78h0a.36.36,0,0,1,.1.5.33.33,0,0,1-.32.18A.34.34,0,0,1,255.86,345.29Z"/><path class="cls-80" d="M253.45,346.89l-9.84-5.78a.36.36,0,0,1-.13-.51v0a.37.37,0,0,1,.5-.1l9.84,5.76,0,0a.36.36,0,0,1,.11.5.37.37,0,0,1-.32.19A.59.59,0,0,1,253.45,346.89Z"/><path class="cls-81" d="M251.08,348.45l-9.84-5.77a.38.38,0,0,1-.13-.52v0a.36.36,0,0,1,.5-.11l9.84,5.77h0a.38.38,0,0,1,.13.52.39.39,0,0,1-.33.18A.41.41,0,0,1,251.08,348.45Z"/><path class="cls-82" d="M248.63,350l-9.84-5.76a.39.39,0,0,1-.14-.52.37.37,0,0,1,.51-.13l9.85,5.77a.38.38,0,0,1,.13.51.35.35,0,0,1-.33.18A.24.24,0,0,1,248.63,350Z"/><path class="cls-83" d="M246.22,351.59l-9.85-5.78h0a.38.38,0,0,1-.12-.51l0,0a.35.35,0,0,1,.49-.1l9.84,5.76a.39.39,0,0,1,.19.34.38.38,0,0,1-.38.37A.35.35,0,0,1,246.22,351.59Z"/><path class="cls-74" d="M224.51,341.85s2.26,9.93,3.49,12,15,3.27,21,3.27,8.63-2,9.53-3.43,0-3.83,0-3.83a38.24,38.24,0,0,1-3.4,2.23,4.88,4.88,0,0,1-2.56.34c1.17-2.52.47-4.15,0-4.64s-1,1-1.56,2a24.69,24.69,0,0,1-1.86,2.57,42.8,42.8,0,0,1-7.07-1.69c-3.78-1.23-7.16-2.25-7.16-2.25l-2.12-7.39Z"/><path class="cls-84" d="M226.82,324.34a6.16,6.16,0,0,1,3.69,4.09l3.53,13c-3.51,3.76-9.54,3.76-9.54,3.76s-3.22-8.1-3.59-14.1,3.59-7.61,3.59-7.61C225.41,323.83,226.17,324.07,226.82,324.34Z"/><path d="M226.82,324.34a6.16,6.16,0,0,1,3.69,4.09l3.53,13c-3.51,3.76-9.54,3.76-9.54,3.76s-3.22-8.1-3.59-14.1,3.59-7.61,3.59-7.61C225.41,323.83,226.17,324.07,226.82,324.34Z"/><path class="cls-7" d="M221.36,289.07c-1.38,0-3.42,2.65-3.42,2.65-2.28-1.59-6.32-.43-8.24.87a8.16,8.16,0,0,0-2.73,3.26c-1.9.44-3.28,2.55-3.28,6.13s3.52,8.08,4.2,9a38.36,38.36,0,0,1,2.12,3.88,8,8,0,0,0,7.53-4.4l-1-2.84H219c2.6-.05,1.21-3.75,1.21-3.75,2.75-.75,2.4-2.88,2.4-2.88a2.12,2.12,0,0,0,.87,0,2,2,0,0,0,1.66-2.36c3.13-.62,1-2.6,1-2.6s1.67-1.08,1.15-2.48c-.83-2.25-4.09-1.82-4.09-1.82C223.2,290.48,222.74,289.07,221.36,289.07Z"/><path class="cls-74" d="M217.52,310.42c-3.88,0-4.62-6.59-1.46-6.59s2.92,3.75,2.92,3.75Z"/></g></svg>