<svg xmlns="http://www.w3.org/2000/svg" viewBox="0 0 270.88 329.44"><g id="Layer_2" data-name="Layer 2"><g id="Layer_1-2" data-name="Layer 1"><path d="M118.6,225a8.3,8.3,0,0,1-6.74-3.37l-12.8-15.5c1.35,23.58,8.08,45.81,15.5,64.68l6.06-43.8Z"/><path d="M152.28,225l-2,2,6.06,43.79a233.48,233.48,0,0,0,15.5-64.68L159,221.65c-1.35,2.69-4,3.37-6.74,3.37Z"/><path d="M70.76,230.41H47.86L62,198.74,38.43,207.5s-26.28,6.73-31.67,30.31C3.39,252.64,1.37,285,0,307.2c-.68,12.13,11.45,22.24,26.27,22.24H130.05l-64-90.95Z"/><path d="M263.44,237.14c-5.39-23.58-31.66-30.31-31.66-30.31l-22.91-8.76L223,229.73H200.11l4.72,8.76L141.5,329.44H244.58c14.82,0,26.95-10.11,26.27-22.23-1.34-22.23-4-55.24-7.41-70.07Z"/><path d="M146.89,179.88c-3.37,1.34-7.41,1.34-11.45,1.34A59.55,59.55,0,0,1,124,179.88L135.44,188Z"/><path d="M142.85,225l2.69-2.7-.67-.67-9.43-14.15L126,221.65l-.68.67L128,225,119.94,283c6.06,12.8,11.45,23.58,16.17,30.32,4-6.74,10.11-17.52,16.17-30.32Z"/><path d="M92.32,186.61l24.93,31c.67,1.35,2.69.68,3.37,0l14.82-21.55L99.73,171.12Z"/><path d="M171.14,171.12l-35.7,24.93,14.82,21.56a1.92,1.92,0,0,0,3.37,0l24.93-31Z"/><path d="M188.66,223.67h23.58l-12.8-28.3L185.29,190l-6.74,8.76c-.67,60-33,112.51-41.09,125.31l59.28-84.21Z"/><path d="M85.58,189.31,71.44,194.7,58.64,223H82.22l-8.09,14.83L133.42,322C125.33,309.9,93,257.35,92.32,196.72Z"/><path d="M70.09,115.88c2,7.41,7.41,12.12,11.45,10.78a2.33,2.33,0,0,0,1.35-.68c10.1,25.6,29.64,48.51,52.55,48.51s42.44-22.23,51.87-48.51a2.07,2.07,0,0,0,1.35.68c4.71,1.34,9.43-3.37,11.45-10.78,2-6.74,0-12.8-3.37-14.83,10.11-31.66-.68-49.18-8.76-57.93,4-8.09,5.39-18.19,2.7-29.65,0,0-4,9.43-13.48,10.11,0,0,10.11-11.45-1.34-23.58,0,0-4,22.9-32.34,20.21,0,0-41.1-14.82-53.22,16.17,0,0-33,16.84-18.19,65.35-2.69,1.35-4,8.08-2,14.15Z"/></g></g></svg>