<svg id="Layer_1" data-name="Layer 1" xmlns="http://www.w3.org/2000/svg" viewBox="0 0 50 50"><path d="M.22,34.9H5.45V21.14H.22Zm47,8a2.42,2.42,0,0,0-2.14-1H30.66a4.72,4.72,0,0,1-3.15-1.08c-2-1.7-3.93-3.44-5.88-5.17a1.19,1.19,0,0,1-.25-1.73,1.16,1.16,0,0,1,1.78,0c.67.58,1.32,1.17,2,1.76,1.25,1.1,2.46,2.26,3.77,3.29A2.59,2.59,0,0,0,33,38.06,2.65,2.65,0,0,0,32.28,35Q26.57,29.3,20.84,23.57a8.19,8.19,0,0,0-6.05-2.48H8.34l-.52,0V34.93a7,7,0,0,1,4.42,1.62c4,2.87,8.09,5.7,12.12,8.58a6.94,6.94,0,0,0,4.2,1.32c5.43,0,10.86,0,16.3,0,.23,0,.46,0,.69,0a2.3,2.3,0,0,0,1.7-3.58M18.84,32.61A1.15,1.15,0,1,1,20,31.48a1.18,1.18,0,0,1-1.15,1.13"/><path d="M41.71,15.78a8.07,8.07,0,1,0,8.07,8.06,8.09,8.09,0,0,0-8.07-8.06m.51,13.8a2.74,2.74,0,0,1-.64,0,1.13,1.13,0,0,1-.06-2.24c.31-.07.64-.07,1-.14a3.44,3.44,0,0,0,0-6.72c-.26-.05-.53-.06-.79-.1a1.18,1.18,0,0,1-1.07-1.22,1.11,1.11,0,0,1,1.21-1.05,8,8,0,0,1,2.18.46,5.77,5.77,0,0,1,3.51,5.29,5.84,5.84,0,0,1-5.26,5.72"/><path d="M25.77,3.55a8.07,8.07,0,1,0,8.06,8.06,8.08,8.08,0,0,0-8.06-8.06m.47,13.8a2.29,2.29,0,0,1-.9-.09,1.05,1.05,0,0,1-.7-1.14,1.15,1.15,0,0,1,1-1,7.89,7.89,0,0,0,1.56-.37,3.36,3.36,0,0,0,2-3.49,3.41,3.41,0,0,0-2.78-3c-.24-.05-.49-.06-.74-.1a1.16,1.16,0,0,1-1-1.17,1.1,1.1,0,0,1,1.18-1.09A7.69,7.69,0,0,1,28,6.33a5.76,5.76,0,0,1,3.54,5.27,5.82,5.82,0,0,1-5.29,5.75"/></svg>