<svg id="Layer_1" data-name="Layer 1" xmlns="http://www.w3.org/2000/svg" viewBox="0 0 50 50"><path d="M49.49,17.83v6.22s-.05,0-.05.07A3.58,3.58,0,0,1,45.57,27h-19V16.94H23.46V27l-.32,0c-6.35,0-12.69,0-19,0A3.53,3.53,0,0,1,.51,23.36c0-1.54,0-3.09,0-4.64a3.61,3.61,0,0,1,3.92-3.93H11.9l.49,0c-.46-.3-.93-.52-1.39-.76A13.24,13.24,0,0,1,5.6,9.27a5.86,5.86,0,0,1-.93-4.15A5.35,5.35,0,0,1,8.38,1,11.9,11.9,0,0,1,12.57.5a11.51,11.51,0,0,1,7.15,2.43,16.78,16.78,0,0,1,5.06,6.55c.07.13.13.26.18.37.64-1.11,1.2-2.2,1.87-3.22A13.55,13.55,0,0,1,34.25.92a12.83,12.83,0,0,1,4.36-.4,10.61,10.61,0,0,1,2.45.31,5.39,5.39,0,0,1,4.19,3.9,6,6,0,0,1-1.12,5,13.64,13.64,0,0,1-5.28,4.39l-1.25.61,0,.09h8.12a3.59,3.59,0,0,1,3.68,2.87,1.22,1.22,0,0,0,.07.17M23.11,13.88a17.87,17.87,0,0,0-3.34-6.76A9.68,9.68,0,0,0,11.7,3.49a6.39,6.39,0,0,0-2.81.64A2,2,0,0,0,7.8,6.73,7.08,7.08,0,0,0,8.87,8.62a9.72,9.72,0,0,0,3,2.43,21.35,21.35,0,0,0,7.27,2.37c1.28.2,2.56.3,3.93.46m3.77,0c.91-.08,1.73-.13,2.55-.23a23.79,23.79,0,0,0,8-2.21,10.22,10.22,0,0,0,4.35-3.62c1.19-1.94.6-3.46-1.6-4a9.15,9.15,0,0,0-6.6.72c-3.8,1.94-5.45,5.45-6.67,9.36"/><path d="M7.59,49.5l-.49-.16a3.51,3.51,0,0,1-2.49-3.28c0-5.21,0-10.42,0-15.63a1.65,1.65,0,0,1,0-.3H23.47V49.5Z"/><path d="M26.53,49.5V30.13H45.4v.58c0,4.94,0,9.88,0,14.82a3.59,3.59,0,0,1-2.91,3.92s-.05,0-.08,0Z"/></svg>