<svg id="Layer_1" data-name="Layer 1" xmlns="http://www.w3.org/2000/svg" xmlns:xlink="http://www.w3.org/1999/xlink" viewBox="0 0 478 478"><defs><style>.cls-1{fill:none;}.cls-2{clip-path:url(#clip-path);}.cls-3{fill:url(#linear-gradient);}.cls-4{clip-path:url(#clip-path-2);}.cls-5{fill:url(#linear-gradient-2);}.cls-6{fill:#f5f5f5;}.cls-7{fill:#e6e6e6;}.cls-8{fill:#e0e0e0;}.cls-9{fill:#f0f0f0;}.cls-10,.cls-19,.cls-38,.cls-94{isolation:isolate;}.cls-10{opacity:0.2;}.cls-11{clip-path:url(#clip-path-3);}.cls-12{clip-path:url(#clip-path-4);}.cls-13{clip-path:url(#clip-path-5);}.cls-14{clip-path:url(#clip-path-6);}.cls-15{fill:#ebebeb;}.cls-16{fill:#fafafa;}.cls-17{fill:#fff;}.cls-18{fill:#cacaca;}.cls-19{opacity:0.1;}.cls-20{clip-path:url(#clip-path-7);}.cls-21{clip-path:url(#clip-path-8);}.cls-22{clip-path:url(#clip-path-9);}.cls-23{opacity:0.15;}.cls-24{clip-path:url(#clip-path-10);}.cls-25{clip-path:url(#clip-path-11);}.cls-26{fill:url(#linear-gradient-3);}.cls-27{clip-path:url(#clip-path-12);}.cls-28{clip-path:url(#clip-path-14);}.cls-29{fill:url(#linear-gradient-4);}.cls-30{clip-path:url(#clip-path-15);}.cls-31{clip-path:url(#clip-path-17);}.cls-32{fill:url(#linear-gradient-5);}.cls-33{clip-path:url(#clip-path-18);}.cls-34{clip-path:url(#clip-path-19);}.cls-35{fill:url(#linear-gradient-6);}.cls-36{clip-path:url(#clip-path-20);}.cls-37{fill:url(#linear-gradient-7);}.cls-38{opacity:0.4;}.cls-39{clip-path:url(#clip-path-21);}.cls-40{clip-path:url(#clip-path-22);}.cls-41{clip-path:url(#clip-path-23);}.cls-42{fill:url(#linear-gradient-8);}.cls-43{clip-path:url(#clip-path-24);}.cls-44{fill:url(#linear-gradient-9);}.cls-45{clip-path:url(#clip-path-25);}.cls-46{fill:url(#linear-gradient-10);}.cls-47{clip-path:url(#clip-path-26);}.cls-48{clip-path:url(#clip-path-27);}.cls-49{clip-path:url(#clip-path-28);}.cls-50{fill:url(#linear-gradient-11);}.cls-51{clip-path:url(#clip-path-29);}.cls-52{fill:url(#linear-gradient-12);}.cls-53{clip-path:url(#clip-path-30);}.cls-54{fill:url(#linear-gradient-13);}.cls-55{clip-path:url(#clip-path-31);}.cls-56{fill:url(#linear-gradient-14);}.cls-57{clip-path:url(#clip-path-32);}.cls-58{fill:url(#linear-gradient-15);}.cls-59{clip-path:url(#clip-path-33);}.cls-60{fill:url(#linear-gradient-16);}.cls-61{clip-path:url(#clip-path-34);}.cls-62{fill:url(#linear-gradient-17);}.cls-63{clip-path:url(#clip-path-35);}.cls-64{fill:url(#linear-gradient-18);}.cls-65{clip-path:url(#clip-path-36);}.cls-66{fill:url(#linear-gradient-19);}.cls-67{clip-path:url(#clip-path-37);}.cls-68{fill:url(#linear-gradient-20);}.cls-69{clip-path:url(#clip-path-38);}.cls-70{fill:url(#linear-gradient-21);}.cls-71{opacity:0.6;}.cls-72{clip-path:url(#clip-path-39);}.cls-73{clip-path:url(#clip-path-40);}.cls-74{fill:url(#linear-gradient-22);}.cls-75{clip-path:url(#clip-path-41);}.cls-76{clip-path:url(#clip-path-43);}.cls-77{clip-path:url(#clip-path-44);}.cls-78{fill:url(#linear-gradient-23);}.cls-79{clip-path:url(#clip-path-45);}.cls-80{fill:url(#linear-gradient-24);}.cls-81{clip-path:url(#clip-path-46);}.cls-82{clip-path:url(#clip-path-47);}.cls-83{fill:#455a64;}.cls-84{clip-path:url(#clip-path-48);}.cls-85{fill:url(#linear-gradient-25);}.cls-86{fill:#ad5755;}.cls-87{fill:#c77371;}.cls-88{fill:#37474f;}.cls-89{clip-path:url(#clip-path-49);}.cls-90{clip-path:url(#clip-path-50);}.cls-91{fill:url(#linear-gradient-26);}.cls-92{clip-path:url(#clip-path-51);}.cls-93{fill:url(#linear-gradient-27);}.cls-94{opacity:0.3;}.cls-95{clip-path:url(#clip-path-52);}.cls-96{clip-path:url(#clip-path-53);}.cls-97{fill:url(#linear-gradient-28);}.cls-98{clip-path:url(#clip-path-54);}.cls-99{fill:#263238;}.cls-100{clip-path:url(#clip-path-55);}.cls-101{clip-path:url(#clip-path-56);}.cls-102{clip-path:url(#clip-path-57);}.cls-103{clip-path:url(#clip-path-58);}.cls-104{clip-path:url(#clip-path-59);}.cls-105{clip-path:url(#clip-path-60);}.cls-106{fill:url(#linear-gradient-29);}.cls-107{clip-path:url(#clip-path-61);}.cls-108{clip-path:url(#clip-path-62);}</style><clipPath id="clip-path"><path class="cls-1" d="M339.06,277.73l59.05-59.06Z"/></clipPath><linearGradient id="linear-gradient" x1="-3318.7" y1="12714.48" x2="-3317.68" y2="12714.48" gradientTransform="matrix(57.77, 0, 0, -57.77, 192067.05, 734788.81)" gradientUnits="userSpaceOnUse"><stop offset="0" stop-color="#00ffaf"/><stop offset="0.06" stop-color="#00edad"/><stop offset="0.32" stop-color="#00a6a7"/><stop offset="0.55" stop-color="#006ea2"/><stop offset="0.75" stop-color="#00469f"/><stop offset="0.91" stop-color="#002d9d"/><stop offset="1" stop-color="#00249c"/></linearGradient><clipPath id="clip-path-2"><polygon class="cls-1" points="338.33 277.01 339.78 278.45 398.83 219.39 397.39 217.95 338.33 277.01"/></clipPath><linearGradient id="linear-gradient-2" x1="-3319.59" y1="12714.12" x2="-3318.57" y2="12714.12" gradientTransform="matrix(59.19, 0, 0, -59.19, 196811.73, 752745.92)" xlink:href="#linear-gradient"/><clipPath id="clip-path-3"><rect class="cls-1" x="116.45" y="85.81" width="4.6" height="6.34"/></clipPath><clipPath id="clip-path-4"><rect class="cls-1" x="113.23" y="88.47" width="3.23" height="3.68"/></clipPath><clipPath id="clip-path-5"><rect class="cls-1" x="116.45" y="49.22" width="4.6" height="6.34"/></clipPath><clipPath id="clip-path-6"><rect class="cls-1" x="113.23" y="51.87" width="3.23" height="3.68"/></clipPath><clipPath id="clip-path-7"><rect class="cls-1" x="104.89" y="178.44" width="137.96" height="160.3"/></clipPath><clipPath id="clip-path-8"><rect class="cls-1" x="50.47" y="226.38" width="54.42" height="112.35"/></clipPath><clipPath id="clip-path-9"><rect class="cls-1" x="48.52" y="220.25" width="55.11" height="39.97"/></clipPath><clipPath id="clip-path-10"><rect class="cls-1" x="51.17" y="333.93" width="28.67" height="16.66"/></clipPath><clipPath id="clip-path-11"><path class="cls-1" d="M46.83,286.72l13.41,5.66-10.57-.79L53,301.43l12.68,6.42-10.88-1.38C61,331,68.08,328.85,70.44,324.87c9.33-19.72,9-47.42-32.44-61a198.46,198.46,0,0,1,8.83,22.82"/></clipPath><linearGradient id="linear-gradient-3" x1="-3414.77" y1="12723.09" x2="-3413.74" y2="12723.09" gradientTransform="translate(-124798.81 465566.68) rotate(180) scale(36.57)" xlink:href="#linear-gradient"/><clipPath id="clip-path-12"><rect class="cls-1" x="35.3" y="263.9" width="37.39" height="63.38"/></clipPath><clipPath id="clip-path-14"><path class="cls-1" d="M67.78,343.42c1.52,4.09,7.79,7.29,17.65-14.52l-10.35-.52,12.85-3.84,4.71-8.62-10-1,13.42-3.07a189.09,189.09,0,0,1,12-19.8c-40.81,5.74-45.75,31.47-40.33,51.39"/></clipPath><linearGradient id="linear-gradient-4" x1="-3408.14" y1="12720.4" x2="-3407.12" y2="12720.4" gradientTransform="translate(-140398.31 524741.23) rotate(180) scale(41.23)" xlink:href="#linear-gradient"/><clipPath id="clip-path-15"><rect class="cls-1" x="63.26" y="292.01" width="42.15" height="54.39"/></clipPath><clipPath id="clip-path-17"><path class="cls-1" d="M39.12,318.2l12.44,1.23-8.94,2,5.21,7.24,12,2.05-9.28,1.61c11.32,18.56,16.62,15,17.53,11.11,2.66-18.55-4.68-41.2-42.11-41.8A168.41,168.41,0,0,1,39.12,318.2"/></clipPath><linearGradient id="linear-gradient-5" x1="-3407.57" y1="12720.18" x2="-3406.55" y2="12720.18" gradientTransform="translate(-141923.45 530371.11) rotate(180) scale(41.67)" xlink:href="#linear-gradient"/><clipPath id="clip-path-18"><rect class="cls-1" x="23.3" y="301.62" width="42.6" height="44.98"/></clipPath><clipPath id="clip-path-19"><path class="cls-1" d="M155.15,124.67a2.2,2.2,0,0,1,2.2-2.18,2.12,2.12,0,0,1,1.07.29l43.37,24.9a6.57,6.57,0,0,1,2.56,2.74l6.48-3.76a6.35,6.35,0,0,0-2.43-2.42L165,119.36a5,5,0,0,0-2.43-.55c-3.25,0-7.46,2.19-7.46,5.86"/></clipPath><linearGradient id="linear-gradient-6" x1="-3395.51" y1="12715.43" x2="-3394.48" y2="12715.43" gradientTransform="translate(-184742.44 692744.32) rotate(180) scale(54.47)" xlink:href="#linear-gradient"/><clipPath id="clip-path-20"><path class="cls-1" d="M204.35,150.4c.44.9.73,12.63.73,13.67v35.27a2.17,2.17,0,0,1-3.26,1.89,6.45,6.45,0,0,0,8.89-2.06,6.37,6.37,0,0,0,1-3.26v-46a6.44,6.44,0,0,0-.85-3.2Z"/></clipPath><linearGradient id="linear-gradient-7" x1="-3579" y1="12789.3" x2="-3577.98" y2="12789.3" gradientTransform="translate(-34325.66 123591.61) rotate(180) scale(9.65)" xlink:href="#linear-gradient"/><clipPath id="clip-path-21"><rect class="cls-1" x="152.44" y="118.84" width="55.68" height="31.59"/></clipPath><clipPath id="clip-path-22"><rect class="cls-1" x="199.11" y="146.74" width="9.87" height="55.51"/></clipPath><clipPath id="clip-path-23"><path class="cls-1" d="M155.16,124.67v46.1a6.53,6.53,0,0,0,3.3,5.67l43.36,24.8a2.17,2.17,0,0,0,3.26-1.89V187.81l10.73,11.67.68.75-5.4,2.36c-.92.4-.66,2.29.49,3.47L235.88,231l-17.8-22.31,6.74-1.43.64-.15a.87.87,0,0,0,.36-.18c.56-.52.43-2-.47-3.07l-20.27-25.29v-25.2a6.53,6.53,0,0,0-3.29-5.66l-43.35-24.91a2.19,2.19,0,0,0-1.08-.29h0a2.18,2.18,0,0,0-2.19,2.18"/></clipPath><linearGradient id="linear-gradient-8" x1="-3383.26" y1="12688.52" x2="-3382.24" y2="12688.52" gradientTransform="matrix(-78.96, 0, 0, 78.96, -266906.44, -1001709.06)" xlink:href="#linear-gradient"/><clipPath id="clip-path-24"><path class="cls-1" d="M205.08,178.53l20.25,25.3c.9,1.12,1,2.55.46,3.06a.7.7,0,0,1-.36.19l-.64.14L218,208.65,235.85,231l6.61-3.78-16.35-20.49,6.29-3.57c.57-.52.43-2-.46-3.06l-20.26-25.3Z"/></clipPath><linearGradient id="linear-gradient-9" x1="-3414.86" y1="12723.19" x2="-3413.84" y2="12723.19" gradientTransform="translate(-124639.12 465490.1) rotate(180) scale(36.57)" xlink:href="#linear-gradient"/><clipPath id="clip-path-25"><polygon class="cls-1" points="211.07 202.58 216.47 200.22 215.78 199.47 211.07 202.58"/></clipPath><linearGradient id="linear-gradient-10" x1="-3763.59" y1="12863.6" x2="-3762.57" y2="12863.6" gradientTransform="translate(-19655.28 68120.84) rotate(180) scale(5.28)" xlink:href="#linear-gradient"/><clipPath id="clip-path-26"><rect class="cls-1" x="202.37" y="174.76" width="37.39" height="56.23"/></clipPath><clipPath id="clip-path-27"><rect class="cls-1" x="208.36" y="199.5" width="5.4" height="3.07"/></clipPath><clipPath id="clip-path-28"><path class="cls-1" d="M182,99.9v9.59a4,4,0,0,0,1.8,3.13c1,.58,1.82.11,1.82-1V102a4,4,0,0,0-1.8-3.14,1.7,1.7,0,0,0-.83-.25c-.59,0-1,.46-1,1.27"/></clipPath><linearGradient id="linear-gradient-11" x1="-3962.03" y1="12944.12" x2="-3961.01" y2="12944.12" gradientTransform="translate(-13879.56 46057.37) rotate(180) scale(3.55)" xlink:href="#linear-gradient"/><clipPath id="clip-path-29"><path class="cls-1" d="M206.62,120.63l-4.2,5.89c-.5.71-.2,2.16.66,3.23a3.32,3.32,0,0,0,.91.8,1.12,1.12,0,0,0,1.57-.14l4.19-5.88c.5-.71.22-2.15-.65-3.23a3,3,0,0,0-.91-.8,1.58,1.58,0,0,0-.81-.25.88.88,0,0,0-.76.38"/></clipPath><linearGradient id="linear-gradient-12" x1="-3637.32" y1="12812.98" x2="-3636.3" y2="12812.98" gradientTransform="translate(-27613.04 98136.14) rotate(180) scale(7.65)" xlink:href="#linear-gradient"/><clipPath id="clip-path-30"><path class="cls-1" d="M225.1,151.12l-7.23.62c-.87.07-1.17,1.18-.68,2.46a4,4,0,0,0,1.58,2,1.58,1.58,0,0,0,.9.23l7.23-.61c.88-.08,1.18-1.18.68-2.47a4,4,0,0,0-1.56-1.95,1.74,1.74,0,0,0-.88-.24h0"/></clipPath><linearGradient id="linear-gradient-13" x1="-3558.54" y1="12781.13" x2="-3557.51" y2="12781.13" gradientTransform="translate(-37588.32 135977.38) rotate(180) scale(10.63)" xlink:href="#linear-gradient"/><clipPath id="clip-path-31"><path class="cls-1" d="M222.32,179.37a4,4,0,0,0,1.8,3.13l8.39,4.88c1,.57,1.81.1,1.82-1a4,4,0,0,0-1.81-3.13l-8.37-4.88a1.7,1.7,0,0,0-.83-.25c-.6,0-1,.47-1,1.27"/></clipPath><linearGradient id="linear-gradient-14" x1="-3539.19" y1="12773.26" x2="-3538.17" y2="12773.26" gradientTransform="translate(-41351.13 150268.85) rotate(180) scale(11.75)" xlink:href="#linear-gradient"/><clipPath id="clip-path-32"><path class="cls-1" d="M202.86,206.73c-.87.08-1.16,1.19-.67,2.47l4.15,10.71a3.87,3.87,0,0,0,1.56,1.94,1.62,1.62,0,0,0,.91.24c.87-.07,1.17-1.17.68-2.46l-4.15-10.7a4,4,0,0,0-1.58-2,1.57,1.57,0,0,0-.84-.24h-.06"/></clipPath><linearGradient id="linear-gradient-15" x1="-3639.06" y1="12813.43" x2="-3638.03" y2="12813.43" gradientTransform="translate(-27456.06 97628.05) rotate(180) scale(7.6)" xlink:href="#linear-gradient"/><clipPath id="clip-path-33"><path class="cls-1" d="M181.68,202.58v9.58a4,4,0,0,0,1.81,3.14c1,.57,1.82.1,1.82-1v-9.58a4,4,0,0,0-1.81-3.13,1.63,1.63,0,0,0-.83-.26c-.59,0-1,.47-1,1.28"/></clipPath><linearGradient id="linear-gradient-16" x1="-3962.03" y1="12943.49" x2="-3961.01" y2="12943.49" gradientTransform="translate(-13879.84 46157.8) rotate(180) scale(3.55)" xlink:href="#linear-gradient"/><clipPath id="clip-path-34"><path class="cls-1" d="M161.68,183.76l-4.19,5.89c-.5.7-.2,2.15.66,3.23a3.13,3.13,0,0,0,.91.79,1.11,1.11,0,0,0,1.57-.13l4.19-5.89c.5-.7.22-2.15-.65-3.23a3.43,3.43,0,0,0-.9-.8,1.75,1.75,0,0,0-.83-.25.9.9,0,0,0-.76.39"/></clipPath><linearGradient id="linear-gradient-17" x1="-3637.2" y1="12812.8" x2="-3636.17" y2="12812.8" gradientTransform="translate(-27656.99 98197.89) rotate(180) scale(7.65)" xlink:href="#linear-gradient"/><clipPath id="clip-path-35"><path class="cls-1" d="M147.58,157.78l-7.24.61c-.87.09-1.17,1.19-.67,2.48a3.85,3.85,0,0,0,1.57,1.94,1.61,1.61,0,0,0,.9.25l7.24-.63c.86-.07,1.17-1.17.67-2.46a4,4,0,0,0-1.56-1.94,1.62,1.62,0,0,0-.85-.25h-.06"/></clipPath><linearGradient id="linear-gradient-18" x1="-3558.43" y1="12781.14" x2="-3557.41" y2="12781.14" gradientTransform="translate(-37654.06 135945.67) rotate(180) scale(10.62)" xlink:href="#linear-gradient"/><clipPath id="clip-path-36"><path class="cls-1" d="M133,127.82a4,4,0,0,0,1.8,3.13l8.34,4.81c1,.58,1.82.11,1.82-1a4,4,0,0,0-1.81-3.14l-8.34-4.8a1.7,1.7,0,0,0-.82-.25c-.6,0-1,.47-1,1.27"/></clipPath><linearGradient id="linear-gradient-19" x1="-3539.8" y1="12773.67" x2="-3538.78" y2="12773.67" gradientTransform="translate(-41270.82 149583.58) rotate(180) scale(11.7)" xlink:href="#linear-gradient"/><clipPath id="clip-path-37"><path class="cls-1" d="M139.84,102.65c-.5.7-.22,2.15.65,3.23l7.17,9a3.24,3.24,0,0,0,.89.8c.63.37,1.25.35,1.58-.13.51-.71.21-2.16-.65-3.23l-7.21-9a3.16,3.16,0,0,0-.87-.8,1.58,1.58,0,0,0-.81-.25.88.88,0,0,0-.75.38"/></clipPath><linearGradient id="linear-gradient-20" x1="-3559.74" y1="12781.77" x2="-3558.71" y2="12781.77" gradientTransform="translate(-37425.94 135032.55) rotate(180) scale(10.56)" xlink:href="#linear-gradient"/><clipPath id="clip-path-38"><path class="cls-1" d="M158.43,92.05c-.85.08-1.16,1.17-.66,2.46l4.14,10.71a4,4,0,0,0,1.56,2,1.64,1.64,0,0,0,.91.24c.87-.08,1.17-1.18.67-2.46L161,94.24a4,4,0,0,0-1.63-1.95,1.55,1.55,0,0,0-.84-.24h-.07"/></clipPath><linearGradient id="linear-gradient-21" x1="-3639.12" y1="12813.84" x2="-3638.1" y2="12813.84" gradientTransform="translate(-27482.03 97449.66) rotate(180) scale(7.6)" xlink:href="#linear-gradient"/><clipPath id="clip-path-39"><rect class="cls-1" x="130.26" y="92.05" width="101.36" height="130.04"/></clipPath><clipPath id="clip-path-40"><path class="cls-1" d="M306.53,229.72c-9.57,7.16-15.95,17.63-25.56,24.77-.71.6-1.49,1.16-2.26,1.69-10.07,7-21.47,11.84-29.85,21.22-15.71,17.52-16.08,45.72-3.74,65.76s35.31,32.1,58.7,34.84c24.53,2.9,50.26-3.88,69.51-19.36s31.5-39.67,31.49-64.4-12.67-49.3-33.35-62.78a67.18,67.18,0,0,0-35.86-10.85c-10.35,0-20.55,2.76-29.08,9.11"/></clipPath><linearGradient id="linear-gradient-22" x1="-3369.09" y1="12704.74" x2="-3368.07" y2="12704.74" gradientTransform="translate(-554569.66 2093093.63) rotate(180) scale(164.73)" xlink:href="#linear-gradient"/><clipPath id="clip-path-41"><rect class="cls-1" x="233.71" y="220.66" width="168.4" height="158.05"/></clipPath><clipPath id="clip-path-43"><rect class="cls-1" x="249.49" y="244.37" width="118.04" height="129.01"/></clipPath><clipPath id="clip-path-44"><path class="cls-1" d="M274.45,372.55a13.39,13.39,0,0,0-.54,3.21l2.56,5c3.58-3.31,4.22-6,4.22-6-1.15-4.09-2.51-8.24-3.17-10.23-.35,2.81-2.27,5.24-3.07,8"/></clipPath><linearGradient id="linear-gradient-23" x1="-3680.81" y1="12829.62" x2="-3679.78" y2="12829.62" gradientTransform="translate(-24123.08 85433.14) rotate(180) scale(6.63)" xlink:href="#linear-gradient"/><clipPath id="clip-path-45"><path class="cls-1" d="M274,380.89l2.44-.12-2.53-5c-.1,1.7,0,3.41.09,5.13"/></clipPath><linearGradient id="linear-gradient-24" x1="-4215.58" y1="13043.83" x2="-4214.55" y2="13043.83" gradientTransform="translate(-10284.23 33055.22) rotate(180) scale(2.51)" xlink:href="#linear-gradient"/><clipPath id="clip-path-46"><rect class="cls-1" x="271.21" y="364.6" width="6.78" height="16.15"/></clipPath><clipPath id="clip-path-47"><rect class="cls-1" x="271.2" y="375.74" width="2.57" height="5.11"/></clipPath><clipPath id="clip-path-48"><path class="cls-1" d="M272.88,361.82c-.76,2.91-2.12,5.63-2.79,8.55-.83,3.55-.65,7.37-2.15,10.69a11.46,11.46,0,0,1-8,6.4,5.09,5.09,0,0,1-3.8-.46,2.75,2.75,0,0,1-1-1.42,25.27,25.27,0,0,1-2.74,4.47c-1.18,1.54-2.67,3.23-2.34,5.11a4.08,4.08,0,0,0,3.35,3.07,10.85,10.85,0,0,0,4.77-.39,29.79,29.79,0,0,0,9.54-3.9,14.32,14.32,0,0,0,6.07-8.12,18.37,18.37,0,0,0,.37-5c-.06-1.72-.2-3.44-.13-5.11a13.59,13.59,0,0,1,.5-3.24c.81-2.74,2.73-5.17,3.07-8,0-.15.05-.31.06-.46a9.06,9.06,0,0,0-1.75-5.45,22,22,0,0,0-3-3.48,12.23,12.23,0,0,1,0,6.68"/></clipPath><linearGradient id="linear-gradient-25" x1="-3435.62" y1="12731.39" x2="-3434.6" y2="12731.39" gradientTransform="translate(-92640.3 344703) rotate(180) scale(27.05)" xlink:href="#linear-gradient"/><clipPath id="clip-path-49"><rect class="cls-1" x="247.18" y="285.98" width="44.59" height="70.23"/></clipPath><clipPath id="clip-path-50"><path class="cls-1" d="M251.18,403.34a13.71,13.71,0,0,0-1.72,2.78l.35,5.59c4.57-1.63,6.22-3.82,6.22-3.82.54-4.21.94-8.57,1.13-10.68-1.42,2.45-4.15,3.92-6,6.13"/></clipPath><linearGradient id="linear-gradient-26" x1="-3641.92" y1="12813.98" x2="-3640.9" y2="12813.98" gradientTransform="translate(-27166.48 96893.71) rotate(180) scale(7.53)" xlink:href="#linear-gradient"/><clipPath id="clip-path-51"><path class="cls-1" d="M247.55,410.88l2.26.83-.35-5.59c-.74,1.52-1.29,3.16-1.91,4.76"/></clipPath><linearGradient id="linear-gradient-27" x1="-4330.11" y1="13089.51" x2="-4329.09" y2="13089.51" gradientTransform="translate(-9319.78 29336.83) rotate(180) scale(2.21)" xlink:href="#linear-gradient"/><clipPath id="clip-path-52"><rect class="cls-1" x="244.84" y="406.1" width="2.26" height="5.62"/></clipPath><clipPath id="clip-path-53"><path class="cls-1" d="M254,392.88c-1.84,2.38-4.16,4.34-5.93,6.76-2.16,2.94-3.49,6.53-6.14,9a11.45,11.45,0,0,1-9.89,2.73,5,5,0,0,1-3.37-2,2.88,2.88,0,0,1-.41-1.72,24.85,24.85,0,0,1-4.27,3.07c-1.7.94-3.72,1.91-4.18,3.8a4.14,4.14,0,0,0,1.88,4.14,10.76,10.76,0,0,0,4.54,1.51,29.57,29.57,0,0,0,10.32.18,14.28,14.28,0,0,0,8.76-5.11,18.3,18.3,0,0,0,2.29-4.41c.62-1.6,1.17-3.24,1.91-4.76a13.51,13.51,0,0,1,1.72-2.79c1.83-2.2,4.56-3.67,6-6.13.07-.14.16-.26.23-.39a9.15,9.15,0,0,0,.59-5.65,21.81,21.81,0,0,0-1.37-4.38,12.23,12.23,0,0,1-2.66,6.13"/></clipPath><linearGradient id="linear-gradient-28" x1="-3413.21" y1="12722.4" x2="-3412.19" y2="12722.4" gradientTransform="translate(-128194.7 479199.54) rotate(180) scale(37.63)" xlink:href="#linear-gradient"/><clipPath id="clip-path-54"><rect class="cls-1" x="217" y="386.78" width="38.47" height="33.94"/></clipPath><clipPath id="clip-path-55"><rect class="cls-1" x="294.29" y="199.8" width="6.99" height="5.73"/></clipPath><clipPath id="clip-path-56"><rect class="cls-1" x="232.27" y="291.6" width="81.81" height="30.36"/></clipPath><clipPath id="clip-path-57"><rect class="cls-1" x="236.09" y="282.4" width="61.91" height="35.27"/></clipPath><clipPath id="clip-path-58"><rect class="cls-1" x="269.74" y="284.24" width="23.21" height="14.11"/></clipPath><clipPath id="clip-path-59"><rect class="cls-1" x="225.87" y="256.85" width="56.09" height="63.28"/></clipPath><clipPath id="clip-path-60"><path class="cls-1" d="M361.72,147.49c-5.07,8,9.92,12.69,12.26,8.5,1.92-3.43-2.34-9.49-8.19-9.49a9.14,9.14,0,0,0-4.07,1"/></clipPath><linearGradient id="linear-gradient-29" x1="-3516" y1="12763.8" x2="-3514.98" y2="12763.8" gradientTransform="translate(-46993.48 172108.66) rotate(180) scale(13.47)" xlink:href="#linear-gradient"/><clipPath id="clip-path-61"><rect class="cls-1" x="357.97" y="146.54" width="13.77" height="11.04"/></clipPath><clipPath id="clip-path-62"><rect class="cls-1" x="296.86" y="243.66" width="15.98" height="8.38"/></clipPath></defs><g class="cls-2"><rect class="cls-3" x="339.06" y="218.67" width="59.06" height="59.06"/></g><g class="cls-4"><rect class="cls-5" x="338.33" y="217.95" width="60.5" height="60.5"/></g><path class="cls-6" d="M75.31,431.82c89.8,52.19,235.81,52.18,326.24,0s90.94-136.84,1.14-189-235.85-52.14-326.24,0-90.94,136.78-1.14,189"/><path class="cls-7" d="M51.76,383.33c7.53,4.39,19.8,4.38,27.38,0s7.62-11.47.08-15.85-19.79-4.39-27.37,0-7.63,11.47-.09,15.85"/><path class="cls-7" d="M194,224.73l54.61,31.41a2,2,0,0,1,.74.74,2,2,0,0,1-.74,2.8L107.55,341.13a6.11,6.11,0,0,1-6.13,0l-54.61-31.4a2.07,2.07,0,0,1-.75-.75,2,2,0,0,1,.75-2.79l141.07-81.46a6.17,6.17,0,0,1,6.14,0"/><path class="cls-7" d="M368.73,376.75C349.36,388,322,391.83,297.11,388.23c10.31,12,6.87,27-10.39,37.07-21.69,12.61-57,12.6-78.82,0s-22-33-.25-45.65c12.36-7.23,29.13-10.29,45.31-9.27-20.05-17-17.18-40.34,8.77-55.42,29.36-17.06,77.11-17.06,106.65,0s29.71,44.73.35,61.79"/><polygon class="cls-8" points="116.45 88.48 116.67 157.63 121.27 154.98 121.04 85.83 116.45 88.48"/><polygon class="cls-9" points="112.46 90.78 112.68 155.31 116.67 157.63 116.45 88.48 116.44 88.48 112.46 90.78"/><polygon class="cls-8" points="116.44 88.49 116.44 88.49 121.03 85.84 116.44 88.49"/><g class="cls-10"><g class="cls-11"><polygon points="116.46 92.19 121.05 89.53 121.04 85.83 116.45 88.48 116.46 92.19"/></g></g><g class="cls-10"><g class="cls-12"><polygon points="116.45 88.48 116.44 88.48 113.23 90.33 116.46 92.19 116.45 88.48"/></g></g><polygon class="cls-8" points="116.44 88.48 116.44 88.48 121.03 85.83 116.44 88.48"/><polygon class="cls-8" points="116.45 51.87 116.67 83.03 121.27 80.38 121.04 49.22 116.45 51.87"/><polygon class="cls-9" points="112.46 54.17 112.68 80.71 116.67 83.03 116.45 51.87 116.44 51.87 112.46 54.17"/><polygon class="cls-8" points="116.44 51.88 116.44 51.88 121.03 49.22 116.44 51.88"/><g class="cls-10"><g class="cls-13"><polygon points="116.46 55.58 121.05 52.92 121.04 49.22 116.45 51.87 116.46 55.58"/></g></g><g class="cls-10"><g class="cls-14"><polygon points="116.45 51.87 116.44 51.87 113.23 53.73 116.46 55.58 116.45 51.87"/></g></g><polygon class="cls-8" points="116.44 51.88 116.44 51.88 121.03 49.22 116.44 51.88"/><polygon class="cls-9" points="176.57 123.05 172.57 120.73 172.34 51.59 176.33 53.91 176.57 123.05"/><polygon class="cls-6" points="61.38 189.56 57.38 187.23 172.57 120.73 176.57 123.05 61.38 189.56"/><path class="cls-8" d="M181.18,125.68,56.79,197.52l-.26-79.74L180.91,46ZM61.38,189.6l115.19-66.45L176.33,54,61.14,120.45l.24,69.15"/><polygon class="cls-6" points="56.53 117.78 52.54 115.46 176.92 43.65 180.91 45.97 56.53 117.78"/><polygon class="cls-9" points="56.8 197.49 52.8 195.17 52.54 115.46 56.53 117.78 56.8 197.49"/><polygon class="cls-9" points="176.57 48.46 172.57 46.14 172.34 14.98 176.33 17.3 176.57 48.46"/><polygon class="cls-6" points="61.38 114.96 57.38 112.64 172.57 46.14 176.57 48.46 61.38 114.96"/><path class="cls-8" d="M181.18,51.08,56.79,122.89l-.26-41.72L180.91,9.36ZM61.38,115,176.57,48.46l-.24-31.16L61.12,83.8,61.38,115"/><polygon class="cls-6" points="56.53 81.17 52.54 78.85 176.92 7.04 180.91 9.36 56.53 81.17"/><polygon class="cls-9" points="56.8 122.89 52.8 120.57 52.54 78.85 56.53 81.17 56.8 122.89"/><polygon class="cls-9" points="381.35 84.32 381.26 112.74 384.29 110.99 384.36 86.06 381.35 84.32"/><polygon class="cls-6" points="384.29 110.99 381.26 112.74 416.9 133.32 416.91 129.82 384.29 110.99"/><path class="cls-8" d="M377.6,114.81l42.94,24.79.1-36.8L377.71,78Zm3.58-2,.08-28.42,3.07,1.74L417,104.94l-.07,24.93v3.5Z"/><polygon class="cls-6" points="420.64 102.8 423.67 101.05 380.73 76.26 377.71 78.02 420.64 102.8"/><polygon class="cls-9" points="420.64 102.8 420.54 139.62 423.56 137.87 423.67 101.05 420.64 102.8"/><polygon class="cls-9" points="381.37 140.27 381.29 168.7 384.31 166.94 384.38 142.01 381.37 140.27"/><polygon class="cls-6" points="384.31 166.94 381.29 168.7 416.92 189.27 416.93 185.77 384.31 166.94"/><path class="cls-8" d="M377.62,170.77l42.94,24.8.1-36.81L377.73,134Zm3.62-2.07.07-28.43,3,1.74L417,160.84l-.07,24.93v3.5Z"/><polygon class="cls-6" points="420.66 158.76 423.69 157 380.75 132.21 377.73 133.97 420.66 158.76"/><polygon class="cls-9" points="420.66 158.76 420.56 195.58 423.59 193.82 423.69 157 420.66 158.76"/><path class="cls-15" d="M342.71,139.48,347,142v-9.79c-3.54-4-7-8.23-10.51-12.26-.69-.78-1.37-1.55-2.05-2.3-4.18-4.59-8.67-8.84-13.13-11.54l-.52-.29-.29-.21v6a94,94,0,0,1,22.22,27.87"/><path class="cls-15" d="M329.5,131.89a51,51,0,0,0-9.06-13.36v8.1Z"/><path class="cls-16" d="M329.54,131.91l13.15,7.59a94.05,94.05,0,0,0-22.22-27.89v6.93a51.22,51.22,0,0,1,9.07,13.35Z"/><path class="cls-16" d="M347,104.93l.07-26.58A15.76,15.76,0,0,1,338.57,85c-5.15,1.61-11.54.58-18-2.75V92.44l.39.33a64,64,0,0,0,9.14,6.55l.3.18.38.21c.6.39,1.2.72,1.79,1l.25.11c-.69-.34-1.36-.7-2.05-1.08.7.38,1.37.74,2.05,1.08.38.2.77.4,1.17.58l.42.21c1.17.53,2.32,1,3.47,1.42l.61.21a31.36,31.36,0,0,0,8.58,1.66"/><path class="cls-16" d="M336.5,119.89c3.51,4,7,8.26,10.51,12.27V120.39c-.87-.81-1.73-1.66-2.6-2.49A127.12,127.12,0,0,0,320.5,99.7v5.86l.27.17.52.29c4.46,2.7,8.95,6.94,13.13,11.53.7.76,1.39,1.54,2.08,2.34"/><path class="cls-15" d="M344.45,118c.87.83,1.73,1.68,2.6,2.49V105a31.19,31.19,0,0,1-8.61-1.71l-.61-.21-.66-.24.66.24c-1.15-.4-2.3-.89-3.47-1.42l-.43-.21c-.39-.19-.78-.37-1.16-.58l.16.09-.16-.09-.25-.11c-.59-.36-1.19-.69-1.79-1l-.38-.22-.3-.18a64.11,64.11,0,0,1-9.14-6.54l-.39-.34V99.7A127.93,127.93,0,0,1,344.45,118"/><path class="cls-16" d="M338.61,63.24,329.55,58c-1.67,4.46-4.87,7.45-9,8.41V74a18.7,18.7,0,0,0,18-10.74"/><path class="cls-15" d="M347.17,78.39V68.17l-8.54-4.93A18.71,18.71,0,0,1,320.57,74v8.27c6.49,3.33,12.92,4.36,18,2.75a15.73,15.73,0,0,0,8.57-6.61"/><path class="cls-17" d="M318.94,127.48l29.52,17,.21-77.2-29.51-17Zm23.75,12-13.07-7.57-9.1-5.26V52.9L329.43,58l9.07,5.23L347,68.18V78.4L347,105v37Z"/><path class="cls-15" d="M329.52,58l-8.91-5.11V66.42A12.47,12.47,0,0,0,329.52,58"/><polygon class="cls-18" points="317.17 128.51 348.45 146.57 348.46 144.52 318.94 127.48 317.17 128.51"/><polygon class="cls-9" points="317.39 49.25 317.17 128.51 318.94 127.48 319.16 50.28 317.39 49.25"/><path class="cls-8" d="M312.39,131.32l40.8,23.52.26-90.24L312.61,41Zm4.7-2.8.23-79.26,1.77,1,29.51,17-.21,77.2v2.05Z"/><polygon class="cls-6" points="353.45 64.6 356.82 62.79 316.01 39.23 312.65 41.03 353.45 64.6"/><polygon class="cls-9" points="353.45 64.6 353.19 154.79 356.56 152.99 356.82 62.79 353.45 64.6"/><polygon class="cls-8" points="403.91 112.96 406.5 117.9 404.71 112.34 409.78 108.4 415.42 119.61 415.4 126.45 385.81 109.36 385.82 102.53 394.73 95.52 403.91 112.96"/><path class="cls-8" d="M407,103.3c0,1.6-1.13,2.25-2.52,1.44a5.53,5.53,0,0,1-2.52-4.33c0-1.6,1.14-2.25,2.53-1.44A5.51,5.51,0,0,1,407,103.3"/><polygon class="cls-8" points="403.93 168.91 406.52 173.85 404.74 168.29 409.8 164.37 415.44 175.56 415.42 182.41 385.83 165.32 385.85 158.48 394.75 151.47 403.93 168.91"/><path class="cls-8" d="M407,159.27c0,1.61-1.13,2.25-2.52,1.45a5.57,5.57,0,0,1-2.52-4.36c0-1.59,1.14-2.24,2.54-1.44a5.55,5.55,0,0,1,2.5,4.35"/><polygon class="cls-8" points="104.88 257.66 104.88 338.77 242.84 259.54 242.84 178.43 104.88 257.66"/><polygon class="cls-8" points="104.88 257.66 104.88 338.77 50.47 307.46 50.47 226.34 104.88 257.66"/><g class="cls-19"><g class="cls-20"><polygon points="104.88 257.66 104.88 338.77 242.84 259.54 242.84 178.43 104.88 257.66"/></g></g><g class="cls-10"><g class="cls-21"><polygon points="104.88 257.66 104.88 338.77 50.47 307.46 50.47 226.34 104.88 257.66"/></g></g><polygon class="cls-8" points="175.97 248.48 111.4 285.56 111.4 304.61 175.97 267.51 175.97 248.48"/><polygon class="cls-8" points="175.97 243.92 175.97 224.35 111.4 261.43 111.4 281.01 175.97 243.92"/><polygon class="cls-8" points="182.49 240.18 236.32 209.26 236.32 189.69 182.49 220.61 182.49 240.18"/><polygon class="cls-8" points="175.97 272.06 111.4 309.15 111.4 327.51 175.97 290.44 175.97 272.06"/><polygon class="cls-8" points="182.49 263.77 236.32 232.86 236.32 213.81 182.49 244.74 182.49 263.77"/><polygon class="cls-8" points="182.49 268.32 182.49 286.69 236.32 255.77 236.32 237.41 182.49 268.32"/><polygon class="cls-15" points="189.77 139.1 48.51 220.23 103.63 251.96 244.8 170.88 189.77 139.1"/><polygon class="cls-8" points="103.63 251.96 103.63 260.25 244.8 179.16 244.8 170.88 103.63 251.96"/><polygon class="cls-8" points="103.63 251.96 103.63 260.25 48.51 228.53 48.51 220.24 103.63 251.96"/><g class="cls-19"><g class="cls-22"><polygon points="103.63 251.96 103.63 260.25 48.51 228.53 48.51 220.24 103.63 251.96"/></g></g><path class="cls-17" d="M52.11,373.41a8.2,8.2,0,0,0,3.64,3.79c5.39,3.13,14.14,3.13,19.56,0A8.35,8.35,0,0,0,79,373.5c3.34-6.18,5.76-18.81,5-31.22l-18.4.53-18.41-.53c-.78,12.35,1.61,24.91,5,31.13"/><path class="cls-15" d="M78.5,334.76c7.15,4.15,7.13,10.89-.06,15.05s-18.83,4.15-26,0-7.07-10.89.08-15.05,18.8-4.15,26,0"/><path class="cls-8" d="M75.66,336.41c5.58,3.24,5.56,8.49-.06,11.73s-14.71,3.24-20.28,0-5.55-8.49.07-11.73,14.68-3.24,20.27,0"/><g class="cls-23"><g class="cls-24"><path d="M75.66,336.41c5.58,3.24,5.56,8.49-.06,11.73s-14.71,3.24-20.28,0-5.55-8.49.07-11.73,14.68-3.24,20.27,0"/></g></g><g class="cls-25"><rect class="cls-26" x="38" y="263.9" width="41.76" height="67.1"/></g><g class="cls-10"><g class="cls-27"><path d="M44.12,286.71l13.41,5.67L47,291.59l3.29,9.84,12.68,6.43-10.88-1.4c6.21,24.54,13.32,22.39,15.68,18.41,9.33-19.72,9-47.42-32.43-61a200.1,200.1,0,0,1,8.82,22.81"/></g></g><g class="cls-10"><g class="cls-27"><path class="cls-17" d="M44.12,286.71l13.41,5.67L47,291.59l3.29,9.84,12.68,6.43-10.88-1.4c6.21,24.54,13.32,22.39,15.68,18.41,9.33-19.72,9-47.42-32.43-61a200.1,200.1,0,0,1,8.82,22.81"/></g></g><path class="cls-17" d="M64.64,326.22c6.16-19.84,4.19-38.83-17.64-55.4,22.18,20.28,19.81,37.94,17.64,55.4"/><g class="cls-28"><rect class="cls-29" x="62.36" y="292.03" width="45.76" height="58.68"/></g><g class="cls-10"><g class="cls-30"><path class="cls-17" d="M93.38,311.83,80,314.9l10,1-4.7,8.62-12.87,3.84,10.36.51c-9.85,21.82-16.13,18.62-17.65,14.53-5.42-19.92-.47-45.65,40.34-51.39a187.49,187.49,0,0,0-12,19.8"/></g></g><g class="cls-19"><g class="cls-30"><path d="M93.38,311.83,80,314.9l10,1-4.7,8.62-12.87,3.84,10.36.51c-9.85,21.82-16.13,18.62-17.65,14.53-5.42-19.92-.47-45.65,40.34-51.39a187.49,187.49,0,0,0-12,19.8"/></g></g><path class="cls-17" d="M67.72,345.19c-2.45-19.49,2.55-36.85,25.63-48.66-24,15.2-24.76,32-25.63,48.66"/><g class="cls-31"><rect class="cls-32" x="26" y="301.67" width="44.77" height="49.24"/></g><path class="cls-17" d="M63.26,345.36c0-17.83-6.41-32.93-28.55-41,23.34,11,25.91,26.1,28.55,41"/><g class="cls-10"><g class="cls-33"><path class="cls-17" d="M36.41,318.2l12.44,1.23-8.93,2,5.2,7.24,12,2.05-9.28,1.61c11.32,18.55,16.62,15,17.53,11.11,2.66-18.55-4.68-41.2-42.11-41.8A168.41,168.41,0,0,1,36.41,318.2"/></g></g><g class="cls-34"><rect class="cls-35" x="155.15" y="118.81" width="55.68" height="31.61"/></g><g class="cls-36"><rect class="cls-37" x="201.82" y="146.71" width="9.87" height="56.41"/></g><g class="cls-38"><g class="cls-39"><path class="cls-17" d="M208.13,146.66l-6.5,3.76a6.48,6.48,0,0,0-2.55-2.74l-43.37-24.9a2.1,2.1,0,0,0-1.07-.29,2.2,2.2,0,0,0-2.2,2.18c0-4.71,6.95-7,9.89-5.31l43.36,24.88a6.44,6.44,0,0,1,2.44,2.42"/></g></g><g class="cls-10"><g class="cls-40"><path class="cls-17" d="M208.13,146.71a6.54,6.54,0,0,1,.84,3.2v46a6.37,6.37,0,0,1-1,3.26,6.45,6.45,0,0,1-8.89,2.06,2.17,2.17,0,0,0,3.26-1.89V164.07c0-1-.29-12.77-.74-13.67Z"/></g></g><g class="cls-41"><rect class="cls-42" x="155.16" y="122.49" width="80.72" height="108.49"/></g><g class="cls-43"><rect class="cls-44" x="205.08" y="174.76" width="37.38" height="56.19"/></g><g class="cls-45"><rect class="cls-46" x="211.07" y="199.47" width="5.4" height="3.11"/></g><g class="cls-38"><g class="cls-47"><path class="cls-17" d="M215.33,208.65,233.14,231l6.62-3.77-16.36-20.5,6.29-3.57c.57-.52.44-2-.45-3.07L209,174.76l-6.6,3.77,20.25,25.3c.9,1.12,1.06,2.55.46,3.06a.7.7,0,0,1-.36.19l-.64.14Z"/></g></g><g class="cls-10"><g class="cls-48"><polygon class="cls-17" points="213.76 200.22 213.07 199.47 208.36 202.58 213.76 200.22"/></g></g><path class="cls-17" d="M169,148.39a16.65,16.65,0,0,1-3.06-5.22c-.68-2-.59-4.37.89-4.86a2.78,2.78,0,0,1,2.27.45,6.35,6.35,0,0,1,1.08.76,16.32,16.32,0,0,1,2.61,3.13,36.67,36.67,0,0,1,4.08,8.4c.63-1.21,1.29-2.42,2-3.53a3.74,3.74,0,0,1,1.23-1.36,2.26,2.26,0,0,1,2.3.16,1.1,1.1,0,0,1,.21.14,7,7,0,0,1,2.68,4.74,3.29,3.29,0,0,1-1.19,3.06,5.16,5.16,0,0,1-2.34.78l-1.8.27,9.54,5.51v8.52l-.83-.48v15.88L164,170.51l.06-15.87-.83-.48v-8.52l6.67,3.84c-.32-.38-.63-.78-.92-1.09M179,177.46l8.25,4.77V168L179,163.26v14.2m-13.49-7.78,8.25,4.76V160.23l-8.24-4.76v14.21m6-25.86a10.72,10.72,0,0,0-1.79-2.18,3.79,3.79,0,0,0-.53-.39,1.19,1.19,0,0,0-.93-.2c-.56.16-.58,1.28-.27,2.21a11.89,11.89,0,0,0,2.17,3.59,29.77,29.77,0,0,0,5.11,5.11,31.66,31.66,0,0,0-3.8-8.17m7.6,17.84,9.08,5.23v-5.19L179,156.42v5.21m-14.3-8.27,9.08,5.24v-5.19l-9.08-5.25v5.2m15.86-1.09a4.53,4.53,0,0,0,1.89-.58,1.64,1.64,0,0,0,.64-1.49,2.11,2.11,0,0,0-.69-1.38.74.74,0,0,0-.76,0,3,3,0,0,0-.84,1c-.53.86-1.06,1.77-1.55,2.7l1.35-.21"/><g class="cls-49"><rect class="cls-50" x="181.97" y="98.63" width="3.63" height="14.57"/></g><g class="cls-51"><rect class="cls-52" x="201.92" y="120.25" width="8.33" height="10.69"/></g><g class="cls-53"><rect class="cls-54" x="216.7" y="151.12" width="11.38" height="5.29"/></g><g class="cls-55"><rect class="cls-56" x="222.32" y="178.1" width="12.01" height="9.85"/></g><g class="cls-57"><rect class="cls-58" x="201.7" y="206.73" width="8.28" height="15.38"/></g><g class="cls-59"><rect class="cls-60" x="181.68" y="201.3" width="3.63" height="14.57"/></g><g class="cls-61"><rect class="cls-62" x="156.99" y="183.37" width="8.33" height="10.7"/></g><g class="cls-63"><rect class="cls-64" x="139.17" y="157.78" width="11.38" height="5.29"/></g><g class="cls-65"><rect class="cls-66" x="132.97" y="126.55" width="11.96" height="9.79"/></g><g class="cls-67"><rect class="cls-68" x="139.34" y="102.27" width="11.3" height="13.74"/></g><g class="cls-69"><rect class="cls-70" x="157.27" y="92.05" width="8.28" height="15.37"/></g><g class="cls-71"><g class="cls-72"><path class="cls-17" d="M182.89,102v9.57c0,1.14-.8,1.61-1.82,1a4,4,0,0,1-1.81-3.13V99.9c0-1.14.79-1.6,1.82-1a4,4,0,0,1,1.81,3.14"/><path class="cls-17" d="M206.39,121.3c.87,1.08,1.15,2.52.65,3.23l-4.19,5.88a1.12,1.12,0,0,1-1.57.14,3.32,3.32,0,0,1-.91-.8c-.86-1.07-1.16-2.52-.66-3.23l4.2-5.89c.33-.47,1-.5,1.57-.13a3,3,0,0,1,.91.8"/><path class="cls-17" d="M224.87,153.31c.5,1.29.2,2.39-.67,2.47l-7.24.61a1.5,1.5,0,0,1-.9-.23,4,4,0,0,1-1.57-2c-.5-1.28-.2-2.39.67-2.46l7.23-.62a1.67,1.67,0,0,1,.92.24,4,4,0,0,1,1.56,1.95"/><path class="cls-17" d="M229.81,183.23a4,4,0,0,1,1.81,3.13c0,1.12-.8,1.59-1.82,1l-8.38-4.88a4,4,0,0,1-1.81-3.13c0-1.13.8-1.6,1.83-1Z"/><path class="cls-17" d="M202.63,208.93l4.15,10.7c.49,1.29.19,2.39-.68,2.47a1.73,1.73,0,0,1-.91-.25,3.92,3.92,0,0,1-1.56-1.94l-4.15-10.71c-.49-1.28-.2-2.39.67-2.47a1.52,1.52,0,0,1,.9.25,3.89,3.89,0,0,1,1.58,2"/><path class="cls-17" d="M182.6,204.69v9.58c0,1.13-.8,1.6-1.82,1a4,4,0,0,1-1.81-3.14v-9.58c0-1.15.8-1.61,1.82-1a4,4,0,0,1,1.81,3.13"/><path class="cls-17" d="M161.46,184.42c.87,1.08,1.15,2.53.65,3.23l-4.19,5.89a1.11,1.11,0,0,1-1.57.13,3.13,3.13,0,0,1-.91-.79c-.86-1.08-1.16-2.53-.66-3.23l4.19-5.89c.34-.48.95-.5,1.59-.13a3.39,3.39,0,0,1,.9.79"/><path class="cls-17" d="M147.34,160c.5,1.29.19,2.39-.67,2.46l-7.23.63a1.62,1.62,0,0,1-.91-.25,3.9,3.9,0,0,1-1.57-1.94c-.5-1.29-.2-2.39.67-2.47l7.24-.62a1.55,1.55,0,0,1,.91.25,4,4,0,0,1,1.56,1.94"/><path class="cls-17" d="M140.41,131.6a4,4,0,0,1,1.81,3.14c0,1.13-.8,1.6-1.82,1L132.06,131a4,4,0,0,1-1.8-3.13c0-1.13.78-1.6,1.81-1Z"/><path class="cls-17" d="M139.56,103.32l7.21,9c.87,1.07,1.16,2.52.65,3.23-.32.48-.95.5-1.57.13a3.14,3.14,0,0,1-.9-.8l-7.17-9c-.87-1.07-1.15-2.53-.65-3.23.33-.47.94-.49,1.56-.13a3.16,3.16,0,0,1,.87.8"/><path class="cls-17" d="M158.26,94.24,162.35,105c.49,1.28.19,2.38-.68,2.46a1.64,1.64,0,0,1-.91-.24,4,4,0,0,1-1.56-2l-4.14-10.7c-.5-1.29-.2-2.38.66-2.46a1.54,1.54,0,0,1,.91.24,3.94,3.94,0,0,1,1.63,1.95"/></g></g><g class="cls-73"><rect class="cls-74" x="232.78" y="220.61" width="172.05" height="160.29"/></g><g class="cls-10"><g class="cls-75"><path d="M278.27,254.49c9.6-7.14,16-17.61,25.55-24.77,18.94-14.09,46.06-10.53,64.94,1.74,20.68,13.48,33.34,38,33.35,62.78s-12.24,48.93-31.49,64.4-45,22.26-69.52,19.37c-23.38-2.75-46.35-14.8-58.69-34.84s-12-48.25,3.75-65.77c8.37-9.38,19.77-14.22,29.84-21.22.77-.53,1.55-1.09,2.27-1.69"/></g></g><g class="cls-19"><g class="cls-75"><path class="cls-17" d="M278.27,254.49c9.6-7.14,16-17.61,25.55-24.77,18.94-14.09,46.06-10.53,64.94,1.74,20.68,13.48,33.34,38,33.35,62.78s-12.24,48.93-31.49,64.4-45,22.26-69.52,19.37c-23.38-2.75-46.35-14.8-58.69-34.84s-12-48.25,3.75-65.77c8.37-9.38,19.77-14.22,29.84-21.22.77-.53,1.55-1.09,2.27-1.69"/></g></g><g class="cls-19"><g class="cls-76"><path d="M281.33,373.38a79.53,79.53,0,0,1-28.77-17.59,83.5,83.5,0,0,1-3.07-21c0-10.49,3.46-21.47,11.43-28.34,7-6.06,16.74-8.34,23.51-14.66,4.48-4.21,7.3-9.84,10-15.34,3.78-7.67,7-16.54,12.81-22.85A28.35,28.35,0,0,1,351,256c5.82,7.94,7.15,18.53,5.29,28.19s-6.59,18.53-12,26.76c7.78-2.69,17.5-.07,23.17,5.88a30.07,30.07,0,0,0-19.89-1.14c-6.75,2-12.43,6.43-18.45,10.06a83.72,83.72,0,0,1-27.53,10.55,26.56,26.56,0,0,0-21.47,22.1,1.21,1.21,0,0,0-.07.5,31.09,31.09,0,0,0,1.22,14.52"/></g></g><path class="cls-17" d="M358.19,355c-13.76,11.63-31.51,19.71-51.11,23.52q-3-.16-6-.51l-1.41-.19c22.07-3,42.14-11.49,57.25-24.23,19.29-16.25,30.54-39.68,30.09-62.67a70.3,70.3,0,0,0-66.55-68.86,49.41,49.41,0,0,1,6.95-1.16,72.06,72.06,0,0,1,61.5,70c.46,23.55-11,47.53-30.74,64.11"/><g class="cls-77"><rect class="cls-78" x="273.91" y="364.58" width="6.78" height="16.19"/></g><g class="cls-79"><rect class="cls-80" x="273.84" y="375.76" width="2.63" height="5.13"/></g><g class="cls-19"><g class="cls-81"><path d="M271.74,372.55c.8-2.74,2.72-5.17,3.07-8,.67,2,2,6.14,3.17,10.23,0,0-.64,2.66-4.22,6l-2.56-5a13.39,13.39,0,0,1,.54-3.21"/></g></g><g class="cls-38"><g class="cls-82"><path d="M271.23,375.76l2.53,5-2.43.12c-.06-1.72-.2-3.44-.1-5.13"/></g></g><path class="cls-83" d="M274.9,364.07c0,.15-.06.31-.06.46-.34,2.81-2.26,5.24-3.07,8a14.11,14.11,0,0,0-.5,3.24c-.07,1.67.08,3.39.13,5.11a18.37,18.37,0,0,1-.37,5,14.27,14.27,0,0,1-6.06,8.12,29.71,29.71,0,0,1-9.55,3.9,10.85,10.85,0,0,1-4.77.39,4.1,4.1,0,0,1-3.35-3.07c-.33-1.88,1.16-3.57,2.34-5.11a25.27,25.27,0,0,0,2.74-4.47,2.77,2.77,0,0,0,1,1.42,5.11,5.11,0,0,0,3.81.46,11.47,11.47,0,0,0,8-6.4c1.5-3.32,1.32-7.14,2.15-10.69.67-2.92,2-5.64,2.79-8.55a12.23,12.23,0,0,0,0-6.68,22.6,22.6,0,0,1,3,3.48,9.12,9.12,0,0,1,1.74,5.45"/><g class="cls-84"><rect class="cls-85" x="249.68" y="355.14" width="27.95" height="43.32"/></g><path class="cls-86" d="M253.29,387a2.66,2.66,0,0,1-1-1.42,35.19,35.19,0,0,0,2.91-9.34,91.08,91.08,0,0,0,.95-15c3.93-2.84,8.83-4.69,13.13-6.93l.87.86a12.23,12.23,0,0,1,0,6.68c-.75,2.91-2.12,5.63-2.79,8.55-.83,3.54-.65,7.37-2.15,10.69a11.47,11.47,0,0,1-8,6.4,5.1,5.1,0,0,1-3.88-.46"/><path class="cls-87" d="M258.29,380l-4.38,6.78c-.33.68-15.26.08-15.26.08s3.18-8.47,3.9-12.63Z"/><path class="cls-88" d="M339.66,284.9s0,3.27-.57,8.05a37.47,37.47,0,0,1-27.38,31.87l-31.61,8.64s-2.54,7.76-6.34,19-8.72,16.95-15.41,30.38c0,0-12-.36-17.22-7.37l6.05-19.25-7.38-39.82a18.85,18.85,0,0,1,9.36-19.91l38.06-21.21Z"/><g class="cls-10"><g class="cls-89"><path d="M287.54,296.7,262.74,312a15.63,15.63,0,0,0-7,9.58l-8.58,34.61,9.55-31.12a19.26,19.26,0,0,1,8.18-10.71l26.86-16.82a17.92,17.92,0,0,1-4.26-11.6s-2.51,4.36,0,10.72"/></g></g><g class="cls-90"><rect class="cls-91" x="249.46" y="397.21" width="7.7" height="14.5"/></g><g class="cls-92"><rect class="cls-93" x="247.55" y="406.12" width="2.26" height="5.59"/></g><g class="cls-94"><g class="cls-95"><path d="M246.75,406.12l.35,5.59-2.26-.83c.62-1.6,1.17-3.24,1.91-4.76"/></g></g><g class="cls-96"><rect class="cls-97" x="219.5" y="386.75" width="38.88" height="34.17"/></g><g class="cls-10"><g class="cls-98"><path class="cls-17" d="M254.68,396.77c-.07.14-.16.26-.23.39-1.42,2.47-4.14,3.94-6,6.14a13.14,13.14,0,0,0-1.73,2.79c-.74,1.52-1.29,3.16-1.91,4.76a18.3,18.3,0,0,1-2.29,4.41,14.28,14.28,0,0,1-8.76,5.11,29.57,29.57,0,0,1-10.32-.17,10.78,10.78,0,0,1-4.54-1.52,4.15,4.15,0,0,1-1.88-4.14c.46-1.89,2.49-2.86,4.18-3.8a25.32,25.32,0,0,0,4.28-3.07,2.8,2.8,0,0,0,.4,1.72,5.08,5.08,0,0,0,3.37,2,11.45,11.45,0,0,0,9.89-2.73c2.65-2.46,4-6.05,6.14-9,1.77-2.42,4.09-4.38,5.93-6.76a12.2,12.2,0,0,0,2.67-6.13,23.18,23.18,0,0,1,1.37,4.38,9.18,9.18,0,0,1-.6,5.64"/></g></g><path class="cls-87" d="M225.89,409.43a2.79,2.79,0,0,1-.4-1.72,35.11,35.11,0,0,0,6.35-7.45,92.39,92.39,0,0,0,6.77-13.44c4.72-1.09,10-.85,14.79-1.21l.46,1.13a12.23,12.23,0,0,1-2.66,6.13c-1.84,2.38-4.16,4.35-5.93,6.76-2.12,2.94-3.45,6.53-6.14,9a11.45,11.45,0,0,1-9.89,2.73,5,5,0,0,1-3.35-1.92"/><path class="cls-86" d="M256.64,126.24a22.83,22.83,0,0,0,1.09,4.09,40.2,40.2,0,0,1-5.05,9.87l-.08,0a7.46,7.46,0,0,1-5.35-9.08c.95-3.63,5.65-5.11,9.39-4.86"/><path class="cls-87" d="M256.49,128.07a2.83,2.83,0,0,1-.4,1.08,1.37,1.37,0,0,1-.18.24,1.15,1.15,0,0,1-1.62,0,5.5,5.5,0,0,1-.66-.92,1.6,1.6,0,0,1-1,1.81,1.64,1.64,0,0,1-1.91-.84,3.61,3.61,0,0,1-.14,1.18,1.23,1.23,0,0,1-.78.82,1.94,1.94,0,0,1-1.34-.38.85.85,0,0,1-.15,1.12,1.25,1.25,0,0,1-1.18.2,2.64,2.64,0,0,1-1-.69,5.82,5.82,0,0,1-1.65-3.29,3.17,3.17,0,0,1,.2-1.8,2,2,0,0,1,1.62-1.13,1.86,1.86,0,0,1,1.21-1.59,2.12,2.12,0,0,1,2.12.36,2,2,0,0,1,1.16-1.91,2.16,2.16,0,0,1,2.27.3,2.81,2.81,0,0,1,4.58.52,5.59,5.59,0,0,1,.45,2.65v3.39c-.48-.4-1.15-.73-1.62-1.13"/><path class="cls-87" d="M255.24,147.49l-3.14-7.76s-2-3.33,3.26-8l-1.22.51a3.05,3.05,0,0,1-3.9-1.35l4.57-2.64a2.42,2.42,0,0,1,2.39,0l1,.51a2.48,2.48,0,0,1,1.29,2.16v6.54l2.43,6.85Z"/><path d="M281.84,227.91,252.2,147.75c.64-2.9,3.64-7.42,11.34-6.13L292.66,208Z"/><path class="cls-99" d="M309.09,238.2c-5.32-4.5-9.26-10.18-13.17-15.83s-1.26-13.51-6.85-17.38c-7.09-4.94-10-12.76-9-19.42a7.94,7.94,0,0,1-6.14-7.55c-.07-3.41,1.89-6.64,4.49-9s8-5,11.25-6.56c4.63-2.23,9.39-4.41,14.52-5.19s10.77,0,14.8,3.07c5.17,4,6.62,10.81,7,17.06s.23,12.83,3.3,18.4c2.58,4.65,7.12,8,11.31,11.47s8.33,7.43,9.63,12.55c1.42,5.56-.92,11.54-4.82,15.9s-9.18,7.45-14.5,10.22c-6.27,3.26-16.55-3.24-21.86-7.73"/><path d="M299.36,208.57l15.08.67,15.75-7.67-1,28.73.33,9.85a44.68,44.68,0,0,0,4.37,17.57,63.44,63.44,0,0,1,5.79,27.15c-9,4.78-42,11.87-61.71-2.76l7.22-26.82a7,7,0,0,0-1.61-5.45c-3.48-4.12-6.62-9.06-4.31-15.87,2.23-6.59,5.72-28.79,12.59-29.89,2.24-.34,7.52,4.49,7.52,4.49"/><path class="cls-87" d="M314.43,194.85v14.38L300.64,224a1.81,1.81,0,0,1-3.06-1.68l1.74-7V201.86Z"/><path class="cls-86" d="M299.35,201.86v10.48c4.33-1,13.2-7.7,14.48-17.22Z"/><path class="cls-87" d="M286.74,172.35c-3.19,4.83-4,10.93-3.29,16.66a46.67,46.67,0,0,0,3.45,12c1.28,3.05,2.43,6.17,5.78,7.47a10.75,10.75,0,0,0,6.05.3c7.36-1.53,13.82-8,16.56-14.9a4,4,0,0,0,5.12.44,11.39,11.39,0,0,0,2.84-4.27,6,6,0,0,0-.45-5,4.73,4.73,0,1,0-8.18,4.75,2.68,2.68,0,0,1-2.55,0,4.31,4.31,0,0,1-1.84-2,15.24,15.24,0,0,1-.87-3.52c-4.43.36-16.64-.78-22.62-11.94"/><polygon class="cls-86" points="296.24 198.37 291.19 198.15 294.32 190.61 296.24 198.37"/><path class="cls-86" d="M296.25,204.93a3.52,3.52,0,0,0,3.12.37,3.24,3.24,0,0,0,1.86-2.41,4.64,4.64,0,0,0-.6-3.07l-6.34,2.41a6.66,6.66,0,0,0,2,2.7"/><g class="cls-94"><g class="cls-100"><path d="M296.25,204.93a3.52,3.52,0,0,0,3.12.37,3.24,3.24,0,0,0,1.86-2.41,4.64,4.64,0,0,0-.6-3.07l-6.34,2.41a6.66,6.66,0,0,0,2,2.7"/></g></g><path class="cls-99" d="M299.75,188.84h0a1.43,1.43,0,1,0,1.75,1,1.44,1.44,0,0,0-1.75-1"/><path class="cls-99" d="M288.14,191.34a1.33,1.33,0,1,0,1.6,1,1.45,1.45,0,0,0-1.6-1"/><path class="cls-99" d="M285.42,185.34a2.07,2.07,0,0,0-.88,2.16l3.41-1.79a2.43,2.43,0,0,0-2.53-.37"/><path class="cls-99" d="M300.46,182.52a2,2,0,0,1,1.53,1.75l-3.8-.58a2.43,2.43,0,0,1,2.27-1.17"/><path class="cls-86" d="M298.63,203a4.29,4.29,0,0,0-1.44,2.34,3.47,3.47,0,0,0,.72.19,3,3,0,0,0,3.37-2.59,4.12,4.12,0,0,0,0-.86,4.33,4.33,0,0,0-2.65.92"/><path class="cls-8" d="M314,301.86v1.77a1.15,1.15,0,0,1,0,.37,1.47,1.47,0,0,1-.21.39,2.5,2.5,0,0,1-.34.39,2.78,2.78,0,0,1-.51.37l-27.84,16.18a5.87,5.87,0,0,1-.81.36l-.31.09-.4.1-.5.08H283a4,4,0,0,1-.69,0h-.11a3.64,3.64,0,0,1-.66,0h-.1a4.78,4.78,0,0,1-.66-.11h-.11l-.56-.17H280c-.21-.09-.41-.19-.61-.3l-46-26.53a3.25,3.25,0,0,1-.52-.37l-.13-.14a2,2,0,0,1-.24-.26.25.25,0,0,1-.09-.18,1.15,1.15,0,0,1-.14-.27v-.18a1.13,1.13,0,0,1,0-.26v-1.63a1.13,1.13,0,0,0,0,.26V292a1.65,1.65,0,0,0,.14.26.7.7,0,0,0,.09.17,1.2,1.2,0,0,0,.24.26.64.64,0,0,0,.13.15,4.4,4.4,0,0,0,.52.3l46,26.58a4.78,4.78,0,0,0,.61.28h.11a3.58,3.58,0,0,0,.56.16h.11a2.48,2.48,0,0,0,.66.12h1.67l.5-.09.4-.1.31-.09a4.13,4.13,0,0,0,.81-.35L313,303.47a2.38,2.38,0,0,0,.51-.37,2.05,2.05,0,0,0,.34-.38,2,2,0,0,0,.21-.38,1.73,1.73,0,0,0,.05-.5Z"/><g class="cls-10"><g class="cls-101"><path d="M314,301.86v1.77a1.15,1.15,0,0,1,0,.37,1.47,1.47,0,0,1-.21.39,2.5,2.5,0,0,1-.34.39,2.78,2.78,0,0,1-.51.37l-27.84,16.18a5.87,5.87,0,0,1-.81.36l-.31.09-.4.1-.5.08H283a4,4,0,0,1-.69,0h-.11a3.64,3.64,0,0,1-.66,0h-.1a4.78,4.78,0,0,1-.66-.11h-.11l-.56-.17H280c-.21-.09-.41-.19-.61-.3l-46-26.53a3.25,3.25,0,0,1-.52-.37l-.13-.14a2,2,0,0,1-.24-.26.25.25,0,0,1-.09-.18,1.15,1.15,0,0,1-.14-.27v-.18a1.13,1.13,0,0,1,0-.26v-1.63a1.13,1.13,0,0,0,0,.26V292a1.65,1.65,0,0,0,.14.26.7.7,0,0,0,.09.17,1.2,1.2,0,0,0,.24.26.64.64,0,0,0,.13.15,4.4,4.4,0,0,0,.52.3l46,26.58a4.78,4.78,0,0,0,.61.28h.11a3.58,3.58,0,0,0,.56.16h.11a2.48,2.48,0,0,0,.66.12h1.67l.5-.09.4-.1.31-.09a4.13,4.13,0,0,0,.81-.35L313,303.47a2.38,2.38,0,0,0,.51-.37,2.05,2.05,0,0,0,.34-.38,2,2,0,0,0,.21-.38,1.73,1.73,0,0,0,.05-.5Z"/></g></g><path class="cls-8" d="M232.14,291.91a1.13,1.13,0,0,1,0-.26,2,2,0,0,1,1.18-1.65l27.85-16.19a6.27,6.27,0,0,1,5.72,0l46,26.53a2,2,0,0,1,1.18,1.58,1.73,1.73,0,0,1-.05.5,1.76,1.76,0,0,1-.21.38,2.05,2.05,0,0,1-.34.38,2.08,2.08,0,0,1-.51.37l-27.84,16.19a3.61,3.61,0,0,1-.81.35l-.31.09-.4.11-.5.08h-1.67c-.23,0-.44-.06-.66-.11h-.11a5.18,5.18,0,0,1-.56-.17H280a3.71,3.71,0,0,1-.61-.28l-46-26.58a3.25,3.25,0,0,1-.52-.37.86.86,0,0,1-.13-.14,1.55,1.55,0,0,1-.24-.27.56.56,0,0,1-.09-.17,1.65,1.65,0,0,1-.14-.26l-.12-.11"/><path class="cls-8" d="M251.88,282.37,298,309l-14.37,8.35-.3.13-.36.1-.3.05H281.6l-.25-.05-.34-.1h-.1l-.17-.1-44.65-25.81Z"/><path class="cls-8" d="M280,284.48l12.56,7.24a.86.86,0,0,1,0,1.48l-8.41,4.93a1.35,1.35,0,0,1-1.4,0l-12.56-7.24a1,1,0,0,1-.3-.3.86.86,0,0,1,.3-1.17l8.4-4.94a1.37,1.37,0,0,1,1.41,0"/><g class="cls-38"><g class="cls-102"><path d="M251.88,282.37,298,309l-14.37,8.35-.3.13-.36.1-.3.05H281.6l-.25-.05-.34-.1h-.1l-.17-.1-44.65-25.81Z"/></g></g><g class="cls-38"><g class="cls-103"><path d="M280,284.48l12.56,7.24a.86.86,0,0,1,0,1.48l-8.41,4.93a1.35,1.35,0,0,1-1.4,0l-12.56-7.24a1,1,0,0,1-.3-.3.86.86,0,0,1,.3-1.17l8.4-4.94a1.37,1.37,0,0,1,1.41,0"/></g></g><path class="cls-8" d="M281.21,319.58h0l-1,.52v-.44l-.3-.12-46.36-26.91a5.56,5.56,0,0,1-2.71-3.95l-4.7-30.26a1.36,1.36,0,0,1,.11-.82l-.37-.14,1.11-.55a1.38,1.38,0,0,1,1.22.09l46.28,26.9a5.57,5.57,0,0,1,2.71,4l4.76,30.26a1.38,1.38,0,0,1-.73,1.46"/><g class="cls-94"><g class="cls-104"><path d="M281.21,319.58h0l-1,.52v-.44l-.3-.12-46.36-26.91a5.56,5.56,0,0,1-2.71-3.95l-4.7-30.26a1.36,1.36,0,0,1,.11-.82l-.37-.14,1.11-.55a1.38,1.38,0,0,1,1.22.09l46.28,26.9a5.57,5.57,0,0,1,2.71,4l4.76,30.26a1.38,1.38,0,0,1-.73,1.46"/></g></g><path class="cls-8" d="M276.16,288.33l4.75,30.25a1.38,1.38,0,0,1-.15.87,1.4,1.4,0,0,1-1.89.55l-46.2-26.9a5.58,5.58,0,0,1-2.71-4l-4.75-30.25a1.39,1.39,0,0,1,2-1.42l46.28,26.89a5.61,5.61,0,0,1,2.63,4"/><path class="cls-17" d="M247.61,287.09a10.25,10.25,0,0,0,4.59,6.62c2.24,1.29,3.8.42,3.49-1.95a10.23,10.23,0,0,0-4.59-6.61c-2.22-1.29-3.8-.42-3.49,1.94"/><g class="cls-105"><rect class="cls-106" x="356.65" y="146.5" width="19.26" height="13.68"/></g><g class="cls-94"><g class="cls-107"><path d="M371.28,156c2.34-4.19-4.53-12.3-12.27-8.5-5.07,8,9.92,12.69,12.27,8.5"/></g></g><path class="cls-86" d="M367.41,128l-2,1.87-2.88,14,7.79,3.62c4.23-3.33,6.42-6.23,7.89-12.22Z"/><path class="cls-87" d="M365.7,128a2.87,2.87,0,0,0,.1,2.73,1.54,1.54,0,0,0,1.52.54,1.68,1.68,0,0,0,1.27-1.09,2.36,2.36,0,0,0-.08,1.86,1.83,1.83,0,0,0,1.43,1.14,1.61,1.61,0,0,0,1.6-.87,2,2,0,0,0,.76,2.5,2.42,2.42,0,0,0,2.79-.64,1.55,1.55,0,0,0,1.6,2.3,3,3,0,0,0,1.79-1.58,16.33,16.33,0,0,0,1.74-3.21,1.58,1.58,0,0,0-.34-1.67,1.56,1.56,0,0,0-1.67-.35,7.07,7.07,0,0,0-.46-1.55,2.15,2.15,0,0,0-1-1.13,1.3,1.3,0,0,0-1.46.27,2.05,2.05,0,0,0-.74-2.28,1.91,1.91,0,0,0-2.28.08,2.45,2.45,0,0,0-.37-.74,2.4,2.4,0,0,0-3.36-.5A7.71,7.71,0,0,0,365.7,128"/><path class="cls-87" d="M365.23,159.27s3.18-7.21,5.23-11.77,1.87-7.8-3.07-11.66l.21.09a4.09,4.09,0,0,0,5.26-2.4v-.1l-7.43-3.4a2,2,0,0,0-2.66.81l-.94,1.58a7.51,7.51,0,0,0-.8,6l1.57,5.48-4,8Z"/><path d="M329.2,230.33,371.28,156s-10.62.77-12.27-8.5l-37.49,58.27c-17,24.7,2.07,33.9,7.68,24.54"/><g class="cls-10"><g class="cls-108"><path d="M306.57,251.87c3.74-.79,6.07-4.45,6.26-8.26a11.79,11.79,0,0,1-16,3.23c1.73,3.38,6,5.83,9.72,5"/></g></g></svg>