<svg xmlns="http://www.w3.org/2000/svg" viewBox="0 0 180.73 329.45"><g id="Layer_2" data-name="Layer 2"><g id="Layer_1-2" data-name="Layer 1"><path d="M120.76,206.07a3,3,0,1,0,0-6H62.3a3,3,0,0,0,0,6Z"/><path d="M144.1,232.18H39a3,3,0,0,0,0,6H144.1a3,3,0,1,0,0-6Z"/><path d="M127.14,135.57a5.22,5.22,0,1,0,5.21,5.21A5.22,5.22,0,0,0,127.14,135.57Zm.8,5.25a.81.81,0,0,1-.8.81.81.81,0,1,1,0-1.62A.76.76,0,0,1,127.94,140.82Z"/><path d="M73.53,135.57a5.22,5.22,0,1,0,5.21,5.21A5.21,5.21,0,0,0,73.53,135.57Zm.8,5.25a.81.81,0,0,1-.8.81.81.81,0,0,1,0-1.62A.79.79,0,0,1,74.33,140.82Z"/><path d="M91.37,135.57a5.22,5.22,0,1,0,5.21,5.21A5.21,5.21,0,0,0,91.37,135.57Zm.84,5.25a.81.81,0,0,1-.8.81.81.81,0,0,1,0-1.62A.79.79,0,0,1,92.21,140.82Z"/><path d="M109.26,135.57a5.22,5.22,0,1,0,5.21,5.21A5.21,5.21,0,0,0,109.26,135.57Zm.8,5.25a.81.81,0,1,1-.8-.81A.76.76,0,0,1,110.06,140.82Z"/><path d="M142.93,149.08h-3.86V114.31a7.09,7.09,0,0,0-7.09-7.09H114.91v-5.77a7.09,7.09,0,0,0,2.72-1.69,7.16,7.16,0,0,0,.84-9.1l-4.11-6.06a2.2,2.2,0,0,0-3-.59,2.36,2.36,0,0,0-.59.59l-4.11,6.06a7.12,7.12,0,0,0,1.91,10,7.7,7.7,0,0,0,2,1v5.7H93.76v-5.81a7,7,0,0,0,2.71-1.69,7.16,7.16,0,0,0,.85-9.1L93.21,84.6a2.2,2.2,0,0,0-3-.59,2.36,2.36,0,0,0-.59.59l-4.11,6.06a7.12,7.12,0,0,0,1.91,10,7.54,7.54,0,0,0,2,1v5.7H72.61v-5.81a7,7,0,0,0,2.71-1.69,7.16,7.16,0,0,0,.85-9.1L72.05,84.6A2.18,2.18,0,0,0,69,84a2.36,2.36,0,0,0-.59.59l-4.11,6.06a7.12,7.12,0,0,0,1.91,10,7.54,7.54,0,0,0,2,1v5.73H51.09A7.1,7.1,0,0,0,44,114.38v34.7H40.11a2.22,2.22,0,0,0-2.21,2.2v7.31a5.22,5.22,0,0,0,5.22,5.22h96.76a5.21,5.21,0,0,0,5.21-5.22v-7.31a2.15,2.15,0,0,0-2.16-2.2ZM110.28,96.24a2.85,2.85,0,0,1,0-3.12l2.28-3.38,2.27,3.38a2.76,2.76,0,0,1-.73,3.82,2.67,2.67,0,0,1-3.82-.7Zm-21.19,0a2.85,2.85,0,0,1,0-3.12l2.28-3.38,2.28,3.38a2.77,2.77,0,0,1-.74,3.82,2.67,2.67,0,0,1-3.82-.7Zm-21.15,0a2.85,2.85,0,0,1,0-3.12l2.28-3.38,2.27,3.38a2.76,2.76,0,0,1-.73,3.82,2.67,2.67,0,0,1-3.82-.7ZM48.37,114.38a2.69,2.69,0,0,1,2.68-2.68l80.93-.07a2.69,2.69,0,0,1,2.68,2.68v2.24a8,8,0,0,1-11,2.75,7.91,7.91,0,0,1-3-3.16,2.18,2.18,0,0,0-2.94-1,2.11,2.11,0,0,0-1,.92,0,0,0,0,1,0,0,8,8,0,0,1-14.21,0,0,0,0,0,0,0,0,2.18,2.18,0,0,0-3-.88,2.39,2.39,0,0,0-.92.92,8,8,0,0,1-10.8,3.41,7.86,7.86,0,0,1-3.41-3.41.26.26,0,0,1-.07-.15,2.21,2.21,0,0,0-3-.7,2.08,2.08,0,0,0-.77.85,8,8,0,0,1-14.25,0,2.23,2.23,0,0,0-3-1,2.37,2.37,0,0,0-1,1,8,8,0,0,1-10.8,3.45,8.17,8.17,0,0,1-3.19-3Zm0,8.41a12.43,12.43,0,0,0,15.94-1.87,12.45,12.45,0,0,0,17.55.58c.18-.18.4-.36.59-.58a12.31,12.31,0,0,0,9.07,3.93,12.48,12.48,0,0,0,9.07-3.93,12.45,12.45,0,0,0,17.55.58c.18-.18.4-.36.59-.58a12.42,12.42,0,0,0,15.93,1.87v26.29H48.37Zm92.35,35.8a.81.81,0,0,1-.8.81H43.12a.82.82,0,0,1-.81-.81v-5.1h98.41Z"/><path d="M150.93,0c6.68,1.66,13,3.91,18.24,8.74,6.75,6.25,10.78,13.75,11.42,23,.09,1.39.14,2.78.14,4.17q-.07,129.11-.17,258.19c0,15.63-9.2,28.73-23.58,33.21A44.56,44.56,0,0,1,144,329.14c-35.59.16-71.19-.28-106.76.3A36.32,36.32,0,0,1,0,292.39C.51,230,.18,167.64.18,105.26c0-22.83.44-45.67-.13-68.48C-.43,17.85,13.37,2.93,29.83.47A2.93,2.93,0,0,0,30.64,0ZM164.6,277.74V49.08H18.46V277.74ZM89.91,319a15.38,15.38,0,1,0-15.5-15.14A15.48,15.48,0,0,0,89.91,319ZM91,20.58c-5,0-10.07,0-15.1,0-4.06,0-6.34,2-6.27,5.25s2.28,5,6.17,5q14.94,0,29.87,0c4,0,6.4-2.06,6.32-5.25s-2.38-5-6.22-5C100.89,20.55,96,20.58,91,20.58ZM58.79,30.9a5,5,0,1,0-4.94-5.25A5.12,5.12,0,0,0,58.79,30.9Z"/></g></g></svg>