<svg id="Layer_1" data-name="Layer 1" xmlns="http://www.w3.org/2000/svg" xmlns:xlink="http://www.w3.org/1999/xlink" viewBox="0 0 100 100"><defs><style>.cls-1{fill:none;}.cls-2{clip-path:url(#clip-path);}.cls-3{fill:url(#linear-gradient);}.cls-4{clip-path:url(#clip-path-2);}.cls-5{fill:url(#linear-gradient-2);}.cls-6{clip-path:url(#clip-path-3);}.cls-7{fill:url(#linear-gradient-3);}.cls-8{clip-path:url(#clip-path-4);}.cls-9{fill:url(#linear-gradient-4);}</style><clipPath id="clip-path"><path class="cls-1" d="M27,78.63c8.58,2.46-1.33,10.52-1.33,10.52,36.52-13.32,21-20.42,21-20.42C41.3,72.52,27,78.63,27,78.63"/></clipPath><linearGradient id="linear-gradient" x1="-2062.57" y1="12671.94" x2="-2061.86" y2="12671.94" gradientTransform="matrix(0, 31.37, 31.37, 0, -397508.9, 64774.44)" gradientUnits="userSpaceOnUse"><stop offset="0" stop-color="#00ffaf"/><stop offset="0.06" stop-color="#00edad"/><stop offset="0.32" stop-color="#00a6a7"/><stop offset="0.55" stop-color="#006ea2"/><stop offset="0.75" stop-color="#00469f"/><stop offset="0.91" stop-color="#002d9d"/><stop offset="1" stop-color="#00249c"/></linearGradient><clipPath id="clip-path-2"><path class="cls-1" d="M3.81,60.78s10.33-7.53,10.51,1.39c0,0,9.56-12.26,14.59-16.46,0,0-.77-4.45-4.52-4.45-3.55,0-9.78,4-20.58,19.52"/></clipPath><linearGradient id="linear-gradient-2" x1="-2064.35" y1="12671.56" x2="-2063.65" y2="12671.56" gradientTransform="matrix(0, 32.62, 32.62, 0, -413287.14, 67367.54)" xlink:href="#linear-gradient"/><clipPath id="clip-path-3"><path class="cls-1" d="M33.4,60.58a4.68,4.68,0,1,1,3.71,1.82,4.68,4.68,0,0,1-3.71-1.82M46.6,50.41a4.67,4.67,0,1,1,3.7,1.82,4.67,4.67,0,0,1-3.7-1.82M59.79,40.24a4.67,4.67,0,1,1,3.7,1.82,4.66,4.66,0,0,1-3.7-1.82M96.1,11.05a1,1,0,0,0-.19,1.34C85,20.44,72.06,22.6,69.59,23a.44.44,0,0,0-.38,0l0,.05c-.94-.11-9.67-.77-24.88,11-16.13,12.44-28.55,28.9-28.55,28.9L21.21,70,26.7,77.1s19.08-7.83,35.21-20.27C77.07,45.14,78.7,36.55,78.83,35.56h0v0l0,0a.38.38,0,0,0,.1-.34c1-2.27,6.36-14.27,16.94-22.78a1,1,0,1,0,1.51-1.18.93.93,0,0,0-.76-.38,1,1,0,0,0-.58.2"/></clipPath><linearGradient id="linear-gradient-3" x1="-2101.57" y1="12671.46" x2="-2100.86" y2="12671.46" gradientTransform="matrix(0, 106.16, 106.16, 0, -1345095.89, 223102.74)" xlink:href="#linear-gradient"/><clipPath id="clip-path-4"><path class="cls-1" d="M6.35,72.37s1-1.2,2.16-.91a1.66,1.66,0,0,1,.6.29c1.4,1-5.27,3.93-6.75,12.77a18.55,18.55,0,0,0,9.73-1.74c2.58-1.2,4-2.39,4.34-1.54a1.8,1.8,0,0,1,.13.66c0,1.19-1.43,1.85-1.43,1.85a14.85,14.85,0,0,0,8.75-6l-1.55-2a10,10,0,0,1-5.9,4s.95-.44,1-1.25a1.17,1.17,0,0,0-.08-.44c-.23-.57-1.19.23-2.93,1a12.59,12.59,0,0,1-6.56,1.17c1-6,5.49-7.92,4.55-8.61a1,1,0,0,0-.4-.19,1.65,1.65,0,0,0-1.46.61,10,10,0,0,1,5.41-4.68l-1.55-2a14.87,14.87,0,0,0-8,6.94"/></clipPath><linearGradient id="linear-gradient-4" x1="-2057.91" y1="12671.95" x2="-2057.2" y2="12671.95" gradientTransform="matrix(0, 29.11, 29.11, 0, -368805.97, 59963.05)" xlink:href="#linear-gradient"/></defs><g class="cls-2"><rect class="cls-3" x="31.46" y="59.51" width="24.95" height="38.85" transform="translate(-40 112.35) rotate(-82.61)"/></g><g class="cls-4"><rect class="cls-5" x="4.38" y="37.93" width="23.97" height="27.57" transform="translate(-37.03 61.29) rotate(-82.61)"/></g><g class="cls-6"><rect class="cls-7" x="18.63" y="-0.96" width="76.24" height="89.88" transform="translate(5.84 94.59) rotate(-82.61)"/></g><g class="cls-8"><rect class="cls-9" x="2.08" y="63.24" width="22.08" height="23.85" transform="translate(-63.11 78.5) rotate(-82.61)"/></g></svg>