<svg id="Layer_1" data-name="Layer 1" xmlns="http://www.w3.org/2000/svg" viewBox="0 0 50 50"><path d="M16.55,48.76V28.16c0-1.28.49-1.77,1.77-1.77H31.55c1.21,0,1.71.51,1.71,1.72V48.76Zm9.75-12.6c0-.89,0-1.79,0-2.69a1.39,1.39,0,1,0-2.78,0c0,1.78,0,3.56,0,5.33a1.39,1.39,0,1,0,2.78,0C26.31,37.93,26.3,37.05,26.3,36.16Z"/><path d="M36.05,48.76v-14l.47,0H47c1.15,0,1.68.52,1.68,1.66,0,3.5,0,7,0,10.48a1.78,1.78,0,0,1-1,1.87Z"/><path d="M14,48.76v-14l-.47,0H3c-1.15,0-1.68.52-1.68,1.66,0,3.5,0,7,0,10.48a1.78,1.78,0,0,0,1,1.87Z"/><path d="M24.86,23.61H18.18A1.44,1.44,0,0,1,16.55,22a9.62,9.62,0,0,1,.88-4.87,8.07,8.07,0,0,1,7-4.6,8,8,0,0,1,7.52,3.8,8.09,8.09,0,0,1,1.34,4.61c0,.4,0,.8,0,1.2a1.39,1.39,0,0,1-1.48,1.48Z"/><path d="M24.9,1.24a4.28,4.28,0,0,1,4.18,4.27,4.18,4.18,0,0,1-8.35,0A4.3,4.3,0,0,1,24.9,1.24Z"/></svg>