<svg xmlns="http://www.w3.org/2000/svg" viewBox="0 0 364.96 314.42"><g id="Layer_2" data-name="Layer 2"><g id="Layer_1-2" data-name="Layer 1"><path d="M61.2,179.72A68.23,68.23,0,0,1,66.26,173c3.54-3.71,8.09-5.65,13.12-6.56q15.16-2.74,30.33-5.6a8,8,0,0,0,2.63-1q29.55-18.65,59-37.38c3.72-2.37,7.44-3.24,11.47-1.12a10.2,10.2,0,0,1,5.33,7.64c1.35,7.39,2.77,14.76,4,22.17a2.62,2.62,0,0,0,2.23,2.45c3.39.88,6.74,1.93,10.12,2.86a4.05,4.05,0,0,1,3.15,3.55c.7,4,1.43,8,2.22,12a4,4,0,0,1-1.76,4.4c-2.82,2.07-5.56,4.26-8.42,6.29a2.47,2.47,0,0,0-1.17,2.9c1.33,6.76,2.62,13.54,3.77,20.33,1.23,7.33-4.74,13.12-12.06,11.89-4.39-.74-8.81-1.36-13.23-2l-51.27-7.63c-.5-.07-1-.1-1.75-.18.44,2.47.87,4.83,1.3,7.2.68,3.69-.18,4.94-3.88,5.63l-8.57,1.59c1.2,6.53,2.37,12.91,3.56,19.29.85,4.6,0,8.79-3.22,12.28a13.51,13.51,0,0,1-22.79-4.81,21.82,21.82,0,0,1-.81-3.28q-2.82-15.08-5.59-30.16c-.11-.61-.24-1.21-.33-1.65A65.59,65.59,0,0,1,76,212.66c-11.88-3.67-18.58-14.72-16.55-27a3.71,3.71,0,0,0,0-.81Zm121.18,29.95c-4.76-25.76-9.49-51.35-14.26-77.18-.34.25-.52.4-.71.52q-25.14,15.93-50.3,31.82c-.89.56-.84,1.13-.69,2q3,16.32,6,32.66a1.65,1.65,0,0,0,1.68,1.61c14.3,2.08,28.6,4.24,42.89,6.36C172.07,208.18,177.14,208.9,182.38,209.67Zm-72.68-41.9c-3.21.58-6.25,1.14-9.29,1.71-7.33,1.37-14.69,2.55-22,4.19a16.56,16.56,0,0,0-12.63,15.74A16.94,16.94,0,0,0,86,206.6c9.62-1.68,19.21-3.52,28.8-5.3.32-.06.62-.17,1-.28C113.79,189.9,111.75,178.87,109.7,167.77Zm69.53-40.72c-2-.76-5,1-4.71,2.69q7.36,39.9,14.72,79.81a1.44,1.44,0,0,0,1.34,1.39c3.85.8,5.66-.9,4.94-4.77q-4.54-24.66-9.11-49.32-2.43-13.15-4.84-26.32C181.29,129,180.81,127.68,179.23,127.05ZM90.41,212.73C92.48,224,94.5,235,96.55,245.94a6.8,6.8,0,0,0,10.61,4.4,6.57,6.57,0,0,0,2.7-7c-1-5.77-2.12-11.54-3.19-17.31-1-5.21-1.93-10.42-2.92-15.77ZM194,160.47c1,5.41,1.94,10.5,2.93,15.88,2-1.51,3.85-2.87,5.64-4.31.25-.19.3-.8.24-1.18-.41-2.45-.85-4.89-1.35-7.32a1.7,1.7,0,0,0-.78-1.13C198.59,161.74,196.47,161.18,194,160.47Zm-82.32,55.22,6.66-1.24c-.44-2.36-.84-4.49-1.24-6.66L110.43,209Z"/><path d="M227.3,162.77a12.42,12.42,0,0,1-1.55-3.06,2.86,2.86,0,0,1,1.79-3.15,5.89,5.89,0,0,1,1.61-.49c6.66-1.13,13.33-2.27,20-3.36,2.45-.41,4.19.68,4.5,2.68s-.9,3.53-3.25,4c-4.33.77-8.67,1.48-13,2.21-2.34.39-4.67.81-7,1.15A26.26,26.26,0,0,1,227.3,162.77Z"/><path d="M224.81,177.28c.35.22,1,.63,1.67,1.07,3.06,2.11,6.13,4.21,9.17,6.35,2,1.44,2.52,3.36,1.33,5.05s-3.09,1.88-5.06.55c-3.51-2.36-7-4.73-10.45-7.17-1.75-1.23-2.21-3-1.37-4.55S222.69,176.42,224.81,177.28Z"/><path d="M213.29,140.54l5.57-8.17c.7-1,1.37-2.07,2.13-3a3.38,3.38,0,0,1,4.65-.92,3.3,3.3,0,0,1,.85,4.76q-3.68,5.57-7.55,11a3.25,3.25,0,0,1-4.6,1.05C212.92,144.35,212.43,142.75,213.29,140.54Z"/><path d="M80,199.8c-4-1.62-6.19-4-7.06-7.46A3.38,3.38,0,0,1,75.14,188c1.74-.53,3.36.34,4.16,2.25,1.21,2.9,2.12,3.39,5.22,2.83,1.73-.31,3.44-.68,5.17-.94,2.21-.33,3.91.76,4.26,2.64s-.8,3.55-3,4a69.63,69.63,0,0,1-7.17,1.2A20.19,20.19,0,0,1,80,199.8Z"/><path d="M105.11,189.84a3.31,3.31,0,1,1-4.26,2A3.32,3.32,0,0,1,105.11,189.84Z"/><path d="M137,236.69v34.7H15.36V81.11H137v52.41l13.39-13.4,0-50c0-1.16,0-2.32-.12-3.47-.53-7.68-3.88-13.92-9.5-19.12-4.34-4-9.62-5.9-15.18-7.28H25.49c-.22.14-.43.36-.67.39A29.66,29.66,0,0,0,0,70.88c.47,19,.11,38,.11,57,0,51.91.28,103.82-.15,155.72a30.23,30.23,0,0,0,31,30.83c29.61-.48,59.23-.11,88.84-.25a37.37,37.37,0,0,0,10.78-1.54c12-3.73,19.6-14.63,19.62-27.63q0-27.5,0-55ZM63.19,57.41c4.19,0,8.38,0,12.56,0s8.2,0,12.3,0c3.19,0,5.11,1.62,5.17,4.18S91.3,65.94,88,66q-12.43,0-24.86,0c-3.24,0-5.09-1.57-5.14-4.18S59.82,57.44,63.19,57.41ZM49,57.61a4.32,4.32,0,0,1,4.27,4.25A4.24,4.24,0,1,1,49,57.61ZM74.81,305.75a12.8,12.8,0,1,1-.06-25.59,12.8,12.8,0,0,1,.06,25.59Z"/><path d="M330.46,51.54H288.29a5.74,5.74,0,0,0-5.75,5.75V99.46a5.75,5.75,0,0,0,5.75,5.75h42.17a5.76,5.76,0,0,0,5.75-5.75V57.29A5.75,5.75,0,0,0,330.46,51.54Zm-5.86,19c0,.34,0,.68,0,1,0,10.38-7.9,22.35-22.35,22.35a22.26,22.26,0,0,1-12.07-3.52,17.15,17.15,0,0,0,1.9.1,15.75,15.75,0,0,0,9.75-3.36,7.85,7.85,0,0,1-7.34-5.45,8.49,8.49,0,0,0,3.54-.14,7.87,7.87,0,0,1-6.29-7.72v-.09a8,8,0,0,0,3.55,1,7.85,7.85,0,0,1-3.5-6.54,7.73,7.73,0,0,1,1.07-4,22.28,22.28,0,0,0,16.19,8.22,7.88,7.88,0,0,1,13.41-7.17,15.49,15.49,0,0,0,5-1.9A7.82,7.82,0,0,1,324,67.71a15.73,15.73,0,0,0,4.53-1.22A16.57,16.57,0,0,1,324.6,70.56Z"/><path d="M356.35,150.68a28.51,28.51,0,0,0-44.85,34.39l-4.05,14.77,15.11-4a28.46,28.46,0,0,0,13.62,3.47h0a28.33,28.33,0,0,0,20.16-48.66Zm-20.16,43.85a23.67,23.67,0,0,1-12.06-3.29l-.86-.52-9,2.35,2.38-8.74-.56-.9a23.73,23.73,0,1,1,44-12.59A24,24,0,0,1,336.19,194.53Zm13-17.74c-.71-.36-4.21-2.08-4.87-2.31s-1.13-.36-1.6.36-1.84,2.31-2.26,2.8-.84.54-1.54.18c-4.19-2.09-6.94-3.73-9.7-8.47-.73-1.26.74-1.17,2.1-3.89a1.33,1.33,0,0,0-.07-1.25c-.18-.36-1.6-3.86-2.19-5.29s-1.17-1.19-1.61-1.22-.88,0-1.36,0a2.65,2.65,0,0,0-1.9.89,8,8,0,0,0-2.49,5.94c0,3.5,2.56,6.89,2.9,7.37s5,7.66,12.17,10.75c4.52,2,6.29,2.12,8.55,1.79,1.38-.21,4.21-1.72,4.8-3.39a6,6,0,0,0,.41-3.39C350.37,177.32,349.89,177.14,349.19,176.79Z"/><path d="M261.89,233.66H232.63a2.45,2.45,0,0,0-2.43,2.46v29.2a2.45,2.45,0,0,0,2.43,2.46h29.26a2.45,2.45,0,0,0,2.44-2.46v-29.2A2.45,2.45,0,0,0,261.89,233.66Zm-21.37,29.25h-5.06V246.62h5.07v16.29ZM238,244.4a2.94,2.94,0,1,1,2.93-2.94A2.94,2.94,0,0,1,238,244.4Zm21.49,18.51h-5.06V255c0-1.89,0-4.32-2.63-4.32s-3,2.06-3,4.19v8.06h-5.06V246.62h4.86v2.22h.07a5.31,5.31,0,0,1,4.79-2.62c5.12,0,6.07,3.37,6.07,7.76Z"/><path d="M254.34,22.37a22.38,22.38,0,1,0-25.87,22.1V28.84h-5.68V22.37h5.68V17.44c0-5.6,3.34-8.7,8.45-8.7a34.18,34.18,0,0,1,5,.44v5.5h-2.82c-2.78,0-3.65,1.72-3.65,3.49v4.2h6.2l-1,6.47h-5.21V44.47A22.37,22.37,0,0,0,254.34,22.37Z"/></g></g></svg>