<svg xmlns="http://www.w3.org/2000/svg" xmlns:xlink="http://www.w3.org/1999/xlink" viewBox="0 0 458.82 453.44"><defs><style>.cls-1{fill:#f5f5f5;}.cls-2{fill:#e0e0e0;}.cls-3{fill:#e6e6e6;}.cls-4,.cls-6{fill:url(#linear-gradient);}.cls-5{fill:url(#linear-gradient-2);}.cls-10,.cls-13,.cls-17,.cls-34,.cls-38,.cls-6{isolation:isolate;}.cls-10,.cls-13,.cls-17,.cls-34,.cls-6{opacity:0.4;}.cls-7{fill:url(#linear-gradient-4);}.cls-10,.cls-8{fill:url(#linear-gradient-5);}.cls-9{fill:url(#linear-gradient-6);}.cls-11{fill:url(#linear-gradient-8);}.cls-12,.cls-13{fill:url(#linear-gradient-9);}.cls-14{fill:#fff;}.cls-15{fill:url(#linear-gradient-11);}.cls-16,.cls-17{fill:url(#linear-gradient-12);}.cls-18{fill:url(#linear-gradient-14);}.cls-19{fill:#ba68c8;}.cls-20{fill:#37474f;}.cls-21{fill:#455a64;}.cls-22{fill:url(#linear-gradient-15);}.cls-23{fill:url(#linear-gradient-16);}.cls-24{fill:url(#linear-gradient-17);}.cls-25{fill:url(#linear-gradient-18);}.cls-26{fill:url(#linear-gradient-19);}.cls-27{fill:#ffa8a7;}.cls-28{fill:#f28f8f;}.cls-29{fill:#263238;}.cls-30{fill:#c87a7b;}.cls-31{fill:url(#linear-gradient-20);}.cls-32{fill:url(#linear-gradient-21);}.cls-33{fill:url(#linear-gradient-22);}.cls-35{fill:url(#linear-gradient-23);}.cls-36{fill:url(#linear-gradient-24);}.cls-37{fill:url(#linear-gradient-25);}.cls-38{opacity:0.2;}</style><linearGradient id="linear-gradient" x1="27.19" y1="124.65" x2="50.64" y2="124.65" gradientUnits="userSpaceOnUse"><stop offset="0" stop-color="#00ffaf"/><stop offset="0.06" stop-color="#00edad"/><stop offset="0.32" stop-color="#00a6a7"/><stop offset="0.55" stop-color="#006ea2"/><stop offset="0.75" stop-color="#00469f"/><stop offset="0.91" stop-color="#002d9d"/><stop offset="1" stop-color="#00249c"/></linearGradient><linearGradient id="linear-gradient-2" x1="27.3" y1="134.47" x2="42.41" y2="134.47" xlink:href="#linear-gradient"/><linearGradient id="linear-gradient-4" x1="32.45" y1="126.09" x2="54.07" y2="126.09" xlink:href="#linear-gradient"/><linearGradient id="linear-gradient-5" x1="346.57" y1="90.43" x2="362" y2="90.43" xlink:href="#linear-gradient"/><linearGradient id="linear-gradient-6" x1="346.61" y1="96.91" x2="356.58" y2="96.91" xlink:href="#linear-gradient"/><linearGradient id="linear-gradient-8" x1="350.03" y1="91.38" x2="364.28" y2="91.38" xlink:href="#linear-gradient"/><linearGradient id="linear-gradient-9" x1="391.79" y1="251.8" x2="417.26" y2="251.8" xlink:href="#linear-gradient"/><linearGradient id="linear-gradient-11" x1="390.33" y1="268.43" x2="426.32" y2="268.43" xlink:href="#linear-gradient"/><linearGradient id="linear-gradient-12" x1="22.16" y1="273.4" x2="47.61" y2="273.4" xlink:href="#linear-gradient"/><linearGradient id="linear-gradient-14" x1="12.59" y1="289.99" x2="48.57" y2="289.99" xlink:href="#linear-gradient"/><linearGradient id="linear-gradient-15" x1="79.54" y1="253.41" x2="109.03" y2="253.41" xlink:href="#linear-gradient"/><linearGradient id="linear-gradient-16" x1="134.2" y1="337.05" x2="140.04" y2="337.05" xlink:href="#linear-gradient"/><linearGradient id="linear-gradient-17" x1="134.2" y1="299.1" x2="140.04" y2="299.1" xlink:href="#linear-gradient"/><linearGradient id="linear-gradient-18" x1="134.2" y1="261.15" x2="140.04" y2="261.15" xlink:href="#linear-gradient"/><linearGradient id="linear-gradient-19" x1="134.2" y1="223.2" x2="140.04" y2="223.2" xlink:href="#linear-gradient"/><linearGradient id="linear-gradient-20" x1="147.59" y1="158.04" x2="161.82" y2="158.04" xlink:href="#linear-gradient"/><linearGradient id="linear-gradient-21" x1="176.87" y1="106.55" x2="328.86" y2="106.55" xlink:href="#linear-gradient"/><linearGradient id="linear-gradient-22" x1="176.87" y1="242.84" x2="328.86" y2="242.84" xlink:href="#linear-gradient"/><linearGradient id="linear-gradient-23" x1="176.87" y1="177.94" x2="335.17" y2="177.94" xlink:href="#linear-gradient"/><linearGradient id="linear-gradient-24" x1="264.56" y1="388.48" x2="294.72" y2="388.48" xlink:href="#linear-gradient"/><linearGradient id="linear-gradient-25" x1="330.42" y1="378.38" x2="346.86" y2="378.38" xlink:href="#linear-gradient"/></defs><g id="Layer_2" data-name="Layer 2"><g id="Layer_1-2" data-name="Layer 1"><g id="freepik--Floor--inject-74"><ellipse class="cls-1" cx="229.41" cy="317.32" rx="229.41" ry="136.12"/></g><g id="freepik--Shadows--inject-74"><ellipse class="cls-2" cx="308.94" cy="390.87" rx="49.78" ry="28.75"/><path class="cls-2" d="M75.89,392.92l2.83,1.63a4.65,4.65,0,0,0,4.62,0l246.89-142.1a2,2,0,0,0,0-3.45l-2.82-1.63a4.6,4.6,0,0,0-4.62,0L75.89,389.47a2,2,0,0,0-.71,2.73A2,2,0,0,0,75.89,392.92Z"/></g><g id="freepik--Clouds--inject-74"><path class="cls-3" d="M162.33,37.77,158,40.29V36.82c0-2-1.65-2.72-3.67-1.55l-.15.09a7.34,7.34,0,0,0-2.34,2.2c-.11-3.4-3-4.55-6.47-2.54l-.27.16c-3.56,2.06-6.48,6.66-6.48,10.22v6.07l-4,2.34a6.46,6.46,0,0,0-3.16,4.91c0,1.71,1.4,2.3,3.11,1.31l5.38-3.1h0l10.54-6.08h0L162.33,44a6.49,6.49,0,0,0,3.08-4.94C165.41,37.37,164,36.78,162.33,37.77Z"/><path class="cls-3" d="M110.7,39.72,104,43.56V38.28c0-3.08-2.51-4.14-5.58-2.37l-.24.14a11.62,11.62,0,0,0-3.56,3.35c-.17-5.18-4.53-6.92-9.84-3.86l-.41.24C79,38.91,74.54,45.91,74.54,51.34v9.25l-6.13,3.55c-2.6,1.5-4.73,4.86-4.73,7.47s2.13,3.51,4.73,2l8.19-4.72h0l16-9.26h0L110.66,49.2c2.61-1.5,4.74-4.86,4.74-7.47S113.31,38.21,110.7,39.72Z"/></g><g id="freepik--Icons--inject-74"><path class="cls-4" d="M50.64,123.14l-7.41-4.26h-.07L45,113.77l.5-1,3.09-6-5-2.84-.33-.2h-.09c-1.37-.64-3.18-.47-5.18.67A15,15,0,0,0,33.3,109a16.12,16.12,0,0,0-3,8.73c0,2.36.82,4,2.13,4.86h0l2.1,1.2c-4.28,4.13-7.35,10.56-7.34,16V143l5.19,3,4.06-10.19-.19-.82,6.16-3.54,4-2.34v-4.14a5,5,0,0,0,1-.1C47.47,124.8,50.64,123.14,50.64,123.14Z"/><path class="cls-5" d="M27.3,139.72v3.21l5.19,3,4.06-10.19-.19-.82,6-3.52c-.95-2.8-1.86-5.42-1.86-5.42l-5.14-3C30.73,127,27.29,133.93,27.3,139.72Z"/><path class="cls-6" d="M50.64,123.14l-7.41-4.26h-.07L45,113.77l.5-1,3.09-6-5-2.84-.33-.2h-.09c-1.37-.64-3.18-.47-5.18.67A15,15,0,0,0,33.3,109a16.12,16.12,0,0,0-3,8.73c0,2.36.82,4,2.13,4.86h0l2.1,1.2c-4.28,4.13-7.35,10.56-7.34,16V143l5.19,3,4.06-10.19-.19-.82,6.16-3.54,4-2.34v-4.14a5,5,0,0,0,1-.1C47.47,124.8,50.64,123.14,50.64,123.14Z"/><path class="cls-7" d="M43.22,107.32a16.91,16.91,0,0,0-7.67,13.28c0,3.8,2.11,5.83,5,5.39-4.67,4.07-8.12,10.93-8.1,16.73v3.2l21.62-12.48v-3.2c0-5.8-3.49-8.67-8.16-7.34,2.92-2.94,5-7.38,5-11.18C50.92,106.84,47.47,104.87,43.22,107.32Z"/><path class="cls-8" d="M362,89.45l-4.88-2.82h0l1.21-3.37.33-.65,2-4-3.25-1.86-.22-.13h-.05a3.67,3.67,0,0,0-3.42.44,9.83,9.83,0,0,0-3.09,3,10.56,10.56,0,0,0-2,5.75A3.61,3.61,0,0,0,350,89h0l1.38.79a15.88,15.88,0,0,0-4.84,10.57v2.11l3.42,2,2.68-6.72-.13-.54,4-2.32,2.67-1.54V90.64l.67-.06C360,90.54,362,89.45,362,89.45Z"/><path class="cls-9" d="M346.61,100.38v2.11l3.42,2,2.68-6.72-.13-.54,4-2.32c-.63-1.84-1.23-3.57-1.23-3.57l-3.42-2C348.87,92,346.6,96.56,346.61,100.38Z"/><path class="cls-10" d="M362,89.45l-4.88-2.82h0l1.21-3.37.33-.65,2-4-3.25-1.86-.22-.13h-.05a3.67,3.67,0,0,0-3.42.44,9.83,9.83,0,0,0-3.09,3,10.56,10.56,0,0,0-2,5.75A3.61,3.61,0,0,0,350,89h0l1.38.79a15.88,15.88,0,0,0-4.84,10.57v2.11l3.42,2,2.68-6.72-.13-.54,4-2.32,2.67-1.54V90.64l.67-.06C360,90.54,362,89.45,362,89.45Z"/><path class="cls-11" d="M357.11,79a11.15,11.15,0,0,0-5.06,8.76c0,2.51,1.39,3.85,3.32,3.56-3.08,2.68-5.35,7.21-5.34,11v2.11l14.25-8.23V94.11c0-3.83-2.3-5.72-5.39-4.84a11.27,11.27,0,0,0,3.29-7.37C362.18,78.7,359.91,77.4,357.11,79Z"/></g><g id="freepik--Plants--inject-74"><path class="cls-12" d="M392.92,278.66l2.53,1.14.95.43,2.13,1s.41-14.1,4.83-24.46,12.29-20,13.64-25.82-3.09-8-3.09-8c-9.38-3.57-18.48,10.07-21,21.43S392.92,278.66,392.92,278.66Z"/><path class="cls-13" d="M392.92,278.66l2.53,1.14.95.43,2.13,1s.41-14.1,4.83-24.46,12.29-20,13.64-25.82-3.09-8-3.09-8c-9.38-3.57-18.48,10.07-21,21.43S392.92,278.66,392.92,278.66Z"/><path class="cls-14" d="M395.41,279.8l.95.43c-2-39.55,15.53-53.57,15.71-53.71a.46.46,0,0,0,.1-.63l0,0a.45.45,0,0,0-.63-.1l0,0C411.41,225.93,393.6,240.08,395.41,279.8Z"/><path class="cls-15" d="M390.33,272.31c-.15,3.63,3.76,10.15,3.76,10.15l6.71,4.75.88.63,9.82,7a8.92,8.92,0,0,0,7.41-5c2.61-5-1.16-10.44-.07-13.92s7.75-4.49,7.47-8.56-6.9-8.5-5.9-12.12,3.27-5.05,4-8a3.82,3.82,0,0,0-2.41-4.85,3,3,0,0,0-.59-.15c-2.25-.39-5.14.12-8,2.88s-4,4.67-7.27,5.47-6.67.29-8.41,3,.29,8.27-1.52,10.44S390.47,268.67,390.33,272.31Z"/><path class="cls-14" d="M400.8,287.21l.88.63a78.08,78.08,0,0,1,4.25-20.16c5.61-1.69,13.19-1,13.26-1a.48.48,0,0,0,.56-.37.47.47,0,0,0-.37-.55h-.1c-.31,0-7.29-.64-13,.85,5.24-14.06,12.78-21,12.9-21.13a.46.46,0,0,0,0-.65.48.48,0,0,0-.67,0c-.11.1-8.07,7.45-13.41,22.22a.48.48,0,0,0-.09.29A79.54,79.54,0,0,0,400.8,287.21Z"/><path class="cls-16" d="M46.49,300.32,44,301.46l-1,.43-2.14.95s-.41-14.1-4.83-24.47-12.29-20-13.63-25.82,3.08-8,3.08-8C34.87,241,44,254.61,46.49,266S46.49,300.32,46.49,300.32Z"/><path class="cls-17" d="M46.49,300.32,44,301.46l-1,.43-2.14.95s-.41-14.1-4.83-24.47-12.29-20-13.63-25.82,3.08-8,3.08-8C34.87,241,44,254.61,46.49,266S46.49,300.32,46.49,300.32Z"/><path class="cls-14" d="M44,301.46l-1,.43c2-39.56-15.53-53.57-15.72-53.71a.47.47,0,0,1,0-.67.47.47,0,0,1,.58-.07C28.05,247.58,45.8,261.73,44,301.46Z"/><path class="cls-18" d="M48.57,293.85C48.72,297.49,44.8,304,44.8,304l-6.7,4.74-.89.63-9.8,6.95a8.92,8.92,0,0,1-7.41-5c-2.61-5,1.16-10.44.07-13.93s-7.75-4.49-7.47-8.55,6.89-8.49,5.88-12.12-3.27-5-4-8a3.83,3.83,0,0,1,2.45-4.82,3.39,3.39,0,0,1,.55-.13c2.25-.4,5.14.11,8,2.88s4,4.66,7.27,5.46,6.67.29,8.41,3-.29,8.28,1.52,10.45S48.41,290.22,48.57,293.85Z"/><path class="cls-14" d="M38.1,308.75l-.89.63A78.48,78.48,0,0,0,33,289.22c-5.61-1.68-13.19-1-13.26-1a.46.46,0,0,1-.51-.41h0a.46.46,0,0,1,.42-.51,43.68,43.68,0,0,1,13,.84c-5.24-14.05-12.79-21-12.9-21.12a.47.47,0,0,1,.66-.66h0c.11.1,8.07,7.45,13.41,22.22a.48.48,0,0,1,.09.29A79.37,79.37,0,0,1,38.1,308.75Z"/></g><path class="cls-19" d="M333.22,5.34,325.31.77h0a3.55,3.55,0,0,0-4-.28L76.92,141.17a10.48,10.48,0,0,0-5.26,9.1V366.92a3.56,3.56,0,0,0,2.07,3.25l7.78,4.49,1.81-8.25,238.09-137a10.52,10.52,0,0,0,5.26-9.1V8.16Z"/><path class="cls-20" d="M333.22,5.34,325.31.77h0a3.55,3.55,0,0,0-4-.28L76.92,141.17a10.48,10.48,0,0,0-5.26,9.1V366.92a3.56,3.56,0,0,0,2.07,3.25l7.78,4.49,1.81-8.25,238.09-137a10.52,10.52,0,0,0,5.26-9.1V8.16Z"/><path class="cls-20" d="M84.54,151.38V365.7l-1.22.71-1.81,8.25-7.78-4.49a3.59,3.59,0,0,1-2.08-3.24V150.26a10.45,10.45,0,0,1,1.53-5.44Z"/><path class="cls-21" d="M334.58,8.13V224.79a10.49,10.49,0,0,1-5.27,9.1L109,360.68,84.91,374.56a3.58,3.58,0,0,1-5.37-3.09V154.81a10.48,10.48,0,0,1,5.26-9.1L109,131.77,329.2,5a3.57,3.57,0,0,1,4.89,1.29A3.53,3.53,0,0,1,334.58,8.13Z"/><path class="cls-20" d="M331,5.3h0a2.84,2.84,0,0,1,2.84,2.83V224.79a9.8,9.8,0,0,1-4.89,8.45L108.65,360l-24.12,13.9a2.83,2.83,0,0,1-3.86-1,2.86,2.86,0,0,1-.38-1.43V154.81a9.76,9.76,0,0,1,4.89-8.45l24.23-13.94L329.58,5.69A2.7,2.7,0,0,1,331,5.3m0-.75A3.52,3.52,0,0,0,329.2,5L109,131.77,84.8,145.71a10.48,10.48,0,0,0-5.26,9.1V371.47a3.58,3.58,0,0,0,3.58,3.58,3.52,3.52,0,0,0,1.79-.49L109,360.68,329.31,233.89a10.49,10.49,0,0,0,5.27-9.1V8.13A3.59,3.59,0,0,0,331,4.55Z"/><path class="cls-22" d="M109,131.77V360.68L84.91,374.56a3.58,3.58,0,0,1-5.37-3.09V154.81a10.48,10.48,0,0,1,5.26-9.1Z"/><path class="cls-1" d="M94.61,161.68l-8.89.2c-.25,0-.25-.35,0-.64l8.89-10.06A.54.54,0,0,1,95,151l8.89-.2c.26,0,.26.35,0,.64L95,161.47A.58.58,0,0,1,94.61,161.68Z"/><path class="cls-1" d="M103.86,157.38l-8.88,10a.51.51,0,0,1-.37.21l-8.89.22c-.25,0-.25-.36,0-.65l3-3.38a.82.82,0,0,1,.62-.28l5.29-.11a.69.69,0,0,0,.37-.21l5.42-6.15a.87.87,0,0,1,.62-.29l2.84-.05C104.13,156.73,104.13,157.08,103.86,157.38Z"/><path class="cls-1" d="M103.86,163.41l-8.88,10a.44.44,0,0,1-.37.21l-8.89.22c-.25,0-.25-.35,0-.65l3-3.37a.87.87,0,0,1,.62-.29l5.29-.1a.87.87,0,0,0,.37-.22l5.42-6.15a.82.82,0,0,1,.62-.28l2.84-.06C104.13,162.75,104.13,163.1,103.86,163.41Z"/><path class="cls-20" d="M171.46,319.91a.38.38,0,0,1-.37-.38V100a.38.38,0,1,1,.75-.13.28.28,0,0,1,0,.13V319.53a.38.38,0,0,1-.38.38Z"/><path class="cls-20" d="M165.62,307.57v.56a.9.9,0,0,1-.45.78l-20.87,12a.31.31,0,0,1-.42-.12.28.28,0,0,1,0-.15v-.55a.9.9,0,0,1,.45-.78l20.87-12a.3.3,0,0,1,.42.12A.23.23,0,0,1,165.62,307.57Z"/><path class="cls-2" d="M165.62,311.65v.55a.9.9,0,0,1-.45.78L144.3,325a.31.31,0,0,1-.42-.12.25.25,0,0,1,0-.14v-.56a.9.9,0,0,1,.45-.78l20.87-12a.3.3,0,0,1,.42.12A.26.26,0,0,1,165.62,311.65Z"/><path class="cls-2" d="M155.19,321.74v.56a.9.9,0,0,1-.45.78l-10.44,6a.31.31,0,0,1-.42-.12.25.25,0,0,1,0-.14v-.56a.9.9,0,0,1,.45-.78l10.44-6a.29.29,0,0,1,.41.09A.26.26,0,0,1,155.19,321.74Z"/><ellipse class="cls-19" cx="128.48" cy="331.22" rx="17.72" ry="10.02" transform="translate(-213.59 235.27) rotate(-53.13)"/><ellipse class="cls-14" cx="128.48" cy="331.22" rx="17.72" ry="10.02" transform="translate(-213.59 235.27) rotate(-53.13)"/><path class="cls-20" d="M121.68,347.51a7.18,7.18,0,0,1-3.6-.9c-2.21-1.28-3.43-3.82-3.43-7.17,0-7.46,6.06-17,13.51-21.34,4-2.3,7.8-2.75,10.45-1.21,2.22,1.28,3.44,3.82,3.44,7.17,0,7.46-6.06,17-13.51,21.34A14.15,14.15,0,0,1,121.68,347.51ZM135,316.73a13.18,13.18,0,0,0-6.47,2c-7.25,4.2-13.13,13.49-13.13,20.71,0,3.07,1.08,5.38,3.06,6.52,2.41,1.4,6,1,9.7-1.21,7.25-4.18,13.14-13.47,13.14-20.69,0-3.07-1.09-5.38-3.06-6.52A6.34,6.34,0,0,0,135,316.73Z"/><path class="cls-23" d="M140,335.37a6.08,6.08,0,0,1-2.92,4.61c-1.61.93-2.92.37-2.92-1.24a6.08,6.08,0,0,1,2.92-4.61C138.73,333.2,140,333.75,140,335.37Z"/><path class="cls-20" d="M165.62,269.62v.56a.9.9,0,0,1-.45.78L144.3,283a.31.31,0,0,1-.42-.12.28.28,0,0,1,0-.15v-.55a.9.9,0,0,1,.45-.78l20.87-12a.3.3,0,0,1,.42.12A.23.23,0,0,1,165.62,269.62Z"/><path class="cls-2" d="M165.62,273.7v.55a.9.9,0,0,1-.45.78L144.3,287a.31.31,0,0,1-.42-.12.25.25,0,0,1,0-.14v-.56a.9.9,0,0,1,.45-.78l20.87-12a.3.3,0,0,1,.42.12A.26.26,0,0,1,165.62,273.7Z"/><path class="cls-2" d="M155.19,283.79v.56a.9.9,0,0,1-.45.78l-10.44,6a.31.31,0,0,1-.42-.12.25.25,0,0,1,0-.14v-.56a.9.9,0,0,1,.45-.78l10.44-6a.29.29,0,0,1,.41.09A.26.26,0,0,1,155.19,283.79Z"/><ellipse class="cls-19" cx="128.45" cy="293.31" rx="17.72" ry="10.02" transform="translate(-183.27 220.08) rotate(-53.13)"/><ellipse class="cls-14" cx="128.45" cy="293.31" rx="17.72" ry="10.02" transform="translate(-183.27 220.08) rotate(-53.13)"/><path class="cls-20" d="M121.68,309.56a7.18,7.18,0,0,1-3.6-.9c-2.21-1.28-3.43-3.82-3.43-7.17,0-7.46,6.06-17,13.51-21.34,4-2.31,7.8-2.75,10.45-1.21,2.22,1.27,3.44,3.82,3.44,7.16,0,7.47-6.06,17-13.51,21.35A14.15,14.15,0,0,1,121.68,309.56ZM135,278.78a13.18,13.18,0,0,0-6.47,2c-7.25,4.24-13.13,13.48-13.13,20.71,0,3.07,1.08,5.38,3.06,6.52,2.41,1.4,6,1,9.7-1.21,7.25-4.18,13.14-13.47,13.14-20.7,0-3.06-1.09-5.38-3.06-6.51A6.34,6.34,0,0,0,135,278.78Z"/><path class="cls-24" d="M140,297.42a6.06,6.06,0,0,1-2.92,4.6c-1.61.94-2.92.38-2.92-1.23a6.08,6.08,0,0,1,2.92-4.61C138.73,295.25,140,295.8,140,297.42Z"/><path class="cls-20" d="M165.62,231.67v.56a.9.9,0,0,1-.45.78L144.3,245a.31.31,0,0,1-.42-.12.28.28,0,0,1,0-.15v-.55a.9.9,0,0,1,.45-.78l20.87-12a.3.3,0,0,1,.42.12A.23.23,0,0,1,165.62,231.67Z"/><path class="cls-2" d="M165.62,235.74v.56a.9.9,0,0,1-.45.78l-20.87,12a.31.31,0,0,1-.42-.12.25.25,0,0,1,0-.14v-.56a.9.9,0,0,1,.45-.78l20.87-12a.3.3,0,0,1,.42.12A.23.23,0,0,1,165.62,235.74Z"/><path class="cls-2" d="M155.19,245.84v.56a.9.9,0,0,1-.45.78l-10.44,6a.31.31,0,0,1-.42-.12.25.25,0,0,1,0-.14v-.56a.9.9,0,0,1,.45-.78l10.44-6a.29.29,0,0,1,.41.09A.26.26,0,0,1,155.19,245.84Z"/><ellipse class="cls-19" cx="128.42" cy="255.41" rx="17.72" ry="10.02" transform="translate(-152.96 204.9) rotate(-53.13)"/><ellipse class="cls-14" cx="128.42" cy="255.41" rx="17.72" ry="10.02" transform="translate(-152.96 204.9) rotate(-53.13)"/><path class="cls-20" d="M121.68,271.61a7.18,7.18,0,0,1-3.6-.9c-2.21-1.28-3.43-3.82-3.43-7.17,0-7.47,6.06-17,13.51-21.34,4-2.31,7.8-2.75,10.45-1.21,2.22,1.27,3.44,3.82,3.44,7.16,0,7.47-6.06,17-13.51,21.35A14.15,14.15,0,0,1,121.68,271.61ZM135,240.83a13.18,13.18,0,0,0-6.47,2c-7.25,4.19-13.13,13.48-13.13,20.71,0,3.07,1.08,5.38,3.06,6.52,2.41,1.4,6,1,9.7-1.21,7.25-4.18,13.14-13.47,13.14-20.7,0-3.06-1.09-5.38-3.06-6.52A6.44,6.44,0,0,0,135,240.83Z"/><path class="cls-25" d="M140,259.47a6.06,6.06,0,0,1-2.92,4.6c-1.61.94-2.92.38-2.92-1.23a6.08,6.08,0,0,1,2.92-4.61C138.73,257.3,140,257.85,140,259.47Z"/><path class="cls-20" d="M165.62,193.72v.56a.9.9,0,0,1-.45.78l-20.87,12a.31.31,0,0,1-.42-.12.28.28,0,0,1,0-.15v-.55a.9.9,0,0,1,.45-.78l20.87-12a.3.3,0,0,1,.42.12A.23.23,0,0,1,165.62,193.72Z"/><path class="cls-2" d="M165.62,197.79v.56a.9.9,0,0,1-.45.78l-20.87,12a.31.31,0,0,1-.42-.12.28.28,0,0,1,0-.15v-.55a.9.9,0,0,1,.45-.78l20.87-12a.3.3,0,0,1,.42.12A.23.23,0,0,1,165.62,197.79Z"/><path class="cls-2" d="M155.19,207.89v.56a.9.9,0,0,1-.45.78l-10.44,6a.31.31,0,0,1-.42-.12.25.25,0,0,1,0-.14v-.56a.9.9,0,0,1,.45-.78l10.44-6a.29.29,0,0,1,.41.09A.26.26,0,0,1,155.19,207.89Z"/><ellipse class="cls-19" cx="128.39" cy="217.5" rx="17.72" ry="10.02" transform="translate(-122.65 189.71) rotate(-53.13)"/><ellipse class="cls-14" cx="128.39" cy="217.5" rx="17.72" ry="10.02" transform="translate(-122.65 189.71) rotate(-53.13)"/><path class="cls-20" d="M121.68,233.66a7.18,7.18,0,0,1-3.6-.9c-2.21-1.28-3.43-3.82-3.43-7.17,0-7.47,6.06-17,13.51-21.34,4-2.31,7.8-2.75,10.45-1.22,2.22,1.28,3.44,3.83,3.44,7.17,0,7.47-6.06,17-13.51,21.35A14.15,14.15,0,0,1,121.68,233.66ZM135,202.88a13.18,13.18,0,0,0-6.47,2c-7.25,4.18-13.14,13.46-13.14,20.69,0,3.07,1.08,5.38,3.06,6.52,2.41,1.4,6,1,9.7-1.21,7.25-4.18,13.14-13.47,13.14-20.7,0-3.06-1.09-5.38-3.06-6.52a6.38,6.38,0,0,0-3.23-.78Z"/><path class="cls-26" d="M140,221.52a6.06,6.06,0,0,1-2.92,4.6c-1.61.93-2.92.38-2.92-1.23a6.08,6.08,0,0,1,2.92-4.61C138.73,219.35,140,219.9,140,221.52Z"/><ellipse class="cls-19" cx="138.42" cy="150.57" rx="31.11" ry="17.6" transform="translate(-65.11 170.68) rotate(-53.05)"/><ellipse class="cls-14" cx="138.42" cy="150.57" rx="31.11" ry="17.6" transform="translate(-65.11 170.68) rotate(-53.05)"/><path class="cls-19" d="M150.59,163.53c-1.87-3.23-6.76-6.49-6.76-6.49l-3.36.67-7.79,1.51-3.66,1c-4.26,3.37-1,15.41-.41,17.26a25.92,25.92,0,0,0,9.81-3.51A47.18,47.18,0,0,0,150.59,163.53Z"/><path d="M150.59,163.53c-1.87-3.23-6.76-6.49-6.76-6.49l-3.36.67-7.79,1.51-3.66,1c-4.26,3.37-1,15.41-.41,17.26a25.92,25.92,0,0,0,9.81-3.51A47.18,47.18,0,0,0,150.59,163.53Z"/><path class="cls-27" d="M143.83,161.49c0,.93-2,2.44-5.8,1.32a9.54,9.54,0,0,1-5.36-3.59v-3.3l.07-5.39,7.73,1.79v5.39C141.78,158.51,143.86,160.56,143.83,161.49Z"/><path class="cls-28" d="M140.47,153.54v2.59a22.87,22.87,0,0,1-4.85-1.88,4.52,4.52,0,0,1-1.85-2.67Z"/><path class="cls-27" d="M148.13,144.37a27,27,0,0,1-.51,7.28c-.81,2.66-1.94,3.9-4.61,3.63a35.45,35.45,0,0,1-6.3-1.32,4.71,4.71,0,0,1-2.76-2.09,4,4,0,0,0-1.21-1.34L131,151.72a9.62,9.62,0,0,1-2.75-2.79c-.81-1.51-.26-7-.26-7l12.12-4.28s6.2-1.27,6.32-1.25a3.11,3.11,0,0,1,1.49,1.42c.34.82,1.18,2.26,1,2.57S148.13,144.37,148.13,144.37Z"/><path class="cls-29" d="M141.41,146.21a.68.68,0,1,1-.68-.68h0A.67.67,0,0,1,141.41,146.21Z"/><path class="cls-29" d="M147,145.7a.69.69,0,1,1-.7-.68h0a.67.67,0,0,1,.69.67Z"/><path class="cls-29" d="M145.76,143l1.62.7s.33-.8-.37-1.1A1,1,0,0,0,145.76,143Z"/><polygon class="cls-28" points="143.59 145.33 144.12 149.63 146.32 148.65 143.59 145.33"/><path class="cls-30" d="M143.75,151.11a1.35,1.35,0,0,1-.81,1.2.6.6,0,0,1-.19.06,1.52,1.52,0,0,1-1.81-1.15.8.8,0,0,1,0-.15,1.63,1.63,0,0,1,0-.54Z"/><path class="cls-27" d="M151.24,158.82a10.7,10.7,0,0,0-7.41-1.78l5,8.42a53.68,53.68,0,0,0,4.19-5.09A17.81,17.81,0,0,0,151.24,158.82Z"/><path class="cls-28" d="M142.75,152.37a1.52,1.52,0,0,1-1.81-1.15.8.8,0,0,1,0-.15,1.51,1.51,0,0,1,1.41.32A1.63,1.63,0,0,1,142.75,152.37Z"/><path class="cls-29" d="M132.6,145.68l.2,2.8a1.94,1.94,0,0,0,1.69-2.16,1.43,1.43,0,0,0,0-.22s9.51-.86,11.72-8.59c0,0,2,2.09,2,6.86a3.77,3.77,0,0,0,1.44-4.84,1.87,1.87,0,0,0,1.12-2.21,2.12,2.12,0,0,0-1.57-1.76s2.15-3.5-.57-5.23-6.58,1.51-6.58,1.51-6.22-2-9.39.89-3.3,5.07-3.3,5.07a5,5,0,0,0-3.31,5.42c.26,4.39,3.21,7.44,4.36,9.1s2.35,3.59,2.35,3.59l.06-5.38s-1.36,1-3-.56-1.75-4-.38-5.08a2.24,2.24,0,0,1,2.78-.09A1.19,1.19,0,0,1,132.6,145.68Z"/><path class="cls-20" d="M157.59,170.35v2a1.5,1.5,0,0,1-.75,1.29l-34.7,20a.52.52,0,0,1-.7-.18.48.48,0,0,1-.07-.26v-2a1.48,1.48,0,0,1,.75-1.29l34.71-20a.51.51,0,0,1,.76.49Z"/><path class="cls-2" d="M149.23,180.25v1.05a.79.79,0,0,1-.4.69l-18.69,10.76a.27.27,0,0,1-.41-.24v-1a.78.78,0,0,1,.4-.69L148.82,180a.29.29,0,0,1,.38.11A.27.27,0,0,1,149.23,180.25Z"/><path class="cls-31" d="M161.82,153.92c0,3.93-3.18,9-7.11,11.22s-7.12.92-7.12-3,3.19-9,7.12-11.22S161.82,150,161.82,153.92Z"/><path class="cls-14" d="M155,154.34c1.1-.64,1.23-.71,1.66-.94a2.62,2.62,0,0,1,.76-.3.76.76,0,0,1,.47,0,.52.52,0,0,1,.31.29,1.72,1.72,0,0,1,.14.68v3.32a3.09,3.09,0,0,1-.14.85,2.29,2.29,0,0,1-.31.65,3.23,3.23,0,0,1-.47.58,4.77,4.77,0,0,1-.76.58c-.43.27-.56.35-1.66,1s-1.23.7-1.66.93a2.62,2.62,0,0,1-.76.3.76.76,0,0,1-.47,0,.57.57,0,0,1-.31-.3,1.63,1.63,0,0,1-.14-.68V158a3,3,0,0,1,.14-.84,2.29,2.29,0,0,1,.31-.65,2.65,2.65,0,0,1,.47-.58,4.25,4.25,0,0,1,.76-.58c.43-.27.56-.35,1.66-1m0-.74c-1.11.64-1.25.73-1.69,1a4.94,4.94,0,0,0-1,.77,4.5,4.5,0,0,0-.73.89,4.15,4.15,0,0,0-.66,2.11v3.38a2.13,2.13,0,0,0,.19.89.9.9,0,0,0,.47.45,1.3,1.3,0,0,0,.73.06,3.59,3.59,0,0,0,1-.39c.44-.23.58-.31,1.69-1s1.25-.73,1.69-1a6.19,6.19,0,0,0,1-.77,5.16,5.16,0,0,0,.73-.89,4.15,4.15,0,0,0,.47-1,4.24,4.24,0,0,0,.19-1.11v-3.39a2,2,0,0,0-.19-.88.85.85,0,0,0-.47-.46,1.3,1.3,0,0,0-.73,0,3.06,3.06,0,0,0-1,.39c-.44.23-.57.3-1.69,1"/><path class="cls-14" d="M155,155.6a4.37,4.37,0,0,0-2.11,3.32c0,1.17,1,1.56,2.11.89a4.37,4.37,0,0,0,2.11-3.32c0-1.17-.95-1.57-2.11-.89m0,3.47c-.76.44-1.37.18-1.37-.58a2.84,2.84,0,0,1,1.37-2.16c.76-.43,1.37-.17,1.37.58a2.79,2.79,0,0,1-1.37,2.16"/><path class="cls-14" d="M157.67,154a1,1,0,0,1-.49.78c-.27.16-.49.06-.49-.21a1,1,0,0,1,.49-.78c.27-.15.49-.06.49.21"/><path class="cls-27" d="M129,160.21c-5.58.77-6.3,7.12-6.3,7.12V177a14.11,14.11,0,0,0,6.36.44,83.88,83.88,0,0,0,2.25-9.65C132.19,161.8,129,160.21,129,160.21Z"/><path class="cls-19" d="M328.86,37.88V87.81a6.26,6.26,0,0,1-3.13,5.42L180.07,177.07a2.13,2.13,0,0,1-3.2-1.84V125.29a6.25,6.25,0,0,1,3.14-5.42L325.66,36a2.13,2.13,0,0,1,2.92.8A2.18,2.18,0,0,1,328.86,37.88Z"/><path class="cls-32" d="M328.86,37.88V87.81a6.26,6.26,0,0,1-3.13,5.42L180.07,177.07a2.13,2.13,0,0,1-3.2-1.84V125.29a6.25,6.25,0,0,1,3.14-5.42L325.66,36a2.13,2.13,0,0,1,2.92.8A2.18,2.18,0,0,1,328.86,37.88Z"/><path class="cls-14" d="M232.27,99.11V137.8a4.84,4.84,0,0,1-2.44,4.2l-44.77,25.76a1.65,1.65,0,0,1-2.26-.6,1.72,1.72,0,0,1-.22-.83V127.65a4.84,4.84,0,0,1,2.43-4.2l44.77-25.77a1.66,1.66,0,0,1,2.27.61A1.68,1.68,0,0,1,232.27,99.11Z"/><path class="cls-20" d="M232.27,132.45v5.35a4.84,4.84,0,0,1-2.44,4.2l-7.75,4.46-15.74,9.06,7.86-16.37,5.64-11.74c1-2.14,3.3-3.45,4.33-2.49Z"/><path class="cls-21" d="M222.08,146.46l-15.74,9.06-21.28,12.24a1.65,1.65,0,0,1-2.26-.6,1.72,1.72,0,0,1-.22-.83v-3.47L198,130.66c1-2.13,3.29-3.44,4.32-2.49l11.84,11Z"/><path class="cls-21" d="M227.74,112.13c0,3.17-2.57,7.22-5.74,9s-5.73.74-5.73-2.43,2.56-7.21,5.73-9S227.74,109,227.74,112.13Z"/><path class="cls-14" d="M322.71,66.07v1a1.52,1.52,0,0,1-.77,1.33l-84.81,48.77a.53.53,0,0,1-.72-.2.48.48,0,0,1-.07-.26v-1a1.53,1.53,0,0,1,.78-1.34l84.8-48.76a.52.52,0,0,1,.72.2A.48.48,0,0,1,322.71,66.07Z"/><path class="cls-14" d="M322.71,73v1a1.52,1.52,0,0,1-.77,1.33l-84.81,48.77a.53.53,0,0,1-.72-.2.59.59,0,0,1-.07-.25v-1a1.53,1.53,0,0,1,.78-1.33l84.8-48.77a.52.52,0,0,1,.72.2A.55.55,0,0,1,322.71,73Z"/><path class="cls-14" d="M322.71,52.11v1a1.55,1.55,0,0,1-.77,1.34l-84.81,48.76a.53.53,0,0,1-.72-.2.59.59,0,0,1-.07-.25v-1a1.53,1.53,0,0,1,.78-1.33l84.8-48.77a.52.52,0,0,1,.72.2A.55.55,0,0,1,322.71,52.11Z"/><path class="cls-14" d="M322.71,59.09v1a1.53,1.53,0,0,1-.77,1.33l-84.81,48.76a.51.51,0,0,1-.71-.18.53.53,0,0,1-.08-.27v-1a1.53,1.53,0,0,1,.78-1.33l84.8-48.76a.51.51,0,0,1,.71.17A.54.54,0,0,1,322.71,59.09Z"/><path class="cls-14" d="M304.83,90.37v1a1.53,1.53,0,0,1-.78,1.33l-66.92,38.43a.54.54,0,0,1-.72-.2.59.59,0,0,1-.07-.25v-1a1.53,1.53,0,0,1,.78-1.33L304,89.92a.52.52,0,0,1,.72.2A.55.55,0,0,1,304.83,90.37Z"/><path class="cls-21" d="M233.06,153.22v1a1.57,1.57,0,0,1-.77,1.34L177.66,187a.53.53,0,0,1-.72-.2.48.48,0,0,1-.07-.26v-1a1.52,1.52,0,0,1,.77-1.33l54.63-31.43a.52.52,0,0,1,.72.2A.48.48,0,0,1,233.06,153.22Z"/><path class="cls-21" d="M233.06,81.27v1a1.53,1.53,0,0,1-.77,1.33L177.66,115a.51.51,0,0,1-.71-.18.53.53,0,0,1-.08-.27v-1a1.52,1.52,0,0,1,.77-1.33l54.63-31.42a.52.52,0,0,1,.72.2A.55.55,0,0,1,233.06,81.27Z"/><path class="cls-19" d="M328.86,174.17V224.1a6.26,6.26,0,0,1-3.13,5.42L180.07,313.36a2.13,2.13,0,0,1-2.91-.77,2.16,2.16,0,0,1-.29-1.08V261.58a6.25,6.25,0,0,1,3.14-5.42l145.65-83.84a2.14,2.14,0,0,1,3.2,1.85Z"/><path class="cls-33" d="M328.86,174.17V224.1a6.26,6.26,0,0,1-3.13,5.42L180.07,313.36a2.13,2.13,0,0,1-2.91-.77,2.16,2.16,0,0,1-.29-1.08V261.58a6.25,6.25,0,0,1,3.14-5.42l145.65-83.84a2.14,2.14,0,0,1,3.2,1.85Z"/><path class="cls-14" d="M232.27,235.4v38.69a4.84,4.84,0,0,1-2.44,4.2L185.06,304a1.65,1.65,0,0,1-2.26-.6,1.72,1.72,0,0,1-.22-.83V263.94a4.84,4.84,0,0,1,2.43-4.2L229.78,234a1.66,1.66,0,0,1,2.27.6A1.79,1.79,0,0,1,232.27,235.4Z"/><path class="cls-20" d="M232.27,268.74v5.34a4.84,4.84,0,0,1-2.44,4.2l-7.75,4.47-15.74,9.06,7.86-16.37,5.64-11.74c1-2.14,3.3-3.45,4.33-2.49Z"/><path class="cls-21" d="M222.08,282.75l-15.74,9.06L185.06,304a1.65,1.65,0,0,1-2.26-.6,1.72,1.72,0,0,1-.22-.83v-3.48L198,266.92c1-2.13,3.29-3.44,4.32-2.49l11.84,11Z"/><path class="cls-21" d="M227.74,248.42c0,3.17-2.57,7.22-5.74,9.05s-5.73.74-5.73-2.43,2.56-7.21,5.73-9S227.74,245.26,227.74,248.42Z"/><path class="cls-14" d="M322.71,202.36v1a1.52,1.52,0,0,1-.77,1.33l-84.81,48.73a.53.53,0,0,1-.72-.2.48.48,0,0,1-.07-.26V252a1.53,1.53,0,0,1,.78-1.34l84.8-48.76a.52.52,0,0,1,.72.2A.48.48,0,0,1,322.71,202.36Z"/><path class="cls-14" d="M322.71,209.34v1a1.52,1.52,0,0,1-.77,1.33l-84.81,48.77a.53.53,0,0,1-.72-.2.48.48,0,0,1-.07-.26v-1a1.53,1.53,0,0,1,.78-1.33l84.8-48.77a.53.53,0,0,1,.79.42Z"/><path class="cls-14" d="M322.71,188.4v1a1.52,1.52,0,0,1-.77,1.33L237.13,239.5a.53.53,0,0,1-.72-.2.59.59,0,0,1-.07-.25v-1a1.53,1.53,0,0,1,.78-1.33L321.92,188a.52.52,0,0,1,.72.2A.55.55,0,0,1,322.71,188.4Z"/><path class="cls-14" d="M322.71,195.38v1a1.53,1.53,0,0,1-.77,1.33l-84.81,48.76a.51.51,0,0,1-.71-.18.53.53,0,0,1-.08-.27v-1a1.53,1.53,0,0,1,.78-1.33l84.8-48.76a.51.51,0,0,1,.71.17A.54.54,0,0,1,322.71,195.38Z"/><path class="cls-14" d="M304.83,226.66v1a1.53,1.53,0,0,1-.78,1.33l-66.92,38.43a.54.54,0,0,1-.72-.2.59.59,0,0,1-.07-.25v-1a1.53,1.53,0,0,1,.78-1.33L304,226.21a.52.52,0,0,1,.72.2A.55.55,0,0,1,304.83,226.66Z"/><path class="cls-19" d="M307.58,25.8a5.67,5.67,0,0,1-2.72,4.28c-1.5.86-2.71.35-2.71-1.15a5.6,5.6,0,0,1,2.71-4.28C306.41,23.78,307.58,24.3,307.58,25.8Z"/><path class="cls-19" d="M316.89,20.42a5.67,5.67,0,0,1-2.72,4.29c-1.5.86-2.71.35-2.71-1.15a5.6,5.6,0,0,1,2.71-4.28C315.67,18.41,316.89,18.92,316.89,20.42Z"/><path class="cls-19" d="M326.19,15a5.63,5.63,0,0,1-2.71,4.28c-1.5.87-2.72.35-2.72-1.15a5.64,5.64,0,0,1,2.72-4.28C325,13,326.19,13.55,326.19,15Z"/><path class="cls-34" d="M307.58,25.8a5.67,5.67,0,0,1-2.72,4.28c-1.5.86-2.71.35-2.71-1.15a5.6,5.6,0,0,1,2.71-4.28C306.41,23.78,307.58,24.3,307.58,25.8Z"/><path class="cls-34" d="M316.89,20.42a5.67,5.67,0,0,1-2.72,4.29c-1.5.86-2.71.35-2.71-1.15a5.6,5.6,0,0,1,2.71-4.28C315.67,18.41,316.89,18.92,316.89,20.42Z"/><path class="cls-34" d="M326.19,15a5.63,5.63,0,0,1-2.71,4.28c-1.5.87-2.72.35-2.72-1.15a5.64,5.64,0,0,1,2.72-4.28C325,13,326.19,13.55,326.19,15Z"/><path class="cls-35" d="M335.17,108l-4.88-2.87h0a2.12,2.12,0,0,0-2.35-.14L180.06,190.16a6.35,6.35,0,0,0-3.19,5.5v50.7a2.14,2.14,0,0,0,1.47,2h0l4.62,2.81-.16-4.51L328,163.08a6.35,6.35,0,0,0,3.19-5.5V110.1Z"/><path class="cls-19" d="M332.91,108,185,193.11a6.35,6.35,0,0,0-3.19,5.51v50.7a2.15,2.15,0,0,0,1.12,1.89h0a2.18,2.18,0,0,0,2.13,0L333,166.09a6.35,6.35,0,0,0,3.19-5.5v-50.7a2.17,2.17,0,0,0-2.18-2.16A2.12,2.12,0,0,0,332.91,108Z"/><path class="cls-21" d="M336.16,109.87v50.7a6.35,6.35,0,0,1-3.19,5.5L185.09,251.19a2.18,2.18,0,0,1-3-.8,2.15,2.15,0,0,1-.29-1.07v-50.7a6.35,6.35,0,0,1,3.19-5.51L332.91,108a2.17,2.17,0,0,1,3.25,1.85Z"/><path class="cls-14" d="M238.08,172v39.27a4.94,4.94,0,0,1-2.46,4.27l-45.46,26.16a1.67,1.67,0,0,1-2.29-.62,1.62,1.62,0,0,1-.23-.83V201a4.9,4.9,0,0,1,2.47-4.26l45.45-26.17a1.67,1.67,0,0,1,2.52,1.43Z"/><path class="cls-19" d="M238.09,205.88v5.43a4.94,4.94,0,0,1-2.48,4.27l-7.86,4.53-16,9.2,8-16.62,5.73-11.92c1.05-2.17,3.35-3.5,4.39-2.53Z"/><path class="cls-21" d="M238.09,205.88v5.43a4.94,4.94,0,0,1-2.48,4.27l-7.86,4.53-16,9.2,8-16.62,5.73-11.92c1.05-2.17,3.35-3.5,4.39-2.53Z"/><path class="cls-21" d="M227.75,220.11l-16,9.2-21.6,12.43a1.67,1.67,0,0,1-2.29-.62,1.62,1.62,0,0,1-.23-.83v-3.53l15.7-32.69c1-2.17,3.34-3.5,4.38-2.53l12,11.15Z"/><path class="cls-21" d="M233.49,185.26c0,3.21-2.61,7.33-5.83,9.18s-5.82.76-5.82-2.46,2.61-7.33,5.82-9.18S233.49,182,233.49,185.26Z"/><path class="cls-14" d="M329.91,138.49v1a1.57,1.57,0,0,1-.78,1.35L243,190.35a.53.53,0,0,1-.72-.2.48.48,0,0,1-.07-.26v-1a1.56,1.56,0,0,1,.78-1.36L329.11,138a.53.53,0,0,1,.73.18A.59.59,0,0,1,329.91,138.49Z"/><path class="cls-14" d="M329.91,145.58v1a1.59,1.59,0,0,1-.78,1.36L243,197.42a.53.53,0,0,1-.72-.2.48.48,0,0,1-.07-.26v-1a1.56,1.56,0,0,1,.78-1.36l86.1-49.51a.53.53,0,0,1,.73.18A.55.55,0,0,1,329.91,145.58Z"/><path class="cls-14" d="M329.91,124.31v1a1.57,1.57,0,0,1-.78,1.35L243,176.17a.53.53,0,0,1-.72-.2.48.48,0,0,1-.07-.26v-1a1.51,1.51,0,0,1,.78-1.35l86.1-49.52a.53.53,0,0,1,.73.21A.48.48,0,0,1,329.91,124.31Z"/><path class="cls-14" d="M329.91,131.4v1a1.57,1.57,0,0,1-.78,1.35L243,183.26a.53.53,0,0,1-.72-.2.48.48,0,0,1-.07-.26v-1a1.56,1.56,0,0,1,.78-1.36l86.1-49.51a.53.53,0,0,1,.73.18A.59.59,0,0,1,329.91,131.4Z"/><path class="cls-14" d="M311.75,163.17v1a1.54,1.54,0,0,1-.78,1.35l-68,39a.53.53,0,0,1-.72-.2.48.48,0,0,1-.07-.26v-1a1.56,1.56,0,0,1,.78-1.36l67.95-39a.52.52,0,0,1,.72.2A.5.5,0,0,1,311.75,163.17Z"/><path class="cls-19" d="M348.29,371.73s1.11.42,1,2.19-1.18,4.64-1.46,6.47.46,5.93-.13,6.89-8.82,4.6-8.82,4.6l.79-13.19s2.26-5.47,4.19-6.4A8.6,8.6,0,0,1,348.29,371.73Z"/><path class="cls-14" d="M348.29,371.73s1.11.42,1,2.19-1.18,4.64-1.46,6.47.46,5.93-.13,6.89-8.82,4.6-8.82,4.6l.79-13.19s2.26-5.47,4.19-6.4A8.6,8.6,0,0,1,348.29,371.73Z"/><path class="cls-20" d="M346.9,370.77l1.39,1a5.65,5.65,0,0,0-4.78,2.52c-1.67,2.67-1.77,9.25-1.86,11.67s-.62,5.18-3.1,6.11-6.52-.43-8.29-2.27a3.46,3.46,0,0,1,.19-2.35c.59-.81,6.92-.75,6.92-.75s2.11-10.89,2.11-11,2.45-4.91,2.45-4.91Z"/><path class="cls-20" d="M294.54,393.53s.61,1.69-.16,2.15a10.78,10.78,0,0,1-5,1c-2.25,0-6.56-1.22-8-1.3s-4.47.27-8.1.16a15.1,15.1,0,0,1-7.33-2,3.31,3.31,0,0,1-1.17-2.72C264.94,390.33,294.54,393.53,294.54,393.53Z"/><path class="cls-36" d="M264.69,390.6c.28.72,1.69,2.62,5,3.51a8.33,8.33,0,0,0,.84.17c2.87.43,8,.08,10.29.05,2.58,0,5,1.11,8.2,1.08s4.72-.49,5.37-1.64.18-1.77,0-4-.22-5.24-.41-6.49c0,0-.27-1.2-.87-1.27l-9.31-.46c-.52.25-.83,1.95-2,2.67s-5.28.28-7.51,0-5.49-.5-7.73,1A5.4,5.4,0,0,0,264.69,390.6Z"/><path class="cls-27" d="M293.41,376.34l-.23,5.64s-.7,3.21-4.84,3.21c0,0-4.47.09-4.47-3.49l.28-7Z"/><path class="cls-14" d="M264.69,390.6c.28.72,1.69,2.62,5,3.51a8.33,8.33,0,0,0,.84.17h0c-1.26-8.6,3.75-10.13,3.75-10.13-2.24-.32-5.49-.5-7.73,1A5.4,5.4,0,0,0,264.69,390.6Z"/><path class="cls-27" d="M339.23,359l2.92,7.53-6.95,5.18-4.53-6.61S333.24,358.26,339.23,359Z"/><path class="cls-37" d="M330.85,388.38a6.14,6.14,0,0,0,4,2.07h.45c2.68.11,4-.61,4.42-2.45s.22-10.71,1.65-13.35,3.47-3.81,5.49-3.91l-4.75-4.22a4.43,4.43,0,0,0-4.32.94s-2.94,1.76-2.64,4.24,1.61,3.4,1.55,6.5a34.44,34.44,0,0,1-.43,5.06s-2.64-.79-4.24.92a6.37,6.37,0,0,0-1.56,2.71A1.57,1.57,0,0,0,330.85,388.38Z"/><path class="cls-14" d="M282.15,383.93a1.39,1.39,0,0,0-1.25.19c-.92.56-1.11,3.93-.83,4.49s.74,0,.88-1.28A7.25,7.25,0,0,1,282.15,383.93Z"/><path class="cls-14" d="M279.12,384.56s-.42.21-.79,1.34-.23,2.59-.62,2.79-.52-.77-.53-1.75a3.78,3.78,0,0,1,.57-2.43A1,1,0,0,1,279.12,384.56Z"/><path class="cls-14" d="M276.48,384.41a5.23,5.23,0,0,0-1.32,1.77c-.74,1.38-.75,2.17-1,2.28s-.42-.31-.36-1.08a5,5,0,0,1,1.49-3.1.83.83,0,0,1,1.17.1Z"/><path class="cls-14" d="M330.85,388.38a6.14,6.14,0,0,0,4,2.07h.45a14.48,14.48,0,0,1,1-7.19s-2.64-.79-4.24.92a6.37,6.37,0,0,0-1.56,2.71A1.56,1.56,0,0,0,330.85,388.38Z"/><path class="cls-14" d="M336.51,376a3.89,3.89,0,0,0,1.68,1.68.37.37,0,0,1,0,.52l-.09.07c-.41.25-1.37-.7-1.37-.7S335.93,376.58,336.51,376Z"/><path class="cls-14" d="M336.7,379.45a9.14,9.14,0,0,0,1,1.81c.58.75.61,1.26.21,1.27s-1-.72-1.3-1.54A2.05,2.05,0,0,1,336.7,379.45Z"/><path class="cls-14" d="M336.49,382.13a9.67,9.67,0,0,0,1.24,2.1c.63.71-.16,1-.64.49S335.8,382.64,336.49,382.13Z"/><path class="cls-20" d="M280.64,328.32c.18,3.53,1.74,21,2,26.25s1.18,22.1,1.18,22.1a15.24,15.24,0,0,0,5.59,1.35c3.42.25,4.41-1.12,4.41-1.12s.5-4.28,1.18-7.69,3.79-22.59,3.66-29a36.25,36.25,0,0,0-1.49-10.3l5.17-31.69s1.09,6.85,2.32,14.06h0c1.23,7.25,2.61,14.85,3.17,16.2,1.12,2.71,22.86,36.68,22.86,36.68a30.33,30.33,0,0,1,4.79-4.55,8.36,8.36,0,0,1,3.77-1.55s-8.84-24.51-10.84-28.29a17.41,17.41,0,0,0-5.87-6.1s-.23-49-.5-52.18a35.58,35.58,0,0,0-1.31-6.46l-37.13,5.31s-3,30.9-3.29,36.43S280.41,324.78,280.64,328.32Z"/><path class="cls-29" d="M304.64,312.24l-.32-13.69,2.93-12c7.49-.7,9.41-6.37,9.41-6.37A18.57,18.57,0,0,1,305.3,285l-3,13.12S303.41,305,304.64,312.24Z"/><path class="cls-27" d="M315.76,216.28a12.11,12.11,0,0,1,5.32,4.82c2.23,3.63,11.08,26.91,10.61,29.14s-12.89,18.17-12.89,18.17-4.43-5.32-5.12-8.12c0,0,5.12-9.49,6.33-10.52,0,0-3.22-8.37-4.15-11.17S310.34,220,315.76,216.28Z"/><path class="cls-28" d="M289.41,195.5s-2.73,3.66-2.79,4.62,2.79.9,2.79.9Z"/><path class="cls-27" d="M291.18,209.68a2.56,2.56,0,0,0,.85.48,8.79,8.79,0,0,0,5.05-.33h0v6.76h12.19s-.42-5.26-.46-7.07,3.15-6.44.73-15.75-12.42-10.71-17-7.43a27.29,27.29,0,0,0-3.17,6.23C288.61,195.28,288,206.9,291.18,209.68Z"/><path d="M285.41,244.87,283.24,271s3.12,3.4,16,3.48h1.12c13.77-.13,21.35-8.51,21.35-8.51l-6.89-17.81a59.08,59.08,0,0,0,4.87-15.73h0c.15-1,.29-2,.39-3.1,1-10.43-3.59-13.84-7.88-14s-17.69,2-17.69,2l-12.29,13.47s-.74,6-.31,9.12S285.41,244.87,285.41,244.87Z"/><path class="cls-38" d="M299.21,274.45h1.11c13.77-.13,21.35-8.51,21.35-8.51l-6.89-17.81a59.08,59.08,0,0,0,4.87-15.73c-.22.75-3.75,12.78-11.08,17.71,0,0,8.63,2.24,7.33,10.24S307.15,273.08,299.21,274.45Z"/><path class="cls-28" d="M291.18,209.68a2.56,2.56,0,0,0,.85.48,8.79,8.79,0,0,0,5.05-.33h0l.2-1.35s-3.47,1.83-6.11,1.21Z"/><path class="cls-29" d="M298.62,195.52a3.08,3.08,0,0,1,3.92,1.92,2,2,0,0,1,.08.26,3.66,3.66,0,0,1,0,1.8c-.58,2.49-2.21,4.54-5.51,4.33,0,0,.09,4.38,3.44,5.45s8.33.23,8.33.23a29.38,29.38,0,0,1,3.12-3.82c1.49-1.44,8.15-8.19,7.68-14.24s-4.74-6.75-4.74-6.75a4.61,4.61,0,0,0-.14-5.33,3.42,3.42,0,0,0-4.52-1.1s-.6-3.93-4.33-4.35a5.15,5.15,0,0,0-5.21,2.63s-3.17-3.65-7.45-2a4.45,4.45,0,0,0-3,5.56,1.72,1.72,0,0,0,.07.21s-4-1.67-6.33,1.72.42,8.94,5.3,10.52a12,12,0,0,1,2.33-4s.51,2.7,2.05,2.94c0,0-1.77,4.28.84,5.86,0,0-1.26,3.4,0,3.54,0,0,.59.54,1-1.29C296,198.28,296.89,196.15,298.62,195.52Z"/><path class="cls-27" d="M294.48,217.28a11.66,11.66,0,0,1-.43,8.32,15,15,0,0,1-8.2,7.94c-3.47,1.37-25.29,3.42-26.62,3.29-2-.18-25.26-14-26.81-14.58s-9.87-3.23-10.93-5a2.55,2.55,0,0,1,0-3s-.49-2,1-2.79a2.83,2.83,0,0,1,1.63-3s-4.46-6.1-4.65-6.84,2.28-1.3,5,1.81a30.67,30.67,0,0,0,3.53,3.68l4.26,3.52s1.61-5.8,4.45-5.26c0,0,.46.16.32,1s-.69,2.37-.86,3.79a34.56,34.56,0,0,0,.14,4.66s20.44,10.2,21.8,10.2,26.8-7.63,30.65-7.7S294.48,217.28,294.48,217.28Z"/></g></g></svg>