<svg id="Layer_1" data-name="Layer 1" xmlns="http://www.w3.org/2000/svg" xmlns:xlink="http://www.w3.org/1999/xlink" viewBox="0 0 478 478"><defs><style>.cls-1{fill:#f5f5f5;}.cls-2{fill:#e0e0e0;}.cls-3{fill:url(#linear-gradient);}.cls-4,.cls-65{opacity:0.1;}.cls-20,.cls-46,.cls-5,.cls-60,.cls-69{fill:#fff;}.cls-6{fill:url(#linear-gradient-2);}.cls-7{fill:url(#linear-gradient-3);}.cls-8{fill:url(#linear-gradient-4);}.cls-9{fill:#455a64;}.cls-10{fill:url(#linear-gradient-5);}.cls-11{fill:url(#linear-gradient-6);}.cls-12,.cls-69{opacity:0.5;}.cls-13,.cls-14,.cls-20,.cls-46,.cls-53,.cls-60,.cls-65,.cls-68,.cls-69,.cls-85,.cls-92{isolation:isolate;}.cls-13{opacity:0.15;}.cls-14,.cls-57{fill:#263238;}.cls-14{opacity:0.9;}.cls-15{fill:url(#linear-gradient-7);}.cls-16{fill:url(#linear-gradient-8);}.cls-17{fill:url(#linear-gradient-9);}.cls-18{fill:url(#linear-gradient-10);}.cls-19{fill:url(#linear-gradient-11);}.cls-20,.cls-37{opacity:0.6;}.cls-21{fill:url(#linear-gradient-12);}.cls-22{fill:url(#linear-gradient-13);}.cls-23{fill:#e6e6e6;}.cls-24{fill:url(#linear-gradient-14);}.cls-25{fill:url(#linear-gradient-15);}.cls-26{fill:url(#linear-gradient-16);}.cls-27{fill:url(#linear-gradient-17);}.cls-28{fill:url(#linear-gradient-18);}.cls-29{fill:url(#linear-gradient-19);}.cls-30{fill:url(#linear-gradient-20);}.cls-31{fill:url(#linear-gradient-21);}.cls-32{fill:url(#linear-gradient-22);}.cls-33{fill:url(#linear-gradient-23);}.cls-34{fill:url(#linear-gradient-24);}.cls-35{fill:url(#linear-gradient-25);}.cls-36{fill:url(#linear-gradient-26);}.cls-38{fill:#37474f;}.cls-39{fill:url(#linear-gradient-27);}.cls-40{fill:url(#linear-gradient-28);}.cls-41{fill:url(#linear-gradient-29);}.cls-42{fill:url(#linear-gradient-30);}.cls-43{fill:url(#linear-gradient-31);}.cls-44{fill:url(#linear-gradient-32);}.cls-45{fill:url(#linear-gradient-33);}.cls-46{opacity:0.8;}.cls-47{fill:url(#linear-gradient-34);}.cls-48{fill:url(#linear-gradient-35);}.cls-49{fill:url(#linear-gradient-36);}.cls-50{fill:url(#linear-gradient-37);}.cls-51{fill:url(#linear-gradient-38);}.cls-52{fill:url(#linear-gradient-39);}.cls-53{opacity:0.3;}.cls-54{fill:#b16668;}.cls-55{fill:#9a4a4d;}.cls-56{fill:url(#linear-gradient-40);}.cls-58{fill:url(#linear-gradient-41);}.cls-59{fill:url(#linear-gradient-42);}.cls-60{opacity:0.45;}.cls-61{fill:url(#linear-gradient-43);}.cls-62{fill:url(#linear-gradient-44);}.cls-63{fill:url(#linear-gradient-45);}.cls-64{fill:url(#linear-gradient-46);}.cls-66{fill:#f0f0f0;}.cls-67{fill:url(#linear-gradient-47);}.cls-68{opacity:0.2;}.cls-70{fill:#fafafa;}.cls-71{fill:url(#linear-gradient-48);}.cls-72{fill:url(#linear-gradient-49);}.cls-73{fill:url(#linear-gradient-50);}.cls-74{fill:url(#linear-gradient-51);}.cls-75{fill:url(#linear-gradient-52);}.cls-76{fill:url(#linear-gradient-53);}.cls-77{fill:url(#linear-gradient-54);}.cls-78{fill:url(#linear-gradient-55);}.cls-79{fill:url(#linear-gradient-56);}.cls-80{fill:url(#linear-gradient-57);}.cls-81{fill:url(#linear-gradient-58);}.cls-82{fill:url(#linear-gradient-59);}.cls-83{fill:url(#linear-gradient-65);}.cls-84{fill:url(#linear-gradient-66);}.cls-85{opacity:0.25;}.cls-86{fill:url(#linear-gradient-67);}.cls-87{fill:url(#linear-gradient-77);}.cls-88{fill:url(#linear-gradient-78);}.cls-89{fill:url(#linear-gradient-79);}.cls-90{fill:url(#linear-gradient-80);}.cls-91{fill:url(#linear-gradient-81);}.cls-92{opacity:0.4;}.cls-93{fill:url(#linear-gradient-82);}.cls-94{fill:url(#linear-gradient-83);}</style><linearGradient id="linear-gradient" x1="438.02" y1="258.92" x2="472.3" y2="258.92" gradientUnits="userSpaceOnUse"><stop offset="0" stop-color="#00ffaf"/><stop offset="0.06" stop-color="#00edad"/><stop offset="0.32" stop-color="#00a6a7"/><stop offset="0.55" stop-color="#006ea2"/><stop offset="0.75" stop-color="#00469f"/><stop offset="0.91" stop-color="#002d9d"/><stop offset="1" stop-color="#00249c"/></linearGradient><linearGradient id="linear-gradient-2" x1="436.47" y1="247.57" x2="466.92" y2="247.57" xlink:href="#linear-gradient"/><linearGradient id="linear-gradient-3" x1="17.23" y1="362.44" x2="47.3" y2="362.44" xlink:href="#linear-gradient"/><linearGradient id="linear-gradient-4" x1="15.62" y1="384.03" x2="50.49" y2="384.03" xlink:href="#linear-gradient"/><linearGradient id="linear-gradient-5" x1="103.6" y1="93.57" x2="305.47" y2="93.57" xlink:href="#linear-gradient"/><linearGradient id="linear-gradient-6" x1="109.13" y1="95.13" x2="306.87" y2="95.13" xlink:href="#linear-gradient"/><linearGradient id="linear-gradient-7" x1="206.46" y1="108.53" x2="265.66" y2="108.53" xlink:href="#linear-gradient"/><linearGradient id="linear-gradient-8" x1="231.49" y1="133.08" x2="294.77" y2="133.08" xlink:href="#linear-gradient"/><linearGradient id="linear-gradient-9" x1="231.49" y1="144.57" x2="294.77" y2="144.57" xlink:href="#linear-gradient"/><linearGradient id="linear-gradient-10" x1="268.54" y1="81.99" x2="295.7" y2="81.99" xlink:href="#linear-gradient"/><linearGradient id="linear-gradient-11" x1="206.46" y1="126.69" x2="235.78" y2="126.69" xlink:href="#linear-gradient"/><linearGradient id="linear-gradient-12" x1="206.46" y1="139.73" x2="223.54" y2="139.73" xlink:href="#linear-gradient"/><linearGradient id="linear-gradient-13" x1="238.62" y1="110.46" x2="259.87" y2="110.46" xlink:href="#linear-gradient"/><linearGradient id="linear-gradient-14" x1="225.39" y1="124.1" x2="258.78" y2="124.1" xlink:href="#linear-gradient"/><linearGradient id="linear-gradient-15" x1="261.66" y1="103.41" x2="294.8" y2="103.41" xlink:href="#linear-gradient"/><linearGradient id="linear-gradient-16" x1="225.39" y1="134.28" x2="258.78" y2="134.28" xlink:href="#linear-gradient"/><linearGradient id="linear-gradient-17" x1="261.66" y1="113.59" x2="294.8" y2="113.59" xlink:href="#linear-gradient"/><linearGradient id="linear-gradient-18" x1="225.89" y1="218.59" x2="265.66" y2="218.59" xlink:href="#linear-gradient"/><linearGradient id="linear-gradient-19" x1="268.54" y1="197.62" x2="295.7" y2="197.62" xlink:href="#linear-gradient"/><linearGradient id="linear-gradient-20" x1="202.38" y1="238.57" x2="219.64" y2="238.57" xlink:href="#linear-gradient"/><linearGradient id="linear-gradient-21" x1="202.38" y1="247.17" x2="219.64" y2="247.17" xlink:href="#linear-gradient"/><linearGradient id="linear-gradient-22" x1="225.4" y1="239.19" x2="295.7" y2="239.19" xlink:href="#linear-gradient"/><linearGradient id="linear-gradient-23" x1="202.38" y1="267.61" x2="219.64" y2="267.61" xlink:href="#linear-gradient"/><linearGradient id="linear-gradient-24" x1="225.4" y1="248.57" x2="295.7" y2="248.57" xlink:href="#linear-gradient"/><linearGradient id="linear-gradient-25" x1="202.38" y1="277.1" x2="219.64" y2="277.1" xlink:href="#linear-gradient"/><linearGradient id="linear-gradient-26" x1="202.38" y1="286.62" x2="219.64" y2="286.62" xlink:href="#linear-gradient"/><linearGradient id="linear-gradient-27" x1="126.41" y1="328.42" x2="133.62" y2="328.42" xlink:href="#linear-gradient"/><linearGradient id="linear-gradient-28" x1="126.41" y1="285.77" x2="133.62" y2="285.77" xlink:href="#linear-gradient"/><linearGradient id="linear-gradient-29" x1="132.26" y1="290.91" x2="139.49" y2="290.91" xlink:href="#linear-gradient"/><linearGradient id="linear-gradient-30" x1="132.26" y1="299.42" x2="139.49" y2="299.42" xlink:href="#linear-gradient"/><linearGradient id="linear-gradient-31" x1="126.41" y1="311.35" x2="133.62" y2="311.35" xlink:href="#linear-gradient"/><linearGradient id="linear-gradient-32" x1="132.26" y1="316.5" x2="139.49" y2="316.5" xlink:href="#linear-gradient"/><linearGradient id="linear-gradient-33" x1="137.79" y1="273.1" x2="166.22" y2="273.1" xlink:href="#linear-gradient"/><linearGradient id="linear-gradient-34" x1="137.79" y1="315.73" x2="166.22" y2="315.73" xlink:href="#linear-gradient"/><linearGradient id="linear-gradient-35" x1="143.64" y1="279.92" x2="166.22" y2="279.92" xlink:href="#linear-gradient"/><linearGradient id="linear-gradient-36" x1="143.64" y1="288.45" x2="166.22" y2="288.45" xlink:href="#linear-gradient"/><linearGradient id="linear-gradient-37" x1="137.79" y1="298.67" x2="166.22" y2="298.67" xlink:href="#linear-gradient"/><linearGradient id="linear-gradient-38" x1="143.64" y1="305.51" x2="166.22" y2="305.51" xlink:href="#linear-gradient"/><linearGradient id="linear-gradient-39" x1="429.76" y1="114.41" x2="431.28" y2="114.41" xlink:href="#linear-gradient"/><linearGradient id="linear-gradient-40" x1="402.34" y1="223.12" x2="440.32" y2="223.12" xlink:href="#linear-gradient"/><linearGradient id="linear-gradient-41" x1="404.77" y1="105.45" x2="431.53" y2="105.45" xlink:href="#linear-gradient"/><linearGradient id="linear-gradient-42" x1="408.91" y1="101.93" x2="426.38" y2="101.93" xlink:href="#linear-gradient"/><linearGradient id="linear-gradient-43" x1="412.61" y1="102.3" x2="426.38" y2="102.3" xlink:href="#linear-gradient"/><linearGradient id="linear-gradient-44" x1="400.02" y1="105.92" x2="422.9" y2="105.92" xlink:href="#linear-gradient"/><linearGradient id="linear-gradient-45" x1="400.02" y1="106.45" x2="422.9" y2="106.45" xlink:href="#linear-gradient"/><linearGradient id="linear-gradient-46" x1="386" y1="177.61" x2="424.7" y2="177.61" xlink:href="#linear-gradient"/><linearGradient id="linear-gradient-47" x1="319.13" y1="50.13" x2="346.13" y2="50.13" xlink:href="#linear-gradient"/><linearGradient id="linear-gradient-48" x1="319.13" y1="88.43" x2="346.13" y2="88.43" xlink:href="#linear-gradient"/><linearGradient id="linear-gradient-49" x1="130.47" y1="367.68" x2="275.85" y2="367.68" xlink:href="#linear-gradient"/><linearGradient id="linear-gradient-50" x1="129.99" y1="367.67" x2="276.32" y2="367.67" xlink:href="#linear-gradient"/><linearGradient id="linear-gradient-51" x1="164.94" y1="393.54" x2="187.86" y2="393.54" xlink:href="#linear-gradient"/><linearGradient id="linear-gradient-52" x1="160.97" y1="386.72" x2="194.42" y2="386.72" xlink:href="#linear-gradient"/><linearGradient id="linear-gradient-53" x1="168.38" y1="380.2" x2="204.41" y2="380.2" xlink:href="#linear-gradient"/><linearGradient id="linear-gradient-54" x1="180.57" y1="378.04" x2="210.97" y2="378.04" xlink:href="#linear-gradient"/><linearGradient id="linear-gradient-55" x1="202.5" y1="375.71" x2="220.99" y2="375.71" xlink:href="#linear-gradient"/><linearGradient id="linear-gradient-56" x1="207.03" y1="371.34" x2="227.55" y2="371.34" xlink:href="#linear-gradient"/><linearGradient id="linear-gradient-57" x1="213.53" y1="364.55" x2="237.54" y2="364.55" xlink:href="#linear-gradient"/><linearGradient id="linear-gradient-58" x1="227.27" y1="362.84" x2="244.1" y2="362.84" xlink:href="#linear-gradient"/><linearGradient id="linear-gradient-59" x1="244.81" y1="359.24" x2="254.1" y2="359.24" xlink:href="#linear-gradient"/><linearGradient id="linear-gradient-65" x1="237.77" y1="351.39" x2="260.66" y2="351.39" xlink:href="#linear-gradient"/><linearGradient id="linear-gradient-66" x1="191.84" y1="350.77" x2="198.4" y2="350.77" xlink:href="#linear-gradient"/><linearGradient id="linear-gradient-67" x1="196.53" y1="353.48" x2="203.1" y2="353.48" xlink:href="#linear-gradient"/><linearGradient id="linear-gradient-77" x1="235.54" y1="313.72" x2="358.04" y2="313.72" xlink:href="#linear-gradient"/><linearGradient id="linear-gradient-78" x1="235.06" y1="313.69" x2="358.51" y2="313.69" xlink:href="#linear-gradient"/><linearGradient id="linear-gradient-79" x1="317" y1="313.28" x2="323.57" y2="313.28" xlink:href="#linear-gradient"/><linearGradient id="linear-gradient-80" x1="305.5" y1="306.64" x2="312.07" y2="306.64" xlink:href="#linear-gradient"/><linearGradient id="linear-gradient-81" x1="294.01" y1="300" x2="300.57" y2="300" xlink:href="#linear-gradient"/><linearGradient id="linear-gradient-82" x1="259.59" y1="321.1" x2="308.38" y2="321.1" xlink:href="#linear-gradient"/><linearGradient id="linear-gradient-83" x1="270.69" y1="321.1" x2="297.29" y2="321.1" xlink:href="#linear-gradient"/></defs><g id="freepik--Floor--inject-6"><ellipse id="freepik--floor--inject-6-2" data-name="freepik--floor--inject-6" class="cls-1" cx="234.67" cy="323.05" rx="228.98" ry="138.63"/></g><g id="freepik--Shadows--inject-6"><ellipse id="freepik--Shadow--inject-6" class="cls-2" cx="66.59" cy="409.31" rx="39.6" ry="22.86"/><ellipse id="freepik--shadow--inject-6-2" data-name="freepik--shadow--inject-6" class="cls-2" cx="416.8" cy="276.75" rx="38.07" ry="21.98"/></g><g id="freepik--Plants--inject-6"><g id="freepik--plants--inject-6-2" data-name="freepik--plants--inject-6"><path class="cls-3" d="M438.26,269.52c2.37-3.29,9.19-6.61,17.92-7.9s17.58-3,15.92-8.14c-1.77-5.54-9.77-6.36-17.83-3.67-8.82,2.93-15.75,11.2-16.25,16.65Z"/><g class="cls-4"><path d="M438.26,269.52c2.37-3.29,9.19-6.61,17.92-7.9s17.58-3,15.92-8.14c-1.77-5.54-9.77-6.36-17.83-3.67-8.82,2.93-15.75,11.2-16.25,16.65Z"/></g><path class="cls-5" d="M437.68,267.91a.66.66,0,0,0,.61-.33c7.82-13.71,23.89-14.93,28.82-13.8a.64.64,0,0,0,.77-.49.65.65,0,0,0-.49-.77h0c-5.21-1.18-22,.08-30.22,14.42a.67.67,0,0,0,.24.89A.92.92,0,0,0,437.68,267.91Z"/><path class="cls-6" d="M438.29,267.58s2-12.82,16.24-22.19a97.46,97.46,0,0,0,9.28-7.53c5.3-4.5,3.59-9.91-3.3-10.28-10.24-.55-18.3,7.55-22.3,18.59A33.19,33.19,0,0,0,438.29,267.58Z"/><path class="cls-5" d="M437.06,263.07a.65.65,0,0,0,.68-.55c3.34-20.64,19.91-30,24.28-30.86a.64.64,0,0,0,.61-.68.65.65,0,0,0-.69-.61.8.8,0,0,0-.15,0c-5.32,1-21.9,10.74-25.32,31.85a.64.64,0,0,0,.52.74h0Z"/></g><g id="freepik--plants--inject-6-3" data-name="freepik--plants--inject-6"><path class="cls-7" d="M43.57,377.88s-.6-4.77-8.3-11.38S22,359.79,18.08,354.45s6-12.6,18.77-2.07c14.49,11.95,9.68,25.18,9.68,25.18Z"/><g class="cls-4"><path d="M43.57,377.88s-.6-4.77-8.3-11.38S22,359.79,18.08,354.45s6-12.6,18.77-2.07c14.49,11.95,9.68,25.18,9.68,25.18Z"/></g><path class="cls-5" d="M45.68,376.9a.61.61,0,0,1-.19,0,.53.53,0,0,1-.3-.68c1.41-3.64-2.74-12.33-8.07-16.92a41.08,41.08,0,0,0-13.29-7.7.54.54,0,0,1-.35-.65.54.54,0,0,1,.65-.35,41.38,41.38,0,0,1,13.67,7.92c5.7,4.89,10,14,8.36,18.07A.52.52,0,0,1,45.68,376.9Z"/><path class="cls-8" d="M47.63,401.39a4.79,4.79,0,0,1-.57-1.36c-1.08-2.75-3.76-4.59-6.55-5.59s-5.77-1.33-8.63-2.1c-2-.53-4.11-1.45-4.91-3.35-1.21-2.8,1.09-6.4-.56-8.95a6.64,6.64,0,0,0-2.81-2.13c-2-1-4-2-6-3.06a3.54,3.54,0,0,1-1.92-4,3.64,3.64,0,0,1,.63-1.24c1.61-2.18,5.1-3,7.68-3a24.38,24.38,0,0,1,8.18,1.17,36,36,0,0,0,5,1.48c1.72.26,3.56.33,5.08,1.31,2.11,1.38,2.83,4.09,3.4,6.55a66.21,66.21,0,0,0,1.72,7.37,52,52,0,0,1,2.11,7.78,51.75,51.75,0,0,1,1,8.13l-1.76.88C48.12,401.54,47.82,401.54,47.63,401.39Z"/><path class="cls-5" d="M44.33,386.34a.48.48,0,0,1-.17,0c-6-2.22-12.47,0-12.54,0a.46.46,0,0,1-.58-.29.45.45,0,0,1,.27-.58h0c.28-.1,7-2.33,13.17,0a.45.45,0,0,1,.25.59A.43.43,0,0,1,44.33,386.34Z"/><path class="cls-5" d="M49.81,401.17a.46.46,0,0,1-.46-.39c-.62-4.29-3.57-14.16-10.16-20.83-8.8-8.89-18.91-8.43-19-8.43a.45.45,0,0,1-.48-.4v0a.46.46,0,0,1,.43-.48c.1,0,10.62-.49,19.72,8.7,6.76,6.84,9.77,16.92,10.42,21.35a.47.47,0,0,1-.39.52Z"/></g></g><g id="freepik--Screen--inject-6"><g id="freepik--Window--inject-6"><g id="freepik--window--inject-6-2" data-name="freepik--window--inject-6"><path class="cls-9" d="M306.85,32.14a1.76,1.76,0,0,0-.07-.4v-.09a2.58,2.58,0,0,0-.36-.93.55.55,0,0,0-.14-.22.4.4,0,0,0-.13-.16,1.1,1.1,0,0,0-.28-.29h0a1.65,1.65,0,0,0-.36-.22,3.15,3.15,0,0,0-2.91.37L113.48,139.05a9.54,9.54,0,0,0-4.32,7.48V354.2a2.88,2.88,0,0,0,1.55,2.58l.19.13.23.13a2.29,2.29,0,0,0,.37.12,2,2,0,0,0,.54.07,2.71,2.71,0,0,0,1.44-.41l.11-.06h0l4.12-2.37,184.9-106.5a9.56,9.56,0,0,0,4.32-7.48V32.68A5,5,0,0,0,306.85,32.14Z"/><path class="cls-10" d="M305.47,29.81a3.15,3.15,0,0,0-2.91.37L113.44,139a9.54,9.54,0,0,0-4.32,7.48v14.14l-5.52-3.23v-14a9.52,9.52,0,0,1,4.31-7.45L297,27.06a3,3,0,0,1,3.12-.25C301,27.27,304.54,29.33,305.47,29.81Z"/><path class="cls-11" d="M306.87,32.65c0-2.73-1.94-3.84-4.31-2.46L113.44,139a9.53,9.53,0,0,0-4.31,7.48v14.14L306.87,46.8Z"/><g class="cls-12"><path class="cls-5" d="M302.56,30.19,113.44,139a8.83,8.83,0,0,0-3,3.2L105,139.06a8.5,8.5,0,0,1,3-3.15L297.07,27.06a3.06,3.06,0,0,1,3.14-.26c.78.48,4.36,2.51,5.27,3A3.14,3.14,0,0,0,302.56,30.19Z"/></g><path class="cls-13" d="M103.58,157.4v-14a9,9,0,0,1,1.32-4.31l5.49,3.16a8.66,8.66,0,0,0-1.28,4.29v14.14Z"/><path class="cls-9" d="M281.36,48.63c-1.35.78-2.44,3.09-2.44,5.17s1.09,3.11,2.44,2.34,2.44-3.09,2.44-5.16S282.7,47.86,281.36,48.63Z"/><path class="cls-9" d="M290.19,43.56c-1.36.77-2.44,3.08-2.44,5.16s1.08,3.12,2.44,2.34,2.44-3.08,2.44-5.15S291.48,42.78,290.19,43.56Z"/><path class="cls-9" d="M298.91,38.48c-1.35.78-2.44,3.09-2.44,5.17s1.09,3.11,2.44,2.33,2.44-3.08,2.44-5.15S300.26,37.7,298.91,38.48Z"/><path class="cls-14" d="M110.65,356.8l-.23-.13-4.55-2.62a4.58,4.58,0,0,1-2.25-3.35q0-.31,0-.63V157.38l5.52,3.23V354.19a2.8,2.8,0,0,0,1.34,2.44.71.71,0,0,0,.14.1h0Z"/></g><g id="freepik--code--inject-6"><path class="cls-15" d="M208,123.07l56.14-32.4c.84-.49,1.53-.14,1.53.77A3.28,3.28,0,0,1,264.13,94L208,126.39c-.85.49-1.53.14-1.53-.77A3.25,3.25,0,0,1,208,123.07Z"/><path class="cls-16" d="M233,148.84,293.23,114c.85-.49,1.54-.14,1.54.78a3.28,3.28,0,0,1-1.54,2.54L233,152.16c-.84.49-1.53.14-1.53-.77A3.29,3.29,0,0,1,233,148.84Z"/><path class="cls-17" d="M233,160.33l60.21-34.83c.85-.5,1.54-.15,1.54.76a3.29,3.29,0,0,1-1.54,2.55L233,163.65c-.84.49-1.53.15-1.53-.78A3.32,3.32,0,0,1,233,160.33Z"/><path class="cls-18" d="M270.07,87.23l24.1-13.8c.84-.49,1.53-.14,1.53.77a3.29,3.29,0,0,1-1.53,2.55l-24.1,13.81c-.85.49-1.53.14-1.53-.78A3.28,3.28,0,0,1,270.07,87.23Z"/><path class="cls-19" d="M208,132.61l26.26-15.17c.84-.48,1.53-.15,1.53.78a3.3,3.3,0,0,1-1.53,2.54L208,135.93c-.85.49-1.53.15-1.53-.78A3.26,3.26,0,0,1,208,132.61Z"/><path class="cls-20" d="M208,132.61l26.26-15.17c.84-.48,1.53-.15,1.53.78a3.3,3.3,0,0,1-1.53,2.54L208,135.93c-.85.49-1.53.15-1.53-.78A3.26,3.26,0,0,1,208,132.61Z"/><path class="cls-21" d="M208,142.09l14-8c.85-.49,1.54-.15,1.54.77a3.27,3.27,0,0,1-1.54,2.54l-14,8c-.85.49-1.53.14-1.53-.77A3.27,3.27,0,0,1,208,142.09Z"/><path class="cls-20" d="M208,142.09l14-8c.85-.49,1.54-.15,1.54.77a3.27,3.27,0,0,1-1.54,2.54l-14,8c-.85.49-1.53.14-1.53-.77A3.27,3.27,0,0,1,208,142.09Z"/><path class="cls-22" d="M240.19,114l18.14-10.47c.85-.49,1.54-.14,1.54.77a3.31,3.31,0,0,1-1.54,2.59l-18.18,10.47c-.85.49-1.53.14-1.53-.77A3.3,3.3,0,0,1,240.19,114Z"/><path class="cls-20" d="M240.19,114l18.14-10.47c.85-.49,1.54-.14,1.54.77a3.31,3.31,0,0,1-1.54,2.59l-18.18,10.47c-.85.49-1.53.14-1.53-.77A3.3,3.3,0,0,1,240.19,114Z"/><path class="cls-23" d="M268.29,162.46l25.88-14.84c.84-.48,1.53-.14,1.53.78a3.27,3.27,0,0,1-1.53,2.54l-25.88,14.84c-.85.5-1.53.15-1.53-.78A3.26,3.26,0,0,1,268.29,162.46Z"/><path class="cls-23" d="M276,148.56l18.19-10.47c.84-.49,1.53-.14,1.53.77a3.29,3.29,0,0,1-1.53,2.55L276,151.88c-.84.49-1.53.14-1.53-.77A3.32,3.32,0,0,1,276,148.56Z"/><path class="cls-23" d="M244.18,166.83,270.06,152c.85-.48,1.53-.14,1.53.78a3.26,3.26,0,0,1-1.53,2.54l-25.88,14.84c-.85.5-1.53.15-1.53-.77A3.28,3.28,0,0,1,244.18,166.83Z"/><path class="cls-24" d="M226.92,131.24l30.33-17.6c.86-.49,1.53-.14,1.53.78a3.28,3.28,0,0,1-1.53,2.55l-30.33,17.58c-.85.49-1.53.14-1.53-.77A3.25,3.25,0,0,1,226.92,131.24Z"/><path class="cls-20" d="M226.92,131.24l30.33-17.6c.86-.49,1.53-.14,1.53.78a3.28,3.28,0,0,1-1.53,2.55l-30.33,17.58c-.85.49-1.53.14-1.53-.77A3.25,3.25,0,0,1,226.92,131.24Z"/><path class="cls-25" d="M263.19,110.21l30.07-16.92c.85-.49,1.54-.14,1.54.77a3.3,3.3,0,0,1-1.54,2.55l-30.07,16.92c-.84.49-1.53.14-1.53-.77A3.3,3.3,0,0,1,263.19,110.21Z"/><path class="cls-20" d="M263.19,110.21l30.07-16.92c.85-.49,1.54-.14,1.54.77a3.3,3.3,0,0,1-1.54,2.55l-30.07,16.92c-.84.49-1.53.14-1.53-.77A3.3,3.3,0,0,1,263.19,110.21Z"/><path class="cls-26" d="M226.92,141.41l30.33-17.59c.86-.48,1.53-.14,1.53.78a3.27,3.27,0,0,1-1.53,2.55l-30.33,17.58c-.85.48-1.53.14-1.53-.78A3.32,3.32,0,0,1,226.92,141.41Z"/><path class="cls-20" d="M226.92,141.41l30.33-17.59c.86-.48,1.53-.14,1.53.78a3.27,3.27,0,0,1-1.53,2.55l-30.33,17.58c-.85.48-1.53.14-1.53-.78A3.32,3.32,0,0,1,226.92,141.41Z"/><path class="cls-27" d="M263.19,120.39l30.07-16.92c.85-.49,1.54-.14,1.54.77a3.29,3.29,0,0,1-1.54,2.55l-30.07,16.92c-.84.49-1.53.14-1.53-.77A3.32,3.32,0,0,1,263.19,120.39Z"/><path class="cls-20" d="M263.19,120.39l30.07-16.92c.85-.49,1.54-.14,1.54.77a3.29,3.29,0,0,1-1.54,2.55l-30.07,16.92c-.84.49-1.53.14-1.53-.77A3.32,3.32,0,0,1,263.19,120.39Z"/><path class="cls-5" d="M226.93,196.11l67.24-38.65c.84-.49,1.53-.15,1.53.77a3.26,3.26,0,0,1-1.53,2.54l-67.24,38.7c-.86.5-1.53.15-1.53-.76A3.22,3.22,0,0,1,226.93,196.11Z"/><path class="cls-5" d="M226.93,205.61,294.17,167c.84-.48,1.53-.14,1.53.78a3.27,3.27,0,0,1-1.53,2.55l-67.24,38.65c-.86.49-1.53.14-1.53-.78A3.25,3.25,0,0,1,226.93,205.61Z"/><path class="cls-2" d="M226.93,215.11l67.24-38.65c.84-.49,1.53-.14,1.53.78a3.27,3.27,0,0,1-1.53,2.54l-67.24,38.66c-.86.48-1.53.13-1.53-.78A3.27,3.27,0,0,1,226.93,215.11Z"/><path class="cls-28" d="M227.42,227.5l36.71-21.14c.84-.49,1.53-.14,1.53.78a3.33,3.33,0,0,1-1.53,2.55l-36.71,21.14c-.85.49-1.53.14-1.53-.78A3.28,3.28,0,0,1,227.42,227.5Z"/><path class="cls-29" d="M270.07,202.82l24.1-13.72c.84-.49,1.53-.14,1.53.78a3.33,3.33,0,0,1-1.53,2.55l-24.1,13.7c-.85.5-1.53.15-1.53-.76A3.25,3.25,0,0,1,270.07,202.82Z"/><path class="cls-30" d="M203.92,241l14.19-8.2c.85-.49,1.53-.14,1.53.77a3.25,3.25,0,0,1-1.53,2.55l-14.19,8.21c-.85.48-1.54.13-1.54-.78A3.3,3.3,0,0,1,203.92,241Z"/><path class="cls-20" d="M203.92,241l14.19-8.2c.85-.49,1.53-.14,1.53.77a3.25,3.25,0,0,1-1.53,2.55l-14.19,8.21c-.85.48-1.54.13-1.54-.78A3.3,3.3,0,0,1,203.92,241Z"/><path class="cls-31" d="M203.92,249.61l14.19-8.2c.85-.49,1.53-.15,1.53.78a3.23,3.23,0,0,1-1.53,2.53l-14.19,8.21c-.85.48-1.54.14-1.54-.78A3.28,3.28,0,0,1,203.92,249.61Z"/><path class="cls-20" d="M203.92,249.61l14.19-8.2c.85-.49,1.53-.15,1.53.78a3.23,3.23,0,0,1-1.53,2.53l-14.19,8.21c-.85.48-1.54.14-1.54-.78A3.28,3.28,0,0,1,203.92,249.61Z"/><path class="cls-2" d="M268.29,222.22l25.88-14.84c.84-.49,1.53-.14,1.53.77a3.29,3.29,0,0,1-1.53,2.55l-25.88,14.84c-.85.49-1.53.14-1.53-.77A3.25,3.25,0,0,1,268.29,222.22Z"/><path class="cls-2" d="M276,207.91l18.19-10.43c.84-.49,1.53-.14,1.53.78a3.33,3.33,0,0,1-1.53,2.55L276,211.27c-.84.49-1.53.14-1.53-.78A3.33,3.33,0,0,1,276,207.91Z"/><path class="cls-32" d="M226.93,256.85l67.24-38.65c.84-.49,1.53-.14,1.53.77a3.29,3.29,0,0,1-1.53,2.55l-67.24,38.67c-.86.49-1.53.14-1.53-.77A3.22,3.22,0,0,1,226.93,256.85Z"/><path class="cls-33" d="M203.92,270.05l14.19-8.21c.85-.48,1.53-.14,1.53.78a3.25,3.25,0,0,1-1.53,2.54l-14.19,8.2c-.85.5-1.54.15-1.54-.78A3.27,3.27,0,0,1,203.92,270.05Z"/><path class="cls-20" d="M203.92,270.05l14.19-8.21c.85-.48,1.53-.14,1.53.78a3.25,3.25,0,0,1-1.53,2.54l-14.19,8.2c-.85.5-1.54.15-1.54-.78A3.27,3.27,0,0,1,203.92,270.05Z"/><path class="cls-34" d="M226.93,266.23l67.24-38.65c.84-.49,1.53-.14,1.53.78a3.31,3.31,0,0,1-1.53,2.55l-67.24,38.65c-.86.49-1.53.14-1.53-.78A3.28,3.28,0,0,1,226.93,266.23Z"/><path class="cls-35" d="M203.92,279.55l14.19-8.2c.85-.5,1.53-.15,1.53.77a3.25,3.25,0,0,1-1.53,2.54l-14.19,8.21c-.85.48-1.54.14-1.54-.78A3.28,3.28,0,0,1,203.92,279.55Z"/><path class="cls-20" d="M203.92,279.55l14.19-8.2c.85-.5,1.53-.15,1.53.77a3.25,3.25,0,0,1-1.53,2.54l-14.19,8.21c-.85.48-1.54.14-1.54-.78A3.28,3.28,0,0,1,203.92,279.55Z"/><path class="cls-5" d="M226.93,275.78l67.24-38.65c.84-.49,1.53-.14,1.53.77a3.28,3.28,0,0,1-1.53,2.55L226.93,279.1c-.86.49-1.53.14-1.53-.77A3.25,3.25,0,0,1,226.93,275.78Z"/><path class="cls-36" d="M203.92,289.06l14.19-8.2c.85-.49,1.53-.14,1.53.77a3.27,3.27,0,0,1-1.53,2.55l-14.19,8.2c-.85.49-1.54.14-1.54-.77A3.3,3.3,0,0,1,203.92,289.06Z"/><path class="cls-20" d="M203.92,289.06l14.19-8.2c.85-.49,1.53-.14,1.53.77a3.27,3.27,0,0,1-1.53,2.55l-14.19,8.2c-.85.49-1.54.14-1.54-.77A3.3,3.3,0,0,1,203.92,289.06Z"/><g class="cls-37"><path class="cls-5" d="M181.8,260.75l8.34-4.82c.84-.49,1.51-.09,1.51.88v3.06a3.32,3.32,0,0,1-1.51,2.62l-8.34,4.82c-.84.49-1.51.09-1.51-.88v-3.06A3.29,3.29,0,0,1,181.8,260.75Z"/><path class="cls-5" d="M181.8,272.94l8.34-4.81c.84-.48,1.51-.09,1.51.87v3.07a3.31,3.31,0,0,1-1.51,2.62l-8.34,4.82c-.84.48-1.51.09-1.51-.87v-3.07A3.32,3.32,0,0,1,181.8,272.94Z"/><path class="cls-5" d="M181.8,285.15l8.34-4.82c.84-.48,1.51-.09,1.51.87v3.07a3.35,3.35,0,0,1-1.51,2.63l-8.34,4.82c-.84.47-1.51.08-1.51-.88v-3.07A3.31,3.31,0,0,1,181.8,285.15Z"/><path class="cls-5" d="M181.8,297.35l8.34-4.82c.84-.48,1.51-.09,1.51.88v3.06a3.35,3.35,0,0,1-1.51,2.63l-8.34,4.81c-.84.49-1.51.09-1.51-.88v-3A3.3,3.3,0,0,1,181.8,297.35Z"/></g><path class="cls-38" d="M123.78,281.16l45.1-26c1.67-1,3-.18,3,1.75V309a6.7,6.7,0,0,1-3,5.24l-45.1,26c-1.68,1-3,.18-3-1.75V286.41A6.71,6.71,0,0,1,123.78,281.16Z"/><path class="cls-39" d="M127.94,328l4.15-2.4c.85-.49,1.53-.14,1.53.77a3.25,3.25,0,0,1-1.53,2.55l-4.15,2.39c-.85.49-1.53.14-1.53-.77A3.23,3.23,0,0,1,127.94,328Z"/><path class="cls-20" d="M127.94,328l4.15-2.4c.85-.49,1.53-.14,1.53.77a3.25,3.25,0,0,1-1.53,2.55l-4.15,2.39c-.85.49-1.53.14-1.53-.77A3.23,3.23,0,0,1,127.94,328Z"/><path class="cls-40" d="M127.94,285.31l4.15-2.39c.85-.5,1.53-.15,1.53.76a3.25,3.25,0,0,1-1.53,2.55l-4.15,2.4c-.85.49-1.53.14-1.53-.78A3.25,3.25,0,0,1,127.94,285.31Z"/><path class="cls-20" d="M127.94,285.31l4.15-2.39c.85-.5,1.53-.15,1.53.76a3.25,3.25,0,0,1-1.53,2.55l-4.15,2.4c-.85.49-1.53.14-1.53-.78A3.25,3.25,0,0,1,127.94,285.31Z"/><path class="cls-41" d="M133.79,290.45l4.15-2.4c.86-.49,1.55-.14,1.55.78a3.29,3.29,0,0,1-1.55,2.55l-4.15,2.39c-.84.48-1.53.14-1.53-.78A3.3,3.3,0,0,1,133.79,290.45Z"/><path class="cls-20" d="M133.79,290.45l4.15-2.4c.86-.49,1.55-.14,1.55.78a3.29,3.29,0,0,1-1.55,2.55l-4.15,2.39c-.84.48-1.53.14-1.53-.78A3.3,3.3,0,0,1,133.79,290.45Z"/><path class="cls-42" d="M133.79,299l4.15-2.39c.86-.48,1.55-.14,1.55.78a3.31,3.31,0,0,1-1.55,2.55l-4.15,2.39c-.84.48-1.53.14-1.53-.78A3.33,3.33,0,0,1,133.79,299Z"/><path class="cls-20" d="M133.79,299l4.15-2.39c.86-.48,1.55-.14,1.55.78a3.31,3.31,0,0,1-1.55,2.55l-4.15,2.39c-.84.48-1.53.14-1.53-.78A3.33,3.33,0,0,1,133.79,299Z"/><path class="cls-43" d="M127.94,310.89l4.15-2.39c.85-.49,1.53-.14,1.53.77a3.23,3.23,0,0,1-1.53,2.54l-4.15,2.4c-.85.49-1.53.14-1.53-.78A3.25,3.25,0,0,1,127.94,310.89Z"/><path class="cls-20" d="M127.94,310.89l4.15-2.39c.85-.49,1.53-.14,1.53.77a3.23,3.23,0,0,1-1.53,2.54l-4.15,2.4c-.85.49-1.53.14-1.53-.78A3.25,3.25,0,0,1,127.94,310.89Z"/><path class="cls-44" d="M133.79,316l4.15-2.4c.86-.48,1.55-.14,1.55.78a3.27,3.27,0,0,1-1.55,2.55l-4.15,2.39c-.84.48-1.53.14-1.53-.78A3.32,3.32,0,0,1,133.79,316Z"/><path class="cls-20" d="M133.79,316l4.15-2.4c.86-.48,1.55-.14,1.55.78a3.27,3.27,0,0,1-1.55,2.55l-4.15,2.39c-.84.48-1.53.14-1.53-.78A3.32,3.32,0,0,1,133.79,316Z"/><path class="cls-45" d="M139.33,278.75l25.36-14.65c.84-.48,1.53-.14,1.53.78a3.31,3.31,0,0,1-1.53,2.55l-25.36,14.66c-.85.49-1.54.14-1.54-.78A3.25,3.25,0,0,1,139.33,278.75Z"/><path class="cls-46" d="M139.33,278.75l25.36-14.65c.84-.48,1.53-.14,1.53.78a3.31,3.31,0,0,1-1.53,2.55l-25.36,14.66c-.85.49-1.54.14-1.54-.78A3.25,3.25,0,0,1,139.33,278.75Z"/><path class="cls-47" d="M139.33,321.4l25.36-14.64c.84-.49,1.53-.14,1.53.77a3.32,3.32,0,0,1-1.53,2.55l-25.36,14.63c-.85.49-1.54.14-1.54-.77A3.27,3.27,0,0,1,139.33,321.4Z"/><path class="cls-46" d="M139.33,321.4l25.36-14.64c.84-.49,1.53-.14,1.53.77a3.32,3.32,0,0,1-1.53,2.55l-25.36,14.63c-.85.49-1.54.14-1.54-.77A3.27,3.27,0,0,1,139.33,321.4Z"/><path class="cls-48" d="M145.17,283.88l19.52-11.25c.84-.48,1.53-.14,1.53.78a3.29,3.29,0,0,1-1.53,2.55l-19.52,11.25c-.85.48-1.53.14-1.53-.78A3.28,3.28,0,0,1,145.17,283.88Z"/><path class="cls-46" d="M145.17,283.88l19.52-11.25c.84-.48,1.53-.14,1.53.78a3.29,3.29,0,0,1-1.53,2.55l-19.52,11.25c-.85.48-1.53.14-1.53-.78A3.28,3.28,0,0,1,145.17,283.88Z"/><path class="cls-49" d="M145.17,292.41l19.52-11.25c.84-.48,1.53-.14,1.53.78a3.29,3.29,0,0,1-1.53,2.55l-19.52,11.25c-.85.48-1.53.14-1.53-.78A3.28,3.28,0,0,1,145.17,292.41Z"/><path class="cls-46" d="M145.17,292.41l19.52-11.25c.84-.48,1.53-.14,1.53.78a3.29,3.29,0,0,1-1.53,2.55l-19.52,11.25c-.85.48-1.53.14-1.53-.78A3.28,3.28,0,0,1,145.17,292.41Z"/><path class="cls-50" d="M139.33,304.34l25.36-14.65c.84-.48,1.53-.13,1.53.78a3.29,3.29,0,0,1-1.53,2.55l-25.36,14.63c-.85.49-1.54.15-1.54-.77A3.27,3.27,0,0,1,139.33,304.34Z"/><path class="cls-46" d="M139.33,304.34l25.36-14.65c.84-.48,1.53-.13,1.53.78a3.29,3.29,0,0,1-1.53,2.55l-25.36,14.63c-.85.49-1.54.15-1.54-.77A3.27,3.27,0,0,1,139.33,304.34Z"/><path class="cls-51" d="M145.17,309.47l19.52-11.24c.84-.49,1.53-.14,1.53.77a3.32,3.32,0,0,1-1.53,2.55L145.17,312.8c-.85.49-1.53.14-1.53-.78A3.28,3.28,0,0,1,145.17,309.47Z"/><path class="cls-46" d="M145.17,309.47l19.52-11.24c.84-.49,1.53-.14,1.53.77a3.32,3.32,0,0,1-1.53,2.55L145.17,312.8c-.85.49-1.53.14-1.53-.78A3.28,3.28,0,0,1,145.17,309.47Z"/></g></g></g><g id="freepik--character-2--inject-6"><g id="freepik--Character--inject-6"><path class="cls-52" d="M431.28,114.39c.05.45-1.52,1.38-1.52,1.38l.44-2.72Z"/><path class="cls-53" d="M431.28,114.39c.05.45-1.52,1.38-1.52,1.38l.44-2.72Z"/><path class="cls-54" d="M403,139.06c-2.06,4.75-5.2,12.89-7.71,19.35-4-.88-12.44-3.16-15.23-4.12s-4.66-1.73-5.16-2.31c-.88-.78-1-2.29-1.11-3.31a11.39,11.39,0,0,1,.75-4c.22-1.16-1.64-.84-2.59.88-.71,1.27-.8,2.56-1.38,2.69a12,12,0,0,1-2.23-1.21c-1-.74-2.74-2-4.12-1.47a1.56,1.56,0,0,0-.94,1,5.76,5.76,0,0,1-.57,2,5,5,0,0,0-.57.87,3.57,3.57,0,0,0,0,1.22c-.07.59-.73,1-.84,1.56s.15.85.13,1.29c0,.28-.12.54-.13.82a1.93,1.93,0,0,0,.79,1.39,14.14,14.14,0,0,0,4.71,2.49c1.46.53,3.4.84,5,1.32,11.22,3.33,25.51,10.95,27.06,9.95,4-2,7.72-14.44,10.16-19.83s2.89-11.94,4.65-17.34C408.33,131.79,405.39,133.43,403,139.06Z"/><path d="M414.77,132.2c-3-.41-5.44-.48-8,1.24s-3.09,3.38-4.45,6.46-5.58,13.2-5.58,13.2,3.42,4.5,11.29,5.19l6-15.63Z"/><path class="cls-55" d="M370.51,154.47a4.64,4.64,0,0,1-1.1-3.86,2.14,2.14,0,0,0-.59-2.57,2,2,0,0,1,.16,1.7,1.22,1.22,0,0,1-1.38.59s1.07.62.56,1.57a1.33,1.33,0,0,1-1.53.67,1.25,1.25,0,0,1,.41,1.48,1.21,1.21,0,0,1-1.36.63s.81,1.34-.71,1.54c0,0,1.36.36,1.37-1a1.69,1.69,0,0,0,1.41-.67c.34-.47,0-1.41,0-1.41a1,1,0,0,0,.92-.53A2.51,2.51,0,0,0,370.51,154.47Z"/><rect class="cls-54" x="432.19" y="263.07" width="7.18" height="12.28" transform="translate(-6.45 10.73) rotate(-1.4)"/><path class="cls-54" d="M412.62,267.06c-2.34,1.37-4.74,2.42-7.82.47l.47-15.4,7.65.71Z"/><path class="cls-56" d="M436.27,178.21c.16,6.53,1.53,44.5,1.53,44.5.21,1.88,2.09,5.17,2.4,11.94.45,9.81-.5,33-.5,33a10.22,10.22,0,0,1-8.06.38s-5.72-32.62-7.19-42.31c-1.27-8.45-4.86-30.57-4.86-30.57l-3.92,28.94a47.84,47.84,0,0,1,.63,10.42c-.21,4.5-3.06,26.88-3.06,26.88a15.06,15.06,0,0,1-9.13.3s-1.56-34.78-1.74-38.9c-.2-4.7.86-45.2.86-45.2Z"/><path class="cls-38" d="M436.27,178.21c.16,6.53,1.53,44.5,1.53,44.5.21,1.88,2.09,5.17,2.4,11.94.45,9.81-.5,33-.5,33a10.22,10.22,0,0,1-8.06.38s-5.72-32.62-7.19-42.31c-1.27-8.45-4.86-30.57-4.86-30.57l-3.92,28.94a47.84,47.84,0,0,1,.63,10.42c-.21,4.5-3.06,26.88-3.06,26.88a15.06,15.06,0,0,1-9.13.3s-1.56-34.78-1.74-38.9c-.2-4.7.86-45.2.86-45.2Z"/><path class="cls-57" d="M432.26,271.91v-1c-.38,0-.61.39-.74,1.32-.09.68-.21,1.36-.37,2A23,23,0,0,1,430,278c-1,2.53-1.78,3.48-4,6.46a27.17,27.17,0,0,0-2.17,2.62c-.41.78-.52,2.93.24,3.4,2.74,1.74,6.86,1.69,9.75.77a5.89,5.89,0,0,0,4.11-4.85c.09-.67,0-1.33.09-2a9.57,9.57,0,0,1,1.7-4.22,12.8,12.8,0,0,0,1.32-2.3c.57-1.49,0-3.14-.37-4.6-.37-1.25-.77-2.65-1.2-2.51v.78a5.74,5.74,0,0,1-3.55,1.3C434.82,272.85,432.27,272.71,432.26,271.91Z"/><path class="cls-57" d="M404.89,265.17c-.41,0-.94.59-1.82,1.58a17.25,17.25,0,0,1-4.53,3.43c-2.89,1.54-8.54,4-11.09,5.16-1.6.77-1.48,2.71.22,3.78s5.74,1.77,10.55.57c2.61-.66,6-3.16,8.15-3.08s6.23-.06,7.8-1.2.88-3.48.38-5.5c-.55-2.2-1.13-5.64-1.86-5.47v2c-.91,1.45-7.33.8-7.8,0Z"/><path class="cls-13" d="M419.59,195.12s-4.45-.57-7.11-3.5a8.05,8.05,0,0,0,4.29,4.8l-.72,24.8Z"/><path d="M424.48,132.68c2.11.14,6.76.5,8.74.91s2.63,3.56,3,5.23c1.21,5.39-.82,24.17-.82,24.17l1.38,18.57c-4.56,3.31-24.4,4.92-34-2.06,0,0,.47-30.86,1.27-35.66,1.33-8,5.6-11.65,9.16-11.8Z"/><path class="cls-57" d="M422.25,111.06a9,9,0,1,1-8.95-9A9,9,0,0,1,422.25,111.06Z"/><path class="cls-57" d="M429.41,117.64s-1.44,6.78-2,7.9a3.07,3.07,0,0,1-1.77,1.43l.1-4.77Z"/><path class="cls-57" d="M427.68,106.9a3.7,3.7,0,0,1,2.65,1.15c1.18,1.22.55,5.83-.92,9.56l-2.73.31Z"/><path class="cls-54" d="M425.87,118c.55.33,1.32-.72,2-1.42a2.35,2.35,0,0,1,3.32-.27,2.27,2.27,0,0,1,.66.9c1.11,2.36-1,5.47-2.7,6-3,.93-3.42-1-3.42-1l-.22,11.08h0a8.6,8.6,0,0,1-8.12,2.81c-2-.35-3.49-1.23-1.59-3.43v-3.27a18.92,18.92,0,0,1-4,.21c-2.19-.34-3.56-2.07-4.23-4.44-1.06-3.81-1.47-6.89-.56-14.39,1-8.21,10.54-8.3,15.7-5S425.87,118,425.87,118Z"/><path class="cls-57" d="M414.15,110.48a19.26,19.26,0,0,0,6.35-2.36,4.46,4.46,0,0,0,1,2.26,6.85,6.85,0,0,0,2.44,1.6c.19,1.48.19,3.37.28,4.87,0,.49,0,3.11,1.21,2.37a6.58,6.58,0,0,0,1-1.17,16.35,16.35,0,0,1,1.37-1.52c.35-.32.33-1.07.35-1.5a23.56,23.56,0,0,0-.09-2.66c-.08-.92-.23-1.83-.31-2.75a4.39,4.39,0,0,1,.36-1.52,5.78,5.78,0,0,0,.24-1.75,5.37,5.37,0,0,0-3.17-4.21,14.89,14.89,0,0,0-7.63-1.1c-1.65.13-3.24.27-4.89.44a7.26,7.26,0,0,0-1.32.08,6,6,0,0,0-1.46.59,8.66,8.66,0,0,0-2.47,1.77,6,6,0,0,0-1.6,3.29,1.14,1.14,0,0,0,.37,1.21,9.53,9.53,0,0,0,1.58,1A11.36,11.36,0,0,0,414.15,110.48Z"/><path class="cls-55" d="M415.79,129.39a37.46,37.46,0,0,0,6.6-1.89,5.63,5.63,0,0,0,2.37-2.34,7.42,7.42,0,0,1-1.34,2.75c-1.26,1.61-7.63,2.78-7.63,2.78Z"/><path class="cls-57" d="M415.94,117a1.07,1.07,0,0,0,1.1,1,1.06,1.06,0,0,0-.05-2.11,1.07,1.07,0,0,0-1.05,1.09Z"/><path class="cls-57" d="M417,113.38l2.18,1.21a1.31,1.31,0,0,0-.51-1.74,1.23,1.23,0,0,0-1.66.5Z"/><path class="cls-55" d="M416.2,123.36l-2.42.9a1.28,1.28,0,0,0,1.61.82h0A1.33,1.33,0,0,0,416.2,123.36Z"/><path class="cls-57" d="M407.28,114.26l2-1.52a1.19,1.19,0,0,0-1.67-.31l-.05,0A1.32,1.32,0,0,0,407.28,114.26Z"/><path class="cls-57" d="M407.73,116.75a1,1,0,1,0,1-1A1,1,0,0,0,407.73,116.75Z"/><polygon class="cls-55" points="413.5 115.18 413.17 121.57 409.82 120.44 413.5 115.18"/><path class="cls-58" d="M431.53,110.19A13.58,13.58,0,0,1,431,114c-.31-.33-.66-.65-1-1a22.85,22.85,0,0,0-7-3.88h0c-5.88-2.1-12.87-2.32-18.24-.26a12.6,12.6,0,0,1,.72-3.26,13.44,13.44,0,0,1,26,4.55Z"/><path class="cls-59" d="M424.43,97.43a42.57,42.57,0,0,0-4.44-1A8,8,0,0,0,412.73,99a13.7,13.7,0,0,0-3.82,7.72l3.69.78h1.15c.17-2.67,3.11-8.68,8-9.36a3.82,3.82,0,0,1,.68-.06,6.6,6.6,0,0,1,1.93.2,17.26,17.26,0,0,1,2.05,1.35A3,3,0,0,0,424.43,97.43Z"/><path class="cls-60" d="M424.43,97.43a42.57,42.57,0,0,0-4.44-1A8,8,0,0,0,412.73,99a13.7,13.7,0,0,0-3.82,7.72l3.69.78h1.15c.17-2.67,3.11-8.68,8-9.36a3.82,3.82,0,0,1,.68-.06,6.6,6.6,0,0,1,1.93.2,17.26,17.26,0,0,1,2.05,1.35A3,3,0,0,0,424.43,97.43Z"/><path class="cls-61" d="M413.75,107.52c.21-3.12,4.19-10.82,10.57-9.23a18.63,18.63,0,0,1,2.06,1.34,3,3,0,0,0-1.95-2.2c-1.68-.62-5-.7-8,2.37a13.65,13.65,0,0,0-3.8,7.72Z"/><path class="cls-53" d="M413.75,107.52c.21-3.12,4.19-10.82,10.57-9.23a18.63,18.63,0,0,1,2.06,1.34,3,3,0,0,0-1.95-2.2c-1.68-.62-5-.7-8,2.37a13.65,13.65,0,0,0-3.8,7.72Z"/><path class="cls-62" d="M422.9,108.14a15,15,0,0,0-6.46-4.72c-2.89-1.21-8.53-.74-11.05-.46-4.41.5-5.37,1.54-5.37,2.19v1a.54.54,0,0,0,.13.4c.75,1,4.5,2.34,4.5,2.34,5.37-2.06,12.36-1.84,18.24.26Z"/><path class="cls-13" d="M422.9,108.14a15,15,0,0,0-6.46-4.72c-2.89-1.21-8.53-.74-11.05-.46-4.41.5-5.37,1.54-5.37,2.19v1a.54.54,0,0,0,.13.4c.75,1,4.5,2.34,4.5,2.34,5.37-2.06,12.36-1.84,18.24.26Z"/><path class="cls-63" d="M422.9,109.2c-5.88-2.1-12.87-2.32-18.24-.26,0,0-3.75-1.39-4.5-2.34-.41-.51-.23-2,5.23-2.57,2.52-.29,8.16-.75,11.05.44A14.93,14.93,0,0,1,422.9,109.2Z"/><path class="cls-53" d="M422.9,109.2c-5.88-2.1-12.87-2.32-18.24-.26,0,0-3.75-1.39-4.5-2.34-.41-.51-.23-2,5.23-2.57,2.52-.29,8.16-.75,11.05.44A14.93,14.93,0,0,1,422.9,109.2Z"/><polygon class="cls-64" points="386 162.29 411.66 164.02 424.7 192.93 400.19 190.65 386 162.29"/><polygon class="cls-65" points="386 162.29 411.66 164.02 424.7 192.93 400.19 190.65 386 162.29"/><path class="cls-13" d="M409.75,182.29a5.82,5.82,0,0,0,4.58,3.67,12.79,12.79,0,0,0,6.67-1.25l-1.09-2.42Z"/><path class="cls-13" d="M394,165.29l-.38-.88c-.21-.5,1.21-.8,3.19-.67l3.78.24c2,.13,3.74.62,4,1.12l.37.89Z"/><path class="cls-66" d="M391.63,162.11c-.13-.31.43-.5,1.26-.44l1.5.12s-.81-1.93,2.48-1.83a5,5,0,0,1,4.43,2.25l1.6.14a3,3,0,0,1,1.91.67l.28.55-13.21-.93Z"/><path class="cls-2" d="M393.56,162.78c1.2.05,1.71.12,2,.88s.58,1.51.58,1.51l5.85.4s-.5-1.09-.67-1.52,0-.74.9-.67V163l-9.15-.54Z"/><path class="cls-1" d="M393.87,165.41s-.17-.4-.39-.88,1.22-.8,3.19-.67l3.79.24c2,.12,3.74.62,4,1.11l.38.9Z"/><path class="cls-54" d="M411.87,177.57a16.79,16.79,0,0,0,5.24-1.52,12.41,12.41,0,0,1-2.94-.79,1.83,1.83,0,0,1-1.12-2.21c.15-.37,1,.07,2.64,0,2.05-.1,3.44-.45,5.61,0,.82.16,1.93.72,2.65.31,4.05-2.34,14.3-9.75,14.3-9.75l-4.2-14.27s-5.13-10-.83-15.71c3.24.55,6.82.24,9.23,8.81,1.65,5.88,4.26,14.93,5.77,20.62,1.11,4.2-.08,5.45-1.14,6.17-3.13,2.14-6.87,3.91-14.16,7.53-3.08,1.53-8.18,4.46-10.17,5.49-6.91,3.6-10.25,3.25-12.65.92C406.27,179.41,407.72,178.05,411.87,177.57Z"/><path d="M432.39,133.44a14,14,0,0,1,6,1.29c.88.51,2.45,1.52,4.46,8s3.71,12.94,3.71,12.94-2.58,3.14-10.06,3.61l-3.84-11S428.18,139.19,432.39,133.44Z"/></g></g><g id="freepik--check-boxes--inject-6"><g id="freepik--check-boxes--inject-6-2" data-name="freepik--check-boxes--inject-6"><g id="freepik--speach-bubble--inject-6"><path class="cls-67" d="M346.13,34.16a3.45,3.45,0,0,0-1.57-2.71l-1.27-.73a3.41,3.41,0,0,0-3.11,0L320.7,42a3.45,3.45,0,0,0-1.57,2.71v21.4a3.45,3.45,0,0,0,1.57,2.71l1.26.74a3.52,3.52,0,0,0,3.13,0l19.47-11.27a3.45,3.45,0,0,0,1.57-2.71Z"/><path class="cls-68" d="M319.13,66.09a3.45,3.45,0,0,0,1.57,2.71l1.26.74a3.52,3.52,0,0,0,2.86.12c-.74.27-1.3-.14-1.3-1V47.23a3.24,3.24,0,0,1,.51-1.54l-4.44-2.49a3.25,3.25,0,0,0-.46,1.54Z"/><path class="cls-69" d="M346.08,33.71c-.19-.67-.79-.87-1.52-.46L325.09,44.52A3.22,3.22,0,0,0,324,45.69l-4.44-2.49A3.12,3.12,0,0,1,320.7,42l19.48-11.27a3.47,3.47,0,0,1,3.11,0l1.27.73A3.52,3.52,0,0,1,346.08,33.71Z"/><path id="freepik--Check--inject-6" class="cls-70" d="M341.32,39.22a1.8,1.8,0,0,0-2.35,1h0l-6.77,16.11-1.61-1.57a1.79,1.79,0,0,0-2.5,2.57l3.5,3.4a1.75,1.75,0,0,0,1.25.5,1.09,1.09,0,0,0,.36,0,1.77,1.77,0,0,0,1.29-1l7.79-18.53a1.8,1.8,0,0,0-.87-2.39Z"/></g><path class="cls-9" d="M352.12,34.69c0,1,.72,1.31,1.6.8L380.52,20a3.46,3.46,0,0,0,1.59-2.66c0-1-.72-1.32-1.59-.81L353.72,32A3.43,3.43,0,0,0,352.12,34.69Z"/><path class="cls-9" d="M352.12,41.62c0,1,.72,1.31,1.6.8L380.52,27a3.44,3.44,0,0,0,1.59-2.65c0-1-.72-1.32-1.59-.81L353.72,39A3.41,3.41,0,0,0,352.12,41.62Z"/><path class="cls-9" d="M352.12,48.53c0,1,.72,1.33,1.6.82l26.8-15.47a3.44,3.44,0,0,0,1.59-2.66c0-1-.72-1.32-1.59-.8l-26.8,15.47A3.42,3.42,0,0,0,352.12,48.53Z"/><g id="freepik--speach-bubble--inject-6-2" data-name="freepik--speach-bubble--inject-6"><path class="cls-71" d="M346.13,72.45a3.46,3.46,0,0,0-1.57-2.71L343.29,69a3.41,3.41,0,0,0-3.11,0L320.7,80.28A3.42,3.42,0,0,0,319.13,83v21.4a3.45,3.45,0,0,0,1.57,2.71l1.26.74a3.45,3.45,0,0,0,3.13,0l19.47-11.27a3.45,3.45,0,0,0,1.57-2.71Z"/><path class="cls-68" d="M319.13,104.41a3.45,3.45,0,0,0,1.57,2.71l1.26.74a3.52,3.52,0,0,0,2.86.12c-.74.28-1.3-.14-1.3-1V85.52A3.24,3.24,0,0,1,324,84l-4.39-2.54a3.25,3.25,0,0,0-.46,1.54Z"/><path class="cls-69" d="M346.08,72c-.19-.65-.79-.87-1.52-.45L325.09,82.81A3.31,3.31,0,0,0,324,84l-4.39-2.53a3,3,0,0,1,1.11-1.16l19.47-11.27a3.43,3.43,0,0,1,3.12,0l1.27.72A3.52,3.52,0,0,1,346.08,72Z"/><path id="freepik--check--inject-6-2" data-name="freepik--check--inject-6" class="cls-70" d="M341.32,77.54a1.8,1.8,0,0,0-2.35,1h0L332.2,94.64l-1.61-1.56a1.79,1.79,0,0,0-2.5,2.56l3.5,3.4a1.76,1.76,0,0,0,1.25.51,2.16,2.16,0,0,0,.36,0,1.8,1.8,0,0,0,1.29-1.06L342.28,80a1.82,1.82,0,0,0-.88-2.4Z"/></g><path class="cls-9" d="M352.12,73c0,1,.72,1.31,1.6.81l26.8-15.47a3.46,3.46,0,0,0,1.59-2.66c0-1-.72-1.31-1.59-.81l-26.8,15.47A3.43,3.43,0,0,0,352.12,73Z"/><path class="cls-9" d="M352.12,79.91c0,1,.72,1.31,1.6.8l26.8-15.46a3.46,3.46,0,0,0,1.59-2.66c0-1-.72-1.32-1.59-.81l-26.8,15.47A3.43,3.43,0,0,0,352.12,79.91Z"/><path class="cls-9" d="M352.12,86.83c0,1,.72,1.32,1.6.81l26.8-15.47a3.44,3.44,0,0,0,1.59-2.65c0-1-.72-1.33-1.59-.81l-26.8,15.47A3.42,3.42,0,0,0,352.12,86.83Z"/><g id="freepik--speach-bubble--inject-6-3" data-name="freepik--speach-bubble--inject-6"><path class="cls-23" d="M346.13,110.74a3.43,3.43,0,0,0-1.57-2.7l-1.27-.74a3.41,3.41,0,0,0-3.11,0L320.7,118.57a3.45,3.45,0,0,0-1.57,2.71v21.46a3.43,3.43,0,0,0,1.57,2.7l1.26.74a3.45,3.45,0,0,0,3.13,0l19.47-11.27a3.43,3.43,0,0,0,1.57-2.71Z"/><path class="cls-2" d="M319.13,142.74a3.43,3.43,0,0,0,1.57,2.7l1.26.74a3.48,3.48,0,0,0,2.86.12c-.74.28-1.3-.13-1.3-1V123.82a3.25,3.25,0,0,1,.46-1.54l-4.39-2.54a3.25,3.25,0,0,0-.46,1.55Z"/><path class="cls-69" d="M346.08,110.3c-.19-.66-.79-.88-1.52-.46l-19.47,11.27a3.09,3.09,0,0,0-1.11,1.16l-4.39-2.53a3.16,3.16,0,0,1,1.11-1.16l19.48-11.27a3.41,3.41,0,0,1,3.11,0l1.27.73A3.5,3.5,0,0,1,346.08,110.3Z"/></g><path class="cls-9" d="M352.12,111.27c0,1,.72,1.32,1.6.81l26.8-15.47A3.44,3.44,0,0,0,382.11,94c0-1-.72-1.31-1.59-.8l-26.8,15.46A3.43,3.43,0,0,0,352.12,111.27Z"/><path class="cls-9" d="M352.12,118.2c0,1,.72,1.31,1.6.81l26.8-15.47a3.46,3.46,0,0,0,1.59-2.66c0-1-.72-1.31-1.59-.81l-26.8,15.47A3.43,3.43,0,0,0,352.12,118.2Z"/><path class="cls-9" d="M352.12,125.12c0,1,.72,1.32,1.6.81l26.8-15.46a3.46,3.46,0,0,0,1.59-2.66c0-1-.72-1.33-1.59-.81l-26.8,15.47A3.43,3.43,0,0,0,352.12,125.12Z"/></g></g><g id="freepik--Charts--inject-6"><g id="freepik--Chart--inject-6"><path class="cls-72" d="M131,380.87l49.3,28.47A4.23,4.23,0,0,0,184,409l90.75-52.39c1.17-.68,1.41-1.65.53-2.16L226,326a4.23,4.23,0,0,0-3.73.3l-90.75,52.4C130.36,379.4,130.12,380.36,131,380.87Z"/><path class="cls-73" d="M181.69,410.12a3.38,3.38,0,0,1-1.62-.37l-49.31-28.47a1.38,1.38,0,0,1-.77-1.2,2.23,2.23,0,0,1,1.3-1.77L222,325.89a4.67,4.67,0,0,1,4.21-.31l49.3,28.47a1.36,1.36,0,0,1,.77,1.21A2.2,2.2,0,0,1,275,357l-90.75,52.42A5.33,5.33,0,0,1,181.69,410.12Zm42.94-83.93a4.48,4.48,0,0,0-2.12.54l-90.75,52.4c-.61.35-.82.73-.82.95a.46.46,0,0,0,.29.38l49.31,28.47a3.73,3.73,0,0,0,3.25-.31l90.75-52.38c.62-.36.84-.74.84-.95s-.1-.28-.3-.4l-49.31-28.47a2.32,2.32,0,0,0-1.13-.23Z"/><polygon class="cls-74" points="184.42 400.16 164.94 388.9 168.38 386.92 187.86 398.17 184.42 400.16"/><polygon class="cls-9" points="186.24 402.11 191.24 399.23 192.39 399.89 187.38 402.78 186.24 402.11"/><polygon class="cls-75" points="190.98 396.38 160.97 379.05 164.41 377.07 194.42 394.39 190.98 396.38"/><polygon class="cls-9" points="192.8 398.33 197.79 395.44 198.95 396.1 193.94 398.99 192.8 398.33"/><polygon class="cls-76" points="200.98 390.6 168.38 371.78 171.84 369.8 204.41 388.62 200.98 390.6"/><polygon class="cls-9" points="202.8 392.54 207.81 389.65 208.95 390.32 203.96 393.2 202.8 392.54"/><polygon class="cls-77" points="207.54 386.81 180.56 371.25 184.02 369.26 210.97 384.82 207.54 386.81"/><polygon class="cls-9" points="209.36 388.75 214.36 385.87 215.51 386.54 210.51 389.42 209.36 388.75"/><polygon class="cls-78" points="217.54 381.04 202.5 372.36 205.96 370.38 220.99 379.06 217.54 381.04"/><polygon class="cls-9" points="219.34 383 224.34 380.11 225.5 380.77 220.49 383.66 219.34 383"/><polygon class="cls-79" points="224.1 377.26 207.03 367.4 210.48 365.41 227.55 375.28 224.1 377.26"/><polygon class="cls-9" points="225.91 379.21 230.9 376.32 232.06 376.99 227.05 379.88 225.91 379.21"/><polygon class="cls-80" points="234.1 371.49 213.53 359.61 216.98 357.62 237.54 369.5 234.1 371.49"/><polygon class="cls-9" points="235.97 373.41 240.97 370.52 242.12 371.19 237.12 374.07 235.97 373.41"/><polygon class="cls-81" points="240.66 367.69 227.27 359.97 230.71 357.98 244.1 365.71 240.66 367.69"/><polygon class="cls-9" points="242.53 369.62 247.53 366.74 248.68 367.4 243.67 370.29 242.53 369.62"/><polygon class="cls-82" points="250.66 361.92 244.81 358.55 248.25 356.56 254.1 359.93 250.66 361.92"/><polygon class="cls-74" points="184.42 400.16 164.94 388.9 168.38 386.92 187.86 398.17 184.42 400.16"/><polygon class="cls-76" points="200.98 390.6 168.38 371.78 171.84 369.8 204.41 388.62 200.98 390.6"/><polygon class="cls-78" points="217.54 381.04 202.5 372.36 205.96 370.38 220.99 379.06 217.54 381.04"/><polygon class="cls-80" points="234.1 371.49 213.53 359.61 216.98 357.62 237.54 369.5 234.1 371.49"/><polygon class="cls-82" points="250.66 361.92 244.81 358.55 248.25 356.56 254.1 359.93 250.66 361.92"/><polygon class="cls-9" points="252.52 363.84 257.53 360.95 258.67 361.62 253.68 364.51 252.52 363.84"/><polygon class="cls-83" points="257.22 358.14 237.77 346.63 241.21 344.64 260.66 356.15 257.22 358.14"/><polygon class="cls-9" points="259.08 360.06 264.08 357.17 265.23 357.83 260.23 360.71 259.08 360.06"/><polygon class="cls-84" points="195.6 348.88 191.84 351.04 194.66 352.66 198.4 350.5 195.6 348.88"/><polygon class="cls-85" points="195.6 348.88 191.84 351.04 194.66 352.66 198.4 350.5 195.6 348.88"/><path class="cls-9" d="M225,332.35,198.2,347.79c-.53.3-.64.74-.24,1l.55.32a1.94,1.94,0,0,0,1.71-.15L227,333.48c.54-.32.65-.75.24-1l-.54-.31A1.92,1.92,0,0,0,225,332.35Z"/><polygon class="cls-86" points="200.28 351.59 196.53 353.75 199.35 355.37 203.1 353.21 200.28 351.59"/><path class="cls-9" d="M229.71,335.05,202.9,350.53c-.55.31-.66.75-.25,1l.55.32a1.94,1.94,0,0,0,1.71-.15l26.81-15.47c.54-.32.65-.76.25-1l-.55-.31A2,2,0,0,0,229.71,335.05Z"/><polygon class="cls-74" points="184.42 400.16 164.94 388.9 168.38 386.92 187.86 398.17 184.42 400.16"/><polygon class="cls-76" points="200.98 390.6 168.38 371.78 171.84 369.8 204.41 388.62 200.98 390.6"/><polygon class="cls-78" points="217.54 381.04 202.5 372.36 205.96 370.38 220.99 379.06 217.54 381.04"/><polygon class="cls-80" points="234.1 371.49 213.53 359.61 216.98 357.62 237.54 369.5 234.1 371.49"/><polygon class="cls-74" points="184.42 400.16 164.94 388.9 168.38 386.92 187.86 398.17 184.42 400.16"/><polygon class="cls-76" points="200.98 390.6 168.38 371.78 171.84 369.8 204.41 388.62 200.98 390.6"/><polygon class="cls-78" points="217.54 381.04 202.5 372.36 205.96 370.38 220.99 379.06 217.54 381.04"/><polygon class="cls-80" points="234.1 371.49 213.53 359.61 216.98 357.62 237.54 369.5 234.1 371.49"/><polygon class="cls-82" points="250.66 361.92 244.81 358.55 248.25 356.56 254.1 359.93 250.66 361.92"/><polygon class="cls-85" points="184.42 400.16 164.94 388.9 168.38 386.92 187.86 398.17 184.42 400.16"/><polygon class="cls-85" points="200.98 390.6 168.38 371.78 171.84 369.8 204.41 388.62 200.98 390.6"/><polygon class="cls-85" points="217.54 381.04 202.5 372.36 205.96 370.38 220.99 379.06 217.54 381.04"/><polygon class="cls-85" points="234.1 371.49 213.53 359.61 216.98 357.62 237.54 369.5 234.1 371.49"/><polygon class="cls-85" points="250.66 361.92 244.81 358.55 248.25 356.56 254.1 359.93 250.66 361.92"/></g><g id="freepik--chart--inject-6-2" data-name="freepik--chart--inject-6"><path class="cls-87" d="M236.07,320.27l49.3,28.51a4.23,4.23,0,0,0,3.73-.31L357,309.28c1.17-.67,1.41-1.64.52-2.15l-49.3-28.46a4.2,4.2,0,0,0-3.73.3L236.6,318.12C235.44,318.8,235.18,319.77,236.07,320.27Z"/><path class="cls-88" d="M286.76,349.52a3.42,3.42,0,0,1-1.63-.37l-49.3-28.47a1.4,1.4,0,0,1-.77-1.2,2.22,2.22,0,0,1,1.31-1.77l67.86-39.18a4.64,4.64,0,0,1,4.21-.31l49.3,28.47a1.37,1.37,0,0,1,.77,1.2,2.19,2.19,0,0,1-1.29,1.76l-67.88,39.19A5.4,5.4,0,0,1,286.76,349.52Zm20.07-70.73a4.38,4.38,0,0,0-2.12.55l-67.88,39.19c-.61.35-.82.73-.82,1a.44.44,0,0,0,.29.38l49.31,28.47a3.73,3.73,0,0,0,3.25-.31l67.88-39.18c.62-.35.83-.73.83-.95s-.1-.28-.29-.39L308,279A2.22,2.22,0,0,0,306.83,278.79Z"/><polygon class="cls-89" points="320.75 311.38 317 313.54 319.83 315.18 323.57 313.01 320.75 311.38"/><path class="cls-9" d="M335.32,303.81,322.94,311c-.33.18-.39.44-.15.58l.76.45a1.17,1.17,0,0,0,1-.09L337,304.75c.33-.17.39-.44.15-.58l-.77-.45A1.14,1.14,0,0,0,335.32,303.81Z"/><polygon class="cls-90" points="309.25 304.75 305.5 306.9 308.32 308.53 312.07 306.37 309.25 304.75"/><polygon class="cls-85" points="309.25 304.75 305.5 306.9 308.32 308.53 312.07 306.37 309.25 304.75"/><path class="cls-9" d="M324,297.19l-12.38,7.14c-.33.19-.39.45-.15.59l.76.44a1.21,1.21,0,0,0,1-.08l12.37-7.14c.33-.19.39-.45.15-.6l-.76-.44A1.15,1.15,0,0,0,324,297.19Z"/><polygon class="cls-91" points="297.76 298.11 294.01 300.27 296.83 301.89 300.57 299.73 297.76 298.11"/><polygon class="cls-92" points="297.76 298.11 294.01 300.27 296.83 301.89 300.57 299.73 297.76 298.11"/><path class="cls-9" d="M312.68,290.56l-12.39,7.15c-.32.19-.39.45-.14.58l.77.45a1.12,1.12,0,0,0,1-.09l12.39-7.13c.31-.19.38-.46.14-.6l-.76-.44A1.17,1.17,0,0,0,312.68,290.56Z"/><path class="cls-93" d="M301.24,311.15c-9.53-5.51-25-5.51-34.5,0s-9.53,14.41,0,19.9,25,5.51,34.5,0S310.77,316.64,301.24,311.15Zm-4.82,17.13c-6.87,4-18,4-24.89,0s-6.85-10.39,0-14.35,18-4,24.89,0S303.29,324.31,296.42,328.28Z"/><path class="cls-85" d="M293.17,312.44l3-3.55c-9.32-3.08-21.39-2.34-29.34,2.26l4.81,2.78C277.41,310.55,286.35,310.06,293.17,312.44Z"/><path class="cls-92" d="M301.24,311.15a27.2,27.2,0,0,0-5.16-2.26l-3,3.55a21.19,21.19,0,0,1,3.3,1.48,17.16,17.16,0,0,1,1.51,1l4.86-2.81C302.3,311.79,301.79,311.46,301.24,311.15Z"/><path class="cls-94" d="M274.6,326.55c5.22,3,13.64,3,18.81,0s5.17-7.89,0-10.9-13.59-3-18.81,0S269.38,323.55,274.6,326.55Z"/><path class="cls-70" d="M280.69,320.17a7.53,7.53,0,0,1,.87.5,2,2,0,0,1,.5.45.74.74,0,0,1,.18.49.75.75,0,0,1-.21.51,1.94,1.94,0,0,1-.64.53,3.46,3.46,0,0,1-1.8.49,3.47,3.47,0,0,1-.85-.1,4.3,4.3,0,0,1-.78-.29,3.75,3.75,0,0,1-.44-.24l-.42-.27a1.87,1.87,0,0,1-.5-.43.94.94,0,0,1-.19-.5.83.83,0,0,1,.21-.52,2.19,2.19,0,0,1,.65-.52,4.19,4.19,0,0,1,.9-.38,3.89,3.89,0,0,1,.9-.11,3.94,3.94,0,0,1,.84.1A4.3,4.3,0,0,1,280.69,320.17Zm-1.45,1.74a1.59,1.59,0,0,0,.57.18.84.84,0,0,0,.49-.1c.17-.1.23-.2.2-.29a.66.66,0,0,0-.33-.33,4.74,4.74,0,0,0-.75-.44,1.91,1.91,0,0,0-.57-.19.79.79,0,0,0-.5.12c-.16.1-.23.19-.2.29a1,1,0,0,0,.33.33A5.13,5.13,0,0,0,279.24,321.91Zm3-4.21a.28.28,0,0,1,0-.18.33.33,0,0,1,.19-.18l.94-.54a.5.5,0,0,1,.27-.08.42.42,0,0,1,.24,0h.05v.06l1.78,7.55a.31.31,0,0,1,0,.19.37.37,0,0,1-.19.18l-.94.54a.5.5,0,0,1-.27.08.37.37,0,0,1-.23-.05H284v-.06Zm7.81,1.68a5.67,5.67,0,0,1,.86.5,2.69,2.69,0,0,1,.51.44.8.8,0,0,1,.18.49.86.86,0,0,1-.21.53,2.19,2.19,0,0,1-.65.52,3.56,3.56,0,0,1-.9.37,3.35,3.35,0,0,1-1.74,0,4.26,4.26,0,0,1-.78-.28l-.45-.23-.42-.27a1.91,1.91,0,0,1-.49-.45.88.88,0,0,1-.19-.49.91.91,0,0,1,.2-.52,2.19,2.19,0,0,1,.65-.52,3.44,3.44,0,0,1,.91-.38,3.36,3.36,0,0,1,.9-.11,3.44,3.44,0,0,1,.84.1,3.64,3.64,0,0,1,.76.33Zm-1.46,1.78a2.31,2.31,0,0,0,.56.19.82.82,0,0,0,.51-.12c.16-.1.23-.19.2-.29a1,1,0,0,0-.33-.33,5.13,5.13,0,0,0-.76-.43,1.77,1.77,0,0,0-.56-.19.94.94,0,0,0-.5.11c-.17.1-.23.2-.2.29a.66.66,0,0,0,.33.33,5.74,5.74,0,0,0,.73.48Z"/></g></g><path class="cls-38" d="M114.3,177.63v78.24c0,3.73,4.06,6.39,7.25,4.74l79.76-41.05a4.33,4.33,0,0,0,2.33-3.92V136.5c0-3.75-4.1-6.41-7.29-4.73l-79.76,42A4.35,4.35,0,0,0,114.3,177.63Z"/></svg>