<svg xmlns="http://www.w3.org/2000/svg" xmlns:xlink="http://www.w3.org/1999/xlink" viewBox="0 0 500 394.05"><defs><style>.cls-1{fill:#f5f5f5;}.cls-2{fill:#ebebeb;}.cls-3{fill:url(#linear-gradient);}.cls-4{fill:#fafafa;}.cls-5{fill:url(#linear-gradient-2);}.cls-6{fill:#d8d8d8;}.cls-7{fill:url(#linear-gradient-3);}.cls-8{fill:#e6e6e6;}.cls-9{fill:url(#linear-gradient-4);}.cls-10{fill:url(#linear-gradient-5);}.cls-11{fill:#e2e2e2;}.cls-12{fill:url(#linear-gradient-6);}.cls-13{fill:url(#linear-gradient-7);}.cls-14,.cls-23,.cls-53{fill:#fff;}.cls-15{fill:url(#linear-gradient-8);}.cls-16{fill:url(#linear-gradient-9);}.cls-17{fill:none;}.cls-18{fill:#dfd8cc;}.cls-19{fill:#37474f;}.cls-20{fill:#455a64;}.cls-21{fill:#388176;}.cls-22{fill:url(#linear-gradient-10);}.cls-23,.cls-33,.cls-51,.cls-53,.cls-55{isolation:isolate;}.cls-23{opacity:0.4;}.cls-24{fill:#f8f8f8;}.cls-25{fill:#bcf7bf;}.cls-26{fill:#e0e0e0;}.cls-27{fill:#0c0c0c;}.cls-28{fill:#407bff;}.cls-29{fill:url(#linear-gradient-11);}.cls-30{fill:url(#linear-gradient-12);}.cls-31{fill:#263238;}.cls-32{fill:#fab27b;}.cls-33,.cls-48{opacity:0.2;}.cls-34{fill:url(#linear-gradient-13);}.cls-35{fill:url(#linear-gradient-14);}.cls-36{fill:#1c282d;}.cls-37{fill:url(#linear-gradient-15);}.cls-38{fill:url(#linear-gradient-16);}.cls-39{fill:url(#linear-gradient-17);}.cls-40{fill:url(#linear-gradient-18);}.cls-41{fill:url(#linear-gradient-19);}.cls-42{fill:url(#linear-gradient-20);}.cls-43{fill:url(#linear-gradient-21);}.cls-44{fill:url(#linear-gradient-22);}.cls-45{fill:url(#linear-gradient-23);}.cls-46{fill:url(#linear-gradient-24);}.cls-47,.cls-55{opacity:0.3;}.cls-49{fill:url(#linear-gradient-25);}.cls-50{fill:url(#linear-gradient-26);}.cls-51{opacity:0.1;}.cls-52{fill:#ffa8a7;}.cls-53{opacity:0.7;}.cls-54{fill:url(#linear-gradient-27);}.cls-56{fill:#ed893e;}</style><linearGradient id="linear-gradient" x1="179.86" y1="118.25" x2="222.61" y2="118.25" gradientUnits="userSpaceOnUse"><stop offset="0" stop-color="#00ffaf"/><stop offset="0.06" stop-color="#00edad"/><stop offset="0.32" stop-color="#00a6a7"/><stop offset="0.55" stop-color="#006ea2"/><stop offset="0.75" stop-color="#00469f"/><stop offset="0.91" stop-color="#002d9d"/><stop offset="1" stop-color="#00249c"/></linearGradient><linearGradient id="linear-gradient-2" x1="145.6" y1="161.91" x2="182.58" y2="161.91" xlink:href="#linear-gradient"/><linearGradient id="linear-gradient-3" x1="41.71" y1="99.61" x2="61.02" y2="99.61" xlink:href="#linear-gradient"/><linearGradient id="linear-gradient-4" x1="68.43" y1="101.34" x2="81.86" y2="101.34" xlink:href="#linear-gradient"/><linearGradient id="linear-gradient-5" x1="89.33" y1="99.64" x2="108.68" y2="99.64" xlink:href="#linear-gradient"/><linearGradient id="linear-gradient-6" x1="397.6" y1="273.23" x2="421.44" y2="273.23" xlink:href="#linear-gradient"/><linearGradient id="linear-gradient-7" x1="402.51" y1="263.89" x2="429.12" y2="263.89" xlink:href="#linear-gradient"/><linearGradient id="linear-gradient-8" x1="422.35" y1="262.51" x2="440.29" y2="262.51" xlink:href="#linear-gradient"/><linearGradient id="linear-gradient-9" x1="425.58" y1="273.71" x2="457.88" y2="273.71" xlink:href="#linear-gradient"/><linearGradient id="linear-gradient-10" x1="365.48" y1="83.21" x2="369.16" y2="83.21" xlink:href="#linear-gradient"/><linearGradient id="linear-gradient-11" x1="255.47" y1="374.96" x2="261.76" y2="374.96" xlink:href="#linear-gradient"/><linearGradient id="linear-gradient-12" x1="255.37" y1="374.04" x2="258.46" y2="374.04" xlink:href="#linear-gradient"/><linearGradient id="linear-gradient-13" x1="299.55" y1="357.99" x2="305.41" y2="357.99" xlink:href="#linear-gradient"/><linearGradient id="linear-gradient-14" x1="299.11" y1="357.33" x2="301.82" y2="357.33" xlink:href="#linear-gradient"/><linearGradient id="linear-gradient-15" x1="89" y1="205.94" x2="138.79" y2="326.96" xlink:href="#linear-gradient"/><linearGradient id="linear-gradient-16" x1="145.96" y1="182.51" x2="195.74" y2="303.53" xlink:href="#linear-gradient"/><linearGradient id="linear-gradient-17" x1="69.68" y1="197.59" x2="78.11" y2="245.07" xlink:href="#linear-gradient"/><linearGradient id="linear-gradient-18" x1="48.5" y1="308.85" x2="139.82" y2="308.85" xlink:href="#linear-gradient"/><linearGradient id="linear-gradient-19" x1="215.75" y1="308.85" x2="307.09" y2="308.85" xlink:href="#linear-gradient"/><linearGradient id="linear-gradient-20" x1="105.83" y1="308.85" x2="139.82" y2="308.85" xlink:href="#linear-gradient"/><linearGradient id="linear-gradient-21" x1="273.11" y1="308.78" x2="307.11" y2="308.78" gradientTransform="matrix(1, 0, 0, 1, 1.29, -1.16)" xlink:href="#linear-gradient"/><linearGradient id="linear-gradient-22" x1="177.49" y1="284.83" x2="218.08" y2="372.92" xlink:href="#linear-gradient"/><linearGradient id="linear-gradient-23" x1="123.11" y1="317.09" x2="137.66" y2="315.55" xlink:href="#linear-gradient"/><linearGradient id="linear-gradient-24" x1="123.84" y1="324.02" x2="138.39" y2="322.49" xlink:href="#linear-gradient"/><linearGradient id="linear-gradient-25" x1="138.26" y1="282.18" x2="94.6" y2="282.95" xlink:href="#linear-gradient"/><linearGradient id="linear-gradient-26" x1="237.58" y1="205.79" x2="240.99" y2="205.79" xlink:href="#linear-gradient"/><linearGradient id="linear-gradient-27" x1="239.31" y1="229.12" x2="243.73" y2="229.12" xlink:href="#linear-gradient"/></defs><g id="Layer_2" data-name="Layer 2"><g id="Layer_1-2" data-name="Layer 1"><g id="freepik--Floor--inject-4"><path class="cls-1" d="M408.53,223.71c-92.74-39-242.61-39-334.75,0s-91.66,102.16,1.09,141.12,242.62,39,334.77,0S501.29,262.69,408.53,223.71Z"/></g><rect class="cls-2" x="322.53" y="350.21" width="8.69" height="0.25"/><rect class="cls-2" x="396.59" y="338.21" width="19.19" height="0.25"/><rect class="cls-2" x="52.46" y="339.89" width="43.19" height="0.25"/><rect class="cls-2" x="104.56" y="339.89" width="6.33" height="0.25"/><rect class="cls-2" x="131.47" y="344.11" width="93.68" height="0.25"/><path class="cls-2" d="M232.68,282.8H20.49a6,6,0,0,1-6.28-5.71V5.66A6,6,0,0,1,20.49,0H232.68A6,6,0,0,1,239,5.71h0V277.09A6,6,0,0,1,232.68,282.8ZM20.49.2a5.77,5.77,0,0,0-6,5.46V277.09a5.77,5.77,0,0,0,6,5.46H232.68a5.76,5.76,0,0,0,6-5.46V5.66a5.76,5.76,0,0,0-6-5.46Z"/><path class="cls-2" d="M453.07,286.8H251.91a5.84,5.84,0,0,1-5.95-5.71V9.66A5.84,5.84,0,0,1,251.91,4H453.07A5.83,5.83,0,0,1,459,9.66V281.09A5.83,5.83,0,0,1,453.07,286.8ZM251.91,4.2a5.59,5.59,0,0,0-5.69,5.46V281.09a5.59,5.59,0,0,0,5.69,5.46H453.07a5.6,5.6,0,0,0,5.69-5.46V9.66a5.6,5.6,0,0,0-5.69-5.46Z"/><rect class="cls-2" y="331.4" width="500" height="0.25"/><rect class="cls-3" x="179.86" y="91.94" width="42.75" height="52.62"/><rect class="cls-2" x="185.96" y="99.45" width="30.54" height="37.59"/><rect class="cls-1" x="132.13" y="114.57" width="42.73" height="30.35"/><rect class="cls-4" x="135.39" y="117.71" width="36.22" height="24.05"/><rect class="cls-5" x="145.6" y="148.77" width="36.98" height="26.27"/><rect class="cls-4" x="152.32" y="154.09" width="23.54" height="15.63"/><rect class="cls-6" x="73.17" y="101.6" width="4" height="230.03"/><path class="cls-7" d="M61,74.24a4.75,4.75,0,0,0-9.38-1.43q-4.93,25.83-9.86,51.65c-.47,2.46,2.19,5,6,5.63s7.07-1.12,7.36-3.61Q58,100.35,61,74.24Z"/><path class="cls-8" d="M70.43,75A4.75,4.75,0,0,0,61,74.29q-3,26.11-5.92,52.24c-.29,2.49,2.55,4.88,6.35,5.16s7-1.64,7-4.15Z"/><path class="cls-9" d="M79.9,75a4.74,4.74,0,0,0-9.47,0l-2,52.54c-.09,2.51,2.91,4.67,6.72,4.67s6.8-2.16,6.71-4.67Z"/><path class="cls-8" d="M89.35,74.24A4.75,4.75,0,0,0,79.9,75l2,52.54c.09,2.51,3.25,4.44,7,4.15s6.63-2.67,6.35-5.16Q92.32,100.36,89.35,74.24Z"/><path class="cls-10" d="M98.74,72.81a4.76,4.76,0,0,0-9.39,1.43q3,26.12,5.93,52.24c.28,2.49,3.58,4.18,7.35,3.61s6.43-3.17,6-5.63Q103.67,98.63,98.74,72.81Z"/><path class="cls-2" d="M104.54,331.88c.11-3.09-1.82-6.25-5.79-6.25H51.58c-4,0-5.89,3.16-5.78,6.25Z"/><rect class="cls-11" x="407.78" y="338.49" width="34.18" height="0.26"/><path class="cls-12" d="M407.54,273.63c-.64-.95.1-2.25-.53-3.16s-2.07-.67-2.79-1.61c-1-1.28.16-2.63-.73-3.9-.54-.76-1.81-.2-2.45-.95s.16-2-.54-2.78-1.63-.32-2.39-1.09c-1-1.06-.18-3.67-.18-3.67s2.63-.89,3.72.23c.79.83.31,1.76,1,2.54s2,.08,2.78.95-.06,2,.61,2.67c1.1,1.17,2.7.43,3.74,1.82.76,1,.09,2.35.75,3.31s2.15.82,2.84,1.86.08,2.09.62,3,1.78,1,2.32,1.95-.16,2.26.36,3.26,1.92,1.08,2.45,2.19-.42,2.39,0,3.52c.35.92,1.59,1.08,2,2.07a3.28,3.28,0,0,1-1.62,4.35l-.09,0a3.32,3.32,0,0,1-4.08-2.13c-.37-.92.41-1.87,0-2.71-.5-1.05-2-1.06-2.54-2.17s.33-2.15-.15-3.1-1.88-.95-2.42-1.93.07-2-.43-2.84S408.1,274.5,407.54,273.63Z"/><path class="cls-13" d="M412.31,263.85c-.6-1.88,1.13-3.61.5-5.36s-3.08-1.95-3.82-3.78c-1-2.48,1.38-4.19.49-6.62-.54-1.47-2.83-1.11-3.56-2.6s1.12-3.2.33-4.72-2.52-1.22-3.41-2.8c-1.2-2.15,1.28-6,1.28-6s4.64-.32,5.92,2c.94,1.67-.24,3,.58,4.54s3.25,1,4.09,2.73-.94,3.16-.16,4.59c1.28,2.36,4.18,1.86,5.26,4.55.81,2-.85,3.84-.18,5.68s3.13,2.2,3.78,4.23c.59,1.79-.75,3.42-.27,5.08s2.48,2.33,2.94,4.16c.51,2-1.23,3.59-.83,5.43s2.64,2.57,3,4.6c.4,2.19-1.69,3.67-1.48,5.7.17,1.63,2.11,2.42,2.31,4.2.37,3.29-1.77,6.16-4.63,6.37a5.59,5.59,0,0,1-5.71-5.2c-.19-1.65,1.48-2.85,1.19-4.38-.36-1.91-2.79-2.58-3.16-4.6s1.46-3.34,1.08-5.08-2.62-2.33-3.09-4.17c-.43-1.68,1-3.2.52-4.76S412.85,265.5,412.31,263.85Z"/><path class="cls-14" d="M419.84,281.15c1,.59,1.91,1.2,2.86,1.82-.56-3.33-1.23-6.67-2-10a.09.09,0,0,1,0-.07c-.71-3-1.52-5.91-2.41-8.83-1.16-.55-2.33-1.08-3.49-1.59-.28-.13-.07-.56.21-.44,1,.45,2.06.92,3.08,1.4-.87-2.78-1.83-5.53-2.86-8.25v-.07q-1.77-4.62-3.86-9.14v-.06c-.61-1.33-1.25-2.66-1.92-4q-1.69-3.39-3.57-6.68a.24.24,0,0,1,0-.34.25.25,0,0,1,.34,0l0,.06q2.86,5,5.3,10.23.65-1.57,1.26-3.18a.25.25,0,0,1,.46.18c-.47,1.21-.94,2.41-1.44,3.6,1.32,2.84,2.53,5.71,3.66,8.62.5-1,1-2,1.47-3.08a.25.25,0,0,1,.45.21c-.55,1.18-1.11,2.34-1.69,3.49,1.09,2.86,2.09,5.76,3,8.68v.07c.83,2.79,1.57,5.62,2.24,8.49.63-.94,1.25-1.9,1.86-2.86.17-.27.59,0,.42.26-.69,1.1-1.4,2.18-2.12,3.25.82,3.44,1.51,6.93,2.08,10.43v.07c.05.3.09.59.14.88.38,2.51.7,5,1,7.55a.24.24,0,0,1-.48,0q-.42-4.17-1.08-8.31c-1.07-.71-2.14-1.4-3.23-2.07C419.31,281.39,419.58,281,419.84,281.15Z"/><path class="cls-15" d="M435.3,262.1c.27-2-1.74-3.35-1.42-5.18s2.7-2.46,3.11-4.39c.55-2.62-2.08-3.89-1.62-6.44.28-1.54,2.59-1.59,3.05-3.18s-1.66-3-1.14-4.59,2.27-1.64,2.87-3.34c.82-2.33-2.3-5.69-2.3-5.69s-4.62.48-5.49,3c-.63,1.81.76,2.89.22,4.58s-3,1.55-3.56,3.39,1.47,3,1,4.49c-.85,2.55-3.79,2.56-4.4,5.4-.44,2.09,1.51,3.63,1.17,5.56s-2.7,2.7-3,4.82c-.26,1.87,1.34,3.24,1.15,5s-2,2.72-2.18,4.6,1.84,3.32,1.76,5.2-2.16,3-2.17,5.06c0,2.23,2.3,3.32,2.44,5.36.12,1.63-1.65,2.74-1.54,4.53.2,3.31,2.8,5.76,5.66,5.47a5.59,5.59,0,0,0,4.73-6.1c-.1-1.66-2-2.56-1.94-4.11,0-1.95,2.31-3,2.32-5.08,0-1.9-2-3-2-4.82s2.19-2.75,2.33-4.64c.13-1.73-1.51-3-1.34-4.6S435.06,263.82,435.3,262.1Z"/><path class="cls-14" d="M430.87,280.45c-.83.74-1.67,1.51-2.49,2.28,0-3.4.05-6.79.25-10.18v-.07c.18-3.05.47-6.09.85-9.12,1-.74,2.09-1.46,3.15-2.17.26-.17,0-.56-.28-.39-.94.62-1.87,1.26-2.79,1.91.38-2.89.84-5.77,1.39-8.62V254c.63-3.24,1.37-6.47,2.22-9.66v-.07c.38-1.42.78-2.84,1.21-4.25q1.08-3.63,2.37-7.2a.24.24,0,0,0-.11-.32.24.24,0,0,0-.32.11s0,0,0,0q-1.95,5.43-3.46,11c-.6-1-1.2-1.93-1.78-2.91a.25.25,0,0,0-.35,0,.26.26,0,0,0-.07.29c.66,1.11,1.34,2.21,2,3.3-.8,3-1.5,6.06-2.11,9.12-.67-.92-1.33-1.84-2-2.78a.24.24,0,0,0-.4.28c.74,1.07,1.49,2.12,2.26,3.15q-.87,4.52-1.45,9.07c-.58,4.56,0,0,0,.07-.36,2.9-.64,5.8-.83,8.72-.78-.82-1.56-1.65-2.32-2.5a.25.25,0,1,0-.37.34c.87,1,1.76,1.9,2.65,2.83-.21,3.53-.29,7.08-.24,10.63a.11.11,0,0,0,0,.08v.89q.09,3.79.36,7.59a.24.24,0,0,0,.48,0q-.32-4.19-.37-8.37c.93-.89,1.87-1.76,2.82-2.6C431.44,280.59,431.1,280.24,430.87,280.45Z"/><path class="cls-16" d="M444.33,274.23c.87-1.29-.07-3,.8-4.16s2.76-.81,3.72-2c1.3-1.66-.13-3.47,1.08-5.11.73-1,2.38-.23,3.26-1.2s-.15-2.67.78-3.65,2.18-.37,3.19-1.37c1.39-1.37.35-4.83.35-4.83s-3.44-1.25-4.91.19c-1.08,1.06-.47,2.31-1.44,3.32s-2.68,0-3.69,1.17,0,2.6-.88,3.51c-1.49,1.51-3.58.5-5,2.3-1,1.32-.19,3.1-1.1,4.34s-2.85,1-3.79,2.38-.18,2.76-.9,3.91-2.39,1.22-3.14,2.5.15,3-.56,4.3-2.56,1.37-3.29,2.83.48,3.15-.12,4.64c-.49,1.19-2.13,1.37-2.67,2.67a4.32,4.32,0,0,0,2,5.78l.13.06a4.4,4.4,0,0,0,5.46-2.68c.5-1.21-.5-2.49,0-3.59.69-1.37,2.68-1.34,3.4-2.79s-.37-2.85.3-4.09,2.5-1.19,3.25-2.48,0-2.63.65-3.72S443.57,275.36,444.33,274.23Z"/><path class="cls-14" d="M434.84,285.69c-.85.24-1.7.49-2.55.76q1.72-3.63,3.7-7.13v-.05c1.19-2.09,2.44-4.15,3.76-6.16q1.5-.24,3-.45c.24,0,.17-.4-.07-.37-.87.12-1.75.24-2.63.38,1.26-1.91,2.59-3.79,4-5.62V267c1.57-2.08,3.21-4.1,4.92-6.08h0c.76-.87,1.54-1.74,2.32-2.59,1.35-1.46,2.75-2.89,4.18-4.28a.19.19,0,1,0-.27-.27q-3.26,3.18-6.25,6.59c-.1-.89-.18-1.78-.25-2.68a.19.19,0,0,0-.24-.15.23.23,0,0,0-.15.15c.08,1,.18,2,.29,3q-2.42,2.79-4.65,5.73c-.16-.88-.3-1.77-.44-2.66a.19.19,0,0,0-.22-.15.19.19,0,0,0-.16.22q.22,1.5.51,3-2.17,2.9-4.17,5.92v.05c-1.26,1.92-2.47,3.89-3.61,5.89q-.41-1.28-.78-2.58c-.07-.23-.45-.13-.38.11.29,1,.59,2,.9,2.92-1.37,2.44-2.66,4.92-3.86,7.46a0,0,0,0,0,0,0l-.3.63c-.84,1.82-1.63,3.65-2.37,5.51a.19.19,0,0,0,.07.26.19.19,0,0,0,.26-.08.05.05,0,0,0,0,0q1.23-3.07,2.63-6.06c1-.3,1.93-.59,2.9-.86C435.2,286,435.08,285.63,434.84,285.69Z"/><path class="cls-6" d="M412.38,290h26.18a21.17,21.17,0,0,1,7.51,16.21c0,7.42-6.87,29.7-6.87,29.7H411.74s-6.88-22.28-6.88-29.7A21.15,21.15,0,0,1,412.38,290Z"/><polygon class="cls-17" points="345.24 131.13 345.23 134.33 354.41 139.63 345.23 134.33 345.24 131.13"/><path class="cls-8" d="M270.3,269.54l103.27,59.59a3.48,3.48,0,0,0,3.45,0l7.38-4.27a1.18,1.18,0,0,0,0-2.06L281,263.23a3.5,3.5,0,0,0-3.46,0l-7.27,4.23a1.21,1.21,0,0,0-.44,1.64A1.27,1.27,0,0,0,270.3,269.54Z"/><path class="cls-18" d="M270.46,20.44h0c.72-2.54,5.92-7.37,11-7.27a4.45,4.45,0,0,1,1.44.29L382.65,70.2a9.68,9.68,0,0,1,4.82,8.33v215.7c0,5.5-6.33,10.75-12.28,8.22h-.05a1.8,1.8,0,0,1-.38-.16L275,245.45a9.54,9.54,0,0,1-4.81-8.28V21.48A2.23,2.23,0,0,1,270.46,20.44Z"/><path class="cls-19" d="M387.47,78.53v215.7c0,5.5-6.33,10.75-12.28,8.22h-.05a2.37,2.37,0,0,0,3-1.43,2.4,2.4,0,0,0,.14-.8V84.45a9.5,9.5,0,0,0-1.6-5.27l9.76-4.88A9.56,9.56,0,0,1,387.47,78.53Z"/><path class="cls-20" d="M281.47,13.16a4.45,4.45,0,0,1,1.44.29l99.73,56.74a9.47,9.47,0,0,1,3.84,4.11l-9.76,4.88a9.5,9.5,0,0,0-3.22-3L273.76,19.41a2.37,2.37,0,0,0-3.24.86l-.06.12h0C271.17,17.89,276.33,13.06,281.47,13.16Z"/><path class="cls-17" d="M342.54,157.44v0Z"/><path class="cls-17" d="M345.53,160.45a2.17,2.17,0,0,1,.58-.36A2.17,2.17,0,0,0,345.53,160.45Z"/><path class="cls-17" d="M346.94,162.26h0a3.2,3.2,0,0,1,1.47,2.77A3.18,3.18,0,0,0,346.94,162.26Z"/><path class="cls-17" d="M348.68,193.88a.66.66,0,0,0-.36-.69h0A.66.66,0,0,1,348.68,193.88Z"/><path class="cls-17" d="M341,153.91a1.71,1.71,0,0,0,0-.32h0A1.71,1.71,0,0,1,341,153.91Z"/><path class="cls-17" d="M348.37,170.66h0l2.79,1.6v0Z"/><path class="cls-17" d="M338.59,153.5a3.35,3.35,0,0,0,.55.58A3.35,3.35,0,0,1,338.59,153.5Z"/><path class="cls-17" d="M348.39,165v5h0C348.38,168.36,348.38,166.69,348.39,165Z"/><path class="cls-17" d="M342.11,201.44v3.37C342.11,203.71,342.1,202.55,342.11,201.44Z"/><path class="cls-17" d="M341.67,199.48h0a.8.8,0,0,1,.48.85A.78.78,0,0,0,341.67,199.48Z"/><path class="cls-17" d="M345.82,206.92v-4.44h0C345.83,204,345.83,205.44,345.82,206.92Z"/><path class="cls-17" d="M340.09,154.57a1.67,1.67,0,0,1-.3-.08A1.67,1.67,0,0,0,340.09,154.57Z"/><path class="cls-17" d="M340.25,198.43a1.37,1.37,0,0,0,.3.45A1.37,1.37,0,0,1,340.25,198.43Z"/><path class="cls-17" d="M341.67,196.05c-.27-.17-.59-.43-.85-.59.26.16.58.43.85.58Z"/><path class="cls-17" d="M342.1,208.14v1.09a1.41,1.41,0,0,0,0,.29,1.41,1.41,0,0,1,0-.29C342.09,208.87,342.09,208.49,342.1,208.14Z"/><path class="cls-17" d="M346.06,202.05a.72.72,0,0,1,.2.09l.09.06-.09-.06A.72.72,0,0,0,346.06,202.05Z"/><path class="cls-17" d="M338,164.55v0Z"/><path class="cls-17" d="M338.15,164.79a.44.44,0,0,1-.12-.15A.44.44,0,0,0,338.15,164.79Z"/><polygon class="cls-17" points="345.85 197.89 345.85 197.88 345.85 197.89 345.85 197.89"/><path class="cls-17" d="M346.23,195.64h0Z"/><path class="cls-17" d="M345.32,168.91l-2.81-1.6Z"/><path class="cls-17" d="M362.11,225.53a1.37,1.37,0,0,1-.07.29C362,225.68,362.11,225.58,362.11,225.53Z"/><path class="cls-17" d="M362.11,225.08V225a.83.83,0,0,1-.05.35A.34.34,0,0,0,362.11,225.08Z"/><path class="cls-17" d="M362,225.93c0,.11-.08.22-.13.33C361.89,226.15,361.93,226,362,225.93Z"/><path class="cls-17" d="M362.18,224.68v-.27a4.86,4.86,0,0,1,0,.54A1.22,1.22,0,0,1,362.18,224.68Z"/><path class="cls-17" d="M361.82,226.32a3.9,3.9,0,0,1-.19.35A3.9,3.9,0,0,0,361.82,226.32Z"/><path class="cls-17" d="M360.72,227.51l-.19.09Z"/><path class="cls-17" d="M360.39,227.65a.76.76,0,0,1-.2.06A.76.76,0,0,0,360.39,227.65Z"/><path class="cls-17" d="M361.56,226.77l-.16.2Z"/><path class="cls-17" d="M360,227.75h0Z"/><path class="cls-17" d="M361,227.32l-.18.12Z"/><path class="cls-17" d="M361.3,227.07l-.15.16Z"/><path class="cls-17" d="M364.77,231.85c.05-.23.09-.45.12-.68.06-.81.11-1.64.15-2.48,0,.84-.09,1.67-.15,2.48C364.86,231.4,364.82,231.62,364.77,231.85Z"/><path class="cls-17" d="M350.43,211a3.57,3.57,0,0,0-.43,1.75c0,.75-.06,1.5-.08,2.26a21.24,21.24,0,0,1,.08-2.26A3.57,3.57,0,0,1,350.43,211Z"/><path class="cls-17" d="M359.81,214.35l-2-1.2c-1.45-.84-2.91-1.62-4.36-2.38,1.45.76,3,1.54,4.36,2.38Z"/><path class="cls-17" d="M351.9,210.26a3.6,3.6,0,0,1,1.11.31A3.6,3.6,0,0,0,351.9,210.26Z"/><path class="cls-17" d="M349.88,217.3V215C349.9,215.76,349.89,216.53,349.88,217.3Z"/><path class="cls-17" d="M350.66,210.73a1.41,1.41,0,0,1,.94-.42A1.41,1.41,0,0,0,350.66,210.73Z"/><path class="cls-17" d="M339.46,154.34a2.27,2.27,0,0,1-.32-.22,2.27,2.27,0,0,0,.32.22h0a1,1,0,0,0,.32.15A1,1,0,0,1,339.46,154.34Z"/><path class="cls-17" d="M314.71,144.07a6.26,6.26,0,0,0,.31-1.82A6.26,6.26,0,0,1,314.71,144.07Z"/><path class="cls-17" d="M312.44,135.88a7.71,7.71,0,0,0-1-.85A7.71,7.71,0,0,1,312.44,135.88Z"/><path class="cls-17" d="M314.4,148.4a4.67,4.67,0,0,1-1-.1A4.67,4.67,0,0,0,314.4,148.4Z"/><path class="cls-17" d="M306.28,132.1a4.25,4.25,0,0,1,1.1-.24,4.25,4.25,0,0,0-1.1.24,2.92,2.92,0,0,0-1.7,1.48A2.92,2.92,0,0,1,306.28,132.1Z"/><path class="cls-17" d="M312,147.8a3.73,3.73,0,0,0,.79.35,4.77,4.77,0,0,0,.54.15,4.77,4.77,0,0,1-.54-.15A3.73,3.73,0,0,1,312,147.8Z"/><path class="cls-17" d="M314.23,145.07a2,2,0,0,1-.57.58A2,2,0,0,0,314.23,145.07Z"/><path class="cls-17" d="M317.28,179.34h0c.48-.36,1-.63,1.27-1.43C318.34,178.72,317.78,179,317.28,179.34Z"/><path class="cls-17" d="M340.19,198.05v-.58A3.73,3.73,0,0,1,340.19,198.05Z"/><path class="cls-17" d="M340.21,195.63a.5.5,0,0,1,.13-.26A.5.5,0,0,0,340.21,195.63Z"/><path class="cls-17" d="M340.25,198.43a2.32,2.32,0,0,1-.06-.38A2.32,2.32,0,0,0,340.25,198.43Z"/><path class="cls-17" d="M342.14,195.73v-1.52C342.13,194.72,342.14,195.23,342.14,195.73Z"/><path class="cls-17" d="M340.23,197.47a1.27,1.27,0,0,0,0-.39A1.27,1.27,0,0,1,340.23,197.47Z"/><path class="cls-17" d="M340.22,196.27v0Z"/><path class="cls-17" d="M343.05,191.36a1.34,1.34,0,0,1,.76-.23A1.34,1.34,0,0,0,343.05,191.36Z"/><path class="cls-17" d="M354.22,223.67c-.21-.36-.39-.73-.56-1.1A4.57,4.57,0,0,0,354.22,223.67Z"/><path class="cls-17" d="M356.06,224.09l-.17-.21Z"/><path class="cls-17" d="M354.48,220.85a.28.28,0,0,1,0-.13A.28.28,0,0,0,354.48,220.85Z"/><path class="cls-17" d="M355.58,223.46l-.14-.22A1.64,1.64,0,0,0,355.58,223.46Z"/><path class="cls-17" d="M356.33,224.39c-.07-.08-.14-.15-.2-.23C356.19,224.24,356.26,224.31,356.33,224.39Z"/><path class="cls-17" d="M356.88,224.89l-.23-.2Z"/><path class="cls-17" d="M357.18,225.11l-.25-.19Z"/><path class="cls-17" d="M356.61,224.65c-.08-.06-.15-.14-.23-.21C356.46,224.55,356.53,224.55,356.61,224.65Z"/><path class="cls-17" d="M354.68,221.64l-.06-.17Z"/><path class="cls-17" d="M355.36,223.12l-.12-.21Z"/><path class="cls-17" d="M354.82,222c0-.06-.05-.12-.08-.19S354.79,222,354.82,222Z"/><path class="cls-17" d="M354.57,221.25v-.16A.63.63,0,0,0,354.57,221.25Z"/><path class="cls-17" d="M355,222.4l-.09-.2Z"/><path class="cls-17" d="M355.21,222.76c0-.07-.07-.13-.1-.2S355.13,222.69,355.21,222.76Z"/><path class="cls-17" d="M355.82,223.79c-.06-.07-.11-.15-.16-.22S355.76,223.72,355.82,223.79Z"/><path class="cls-17" d="M359.93,225.36l-.09.06Z"/><path class="cls-17" d="M359.74,225.53l-.09.06Z"/><path class="cls-17" d="M360.14,225.18l-.08.09Z"/><path class="cls-17" d="M362,222.72a2.57,2.57,0,0,0,.08.38C362,223,362,222.85,362,222.72Z"/><path class="cls-17" d="M361.83,222.15a1.08,1.08,0,0,0,.1.35A3.57,3.57,0,0,1,361.83,222.15Z"/><path class="cls-17" d="M362.11,223.28a1.46,1.46,0,0,0,.07.55A1.46,1.46,0,0,1,362.11,223.28Z"/><path class="cls-17" d="M359.53,225.61h0Z"/><path class="cls-17" d="M358.51,225.69h0Z"/><path class="cls-17" d="M358.22,225.62h0Z"/><path class="cls-17" d="M357.89,225.53h0Z"/><path class="cls-17" d="M359.3,225.68h0Z"/><path class="cls-17" d="M357.48,225.3h0l-.19-.12Z"/><path class="cls-17" d="M354.49,179.31l-1.38-.88Z"/><path class="cls-17" d="M352.94,175.45h0Z"/><path class="cls-17" d="M358.7,193.17a10.05,10.05,0,0,1-1.06-.79A10.05,10.05,0,0,0,358.7,193.17Z"/><path class="cls-17" d="M361.78,194.47a5.73,5.73,0,0,1-.84-.21A5.73,5.73,0,0,0,361.78,194.47Z"/><path class="cls-17" d="M360.94,194.26a6,6,0,0,1-.8-.3A6,6,0,0,0,360.94,194.26Z"/><path class="cls-17" d="M353.62,175.47a2.34,2.34,0,0,0,.86-.23A2.34,2.34,0,0,1,353.62,175.47Z"/><path class="cls-17" d="M362.61,194.58a5.71,5.71,0,0,1-.83-.11A5.71,5.71,0,0,0,362.61,194.58Z"/><path class="cls-17" d="M354.48,182.85v3.49C354.47,185.18,354.47,184,354.48,182.85Z"/><path class="cls-17" d="M354.93,174.93a3.08,3.08,0,0,0,.38-.43A3.08,3.08,0,0,1,354.93,174.93Z"/><path class="cls-17" d="M352.63,175.81v2.32C352.61,177.33,352.59,176.55,352.63,175.81Z"/><path class="cls-17" d="M360.25,225a.86.86,0,0,1-.07.1A.86.86,0,0,0,360.25,225Z"/><path class="cls-17" d="M360.47,224.47v.11S360.46,224.55,360.47,224.47Z"/><path class="cls-17" d="M360.37,224.73l-.05.11Z"/><path class="cls-17" d="M360.53,224.17a.17.17,0,0,1,0,.1A.17.17,0,0,0,360.53,224.17Z"/><path class="cls-17" d="M359,219.47a8.05,8.05,0,0,1,.49.66A8.05,8.05,0,0,0,359,219.47Z"/><path class="cls-17" d="M362.35,220.06h0l.22.1Z"/><path class="cls-17" d="M356,217.76a2.05,2.05,0,0,1,.55.05A2.05,2.05,0,0,0,356,217.76Z"/><path class="cls-17" d="M359.69,220.47a8.34,8.34,0,0,1,.66,1.5A8.34,8.34,0,0,0,359.69,220.47Z"/><path class="cls-17" d="M361.77,219.51a2.32,2.32,0,0,1-.36-.72A2.32,2.32,0,0,0,361.77,219.51Z"/><path class="cls-17" d="M361.33,218.27a2.25,2.25,0,0,0,.08.52A2.25,2.25,0,0,1,361.33,218.27Z"/><path class="cls-17" d="M359,219.47a5.86,5.86,0,0,0-.81-.84A5.86,5.86,0,0,1,359,219.47Z"/><path class="cls-17" d="M357.5,218.19a3.86,3.86,0,0,1,.62.44,3.86,3.86,0,0,0-.62-.44h0a3.54,3.54,0,0,0-.93-.37A3.54,3.54,0,0,1,357.5,218.19Z"/><path class="cls-17" d="M360.58,223.85h0v-.38a5.18,5.18,0,0,0-.24-1.51,5.18,5.18,0,0,1,.24,1.51A2.41,2.41,0,0,1,360.58,223.85Z"/><path class="cls-17" d="M361.64,221.59a1.42,1.42,0,0,0,.11.33C361.72,221.81,361.68,221.7,361.64,221.59Z"/><path class="cls-17" d="M353.37,216.81l.18-.25Z"/><path class="cls-17" d="M353.23,217.16l.12-.23Z"/><path class="cls-17" d="M353.6,216.51a3.07,3.07,0,0,1,.25-.26A3.07,3.07,0,0,0,353.6,216.51Z"/><path class="cls-17" d="M355.73,215.73h0Z"/><path class="cls-17" d="M356.06,226.08l-.35-.36Z"/><path class="cls-17" d="M353.93,216.19l.21-.15Z"/><path class="cls-17" d="M355,215.75h0Z"/><path class="cls-17" d="M353.13,221.25l-.08-.33Z"/><path class="cls-17" d="M354.22,216a1.24,1.24,0,0,1,.2-.1A1.24,1.24,0,0,0,354.22,216Z"/><path class="cls-17" d="M354.59,215.83l.2-.05Z"/><path class="cls-17" d="M352.92,218l.06-.26Z"/><path class="cls-17" d="M353,217.55a2.25,2.25,0,0,1,.08-.24A2.25,2.25,0,0,0,353,217.55Z"/><path class="cls-17" d="M354.51,224.19c-.1-.15-.19-.29-.28-.45C354.32,223.9,354.41,224,354.51,224.19Z"/><path class="cls-17" d="M353.33,221.83a3,3,0,0,1-.13-.36A2.2,2.2,0,0,0,353.33,221.83Z"/><path class="cls-17" d="M353.59,222.5c-.07-.15-.13-.32-.2-.48C353.46,222.18,353.52,222.35,353.59,222.5Z"/><path class="cls-17" d="M352.85,219.82a.49.49,0,0,0,0,.17.33.33,0,0,0,0,.14v-.31Z"/><path class="cls-17" d="M353,220.69a1.65,1.65,0,0,0-.07-.32A3,3,0,0,0,353,220.69Z"/><path class="cls-17" d="M355.64,225.64a3.8,3.8,0,0,1-.33-.37A2.91,2.91,0,0,0,355.64,225.64Z"/><path class="cls-17" d="M355.21,225.19c-.11-.13-.21-.27-.31-.4A2.16,2.16,0,0,1,355.21,225.19Z"/><path class="cls-17" d="M359.25,227.77h0Z"/><path class="cls-17" d="M352.81,219.13a4,4,0,0,1,0-.49A4,4,0,0,0,352.81,219.13Z"/><path class="cls-17" d="M354.86,224.69l-.29-.4Z"/><path class="cls-17" d="M352.86,218.32v0Z"/><path class="cls-17" d="M356.52,226.52l-.4-.35Z"/><path class="cls-17" d="M359.78,218.36c.1.11.19.23.28.35C360,218.63,359.88,218.47,359.78,218.36Z"/><path class="cls-17" d="M359.38,217.89l.31.34Z"/><path class="cls-17" d="M358.94,217.44l.34.35Z"/><path class="cls-17" d="M358,216.65l.45.34Z"/><path class="cls-17" d="M358.47,217l.4.33Z"/><path class="cls-17" d="M361.13,220.46l.16.34Z"/><path class="cls-17" d="M360.85,219.91l.19.34Z"/><path class="cls-17" d="M361.41,221l.14.35Z"/><path class="cls-17" d="M360.52,219.38a4,4,0,0,1,.22.34C360.67,219.61,360.6,219.49,360.52,219.38Z"/><path class="cls-17" d="M360.14,218.85l.25.35Z"/><path class="cls-17" d="M357.48,227.15h0a3.88,3.88,0,0,1-.48-.3A3.88,3.88,0,0,0,357.48,227.15Z"/><path class="cls-17" d="M357,226.86l-.45-.34A5.3,5.3,0,0,0,357,226.86Z"/><path class="cls-17" d="M357.5,216.34h0a5,5,0,0,1,.47.29Z"/><path class="cls-17" d="M358,227.4a4,4,0,0,1-.46-.24A4,4,0,0,0,358,227.4Z"/><path class="cls-17" d="M356.58,215.91l.29.12Z"/><path class="cls-17" d="M358.84,227.7l-.26-.07Z"/><path class="cls-17" d="M357,216.1a4,4,0,0,1,.46.23A4,4,0,0,0,357,216.1Z"/><path class="cls-17" d="M358.4,227.59l-.29-.12Z"/><path class="cls-17" d="M356.19,215.8l.26.06Z"/><path class="cls-17" d="M282.75,75.46a3.16,3.16,0,0,1,.8-.16A3.16,3.16,0,0,0,282.75,75.46Z"/><path class="cls-17" d="M290.92,84.61a8.48,8.48,0,0,0-.39-2.45A8.48,8.48,0,0,1,290.92,84.61Z"/><path class="cls-17" d="M281.14,77.26a3.18,3.18,0,0,1,.39-.81A3.18,3.18,0,0,0,281.14,77.26Z"/><path class="cls-17" d="M284.92,75.57a5.59,5.59,0,0,1,1,.47A5.59,5.59,0,0,0,284.92,75.57Z"/><path class="cls-17" d="M288.73,78.59a12.17,12.17,0,0,1,1.34,2.32A12.17,12.17,0,0,0,288.73,78.59Z"/><path class="cls-17" d="M280.91,78.84h0a5.3,5.3,0,0,1,.23-1.58A5.3,5.3,0,0,0,280.91,78.84Z"/><polygon class="cls-17" points="292.58 88.09 297.13 83.87 297.13 83.87 292.58 88.09"/><polygon class="cls-17" points="294.83 94.02 294.83 97.21 294.83 97.21 294.83 94.02"/><path class="cls-17" d="M281.58,82.09a11.14,11.14,0,0,1-.57-2A11.14,11.14,0,0,0,281.58,82.09Z"/><polygon class="cls-17" points="318.7 107.79 318.69 111 318.7 107.79 318.7 107.79"/><polygon class="cls-17" points="294.82 99.37 294.81 102.58 307.41 109.85 294.81 102.58 294.82 99.37"/><path class="cls-21" d="M378,133.49c1.17.68.39-1.4.39-2.74l.07-50.36a4.65,4.65,0,0,0-2.11-3.65L275,19.49c-.48.2-2-3-4.63,1l-.08,52.35"/><polygon class="cls-14" points="280.53 35.23 281.64 35.88 281.65 31.08 280.54 30.44 280.53 35.23"/><polygon class="cls-14" points="278.61 34.13 279.72 34.77 279.73 30.89 278.62 30.24 278.61 34.13"/><polygon class="cls-14" points="276.68 33.01 277.81 33.66 277.81 30.78 276.69 30.13 276.68 33.01"/><polygon class="cls-14" points="274.77 31.91 275.88 32.55 275.88 30.61 274.77 29.96 274.77 31.91"/><polygon class="cls-14" points="284.68 37.63 291.52 41.58 291.53 37.55 284.69 33.6 284.68 37.63"/><polygon class="cls-14" points="294.92 43.54 298.34 45.51 298.35 41.49 294.93 39.52 294.92 43.54"/><polygon class="cls-14" points="365.48 83.78 365.49 80.53 369.16 82.65 365.49 80.53 365.48 83.78"/><polygon class="cls-22" points="365.48 83.78 369.15 85.9 369.16 82.65 365.49 80.53 365.48 83.78"/><path class="cls-14" d="M371.74,84.63V83.36l-6.9-4v4.8l6.9,4V86.89l.9.52V85.15Zm-2.59,1.27-3.67-2.13V80.5l3.67,2.11Z"/><polygon class="cls-14" points="354.88 78.08 361.72 82.03 361.73 78 354.89 74.06 354.88 78.08"/><polygon class="cls-14" points="322.25 59.01 329.09 62.96 329.1 58.93 322.26 54.98 322.25 59.01"/><path class="cls-23" d="M288.09,58.91a12.17,12.17,0,0,0-1.34-2.32A9.47,9.47,0,0,0,284,54a5.59,5.59,0,0,0-1-.47,3.58,3.58,0,0,0-1.37-.22,3.07,3.07,0,0,0-.8.16,2.43,2.43,0,0,0-1.23,1,3.52,3.52,0,0,0-.38.81,5.3,5.3,0,0,0-.23,1.58,8.36,8.36,0,0,0,.1,1.22,10.4,10.4,0,0,0,.57,2A10.85,10.85,0,0,0,284,65.46c2.76,1.6,5,.32,5-2.86a8.48,8.48,0,0,0-.39-2.45A11.82,11.82,0,0,0,288.09,58.91Z"/><polygon class="cls-14" points="328.64 87.75 328.66 81.55 292.87 60.89 292.86 67.09 328.64 87.75"/><polygon class="cls-24" points="301.96 247.75 301.98 234.55 276.87 218.89 276.86 232.09 301.96 247.75"/><path class="cls-25" d="M371.64,238.75l0-96.93a2.15,2.15,0,0,0-1.11-1.89l-59.37-33.24a2.16,2.16,0,0,0-3.22,1.89l0,93.24a2.15,2.15,0,0,0,1.11,1.89Z"/><polygon class="cls-14" points="366.94 228.37 366.96 145.12 312.95 114.89 312.94 198.14 366.94 228.37"/><polygon class="cls-14" points="311.7 86.11 311.71 82.91 292.83 72.02 292.83 75.21 311.7 86.11"/><polygon class="cls-26" points="356.64 156.75 356.66 150.55 320.87 129.89 320.86 136.09 356.64 156.75"/><polygon class="cls-26" points="355.64 210.75 355.66 204.55 319.87 183.89 319.86 190.09 355.64 210.75"/><polygon class="cls-26" points="337.95 171.72 337.96 168.06 316.87 155.89 316.86 159.54 337.95 171.72"/><polygon class="cls-26" points="360.95 184.72 360.96 181.06 339.87 168.89 339.86 172.54 360.95 184.72"/><polygon class="cls-26" points="337.95 182.72 337.96 179.06 316.87 166.89 316.86 170.54 337.95 182.72"/><polygon class="cls-26" points="360.95 195.72 360.96 192.06 339.87 179.89 339.86 183.54 360.95 195.72"/><path class="cls-27" d="M315,142.25c.94.24,47.59,25.06,47.59,25.06"/><path class="cls-27" d="M314,149.25c.94.24,47.59,25.06,47.59,25.06"/><path class="cls-28" d="M290.29,257.3a17.21,17.21,0,0,1,0,34.41v63.86a4.84,4.84,0,0,1-4.84,4.83h-7.53a4.84,4.84,0,0,1-4.84-4.83V274.5A17.21,17.21,0,0,1,290.29,257.3Z"/><path class="cls-29" d="M255.73,376.63a.24.24,0,0,1-.24-.15.25.25,0,0,1,.06-.27c.13-.13,3.19-3,5-2.92a1.37,1.37,0,0,1,.89.39.91.91,0,0,1,.26,1c-.29.64-1.53,1.18-2.79,1.48A17,17,0,0,1,255.73,376.63Zm.7-.5c1.94-.21,4.49-.83,4.81-1.6.05-.1.07-.26-.18-.52a.67.67,0,0,0-.54-.22,2,2,0,0,0-.48,0,11.81,11.81,0,0,0-3.61,2.3Z"/><path class="cls-30" d="M255.6,376.65a.26.26,0,0,1-.16-.19c0-.13-.39-2.93.65-4.29a1.88,1.88,0,0,1,1.24-.73c.68-.09,1,.2,1.05.47.49,1.09-1.43,3.86-2.51,4.68a.17.17,0,0,1-.1,0A.2.2,0,0,1,255.6,376.65Zm1.68-4.71a1.33,1.33,0,0,0-.76.49,5.84,5.84,0,0,0-.61,3.43c1.08-1,2.27-3.14,2-3.81,0-.06-.1-.22-.54-.16l-.13.05Z"/><path class="cls-31" d="M254.36,375.46l-11.05,2.61a.93.93,0,0,0-.7.9l.12,9.47a1.53,1.53,0,0,0,1.53,1.51h.32c4-1,7.46-2.07,12.42-3.23,5.86-1.38,4.54-.33,11.44-1.86,4.16-.92,3.81-5.82,2-5.63-8.28.89-9.69-1.35-13.48-3.49A3.66,3.66,0,0,0,254.36,375.46Z"/><polygon class="cls-32" points="284.63 354.48 289.22 363.47 297.67 360.34 293.4 350.19 284.63 354.48"/><polygon class="cls-33" points="287.35 359.81 295.89 356.11 294.68 353.23 286.28 357.71 287.35 359.81"/><path class="cls-34" d="M299.85,360a.23.23,0,0,1-.26-.11.24.24,0,0,1,0-.28c.11-.15,2.63-3.48,4.41-3.72a1.3,1.3,0,0,1,.94.22.93.93,0,0,1,.44,1c-.17.68-1.31,1.42-2.5,1.93A17.79,17.79,0,0,1,299.85,360Zm.6-.62c1.88-.54,4.28-1.59,4.46-2.4a.54.54,0,0,0-.26-.47.67.67,0,0,0-.58-.13,1.91,1.91,0,0,0-.45.13A11.73,11.73,0,0,0,300.45,359.42Z"/><path class="cls-35" d="M299.72,360.08a.3.3,0,0,1-.19-.16c0-.13-.88-2.82-.09-4.34a1.89,1.89,0,0,1,1.09-.93c.66-.2,1,0,1.12.28.66,1-.75,4-1.68,5a.11.11,0,0,1-.09.05A.18.18,0,0,1,299.72,360.08Zm.85-4.93a1.29,1.29,0,0,0-.66.62,5.71,5.71,0,0,0,0,3.47c.88-1.21,1.7-3.47,1.36-4.1,0-.05-.14-.2-.56-.06l-.12.07Z"/><path class="cls-31" d="M298.3,359.14l-10.44,4.46a.93.93,0,0,0-.54,1l1.74,9.3a1.53,1.53,0,0,0,1.77,1.23l.3-.09c3.74-1.68,7-3.31,11.69-5.31,5.53-2.36,4.41-1.1,10.95-3.79,3.94-1.62,2.76-6.38,1-5.89-8,2.29-9.78.33-13.88-1.13A3.68,3.68,0,0,0,298.3,359.14Z"/><polygon class="cls-28" points="280.54 356.48 282.58 359.71 298.2 352.27 296.15 347.93 280.54 356.48"/><polygon class="cls-36" points="280.54 356.48 282.58 359.71 298.2 352.27 296.15 347.93 280.54 356.48"/><path class="cls-17" d="M315.75,152.58a.68.68,0,0,1,.27-.13A.68.68,0,0,0,315.75,152.58Z"/><path class="cls-17" d="M316.64,161.05c-.24.88-.45,1.76-.71,2.59C316.19,162.81,316.4,161.93,316.64,161.05Z"/><path class="cls-17" d="M311.18,150.6a4.82,4.82,0,0,1,.37-1A4.82,4.82,0,0,0,311.18,150.6Z"/><path class="cls-17" d="M315.07,155.39V156A2.08,2.08,0,0,0,315.07,155.39Z"/><path class="cls-17" d="M311.08,151.87a12.08,12.08,0,0,0,.09,1.47,5.52,5.52,0,0,0,.21,1,5.52,5.52,0,0,1-.21-1A12.08,12.08,0,0,1,311.08,151.87Z"/><path class="cls-17" d="M313.57,200.52h-.2l-.35.06.35-.06Z"/><path class="cls-17" d="M308.69,199.33l.34.44Z"/><path class="cls-17" d="M310.25,190.58a8.57,8.57,0,0,1-.83-2.12A8.57,8.57,0,0,0,310.25,190.58Z"/><path class="cls-17" d="M311.41,195.47a9.36,9.36,0,0,1-1-1.35A9.36,9.36,0,0,0,311.41,195.47Z"/><path class="cls-17" d="M312.81,199.49a8,8,0,0,1-1.73-2.37A8,8,0,0,0,312.81,199.49Z"/><path class="cls-17" d="M310.63,201.55c-.23-.22-.45-.45-.67-.69C310.2,201.07,310.4,201.33,310.63,201.55Z"/><path class="cls-17" d="M309.53,192.19a9.71,9.71,0,0,0,.47,1.16c.13.25.26.5.4.73-.14-.23-.27-.48-.4-.73A9.71,9.71,0,0,1,309.53,192.19Z"/><path class="cls-17" d="M317.2,193.52a.43.43,0,0,1,0,.16A.43.43,0,0,0,317.2,193.52Z"/><path class="cls-17" d="M313.66,200.41a.13.13,0,0,1-.09.11A.13.13,0,0,0,313.66,200.41Z"/><path class="cls-17" d="M309.42,188.46a6.16,6.16,0,0,1-.21-1.2A6.16,6.16,0,0,0,309.42,188.46Z"/><path class="cls-17" d="M309.26,186.56a4.27,4.27,0,0,1,.12-.7A4.27,4.27,0,0,0,309.26,186.56Z"/><path class="cls-28" d="M77.07,218.14h62.28a5,5,0,0,1,4.81,4.35l9.92,94.41a3.84,3.84,0,0,1-3.28,4.33,3.08,3.08,0,0,1-.61,0H87.91Z"/><path class="cls-37" d="M77.07,218.14h62.28a5,5,0,0,1,4.81,4.35l9.92,94.41a3.84,3.84,0,0,1-3.28,4.33,3.08,3.08,0,0,1-.61,0H87.91Z"/><path class="cls-28" d="M220.13,312.68c-.31-3-8.71-82.92-9-85.92a9.78,9.78,0,0,0-9.5-8.6H148.06a3.86,3.86,0,0,0-3.93,3.77,5.49,5.49,0,0,0,0,.58l9.92,94.41a5,5,0,0,0,4.82,4.36h53.54a7.59,7.59,0,0,0,7.76-7.42A6.73,6.73,0,0,0,220.13,312.68Z"/><path class="cls-38" d="M220.13,312.68c-.31-3-8.71-82.92-9-85.92a9.78,9.78,0,0,0-9.5-8.6H148.06a3.86,3.86,0,0,0-3.93,3.77,5.49,5.49,0,0,0,0,.58l9.92,94.41a5,5,0,0,0,4.82,4.36h53.54a7.59,7.59,0,0,0,7.76-7.42A6.73,6.73,0,0,0,220.13,312.68Z"/><path class="cls-28" d="M86.58,226.76a9.8,9.8,0,0,0-9.51-8.6,7.6,7.6,0,0,0-7.76,7.44,7.45,7.45,0,0,0,.06,1.16c.39,3.7,8.64,82.21,9,85.92a9.79,9.79,0,0,0,9.51,8.6,7.57,7.57,0,0,0,7.7-8.6C95.29,309.67,86.89,229.76,86.58,226.76Z"/><path class="cls-39" d="M86.58,226.76a9.8,9.8,0,0,0-9.51-8.6,7.6,7.6,0,0,0-7.76,7.44,7.45,7.45,0,0,0,.06,1.16c.39,3.7,8.64,82.21,9,85.92a9.79,9.79,0,0,0,9.51,8.6,7.57,7.57,0,0,0,7.7-8.6C95.29,309.67,86.89,229.76,86.58,226.76Z"/><path class="cls-28" d="M122.62,257.3H65.29a17.21,17.21,0,0,0,0,34.41v63.86a4.83,4.83,0,0,0,4.83,4.83H135a4.84,4.84,0,0,0,4.84-4.83V274.5A17.21,17.21,0,0,0,122.62,257.3Z"/><path class="cls-40" d="M122.62,257.3H65.29a17.21,17.21,0,0,0,0,34.41v63.86a4.83,4.83,0,0,0,4.83,4.83H135a4.84,4.84,0,0,0,4.84-4.83V274.5A17.21,17.21,0,0,0,122.62,257.3Z"/><path class="cls-28" d="M233,257.3h57.33a17.21,17.21,0,0,1,0,34.41v63.86a4.84,4.84,0,0,1-4.84,4.83H220.59a4.84,4.84,0,0,1-4.84-4.83V274.5A17.21,17.21,0,0,1,233,257.3Z"/><path class="cls-41" d="M233,257.3h57.33a17.21,17.21,0,0,1,0,34.41v63.86a4.84,4.84,0,0,1-4.84,4.83H220.59a4.84,4.84,0,0,1-4.84-4.83V274.5A17.21,17.21,0,0,1,233,257.3Z"/><path class="cls-28" d="M122.62,257.3a17.21,17.21,0,0,0,0,34.41v63.86a4.83,4.83,0,0,0,4.83,4.83H135a4.84,4.84,0,0,0,4.84-4.83V274.5A17.21,17.21,0,0,0,122.62,257.3Z"/><path class="cls-42" d="M122.62,257.3a17.21,17.21,0,0,0,0,34.41v63.86a4.83,4.83,0,0,0,4.83,4.83H135a4.84,4.84,0,0,0,4.84-4.83V274.5A17.21,17.21,0,0,0,122.62,257.3Z"/><path class="cls-43" d="M290.51,257.31a17.21,17.21,0,0,1-.14,34.41l-.28,63.85a4.83,4.83,0,0,1-4.86,4.81l-7.53,0a4.84,4.84,0,0,1-4.82-4.85l.35-81.07A17.21,17.21,0,0,1,290.51,257.31Z"/><rect class="cls-28" x="139.82" y="311.81" width="122.59" height="48.59" rx="6.97"/><rect class="cls-44" x="139.82" y="311.81" width="122.59" height="48.59" rx="6.97"/><rect class="cls-28" x="139.82" y="302.35" width="66.63" height="18.93" rx="6.12"/><rect class="cls-45" x="139.82" y="302.35" width="66.63" height="18.93" rx="6.12"/><rect class="cls-28" x="206.45" y="302.35" width="66.63" height="18.93" rx="6.12"/><rect class="cls-46" x="206.45" y="302.35" width="66.63" height="18.93" rx="6.12"/><path class="cls-28" d="M147,254.53c.13,1.27.27,2.55.4,3.83,0,.28.48.28.45,0-.14-1.28-.27-2.56-.4-3.83C147.46,254.24,147,254.24,147,254.53Z"/><path class="cls-28" d="M144.79,233.48q.93,8.79,1.85,17.58c0,.28.48.29.45,0q-.93-8.79-1.85-17.58C145.24,233.19,144.76,233.19,144.79,233.48Z"/><g class="cls-47"><path class="cls-14" d="M147,254.53c.13,1.27.27,2.55.4,3.83,0,.28.48.28.45,0-.14-1.28-.27-2.56-.4-3.83C147.46,254.24,147,254.24,147,254.53Z"/></g><g class="cls-47"><path class="cls-14" d="M144.79,233.48q.93,8.79,1.85,17.58c0,.28.48.29.45,0q-.93-8.79-1.85-17.58C145.24,233.19,144.76,233.19,144.79,233.48Z"/></g><path class="cls-28" d="M206.26,347.23v3.26a.19.19,0,0,0,.19.19.18.18,0,0,0,.19-.19v-3.26a.19.19,0,0,0-.19-.19A.2.2,0,0,0,206.26,347.23Z"/><path class="cls-28" d="M206.26,331.27V343.7a.19.19,0,0,0,.19.19.18.18,0,0,0,.19-.19V331.27a.19.19,0,0,0-.19-.19A.2.2,0,0,0,206.26,331.27Z"/><g class="cls-48"><path class="cls-14" d="M206.26,347.23v3.26a.19.19,0,0,0,.19.19.18.18,0,0,0,.19-.19v-3.26a.19.19,0,0,0-.19-.19A.2.2,0,0,0,206.26,347.23Z"/></g><g class="cls-48"><path class="cls-14" d="M206.26,331.27V343.7a.19.19,0,0,0,.19.19.18.18,0,0,0,.19-.19V331.27a.19.19,0,0,0-.19-.19A.2.2,0,0,0,206.26,331.27Z"/></g><path class="cls-28" d="M105.42,274.5H48.09a17.2,17.2,0,0,0,17.2,17.21h57.33A17.2,17.2,0,0,1,105.42,274.5Z"/><path class="cls-49" d="M105.42,274.5H48.09a17.2,17.2,0,0,0,17.2,17.21h57.33A17.2,17.2,0,0,1,105.42,274.5Z"/><path class="cls-28" d="M245.19,214.05l-6.63.22a.91.91,0,0,1-1-.81v-.19l1.05-14.82a1.2,1.2,0,0,1,1.11-1.07l6.64-.22a.91.91,0,0,1,1,.81.6.6,0,0,1,0,.19L246.3,213A1.16,1.16,0,0,1,245.19,214.05Z"/><path class="cls-26" d="M246.41,214l-6.63.22a.91.91,0,0,1-1-.81v-.19l1.06-14.82a1.2,1.2,0,0,1,1.11-1.07l6.63-.22a.91.91,0,0,1,1,.81.6.6,0,0,1,0,.19l-1.06,14.82A1.16,1.16,0,0,1,246.41,214Z"/><path class="cls-28" d="M238.82,213.23l1.06-14.82a1.2,1.2,0,0,1,1.11-1.07h-1.25a1.2,1.2,0,0,0-1.11,1.07l-1,14.82a.91.91,0,0,0,.81,1,.6.6,0,0,0,.19,0h1.24a.91.91,0,0,1-1-.81Z"/><path class="cls-50" d="M238.82,213.23l1.06-14.82a1.2,1.2,0,0,1,1.11-1.07h-1.25a1.2,1.2,0,0,0-1.11,1.07l-1,14.82a.91.91,0,0,0,.81,1,.6.6,0,0,0,.19,0h1.24a.91.91,0,0,1-1-.81Z"/><path class="cls-31" d="M242.68,199.06a1,1,0,0,1-1,.94.79.79,0,0,1-.84-.75v-.13a1,1,0,0,1,1-.94.82.82,0,0,1,.85.78A.31.31,0,0,1,242.68,199.06Z"/><polygon class="cls-32" points="241.69 368.55 244.68 378.2 253.54 376.56 251.07 365.82 241.69 368.55"/><polygon class="cls-33" points="243.46 374.27 252.5 372.08 251.8 369.04 242.76 372.02 243.46 374.27"/><path class="cls-19" d="M202.62,272.4s50.84-4.59,62.85,7,31.11,72.36,31.11,72.36l-13.5,6s-21.28-33.82-31.64-59.36c0,0-63.18,8.84-67.66-4.32l2.15-22.82Z"/><path class="cls-19" d="M164,271.32s-3.3,27.18,8.4,31S219,302,219,302s.07,28.18,21.17,69.79l12.47-4.36s-7.35-70.45-13.18-80C235.26,280.63,223.28,270.56,164,271.32Z"/><polygon class="cls-28" points="238.15 370.1 239.58 374.01 254.52 368.47 253.39 364.69 238.15 370.1"/><polygon class="cls-36" points="238.15 370.1 239.58 374.01 254.52 368.47 253.39 364.69 238.15 370.1"/><path class="cls-51" d="M241.5,285.38c-8.71-9.6-46.89-6.8-58.16-6.86v.09c25.06,2.88,51.39.32,56.1,8.85,1.08,2,2.39,6.25,3.61,12,1.54-.16,1.93-.32,3.1-.46C244.44,291.88,244.78,289,241.5,285.38Z"/><path class="cls-52" d="M197.31,206.81s6.32-.22,13.65,17.72l8.23,16.16s11.2-7.59,17.35-17.26c0,0,.93-17.05,7-15.72a7.55,7.55,0,0,1,6,8.82,7.64,7.64,0,0,1-.45,1.5,86,86,0,0,1-5.67,9.15s-14.6,25.15-24,25.46-18.77-18-18.77-18l-2.94-17.34Z"/><path class="cls-31" d="M198.51,206.49s6.59,1.4,11.74,15.39c0,0,1.93.41,1.79,3.18,0,0,3.21,11.24-5.79,19.58,0,0-1.89.11-2.66-3l-4.14-7.19-3.63-16.8-.2-6.14.3-5.39Z"/><path class="cls-27" d="M198.51,206.49s6.59,1.4,11.74,15.39c0,0,1.93.41,1.79,3.18,0,0,3.21,11.24-5.79,19.58,0,0-1.89.11-2.66-3l-4.14-7.19-3.63-16.8-.2-6.14.3-5.39Z"/><path class="cls-28" d="M234.67,225.62a17.26,17.26,0,0,1,5.49,4.2l1.8-1.89s-1.38-3-6.26-3.84Z"/><path class="cls-53" d="M234.67,225.62a17.26,17.26,0,0,1,5.49,4.2l1.8-1.89s-1.38-3-6.26-3.84Z"/><path class="cls-54" d="M243.19,230.19c-.8,1.25-2.2,1.79-3.13,1.2s-1-2.09-.22-3.34,2.2-1.8,3.13-1.21S244,228.93,243.19,230.19Z"/><path class="cls-31" d="M242.8,230a1.62,1.62,0,0,1-2.09-2.47,1.62,1.62,0,0,1,1.92-.13A1.89,1.89,0,0,1,242.8,230Z"/><path class="cls-55" d="M198.46,229.87l1,4.55,4.14,7.19c.77,3.14,2.66,3,2.66,3a19.34,19.34,0,0,0,4.07-5.27C207.19,234.22,201.45,231.14,198.46,229.87Z"/><path class="cls-27" d="M202.19,209.21c-1.35-1.85-4.16-3.83-8.37-5.31l-2.55,6.34-4.08,1.57-3.25-.9-2.89-1.4-3.28-4.89-.44-2.9a77.5,77.5,0,0,0-12.14,1.35c-21.33,4-3.16,70.56-3.16,70.56C196.42,280.33,210,271,210,271,205.45,258.55,205.59,213.82,202.19,209.21Z"/><path class="cls-55" d="M167.19,212.59l-11.61,4.25a71.08,71.08,0,0,0-.6,14.28C170.7,228.52,167.19,212.59,167.19,212.59Z"/><path class="cls-31" d="M203,166.63s3.58,2.7,2.52,5.46c0,0,2.32,6-2.33,5.79C203.19,177.88,198.06,173.6,203,166.63Z"/><path class="cls-52" d="M188.63,210.75l2.9-2.93,2.21-4c-.7-.25-1.44-.48-2.23-.69l.67-9.44-11.05-6.46s.35,12-2.33,14.41c-.57.51-.54,0-1.33,0l1.3,5,4.13,5.14Z"/><path class="cls-28" d="M178.19,201.4s3.07,7.7,7.87,9.34c0,0-2.41,6.93-6,3.09s-4-12.36-4-12.36Z"/><path class="cls-26" d="M178.19,201.4s3.07,7.7,7.87,9.34c0,0-2.41,6.93-6,3.09s-4-12.36-4-12.36Z"/><path class="cls-28" d="M185,211.14s5.36-1.09,7.5-7.85l2.39,1s-.94,10.61-4.71,10.43A6.14,6.14,0,0,1,185,211.14Z"/><path class="cls-26" d="M185,211.14s5.36-1.09,7.5-7.85l2.39,1s-.94,10.61-4.71,10.43A6.14,6.14,0,0,1,185,211.14Z"/><path class="cls-33" d="M181.06,188.14s.24,8.61,10.7,11.58l.34-4.93-11-6.65Z"/><path class="cls-52" d="M204.41,178.53c1.16,9.79-1.5,18.14-9.6,19.11s-14.5-5.32-15.66-15.11,1.38-19.13,9.48-20.09S203.25,168.75,204.41,178.53Z"/><path class="cls-31" d="M181.19,181.29A17.91,17.91,0,0,0,184,172s3.21-.38,4-2.11c0,0,10,4.2,14.44.79,0,0,9-2.82,2.52-7.81,0,0,1.29-3.92-4.13-5.78s-8.59-.36-8.59-.36-4.54-3.1-9.65,1.4c0,0-9,.94-7.55,7.16,0,0-5,1.47-3,6.12a5.06,5.06,0,0,0,.53,6.45s0,7.65,4.94,8C177.45,185.83,182,193.3,181.19,181.29Z"/><path class="cls-52" d="M182.42,181.05c1.15,1.81,1,4-.27,4.77s-3.28,0-4.43-1.79-1-3.95.27-4.77S181.27,179.24,182.42,181.05Z"/><path class="cls-31" d="M176.19,160.34c.27-.22,0-.68-.28-.46-1.52,1.24-2.34,3-1.8,4.5a3.56,3.56,0,0,0-3.53.06c-.28.19,0,.65.29.46a2.94,2.94,0,0,1,2.87-.1c-1.3.12-2.49,1.44-3.15,2.75-.16.31.32.57.47.26.78-1.54,2.36-3.25,3.94-2.07a3,3,0,0,0,.38.34.27.27,0,0,0,.39,0,.28.28,0,0,0,0-.39c-.12-.12-.26-.24-.4-.36C173.78,163.73,174.49,161.71,176.19,160.34Z"/><path class="cls-31" d="M193.71,181.34c.1.63.53,1.09.94,1s.66-.61.56-1.24-.53-1.1-1-1S193.6,180.71,193.71,181.34Z"/><path class="cls-31" d="M200.88,181.38c.1.63.52,1.09.94,1s.66-.61.56-1.25-.53-1.09-.95-1S200.77,180.74,200.88,181.38Z"/><path class="cls-56" d="M198.65,182a24.2,24.2,0,0,0,3.94,5,3.64,3.64,0,0,1-2.93,1Z"/><path class="cls-31" d="M197.36,191a5.41,5.41,0,0,1-4-1.59.21.21,0,0,1,0-.26.2.2,0,0,1,.27,0h0a5.22,5.22,0,0,0,4.43,1.41.2.2,0,0,1,.24.12.18.18,0,0,1-.1.24h-.09A3.08,3.08,0,0,1,197.36,191Z"/><path class="cls-31" d="M192.25,178.37a.29.29,0,0,1-.16-.09.38.38,0,0,1,.08-.51h0a3.64,3.64,0,0,1,3.39-.46.37.37,0,0,1,.2.48h0a.37.37,0,0,1-.48.21h0a2.92,2.92,0,0,0-2.64.35A.33.33,0,0,1,192.25,178.37Z"/><path class="cls-31" d="M203.34,178.21a.31.31,0,0,0,.15-.1.35.35,0,0,0-.13-.5h0a3.66,3.66,0,0,0-3.42-.13.37.37,0,0,0-.16.49h0a.38.38,0,0,0,.5.15h0a2.9,2.9,0,0,1,2.66.1A.38.38,0,0,0,203.34,178.21Z"/><path class="cls-52" d="M164.07,204.94s-28.41-2.53-46.59,6.69c0,0-2.93,5.83.35,10.52s14.36,23.49,14.36,23.49l1.53,9s-.71,5.36,2,7.14,9.46-1.56,9.85-4.46-5.79-14.81-5.79-14.81-6.57-19.19-9.12-23.67c0,0,25.06,2.52,33.85-.17C164.53,218.67,169.42,214.06,164.07,204.94Z"/><path class="cls-27" d="M164.39,203.85s-8.4-.89-14-.07c0,0-1-1.15-3.4.64a31.53,31.53,0,0,1-.2,15.59,5.14,5.14,0,0,0,3.66.24s10.3,3,15.15-.29C168.92,217.71,172.59,212,164.39,203.85Z"/></g></g></svg>