<svg id="Layer_1" data-name="Layer 1" xmlns="http://www.w3.org/2000/svg" xmlns:xlink="http://www.w3.org/1999/xlink" viewBox="0 0 470 470"><defs><style>.cls-1{fill:none;}.cls-2{opacity:0.13;fill:url(#linear-gradient);}.cls-3{fill:#263238;}.cls-4{fill:#e6e6e6;}.cls-5{fill:url(#linear-gradient-2);}.cls-6{fill:#fff;}.cls-7{fill:#ffbc96;}.cls-8{fill:#d28572;}.cls-9{fill:#37474f;}.cls-10,.cls-242{isolation:isolate;}.cls-10{opacity:0.2;}.cls-11,.cls-12{fill:#1b1b43;}.cls-11{opacity:0.3;}.cls-13{fill:#030347;}.cls-14{fill:url(#linear-gradient-3);}.cls-15{fill:#753e3e;}.cls-16{fill:#ffa121;}.cls-17{fill:#fe5b52;opacity:0.2;}.cls-18{fill:#c5c5ff;}.cls-19{fill:url(#linear-gradient-4);}.cls-20{clip-path:url(#clip-path);}.cls-21{fill:#00ffaf;}.cls-22{fill:#00feaf;}.cls-23{fill:#00fdaf;}.cls-24{fill:#00fcaf;}.cls-25{fill:#00fbaf;}.cls-26{fill:#00faae;}.cls-27{fill:#00f9ae;}.cls-28{fill:#00f8ae;}.cls-29{fill:#00f7ae;}.cls-30{fill:#00f5ae;}.cls-31{fill:#00f4ae;}.cls-32{fill:#00f3ae;}.cls-33{fill:#00f2ae;}.cls-34{fill:#00f1ad;}.cls-35{fill:#00f0ad;}.cls-36{fill:#00efad;}.cls-37{fill:#00eead;}.cls-38{fill:#00edad;}.cls-39{fill:#00ecad;}.cls-40{fill:#00ebad;}.cls-41{fill:#00eaad;}.cls-42{fill:#00e9ad;}.cls-43{fill:#00e8ad;}.cls-44{fill:#00e7ac;}.cls-45{fill:#00e6ac;}.cls-46{fill:#00e5ac;}.cls-47{fill:#00e4ac;}.cls-48{fill:#00e3ac;}.cls-49{fill:#00e2ac;}.cls-50{fill:#00e1ac;}.cls-51{fill:#00e0ac;}.cls-52{fill:#00dfac;}.cls-53{fill:#00deac;}.cls-54{fill:#00ddac;}.cls-55{fill:#00dcac;}.cls-56{fill:#00dbab;}.cls-57{fill:#00daab;}.cls-58{fill:#00d9ab;}.cls-59{fill:#00d8ab;}.cls-60{fill:#00d7ab;}.cls-61{fill:#00d6ab;}.cls-62{fill:#00d5ab;}.cls-63{fill:#00d4ab;}.cls-64{fill:#00d3ab;}.cls-65{fill:#00d2ab;}.cls-66{fill:#00d1ab;}.cls-67{fill:#00d0ab;}.cls-68{fill:#00cfaa;}.cls-69{fill:#00ceaa;}.cls-70{fill:#00cdaa;}.cls-71{fill:#0ca;}.cls-72{fill:#00cbaa;}.cls-73{fill:#00caaa;}.cls-74{fill:#00c8aa;}.cls-75{fill:#00c7aa;}.cls-76{fill:#00c6aa;}.cls-77{fill:#00c5aa;}.cls-78{fill:#00c4aa;}.cls-79{fill:#00c3a9;}.cls-80{fill:#00c2a9;}.cls-81{fill:#00c1a9;}.cls-82{fill:#00c0a9;}.cls-83{fill:#00bfa9;}.cls-84{fill:#00bea9;}.cls-85{fill:#00bda9;}.cls-86{fill:#00bca9;}.cls-87{fill:#00bba9;}.cls-88{fill:#00baa9;}.cls-89{fill:#00b9a9;}.cls-90{fill:#00b8a9;}.cls-91{fill:#00b7a8;}.cls-92{fill:#00b6a8;}.cls-93{fill:#00b5a8;}.cls-94{fill:#00b4a8;}.cls-95{fill:#00b3a8;}.cls-96{fill:#00b2a8;}.cls-97{fill:#00b1a8;}.cls-98{fill:#00b0a8;}.cls-99{fill:#00afa8;}.cls-100{fill:#00aea8;}.cls-101{fill:#00ada8;}.cls-102{fill:#00aca8;}.cls-103{fill:#00aba7;}.cls-104{fill:#00aaa7;}.cls-105{fill:#00a9a7;}.cls-106{fill:#00a8a7;}.cls-107{fill:#00a7a7;}.cls-108{fill:#00a6a7;}.cls-109{fill:#00a5a7;}.cls-110{fill:#00a4a7;}.cls-111{fill:#00a3a7;}.cls-112{fill:#00a2a7;}.cls-113{fill:#00a1a7;}.cls-114{fill:#00a0a6;}.cls-115{fill:#009fa6;}.cls-116{fill:#009ea6;}.cls-117{fill:#009da6;}.cls-118{fill:#009ca6;}.cls-119{fill:#009ba6;}.cls-120{fill:#009aa6;}.cls-121{fill:#0099a6;}.cls-122{fill:#0098a6;}.cls-123{fill:#0097a6;}.cls-124{fill:#0096a6;}.cls-125{fill:#0095a5;}.cls-126{fill:#0094a5;}.cls-127{fill:#0093a5;}.cls-128{fill:#0092a5;}.cls-129{fill:#0091a5;}.cls-130{fill:#0090a5;}.cls-131{fill:#008fa5;}.cls-132{fill:#008ea5;}.cls-133{fill:#008da5;}.cls-134{fill:#008ca5;}.cls-135{fill:#008ba5;}.cls-136{fill:#0089a4;}.cls-137{fill:#0088a4;}.cls-138{fill:#0087a4;}.cls-139{fill:#0086a4;}.cls-140{fill:#0085a4;}.cls-141{fill:#0084a4;}.cls-142{fill:#0083a4;}.cls-143{fill:#0082a4;}.cls-144{fill:#0081a4;}.cls-145{fill:#0080a4;}.cls-146{fill:#007fa4;}.cls-147{fill:#007ea3;}.cls-148{fill:#007da3;}.cls-149{fill:#007ca3;}.cls-150{fill:#007ba3;}.cls-151{fill:#007aa3;}.cls-152{fill:#0079a3;}.cls-153{fill:#0078a3;}.cls-154{fill:#0077a3;}.cls-155{fill:#0076a3;}.cls-156{fill:#0075a3;}.cls-157{fill:#0074a3;}.cls-158{fill:#0073a2;}.cls-159{fill:#0072a2;}.cls-160{fill:#0071a2;}.cls-161{fill:#0070a2;}.cls-162{fill:#006fa2;}.cls-163{fill:#006ea2;}.cls-164{fill:#006da2;}.cls-165{fill:#006ca2;}.cls-166{fill:#006ba2;}.cls-167{fill:#006aa2;}.cls-168{fill:#0069a2;}.cls-169{fill:#0068a2;}.cls-170{fill:#0067a1;}.cls-171{fill:#0066a1;}.cls-172{fill:#0065a1;}.cls-173{fill:#0064a1;}.cls-174{fill:#0063a1;}.cls-175{fill:#0062a1;}.cls-176{fill:#0061a1;}.cls-177{fill:#0060a1;}.cls-178{fill:#005fa1;}.cls-179{fill:#005ea1;}.cls-180{fill:#005da1;}.cls-181{fill:#005ca1;}.cls-182{fill:#005ba1;}.cls-183{fill:#0059a0;}.cls-184{fill:#0058a0;}.cls-185{fill:#0057a0;}.cls-186{fill:#0056a0;}.cls-187{fill:#0055a0;}.cls-188{fill:#0054a0;}.cls-189{fill:#0053a0;}.cls-190{fill:#0052a0;}.cls-191{fill:#0051a0;}.cls-192{fill:#0050a0;}.cls-193{fill:#004fa0;}.cls-194{fill:#004ea0;}.cls-195{fill:#004da0;}.cls-196{fill:#004c9f;}.cls-197{fill:#004b9f;}.cls-198{fill:#004a9f;}.cls-199{fill:#00499f;}.cls-200{fill:#00489f;}.cls-201{fill:#00479f;}.cls-202{fill:#00469f;}.cls-203{fill:#00459f;}.cls-204{fill:#00449f;}.cls-205{fill:#00439f;}.cls-206{fill:#00429f;}.cls-207{fill:#00419f;}.cls-208{fill:#00409f;}.cls-209{fill:#003f9e;}.cls-210{fill:#003e9e;}.cls-211{fill:#003d9e;}.cls-212{fill:#003c9e;}.cls-213{fill:#003b9e;}.cls-214{fill:#003a9e;}.cls-215{fill:#00389e;}.cls-216{fill:#00379e;}.cls-217{fill:#00369e;}.cls-218{fill:#00359e;}.cls-219{fill:#00349e;}.cls-220{fill:#00339e;}.cls-221{fill:#00329d;}.cls-222{fill:#00319d;}.cls-223{fill:#00309d;}.cls-224{fill:#002f9d;}.cls-225{fill:#002e9d;}.cls-226{fill:#002d9d;}.cls-227{fill:#002c9d;}.cls-228{fill:#002b9d;}.cls-229{fill:#002a9d;}.cls-230{fill:#00299d;}.cls-231{fill:#00279c;}.cls-232{fill:#00269c;}.cls-233{fill:#00259c;}.cls-234{fill:#00249c;}.cls-235{fill:url(#linear-gradient-5);}.cls-236{fill:#ce8282;}.cls-237{fill:#f28f8f;}.cls-238{fill:url(#linear-gradient-6);}.cls-239{fill:#fafafa;}.cls-240{fill:url(#linear-gradient-7);}.cls-241{fill:url(#linear-gradient-8);}.cls-242,.cls-245{opacity:0.3;}.cls-243{fill:url(#linear-gradient-9);}.cls-244{fill:url(#linear-gradient-10);}.cls-246{fill:url(#linear-gradient-11);}.cls-247{fill:url(#linear-gradient-12);}.cls-248{fill:url(#linear-gradient-13);}.cls-249{fill:url(#linear-gradient-14);}.cls-250{fill:url(#linear-gradient-15);}.cls-251{fill:url(#linear-gradient-16);}.cls-252{fill:#282525;}.cls-253{fill:url(#linear-gradient-17);}</style><linearGradient id="linear-gradient" x1="228.89" y1="135.51" x2="242.16" y2="477.1" gradientUnits="userSpaceOnUse"><stop offset="0" stop-color="#00ffaf"/><stop offset="0.06" stop-color="#00edad"/><stop offset="0.32" stop-color="#00a6a7"/><stop offset="0.55" stop-color="#006ea2"/><stop offset="0.75" stop-color="#00469f"/><stop offset="0.91" stop-color="#002d9d"/><stop offset="1" stop-color="#00249c"/></linearGradient><linearGradient id="linear-gradient-2" x1="269.06" y1="327.96" x2="347.92" y2="327.96" xlink:href="#linear-gradient"/><linearGradient id="linear-gradient-3" x1="207.06" y1="227.85" x2="308.91" y2="227.85" xlink:href="#linear-gradient"/><linearGradient id="linear-gradient-4" x1="60.48" y1="96.16" x2="93.53" y2="96.16" xlink:href="#linear-gradient"/><clipPath id="clip-path"><polygon class="cls-1" points="75.68 102.74 67.23 90.53 69.24 89.14 75.46 98.12 84.83 81.36 86.96 82.55 75.68 102.74"/></clipPath><linearGradient id="linear-gradient-5" x1="93.59" y1="246.44" x2="251.58" y2="270.53" xlink:href="#linear-gradient"/><linearGradient id="linear-gradient-6" x1="287.47" y1="131.35" x2="376.99" y2="131.35" xlink:href="#linear-gradient"/><linearGradient id="linear-gradient-7" x1="165.51" y1="72.02" x2="256.81" y2="72.02" xlink:href="#linear-gradient"/><linearGradient id="linear-gradient-8" x1="179.78" y1="72.66" x2="232.08" y2="72.66" xlink:href="#linear-gradient"/><linearGradient id="linear-gradient-9" x1="213.45" y1="54.33" x2="240.16" y2="54.33" xlink:href="#linear-gradient"/><linearGradient id="linear-gradient-10" x1="213.44" y1="75.13" x2="245.61" y2="75.13" xlink:href="#linear-gradient"/><linearGradient id="linear-gradient-11" x1="386.38" y1="340.09" x2="427.86" y2="377.03" xlink:href="#linear-gradient"/><linearGradient id="linear-gradient-12" x1="378.57" y1="348.86" x2="420.05" y2="385.8" xlink:href="#linear-gradient"/><linearGradient id="linear-gradient-13" x1="451.91" y1="346.8" x2="344.21" y2="388.58" xlink:href="#linear-gradient"/><linearGradient id="linear-gradient-14" x1="456.81" y1="359.44" x2="349.11" y2="401.21" xlink:href="#linear-gradient"/><linearGradient id="linear-gradient-15" x1="451.6" y1="346.02" x2="343.91" y2="387.79" xlink:href="#linear-gradient"/><linearGradient id="linear-gradient-16" x1="374.88" y1="353" x2="416.37" y2="389.94" xlink:href="#linear-gradient"/><linearGradient id="linear-gradient-17" x1="293.86" y1="252.35" x2="306.66" y2="252.35" xlink:href="#linear-gradient"/></defs><path class="cls-2" d="M427.6,381.68a83.86,83.86,0,0,1-31.53,18.42,94.81,94.81,0,0,1-34,4.09C271.66,399.42,239,430.07,184.29,441s-78.72-8.59-78.72-8.59C86.63,424-5,346.4,8.33,268.2s73.51-161.09,184-160.31,225.74,70.38,257.79,131.38C472.48,281.75,464.84,347.37,427.6,381.68Z"/><path class="cls-3" d="M127.24,250.58l-.56-.59,3.54-3.38.56.59Zm7.07-6.77-.57-.58c1.14-1.13,2.3-2.3,3.42-3.47l.59.56C136.62,241.5,135.46,242.67,134.31,243.81Zm6.79-7.07-.6-.55c1.08-1.19,2.17-2.41,3.23-3.65l.62.53C143.28,234.31,142.18,235.55,141.1,236.74Zm6.41-7.41-.63-.52c1-1.24,2-2.52,3.05-3.81l.64.5C149.56,226.79,148.53,228.08,147.51,229.33Zm6-7.73-.66-.48c1-1.29,1.93-2.62,2.87-4l.67.47C155.47,219,154.5,220.31,153.54,221.6Zm5.67-8-.68-.46q1.38-2,2.7-4.07l.68.44C161,210.9,160.12,212.26,159.21,213.62ZM203.86,208a11.89,11.89,0,0,1-4.39-.83l.3-.76a11.14,11.14,0,0,0,4.09.78c.2,0,.35,0,.53,0l0,.81Zm5.41-1.39-.41-.7a8.77,8.77,0,0,0,3.25-3.29l.71.41A9.53,9.53,0,0,1,209.27,206.57Zm-44.73-1.17-.7-.43q1.29-2.08,2.54-4.18l.7.42C166.24,202.61,165.4,204,164.54,205.4Zm30.8-1.14a14.14,14.14,0,0,1-2.68-4.23l.75-.31a13.15,13.15,0,0,0,2.53,4Zm18.83-6.13-.81,0v-.21a8.44,8.44,0,0,0-.72-3.46,7.53,7.53,0,0,0-.41-.8l.71-.4c.16.28.31.57.44.86a9.27,9.27,0,0,1,.79,3.8Zm-44.3-.85-.63-.53a31.18,31.18,0,0,1,3.47-3.52l.54.61A29.68,29.68,0,0,0,169.87,197.28Zm21.53-2.07a18.57,18.57,0,0,1-.14-2.36,21.05,21.05,0,0,1,.16-2.62l.81.1a19.49,19.49,0,0,0-.16,2.52,18.78,18.78,0,0,0,.14,2.26ZM177.13,191l-.43-.69a33.8,33.8,0,0,1,4.39-2.29l.32.75A32.12,32.12,0,0,0,177.13,191Zm32-.84a18.41,18.41,0,0,0-4.16-2.32l.3-.76a18.69,18.69,0,0,1,4.35,2.43Zm-23.13-3-.21-.78a33.55,33.55,0,0,1,4.85-1l.1.81A35.13,35.13,0,0,0,186,187.17Zm14.35-.67a28.9,28.9,0,0,0-4.79-.51l0-.81a29.29,29.29,0,0,1,4.92.52Zm-7-.83-.77-.27a24.24,24.24,0,0,1,2.15-4.48l.69.43A23.14,23.14,0,0,0,193.36,185.67Zm5-8.15-.6-.55c.24-.26.48-.51.73-.75a25.25,25.25,0,0,1,3-2.54l.48.66A25.34,25.34,0,0,0,199,176.8C198.8,177,198.57,177.28,198.34,177.52Zm7.71-5.68-.36-.73a31,31,0,0,1,4.6-1.83l.24.78A29.43,29.43,0,0,0,206.05,171.84Zm9.2-3-.21-.79c1.6-.41,3.18-.84,4.71-1.27l.23.78C218.44,168,216.85,168.44,215.25,168.85Zm9.42-2.68-.24-.78c1.57-.49,3.13-1,4.63-1.53l.27.77C227.82,165.15,226.25,165.67,224.67,166.17Zm9.26-3.24-.3-.76c1.53-.59,3.05-1.21,4.51-1.85l.33.75C237,161.71,235.46,162.33,233.93,162.93Zm9-3.89-.35-.73,4.4-2.14.35.73Zm8.8-4.27-.35-.74,4.39-2.13.36.73Zm8.8-4.28-.36-.73,4.4-2.14.36.73Zm8.79-4.28-.35-.73,4.39-2.14.36.74Zm8.8-4.27-.36-.73,4.4-2.14.36.73Z"/><path class="cls-4" d="M74.37,58.51a4.18,4.18,0,0,0,0,.5H181.57c-.28-8.84-8-15.92-17.4-15.92a18.23,18.23,0,0,0-8.34,2,19,19,0,0,0-9.26-17c-9.14-5.29-21.09-1.7-26.68,8a21.47,21.47,0,0,0-2.82,9.23,38.73,38.73,0,0,0-16-3.26C86.34,42.09,74.37,49.45,74.37,58.51Z"/><path class="cls-3" d="M96.35,213.24H8v-.31c.24-7.48,6.63-13.34,14.56-13.34A15.41,15.41,0,0,1,29.07,201a15.89,15.89,0,0,1,7.74-13.69,15.35,15.35,0,0,1,11.77-1.49A17.22,17.22,0,0,1,59.08,194a17.73,17.73,0,0,1,2.31,7.25,32.1,32.1,0,0,1,12.81-2.52c12.24,0,22.2,6.17,22.2,13.76a3.24,3.24,0,0,1,0,.44Zm-87.74-.61H95.79v-.1c0-7.25-9.69-13.14-21.59-13.14a31.45,31.45,0,0,0-13,2.63l-.4.19,0-.44a17.06,17.06,0,0,0-2.26-7.43,16.62,16.62,0,0,0-10.13-7.89,14.74,14.74,0,0,0-11.31,1.43,15.33,15.33,0,0,0-7.43,13.65V202l-.46-.24a14.79,14.79,0,0,0-6.69-1.6C15.06,200.2,9,205.63,8.61,212.63Z"/><path class="cls-3" d="M346,364.54h-3V364h3Zm-6,0h-3V364h3Zm-6,0h-3V364h3Zm-6,0h-3V364h3Zm-6,0h-3V364h3Zm-6,0h-3V364h3Zm-6,0h-3V364h3Zm-6,0h-3V364h3Zm-6,0h-3V364h3Zm-6,0h-3V364h3Zm-6,0a9.79,9.79,0,0,1-3-.52l.16-.47a9.36,9.36,0,0,0,2.88.49Zm60.57,0V364a9.32,9.32,0,0,0,2.86-.57l.17.47A9.65,9.65,0,0,1,346.36,364.53Zm-66.31-2a9.76,9.76,0,0,1-2.12-2.23l.42-.29a9.15,9.15,0,0,0,2,2.12Zm72-.17-.31-.39a9.32,9.32,0,0,0,1.94-2.17l.43.27A9.56,9.56,0,0,1,352.05,362.4Zm-75.42-4.85a9.35,9.35,0,0,1-.37-2.64v-.41h.5v.41a9.15,9.15,0,0,0,.35,2.5Zm78.7-.26-.49-.13a8.89,8.89,0,0,0,.28-2.25v-.67h.51v.67A9.53,9.53,0,0,1,355.33,357.29Zm-78.57-5.8h-.5v-3h.5Zm78.87-.26h-.51v-3h.51Zm-78.87-5.76h-.5v-3h.5Zm78.87-.26h-.51v-3h.51Zm-78.87-5.76h-.5v-3h.5Zm78.87-.26h-.51v-3h.51Zm-78.87-5.76h-.5v-3h.5Zm78.87-.26h-.51v-3h.51Zm-78.87-5.76h-.5v-3h.5Zm78.87-.26h-.51v-3h.51Zm-78.87-5.76h-.5v-2c0-.35,0-.69.05-1l.5.05c0,.32-.05.65-.05,1Zm78.87-.27h-.51v-1.73a8.52,8.52,0,0,0-.08-1.24l.5-.06a9.25,9.25,0,0,1,.09,1.3Zm-78.05-5.52-.45-.21a9.55,9.55,0,0,1,1.71-2.56l.37.34A9.25,9.25,0,0,0,277.58,315.6Zm76.61-.24A9.16,9.16,0,0,0,352.5,313l.36-.36a9.55,9.55,0,0,1,1.78,2.51Zm-72.68-4-.24-.44a9.28,9.28,0,0,1,2.9-1l.09.49A8.93,8.93,0,0,0,281.51,311.38Zm68.64-.12a8.81,8.81,0,0,0-2.77-.89l.07-.5a9.48,9.48,0,0,1,2.93.94Zm-5.74-1h-3v-.5h3Zm-6,0h-3v-.5h3Zm-6,0h-3v-.5h3Zm-6,0h-3v-.5h3Zm-6,0h-3v-.5h3Zm-6,0h-3v-.5h3Zm-6,0h-3v-.5h3Zm-6,0h-3v-.5h3Zm-6,0h-3v-.5h3Zm-6,0h-3v-.5h3Z"/><rect class="cls-5" x="269.06" y="300.07" width="78.86" height="55.77" rx="27.88"/><rect class="cls-6" x="282.77" y="332.65" width="8.54" height="17.34"/><rect class="cls-6" x="297.07" y="333.21" width="8.54" height="16.78"/><rect class="cls-6" x="311.37" y="324.44" width="8.54" height="25.55"/><rect class="cls-6" x="325.67" y="316.94" width="8.54" height="33.05"/><rect class="cls-6" x="285.58" y="307.93" width="45.82" height="2"/><path d="M160.08,190.08a38.67,38.67,0,0,0-14.21-20.4l-2.75-2L145.46,216l18.06-14Z"/><path class="cls-7" d="M218.11,248.49l-4-7.86a8,8,0,0,0-5-4.06l-11.81-3.27L167,213.91,163.52,202l-18.06,14,.16,3.4a17.87,17.87,0,0,0,10.77,15.53l29.48,12.72,14,.31c4.52,1.56,6.08,5.45,8.88,4.05,1-.52-3-7.24-3-7.24l6.78,7.48Z"/><rect class="cls-8" x="161.9" y="215.78" width="6.13" height="0.93" transform="translate(-106.65 202.03) rotate(-49.66)"/><path class="cls-9" d="M165.29,268.06l22.1-1.95c14.38-1.27,26.89,10.35,27.59,25.62l5,108.82-30.48.95Z"/><polygon class="cls-9" points="191.95 400.42 192.88 430.48 238.05 430.48 215.78 411.94 214.38 397.46 191.95 400.42"/><rect class="cls-9" x="205.03" y="414.67" width="11.99" height="1.87" transform="translate(-209.79 215.17) rotate(-37.61)"/><polygon class="cls-3" points="182.56 398.64 183.49 428.7 228.66 428.7 206.39 410.17 204.99 395.68 182.56 398.64"/><rect class="cls-3" x="195.64" y="412.89" width="11.99" height="1.87" transform="translate(-210.65 209.07) rotate(-37.61)"/><path class="cls-9" d="M216.2,401.6H178.82l-26.64-82-3.73-11.48-53.27-.23a14.76,14.76,0,0,1-9.11-3.83,21.67,21.67,0,0,1-7.24-19.61l4.67-33.33,79.14,10.29a35.54,35.54,0,0,1,30.21,28Z"/><polygon class="cls-10" points="159.43 308.15 152.18 319.63 148.45 308.15 159.43 308.15"/><path d="M148.76,246.89c-.39,1.54-.79,3.08-1.2,4.64L144.76,263l-36.92-1.53-26.57-1.1A11.42,11.42,0,0,1,70.56,246.6L83,187a22.64,22.64,0,0,1,20-19l30.32-3.12,9.81,2.81c9.58,5.14,9.59,14.45,10,20.55C155.18,214.92,152.7,231.1,148.76,246.89Z"/><path class="cls-11" d="M123.73,245c-.38,1.55,24.24,5,23.83,6.55L144.76,263l-36.92-1.53C95,251.71,90.12,230.55,85.42,204Z"/><path class="cls-12" d="M116.4,182.1a21.68,21.68,0,0,0,5.51,4.37,18.14,18.14,0,0,0,6.59,2.23,11.09,11.09,0,0,0,6.71-1,6.87,6.87,0,0,0,3.6-5.5l.37,0a7.62,7.62,0,0,1-.93,3.56,7.19,7.19,0,0,1-2.64,2.64,11.58,11.58,0,0,1-7.23,1.19,18,18,0,0,1-6.86-2.46,19.5,19.5,0,0,1-5.41-4.82Z"/><path class="cls-12" d="M154,218.53l-.7-.05c.68-9.4,0-20.95-2-34.34l.7-.1C154,197.47,154.66,209.08,154,218.53Z"/><rect class="cls-13" x="181.98" y="251.68" width="34.73" height="6.85"/><polygon class="cls-14" points="276.83 258.54 207.06 258.54 239.14 197.17 308.91 197.17 276.83 258.54"/><path class="cls-3" d="M124.08,115.79c-8.18-8.06-23.59-4.67-23.36,8.88C83.9,129.11,83,147.56,89.74,157l5.84.46,1.28-6.89,3.39,7,16.36,1Z"/><path class="cls-7" d="M137.75,145.93v25.74c0,.24,0,.46,0,.69A8.64,8.64,0,0,1,127,180.05a17.38,17.38,0,0,1-13-17l.13-17.15Z"/><path class="cls-15" d="M137.75,157.06v14.61c0,.24,0,.46,0,.69-6.89-1.13-14.85-9.11-16.79-17.79Z"/><path class="cls-7" d="M151.68,147.84a45.16,45.16,0,0,1-1.47,6.13c-2.05,6.53-5.74,11.95-12.35,11-15.53-2.22-24.17-18.22-24.17-18.22l10.62-12.15,7.13-9.58,21.37,9.23A80.74,80.74,0,0,1,151.68,147.84Z"/><path class="cls-3" d="M118.28,142.66c6.82-.22,12.09-3.69,14.33-13.55,0,0,15.88,13.7,23.67,6.38,6.52-6.13-4.54-20.23-22.85-21.91a26,26,0,0,0-18.55,5.66c-8.87,7.11-9.72,23.65-1.43,29.38Z"/><path class="cls-16" d="M110.3,125.37a7.25,7.25,0,0,1,.6-4.93,11,11,0,0,1,3.2-3.94,11.4,11.4,0,0,1,4.58-2.14,8.28,8.28,0,0,1,4.93.38,27.89,27.89,0,0,0-4.22,1.71,22.28,22.28,0,0,0-3.57,2.27,20.88,20.88,0,0,0-3.06,2.89A17.22,17.22,0,0,0,110.3,125.37Z"/><ellipse class="cls-7" cx="116.24" cy="143.75" rx="5.31" ry="6.42" transform="translate(-45.1 53.49) rotate(-21.82)"/><path class="cls-12" d="M116.24,147.28a7.76,7.76,0,0,0-.21-3.21,8.68,8.68,0,0,0-1.68-2.75l.23-.28a4.73,4.73,0,0,1,2.33,2.75,4.78,4.78,0,0,1-.32,3.59Z"/><circle class="cls-17" cx="132.03" cy="147.56" r="3.86"/><path class="cls-17" d="M151.68,147.84a45.16,45.16,0,0,1-1.47,6.13,3.91,3.91,0,0,1-1-2.56A3.85,3.85,0,0,1,151.68,147.84Z"/><polygon points="107.69 193.43 85.42 204.02 92.4 220.58 115.75 209.81 107.69 193.43"/><path class="cls-18" d="M190.19,250.86l-1-.52.23-.44s.41.2,1,.52Z"/><path class="cls-7" d="M199.42,253.16c-.72,1.42-6.23-1.09-8.8-2.35,2,1.1,5.42,3.27,3.9,4.45-1.23.95-3.94-1.06-12.81-4.74,1.34.63,9.28,4.41,7.28,5.84-2.18,1.55-11.53-1.87-11.53-1.87l-8.1,4.35H160l-33.63.22a24.19,24.19,0,0,1-6.23-.79,28,28,0,0,1-10.93-5.66,27.38,27.38,0,0,1-5.19-5.82,31.19,31.19,0,0,1-2.77-5.2l-8.87-21,23.35-10.78,12.19,24.74,40.18,8.72,11.21-2.8c2.41-.61,5.82.41,7.95,1.71C192.45,245.35,200.1,251.81,199.42,253.16Z"/><path class="cls-17" d="M120.77,254.8a10.21,10.21,0,0,1-.61,3.47,28,28,0,0,1-10.93-5.66,27.38,27.38,0,0,1-5.19-5.82,10.28,10.28,0,0,1,16.73,8Z"/><path class="cls-8" d="M168.06,243.1a75.6,75.6,0,0,1,8.49-2.33,29.18,29.18,0,0,1,4.39-.62,13.06,13.06,0,0,1,2.25,0c.38.08.75.18,1.13.27s.7.27,1.05.4a35.75,35.75,0,0,1,7.42,4.84,85.11,85.11,0,0,1,6.59,5.86l.1.09,0,.12a1.8,1.8,0,0,1-.22,1.27,1.52,1.52,0,0,1-.51.44,1.41,1.41,0,0,1-.58.21,5,5,0,0,1-2.1-.21,21.21,21.21,0,0,1-3.63-1.52c-1.14-.61-2.27-1.25-3.36-1.93s-2.17-1.4-3.25-2.1l.49-.79a57.87,57.87,0,0,1,5.55,3.67,15.53,15.53,0,0,1,2.51,2.31,3.11,3.11,0,0,1,.48.82,1.45,1.45,0,0,1,.11.57,1,1,0,0,1-.24.64,1.71,1.71,0,0,1-.94.53,5.92,5.92,0,0,1-.9.13h-.09l-.1-.05-10.15-4.25.31-.71a36.29,36.29,0,0,1,4.63,2.5,6.31,6.31,0,0,1,2,1.88,1.08,1.08,0,0,1,.08.89,1.14,1.14,0,0,1-.6.62,3.43,3.43,0,0,1-1.4.32,19.82,19.82,0,0,1-5.22-.81c-1.69-.44-3.35-1-5-1.56l.13-.35c1.63.55,3.3,1,5,1.44a19.66,19.66,0,0,0,5.07.66c.79,0,1.74-.38,1.35-.91a5.86,5.86,0,0,0-1.8-1.59,36,36,0,0,0-4.57-2.38l.31-.71L193.05,255l-.19,0a5.32,5.32,0,0,0,.73-.11,1,1,0,0,0,.48-.23c.14-.06,0-.56-.37-.93a14.29,14.29,0,0,0-2.36-2.14,58.28,58.28,0,0,0-5.46-3.58l.49-.79c1.07.69,2.12,1.43,3.21,2.08s2.18,1.31,3.3,1.92a21.16,21.16,0,0,0,3.45,1.47,4.06,4.06,0,0,0,1.69.19l.18,0a.54.54,0,0,0,.13-.07c.11,0,.14-.12.22-.17a1,1,0,0,0,.1-.59l.11.22c-2.06-2-4.24-4-6.48-5.85a35.59,35.59,0,0,0-7.19-4.82l-1-.39c-.33-.08-.67-.18-1-.25a12.42,12.42,0,0,0-2.12-.08,31.49,31.49,0,0,0-4.31.52,77.27,77.27,0,0,0-8.48,2.12Z"/><polygon class="cls-12" points="92.54 220.9 92.25 220.27 115.29 209.63 105.7 187.18 106.34 186.9 116.21 209.99 92.54 220.9"/><rect class="cls-3" x="94.62" y="319.28" width="1.22" height="105.28"/><rect class="cls-3" x="58.55" y="309.46" width="73.36" height="14.48" rx="7.24"/><path class="cls-3" d="M82.55,419.33h25.36A12.09,12.09,0,0,1,120,431.41v0a0,0,0,0,1,0,0H70.47a0,0,0,0,1,0,0v0A12.09,12.09,0,0,1,82.55,419.33Z"/><path class="cls-3" d="M302.67,82.31a13.71,13.71,0,1,1,13.7-13.71A13.72,13.72,0,0,1,302.67,82.31Zm0-27.12A13.41,13.41,0,1,0,316.08,68.6,13.43,13.43,0,0,0,302.67,55.19Z"/><circle class="cls-4" cx="311.94" cy="63.24" r="14.91"/><polygon class="cls-12" points="311.94 63.52 303.68 57.04 303.95 56.69 311.93 62.95 316.38 59.18 316.67 59.52 311.94 63.52"/><path class="cls-10" d="M216.2,401.6l.55-3.43L195.39,288.68s-.89-11.57-8-17.8l-3.44,1.44s8.37,9.82,9.47,18.88Z"/><path class="cls-19" d="M87.82,117l-6.21-8.58H66.45a6,6,0,0,1-6-6V81.32a6,6,0,0,1,6-6H87.56a6,6,0,0,1,6,6v21.11A6,6,0,0,1,88,108.37h-.18ZM66.45,76.68a4.64,4.64,0,0,0-4.63,4.64v21.11a4.64,4.64,0,0,0,4.63,4.63H82.29l4.2,5.79v-5.71l1.41-.1a4.63,4.63,0,0,0,4.29-4.61V81.32a4.63,4.63,0,0,0-4.63-4.64Z"/><g class="cls-20"><rect class="cls-21" x="67.23" y="81.36" width="0.07" height="21.38"/><rect class="cls-22" x="67.3" y="81.36" width="0.07" height="21.38"/><rect class="cls-23" x="67.36" y="81.36" width="0.07" height="21.38"/><rect class="cls-24" x="67.43" y="81.36" width="0.07" height="21.38"/><rect class="cls-25" x="67.5" y="81.36" width="0.07" height="21.38"/><rect class="cls-26" x="67.56" y="81.36" width="0.07" height="21.38"/><rect class="cls-27" x="67.63" y="81.36" width="0.07" height="21.38"/><rect class="cls-28" x="67.69" y="81.36" width="0.07" height="21.38"/><rect class="cls-29" x="67.76" y="81.36" width="0.07" height="21.38"/><rect class="cls-30" x="67.82" y="81.36" width="0.07" height="21.38"/><rect class="cls-31" x="67.89" y="81.36" width="0.07" height="21.38"/><rect class="cls-32" x="67.96" y="81.36" width="0.07" height="21.38"/><rect class="cls-33" x="68.02" y="81.36" width="0.07" height="21.38"/><rect class="cls-34" x="68.09" y="81.36" width="0.07" height="21.38"/><rect class="cls-35" x="68.15" y="81.36" width="0.07" height="21.38"/><rect class="cls-36" x="68.22" y="81.36" width="0.07" height="21.38"/><rect class="cls-37" x="68.28" y="81.36" width="0.07" height="21.38"/><rect class="cls-38" x="68.35" y="81.36" width="0.07" height="21.38"/><rect class="cls-38" x="68.42" y="81.36" width="0.07" height="21.38"/><rect class="cls-39" x="68.49" y="81.36" width="0.07" height="21.38"/><rect class="cls-40" x="68.56" y="81.36" width="0.07" height="21.38"/><rect class="cls-41" x="68.63" y="81.36" width="0.07" height="21.38"/><rect class="cls-42" x="68.71" y="81.36" width="0.07" height="21.38"/><rect class="cls-43" x="68.78" y="81.36" width="0.07" height="21.38"/><rect class="cls-44" x="68.85" y="81.36" width="0.07" height="21.38"/><rect class="cls-45" x="68.92" y="81.36" width="0.07" height="21.38"/><rect class="cls-46" x="68.99" y="81.36" width="0.07" height="21.38"/><rect class="cls-47" x="69.07" y="81.36" width="0.07" height="21.38"/><rect class="cls-48" x="69.14" y="81.36" width="0.07" height="21.38"/><rect class="cls-49" x="69.21" y="81.36" width="0.07" height="21.38"/><rect class="cls-50" x="69.28" y="81.36" width="0.07" height="21.38"/><rect class="cls-51" x="69.36" y="81.36" width="0.07" height="21.38"/><rect class="cls-52" x="69.43" y="81.36" width="0.07" height="21.38"/><rect class="cls-53" x="69.5" y="81.36" width="0.07" height="21.38"/><rect class="cls-54" x="69.57" y="81.36" width="0.07" height="21.38"/><rect class="cls-55" x="69.64" y="81.36" width="0.07" height="21.38"/><rect class="cls-56" x="69.72" y="81.36" width="0.07" height="21.38"/><rect class="cls-57" x="69.79" y="81.36" width="0.07" height="21.38"/><rect class="cls-58" x="69.86" y="81.36" width="0.07" height="21.38"/><rect class="cls-59" x="69.93" y="81.36" width="0.07" height="21.38"/><rect class="cls-60" x="70.01" y="81.36" width="0.07" height="21.38"/><rect class="cls-61" x="70.08" y="81.36" width="0.07" height="21.38"/><rect class="cls-62" x="70.15" y="81.36" width="0.07" height="21.38"/><rect class="cls-63" x="70.22" y="81.36" width="0.07" height="21.38"/><rect class="cls-64" x="70.3" y="81.36" width="0.07" height="21.38"/><rect class="cls-65" x="70.37" y="81.36" width="0.07" height="21.38"/><rect class="cls-66" x="70.44" y="81.36" width="0.07" height="21.38"/><rect class="cls-67" x="70.51" y="81.36" width="0.07" height="21.38"/><rect class="cls-68" x="70.58" y="81.36" width="0.07" height="21.38"/><rect class="cls-69" x="70.66" y="81.36" width="0.07" height="21.38"/><rect class="cls-70" x="70.73" y="81.36" width="0.07" height="21.38"/><rect class="cls-71" x="70.8" y="81.36" width="0.07" height="21.38"/><rect class="cls-72" x="70.87" y="81.36" width="0.07" height="21.38"/><rect class="cls-73" x="70.95" y="81.36" width="0.07" height="21.38"/><rect class="cls-74" x="71.02" y="81.36" width="0.07" height="21.38"/><rect class="cls-75" x="71.09" y="81.36" width="0.07" height="21.38"/><rect class="cls-76" x="71.16" y="81.36" width="0.07" height="21.38"/><rect class="cls-77" x="71.23" y="81.36" width="0.07" height="21.38"/><rect class="cls-78" x="71.31" y="81.36" width="0.07" height="21.38"/><rect class="cls-79" x="71.38" y="81.36" width="0.07" height="21.38"/><rect class="cls-80" x="71.45" y="81.36" width="0.07" height="21.38"/><rect class="cls-81" x="71.52" y="81.36" width="0.07" height="21.38"/><rect class="cls-82" x="71.6" y="81.36" width="0.07" height="21.38"/><rect class="cls-83" x="71.67" y="81.36" width="0.07" height="21.38"/><rect class="cls-84" x="71.74" y="81.36" width="0.07" height="21.38"/><rect class="cls-85" x="71.81" y="81.36" width="0.07" height="21.38"/><rect class="cls-86" x="71.88" y="81.36" width="0.07" height="21.38"/><rect class="cls-87" x="71.96" y="81.36" width="0.07" height="21.38"/><rect class="cls-88" x="72.03" y="81.36" width="0.07" height="21.38"/><rect class="cls-89" x="72.1" y="81.36" width="0.07" height="21.38"/><rect class="cls-90" x="72.17" y="81.36" width="0.07" height="21.38"/><rect class="cls-91" x="72.25" y="81.36" width="0.07" height="21.38"/><rect class="cls-92" x="72.32" y="81.36" width="0.07" height="21.38"/><rect class="cls-93" x="72.39" y="81.36" width="0.07" height="21.38"/><rect class="cls-94" x="72.46" y="81.36" width="0.07" height="21.38"/><rect class="cls-95" x="72.53" y="81.36" width="0.07" height="21.38"/><rect class="cls-96" x="72.61" y="81.36" width="0.07" height="21.38"/><rect class="cls-97" x="72.68" y="81.36" width="0.07" height="21.38"/><rect class="cls-98" x="72.75" y="81.36" width="0.07" height="21.38"/><rect class="cls-99" x="72.82" y="81.36" width="0.07" height="21.38"/><rect class="cls-100" x="72.9" y="81.36" width="0.07" height="21.38"/><rect class="cls-101" x="72.97" y="81.36" width="0.07" height="21.38"/><rect class="cls-102" x="73.04" y="81.36" width="0.07" height="21.38"/><rect class="cls-103" x="73.11" y="81.36" width="0.07" height="21.38"/><rect class="cls-104" x="73.19" y="81.36" width="0.07" height="21.38"/><rect class="cls-105" x="73.26" y="81.36" width="0.07" height="21.38"/><rect class="cls-106" x="73.33" y="81.36" width="0.07" height="21.38"/><rect class="cls-107" x="73.4" y="81.36" width="0.07" height="21.38"/><rect class="cls-108" x="73.47" y="81.36" width="0.07" height="21.38"/><rect class="cls-108" x="73.55" y="81.36" width="0.08" height="21.38"/><rect class="cls-109" x="73.63" y="81.36" width="0.08" height="21.38"/><rect class="cls-110" x="73.71" y="81.36" width="0.08" height="21.38"/><rect class="cls-111" x="73.79" y="81.36" width="0.08" height="21.38"/><rect class="cls-112" x="73.87" y="81.36" width="0.08" height="21.38"/><rect class="cls-113" x="73.95" y="81.36" width="0.08" height="21.38"/><rect class="cls-114" x="74.03" y="81.36" width="0.08" height="21.38"/><rect class="cls-115" x="74.11" y="81.36" width="0.08" height="21.38"/><rect class="cls-116" x="74.19" y="81.36" width="0.08" height="21.38"/><rect class="cls-117" x="74.28" y="81.36" width="0.08" height="21.38"/><rect class="cls-118" x="74.36" y="81.36" width="0.08" height="21.38"/><rect class="cls-119" x="74.44" y="81.36" width="0.08" height="21.38"/><rect class="cls-120" x="74.52" y="81.36" width="0.08" height="21.38"/><rect class="cls-121" x="74.6" y="81.36" width="0.08" height="21.38"/><rect class="cls-122" x="74.68" y="81.36" width="0.08" height="21.38"/><rect class="cls-123" x="74.76" y="81.36" width="0.08" height="21.38"/><rect class="cls-124" x="74.84" y="81.36" width="0.08" height="21.38"/><rect class="cls-125" x="74.92" y="81.36" width="0.08" height="21.38"/><rect class="cls-126" x="75.01" y="81.36" width="0.08" height="21.38"/><rect class="cls-127" x="75.09" y="81.36" width="0.08" height="21.38"/><rect class="cls-128" x="75.17" y="81.36" width="0.08" height="21.38"/><rect class="cls-129" x="75.25" y="81.36" width="0.08" height="21.38"/><rect class="cls-130" x="75.33" y="81.36" width="0.08" height="21.38"/><rect class="cls-131" x="75.41" y="81.36" width="0.08" height="21.38"/><rect class="cls-132" x="75.49" y="81.36" width="0.08" height="21.38"/><rect class="cls-133" x="75.57" y="81.36" width="0.08" height="21.38"/><rect class="cls-134" x="75.65" y="81.36" width="0.08" height="21.38"/><rect class="cls-135" x="75.73" y="81.36" width="0.08" height="21.38"/><rect class="cls-136" x="75.82" y="81.36" width="0.08" height="21.38"/><rect class="cls-137" x="75.9" y="81.36" width="0.08" height="21.38"/><rect class="cls-138" x="75.98" y="81.36" width="0.08" height="21.38"/><rect class="cls-139" x="76.06" y="81.36" width="0.08" height="21.38"/><rect class="cls-140" x="76.14" y="81.36" width="0.08" height="21.38"/><rect class="cls-141" x="76.22" y="81.36" width="0.08" height="21.38"/><rect class="cls-142" x="76.3" y="81.36" width="0.08" height="21.38"/><rect class="cls-143" x="76.38" y="81.36" width="0.08" height="21.38"/><rect class="cls-144" x="76.46" y="81.36" width="0.08" height="21.38"/><rect class="cls-145" x="76.54" y="81.36" width="0.08" height="21.38"/><rect class="cls-146" x="76.63" y="81.36" width="0.08" height="21.38"/><rect class="cls-147" x="76.71" y="81.36" width="0.08" height="21.38"/><rect class="cls-148" x="76.79" y="81.36" width="0.08" height="21.38"/><rect class="cls-149" x="76.87" y="81.36" width="0.08" height="21.38"/><rect class="cls-150" x="76.95" y="81.36" width="0.08" height="21.38"/><rect class="cls-151" x="77.03" y="81.36" width="0.08" height="21.38"/><rect class="cls-152" x="77.11" y="81.36" width="0.08" height="21.38"/><rect class="cls-153" x="77.19" y="81.36" width="0.08" height="21.38"/><rect class="cls-154" x="77.27" y="81.36" width="0.08" height="21.38"/><rect class="cls-155" x="77.36" y="81.36" width="0.08" height="21.38"/><rect class="cls-156" x="77.44" y="81.36" width="0.08" height="21.38"/><rect class="cls-157" x="77.52" y="81.36" width="0.08" height="21.38"/><rect class="cls-158" x="77.6" y="81.36" width="0.08" height="21.38"/><rect class="cls-159" x="77.68" y="81.36" width="0.08" height="21.38"/><rect class="cls-160" x="77.76" y="81.36" width="0.08" height="21.38"/><rect class="cls-161" x="77.84" y="81.36" width="0.08" height="21.38"/><rect class="cls-162" x="77.92" y="81.36" width="0.08" height="21.38"/><rect class="cls-163" x="78" y="81.36" width="0.08" height="21.38"/><rect class="cls-163" x="78.08" y="81.36" width="0.1" height="21.38"/><rect class="cls-164" x="78.18" y="81.36" width="0.1" height="21.38"/><rect class="cls-165" x="78.28" y="81.36" width="0.1" height="21.38"/><rect class="cls-166" x="78.38" y="81.36" width="0.1" height="21.38"/><rect class="cls-167" x="78.48" y="81.36" width="0.1" height="21.38"/><rect class="cls-168" x="78.58" y="81.36" width="0.1" height="21.38"/><rect class="cls-169" x="78.68" y="81.36" width="0.1" height="21.38"/><rect class="cls-170" x="78.78" y="81.36" width="0.1" height="21.38"/><rect class="cls-171" x="78.87" y="81.36" width="0.1" height="21.38"/><rect class="cls-172" x="78.97" y="81.36" width="0.1" height="21.38"/><rect class="cls-173" x="79.07" y="81.36" width="0.1" height="21.38"/><rect class="cls-174" x="79.17" y="81.36" width="0.1" height="21.38"/><rect class="cls-175" x="79.27" y="81.36" width="0.1" height="21.38"/><rect class="cls-176" x="79.37" y="81.36" width="0.1" height="21.38"/><rect class="cls-177" x="79.47" y="81.36" width="0.1" height="21.38"/><rect class="cls-178" x="79.56" y="81.36" width="0.1" height="21.38"/><rect class="cls-179" x="79.66" y="81.36" width="0.1" height="21.38"/><rect class="cls-180" x="79.76" y="81.36" width="0.1" height="21.38"/><rect class="cls-181" x="79.86" y="81.36" width="0.1" height="21.38"/><rect class="cls-182" x="79.96" y="81.36" width="0.1" height="21.38"/><rect class="cls-183" x="80.06" y="81.36" width="0.1" height="21.38"/><rect class="cls-184" x="80.16" y="81.36" width="0.1" height="21.38"/><rect class="cls-185" x="80.25" y="81.36" width="0.1" height="21.38"/><rect class="cls-186" x="80.35" y="81.36" width="0.1" height="21.38"/><rect class="cls-187" x="80.45" y="81.36" width="0.1" height="21.38"/><rect class="cls-188" x="80.55" y="81.36" width="0.1" height="21.38"/><rect class="cls-189" x="80.65" y="81.36" width="0.1" height="21.38"/><rect class="cls-190" x="80.75" y="81.36" width="0.1" height="21.38"/><rect class="cls-191" x="80.85" y="81.36" width="0.1" height="21.38"/><rect class="cls-192" x="80.95" y="81.36" width="0.1" height="21.38"/><rect class="cls-193" x="81.04" y="81.36" width="0.1" height="21.38"/><rect class="cls-194" x="81.14" y="81.36" width="0.1" height="21.38"/><rect class="cls-195" x="81.24" y="81.36" width="0.1" height="21.38"/><rect class="cls-196" x="81.34" y="81.36" width="0.1" height="21.38"/><rect class="cls-197" x="81.44" y="81.36" width="0.1" height="21.38"/><rect class="cls-198" x="81.54" y="81.36" width="0.1" height="21.38"/><rect class="cls-199" x="81.64" y="81.36" width="0.1" height="21.38"/><rect class="cls-200" x="81.73" y="81.36" width="0.1" height="21.38"/><rect class="cls-201" x="81.83" y="81.36" width="0.1" height="21.38"/><rect class="cls-202" x="81.93" y="81.36" width="0.1" height="21.38"/><rect class="cls-202" x="82.03" y="81.36" width="0.13" height="21.38"/><rect class="cls-203" x="82.16" y="81.36" width="0.13" height="21.38"/><rect class="cls-204" x="82.28" y="81.36" width="0.13" height="21.38"/><rect class="cls-205" x="82.41" y="81.36" width="0.13" height="21.38"/><rect class="cls-206" x="82.54" y="81.36" width="0.13" height="21.38"/><rect class="cls-207" x="82.66" y="81.36" width="0.13" height="21.38"/><rect class="cls-208" x="82.79" y="81.36" width="0.13" height="21.38"/><rect class="cls-209" x="82.91" y="81.36" width="0.13" height="21.38"/><rect class="cls-210" x="83.04" y="81.36" width="0.13" height="21.38"/><rect class="cls-211" x="83.17" y="81.36" width="0.13" height="21.38"/><rect class="cls-212" x="83.29" y="81.36" width="0.13" height="21.38"/><rect class="cls-213" x="83.42" y="81.36" width="0.13" height="21.38"/><rect class="cls-214" x="83.55" y="81.36" width="0.13" height="21.38"/><rect class="cls-215" x="83.67" y="81.36" width="0.13" height="21.38"/><rect class="cls-216" x="83.8" y="81.36" width="0.13" height="21.38"/><rect class="cls-217" x="83.92" y="81.36" width="0.13" height="21.38"/><rect class="cls-218" x="84.05" y="81.36" width="0.13" height="21.38"/><rect class="cls-219" x="84.18" y="81.36" width="0.13" height="21.38"/><rect class="cls-220" x="84.3" y="81.36" width="0.13" height="21.38"/><rect class="cls-221" x="84.43" y="81.36" width="0.13" height="21.38"/><rect class="cls-222" x="84.56" y="81.36" width="0.13" height="21.38"/><rect class="cls-223" x="84.68" y="81.36" width="0.13" height="21.38"/><rect class="cls-224" x="84.81" y="81.36" width="0.13" height="21.38"/><rect class="cls-225" x="84.94" y="81.36" width="0.13" height="21.38"/><rect class="cls-226" x="85.06" y="81.36" width="0.13" height="21.38"/><rect class="cls-226" x="85.19" y="81.36" width="0.2" height="21.38"/><rect class="cls-227" x="85.38" y="81.36" width="0.2" height="21.38"/><rect class="cls-228" x="85.58" y="81.36" width="0.2" height="21.38"/><rect class="cls-229" x="85.78" y="81.36" width="0.2" height="21.38"/><rect class="cls-230" x="85.98" y="81.36" width="0.2" height="21.38"/><rect class="cls-231" x="86.17" y="81.36" width="0.2" height="21.38"/><rect class="cls-232" x="86.37" y="81.36" width="0.2" height="21.38"/><rect class="cls-233" x="86.57" y="81.36" width="0.2" height="21.38"/><rect class="cls-234" x="86.77" y="81.36" width="0.2" height="21.38"/></g><rect class="cls-3" x="24.42" y="430.19" width="438.57" height="1.22"/><rect class="cls-3" x="217.5" y="250.21" width="1.22" height="195.57" transform="translate(-152.04 170.06) rotate(-32.25)"/><rect class="cls-3" x="120.33" y="347.38" width="195.57" height="1.22" transform="translate(-192.58 346.68) rotate(-57.74)"/><rect class="cls-235" x="126.69" y="258.53" width="182.85" height="13.79"/><polygon class="cls-236" points="143.98 146.68 146.86 154.26 141.83 154.31 143.98 146.68"/><path class="cls-3" d="M137.82,144.82a1.42,1.42,0,1,0,1.75-1,1.42,1.42,0,0,0-1.75,1Z"/><path class="cls-3" d="M146.73,145.82a1.27,1.27,0,1,0,0-.06S146.73,145.8,146.73,145.82Z"/><path class="cls-3" d="M149.56,140.76,152,143.7a2,2,0,0,0,0-2.3A2.39,2.39,0,0,0,149.56,140.76Z"/><path class="cls-3" d="M140.57,139.09l-3.64,1.24a2,2,0,0,1,1.2-2A2.37,2.37,0,0,1,140.57,139.09Z"/><path class="cls-15" d="M138.73,157.05l5.28,1.61a3.27,3.27,0,0,1-3.56,1.65A2.93,2.93,0,0,1,138.73,157.05Z"/><path class="cls-237" d="M142.18,160.2a3.09,3.09,0,0,1-1.73.11,2.65,2.65,0,0,1-1.72-2.38,3.09,3.09,0,0,1,2,.36A3.14,3.14,0,0,1,142.18,160.2Z"/><path class="cls-238" d="M368.78,98.12h-73.1a8.22,8.22,0,0,0-8.21,8.21v36.83a8.22,8.22,0,0,0,8.21,8.21H304v11.94a1.28,1.28,0,0,0,2.19.9l12.86-12.84h49.69a8.22,8.22,0,0,0,8.21-8.21v-36.9A8.21,8.21,0,0,0,368.78,98.12Z"/><path class="cls-239" d="M362.69,114.64H301.77a2.34,2.34,0,0,1-2.39-2.29v-.07h0a2.33,2.33,0,0,1,2.32-2.35h60.94a2.36,2.36,0,0,1,2.42,2.29v.06h0a2.36,2.36,0,0,1-2.36,2.36Z"/><path class="cls-239" d="M362.69,127.35H301.77a2.34,2.34,0,0,1-2.39-2.28V125h0a2.33,2.33,0,0,1,2.32-2.35h60.94a2.35,2.35,0,0,1,2.42,2.28V125h0a2.36,2.36,0,0,1-2.37,2.34Z"/><path class="cls-239" d="M362.69,140.08H301.77a2.34,2.34,0,0,1-2.39-2.29v0h0a2.34,2.34,0,0,1,2.32-2.36h60.94a2.36,2.36,0,0,1,2.42,2.29v.07h0a2.36,2.36,0,0,1-2.37,2.34Z"/><circle class="cls-17" cx="162.16" cy="226.01" r="2.93"/><rect class="cls-239" x="166.33" y="29.47" width="89.66" height="85.11" rx="10.84"/><path class="cls-240" d="M245.15,115.38h-68a11.68,11.68,0,0,1-11.68-11.66V40.31a11.68,11.68,0,0,1,11.68-11.66h68a11.66,11.66,0,0,1,11.66,11.66h0v63.41a11.66,11.66,0,0,1-11.66,11.66Zm-68-85.09a10,10,0,0,0-10,10v63.41a10,10,0,0,0,10,10h68a10,10,0,0,0,10-10h0V40.31a10,10,0,0,0-10-10h-68Z"/><path class="cls-241" d="M232.08,93.13A30.15,30.15,0,1,1,218.3,43.69l-9.07,28.78h0a.75.75,0,0,0,.25.56h0Z"/><path class="cls-242" d="M232.08,93.13A30.15,30.15,0,1,1,218.3,43.69l-9.07,28.78h0a.75.75,0,0,0,.25.56h0Z"/><path class="cls-243" d="M240.16,52.86,213.45,69.28,223,39.37A33.33,33.33,0,0,1,240.16,52.86Z"/><path class="cls-244" d="M245.61,72.8a33.34,33.34,0,0,1-7.85,21.53L213.44,73l27.61-17.05A33.31,33.31,0,0,1,245.61,72.8Z"/><g class="cls-245"><path class="cls-6" d="M245.61,72.8a33.34,33.34,0,0,1-7.85,21.53L213.44,73l27.61-17.05A33.31,33.31,0,0,1,245.61,72.8Z"/></g><g id="Group_423" data-name="Group 423"><path id="Path_1652" data-name="Path 1652" class="cls-246" d="M399.08,380.67c-5.51-8.22-1.36-22.81,11.84-29.53,3.1-1.58,7.29-4.59,8.69-8.78.41-1.2,0-2.28.35-2.26s.5,2.62.54,3.33A46.91,46.91,0,0,1,419,355.8c-1.68,8.45,1.07,19.59-6.61,27.14C406.9,388.37,401.82,384.76,399.08,380.67Z"/><path id="Path_1653" data-name="Path 1653" class="cls-247" d="M387.25,347.63c.29,0-.35.4-.06,1.35a7.77,7.77,0,0,0,2.22,2.89c2.43,2.66,3,6.07,2.8,9.57-.13,2.55-2.08,6.25-3.9,5-8.73-6.13-2.7-14.84-2-16.38C387.19,348.17,386.88,347.6,387.25,347.63Z"/><path id="Path_1654" data-name="Path 1654" class="cls-248" d="M395.22,394.12c4.1-4.05-1.31-26.89-19.82-38.14-1.91-1.16-5-3.37-5.63-2.92-.3.23,1.71.59,1.11,2.53-6.68,21.27,15.66,21.27,16.82,34.87C388,394.48,392.91,396.4,395.22,394.12Z"/><path id="Path_1655" data-name="Path 1655" class="cls-249" d="M440.93,358.15c-1.22,1.13-5,.69-8.48,2.23-3.28,1.44-4.69,4.7-6.14,9.39-2.49,8.05-9.59,20.36-19.53,20.45-16.08.14-1.53-18.13,12.85-28,6.21-4.27,14.75-4.35,18.59-4.4C440.48,357.77,441.49,357.62,440.93,358.15Z"/><path id="Path_1656" data-name="Path 1656" class="cls-250" d="M397.75,340.23c1.22-.59-.42,4.28,5.72,10.51,13.09,13.3,10.38,40.15-3.33,41.51-5.45.53-25.71-21.16-3.85-46.56C398.87,342.7,397.29,340.45,397.75,340.23Z"/><path id="Path_1657" data-name="Path 1657" class="cls-251" d="M412.38,360.49c.08-.93,3.34,8.69,3.73,13.4.84,10.21-.48,15.84-4.45,20.09-4.61,4.95-12.45,7-17.1,2.53-4.16-4-4.39-11.05-.8-16,2.56-3.51,3.44-3.65,10.51-11.17C408.64,364.72,412,364.82,412.38,360.49Z"/><path id="Path_1658" data-name="Path 1658" class="cls-252" d="M421.76,392.37a2.48,2.48,0,0,0-2.47-2.28H384.4a2.49,2.49,0,0,0-2.48,2.28l-1.55,17.48v2.5c0,9.53,7.72,18.12,17.25,18.12h8.45c9.52,0,17.24-8.59,17.24-18.12v-2.5Z"/></g><path id="Path_1651" data-name="Path 1651" class="cls-253" d="M306.33,249.25a2.25,2.25,0,0,0-1.67-1.18,2.64,2.64,0,0,0-1.28.05c0-.45,0-.9,0-1.34a.13.13,0,0,0-.12-.13H294a.12.12,0,0,0-.12.13c-.07,4.73.92,9.49,1.76,11.13a.23.23,0,0,0,.21.13h5.57a.26.26,0,0,0,.22-.13,11,11,0,0,0,.74-2.16,7.31,7.31,0,0,0,4-3.72A3.37,3.37,0,0,0,306.33,249.25Zm-.77,2.42a6.42,6.42,0,0,1-2.93,3,35.83,35.83,0,0,0,.71-5.56,1.7,1.7,0,0,1,1.15-.14,1.38,1.38,0,0,1,1,.72,2.46,2.46,0,0,1,0,2Z"/></svg>