<svg xmlns="http://www.w3.org/2000/svg" width="107.818" height="40.979" viewBox="0 0 107.818 40.979">
  <g id="Group_457" data-name="Group 457" transform="translate(282.71 477)">
    <path id="Path_77" data-name="Path 77" d="M166.674,19.2c0,3.693.011,6.561,0,9.428a19.992,19.992,0,0,1-.542,4.436,9.485,9.485,0,0,1-8.728,7.751c-1.8.2-1.8.2-1.955-1.574-.11-1.248-.166-2.507-.366-3.741a5.051,5.051,0,0,1,1.8-4.895,5.625,5.625,0,0,0,1.812-4.484,89.322,89.322,0,0,0-.611-9.824c-.108-1.428-.265-2.852-.416-4.276-.026-.241.071-.659-.289-.65-.428.011-.3.425-.289.707q.144,6.224.284,12.449c.011.52.122,1.26-.581,1.312-.776.058-.65-.755-.678-1.225-.129-2.175-.182-4.355-.279-6.532-.09-2.028-.2-4.054-.309-6.081-.012-.22.062-.587-.242-.593-.4-.008-.278.394-.278.627q-.011,6.094,0,12.189a3.72,3.72,0,0,1-.021.8c-.1.468-.234,1.027-.865.939-.582-.082-.7-.648-.679-1.118.14-4.091.018-8.182.06-12.273,0-.269,0-.538-.015-.806-.009-.185-.055-.383-.27-.406-.3-.033-.316.213-.328.423-.061,1.073-.128,2.146-.172,3.219q-.2,4.876-.379,9.753a2.26,2.26,0,0,1-.015.268c-.062.388-.111.863-.607.854-.552-.01-.72-.466-.715-.957.009-.926.034-1.852.061-2.777.1-3.372.2-6.743.29-10.115.006-.238.123-.632-.261-.648-.352-.014-.329.362-.348.621-.289,4.078-.86,8.134-.953,12.226-.022.955-.014,1.914.053,2.866A3.936,3.936,0,0,0,151,30.019a6.162,6.162,0,0,1,2.244,6.22c-.23,1.318-.255,2.672-.357,4.01-.031.406-.122.721-.616.677-3.4-.308-6.455-1.332-8.475-4.31a12.873,12.873,0,0,1-1.932-6.634c-.364-6.116-.1-12.24-.126-18.36a12.94,12.94,0,0,1,.942-5.169A9.56,9.56,0,0,1,148.935.833a17.437,17.437,0,0,1,10.929.092c3.963,1.354,6.088,4.282,6.624,8.357.469,3.566.059,7.162.185,9.917" transform="translate(-398.982 -477)" fill="#fff"/>
    <path id="Path_78" data-name="Path 78" d="M464.9,24.98q0-9.142,0-18.284c0-1.283.044-1.337,1.292-1.327,4.181.034,8.364-.115,12.542.154,2.912.188,5.689.722,7.935,2.8a8.69,8.69,0,0,1,2.624,6.562c.093,6.81.114,13.624.014,20.434-.075,5.126-3.627,8.582-8.978,9-4.862.376-9.734.085-14.6.181-.884.017-.831-.56-.831-1.144q0-9.187,0-18.373m9.374-.089V35.1c0,2.345,0,2.345,2.369,2.133a3.276,3.276,0,0,0,3.284-3.064,12.56,12.56,0,0,0,.156-1.869q.015-7.344-.009-14.688a14.4,14.4,0,0,0-.187-2.137,2.853,2.853,0,0,0-2.474-2.586c-.64-.129-1.3-.135-1.955-.209-1.147-.131-1.185-.107-1.185,1.016q0,5.6,0,11.195" transform="translate(-664.262 -481.397)" fill="#fff"/>
    <path id="Path_79" data-name="Path 79" d="M327.448,19.908c-.088,3.587.153,7.024-.168,10.451-.262,2.8-.817,5.508-2.879,7.634a10.893,10.893,0,0,1-7.357,3.046c-.353.028-.584-.093-.6-.479-.089-1.728-.231-3.455-.249-5.183a4.05,4.05,0,0,1,1.629-3.265c3.088-2.448,3.6-5.793,3.225-9.376a19.515,19.515,0,0,0-3.4-9.05,10.664,10.664,0,0,0-.961-1.179c-1.3-1.424-2.052-1.525-3.306-.063a17.61,17.61,0,0,0-4.4,14.513,6.461,6.461,0,0,0,2.962,4.51,4.977,4.977,0,0,1,2.405,4.951c-.145,1.279-.158,2.561-.179,3.844-.008.511-.128.9-.757.841a13.392,13.392,0,0,1-6.526-1.972c-2.509-1.7-3.569-4.222-4.086-7.081a53.563,53.563,0,0,1-.369-8.758c-.062-3.941-.005-7.884.035-11.826A11.985,11.985,0,0,1,304.1,5.212c1.768-2.9,4.51-4.262,7.739-4.778a17.3,17.3,0,0,1,9.175.776c3.957,1.546,5.841,4.645,6.266,8.736.35,3.365.048,6.745.168,9.961" transform="translate(-530.903 -477.128)" fill="#fff"/>
    <path id="Path_80" data-name="Path 80" d="M0,24.881Q0,16.323,0,7.765c0-.269,0-.538,0-.807C.044,5.4.045,5.4,1.594,5.4q9.409,0,18.819,0c1.3,0,1.307.01,1.308,1.287q0,2.644,0,5.287c0,1.488,0,1.5-1.534,1.5-3.2.005-6.392,0-9.589,0-1.229,0-1.23.005-1.232,1.252,0,1.464.033,2.928-.013,4.391-.024.75.248.98.981.973,3.106-.03,6.213.012,9.319-.029.861-.011,1.16.276,1.14,1.132-.045,1.881-.01,3.763-.015,5.645,0,1.193-.029,1.22-1.19,1.221-3.047,0-6.094.032-9.14-.018-.885-.014-1.105.286-1.1,1.129.035,4.719.018,9.439.015,14.159,0,1.171-.017,1.19-1.213,1.193q-3.495.009-6.99,0C.085,44.523,0,44.443,0,43.341Q0,34.112,0,24.881" transform="translate(-282.71 -481.433)" fill="#fff"/>
  </g>
</svg>
