<svg xmlns="http://www.w3.org/2000/svg" xmlns:xlink="http://www.w3.org/1999/xlink" viewBox="0 0 196.76 195.38"><defs><style>.cls-1{fill:#f5f5f5;}.cls-2{fill:#263238;}.cls-10,.cls-3{fill:#fff;}.cls-4{fill:#eaeaea;}.cls-5{fill:#455a64;}.cls-6{fill:#ff725e;}.cls-7{opacity:0.2;}.cls-8{opacity:0.3;}.cls-9{fill:url(#linear-gradient);}.cls-10{fill-rule:evenodd;}.cls-11{fill:url(#linear-gradient-2);}</style><linearGradient id="linear-gradient" x1="29.09" y1="48.02" x2="60.02" y2="48.02" gradientUnits="userSpaceOnUse"><stop offset="0" stop-color="#daf3f3"/><stop offset="0.14" stop-color="#b4dfdf"/><stop offset="0.31" stop-color="#8dcbca"/><stop offset="0.47" stop-color="#6ebbba"/><stop offset="0.64" stop-color="#58afae"/><stop offset="0.79" stop-color="#4ba8a7"/><stop offset="0.93" stop-color="#46a6a5"/></linearGradient><linearGradient id="linear-gradient-2" x1="10.46" y1="142.38" x2="29.75" y2="142.38" gradientUnits="userSpaceOnUse"><stop offset="0.09" stop-color="#f9bd46"/><stop offset="0.91" stop-color="#fd8259"/></linearGradient></defs><g id="Layer_2" data-name="Layer 2"><g id="Layer_1-2" data-name="Layer 1"><g id="freepik--Shadow--inject-1"><ellipse id="freepik--path--inject-1" class="cls-1" cx="98.38" cy="188.56" rx="98.38" ry="6.82"/></g><path class="cls-2" d="M132.17,187.39l-63.69,0a13.86,13.86,0,0,1-13.86-13.86h0l0-159.65A13.85,13.85,0,0,1,68.51,0h0l63.69,0a13.85,13.85,0,0,1,13.85,13.85l0,159.62a13.84,13.84,0,0,1-13.83,13.88Z"/><path class="cls-3" d="M132.15,5.63H119.8a3.08,3.08,0,0,0-3,3.13V11a3.06,3.06,0,0,1-3,3.13H89.73a3.06,3.06,0,0,1-3-3.14h0V8.74a3.09,3.09,0,0,0-3-3.14H68.59a9.71,9.71,0,0,0-9.73,9.68v0l0,155.84a9.7,9.7,0,0,0,9.7,9.7h0l63.56,0a9.7,9.7,0,0,0,9.7-9.7h0l0-155.85A9.71,9.71,0,0,0,132.15,5.63Z"/><path class="cls-2" d="M129.54,12.55s-1.61.08-3.59.1-3.58,0-3.58,0A35.18,35.18,0,0,1,126,12.5C127.93,12.49,129.54,12.5,129.54,12.55Z"/><path class="cls-2" d="M129.55,14.38s-1.6.09-3.58.11-3.59,0-3.59-.05,1.61-.09,3.59-.11S129.55,14.34,129.55,14.38Z"/><path class="cls-2" d="M129.57,16.21a35.47,35.47,0,0,1-3.59.11c-2,0-3.58,0-3.59-.05s1.61-.08,3.59-.1S129.57,16.17,129.57,16.21Z"/><path class="cls-2" d="M65.53,23.75h.71l1.93,0,0,.05c0-.43,0-.89,0-1.39v-.8a.74.74,0,0,1,.64-.6h.93a.76.76,0,0,1,.63.75c0,.65,0,1.33,0,2l-.09-.09h2.44l-.09.09c0-1,0-2,0-3V20a.78.78,0,0,0-.34-.58l-1.07-1.05-1-1-.49-.49c-.17-.17-.3-.34-.5-.38a.65.65,0,0,0-.56.11,5,5,0,0,0-.46.46l-.88.88c-.55.57-1.12,1.09-1.54,1.59a1.81,1.81,0,0,0-.12.92v3.12a1.71,1.71,0,0,1,0,.32,1.41,1.41,0,0,1,0-.29v-.87c0-.35,0-.87,0-1.39V20a1,1,0,0,1,.13-.51c.46-.55,1-1,1.54-1.62l.87-.89c.16-.16.28-.31.46-.47a.86.86,0,0,1,.71-.14,1.46,1.46,0,0,1,.59.42l.5.49,1,1,1.06,1.05a3.83,3.83,0,0,1,.28.29.86.86,0,0,1,.13.41v.78c0,1,0,2,0,3v.1h-2.7V21.78a.58.58,0,0,0-.49-.59h-.89a.59.59,0,0,0-.52.46v2.21H65.72A.72.72,0,0,1,65.53,23.75Z"/><path class="cls-4" d="M73.29,116.19h59.88a0,0,0,0,1,0,0v23.62a10.86,10.86,0,0,1-10.86,10.86h-49a10.86,10.86,0,0,1-10.86-10.86V127.05a10.86,10.86,0,0,1,10.86-10.86Z" transform="translate(195.59 266.86) rotate(-180)"/><path class="cls-5" d="M86.34,129.1a3.77,3.77,0,0,1-.67,0l-1.82,0c-1.53,0-3.66,0-6,0s-4.47,0-6,0l-1.82,0a3.77,3.77,0,0,1-.67,0,3.78,3.78,0,0,1,.67,0l1.82,0c1.53,0,3.66,0,6,0s4.47,0,6,0l1.82,0A3,3,0,0,1,86.34,129.1Z"/><path class="cls-5" d="M113,133.34c0,.07-9.77.12-21.83.12s-21.84-.05-21.84-.12,9.78-.12,21.84-.12S113,133.28,113,133.34Z"/><path class="cls-5" d="M99.38,137.29c0,.07-6.72.12-15,.12s-15,0-15-.12,6.72-.12,15-.12S99.38,137.21,99.38,137.29Z"/><path class="cls-4" d="M75.39,43.4h52.91a11.13,11.13,0,0,1,11.13,11.13v45a0,0,0,0,1,0,0h-64A11.13,11.13,0,0,1,64.26,88.42V54.53A11.13,11.13,0,0,1,75.39,43.4Z"/><path class="cls-6" d="M72.86,50.5l57.84.29A4.29,4.29,0,0,1,135,55.1l-.16,33.07a4.29,4.29,0,0,1-4.31,4.27h0l-57.84-.29a4,4,0,0,1-4-4l.17-33.73a4,4,0,0,1,4-3.94Z"/><g class="cls-7"><polygon points="68.78 75.24 134.98 54.32 134.96 59.47 68.75 82.26 68.78 75.24"/></g><g class="cls-7"><polygon points="104.97 50.67 112.04 66.69 119.7 92.4 125.83 92.43 113.72 62.65 110.46 50.7 104.97 50.67"/></g><path class="cls-3" d="M78.49,85.33h.8v1.53a2.68,2.68,0,0,1-1.53.47,2,2,0,1,1,0-3.91,2,2,0,0,1,1.58.67l-.56.51a1.26,1.26,0,0,0-1-.43,1.21,1.21,0,0,0-.09,2.41h.07a1.33,1.33,0,0,0,.68-.15Z"/><path class="cls-3" d="M80.1,83.51H81l0,3.77h-.87Z"/><path class="cls-3" d="M82.74,84.23v1h1.74v.7H82.73v1.37h-.87l0-3.77h2.85v.7Z"/><path class="cls-3" d="M86.12,84.25H84.91v-.72l3.28,0v.71H87v3.06l-.88,0Z"/><path class="cls-3" d="M90,85.45a1.89,1.89,0,0,1,1.86-1.91H92a1.85,1.85,0,0,1,1.34.53l-.17.18A1.62,1.62,0,0,0,92,83.79a1.66,1.66,0,0,0,0,3.32,1.62,1.62,0,0,0,1.17-.45l.17.18a1.82,1.82,0,0,1-1.35.52A1.89,1.89,0,0,1,90,85.54Z"/><path class="cls-3" d="M96.48,86.3H94.3l-.49,1.06h-.29l1.75-3.78h.27l1.72,3.78H97Zm-.1-.23-1-2.18-1,2.17Z"/><path class="cls-3" d="M100.57,87.38l-.9-1.25-.37,0H98.23v1.23H98l0-3.77h1.35c1,0,1.51.49,1.51,1.28a1.16,1.16,0,0,1-.9,1.18l.93,1.33ZM99.3,85.9c.81,0,1.25-.37,1.25-1s-.42-1-1.23-1H98.24v2Z"/><path class="cls-3" d="M101.84,83.62h1.5a1.89,1.89,0,1,1,0,3.78h-1.5Zm1.46,3.53a1.64,1.64,0,1,0,0-3.28h-1.19l0,3.27Z"/><path class="cls-3" d="M116.2,89.44s-9.08.07-20.27,0-20.29-.06-20.29-.12,9.07-.07,20.27,0S116.2,89.4,116.2,89.44Z"/><path class="cls-6" d="M110.14,62.71a6.61,6.61,0,0,1-3.53,0c-1.15-.27-2.27-.69-3.43-.94a11.49,11.49,0,0,0-8.35,1.5.71.71,0,0,0-.29.28.67.67,0,0,0,0,.46l3.57,10a1.32,1.32,0,0,0,2.08.87,24.08,24.08,0,0,0,4.6-2,9.84,9.84,0,0,0,3.55-3.5c.38-.69.65-1.42,1.06-2.1a3.24,3.24,0,0,1,1.72-1.52Z"/><path class="cls-6" d="M130.85,64.56A79.82,79.82,0,0,0,127,52c-2.88.16-5.49,1.77-7.64,3.69s-4,4.18-6.16,6.07l.27,3.1a4.17,4.17,0,0,1,2.63-.22,16,16,0,0,1,2.53.85,20.28,20.28,0,0,0,5.92,1.49,9.77,9.77,0,0,0,5.88-1.32.77.77,0,0,0,.45-1.06Z"/><g class="cls-8"><path d="M110.14,62.71a6.61,6.61,0,0,1-3.53,0c-1.15-.27-2.27-.69-3.43-.94a11.49,11.49,0,0,0-8.35,1.5.71.71,0,0,0-.29.28.67.67,0,0,0,0,.46l3.57,10a1.32,1.32,0,0,0,2.08.87,24.08,24.08,0,0,0,4.6-2,9.84,9.84,0,0,0,3.55-3.5c.38-.69.65-1.42,1.06-2.1a3.24,3.24,0,0,1,1.72-1.52Z"/></g><path class="cls-2" d="M110.14,62.71l.07.18.21.56.79,2.2v0h0a2.88,2.88,0,0,0-1.31,1,8.4,8.4,0,0,0-1,1.73,8.67,8.67,0,0,1-1.17,2,9.52,9.52,0,0,1-1.85,1.79,18.76,18.76,0,0,1-5.19,2.56,3.71,3.71,0,0,1-1.55.34,1,1,0,0,1-.73-.42,3,3,0,0,1-.35-.74c-.36-1-.74-2.06-1.12-3.11-.55-1.56-1.1-3.07-1.62-4.54q-.41-1.1-.78-2.16a1,1,0,0,1-.09-.59.9.9,0,0,1,.43-.41,9,9,0,0,1,1-.52,11.63,11.63,0,0,1,3.92-1.09,11.35,11.35,0,0,1,3.58.21c1.06.25,2,.57,2.81.78a9.81,9.81,0,0,0,2.15.39,5.31,5.31,0,0,0,1.38-.07c.31-.06.48-.11.48-.11l-.12.05a2.25,2.25,0,0,1-.35.09,5.4,5.4,0,0,1-1.39.11,10,10,0,0,1-2.18-.37c-.83-.21-1.76-.53-2.81-.78a11.49,11.49,0,0,0-7.37.89c-.32.16-.63.33-1,.52-.16.09-.32.18-.36.32a.79.79,0,0,0,.09.48q.38,1.06.78,2.16c.52,1.47,1.07,3,1.63,4.54.38,1,.75,2.09,1.11,3.11a3,3,0,0,0,.33.7.91.91,0,0,0,.61.36,3.79,3.79,0,0,0,1.48-.34A18.86,18.86,0,0,0,105.8,72a9.84,9.84,0,0,0,1.84-1.75,9.43,9.43,0,0,0,1.17-2,8,8,0,0,1,1-1.73,2.86,2.86,0,0,1,1.37-1l0,.05q-.48-1.43-.75-2.19l-.19-.57A.51.51,0,0,1,110.14,62.71Z"/><g class="cls-8"><path d="M130.85,64.56A79.82,79.82,0,0,0,127,52c-2.88.16-5.49,1.77-7.64,3.69s-4,4.18-6.16,6.07l.27,3.1a4.17,4.17,0,0,1,2.63-.22,16,16,0,0,1,2.53.85,20.28,20.28,0,0,0,5.92,1.49,9.77,9.77,0,0,0,5.88-1.32.77.77,0,0,0,.45-1.06Z"/></g><path class="cls-2" d="M130.85,64.56a1.05,1.05,0,0,1,.08.35.59.59,0,0,1-.15.42,1.58,1.58,0,0,1-.48.37,8.92,8.92,0,0,1-3.71,1.24,14.58,14.58,0,0,1-5.92-.69c-.55-.18-1.11-.37-1.67-.58s-1.14-.45-1.73-.66a7.5,7.5,0,0,0-1.86-.43,3.76,3.76,0,0,0-1.93.3l-.11.05v-.12c-.07-1-.17-2-.27-3.1v0l0,0c1-.89,2-1.91,3-3A33.32,33.32,0,0,1,121.23,54,11.49,11.49,0,0,1,127,51.88h0l0,.05A64.31,64.31,0,0,1,130,61c.29,1.12.5,2,.65,2.6.06.3.12.53.15.69s0,.13,0,.18a.13.13,0,0,1,0,.06.15.15,0,0,0,0-.06l-.05-.17c0-.17-.11-.39-.18-.68-.16-.62-.39-1.49-.69-2.6a65.4,65.4,0,0,0-3-9.06l.07,0a11.33,11.33,0,0,0-5.65,2.14,33.49,33.49,0,0,0-5,4.64c-1,1.05-2,2.07-3,3l0-.07c.08,1.07.18,2.11.26,3.1l-.11-.07a3.93,3.93,0,0,1,2-.31,7.81,7.81,0,0,1,1.91.45c.59.21,1.16.45,1.73.66s1.11.41,1.66.58a14.57,14.57,0,0,0,5.86.73,9.1,9.1,0,0,0,3.7-1.19,1.72,1.72,0,0,0,.48-.37.54.54,0,0,0,.14-.39A1.64,1.64,0,0,0,130.85,64.56Z"/><path class="cls-6" d="M111.66,66.27s-.77.18-1.23,2.44-1,12.58-1,12.58l10,1.87L113.94,66.4Z"/><path class="cls-6" d="M114.61,66l6.59,10.63,4.58-6.89s-6.86-5.18-11-4.77Z"/><g class="cls-8"><path d="M111.66,66.27s-.77.18-1.23,2.44-1,12.58-1,12.58l10,1.87L113.94,66.4Z"/></g><g class="cls-8"><path d="M114.61,66l6.59,10.63,4.58-6.89s-6.86-5.18-11-4.77Z"/></g><path class="cls-2" d="M111.66,66.27a.38.38,0,0,1,.15,0h.43l1.71.09h0v0c1,3,3.09,9.29,5.55,16.74l0,.14-.14,0-2.79-.52-7.19-1.34h-.07V81.3c.23-4.49.48-8.35.78-11.07a9.07,9.07,0,0,1,.74-3.11,2.3,2.3,0,0,1,.5-.7.71.71,0,0,1,.18-.12s.07,0,.07,0l-.06,0a1.09,1.09,0,0,0-.17.13,2.33,2.33,0,0,0-.47.7,9.24,9.24,0,0,0-.69,3.1c-.27,2.72-.49,6.57-.72,11.07l-.06-.09,7.2,1.35,2.78.52-.09.11c-2.45-7.45-4.49-13.72-5.46-16.77l0,0-1.7-.12-.44,0Z"/><path class="cls-2" d="M114.61,66V66l0-.2.16-.77v0h0a9.72,9.72,0,0,1,4.57,1,33.94,33.94,0,0,1,6.44,3.75l.06,0,0,.07L123.76,73l-2.49,3.73-.07.11-.07-.11L116.43,69l-1.35-2.21-.36-.6a.7.7,0,0,1-.11-.21l.14.21.37.58c.34.53.81,1.27,1.4,2.22l4.75,7.58h-.14l2.49-3.75,2.1-3.16v.12a34.5,34.5,0,0,0-6.39-3.77,9.87,9.87,0,0,0-4.51-1l0,0-.19.76c0,.08,0,.15,0,.2A.43.43,0,0,1,114.61,66Z"/><path class="cls-2" d="M110.45,65a9.83,9.83,0,0,1-1.14.37c-.7.22-1.67.56-2.71,1A25.66,25.66,0,0,0,104,67.61a10.81,10.81,0,0,1-1.06.57,1,1,0,0,1,.26-.2l.74-.48a21.52,21.52,0,0,1,5.33-2.24c.36-.1.65-.17.85-.21A1.13,1.13,0,0,1,110.45,65Z"/><path class="cls-2" d="M110,64a10.46,10.46,0,0,1-1.11.12,23.73,23.73,0,0,0-2.64.41c-1,.22-1.93.49-2.6.7a9.82,9.82,0,0,1-1.06.3,1.26,1.26,0,0,1,.26-.13c.18-.08.44-.17.77-.29a20.74,20.74,0,0,1,2.59-.74A16,16,0,0,1,108.9,64c.33,0,.62,0,.81,0A1.06,1.06,0,0,1,110,64Z"/><path class="cls-2" d="M123.52,59.27s-.53.07-1.37.21a16,16,0,0,0-3.19.85A15.36,15.36,0,0,0,116,61.85c-.7.47-1.11.81-1.13.78a1.6,1.6,0,0,1,.27-.25,6.82,6.82,0,0,1,.79-.63,13.23,13.23,0,0,1,2.94-1.58,14.62,14.62,0,0,1,3.25-.82,7,7,0,0,1,1-.07A1.53,1.53,0,0,1,123.52,59.27Z"/><path class="cls-2" d="M123.23,62.27a1.36,1.36,0,0,1-.3.13c-.18.08-.47.17-.82.28a19,19,0,0,1-2.8.65,18.4,18.4,0,0,1-2.87.22c-.37,0-.66,0-.87,0a1.66,1.66,0,0,1-.32,0,9.4,9.4,0,0,1,1.19,0,27,27,0,0,0,2.84-.27c.94-.15,1.88-.35,2.8-.59A11.43,11.43,0,0,1,123.23,62.27Z"/><path class="cls-6" d="M115.41,63.89a6,6,0,0,0-.77-1.64c-.28-.44-.4-.9-1.07-1.09a1.94,1.94,0,0,0-1.71.46c-.46-.37-1.15-.09-1.59.31a1.88,1.88,0,0,0-.53,1.61,3.61,3.61,0,0,0,.67,1.6,4.3,4.3,0,0,0,1.93,1.65,2.3,2.3,0,0,0,2.18-.29A2.42,2.42,0,0,0,115.41,63.89Z"/><g class="cls-8"><path d="M115.41,63.89a6,6,0,0,0-.77-1.64c-.28-.44-.4-.9-1.07-1.09a1.94,1.94,0,0,0-1.71.46c-.46-.37-1.15-.09-1.59.31a1.88,1.88,0,0,0-.53,1.61,3.61,3.61,0,0,0,.67,1.6,4.3,4.3,0,0,0,1.93,1.65,2.3,2.3,0,0,0,2.18-.29A2.42,2.42,0,0,0,115.41,63.89Z"/></g><path class="cls-2" d="M115.41,63.89a.64.64,0,0,1,.06.18,2.48,2.48,0,0,1,.06.54,2.39,2.39,0,0,1-2,2.39,2.5,2.5,0,0,1-1.54-.28,4.26,4.26,0,0,1-1.33-1.13,4.68,4.68,0,0,1-.91-1.63,2.14,2.14,0,0,1,.38-2,2.08,2.08,0,0,1,.85-.52,1,1,0,0,1,.93.13h-.1a1.76,1.76,0,0,1,1-.5,1.43,1.43,0,0,1,1.65.8c.13.25.27.46.38.66a5.89,5.89,0,0,1,.45,1,2.68,2.68,0,0,1,.07.27v.1a3.86,3.86,0,0,0-.14-.36,6.45,6.45,0,0,0-.47-1c-.12-.2-.27-.41-.41-.65a1.37,1.37,0,0,0-.57-.62,1.49,1.49,0,0,0-1-.11,1.73,1.73,0,0,0-1,.46l-.05.06,0-.05a.86.86,0,0,0-.79-.1,1.88,1.88,0,0,0-.77.49,1.92,1.92,0,0,0-.35,1.84,4.65,4.65,0,0,0,.87,1.57A4.07,4.07,0,0,0,112,66.55a2.29,2.29,0,0,0,1.45.28,2.13,2.13,0,0,0,1.17-.55,2.29,2.29,0,0,0,.78-1.69A4.06,4.06,0,0,0,115.41,63.89Z"/><path class="cls-2" d="M111.81,66.53a7.17,7.17,0,0,1,.33-.69,4.46,4.46,0,0,0,.06-3.53c-.17-.43-.34-.68-.31-.69a2,2,0,0,1,.43.64,4.13,4.13,0,0,1-.06,3.63A2.06,2.06,0,0,1,111.81,66.53Z"/><path class="cls-2" d="M114.9,62.63a1.94,1.94,0,0,1,0,.72,5,5,0,0,1-.48,1.65,4.71,4.71,0,0,1-1,1.4,1.86,1.86,0,0,1-.57.43,7.57,7.57,0,0,0,1.44-1.89A9.12,9.12,0,0,0,114.9,62.63Z"/><path class="cls-3" d="M107.27,63.52a2.42,2.42,0,0,1-.47-.07l-1.29-.23a30.72,30.72,0,0,0-4.28-.54,13.66,13.66,0,0,0-4.27.45,12.71,12.71,0,0,0-1.23.42,4.22,4.22,0,0,1-.45.18,2.18,2.18,0,0,1,.42-.24A9.21,9.21,0,0,1,96.93,63a13,13,0,0,1,4.3-.51,27,27,0,0,1,4.29.59l1.28.3A2.52,2.52,0,0,1,107.27,63.52Z"/><path class="cls-3" d="M105.74,65.17a8.26,8.26,0,0,1-1.28.32,9.23,9.23,0,0,1-1.29.27A5.87,5.87,0,0,1,105.74,65.17Z"/><path class="cls-3" d="M105.26,67.34s-.18.2-.46.35-.52.23-.54.19.18-.2.46-.35A1.12,1.12,0,0,1,105.26,67.34Z"/><path class="cls-3" d="M110.64,64.48s-.13-.11-.25-.35a2.45,2.45,0,0,1-.22-1,2.41,2.41,0,0,1,.26-1,1,1,0,0,1,.27-.35,3,3,0,0,0-.06,2.75Z"/><path class="cls-3" d="M113,64.79a6.26,6.26,0,0,1,0-.75,3.78,3.78,0,0,1-.05-.75,1.65,1.65,0,0,1,.06,1.5Z"/><path class="cls-3" d="M119.29,56.72a28.87,28.87,0,0,1-2.19,2.09,25.43,25.43,0,0,1-2.31,2,27.16,27.16,0,0,1,2.2-2.09A26.74,26.74,0,0,1,119.29,56.72Z"/><path class="cls-3" d="M117.89,61.27a4.08,4.08,0,0,1-1.45.85,2.1,2.1,0,0,1,.68-.5A2,2,0,0,1,117.89,61.27Z"/><path class="cls-3" d="M111,70.67a6.43,6.43,0,0,1,.48-3.74s-.22.82-.34,1.85S111.07,70.67,111,70.67Z"/><path class="cls-3" d="M117.82,69.52a13.22,13.22,0,0,1-1.47-2.62,13.32,13.32,0,0,1,1.47,2.62Z"/><path class="cls-3" d="M84.73,54.28s-2,0-4.55-.09-4.54-.22-4.54-.27,2,0,4.55.09S84.73,54.23,84.73,54.28Z"/><path class="cls-9" d="M44.55,63.48h0A15.46,15.46,0,0,1,29.09,48h0A15.47,15.47,0,0,1,44.55,32.55h0A15.47,15.47,0,0,1,60,48h0A15.47,15.47,0,0,1,44.55,63.48Z"/><rect class="cls-3" x="37.54" y="44.57" width="3.2" height="10.34"/><path class="cls-3" d="M39.13,43.22a1.91,1.91,0,1,0-1.9-1.93v0A1.91,1.91,0,0,0,39.13,43.22Z"/><path class="cls-3" d="M45.86,49.48c0-1.45.67-2.32,2-2.32s1.74.83,1.74,2.32V54.9h3.18V48.36c0-2.77-1.56-4.1-3.76-4.1A3.61,3.61,0,0,0,45.86,46V44.57H42.79V54.91h3.07Z"/><path class="cls-6" d="M150.22,101.85h0a15.59,15.59,0,0,1-9-20.13v0h0a15.6,15.6,0,0,1,20.13-9h0a15.58,15.58,0,0,1,9,20.12v0h0a15.58,15.58,0,0,1-20.12,9Z"/><path class="cls-10" d="M163.94,89.92a8.4,8.4,0,0,0-15.63-6.13c-.05.11-.09.23-.14.34a8.27,8.27,0,0,0-.41,4.46l-3,3.63,4.87.28a8.41,8.41,0,0,0,14.25-2.37A1.72,1.72,0,0,0,163.94,89.92Zm-10.42,3.74a7.08,7.08,0,0,1-3.22-2.47L147.46,91l1.75-2.12a6.94,6.94,0,0,1,.21-4.32c.08-.21.18-.42.28-.62a7.07,7.07,0,0,1,13.1,5.14,4.72,4.72,0,0,1-.18.53A7,7,0,0,1,153.52,93.66Z"/><path class="cls-10" d="M159,90.06c-.16-.17-.93-1-1.08-1.11s-.27-.21-.47-.07a8.65,8.65,0,0,1-.9.51c-.15.09-.27.06-.43-.11A5.78,5.78,0,0,1,155,87.74,6.23,6.23,0,0,1,154.4,86c0-.23.1-.3.23-.35s.28-.15.42-.23l.1-.06a1.29,1.29,0,0,0,.21-.19.36.36,0,0,0,.12-.34c0-.11,0-1.2-.06-1.64s-.2-.44-.31-.48a3,3,0,0,0-.36-.16.76.76,0,0,0-.61,0,2.31,2.31,0,0,0-1.28,1.34,2.65,2.65,0,0,0-.15.69,4.69,4.69,0,0,0,.18,1.58,8.52,8.52,0,0,0,2.19,4.14c1.66,1.52,1.76,1.26,2.13,1.36a2,2,0,0,0,1.67-.41,1.64,1.64,0,0,0,.46-.87A2.59,2.59,0,0,0,159,90.06Z"/><path class="cls-11" d="M20.11,152h0a9.65,9.65,0,0,1-9.65-9.65h0a9.64,9.64,0,0,1,9.65-9.64h0a9.64,9.64,0,0,1,9.64,9.64h0A9.65,9.65,0,0,1,20.11,152Z"/><path class="cls-3" d="M15,145.6a6,6,0,0,0,8.29-1.83,6.07,6.07,0,0,0,.94-3.5,4.41,4.41,0,0,0,1-1.07,4.73,4.73,0,0,1-1.21.33,2.11,2.11,0,0,0,.93-1.15,4,4,0,0,1-1.35.51,2.12,2.12,0,0,0-3-.14,2.14,2.14,0,0,0-.63,2.07,6,6,0,0,1-4.35-2.21,2.11,2.11,0,0,0,.66,2.81,1.89,1.89,0,0,1-1-.26,2.12,2.12,0,0,0,1.69,2.1,2.17,2.17,0,0,1-.95,0,2.12,2.12,0,0,0,2,1.47A4.28,4.28,0,0,1,15,145.6Z"/><path class="cls-5" d="M161.37,173.47h0a15.06,15.06,0,0,1-15.07-15.05h0a15.05,15.05,0,0,1,15.06-15h0a15,15,0,0,1,15.08,15v0h0a15.05,15.05,0,0,1-15,15.06Z"/><path class="cls-3" d="M159.07,167.51h3.67v-9.15h2.55l.28-3.07h-2.83v-1.75c0-.72.15-1,.88-1h2v-3.2h-2.55c-2.73,0-3.95,1.2-3.95,3.51v2.46h-2v3.06h1.9Z"/></g></g></svg>