<svg xmlns="http://www.w3.org/2000/svg" viewBox="0 0 199.21 195"><defs><style>.cls-1{fill:#f5f5f5;}.cls-2{fill:#e0e0e0;}.cls-3{fill:#ebebeb;}.cls-4{fill:#229141;}.cls-5{fill:#263238;}.cls-6{fill:#4e7563;}.cls-7{fill:#fafafa;}.cls-8{fill:#ff725e;}.cls-9{fill:none;}.cls-10{fill:#154b77;}.cls-11{opacity:0.3;}.cls-12{fill:#2b6baa;}.cls-13{fill:#fff;}.cls-14{fill:#eb996e;}.cls-15{fill:#d1734a;}.cls-16{fill:#455a64;}.cls-17{fill:#154d7a;}.cls-18{fill:#212121;}</style></defs><g id="Layer_2" data-name="Layer 2"><g id="Layer_1-2" data-name="Layer 1"><g id="freepik--Shadow--inject-1"><ellipse id="freepik--path--inject-1" class="cls-1" cx="99.61" cy="188.48" rx="99.61" ry="6.52"/></g><g id="freepik--background-complete--inject-106"><rect class="cls-2" x="38.3" y="42.43" width="110.68" height="141.07" transform="translate(-11.31 10.43) rotate(-6.01)"/><rect class="cls-3" x="45.53" y="47.48" width="110.19" height="129.74" transform="matrix(0.99, -0.15, 0.15, 0.99, -15.55, 16.17)"/><path class="cls-2" d="M188.35,51.61s-4.33-2.86-9.57,7.46a135.78,135.78,0,0,0-7.25,16.25s-1.39,2.14-2.88.75-3.52-5.43-6-4.71-3.48,3.67-3,8,1.25,13.73,1.31,14.59-.43,2.07-1.58,1.28-7.88-8.26-11.23-4.87,0,15.13.35,16.42.09,1.84-.53,2.14-2.63-2.41-4.62-4.45-4.67-4.07-6.44-2-2.34,10.92,6,25.23l4.32,6.39,7.7-.43c16.46-1.92,23.14-7.67,23.77-10.37s-2.6-3.6-5.43-4-6.23-.33-6.34-1,.17-1.22,1.41-1.71S181,111.74,181.66,107s-9.31-5.56-10.65-6-.65-1.57.06-2,8.71-5.56,12.44-7.74,5.54-4.64,4.57-7.18-5.38-1.66-7.4-2-1.13-2.74-1.13-2.74a134.65,134.65,0,0,0,8.62-15.59c5.07-10.41.06-12.16.06-12.16"/><path class="cls-3" d="M183.63,60.84l-.1.22-.3.65-1.18,2.49c-1,2.14-2.54,5.24-4.41,9-3.76,7.63-9,18.11-14.89,29.69s-11.17,22.07-15,29.67l-4.49,9-1.18,2.45-.33.63-.11.21.09-.22.3-.65,1.18-2.46c1-2.14,2.54-5.24,4.41-9.06,3.76-7.63,9-18.13,14.9-29.71s11.15-22.06,15-29.68c1.88-3.8,3.42-6.87,4.47-9l1.23-2.45.32-.63A1.45,1.45,0,0,1,183.63,60.84Z"/><path class="cls-3" d="M165.23,77.11a2.5,2.5,0,0,1,.19.52c.12.34.26.86.43,1.45.35,1.23.79,3,1.24,4.84s.83,3.57,1.13,4.86c.14.59.26,1.08.35,1.47a2.55,2.55,0,0,1,.11.55,3.28,3.28,0,0,1-.2-.52c-.11-.34-.25-.84-.43-1.45-.33-1.24-.75-3-1.2-4.85s-.85-3.56-1.16-4.85q-.23-.88-.36-1.47A2.54,2.54,0,0,1,165.23,77.11Z"/><path class="cls-3" d="M169.39,90.93c0-.06,3.47-1.12,7.79-2.36S185,86.38,185,86.43s-3.47,1.13-7.79,2.37S169.41,91,169.39,90.93Z"/><path class="cls-3" d="M159.59,108.31a2.69,2.69,0,0,1,.57,0h1.54c1.3,0,3.1,0,5.09-.07s3.78-.21,5.08-.31l1.54-.12a2.72,2.72,0,0,1,.57,0,3.47,3.47,0,0,1-.56.11l-1.53.2c-1.29.15-3.1.3-5.09.37s-3.8.06-5.11,0c-.65,0-1.17,0-1.54-.08A2.6,2.6,0,0,1,159.59,108.31Z"/><path class="cls-3" d="M153.07,96.63a2.08,2.08,0,0,1,.3.43l.75,1.22c.62,1,1.12,2.81,2.37,4.06.92,1.6,1.74,3,2.32,4.1.27.5.49.92.68,1.26a1.74,1.74,0,0,1,.22.48,2.08,2.08,0,0,1-.3-.43l-.74-1.22c-.62-1-1.47-2.47-2.38-4.06s-1.74-3-2.32-4.1l-.68-1.24A2.05,2.05,0,0,1,153.07,96.63Z"/><path class="cls-3" d="M142.47,110.87a3.67,3.67,0,0,1,.38.56l1,1.55c.81,1.32,1.9,3.16,3.1,5.19s2.26,3.88,3,5.22c.36.65.67,1.18.9,1.6a3.36,3.36,0,0,1,.3.6,3.37,3.37,0,0,1-.38-.55l-1-1.57c-.81-1.31-1.9-3.15-3.09-5.18s-2.27-3.88-3-5.22l-.9-1.6A4.15,4.15,0,0,1,142.47,110.87Z"/><path class="cls-3" d="M151,125.18a3.49,3.49,0,0,1,.72-.05l2-.06c1.65-.06,3.93-.15,6.45-.31s4.79-.37,6.44-.53l1.95-.19a3.48,3.48,0,0,1,.72,0,5.55,5.55,0,0,1-.71.13c-.46.07-1.12.17-1.94.26-1.65.21-3.92.43-6.44.6s-4.81.23-6.47.24h-2A3.49,3.49,0,0,1,151,125.18Z"/></g><g id="freepik--Plants--inject-106"><path class="cls-4" d="M23.17,122a6.34,6.34,0,0,1,5-.33,11.25,11.25,0,0,1,4.28,2.73c2.37,2.3,3.85,5.79,4.7,9-3.59.72-7.31-1.34-9.13-2.5-2.87-1.84-7-6.91-4.81-8.87"/><path class="cls-4" d="M43.35,134.1a5.41,5.41,0,0,1-3-4.53,7.18,7.18,0,0,1,1.92-5.21,3,3,0,0,1,2.25-1.21,2.31,2.31,0,0,1,1.88,1.4,4.56,4.56,0,0,1,.3,2.42c-.27,2.81-1,5.48-3.34,7.13"/><path class="cls-5" d="M49.16,143a3,3,0,0,1-.47-.48l-1.24-1.38a19.2,19.2,0,0,1-3.47-5,11.71,11.71,0,0,1-1-6,8,8,0,0,1,.43-1.81c.06-.16.13-.31.2-.47s.08-.15.09-.15a10.8,10.8,0,0,0,.47,8.35,20.82,20.82,0,0,0,3.37,5c.5.59.91,1.08,1.18,1.42A3.56,3.56,0,0,1,49.16,143Z"/><path class="cls-5" d="M26.62,125.56a1.35,1.35,0,0,1,.26.15l.7.48L30.12,128c2.14,1.54,5.05,3.7,8.22,6.16s6,4.75,8,6.43l2.37,2,.63.56q.22.19.21.21a1.46,1.46,0,0,1-.24-.17l-.66-.53-2.42-1.95c-2.07-1.66-4.88-3.92-8.06-6.37s-6.06-4.63-8.17-6.2l-2.49-1.86-.68-.51A2.08,2.08,0,0,1,26.62,125.56Z"/><path class="cls-4" d="M42,139.1a12.71,12.71,0,0,0-11.58-.18c-.91.47-1.87,1.24-1.79,2.26s1.16,1.64,2.14,1.93a10.82,10.82,0,0,0,11.4-3.79"/><path class="cls-5" d="M33.18,140.47a2.77,2.77,0,0,1,.56-.31,5.93,5.93,0,0,1,.68-.31,8.71,8.71,0,0,1,.93-.34,11.77,11.77,0,0,1,1.16-.33,12.66,12.66,0,0,1,1.37-.24,14,14,0,0,1,3.17,0,13.59,13.59,0,0,1,3.08.75,12.26,12.26,0,0,1,1.29.56c.36.19.71.38,1,.6s.57.4.81.57a5.48,5.48,0,0,1,.58.48,3.13,3.13,0,0,1,.47.42c0,.05-.7-.58-1.95-1.34a15.53,15.53,0,0,0-2.3-1.1,14.46,14.46,0,0,0-3-.72,14.79,14.79,0,0,0-3.12,0,12.65,12.65,0,0,0-1.35.22,10.14,10.14,0,0,0-1.15.29C34,140.09,33.2,140.51,33.18,140.47Z"/><path class="cls-6" d="M153.06,155.88c-3-1.93-4.08-4.39-4.55-7.92a12.48,12.48,0,0,1,3.08-9.88c2-2.2,4.79-3.7,6.24-6.29,1.54-2.76,1.34-6.42,3.54-8.7,1.51-1.57,3.79-2,5.66-3.17a36.48,36.48,0,0,0,4.14-3.32,7.57,7.57,0,0,1,4.81-2c2.67.1,4.85,2.64,5.08,5.3a8.92,8.92,0,0,1-3.13,7.08c-1.43,1.31-3.22,2.34-4.12,4.06-1.71,3.22.37,7.54-1.46,10.7-1.34,2.29-4.53,3.49-4.88,6.13a18,18,0,0,0,.22,2.92c.09,3.06-2.67,5.63-5.66,6.29s-6.1-.17-9-1.2"/><path class="cls-5" d="M170.62,125.58a2.54,2.54,0,0,1-.29.36l-.91,1c-.39.43-.88.93-1.41,1.55s-1.17,1.29-1.8,2.11-1.36,1.68-2.05,2.67c-.35.5-.74,1-1.09,1.53L162,136.43a58.65,58.65,0,0,0-4.14,7.79,56.33,56.33,0,0,0-2.8,8.37c-.3,1.33-.6,2.57-.77,3.78s-.34,2.31-.46,3.33-.15,2-.22,2.77-.07,1.52-.08,2.09,0,1,0,1.33a2.32,2.32,0,0,1,0,.46,1.75,1.75,0,0,1,0-.46c0-.34,0-.78,0-1.33s0-1.28,0-2.1,0-1.76.16-2.78.21-2.14.43-3.36.43-2.47.74-3.8a55.29,55.29,0,0,1,2.8-8.44,57.85,57.85,0,0,1,4.2-7.84l1.11-1.66c.36-.54.75-1,1.1-1.52.71-1,1.45-1.85,2.1-2.65s1.29-1.47,1.85-2.08,1-1.12,1.46-1.52l1-.92A2.51,2.51,0,0,1,170.62,125.58Z"/></g><g id="freepik--Window--inject-106"><rect class="cls-7" x="45.53" y="46.73" width="110.19" height="129.74"/><path class="cls-5" d="M155.73,177.32c0-.86,0-52.43-.1-129.74l.1.1H45.55l.11-.11V177.31l-.1-.1,110.2.1-110.2.09h-.12V47.46H155.85v.1C155.77,124.89,155.73,176.46,155.73,177.32Z"/><path class="cls-5" d="M146,114.34v-3.61c0-2.33-.05-5.72-.08-10l.15.07-89.41,0h0l.23-.11v13.59l-.22-.11,63.9,0,18.71,0h0l-18.66,0-64.06,0h-.23V100.64h.23l89.4,0h.15v.07c0,4.28-.06,7.7-.08,10v3.34A.33.33,0,0,1,146,114.34Z"/><path class="cls-5" d="M147.55,134v-3.51c0-2.3,0-5.69,0-10.08l0,0-91.1.06h0l.11-.11V134l-.11-.11,64.82,0,19.24,0h.06l-19.25,0L56.45,134h-.11V120.27h.11l91.11.06h.05v0c0,4.41,0,7.81,0,10.11v2.6Z"/><path class="cls-8" d="M65.5,109.51l-.33,0-1,0c-.86,0-2.08.06-3.55.08h-.14l.05-.13a2.59,2.59,0,0,1,.68-1.15,2.4,2.4,0,0,1,1.31-.6l0,.21a1.66,1.66,0,0,1-1-1.39,1.69,1.69,0,0,1,.92-1.65,1.46,1.46,0,0,1,1.71.38,1.7,1.7,0,0,1,.37,1.56,1.57,1.57,0,0,1-.9,1.06v-.15a2.49,2.49,0,0,1,1,.43,2.14,2.14,0,0,1,.57.63,1.73,1.73,0,0,1,.27.68l-.09-.17a2.94,2.94,0,0,0-.25-.46,2.17,2.17,0,0,0-1.58-1l-.29,0,.27-.12a1.41,1.41,0,0,0,.79-1,1.52,1.52,0,0,0-.34-1.37,1.29,1.29,0,0,0-1.47-.32,1.47,1.47,0,0,0,.07,2.64l.37.14-.39.07a2.22,2.22,0,0,0-1.2.55,2.55,2.55,0,0,0-.65,1l-.09-.13c1.42,0,2.62,0,3.48,0h1C65.28,109.49,65.39,109.49,65.5,109.51Z"/><path class="cls-5" d="M71.29,107v1.28H71v-1.24a.61.61,0,0,0-.51-.69h-.15a.71.71,0,0,0-.76.66.29.29,0,0,0,0,.13v1.15h-.3v-2.19h.29v.39a.9.9,0,0,1,.83-.43.87.87,0,0,1,.9.81A.66.66,0,0,1,71.29,107Z"/><path class="cls-5" d="M73.75,107v1.35h-.29V108a.8.8,0,0,1-.75.36c-.49,0-.8-.26-.8-.63s.22-.62.86-.62h.69V107a.53.53,0,0,0-.61-.58,1.12,1.12,0,0,0-.73.26l-.14-.22a1.42,1.42,0,0,1,.88-.32.78.78,0,0,1,.88.66A1.27,1.27,0,0,1,73.75,107Zm-.3.69v-.35h-.68c-.43,0-.56.16-.56.39s.2.43.55.43a.7.7,0,0,0,.69-.46Z"/><path class="cls-5" d="M78.15,107v1.28h-.29v-1.24c0-.46-.23-.7-.63-.7a.69.69,0,0,0-.73.67.24.24,0,0,0,0,.12v1.15h-.3v-1.24c0-.46-.23-.7-.62-.7a.71.71,0,0,0-.74.67v1.27h-.27v-2.19h.28v.39a.87.87,0,0,1,.8-.43.79.79,0,0,1,.78.46,1,1,0,0,1,.85-.46.82.82,0,0,1,.88.77A.55.55,0,0,1,78.15,107Z"/><path class="cls-5" d="M80.87,107.3H79a.8.8,0,0,0,.85.76h0a.84.84,0,0,0,.66-.28l.17.19a1.15,1.15,0,0,1-1.63,0,1.17,1.17,0,0,1-.36-.8,1.07,1.07,0,0,1,2.14,0A.28.28,0,0,0,80.87,107.3ZM79,107.08h1.55a.76.76,0,0,0-.78-.72.75.75,0,0,0-.77.72Z"/><path class="cls-5" d="M71.53,127.42c0,.62-.43,1-1.19,1h-.78v.92h-.31v-2.9h1.09C71.07,126.43,71.53,126.8,71.53,127.42Zm-.31,0c0-.46-.31-.73-.89-.73h-.77v1.46h.77c.58,0,.88-.27.88-.73Z"/><path class="cls-5" d="M73.75,128v1.35h-.28V129a.81.81,0,0,1-.75.36c-.5,0-.8-.25-.8-.63s.21-.62.86-.62h.69V128c0-.38-.21-.58-.62-.58a1.12,1.12,0,0,0-.72.26l-.14-.22a1.39,1.39,0,0,1,.89-.3.78.78,0,0,1,.87.68A.43.43,0,0,1,73.75,128Zm-.29.7v-.36h-.69c-.43,0-.56.16-.56.39s.21.42.55.42a.7.7,0,0,0,.7-.44Z"/><path class="cls-5" d="M74.25,129.09l.13-.24a1.37,1.37,0,0,0,.78.25c.43,0,.59-.14.59-.36,0-.57-1.42-.12-1.42-1,0-.36.31-.63.85-.63a1.52,1.52,0,0,1,.78.21l-.13.23a1.23,1.23,0,0,0-.65-.19c-.39,0-.57.16-.57.37,0,.59,1.42.14,1.42,1,0,.38-.33.63-.9.63A1.55,1.55,0,0,1,74.25,129.09Z"/><path class="cls-5" d="M76.28,129.09l.14-.24a1.31,1.31,0,0,0,.77.25c.43,0,.59-.14.59-.36,0-.57-1.42-.12-1.42-1,0-.36.31-.63.85-.63a1.5,1.5,0,0,1,.78.21l-.13.23a1.23,1.23,0,0,0-.65-.19c-.39,0-.56.16-.56.37,0,.59,1.42.14,1.42,1,0,.38-.34.63-.91.63A1.55,1.55,0,0,1,76.28,129.09Z"/><path class="cls-5" d="M81.8,127.15l-.86,2.18h-.28L80,127.54l-.69,1.79H79l-.83-2.19h.29l.69,1.86.7-1.86h.25l.7,1.86.69-1.86Z"/><path class="cls-5" d="M82,128.24a1.11,1.11,0,1,1,1.11,1.12,1.07,1.07,0,0,1-1.11-1A.11.11,0,0,1,82,128.24Zm1.92,0a.81.81,0,1,0-1.62.09.8.8,0,0,0,.81.76.79.79,0,0,0,.81-.78Z"/><path class="cls-5" d="M85.87,127.13v.29H85.8a.71.71,0,0,0-.74.67.65.65,0,0,0,0,.14v1.11h-.27v-2.19h.28v.43A.83.83,0,0,1,85.87,127.13Z"/><path class="cls-5" d="M88.37,126.25v3.09h-.28v-.43a.93.93,0,0,1-.85.45,1.11,1.11,0,1,1,0-2.22h0a1,1,0,0,1,.83.43v-1.32Zm-.29,2a.81.81,0,0,0-.85-.77.82.82,0,0,0-.77.86.82.82,0,0,0,1.63,0s0-.05,0-.07Z"/><path class="cls-9" d="M65,126v-.43a1.46,1.46,0,0,0-2.91,0V126a.82.82,0,0,0-.7.8v2.62a.82.82,0,0,0,.82.81h2.72a.81.81,0,0,0,.81-.81v-2.62A.81.81,0,0,0,65,126ZM64,128.79h-.71l.11-.52a.41.41,0,0,1-.21-.36.43.43,0,1,1,.86,0,.44.44,0,0,1-.19.36c.06.2.14.52.14.52ZM64.7,126H62.41v-.43a1.15,1.15,0,0,1,2.29,0Z"/><path class="cls-8" d="M64.69,126a1.35,1.35,0,0,1,0-.28,1.33,1.33,0,0,0-.16-.65,1.08,1.08,0,0,0-.78-.54,1.05,1.05,0,0,0-1,.47,1,1,0,0,0-.17.48V126l-.1-.11a21.62,21.62,0,0,1,2.28.11,17.32,17.32,0,0,1-2.28.1h-.11v-.64a1.19,1.19,0,0,1,.2-.58,1.23,1.23,0,0,1,1.24-.55,1.18,1.18,0,0,1,.89.67,1.26,1.26,0,0,1,.1.74A.88.88,0,0,1,64.69,126Z"/><path class="cls-8" d="M64,128.79a4.4,4.4,0,0,1-.21-.5v0l0,0a.36.36,0,0,0,.08-.47.32.32,0,0,0-.43-.15.32.32,0,0,0-.16.44.35.35,0,0,0,.13.14l.07,0,0,.07-.13.51-.08-.1a5.51,5.51,0,0,1,.71.08,2.43,2.43,0,0,1-.71.09h-.1v-.12l.09-.51,0,.11a.53.53,0,0,1-.18-.74l.06-.09a.53.53,0,0,1,.48-.16.51.51,0,0,1,.2,1l0-.08A1.85,1.85,0,0,1,64,128.79Z"/><path class="cls-8" d="M65,126a.6.6,0,0,1,.19,0,.88.88,0,0,1,.6.69v2.24a4.46,4.46,0,0,1,0,.73.94.94,0,0,1-1,.67H62.21a.94.94,0,0,1-1-.88.49.49,0,0,1,0-.12V127a1,1,0,0,1,.06-.48.89.89,0,0,1,.72-.59l-.08.1v-.6a1.63,1.63,0,0,1,.17-.57,1.56,1.56,0,0,1,.91-.7,1.49,1.49,0,0,1,1.65.42,1.46,1.46,0,0,1,.38,1.07c0,.13,0,.27,0,.4a2.6,2.6,0,0,1,0-.4,1.39,1.39,0,0,0-.4-1,1.38,1.38,0,0,0-1.95-.06,1.54,1.54,0,0,0-.27.36,1.16,1.16,0,0,0-.15.5v.68h-.09a.72.72,0,0,0-.56.45,1.05,1.05,0,0,0,0,.43v2.38a.72.72,0,0,0,.36.69.86.86,0,0,0,.39.09h2.17a2.43,2.43,0,0,0,.76,0,.71.71,0,0,0,.43-.48,3.83,3.83,0,0,0,0-.68v-2.22a.8.8,0,0,0-.11-.34A1,1,0,0,0,65,126Z"/><rect class="cls-10" x="55.6" y="151.23" width="91.1" height="13.89" rx="1.14"/><g class="cls-11"><rect x="55.6" y="148.68" width="91.1" height="13.89" rx="1.14"/></g><rect class="cls-12" x="55.6" y="149.3" width="91.1" height="13.89" rx="1.14"/><path class="cls-13" d="M93.45,156.54a1.47,1.47,0,0,1,1.46-1.49H95a1.44,1.44,0,0,1,1.11.46l-.27.26a1.12,1.12,0,1,0-1.63,1.54,1.13,1.13,0,0,0,1.59.05l0-.05.27.26A1.42,1.42,0,0,1,95,158a1.47,1.47,0,0,1-1.53-1.41A.19.19,0,0,1,93.45,156.54Z"/><path class="cls-13" d="M98.64,158l-.63-.9h-.9V158h-.43v-2.91h1.14c.75,0,1.21.38,1.21,1a.92.92,0,0,1-.64.92l.69,1Zm0-1.9c0-.43-.28-.65-.81-.65h-.71v1.31h.71c.52,0,.79-.24.79-.66Z"/><path class="cls-13" d="M101.82,157.64V158H99.71v-2.91h2.05v.36h-1.63v.89h1.46v.35h-1.46v.95Z"/><path class="cls-13" d="M104.35,157.27H102.8l-.32.73h-.42l1.31-2.91h.43l1.32,2.91h-.43Zm-.14-.33-.63-1.43-.63,1.43Z"/><path class="cls-13" d="M106,155.45h-1v-.36h2.41v.36h-1V158H106Z"/><path class="cls-13" d="M109.94,157.64V158h-2.11v-2.91h2v.36h-1.64v.89h1.46v.35h-1.46v.95Z"/></g><g id="freepik--Character--inject-106"><circle class="cls-2" cx="66.81" cy="48.29" r="30.09"/><path class="cls-5" d="M84,7.62a4.32,4.32,0,0,0-.42,4.73,5.83,5.83,0,0,1,1,2.05c.14,1.24-1.06,2.36-.85,3.6.13.86.85,1.44,1.25,2.2a2.91,2.91,0,0,1-.33,3.08c-.55.67-1.41,1.09-1.77,1.89-.26.58-.2,1.28-.42,1.87a2.91,2.91,0,0,1-2.3,1.71,8.59,8.59,0,0,1-3-.17l.22-1.08a2.12,2.12,0,0,1-1.71,1,6.26,6.26,0,0,1-2-.3,10.64,10.64,0,0,1-.23-5.56,14.88,14.88,0,0,1,2.78-4.21,18.75,18.75,0,0,0,2.7-4.9,28.17,28.17,0,0,1,1.47-3.76,4.66,4.66,0,0,1,3-2.49"/><path class="cls-14" d="M103.61,32.89l-6,.43-.06-1.53a3.39,3.39,0,0,1,.51-2.17.93.93,0,0,0,.14-.36,24.1,24.1,0,0,0-.85-3.56c-.29-1,.28-1.53.5-1.12.4.74,1.46,4,1.8,4.27s.14-1.36.14-1.36c-.52-3.54-.75-4-.12-4.18s1.52,5.11,1.52,5.11-.11-.74.46-.89.82.57.82.57c-.07-.37.46-.42.46-.42,1.34.18.64,5.26.64,5.26l-6,.43L94.82,53.28l-3-4.67-7.94,5.67L91,62.83a6.37,6.37,0,0,0,5.1,2.27h0a6.34,6.34,0,0,0,6.1-6Z"/><path class="cls-15" d="M99,33s.3-.31.72-.83a9.28,9.28,0,0,0,.67-1c.11-.2.22-.41.32-.62a1.47,1.47,0,0,0,.21-.65.27.27,0,0,0-.17-.24.6.6,0,0,0-.35.05,3.75,3.75,0,0,0-.66.4,3.92,3.92,0,0,0-.86.91l-.06.1-.06-.1a2.22,2.22,0,0,0-.47-.59,1.13,1.13,0,0,1,.61.54h-.12a3.52,3.52,0,0,1,.85-1,3.87,3.87,0,0,1,.7-.43.72.72,0,0,1,.5-.07.51.51,0,0,1,.33.43,1.58,1.58,0,0,1-.24.78c-.1.21-.22.42-.34.62a6.68,6.68,0,0,1-.72,1A3.62,3.62,0,0,1,99,33Z"/><path class="cls-15" d="M101.31,28.7a5,5,0,0,1,0,1.09c0,.36,0,.76-.06,1.18a3.86,3.86,0,0,0,0,.68c0,.21.2.39.35.3s.23-.34.3-.57.11-.45.16-.67c.09-.42.16-.83.23-1.16a4.31,4.31,0,0,1,.25-1.06,5.67,5.67,0,0,1-.1,1.09c0,.33-.09.73-.18,1.18,0,.21-.09.45-.15.68a1,1,0,0,1-.43.71.41.41,0,0,1-.48-.08.57.57,0,0,1-.18-.39,3.47,3.47,0,0,1,0-.72c0-.42.08-.81.12-1.18A4.93,4.93,0,0,1,101.31,28.7Z"/><path class="cls-15" d="M102.33,30.22s0,.25,0,.63a1.18,1.18,0,0,0,.19.6c.07.07.12.08.19,0a2.64,2.64,0,0,0,.2-.37,12.48,12.48,0,0,0,.63-2.08,4,4,0,0,1-.42,2.18,3.42,3.42,0,0,1-.23.42.35.35,0,0,1-.27.14.36.36,0,0,1-.25-.13,1,1,0,0,1-.16-.39,2,2,0,0,1,0-.34C102.14,30.43,102.29,30.2,102.33,30.22Z"/><path class="cls-16" d="M77.26,67.65l.55,8.65A30.43,30.43,0,0,1,48.3,72l2.53-7.75.43-13.52L48,54.36l-1.54-1.28-7.74-6.45-1.67-1.39,8.06-8.5c10.18-11,18.11-7.61,18.11-7.61l11.91,1.11s8.23,1.17,12.22,8.39c3.25,5.88,6.78,12.1,6.78,12.1L83.93,58l-3.24-6Z"/><path class="cls-14" d="M36.72,48.17c0,.51,0,1,0,1.53a30,30,0,0,0,.81,6v.05c.06.25.13.49.2.73.26.94.61,1.77,1,2.68,0,.11.08.22.13.34,1.08-.28,3.94-3,7.43-6.53l-7.75-6.47A7.76,7.76,0,0,1,36.72,48.17Z"/><path class="cls-14" d="M74.05,31.37c.43-2.95.91-6.05.91-6.05s3.89-.11,5.36-5C81.73,15.74,82.46,4.7,82.46,4.7h0A14.38,14.38,0,0,0,66.11,6.15h0l-3,24a5.2,5.2,0,0,0,4.77,5.65h0A5.47,5.47,0,0,0,74.05,31.37Z"/><path class="cls-5" d="M79.87,13a.64.64,0,0,1-.7.56.62.62,0,0,1-.58-.65v0a.64.64,0,0,1,.7-.55.62.62,0,0,1,.58.65Z"/><path class="cls-5" d="M81,12.47c-.09.07-.52-.35-1.21-.43s-1.23.19-1.28.09.07-.18.31-.31a1.8,1.8,0,0,1,1.05-.17,1.7,1.7,0,0,1,.95.46C81,12.28,81,12.45,81,12.47Z"/><path class="cls-5" d="M72.85,12.2a.64.64,0,0,1-.7.55.6.6,0,0,1-.58-.64v0a.65.65,0,0,1,.7-.56.62.62,0,0,1,.58.66Z"/><path class="cls-5" d="M73.82,11.74c-.09.07-.52-.35-1.2-.43s-1.24.18-1.29.08.07-.18.31-.3a1.75,1.75,0,0,1,1-.18,1.7,1.7,0,0,1,1,.46C73.81,11.54,73.86,11.71,73.82,11.74Z"/><path class="cls-5" d="M75.61,17.15a4.82,4.82,0,0,1,1.14,0c.17,0,.34,0,.39-.12a.88.88,0,0,0,0-.53c-.1-.43-.21-.92-.33-1.4a22.7,22.7,0,0,1-.68-3.65,22.64,22.64,0,0,1,1,3.58c.11.49.22,1,.31,1.41a1.05,1.05,0,0,1,0,.7.43.43,0,0,1-.32.21.76.76,0,0,1-.3,0A4.33,4.33,0,0,1,75.61,17.15Z"/><path class="cls-15" d="M75,25.32a12.67,12.67,0,0,1-6.42-2.69s1.14,3.63,6.17,3.85Z"/><path class="cls-5" d="M77.32,3.17a1.84,1.84,0,0,1-.9,2.14A6.24,6.24,0,0,1,74,6a4.35,4.35,0,0,0-2.34.89c-1.16,1.05-.85,2.56-2,3.94a2.55,2.55,0,0,1-2.47,1A2.37,2.37,0,0,0,64.53,13c-.48,1.09.1,1.89.62,2.88A4,4,0,0,1,65.24,19c-.22.79-.89,1.41-1,2.21-.24,1.28.85,2.71.11,3.76s-2.61.59-3.44,1.57c-.3.35-.47.86-.91,1a1.32,1.32,0,0,1-.8-.14l-3.84-1.63c.09-.4.2-.8.3-1.2a2.57,2.57,0,0,1-3.63.05A2.62,2.62,0,0,1,51.5,24a11.73,11.73,0,0,0,2.22-1.69,3.86,3.86,0,0,0,1.13-2.46c0-1.13-.57-2.27-.23-3.35.49-1.53,2.57-1.92,3.48-3.24s.57-3,1.46-4.23c1-1.42,3.21-1.48,4.39-2.77.8-.86,1-2.14,1.56-3.18A5.86,5.86,0,0,1,68.82.51,12.47,12.47,0,0,1,73,0a6.51,6.51,0,0,1,3.1.62,2.57,2.57,0,0,1,1.41,2.62"/><path class="cls-14" d="M67.16,11.87a3,3,0,0,0-1.61-.11,2,2,0,0,0-1.31.9A2.13,2.13,0,0,0,64,14.24a3.68,3.68,0,0,0,.71,1.46,2.64,2.64,0,0,0,.86.77,1.19,1.19,0,0,0,1.13,0"/><path class="cls-15" d="M66.43,15.05c.06,0-.22.32-.69.12a1,1,0,0,1-.52-.59,2.19,2.19,0,0,1-.14-.92,1.37,1.37,0,0,1,.35-.9.92.92,0,0,1,.75-.31c.5.06.61.43.55.43a1,1,0,0,0-.55-.14.9.9,0,0,0-.69.95,1.56,1.56,0,0,0,.39,1.25C66.16,15.11,66.4,15,66.43,15.05Z"/><path class="cls-5" d="M77.34,3.46a2.49,2.49,0,0,0,1,3,9.18,9.18,0,0,1,1.72.85A2.74,2.74,0,0,1,80.79,9a6.59,6.59,0,0,0,.36,1.87,1.49,1.49,0,0,0,1.5.94l1.08-3.17A6.75,6.75,0,0,0,84.24,5c-.41-1.71-2.1-2.83-3.79-3.3a3.53,3.53,0,0,0-2.4,0,1.57,1.57,0,0,0-.85,2"/><path class="cls-16" d="M56.69,26.29a1.33,1.33,0,0,0,.25-.27,1.92,1.92,0,0,0,.36-1,10.46,10.46,0,0,0-.1-1.68,2.77,2.77,0,0,1,.1-1.07,2.8,2.8,0,0,1,.61-1c.56-.64,1.34-1.14,2-1.82a3,3,0,0,0,.77-1.22,3.53,3.53,0,0,0,0-1.55c-.08-.54-.22-1.08-.28-1.66a3.72,3.72,0,0,1,2.9-4.19c1.26-.28,2.57-.11,3.6-.64A2.55,2.55,0,0,0,68.08,9a12.71,12.71,0,0,0,.55-1.57,5.86,5.86,0,0,1,.62-1.51,2.65,2.65,0,0,1,1.19-1,6.25,6.25,0,0,1,2.71-.29,7.12,7.12,0,0,0,2.21-.13,3.24,3.24,0,0,0,1.45-.77,1.81,1.81,0,0,0,.43-.94c0-.23,0-.37.06-.36a2.29,2.29,0,0,1,0,.37,1.81,1.81,0,0,1-.43,1,3.34,3.34,0,0,1-1.49.83,6.75,6.75,0,0,1-2.24.16,6.24,6.24,0,0,0-2.64.31A2.39,2.39,0,0,0,69.41,6a5.62,5.62,0,0,0-.6,1.46,11.19,11.19,0,0,1-.55,1.6,2.91,2.91,0,0,1-.49.76,2.45,2.45,0,0,1-.72.56c-1.14.57-2.44.39-3.65.66a3.58,3.58,0,0,0-2.56,2.27A3.72,3.72,0,0,0,60.67,15c.07.56.2,1.1.28,1.66a3.74,3.74,0,0,1-.05,1.63,3.12,3.12,0,0,1-.83,1.28c-.71.7-1.49,1.18-2,1.79a2.58,2.58,0,0,0-.7,2,8.16,8.16,0,0,1,.06,1.71,2,2,0,0,1-.4,1A1,1,0,0,1,56.69,26.29Z"/><path class="cls-16" d="M79.62,28.78a2.2,2.2,0,0,0,.2-.23,1.56,1.56,0,0,0,.26-.81c0-.38-.07-.85,0-1.39a3.09,3.09,0,0,1,.75-1.71,4.87,4.87,0,0,0,1.07-1.9,7.59,7.59,0,0,0-.35-2.49,3,3,0,0,1,0-1.43,5.34,5.34,0,0,1,.67-1.3c.27-.42.57-.81.81-1.25a3,3,0,0,0,.43-1.41A2.53,2.53,0,0,0,83,13.48a6,6,0,0,1-.7-1.35,7.63,7.63,0,0,1,0-2.86,5.47,5.47,0,0,0,0-1.28,2.44,2.44,0,0,0-.46-1.1,5.22,5.22,0,0,0-1.74-1.32,9.21,9.21,0,0,1-1.59-1,3.37,3.37,0,0,1-1-1,2,2,0,0,1-.25-.86,1.08,1.08,0,0,1,0-.31,2.33,2.33,0,0,0,0,.31,2,2,0,0,0,.28.81,3.51,3.51,0,0,0,.93,1,9.67,9.67,0,0,0,1.59.92,5.45,5.45,0,0,1,1.82,1.34,2.62,2.62,0,0,1,.51,1.17,5,5,0,0,1,0,1.34,7.87,7.87,0,0,0,0,2.78,5.47,5.47,0,0,0,.69,1.28,2.79,2.79,0,0,1,.51,1.5,3.37,3.37,0,0,1-.46,1.52c-.25.45-.55.85-.82,1.28a4.71,4.71,0,0,0-.65,1.26,2.72,2.72,0,0,0-.06,1.33A7.52,7.52,0,0,1,82,22.79a3.05,3.05,0,0,1-.48,1.09,10.69,10.69,0,0,1-.64.86,3.06,3.06,0,0,0-.76,1.61c0,.53,0,1,0,1.4a1.53,1.53,0,0,1-.31.82A.63.63,0,0,1,79.62,28.78Z"/><path class="cls-16" d="M52.33,24.28a3.9,3.9,0,0,1,.4,0,2.74,2.74,0,0,0,1.13-.21A3.29,3.29,0,0,0,55.28,23a4.63,4.63,0,0,0,.77-2.27,26.52,26.52,0,0,0-.15-3,3.17,3.17,0,0,1,.36-1.65,4,4,0,0,1,1.35-1.17,2.88,2.88,0,0,0,1.24-1.25,5.6,5.6,0,0,0,.28-1.86,5.45,5.45,0,0,1,.38-2,2.86,2.86,0,0,1,.58-.88,1.94,1.94,0,0,1,1-.46c.71-.12,1.4-.05,2.06-.12a2.73,2.73,0,0,0,1.71-.77,5.49,5.49,0,0,0,1.08-1.54c.29-.56.51-1.13.79-1.68a6.59,6.59,0,0,1,1-1.5,2.76,2.76,0,0,1,3-1A9.58,9.58,0,0,1,72,2.43a6.65,6.65,0,0,0,2.3.73,4.39,4.39,0,0,0,1.8-.28,5.26,5.26,0,0,0,1.37-.76,2,2,0,0,1-.31.27,4,4,0,0,1-1,.57,4.24,4.24,0,0,1-1.83.32,6.28,6.28,0,0,1-2.36-.71,8.14,8.14,0,0,0-1.33-.48,2.66,2.66,0,0,0-1.48,0,3.06,3.06,0,0,0-1.31.9,6.6,6.6,0,0,0-.92,1.47A10.76,10.76,0,0,1,65,7.74a3.28,3.28,0,0,1-.85.58,3.19,3.19,0,0,1-1,.25c-.68.07-1.38,0-2,.12a1.71,1.71,0,0,0-.86.4,2.82,2.82,0,0,0-.53.82,5.63,5.63,0,0,0-.36,1.91,5.77,5.77,0,0,1-.3,1.93,3.05,3.05,0,0,1-1.33,1.33,3.87,3.87,0,0,0-1.28,1.1,3,3,0,0,0-.34,1.55,28.39,28.39,0,0,1,.12,3A4.67,4.67,0,0,1,55.39,23a3.32,3.32,0,0,1-1.48,1.14,2.7,2.7,0,0,1-1.16.19A1.43,1.43,0,0,1,52.33,24.28Z"/><path class="cls-16" d="M83.76,8a3.3,3.3,0,0,0-.36-1.23,3.49,3.49,0,0,0-.91-1A6.88,6.88,0,0,0,81,4.85c-.56-.26-1.11-.49-1.59-.76a5.8,5.8,0,0,1-1.18-.85,3,3,0,0,1-.58-.79.66.66,0,0,1-.12-.33,4.61,4.61,0,0,0,.81,1,6.07,6.07,0,0,0,1.17.77c.47.25,1,.47,1.58.73a7,7,0,0,1,1.52.91,3.45,3.45,0,0,1,.92,1.13,2.45,2.45,0,0,1,.26,1A.92.92,0,0,1,83.76,8Z"/><path class="cls-5" d="M74.1,10c0,.06-.19,0-.43-.07a4.42,4.42,0,0,0-1-.11,4.57,4.57,0,0,0-1,.1c-.24.06-.39.12-.42.08s.05-.22.31-.37a2.39,2.39,0,0,1,2.18,0C74,9.82,74.12,10,74.1,10Z"/><path class="cls-5" d="M80.33,10.88c0,.12-.47.15-1,.08s-1-.22-1-.37.46-.15,1-.07S80.34,10.76,80.33,10.88Z"/><path class="cls-5" d="M65.36,16.33a.59.59,0,0,1,.1.11,1.74,1.74,0,0,1,.24.36,2.64,2.64,0,0,1,.18,1.57,7.19,7.19,0,0,1-.76,2.2,2,2,0,0,0-.19,1.29,6,6,0,0,0,.62,1.3,2.31,2.31,0,0,1-.28,2.76,2.12,2.12,0,0,1-1.09.67,6.73,6.73,0,0,1-1.09.12,2.78,2.78,0,0,0-1.47.38,1.85,1.85,0,0,0-.4.39.29.29,0,0,1,.06-.14,1.1,1.1,0,0,1,.29-.32,2.65,2.65,0,0,1,1.49-.46,6.28,6.28,0,0,0,1.06-.14,1.93,1.93,0,0,0,1-.63,2.24,2.24,0,0,0,.53-1.18,2.21,2.21,0,0,0-.3-1.35,6.26,6.26,0,0,1-.62-1.37,2.17,2.17,0,0,1,.21-1.39c.19-.43.39-.77.51-1.13a5.26,5.26,0,0,0,.29-1,2.65,2.65,0,0,0-.11-1.5C65.48,16.5,65.34,16.34,65.36,16.33Z"/><path class="cls-5" d="M85.22,27.84a.52.52,0,0,1-.27.05,1,1,0,0,1-.71-.35,1.39,1.39,0,0,1-.35-1.2,3,3,0,0,1,.83-1.45A8.33,8.33,0,0,0,86,23.39a2,2,0,0,0,.24-1A3.27,3.27,0,0,0,86,21.25a22.14,22.14,0,0,1-1-2.34,2.49,2.49,0,0,1,0-1.38,6.41,6.41,0,0,1,.64-1.25A1.77,1.77,0,0,0,85.86,15,2.21,2.21,0,0,0,85.2,14c-.29-.32-.62-.61-.89-.95a2.87,2.87,0,0,1-.58-1.14,5.1,5.1,0,0,1,0-2.33c.15-.71.36-1.35.49-1.94a4.45,4.45,0,0,0-.14-2.84,3,3,0,0,0-.6-.86l.06,0a.64.64,0,0,1,.15.13,2.17,2.17,0,0,1,.47.69A3.39,3.39,0,0,1,84.51,6a5.82,5.82,0,0,1-.12,1.66c-.13.6-.32,1.25-.46,2a5,5,0,0,0,0,2.24,2.55,2.55,0,0,0,.53,1c.26.32.59.61.89.94A2.5,2.5,0,0,1,86.08,15a2,2,0,0,1-.3,1.4,7,7,0,0,0-.63,1.21,2.15,2.15,0,0,0,0,1.28,21.62,21.62,0,0,0,1,2.32,3.39,3.39,0,0,1,.27,1.18,2.1,2.1,0,0,1-.28,1.12A7.68,7.68,0,0,1,84.81,25,2.94,2.94,0,0,0,84,26.36a1.3,1.3,0,0,0,.3,1.12,1,1,0,0,0,.64.38C85.13,27.84,85.22,27.82,85.22,27.84Z"/><path class="cls-15" d="M102,33.61a7.28,7.28,0,0,0-.92-1A8.24,8.24,0,0,0,99.87,32a1.82,1.82,0,0,1,1.34.46A1.79,1.79,0,0,1,102,33.61Z"/><path class="cls-15" d="M95.63,57.05A6.37,6.37,0,0,1,95,55.11a6,6,0,0,1-.19-2,16.53,16.53,0,0,1,.4,2A17.14,17.14,0,0,1,95.63,57.05Z"/><path class="cls-13" d="M68.35,52.25a4.06,4.06,0,0,0,2.76-3.49,3.78,3.78,0,1,0-7.5-.78,4,4,0,0,0,2,4,6.06,6.06,0,0,0-5.52,3.9A8.55,8.55,0,0,0,65,59.23l2.31.24a8.47,8.47,0,0,0,5.56-2.33A6,6,0,0,0,68.35,52.25Z"/><g class="cls-11"><path d="M51.29,50.76l1.9-2S52.37,63,51.81,64.66,48.32,72,48.32,72l2.53-7.75Z"/></g><path class="cls-5" d="M55.5,46.4s-1.63,1.85-3.73,4-3.85,3.93-3.9,3.89,1.63-1.85,3.74-4S55.46,46.35,55.5,46.4Z"/><path class="cls-5" d="M82.05,45.29a3.1,3.1,0,0,1,0,.43c0,.28-.08.69-.15,1.2-.13,1-.36,2.4-.68,3.93s-.66,2.89-.94,3.87c-.14.5-.26.89-.35,1.16a2,2,0,0,1-.16.43,2.14,2.14,0,0,1,.07-.43c.08-.32.17-.71.29-1.17.23-1,.56-2.36.87-3.88s.57-2.91.75-3.91c.08-.46.15-.86.21-1.19A1.36,1.36,0,0,1,82.05,45.29Z"/><path class="cls-8" d="M73.44,18.31a.91.91,0,0,1,1.18,1.38.71.71,0,0,1-.14.1.92.92,0,0,1-.87-1.62.42.42,0,0,1,.14-.06"/><path class="cls-5" d="M73.53,17.35c.11,0,0,.75.57,1.37s1.37.64,1.36.74-.2.12-.53.09A1.86,1.86,0,0,1,73.79,19a1.58,1.58,0,0,1-.43-1.13C73.37,17.51,73.48,17.34,73.53,17.35Z"/><path class="cls-5" d="M64,6.27A4.27,4.27,0,0,0,65,4.17a2.28,2.28,0,0,0-2-2.26A2.39,2.39,0,0,0,60.5,3.66a2.56,2.56,0,0,0,1.28,2.79A2.71,2.71,0,0,0,64.84,6"/><path class="cls-16" d="M65,4.05a2.31,2.31,0,0,1-.43,1.57,2.31,2.31,0,0,1-1.26,1A7.83,7.83,0,0,0,64.4,5.5,8.11,8.11,0,0,0,65,4.05Z"/><path class="cls-16" d="M63.7,6.46a8.71,8.71,0,0,0-.28-2.38,9.13,9.13,0,0,0-1.13-2.14,2.36,2.36,0,0,1,.52.5A4.63,4.63,0,0,1,63.63,4a4.65,4.65,0,0,1,.21,1.74A1.67,1.67,0,0,1,63.7,6.46Z"/></g><g id="freepik--Icon--inject-106"><circle class="cls-17" cx="78.78" cy="73.83" r="10.86"/><g class="cls-11"><circle cx="78.78" cy="73.83" r="10.86"/></g><circle class="cls-12" cx="78.78" cy="71.82" r="10.86"/><path class="cls-13" d="M78.78,78.24c-.31,0-.56-2.88-.56-6.42s.25-6.41.56-6.41.56,2.88.56,6.41S79.08,78.24,78.78,78.24Z"/><path class="cls-13" d="M85.22,71.82c0,.3-2.87.55-6.42.55s-6.41-.25-6.41-.55,2.87-.56,6.41-.56S85.22,71.51,85.22,71.82Z"/></g><path class="cls-18" d="M104.79,69.75h-1.45l-.25.71h-.59L103.74,67h.66l1.24,3.48H105Zm-.16-.46-.56-1.62-.57,1.62Z"/><path class="cls-18" d="M106.17,68.34a1.24,1.24,0,0,1,.46-.5,1.29,1.29,0,0,1,1.2-.06,1.09,1.09,0,0,1,.41.31V66.76h.58v3.7h-.58V70a.94.94,0,0,1-.38.33,1.2,1.2,0,0,1-.57.13,1.22,1.22,0,0,1-1.12-.69,1.5,1.5,0,0,1-.18-.74A1.44,1.44,0,0,1,106.17,68.34Zm2,.25a.8.8,0,0,0-.31-.32.74.74,0,0,0-.41-.11.83.83,0,0,0-.41.1,1,1,0,0,0-.31.32,1.07,1.07,0,0,0-.11.49,1.12,1.12,0,0,0,.11.5,1,1,0,0,0,.31.33.87.87,0,0,0,.41.11.84.84,0,0,0,.41-.11.8.8,0,0,0,.31-.32,1,1,0,0,0,.11-.5A1,1,0,0,0,108.13,68.59Z"/><path class="cls-18" d="M109.55,68.34a1.26,1.26,0,0,1,1.13-.68,1.24,1.24,0,0,1,.53.12,1,1,0,0,1,.42.31V66.76h.57v3.7h-.57V70a.91.91,0,0,1-.39.33,1.13,1.13,0,0,1-.56.13,1.26,1.26,0,0,1-.66-.18,1.29,1.29,0,0,1-.47-.51,1.61,1.61,0,0,1-.17-.74A1.54,1.54,0,0,1,109.55,68.34Zm2,.25a.85.85,0,0,0-.3-.32.77.77,0,0,0-.41-.11.8.8,0,0,0-.41.1.87.87,0,0,0-.31.32,1,1,0,0,0-.12.49,1,1,0,0,0,.12.5.9.9,0,0,0,.31.33.84.84,0,0,0,.41.11.87.87,0,0,0,.41-.11.85.85,0,0,0,.3-.32,1,1,0,0,0,.12-.5A1,1,0,0,0,111.51,68.59Z"/><path class="cls-18" d="M114.82,67.45v1H116v.46h-1.2V70h1.35v.47h-1.92V67h1.92v.47Z"/><path class="cls-18" d="M120.78,67.8a.91.91,0,0,1,.4.4,1.26,1.26,0,0,1,.15.64v1.62h-.56V68.92a.79.79,0,0,0-.19-.57.65.65,0,0,0-.5-.19.69.69,0,0,0-.51.19.83.83,0,0,0-.19.57v1.54h-.56V68.92a.83.83,0,0,0-.18-.57.78.78,0,0,0-1,0,.83.83,0,0,0-.18.57v1.54h-.57V67.71h.57V68a.92.92,0,0,1,.35-.26,1.06,1.06,0,0,1,.46-.1,1.25,1.25,0,0,1,.59.14,1,1,0,0,1,.4.41.89.89,0,0,1,.39-.4,1.16,1.16,0,0,1,.57-.15A1.21,1.21,0,0,1,120.78,67.8Z"/><path class="cls-18" d="M123,67.79a1.28,1.28,0,0,1,.56-.13,1.26,1.26,0,0,1,1.13.68,1.54,1.54,0,0,1,.17.73,1.61,1.61,0,0,1-.17.74,1.29,1.29,0,0,1-.47.51,1.26,1.26,0,0,1-.66.18,1.2,1.2,0,0,1-.55-.12,1.18,1.18,0,0,1-.4-.32v1.71h-.57V67.71h.57v.4A1.16,1.16,0,0,1,123,67.79Zm1.16.79a.87.87,0,0,0-.31-.32.83.83,0,0,0-.41-.1.77.77,0,0,0-.41.11.8.8,0,0,0-.31.32,1.07,1.07,0,0,0-.11.49,1.12,1.12,0,0,0,.11.5.8.8,0,0,0,.31.32.87.87,0,0,0,.41.11.84.84,0,0,0,.41-.11.9.9,0,0,0,.31-.33,1,1,0,0,0,.12-.5A1,1,0,0,0,124.18,68.58Z"/><path class="cls-18" d="M126,66.76v3.7h-.57v-3.7Z"/><path class="cls-18" d="M127.25,70.33a1.31,1.31,0,0,1-.49-.5,1.54,1.54,0,0,1-.18-.75,1.47,1.47,0,0,1,.18-.74,1.2,1.2,0,0,1,.5-.5,1.48,1.48,0,0,1,.72-.18,1.41,1.41,0,0,1,.71.18,1.23,1.23,0,0,1,.51.5,1.47,1.47,0,0,1,.18.74,1.38,1.38,0,0,1-.19.74,1.32,1.32,0,0,1-.51.51,1.6,1.6,0,0,1-.73.17A1.48,1.48,0,0,1,127.25,70.33Zm1.12-.43a.84.84,0,0,0,.31-.31,1.14,1.14,0,0,0,0-1,.81.81,0,0,0-.3-.31.89.89,0,0,0-.82,0,.89.89,0,0,0-.3.31,1.13,1.13,0,0,0-.11.51,1,1,0,0,0,.23.69A.75.75,0,0,0,128,70,.88.88,0,0,0,128.37,69.9Z"/><path class="cls-18" d="M132.42,67.71l-1.68,4h-.59l.55-1.34-1.08-2.7h.64L131,69.8l.8-2.09Z"/><path class="cls-18" d="M135.35,69.29h-2.1a.76.76,0,0,0,.25.53.72.72,0,0,0,.54.2.64.64,0,0,0,.64-.38h.62a1.27,1.27,0,0,1-.45.62,1.34,1.34,0,0,1-.81.24,1.49,1.49,0,0,1-.71-.17,1.31,1.31,0,0,1-.49-.5,1.54,1.54,0,0,1-.18-.75,1.66,1.66,0,0,1,.17-.75,1.22,1.22,0,0,1,.49-.49,1.51,1.51,0,0,1,1.41,0,1.21,1.21,0,0,1,.47.48,1.36,1.36,0,0,1,.17.71A1.14,1.14,0,0,1,135.35,69.29Zm-.57-.45a.65.65,0,0,0-.23-.51.76.76,0,0,0-.54-.19.69.69,0,0,0-.5.19.74.74,0,0,0-.25.51Z"/><path class="cls-18" d="M138.43,69.29h-2.1a.76.76,0,0,0,.25.53.72.72,0,0,0,.54.2.67.67,0,0,0,.65-.38h.61a1.21,1.21,0,0,1-.45.62,1.34,1.34,0,0,1-.81.24,1.49,1.49,0,0,1-.71-.17,1.31,1.31,0,0,1-.49-.5,1.65,1.65,0,0,1,0-1.5,1.14,1.14,0,0,1,.48-.49,1.43,1.43,0,0,1,.72-.18,1.41,1.41,0,0,1,.69.17,1.21,1.21,0,0,1,.47.48,1.36,1.36,0,0,1,.17.71A1.14,1.14,0,0,1,138.43,69.29Zm-.57-.45a.67.67,0,0,0-.22-.51.8.8,0,0,0-.55-.19.69.69,0,0,0-.5.19.74.74,0,0,0-.25.51Z"/></g></g></svg>