<svg xmlns="http://www.w3.org/2000/svg" xmlns:xlink="http://www.w3.org/1999/xlink" viewBox="0 0 197.74 200.4"><defs><style>.cls-1{fill:#f5f5f5;}.cls-2{fill:#020202;}.cls-3{fill:#d8d0c7;}.cls-4{fill:#d2f1bb;}.cls-5{fill:#f9f9f9;}.cls-6{fill:#fff;}.cls-7{fill:#065851;}.cls-8{fill:#e2e2e2;}.cls-9{fill:#e0e0e0;}.cls-10{fill:url(#linear-gradient);}.cls-11{fill:url(#linear-gradient-2);}.cls-12{fill:url(#linear-gradient-3);}.cls-13{fill:#263238;}.cls-14{fill:#2b6baa;}.cls-15{fill:url(#linear-gradient-4);}.cls-16{opacity:0.3;}.cls-17{fill:url(#linear-gradient-5);}.cls-18{fill:url(#linear-gradient-6);}.cls-19{fill:url(#linear-gradient-7);}.cls-20{fill:url(#linear-gradient-8);}.cls-21{fill:url(#linear-gradient-9);}.cls-22{fill:url(#linear-gradient-10);}.cls-23{fill:#2626bb;}.cls-24{fill:#4369fc;}.cls-25{fill:#849afd;}.cls-26{fill:#8399fd;}.cls-27{fill:#8398fd;}.cls-28{fill:#8499fd;}.cls-29{fill:#04eba5;}.cls-30{fill:#03eba5;}.cls-31{fill:#02eba5;}.cls-32{fill:#07eca6;}.cls-33{fill:#07eca7;}.cls-34{fill:#06eba6;}.cls-35{fill:#cdeceb;}.cls-36{fill:#01eba4;}.cls-37{fill:#6582fc;}.cls-38{fill:#fefefe;}.cls-39{fill:#11ecaa;}</style><linearGradient id="linear-gradient" x1="161.86" y1="42.46" x2="170.27" y2="42.46" gradientUnits="userSpaceOnUse"><stop offset="0.09" stop-color="#f9bd46"/><stop offset="0.91" stop-color="#fd8259"/></linearGradient><linearGradient id="linear-gradient-2" x1="170.84" y1="42.46" x2="178.29" y2="42.46" xlink:href="#linear-gradient"/><linearGradient id="linear-gradient-3" x1="178.87" y1="42.46" x2="185.12" y2="42.46" xlink:href="#linear-gradient"/><linearGradient id="linear-gradient-4" x1="5.28" y1="96.74" x2="26.61" y2="96.74" xlink:href="#linear-gradient"/><linearGradient id="linear-gradient-5" x1="11.17" y1="15.96" x2="16.69" y2="15.96" xlink:href="#linear-gradient"/><linearGradient id="linear-gradient-6" x1="17.2" y1="15.96" x2="22.72" y2="15.96" xlink:href="#linear-gradient"/><linearGradient id="linear-gradient-7" x1="10.19" y1="26.43" x2="16.32" y2="26.43" xlink:href="#linear-gradient"/><linearGradient id="linear-gradient-8" x1="17.56" y1="26.43" x2="23.69" y2="26.43" xlink:href="#linear-gradient"/><linearGradient id="linear-gradient-9" x1="9.35" y1="20.2" x2="16.32" y2="20.2" xlink:href="#linear-gradient"/><linearGradient id="linear-gradient-10" x1="17.56" y1="20.2" x2="24.52" y2="20.2" xlink:href="#linear-gradient"/></defs><g id="Layer_2" data-name="Layer 2"><g id="Layer_1-2" data-name="Layer 1"><g id="freepik--Shadow--inject-1"><ellipse id="freepik--path--inject-1" class="cls-1" cx="98.87" cy="193.54" rx="98.87" ry="6.86"/></g><path class="cls-2" d="M125.21,193.2l-59.3-.28a12.91,12.91,0,0,1-12.83-13L53.71,31.3A12.91,12.91,0,0,1,66.66,18.44l59.3.27a12.92,12.92,0,0,1,12.83,13l-.61,148.65A12.93,12.93,0,0,1,125.21,193.2Z"/><path class="cls-3" d="M125.85,23.84l-11.49-.05a2.86,2.86,0,0,0-2.81,2.9h0v2.09a2.84,2.84,0,0,1-2.8,2.9h0l-22.41-.1a2.86,2.86,0,0,1-2.78-2.93V26.57a2.87,2.87,0,0,0-2.78-2.94h-4l-10.06,0a9,9,0,0,0-9.09,9L57,177.69a9.06,9.06,0,0,0,9,9.09l59.18.27a9,9,0,0,0,9.08-9h0L134.85,33a9,9,0,0,0-9-9.11Z"/><path class="cls-3" d="M92.38,173.14a1.23,1.23,0,1,1-1.4-1l.19,0A1.15,1.15,0,0,1,92.38,173.14Z"/><path class="cls-3" d="M96.17,173.16a1.24,1.24,0,1,1-1.41-1H95A1.15,1.15,0,0,1,96.17,173.16Z"/><path class="cls-3" d="M100,173.17a1.24,1.24,0,0,1-2.45.37,1.25,1.25,0,0,1,1-1.41h.19A1.15,1.15,0,0,1,100,173.17Z"/><path class="cls-3" d="M75.3,93.79c1,.14,59.13,11.55,59.13,11.55V93.79Z"/><path class="cls-3" d="M57,167.1s63.27-8.95,62.72-8.68-62.72,0-62.72,0Z"/><path class="cls-4" d="M79.64,49.26H129.7a2.59,2.59,0,0,1,2.59,2.59v28.8a0,0,0,0,1,0,0H79.64a2.59,2.59,0,0,1-2.59-2.59V51.85A2.59,2.59,0,0,1,79.64,49.26Z"/><path class="cls-4" d="M79.64,115.79H129.7a2.59,2.59,0,0,1,2.59,2.59v16.24a0,0,0,0,1,0,0H79.64A2.59,2.59,0,0,1,77.06,132V118.38A2.59,2.59,0,0,1,79.64,115.79Z"/><path class="cls-5" d="M65.83,86.92h52.65a0,0,0,0,1,0,0v17.5a2.59,2.59,0,0,1-2.59,2.59H65.83a2.59,2.59,0,0,1-2.59-2.59V89.51A2.59,2.59,0,0,1,65.83,86.92Z" transform="translate(181.73 193.93) rotate(180)"/><path class="cls-5" d="M65.83,140.9h52.65a0,0,0,0,1,0,0v21.27a2.59,2.59,0,0,1-2.59,2.59H65.83a2.59,2.59,0,0,1-2.59-2.59V143.48A2.59,2.59,0,0,1,65.83,140.9Z" transform="translate(181.73 305.65) rotate(180)"/><rect class="cls-6" x="61.99" y="171.03" width="57.74" height="10.04" rx="4"/><path class="cls-7" d="M134.74,44.24,134.85,29c0-2.89-4-5.24-9-5.26h0l-11.49,0c-1.58,0-2.84.77-2.81,1.68h0v1.21c0,.91-1.22,1.66-2.8,1.68h0l-22.41-.06c-1.57,0-2.82-.78-2.78-1.69V25.31c0-.91-1.2-1.67-2.78-1.7h-4l-10.06,0c-5,0-9.07,2.32-9.09,5.21l-.11,15.44Z"/><circle class="cls-7" cx="127.27" cy="176.05" r="5.02"/><polygon class="cls-5" points="129.45 176.07 125.38 173.72 127.36 176.04 125.38 178.42 129.45 176.07"/><rect class="cls-5" x="84.59" y="59.93" width="45.19" height="3.01" rx="1.2"/><rect class="cls-5" x="84.59" y="66.96" width="45.19" height="3.01" rx="1.2"/><rect class="cls-5" x="84.59" y="121.44" width="45.19" height="3.01" rx="1.2"/><rect class="cls-5" x="84.59" y="127.22" width="45.19" height="3.01" rx="1.2"/><rect class="cls-8" x="70.78" y="91.32" width="45.19" height="3.01" rx="1.2"/><rect class="cls-8" x="70.78" y="98.35" width="45.19" height="3.01" rx="1.2"/><rect class="cls-8" x="67.01" y="147.8" width="45.19" height="3.01" rx="1.2"/><rect class="cls-8" x="67.01" y="154.83" width="45.19" height="3.01" rx="1.2"/><polygon class="cls-1" points="150.89 18.55 150.89 60.11 150.89 68.45 158.93 60.11 197.04 60.11 197.04 18.55 150.89 18.55"/><path class="cls-9" d="M196.8,26.44c0,.07-10.17.13-22.72.13s-22.72-.06-22.72-.13,10.17-.12,22.72-.12S196.8,26.38,196.8,26.44Z"/><path class="cls-9" d="M156,23.35a1.15,1.15,0,1,1-1.15-1.14h0A1.15,1.15,0,0,1,156,23.35Z"/><path class="cls-9" d="M159.42,23.35a1.15,1.15,0,1,1-1.14-1.15h0A1.15,1.15,0,0,1,159.42,23.35Z"/><path class="cls-9" d="M162.8,23.35a1.14,1.14,0,1,1-1.14-1.14A1.14,1.14,0,0,1,162.8,23.35Z"/><path class="cls-10" d="M167.57,44.67h-3.06l-.56,1.4h-2.09l3.19-7.22h2l3.2,7.22h-2.13Zm-.6-1.51L166,40.85l-.93,2.31Z"/><path class="cls-11" d="M170.84,38.85h3.41c2.4,0,4,1.39,4,3.61s-1.64,3.61-4,3.61h-3.41Zm3.33,5.59a2,2,0,1,0,0-4h-1.3v4Z"/><path class="cls-12" d="M178.87,45.42l.67-1.51a4.49,4.49,0,0,0,2.39.71c.84,0,1.18-.23,1.18-.58,0-1.15-4.12-.31-4.12-3,0-1.3,1.06-2.35,3.21-2.35a5.46,5.46,0,0,1,2.62.64l-.63,1.52a4.27,4.27,0,0,0-2-.56c-.86,0-1.16.29-1.16.65,0,1.1,4.1.28,4.1,2.94,0,1.26-1.05,2.34-3.2,2.34A5.73,5.73,0,0,1,178.87,45.42Z"/><polygon class="cls-1" points="148.84 96.97 148.84 125.19 148.84 130.86 154.3 125.19 180.19 125.19 180.19 96.97 148.84 96.97"/><path class="cls-9" d="M180,102.32c0,.05-6.91.09-15.43.09s-15.43,0-15.43-.09,6.91-.08,15.43-.08S180,102.28,180,102.32Z"/><path class="cls-9" d="M152.34,100.22a.78.78,0,0,1-.78.78.78.78,0,1,1,0-1.55h0A.78.78,0,0,1,152.34,100.22Z"/><path class="cls-9" d="M154.63,100.22a.78.78,0,1,1-.77-.78h0A.78.78,0,0,1,154.63,100.22Z"/><path class="cls-9" d="M156.93,100.22a.78.78,0,1,1-1.55,0,.78.78,0,0,1,1.55,0Z"/><polygon class="cls-6" points="33.53 108.93 33.5 108.93 33.5 82.63 0.75 82.63 0.75 109.01 29.26 109.01 33.53 113.28 33.53 108.93"/><path class="cls-13" d="M33.58,85.57s-7.35,0-16.42,0-16.41,0-16.41,0,7.35,0,16.41,0S33.58,85.54,33.58,85.57Z"/><path class="cls-9" d="M2.66,84.14a.42.42,0,0,1-.42.42.42.42,0,0,1,0-.83h0A.42.42,0,0,1,2.66,84.14Z"/><path class="cls-9" d="M3.88,84.14a.41.41,0,0,1-.41.42.42.42,0,0,1-.42-.41.41.41,0,0,1,.41-.42h0A.41.41,0,0,1,3.88,84.14Z"/><circle class="cls-9" cx="4.69" cy="84.14" r="0.41"/><circle class="cls-14" cx="33.85" cy="83.99" r="4.34"/><polygon class="cls-15" points="15.95 86.18 18.37 88.69 21.77 87.89 22.46 91.31 25.74 92.48 24.48 95.73 26.61 98.49 23.78 100.53 24.09 104.01 20.6 104.21 18.98 107.29 15.95 105.57 12.91 107.29 11.28 104.21 7.8 104.01 8.1 100.53 5.28 98.49 7.41 95.73 6.14 92.48 9.43 91.31 10.12 87.89 13.52 88.69 15.95 86.18"/><g class="cls-16"><path d="M14.61,94c0-.71-.25-.9-.64-.9s-.64.22-.64.78v.5H12.16v-.43c0-1.26.63-2,1.84-2s1.85.72,1.85,2v.2A1.52,1.52,0,0,1,15,95.75a1.61,1.61,0,0,1,.88,1.65V98c0,1.26-.63,2-1.85,2s-1.84-.72-1.84-2v-.65h1.17v.73c0,.56.25.78.64.78s.64-.19.64-.89v-.62c0-.73-.25-1-.81-1h-.42V95.24h.49c.46,0,.74-.2.74-.83Z"/><path d="M16.58,93.94a1.74,1.74,0,0,1,1.88-2,1.75,1.75,0,0,1,1.88,2V98a1.75,1.75,0,0,1-1.88,2,1.74,1.74,0,0,1-1.88-2Zm1.24,4.17c0,.56.24.78.64.78s.64-.22.64-.78V93.86c0-.56-.25-.78-.64-.78s-.64.22-.64.78Z"/></g><g class="cls-16"><path d="M20.66,92a.34.34,0,0,1,.28-.38.34.34,0,0,1,.38.28.17.17,0,0,1,0,.1v.72a.33.33,0,0,1-.27.38.33.33,0,0,1-.39-.27V92Zm.22.74c0,.09,0,.13.11.13s.12,0,.12-.13V92c0-.1-.05-.14-.12-.14s-.11,0-.11.14Zm1-1.07h.2l-.87,2.18H21Zm-.11,1.13A.33.33,0,0,1,22,92.4a.34.34,0,0,1,.38.28.17.17,0,0,1,0,.1v.72a.33.33,0,1,1-.65.11.2.2,0,0,1,0-.11Zm.21.74c0,.09,0,.13.12.13s.11,0,.11-.13v-.75c0-.1,0-.14-.11-.14s-.12,0-.12.14Z"/></g><g class="cls-16"><path d="M13.71,100.41c.49,0,.74.29.74.81v.1H14v-.14c0-.22-.09-.31-.25-.31s-.25.08-.25.31c0,.66,1,.79,1,1.71a.76.76,0,1,1-1.51,0v-.2h.48v.22c0,.23.1.31.26.31s.26-.08.26-.31c0-.65-1-.79-1-1.71A.69.69,0,0,1,13.71,100.41Z"/><path d="M16.38,103.66h-.51l-.08-.58h-.63l-.09.58h-.46l.52-3.22h.74Zm-1.15-1h.49L15.47,101Z"/><path d="M16.62,100.44h.5v2.76H18v.46H16.62Z"/><path d="M18.68,101.8h.7v.46h-.7v.94h.87v.46H18.18v-3.22h1.37v.46h-.87Z"/></g><path class="cls-6" d="M14.15,94.21c0-.71-.25-.9-.64-.9s-.64.22-.64.78v.5H11.7v-.43c0-1.26.63-2,1.84-2s1.85.72,1.85,2v.2A1.53,1.53,0,0,1,14.51,96a1.61,1.61,0,0,1,.88,1.65v.62c0,1.26-.63,2-1.85,2s-1.84-.72-1.84-2V97.6h1.17v.73c0,.56.24.77.64.77s.64-.19.64-.89V97.6c0-.74-.25-1-.81-1h-.42V95.47h.49c.46,0,.75-.2.75-.83Z"/><path class="cls-6" d="M16.12,94.16a1.74,1.74,0,0,1,1.88-2,1.74,1.74,0,0,1,1.88,2v4.1a1.75,1.75,0,0,1-1.88,2,1.74,1.74,0,0,1-1.88-2Zm1.24,4.18c0,.56.24.77.64.77s.64-.21.64-.77V94.09c0-.57-.25-.78-.64-.78s-.64.22-.64.78Z"/><path class="cls-6" d="M20.2,92a.33.33,0,1,1,.66-.1v.82a.34.34,0,0,1-.28.38.33.33,0,0,1-.38-.27V92Zm.22.74c0,.09,0,.13.11.13a.11.11,0,0,0,.12-.13V92c0-.1,0-.14-.12-.14s-.11,0-.11.14Zm1-1.07h.21l-.88,2.18h-.2Zm-.11,1.13a.33.33,0,0,1,.66-.1v.82a.33.33,0,0,1-.27.38.33.33,0,0,1-.39-.27v-.83Zm.22.74c0,.09,0,.13.11.13s.12,0,.12-.13v-.75c0-.1-.05-.14-.12-.14s-.11,0-.11.14Z"/><path class="cls-6" d="M13.24,100.41c.5,0,.75.29.75.81v.1h-.48v-.14c0-.22-.09-.31-.25-.31s-.26.08-.26.31c0,.66,1,.79,1,1.71,0,.51-.25.81-.75.81a.71.71,0,0,1-.75-.81v-.2H13v.22c0,.23.11.31.27.31s.26-.08.26-.31c0-.65-1-.79-1-1.71A.69.69,0,0,1,13.24,100.41Z"/><path class="cls-6" d="M15.92,103.66h-.51l-.09-.58H14.7l-.09.58h-.46l.51-3.22h.75Zm-1.15-1h.48L15,101Z"/><path class="cls-6" d="M16.15,100.44h.51v2.76h.83v.46H16.15Z"/><path class="cls-6" d="M18.21,101.8h.69v.46h-.69v.94h.87v.46H17.71v-3.22h1.37v.46h-.87Z"/><polygon class="cls-6" points="0.55 4.42 0.55 34.24 28.14 34.24 34.1 38.79 34.1 34.24 34.1 33.07 34.1 4.42 0.55 4.42"/><path class="cls-13" d="M33.61,10.27c0,.05-7.4.09-16.52.09S.57,10.32.57,10.27s7.4-.09,16.52-.09S33.61,10.22,33.61,10.27Z"/><path class="cls-9" d="M4,8a.84.84,0,0,1-.84.83.83.83,0,1,1,0-1.66h0A.83.83,0,0,1,4,8Z"/><path class="cls-9" d="M6.44,8a.83.83,0,1,1-.83-.83h0A.83.83,0,0,1,6.44,8Z"/><path class="cls-9" d="M8.91,8a.84.84,0,0,1-.84.83.83.83,0,0,1,0-1.66A.84.84,0,0,1,8.91,8Z"/><circle class="cls-14" cx="33.61" cy="4.53" r="4.53"/><rect class="cls-6" x="31.57" y="4.08" width="4.09" height="0.91" transform="translate(6.64 25.09) rotate(-45)"/><rect class="cls-6" x="33.15" y="2.49" width="0.91" height="4.09" transform="translate(6.64 25.09) rotate(-45)"/><path class="cls-17" d="M13.21,14.15l.36.07a6.1,6.1,0,0,1,2.74,1.52,1.56,1.56,0,0,1,.23.28.8.8,0,0,1-.14,1.09,2.26,2.26,0,0,1-.85.42,5.6,5.6,0,0,1-3.09,0,1.68,1.68,0,0,1-1.21-1.06A1.88,1.88,0,0,1,12,14.4a7.61,7.61,0,0,1,.72-.25Zm2,2.24s0-.06-.07-.07c-.37-.23-.73-.48-1.11-.68a2.31,2.31,0,0,0-1.34-.28.31.31,0,0,0-.3.22c-.19.52-.1.7.37.86l.1,0a4.43,4.43,0,0,0,1.74,0Z"/><path class="cls-18" d="M21.19,14.15a2.19,2.19,0,0,1,.81.29,1.7,1.7,0,0,1,.7,1.23,1.63,1.63,0,0,1-1.27,1.9,5.24,5.24,0,0,1-2.33.12,4,4,0,0,1-1.31-.38,1,1,0,0,1-.55-.58.89.89,0,0,1,.28-.92,4.91,4.91,0,0,1,1.4-1,4.68,4.68,0,0,1,1.74-.6l0,0Zm-2.53,2.2v.06c.28,0,.56.1.84.13a3.58,3.58,0,0,0,1.56-.1c.47-.15.56-.33.41-.81a.38.38,0,0,0-.35-.28,2.24,2.24,0,0,0-1,.16A5.29,5.29,0,0,0,18.66,16.35Z"/><path class="cls-19" d="M16.32,26.47v3.17c0,.27,0,.31-.31.31H11a.76.76,0,0,1-.84-.85V23.76a.75.75,0,0,1,.83-.84H16c.28,0,.36.08.36.36Z"/><path class="cls-20" d="M17.56,26.47V23.29c0-.3.07-.37.37-.37h4.92a.76.76,0,0,1,.84.84v5.35a.76.76,0,0,1-.83.84h-5c-.25,0-.29-.05-.29-.3Z"/><path class="cls-21" d="M13.05,18.31H16c.28,0,.35.07.35.36v3.11c0,.25-.06.31-.31.31H10.17a.75.75,0,0,1-.82-.83V19.14a.75.75,0,0,1,.82-.83Z"/><path class="cls-22" d="M20.83,18.31h2.85a.75.75,0,0,1,.84.85v2.09a.75.75,0,0,1-.83.84H17.78a.21.21,0,0,1-.22-.24V18.58c0-.2.08-.27.29-.27Z"/><rect class="cls-6" x="32.59" y="83.6" width="2.75" height="0.61" transform="translate(-49.38 48.59) rotate(-45)"/><rect class="cls-6" x="33.66" y="82.52" width="0.61" height="2.75" transform="translate(-49.38 48.59) rotate(-45)"/><rect class="cls-1" x="159.77" y="106.84" width="8" height="14.93"/><path class="cls-23" d="M168.26,120.33c0,.42,0,.84,0,1.25a.51.51,0,0,1-.17.42c-.08.11-.19.09-.3.07a.67.67,0,0,1-.18-.07c-.47-.23-.32-.25-.79,0a.83.83,0,0,1-.91,0c-.47-.26-.31-.24-.81,0l-.06,0a.65.65,0,0,1-.78,0c-.43-.25-.43-.25-.88,0l-.23.12a.39.39,0,0,1-.45,0c-.56-.33-.56-.33-1.15,0a.76.76,0,0,1-.33.11,1.6,1.6,0,0,1-.52-.22.5.5,0,0,0-.63,0,.63.63,0,0,1-.35.13.42.42,0,0,1-.43-.41,2.9,2.9,0,0,1,0-.51c0-.37,0-.74,0-1.11v-8.2c0-.51,0-1,0-1.53V108c0-.13,0-.27.06-.38s0-.44,0-.65a.56.56,0,0,1,.61-.61h1.64c.13,0,.25,0,.25.19s-.12.18-.25.18H160c-.24,0-.29,0-.29.3v14.71l.44-.23a.45.45,0,0,1,.45,0c.22.1.42.31.65.29a1.7,1.7,0,0,0,.63-.29.42.42,0,0,1,.42,0l.55.28a.2.2,0,0,0,.2,0c.17-.1.35-.18.53-.28a.45.45,0,0,1,.45,0l.48.25a.26.26,0,0,0,.3,0c.14-.09.3-.15.45-.23a.45.45,0,0,1,.51,0c.12.06.25.11.36.18a.41.41,0,0,0,.47,0c.71-.37.52-.37,1.21,0l.07,0a.46.46,0,0,0,0-.2v-6.69c0-.13,0-.26.16-.3s.21.07.25.18a1.06,1.06,0,0,1,0,.25c0,.75,0,1.49,0,2.23s0,1.45,0,2.18c0,.27,0,.53,0,.8A.33.33,0,0,1,168.26,120.33Z"/><path class="cls-23" d="M166.16,112.58a2.1,2.1,0,0,1,0-1.89,2,2,0,0,1,1.53-1.13c.14,0,.18-.07.18-.22,0-.78,0-1.57,0-2.36,0-.27,0-.31-.32-.31h-4.85a.17.17,0,0,1-.17-.16.17.17,0,0,1,.15-.2h4.89c.45,0,.66.21.66.67,0,.75,0,1.49,0,2.24,0,0,0,0,0,0,0,.25.18.3.39.35a1.74,1.74,0,0,1,.89.51,2.21,2.21,0,0,1,.6,1,2.18,2.18,0,0,1-1.27,2.58,2.19,2.19,0,0,1-2.26-.4,2.18,2.18,0,0,1-.34-.4A.83.83,0,0,1,166.16,112.58Z"/><path class="cls-24" d="M163.79,108.91h-2.71a.17.17,0,0,1-.13-.19.16.16,0,0,1,.15-.16h5.34a.17.17,0,0,1,.19.18.17.17,0,0,1-.18.18h-2.66Z"/><path class="cls-25" d="M162.75,114.85h-1.83c-.13,0-.26,0-.26-.18s.13-.19.27-.19h3.77c.11,0,.19.07.18.19a.18.18,0,0,1-.2.17h-1.93Z"/><path class="cls-24" d="M163.79,109.35h1.67c.13,0,.26,0,.26.17s-.12.19-.26.19h-3.34c-.13,0-.26,0-.26-.19s.13-.18.26-.17Z"/><path class="cls-26" d="M162.59,116.15h1.67c.14,0,.26,0,.25.18s-.12.18-.25.18h-3.37c-.13,0-.24,0-.23-.19s.1-.17.22-.17Z"/><path class="cls-26" d="M162.39,113.2h-1.56a.16.16,0,0,1-.17-.19c0-.12.07-.17.19-.17h3c.14,0,.27,0,.27.19s-.13.18-.27.18Z"/><path class="cls-26" d="M161.85,118.15h-1c-.12,0-.22,0-.22-.17s.1-.19.22-.19h2c.13,0,.23,0,.23.19s-.11.17-.23.17Z"/><path class="cls-26" d="M163.79,110.69h.71c.12,0,.23,0,.22.18s-.1.18-.22.18c-.47,0-.95,0-1.42,0-.12,0-.22,0-.22-.18s.1-.18.22-.18Z"/><path class="cls-27" d="M161.45,119.9H162c.13,0,.23,0,.23.18s-.1.18-.23.18h-1.16c-.12,0-.2,0-.2-.17s.08-.19.21-.19Z"/><path class="cls-26" d="M166.22,120.26h-.42c-.12,0-.2-.05-.2-.18s.08-.18.2-.18h.82a.17.17,0,0,1,.21.17c0,.13-.09.19-.22.19Z"/><path class="cls-26" d="M164.16,118.15h-.38a.18.18,0,0,1-.2-.17.18.18,0,0,1,.2-.19h.75a.17.17,0,0,1,.19.19c0,.11-.08.17-.2.17Z"/><path class="cls-28" d="M166.34,114.85h-.29a.17.17,0,0,1-.18-.17.17.17,0,0,1,.16-.19,4.73,4.73,0,0,1,.65,0,.15.15,0,0,1,.15.17.17.17,0,0,1-.18.17Z"/><path class="cls-28" d="M166.36,116.15h.27a.17.17,0,0,1,.2.17.18.18,0,0,1-.18.19c-.2,0-.4,0-.6,0a.18.18,0,1,1,0-.35Z"/><path class="cls-26" d="M166.34,118.15H166a.17.17,0,0,1-.17-.16.16.16,0,0,1,.16-.19,4.42,4.42,0,0,1,.63,0,.16.16,0,0,1,.17.18.18.18,0,0,1-.2.17Z"/><path class="cls-29" d="M161,115.42a1.61,1.61,0,0,1,.22,0,.15.15,0,0,1,.17.17.16.16,0,0,1-.16.18,3.53,3.53,0,0,1-.46,0,.16.16,0,0,1-.15-.19.16.16,0,0,1,.17-.16A1.47,1.47,0,0,1,161,115.42Z"/><path class="cls-30" d="M161,108.11a1.33,1.33,0,0,1-.2,0,.18.18,0,0,1-.18-.19.17.17,0,0,1,.18-.17h.42a.16.16,0,0,1,.17.17c0,.11-.06.18-.18.19A1.47,1.47,0,0,1,161,108.11Z"/><path class="cls-30" d="M161,112.47a1.47,1.47,0,0,1-.21,0,.18.18,0,0,1,0-.36h.42a.17.17,0,0,1,.18.18.17.17,0,0,1-.17.18A1.61,1.61,0,0,1,161,112.47Z"/><path class="cls-31" d="M161,117.42a1.47,1.47,0,0,1-.21,0,.17.17,0,0,1-.16-.17.16.16,0,0,1,.14-.18h.49a.16.16,0,0,1,.14.19.16.16,0,0,1-.16.16A1.92,1.92,0,0,1,161,117.42Z"/><path class="cls-29" d="M161,114.12h-.22a.18.18,0,0,1-.17-.17.17.17,0,0,1,.16-.19,3.23,3.23,0,0,1,.44,0,.17.17,0,0,1,.17.19c0,.12-.08.17-.2.17Z"/><path class="cls-25" d="M166.27,113.21h-.17c-.12,0-.22,0-.23-.17s.09-.19.21-.19h.1a.45.45,0,0,1,.08.36Z"/><path class="cls-32" d="M166.59,113.75a.22.22,0,0,1,.19.18c0,.12-.07.2-.2.19a.17.17,0,0,1-.17-.14C166.39,113.84,166.47,113.78,166.59,113.75Z"/><path class="cls-33" d="M166.59,115.41a.19.19,0,1,1-.18.19A.17.17,0,0,1,166.59,115.41Z"/><path class="cls-34" d="M166.77,117.25a.16.16,0,0,1-.19.17.16.16,0,0,1-.17-.17.18.18,0,0,1,.18-.19C166.7,117.06,166.76,117.14,166.77,117.25Z"/><path class="cls-35" d="M166.16,112.58a1.08,1.08,0,0,1,.14.26s-.09,0-.14,0v-.27Z"/><path class="cls-36" d="M168.05,113.39a1.74,1.74,0,0,1-1.74-1.75,1.76,1.76,0,1,1,1.74,1.75Z"/><path class="cls-37" d="M166.16,112.85h.14l.33.36h-.37Z"/><path class="cls-38" d="M168.77,110.89a.19.19,0,0,1-.14.2h-.15c-.22,0-.28.09-.23.31,0,.07.07,0,.11.06a.56.56,0,0,1,.49.56.54.54,0,0,1-.5.53.11.11,0,0,0-.11.11.17.17,0,0,1-.18.17.16.16,0,0,1-.17-.17c0-.1-.06-.11-.13-.11a.81.81,0,0,1-.22,0,.16.16,0,0,1-.18-.16.17.17,0,0,1,.16-.19h.15c.2,0,.28-.12.22-.31s-.06,0-.1-.06a.55.55,0,0,1-.51-.54.54.54,0,0,1,.5-.55c.1,0,.1-.06.11-.13a.17.17,0,0,1,.18-.14.16.16,0,0,1,.17.13c0,.15.09.15.19.14h.18A.17.17,0,0,1,168.77,110.89Z"/><path class="cls-39" d="M167.9,111.27c0,.07,0,.2-.09.19a.17.17,0,0,1-.16-.19c0-.11.06-.18.17-.17S167.85,111.23,167.9,111.27Z"/><path class="cls-32" d="M168.24,112c0-.06-.05-.18.08-.18a.16.16,0,0,1,.16.18.16.16,0,0,1-.15.18C168.19,112.19,168.28,112.07,168.24,112Z"/></g></g></svg>