<svg xmlns="http://www.w3.org/2000/svg" viewBox="0 0 199 195.42"><defs><style>.cls-1{fill:#263238;}.cls-10,.cls-14,.cls-17,.cls-2,.cls-21,.cls-3,.cls-32,.cls-6{fill:#fff;}.cls-10,.cls-12,.cls-17,.cls-2,.cls-21,.cls-22,.cls-25,.cls-26,.cls-3,.cls-31,.cls-32,.cls-6{isolation:isolate;}.cls-12,.cls-2,.cls-25{opacity:0.2;}.cls-15,.cls-22,.cls-26,.cls-3{opacity:0.3;}.cls-4{fill:#c9c9c9;}.cls-5{fill:#8c8c8c;}.cls-13,.cls-31,.cls-6{opacity:0.6;}.cls-7{fill:#ffb573;}.cls-8{fill:#686868;}.cls-9{fill:#407bff;}.cls-10{opacity:0.9;}.cls-11{opacity:0.8;}.cls-16{fill:#dd6262;}.cls-17{opacity:0.7;}.cls-18{fill:#232323;}.cls-19{fill:#ffe3c2;}.cls-20{opacity:0.4;}.cls-21{opacity:0.5;}.cls-22{fill:#9b9b9b;}.cls-23{fill:#f5f5f5;}.cls-24,.cls-25,.cls-26{fill:#61bc37;}.cls-27{fill:#464a51;}.cls-28{fill:#b76ab5;}.cls-29{fill:#cc7dc6;}.cls-30{fill:#ed893e;}.cls-32{opacity:0.1;}</style></defs><g id="Layer_2" data-name="Layer 2"><g id="Layer_1-2" data-name="Layer 1"><polygon class="cls-1" points="84.53 95.86 79.69 95.86 88.08 143.54 92.93 143.54 84.53 95.86"/><polygon class="cls-2" points="84.53 95.86 79.69 95.86 88.08 143.54 92.93 143.54 84.53 95.86"/><polygon class="cls-1" points="89.46 95.86 81.82 95.86 90.21 143.54 97.86 143.54 89.46 95.86"/><polygon class="cls-3" points="89.46 95.86 81.82 95.86 90.21 143.54 97.86 143.54 89.46 95.86"/><polygon class="cls-1" points="30.66 95.86 25.82 95.86 34.21 143.54 39.06 143.54 30.66 95.86"/><polygon class="cls-2" points="30.66 95.86 25.82 95.86 34.21 143.54 39.06 143.54 30.66 95.86"/><polygon class="cls-1" points="35.59 95.86 27.95 95.86 36.34 143.54 43.99 143.54 35.59 95.86"/><polygon class="cls-3" points="35.59 95.86 27.95 95.86 36.34 143.54 43.99 143.54 35.59 95.86"/><polygon class="cls-4" points="24.92 102.48 19.69 102.48 18.2 94 23.43 94 24.92 102.48"/><polygon class="cls-5" points="95.73 102.48 22.57 102.48 21.08 94 94.24 94 95.73 102.48"/><polygon class="cls-4" points="27.05 114.57 21.82 114.57 20.32 106.09 25.55 106.09 27.05 114.57"/><polygon class="cls-5" points="97.86 114.57 24.7 114.57 23.21 106.09 96.37 106.09 97.86 114.57"/><polygon class="cls-4" points="29.18 126.66 23.95 126.66 22.45 118.18 27.68 118.18 29.18 126.66"/><polygon class="cls-5" points="99.99 126.66 26.83 126.66 25.34 118.18 98.5 118.18 99.99 126.66"/><polygon class="cls-4" points="31.3 138.75 26.08 138.75 24.58 130.27 29.82 130.27 31.3 138.75"/><polygon class="cls-3" points="24.92 102.48 19.69 102.48 18.2 94 23.43 94 24.92 102.48"/><rect class="cls-3" x="65.74" y="142.18" width="71.57" height="6.97"/><polygon class="cls-3" points="27.05 114.57 21.82 114.57 20.32 106.09 25.55 106.09 27.05 114.57"/><polygon class="cls-3" points="29.18 126.66 23.95 126.66 22.45 118.18 27.68 118.18 29.18 126.66"/><polygon class="cls-3" points="31.3 138.75 26.08 138.75 24.58 130.27 29.82 130.27 31.3 138.75"/><polygon class="cls-5" points="102.12 138.75 28.96 138.75 27.47 130.27 100.63 130.27 102.12 138.75"/><polygon class="cls-6" points="95.73 102.48 22.57 102.48 21.08 94 94.24 94 95.73 102.48"/><polygon class="cls-6" points="97.86 114.57 24.7 114.57 23.21 106.09 96.37 106.09 97.86 114.57"/><polygon class="cls-6" points="99.99 126.66 26.83 126.66 25.34 118.18 98.5 118.18 99.99 126.66"/><polygon class="cls-6" points="102.12 138.75 28.96 138.75 27.47 130.27 100.63 130.27 102.12 138.75"/><rect class="cls-6" x="25.14" y="142.18" width="42.06" height="6.97"/><path class="cls-7" d="M40.62,82.16S28,90.1,28.54,93.89s10.37,18.76,10.37,18.76l1.27,6.66a2.46,2.46,0,0,0,2.23,2h0a2.45,2.45,0,0,0,2.18-1L46,118.38a2.44,2.44,0,0,0-.16-3.07l-3.58-4.84s-6.61-12-5.29-16.15C38,91,47,86.65,47,86.65Z"/><path class="cls-8" d="M173.84,158.34H117.3a10.39,10.39,0,0,1-10.57-10.21,9.72,9.72,0,0,1,.06-1.32L118.61,11.53A12.84,12.84,0,0,1,131.14,0h56.54a10.4,10.4,0,0,1,10.57,10.21q0,.66-.06,1.32l-11.8,135.28A12.82,12.82,0,0,1,173.84,158.34Z"/><path class="cls-1" d="M170.9,158.34H114.36a10.4,10.4,0,0,1-10.57-10.21,9.72,9.72,0,0,1,.06-1.32L115.68,11.53A12.83,12.83,0,0,1,128.2,0h56.54a10.39,10.39,0,0,1,10.57,10.21,9.72,9.72,0,0,1-.06,1.32l-11.8,135.28A12.82,12.82,0,0,1,170.9,158.34Z"/><path class="cls-9" d="M184.51,2.65H169.83a2.12,2.12,0,0,0-2,1.67l-.1.46a5.21,5.21,0,0,1-5,4.11h-14a4.18,4.18,0,0,1-4.27-4.11V4.32a1.73,1.73,0,0,0-1.77-1.67H128a9.89,9.89,0,0,0-9.66,8.88L106.49,146.81a8,8,0,0,0,7.06,8.86,9.21,9.21,0,0,0,1,0h56.52a9.88,9.88,0,0,0,9.65-8.88l11.84-135.3a8,8,0,0,0-7.08-8.84A8.7,8.7,0,0,0,184.51,2.65Z"/><path class="cls-10" d="M184.51,2.65H169.83a2.12,2.12,0,0,0-2,1.67l-.1.46a5.21,5.21,0,0,1-5,4.11h-14a4.18,4.18,0,0,1-4.27-4.11V4.32a1.73,1.73,0,0,0-1.77-1.67H128a9.89,9.89,0,0,0-9.66,8.88L106.49,146.81a8,8,0,0,0,7.06,8.86,9.21,9.21,0,0,0,1,0h56.52a9.88,9.88,0,0,0,9.65-8.88l11.84-135.3a8,8,0,0,0-7.08-8.84A8.7,8.7,0,0,0,184.51,2.65Z"/><g class="cls-11"><path d="M152.69,4.15a1.26,1.26,0,0,1-1.22,1.12,1,1,0,0,1-1-1V4.15A1.26,1.26,0,0,1,151.66,3a1,1,0,0,1,1,1Z"/><path d="M160.75,3H156.9a1.27,1.27,0,0,0-1.22,1.13,1,1,0,0,0,.88,1.11h4a1.26,1.26,0,0,0,1.23-1.12A1,1,0,0,0,160.87,3Z"/></g><polygon class="cls-10" points="124.71 8.84 125.9 8.84 126 7.65 124.81 7.65 124.71 8.84"/><polygon class="cls-10" points="127.19 7.65 127.09 8.84 128.27 8.84 128.38 7.65 128.48 6.46 127.3 6.46 127.19 7.65"/><polygon class="cls-10" points="129.78 5.27 129.67 6.46 129.57 7.65 129.46 8.84 130.66 8.84 130.75 7.65 130.86 6.46 130.97 5.27 129.78 5.27"/><path class="cls-1" d="M180.9,5.35l-.08.87h-.58L180.08,8h.59l-.08.88h5.21l.31-3.49ZM183,8h-1.77l.16-1.77h1.76Z"/><path class="cls-1" d="M146.13,27.19h-20a1.74,1.74,0,0,1-1.77-1.69,1.85,1.85,0,0,1,0-.23l.31-3.61a2.14,2.14,0,0,1,2.09-1.91h20.05a1.72,1.72,0,0,1,1.77,1.68,1.77,1.77,0,0,1,0,.23l-.32,3.61A2.14,2.14,0,0,1,146.13,27.19Z"/><path class="cls-3" d="M146.13,27.19h-20a1.74,1.74,0,0,1-1.77-1.69,1.85,1.85,0,0,1,0-.23l.31-3.61a2.14,2.14,0,0,1,2.09-1.91h20.05a1.72,1.72,0,0,1,1.77,1.68,1.77,1.77,0,0,1,0,.23l-.32,3.61A2.14,2.14,0,0,1,146.13,27.19Z"/><polygon class="cls-12" points="189.85 44.04 115.56 44.04 116.66 31.5 190.95 31.5 189.85 44.04"/><path class="cls-1" d="M185.33,21.11h-6.26a.61.61,0,0,1-.63-.61v-.07h0a.75.75,0,0,1,.74-.68h6.26a.62.62,0,0,1,.64.6.25.25,0,0,1,0,.08h0A.76.76,0,0,1,185.33,21.11Z"/><path class="cls-1" d="M184.79,27.19h-6.26a.6.6,0,0,1-.63-.55.71.71,0,0,1,0-.14h0a.76.76,0,0,1,.75-.68h6.26a.59.59,0,0,1,.63.54.61.61,0,0,1,0,.14h0A.77.77,0,0,1,184.79,27.19Z"/><path class="cls-1" d="M185.06,24.15H178.8a.61.61,0,0,1-.63-.6v-.08h0a.76.76,0,0,1,.74-.69h6.26a.62.62,0,0,1,.64.6.28.28,0,0,1,0,.09h0A.76.76,0,0,1,185.06,24.15Z"/><path class="cls-10" d="M180.45,41.49H126.77a3.44,3.44,0,0,1-3.5-3.38c0-.15,0-.29,0-.44h0a4.25,4.25,0,0,1,4.15-3.82h53.67a3.45,3.45,0,0,1,3.5,3.38c0,.15,0,.3,0,.44h0A4.24,4.24,0,0,1,180.45,41.49Z"/><path class="cls-1" d="M134,52.71H123.64a1.5,1.5,0,0,1-1.52-1.48,1.2,1.2,0,0,1,0-.19h0a1.86,1.86,0,0,1,1.81-1.67h10.35a1.51,1.51,0,0,1,1.53,1.48,1.21,1.21,0,0,1,0,.19h0A1.85,1.85,0,0,1,134,52.71Z"/><path class="cls-1" d="M160.85,52.71H139.56A1.51,1.51,0,0,1,138,51.23c0-.06,0-.12,0-.19h0a1.86,1.86,0,0,1,1.81-1.67h21.29a1.51,1.51,0,0,1,1.53,1.48c0,.06,0,.13,0,.19h0A1.86,1.86,0,0,1,160.85,52.71Z"/><path class="cls-1" d="M181.63,52.71h-15.2a1.51,1.51,0,0,1-1.53-1.48,1.28,1.28,0,0,1,0-.19h0a1.85,1.85,0,0,1,1.8-1.67h15.21a1.5,1.5,0,0,1,1.52,1.48,1.2,1.2,0,0,1,0,.19h0A1.86,1.86,0,0,1,181.63,52.71Z"/><path class="cls-1" d="M144.52,59.86H123a1.5,1.5,0,0,1-1.53-1.47,1.34,1.34,0,0,1,0-.2h0a1.84,1.84,0,0,1,1.81-1.66h21.5A1.5,1.5,0,0,1,146.34,58a1.09,1.09,0,0,1,0,.18h0A1.85,1.85,0,0,1,144.52,59.86Z"/><path class="cls-1" d="M163.85,59.86H150.09a1.48,1.48,0,0,1-1.52-1.47,1.34,1.34,0,0,1,0-.2h0a1.85,1.85,0,0,1,1.8-1.66h13.76A1.5,1.5,0,0,1,165.67,58a1.09,1.09,0,0,1,0,.18h0A1.85,1.85,0,0,1,163.85,59.86Z"/><path class="cls-1" d="M176.86,59.86h-7.44a1.48,1.48,0,0,1-1.52-1.47.67.67,0,0,1,0-.2h0a1.84,1.84,0,0,1,1.8-1.66h7.44A1.5,1.5,0,0,1,178.68,58a1.27,1.27,0,0,1,0,.2h0A1.86,1.86,0,0,1,176.86,59.86Z"/><path class="cls-1" d="M136.79,67h-14.4a1.51,1.51,0,0,1-1.53-1.48,1.28,1.28,0,0,1,0-.19h0a1.86,1.86,0,0,1,1.81-1.66h14.39a1.51,1.51,0,0,1,1.53,1.48c0,.06,0,.12,0,.18h0A1.86,1.86,0,0,1,136.79,67Z"/><path class="cls-1" d="M160.72,67H142.35a1.5,1.5,0,0,1-1.52-1.47,1.34,1.34,0,0,1,0-.2h0a1.84,1.84,0,0,1,1.81-1.66H161a1.51,1.51,0,0,1,1.53,1.47c0,.07,0,.13,0,.19h0A1.86,1.86,0,0,1,160.72,67Z"/><path class="cls-1" d="M180.38,67h-14.1a1.51,1.51,0,0,1-1.52-1.47,1.34,1.34,0,0,1,0-.2h0a1.84,1.84,0,0,1,1.81-1.66h14.09a1.5,1.5,0,0,1,1.52,1.47,1.2,1.2,0,0,1,0,.19h0A1.86,1.86,0,0,1,180.38,67Z"/><path class="cls-1" d="M142.15,74.16H121.77a1.5,1.5,0,0,1-1.53-1.47,1.21,1.21,0,0,1,0-.19h0a1.86,1.86,0,0,1,1.81-1.67h20.38A1.51,1.51,0,0,1,144,72.31a1.28,1.28,0,0,1,0,.19h0A1.86,1.86,0,0,1,142.15,74.16Z"/><path class="cls-1" d="M162.6,74.16H147.72a1.49,1.49,0,0,1-1.52-1.46,1.33,1.33,0,0,1,0-.2h0A1.86,1.86,0,0,1,148,70.83H162.9a1.5,1.5,0,0,1,1.53,1.48,1.28,1.28,0,0,1,0,.19h0A1.85,1.85,0,0,1,162.6,74.16Z"/><path class="cls-1" d="M177.37,74.16h-9.18a1.5,1.5,0,0,1-1.53-1.47c0-.06,0-.13,0-.19h0a1.84,1.84,0,0,1,1.81-1.67h9.2a1.51,1.51,0,0,1,1.53,1.48c0,.06,0,.12,0,.19h0A1.86,1.86,0,0,1,177.37,74.16Z"/><path class="cls-1" d="M138.78,81.31H121.16a1.5,1.5,0,0,1-1.53-1.49.91.91,0,0,1,0-.17h0A1.86,1.86,0,0,1,121.45,78h17.62a1.51,1.51,0,0,1,1.53,1.48,1.28,1.28,0,0,1,0,.19h0A1.84,1.84,0,0,1,138.78,81.31Z"/><path class="cls-1" d="M158.35,81.31h-14a1.49,1.49,0,0,1-1.52-1.47,1.21,1.21,0,0,1,0-.19h0A1.86,1.86,0,0,1,144.64,78h14a1.51,1.51,0,0,1,1.52,1.47,1.34,1.34,0,0,1,0,.2h0A1.84,1.84,0,0,1,158.35,81.31Z"/><path class="cls-1" d="M176.74,81.31H163.92a1.5,1.5,0,0,1-1.52-1.47,1.21,1.21,0,0,1,0-.19h0A1.84,1.84,0,0,1,164.22,78H177a1.5,1.5,0,0,1,1.52,1.48,1.2,1.2,0,0,1,0,.19h0A1.86,1.86,0,0,1,176.74,81.31Z"/><path class="cls-1" d="M132,88.46H120.52A1.5,1.5,0,0,1,119,87a1.27,1.27,0,0,1,0-.2h0a1.86,1.86,0,0,1,1.81-1.67h11.47a1.51,1.51,0,0,1,1.53,1.48c0,.06,0,.12,0,.19h0A1.86,1.86,0,0,1,132,88.46Z"/><path class="cls-1" d="M153.37,88.46H137.56A1.5,1.5,0,0,1,136,87a1.27,1.27,0,0,1,0-.2h0a1.86,1.86,0,0,1,1.81-1.67h15.81a1.5,1.5,0,0,1,1.52,1.48,1.2,1.2,0,0,1,0,.19h0A1.85,1.85,0,0,1,153.37,88.46Z"/><path class="cls-1" d="M177.44,88.46h-18.5A1.48,1.48,0,0,1,157.42,87a1.21,1.21,0,0,1,0-.19h0a1.86,1.86,0,0,1,1.81-1.67h18.5a1.51,1.51,0,0,1,1.53,1.48,1.28,1.28,0,0,1,0,.19h0A1.86,1.86,0,0,1,177.44,88.46Z"/><path class="cls-1" d="M137.53,95.61H119.91a1.48,1.48,0,0,1-1.52-1.47,1.28,1.28,0,0,1,0-.19h0a1.85,1.85,0,0,1,1.8-1.67h17.62a1.51,1.51,0,0,1,1.53,1.48,1.21,1.21,0,0,1,0,.19h0A1.85,1.85,0,0,1,137.53,95.61Z"/><path class="cls-1" d="M152.74,95.61H143.1a1.49,1.49,0,0,1-1.53-1.46,1.34,1.34,0,0,1,0-.2h0a1.86,1.86,0,0,1,1.81-1.67H153a1.5,1.5,0,0,1,1.52,1.47,1.27,1.27,0,0,1,0,.2h0A1.84,1.84,0,0,1,152.74,95.61Z"/><path class="cls-1" d="M177.88,95.61H158.32a1.49,1.49,0,0,1-1.53-1.46,1.34,1.34,0,0,1,0-.2h0a1.85,1.85,0,0,1,1.8-1.67h19.57a1.5,1.5,0,0,1,1.52,1.47,1.27,1.27,0,0,1,0,.2h0A1.83,1.83,0,0,1,177.88,95.61Z"/><path class="cls-1" d="M141.89,102.77H119.27a1.51,1.51,0,0,1-1.53-1.48,1.21,1.21,0,0,1,0-.19h0a1.85,1.85,0,0,1,1.81-1.66h22.63a1.49,1.49,0,0,1,1.52,1.47,1.21,1.21,0,0,1,0,.19h0A1.86,1.86,0,0,1,141.89,102.77Z"/><path class="cls-1" d="M158.72,102.77H147.47a1.51,1.51,0,0,1-1.53-1.48,1.21,1.21,0,0,1,0-.19h0a1.84,1.84,0,0,1,1.8-1.66H159a1.5,1.5,0,0,1,1.52,1.47,1.21,1.21,0,0,1,0,.19h0A1.86,1.86,0,0,1,158.72,102.77Z"/><path class="cls-1" d="M174.87,102.77H164.3a1.51,1.51,0,0,1-1.53-1.48,1.21,1.21,0,0,1,0-.19h0a1.85,1.85,0,0,1,1.81-1.66h10.57a1.49,1.49,0,0,1,1.52,1.47,1.21,1.21,0,0,1,0,.19h0A1.85,1.85,0,0,1,174.87,102.77Z"/><path class="cls-1" d="M133,109.92h-14.4a1.5,1.5,0,0,1-1.52-1.48,1.28,1.28,0,0,1,0-.19h0a1.84,1.84,0,0,1,1.81-1.66h14.39a1.5,1.5,0,0,1,1.53,1.46,1.27,1.27,0,0,1,0,.2h0A1.86,1.86,0,0,1,133,109.92Z"/><path class="cls-1" d="M159.47,109.92H138.61a1.51,1.51,0,0,1-1.53-1.47,1.34,1.34,0,0,1,0-.2h0a1.86,1.86,0,0,1,1.81-1.66h20.87a1.49,1.49,0,0,1,1.52,1.47,1.21,1.21,0,0,1,0,.19h0A1.85,1.85,0,0,1,159.47,109.92Z"/><path class="cls-1" d="M173.33,109.92h-8.28a1.51,1.51,0,0,1-1.53-1.48,1.28,1.28,0,0,1,0-.19h0a1.84,1.84,0,0,1,1.81-1.66h8.28a1.5,1.5,0,0,1,1.53,1.47,1.21,1.21,0,0,1,0,.19h0A1.85,1.85,0,0,1,173.33,109.92Z"/><path class="cls-1" d="M137.28,117.07H118a1.51,1.51,0,0,1-1.53-1.48,1.09,1.09,0,0,1,0-.18h0a1.84,1.84,0,0,1,1.81-1.67h19.26a1.5,1.5,0,0,1,1.53,1.47c0,.06,0,.13,0,.2h0A1.86,1.86,0,0,1,137.28,117.07Z"/><path class="cls-1" d="M161.09,117.07H142.85a1.51,1.51,0,0,1-1.53-1.48,1.09,1.09,0,0,1,0-.18h0a1.85,1.85,0,0,1,1.81-1.67h18.25a1.49,1.49,0,0,1,1.52,1.47,1.41,1.41,0,0,1,0,.2h0A1.85,1.85,0,0,1,161.09,117.07Z"/><path class="cls-1" d="M176,117.07h-9.33a1.51,1.51,0,0,1-1.53-1.48,1.09,1.09,0,0,1,0-.18h0a1.84,1.84,0,0,1,1.8-1.67h9.34a1.49,1.49,0,0,1,1.53,1.47,1.34,1.34,0,0,1,0,.2h0A1.86,1.86,0,0,1,176,117.07Z"/><path class="cls-1" d="M135,124.22H117.41a1.5,1.5,0,0,1-1.53-1.47c0-.07,0-.13,0-.2h0a1.85,1.85,0,0,1,1.81-1.66h17.62a1.49,1.49,0,0,1,1.52,1.47,1.21,1.21,0,0,1,0,.19h0A1.85,1.85,0,0,1,135,124.22Z"/><path class="cls-1" d="M158.21,124.22H140.59a1.51,1.51,0,0,1-1.53-1.48,1.28,1.28,0,0,1,0-.19h0a1.86,1.86,0,0,1,1.81-1.66h17.61a1.5,1.5,0,0,1,1.53,1.48,1.09,1.09,0,0,1,0,.18h0A1.85,1.85,0,0,1,158.21,124.22Z"/><path class="cls-1" d="M173,124.22h-9.2a1.5,1.5,0,0,1-1.53-1.47,1.34,1.34,0,0,1,0-.2h0a1.84,1.84,0,0,1,1.81-1.66h9.19a1.49,1.49,0,0,1,1.53,1.46,1.27,1.27,0,0,1,0,.2h0A1.85,1.85,0,0,1,173,124.22Z"/><path class="cls-1" d="M129.36,125.93H116.77a1.5,1.5,0,0,1-1.53-1.48,1.09,1.09,0,0,1,0-.18h0a1.85,1.85,0,0,1,1.81-1.66h12.59a1.5,1.5,0,0,1,1.53,1.47c0,.06,0,.12,0,.19h0A1.85,1.85,0,0,1,129.36,125.93Z"/><path class="cls-1" d="M152.86,125.93H134.93a1.48,1.48,0,0,1-1.52-1.47,1.21,1.21,0,0,1,0-.19h0a1.83,1.83,0,0,1,1.8-1.66h17.93a1.48,1.48,0,0,1,1.52,1.47,1.28,1.28,0,0,1,0,.19h0A1.84,1.84,0,0,1,152.86,125.93Z"/><path class="cls-1" d="M174.75,125.93H158.43a1.5,1.5,0,0,1-1.53-1.48,1.09,1.09,0,0,1,0-.18h0a1.84,1.84,0,0,1,1.81-1.66h16.33a1.5,1.5,0,0,1,1.52,1.47,1.28,1.28,0,0,1,0,.19h0A1.86,1.86,0,0,1,174.75,125.93Z"/><path class="cls-1" d="M130.54,133.09h-14.4a1.5,1.5,0,0,1-1.52-1.48,1.28,1.28,0,0,1,0-.19h0a1.85,1.85,0,0,1,1.8-1.67h14.4a1.51,1.51,0,0,1,1.53,1.47c0,.07,0,.14,0,.2h0A1.87,1.87,0,0,1,130.54,133.09Z"/><path class="cls-1" d="M147.87,133.09H136.13a1.51,1.51,0,0,1-1.53-1.48,1.15,1.15,0,0,1,0-.19h0a1.86,1.86,0,0,1,1.81-1.67h11.74a1.5,1.5,0,0,1,1.52,1.47,1.27,1.27,0,0,1,0,.2h0A1.85,1.85,0,0,1,147.87,133.09Z"/><path class="cls-1" d="M170.83,133.09H153.44a1.51,1.51,0,0,1-1.53-1.48c0-.07,0-.13,0-.19h0a1.87,1.87,0,0,1,1.82-1.67h17.38a1.51,1.51,0,0,1,1.53,1.47,1.27,1.27,0,0,1,0,.2h0A1.85,1.85,0,0,1,170.83,133.09Z"/><path class="cls-1" d="M133.15,140.24H115.54a1.51,1.51,0,0,1-1.53-1.49,1.09,1.09,0,0,1,0-.18h0a1.84,1.84,0,0,1,1.81-1.66h17.61a1.49,1.49,0,0,1,1.53,1.47v.19h0A1.87,1.87,0,0,1,133.15,140.24Z"/><path class="cls-1" d="M156.35,140.24H138.74a1.51,1.51,0,0,1-1.53-1.47,1.27,1.27,0,0,1,0-.2h0a1.85,1.85,0,0,1,1.81-1.66h17.61a1.5,1.5,0,0,1,1.53,1.47,1.21,1.21,0,0,1,0,.19h0A1.86,1.86,0,0,1,156.35,140.24Z"/><path class="cls-1" d="M171.12,140.24h-9.2a1.51,1.51,0,0,1-1.53-1.48,1.21,1.21,0,0,1,0-.19h0a1.85,1.85,0,0,1,1.81-1.66h9.2a1.49,1.49,0,0,1,1.53,1.47,1.15,1.15,0,0,1,0,.19h0A1.86,1.86,0,0,1,171.12,140.24Z"/><path class="cls-1" d="M134,52.71H123.64a1.5,1.5,0,0,1-1.52-1.48,1.2,1.2,0,0,1,0-.19h0a1.86,1.86,0,0,1,1.81-1.67h10.35a1.51,1.51,0,0,1,1.53,1.48,1.21,1.21,0,0,1,0,.19h0A1.85,1.85,0,0,1,134,52.71Z"/><path class="cls-1" d="M160.85,52.71H139.56A1.51,1.51,0,0,1,138,51.23c0-.06,0-.12,0-.19h0a1.86,1.86,0,0,1,1.81-1.67h21.29a1.51,1.51,0,0,1,1.53,1.48c0,.06,0,.13,0,.19h0A1.86,1.86,0,0,1,160.85,52.71Z"/><path class="cls-1" d="M181.63,52.71h-15.2a1.51,1.51,0,0,1-1.53-1.48,1.28,1.28,0,0,1,0-.19h0a1.85,1.85,0,0,1,1.8-1.67h15.21a1.5,1.5,0,0,1,1.52,1.48,1.2,1.2,0,0,1,0,.19h0A1.86,1.86,0,0,1,181.63,52.71Z"/><path class="cls-1" d="M144.52,59.86H123a1.5,1.5,0,0,1-1.53-1.47,1.34,1.34,0,0,1,0-.2h0a1.84,1.84,0,0,1,1.81-1.66h21.5A1.5,1.5,0,0,1,146.34,58a1.09,1.09,0,0,1,0,.18h0A1.85,1.85,0,0,1,144.52,59.86Z"/><path class="cls-1" d="M163.85,59.86H150.09a1.48,1.48,0,0,1-1.52-1.47,1.34,1.34,0,0,1,0-.2h0a1.85,1.85,0,0,1,1.8-1.66h13.76A1.5,1.5,0,0,1,165.67,58a1.09,1.09,0,0,1,0,.18h0A1.85,1.85,0,0,1,163.85,59.86Z"/><path class="cls-1" d="M176.86,59.86h-7.44a1.48,1.48,0,0,1-1.52-1.47.67.67,0,0,1,0-.2h0a1.84,1.84,0,0,1,1.8-1.66h7.44A1.5,1.5,0,0,1,178.68,58a1.27,1.27,0,0,1,0,.2h0A1.86,1.86,0,0,1,176.86,59.86Z"/><path class="cls-1" d="M136.79,67h-14.4a1.51,1.51,0,0,1-1.53-1.48,1.28,1.28,0,0,1,0-.19h0a1.86,1.86,0,0,1,1.81-1.66h14.39a1.51,1.51,0,0,1,1.53,1.48c0,.06,0,.12,0,.18h0A1.86,1.86,0,0,1,136.79,67Z"/><path class="cls-1" d="M160.72,67H142.35a1.5,1.5,0,0,1-1.52-1.47,1.34,1.34,0,0,1,0-.2h0a1.84,1.84,0,0,1,1.81-1.66H161a1.51,1.51,0,0,1,1.53,1.47c0,.07,0,.13,0,.19h0A1.86,1.86,0,0,1,160.72,67Z"/><path class="cls-1" d="M180.38,67h-14.1a1.51,1.51,0,0,1-1.52-1.47,1.34,1.34,0,0,1,0-.2h0a1.84,1.84,0,0,1,1.81-1.66h14.09a1.5,1.5,0,0,1,1.52,1.47,1.2,1.2,0,0,1,0,.19h0A1.86,1.86,0,0,1,180.38,67Z"/><path class="cls-1" d="M142.15,74.16H121.77a1.5,1.5,0,0,1-1.53-1.47,1.21,1.21,0,0,1,0-.19h0a1.86,1.86,0,0,1,1.81-1.67h20.38A1.51,1.51,0,0,1,144,72.31a1.28,1.28,0,0,1,0,.19h0A1.86,1.86,0,0,1,142.15,74.16Z"/><path class="cls-1" d="M162.6,74.16H147.72a1.49,1.49,0,0,1-1.52-1.46,1.33,1.33,0,0,1,0-.2h0A1.86,1.86,0,0,1,148,70.83H162.9a1.5,1.5,0,0,1,1.53,1.48,1.28,1.28,0,0,1,0,.19h0A1.85,1.85,0,0,1,162.6,74.16Z"/><path class="cls-1" d="M177.37,74.16h-9.18a1.5,1.5,0,0,1-1.53-1.47c0-.06,0-.13,0-.19h0a1.84,1.84,0,0,1,1.81-1.67h9.2a1.51,1.51,0,0,1,1.53,1.48c0,.06,0,.12,0,.19h0A1.86,1.86,0,0,1,177.37,74.16Z"/><path class="cls-1" d="M138.78,81.31H121.16a1.5,1.5,0,0,1-1.53-1.49.91.91,0,0,1,0-.17h0A1.86,1.86,0,0,1,121.45,78h17.62a1.51,1.51,0,0,1,1.53,1.48,1.28,1.28,0,0,1,0,.19h0A1.84,1.84,0,0,1,138.78,81.31Z"/><path class="cls-1" d="M158.35,81.31h-14a1.49,1.49,0,0,1-1.52-1.47,1.21,1.21,0,0,1,0-.19h0A1.86,1.86,0,0,1,144.64,78h14a1.51,1.51,0,0,1,1.52,1.47,1.34,1.34,0,0,1,0,.2h0A1.84,1.84,0,0,1,158.35,81.31Z"/><path class="cls-1" d="M176.74,81.31H163.92a1.5,1.5,0,0,1-1.52-1.47,1.21,1.21,0,0,1,0-.19h0A1.84,1.84,0,0,1,164.22,78H177a1.5,1.5,0,0,1,1.52,1.48,1.2,1.2,0,0,1,0,.19h0A1.86,1.86,0,0,1,176.74,81.31Z"/><path class="cls-1" d="M132,88.46H120.52A1.5,1.5,0,0,1,119,87a1.27,1.27,0,0,1,0-.2h0a1.86,1.86,0,0,1,1.81-1.67h11.47a1.51,1.51,0,0,1,1.53,1.48c0,.06,0,.12,0,.19h0A1.86,1.86,0,0,1,132,88.46Z"/><path class="cls-1" d="M153.37,88.46H137.56A1.5,1.5,0,0,1,136,87a1.27,1.27,0,0,1,0-.2h0a1.86,1.86,0,0,1,1.81-1.67h15.81a1.5,1.5,0,0,1,1.52,1.48,1.2,1.2,0,0,1,0,.19h0A1.85,1.85,0,0,1,153.37,88.46Z"/><path class="cls-1" d="M177.44,88.46h-18.5A1.48,1.48,0,0,1,157.42,87a1.21,1.21,0,0,1,0-.19h0a1.86,1.86,0,0,1,1.81-1.67h18.5a1.51,1.51,0,0,1,1.53,1.48,1.28,1.28,0,0,1,0,.19h0A1.86,1.86,0,0,1,177.44,88.46Z"/><path class="cls-1" d="M137.53,95.61H119.91a1.48,1.48,0,0,1-1.52-1.47,1.28,1.28,0,0,1,0-.19h0a1.85,1.85,0,0,1,1.8-1.67h17.62a1.51,1.51,0,0,1,1.53,1.48,1.21,1.21,0,0,1,0,.19h0A1.85,1.85,0,0,1,137.53,95.61Z"/><path class="cls-1" d="M152.74,95.61H143.1a1.49,1.49,0,0,1-1.53-1.46,1.34,1.34,0,0,1,0-.2h0a1.86,1.86,0,0,1,1.81-1.67H153a1.5,1.5,0,0,1,1.52,1.47,1.27,1.27,0,0,1,0,.2h0A1.84,1.84,0,0,1,152.74,95.61Z"/><path class="cls-1" d="M177.88,95.61H158.32a1.49,1.49,0,0,1-1.53-1.46,1.34,1.34,0,0,1,0-.2h0a1.85,1.85,0,0,1,1.8-1.67h19.57a1.5,1.5,0,0,1,1.52,1.47,1.27,1.27,0,0,1,0,.2h0A1.83,1.83,0,0,1,177.88,95.61Z"/><path class="cls-1" d="M141.89,102.77H119.27a1.51,1.51,0,0,1-1.53-1.48,1.21,1.21,0,0,1,0-.19h0a1.85,1.85,0,0,1,1.81-1.66h22.63a1.49,1.49,0,0,1,1.52,1.47,1.21,1.21,0,0,1,0,.19h0A1.86,1.86,0,0,1,141.89,102.77Z"/><path class="cls-1" d="M158.72,102.77H147.47a1.51,1.51,0,0,1-1.53-1.48,1.21,1.21,0,0,1,0-.19h0a1.84,1.84,0,0,1,1.8-1.66H159a1.5,1.5,0,0,1,1.52,1.47,1.21,1.21,0,0,1,0,.19h0A1.86,1.86,0,0,1,158.72,102.77Z"/><path class="cls-1" d="M174.87,102.77H164.3a1.51,1.51,0,0,1-1.53-1.48,1.21,1.21,0,0,1,0-.19h0a1.85,1.85,0,0,1,1.81-1.66h10.57a1.49,1.49,0,0,1,1.52,1.47,1.21,1.21,0,0,1,0,.19h0A1.85,1.85,0,0,1,174.87,102.77Z"/><path class="cls-1" d="M133,109.92h-14.4a1.5,1.5,0,0,1-1.52-1.48,1.28,1.28,0,0,1,0-.19h0a1.84,1.84,0,0,1,1.81-1.66h14.39a1.5,1.5,0,0,1,1.53,1.46,1.27,1.27,0,0,1,0,.2h0A1.86,1.86,0,0,1,133,109.92Z"/><path class="cls-1" d="M159.47,109.92H138.61a1.51,1.51,0,0,1-1.53-1.47,1.34,1.34,0,0,1,0-.2h0a1.86,1.86,0,0,1,1.81-1.66h20.87a1.49,1.49,0,0,1,1.52,1.47,1.21,1.21,0,0,1,0,.19h0A1.85,1.85,0,0,1,159.47,109.92Z"/><path class="cls-1" d="M173.33,109.92h-8.28a1.51,1.51,0,0,1-1.53-1.48,1.28,1.28,0,0,1,0-.19h0a1.84,1.84,0,0,1,1.81-1.66h8.28a1.5,1.5,0,0,1,1.53,1.47,1.21,1.21,0,0,1,0,.19h0A1.85,1.85,0,0,1,173.33,109.92Z"/><path class="cls-1" d="M137.28,117.07H118a1.51,1.51,0,0,1-1.53-1.48,1.09,1.09,0,0,1,0-.18h0a1.84,1.84,0,0,1,1.81-1.67h19.26a1.5,1.5,0,0,1,1.53,1.47c0,.06,0,.13,0,.2h0A1.86,1.86,0,0,1,137.28,117.07Z"/><path class="cls-1" d="M161.09,117.07H142.85a1.51,1.51,0,0,1-1.53-1.48,1.09,1.09,0,0,1,0-.18h0a1.85,1.85,0,0,1,1.81-1.67h18.25a1.49,1.49,0,0,1,1.52,1.47,1.41,1.41,0,0,1,0,.2h0A1.85,1.85,0,0,1,161.09,117.07Z"/><path class="cls-1" d="M176,117.07h-9.33a1.51,1.51,0,0,1-1.53-1.48,1.09,1.09,0,0,1,0-.18h0a1.84,1.84,0,0,1,1.8-1.67h9.34a1.49,1.49,0,0,1,1.53,1.47,1.34,1.34,0,0,1,0,.2h0A1.86,1.86,0,0,1,176,117.07Z"/><path class="cls-1" d="M135,124.22H117.41a1.5,1.5,0,0,1-1.53-1.47c0-.07,0-.13,0-.2h0a1.85,1.85,0,0,1,1.81-1.66h17.62a1.49,1.49,0,0,1,1.52,1.47,1.21,1.21,0,0,1,0,.19h0A1.85,1.85,0,0,1,135,124.22Z"/><path class="cls-1" d="M158.21,124.22H140.59a1.51,1.51,0,0,1-1.53-1.48,1.28,1.28,0,0,1,0-.19h0a1.86,1.86,0,0,1,1.81-1.66h17.61a1.5,1.5,0,0,1,1.53,1.48,1.09,1.09,0,0,1,0,.18h0A1.85,1.85,0,0,1,158.21,124.22Z"/><path class="cls-1" d="M173,124.22h-9.2a1.5,1.5,0,0,1-1.53-1.47,1.34,1.34,0,0,1,0-.2h0a1.84,1.84,0,0,1,1.81-1.66h9.19a1.49,1.49,0,0,1,1.53,1.46,1.27,1.27,0,0,1,0,.2h0A1.85,1.85,0,0,1,173,124.22Z"/><path class="cls-1" d="M129.36,125.93H116.77a1.5,1.5,0,0,1-1.53-1.48,1.09,1.09,0,0,1,0-.18h0a1.85,1.85,0,0,1,1.81-1.66h12.59a1.5,1.5,0,0,1,1.53,1.47c0,.06,0,.12,0,.19h0A1.85,1.85,0,0,1,129.36,125.93Z"/><path class="cls-1" d="M152.86,125.93H134.93a1.48,1.48,0,0,1-1.52-1.47,1.21,1.21,0,0,1,0-.19h0a1.83,1.83,0,0,1,1.8-1.66h17.93a1.48,1.48,0,0,1,1.52,1.47,1.28,1.28,0,0,1,0,.19h0A1.84,1.84,0,0,1,152.86,125.93Z"/><path class="cls-1" d="M174.75,125.93H158.43a1.5,1.5,0,0,1-1.53-1.48,1.09,1.09,0,0,1,0-.18h0a1.84,1.84,0,0,1,1.81-1.66h16.33a1.5,1.5,0,0,1,1.52,1.47,1.28,1.28,0,0,1,0,.19h0A1.86,1.86,0,0,1,174.75,125.93Z"/><path class="cls-1" d="M130.54,133.09h-14.4a1.5,1.5,0,0,1-1.52-1.48,1.28,1.28,0,0,1,0-.19h0a1.85,1.85,0,0,1,1.8-1.67h14.4a1.51,1.51,0,0,1,1.53,1.47c0,.07,0,.14,0,.2h0A1.87,1.87,0,0,1,130.54,133.09Z"/><path class="cls-1" d="M147.87,133.09H136.13a1.51,1.51,0,0,1-1.53-1.48,1.15,1.15,0,0,1,0-.19h0a1.86,1.86,0,0,1,1.81-1.67h11.74a1.5,1.5,0,0,1,1.52,1.47,1.27,1.27,0,0,1,0,.2h0A1.85,1.85,0,0,1,147.87,133.09Z"/><path class="cls-1" d="M170.83,133.09H153.44a1.51,1.51,0,0,1-1.53-1.48c0-.07,0-.13,0-.19h0a1.87,1.87,0,0,1,1.82-1.67h17.38a1.51,1.51,0,0,1,1.53,1.47,1.27,1.27,0,0,1,0,.2h0A1.85,1.85,0,0,1,170.83,133.09Z"/><path class="cls-1" d="M133.15,140.24H115.54a1.51,1.51,0,0,1-1.53-1.49,1.09,1.09,0,0,1,0-.18h0a1.84,1.84,0,0,1,1.81-1.66h17.61a1.49,1.49,0,0,1,1.53,1.47v.19h0A1.87,1.87,0,0,1,133.15,140.24Z"/><path class="cls-1" d="M156.35,140.24H138.74a1.51,1.51,0,0,1-1.53-1.47,1.27,1.27,0,0,1,0-.2h0a1.85,1.85,0,0,1,1.81-1.66h17.61a1.5,1.5,0,0,1,1.53,1.47,1.21,1.21,0,0,1,0,.19h0A1.86,1.86,0,0,1,156.35,140.24Z"/><path class="cls-1" d="M171.12,140.24h-9.2a1.51,1.51,0,0,1-1.53-1.48,1.21,1.21,0,0,1,0-.19h0a1.85,1.85,0,0,1,1.81-1.66h9.2a1.49,1.49,0,0,1,1.53,1.47,1.15,1.15,0,0,1,0,.19h0A1.86,1.86,0,0,1,171.12,140.24Z"/><g class="cls-13"><path class="cls-14" d="M134,52.71H123.64a1.5,1.5,0,0,1-1.52-1.48,1.2,1.2,0,0,1,0-.19h0a1.86,1.86,0,0,1,1.81-1.67h10.35a1.51,1.51,0,0,1,1.53,1.48,1.21,1.21,0,0,1,0,.19h0A1.85,1.85,0,0,1,134,52.71Z"/><path class="cls-14" d="M160.85,52.71H139.56A1.51,1.51,0,0,1,138,51.23c0-.06,0-.12,0-.19h0a1.86,1.86,0,0,1,1.81-1.67h21.29a1.51,1.51,0,0,1,1.53,1.48c0,.06,0,.13,0,.19h0A1.86,1.86,0,0,1,160.85,52.71Z"/><path class="cls-14" d="M181.63,52.71h-15.2a1.51,1.51,0,0,1-1.53-1.48,1.28,1.28,0,0,1,0-.19h0a1.85,1.85,0,0,1,1.8-1.67h15.21a1.5,1.5,0,0,1,1.52,1.48,1.2,1.2,0,0,1,0,.19h0A1.86,1.86,0,0,1,181.63,52.71Z"/><path class="cls-14" d="M144.52,59.86H123a1.5,1.5,0,0,1-1.53-1.47,1.34,1.34,0,0,1,0-.2h0a1.84,1.84,0,0,1,1.81-1.66h21.5A1.5,1.5,0,0,1,146.34,58a1.09,1.09,0,0,1,0,.18h0A1.85,1.85,0,0,1,144.52,59.86Z"/><path class="cls-14" d="M163.85,59.86H150.09a1.48,1.48,0,0,1-1.52-1.47,1.34,1.34,0,0,1,0-.2h0a1.85,1.85,0,0,1,1.8-1.66h13.76A1.5,1.5,0,0,1,165.67,58a1.09,1.09,0,0,1,0,.18h0A1.85,1.85,0,0,1,163.85,59.86Z"/><path class="cls-14" d="M176.86,59.86h-7.44a1.48,1.48,0,0,1-1.52-1.47.67.67,0,0,1,0-.2h0a1.84,1.84,0,0,1,1.8-1.66h7.44A1.5,1.5,0,0,1,178.68,58a1.27,1.27,0,0,1,0,.2h0A1.86,1.86,0,0,1,176.86,59.86Z"/><path class="cls-14" d="M136.79,67h-14.4a1.51,1.51,0,0,1-1.53-1.48,1.28,1.28,0,0,1,0-.19h0a1.86,1.86,0,0,1,1.81-1.66h14.39a1.51,1.51,0,0,1,1.53,1.48c0,.06,0,.12,0,.18h0A1.86,1.86,0,0,1,136.79,67Z"/><path class="cls-14" d="M160.72,67H142.35a1.5,1.5,0,0,1-1.52-1.47,1.34,1.34,0,0,1,0-.2h0a1.84,1.84,0,0,1,1.81-1.66H161a1.51,1.51,0,0,1,1.53,1.47c0,.07,0,.13,0,.19h0A1.86,1.86,0,0,1,160.72,67Z"/><path class="cls-14" d="M180.38,67h-14.1a1.51,1.51,0,0,1-1.52-1.47,1.34,1.34,0,0,1,0-.2h0a1.84,1.84,0,0,1,1.81-1.66h14.09a1.5,1.5,0,0,1,1.52,1.47,1.2,1.2,0,0,1,0,.19h0A1.86,1.86,0,0,1,180.38,67Z"/><path class="cls-14" d="M142.15,74.16H121.77a1.5,1.5,0,0,1-1.53-1.47,1.21,1.21,0,0,1,0-.19h0a1.86,1.86,0,0,1,1.81-1.67h20.38A1.51,1.51,0,0,1,144,72.31a1.28,1.28,0,0,1,0,.19h0A1.86,1.86,0,0,1,142.15,74.16Z"/><path class="cls-14" d="M162.6,74.16H147.72a1.49,1.49,0,0,1-1.52-1.46,1.33,1.33,0,0,1,0-.2h0A1.86,1.86,0,0,1,148,70.83H162.9a1.5,1.5,0,0,1,1.53,1.48,1.28,1.28,0,0,1,0,.19h0A1.85,1.85,0,0,1,162.6,74.16Z"/><path class="cls-14" d="M177.37,74.16h-9.18a1.5,1.5,0,0,1-1.53-1.47c0-.06,0-.13,0-.19h0a1.84,1.84,0,0,1,1.81-1.67h9.2a1.51,1.51,0,0,1,1.53,1.48c0,.06,0,.12,0,.19h0A1.86,1.86,0,0,1,177.37,74.16Z"/><path class="cls-14" d="M138.78,81.31H121.16a1.5,1.5,0,0,1-1.53-1.49.91.91,0,0,1,0-.17h0A1.86,1.86,0,0,1,121.45,78h17.62a1.51,1.51,0,0,1,1.53,1.48,1.28,1.28,0,0,1,0,.19h0A1.84,1.84,0,0,1,138.78,81.31Z"/><path class="cls-14" d="M158.35,81.31h-14a1.49,1.49,0,0,1-1.52-1.47,1.21,1.21,0,0,1,0-.19h0A1.86,1.86,0,0,1,144.64,78h14a1.51,1.51,0,0,1,1.52,1.47,1.34,1.34,0,0,1,0,.2h0A1.84,1.84,0,0,1,158.35,81.31Z"/><path class="cls-14" d="M176.74,81.31H163.92a1.5,1.5,0,0,1-1.52-1.47,1.21,1.21,0,0,1,0-.19h0A1.84,1.84,0,0,1,164.22,78H177a1.5,1.5,0,0,1,1.52,1.48,1.2,1.2,0,0,1,0,.19h0A1.86,1.86,0,0,1,176.74,81.31Z"/><path class="cls-14" d="M132,88.46H120.52A1.5,1.5,0,0,1,119,87a1.27,1.27,0,0,1,0-.2h0a1.86,1.86,0,0,1,1.81-1.67h11.47a1.51,1.51,0,0,1,1.53,1.48c0,.06,0,.12,0,.19h0A1.86,1.86,0,0,1,132,88.46Z"/><path class="cls-14" d="M153.37,88.46H137.56A1.5,1.5,0,0,1,136,87a1.27,1.27,0,0,1,0-.2h0a1.86,1.86,0,0,1,1.81-1.67h15.81a1.5,1.5,0,0,1,1.52,1.48,1.2,1.2,0,0,1,0,.19h0A1.85,1.85,0,0,1,153.37,88.46Z"/><path class="cls-14" d="M177.44,88.46h-18.5A1.48,1.48,0,0,1,157.42,87a1.21,1.21,0,0,1,0-.19h0a1.86,1.86,0,0,1,1.81-1.67h18.5a1.51,1.51,0,0,1,1.53,1.48,1.28,1.28,0,0,1,0,.19h0A1.86,1.86,0,0,1,177.44,88.46Z"/><path class="cls-14" d="M137.53,95.61H119.91a1.48,1.48,0,0,1-1.52-1.47,1.28,1.28,0,0,1,0-.19h0a1.85,1.85,0,0,1,1.8-1.67h17.62a1.51,1.51,0,0,1,1.53,1.48,1.21,1.21,0,0,1,0,.19h0A1.85,1.85,0,0,1,137.53,95.61Z"/><path class="cls-14" d="M152.74,95.61H143.1a1.49,1.49,0,0,1-1.53-1.46,1.34,1.34,0,0,1,0-.2h0a1.86,1.86,0,0,1,1.81-1.67H153a1.5,1.5,0,0,1,1.52,1.47,1.27,1.27,0,0,1,0,.2h0A1.84,1.84,0,0,1,152.74,95.61Z"/><path class="cls-14" d="M177.88,95.61H158.32a1.49,1.49,0,0,1-1.53-1.46,1.34,1.34,0,0,1,0-.2h0a1.85,1.85,0,0,1,1.8-1.67h19.57a1.5,1.5,0,0,1,1.52,1.47,1.27,1.27,0,0,1,0,.2h0A1.83,1.83,0,0,1,177.88,95.61Z"/><path class="cls-14" d="M141.89,102.77H119.27a1.51,1.51,0,0,1-1.53-1.48,1.21,1.21,0,0,1,0-.19h0a1.85,1.85,0,0,1,1.81-1.66h22.63a1.49,1.49,0,0,1,1.52,1.47,1.21,1.21,0,0,1,0,.19h0A1.86,1.86,0,0,1,141.89,102.77Z"/><path class="cls-14" d="M158.72,102.77H147.47a1.51,1.51,0,0,1-1.53-1.48,1.21,1.21,0,0,1,0-.19h0a1.84,1.84,0,0,1,1.8-1.66H159a1.5,1.5,0,0,1,1.52,1.47,1.21,1.21,0,0,1,0,.19h0A1.86,1.86,0,0,1,158.72,102.77Z"/><path class="cls-14" d="M174.87,102.77H164.3a1.51,1.51,0,0,1-1.53-1.48,1.21,1.21,0,0,1,0-.19h0a1.85,1.85,0,0,1,1.81-1.66h10.57a1.49,1.49,0,0,1,1.52,1.47,1.21,1.21,0,0,1,0,.19h0A1.85,1.85,0,0,1,174.87,102.77Z"/><path class="cls-14" d="M133,109.92h-14.4a1.5,1.5,0,0,1-1.52-1.48,1.28,1.28,0,0,1,0-.19h0a1.84,1.84,0,0,1,1.81-1.66h14.39a1.5,1.5,0,0,1,1.53,1.46,1.27,1.27,0,0,1,0,.2h0A1.86,1.86,0,0,1,133,109.92Z"/><path class="cls-14" d="M159.47,109.92H138.61a1.51,1.51,0,0,1-1.53-1.47,1.34,1.34,0,0,1,0-.2h0a1.86,1.86,0,0,1,1.81-1.66h20.87a1.49,1.49,0,0,1,1.52,1.47,1.21,1.21,0,0,1,0,.19h0A1.85,1.85,0,0,1,159.47,109.92Z"/><path class="cls-14" d="M173.33,109.92h-8.28a1.51,1.51,0,0,1-1.53-1.48,1.28,1.28,0,0,1,0-.19h0a1.84,1.84,0,0,1,1.81-1.66h8.28a1.5,1.5,0,0,1,1.53,1.47,1.21,1.21,0,0,1,0,.19h0A1.85,1.85,0,0,1,173.33,109.92Z"/><path class="cls-14" d="M137.28,117.07H118a1.51,1.51,0,0,1-1.53-1.48,1.09,1.09,0,0,1,0-.18h0a1.84,1.84,0,0,1,1.81-1.67h19.26a1.5,1.5,0,0,1,1.53,1.47c0,.06,0,.13,0,.2h0A1.86,1.86,0,0,1,137.28,117.07Z"/><path class="cls-14" d="M161.09,117.07H142.85a1.51,1.51,0,0,1-1.53-1.48,1.09,1.09,0,0,1,0-.18h0a1.85,1.85,0,0,1,1.81-1.67h18.25a1.49,1.49,0,0,1,1.52,1.47,1.41,1.41,0,0,1,0,.2h0A1.85,1.85,0,0,1,161.09,117.07Z"/><path class="cls-14" d="M176,117.07h-9.33a1.51,1.51,0,0,1-1.53-1.48,1.09,1.09,0,0,1,0-.18h0a1.84,1.84,0,0,1,1.8-1.67h9.34a1.49,1.49,0,0,1,1.53,1.47,1.34,1.34,0,0,1,0,.2h0A1.86,1.86,0,0,1,176,117.07Z"/><path class="cls-14" d="M135,124.22H117.41a1.5,1.5,0,0,1-1.53-1.47c0-.07,0-.13,0-.2h0a1.85,1.85,0,0,1,1.81-1.66h17.62a1.49,1.49,0,0,1,1.52,1.47,1.21,1.21,0,0,1,0,.19h0A1.85,1.85,0,0,1,135,124.22Z"/><path class="cls-14" d="M158.21,124.22H140.59a1.51,1.51,0,0,1-1.53-1.48,1.28,1.28,0,0,1,0-.19h0a1.86,1.86,0,0,1,1.81-1.66h17.61a1.5,1.5,0,0,1,1.53,1.48,1.09,1.09,0,0,1,0,.18h0A1.85,1.85,0,0,1,158.21,124.22Z"/><path class="cls-14" d="M173,124.22h-9.2a1.5,1.5,0,0,1-1.53-1.47,1.34,1.34,0,0,1,0-.2h0a1.84,1.84,0,0,1,1.81-1.66h9.19a1.49,1.49,0,0,1,1.53,1.46,1.27,1.27,0,0,1,0,.2h0A1.85,1.85,0,0,1,173,124.22Z"/><path class="cls-14" d="M129.36,131.37H116.77a1.51,1.51,0,0,1-1.53-1.48,1.09,1.09,0,0,1,0-.18h0a1.86,1.86,0,0,1,1.81-1.67h12.59a1.51,1.51,0,0,1,1.53,1.47c0,.07,0,.13,0,.2h0A1.85,1.85,0,0,1,129.36,131.37Z"/><path class="cls-14" d="M152.86,131.37H134.93a1.5,1.5,0,0,1-1.52-1.47,1.15,1.15,0,0,1,0-.19h0a1.85,1.85,0,0,1,1.8-1.67h17.93a1.5,1.5,0,0,1,1.52,1.47,1.34,1.34,0,0,1,0,.2h0A1.84,1.84,0,0,1,152.86,131.37Z"/><path class="cls-14" d="M174.75,131.37H158.43a1.51,1.51,0,0,1-1.53-1.48,1.09,1.09,0,0,1,0-.18h0a1.86,1.86,0,0,1,1.81-1.67h16.33a1.51,1.51,0,0,1,1.52,1.47,1.34,1.34,0,0,1,0,.2h0A1.86,1.86,0,0,1,174.75,131.37Z"/><path class="cls-14" d="M130.54,138.52h-14.4a1.48,1.48,0,0,1-1.52-1.47,1.21,1.21,0,0,1,0-.19h0a1.85,1.85,0,0,1,1.8-1.67h14.4a1.5,1.5,0,0,1,1.53,1.47c0,.07,0,.13,0,.2h0A1.85,1.85,0,0,1,130.54,138.52Z"/><path class="cls-14" d="M147.87,138.52H136.13A1.5,1.5,0,0,1,134.6,137a1.09,1.09,0,0,1,0-.18h0a1.85,1.85,0,0,1,1.81-1.67h11.74a1.48,1.48,0,0,1,1.52,1.47,1.34,1.34,0,0,1,0,.2h0A1.83,1.83,0,0,1,147.87,138.52Z"/><path class="cls-14" d="M170.83,138.52H153.44a1.51,1.51,0,0,1-1.53-1.48c0-.06,0-.12,0-.18h0a1.87,1.87,0,0,1,1.82-1.67h17.38a1.5,1.5,0,0,1,1.53,1.47,1.34,1.34,0,0,1,0,.2h0A1.84,1.84,0,0,1,170.83,138.52Z"/><path class="cls-14" d="M133.15,145.68H115.54a1.51,1.51,0,0,1-1.53-1.49,1.09,1.09,0,0,1,0-.18h0a1.85,1.85,0,0,1,1.81-1.67h17.61a1.51,1.51,0,0,1,1.53,1.48V144h0A1.87,1.87,0,0,1,133.15,145.68Z"/><path class="cls-14" d="M156.35,145.68H138.74a1.51,1.51,0,0,1-1.53-1.48,1.21,1.21,0,0,1,0-.19h0a1.86,1.86,0,0,1,1.81-1.67h17.61a1.51,1.51,0,0,1,1.53,1.47,1.34,1.34,0,0,1,0,.2h0A1.86,1.86,0,0,1,156.35,145.68Z"/><path class="cls-14" d="M171.12,145.68h-9.2a1.51,1.51,0,0,1-1.53-1.48,1.15,1.15,0,0,1,0-.19h0a1.86,1.86,0,0,1,1.81-1.67h9.2a1.51,1.51,0,0,1,1.53,1.48,1.28,1.28,0,0,1,0,.19h0A1.86,1.86,0,0,1,171.12,145.68Z"/></g><path class="cls-3" d="M109.51,154a8.13,8.13,0,0,0,5.09,1.72h56.52a9.88,9.88,0,0,0,9.65-8.88L192.61,11.53A8.22,8.22,0,0,0,191.16,6Z"/><path class="cls-8" d="M153.29,125.43h-68A3.2,3.2,0,0,1,82,122.29c0-.13,0-.26,0-.38l7.09-81.12A3.93,3.93,0,0,1,93,37.27h68a3.18,3.18,0,0,1,3.25,3.13,2.55,2.55,0,0,1,0,.39l-7.09,81.12A3.94,3.94,0,0,1,153.29,125.43Z"/><g class="cls-15"><path class="cls-14" d="M153.29,125.43h-68A3.2,3.2,0,0,1,82,122.29c0-.13,0-.26,0-.38l7.09-81.12A3.93,3.93,0,0,1,93,37.27h68a3.18,3.18,0,0,1,3.25,3.13,2.55,2.55,0,0,1,0,.39l-7.09,81.12A3.94,3.94,0,0,1,153.29,125.43Z"/></g><path class="cls-16" d="M152.14,125.43h-68a3.2,3.2,0,0,1-3.25-3.14,2.36,2.36,0,0,1,0-.38L88,40.79a3.93,3.93,0,0,1,3.84-3.52h68a3.19,3.19,0,0,1,3.25,3.13c0,.13,0,.26,0,.39L156,121.91A3.94,3.94,0,0,1,152.14,125.43Z"/><path class="cls-17" d="M152.14,125.43h-68a3.2,3.2,0,0,1-3.25-3.14,2.36,2.36,0,0,1,0-.38L88,40.79a3.93,3.93,0,0,1,3.84-3.52h68a3.19,3.19,0,0,1,3.25,3.13c0,.13,0,.26,0,.39L156,121.91A3.94,3.94,0,0,1,152.14,125.43Z"/><path class="cls-18" d="M159.85,37.21h-68A3.93,3.93,0,0,0,88,40.73l-.56,6.39h75.11l.56-6.39a3.2,3.2,0,0,0-2.84-3.51Z"/><ellipse class="cls-10" cx="97.63" cy="57.71" rx="5.52" ry="5.06" transform="translate(-12.65 84.18) rotate(-44.09)"/><polygon class="cls-10" points="156.01 61.54 106.39 61.54 107.06 53.9 156.68 53.9 156.01 61.54"/><polygon class="cls-10" points="152.73 99.15 103.11 99.15 105.94 66.83 155.55 66.83 152.73 99.15"/><polygon class="cls-19" points="124.97 90.85 106.77 90.85 108.06 76.16 126.26 76.16 124.97 90.85"/><path class="cls-1" d="M132.9,77.88h-4.05a.58.58,0,0,1-.59-.59v-.07h0a.73.73,0,0,1,.72-.65h4.07a.57.57,0,0,1,.59.58v.07h0A.73.73,0,0,1,132.9,77.88Z"/><path class="cls-1" d="M143.47,77.88h-8.38a.58.58,0,0,1-.59-.59v-.07h0a.72.72,0,0,1,.71-.65h8.39a.58.58,0,0,1,.59.58.2.2,0,0,1,0,.07h0A.73.73,0,0,1,143.47,77.88Z"/><path class="cls-1" d="M151.65,77.88h-6a.59.59,0,0,1-.59-.59v-.07h0a.72.72,0,0,1,.71-.65h6a.58.58,0,0,1,.59.58.2.2,0,0,1,0,.07h0A.74.74,0,0,1,151.65,77.88Z"/><path class="cls-1" d="M137.07,80.69h-8.49a.58.58,0,0,1-.59-.58V80h0a.72.72,0,0,1,.71-.65h8.47a.59.59,0,0,1,.59.58.15.15,0,0,1,0,.07h0A.71.71,0,0,1,137.07,80.69Z"/><path class="cls-1" d="M144.65,80.69h-5.41a.59.59,0,0,1-.59-.58V80h0a.72.72,0,0,1,.71-.65h5.42a.59.59,0,0,1,.59.58.15.15,0,0,1,0,.07h0A.72.72,0,0,1,144.65,80.69Z"/><path class="cls-1" d="M149.77,80.69h-2.93a.58.58,0,0,1-.59-.58V80h0a.72.72,0,0,1,.71-.65h2.94a.59.59,0,0,1,.59.58.15.15,0,0,1,0,.07h0A.72.72,0,0,1,149.77,80.69Z"/><path class="cls-1" d="M134,83.51h-5.67a.59.59,0,0,1-.59-.59v-.07h0a.72.72,0,0,1,.71-.65h5.68a.58.58,0,0,1,.59.58v.07h0A.74.74,0,0,1,134,83.51Z"/><path class="cls-1" d="M143.42,83.51h-7.23a.59.59,0,0,1-.59-.59.17.17,0,0,1,0-.07h0a.72.72,0,0,1,.71-.65h7.21a.58.58,0,0,1,.59.58.17.17,0,0,1,0,.07h0A.73.73,0,0,1,143.42,83.51Z"/><path class="cls-1" d="M151.16,83.51h-5.54a.58.58,0,0,1-.59-.59v-.07h0a.72.72,0,0,1,.71-.65h5.54a.58.58,0,0,1,.59.58v.07h0A.73.73,0,0,1,151.16,83.51Z"/><path class="cls-1" d="M136.11,86.32h-8a.59.59,0,0,1-.59-.58.22.22,0,0,1,0-.08h0a.72.72,0,0,1,.71-.65h8a.58.58,0,0,1,.59.59v.06h0A.72.72,0,0,1,136.11,86.32Z"/><path class="cls-1" d="M144.16,86.32h-5.87a.58.58,0,0,1-.59-.58v-.08h0a.73.73,0,0,1,.71-.65h5.87a.58.58,0,0,1,.59.59v.06h0A.72.72,0,0,1,144.16,86.32Z"/><path class="cls-1" d="M150,86.32h-3.62a.58.58,0,0,1-.59-.58v-.08h0a.73.73,0,0,1,.71-.65h3.62a.6.6,0,0,1,.6.59s0,0,0,.06h0A.72.72,0,0,1,150,86.32Z"/><path class="cls-1" d="M134.78,89.14h-6.94a.59.59,0,0,1-.59-.59.17.17,0,0,1,0-.07h0a.71.71,0,0,1,.71-.65h6.92a.59.59,0,0,1,.6.58s0,0,0,.07h0A.73.73,0,0,1,134.78,89.14Z"/><path class="cls-1" d="M142.49,89.14H137a.59.59,0,0,1-.59-.59.17.17,0,0,1,0-.07h0a.73.73,0,0,1,.68-.65h5.51a.58.58,0,0,1,.59.58v.07h0A.75.75,0,0,1,142.49,89.14Z"/><path class="cls-1" d="M149.73,89.14h-5a.59.59,0,0,1-.59-.59v-.07h0a.73.73,0,0,1,.71-.65h5.05a.58.58,0,0,1,.59.58v.07h0A.74.74,0,0,1,149.73,89.14Z"/><path class="cls-1" d="M132.11,92H127.6a.58.58,0,0,1-.59-.58.22.22,0,0,1,0-.08h0a.73.73,0,0,1,.71-.65h4.52a.6.6,0,0,1,.59.59s0,0,0,.06h0A.72.72,0,0,1,132.11,92Z"/><path class="cls-1" d="M140.53,92H134.3a.58.58,0,0,1-.59-.58v-.08h0a.75.75,0,0,1,.72-.65h6.23a.6.6,0,0,1,.59.59s0,0,0,.06h0A.72.72,0,0,1,140.53,92Z"/><path class="cls-1" d="M150,92H142.7a.59.59,0,0,1-.59-.58.22.22,0,0,1,0-.08h0a.73.73,0,0,1,.71-.65h7.28a.6.6,0,0,1,.6.59s0,0,0,.06h0A.71.71,0,0,1,150,92Z"/><path class="cls-1" d="M134.29,94.77h-6.94a.59.59,0,0,1-.59-.59v-.07h0a.72.72,0,0,1,.71-.65h6.94A.58.58,0,0,1,135,94v.07h0A.73.73,0,0,1,134.29,94.77Z"/><path class="cls-1" d="M140.28,94.77h-3.8a.59.59,0,0,1-.59-.59v-.07h0a.72.72,0,0,1,.71-.65h3.8A.58.58,0,0,1,141,94v.07h0A.73.73,0,0,1,140.28,94.77Z"/><path class="cls-1" d="M150.17,94.77h-7.69a.6.6,0,0,1-.6-.59s0-.05,0-.07h0a.72.72,0,0,1,.71-.65h7.7a.58.58,0,0,1,.59.58v.07h0A.74.74,0,0,1,150.17,94.77Z"/><path class="cls-1" d="M136,97.58h-8.92a.58.58,0,0,1-.6-.58s0,0,0-.07h0a.73.73,0,0,1,.71-.66h8.91a.59.59,0,0,1,.59.59.2.2,0,0,1,0,.07h0A.71.71,0,0,1,136,97.58Z"/><path class="cls-1" d="M142.63,97.58H138.2a.58.58,0,0,1-.59-.58v-.07h0a.74.74,0,0,1,.71-.66h4.44a.59.59,0,0,1,.59.59.2.2,0,0,1,0,.07h0A.72.72,0,0,1,142.63,97.58Z"/><path class="cls-1" d="M149,97.58h-4.16a.58.58,0,0,1-.59-.58v-.07h0a.74.74,0,0,1,.71-.66h4.17a.6.6,0,0,1,.59.59.2.2,0,0,1,0,.07h0A.72.72,0,0,1,149,97.58Z"/><g class="cls-20"><path class="cls-14" d="M132.9,77.88h-4.05a.58.58,0,0,1-.59-.59v-.07h0a.73.73,0,0,1,.72-.65h4.07a.57.57,0,0,1,.59.58v.07h0A.73.73,0,0,1,132.9,77.88Z"/><path class="cls-14" d="M143.47,77.88h-8.38a.58.58,0,0,1-.59-.59v-.07h0a.72.72,0,0,1,.71-.65h8.39a.58.58,0,0,1,.59.58.2.2,0,0,1,0,.07h0A.73.73,0,0,1,143.47,77.88Z"/><path class="cls-14" d="M151.65,77.88h-6a.59.59,0,0,1-.59-.59v-.07h0a.72.72,0,0,1,.71-.65h6a.58.58,0,0,1,.59.58.2.2,0,0,1,0,.07h0A.74.74,0,0,1,151.65,77.88Z"/><path class="cls-14" d="M137.07,80.69h-8.49a.58.58,0,0,1-.59-.58V80h0a.72.72,0,0,1,.71-.65h8.47a.59.59,0,0,1,.59.58.15.15,0,0,1,0,.07h0A.71.71,0,0,1,137.07,80.69Z"/><path class="cls-14" d="M144.65,80.69h-5.41a.59.59,0,0,1-.59-.58V80h0a.72.72,0,0,1,.71-.65h5.42a.59.59,0,0,1,.59.58.15.15,0,0,1,0,.07h0A.72.72,0,0,1,144.65,80.69Z"/><path class="cls-14" d="M149.77,80.69h-2.93a.58.58,0,0,1-.59-.58V80h0a.72.72,0,0,1,.71-.65h2.94a.59.59,0,0,1,.59.58.15.15,0,0,1,0,.07h0A.72.72,0,0,1,149.77,80.69Z"/><path class="cls-14" d="M134,83.51h-5.67a.59.59,0,0,1-.59-.59v-.07h0a.72.72,0,0,1,.71-.65h5.68a.58.58,0,0,1,.59.58v.07h0A.74.74,0,0,1,134,83.51Z"/><path class="cls-14" d="M143.42,83.51h-7.23a.59.59,0,0,1-.59-.59.17.17,0,0,1,0-.07h0a.72.72,0,0,1,.71-.65h7.21a.58.58,0,0,1,.59.58.17.17,0,0,1,0,.07h0A.73.73,0,0,1,143.42,83.51Z"/><path class="cls-14" d="M151.16,83.51h-5.54a.58.58,0,0,1-.59-.59v-.07h0a.72.72,0,0,1,.71-.65h5.54a.58.58,0,0,1,.59.58v.07h0A.73.73,0,0,1,151.16,83.51Z"/><path class="cls-14" d="M136.11,86.32h-8a.59.59,0,0,1-.59-.58.22.22,0,0,1,0-.08h0a.72.72,0,0,1,.71-.65h8a.58.58,0,0,1,.59.59v.06h0A.72.72,0,0,1,136.11,86.32Z"/><path class="cls-14" d="M144.16,86.32h-5.87a.58.58,0,0,1-.59-.58v-.08h0a.73.73,0,0,1,.71-.65h5.87a.58.58,0,0,1,.59.59v.06h0A.72.72,0,0,1,144.16,86.32Z"/><path class="cls-14" d="M150,86.32h-3.62a.58.58,0,0,1-.59-.58v-.08h0a.73.73,0,0,1,.71-.65h3.62a.6.6,0,0,1,.6.59s0,0,0,.06h0A.72.72,0,0,1,150,86.32Z"/><path class="cls-14" d="M134.78,89.14h-6.94a.59.59,0,0,1-.59-.59.17.17,0,0,1,0-.07h0a.71.71,0,0,1,.71-.65h6.92a.59.59,0,0,1,.6.58s0,0,0,.07h0A.73.73,0,0,1,134.78,89.14Z"/><path class="cls-14" d="M142.49,89.14H137a.59.59,0,0,1-.59-.59.17.17,0,0,1,0-.07h0a.73.73,0,0,1,.68-.65h5.51a.58.58,0,0,1,.59.58v.07h0A.75.75,0,0,1,142.49,89.14Z"/><path class="cls-14" d="M149.73,89.14h-5a.59.59,0,0,1-.59-.59v-.07h0a.73.73,0,0,1,.71-.65h5.05a.58.58,0,0,1,.59.58v.07h0A.74.74,0,0,1,149.73,89.14Z"/><path class="cls-14" d="M132.11,92H127.6a.58.58,0,0,1-.59-.58.22.22,0,0,1,0-.08h0a.73.73,0,0,1,.71-.65h4.52a.6.6,0,0,1,.59.59s0,0,0,.06h0A.72.72,0,0,1,132.11,92Z"/><path class="cls-14" d="M140.53,92H134.3a.58.58,0,0,1-.59-.58v-.08h0a.75.75,0,0,1,.72-.65h6.23a.6.6,0,0,1,.59.59s0,0,0,.06h0A.72.72,0,0,1,140.53,92Z"/><path class="cls-14" d="M150,92H142.7a.59.59,0,0,1-.59-.58.22.22,0,0,1,0-.08h0a.73.73,0,0,1,.71-.65h7.28a.6.6,0,0,1,.6.59s0,0,0,.06h0A.71.71,0,0,1,150,92Z"/><path class="cls-14" d="M134.29,94.77h-6.94a.59.59,0,0,1-.59-.59v-.07h0a.72.72,0,0,1,.71-.65h6.94A.58.58,0,0,1,135,94v.07h0A.73.73,0,0,1,134.29,94.77Z"/><path class="cls-14" d="M140.28,94.77h-3.8a.59.59,0,0,1-.59-.59v-.07h0a.72.72,0,0,1,.71-.65h3.8A.58.58,0,0,1,141,94v.07h0A.73.73,0,0,1,140.28,94.77Z"/><path class="cls-14" d="M150.17,94.77h-7.69a.6.6,0,0,1-.6-.59s0-.05,0-.07h0a.72.72,0,0,1,.71-.65h7.7a.58.58,0,0,1,.59.58v.07h0A.74.74,0,0,1,150.17,94.77Z"/><path class="cls-14" d="M136,97.58h-8.92a.58.58,0,0,1-.6-.58s0,0,0-.07h0a.73.73,0,0,1,.71-.66h8.91a.59.59,0,0,1,.59.59.2.2,0,0,1,0,.07h0A.71.71,0,0,1,136,97.58Z"/><path class="cls-14" d="M142.63,97.58H138.2a.58.58,0,0,1-.59-.58v-.07h0a.74.74,0,0,1,.71-.66h4.44a.59.59,0,0,1,.59.59.2.2,0,0,1,0,.07h0A.72.72,0,0,1,142.63,97.58Z"/><path class="cls-14" d="M149,97.58h-4.16a.58.58,0,0,1-.59-.58v-.07h0a.74.74,0,0,1,.71-.66h4.17a.6.6,0,0,1,.59.59.2.2,0,0,1,0,.07h0A.72.72,0,0,1,149,97.58Z"/></g><path class="cls-16" d="M112.74,119.14H89.6a2.36,2.36,0,0,1-2.41-2.3,1.67,1.67,0,0,1,0-.32l.58-6.64a2.94,2.94,0,0,1,2.85-2.62h23.14a2.35,2.35,0,0,1,2.4,2.3,1.72,1.72,0,0,1,0,.32l-.58,6.64A3,3,0,0,1,112.74,119.14Z"/><path class="cls-14" d="M148.36,119.14H125.22a2.35,2.35,0,0,1-2.4-2.3c0-.11,0-.22,0-.32l.59-6.64a2.94,2.94,0,0,1,2.85-2.62H149.4a2.35,2.35,0,0,1,2.4,2.29,1.82,1.82,0,0,1,0,.33l-.59,6.64A2.94,2.94,0,0,1,148.36,119.14Z"/><path class="cls-14" d="M93.75,114.92a1.66,1.66,0,0,1-.59-.27l.32-.59a1.57,1.57,0,0,0,.48.25,2,2,0,0,0,.58.09,1.08,1.08,0,0,0,.5-.09.33.33,0,0,0,.17-.26.24.24,0,0,0-.07-.2.63.63,0,0,0-.23-.12l-.38-.11a3.86,3.86,0,0,1-.58-.17.93.93,0,0,1-.39-.29.7.7,0,0,1-.12-.53,1,1,0,0,1,.19-.52,1.39,1.39,0,0,1,.5-.37,2.06,2.06,0,0,1,.78-.13,2.38,2.38,0,0,1,.59.07,1.92,1.92,0,0,1,.51.22l-.29.58a1.73,1.73,0,0,0-.89-.25.91.91,0,0,0-.48.1.34.34,0,0,0-.18.27.25.25,0,0,0,.16.25,2.4,2.4,0,0,0,.52.16,4.06,4.06,0,0,1,.59.19.81.81,0,0,1,.38.28A.67.67,0,0,1,96,114a.91.91,0,0,1-.2.52,1.24,1.24,0,0,1-.51.37,2,2,0,0,1-.77.14A2.55,2.55,0,0,1,93.75,114.92Z"/><path class="cls-14" d="M99.72,111.68,99.43,115h-.76l.12-1.35H97.3L97.18,115h-.76l.29-3.29h.75l-.11,1.3h1.49l.12-1.3Z"/><path class="cls-14" d="M102.42,114.26H100.9l-.36.71h-.76l1.76-3.29h.76l1.17,3.29h-.8Zm-.19-.58-.41-1.26-.63,1.26Z"/><path class="cls-14" d="M105.91,115l-.56-.92h-.7l-.08.92h-.76l.29-3.29h1.42a1.56,1.56,0,0,1,.74.15,1,1,0,0,1,.47.41,1.18,1.18,0,0,1,.12.64,1.21,1.21,0,0,1-.77,1l.64,1.06Zm0-2.52a.79.79,0,0,0-.51-.15h-.63l-.1,1.15h.63a.86.86,0,0,0,.53-.15.58.58,0,0,0,.22-.42.54.54,0,0,0-.13-.43Z"/><path class="cls-14" d="M109.86,114.36l0,.59h-2.55l.29-3.29h2.51l-.06.58h-1.72l-.07.72h1.53l0,.59h-1.53l-.06.76Z"/><path class="cls-1" d="M128.2,114.81a1.4,1.4,0,0,1-.59-.59,1.56,1.56,0,0,1-.16-.88,1.83,1.83,0,0,1,.31-.87,1.86,1.86,0,0,1,.69-.59,2,2,0,0,1,.94-.22,1.9,1.9,0,0,1,.75.15,1.37,1.37,0,0,1,.55.43l-.53.46a.92.92,0,0,0-.79-.39,1.21,1.21,0,0,0-.56.13,1,1,0,0,0-.4.38,1.14,1.14,0,0,0-.1,1.09.86.86,0,0,0,.34.37,1.08,1.08,0,0,0,.53.14A1.17,1.17,0,0,0,130,114l.45.46a1.58,1.58,0,0,1-.62.43,2,2,0,0,1-.79.15A1.71,1.71,0,0,1,128.2,114.81Z"/><path class="cls-1" d="M133.12,114.26H131.6l-.36.71h-.78l1.76-3.29H133l1.17,3.29h-.8Zm-.19-.58-.41-1.26-.63,1.26Z"/><path class="cls-1" d="M137.8,111.68l-.29,3.29h-.63l-1.46-2-.18,2h-.75l.29-3.29h.63l1.46,2,.17-2Z"/><path class="cls-1" d="M139,114.81a1.43,1.43,0,0,1-.58-.59,1.58,1.58,0,0,1-.16-.88,1.84,1.84,0,0,1,.32-.87,1.76,1.76,0,0,1,.68-.59,2,2,0,0,1,.94-.22,2,2,0,0,1,.76.15,1.52,1.52,0,0,1,.54.43l-.53.46a.92.92,0,0,0-.79-.39,1.19,1.19,0,0,0-.59.13,1.12,1.12,0,0,0-.4.38,1.17,1.17,0,0,0-.19.54,1,1,0,0,0,.09.55.81.81,0,0,0,.34.37,1.11,1.11,0,0,0,1.39-.26l.46.46a1.69,1.69,0,0,1-.63.43,1.9,1.9,0,0,1-.78.15A1.69,1.69,0,0,1,139,114.81Z"/><path class="cls-1" d="M144.33,114.36l-.05.59h-2.55l.29-3.29h2.48l-.05.58h-1.73l-.06.72h1.52l-.05.59H142.6l-.06.76Z"/><path class="cls-1" d="M145.17,111.68h.76l-.23,2.67h1.64l-.05.62h-2.41Z"/><polygon class="cls-21" points="124.97 90.85 125.31 86.94 121.82 83.11 115.56 88.87 113.14 86.2 108.09 90.85 124.97 90.85"/><path class="cls-21" d="M118.62,81.74a2.15,2.15,0,0,1-2.12,2,1.75,1.75,0,0,1-1.77-1.75,1.41,1.41,0,0,1,0-.2,2.17,2.17,0,0,1,2.12-1.95,1.76,1.76,0,0,1,1.77,1.76A1.15,1.15,0,0,1,118.62,81.74Z"/><rect class="cls-22" x="112.58" y="69.33" width="36.66" height="2.72" rx="0.5"/><g id="freepik--Shadow--inject-48"><ellipse id="freepik--path--inject-48" class="cls-23" cx="99.5" cy="189.61" rx="99.5" ry="5.82"/></g><g id="freepik--Plant--inject-48"><path class="cls-24" d="M31.34,167.25c-2.85-.64-3.75,2.23-4,4.06A44.63,44.63,0,0,0,25.16,166c1.4-1.43,5.46-5.84,2.43-5.5-2.42.28-2.89,2.84-2.92,4.51a33.26,33.26,0,0,0-3-4.76c.85-1.11,4.29-5.78,1.71-5.42-2.32.33-2.16,3.67-2,5.06a25.25,25.25,0,0,0-1.81-2.05.82.82,0,0,0-1.16,0c-1.52-1.38-5.33-4.39-6.8-1.28s4.35,2.45,6.6,2.08a.78.78,0,0,0,.2.38,25.83,25.83,0,0,1,3.23,4.06c-1.76-.81-5.81-2.33-6.82.41-1.11,3.05,5.38.84,7.19.18A36.18,36.18,0,0,1,24.7,169c-2-.72-6.9-2.16-7,1-.11,3.31,5.43.64,7.26-.35.56,1.45,1,2.9,1.43,4.3-1.78-.12-5.91,0-6.07,3.26-.16,3.43,4.54-.88,6.25-2.54A54.06,54.06,0,0,1,28.35,186l1.64,0a54.25,54.25,0,0,0-1.52-10.53c-.22-.9-.47-1.86-.78-2.87C29.41,171.47,34.88,168,31.34,167.25Z"/><path class="cls-25" d="M31.34,167.25c-2.85-.64-3.75,2.23-4,4.06A44.63,44.63,0,0,0,25.16,166c1.4-1.43,5.46-5.84,2.43-5.5-2.42.28-2.89,2.84-2.92,4.51a33.26,33.26,0,0,0-3-4.76c.85-1.11,4.29-5.78,1.71-5.42-2.32.33-2.16,3.67-2,5.06a25.25,25.25,0,0,0-1.81-2.05.82.82,0,0,0-1.16,0c-1.52-1.38-5.33-4.39-6.8-1.28s4.35,2.45,6.6,2.08a.78.78,0,0,0,.2.38,25.83,25.83,0,0,1,3.23,4.06c-1.76-.81-5.81-2.33-6.82.41-1.11,3.05,5.38.84,7.19.18A36.18,36.18,0,0,1,24.7,169c-2-.72-6.9-2.16-7,1-.11,3.31,5.43.64,7.26-.35.56,1.45,1,2.9,1.43,4.3-1.78-.12-5.91,0-6.07,3.26-.16,3.43,4.54-.88,6.25-2.54A54.06,54.06,0,0,1,28.35,186l1.64,0a54.25,54.25,0,0,0-1.52-10.53c-.22-.9-.47-1.86-.78-2.87C29.41,171.47,34.88,168,31.34,167.25Z"/><path class="cls-24" d="M28.89,187.38s-17-1.83-8.85-4.92-13.68-2.68-8.72-5.23S4.14,172.88,8.65,170c3.75-2.41,9.07,6.6,11.65,3.5s3.76,7.26,5.9,4C29.42,172.67,34.38,181.83,28.89,187.38Z"/><path class="cls-24" d="M28.51,187.38s19.27-5.28,9.82-7.83,13.15-5.45,7.28-7.86,5.9-7,1.53-9.58C42.38,159.3,37.49,173,34.2,170c-5-4.58-1.82,9.27-4.45,5.89S21.49,181.29,28.51,187.38Z"/><path class="cls-26" d="M28.51,187.38s19.27-5.28,9.82-7.83,13.15-5.45,7.28-7.86,5.9-7,1.53-9.58C42.38,159.3,37.49,173,34.2,170c-5-4.58-1.82,9.27-4.45,5.89S21.49,181.29,28.51,187.38Z"/></g><path class="cls-1" d="M108.73,168.55A7.15,7.15,0,1,1,123,168q0,.3,0,.6l-.81,19h11.69l-5-44.33h-26l-5,44.33h11.7Z"/><path class="cls-3" d="M108.73,168.55A7.15,7.15,0,1,1,123,168q0,.3,0,.6l-.81,19h11.69l-5-44.33h-26l-5,44.33h11.7Z"/><path class="cls-1" d="M106,168.55a7.15,7.15,0,1,1,14.28-.6q0,.3,0,.6l-.82,19h11.7l-5-44.33h-26l-5,44.33h11.7Z"/><path class="cls-21" d="M106,168.55a7.15,7.15,0,1,1,14.28-.6q0,.3,0,.6l-.82,19h11.7l-5-44.33h-26l-5,44.33h11.7Z"/><rect class="cls-4" x="65.74" y="136.29" width="71.57" height="6.97"/><path class="cls-1" d="M42.05,168.55a7.14,7.14,0,1,1,14.27-.6q0,.3,0,.6l-.81,19H67.2l-5.05-44.33H36.21l-5.05,44.33h11.7Z"/><path class="cls-3" d="M42.05,168.55a7.14,7.14,0,1,1,14.27-.6q0,.3,0,.6l-.81,19H67.2l-5.05-44.33H36.21l-5.05,44.33h11.7Z"/><path class="cls-1" d="M39.26,168.55a7.15,7.15,0,1,1,14.28-.6q0,.3,0,.6l-.81,19H64.42l-5-44.33H33.43l-5.05,44.33h11.7Z"/><path class="cls-21" d="M39.26,168.55a7.15,7.15,0,1,1,14.28-.6q0,.3,0,.6l-.81,19H64.42l-5-44.33H33.43l-5.05,44.33h11.7Z"/><rect class="cls-5" x="25.14" y="136.29" width="42.06" height="6.97"/><polygon class="cls-7" points="119.33 170.99 125.87 183.56 130.86 181.69 126.78 168.53 119.33 170.99"/><path class="cls-27" d="M132.27,181a.16.16,0,0,1-.15-.1.14.14,0,0,1,0-.17c.08-.09,2.07-1.86,3.21-1.8a.82.82,0,0,1,.56.26.57.57,0,0,1,.15.63c-.19.41-1,.73-1.79.91A11.41,11.41,0,0,1,132.27,181Zm.45-.31c1.24-.12,2.87-.48,3.08-1,0-.07,0-.17-.1-.33a.44.44,0,0,0-.35-.15.76.76,0,0,0-.3,0,7,7,0,0,0-2.31,1.44Z"/><path class="cls-27" d="M132.21,181.05a.15.15,0,0,1-.1-.13,4.53,4.53,0,0,1,.46-2.72,1.14,1.14,0,0,1,.8-.44c.43-.06.63.13.63.3.3.7-.95,2.44-1.65,2.95a.06.06,0,0,1-.06,0A.2.2,0,0,1,132.21,181.05Zm1.12-3a.77.77,0,0,0-.49.3,3.76,3.76,0,0,0-.43,2.18c.7-.64,1.48-2,1.35-2.4,0,0-.07-.15-.35-.11h-.08Z"/><path class="cls-1" d="M131.43,180.28l-7.06,1.52a.59.59,0,0,0-.46.57v6a1,1,0,0,0,1,1h.21c2.54-.6,4.76-1.23,7.94-1.91,3.74-.81,2.89-.16,7.29-1.05,2.66-.54,2.5-3.66,1.35-3.56-5.29.46-6.16-1-8.54-2.39A2.34,2.34,0,0,0,131.43,180.28Z"/><path class="cls-9" d="M68,119.23S45.07,142,72.71,142c12.07,0,32.07-4,32.07-4s1.61,5.09,4.33,13.89,14,29,14,29l7.63-2.8s-11.09-42.49-16.22-49.79-36-8.27-36-8.27Z"/><path class="cls-28" d="M68,119.23S45.07,142,72.71,142c12.07,0,32.07-4,32.07-4s1.61,5.09,4.33,13.89,14,29,14,29l7.63-2.8s-11.09-42.49-16.22-49.79-36-8.27-36-8.27Z"/><polygon class="cls-29" points="120.73 179.52 122.12 182.05 131.42 178.61 130.63 175.64 120.73 179.52"/><polygon class="cls-7" points="110.6 170.68 112.49 184.8 106.81 186.19 102.4 173.16 110.6 170.68"/><path class="cls-27" d="M114.3,185.4a.15.15,0,0,1-.14-.1.15.15,0,0,1,0-.18c.09-.08,2.07-1.85,3.21-1.79a.81.81,0,0,1,.56.25.6.6,0,0,1,.16.64c-.19.41-1,.73-1.8.91A11.41,11.41,0,0,1,114.3,185.4Zm.45-.31c1.27-.12,2.87-.48,3.08-1,0-.07,0-.17-.1-.34a.43.43,0,0,0-.35-.14.76.76,0,0,0-.3,0,7,7,0,0,0-2.35,1.44Z"/><path class="cls-27" d="M114.22,185.4a.14.14,0,0,1-.1-.12,4.56,4.56,0,0,1,.47-2.72,1.15,1.15,0,0,1,.79-.45c.43-.05.64.14.64.31.3.7-1,2.44-1.65,3h-.07A.11.11,0,0,1,114.22,185.4Zm1.12-3a.77.77,0,0,0-.49.3,3.72,3.72,0,0,0-.43,2.17c.7-.63,1.48-2,1.35-2.39,0,0-.06-.15-.34-.11h-.09Z"/><path class="cls-1" d="M113.39,184.63l-7.06,1.53a.59.59,0,0,0-.46.57l0,6a1,1,0,0,0,1,1h0a.67.67,0,0,0,.2,0c2.55-.59,4.77-1.22,7.94-1.9,3.75-.81,2.9-.16,7.31-1.05,2.65-.54,2.49-3.66,1.33-3.56-5.28.46-6.15-1-8.53-2.39A2.36,2.36,0,0,0,113.39,184.63Z"/><path class="cls-29" d="M50.18,120.68s-4,22.74,8.12,22,32.26-4,32.26-4a101.14,101.14,0,0,0,2.88,15.34c2.35,8.91,10.45,31.81,10.45,31.81l8.38-2.78s-5.32-49-10.46-56.3-41.09-5.4-41.09-5.4Z"/><polygon class="cls-29" points="102.4 184.4 103.57 186.97 113.26 183.77 113.01 180.79 102.4 184.4"/><path class="cls-9" d="M96.44,73.23H94A1.14,1.14,0,0,0,93,74l-3,10.32a1,1,0,0,0,.65,1.18,1.17,1.17,0,0,0,.27,0h2Z"/><path class="cls-8" d="M96.44,73.23H94A1.14,1.14,0,0,0,93,74l-3,10.32a1,1,0,0,0,.65,1.18,1.17,1.17,0,0,0,.27,0h2Z"/><path class="cls-18" d="M97,85.58H92.07a1,1,0,0,1-.95-1,1.09,1.09,0,0,1,0-.26l3-10.32a1.12,1.12,0,0,1,1.08-.81h4.91a1,1,0,0,1,1,1,.82.82,0,0,1,0,.26l-3,10.31A1.12,1.12,0,0,1,97,85.58Z"/><path class="cls-3" d="M95.81,76.31H95a.16.16,0,0,1-.15-.16v0l.49-1.69a.2.2,0,0,1,.19-.14h.8a.16.16,0,0,1,.16.16s0,0,0,0L96,76.17A.2.2,0,0,1,95.81,76.31Z"/><path class="cls-7" d="M80.91,86.58s3.81,10.58,6,10.81S89.55,87.27,91,84.16c.69-1.52,4.67-4.83,4.67-4.83a2.65,2.65,0,0,1,3.74-.07c.1.11.2.22.29.34h0a2.64,2.64,0,0,1,.4,2.35l-.44,1.43a2.69,2.69,0,0,1-1.55,1.68l-4.57,1.82s.7,18.57-5.67,19.05-12.71-16-12.71-16Z"/><path class="cls-1" d="M73.56,78.45c2,.85,6.67,3.65,10,12.09,0,0-3.24.09-7.39,3.42,0,0-3.62-7.7-3.58-14.85a.71.71,0,0,1,1-.66Z"/><path class="cls-12" d="M73.56,79.4l-.94,1.33A42.68,42.68,0,0,0,76.15,94l.56-.42c.64,1.31,1.41,2.86,2.31,4.41C78.19,84.23,73.56,79.4,73.56,79.4Z"/><path class="cls-1" d="M45.69,77.37a1,1,0,0,0-.49,1c.63,3.25,3.31,17.39,4.09,26a141.6,141.6,0,0,1,.35,17.11s15.22,2.08,28.92-1.53a123.6,123.6,0,0,1-2-18.19c-.31-11,2.64-21-6.25-24.78A29.71,29.71,0,0,0,45.69,77.37Z"/><path class="cls-12" d="M71.5,85.65c1.19-.3-.13-5.7-.91-8.53L70.3,77a30.41,30.41,0,0,0-15.51-2.26c.24,2.29,1.35,11.46,4,11.46,3.07,0,7.15-1.91,7.15-1.91S69.88,86.05,71.5,85.65Z"/><path class="cls-1" d="M68.62,70.68c-17.06,1.58-18.2-1.07-17.53-5.85.55-4,1.18-1.65,1.12-3.82s.11-5.77,2.48-7.59C56.38,46,61.23,46,66.65,46s4,1.53,8.54,2.68,1.27,6.05,0,7.64C75.19,56.35,79.57,69.67,68.62,70.68Z"/><path class="cls-7" d="M60.75,64.18c.36,3.35-.44,8.8-3,10.55a21.1,21.1,0,0,0,7.89,7.91A7.41,7.41,0,0,0,69,76c-3.59-1.22-3.32-4.1-2.5-6.6Z"/><path class="cls-12" d="M62.18,68c0,1.71,2.13,3.36,3.81,4a10.08,10.08,0,0,1,.54-2.55l-4-3.58A7.36,7.36,0,0,0,62.18,68Z"/><path class="cls-7" d="M57.08,58.24c1.4,5.36,1.88,7.64,5.16,9.89,4.93,3.38,11.19.49,11.44-5.18.2-5.09-2.11-13-7.83-14.1a7.54,7.54,0,0,0-8.75,9.39Z"/><path class="cls-7" d="M56.64,62.78a4.08,4.08,0,0,0,2.37,2c1.36.4,2.07-.81,1.71-2.1s-1.4-2.79-2.78-2.63A1.83,1.83,0,0,0,56.4,62.1,2,2,0,0,0,56.64,62.78Z"/><path class="cls-1" d="M59.57,47.49c-1,1.65,1.43,4.69,6.45,4.4,3.77-.22,8.52,3.82,8.13-.55C73.86,47.34,64.36,45.44,59.57,47.49Z"/><path class="cls-1" d="M62.34,48.7c2.62,2,.88,5.66-.38,7.31s-3.18,3.18-1.7,5.62,2.54,9.13-2.26,8-4.58-9.18-3.18-12.88S59.23,46.31,62.34,48.7Z"/><path class="cls-30" d="M69.61,59.53a11.8,11.8,0,0,0,1.27,3,1.88,1.88,0,0,1-1.62.14Z"/><path class="cls-1" d="M64.17,56a.21.21,0,0,1-.1-.06.23.23,0,0,1,0-.31h0A2.53,2.53,0,0,1,66.34,55a.21.21,0,0,1,.16.26h0a.24.24,0,0,1-.27.16,2.12,2.12,0,0,0-1.87.55A.22.22,0,0,1,64.17,56Z"/><path class="cls-1" d="M73.63,57a.18.18,0,0,1-.09-.06,2.17,2.17,0,0,0-1.83-.69.21.21,0,0,1-.25-.17h0a.23.23,0,0,1,.18-.26h0a2.58,2.58,0,0,1,2.22.83.21.21,0,0,1,0,.3.22.22,0,0,1-.24.06Z"/><path class="cls-1" d="M66.56,58.47c0,.44.16.83.45.86s.57-.3.64-.75-.16-.83-.45-.86A.7.7,0,0,0,66.56,58.47Z"/><path class="cls-1" d="M71.58,59c0,.44.15.82.45.86s.56-.31.63-.76-.15-.83-.44-.86S71.65,58.54,71.58,59Z"/><path class="cls-1" d="M72.06,58.25l1.11-.2S72.53,58.82,72.06,58.25Z"/><path class="cls-1" d="M67,57.72l1.11-.19S67.47,58.31,67,57.72Z"/><path class="cls-31" d="M47.83,93.3c4.94-7,1.72-12.09,1.72-12.09l-3.72.5C46.38,84.71,47.14,89,47.83,93.3Z"/><path class="cls-1" d="M63.2,50.8a8.39,8.39,0,0,0,4.22,1.79.48.48,0,0,1,.41.53.47.47,0,0,1-.31.38C66.15,54,64.14,54.12,63.2,50.8Z"/><path class="cls-1" d="M68.37,64.91a4,4,0,0,0,.69,0,.15.15,0,0,0,.1-.14h0a.12.12,0,0,0-.14-.1,3.28,3.28,0,0,1-2.84-.79A.12.12,0,1,0,66,64,3.41,3.41,0,0,0,68.37,64.91Z"/><path class="cls-1" d="M40.9,91.51s16.7-7.13,5.15-13.66a1.34,1.34,0,0,0-1.45.08L34.35,85.42A14.73,14.73,0,0,1,40.9,91.51Z"/><path class="cls-1" d="M57.67,73.86l7.92,8.27,2.29-6.85,1.91.9s2.66,7.88.36,7.88a13.9,13.9,0,0,1-4.24-.7,16.15,16.15,0,0,1-5.72.89c-3.56,0-4.55-10-4.55-10Z"/><path class="cls-32" d="M57.67,73.86l7.92,8.27,2.29-6.85,1.91.9s2.66,7.88.36,7.88a13.9,13.9,0,0,1-4.24-.7,16.15,16.15,0,0,1-5.72.89c-3.56,0-4.55-10-4.55-10Z"/></g></g></svg>