<svg xmlns="http://www.w3.org/2000/svg" xmlns:xlink="http://www.w3.org/1999/xlink" viewBox="0 0 195.96 195.7"><defs><style>.cls-1{fill:#5aa556;}.cls-2{fill:#f5f5f5;}.cls-3{fill:#407bff;}.cls-4{fill:#d3d3d3;}.cls-21,.cls-5{fill:#fff;}.cls-6{fill:url(#linear-gradient);}.cls-7{fill:#6b6b6b;}.cls-8{fill:#2e353a;}.cls-9{fill:#b97964;}.cls-10,.cls-17,.cls-21{isolation:isolate;}.cls-10{opacity:0.2;}.cls-11{fill:#a24e3f;}.cls-12{fill:#de5753;}.cls-13{fill:#263238;}.cls-14{fill:#4c4c4c;}.cls-15{fill:#a8a8a8;}.cls-16{fill:#ebb376;}.cls-17{opacity:0.1;}.cls-18{fill:#ff725e;}.cls-19{fill:#f76252;}.cls-20{fill:#82524d;}.cls-21{opacity:0.5;}.cls-22{fill:#d58745;}.cls-23{fill:#9b9b9b;}.cls-24{fill:#282828;}.cls-25{fill:#e0e0e0;}</style><linearGradient id="linear-gradient" x1="59.93" y1="18.8" x2="60.26" y2="18.8" gradientUnits="userSpaceOnUse"><stop offset="0" stop-color="#00ffaf"/><stop offset="0.06" stop-color="#00edad"/><stop offset="0.32" stop-color="#00a6a7"/><stop offset="0.55" stop-color="#006ea2"/><stop offset="0.75" stop-color="#00469f"/><stop offset="0.91" stop-color="#002d9d"/><stop offset="1" stop-color="#00249c"/></linearGradient></defs><g id="Layer_2" data-name="Layer 2"><g id="Layer_1-2" data-name="Layer 1"><path class="cls-1" d="M40.23,145.46s-3,1.1-2.1,3.7S48.47,156,48.47,156s4-3.63.32-9.52S40.31,143.6,40.23,145.46Z"/><path class="cls-1" d="M36.87,127.21s-1.46-1.18.12-1.75,9.32-.42,9.41,7.25c0,0-9,1.5-10.14-1.42S36.87,127.21,36.87,127.21Z"/><g id="freepik--Shadow--inject-1"><ellipse id="freepik--path--inject-1" class="cls-2" cx="97.98" cy="188.9" rx="97.98" ry="6.8"/></g><polygon class="cls-3" points="108.33 19.31 118.67 24.7 108.33 22.02 108.33 19.31"/><polygon class="cls-4" points="108.33 19.31 118.67 24.7 108.33 22.02 108.33 19.31"/><rect class="cls-3" x="24" width="84.95" height="30.68" rx="3.51"/><rect class="cls-4" x="24" width="84.95" height="30.68" rx="3.51"/><rect class="cls-3" x="59.76" y="19.28" width="0.6" height="3.35"/><path class="cls-5" d="M60.07,17.51s.94,1.22,0,1.77C60.07,19.28,59.29,18.89,60.07,17.51Z"/><path class="cls-6" d="M60.11,18.32a.78.78,0,0,1,0,1A.78.78,0,0,1,60.11,18.32Z"/><rect class="cls-7" x="57.25" y="20.98" width="5.72" height="4.92"/><path class="cls-3" d="M57.05,21v2.11a.21.21,0,0,0,.21.2.17.17,0,0,0,.1,0l.7-.44a.22.22,0,0,1,.22,0l.34.24a1,1,0,0,0,1.1,0l.4-.25a.2.2,0,0,1,.23,0l.24.16a1,1,0,0,0,1.19,0l.16-.13a.2.2,0,0,1,.23,0l.68.43a.21.21,0,0,0,.29-.07l0-.11V21a.22.22,0,0,0-.21-.2H57.25a.2.2,0,0,0-.2.21Z"/><path class="cls-5" d="M57.05,21v2.11a.21.21,0,0,0,.21.2.17.17,0,0,0,.1,0l.7-.44a.22.22,0,0,1,.22,0l.34.24a1,1,0,0,0,1.1,0l.4-.25a.2.2,0,0,1,.23,0l.24.16a1,1,0,0,0,1.19,0l.16-.13a.2.2,0,0,1,.23,0l.68.43a.21.21,0,0,0,.29-.07l0-.11V21a.22.22,0,0,0-.21-.2H57.25a.2.2,0,0,0-.2.21Z"/><rect class="cls-3" x="68.73" y="19.28" width="0.6" height="3.35"/><path class="cls-3" d="M69,17.51s.94,1.22,0,1.77C69,19.28,68.25,18.89,69,17.51Z"/><path class="cls-5" d="M69.06,18.32a.78.78,0,0,1,0,1A.8.8,0,0,1,69.06,18.32Z"/><rect class="cls-7" x="66.2" y="20.98" width="5.72" height="4.92"/><path class="cls-5" d="M66,21v2.11a.2.2,0,0,0,.2.2.23.23,0,0,0,.11,0l.69-.44a.24.24,0,0,1,.23,0l.34.24a1,1,0,0,0,1.1,0l.4-.25a.2.2,0,0,1,.23,0l.23.16a1,1,0,0,0,1.2,0l.16-.13a.21.21,0,0,1,.24,0l.67.43a.2.2,0,0,0,.28-.07.2.2,0,0,0,0-.11V21a.2.2,0,0,0-.2-.2H66.21a.2.2,0,0,0-.2.2Z"/><rect class="cls-3" x="77.68" y="19.28" width="0.6" height="3.35"/><path class="cls-3" d="M78,17.51s1,1.22,0,1.77C78,19.28,77.2,18.89,78,17.51Z"/><path class="cls-5" d="M78,18.32a.77.77,0,0,1,0,1A.81.81,0,0,1,78,18.32Z"/><rect class="cls-7" x="75.16" y="20.98" width="5.72" height="4.92"/><path class="cls-5" d="M75,21v2.11a.2.2,0,0,0,.21.2.19.19,0,0,0,.1,0l.7-.44a.22.22,0,0,1,.22,0l.34.24a1,1,0,0,0,1.11,0l.4-.25a.2.2,0,0,1,.23,0l.23.16a1,1,0,0,0,1.2,0l.15-.13a.21.21,0,0,1,.24,0l.68.43a.21.21,0,0,0,.28-.06.27.27,0,0,0,0-.12V21a.2.2,0,0,0-.2-.2H75.17A.2.2,0,0,0,75,21Z"/><path class="cls-7" d="M100.6,12.3H58.47a.79.79,0,0,1-.78-.78h0a.79.79,0,0,1,.78-.78H100.6a.79.79,0,0,1,.77.78h0A.78.78,0,0,1,100.6,12.3Z"/><path class="cls-7" d="M78.55,4.85H58.8a1.11,1.11,0,1,0,0,2.21H78.55a1.11,1.11,0,0,0,0-2.21Z"/><path class="cls-7" d="M76.12,15.49H58.47a.79.79,0,0,1-.78-.78h0a.78.78,0,0,1,.78-.78H76.12a.77.77,0,0,1,.77.78h0A.77.77,0,0,1,76.12,15.49Z"/><path class="cls-5" d="M50,6.64V24.05a1.78,1.78,0,0,1-1.78,1.78H30.85a1.19,1.19,0,0,1-.46-.06h-.05a1.73,1.73,0,0,1-.37-.16,1.77,1.77,0,0,1-.9-1.56V6.66a1.79,1.79,0,0,1,1.78-1.79H48.23A1.78,1.78,0,0,1,50,6.64Z"/><path class="cls-8" d="M48.87,16c-.46,3-2.33,3.89-2.24,4.79,0,.45.47,1.23.73,2.26a1.37,1.37,0,0,0,.07.29,6,6,0,0,1,.13,1.12,5.2,5.2,0,0,1-.14,1.36H30.85a1.43,1.43,0,0,1-.46-.07h-.05a1.73,1.73,0,0,1-.37-.16,1.75,1.75,0,0,1-.9-1.54V20.91a13.59,13.59,0,0,1,1.7-1.51c2.56-1.95,1-3.09.7-4.39s-1.88-4-.63-6.43,2.72-2.51,2.72-2.51A2.32,2.32,0,0,1,34,4.82c2-3,11-2.37,12.55,0a.89.89,0,0,1,.14.25c1.18,2.88-.32,4.59,0,5.94S49.35,13,48.87,16Z"/><path class="cls-3" d="M12.15,50.51H12.1a1.46,1.46,0,0,1-.36-.16L12,50Z"/><path class="cls-3" d="M50,23.32v.73a1.78,1.78,0,0,1-1.78,1.78H30.85a1.19,1.19,0,0,1-.46-.06h0l-.19-.54L31,25c1.08-.33,2.17-.61,3.26-.85.78-.17,1.56-.32,2.35-.45l.85-.14h0l.48-.08c1.52-.23,3-.38,4.58-.46l1-.05h.8c1.06,0,2.15.06,3.07.12h.2c1.38.08,2.36.18,2.36.18S50,23.25,50,23.32Z"/><path class="cls-8" d="M50,23.32v.73a1.78,1.78,0,0,1-1.78,1.78H30.85a1.19,1.19,0,0,1-.46-.06h0l-.19-.54L31,25c1.08-.33,2.17-.61,3.26-.85.78-.17,1.56-.32,2.35-.45l.85-.14h0l.48-.08c1.52-.23,3-.38,4.58-.46l1-.05h.8c1.06,0,2.15.06,3.07.12h.2c1.38.08,2.36.18,2.36.18S50,23.25,50,23.32Z"/><path class="cls-9" d="M42.81,25.82H39.89a5.38,5.38,0,0,1-2.6-1.59,4.05,4.05,0,0,0,.63-.79v0a5.46,5.46,0,0,0,.18-4.27h0a7.64,7.64,0,0,0-.42-1.09h0l4.57.86a4.68,4.68,0,0,1-.08.54c0,.17-.05.46-.07.66v.72a4.5,4.5,0,0,0,.37,2.11l.05.08a1,1,0,0,0,.8.62A1.9,1.9,0,0,1,42.81,25.82Z"/><path class="cls-10" d="M42.26,18.88a13.57,13.57,0,0,0-.18,1.92A5.06,5.06,0,0,1,37.69,18Z"/><path class="cls-9" d="M39.74,6.1c4-.22,5.36,1.84,5.87,5.92.63,5.09-.29,8.79-5.31,8C33.48,18.87,33.15,6.47,39.74,6.1Z"/><path class="cls-11" d="M43.07,11.94a8.28,8.28,0,0,0,1.25,1.58,1.07,1.07,0,0,1-1,.5Z"/><path class="cls-8" d="M40.59,11.74c0,.33-.13.63-.35.63s-.41-.23-.44-.56.13-.63.35-.63S40.56,11.42,40.59,11.74Z"/><path class="cls-8" d="M40.06,11.21l.69-.35S40.44,11.49,40.06,11.21Z"/><path class="cls-8" d="M44.63,11.36c0,.33-.13.63-.35.63s-.41-.23-.44-.56.13-.63.35-.63S44.61,11,44.63,11.36Z"/><path class="cls-8" d="M44.1,10.82l.69-.33S44.48,11.12,44.1,10.82Z"/><path class="cls-8" d="M38.71,9.93a.19.19,0,0,1-.13,0,.22.22,0,0,1,0-.32,2.26,2.26,0,0,1,1.88-.78.23.23,0,0,1,.21.23h0a.23.23,0,0,1-.24.21h0a1.91,1.91,0,0,0-1.49.63A.24.24,0,0,1,38.71,9.93Z"/><path class="cls-8" d="M44.87,9.14h-.11a1.65,1.65,0,0,0-1.4-.22.22.22,0,0,1-.29-.12.23.23,0,0,1,.11-.3A2.11,2.11,0,0,1,45,8.75a.23.23,0,0,1,.08.31.21.21,0,0,1-.2.11Z"/><path class="cls-8" d="M42.77,15.62a8.84,8.84,0,0,0-.39,1.4h-.26c-1.16-.05-1.68-.45-1.88-.89a1.41,1.41,0,0,1-.15-.69,1.13,1.13,0,0,1,0-.41,5.52,5.52,0,0,0,2.25.58Z"/><path class="cls-5" d="M42.37,15.59l-.12.42a3.43,3.43,0,0,1-2.19-.59,1.48,1.48,0,0,1,0-.41A5.23,5.23,0,0,0,42.37,15.59Z"/><path class="cls-12" d="M42.12,17c-1.16-.05-1.68-.46-1.88-.9a3.6,3.6,0,0,1,1.25.32A1.37,1.37,0,0,1,42.12,17Z"/><path class="cls-8" d="M35.76,13S37.44,9.67,37,7.17c0,0,7.69-3.65,8.51,4.32,0,0,.38-7.14-6.45-6.91s-6.28,10.2-2.57,13C36.52,17.55,34.73,15.13,35.76,13Z"/><path class="cls-9" d="M36.46,13.83a1.74,1.74,0,0,0-2-1.48c-1.22.2-1.67,2.75,1.42,3.19C36.37,15.61,36.59,15.17,36.46,13.83Z"/><path class="cls-9" d="M48,23.48a5.92,5.92,0,0,1-.38.9h0l0,.07a9,9,0,0,1-.83,1.36H35.43c-.21-.14-.41-.26-.59-.39-.68-.45-1.08-.78-1.08-.78l.63-.23a24.47,24.47,0,0,1,3-.89h0a5,5,0,0,1,.5-.11,24.54,24.54,0,0,1,4.52-.51c.62,0,1.25,0,1.83,0a20.91,20.91,0,0,1,3.14.4.29.29,0,0,0,.13,0A3.74,3.74,0,0,1,48,23.48Z"/><path class="cls-13" d="M35,25.82H30.85a1.43,1.43,0,0,1-.46-.07h-.05l-.14-.53L31,25l3.18-1s0,.05.08.15l.15.3c.12.24.28.58.47,1Z"/><path class="cls-13" d="M50,23.18v.87a1.78,1.78,0,0,1-1.78,1.78h-.59c0-.52,0-1,0-1.42h0V23Z"/><path class="cls-8" d="M45.79,11.55h0c-.63-.24-.83-.86-1.08-1.59a3.6,3.6,0,0,0-2.14-2.64,9.11,9.11,0,0,0-5.44,0,.17.17,0,0,1-.21-.1A.17.17,0,0,1,37,7h0a9.14,9.14,0,0,1,5.64,0A3.93,3.93,0,0,1,45,9.85c.23.67.4,1.21.89,1.39a.16.16,0,0,1,.09.2h0A.17.17,0,0,1,45.79,11.55Z"/><polygon class="cls-3" points="107.5 188.68 109.86 188.68 111.44 129.02 107.5 129.02 107.5 188.68"/><polygon class="cls-3" points="160.22 188.68 162.59 188.68 162.59 129.02 158.63 129.02 160.22 188.68"/><polygon class="cls-3" points="136.19 188.68 138.56 188.68 138.56 129.02 134.61 129.02 136.19 188.68"/><polygon class="cls-3" points="83.47 188.68 85.84 188.68 87.42 129.02 83.47 129.02 83.47 188.68"/><polygon class="cls-14" points="107.5 188.68 109.86 188.68 111.44 129.02 107.5 129.02 107.5 188.68"/><polygon class="cls-14" points="160.22 188.68 162.59 188.68 162.59 129.02 158.63 129.02 160.22 188.68"/><polygon class="cls-14" points="136.19 188.68 138.56 188.68 138.56 129.02 134.61 129.02 136.19 188.68"/><polygon class="cls-14" points="83.47 188.68 85.84 188.68 87.42 129.02 83.47 129.02 83.47 188.68"/><path class="cls-14" d="M162.43,129.69H82.73V120a2.64,2.64,0,0,1,2.63-2.64H159.8a2.64,2.64,0,0,1,2.63,2.64h0v9.66Z"/><path class="cls-14" d="M162.43,129.69H133.56V120a2.64,2.64,0,0,1,2.64-2.64h23.6a2.64,2.64,0,0,1,2.63,2.64h0v9.66Z"/><rect class="cls-3" x="79.74" y="129.02" width="84.73" height="6.28" rx="1.08"/><rect class="cls-15" x="79.74" y="129.02" width="84.73" height="6.28" rx="1.08"/><path class="cls-8" d="M83.15,121c1.11-6.33,22.59-15.83,38-17.93l16.94,18a220.67,220.67,0,0,1-39.73,4s-.79,29.2-2,48.16l-6.12.11S82,127.31,83.15,121Z"/><path class="cls-10" d="M83.15,121c1.11-6.33,22.59-15.83,38-17.93l16.94,18a220.67,220.67,0,0,1-39.73,4s-.79,29.2-2,48.16l-6.12.11S82,127.31,83.15,121Z"/><path class="cls-16" d="M116.3,74.91s-3.51,9.18-5.46,10.36-.28-13.45-.28-13.45l-3.73-.49s-4.39,22.09,2,21.93c4.91-.12,10.75-8.33,12.18-12.5Z"/><path class="cls-17" d="M116.3,74.91s-3.51,9.18-5.46,10.36-.28-13.45-.28-13.45l-3.73-.49s-4.39,22.09,2,21.93c4.91-.12,10.75-8.33,12.18-12.5Z"/><path class="cls-3" d="M121.69,63.76c-5,1.15-8.52,18.25-8.52,18.25l8.94,4Z"/><path class="cls-18" d="M121.69,63.76c-5,1.15-8.52,18.25-8.52,18.25l8.94,4Z"/><polygon class="cls-3" points="123.86 85.3 112.9 80.05 112.27 81.64 123.04 87.51 123.86 85.3"/><polygon class="cls-19" points="123.86 85.3 112.9 80.05 112.27 81.64 123.04 87.51 123.86 85.3"/><polygon class="cls-16" points="91.35 182.02 95.57 181.59 95.67 175.64 95.76 170.17 90.67 169.86 91.02 176.3 91.35 182.02"/><path class="cls-8" d="M96.7,181.56c0-.47-5.7-.89-5.7-.89s-4,3.07-7.53,3.4-1.88,2.63,1.89,3.14l9.41,1.31C97.51,188.93,96.14,186.38,96.7,181.56Z"/><path class="cls-20" d="M88.11,181.72a1.09,1.09,0,0,1-.78-.22.53.53,0,0,1-.06-.63.65.65,0,0,1,.36-.35,2.39,2.39,0,0,1,1.3,0c-.43-.31-.8-.67-.78-1s.17-.34.45-.43a.85.85,0,0,1,.73.09c.73.43,1,1.83,1,1.88a.24.24,0,0,1,0,.12h0l-.06,0A8.68,8.68,0,0,1,88.11,181.72Zm0-1a.87.87,0,0,0-.36.05.29.29,0,0,0-.19.18.31.31,0,0,0,0,.31c.24.25,1.32.08,2.21-.16a5.56,5.56,0,0,0-1.67-.38Zm.78-1.33a.67.67,0,0,0-.2,0c-.08,0-.22.08-.22.16,0,.26.73.82,1.52,1.26a2.44,2.44,0,0,0-.8-1.36.56.56,0,0,0-.31-.06Z"/><polygon class="cls-10" points="91.03 176.43 95.69 175.75 95.76 170.23 90.67 169.89 91.03 176.43"/><polygon class="cls-16" points="114.47 182.63 118.58 181.57 117.79 175.67 117.06 170.26 111.97 170.71 113.29 177.02 114.47 182.63"/><path class="cls-8" d="M119.69,181.37c0-.46-5.76,0-5.76,0s-3.5,3.64-6.9,4.5-1.48,2.89,2.36,2.84l9.5-.12C121.6,188.53,119.87,186.22,119.69,181.37Z"/><path class="cls-20" d="M110.91,182.85a.76.76,0,0,1-.49-.14.53.53,0,0,1-.15-.62.64.64,0,0,1,.3-.4,2.46,2.46,0,0,1,1.26-.16c-.47-.23-.89-.54-.91-.84a.57.57,0,0,1,.37-.49.87.87,0,0,1,.74,0c.79.32,1.26,1.64,1.31,1.71V182h0v0h0v.05h0l0,0A7.13,7.13,0,0,1,110.91,182.85Zm.53-1a1.62,1.62,0,0,0-.72.13.39.39,0,0,0-.16.2c0,.23,0,.29,0,.31.28.22,1.33-.11,2.17-.48a7.43,7.43,0,0,0-1.33-.16Zm.29-1.41a.5.5,0,0,0-.27.07c-.08,0-.21.11-.2.19,0,.26.84.7,1.7,1a2.54,2.54,0,0,0-1-1.23.85.85,0,0,0-.22,0Z"/><polygon class="cls-10" points="113.33 177.14 117.82 175.78 117.08 170.31 111.98 170.74 113.33 177.14"/><path class="cls-8" d="M121.12,104.07s.48-6.51.7-7.85.52,2,.8,1.12c1.45-4.35,20.71-1.6,20.71-1.6s11.46,14.5,3.57,22.76c-5.44,5.69-24.79,8.16-32.94,12.07,0,0,2.51,23.67,4.15,42.59l-6,1s-14.36-44.28-14.2-50.71S100.38,113.88,121.12,104.07Z"/><polygon class="cls-14" points="118.99 171.33 110.69 172.28 112.29 175.54 119.01 174.67 118.99 171.33"/><polygon class="cls-14" points="96.82 170.06 88.47 169.75 89.57 173.21 96.34 173.36 96.82 170.06"/><path class="cls-16" d="M108.08,62.9s-3.36-.07-3.48.53.11,5.51.56,6.2a9.89,9.89,0,0,0,1.67,1.69l-.32,8.73,2,.71,1.83-8a5.26,5.26,0,0,0,1.45-4.56C111.18,65.64,108.08,62.9,108.08,62.9Z"/><path class="cls-17" d="M108.08,62.9s-3.36-.07-3.48.53.11,5.51.56,6.2a9.89,9.89,0,0,0,1.67,1.69l-.32,8.73,2,.71,1.83-8a5.26,5.26,0,0,0,1.45-4.56C111.18,65.64,108.08,62.9,108.08,62.9Z"/><path class="cls-13" d="M113.79,67.19a.51.51,0,0,1-.48.54h-.08l-5.72-.44a.67.67,0,0,1-.63-.63l-.4-11.39a.58.58,0,0,1,.53-.63h0l5.72.45a.75.75,0,0,1,.6.7Z"/><path class="cls-21" d="M112.76,55.68l.41,11.5a.44.44,0,0,1-.36.51h-.13l-4.85-.38c-.33,0-.91-.25-.92-.58l-.4-11.54c0-.32.55-.54.88-.51l4.85.37A.64.64,0,0,1,112.76,55.68Z"/><path class="cls-16" d="M119.6,75.85l-2.17-5.06s-.71-6.81-1.05-7.53-5.88-.46-6.48-.51-.49,6.75.09,7.47,2.84,1.29,2.84,1.29l3.48,6.75Z"/><path class="cls-18" d="M146.36,64.9s-6.28-3.37-24.67-1.14c0,0-3.08,8.26-2.58,20.51S121,96.83,121,96.83l-1.25,2.75a49.71,49.71,0,0,1,29.95,11.67l1.57-1.17L144.67,94.9A80.85,80.85,0,0,1,146.36,64.9Z"/><path class="cls-8" d="M139.72,37.24s1.51-3.34,7.25-2.41,5.74,8,2.26,13.54.67,7.34.17,9.49-3,1.65-3,1.65a1.94,1.94,0,0,0,.63-2.08C146.67,56,134.67,49.5,139.72,37.24Z"/><path class="cls-8" d="M131.44,55.59c-.45-.22-9.32.41-9.38-9.88,0,0-3.83-4.2,3.31-9.52s11.18-1.61,11.18-1.61,6.28-.94,7.86,8.52S139.2,59.26,131.44,55.59Z"/><path class="cls-8" d="M123.5,47s-3.36-12.77,10.39-12.14,10.67,22,2.14,20.68A18.4,18.4,0,0,1,123.5,47Z"/><path class="cls-16" d="M131.79,66.77c4.26.52,7.33-2.89,7.33-2.89-4-2.77-2-9-2-9l-6.46,2.27a20,20,0,0,1,.69,2.77c.67,4-1.15,4.36-1.15,4.36C129.38,66.68,130.71,66.64,131.79,66.77Z"/><path class="cls-10" d="M130.66,57.19a20,20,0,0,1,.69,2.77c3.1-1.26,5.77-5,5.77-5Z"/><path class="cls-16" d="M130.86,37.92c-5.85.51-7.46,3.8-7.36,9.86.1,7.58,2.24,12.79,9.41,10.55C142.64,55.29,140.57,37.09,130.86,37.92Z"/><path class="cls-22" d="M127.24,47.13a12.21,12.21,0,0,1-1.49,2.57,1.6,1.6,0,0,0,1.6.53Z"/><path class="cls-8" d="M130.78,46.34c0,.49.32.86.62.84s.56-.43.53-.9-.32-.87-.63-.84S130.75,45.86,130.78,46.34Z"/><path class="cls-8" d="M131.44,45.45l-1.07-.34S130.94,46,131.44,45.45Z"/><path class="cls-8" d="M124.79,46.62c0,.48.32.85.63.84s.56-.43.53-.91-.31-.86-.63-.84S124.76,46.14,124.79,46.62Z"/><path class="cls-8" d="M125.45,45.72l-1.07-.34S125,46.23,125.45,45.72Z"/><path class="cls-8" d="M133.1,43.22a.27.27,0,0,1-.18-.08,2.8,2.8,0,0,0-2.38-.59.25.25,0,0,1-.29-.19h0a.25.25,0,0,1,.19-.3h0a3.29,3.29,0,0,1,2.84.74.24.24,0,0,1,0,.35A.29.29,0,0,1,133.1,43.22Z"/><path class="cls-8" d="M123.93,43.35a.26.26,0,0,1-.19-.1.24.24,0,0,1,0-.35,3,3,0,0,1,2.51-.72.25.25,0,0,1-.13.48,2.53,2.53,0,0,0-2.07.63A.38.38,0,0,1,123.93,43.35Z"/><path class="cls-8" d="M128.39,52.46a14.33,14.33,0,0,1,.86,2l.37-.07c1.69-.32,2.37-1,2.61-1.7a2.33,2.33,0,0,0,.07-1,1.92,1.92,0,0,0-.16-.58A8.12,8.12,0,0,1,129,52.34Z"/><path class="cls-5" d="M129,52.34l.27.58c1.59-.31,2.67-.74,3.07-1.31a2.26,2.26,0,0,0-.16-.58A8.12,8.12,0,0,1,129,52.34Z"/><path class="cls-12" d="M129.65,54.36c1.68-.32,2.36-1,2.6-1.7a5.32,5.32,0,0,0-1.8.72A2,2,0,0,0,129.65,54.36Z"/><path class="cls-8" d="M138.09,47.23S135,42.66,135,38.92c0,0-12-3.77-11.54,8.07,0,0-2-10.35,8-11.44S142.74,49.16,137.92,54C137.92,54,140.05,50.07,138.09,47.23Z"/><path class="cls-16" d="M137.25,48.55A2.55,2.55,0,0,1,139.8,46h0c1.83,0,3,3.68-1.41,5C137.75,51.12,137.33,50.52,137.25,48.55Z"/><path class="cls-8" d="M135.86,46.36h-.06c-5-1.91-5-8.62-5-8.68a.18.18,0,0,1,.18-.17h0a.18.18,0,0,1,.17.17c0,.07-.09,6.54,4.73,8.36a.17.17,0,0,1,.1.21h0A.18.18,0,0,1,135.86,46.36Z"/><path class="cls-8" d="M124.38,37.67c5-4.15,7.85-2.84,7.85-2.84l0,.06c1.92-.57,5.1-.69,8.31,2.78,5.1,5.51.8,9.51.8,9.51-6.75-1.88-9.41-6.14-10.41-8.82a17.51,17.51,0,0,1-8.84,7.35S119.44,41.81,124.38,37.67Z"/><path class="cls-16" d="M138.09,77.16s-3.83,8.7-4.87,9.33-8.84-6.59-15.79-15.7l-4.26,1.6S124.17,95,132,95.13,144.68,82,144.68,82Z"/><path class="cls-3" d="M146.36,64.9c5.36,1.49-1.7,23.24-1.7,23.24l-10.13-4.65a108.8,108.8,0,0,1,4.81-13.11C142.32,63.73,146.36,64.9,146.36,64.9Z"/><path class="cls-18" d="M146.36,64.9c5.36,1.49-1.7,23.24-1.7,23.24l-10.13-4.65a108.8,108.8,0,0,1,4.81-13.11C142.32,63.73,146.36,64.9,146.36,64.9Z"/><polygon class="cls-3" points="145.49 87.73 134.53 82.48 133.9 84.07 144.66 89.93 145.49 87.73"/><polygon class="cls-19" points="145.49 87.73 134.53 82.48 133.9 84.07 144.66 89.93 145.49 87.73"/><polygon class="cls-23" points="76.61 97.62 73.47 188.68 70.96 188.68 72.84 97.62 76.61 97.62"/><polygon class="cls-23" points="57.15 97.62 54.01 188.68 51.5 188.68 53.38 97.62 57.15 97.62"/><rect class="cls-3" x="49.62" y="93.23" width="127.4" height="4.4"/><rect class="cls-14" x="49.62" y="93.23" width="127.4" height="4.4"/><rect class="cls-24" x="149.41" y="93.23" width="27.61" height="4.4"/><polygon class="cls-23" points="174.51 97.62 176.4 188.68 173.89 188.68 170.75 97.62 174.51 97.62"/><polygon class="cls-23" points="155.06 97.62 156.94 188.68 154.43 188.68 151.29 97.62 155.06 97.62"/><path class="cls-25" d="M28.28,166c0-.25-.85-24.92-4.86-28.82s-8.37-.14-8.56,0l-.4-.47s5.1-4.17,9.41,0,5,28.22,5,29.25Z"/><path class="cls-25" d="M28.62,170.86c0-.29-2.74-29.61,8-41.9l.48.41c-10.53,12.09-7.84,41.14-7.81,41.45Z"/><path class="cls-25" d="M28.22,167.77l-.62-.05c0-.33,2.09-33.32-5.76-40.55l.43-.46C30.34,134.13,28.32,166.4,28.22,167.77Z"/><path class="cls-25" d="M29.25,167.72h-.63c0-.91.26-22.28,6.33-25.74a4.28,4.28,0,0,1,3.93-.39c3.67,1.52,5.49,8,5.56,8.33l-.63.17c0-.07-1.81-6.52-5.19-7.92a3.69,3.69,0,0,0-3.38.35C29.5,145.82,29.25,167.53,29.25,167.72Z"/><path class="cls-25" d="M26.88,167.76l-.63,0c0-.17.91-16.9-3.59-22.79-1.1-1.43-2.29-2.11-3.54-2-2.95.21-5.43,4.53-5.46,4.58l-.54-.31c.11-.19,2.67-4.67,6-4.9,1.48-.1,2.85.66,4.08,2.27C27.81,150.64,26.93,167.1,26.88,167.76Z"/><path class="cls-25" d="M27.87,170c-.12-1.63-2.95-39.82,2-46.54l.51.37c-4.84,6.54-1.93,45.73-1.88,46.12Z"/><path class="cls-1" d="M27.26,140.51s3.17-.13,3.36,2.61-6.91,10.32-6.91,10.32-5-1.82-3.95-8.66S26.47,138.84,27.26,140.51Z"/><path class="cls-1" d="M24.57,127.4s2.12-.22,1.95-1.52-8.24-4.63-13,.76c0,0,3,5.24,7.45,5.31S24.57,127.4,24.57,127.4Z"/><path class="cls-1" d="M28.51,124.27s-1.88.93-2.45-.26,4.55-8.27,11.43-6.23c0,0,.18,6-3.52,8.44S28.51,124.27,28.51,124.27Z"/><path class="cls-1" d="M18.48,144.42s1.47-1.18-.11-1.76-9.32-.41-9.41,7.26c0,0,9,1.5,10.13-1.42S18.48,144.42,18.48,144.42Z"/><path class="cls-1" d="M32.1,133.39s-.12-1.44,1-.87,5.2,4.92,1,9c0,0-5.65-4.17-4.61-6.34S32.1,133.39,32.1,133.39Z"/><path class="cls-1" d="M17.18,135.43s.88-1.14-.4-1.28-7,1.39-5.65,7.12c0,0,7-.53,7.29-2.91S17.18,135.43,17.18,135.43Z"/><polygon class="cls-20" points="40.78 189.01 16.82 189.01 14.23 162.75 43.38 162.75 40.78 189.01"/><rect class="cls-14" x="12.95" y="159.86" width="31.71" height="5.8"/></g></g></svg>