<svg xmlns="http://www.w3.org/2000/svg" viewBox="0 0 198.53 197.89"><defs><style>.cls-1{fill:#f5f5f5;}.cls-2{fill:#e6e6e6;}.cls-3{fill:#e89c4b;}.cls-16,.cls-19,.cls-28,.cls-4,.cls-5,.cls-7{isolation:isolate;}.cls-4{opacity:0.1;}.cls-5{opacity:0.15;}.cls-6{fill:#f4a55d;}.cls-24,.cls-7{fill:#fff;}.cls-28,.cls-7{opacity:0.4;}.cls-8{fill:#37474f;}.cls-9{fill:#263238;}.cls-10{fill:#455a64;}.cls-11{fill:none;stroke:#4c4c4c;stroke-linecap:round;stroke-linejoin:round;stroke-width:0.25px;}.cls-12{fill:#fcfcfc;}.cls-13{fill:#e0e0e0;}.cls-14{fill:#eb996e;}.cls-15{fill:#ffbe9d;}.cls-16,.cls-17{opacity:0.2;}.cls-18{fill:#ff725e;}.cls-19,.cls-27{opacity:0.3;}.cls-20{fill:#fafafa;}.cls-21{opacity:0.7;}.cls-22{fill:#ebebeb;}.cls-23{fill:#ffb3b2;}.cls-25{fill:#8b5d54;}.cls-26{fill:#70462a;}.cls-28{fill:#1b2a30;}</style></defs><g id="Layer_2" data-name="Layer 2"><g id="Layer_1-2" data-name="Layer 1"><g id="freepik--Floor--inject-63"><ellipse id="freepik--floor--inject-63-2" data-name="freepik--floor--inject-63" class="cls-1" cx="99" cy="177.18" rx="99" ry="20.71"/></g><path id="freepik--shadow--inject-63" class="cls-2" d="M35.17,180.45c10.18,2.26,26.69,2.26,36.88,0s10.18-5.92,0-8.18-26.7-2.26-36.88,0S25,178.2,35.17,180.45Z"/><polygon class="cls-3" points="114.43 185.49 85.84 168.96 85.84 143.69 85.23 143.35 85.23 134.92 114.43 151.78 114.43 185.49"/><polygon class="cls-4" points="114.43 184.96 85.84 168.43 85.84 143.16 85.23 142.82 85.23 134.38 114.43 151.25 114.43 184.96"/><polygon class="cls-5" points="114.43 160.2 104.19 154.29 104.19 145.85 103.49 145.46 103.48 153.88 85.84 143.69 85.84 144.91 103.48 155.09 103.48 179.17 104.2 179.58 104.19 155.5 114.43 161.41 114.43 160.2"/><polygon class="cls-3" points="114.43 185.49 142.87 169.08 142.87 143.78 143.63 143.35 143.63 134.92 114.43 151.78 114.43 185.49"/><polygon class="cls-4" points="142.87 143.78 125.38 153.88 125.38 145.46 124.67 145.85 124.67 154.29 114.43 160.2 114.43 161.41 124.67 155.5 124.67 179.58 125.39 179.17 125.38 155.1 142.87 145.01 142.87 143.78"/><polygon class="cls-6" points="143.63 134.92 114.43 118.06 85.23 134.92 114.43 151.78 143.63 134.92"/><polygon class="cls-7" points="143.1 134.92 113.9 118.06 84.7 134.92 113.9 151.78 143.1 134.92"/><polyline class="cls-5" points="109.52 135.25 95.56 128.97 96.18 128.6 110.26 134.92"/><polyline class="cls-5" points="119.34 135.25 133.3 128.97 132.68 128.6 118.6 134.92"/><polygon class="cls-5" points="125.38 145.46 115.02 137.76 115.02 137.76 114.43 137.32 114.43 137.33 114.43 137.32 113.84 137.76 113.84 137.76 103.48 145.46 104.19 145.85 114.43 138.2 124.67 145.85 125.38 145.46"/><polygon class="cls-8" points="132.68 141.24 132.68 175.79 125.39 180.01 125.38 145.46 132.68 141.24"/><polygon class="cls-9" points="125.39 180.01 124.67 179.58 125.39 179.17 125.39 180.01"/><polygon class="cls-9" points="96.18 141.24 96.18 175.79 103.48 180.01 103.49 145.46 96.18 141.24"/><polygon points="103.48 180.01 104.2 179.58 103.48 179.17 103.48 180.01"/><polygon class="cls-10" points="103.49 145.46 114.44 137.33 118.61 134.92 132.68 128.6 125.39 124.38 114.44 132.51 110.27 134.92 96.18 141.24 103.49 145.46"/><polygon class="cls-9" points="110.27 134.92 109.52 135.25 111.98 136.34 113.85 137.76 114.44 137.32 112.61 135.97 110.27 134.92"/><polygon class="cls-10" points="125.38 145.46 112.61 135.97 96.18 128.6 103.48 124.38 116.26 133.86 132.68 141.24 125.38 145.46"/><path class="cls-8" d="M112.14,133.53s-8.57,7.12-22.58,5.5a21.8,21.8,0,0,0,13.22,3s-1,2.66-7.17,5.89c0,0,15.31.14,19.26-12.57Z"/><path class="cls-9" d="M104.08,146.3c4.24-1.59,8.86-4.73,10.78-10.93l-2.73-1.83h0a24.06,24.06,0,0,1-5.39,3.09h0a10.22,10.22,0,0,0,6,.5A14.92,14.92,0,0,1,104.08,146.3Z"/><path class="cls-8" d="M93.13,124.22s1.7-2,6.92-1.09c3.15.54,8.51,4.22,11.16,10.34.33.77,1.08,1,1.48,1.55a3.26,3.26,0,0,0,.31.33l1.65,0c0-5.72-3.21-11.49-6.24-14.83s-8-5-11.59-5.1a8,8,0,0,0-3.68.71C92.17,118.85,91.77,121.53,93.13,124.22Z"/><path class="cls-9" d="M110.84,132.7h0s3-1,1.75-5.77a20.25,20.25,0,0,1,2,8.44l-1.65,0a2.42,2.42,0,0,1-.31-.33c-.4-.52-1.15-.78-1.49-1.55C111.09,133.2,111,133,110.84,132.7Z"/><path class="cls-8" d="M96.17,127.88a11.79,11.79,0,0,1-3-3.66c-1.36-2.69-1-5.37,0-8.08-3.07,1.35-4.9,5.33-5.58,8.55a8.37,8.37,0,0,0-.11,4.09c.86,2,5.89,10.19,27.43,6.59l0-2.26C109.45,132.77,100,131.13,96.17,127.88Z"/><path class="cls-9" d="M93.13,124.22s-.26-6.3,3.69-8.78a8,8,0,0,0-3.68.71C92.17,118.85,91.77,121.53,93.13,124.22Z"/><path class="cls-8" d="M116.72,133.53s8.58,7.12,22.58,5.5a21.77,21.77,0,0,1-13.22,3s1,2.66,7.18,5.89c0,0-15.31.14-19.27-12.57Z"/><path class="cls-9" d="M116.12,137.12a10.23,10.23,0,0,0,6-.49h0l-.56-.26-.09,0-.5-.24-.11,0-.45-.23a.24.24,0,0,1-.11-.06l-.42-.21-.12-.06-.37-.21-.1-.06L119,135l-.1-.06-.33-.19-.09-.05-.28-.18-.08,0-.25-.16-.08-.05-.21-.14-.06,0-.19-.13,0,0-.15-.1,0,0-.1-.08-.05,0-.07,0,0,0,0,0,0,0h0l-.89.6L114,135.37c4,12.71,19.26,12.57,19.26,12.57h0C125.38,147.56,117.11,141.59,116.12,137.12Z"/><path class="cls-8" d="M135.74,124.22s-1.7-2-6.93-1.09c-3.15.54-8.5,4.22-11.15,10.34-.34.77-1.09,1-1.49,1.55a2.35,2.35,0,0,1-.3.33l-1.66,0c0-5.72,3.21-11.49,6.24-14.83s8-5,11.6-5.1a8,8,0,0,1,3.67.71C136.69,118.85,137.11,121.53,135.74,124.22Z"/><path class="cls-9" d="M118,132.7h0s-3-1-1.75-5.77a20.4,20.4,0,0,0-2,8.44l1.66,0a2.35,2.35,0,0,0,.3-.33c.4-.52,1.16-.78,1.49-1.55C117.78,133.2,117.9,133,118,132.7Z"/><path class="cls-8" d="M132.69,127.88a12,12,0,0,0,3.05-3.66c1.36-2.69.95-5.37,0-8.08,3.06,1.35,4.89,5.33,5.58,8.55a8.49,8.49,0,0,1,.11,4.09c-.86,2-5.89,10.19-27.44,6.59l0-2.26C119.41,132.77,128.83,131.13,132.69,127.88Z"/><path class="cls-9" d="M135.74,124.22s.26-6.3-3.69-8.78a8,8,0,0,1,3.67.71C136.69,118.85,137.11,121.53,135.74,124.22Z"/><path class="cls-10" d="M117.41,133.87a1.27,1.27,0,0,0-.75-1,5.81,5.81,0,0,0-2.23-.32,5.4,5.4,0,0,0-2.28.38,1.18,1.18,0,0,0-.67,1,4,4,0,0,0,.32,2.47,3.92,3.92,0,0,0,2.64,1,3.86,3.86,0,0,0,2.63-1A4.29,4.29,0,0,0,117.41,133.87Z"/><line class="cls-11" x1="90.54" y1="72.13" x2="183" y2="16.89"/><circle class="cls-12" cx="181.71" cy="17.06" r="16.82"/><g id="freepik--character-2--inject-96"><path class="cls-9" d="M177.52,9a1.78,1.78,0,0,0-.58-1.12,1.16,1.16,0,0,1-.32-1.22c.12-.44.39-.4.5-.66a1.82,1.82,0,0,0,.07-.61,1.27,1.27,0,0,1,1.43-1.1l.09,0a1.76,1.76,0,0,1,2.17-1.23,1.82,1.82,0,0,1,1.09.89,1.35,1.35,0,0,1,1.82.59,1.29,1.29,0,0,1,.14.51,1,1,0,0,1,1.29.19,1.21,1.21,0,0,1,.09,1.34,1.58,1.58,0,0,1-1.15.77,2.34,2.34,0,0,1-1.38-.25,4.18,4.18,0,0,1-1.14-.86"/><ellipse class="cls-13" cx="180.65" cy="22.9" rx="8.3" ry="8.11"/><path class="cls-14" d="M189,22.91l-.92-2.36-3.29,2.07,2.94,4.53A7.76,7.76,0,0,0,189,22.91Z"/><path class="cls-15" d="M179.91,17.81h0a2.23,2.23,0,0,0,2.22-2.09c0-1,.09-1.92.09-1.92a2.13,2.13,0,0,0,2-1.9c.17-1.78.19-5.87.19-5.87h0a6.28,6.28,0,0,0-6.31.27l-.17.11-.21,9.17a2.22,2.22,0,0,0,2.2,2.23Z"/><path class="cls-9" d="M180.94,8.76a.25.25,0,0,1-.17.48.25.25,0,0,1-.16-.32A.25.25,0,0,1,180.94,8.76Z"/><path class="cls-9" d="M181.44,8.85s-.19-.12-.44-.13-.44.1-.46.06,0-.07.1-.12a.6.6,0,0,1,.37-.09.64.64,0,0,1,.35.14C181.42,8.78,181.45,8.84,181.44,8.85Z"/><path class="cls-9" d="M183.64,8.76a.24.24,0,0,1,.16.32.25.25,0,0,1-.33.16.26.26,0,0,1-.16-.32A.26.26,0,0,1,183.64,8.76Z"/><path class="cls-9" d="M184.17,8.85s-.19-.11-.44-.13-.44.1-.46.07,0-.07.1-.12a.61.61,0,0,1,.37-.1.58.58,0,0,1,.35.15C184.16,8.78,184.19,8.84,184.17,8.85Z"/><path class="cls-9" d="M182.31,10.77a1.13,1.13,0,0,1,.41,0c.06,0,.11,0,.12-.05a.32.32,0,0,0,0-.19c-.05-.17-.1-.34-.16-.51a6.33,6.33,0,0,1-.31-1.35,6.76,6.76,0,0,1,.45,1.3c.05.18.1.35.14.52a.41.41,0,0,1,0,.27.18.18,0,0,1-.12.09h-.11A1.39,1.39,0,0,1,182.31,10.77Z"/><path class="cls-14" d="M182.21,13.78a4.19,4.19,0,0,1-2.28-.85,2.22,2.22,0,0,0,2.24,1.31Z"/><path class="cls-15" d="M177.85,9a.28.28,0,0,0-.26-.28c-.33,0-.88.11-1,1a.85.85,0,0,0,1.18,1S177.84,9.53,177.85,9Z"/><path class="cls-14" d="M177.54,10.21l-.06,0a.25.25,0,0,1-.17,0,.58.58,0,0,1-.23-.53.9.9,0,0,1,.09-.32.28.28,0,0,1,.19-.16.11.11,0,0,1,.13.07s0,.07,0,.07,0,0,0-.08a.16.16,0,0,0-.17-.12.32.32,0,0,0-.26.19.71.71,0,0,0-.1.35.57.57,0,0,0,.29.59.22.22,0,0,0,.21,0S177.55,10.21,177.54,10.21Z"/><path class="cls-9" d="M180.27,8.15c.06.09.29,0,.58,0s.53,0,.58-.1-.22-.31-.6-.28S180.19,8.07,180.27,8.15Z"/><path class="cls-9" d="M183.14,8.07c0,.11.25.14.49.14s.46,0,.49-.16-.19-.27-.49-.26S183.1,8,183.14,8.07Z"/><path class="cls-9" d="M184.63,6.58a2.93,2.93,0,0,1-2.48-.17,3.48,3.48,0,0,0-2.22-.5c-.24.18-.29,1.13-1.19,1.41,0,0,.06,1.8-.66,1.74s-.27-2.86-.27-2.86l1.76-.86L181.49,5l1.81.25,1.4.39Z"/><path class="cls-10" d="M172.58,17c1.88-1.94,5.19-1.73,5.19-1.73l2.75,2,1.55-1.82a10,10,0,0,1,3.17,1l.11,0v0a28.23,28.23,0,0,1,4.53,3.74L187.94,22,185.79,24v0c0,.12.29,2.74.62,4.74a8.06,8.06,0,0,1-7.22,2.18c-.88-.15-1.31-.36-2.13-.57a3,3,0,0,1-2.18-2.6h0c-.15-1.67-.26-3.74-.26-3.74"/><path class="cls-9" d="M183.79,15.8a2,2,0,0,1,.12.31c.07.19.17.49.28.86.23.72.52,1.72.79,2.86s.48,2.16.61,2.91c.06.38.11.68.14.89a1.84,1.84,0,0,1,0,.33c0-.11,0-.22-.07-.32s-.1-.53-.17-.89c-.15-.74-.37-1.77-.64-2.9s-.55-2.14-.75-2.86l-.25-.87A1.68,1.68,0,0,1,183.79,15.8Z"/><path class="cls-9" d="M185.56,22.72s.8-.72,1.83-1.56,1.88-1.5,1.9-1.48-.8.72-1.83,1.56S185.58,22.74,185.56,22.72Z"/><path class="cls-16" d="M175.06,19.69l-1.68,5.54.63.33.62-1.57A20.24,20.24,0,0,0,175.06,19.69Z"/><g class="cls-17"><path d="M183.61,15.81c.91.47-1.37,1.63-2.39,1.59l.74-2A10.33,10.33,0,0,1,183.61,15.81Z"/></g><path class="cls-10" d="M177.5,15.44V14s2.87.74,3,2.45c0,0,.36-1.9,1.84-2l.21,2.67-1.73,1.5h-1.73l-1.38-1.2-.18-1.84"/><path class="cls-9" d="M181.12,24.64a1.61,1.61,0,0,1,0-.31c0-.21,0-.5,0-.86,0-.73,0-1.73-.12-2.83s-.23-2.09-.35-2.8c-.06-.35-.12-.63-.15-.85a1.67,1.67,0,0,1,0-.31,1.67,1.67,0,0,1,.08.3c.05.2.12.49.19.84.17.93.3,1.87.38,2.81a26.94,26.94,0,0,1,.08,2.84c0,.36,0,.66,0,.86S181.13,24.54,181.12,24.64Z"/><path class="cls-9" d="M180.34,15.93a.32.32,0,0,0-.17,0,.6.6,0,0,0-.29.37,8.08,8.08,0,0,0-.55,1.59l0,.07-.05,0-.53-.33a9,9,0,0,1-.92-.71,1.07,1.07,0,0,1-.32-.41,1.34,1.34,0,0,1-.1-.44,2.73,2.73,0,0,1,.07-.64.86.86,0,0,1,.06-.23.91.91,0,0,1,0,.23,3.33,3.33,0,0,0,0,.63,1.24,1.24,0,0,0,.11.42,1.1,1.1,0,0,0,.3.38,10.49,10.49,0,0,0,.92.69l.52.34-.07,0a6.69,6.69,0,0,1,.57-1.59,1,1,0,0,1,.15-.25.46.46,0,0,1,.18-.13C180.29,15.88,180.34,15.93,180.34,15.93Z"/><path class="cls-9" d="M182.31,14.43a1,1,0,0,1,0,.23l0,.63c0,.26.06.57.11.92a1.5,1.5,0,0,1,0,.56,1,1,0,0,1-.39.48,4.77,4.77,0,0,0-.63.48l-.07.09V17.7a3.44,3.44,0,0,0-.43-1.43c-.18-.32-.33-.49-.32-.5s.05,0,.12.11l.26.36a3.38,3.38,0,0,1,.46,1.46l-.08,0a4.41,4.41,0,0,1,.64-.5.82.82,0,0,0,.34-.42,1.56,1.56,0,0,0,0-.53,8.77,8.77,0,0,1-.08-.93c0-.26,0-.48,0-.63A1.85,1.85,0,0,1,182.31,14.43Z"/><path class="cls-9" d="M191.53,14.8l-4.33,5.79.59.34,4.33-5.57Z"/><path class="cls-15" d="M174.59,19.26s4.44,6.39,4.7,6.51c.53.25,6.6-5,7.18-5.5l.57-.77s.48-2.2,1-2-.28,1.12.06,2,1.85-1.15,1.92-1.33l.39-.52a6.7,6.7,0,0,1,.38,1.66,7.72,7.72,0,0,1-1.57,3.42s-6.64,8.23-11.19,8.49c-1.31.07-3.64-3.65-5.2-6.44a3.83,3.83,0,0,1,1.09-4.94Z"/><path class="cls-14" d="M190,19.51a6.19,6.19,0,0,1,.28-.58,5.07,5.07,0,0,1,.29-.57,3.67,3.67,0,0,1-.58,1.15Z"/><path class="cls-10" d="M173.84,16.14s-4.77,1.7-1.22,9.71l5.49-3.32-.78-1.87Z"/><path class="cls-9" d="M173.47,16.28a1.87,1.87,0,0,1,.58,0,2.62,2.62,0,0,1,.62.26,3.54,3.54,0,0,1,.7.58,8.34,8.34,0,0,1,1.29,1.93c.4.78.78,1.67,1.16,2.6l.34.81,0,0,0,0c-1.59.87-3,1.68-3.95,2.28l-1.16.73-.3.19-.11.07a.39.39,0,0,1,.1-.08l.29-.22q.41-.29,1.14-.75c1-.62,2.35-1.45,3.94-2.32l0,.07-.34-.82c-.38-.93-.77-1.82-1.15-2.59a8.49,8.49,0,0,0-1.26-1.92,3.67,3.67,0,0,0-.67-.58,2.37,2.37,0,0,0-.61-.27A3.75,3.75,0,0,0,173.47,16.28Z"/><path class="cls-10" d="M183.72,4.41a.24.24,0,0,1,0,.08,2.29,2.29,0,0,1,0,.25,1.29,1.29,0,0,1-1.65,1.16,1.23,1.23,0,0,1-.66-.48.65.65,0,0,1-.09-.43.54.54,0,0,1,.23-.4.47.47,0,0,1,.46,0,.59.59,0,0,1,.32.32.85.85,0,0,1-.13.8A1,1,0,0,1,181,6a2.07,2.07,0,0,0-.47-.18.53.53,0,0,0-.37,0,1.59,1.59,0,0,0-.27.18l0-.07.08-.07a.57.57,0,0,1,.13-.08.62.62,0,0,1,.38-.06,2.58,2.58,0,0,1,.49.17,1.31,1.31,0,0,0,.28.09.81.81,0,0,0,.31,0,.87.87,0,0,0,.57-.34.73.73,0,0,0,.11-.71.45.45,0,0,0-.58-.26l-.05,0a.53.53,0,0,0-.19.33.6.6,0,0,0,.09.37,1,1,0,0,0,.59.43,1.24,1.24,0,0,0,1.21-.28,1.3,1.3,0,0,0,.37-.78C183.72,4.63,183.72,4.52,183.72,4.41Z"/><path class="cls-9" d="M182.68,11.64s-.06,0-.16,0a.86.86,0,0,1-.71-.36c-.06-.09-.08-.15-.07-.16a2.72,2.72,0,0,0,.42.34A2.33,2.33,0,0,0,182.68,11.64Z"/><path class="cls-9" d="M177.65,10.81s.06.08,0,.21a.33.33,0,0,1-.19.16.36.36,0,0,1-.3-.08.33.33,0,0,1-.13-.29.32.32,0,0,1,.09-.23c.09-.11.19-.12.19-.11a.81.81,0,0,0-.13.15.3.3,0,0,0,0,.38.24.24,0,0,0,.21.06.25.25,0,0,0,.16-.1C177.65,10.88,177.63,10.81,177.65,10.81Z"/><path class="cls-10" d="M184,5.05a.64.64,0,0,1,.1.35,1.17,1.17,0,0,1-1.07,1.23.63.63,0,0,1-.36,0s.14,0,.35,0a1.18,1.18,0,0,0,1-1.15A3,3,0,0,0,184,5.05Z"/><path class="cls-13" d="M177.55,21.11s-1.26.67-2.83,1.45-2.86,1.39-2.88,1.36,1.25-.67,2.83-1.45S177.53,21.08,177.55,21.11Z"/><path class="cls-13" d="M176.39,18.93s-1.11.66-2.51,1.41-2.55,1.34-2.56,1.32,1.11-.66,2.51-1.41S176.38,18.91,176.39,18.93Z"/><path class="cls-13" d="M175.28,17.17a3.57,3.57,0,0,1-.56.33l-1.38.77-1.37.78a3.23,3.23,0,0,1-.58.31,5.14,5.14,0,0,1,.54-.37c.35-.21.82-.5,1.36-.8s1-.57,1.4-.75A5.3,5.3,0,0,1,175.28,17.17Z"/><path class="cls-13" d="M179.49,16.75a.82.82,0,0,1-.37-.1,2.75,2.75,0,0,1-.77-.5,6.67,6.67,0,0,1-.62-.68,1.6,1.6,0,0,1-.22-.31,2,2,0,0,1,.27.26,7.62,7.62,0,0,0,.64.65,3.19,3.19,0,0,0,.74.52C179.36,16.7,179.5,16.74,179.49,16.75Z"/><path class="cls-13" d="M182.29,15.72a1,1,0,0,1-.4.57,1.07,1.07,0,0,1-.63.3,5.65,5.65,0,0,0,.57-.38A5.33,5.33,0,0,0,182.29,15.72Z"/><path class="cls-13" d="M187.28,18.6l-.11,0-.31,0-1.13.11c-1,.07-2.31.15-3.77.2s-2.8.07-3.77.06l-1.14,0h-.31l-.11,0h1.56c1,0,2.3,0,3.77-.09s2.8-.12,3.76-.18l1.14-.07.31,0Z"/><path class="cls-13" d="M185.76,20.88l-.31.05-.87.09c-.73.07-1.74.13-2.86.18s-2.13.06-2.87.05l-.87,0a1.66,1.66,0,0,1-.32,0h1.19c.73,0,1.74,0,2.86-.08s2.13-.1,2.86-.15l.87-.06A1.13,1.13,0,0,1,185.76,20.88Z"/><path class="cls-13" d="M182.32,23.68a3.3,3.3,0,0,1-.63.09c-.4,0-.94.09-1.54.12s-1.16,0-1.55,0a3.39,3.39,0,0,1-.64,0,3.39,3.39,0,0,1,.64,0l1.54-.07,1.53-.09A4.75,4.75,0,0,1,182.32,23.68Z"/><path class="cls-13" d="M177.93,17s-.59,0-1.31.06a12.69,12.69,0,0,1-1.32,0A9.66,9.66,0,0,1,177.93,17Z"/><path class="cls-13" d="M186,16.92a16.09,16.09,0,0,1-1.7,0,16.29,16.29,0,0,1-1.71-.06,14,14,0,0,1,1.71,0A13.74,13.74,0,0,1,186,16.92Z"/><path class="cls-13" d="M186.32,28.6l-.18.1c-.11.06-.28.13-.5.22a10.43,10.43,0,0,1-1.72.55,9.91,9.91,0,0,1-1.79.26c-.24,0-.42,0-.55,0a.68.68,0,0,1-.2,0s.29,0,.75-.07a13.3,13.3,0,0,0,1.77-.28,15,15,0,0,0,1.73-.52A5.31,5.31,0,0,1,186.32,28.6Z"/></g><line class="cls-11" x1="87.57" y1="72.78" x2="13" y2="25.89"/><circle class="cls-12" cx="13.22" cy="23.85" r="13.03"/><line class="cls-11" x1="87.57" y1="71.56" x2="109.07" y2="6.58"/><circle class="cls-12" cx="105.69" cy="13.01" r="13.01"/><g id="freepik--character-1--inject-96"><ellipse class="cls-13" cx="106.21" cy="17.39" rx="6.79" ry="6.48"/><path class="cls-9" d="M104.83,1.78c-1.08.06-1.5,1.18-1.63,1.43A2.12,2.12,0,0,0,103,4a1.78,1.78,0,0,1-.21.81c-.23.37-.73.57-.87,1s.24,1,.14,1.48c-.06.27-.25.49-.32.75a1.1,1.1,0,0,0,.15.81,2.12,2.12,0,0,0,1.79.94,6.12,6.12,0,0,0,2.06-.39"/><path class="cls-9" d="M109.57,3.18a.65.65,0,0,0,.15.69,5.29,5.29,0,0,0,.59.47,1,1,0,0,1,.4.62c0,.23-.1.46-.07.68.08.59,1,.77,1.07,1.36,0,.39-.37.75-.26,1.13a1.85,1.85,0,0,0,.24.4,1.16,1.16,0,0,1-.3,1.39,2.36,2.36,0,0,1-1.44.49,1.39,1.39,0,0,1-1.18-.41,1.66,1.66,0,0,1-.14-1.15,40.93,40.93,0,0,0,.15-5.54"/><path class="cls-15" d="M105.11,11.68c0-1,0-2,0-2a2,2,0,0,1-1.48-1.85A27.77,27.77,0,0,1,103.79,3h0a4.44,4.44,0,0,1,5.08,1h0l-.19,7.84a1.69,1.69,0,0,1-1.8,1.58h0A1.78,1.78,0,0,1,105.11,11.68Z"/><path class="cls-9" d="M104.13,5.53a.21.21,0,0,0,.2.21.19.19,0,0,0,.21-.18h0a.21.21,0,0,0-.2-.22.2.2,0,0,0-.21.18Z"/><path class="cls-9" d="M103.79,5.37a2.46,2.46,0,0,1,.41-.09c.42.06.42.13.41.09s0-.06-.08-.11a.57.57,0,0,0-.33-.11.64.64,0,0,0-.33.1C103.81,5.31,103.78,5.35,103.79,5.37Z"/><path class="cls-9" d="M106.42,5.59a.22.22,0,0,0,.2.22.19.19,0,0,0,.21-.18h0a.19.19,0,0,0-.19-.21.2.2,0,0,0-.22.18Z"/><path class="cls-9" d="M106.13,5.44s.18-.08.41-.08.38.12.41.09,0-.06-.09-.11a.56.56,0,0,0-.65,0C106.14,5.39,106.12,5.43,106.13,5.44Z"/><path class="cls-9" d="M105.3,7.05a1.51,1.51,0,0,0-.37-.07c-.05,0-.11,0-.12-.06a.33.33,0,0,1,0-.17l.18-.43a8,8,0,0,0,.39-1.13,8.09,8.09,0,0,0-.48,1.09c-.06.16-.12.3-.17.44a.29.29,0,0,0,0,.22.14.14,0,0,0,.09.09h.1A1.51,1.51,0,0,0,105.3,7.05Z"/><path class="cls-14" d="M105.11,9.7a4.06,4.06,0,0,0,2.18-.56,2.07,2.07,0,0,1-2.16.95Z"/><path class="cls-14" d="M105.38,7.59a.41.41,0,0,1,.37-.15.35.35,0,0,1,.26.15.21.21,0,0,1,0,.26.26.26,0,0,1-.29.07.62.62,0,0,1-.28-.17l-.07-.07a.11.11,0,0,1,0-.08"/><path class="cls-9" d="M106,7.21s0,.24-.25.41-.47.14-.47.18.06,0,.17,0a.61.61,0,0,0,.39-.13.55.55,0,0,0,.2-.35C106,7.27,106,7.21,106,7.21Z"/><path class="cls-9" d="M108.17,2.82a6,6,0,0,1-3.3,1.92c.13-.17.83-.6,1-.77a4,4,0,0,1-1.92.92.36.36,0,0,1-.23,0,.32.32,0,0,1-.12-.26,6.58,6.58,0,0,1,0-1.47,1.63,1.63,0,0,1,.58-1,2.92,2.92,0,0,1,1.64-.43,3.78,3.78,0,0,1,1.45.2,1.33,1.33,0,0,1,.89.94"/><path class="cls-9" d="M109.87,6.62A10.23,10.23,0,0,0,110,5.53c0-.84-.2-3.92-3.08-3.68l-.12.88s-.45,3,1.42,3a3.44,3.44,0,0,0,.94,1.77s.49,0,.67-.91"/><path class="cls-15" d="M108.26,5.76a1,1,0,0,1,.52,0,.69.69,0,0,1,.38.35.77.77,0,0,1,0,.52,1.19,1.19,0,0,1-.3.43.75.75,0,0,1-.32.21.39.39,0,0,1-.36-.06"/><path class="cls-14" d="M108.34,6.82s0,.11.21.07a.34.34,0,0,0,.2-.17.75.75,0,0,0,.09-.29.42.42,0,0,0-.07-.31.3.3,0,0,0-.22-.14c-.16,0-.22.11-.2.11a.3.3,0,0,1,.18,0,.3.3,0,0,1,.18.34c0,.18-.09.34-.19.38S108.35,6.8,108.34,6.82Z"/><path class="cls-9" d="M108.57,2.51a1,1,0,0,0,1.33-.36.59.59,0,0,0,.09-.47.66.66,0,0,0-.48-.42,1,1,0,0,0-.91.22.91.91,0,0,0-.24.9.79.79,0,0,0,.75.51"/><path class="cls-9" d="M108.83,7.18a2.74,2.74,0,0,0-.45.39.79.79,0,0,0-.19.55,1.24,1.24,0,0,1,0,.33,1.18,1.18,0,0,1-.23.39.92.92,0,0,0,.15,1.09,1.49,1.49,0,0,0,1.06.43,1,1,0,0,0,.66-.16,1.06,1.06,0,0,0,.38-.87"/><path class="cls-10" d="M109,3.15a1.11,1.11,0,0,1-.17.3,3.59,3.59,0,0,1-.56.61,3.25,3.25,0,0,1-.68.46,1.66,1.66,0,0,1-.31.12,8.77,8.77,0,0,0,1-.64A10.36,10.36,0,0,0,109,3.15Z"/><path class="cls-10" d="M109.33,3.14a1.31,1.31,0,0,1,0,.39,3,3,0,0,1-.37.89,3.18,3.18,0,0,1-.62.75,1.24,1.24,0,0,1-.32.23,5,5,0,0,0,.87-1A5.09,5.09,0,0,0,109.33,3.14Z"/><path class="cls-10" d="M103.06,4.45s.06.27.16.59a5.91,5.91,0,0,1,.19.58A1.82,1.82,0,0,1,103.06,4.45Z"/><path class="cls-10" d="M110,10a.49.49,0,0,0,.24.08.44.44,0,0,0,.27-.09.54.54,0,0,0,.21-.31.94.94,0,0,0,0-.47,4.58,4.58,0,0,0-.16-.54,1.5,1.5,0,0,1-.07-.63,4.39,4.39,0,0,1,.26-.63.83.83,0,0,0,0-.62.82.82,0,0,0-.43-.39,1.11,1.11,0,0,1-.27-.12.51.51,0,0,1-.22-.19.92.92,0,0,1-.1-.49,1.77,1.77,0,0,0,0-.4.66.66,0,0,0-.12-.27.36.36,0,0,0-.21-.13h.07a.33.33,0,0,1,.17.1.72.72,0,0,1,.13.28,1.42,1.42,0,0,1,0,.41.82.82,0,0,0,.1.46.88.88,0,0,0,.45.27.83.83,0,0,1,.47.43.9.9,0,0,1,.06.68,4.28,4.28,0,0,0-.26.61,1.36,1.36,0,0,0,.07.6c0,.19.11.37.15.54a1.1,1.1,0,0,1,0,.51.61.61,0,0,1-.24.33.55.55,0,0,1-.3.09A.4.4,0,0,1,110,10,.1.1,0,0,1,110,10Z"/><path class="cls-10" d="M108.85,9.88a.21.21,0,0,0,.09.09.27.27,0,0,0,.31-.09.48.48,0,0,0,0-.49,1.94,1.94,0,0,1-.31-.61.42.42,0,0,1,.08-.36c.08-.09.17-.16.23-.23a.71.71,0,0,0,.11-.51,2,2,0,0,0-.09-.35.65.65,0,0,1,0-.13.86.86,0,0,1,.07.12,1.9,1.9,0,0,1,.12.36.71.71,0,0,1-.11.55c-.07.09-.16.16-.22.24a.35.35,0,0,0-.07.3,2.35,2.35,0,0,0,.3.59.56.56,0,0,1,0,.56.31.31,0,0,1-.2.11.33.33,0,0,1-.17,0C108.84,9.94,108.84,9.88,108.85,9.88Z"/><path class="cls-10" d="M102.7,9.47l-.13-.13a1.62,1.62,0,0,1-.27-.41.83.83,0,0,1-.07-.34.57.57,0,0,1,.14-.38c.1-.12.24-.18.32-.28a.45.45,0,0,0,.07-.4,1.94,1.94,0,0,0-.17-.42,1.29,1.29,0,0,1-.16-.41.52.52,0,0,1,.08-.4,1.36,1.36,0,0,1,.24-.24.77.77,0,0,0,.27-.39.48.48,0,0,0,0-.17l0,0a.22.22,0,0,1,0,.14.7.7,0,0,1-.26.42,1.7,1.7,0,0,0-.22.24.53.53,0,0,0-.06.35,1.4,1.4,0,0,0,.16.38,1.85,1.85,0,0,1,.18.44.6.6,0,0,1-.08.47c-.11.12-.25.18-.33.27a.53.53,0,0,0-.13.34.67.67,0,0,0,0,.31,1.55,1.55,0,0,0,.25.41Z"/><path class="cls-18" d="M109.24,2.71a3,3,0,0,0-.38-.42,3,3,0,0,0-.51-.25,1,1,0,0,1,.89.67Z"/><path class="cls-10" d="M109.46,1.21a.37.37,0,0,1,.1.18.85.85,0,0,1-.25.91c-.1.09-.18.11-.18.1a1.47,1.47,0,0,0,.14-.14.94.94,0,0,0,.24-.86A1.33,1.33,0,0,1,109.46,1.21Z"/><path class="cls-19" d="M101.5,20.5s3.9,3.7,6.21,3a4.56,4.56,0,0,0,3-2.41l.06-.63-.23-.15-8.92-.72Z"/><path class="cls-14" d="M99.2,17l.75-1.92,2.69,1.69-2.4,3.7A6.4,6.4,0,0,1,99.2,17Z"/><path class="cls-18" d="M102.24,11.71a9.35,9.35,0,0,1,2.87-.84h0a2,2,0,0,0,2.86.41l.75-.51.32,0A4,4,0,0,1,112.63,14a8.24,8.24,0,0,1,.18,2,2,2,0,0,1-1.87,1.87s-.09,1.69-.21,3.06h0a2.56,2.56,0,0,1-1.55,2.22,6.51,6.51,0,0,1-2,.61,6.66,6.66,0,0,1-5.89-2c.27-1.63.53-3.75.51-3.84a0,0,0,0,1,0,0l-1.76-1.56-1-.84s2.2-3.25,3.17-3.78"/><path class="cls-20" d="M104.42,12.76a.88.88,0,0,0-.44-.12.69.69,0,0,0-.45.16,1.34,1.34,0,0,0-.2.21.54.54,0,0,1-.28.19.47.47,0,0,1-.33-.09,2.56,2.56,0,0,0-.25-.16.54.54,0,0,0-.46,0,.64.64,0,0,0-.27.19c0,.06-.06.1-.07.1a.21.21,0,0,1,0-.12.53.53,0,0,1,.27-.22.59.59,0,0,1,.52,0l.25.16a.39.39,0,0,0,.27.08.45.45,0,0,0,.24-.16l.22-.22a.72.72,0,0,1,.49-.15.69.69,0,0,1,.34.09Z"/><path class="cls-20" d="M106.2,15.11a.94.94,0,0,0-.37-.25.76.76,0,0,0-.47,0l-.26.14a.63.63,0,0,1-.33.09.47.47,0,0,1-.28-.19l-.19-.24a.55.55,0,0,0-.42-.19.8.8,0,0,0-.31.09l-.1.07s0,0,.08-.09a.6.6,0,0,1,.81.07c.07.07.12.16.19.24a.36.36,0,0,0,.23.15.45.45,0,0,0,.28-.07,1.82,1.82,0,0,1,.27-.15.77.77,0,0,1,.52,0,.72.72,0,0,1,.29.2A.22.22,0,0,1,106.2,15.11Z"/><path class="cls-20" d="M110.17,11.68a.86.86,0,0,0-.45,0,.77.77,0,0,0-.41.25l-.15.25a.51.51,0,0,1-.23.25.52.52,0,0,1-.35,0l-.27-.11a.53.53,0,0,0-.46.06.54.54,0,0,0-.22.23.45.45,0,0,0,0,.12s0,0,0-.13a.6.6,0,0,1,.73-.35l.28.1a.34.34,0,0,0,.28,0,.53.53,0,0,0,.21-.21,1.35,1.35,0,0,1,.15-.26.75.75,0,0,1,.46-.25.57.57,0,0,1,.34,0A.23.23,0,0,1,110.17,11.68Z"/><path class="cls-20" d="M108.34,14.25a.76.76,0,0,0-.28-.2.5.5,0,0,0-.36,0,1,1,0,0,0-.21.1.45.45,0,0,1-.26,0A.34.34,0,0,1,107,14a1.56,1.56,0,0,0-.13-.19.38.38,0,0,0-.31-.16.64.64,0,0,0-.33.1l.07-.07a.47.47,0,0,1,.63.08,2.14,2.14,0,0,1,.13.19.26.26,0,0,0,.17.12c.15,0,.28-.1.43-.14a.58.58,0,0,1,.41,0C108.3,14.1,108.35,14.25,108.34,14.25Z"/><path class="cls-20" d="M104.3,16.42a.69.69,0,0,0-.28-.2.5.5,0,0,0-.36,0l-.2.1a.43.43,0,0,1-.27.06.4.4,0,0,1-.22-.16l-.13-.19a.47.47,0,0,0-.31-.16.57.57,0,0,0-.33.11.27.27,0,0,1,.07-.08.45.45,0,0,1,.26-.08.44.44,0,0,1,.37.16,2.14,2.14,0,0,1,.13.19.31.31,0,0,0,.17.13c.15,0,.28-.11.43-.15a.58.58,0,0,1,.41,0C104.26,16.26,104.31,16.42,104.3,16.42Z"/><path class="cls-20" d="M108.07,16.47a.64.64,0,0,0-.33-.1.52.52,0,0,0-.34.1l-.16.16a.43.43,0,0,1-.23.14.37.37,0,0,1-.26-.08l-.18-.14a.43.43,0,0,0-.35,0,.54.54,0,0,0-.27.2.16.16,0,0,1,0-.09.43.43,0,0,1,.21-.17.46.46,0,0,1,.41,0l.19.13a.29.29,0,0,0,.2.07c.15,0,.23-.19.36-.28a.54.54,0,0,1,.39-.1A.39.39,0,0,1,108.07,16.47Z"/><path class="cls-20" d="M106.83,18.19a.79.79,0,0,0-.33-.1.53.53,0,0,0-.35.1c-.06,0-.11.11-.16.16a.39.39,0,0,1-.23.14.37.37,0,0,1-.26-.08l-.18-.14a.43.43,0,0,0-.35,0,.6.6,0,0,0-.27.2.15.15,0,0,1,0-.09.46.46,0,0,1,.62-.13l.2.13a.27.27,0,0,0,.2.07c.14,0,.22-.19.35-.28a.63.63,0,0,1,.4-.1A.42.42,0,0,1,106.83,18.19Z"/><path class="cls-20" d="M104.2,22.46a.81.81,0,0,0-.29-.19.45.45,0,0,0-.36,0,.75.75,0,0,0-.2.1.4.4,0,0,1-.26.06.36.36,0,0,1-.22-.16l-.14-.19a.4.4,0,0,0-.31-.15.58.58,0,0,0-.32.1.18.18,0,0,1,.06-.07.43.43,0,0,1,.26-.09.44.44,0,0,1,.37.16l.14.18a.27.27,0,0,0,.17.13c.15,0,.28-.11.43-.16a.55.55,0,0,1,.4,0A.49.49,0,0,1,104.2,22.46Z"/><path class="cls-20" d="M107.28,23.37a.75.75,0,0,0-.33-.1.55.55,0,0,0-.35.1l-.15.15a.43.43,0,0,1-.23.14.34.34,0,0,1-.26-.08,1.82,1.82,0,0,0-.19-.14.41.41,0,0,0-.34-.06.63.63,0,0,0-.28.2.19.19,0,0,1,0-.09.48.48,0,0,1,.22-.15.49.49,0,0,1,.41,0l.18.14a.38.38,0,0,0,.21.07c.14,0,.23-.19.35-.28a.63.63,0,0,1,.4-.1A.49.49,0,0,1,107.28,23.37Z"/><path class="cls-9" d="M97.12,10.41c.1.11,3.54,4.72,3.54,4.72l-.48.28-3.54-4.55Z"/><path class="cls-15" d="M110.58,13.7s-3.24,5.58-3.45,5.68c-.43.2-5.39-4.09-5.87-4.5l-.47-.63s-.39-1.79-.81-1.66.23.91,0,1.6-1.52-.95-1.57-1.09l-.31-.42A5.52,5.52,0,0,0,97.74,14,6.37,6.37,0,0,0,99,16.83s4.91,6.16,8.63,6.36c1.07.06,3.12-3,4.39-5.3a2.69,2.69,0,0,0-.86-3.7Z"/><path class="cls-14" d="M98.35,14.25a3,3,0,0,1-.47-.94s.11.21.24.47A4.79,4.79,0,0,1,98.35,14.25Z"/><path class="cls-18" d="M110.43,12.14c-.13.08-3.14,5.66-3.14,5.66l3.87,3a44.85,44.85,0,0,0,1.54-4.49,6.45,6.45,0,0,0-.14-2.58c-.28-.8-.72-.6-1.37-1.07Z"/><g class="cls-21"><path d="M111.7,12.14l-.11-.06a.83.83,0,0,0-.34-.07,1,1,0,0,0-.51.21,2.84,2.84,0,0,0-.5.54c-.17.25-.32.51-.47.78s-.33.59-.51.91l-1.19,2.08-.75,1.29v-.05l2.62,2.07.76.61.2.16a.23.23,0,0,1,.07.07l-.07-.05-.21-.16-.78-.59-2.63-2,0,0,0,0c.24-.41.49-.84.74-1.29l1.2-2.08.52-.9c.15-.27.3-.53.47-.78a2.52,2.52,0,0,1,.53-.55,1,1,0,0,1,.53-.21.73.73,0,0,1,.35.09l.08,0Z"/></g><path class="cls-20" d="M110.54,17.38a.69.69,0,0,0-.28-.2.55.55,0,0,0-.36,0,1.24,1.24,0,0,0-.2.1.42.42,0,0,1-.27.06.38.38,0,0,1-.22-.16,2.14,2.14,0,0,0-.13-.19.4.4,0,0,0-.31-.15.53.53,0,0,0-.32.1.17.17,0,0,1,.06-.08.5.5,0,0,1,.26-.08.43.43,0,0,1,.37.16l.14.19a.27.27,0,0,0,.17.13c.14,0,.28-.1.43-.15a.55.55,0,0,1,.4,0C110.5,17.22,110.56,17.38,110.54,17.38Z"/><path class="cls-20" d="M112.31,16.66a.74.74,0,0,0-.22-.28.52.52,0,0,0-.34-.1.85.85,0,0,0-.22,0,.42.42,0,0,1-.27,0,.39.39,0,0,1-.17-.21c0-.08,0-.16-.07-.22a.4.4,0,0,0-.26-.23.56.56,0,0,0-.34,0,.21.21,0,0,1,.08-.06.5.5,0,0,1,.27,0,.47.47,0,0,1,.32.26c0,.07,0,.15.08.22a.27.27,0,0,0,.13.17c.13.06.29,0,.45,0a.59.59,0,0,1,.38.14A.44.44,0,0,1,112.31,16.66Z"/><path class="cls-20" d="M112.4,14.35a.64.64,0,0,0-.22-.27.51.51,0,0,0-.34-.11l-.22,0a.36.36,0,0,1-.27,0,.36.36,0,0,1-.17-.21c0-.08,0-.16-.07-.22a.4.4,0,0,0-.26-.23.56.56,0,0,0-.34,0,.16.16,0,0,1,.08-.05.42.42,0,0,1,.27,0,.49.49,0,0,1,.32.26c0,.07,0,.15.08.22a.27.27,0,0,0,.13.17c.13.06.29,0,.45,0a.59.59,0,0,1,.38.14A.41.41,0,0,1,112.4,14.35Z"/><path class="cls-20" d="M111.54,19.66a.71.71,0,0,0-.21-.27.61.61,0,0,0-.35-.11l-.22,0a.42.42,0,0,1-.27,0,.36.36,0,0,1-.16-.22c0-.08,0-.15-.08-.21a.41.41,0,0,0-.26-.24.56.56,0,0,0-.34,0,.24.24,0,0,1,.09,0,.46.46,0,0,1,.58.25l.08.21a.31.31,0,0,0,.13.17c.13.07.3,0,.45,0a.52.52,0,0,1,.38.13A.4.4,0,0,1,111.54,19.66Z"/></g><g id="freepik--character-2--inject-54"><path class="cls-8" d="M61.91,166.74,61.76,175s8.32,2.92,8.44,4.44l-16,.29-.3-12.83Z"/><path class="cls-13" d="M56.82,174.37a.65.65,0,0,0-.44.75.62.62,0,0,0,.73.44.67.67,0,0,0,.46-.79.64.64,0,0,0-.82-.37"/><path class="cls-9" d="M54.24,179.7l0-1.3,15.3.21s.73.3.64.8Z"/><path class="cls-22" d="M62,174.89c0,.08-.39.12-.77.36s-.57.6-.65.57,0-.49.5-.79S62,174.82,62,174.89Z"/><path class="cls-9" d="M63.71,175.55c0,.08-.32.22-.57.55s-.34.68-.41.68-.14-.44.19-.85S63.71,175.48,63.71,175.55Z"/><path class="cls-22" d="M64.7,177.54c-.07,0-.19-.37,0-.8s.55-.61.59-.55-.19.3-.34.66S64.78,177.53,64.7,177.54Z"/><path class="cls-9" d="M61.85,173c0,.08-.39,0-.83,0s-.79.19-.83.12.28-.36.81-.39A1,1,0,0,1,61.85,173Z"/><path class="cls-8" d="M52.63,162.36l-5.71,5.92s4.1,7.8,3.15,9L38.2,166.61,46.72,157Z"/><path class="cls-13" d="M43.7,164.47a.65.65,0,0,0-.83.25.63.63,0,0,0,.24.83.69.69,0,0,0,.88-.27.66.66,0,0,0-.36-.84"/><path class="cls-9" d="M38.2,166.61l.9-.93,11.06,10.59s.32.7-.07,1Z"/><path class="cls-22" d="M47.16,168.39c0,.06-.36-.17-.82-.24s-.82,0-.86,0,.37-.32.91-.23S47.22,168.35,47.16,168.39Z"/><path class="cls-22" d="M48,170c0,.07-.37-.06-.8,0s-.7.27-.76.22.2-.42.73-.49S48,170,48,170Z"/><path class="cls-9" d="M47.33,172.15c-.07,0,.11-.39.55-.58s.82-.06.8,0-.34.09-.69.25S47.38,172.2,47.33,172.15Z"/><path class="cls-9" d="M48.31,166.9c-.07,0-.26-.29-.61-.56s-.7-.4-.68-.48.44-.06.85.27S48.38,166.88,48.31,166.9Z"/><path class="cls-23" d="M84.11,77.55l-7,4.64L77.2,84,79,87.88s.85.8,3.33-1.72A56.23,56.23,0,0,0,88,78.64Z"/><path class="cls-9" d="M95.93,67.89a.59.59,0,0,0-.46-.34L92,67.09a1.14,1.14,0,0,0-.84.25L81.34,75.8l.45.44,3.69.88L96,68Z"/><path class="cls-24" d="M93.2,68.58a.22.22,0,0,0,.3,0,.2.2,0,0,0,.1-.26h0a.2.2,0,0,0-.29,0,.21.21,0,0,0-.11.27Z"/><path class="cls-10" d="M96,68a3.12,3.12,0,0,1-.68-.05l-1.82-.21-1.26-.16a.71.71,0,0,0-.6.16l-.56.48-2.52,2.17c-1.79,1.53-3.42,2.92-4.6,3.9L82.54,75.5a3.56,3.56,0,0,1-.53.41,4.25,4.25,0,0,1,.48-.47l1.37-1.21c1.16-1,2.77-2.42,4.56-4L91,68.12l.57-.48a.92.92,0,0,1,.73-.19l1.26.19,1.83.28A5.09,5.09,0,0,1,96,68Z"/><path class="cls-23" d="M92.42,69.81s-.31-.15-.73.7S90,73.8,90,73.8l-1.46-1.4-2.24-.33s-.6.3-.32.64a8.13,8.13,0,0,0,1.58,1l.6,1.73-2.5-2.19s-1,0-.92.65a19.67,19.67,0,0,0,1.55,3.06l-1.42-.52-1.43-1.53s-.54-.12-.46.38a16.59,16.59,0,0,0,1.4,2.64l1.88,1.66s1.21.25,1.43-.07a4.17,4.17,0,0,0,.36-.81s.68,0,.88-.26a2.2,2.2,0,0,0,.27-.78s.94.45,1.22-.07a6.45,6.45,0,0,0,.49-2.08c0-.45,1.65-4.25,1.64-4.38S93.12,69.73,92.42,69.81Z"/><path class="cls-25" d="M87.69,79.48a1.19,1.19,0,0,1-.62,0A4,4,0,0,1,85.65,79a3.86,3.86,0,0,1-1.14-1,1.28,1.28,0,0,1-.31-.53,6.68,6.68,0,0,0,1.57,1.28A7.84,7.84,0,0,0,87.69,79.48Z"/><path class="cls-25" d="M87.39,78.56s-.36-.27-.69-.73-.5-.87-.44-.9.31.32.63.77S87.44,78.52,87.39,78.56Z"/><path class="cls-25" d="M89.06,77s-.37-.26-.66-.73a1.87,1.87,0,0,1-.37-.91s.28.36.55.79S89.11,77,89.06,77Z"/><path class="cls-25" d="M90.69,75.83a5.78,5.78,0,0,1-.39-1c-.22-.54-.47-1-.41-1s.39.34.62.91A1.71,1.71,0,0,1,90.69,75.83Z"/><path class="cls-10" d="M64.74,39.72a37.12,37.12,0,0,0-5.21,2.68c-.31.22-.66.59-.48.92s.82.48,1.16.54a11.14,11.14,0,0,0,5.7-.7Z"/><path class="cls-9" d="M65.76,48.27a29.82,29.82,0,0,1-1.24-5A10.48,10.48,0,0,1,65,38.17c.1-.24.9-1.87,1.16-1.83s-.32,1.55-.23,1.71a8.81,8.81,0,0,1,.93,5.18,23.22,23.22,0,0,1-1.1,5.06"/><path class="cls-23" d="M73.72,68.26c-2.67-.1-8.29-7.84-8.25-10.5l.21-16.07c-.08-4.31,2.36-8,6.68-7.92l.4,0A7.72,7.72,0,0,1,80,41.39c.05,3.75.05,7.88-.11,9.86-.33,4.13-4.5,4.49-4.5,4.49s0,1-.07,2.19c-.06,2.73,1,10.4-1.73,10.31Z"/><path class="cls-25" d="M75.35,55.76a10,10,0,0,1-5.28-1.95,5.17,5.17,0,0,0,5.24,3.1Z"/><path class="cls-9" d="M78.56,44.78a.59.59,0,0,1-.61.56.57.57,0,0,1-.58-.56h0a.6.6,0,0,1,.61-.56.58.58,0,0,1,.58.56Z"/><path class="cls-9" d="M79,43.16c-.08.07-.5-.28-1.13-.33s-1.13.25-1.19.17.05-.18.27-.31a1.58,1.58,0,0,1,.95-.22,1.56,1.56,0,0,1,.9.36C78.94,43,79,43.13,79,43.16Z"/><path class="cls-9" d="M72.74,44.66a.59.59,0,0,1-.59.56.57.57,0,0,1-.57-.56h0a.6.6,0,0,1,.61-.56A.57.57,0,0,1,72.74,44.66Z"/><path class="cls-9" d="M72.72,42.89c-.08.07-.5-.29-1.14-.33s-1.12.25-1.19.17,0-.18.27-.31a1.68,1.68,0,0,1,1-.23,1.48,1.48,0,0,1,.9.37C72.7,42.71,72.76,42.86,72.72,42.89Z"/><path class="cls-9" d="M74.67,47.92a4,4,0,0,1,1-.11c.17,0,.32,0,.37-.14a.94.94,0,0,0-.08-.49l-.4-1.26a21.5,21.5,0,0,1-.85-3.29,23.28,23.28,0,0,1,1.12,3.23c.13.44.26.87.36,1.27a1,1,0,0,1,0,.64A.4.4,0,0,1,76,48h-.28A3.62,3.62,0,0,1,74.67,47.92Z"/><path class="cls-9" d="M72.82,40.51c-.1.16-.7,0-1.46-.12s-1.38,0-1.46-.17.11-.21.37-.33a2.56,2.56,0,0,1,2.25.22C72.76,40.28,72.88,40.44,72.82,40.51Z"/><path class="cls-9" d="M78.9,41.67c-.14.14-.65,0-1.27-.08s-1.15,0-1.27-.12,0-.22.28-.34a2,2,0,0,1,1-.19,1.92,1.92,0,0,1,1,.35C78.9,41.45,79,41.6,78.9,41.67Z"/><path class="cls-23" d="M65.81,44.78c-.07,0-2.79-1-2.89,1.8a2.14,2.14,0,0,0,2.78,2.27C65.7,48.77,65.81,44.78,65.81,44.78Z"/><path class="cls-26" d="M64.87,47.75l-.13.06a.48.48,0,0,1-.37,0,1.22,1.22,0,0,1-.53-1.12A1.57,1.57,0,0,1,64,46a.57.57,0,0,1,.38-.36.25.25,0,0,1,.29.14c0,.08,0,.14,0,.15s.06-.05,0-.17a.29.29,0,0,0-.11-.18.36.36,0,0,0-.27-.08.73.73,0,0,0-.53.42,1.92,1.92,0,0,0-.2.78,1.3,1.3,0,0,0,.68,1.25.54.54,0,0,0,.46-.06C64.85,47.81,64.88,47.75,64.87,47.75Z"/><path class="cls-9" d="M78.25,36.65c.46-.24-.88-1.76-2-2.3a10.13,10.13,0,0,0-5.84-1,6.83,6.83,0,0,0-4.49,3.09,11.13,11.13,0,0,0-1.4,5.65,3.39,3.39,0,0,0,.36,1.74c.37.64,1.13,1.05,1.08,1.92a1.11,1.11,0,0,0,.27.87c.5.56,1.15.06,1.46-.45a8.26,8.26,0,0,0,.84-3.69,8.38,8.38,0,0,0-.11-2.69c-.12-.48-.34-.93-.43-1.41A1.71,1.71,0,0,1,68.23,37a1.75,1.75,0,0,1,.24-.23,3,3,0,0,1,3-.48c1.58.61,4.28,1.52,5,1A4.16,4.16,0,0,0,77.72,36Z"/><path class="cls-9" d="M72.91,48.22s-.07.16,0,.41a1.57,1.57,0,0,0,.49.84,2.64,2.64,0,0,0,.8.5c.22.09.36.11.39.08s-.1-.14-.29-.27a5.24,5.24,0,0,1-.71-.53C73.08,48.8,73,48.2,72.91,48.22Z"/><path class="cls-10" d="M77.18,34.27a7.81,7.81,0,0,0-8-1.57c-2.52,1-4.9,3.45-5.16,6.13l.07,2,.37-.2A63.1,63.1,0,0,1,71,38.42c3.18-.62,8.62.42,8.62.42A8.21,8.21,0,0,0,77.18,34.27Z"/><path class="cls-9" d="M77,36.73a1.29,1.29,0,0,0-.76-.5,7,7,0,0,0-3.25-.08,1.72,1.72,0,0,0-.78.26.67.67,0,0,0-.29.73c.1.36.58.48,1,.44a3.79,3.79,0,0,0,1.2-.17,6.78,6.78,0,0,1,2.29.08.88.88,0,0,0,.36,0,.53.53,0,0,0,.31-.69Z"/><path class="cls-9" d="M73.66,37a1.64,1.64,0,0,1,1.24,2,1.54,1.54,0,0,1-.29.62,1.42,1.42,0,0,0,.92-.82,1.25,1.25,0,0,1,0,.93,2.18,2.18,0,0,0,.89-.84,2.48,2.48,0,0,1,0,1.05,1.85,1.85,0,0,0,.84-1.13,2.57,2.57,0,0,0,0-1.43,1.37,1.37,0,0,0-.58-.88,1.7,1.7,0,0,0-1-.14,9.55,9.55,0,0,0-2.13.26"/><path class="cls-9" d="M79.64,38.05A3.11,3.11,0,0,1,79,38l-.74-.12c-.29,0-.59-.09-.94-.12a22.78,22.78,0,0,0-2.48-.16,23.8,23.8,0,0,0-3,.14,25.62,25.62,0,0,0-3,.52,24,24,0,0,0-2.38.69c-.34.11-.64.23-.9.33l-.67.27a4.07,4.07,0,0,1-.58.22,3.6,3.6,0,0,1,.55-.29c.18-.09.39-.19.66-.3s.55-.24.89-.36a22,22,0,0,1,2.39-.73,22.22,22.22,0,0,1,8.56-.46c.37,0,.68.11.95.16s.52.09.71.14A3.89,3.89,0,0,1,79.64,38.05Z"/><path class="cls-9" d="M70.94,32.39s-.32.24-.78.66a7.18,7.18,0,0,0-2.29,4.25c-.09.63-.08,1-.11,1s0-.1,0-.27a4.79,4.79,0,0,1,0-.76A6.48,6.48,0,0,1,70.07,33a3.86,3.86,0,0,1,.62-.44C70.85,32.42,70.93,32.38,70.94,32.39Z"/><path class="cls-9" d="M75.1,36.29a6.18,6.18,0,0,1-.23-.73A5.81,5.81,0,0,0,74,34a5.59,5.59,0,0,0-1.32-1.25,4.5,4.5,0,0,1-.65-.42,2.15,2.15,0,0,1,.73.31A4.87,4.87,0,0,1,75,35.51,2.06,2.06,0,0,1,75.1,36.29Z"/><g class="cls-27"><path d="M64.49,40.6a15.48,15.48,0,0,0-5.11,3,2.74,2.74,0,0,0,.75.24,8.91,8.91,0,0,0,2.25.14,8.3,8.3,0,0,0,2.21-.36Z"/></g><path class="cls-9" d="M52.36,97.46l-1.83,11.39,1.34,9.42.06,2,1.35,10.05s-.5,9.47-.75,11.52.64,31,.64,31l9.21-.41s3.48-42.94,3.46-43.41S70.63,97,70.63,97Z"/><path class="cls-9" d="M75.63,99.22s-.18,38.57-1,40.8-25.07,26.2-25.07,26.2l-7.67-6,19.58-26.32,1.21-36.75Z"/><path class="cls-10" d="M69.21,109.3c.05,0-1.09,9.75-2.55,21.75s-2.7,21.74-2.75,21.73S65,143,66.47,131,69.16,109.29,69.21,109.3Z"/><path class="cls-10" d="M53.27,130.37a.14.14,0,0,1,0,.09v.28c0,.26,0,.62-.07,1.07-.08.93-.17,2.28-.27,3.94-.18,3.32-.34,7.92-.3,13s.19,9.67.28,13c0,1.66.07,3,.09,3.95v1.45a.17.17,0,0,1,0-.1,1.47,1.47,0,0,0,0-.28c0-.26,0-.62,0-1.07,0-.95-.09-2.29-.15-3.94-.12-3.33-.3-7.93-.33-13s.14-9.69.36-13c.12-1.67.23-3,.33-3.94,0-.45.08-.8.11-1.06s0-.21,0-.28A.28.28,0,0,1,53.27,130.37Z"/><path class="cls-10" d="M62.58,108.49s-1.65.93-3.74,2S55,112.31,55,112.26s1.65-.93,3.74-2S62.56,108.44,62.58,108.49Z"/><path class="cls-22" d="M81.13,78.65l4.62,4.17s-7.23,7.91-9.47,9.65.88-11.84.88-11.84Z"/><path class="cls-22" d="M64.43,53.92,62.5,56.59,55,59.35,51.63,84.8l-2.15,22.73s3-4.28,5.29-4.33,13.9,3.18,14.69,3.77L71,101.83l1.26,6s2.19.48,3.31-2.77l-.48-11.3s1.53-20.36,1.46-23.43S74.38,58.7,74.38,58.7l-.77,2.51-6.74-5.75Z"/><path class="cls-22" d="M57.18,58.58s-4.92,0-6.5,9.09S46.8,86.55,48,90.21s5.79,14.18,5.79,14.18l6.34-2.29-2.6-16.53,3-16.18S60.89,59.25,57.18,58.58Z"/><path class="cls-23" d="M63.84,105.76s-3-3.55-3.25-3.47l-5,1.83a20.84,20.84,0,0,0,0,3.87c.2,1.86.52,3.84.52,3.84l6.6-3.52a12.25,12.25,0,0,0,.64,2.14c.37.77,1.65,0,1.65,0Z"/><path class="cls-9" d="M61.52,69.39a1.58,1.58,0,0,1,0,.29c0,.19-.09.48-.15.85l-.59,3.24c-.51,2.81-1.25,6.85-2.16,11.82v0c.73,4.71,1.64,10.35,2.62,16.53v.08l-.08,0-6.33,2.29-.08,0,0-.08c-.64-1.5-1.32-3.07-2-4.67-1.21-2.86-2.39-5.66-3.4-8.4-.13-.34-.24-.69-.37-1,0-.17-.09-.36-.13-.53a3.41,3.41,0,0,1-.1-.54,7.87,7.87,0,0,1-.09-1.08,9.37,9.37,0,0,1,0-1.06A35.78,35.78,0,0,1,48.93,83c.37-2.68.82-5.19,1.25-7.55s.85-4.55,1.23-6.55q.26-1.5.57-2.85l.36-1.29c.14-.41.3-.8.44-1.18a9.86,9.86,0,0,1,2.27-3.46,5.9,5.9,0,0,1,2.24-1.35,3.8,3.8,0,0,1,.67-.14h.23l-.23,0a3.53,3.53,0,0,0-.66.16,6,6,0,0,0-2.19,1.37,9.72,9.72,0,0,0-2.23,3.45c-.13.36-.29.76-.42,1.17s-.24.84-.37,1.28c-.19.89-.38,1.83-.55,2.85-.37,2-.77,4.19-1.2,6.55s-.89,4.87-1.23,7.54a37.76,37.76,0,0,0-.35,4.11v1.06a9.47,9.47,0,0,0,.09,1.06,4.76,4.76,0,0,0,.1.52c0,.17.08.36.13.52.12.34.23.69.37,1,1,2.74,2.19,5.54,3.4,8.4l2,4.65-.12,0L61.08,102l-.06.1c-1-6.18-1.85-11.82-2.58-16.53v0l2.22-11.81c.27-1.39.48-2.48.63-3.23.07-.36.12-.64.16-.84S61.52,69.39,61.52,69.39Z"/><path class="cls-9" d="M74.57,61.21a2,2,0,0,1-.14.34l-.45.92-1.67,3.19-.06.13-.1-.13c-.58-.8-1.26-1.68-2-2.55a53.61,53.61,0,0,0-4-4.27c-.54-.51-1-.92-1.3-1.2s-.32-.29-.47-.45a2.83,2.83,0,0,1,.52.39c.32.27.79.66,1.34,1.17a41.4,41.4,0,0,1,4,4.24c.75.89,1.42,1.77,2,2.59h-.15l1.71-3.17.51-.9A1.21,1.21,0,0,1,74.57,61.21Z"/><path class="cls-9" d="M76.23,62.57a5.38,5.38,0,0,1,.15,2.67l0,.27-.13-.24L76,64.85c-.36-.8-.55-1.56-.74-2.09a6.45,6.45,0,0,1-.32-.86,2.9,2.9,0,0,1,.44.81c.23.52.45,1.28.8,2.06a3.73,3.73,0,0,0,.2.4l-.18,0a8.38,8.38,0,0,0,.09-1.87C76.28,62.85,76.21,62.58,76.23,62.57Z"/><path class="cls-9" d="M74.9,62.52v1.56c0,1-.06,2.43-.16,4.22-.19,3.56-.62,8.47-1.07,13.89s-.88,10.32-1.18,13.88c-.16,1.76-.3,3.19-.39,4.2,0,.49-.08.87-.11,1.14a2.13,2.13,0,0,0,0,.3s0,.07,0,.1a.17.17,0,0,1,0-.1,1.73,1.73,0,0,1,0-.3c0-.28,0-.66.07-1.15l.32-4.21c.3-3.56.69-8.47,1.14-13.89s.9-10.33,1.12-13.87c.12-1.78.18-3.22.22-4.22,0-.48,0-.87,0-1.14v-.3A.23.23,0,0,1,74.9,62.52Z"/><path class="cls-9" d="M77.55,73.22s-.23,4.62-.63,10.31-.77,10.31-.82,10.31.23-4.63.63-10.32S77.5,73.21,77.55,73.22Z"/><path class="cls-9" d="M62.75,65.3s0-.46-.22-1.16a5.66,5.66,0,0,0-3.65-4c-.68-.24-1.13-.28-1.13-.32a.86.86,0,0,1,.32,0,4.25,4.25,0,0,1,.86.18,5.42,5.42,0,0,1,3.73,4.06,5,5,0,0,1,.11.87A.92.92,0,0,1,62.75,65.3Z"/><g class="cls-27"><path d="M76.36,92.31a20.72,20.72,0,0,0,.73-11.77q-.37,5.92-.73,11.86"/></g><path class="cls-24" d="M60.73,73.52a2.29,2.29,0,0,1-.37-.12l-1-.4c-.83-.32-2-.77-3.26-1.25s-2.44-.88-3.28-1.17l-1-.35a1.66,1.66,0,0,1-.37-.14,1.51,1.51,0,0,1,.37.07l1,.29c.85.26,2,.65,3.31,1.12s2.42,1,3.24,1.31l1,.45A2.09,2.09,0,0,1,60.73,73.52Z"/><path class="cls-24" d="M62,62.79a6.82,6.82,0,0,1-1.07-.3c-.66-.19-1.57-.46-2.58-.73s-2-.46-2.62-.61a8.19,8.19,0,0,1-1.09-.25,5,5,0,0,1,1.09.12c.68.11,1.62.3,2.64.56s1.93.55,2.58.78A5.65,5.65,0,0,1,62,62.79Z"/><path class="cls-24" d="M66.47,59.17a26.94,26.94,0,0,1-3.2.73,29,29,0,0,1-3.23.54,27.24,27.24,0,0,1,3.19-.73A27.37,27.37,0,0,1,66.47,59.17Z"/><path class="cls-24" d="M67.36,55.46a6.46,6.46,0,0,1-.88,1.32,7,7,0,0,1-1,1.2,7.22,7.22,0,0,1,.88-1.32A7,7,0,0,1,67.36,55.46Z"/><path class="cls-24" d="M72.55,59.85a9.61,9.61,0,0,1-1,1.64A11,11,0,0,1,70.33,63a9.61,9.61,0,0,1,1-1.64A10.44,10.44,0,0,1,72.55,59.85Z"/><path class="cls-24" d="M74.43,71.23a2.92,2.92,0,0,1-.51,0c-.33,0-.8-.08-1.38-.16-1.16-.15-2.77-.39-4.53-.7s-3.36-.64-4.5-.89l-1.35-.32a2.88,2.88,0,0,1-.5-.15,2.09,2.09,0,0,1,.51.08l1.37.26c1.15.22,2.74.52,4.5.83s3.36.57,4.52.76l1.37.22A2.13,2.13,0,0,1,74.43,71.23Z"/><path class="cls-24" d="M77.59,70.72A12.06,12.06,0,0,1,74.7,70a6.1,6.1,0,0,1,1.46.29A6.12,6.12,0,0,1,77.59,70.72Z"/><path class="cls-24" d="M73.47,84.33s-3.19-.46-7.11-1.14-7.08-1.28-7.07-1.34,3.19.46,7.11,1.15S73.48,84.28,73.47,84.33Z"/><path class="cls-24" d="M76.74,84a12,12,0,0,1-1.59-.26,11.8,11.8,0,0,1-1.57-.32A8.16,8.16,0,0,1,76.74,84Z"/><path class="cls-24" d="M81.7,86.93c-.7-1.05-1.36-2.12-2-3.23-1-1.81-1.83-3.28-1.8-3.32a34.28,34.28,0,0,1,2,3.23A34.26,34.26,0,0,1,81.7,86.93Z"/><path class="cls-24" d="M58.54,84.31s-2.12-.26-4.72-.7-4.7-.84-4.7-.89,2.13.26,4.75.7S58.55,84.26,58.54,84.31Z"/><path class="cls-24" d="M72.46,95.52a4.34,4.34,0,0,1-.51,0c-.32,0-.78,0-1.36-.06-1.15-.07-2.74-.21-4.48-.46s-3.3-.56-4.42-.82c-.57-.13-1-.24-1.33-.33a2.21,2.21,0,0,1-.48-.15,2.74,2.74,0,0,1,.5.08l1.33.27c1.13.22,2.69.51,4.43.76s3.32.41,4.46.51l1.36.12A2.17,2.17,0,0,1,72.46,95.52Z"/><path class="cls-24" d="M76.1,95.66a17,17,0,0,1-3.55-.49,9,9,0,0,1,1.79.15A8.29,8.29,0,0,1,76.1,95.66Z"/><path class="cls-24" d="M60.43,97.44a5.53,5.53,0,0,1-1,.52c-.65.29-1.56.67-2.59,1s-2,.65-2.66.84a6.16,6.16,0,0,1-1.13.25,8.4,8.4,0,0,1,1.1-.38c.68-.22,1.61-.53,2.63-.89s1.94-.73,2.6-1A8.79,8.79,0,0,1,60.43,97.44Z"/><g class="cls-27"><path d="M61.26,70.8c-1.63,8.43-2.95,16.43-2.76,15.34l2.61,16,1.54,2.28C61.31,93.66,60.2,81.49,61.26,70.8Z"/></g></g><path class="cls-28" d="M21.69,27.89a9.75,9.75,0,0,1-17.12,0A15.38,15.38,0,0,1,21.69,27.89Z"/><circle class="cls-28" cx="13.15" cy="19.91" r="4.34"/></g></g></svg>