<svg xmlns="http://www.w3.org/2000/svg" viewBox="0 0 198.98 194.39"><defs><style>.cls-1{fill:#f5f5f5;}.cls-2{fill:#065851;}.cls-3{fill:#020202;}.cls-4{fill:#d8d0c7;}.cls-5{fill:#d2f1bb;}.cls-6{fill:#969696;}.cls-7{fill:#f9f9f9;}.cls-8{fill:#263238;}.cls-9{fill:#e0e0e0;}.cls-10{fill:#eb996e;}.cls-11{fill:#ffbe9d;}.cls-12{fill:#455a64;}.cls-13,.cls-16{isolation:isolate;}.cls-13,.cls-14{opacity:0.2;}.cls-15{fill:#ff725e;}.cls-16{opacity:0.3;}.cls-17{fill:#fafafa;}.cls-18{opacity:0.7;}</style></defs><g id="Layer_2" data-name="Layer 2"><g id="Layer_1-2" data-name="Layer 1"><g id="freepik--Shadow--inject-1"><ellipse id="freepik--path--inject-1" class="cls-1" cx="99.19" cy="188.72" rx="97.22" ry="5.68"/></g><g id="freepik--Plants--inject-96"><path class="cls-2" d="M130,175.56c-8-9.09-7.08-22.12-3.94-33.25.52-1.85.82-3.88,2.1-5.31s3.65-2,5.14-.83c1.23,1,1.43,2.77,1.88,4.3a11.27,11.27,0,0,0,3.36,5.27,4.3,4.3,0,0,0,3.76,1.3c1.84-.49,2.58-2.68,3-4.54q1.25-5.22,2.5-10.44a17.85,17.85,0,0,1,1.92-5.4,6,6,0,0,1,4.6-3,3.61,3.61,0,0,1,3.76,3.42,18.26,18.26,0,0,1-.52,2.33,2,2,0,0,0,.69,2.11,2.4,2.4,0,0,0,2.26-.34,25.14,25.14,0,0,0,6.09-5.61,35.68,35.68,0,0,1,5.86-5.92,10.36,10.36,0,0,1,7.77-2.14c2.71.51,5.15,2.85,5.17,5.64s-2.15,5.09-4.34,6.8a43.1,43.1,0,0,1-10.7,6.13,3.49,3.49,0,0,0-1.83,1.2c-.71,1.14.17,2.66,1.28,3.37a22.44,22.44,0,0,0,4.22,1.57c1.41.53,2.83,1.55,3,3.06.3,2.08-1.79,3.69-3.68,4.62a37,37,0,0,1-12,3.49,12.33,12.33,0,0,0-4.39.94,3.54,3.54,0,0,0-2.07,3.68c.34,1.47,1.95,2.32,3.45,2.41a26.38,26.38,0,0,0,4.48-.56c2.8-.34,6.06.65,7.15,3.27a6.05,6.05,0,0,1-.66,5.37,13.88,13.88,0,0,1-3.95,3.91,36.87,36.87,0,0,1-18,7c-6.45.6-12.08-.19-17.46-3.81"/><path class="cls-2" d="M127.75,183.85a84.38,84.38,0,0,1,6.81-14.61,173.48,173.48,0,0,1,11.05-16.35l3.12-4.13c1-1.36,2-2.7,3.12-3.95a85.64,85.64,0,0,1,6.62-6.85c2.22-2.08,4.37-4,6.41-5.72s4-3.34,5.81-4.72a68.27,68.27,0,0,1,9.09-5.85c1.12-.61,2-1,2.61-1.33l.7-.33a1.12,1.12,0,0,1,.25-.11l-.23.14-.67.36c-.6.3-1.47.76-2.58,1.39a70.72,70.72,0,0,0-9,5.93c-1.81,1.39-3.73,3-5.77,4.74s-4.18,3.65-6.37,5.73a88.08,88.08,0,0,0-6.56,6.83c-1.07,1.25-2.08,2.58-3.11,3.94l-3.11,4.13a179.4,179.4,0,0,0-11.05,16.3A85.74,85.74,0,0,0,128,183.92"/><path class="cls-2" d="M152,144.82a3.93,3.93,0,0,1,0-.84l.18-2.28c.2-1.92.56-4.58,1-7.48s.72-5.54.88-7.47l.18-2.27a3.85,3.85,0,0,1,.1-.83,3.94,3.94,0,0,1,0,.84c0,.51,0,1.32-.07,2.28-.1,1.93-.36,4.59-.78,7.5s-.78,5.48-1.06,7.46l-.3,2.26A3.89,3.89,0,0,1,152,144.82Z"/><path class="cls-2" d="M177,146.24a5.36,5.36,0,0,1-1-.12c-.63-.1-1.52-.24-2.67-.39-2.25-.3-5.38-.61-8.84-.8s-6.61-.22-8.88-.19c-1.14,0-2.06,0-2.7.07a5.46,5.46,0,0,1-1,0,5.38,5.38,0,0,1,1-.14c.64-.06,1.56-.13,2.7-.18,2.28-.11,5.43-.11,8.91.07a87.78,87.78,0,0,1,8.86.92c1.12.17,2,.35,2.65.49A5.26,5.26,0,0,1,177,146.24Z"/><path class="cls-2" d="M135,168.87a3.06,3.06,0,0,1-.09-.33c0-.22-.12-.58-.2-1-.16-.84-.37-2.08-.61-3.58-.48-3-1-7.23-1.54-11.88s-1-8.85-1.43-11.89c-.21-1.47-.38-2.69-.5-3.59-.06-.39-.1-.72-.14-1a1.35,1.35,0,0,1,0-.35,1.33,1.33,0,0,1,.1.34c0,.26.11.58.19,1,.17.84.38,2.08.62,3.58.48,3,1,7.23,1.53,11.88s1,8.85,1.43,11.89c.21,1.47.38,2.69.51,3.59,0,.39.09.71.13,1A1.3,1.3,0,0,1,135,168.87Z"/><path class="cls-2" d="M169.34,166.45a1.34,1.34,0,0,1-.35.05l-1,.08-3.68.27c-3.1.22-7.39.59-12.13,1s-9,.72-12.15.88c-1.55.08-2.82.14-3.69.16h-1a1,1,0,0,1-.35,0,2.09,2.09,0,0,1,.35,0l1-.09,3.68-.26c3.1-.23,7.4-.59,12.14-1s9-.73,12.15-.89c1.55-.08,2.81-.13,3.69-.15h1A1,1,0,0,1,169.34,166.45Z"/><path class="cls-2" d="M49.89,60.27a5.69,5.69,0,0,1-2-5.37,7.58,7.58,0,0,1,3.26-4.85,3.21,3.21,0,0,1,2.6-.69,2.49,2.49,0,0,1,1.58,1.91,5.08,5.08,0,0,1-.3,2.56c-1,2.8-2.43,5.34-5.18,6.46"/><path class="cls-2" d="M47.3,65.06A13.33,13.33,0,0,0,35.53,62c-1,.24-2.23.79-2.4,1.85s.77,2,1.71,2.51a11.39,11.39,0,0,0,12.59-1"/><path class="cls-2" d="M32.3,42.88a6.7,6.7,0,0,1,5.12.89,11.78,11.78,0,0,1,3.68,3.85C43,50.55,43.61,54.49,43.69,58c-3.85-.15-7.13-3.18-8.7-4.82-2.49-2.59-5.41-8.78-2.72-10.23"/><path class="cls-2" d="M53.12,70.3a14.13,14.13,0,0,1-1-1.46A24.23,24.23,0,0,1,50,62.67a12.26,12.26,0,0,1,.48-6.52,8.23,8.23,0,0,1,.93-1.76,2.54,2.54,0,0,1,.47-.56,17.69,17.69,0,0,0-1.14,2.41,12.94,12.94,0,0,0-.36,6.36,28.23,28.23,0,0,0,2.05,6.14"/><path class="cls-2" d="M53.15,70.34l-2-2.58c-1.69-2.19-4-5.2-6.66-8.5s-5-6.24-6.79-8.37l-2.05-2.56a7.51,7.51,0,0,1-.72-1,9.73,9.73,0,0,1,.84.86c.51.58,1.26,1.41,2.17,2.46,1.8,2.08,4.26,5,6.89,8.31s4.93,6.34,6.56,8.57c.82,1.12,1.47,2.05,1.91,2.66"/><path class="cls-2" d="M37.93,64.26a2.21,2.21,0,0,1,.66-.21,5.5,5.5,0,0,1,.81-.15,9.39,9.39,0,0,1,1.08-.12,14.12,14.12,0,0,1,2.83.11,15.61,15.61,0,0,1,3.35.88,16.08,16.08,0,0,1,3.07,1.62,13.42,13.42,0,0,1,2.15,1.83c.26.26.5.53.73.81a8.27,8.27,0,0,1,.51.66c.25.37.21.55.19.56-.5-.64-1-1.25-1.59-1.84a17.23,17.23,0,0,0-2.16-1.73,17,17,0,0,0-3-1.53,17.57,17.57,0,0,0-3.27-.89,15.94,15.94,0,0,0-2.76-.18C38.9,64.09,37.93,64.33,37.93,64.26Z"/></g><g id="freepik--Device--inject-96"><path class="cls-3" d="M120.06,192.85,64,192.59a12.2,12.2,0,0,1-12.13-12.26L52.46,39.8A12.21,12.21,0,0,1,64.71,27.64l56.05.26A12.22,12.22,0,0,1,132.9,40.16l-.59,140.53A12.2,12.2,0,0,1,120.06,192.85Z"/><path class="cls-4" d="M120.67,32.75l-10.87,0a2.7,2.7,0,0,0-2.65,2.75h0v2a2.69,2.69,0,0,1-2.65,2.74h0l-21.19-.09a2.69,2.69,0,0,1-2.62-2.77v-2a2.7,2.7,0,0,0-2.63-2.78H74.24l-9.51,0A8.56,8.56,0,0,0,56.13,41l-.58,137.16a8.55,8.55,0,0,0,8.52,8.59L120,187a8.55,8.55,0,0,0,8.59-8.51h0l.57-137.17a8.54,8.54,0,0,0-8.47-8.61Z"/><path class="cls-4" d="M89,173.89a1.17,1.17,0,1,1-1.33-1l.18,0A1.09,1.09,0,0,1,89,173.89Z"/><path class="cls-4" d="M72.87,98.88c.92.13,55.9,10.91,55.9,10.91V98.88Z"/><path class="cls-4" d="M55.57,168.18s59.82-8.46,59.3-8.2-59.3,0-59.3,0Z"/><path class="cls-4" d="M125,8c.06,0,.12,3,.12,6.75s-.06,6.76-.12,6.76-.13-3-.13-6.76S125,8,125,8Z"/><path class="cls-4" d="M149,23.58c0,.06-2.72,1.33-6.13,2.84s-6.21,2.67-6.24,2.61,2.72-1.34,6.13-2.84S149,23.51,149,23.58Z"/><path class="cls-4" d="M148.37,0a.91.91,0,0,1-.13.26l-.41.72c-.37.62-.91,1.5-1.59,2.59-1.36,2.19-3.31,5.15-5.53,8.38s-4.19,6.18-5.59,8.33c-.68,1-1.24,1.94-1.65,2.55l-.45.69a1.08,1.08,0,0,1-.18.24c0-.09.08-.18.13-.27s.25-.42.42-.71c.36-.62.9-1.5,1.58-2.6,1.36-2.18,3.32-5.14,5.53-8.37s4.2-6.16,5.59-8.33L147.74.92l.46-.69A2,2,0,0,1,148.37,0Z"/></g><path class="cls-5" d="M189,51.72H73.64a4.51,4.51,0,0,0-4.51,4.51h0V92a4.51,4.51,0,0,0,4.51,4.51h8.6c.69,3.74,1.5,8.45,1.5,8.45l7.78-8.45H189A4.5,4.5,0,0,0,193.54,92h0V56.24a4.52,4.52,0,0,0-4.5-4.52Z"/><path class="cls-6" d="M141.42,71.13c0,.07-13.73.13-30.67.13s-30.67-.06-30.67-.13S93.81,71,110.75,71,141.42,71.07,141.42,71.13Z"/><path class="cls-6" d="M141.42,65.64c0,.07-13.73.13-30.67.13s-30.67-.06-30.67-.13,13.73-.13,30.67-.13S141.42,65.56,141.42,65.64Z"/><path class="cls-6" d="M141.42,76.58c0,.07-13.73.14-30.67.14s-30.67-.07-30.67-.14,13.73-.13,30.67-.13S141.42,76.51,141.42,76.58Z"/><path class="cls-6" d="M120.26,82.22c0,.07-9,.13-20.09.13s-20.09-.06-20.09-.13,9-.13,20.09-.13S120.26,82.14,120.26,82.22Z"/><path class="cls-7" d="M122.89,116.07H6.56a3.16,3.16,0,0,0-3.16,3.15v37.89a3.16,3.16,0,0,0,3.16,3.16H91.05l7.68,8.36s.8-4.7,1.48-8.36h22.67a3.15,3.15,0,0,0,3.15-3.16h0V119.24a3.16,3.16,0,0,0-3.14-3.17Z"/><path class="cls-6" d="M118.33,135.62c0,.07-13.73.13-30.67.13S57,135.69,57,135.62s13.73-.14,30.67-.14S118.33,135.52,118.33,135.62Z"/><path class="cls-6" d="M118.33,130.1c0,.07-13.73.13-30.67.13S57,130.17,57,130.1,70.72,130,87.66,130,118.33,130,118.33,130.1Z"/><path class="cls-6" d="M118.33,141c0,.07-13.73.13-30.67.13S57,141.11,57,141s13.73-.13,30.67-.13S118.33,141,118.33,141Z"/><path class="cls-6" d="M97.17,146.68c0,.07-9,.13-20.09.13S57,146.75,57,146.68s9-.14,20.09-.14S97.17,146.6,97.17,146.68Z"/><g id="freepik--character-2--inject-96"><path class="cls-8" d="M160,36.54a4.68,4.68,0,0,0-1.53-3,3.07,3.07,0,0,1-.86-3.26c.31-1.16,1.05-1.08,1.34-1.76a5.26,5.26,0,0,0,.17-1.63A3.41,3.41,0,0,1,163,24l.24,0a4.71,4.71,0,0,1,5.8-3.26,4.76,4.76,0,0,1,2.91,2.36,3.6,3.6,0,0,1,4.86,1.59,3.73,3.73,0,0,1,.38,1.35,2.64,2.64,0,0,1,3.43.51,3.24,3.24,0,0,1,.25,3.58,4.25,4.25,0,0,1-3.07,2.05,6.21,6.21,0,0,1-3.69-.67,11.92,11.92,0,0,1-3-2.29"/><ellipse class="cls-9" cx="168.39" cy="73.72" rx="22.16" ry="21.64"/><path class="cls-10" d="M190.64,73.74l-2.45-6.29L179.4,73l7.83,12.08A20.79,20.79,0,0,0,190.64,73.74Z"/><path class="cls-11" d="M166.39,60.12h0a5.9,5.9,0,0,0,5.93-5.57c.12-2.61.24-5.12.24-5.12s4.83-.35,5.27-5.08.51-15.65.51-15.65h0a16.76,16.76,0,0,0-16.83.73l-.46.29-.56,24.47a5.89,5.89,0,0,0,5.85,5.93Z"/><path class="cls-8" d="M169.15,36a.68.68,0,1,1-.46,1.29.68.68,0,0,1,.46-1.29Z"/><path class="cls-8" d="M170.49,36.22c-.08.08-.51-.31-1.19-.35s-1.16.26-1.22.18,0-.19.26-.33a1.65,1.65,0,0,1,1-.25,1.62,1.62,0,0,1,.94.39C170.45,36,170.51,36.19,170.49,36.22Z"/><path class="cls-8" d="M176.36,36a.67.67,0,0,1,.42.87.68.68,0,0,1-.87.42.68.68,0,1,1,.45-1.29Z"/><path class="cls-8" d="M177.78,36.23c-.08.08-.52-.31-1.19-.35s-1.16.27-1.22.18,0-.18.27-.33a1.65,1.65,0,0,1,1.92.14C177.76,36.05,177.82,36.2,177.78,36.23Z"/><path class="cls-8" d="M172.81,41.34a3.3,3.3,0,0,1,1.08-.13c.18,0,.31,0,.33-.13a.83.83,0,0,0-.08-.51c-.13-.44-.27-.89-.41-1.37a17.26,17.26,0,0,1-.84-3.58,17.91,17.91,0,0,1,1.2,3.47c.13.47.26.93.39,1.37a1.11,1.11,0,0,1,0,.72.45.45,0,0,1-.32.25h-.3A3.27,3.27,0,0,1,172.81,41.34Z"/><path class="cls-10" d="M172.54,49.37a11.22,11.22,0,0,1-6.09-2.26s1.2,3.53,6,3.49Z"/><path class="cls-11" d="M160.9,36.67a.72.72,0,0,0-.67-.73c-.89,0-2.36.28-2.56,2.72-.27,3.48,3.13,2.67,3.14,2.56S160.89,38,160.9,36.67Z"/><path class="cls-10" d="M160.09,39.85l-.18.08a.58.58,0,0,1-.45,0,1.51,1.51,0,0,1-.6-1.41,1.85,1.85,0,0,1,.24-.85.7.7,0,0,1,.51-.43.3.3,0,0,1,.34.19c.05.1,0,.17,0,.18s.08,0,.06-.2a.41.41,0,0,0-.13-.23.42.42,0,0,0-.32-.11.84.84,0,0,0-.68.51,1.86,1.86,0,0,0-.29,1,1.57,1.57,0,0,0,.78,1.57.68.68,0,0,0,.57-.05C160.07,39.94,160.1,39.86,160.09,39.85Z"/><path class="cls-8" d="M167.36,34.36c.17.23.77.13,1.56.09s1.4,0,1.54-.28-.6-.83-1.61-.74S167.16,34.13,167.36,34.36Z"/><path class="cls-8" d="M175,34.13c.09.3.67.4,1.31.39s1.22-.12,1.3-.42-.51-.72-1.31-.71S174.93,33.84,175,34.13Z"/><path class="cls-8" d="M179,30.18a7.86,7.86,0,0,1-6.6-.47c-2.45-1.22-5.3-1.82-5.93-1.33s-.76,3-3.19,3.76c0,0,.17,4.81-1.75,4.64s-.73-7.62-.73-7.62l4.7-2.29,5.12-1,4.83.68,3.73,1Z"/><path class="cls-12" d="M146.85,58.07c5-5.17,13.85-4.61,13.85-4.61L168,58.71l4.15-4.84a27,27,0,0,1,8.45,2.61l.28.09v.06c3.22,1.74,7.76,5.93,12.1,10l-5.19,4.81-5.74,5.12a.17.17,0,0,1,0,.1c-.06.31.8,7.32,1.68,12.64a21.59,21.59,0,0,1-19.29,5.83c-2.35-.41-3.48-1-5.66-1.53A7.9,7.9,0,0,1,153,86.65h0c-.39-4.46-.68-10-.68-10"/><path class="cls-8" d="M176.77,54.77a6.45,6.45,0,0,1,.32.83c.18.51.44,1.31.74,2.28.6,1.94,1.37,4.61,2.1,7.64s1.28,5.77,1.62,7.76c.17,1,.3,1.81.38,2.38a6.42,6.42,0,0,1,.09.87,6.31,6.31,0,0,1-.2-.86c-.11-.6-.27-1.39-.46-2.35-.39-2-1-4.73-1.69-7.74s-1.46-5.71-2-7.64L177,55.63A5.17,5.17,0,0,1,176.77,54.77Z"/><path class="cls-8" d="M181.48,73.23c0-.06,2.15-1.92,4.89-4.16s5-4,5.06-3.95-2.14,1.92-4.89,4.15S181.53,73.28,181.48,73.23Z"/><path class="cls-13" d="M153.48,65.15,149,79.93l1.68.87,1.64-4.18S154,67.84,153.48,65.15Z"/><g class="cls-14"><path d="M176.28,54.78c2.42,1.28-3.65,4.35-6.39,4.27l2-5.25A27.18,27.18,0,0,1,176.28,54.78Z"/></g><path class="cls-12" d="M160,53.8V49.88s7.64,2,7.92,6.54c0,0,1-5.05,4.91-5.29l.56,7.1-4.61,4h-4.62l-3.68-3.18L160,54.11"/><path class="cls-8" d="M169.62,78.36a5.89,5.89,0,0,1,0-.84c0-.54,0-1.33,0-2.29,0-1.93-.06-4.61-.3-7.54s-.63-5.59-.95-7.49c-.16-.92-.3-1.67-.4-2.25a4.88,4.88,0,0,1-.13-.84,5.87,5.87,0,0,1,.23.82c.13.51.3,1.29.48,2.24a69.64,69.64,0,0,1,1.24,15.06c0,1-.06,1.75-.1,2.29A8,8,0,0,1,169.62,78.36Z"/><path class="cls-8" d="M167.55,55.11a.91.91,0,0,0-.46,0,1.6,1.6,0,0,0-.76,1,22,22,0,0,0-1.47,4.25l0,.17-.16-.09c-.45-.28-.92-.57-1.39-.89a28.34,28.34,0,0,1-2.48-1.88,3.2,3.2,0,0,1-.85-1.11,3.41,3.41,0,0,1-.25-1.18,6.54,6.54,0,0,1,.17-1.71,2.22,2.22,0,0,1,.17-.61,4.2,4.2,0,0,1-.07.62,8,8,0,0,0-.08,1.69,3,3,0,0,0,.27,1.1,2.86,2.86,0,0,0,.8,1c.72.61,1.56,1.23,2.46,1.85l1.39.89-.19.08a18.85,18.85,0,0,1,1.53-4.24,3.14,3.14,0,0,1,.4-.66,1,1,0,0,1,.49-.33C167.42,55,167.56,55.1,167.55,55.11Z"/><path class="cls-8" d="M172.81,51.13a2.4,2.4,0,0,1,.07.6L173,53.4c.05.7.14,1.54.28,2.45a3.86,3.86,0,0,1,.09,1.51,2.53,2.53,0,0,1-1,1.28,11.64,11.64,0,0,0-1.68,1.28l-.2.23v-.31A9.11,9.11,0,0,0,169.35,56c-.49-.87-.89-1.32-.86-1.34s.12.09.3.3a7.37,7.37,0,0,1,.7,1,8.78,8.78,0,0,1,1.24,3.88l-.22-.08a10.4,10.4,0,0,1,1.71-1.32,2.28,2.28,0,0,0,.91-1.14,3.88,3.88,0,0,0-.08-1.4c-.13-.93-.19-1.77-.23-2.48s0-1.28,0-1.67A2.48,2.48,0,0,1,172.81,51.13Z"/><path class="cls-8" d="M197.41,52.11c-.31.36-11.57,15.43-11.57,15.43l1.59.91L199,53.6Z"/><path class="cls-11" d="M152.21,64s11.83,17,12.55,17.38c1.4.66,17.6-13.33,19.14-14.68.22-.28.66-.88,1.54-2.07,0,0,1.28-5.85,2.64-5.4s-.75,3,.14,5.19,5-3.07,5.12-3.55l1-1.37a17.81,17.81,0,0,1,1,4.42c-.24,4.17-4.18,9.13-4.18,9.13S173.5,95,161.36,95.69c-3.49.19-9.72-9.73-13.86-17.17a10.17,10.17,0,0,1,2.9-13.18Z"/><path class="cls-10" d="M193.4,64.66a16.93,16.93,0,0,1,.76-1.54,14.59,14.59,0,0,1,.77-1.53,10,10,0,0,1-1.54,3.07Z"/><path class="cls-12" d="M150.2,55.69s-12.7,4.51-3.26,25.88l14.67-8.85-2.09-5Z"/><path class="cls-8" d="M149.23,56.06a4.2,4.2,0,0,1,1.54.13,6,6,0,0,1,1.66.7,8.52,8.52,0,0,1,1.85,1.53,22.06,22.06,0,0,1,3.45,5.16c1.08,2.08,2.08,4.45,3.11,6.93l.9,2.17,0,.12-.11,0c-4.24,2.32-7.94,4.48-10.55,6.1-1.31.81-2.35,1.48-3.07,1.94l-.82.51a2.14,2.14,0,0,1-.3.17,1.78,1.78,0,0,1,.27-.21l.8-.57c.7-.51,1.72-1.18,3-2,2.59-1.66,6.27-3.86,10.52-6.18l-.06.16-.9-2.17c-1-2.48-2.05-4.85-3.07-6.92a22.91,22.91,0,0,0-3.37-5.12A9,9,0,0,0,152.36,57a6.48,6.48,0,0,0-1.63-.74A9.35,9.35,0,0,0,149.23,56.06Z"/><path class="cls-12" d="M176.56,24.38a.43.43,0,0,1,.06.22,2.94,2.94,0,0,1,0,.66,3.51,3.51,0,0,1-1,2.22,3.45,3.45,0,0,1-3.42.86,3,3,0,0,1-1.75-1.27,1.85,1.85,0,0,1-.26-1.15,1.51,1.51,0,0,1,.63-1.06,1.31,1.31,0,0,1,1.23-.08,1.59,1.59,0,0,1,.84.85,2.24,2.24,0,0,1-.34,2.13,2.67,2.67,0,0,1-3.36.72A5.65,5.65,0,0,0,168,28a1.57,1.57,0,0,0-1,.1,5,5,0,0,0-.72.48,1.66,1.66,0,0,1,.14-.17,1.8,1.8,0,0,1,.21-.19A1.15,1.15,0,0,1,167,28a1.67,1.67,0,0,1,1-.16,6.18,6.18,0,0,1,1.31.46,3.36,3.36,0,0,0,.74.24,2.26,2.26,0,0,0,.82,0,2.36,2.36,0,0,0,1.54-.92,2,2,0,0,0,.29-1.89,1.21,1.21,0,0,0-1.56-.69l-.12.05a1.22,1.22,0,0,0-.51.87,1.58,1.58,0,0,0,.22,1,2.8,2.8,0,0,0,1.6,1.16,3.26,3.26,0,0,0,3.22-.76,3.45,3.45,0,0,0,1-2.09A6.59,6.59,0,0,0,176.56,24.38Z"/><path class="cls-8" d="M173.79,43.68s-.15.1-.43.11a2.27,2.27,0,0,1-1.89-.95c-.16-.24-.2-.41-.17-.42a5.7,5.7,0,0,0,1.12.89A5.91,5.91,0,0,0,173.79,43.68Z"/><path class="cls-8" d="M160.37,41.44s.17.23,0,.58a.81.81,0,0,1-.51.41.85.85,0,0,1-.79-.21.94.94,0,0,1-.35-.78,1,1,0,0,1,.23-.61c.25-.29.51-.32.51-.29a2.29,2.29,0,0,0-.34.4.78.78,0,0,0,.12,1,.68.68,0,0,0,.56.17.7.7,0,0,0,.42-.27C160.38,41.65,160.33,41.44,160.37,41.44Z"/><path class="cls-12" d="M177.41,26.09a1.71,1.71,0,0,1,.24.94,3.13,3.13,0,0,1-2.84,3.28,1.7,1.7,0,0,1-1-.11c0-.05.37,0,.94-.08a3.15,3.15,0,0,0,2.68-3.07C177.48,26.47,177.36,26.11,177.41,26.09Z"/><path class="cls-9" d="M160.1,68.93c0,.06-3.34,1.8-7.54,3.87s-7.62,3.71-7.68,3.64,3.34-1.8,7.54-3.88S160.07,68.86,160.1,68.93Z"/><path class="cls-9" d="M157,63.12c0,.06-3,1.75-6.71,3.75s-6.8,3.59-6.83,3.52,3-1.75,6.71-3.75S157,63.06,157,63.12Z"/><path class="cls-9" d="M154.05,58.43a11.31,11.31,0,0,1-1.5.88l-3.68,2-3.65,2.09a12,12,0,0,1-1.54.83,10.92,10.92,0,0,1,1.45-1c.91-.58,2.18-1.35,3.62-2.16s2.75-1.5,3.72-2A9.81,9.81,0,0,1,154.05,58.43Z"/><path class="cls-9" d="M165.29,57.31a2.48,2.48,0,0,1-1-.27,7.72,7.72,0,0,1-2.05-1.34,16,16,0,0,1-1.67-1.82,3.6,3.6,0,0,1-.57-.83,5.56,5.56,0,0,1,.72.72,24.12,24.12,0,0,0,1.7,1.73,9.52,9.52,0,0,0,2,1.37C164.93,57.16,165.3,57.28,165.29,57.31Z"/><path class="cls-9" d="M172.76,54.54a2.88,2.88,0,0,1-1.06,1.54,2.8,2.8,0,0,1-1.7.78,16.76,16.76,0,0,0,1.54-1A17.17,17.17,0,0,0,172.76,54.54Z"/><path class="cls-9" d="M186.07,62.25a1.47,1.47,0,0,1-.29,0l-.82.1c-.72.08-1.76.18-3,.28-2.56.21-6.14.41-10,.55s-7.49.19-10.07.17c-1.28,0-2.33,0-3-.06l-.83,0a1.45,1.45,0,0,1-.29,0h1.12l3,0c2.56,0,6.14-.1,10.05-.24s7.48-.32,10-.47l3-.2.83,0A.93.93,0,0,1,186.07,62.25Z"/><path class="cls-9" d="M182,68.32a7.55,7.55,0,0,1-.83.13c-.55.07-1.34.15-2.31.24-1.95.18-4.65.36-7.63.49s-5.7.15-7.68.12c-1,0-1.77,0-2.32,0a4.86,4.86,0,0,1-.85-.06,4.84,4.84,0,0,1,.85,0l2.32,0c2,0,4.66-.09,7.63-.21s5.69-.28,7.64-.41l2.31-.16A5.06,5.06,0,0,1,182,68.32Z"/><path class="cls-9" d="M172.85,75.8a9.8,9.8,0,0,1-1.7.24c-1.05.11-2.5.23-4.12.31s-3.07.11-4.13.1a9.79,9.79,0,0,1-1.71-.07,12.29,12.29,0,0,1,1.71-.12l4.12-.18,4.09-.23A12.65,12.65,0,0,1,172.85,75.8Z"/><path class="cls-9" d="M161.12,58c0,.08-1.57.09-3.5.17s-3.5.19-3.51.12A26.13,26.13,0,0,1,161.12,58Z"/><path class="cls-9" d="M182.71,57.76a38.24,38.24,0,0,1-4.54.12,38.36,38.36,0,0,1-4.55-.15,38.36,38.36,0,0,1,4.55-.12A38.27,38.27,0,0,1,182.71,57.76Z"/><path class="cls-9" d="M183.5,88.91a2.68,2.68,0,0,1-.47.26c-.3.16-.76.37-1.33.61a28.63,28.63,0,0,1-4.6,1.47,29.93,29.93,0,0,1-4.78.69c-.62,0-1.12,0-1.47,0a2.19,2.19,0,0,1-.51,0s.76-.07,2-.19a36.11,36.11,0,0,0,4.73-.76,35,35,0,0,0,4.61-1.39A17.87,17.87,0,0,1,183.5,88.91Z"/></g><g id="freepik--character-1--inject-96"><ellipse class="cls-9" cx="31.24" cy="137.43" rx="22.16" ry="21.14"/><path class="cls-8" d="M26.73,86.48c-3.51.19-4.9,3.85-5.32,4.67a7.07,7.07,0,0,0-.56,2.68,5.85,5.85,0,0,1-.67,2.65c-.78,1.23-2.4,1.87-2.84,3.26-.52,1.57.78,3.25.44,4.86-.19.86-.82,1.58-1,2.43a3.61,3.61,0,0,0,.48,2.66,7,7,0,0,0,5.84,3.07,20.63,20.63,0,0,0,6.73-1.28"/><path class="cls-8" d="M42.19,91a2.2,2.2,0,0,0,.52,2.26,14.06,14.06,0,0,0,1.9,1.54,3.13,3.13,0,0,1,1.3,2c.07.75-.31,1.5-.21,2.24.27,1.92,3.32,2.49,3.48,4.41.11,1.29-1.21,2.47-.84,3.7a5.86,5.86,0,0,0,.77,1.3,3.74,3.74,0,0,1-1,4.54,7.48,7.48,0,0,1-4.68,1.59c-1.41.06-3-.17-3.85-1.31s-.6-2.47-.45-3.76a131.51,131.51,0,0,0,.47-18.09"/><path class="cls-11" d="M27.65,118.78c0-3.15,0-6.47,0-6.47s-4-.72-4.83-6c-.74-5.06.51-15.94.51-15.94h0c5.87-2.32,12.49-1.43,16.6,3.3h0l-.65,25.59a5.49,5.49,0,0,1-5.86,5.17h0A5.8,5.8,0,0,1,27.65,118.78Z"/><path class="cls-8" d="M24.44,98.7a.67.67,0,0,0,.64.69.65.65,0,0,0,.71-.59h0a.7.7,0,0,0-.65-.7.66.66,0,0,0-.71.59Z"/><path class="cls-8" d="M23.35,98.18c.08.08.6-.29,1.33-.28,1.38.2,1.35.41,1.34.29s0-.2-.28-.37a1.84,1.84,0,0,0-1.07-.34,1.75,1.75,0,0,0-1.06.33C23.38,98,23.31,98.14,23.35,98.18Z"/><path class="cls-8" d="M31.92,98.92a.68.68,0,0,0,.65.69.65.65,0,0,0,.7-.58v0a.68.68,0,0,0-.64-.7.66.66,0,0,0-.71.6Z"/><path class="cls-8" d="M31,98.43c.08.09.6-.29,1.33-.28s1.26.38,1.35.3,0-.2-.28-.38a1.86,1.86,0,0,0-1.07-.34,1.78,1.78,0,0,0-1.07.33C31,98.25,30.93,98.39,31,98.43Z"/><path class="cls-8" d="M28.25,103.67a4.74,4.74,0,0,0-1.18-.23c-.18,0-.36-.06-.39-.19a1,1,0,0,1,.13-.55l.57-1.41a25.4,25.4,0,0,0,1.28-3.71,24.82,24.82,0,0,0-1.58,3.59c-.19.51-.37,1-.54,1.42a1.09,1.09,0,0,0-.11.73.46.46,0,0,0,.31.28,1.06,1.06,0,0,0,.31,0A4.82,4.82,0,0,0,28.25,103.67Z"/><path class="cls-10" d="M27.65,112.31a13.53,13.53,0,0,0,7.11-1.8s-1.76,3.61-7.06,3.07Z"/><path class="cls-10" d="M28.53,105.42a1.35,1.35,0,0,1,1.19-.48,1.24,1.24,0,0,1,.86.48.75.75,0,0,1,.05.87.88.88,0,0,1-1,.23,2.81,2.81,0,0,1-.92-.56,1.1,1.1,0,0,1-.21-.22.28.28,0,0,1,0-.28"/><path class="cls-8" d="M30.4,104.2c-.12,0-.13.79-.82,1.34s-1.53.46-1.53.57.19.16.54.17a2,2,0,0,0,1.28-.43,1.68,1.68,0,0,0,.63-1.12C30.54,104.4,30.45,104.2,30.4,104.2Z"/><path class="cls-8" d="M37.62,89.87c-1.93,2.76-7.06,5.6-10.74,6.26.42-.56,2.68-1.95,3.11-2.51-1.67,1.23-4,2.9-6.26,3a1.25,1.25,0,0,1-.76-.12,1,1,0,0,1-.38-.83,21.41,21.41,0,0,1,.15-4.8,5.31,5.31,0,0,1,1.91-3.42A9.16,9.16,0,0,1,30,86.05a12,12,0,0,1,4.71.64,4.38,4.38,0,0,1,2.93,3.07"/><path class="cls-8" d="M43.18,102.25a28.21,28.21,0,0,0,.51-3.54c.16-2.73-.63-12.8-10-12l-.38,2.87s-1.46,9.82,4.64,9.9A10.93,10.93,0,0,0,41,105.24s1.6,0,2.17-3"/><path class="cls-11" d="M37.92,99.47a3.18,3.18,0,0,1,1.7.12,2.19,2.19,0,0,1,1.23,1.16,2.22,2.22,0,0,1,0,1.68,4,4,0,0,1-1,1.42,2.59,2.59,0,0,1-1,.67,1.25,1.25,0,0,1-1.18-.2"/><path class="cls-10" d="M38.19,102.91c-.07,0,.18.36.69.23a1.09,1.09,0,0,0,.65-.56,2.3,2.3,0,0,0,.29-.93,1.47,1.47,0,0,0-.23-1,1,1,0,0,0-.73-.45c-.51,0-.7.35-.65.36a1.1,1.1,0,0,1,.6-.06,1,1,0,0,1,.58,1.11c-.07.58-.3,1.11-.61,1.24S38.22,102.86,38.19,102.91Z"/><path class="cls-8" d="M38.94,88.84a3.22,3.22,0,0,0,4.35-1.15,2.09,2.09,0,0,0,.3-1.54A2.13,2.13,0,0,0,42,84.78a3.26,3.26,0,0,0-3,.71,2.82,2.82,0,0,0-.77,2.92,2.56,2.56,0,0,0,2.44,1.69"/><path class="cls-8" d="M39.79,104.11a7.65,7.65,0,0,0-1.46,1.26,2.53,2.53,0,0,0-.63,1.78,5,5,0,0,1,.12,1.08,3.73,3.73,0,0,1-.74,1.28,3,3,0,0,0,.47,3.56A4.93,4.93,0,0,0,41,114.48a3.57,3.57,0,0,0,2.14-.51,3.49,3.49,0,0,0,1.24-2.85"/><path class="cls-12" d="M40.44,91a3.52,3.52,0,0,1-.55,1,10.74,10.74,0,0,1-1.82,2,11,11,0,0,1-2.24,1.5,3.74,3.74,0,0,1-1,.4,24.11,24.11,0,0,0,3.1-2.1A24.4,24.4,0,0,0,40.44,91Z"/><path class="cls-12" d="M41.42,90.89a4.38,4.38,0,0,1-.17,1.3,11,11,0,0,1-1.2,2.91,10.62,10.62,0,0,1-2,2.42,3.86,3.86,0,0,1-1.07.76A15.85,15.85,0,0,0,39.82,95,15.9,15.9,0,0,0,41.42,90.89Z"/><path class="cls-12" d="M21,95.18c.08,0,.18.88.51,1.93A13.69,13.69,0,0,1,22.08,99,6.11,6.11,0,0,1,21,95.18Z"/><path class="cls-12" d="M43.54,113.27a1.53,1.53,0,0,0,.77.25,1.51,1.51,0,0,0,.9-.29,1.74,1.74,0,0,0,.68-1,3,3,0,0,0,0-1.53,16.84,16.84,0,0,0-.51-1.77,4.55,4.55,0,0,1-.23-2,13.16,13.16,0,0,1,.84-2.05,2.58,2.58,0,0,0-.15-2,2.64,2.64,0,0,0-1.4-1.29c-.3-.11-.59-.24-.88-.38a1.75,1.75,0,0,1-.7-.62,3.12,3.12,0,0,1-.32-1.62,5.15,5.15,0,0,0,0-1.3,2.17,2.17,0,0,0-.38-.88,1.36,1.36,0,0,0-.69-.43.41.41,0,0,1,.22,0,1.22,1.22,0,0,1,.55.34,2.26,2.26,0,0,1,.45.92,5,5,0,0,1,.09,1.33,2.83,2.83,0,0,0,.32,1.49,2.87,2.87,0,0,0,1.48.91,2.84,2.84,0,0,1,1.54,1.39,2.88,2.88,0,0,1,.17,2.23,13.45,13.45,0,0,0-.84,2,4.59,4.59,0,0,0,.21,1.95c.18.62.39,1.21.51,1.78a3.49,3.49,0,0,1,0,1.64,2,2,0,0,1-.78,1.11,1.66,1.66,0,0,1-1,.26,1.26,1.26,0,0,1-.62-.2A.4.4,0,0,1,43.54,113.27Z"/><path class="cls-12" d="M39.84,112.91a.66.66,0,0,0,.31.28.84.84,0,0,0,1-.27,1.58,1.58,0,0,0-.08-1.61,6.63,6.63,0,0,1-1-2,1.44,1.44,0,0,1,.28-1.18c.25-.31.55-.51.74-.76a2.27,2.27,0,0,0,.36-1.64,6.82,6.82,0,0,0-.3-1.16,1.62,1.62,0,0,1-.12-.43,2.23,2.23,0,0,1,.22.39,4.93,4.93,0,0,1,.38,1.18,2.38,2.38,0,0,1-.34,1.8c-.22.3-.51.51-.73.79a1.17,1.17,0,0,0-.23,1,7.25,7.25,0,0,0,1,1.92,1.77,1.77,0,0,1,0,1.83.94.94,0,0,1-.65.35.91.91,0,0,1-.54-.1C39.83,113.1,39.83,112.9,39.84,112.91Z"/><path class="cls-12" d="M19.78,111.56a2.33,2.33,0,0,1-.42-.41,5,5,0,0,1-.89-1.35,2.52,2.52,0,0,1-.22-1.12,2,2,0,0,1,.45-1.24c.32-.36.78-.56,1.06-.9a1.51,1.51,0,0,0,.21-1.32,6.11,6.11,0,0,0-.56-1.35,4.64,4.64,0,0,1-.51-1.34,1.73,1.73,0,0,1,.26-1.29,4,4,0,0,1,.78-.82,2.28,2.28,0,0,0,.87-1.25,1.32,1.32,0,0,0,0-.56.46.46,0,0,1,.08.13,1,1,0,0,1,0,.45,2.32,2.32,0,0,1-.85,1.37,4.9,4.9,0,0,0-.72.79,1.57,1.57,0,0,0-.2,1.14,4.45,4.45,0,0,0,.51,1.26,5.62,5.62,0,0,1,.59,1.41A1.79,1.79,0,0,1,20,106.7c-.35.41-.81.59-1.07.9a1.73,1.73,0,0,0-.42,1.08,2.6,2.6,0,0,0,.17,1,5.59,5.59,0,0,0,.8,1.35A3.21,3.21,0,0,1,19.78,111.56Z"/><path class="cls-15" d="M41.12,89.5a9.47,9.47,0,0,0-1.25-1.36,8.67,8.67,0,0,0-1.64-.82,3.07,3.07,0,0,1,2.89,2.18Z"/><path class="cls-12" d="M41.84,84.6a1.22,1.22,0,0,1,.34.58,2.79,2.79,0,0,1-.83,3c-.32.27-.57.35-.58.32s.19-.17.45-.46A3.06,3.06,0,0,0,42,85.23,4.15,4.15,0,0,1,41.84,84.6Z"/><path class="cls-16" d="M15.87,147.56s12.71,12.08,20.27,9.89,9.8-7.86,9.8-7.86l.18-2-.76-.52-29.11-2.32Z"/><path class="cls-10" d="M8.35,136.25,10.8,130l8.79,5.52-7.83,12.07A20.76,20.76,0,0,1,8.35,136.25Z"/><path class="cls-15" d="M18.26,118.88a31.34,31.34,0,0,1,9.39-2.75h0c1.53,3.07,6.38,3.46,9.31,1.36l2.48-1.67a8.7,8.7,0,0,1,1,0A13.2,13.2,0,0,1,52.17,126.4a26.17,26.17,0,0,1,.62,6.66c-.32,5.59-6.11,6.1-6.11,6.1s-.29,5.52-.69,10h0a8.34,8.34,0,0,1-5.06,7.22,20.65,20.65,0,0,1-6.45,2,21.7,21.7,0,0,1-19.24-6.65c.88-5.33,1.72-12.22,1.66-12.53a.17.17,0,0,1,0-.1L11.16,134,7.9,131.25s7.17-10.59,10.35-12.33"/><path class="cls-17" d="M25.38,122.31a3.1,3.1,0,0,0-1.42-.4,2.34,2.34,0,0,0-1.47.52,6.19,6.19,0,0,0-.65.7,1.68,1.68,0,0,1-.93.61,1.49,1.49,0,0,1-1.08-.28c-.29-.19-.54-.4-.81-.55a1.79,1.79,0,0,0-1.5-.13,2,2,0,0,0-.87.6c-.16.2-.22.34-.24.33a.79.79,0,0,1,.16-.39,1.84,1.84,0,0,1,.89-.71,1.9,1.9,0,0,1,1.69.09c.28.15.54.36.82.54a1.26,1.26,0,0,0,.9.24,1.47,1.47,0,0,0,.78-.51,5.87,5.87,0,0,1,.69-.72,2.49,2.49,0,0,1,1.62-.51,2.33,2.33,0,0,1,1.09.31A1.18,1.18,0,0,1,25.38,122.31Z"/><path class="cls-17" d="M31.21,130a3,3,0,0,0-1.22-.83,2.39,2.39,0,0,0-1.54,0,6.78,6.78,0,0,0-.84.45,1.63,1.63,0,0,1-1.07.29,1.47,1.47,0,0,1-.93-.62c-.22-.27-.4-.55-.6-.77a1.76,1.76,0,0,0-1.37-.61,2.16,2.16,0,0,0-1,.29c-.21.14-.31.25-.33.23s.07-.14.28-.31a2,2,0,0,1,2.64.23c.22.24.4.51.61.78a1.3,1.3,0,0,0,.76.51,1.51,1.51,0,0,0,.91-.25,5,5,0,0,1,.89-.46,2.43,2.43,0,0,1,1.7,0,2.38,2.38,0,0,1,.94.65A.9.9,0,0,1,31.21,130Z"/><path class="cls-17" d="M44.16,118.78a3.06,3.06,0,0,0-1.47-.09,2.32,2.32,0,0,0-1.32.81,5.23,5.23,0,0,0-.49.82,1.68,1.68,0,0,1-.78.8,1.57,1.57,0,0,1-1.11-.05c-.33-.13-.62-.28-.91-.37a1.77,1.77,0,0,0-1.5.2,2,2,0,0,0-.72.77c-.11.22-.15.37-.17.37s0-.16.08-.42a2,2,0,0,1,2.39-1.15c.31.09.61.24.91.35a1.25,1.25,0,0,0,.93.05,1.43,1.43,0,0,0,.65-.68,5.13,5.13,0,0,1,.52-.84,2.4,2.4,0,0,1,1.47-.84,2.32,2.32,0,0,1,1.14.07A.82.82,0,0,1,44.16,118.78Z"/><path class="cls-17" d="M38.18,127.17a2.67,2.67,0,0,0-.91-.65,1.77,1.77,0,0,0-1.18,0,4,4,0,0,0-.66.32,1.37,1.37,0,0,1-.86.19,1.23,1.23,0,0,1-.72-.52c-.16-.22-.28-.44-.42-.61a1.35,1.35,0,0,0-1-.52,1.93,1.93,0,0,0-1.06.34.64.64,0,0,1,.22-.24,1.53,1.53,0,0,1,2.05.26c.16.19.29.41.44.61a.94.94,0,0,0,.56.42c.47.08.9-.34,1.39-.48a1.91,1.91,0,0,1,1.33.1C38.05,126.67,38.21,127.18,38.18,127.17Z"/><path class="cls-17" d="M25,134.24a2.61,2.61,0,0,0-.92-.65,1.77,1.77,0,0,0-1.18,0,5,5,0,0,0-.66.32,1.33,1.33,0,0,1-.87.19,1.16,1.16,0,0,1-.71-.51c-.17-.22-.29-.44-.43-.62a1.36,1.36,0,0,0-1-.51,1.83,1.83,0,0,0-1.06.34.73.73,0,0,1,.21-.25,1.53,1.53,0,0,1,2.06.27c.17.19.29.41.45.61a.89.89,0,0,0,.55.42c.47.08.91-.34,1.4-.48a1.89,1.89,0,0,1,1.32.1C24.86,133.74,25,134.25,25,134.24Z"/><path class="cls-17" d="M37.32,134.41a2.43,2.43,0,0,0-1.08-.33,1.8,1.8,0,0,0-1.12.35,5,5,0,0,0-.52.51,1.37,1.37,0,0,1-.75.46,1.21,1.21,0,0,1-.84-.27c-.23-.15-.41-.32-.61-.45a1.32,1.32,0,0,0-1.13-.14,1.78,1.78,0,0,0-.89.66.62.62,0,0,1,.12-.31,1.53,1.53,0,0,1,.72-.53,1.47,1.47,0,0,1,1.32.12c.21.13.41.3.62.43a.89.89,0,0,0,.66.22c.47-.07.74-.61,1.16-.91a1.88,1.88,0,0,1,1.28-.33A1.32,1.32,0,0,1,37.32,134.41Z"/><path class="cls-17" d="M33.25,140a2.57,2.57,0,0,0-1.08-.33,1.85,1.85,0,0,0-1.13.35,6.14,6.14,0,0,0-.51.51,1.4,1.4,0,0,1-.75.46,1.24,1.24,0,0,1-.85-.27c-.22-.15-.41-.32-.6-.44a1.3,1.3,0,0,0-1.13-.15,1.85,1.85,0,0,0-.9.66.61.61,0,0,1,.13-.31,1.53,1.53,0,0,1,2-.41c.22.13.42.3.63.43a.89.89,0,0,0,.66.22c.47-.07.74-.61,1.16-.91a1.88,1.88,0,0,1,1.28-.33A1.35,1.35,0,0,1,33.25,140Z"/><path class="cls-17" d="M24.66,154a2.58,2.58,0,0,0-.93-.64,1.71,1.71,0,0,0-1.18,0,3.61,3.61,0,0,0-.65.33,1.31,1.31,0,0,1-.86.19,1.14,1.14,0,0,1-.72-.51c-.16-.21-.29-.43-.44-.61a1.34,1.34,0,0,0-1-.51,1.79,1.79,0,0,0-1.05.35.6.6,0,0,1,.21-.25,1.41,1.41,0,0,1,.84-.28,1.5,1.5,0,0,1,1.22.51c.16.19.3.41.45.61a1,1,0,0,0,.56.41c.47.07.9-.36,1.39-.52a1.88,1.88,0,0,1,1.32.09A1.48,1.48,0,0,1,24.66,154Z"/><path class="cls-17" d="M34.72,157a2.7,2.7,0,0,0-1.07-.35,1.83,1.83,0,0,0-1.13.33,6.14,6.14,0,0,0-.51.51,1.36,1.36,0,0,1-.76.45,1.19,1.19,0,0,1-.84-.28c-.22-.15-.41-.33-.6-.45a1.33,1.33,0,0,0-1.13-.17,1.89,1.89,0,0,0-.9.65.58.58,0,0,1,.13-.3,1.43,1.43,0,0,1,.72-.51A1.57,1.57,0,0,1,30,157c.21.14.41.31.61.45a1,1,0,0,0,.66.22c.47-.07.75-.6,1.17-.89a2,2,0,0,1,1.29-.32A1.37,1.37,0,0,1,34.72,157Z"/><path class="cls-8" d="M1.57,114.63C1.88,115,13.13,130,13.13,130l-1.58.9L0,116.1Z"/><path class="cls-11" d="M45.49,125.38s-10.55,18.2-11.26,18.54c-1.41.66-17.6-13.34-19.15-14.68l-1.53-2.07s-1.28-5.85-2.64-5.4.74,3-.14,5.19-5-3.07-5.12-3.55l-1-1.37a18,18,0,0,0-1,4.42c.24,4.17,4.18,9.13,4.18,9.13s16,20.09,28.19,20.78c3.49.19,10.17-9.87,14.33-17.31,2.5-4.5,1.34-9.06-2.82-12.09Z"/><path class="cls-10" d="M5.58,127.17a9.51,9.51,0,0,1-1.53-3.07s.34.69.77,1.54S5.62,127.15,5.58,127.17Z"/><path class="cls-15" d="M45,120.29c-.41.25-10.23,18.47-10.23,18.47l12.63,9.9a143.45,143.45,0,0,0,5-14.68,21.16,21.16,0,0,0-.43-8.4c-.95-2.62-2.37-2-4.5-3.5Z"/><g class="cls-18"><path d="M49.14,120.29l-.35-.19a2.27,2.27,0,0,0-1.11-.23,3,3,0,0,0-1.65.69,8,8,0,0,0-1.63,1.75,27.55,27.55,0,0,0-1.54,2.56c-.51.92-1.09,1.92-1.68,3-1.2,2.08-2.51,4.38-3.88,6.78-.85,1.46-1.66,2.88-2.43,4.21l0-.16,8.55,6.75,2.48,2,.65.55a.83.83,0,0,1,.22.2,2.07,2.07,0,0,1-.24-.17l-.69-.51-2.53-1.94-8.6-6.65-.09-.07.09-.12c.76-1.33,1.58-2.75,2.41-4.22l3.9-6.76,1.71-2.95a27.55,27.55,0,0,1,1.54-2.56A8.06,8.06,0,0,1,46,120.41a3.16,3.16,0,0,1,1.73-.67,2.15,2.15,0,0,1,1.39.46C49.12,120.26,49.15,120.29,49.14,120.29Z"/></g><path class="cls-17" d="M45.37,137.38a2.48,2.48,0,0,0-.91-.66,1.83,1.83,0,0,0-1.18,0,5,5,0,0,0-.66.32,1.31,1.31,0,0,1-.86.19,1.17,1.17,0,0,1-.72-.51c-.16-.22-.28-.44-.42-.62a1.33,1.33,0,0,0-1-.51,2,2,0,0,0-1.06.33.92.92,0,0,1,.22-.24,1.51,1.51,0,0,1,.85-.28,1.5,1.5,0,0,1,1.21.54c.16.2.29.42.44.62a1,1,0,0,0,.56.42c.47.08.9-.35,1.39-.48a1.91,1.91,0,0,1,1.33.09C45.24,136.87,45.42,137.38,45.37,137.38Z"/><path class="cls-17" d="M51.15,135a2.54,2.54,0,0,0-.71-.88,1.81,1.81,0,0,0-1.12-.36,5.72,5.72,0,0,0-.72.14,1.4,1.4,0,0,1-.88,0,1.23,1.23,0,0,1-.55-.7c-.09-.26-.15-.51-.24-.71a1.34,1.34,0,0,0-.85-.76,1.91,1.91,0,0,0-1.11,0,.64.64,0,0,1,.27-.17,1.36,1.36,0,0,1,.89,0,1.46,1.46,0,0,1,1,.85c.11.23.17.47.26.71a1,1,0,0,0,.43.55c.43.2,1-.09,1.47-.09a2,2,0,0,1,1.25.45A1.39,1.39,0,0,1,51.15,135Z"/><path class="cls-17" d="M51.44,127.49a2.4,2.4,0,0,0-.7-.88,1.83,1.83,0,0,0-1.12-.36,4.48,4.48,0,0,0-.73.14,1.33,1.33,0,0,1-.88-.06,1.16,1.16,0,0,1-.54-.69c-.1-.26-.16-.51-.24-.71a1.38,1.38,0,0,0-.85-.77,1.83,1.83,0,0,0-1.11,0,.74.74,0,0,1,.27-.18,1.5,1.5,0,0,1,.89,0,1.55,1.55,0,0,1,1,.85c.1.23.17.48.26.71a1,1,0,0,0,.43.56c.43.2,1-.09,1.47-.09a1.83,1.83,0,0,1,1.24.45A1.35,1.35,0,0,1,51.44,127.49Z"/><path class="cls-17" d="M48.65,144.83a2.63,2.63,0,0,0-.71-.88,1.74,1.74,0,0,0-1.12-.35,3.39,3.39,0,0,0-.72.13,1.4,1.4,0,0,1-.88,0,1.27,1.27,0,0,1-.55-.7c-.1-.25-.15-.51-.24-.71a1.38,1.38,0,0,0-.85-.77,1.83,1.83,0,0,0-1.11,0,.89.89,0,0,1,.27-.18,1.55,1.55,0,0,1,1.91.81c.11.23.17.48.27.71a.94.94,0,0,0,.42.56c.43.2,1-.09,1.47-.09a1.85,1.85,0,0,1,1.25.45A1.38,1.38,0,0,1,48.65,144.83Z"/></g></g></g></svg>