<svg xmlns="http://www.w3.org/2000/svg" viewBox="0 0 198.53 191.73"><defs><style>.cls-1{fill:#dd6262;}.cls-2,.cls-4{fill:#fff;}.cls-3{fill:#f9f9f9;}.cls-4{fill-rule:evenodd;}.cls-5{fill:#455a64;}.cls-6{fill:#263238;}.cls-7{fill:#ff725e;}.cls-8{fill:#ebebeb;}.cls-9{fill:#e0e0e0;}.cls-10{fill:#f5f5f5;}</style></defs><g id="Layer_2" data-name="Layer 2"><g id="Layer_1-2" data-name="Layer 1"><path class="cls-1" d="M37.82,39.42h0A15.19,15.19,0,0,1,22.64,24.23h0A15.18,15.18,0,0,1,37.82,9.05h0A15.19,15.19,0,0,1,53,24.23h0A15.19,15.19,0,0,1,37.82,39.42Z"/><rect class="cls-2" x="30.94" y="20.85" width="3.14" height="10.15"/><path class="cls-2" d="M32.49,19.52a1.88,1.88,0,1,0-1.86-1.89v0A1.87,1.87,0,0,0,32.49,19.52Z"/><path class="cls-2" d="M39.1,25.67c0-1.42.66-2.27,1.92-2.27s1.71.81,1.71,2.27V31h3.12V24.58c0-2.73-1.53-4-3.69-4a3.57,3.57,0,0,0-3.06,1.68V20.85h-3V31h3Z"/><polygon class="cls-3" points="57.17 0 59.25 3.8 63.05 5.88 59.25 7.96 57.17 11.76 55.09 7.96 51.29 5.88 55.09 3.8 57.17 0"/><polygon class="cls-3" points="144.88 96.99 146.44 99.84 149.29 101.4 146.44 102.96 144.88 105.81 143.32 102.96 140.47 101.4 143.32 99.84 144.88 96.99"/><polygon class="cls-3" points="149.29 82.91 149.99 84.2 151.28 84.9 149.99 85.61 149.29 86.89 148.59 85.61 147.3 84.9 148.59 84.2 149.29 82.91"/><polygon class="cls-3" points="45.32 1.43 46.02 2.72 47.31 3.42 46.02 4.12 45.32 5.41 44.62 4.12 43.33 3.42 44.62 2.72 45.32 1.43"/><path class="cls-3" d="M23.76,163.13a4.62,4.62,0,0,0,2.69-4.29,4.45,4.45,0,0,0-4.35-4.56,4.46,4.46,0,0,0-4.27,4.63,4.57,4.57,0,0,0,2.8,4.26c-6.62,1.08-6.23,8.29-6.23,8.29l15.68-.13S30.35,164,23.76,163.13Z"/><path class="cls-3" d="M37.44,75.55a2.44,2.44,0,0,0-4.82.14,2.44,2.44,0,0,0-4.82-.11A3.31,3.31,0,0,0,28.39,78a10.17,10.17,0,0,0,1.72,1.81l2.57,2.3c.89-.79,1.61-1.53,2.48-2.32a9.52,9.52,0,0,0,1.7-1.83A3.34,3.34,0,0,0,37.44,75.55Z"/><path class="cls-3" d="M182.59,82.88l1.68-.34,2.66-5.84-.66-3.35s2.56-.68,3.13,3.78.67,3.27.67,3.27,5.52-1.07,6.08-.69c.4.29,1.64,5.74,2.28,8.7a3.27,3.27,0,0,1-1.63,3.69,2.08,2.08,0,0,1-.58.19c-1.38.28-8.63.55-8.63.55l-2.9.58Z"/><polygon class="cls-3" points="177.6 82.91 180.91 94.2 183.79 93.63 181.56 82.37 177.6 82.91"/><path class="cls-1" d="M141.58,77.09h0a15.31,15.31,0,0,1-8.85-19.76v0h0a15.31,15.31,0,0,1,19.76-8.86h0a15.3,15.3,0,0,1,8.85,19.76v0h0A15.3,15.3,0,0,1,141.6,77.1Z"/><path class="cls-4" d="M155.06,65.38a8.25,8.25,0,0,0-15.35-6c-.05.11-.09.23-.14.34a8.13,8.13,0,0,0-.4,4.37l-3,3.57,4.79.28a8.26,8.26,0,0,0,14-2.33A1.72,1.72,0,0,0,155.06,65.38Zm-10.24,3.68a6.88,6.88,0,0,1-3.15-2.43l-2.8-.16,1.72-2.08a6.84,6.84,0,0,1,.21-4.24,6.65,6.65,0,0,1,.27-.61,6.94,6.94,0,0,1,12.86,5.05,4.51,4.51,0,0,1-.17.52A6.93,6.93,0,0,1,144.82,69.06Z"/><path class="cls-4" d="M150.22,65.52c-.15-.16-.9-1-1.06-1.09s-.26-.21-.46-.07-.72.42-.88.51-.27,0-.42-.11a5.57,5.57,0,0,1-1.17-1.52,6,6,0,0,1-.54-1.69c0-.23.09-.3.23-.35l.41-.22.1-.07a1.12,1.12,0,0,0,.2-.18.35.35,0,0,0,.12-.33c0-.11,0-1.18-.06-1.62s-.19-.43-.3-.47l-.36-.16a.78.78,0,0,0-.6,0,2.29,2.29,0,0,0-1.25,1.32,2.6,2.6,0,0,0-.15.67,4.54,4.54,0,0,0,.18,1.56,8.34,8.34,0,0,0,2.14,4.07c1.63,1.48,1.74,1.23,2.1,1.33a2,2,0,0,0,1.64-.4,1.68,1.68,0,0,0,.45-.85A2.14,2.14,0,0,0,150.22,65.52Z"/><path class="cls-1" d="M13.82,126.37h0a9.47,9.47,0,0,1-9.47-9.47h0a9.47,9.47,0,0,1,9.47-9.47h0a9.47,9.47,0,0,1,9.47,9.47h0a9.47,9.47,0,0,1-9.47,9.47Z"/><path class="cls-2" d="M8.77,120.06a5.9,5.9,0,0,0,9.06-5.23,4.32,4.32,0,0,0,1-1.06,4.2,4.2,0,0,1-1.2.33,2.15,2.15,0,0,0,.93-1.13,4.2,4.2,0,0,1-1.33.5,2.08,2.08,0,0,0-3.55,1.89,5.9,5.9,0,0,1-4.27-2.17,2.09,2.09,0,0,0,.65,2.77,2,2,0,0,1-.94-.26,2.06,2.06,0,0,0,1.66,2.06,2.13,2.13,0,0,1-.94,0,2.07,2.07,0,0,0,1.93,1.44A4.17,4.17,0,0,1,8.77,120.06Z"/><path class="cls-2" d="M26.09,142.2a1.06,1.06,0,0,1-.8,1.28,1.07,1.07,0,1,1,.8-1.3v0"/><path class="cls-5" d="M152.53,147.43h0a14.79,14.79,0,0,1-14.79-14.78h0a14.78,14.78,0,0,1,14.78-14.78h0a14.77,14.77,0,0,1,14.81,14.76v0h0a14.79,14.79,0,0,1-14.78,14.79Z"/><path class="cls-2" d="M150.27,141.58h3.61v-9h2.5l.28-3h-2.78v-1.72c0-.71.14-1,.86-1h1.95v-3.14H154.2c-2.68,0-3.89,1.18-3.89,3.45v2.41h-1.92v3h1.87Z"/><g id="freepik--Device--inject-13"><path class="cls-6" d="M122.9,191.73l-61.11,0a13.29,13.29,0,0,1-13.3-13.3h0l0-153.2A13.29,13.29,0,0,1,61.81,11.92h0l61.1,0a13.3,13.3,0,0,1,13.3,13.3l0,153.16a13.29,13.29,0,0,1-13.27,13.32Z"/><path class="cls-2" d="M122.88,17.32H111a3,3,0,0,0-2.88,3v2.15a2.93,2.93,0,0,1-2.87,3H82.18a3,3,0,0,1-2.88-3h0V20.3a3,3,0,0,0-2.87-3H61.89a9.31,9.31,0,0,0-9.33,9.29v0l0,149.53a9.3,9.3,0,0,0,9.3,9.31h0l61,0a9.31,9.31,0,0,0,9.31-9.31h0l0-149.54A9.31,9.31,0,0,0,122.88,17.32Z"/><path class="cls-6" d="M123.77,29.47s-1.54.09-3.44.1-3.44,0-3.44,0,1.53-.09,3.44-.1S123.77,29.43,123.77,29.47Z"/><path class="cls-6" d="M123.78,31.23s-1.54.09-3.44.1-3.44,0-3.44,0,1.54-.08,3.44-.1S123.78,31.19,123.78,31.23Z"/><path class="cls-6" d="M123.8,33s-1.54.09-3.44.1-3.44,0-3.45,0,1.55-.09,3.45-.1S123.8,33,123.8,33Z"/><path class="cls-6" d="M59,34.71h.68l1.85,0-.05,0c0-.41,0-.86,0-1.33v-.78A.72.72,0,0,1,62,32h.88a.73.73,0,0,1,.61.72c0,.63,0,1.28,0,2l-.08-.09h2.34l-.09.09c0-.94,0-1.92,0-2.91v-.74a.72.72,0,0,0-.33-.55l-1-1-1-1-.47-.47c-.16-.16-.29-.33-.48-.37a.65.65,0,0,0-.54.11,6.08,6.08,0,0,0-.44.44l-.84.85c-.53.54-1.08,1-1.48,1.52a1.66,1.66,0,0,0-.12.88v3a1.5,1.5,0,0,1,0,.3V33.69c0-.34,0-.83,0-1.33V31.07a1.05,1.05,0,0,1,.13-.49c.45-.52,1-1,1.48-1.56l.84-.85c.15-.15.27-.29.44-.44a.79.79,0,0,1,.68-.14,1.32,1.32,0,0,1,.56.4l.48.47,1,1,1,1a2.35,2.35,0,0,1,.26.29.79.79,0,0,1,.13.39v.75c0,1,0,2,0,2.91v.09H63.39v-2a.54.54,0,0,0-.47-.56h-.85a.55.55,0,0,0-.5.44v2.13H59.14Z"/><path class="cls-5" d="M99.29,151.56a3.55,3.55,0,0,1-.65,0l-1.74,0c-1.47,0-3.51,0-5.76,0s-4.29,0-5.76,0l-1.75,0a3.39,3.39,0,0,1-.64,0,2.72,2.72,0,0,1,.64,0l1.75,0c1.47,0,3.51,0,5.76,0s4.28,0,5.76,0l1.74,0A2.81,2.81,0,0,1,99.29,151.56Z"/><path class="cls-5" d="M124.89,155.57c0,.06-9.38.11-21,.11s-21-.05-21-.11,9.39-.12,21-.12S124.89,155.5,124.89,155.57Z"/><path class="cls-5" d="M111.79,159.36c0,.06-6.44.11-14.4.11S83,159.42,83,159.36s6.45-.12,14.41-.12S111.79,159.28,111.79,159.36Z"/><path class="cls-6" d="M125.72,166.68l-1.3-1.31-1.25,1.24v-3.74h2.54Zm-1.3-1.47,0,0,1.14,1.15V163h-2.31v3.35Z"/><path class="cls-6" d="M91.05,166.19l-.44-.2a1.19,1.19,0,1,1,.35-.26ZM90,163.7a1.19,1.19,0,0,0,0,2.38,1.13,1.13,0,0,0,.57-.18h0l.35.15-.08-.33h0a1.19,1.19,0,0,0-.08-1.68,1.2,1.2,0,0,0-.81-.31Z"/><path class="cls-6" d="M94,166l-.52-1.28-1-.89h2.39Zm-1.29-2.09.84.77.45,1.09.75-1.88Z"/><rect class="cls-6" x="93.42" y="164.22" width="1.56" height="0.09" transform="translate(-74.34 77.95) rotate(-33.05)"/><path class="cls-7" d="M87.28,164.08a.74.74,0,0,0-1.46,0,.73.73,0,0,0-.83-.63.72.72,0,0,0-.63.6,1,1,0,0,0,.18.72,2.71,2.71,0,0,0,.52.55c.27.24.52.45.78.7.27-.24.49-.47.75-.71a2.77,2.77,0,0,0,.52-.56A1,1,0,0,0,87.28,164.08Z"/><path class="cls-6" d="M128.39,170v-1.63c0-1.07,0-2.66,0-4.68,0-4.07,0-10,0-17.43l.08.08-70.87,0h0l.12-.12V170l-.11-.11,50.71.05,14.8,0h.07l-14.78,0-50.79,0h-.12v-23.9h.13l70.87,0h.07v.07c0,7.45,0,13.39,0,17.48v5.86A.91.91,0,0,1,128.39,170Z"/><rect class="cls-8" x="62.39" y="148.31" width="15.7" height="19.63" transform="translate(-88.29 227.45) rotate(-89.67)"/><path class="cls-6" d="M80.09,150.32H74.62l-14.19,0,.11-.1c0,4.68,0,10-.08,15.69l-.11-.11h5.34l5.1,0,9.19.07-.09.09c0-4.71.08-8.62.11-11.37,0-1.36,0-2.44,0-3.19v14.66h-.1l-9.19,0-5.1,0H60.31l-.12-.12c0-5.66.08-11,.11-15.69v-.1h.1l14.23.12,4,.06h1.31Z"/><rect class="cls-9" x="63.37" y="149" width="13.72" height="18.25" transform="translate(-88.3 227.44) rotate(-89.67)"/><polygon class="cls-10" points="61.05 164.92 67.48 156.43 71.39 161.79 74.09 158.95 79.3 165.03 61.05 164.92"/><path class="cls-10" d="M73.11,155.42A1.44,1.44,0,1,1,71.67,154h0a1.43,1.43,0,0,1,1.43,1.44Z"/><path class="cls-6" d="M93.57,48.5h-.22l-.6,0-2.21,0c-1.87,0-4.43,0-7.3,0s-5.42,0-7.29,0l-2.22,0-.6,0h-.21l.21,0h.6l2.22,0c1.87,0,4.43,0,7.29,0s5.43,0,7.3,0l2.21,0h.6Z"/><path class="cls-6" d="M122.57,135.27l-1.93-1.94-1.85,1.84v-5.56h3.77Zm-1.93-2.18,0,.06,1.71,1.71v-5.07H119v5Z"/><path class="cls-6" d="M73.44,134.68l-.89-.4a2.28,2.28,0,1,1,.7-.5Zm-2.12-4.89a2.34,2.34,0,1,0,0,4.68,2.51,2.51,0,0,0,1.13-.36l0,0,.66.3-.15-.66,0,0a2.33,2.33,0,0,0-1.75-3.91Z"/><path class="cls-6" d="M79.25,134.3l-1-2.53L76.27,130,81,130Zm-2.54-4.14,1.66,1.52.89,2.16,1.48-3.71Z"/><rect class="cls-6" x="78.12" y="130.77" width="3.07" height="0.17" transform="translate(-58.48 64.62) rotate(-33.05)"/><path class="cls-7" d="M66,130.55a1.46,1.46,0,0,0-2.88.09,1.45,1.45,0,0,0-2.87,0,2,2,0,0,0,.35,1.42,6.31,6.31,0,0,0,1,1.09c.52.44,1,.88,1.53,1.36.52-.47,1-.92,1.48-1.39a6.28,6.28,0,0,0,1-1.1A2,2,0,0,0,66,130.55Z"/><circle class="cls-8" cx="65.59" cy="48.5" r="3.2"/><path class="cls-5" d="M121.36,116.92c0,.07-13.41.12-29.95.12s-29.95-.05-29.95-.12,13.41-.11,29.95-.11S121.36,116.86,121.36,116.92Z"/><path class="cls-5" d="M121.36,111.93c0,.07-13.41.12-29.95.12s-29.95,0-29.95-.12,13.41-.11,29.95-.11S121.36,111.87,121.36,111.93Z"/><path class="cls-5" d="M94.06,122c0,.06-7.3.11-16.3.11s-16.3,0-16.3-.11,7.3-.12,16.3-.12S94.06,121.92,94.06,122Z"/><path class="cls-6" d="M90,176.32A1.28,1.28,0,1,1,88.78,175,1.28,1.28,0,0,1,90,176.32Z"/><path class="cls-6" d="M94,176.34a1.29,1.29,0,0,1-1.3,1.25,1.28,1.28,0,1,1,1.3-1.26Z"/><path class="cls-6" d="M97.93,176.36a1.28,1.28,0,1,1-1.27-1.3,1.29,1.29,0,0,1,1.27,1.3Z"/><rect class="cls-9" x="57.93" y="54.83" width="70.88" height="43.34"/><polygon class="cls-10" points="64.48 98.19 84.79 71 97.38 88 105.91 78.91 122.65 98.17 64.48 98.19"/><path class="cls-10" d="M102.72,67.67a4.59,4.59,0,1,1-4.59-4.58h0A4.59,4.59,0,0,1,102.72,67.67Z"/><path class="cls-6" d="M128.62,138.46c0-.93,0-40.08-.1-98.05l.1.11H57.75l.12-.12v98l-.1-.09,70.88.09-70.88.1h-.09v-.1c0-27.45,0-61.38,0-98v-.11h71.09v.1c0,29,0,53.53-.05,70.81,0,8.62,0,15.44,0,20.1V138A1.87,1.87,0,0,1,128.62,138.46Z"/></g><g id="freepik--Stars--inject-13"><polygon class="cls-7" points="157.62 5.5 158.12 6.42 159.04 6.92 158.12 7.42 157.62 8.33 157.12 7.42 156.21 6.92 157.12 6.42 157.62 5.5"/><polygon class="cls-7" points="168.09 28.18 168.59 29.1 169.5 29.6 168.59 30.1 168.09 31.01 167.59 30.1 166.67 29.6 167.59 29.1 168.09 28.18"/><polygon class="cls-7" points="1.41 90.68 1.92 91.6 2.83 92.1 1.92 92.6 1.41 93.51 0.91 92.6 0 92.1 0.91 91.6 1.41 90.68"/><polygon class="cls-7" points="143.9 11.14 145.06 13.25 147.17 14.41 145.06 15.56 143.9 17.68 142.75 15.56 140.63 14.41 142.75 13.25 143.9 11.14"/><polygon class="cls-7" points="9.79 74.31 10.94 76.41 13.05 77.57 10.94 78.72 9.79 80.83 8.64 78.72 6.53 77.57 8.64 76.41 9.79 74.31"/><polygon class="cls-7" points="170.93 124.59 172.08 126.7 174.19 127.85 172.08 129.01 170.93 131.12 169.78 129.01 167.67 127.85 169.78 126.7 170.93 124.59"/></g></g></g></svg>